<?xml version="1.0" encoding="UTF-8"?><svg id="Layer_1" xmlns="http://www.w3.org/2000/svg" width="512.394397" height="516.918032" xmlns:xlink="http://www.w3.org/1999/xlink" viewBox="0 0 512.394397 516.918032"><defs><radialGradient id="radial-gradient" cx="245.292098" cy="245.664655" fx="245.292098" fy="245.664655" r="238.439198" gradientTransform="translate(-.676463 -1.13515) scale(1.047215)" gradientUnits="userSpaceOnUse"><stop offset=".005587" stop-color="#eff6ff"/><stop offset=".354204" stop-color="#e9f2ff"/><stop offset=".799677" stop-color="#d9e8ff"/><stop offset="1" stop-color="#d0e3ff"/></radialGradient><radialGradient id="radial-gradient-2" cx="150.034499" cy="167.115563" fx="150.034499" fy="167.115563" r="84.074708" gradientTransform="translate(-82.542671 132.350031) rotate(-36.801877)" gradientUnits="userSpaceOnUse"><stop offset=".005587" stop-color="#fff6f3"/><stop offset=".330416" stop-color="#fff0ec"/><stop offset=".789881" stop-color="#ffe2d9"/><stop offset="1" stop-color="#ffdacf"/></radialGradient><radialGradient id="radial-gradient-3" cx="144.578117" cy="-196.217994" fx="144.578117" fy="-196.217994" r="20.322792" gradientTransform="translate(139.986774 489.269235) rotate(-36.801877) scale(1.284184)" gradientUnits="userSpaceOnUse"><stop offset=".005587" stop-color="#ffece6"/><stop offset=".214816" stop-color="#ffe8e1"/><stop offset=".462792" stop-color="#ffddd2"/><stop offset=".730353" stop-color="#ffcaba"/><stop offset="1" stop-color="#ffb29b"/></radialGradient><radialGradient id="radial-gradient-4" cx="62.342084" cy="238.919479" fx="62.342084" fy="238.919479" r="84.074708" gradientTransform="translate(-92.183229 145.282897) rotate(-40.545553)" xlink:href="#radial-gradient-2"/><radialGradient id="radial-gradient-5" cx="76.291644" cy="-140.303966" fx="76.291644" fy="-140.303966" r="20.322792" gradientTransform="translate(153.175692 486.910869) rotate(-40.545553) scale(1.284184)" xlink:href="#radial-gradient-3"/><radialGradient id="radial-gradient-6" cx="154.549122" cy="349.986171" fx="154.549122" fy="349.986171" r="84.074708" gradientTransform="translate(-92.183229 145.282897) rotate(-40.545553)" xlink:href="#radial-gradient-2"/><radialGradient id="radial-gradient-7" cx="148.093675" cy="-53.81584" fx="148.093675" fy="-53.81584" r="20.322792" gradientTransform="translate(153.175692 486.910869) rotate(-40.545553) scale(1.284184)" xlink:href="#radial-gradient-3"/><radialGradient id="radial-gradient-8" cx="238.960222" cy="404.504167" fx="238.960222" fy="404.504167" r="84.074708" gradientTransform="translate(716.226836 -57.309165) rotate(-167.685152) scale(1 -1)" xlink:href="#radial-gradient-2"/><radialGradient id="radial-gradient-9" cx="213.824973" cy="-11.362434" fx="213.824973" fy="-11.362434" r="20.322792" gradientTransform="translate(661.65122 359.742599) rotate(-167.685152) scale(1.284184 -1.284184)" xlink:href="#radial-gradient-3"/><radialGradient id="radial-gradient-10" cx="399.274077" cy="526.493628" fx="399.274077" fy="526.493628" r="84.074708" gradientTransform="translate(-479.091552 424.701321) rotate(-56.246855)" xlink:href="#radial-gradient-2"/><radialGradient id="radial-gradient-11" cx="338.662084" cy="83.631301" fx="338.662084" fy="83.631301" gradientTransform="translate(-150.435897 687.182048) rotate(-56.246855) scale(1.284184)" xlink:href="#radial-gradient-3"/><radialGradient id="radial-gradient-12" cx="476.112531" cy="641.476837" fx="476.112531" fy="641.476837" r="84.074708" gradientTransform="translate(1123.288198 424.701321) rotate(-123.753145) scale(1 -1)" xlink:href="#radial-gradient-2"/><radialGradient id="radial-gradient-13" cx="398.49653" cy="173.169238" fx="398.49653" fy="173.169238" r="20.322792" gradientTransform="translate(794.632542 687.182048) rotate(-123.753145) scale(1.284184 -1.284184)" xlink:href="#radial-gradient-3"/><radialGradient id="radial-gradient-14" cx="276.001739" cy="185.685792" fx="276.001739" fy="185.685792" r="84.074708" gradientTransform="translate(390.873912 -164.645186) rotate(148.199701) scale(1 -1)" xlink:href="#radial-gradient-2"/><radialGradient id="radial-gradient-15" cx="242.669367" cy="-181.757275" fx="242.669367" fy="-181.757275" r="20.322792" gradientTransform="translate(642.002596 172.764144) rotate(148.199701) scale(1.284184 -1.284184)" xlink:href="#radial-gradient-3"/><radialGradient id="radial-gradient-16" cx="235.885498" cy="269.572545" fx="235.885498" fy="269.572545" r="84.074708" gradientTransform="translate(640.121035 -37.152548) rotate(-163.868027) scale(1 -1)" xlink:href="#radial-gradient-2"/><radialGradient id="radial-gradient-17" cx="211.430672" cy="-116.434288" fx="211.430672" fy="-116.434288" r="20.322792" gradientTransform="translate(557.902467 375.340821) rotate(-163.868027) scale(1.284184 -1.284184)" xlink:href="#radial-gradient-3"/></defs><ellipse cx="256.197198" cy="258.459016" rx="249.697198" ry="251.959016" fill="url(#radial-gradient)" stroke="#849cbf" stroke-miterlimit="10" stroke-width="13"/><path d="M193.394999,121.694704c36.663699,49.006031,54.553623,84.941493,5.720011,121.476197-48.833612,36.534704-89.004594,25.261631-125.668293-23.7444-36.663699-49.006031-32.668662-83.463049,16.16495-119.997753,48.833612-36.534704,67.119633-26.740075,103.783332,22.265956Z" fill="url(#radial-gradient-2)" stroke="#c7a398" stroke-miterlimit="10" stroke-width="4"/><circle cx="137.702264" cy="176.283285" r="26.09821" fill="url(#radial-gradient-3)" stroke="#8c523f" stroke-miterlimit="10"/><path d="M162.509683,228.201209c39.785214,46.507576,59.983297,81.19827,13.63935,120.843506-46.343947,39.645237-87.165263,31.019103-126.950477-15.488474-39.785214-46.507576-38.048504-81.151915,8.295444-120.797152,46.343947-39.645237,65.23047-31.065457,105.015684,15.442119Z" fill="url(#radial-gradient-4)" stroke="#c7a398" stroke-miterlimit="10" stroke-width="4"/><circle cx="110.50004" cy="286.309651" r="26.09821" fill="url(#radial-gradient-5)" stroke="#8c523f" stroke-miterlimit="10"/><path d="M304.776002,252.660201c39.785214,46.507576,59.983297,81.19827,13.63935,120.843506-46.343947,39.645237-87.165263,31.019103-126.950477-15.488474-39.785214-46.507576-38.048504-81.151915,8.295444-120.797152,46.343947-39.645237,65.23047-31.065457,105.015684,15.442119Z" fill="url(#radial-gradient-6)" stroke="#c7a398" stroke-miterlimit="10" stroke-width="4"/><circle cx="252.766359" cy="310.768643" r="26.09821" fill="url(#radial-gradient-7)" stroke="#8c523f" stroke-miterlimit="10"/><path d="M323.181181,260.326512c-13.053614,59.794825-14.439641,99.913221,45.144806,112.920908,59.584447,13.007687,91.469711-13.90179,104.523325-73.696615,13.053614-59.794825-4.864084-89.496719-64.448531-102.504406-59.584447-13.007687-72.165986,3.485288-85.2196,63.280113Z" fill="url(#radial-gradient-8)" stroke="#c7a398" stroke-miterlimit="10" stroke-width="4"/><circle cx="396.49091" cy="286.921203" r="26.09821" fill="url(#radial-gradient-9)" stroke="#8c523f" stroke-miterlimit="10"/><path d="M214.84235,315.24232c50.886641,34.005407,79.719121,61.935585,45.833356,112.64319-33.885764,50.707605-75.518282,53.450509-126.404923,19.445103-50.886641-34.005407-58.590266-67.827006-24.704502-118.53461,33.885764-50.707605,54.389427-47.559089,105.276068-13.553683Z" fill="url(#radial-gradient-10)" stroke="#c7a398" stroke-miterlimit="10" stroke-width="4"/><circle cx="180.498858" cy="385.25745" r="26.09821" fill="url(#radial-gradient-11)" stroke="#8c523f" stroke-miterlimit="10"/><path d="M291.060093,315.24232c-50.886641,34.005407-79.719121,61.935585-45.833356,112.64319,33.885764,50.707605,75.518282,53.450509,126.404923,19.445103,50.886641-34.005407,58.590266-67.827006,24.704502-118.53461-33.885764-50.707605-54.389427-47.559089-105.276068-13.553683Z" fill="url(#radial-gradient-12)" stroke="#c7a398" stroke-miterlimit="10" stroke-width="4"/><circle cx="325.403585" cy="385.25745" r="26.09821" fill="url(#radial-gradient-13)" stroke="#8c523f" stroke-miterlimit="10"/><path d="M183.007047,170.546881c32.251593,52.015889,59.183026,81.783399,111.015905,49.645278,51.83288-32.138121,55.992902-73.652989,23.741309-125.668877-32.251593-52.015889-65.791032-60.867578-117.623912-28.729457-51.83288,32.138121-49.384896,52.737168-17.133303,104.753056Z" fill="url(#radial-gradient-14)" stroke="#c7a398" stroke-miterlimit="10" stroke-width="4"/><circle cx="254.151836" cy="138.609241" r="26.09821" fill="url(#radial-gradient-15)" stroke="#8c523f" stroke-miterlimit="10"/><path d="M267.246133,124.848333c-17.005324,58.79317-21.059044,98.730297,37.527273,115.675791,58.586316,16.945494,92.192268-7.781617,109.197592-66.574788,17.005324-58.79317,1.104693-89.621993-57.481623-106.567487-58.586316-16.945494-72.237917-1.326687-89.243241,57.466483Z" fill="url(#radial-gradient-16)" stroke="#c7a398" stroke-miterlimit="10" stroke-width="4"/><circle cx="338.622768" cy="156.264412" r="26.09821" fill="url(#radial-gradient-17)" stroke="#8c523f" stroke-miterlimit="10"/></svg>