<?xml version="1.0" encoding="UTF-8"?><svg id="Layer_1" xmlns="http://www.w3.org/2000/svg" width="320.90126" height="288.77465" xmlns:xlink="http://www.w3.org/1999/xlink" viewBox="0 0 320.90126 288.77465"><defs><linearGradient id="linear-gradient" x1="152.72888" y1="276.42404" x2="152.72888" y2="10.19334" gradientUnits="userSpaceOnUse"><stop offset="0" stop-color="#1d3b47"/><stop offset=".10969" stop-color="#1f3f4c"/><stop offset=".25148" stop-color="#264d5c"/><stop offset=".35984" stop-color="#2e5c6e"/><stop offset=".59928" stop-color="#448ea8"/><stop offset=".64954" stop-color="#4897b3"/><stop offset=".74461" stop-color="#4ea4c3"/><stop offset=".85256" stop-color="#51accd"/><stop offset="1" stop-color="#53afd0"/></linearGradient><radialGradient id="radial-gradient" cx="166.58568" cy="187.21163" fx="166.58568" fy="187.21163" r="37.54967" gradientUnits="userSpaceOnUse"><stop offset="0" stop-color="#f1f7eb"/><stop offset=".19763" stop-color="#edf5e7"/><stop offset=".36977" stop-color="#e2f1dc"/><stop offset=".53249" stop-color="#d0e9ca"/><stop offset=".68935" stop-color="#b7deb1"/><stop offset=".84204" stop-color="#97d091"/><stop offset=".98967" stop-color="#70c06a"/><stop offset="1" stop-color="#6dbf67"/></radialGradient></defs><path d="M250.80742,101.51893c-3.11748,99.4484-51.23346,174.90511-86.74332,174.90511S62.41443,203.08801,54.36297,101.07448C49.31166,37.07342,71.76958,13.77905,108.48149,10.81266c7.65926-.61888,17.43704,10.11368,51.80741,10.40998,43.69547.37669,52.74074-11.21674,55.21282-11.02698,40.23017,3.08813,37.31184,27.3268,35.3057,91.32328Z" fill="url(#linear-gradient)"/><path d="M166.50543,271.06702c.93839,8.5363-6.49291,15.68746-14.96944,14.30998-33.58859-5.45832-93.9399-31.67835-113.30199-87.87849-12.31323-35.7402,4.37292-42.65903-10.38954-87.38699C12.30054,63.01591-2.31038,53.8003,3.17845,35.90494,7.19245,22.81806,20.07657,13.65034,30.80742,10.85225c12.23859-3.19124,15.272,3.57274,34.6423,4.93065,26.43335,1.85306,34.85388-9.75667,49.69849-2.05124.84985.44113,11.78741,6.3891,16.01578,18.5304,3.03342,8.71014,1.31137,17.13367.49927,21.10608-1.73294,8.47678-4.71509,11.03491-5.51984,20.56638-.26105,3.09167-.56631,6.70721.32944,11.28946,2.29956,11.76334,9.20944,12.99243,9.62375,22.7995.24213,5.73026-.8197,11.68155-.81973,11.68164-.40961,2.29593-.96933,4.54343-.7836,7.77856.17801,3.10077.92957,5.30933,1.16742,6.065,3.03732,9.6489.20206,20.05496-6.69016,27.46069-7.41382,7.97525-11.44894,19.00427-10.18399,30.67593.43423,4.0065,1.45877,7.79819,2.98538,11.30414,4.43826,10.23135,13.64301,16.27475,16.69614,18.4585,1.04107.73631,2.08701,1.39465,3.13509,1.98031,13.217,7.3855,21.95205,20.80136,23.60647,35.8512l1.2958,11.78757Z" fill="#cfecf8" stroke="#05415a" stroke-miterlimit="10" stroke-width="4"/><path d="M164.52187,272.58069c-.74445,8.54199,6.82858,15.53766,15.25916,13.97406,29.00623-5.3797,63.80331-23.51102,74.11761-33.39453,12.03955-11.53671,30.27945-29.0148,37.20242-57.02292,7.92831-32.07541-8.74936-38.46097-4.29364-72.39615,5.90164-44.94754,38.05035-55.36398,31.12073-88.00226-2.81409-13.2543-12.10056-30.39087-25.34296-33.33109-9.5845-2.12805-13.92703,4.80461-30.66666,4-13.16019-.63255-14.1597-5.09442-24.96066-4.22722-12.80191,1.02785-21.9274,8.19748-26.89694,11.97169-5.64896,4.29022-12.5769,9.55176-15.59366,18.88696-2.83618,8.77637-.92453,17.15891-.02304,21.11197,1.92371,8.43552,4.96283,10.92575,5.98239,20.43661.33072,3.08502.71747,6.69272-.07471,11.29404-2.0336,11.81223-8.914,13.19687-9.10699,23.01077-.11276,5.73428,1.08304,11.6601,1.08307,11.66019.4613,2.2861,1.07156,4.52039.95889,7.75891-.10803,3.104-.80957,5.32895-1.03033,6.08981-2.81888,9.71494.25043,20.05438,7.30792,27.30276,7.59183,7.806,11.87476,18.74118,10.87341,30.43839-.34375,4.01529-1.2825,7.8291-2.72961,11.36859-4.20633,10.32892-13.2724,16.5784-16.27548,18.83047-2.60275,1.95187-4.1723,2.51099-5.99841,3.57254-2.02438,1.17682-4.25535,2.72768-6.5932,4.8254-9.39539,8.43035-14.51097,20.63798-14.39686,33.26063l.07756,8.58035Z" fill="#cfecf8" stroke="#05415a" stroke-miterlimit="10" stroke-width="4"/><circle cx="166.58568" cy="187.21163" r="37.54967" fill="url(#radial-gradient)" stroke="#134d26" stroke-miterlimit="10" stroke-width="2"/><path d="M166.50543,271.06702c.93839,8.5363-6.49291,15.68746-14.96944,14.30998-33.58859-5.45832-93.9399-31.67835-113.30199-87.87849-12.31323-35.7402,4.37292-42.65903-10.38954-87.38699C12.30054,63.01591-2.31038,53.8003,3.17845,35.90494,7.19245,22.81806,20.07657,13.65034,30.80742,10.85225c12.23859-3.19124,15.272,3.57274,34.6423,4.93065,26.43335,1.85306,34.85388-9.75667,49.69849-2.05124.84985.44113,11.78741,6.3891,16.01578,18.5304,3.03342,8.71014,1.31137,17.13367.49927,21.10608-1.73294,8.47678-4.71509,11.03491-5.51984,20.56638-.26105,3.09167-.56631,6.70721.32944,11.28946,2.29956,11.76334,9.20944,12.99243,9.62375,22.7995.24213,5.73026-.8197,11.68155-.81973,11.68164-.40961,2.29593-.96933,4.54343-.7836,7.77856.17801,3.10077.92957,5.30933,1.16742,6.065,3.03732,9.6489.20206,20.05496-6.69016,27.46069-7.41382,7.97525-11.44894,19.00427-10.18399,30.67593.43423,4.0065,1.45877,7.79819,2.98538,11.30414,4.43826,10.23135,13.64301,16.27475,16.69614,18.4585,1.04107.73631,2.08701,1.39465,3.13509,1.98031,13.217,7.3855,21.95205,20.80136,23.60647,35.8512l1.2958,11.78757Z" fill="none" stroke="#05415a" stroke-miterlimit="10" stroke-width="2"/><path d="M164.52187,272.58069c-.74445,8.54199,6.82858,15.53766,15.25916,13.97406,29.00623-5.3797,63.80331-23.51102,74.11761-33.39453,12.03955-11.53671,30.27945-29.0148,37.20242-57.02292,7.92831-32.07541-8.74936-38.46097-4.29364-72.39615,5.90164-44.94754,38.05035-55.36398,31.12073-88.00226-2.81409-13.2543-12.10056-30.39087-25.34296-33.33109-9.5845-2.12805-13.92703,4.80461-30.66666,4-13.16019-.63255-14.1597-5.09442-24.96066-4.22722-12.80191,1.02785-21.9274,8.19748-26.89694,11.97169-5.64896,4.29022-12.5769,9.55176-15.59366,18.88696-2.83618,8.77637-.92453,17.15891-.02304,21.11197,1.92371,8.43552,4.96283,10.92575,5.98239,20.43661.33072,3.08502.71747,6.69272-.07471,11.29404-2.0336,11.81223-8.914,13.19687-9.10699,23.01077-.11276,5.73428,1.08304,11.6601,1.08307,11.66019.4613,2.2861,1.07156,4.52039.95889,7.75891-.10803,3.104-.80957,5.32895-1.03033,6.08981-2.81888,9.71494.25043,20.05438,7.30792,27.30276,7.59183,7.806,11.87476,18.74118,10.87341,30.43839-.34375,4.01529-1.2825,7.8291-2.72961,11.36859-4.20633,10.32892-13.2724,16.5784-16.27548,18.83047-2.60275,1.95187-4.1723,2.51099-5.99841,3.57254-2.02438,1.17682-4.25535,2.72768-6.5932,4.8254-9.39539,8.43035-14.51097,20.63798-14.39686,33.26063l.07756,8.58035Z" fill="none" stroke="#05415a" stroke-miterlimit="10" stroke-width="2"/></svg>