<?xml version="1.0" encoding="UTF-8"?><svg id="Layer_1" xmlns="http://www.w3.org/2000/svg" width="578.9834" height="314.84033" viewBox="0 0 578.9834 314.84033"><line x1="287.60126" y1="125.06196" x2="359.60126" y2="168.02184" fill="none" stroke="#231f20" stroke-linecap="round" stroke-miterlimit="10" stroke-width="3.6"/><line x1="142.36107" y1="125.06196" x2="214.36107" y2="168.02184" fill="none" stroke="#231f20" stroke-linecap="round" stroke-miterlimit="10" stroke-width="3.6"/><line x1="432.84145" y1="125.06196" x2="504.84145" y2="168.02184" fill="none" stroke="#231f20" stroke-linecap="round" stroke-miterlimit="10" stroke-width="3.6"/><line x1="428.93876" y1="125.57309" x2="428.93873" y2="41.73067" fill="none" stroke="#231f20" stroke-linecap="round" stroke-miterlimit="10" stroke-width="3.6"/><polygon points="353.53052 251.43976 357.80127 167.59732 361.40112 167.59732 365.67212 251.43976 353.53052 251.43976 353.53052 251.43976" fill="#231f20"/><line x1="435.87209" y1="125.57309" x2="435.87207" y2="41.73067" fill="none" stroke="#231f20" stroke-linecap="round" stroke-miterlimit="10" stroke-width="3.6"/><line x1="432.22136" y1="125.06196" x2="360.22136" y2="168.02184" fill="none" stroke="#231f20" stroke-linecap="round" stroke-miterlimit="10" stroke-width="3.6"/><line x1="286.98117" y1="125.06196" x2="214.98117" y2="168.02184" fill="none" stroke="#231f20" stroke-linecap="round" stroke-miterlimit="10" stroke-width="3.6"/><line x1="142.36109" y1="125.06196" x2="70.36109" y2="168.02184" fill="none" stroke="#231f20" stroke-linecap="round" stroke-miterlimit="10" stroke-width="3.6"/><text transform="translate(511.77867 184.54747)" fill="#231f20" font-family="TimesNewRomanPS-BoldMT, &apos;Times New Roman&apos;" font-size="43.2" font-weight="700"><tspan x="0" y="0">OH</tspan></text><text transform="translate(.00021 185.19546)" fill="#231f20" font-family="TimesNewRomanPS-BoldMT, &apos;Times New Roman&apos;" font-size="43.2" font-weight="700"><tspan x="0" y="0">HO</tspan></text><text transform="translate(419.25816 35.90147)" fill="#231f20" font-family="TimesNewRomanPS-BoldMT, &apos;Times New Roman&apos;" font-size="43.2" font-weight="700"><tspan x="0" y="0">O</tspan></text><line x1="138.93739" y1="125.5732" x2="138.93736" y2="41.73078" fill="none" stroke="#231f20" stroke-linecap="round" stroke-miterlimit="10" stroke-width="3.6"/><line x1="145.87072" y1="125.5732" x2="145.8707" y2="41.73078" fill="none" stroke="#231f20" stroke-linecap="round" stroke-miterlimit="10" stroke-width="3.6"/><text transform="translate(129.25621 35.90147)" fill="#231f20" font-family="TimesNewRomanPS-BoldMT, &apos;Times New Roman&apos;" font-size="43.2" font-weight="700"><tspan x="0" y="0">O</tspan></text><text transform="translate(343.65757 286.30088)" fill="#231f20" font-family="TimesNewRomanPS-BoldMT, &apos;Times New Roman&apos;" font-size="43.2" font-weight="700"><tspan x="0" y="0">NH</tspan></text><text transform="translate(408.45738 300.68663) scale(.583)" fill="#231f20" font-family="TimesNewRomanPS-BoldMT, &apos;Times New Roman&apos;" font-size="43.2" font-weight="700"><tspan x="0" y="0">2</tspan></text></svg>