<?xml version="1.0" encoding="UTF-8"?><svg id="Layer_1" xmlns="http://www.w3.org/2000/svg" width="364.312954" height="353.943064" xmlns:xlink="http://www.w3.org/1999/xlink" viewBox="0 0 364.312954 353.943064"><defs><radialGradient id="radial-gradient" cx="182.156477" cy="176.971532" fx="182.156477" fy="176.971532" r="178.082876" gradientUnits="userSpaceOnUse"><stop offset="0" stop-color="#fef5e8"/><stop offset=".305485" stop-color="#fdf3e4"/><stop offset=".589217" stop-color="#fdeed9"/><stop offset=".863452" stop-color="#fde7c6"/><stop offset="1" stop-color="#fde2ba"/></radialGradient><radialGradient id="radial-gradient-2" cx="192.595431" cy="193.357722" fx="192.595431" fy="193.357722" r="148.663673" gradientUnits="userSpaceOnUse"><stop offset="0" stop-color="#f5dcc7"/><stop offset=".231524" stop-color="#f4d9c3"/><stop offset=".446625" stop-color="#f2d2b8"/><stop offset=".655212" stop-color="#eec6a5"/><stop offset=".858539" stop-color="#e9b68b"/><stop offset="1" stop-color="#e5a874"/></radialGradient></defs><path d="M362.73347,181.243337c.378051,25.898751-.326756,51.14078-8.05953,71.283967-8.860846,23.081714-29.028463,39.239368-45.682222,54.763686-17.208333,16.041281-37.436891,27.478703-59.653762,35.450789-21.950828,7.876622-44.988778,9.555352-68.562452,9.554787-23.574045-.000566-47.812252,1.663932-69.762285-6.21416-22.216303-7.973659-42.137355-21.798426-59.343642-37.841983-16.651174-15.525956-25.108842-36.794368-33.966095-59.878003-7.729206-20.143738-14.910675-41.236149-14.529315-67.135143-.378174-25.897906-4.931563-51.495001,2.801663-71.637322,8.861206-23.080311,28.492123-40.450496,45.146436-55.973653,17.208362-16.039575,39.883192-23.165086,62.099853-31.136235C135.172361,14.604509,157.226365,1.499395,180.799318,1.5c23.573295.000605,47.197741,8.728816,69.147195,16.605904,22.216052,7.972762,45.235799,17.422343,62.442154,33.464178,16.651759,15.524774,27.763664,37.486234,36.621423,60.568384,7.729805,20.142851,14.104644,43.20676,13.72338,69.104872Z" fill="url(#radial-gradient)" stroke="#bd9b69" stroke-miterlimit="10" stroke-width="3"/><ellipse cx="192.595431" cy="193.357722" rx="154.666667" ry="142.407857" fill="url(#radial-gradient-2)"/></svg>