<?xml version="1.0" encoding="UTF-8"?><svg id="Layer_1" xmlns="http://www.w3.org/2000/svg" width="357" height="237.222259" xmlns:xlink="http://www.w3.org/1999/xlink" viewBox="0 0 357 237.222259"><defs><linearGradient id="linear-gradient" x1=".5" y1="118.61113" x2="356.5" y2="118.61113" gradientUnits="userSpaceOnUse"><stop offset="0" stop-color="#fff"/><stop offset="1" stop-color="#e6e7e8"/></linearGradient></defs><rect x=".5" y=".5" width="356" height="236.222259" fill="url(#linear-gradient)" stroke="#231f20" stroke-miterlimit="10"/><path d="M115.857049,62.19786c-.609985,15.179932-9.719971,29.399902-24.609985,35.809937-19.440002,8.359985-41.789978.410034-51.769958-17.76001-.640015-1.150024-1.220032-2.339966-1.75-3.569946-.140015-.320068-.27002-.640015-.400024-.969971-.440002-1.080078-.830017-2.190063-1.160034-3.290039-5.97998-19.590088,3.620056-40.97998,22.880005-49.26001,20.670044-8.880005,44.640015.669922,53.530029,21.319946,1.369995,3.190063,2.309998,6.460083,2.830017,9.75.149963.940063.269958,1.869995.339966,2.810059.150024,1.72998.190002,3.449951.109985,5.160034Z" fill="#a4dff9" stroke="#231f20" stroke-miterlimit="10"/><circle cx="75.149366" cy="60.585241" r="43.059491" fill="none" stroke="#231f20" stroke-miterlimit="10" stroke-width="1.056915"/><path d="M87.139877,27.731479c.230024,1.473907-8.611011,1.933135-23.564495,8.675157-13.82331,6.232574-20.03825,12.048607-21.020261,10.841884-1.136898-1.397015,5.254243-11.574851,15.720304-17.104633,13.170042-6.958333,28.56618-4.323449,28.864452-2.412409Z" fill="#ccecfc"/><path d="M113.932683,170.064312c-.609985,15.179932-9.719971,29.399902-24.609985,35.809937-19.440002,8.359985-41.789978.410034-51.769958-17.76001-.640015-1.150024-1.220032-2.339966-1.75-3.569946-.140015-.320068-.27002-.640015-.400024-.969971-.440002-1.080078-.830017-2.190063-1.160034-3.290039-5.97998-19.590088,3.620056-40.97998,22.880005-49.26001,20.670044-8.880005,44.640015.669922,53.530029,21.319946,1.369995,3.190063,2.309998,6.460083,2.830017,9.75.149963.940063.269958,1.869995.339966,2.810059.150024,1.72998.190002,3.449951.109985,5.160034Z" fill="#a4dff9" stroke="#231f20" stroke-miterlimit="10"/><circle cx="73.225" cy="168.451694" r="43.059491" fill="none" stroke="#231f20" stroke-miterlimit="10" stroke-width="1.056915"/><path d="M328.913867,62.197813c-.609985,15.179932-9.719971,29.399902-24.609985,35.809937-19.440002,8.359985-41.789978.410034-51.769958-17.76001-.640015-1.150024-1.220032-2.339966-1.75-3.569946-.140015-.320068-.27002-.640015-.400024-.969971-.440002-1.080078-.830017-2.190063-1.160034-3.290039-5.97998-19.590088,3.620056-40.97998,22.880005-49.26001,20.670044-8.880005,44.640015.669922,53.530029,21.319946,1.369995,3.190063,2.309998,6.460083,2.830017,9.75.149963.940063.269958,1.869995.339966,2.810059.150024,1.72998.190002,3.449951.109985,5.160034Z" fill="#a4dff9" stroke="#231f20" stroke-miterlimit="10"/><circle cx="288.206184" cy="60.585195" r="43.059491" fill="none" stroke="#231f20" stroke-miterlimit="10" stroke-width="1.056915"/><path d="M326.59144,170.064312c-.609985,15.179932-9.719971,29.399902-24.609985,35.809937-19.440002,8.359985-41.789978.410034-51.769958-17.76001-.640015-1.150024-1.220032-2.339966-1.75-3.569946-.140015-.320068-.27002-.640015-.400024-.969971-.440002-1.080078-.830017-2.190063-1.160034-3.290039-5.97998-19.590088,3.620056-40.97998,22.880005-49.26001,20.670044-8.880005,44.640015.669922,53.530029,21.319946,1.369995,3.190063,2.309998,6.460083,2.830017,9.75.149963.940063.269958,1.869995.339966,2.810059.150024,1.72998.190002,3.449951.109985,5.160034Z" fill="#a4dff9" stroke="#231f20" stroke-miterlimit="10"/><circle cx="285.883757" cy="168.451694" r="43.059491" fill="none" stroke="#231f20" stroke-miterlimit="10" stroke-width="1.056915"/><path d="M222.385458,62.19786c-.609985,15.179932-9.719971,29.399902-24.609985,35.809937-19.440002,8.359985-41.789978.410034-51.769958-17.76001-.640015-1.150024-1.220032-2.339966-1.75-3.569946-.140015-.320068-.27002-.640015-.400024-.969971-.440002-1.080078-.830017-2.190063-1.160034-3.290039-5.97998-19.590088,3.620056-40.97998,22.880005-49.26001,20.670044-8.880005,44.640015.669922,53.530029,21.319946,1.369995,3.190063,2.309998,6.460083,2.830017,9.75.149963.940063.269958,1.869995.339966,2.810059.150024,1.72998.190002,3.449951.109985,5.160034Z" fill="#a4dff9" stroke="#231f20" stroke-miterlimit="10"/><circle cx="181.677775" cy="60.585241" r="43.059491" fill="none" stroke="#231f20" stroke-miterlimit="10" stroke-width="1.056915"/><path d="M220.262061,170.064312c-.609985,15.179932-9.719971,29.399902-24.609985,35.809937-19.440002,8.359985-41.789978.410034-51.769958-17.76001-.640015-1.150024-1.220032-2.339966-1.75-3.569946-.140015-.320068-.27002-.640015-.400024-.969971-.440002-1.080078-.830017-2.190063-1.160034-3.290039-5.97998-19.590088,3.620056-40.97998,22.880005-49.26001,20.670044-8.880005,44.640015.669922,53.530029,21.319946,1.369995,3.190063,2.309998,6.460083,2.830017,9.75.149963.940063.269958,1.869995.339966,2.810059.150024,1.72998.190002,3.449951.109985,5.160034Z" fill="#a4dff9" stroke="#231f20" stroke-miterlimit="10"/><circle cx="179.554378" cy="168.451694" r="43.059491" fill="none" stroke="#231f20" stroke-miterlimit="10" stroke-width="1.056915"/><path d="M84.311418,134.271078c.230024,1.473907-8.611011,1.933135-23.564495,8.675157-13.82331,6.232574-20.03825,12.048607-21.020261,10.841884-1.136898-1.397015,5.254243-11.574851,15.720304-17.104633,13.170042-6.958333,28.56618-4.323449,28.864452-2.412409Z" fill="#ccecfc"/><path d="M193.200307,133.563719c.230024,1.473907-8.611011,1.933135-23.564495,8.675157-13.82331,6.232574-20.03825,12.048607-21.020261,10.841884-1.136898-1.397015,5.254243-11.574851,15.720304-17.104633,13.170042-6.958333,28.56618-4.323449,28.864452-2.412409Z" fill="#ccecfc"/><path d="M298.742921,134.271078c.230024,1.473907-8.611011,1.933135-23.564495,8.675157-13.82331,6.232574-20.03825,12.048607-21.020261,10.841884-1.136898-1.397015,5.254243-11.574851,15.720304-17.104633,13.170042-6.958333,28.56618-4.323449,28.864452-2.412409Z" fill="#ccecfc"/><path d="M302.089196,25.267423c.230024,1.473907-8.611011,1.933135-23.564495,8.675157-13.82331,6.232574-20.03825,12.048607-21.020261,10.841884-1.136898-1.397015,5.254243-11.574851,15.720304-17.104633,13.170042-6.958333,28.56618-4.323449,28.864452-2.412409Z" fill="#ccecfc"/><path d="M190.752007,24.836781c.396345,1.438132-8.334911,2.900999-22.423517,11.301754-13.023787,7.765941-18.536109,14.251774-19.649129,13.164709-1.288566-1.258485,3.902183-12.097818,13.670572-18.783287,12.292134-8.4126,27.888154-7.547827,28.402074-5.683176Z" fill="#ccecfc"/></svg>
