<?xml version="1.0" encoding="UTF-8"?><svg id="Layer_1" xmlns="http://www.w3.org/2000/svg" width="368.161882" height="349.831594" xmlns:xlink="http://www.w3.org/1999/xlink" viewBox="0 0 368.161882 349.831594"><defs><radialGradient id="radial-gradient" cx="184.080941" cy="174.915797" fx="184.080941" fy="174.915797" r="178.057348" gradientUnits="userSpaceOnUse"><stop offset="0" stop-color="#d4eef9"/><stop offset=".295013" stop-color="#cfecf8"/><stop offset=".60732" stop-color="#c3e7f6"/><stop offset=".926605" stop-color="#addff3"/><stop offset="1" stop-color="#a8ddf3"/></radialGradient><radialGradient id="radial-gradient-2" cx="198.506557" cy="185.098778" fx="198.506557" fy="185.098778" r="148.663673" gradientUnits="userSpaceOnUse"><stop offset="0" stop-color="#cddee4"/><stop offset=".23886" stop-color="#cadce2" stop-opacity=".993737"/><stop offset=".407007" stop-color="#c3d6de" stop-opacity=".973564"/><stop offset=".553485" stop-color="#b7cdd7" stop-opacity=".939333"/><stop offset=".687476" stop-color="#a6c0cd" stop-opacity=".891016"/><stop offset=".813074" stop-color="#8fafbf" stop-opacity=".828495"/><stop offset=".930771" stop-color="#749bb0" stop-opacity=".752868"/><stop offset="1" stop-color="#628da5" stop-opacity=".7"/></radialGradient></defs><path d="M365.805154,172.984217c.378051,25.898751,3.308617,51.446507-4.424156,71.589694-8.860846,23.081714-26.038714,42.994916-42.692473,58.519234-17.208333,16.041281-38.814252,30.129184-61.031123,38.10127-21.950828,7.876622-47.39718,6.321906-70.970854,6.321341-23.574045-.000566-49.751674,3.589671-71.701707-4.288421-22.216303-7.973659-40.76628-26.592671-57.972567-42.636228-16.651174-15.525956-35.20364-33.312486-44.060892-56.396121-7.729206-20.143738-11.808225-45.328122-11.426864-71.227117-.378174-25.897906,11.660591-48.027127,19.393817-68.169449,8.861206-23.080311,18.044446-45.437411,34.698758-60.960568,17.208362-16.039575,41.415751-21.321556,63.632412-29.292705,21.950239-7.875559,43.88776-12.495834,67.460713-12.495229,23.573295.000605,48.236247-2.973205,70.185701,4.903882,22.216052,7.972762,46.836053,17.485431,64.042408,33.527265,16.651759,15.524774,29.606443,38.596605,38.464202,61.678755,7.729805,20.142851,6.783889,44.926285,6.402625,70.824396Z" fill="url(#radial-gradient)" stroke="#08506f" stroke-miterlimit="10" stroke-width="3"/><ellipse cx="198.506557" cy="185.098778" rx="154.666667" ry="142.407857" fill="url(#radial-gradient-2)"/></svg>