<?xml version="1.0" encoding="UTF-8"?><svg id="Layer_1" xmlns="http://www.w3.org/2000/svg" width="568.97244" height="131.07433" viewBox="0 0 568.97244 131.07433"><path d="M209.23615,122.73925c-5.93802-.87082-7.02706-26.97507-2.43243-58.30549,4.59463-31.33042,13.10304-55.57342,19.07105-55.15199" fill="none" stroke="#785b3a" stroke-linecap="round" stroke-miterlimit="10" stroke-width="3"/><path d="M80.51333,7.40697c-6.40404,1.8586-4.43918,28.02346,4.38864,58.44085,8.51254,29.33105,17.76694,50.47368,26.60005,51.94645.75861.12649,1.51076.26112,2.24273.49714,5.28807,1.70511,25.91295,8.02688,37.54819,6.84471,3.73369-.37935,7.31261-1.65567,10.99293-2.3902,3.22842-.64434,6.44486-.65166,9.33171-.48445,5.43926.31506,10.1602-3.75156,10.59212-9.18279.78599-9.88353-.12863-26.5205-.12863-46.42267,0-31.66553,4.8652-57.33551,10.86674-57.33551" fill="none" stroke="#785b3a" stroke-linecap="round" stroke-miterlimit="10" stroke-width="3"/><path d="M78.05031,122.07723c-7.00042-.06713-14.05098-26.3943-22.8788-56.81169-8.82782-30.41739-10.79268-56.58225-4.38864-58.44085" fill="none" stroke="#785b3a" stroke-linecap="round" stroke-miterlimit="10" stroke-width="3"/><circle cx="78.95658" cy="38.62244" r="25.61924" fill="#f2737d" stroke="#631c25" stroke-miterlimit="10" stroke-width="1.5"/><circle cx="51.97963" cy="50.01037" r="25.61924" fill="#a8ddf3" stroke="#34444a" stroke-miterlimit="10" stroke-width="1.5"/><circle cx="106.63624" cy="67.31373" r="25.61924" fill="#fabe78" stroke="#785b3a" stroke-miterlimit="10" stroke-width="1.5"/><circle cx="105.38745" cy="48.89449" r="25.61924" fill="#5cbd84" stroke="#145d3b" stroke-miterlimit="10" stroke-width="1.5"/><circle cx="55.39777" cy="91.46175" r="25.61924" fill="#5cbd84" stroke="#145d3b" stroke-miterlimit="10" stroke-width="1.5"/><circle cx="104.57582" cy="87.26175" r="25.61924" fill="#a8ddf3" stroke="#34444a" stroke-miterlimit="10" stroke-width="1.5"/><circle cx="79.76821" cy="89.86092" r="25.61924" fill="#f2737d" stroke="#631c25" stroke-miterlimit="10" stroke-width="1.5"/><circle cx="79.76821" cy="55.02244" r="25.61924" fill="#fabe78" stroke="#785b3a" stroke-miterlimit="10" stroke-width="1.5"/><circle cx="214.62325" cy="38.32649" r="25.61924" fill="#f2737d" stroke="#631c25" stroke-miterlimit="10" stroke-width="1.5"/><circle cx="187.6463" cy="49.71442" r="25.61924" fill="#a8ddf3" stroke="#34444a" stroke-miterlimit="10" stroke-width="1.5"/><circle cx="242.30291" cy="67.01777" r="25.61924" fill="#fabe78" stroke="#785b3a" stroke-miterlimit="10" stroke-width="1.5"/><circle cx="241.05412" cy="48.59854" r="25.61924" fill="#5cbd84" stroke="#145d3b" stroke-miterlimit="10" stroke-width="1.5"/><circle cx="191.06443" cy="91.16579" r="25.61924" fill="#5cbd84" stroke="#145d3b" stroke-miterlimit="10" stroke-width="1.5"/><circle cx="240.24248" cy="86.96579" r="25.61924" fill="#a8ddf3" stroke="#34444a" stroke-miterlimit="10" stroke-width="1.5"/><circle cx="215.43488" cy="89.56496" r="25.61924" fill="#f2737d" stroke="#631c25" stroke-miterlimit="10" stroke-width="1.5"/><circle cx="215.43488" cy="54.72649" r="25.61924" fill="#fabe78" stroke="#785b3a" stroke-miterlimit="10" stroke-width="1.5"/><path d="M80.81679,7.41429c6.66635.16084,11.4512,25.9594,10.68725,57.6227-.76394,31.6633-6.78739,57.20108-13.45374,57.04025" fill="none" stroke="#785b3a" stroke-linecap="round" stroke-miterlimit="10" stroke-width="3"/><path d="M1.5,122.00291c2.13484.26274,4.22504.85455,6.17061,1.7932,3.82854,1.8471,7.18071,4.90177,11.37107,5.6162,5.11543.87215,10.04785-1.94135,14.56274-4.49949,3.24404-1.83807,6.86246-3.63432,10.47899-3.92319.3442-.02749,1.10427.03688,1.88639.12314,2.11798.23359,4.24908-.47106,5.75844-1.97513.18158-.18094.32438-.34264.4107-.47004,5.00648-7.38946,9.01201-28.86699,9.62552-54.29506.76394-31.6633-4.0209-57.46186-10.68725-57.6227" fill="none" stroke="#785b3a" stroke-linecap="round" stroke-miterlimit="10" stroke-width="3"/><path d="M192.85544,9.30445c5.93803-.87077,14.47626,23.82167,19.07067,55.15212,4.59441,31.33045,3.5052,57.4347-2.43283,58.30547" fill="none" stroke="#785b3a" stroke-linecap="round" stroke-miterlimit="10" stroke-width="3"/><path d="M492.22237,117.48942c-5.93802-.87082-7.02706-26.97507-2.43243-58.30549,4.59463-31.33042,13.10304-55.57342,19.07105-55.15199" fill="none" stroke="#785b3a" stroke-linecap="round" stroke-miterlimit="10" stroke-width="3"/><path d="M363.49955,2.15714c-6.40404,1.8586-4.43918,28.02346,4.38864,58.44085,8.51254,29.33105,17.76694,50.47368,26.60005,51.94645.75861.12649,1.51076.26112,2.24273.49714,5.28807,1.70511,25.91295,8.02688,37.54819,6.84471,3.73369-.37935,7.31261-1.65567,10.99293-2.3902,3.22842-.64434,6.44486-.65166,9.33171-.48445,5.43926.31506,10.1602-3.75156,10.59212-9.18279.78599-9.88353-.12863-26.5205-.12863-46.42267,0-31.66553,4.8652-57.33551,10.86674-57.33551" fill="none" stroke="#785b3a" stroke-linecap="round" stroke-miterlimit="10" stroke-width="3"/><path d="M361.03653,116.8274c-7.00042-.06713-14.05098-26.3943-22.8788-56.81169-8.82782-30.41739-10.79268-56.58225-4.38864-58.44085" fill="none" stroke="#785b3a" stroke-linecap="round" stroke-miterlimit="10" stroke-width="3"/><circle cx="361.9428" cy="33.37261" r="25.61924" fill="#f2737d" stroke="#631c25" stroke-miterlimit="10" stroke-width="1.5"/><circle cx="334.96585" cy="44.76055" r="25.61924" fill="#a8ddf3" stroke="#34444a" stroke-miterlimit="10" stroke-width="1.5"/><circle cx="389.62246" cy="62.0639" r="25.61924" fill="#fabe78" stroke="#785b3a" stroke-miterlimit="10" stroke-width="1.5"/><circle cx="388.37367" cy="43.64466" r="25.61924" fill="#5cbd84" stroke="#145d3b" stroke-miterlimit="10" stroke-width="1.5"/><circle cx="338.38398" cy="86.21192" r="25.61924" fill="#5cbd84" stroke="#145d3b" stroke-miterlimit="10" stroke-width="1.5"/><circle cx="387.56203" cy="82.01192" r="25.61924" fill="#a8ddf3" stroke="#34444a" stroke-miterlimit="10" stroke-width="1.5"/><circle cx="362.75443" cy="84.61109" r="25.61924" fill="#f2737d" stroke="#631c25" stroke-miterlimit="10" stroke-width="1.5"/><circle cx="362.75443" cy="49.77261" r="25.61924" fill="#fabe78" stroke="#785b3a" stroke-miterlimit="10" stroke-width="1.5"/><circle cx="497.60946" cy="33.07666" r="25.61924" fill="#f2737d" stroke="#631c25" stroke-miterlimit="10" stroke-width="2"/><circle cx="470.63252" cy="44.46459" r="25.61924" fill="#a8ddf3" stroke="#34444a" stroke-miterlimit="10" stroke-width="1.5"/><circle cx="525.28912" cy="61.76794" r="25.61924" fill="#fabe78" stroke="#785b3a" stroke-miterlimit="10" stroke-width="2"/><circle cx="524.04033" cy="43.34871" r="25.61924" fill="#5cbd84" stroke="#145d3b" stroke-miterlimit="10" stroke-width="1.5"/><circle cx="474.05065" cy="85.91596" r="25.61924" fill="#5cbd84" stroke="#145d3b" stroke-miterlimit="10" stroke-width="1.5"/><circle cx="523.2287" cy="81.71596" r="25.61924" fill="#a8ddf3" stroke="#34444a" stroke-miterlimit="10" stroke-width="1.5"/><circle cx="498.4211" cy="84.31513" r="25.61924" fill="#f2737d" stroke="#631c25" stroke-miterlimit="10" stroke-width="1.5"/><circle cx="498.4211" cy="49.47666" r="25.61924" fill="#fabe78" stroke="#785b3a" stroke-miterlimit="10" stroke-width="1.5"/><path d="M363.80301,2.16446c6.66635.16084,11.4512,25.9594,10.68725,57.6227-.76394,31.6633-6.78739,57.20108-13.45374,57.04025" fill="none" stroke="#785b3a" stroke-linecap="round" stroke-miterlimit="10" stroke-width="3"/><path d="M334.0634,1.5c6.66635.16084,11.4512,25.9594,10.68725,57.6227-.61351,25.42807-4.61904,46.9056-9.62552,54.29506-.09709.1433-.26564.33-.48045.53865-1.51073,1.46745-3.62577,2.13267-5.71934,1.90315-.77126-.08455-1.51603-.1469-1.85572-.11976-3.61653.28887-7.23495,2.08512-10.47899,3.92319-4.51489,2.55813-9.44731,5.37163-14.56274,4.49949-4.19035-.71443-7.54253-3.7691-11.37107-5.6162-1.0689-.5157-2.82586-1.0696-4.19218-1.46406-1.28088-.3698-2.48552-.95438-3.60481-1.67866-11.87068-7.68135-28.89336-5.98371-35.71767-18.67337-5.50552-10.2372-.68967-17.74649-2.81992-32.27357-4.59448-31.33054-13.13278-56.02299-19.07062-55.15219" fill="none" stroke="#785b3a" stroke-linecap="round" stroke-miterlimit="10" stroke-width="3"/><path d="M475.84166,4.05463c5.93803-.87077,14.47626,23.82167,19.07067,55.15212s3.5052,57.4347-2.43283,58.30547" fill="none" stroke="#785b3a" stroke-linecap="round" stroke-miterlimit="10" stroke-width="3"/><path d="M508.23784,4.05459c5.93784-.8708,14.47614,23.82166,19.07062,55.15219,2.13025,14.52708-2.68561,22.03638,2.81992,32.27357,7.14273,13.28173,25.45769,10.80228,37.34406,19.81223" fill="none" stroke="#785b3a" stroke-linecap="round" stroke-miterlimit="10" stroke-width="3"/></svg>