<?xml version="1.0" encoding="UTF-8"?><svg id="Layer_1" xmlns="http://www.w3.org/2000/svg" width="567.14379" height="317.39062" viewBox="0 0 567.14379 317.39062"><line x1="418.33045" y1="126.59044" x2="418.33042" y2="42.06877" fill="none" stroke="#231f20" stroke-linecap="round" stroke-miterlimit="10" stroke-width="3.59971"/><polygon points="343.49096 253.47684 347.76122 168.95514 351.36107 168.95514 355.63158 253.47681 343.49096 253.47684 343.49096 253.47684" fill="#231f20"/><line x1="425.20696" y1="126.59044" x2="425.20693" y2="42.06877" fill="none" stroke="#231f20" stroke-linecap="round" stroke-miterlimit="10" stroke-width="3.59971"/><polyline points="206.701 169.3831 278.11092 126.07517 278.1513 126.07517 349.56122 169.3831 350.17623 169.3831 421.58614 126.07517 422.20116 126.07517 493.61107 169.3831" fill="none" stroke="#231f20" stroke-linecap="round" stroke-miterlimit="10" stroke-width="3.59971"/><text transform="translate(500.49064 186.04273) scale(.98383 1)" fill="#231f20" font-family="TimesNewRomanPS-BoldMT, &apos;Times New Roman&apos;" font-size="43.54998" font-weight="700"><tspan x="0" y="0">OH</tspan></text><text transform="translate(408.72892 36.19214) scale(.98383 1)" fill="#231f20" font-family="TimesNewRomanPS-BoldMT, &apos;Times New Roman&apos;" font-size="43.54998" font-weight="700"><tspan x="0" y="0">O</tspan></text><text transform="translate(333.74845 288.61988) scale(.98383 1)" fill="#231f20" font-family="TimesNewRomanPS-BoldMT, &apos;Times New Roman&apos;" font-size="43.54998" font-weight="700"><tspan x="0" y="0">NH</tspan></text><text transform="translate(398.01701 303.12183) scale(.57357)" fill="#231f20" font-family="TimesNewRomanPS-BoldMT, &apos;Times New Roman&apos;" font-size="43.54998" font-weight="700"><tspan x="0" y="0">2</tspan></text><text transform="translate(82.12585 265.57025) scale(.98383 1)" fill="#231f20" font-family="TimesNewRomanPS-BoldMT, &apos;Times New Roman&apos;" font-size="43.54998" font-weight="700"><tspan x="0" y="0">HN</tspan></text><line x1="53.7875" y1="70.63044" x2="13.42604" y2="119.39922" fill="none" stroke="#231f20" stroke-linecap="round" stroke-miterlimit="10" stroke-width="3.59974"/><line x1="131.14897" y1="140.67171" x2="109.94933" y2="81.0226" fill="none" stroke="#231f20" stroke-linecap="round" stroke-miterlimit="10" stroke-width="3.59974"/><line x1="192.12846" y1="232.8785" x2="196.96183" y2="175.10986" fill="none" stroke="#231f20" stroke-linecap="round" stroke-miterlimit="10" stroke-width="3.59974"/><line x1="30.33855" y1="169.15335" x2="92.51186" y2="181.06638" fill="none" stroke="#231f20" stroke-linecap="round" stroke-miterlimit="10" stroke-width="3.59974"/><polyline points="142.63423 141.92071 118.6186 73.80512 48.6416 60.39683 2.04118 114.29454 25.41776 181.60054 97.03798 195.72806" fill="none" stroke="#231f20" stroke-linecap="round" stroke-miterlimit="10" stroke-width="3.59974"/><polyline points="147.41501 252.95343 200.70021 240.15574 206.701 169.38993 142.63423 141.92071 97.03798 195.72806 119.17654 233.17736" fill="none" stroke="#231f20" stroke-linecap="round" stroke-miterlimit="10" stroke-width="3.59974"/></svg>