<?xml version="1.0" encoding="UTF-8"?><svg id="Layer_1" xmlns="http://www.w3.org/2000/svg" width="489.878396" height="489.878397" xmlns:xlink="http://www.w3.org/1999/xlink" viewBox="0 0 489.878396 489.878397"><defs><radialGradient id="radial-gradient" cx="244.939198" cy="244.939198" fx="244.939198" fy="244.939198" r="238.439198" gradientUnits="userSpaceOnUse"><stop offset=".005587" stop-color="#eff6ff"/><stop offset=".354204" stop-color="#e9f2ff"/><stop offset=".799677" stop-color="#d9e8ff"/><stop offset="1" stop-color="#d0e3ff"/></radialGradient><radialGradient id="radial-gradient-2" cx="136.202665" cy="211.031525" fx="136.202665" fy="211.031525" r="105.093385" gradientUnits="userSpaceOnUse"><stop offset=".005587" stop-color="#fff6f3"/><stop offset=".330416" stop-color="#fff0ec"/><stop offset=".789881" stop-color="#ffe2d9"/><stop offset="1" stop-color="#ffdacf"/></radialGradient><radialGradient id="radial-gradient-3" cx="194.119495" cy="346.769829" fx="194.119495" fy="346.769829" r="114.313339" xlink:href="#radial-gradient-2"/><radialGradient id="radial-gradient-4" cx="354.052401" cy="296.523895" fx="354.052401" fy="296.523895" r="105.093387" xlink:href="#radial-gradient-2"/><radialGradient id="radial-gradient-5" cx="305.421058" cy="157.680242" fx="305.421058" fy="157.680242" r="108.473494" xlink:href="#radial-gradient-2"/><radialGradient id="radial-gradient-6" cx="259.172515" cy="-21.524916" fx="259.172515" fy="-21.524916" r="25.40349" gradientTransform="translate(-27.404209 180.905567) scale(1.284184)" gradientUnits="userSpaceOnUse"><stop offset=".005587" stop-color="#ffece6"/><stop offset=".214816" stop-color="#ffe8e1"/><stop offset=".462792" stop-color="#ffddd2"/><stop offset=".730353" stop-color="#ffcaba"/><stop offset="1" stop-color="#ffb29b"/></radialGradient><radialGradient id="radial-gradient-7" cx="130.554709" cy="13.712339" fx="130.554709" fy="13.712339" xlink:href="#radial-gradient-6"/><radialGradient id="radial-gradient-8" cx="167.331323" cy="125.496091" fx="167.331323" fy="125.496091" r="25.40349" xlink:href="#radial-gradient-6"/><radialGradient id="radial-gradient-9" cx="298.866316" cy="100.092601" fx="298.866316" fy="100.092601" xlink:href="#radial-gradient-6"/></defs><circle cx="244.939198" cy="244.939198" r="238.439198" fill="url(#radial-gradient)" stroke="#849cbf" stroke-miterlimit="10" stroke-width="13"/><path d="M232.82155,198.097781c0,76.503859-9.003075,125.867487-85.237768,125.867487s-108-41.363628-108-117.867487,29.80043-108,106.035123-108,87.202645,23.496141,87.202645,100Z" fill="url(#radial-gradient-2)" stroke="#c7a398" stroke-miterlimit="10" stroke-width="4"/><path d="M265.709138,288.527234c42.616561,63.534788,62.637767,109.545377-.673484,152.011999s-112.733301,25.80993-155.349862-37.724857c-42.616561-63.534788-35.412914-106.292009,27.898337-148.75863,63.311251-42.466622,85.508448-29.063299,128.125008,34.471489Z" fill="url(#radial-gradient-3)" stroke="#c7a398" stroke-miterlimit="10" stroke-width="4"/><path d="M257.433515,283.590204c.000047,76.503859,9.003152,125.867481,85.237845,125.867435,76.234693-.000047,107.999975-41.363693,107.999928-117.867553-.000047-76.503859-29.800496-107.999982-106.035189-107.999935-76.234693.000047-87.202631,23.496194-87.202584,100.000053Z" fill="url(#radial-gradient-4)" stroke="#c7a398" stroke-miterlimit="10" stroke-width="4"/><path d="M211.649236,165.274224c17.17074,74.552037,37.023433,120.635588,111.313171,103.52526,74.289738-17.110328,95.960856-64.54815,78.790116-139.100187-17.17074-74.552037-53.279961-98.556133-127.569699-81.445805-74.289738,17.110328-79.704328,42.468696-62.533588,117.020732Z" fill="url(#radial-gradient-5)" stroke="#c7a398" stroke-miterlimit="10" stroke-width="4"/><circle cx="305.421058" cy="153.263608" r="32.622762" fill="url(#radial-gradient-6)" stroke="#8c523f" stroke-miterlimit="10"/><circle cx="140.252095" cy="198.514736" r="32.622762" fill="url(#radial-gradient-7)" stroke="#8c523f" stroke-miterlimit="10"/><circle cx="187.480044" cy="342.065673" r="32.622762" fill="url(#radial-gradient-8)" stroke="#8c523f" stroke-miterlimit="10"/><circle cx="356.395213" cy="309.442911" r="32.622762" fill="url(#radial-gradient-9)" stroke="#8c523f" stroke-miterlimit="10"/></svg>