<?xml version="1.0" encoding="UTF-8"?><svg id="Layer_1" xmlns="http://www.w3.org/2000/svg" width="478.751626" height="592.103503" xmlns:xlink="http://www.w3.org/1999/xlink" viewBox="0 0 478.751626 592.103503"><defs><radialGradient id="radial-gradient" cx="-375.789543" cy="405.865789" fx="-375.789543" fy="405.865789" r="25.925926" gradientTransform="translate(501.993464 -78.316555) scale(.846269)" gradientUnits="userSpaceOnUse"><stop offset=".005587" stop-color="#fff6f3"/><stop offset=".256545" stop-color="#fcf2ef"/><stop offset=".489828" stop-color="#f6e8e4"/><stop offset=".716137" stop-color="#ead7d1"/><stop offset=".93689" stop-color="#dbbfb6"/><stop offset="1" stop-color="#d6b7ae"/></radialGradient><radialGradient id="radial-gradient-2" cx="66.501299" cy="176.677397" fx="66.501299" fy="176.677397" r="298.652588" gradientTransform="translate(176.393343 142.538602) scale(.947086 .871041)" gradientUnits="userSpaceOnUse"><stop offset=".005587" stop-color="#fff6f3"/><stop offset=".336519" stop-color="#fef0ec"/><stop offset=".804596" stop-color="#fde1d9"/><stop offset="1" stop-color="#fddad0"/></radialGradient><radialGradient id="radial-gradient-3" cx="1310.019103" cy="334.373344" fx="1310.019103" fy="334.373344" r="16.504623" gradientTransform="translate(-1914.918853 -226.976986) scale(1.599694 1.471248)" xlink:href="#radial-gradient"/></defs><ellipse cx="183.974543" cy="266.09569" rx="21.940299" ry="22.000392" fill="url(#radial-gradient)" stroke="#231f20" stroke-miterlimit="10" stroke-width=".63557"/><path d="M317.872744,581.048886c-13.619873-76.666016-4.753906-138.344238,26.350098-183.321777,6.427734-9.294922,14.217773-14.862061,25.888672-31.561768,30.930176-44.258301,27.355957-67.991943,56.248535-96.76001,18.897461-18.815918,23.260254-11.484375,34.666992-26.666748,24.661621-32.824707,21.725586-90.332397-6.666992-122.666626-11.814453-13.45459-12.435547-4.783691-50.666504-32-21.224121-15.109497-40.043945-31.315918-69.787109-49.599609-6.608398-4.062378-16.208008-9.734497-29.835205-13.293457-13.333008-3.482178-17.183105-1.457764-29.710937-3.77356-23.584717-4.359741-23.587402-14.057129-44-18.666626-24.615479-5.558594-45.923584,3.730713-52,6.666626-11.234375,5.428101-12.738037,9.593872-29.333496,24-36.191162,31.416748-45.092529,25.539551-58.424316,44.690186-15.796387,22.691162-16.578857,50.65686-17.255859,56.545898-1.923828,16.733398,3.552246,35.078979-2.753662,51.213135-4.371582,11.185059-16.274658,10.461914-26.15625,12.57666,0,0-10.612793,2.27124-24.27002,12.867188C1.186708,226.023983-.88336,259.103329,2.127382,280.683895c5.893311,42.239502,35.938232,67.504639,74.242676,81.027344,28.123535,9.928711,79.826904,20.993652,95.793701-14.092285,9.630615-21.162598,7.281982-35.046875,31.158691-44.677734,16.526855-6.66626,35.479004-9.802246,38.461914-30.805664,4.374512-30.80127-43.000977-49.834473-63.505127-63.482178-6.873535-4.575195-13.97998-9.390869-18.174316-16.51123-16.234863-27.571411-16.568604-78.332886,11.693359-96.998413,24.696045-16.310425,55.969971-21.110229,85.188721-16.399536,29.218506,4.710815,56.479004,18.379272,80.129883,36.171143,16.328125,12.283081,31.638184,27.33606,38.400391,46.616821,5.998047,17.102173,4.681641,35.994751.461914,53.620483-16.999023,71.000244-77.287842,110.866211-108.957031,172.794678-6.779785,13.257812-13.772217,28.878418-19.282471,47.654297-18.615234,63.430664-10.681396,120.440918-1.838135,156.262207" fill="url(#radial-gradient-2)" stroke="#a6887f" stroke-miterlimit="10" stroke-width="2"/><ellipse cx="180.710285" cy="264.969248" rx="26.402339" ry="24.282399" fill="url(#radial-gradient-3)" stroke="#231f20" stroke-miterlimit="10" stroke-width="1.093066"/></svg>