<?xml version="1.0" encoding="UTF-8"?><svg id="a" xmlns="http://www.w3.org/2000/svg" width="507.855336" height="437.661557" xmlns:xlink="http://www.w3.org/1999/xlink" viewBox="0 0 507.855336 437.661557"><defs><linearGradient id="b" x1=".921247" y1="259.635196" x2="85.494066" y2="259.635196" gradientUnits="userSpaceOnUse"><stop offset="0" stop-color="#fff"/><stop offset="1" stop-color="#e6e7e8" stop-opacity=".5"/></linearGradient><linearGradient id="c" x1="419.126046" y1="185.583652" x2="503.698866" y2="185.583652" xlink:href="#b"/><linearGradient id="d" x1="62.647966" y1="379.907373" x2="507.020736" y2="379.907373" xlink:href="#b"/><linearGradient id="e" x1="3.886427" y1="57.035904" x2="448.259197" y2="57.035904" xlink:href="#b"/><linearGradient id="f" x1="-102.691468" y1="150.549915" x2="327.009861" y2="150.549915" gradientTransform="translate(152.998999 53.245344)" xlink:href="#b"/></defs><polygon points=".921247 115.819106 62.962199 435.709379 85.494066 403.451287 23.453113 83.561013 .921247 115.819106" fill="url(#b)"/><polygon points="419.126046 41.767561 481.166999 361.657835 503.698866 329.399743 441.657913 9.509469 419.126046 41.767561" fill="url(#c)"/><polygon points="85.179832 404.685184 507.020736 322.871469 484.48887 355.129562 62.647966 436.943276 85.179832 404.685184" fill="url(#d)"/><polygon points="26.418293 81.813715 448.259197 0 425.72733 32.258092 3.886427 114.071807 26.418293 81.813715" fill="url(#e)"/><rect x="50.307531" y="40.869764" width="429.701329" height="325.850989" transform="translate(-33.951468 54.213224) rotate(-10.975936)" fill="url(#f)" stroke="#231f20" stroke-miterlimit="10" stroke-width="1.29035"/><path d="M169.002241,104.065674c.207037,9.485815-3.905969,18.791895-11.780969,24.434912-11.763007,8.432886-27.693018,5.669824-36.819031-5.92207-.584967-.729053-1.134009-1.50293-1.655969-2.304053-.009009-.018018-.018018-.026807-.027026-.044824-.197974-9.486035,3.923987-18.774097,11.790033-24.408105,12.500958-8.954956,29.73598-5.273877,38.475,8.216895.008954.009229.008954.018018.017963.027246Z" fill="#fff" stroke="#231f20" stroke-miterlimit="10" stroke-width=".855"/><path d="M79.673198,147.730329c-10.5088,2.038124-21.34172-2.164515-28.270826-10.967773-.595462-.748216-1.184196-1.56918-1.74403-2.431896-.143235-.218871-.284054-.445015-.425973-.679025-.454896-.731676-.891987-1.511883-1.28906-2.302828-7.133649-14.03936-3.285552-31.245777,8.955039-40.016952,3.303818-2.366036,6.965873-3.950605,10.885207-4.710738,11.520294-2.234297,23.305276,3.020349,30.023525,13.387357,1.405177,2.173567,2.547722,4.497156,3.397134,6.907789.264999.750219.47826,1.428823.650865,2.073211.355145,1.269839.633336,2.566085.821873,3.834216,1.823096,11.74846-2.931451,23.603578-12.114833,30.190929-3.30539,2.368892-6.968357,3.955339-10.888921,4.715711Z" fill="none" stroke="#231f20" stroke-miterlimit="10" stroke-width=".698824"/><path d="M124.309863,377.8821c-10.5088,2.038124-21.34172-2.164515-28.270826-10.967773-.59652-.749286-1.185175-1.569841-1.74395-2.431487-.143884-.220021-.284213-.445834-.426052-.679435-.454816-.731266-.891418-1.511143-1.288981-2.302418-7.133649-14.03936-3.285631-31.246186,8.95496-40.017362,3.303818-2.366036,6.965873-3.950605,10.885207-4.710738,11.520294-2.234297,23.305276,3.020349,30.023525,13.387357,1.405177,2.173567,2.547722,4.497156,3.397134,6.907789.264999.750219.47834,1.429233.651024,2.074031.354986,1.269019.633177,2.565265.821714,3.833396,1.823096,11.74846-2.931451,23.603578-12.114833,30.190929-3.30539,2.368892-6.968357,3.955339-10.888921,4.715711Z" fill="#fff" stroke="#231f20" stroke-miterlimit="10" stroke-width=".698824"/><path d="M484.215853,281.624132c.207037,9.485815-3.905969,18.791895-11.780969,24.434912-11.763007,8.432886-27.693018,5.669824-36.819031-5.92207-.584967-.729053-1.134009-1.50293-1.655969-2.304053-.009009-.018018-.018018-.026807-.027026-.044824-.197974-9.486035,3.923987-18.774097,11.790033-24.408105,12.500958-8.954956,29.73598-5.273877,38.475,8.216895.008954.009229.008954.018018.017963.027246Z" fill="#fff" stroke="#231f20" stroke-miterlimit="10" stroke-width=".855"/><path d="M145.622224,343.226941c1.681544,10.837356-2.413349,22.089054-11.420052,28.549861-11.760116,8.428831-27.694557,5.67275-36.819456-5.919968-.583087-.732654-1.131818-1.501326-1.652819-2.304821-.136974-.208816-.267284-.418835-.39897-.635949-.440652-.708839-.852221-1.445312-1.222572-2.182418-6.663869-13.114337-3.229119-29.51084,8.422421-37.859813,12.505452-8.955813,29.735593-5.274386,38.477587,8.216398,1.348256,2.08452,2.421962,4.281087,3.219511,6.545846.228804.646957.436314,1.290593.612023,1.947848.337425,1.206804.600397,2.420687.782327,3.643016Z" fill="#fff" stroke="#231f20" stroke-miterlimit="10" stroke-width=".855"/><path d="M416.561835,294.748335c.207037,9.485815-3.905969,18.791895-11.780969,24.434912-11.763007,8.432886-27.693018,5.669824-36.819031-5.92207-.584967-.729053-1.134009-1.50293-1.655969-2.304053-.009009-.018018-.018018-.026807-.027026-.044824-.197974-9.486035,3.923987-18.774097,11.790033-24.408105,12.500958-8.954956,29.73598-5.273877,38.475,8.216895.008954.009229.008954.018018.017963.027246Z" fill="#fff" stroke="#231f20" stroke-miterlimit="10" stroke-width=".855"/><path d="M348.907817,307.872537c.207037,9.485815-3.905969,18.791895-11.780969,24.434912-11.763007,8.432886-27.693018,5.669824-36.819031-5.92207-.584967-.729053-1.134009-1.50293-1.655969-2.304053-.009009-.018018-.018018-.026807-.027026-.044824-.197974-9.486035,3.923987-18.774097,11.790033-24.408105,12.500958-8.954956,29.73598-5.273877,38.475,8.216895.008954.009229.008954.018018.017963.027246Z" fill="#fff" stroke="#231f20" stroke-miterlimit="10" stroke-width=".855"/><path d="M281.253798,320.996739c.207037,9.485815-3.905969,18.791895-11.780969,24.434912-11.763007,8.432886-27.693018,5.669824-36.819031-5.92207-.584967-.729053-1.134009-1.50293-1.655969-2.304053-.009009-.018018-.018018-.026807-.027026-.044824-.197974-9.486035,3.923987-18.774097,11.790033-24.408105,12.500958-8.954956,29.73598-5.273877,38.475,8.216895.008954.009229.008954.018018.017963.027246Z" fill="#fff" stroke="#231f20" stroke-miterlimit="10" stroke-width=".855"/><path d="M213.59978,334.120942c.207037,9.485815-3.905969,18.791895-11.780969,24.434912-11.763007,8.432886-27.693018,5.669824-36.819031-5.92207-.584967-.729053-1.134009-1.50293-1.655969-2.304053-.009009-.018018-.018018-.026807-.027026-.044824-.197974-9.486035,3.923987-18.774097,11.790033-24.408105,12.500958-8.954956,29.73598-5.273877,38.475,8.216895.008954.009229.008954.018018.017963.027246Z" fill="#fff" stroke="#231f20" stroke-miterlimit="10" stroke-width=".855"/><path d="M145.945762,347.245144c.207037,9.485815-3.905969,18.791895-11.780969,24.434912-11.763007,8.432886-27.693018,5.669824-36.819031-5.92207-.584967-.729053-1.134009-1.50293-1.655969-2.304053-.009009-.018018-.018018-.026807-.027026-.044824-.197974-9.486035,3.923987-18.774097,11.790033-24.408105,12.500958-8.954956,29.73598-5.273877,38.475,8.216895.008954.009229.008954.018018.017963.027246Z" fill="#fff" stroke="#231f20" stroke-miterlimit="10" stroke-width=".855"/><path d="M469.415853,204.924132c.207037,9.485815-3.905969,18.791895-11.780969,24.434912-11.763007,8.432886-27.693018,5.669824-36.819031-5.92207-.584967-.729053-1.134009-1.50293-1.655969-2.304053-.009009-.018018-.018018-.026807-.027026-.044824-.197974-9.486035,3.923987-18.774097,11.790033-24.408105,12.500958-8.954956,29.73598-5.273877,38.475,8.216895.008954.009229.008954.018018.017963.027246Z" fill="#fff" stroke="#231f20" stroke-miterlimit="10" stroke-width=".855"/><path d="M401.761835,218.048335c.207037,9.485815-3.905969,18.791895-11.780969,24.434912-11.763007,8.432886-27.693018,5.669824-36.819031-5.92207-.584967-.729053-1.134009-1.50293-1.655969-2.304053-.009009-.018018-.018018-.026807-.027026-.044824-.197974-9.486035,3.923987-18.774097,11.790033-24.408105,12.500958-8.954956,29.73598-5.273877,38.475,8.216895.008954.009229.008954.018018.017963.027246Z" fill="#fff" stroke="#231f20" stroke-miterlimit="10" stroke-width=".855"/><path d="M334.107817,231.172537c.207037,9.485815-3.905969,18.791895-11.780969,24.434912-11.763007,8.432886-27.693018,5.669824-36.819031-5.92207-.584967-.729053-1.134009-1.50293-1.655969-2.304053-.009009-.018018-.018018-.026807-.027026-.044824-.197974-9.486035,3.923987-18.774097,11.790033-24.408105,12.500958-8.954956,29.73598-5.273877,38.475,8.216895.008954.009229.008954.018018.017963.027246Z" fill="#fff" stroke="#231f20" stroke-miterlimit="10" stroke-width=".855"/><path d="M266.453798,244.296739c.207037,9.485815-3.905969,18.791895-11.780969,24.434912-11.763007,8.432886-27.693018,5.669824-36.819031-5.92207-.584967-.729053-1.134009-1.50293-1.655969-2.304053-.009009-.018018-.018018-.026807-.027026-.044824-.197974-9.486035,3.923987-18.774097,11.790033-24.408105,12.500958-8.954956,29.73598-5.273877,38.475,8.216895.008954.009229.008954.018018.017963.027246Z" fill="#fff" stroke="#231f20" stroke-miterlimit="10" stroke-width=".855"/><path d="M198.79978,257.420942c.207037,9.485815-3.905969,18.791895-11.780969,24.434912-11.763007,8.432886-27.693018,5.669824-36.819031-5.92207-.584967-.729053-1.134009-1.50293-1.655969-2.304053-.009009-.018018-.018018-.026807-.027026-.044824-.197974-9.486035,3.923987-18.774097,11.790033-24.408105,12.500958-8.954956,29.73598-5.273877,38.475,8.216895.008954.009229.008954.018018.017963.027246Z" fill="#fff" opacity=".5" stroke="#231f20" stroke-miterlimit="10" stroke-width=".855"/><path d="M131.145762,270.545144c.207037,9.485815-3.905969,18.791895-11.780969,24.434912-11.763007,8.432886-27.693018,5.669824-36.819031-5.92207-.584967-.729053-1.134009-1.50293-1.655969-2.304053-.009009-.018018-.018018-.026807-.027026-.044824-.197974-9.486035,3.923987-18.774097,11.790033-24.408105,12.500958-8.954956,29.73598-5.273877,38.475,8.216895.008954.009229.008954.018018.017963.027246Z" fill="#fff" stroke="#231f20" stroke-miterlimit="10" stroke-width=".855"/><path d="M454.462091,128.191581c.207037,9.485815-3.905969,18.791895-11.780969,24.434912-11.763007,8.432886-27.693018,5.669824-36.819031-5.92207-.584967-.729053-1.134009-1.50293-1.655969-2.304053-.009009-.018018-.018018-.026807-.027026-.044824-.197974-9.486035,3.923987-18.774097,11.790033-24.408105,12.500958-8.954956,29.73598-5.273877,38.475,8.216895.008954.009229.008954.018018.017963.027246Z" fill="#fff" stroke="#231f20" stroke-miterlimit="10" stroke-width=".855"/><path d="M386.808073,141.315783c.207037,9.485815-3.905969,18.791895-11.780969,24.434912-11.763007,8.432886-27.693018,5.669824-36.819031-5.92207-.584967-.729053-1.134009-1.50293-1.655969-2.304053-.009009-.018018-.018018-.026807-.027026-.044824-.197974-9.486035,3.923987-18.774097,11.790033-24.408105,12.500958-8.954956,29.73598-5.273877,38.475,8.216895.008954.009229.008954.018018.017963.027246Z" fill="#fff" stroke="#231f20" stroke-miterlimit="10" stroke-width=".855"/><path d="M319.154055,154.439986c.207037,9.485815-3.905969,18.791895-11.780969,24.434912-11.763007,8.432886-27.693018,5.669824-36.819031-5.92207-.584967-.729053-1.134009-1.50293-1.655969-2.304053-.009009-.018018-.018018-.026807-.027026-.044824-.197974-9.486035,3.923987-18.774097,11.790033-24.408105,12.500958-8.954956,29.73598-5.273877,38.475,8.216895.008954.009229.008954.018018.017963.027246Z" fill="#fff" stroke="#231f20" stroke-miterlimit="10" stroke-width=".855"/><path d="M251.500037,167.564188c.207037,9.485815-3.905969,18.791895-11.780969,24.434912-11.763007,8.432886-27.693018,5.669824-36.819031-5.92207-.584967-.729053-1.134009-1.50293-1.655969-2.304053-.009009-.018018-.018018-.026807-.027026-.044824-.197974-9.486035,3.923987-18.774097,11.790033-24.408105,12.500958-8.954956,29.73598-5.273877,38.475,8.216895.008954.009229.008954.018018.017963.027246Z" fill="#fff" stroke="#231f20" stroke-miterlimit="10" stroke-width=".855"/><path d="M183.846018,180.68839c.207037,9.485815-3.905969,18.791895-11.780969,24.434912-11.763007,8.432886-27.693018,5.669824-36.819031-5.92207-.584967-.729053-1.134009-1.50293-1.655969-2.304053-.009009-.018018-.018018-.026807-.027026-.044824-.197974-9.486035,3.923987-18.774097,11.790033-24.408105,12.500958-8.954956,29.73598-5.273877,38.475,8.216895.008954.009229.008954.018018.017963.027246Z" fill="#fff" stroke="#231f20" stroke-miterlimit="10" stroke-width=".855"/><path d="M116.192,193.812593c.207037,9.485815-3.905969,18.791895-11.780969,24.434912-11.763007,8.432886-27.693018,5.669824-36.819031-5.92207-.584967-.729053-1.134009-1.50293-1.655969-2.304053-.009009-.018018-.018018-.026807-.027026-.044824-.197974-9.486035,3.923987-18.774097,11.790033-24.408105,12.500958-8.954956,29.73598-5.273877,38.475,8.216895.008954.009229.008954.018018.017963.027246Z" fill="#fff" stroke="#231f20" stroke-miterlimit="10" stroke-width=".855"/><path d="M439.618314,51.568865c.207037,9.485815-3.905969,18.791895-11.780969,24.434912-11.763007,8.432886-27.693018,5.669824-36.819031-5.92207-.584967-.729053-1.134009-1.50293-1.655969-2.304053-.009009-.018018-.018018-.026807-.027026-.044824-.197974-9.486035,3.923987-18.774097,11.790033-24.408105,12.500958-8.954956,29.73598-5.273877,38.475,8.216895.008954.009229.008954.018018.017963.027246Z" fill="#fff" stroke="#231f20" stroke-miterlimit="10" stroke-width=".855"/><path d="M371.964296,64.693067c.207037,9.485815-3.905969,18.791895-11.780969,24.434912-11.763007,8.432886-27.693018,5.669824-36.819031-5.92207-.584967-.729053-1.134009-1.50293-1.655969-2.304053-.009009-.018018-.018018-.026807-.027026-.044824-.197974-9.486035,3.923987-18.774097,11.790033-24.408105,12.500958-8.954956,29.73598-5.273877,38.475,8.216895.008954.009229.008954.018018.017963.027246Z" fill="#fff" stroke="#231f20" stroke-miterlimit="10" stroke-width=".855"/><path d="M304.310277,77.81727c.207037,9.485815-3.905969,18.791895-11.780969,24.434912-11.763007,8.432886-27.693018,5.669824-36.819031-5.92207-.584967-.729053-1.134009-1.50293-1.655969-2.304053-.009009-.018018-.018018-.026807-.027026-.044824-.197974-9.486035,3.923987-18.774097,11.790033-24.408105,12.500958-8.954956,29.73598-5.273877,38.475,8.216895.008954.009229.008954.018018.017963.027246Z" fill="#fff" stroke="#231f20" stroke-miterlimit="10" stroke-width=".855"/><path d="M236.656259,90.941472c.207037,9.485815-3.905969,18.791895-11.780969,24.434912-11.763007,8.432886-27.693018,5.669824-36.819031-5.92207-.584967-.729053-1.134009-1.50293-1.655969-2.304053-.009009-.018018-.018018-.026807-.027026-.044824-.197974-9.486035,3.923987-18.774097,11.790033-24.408105,12.500958-8.954956,29.73598-5.273877,38.475,8.216895.008954.009229.008954.018018.017963.027246Z" fill="#fff" stroke="#231f20" stroke-miterlimit="10" stroke-width=".855"/><path d="M101.348223,117.189877c.207037,9.485815-3.905969,18.791895-11.780969,24.434912-11.763007,8.432886-27.693018,5.669824-36.819031-5.92207-.584967-.729053-1.134009-1.50293-1.655969-2.304053-.009009-.018018-.018018-.026807-.027026-.044824-.197974-9.486035,3.923987-18.774097,11.790033-24.408105,12.500958-8.954956,29.73598-5.273877,38.475,8.216895.008954.009229.008954.018018.017963.027246Z" fill="#fff" stroke="#231f20" stroke-miterlimit="10" stroke-width=".855"/><polyline points="23.217268 84.756979 .685401 117.015071 62.726354 436.905345 484.567257 355.09163" fill="none" stroke="#231f20" stroke-miterlimit="10" stroke-width="1.29035"/><line x1="85.25822" y1="404.647253" x2="62.726354" y2="436.905345" fill="none" stroke="#231f20" stroke-miterlimit="10" stroke-width="1.29035"/><line x1="507.099124" y1="322.833538" x2="484.567257" y2="355.09163" fill="none" stroke="#231f20" stroke-miterlimit="10" stroke-width="1.29035"/><path d="M418.006874,82.112381c-10.5088,2.038124-21.34172-2.164515-28.271236-10.967694-.593835-.746405-1.18249-1.566959-1.74362-2.431976-.143076-.218051-.284623-.445755-.427269-.681325-.452871-.727816-.889473-1.507692-1.287604-2.299708-7.134139-14.03969-3.286121-31.246517,8.95447-40.017693,3.303818-2.366036,6.965873-3.950605,10.885207-4.710738,11.520704-2.234377,23.305686,3.02027,30.023525,13.387357,1.405587,2.173488,2.548541,4.496997,3.397134,6.907789.266772.754979.480193,1.434402.651103,2.074441.354906,1.268609.633097,2.564855.821634,3.832986,1.823096,11.74846-2.931451,23.603578-12.114423,30.190849-3.30539,2.368892-6.968767,3.955419-10.888921,4.715711Z" fill="none" stroke="#231f20" stroke-miterlimit="10" stroke-width=".698824"/><path d="M439.319001,47.457212c1.681544,10.837356-2.413349,22.089054-11.420052,28.549861-11.760116,8.428831-27.694557,5.67275-36.819456-5.919968-.583087-.732654-1.131818-1.501326-1.652819-2.304821-.136974-.208816-.267284-.418835-.39897-.635949-.440652-.708839-.852221-1.445312-1.222572-2.182418-6.663869-13.114337-3.229119-29.51084,8.422421-37.859813,12.505452-8.955813,29.735593-5.274386,38.477587,8.216398,1.348256,2.08452,2.421962,4.281087,3.219511,6.545846.228804.646957.436314,1.290593.612023,1.947848.337425,1.206804.600397,2.420687.782327,3.643016Z" fill="none" stroke="#231f20" stroke-miterlimit="10" stroke-width=".855"/><path d="M101.348223,117.189877c.207037,9.485815-3.905969,18.791895-11.780969,24.434912-11.763007,8.432886-27.693018,5.669824-36.819031-5.92207-.584967-.729053-1.134009-1.50293-1.655969-2.304053-.009009-.018018-.018018-.026807-.027026-.044824-.126013-.188965-.251971-.387158-.368976-.594141-.360022-.575903-.702026-1.179053-1.017004-1.781982-.072015-.134912-.144031-.261035-.206982-.395947-6.660022-13.113062-3.231024-29.511035,8.423987-37.863062,12.501013-8.954956,29.73598-5.274097,38.475,8.217114,1.35,2.087842,2.421002,4.283789,3.22196,6.551807.225.639185.432037,1.287158.612048,1.944141.017963.062842.03598.116895.044989.179956v.009009c.314978,1.143018.557996,2.295044.738007,3.456079.215991,1.367798.332996,2.745044.359967,4.113062Z" fill="none" stroke="#231f20" stroke-miterlimit="10" stroke-width=".855"/><path d="M350.340057,95.235986c-10.5088,2.038124-21.34172-2.164515-28.270826-10.967773-.595542-.748626-1.184196-1.56918-1.74403-2.431896-.142917-.217232-.283485-.444274-.425973-.679025-.454975-.732086-.891987-1.511883-1.28906-2.302828-7.13398-14.03887-3.285962-31.245697,8.954629-40.016873,3.303818-2.366036,6.965873-3.950605,10.885207-4.710738,11.520704-2.234377,23.305686,3.02027,30.023525,13.387357,1.405428,2.172668,2.547972,4.496257,3.397544,6.90771.264999.750219.47826,1.428823.650865,2.073211.354099,1.26664.632211,2.562476.821793,3.833806,1.822845,11.749359-2.931781,23.604067-12.114753,30.191338-3.30539,2.368892-6.968357,3.955339-10.888921,4.715711Z" fill="none" stroke="#231f20" stroke-miterlimit="10" stroke-width=".698824"/><path d="M371.652311,60.580793c1.681544,10.837356-2.413349,22.089054-11.420052,28.549861-11.760116,8.428831-27.694557,5.67275-36.819456-5.919968-.583087-.732654-1.131818-1.501326-1.652819-2.304821-.136974-.208816-.267284-.418835-.39897-.635949-.440652-.708839-.852221-1.445312-1.222572-2.182418-6.663869-13.114337-3.229119-29.51084,8.422421-37.859813,12.505452-8.955813,29.735593-5.274386,38.477587,8.216398,1.348256,2.08452,2.421962,4.281087,3.219511,6.545846.228804.646957.436314,1.290593.612023,1.947848.337425,1.206804.600397,2.420687.782327,3.643016Z" fill="none" stroke="#231f20" stroke-miterlimit="10" stroke-width=".855"/><path d="M282.67324,108.359592c-10.5088,2.038124-21.34172-2.164515-28.270826-10.967773-.5966-.749696-1.185334-1.57066-1.744189-2.432716-.142349-.216491-.283326-.443455-.425814-.678205-.452461-.727896-.889473-1.507692-1.288491-2.302087-7.134218-14.0401-3.286121-31.246517,8.95447-40.017693,3.303818-2.366036,6.965873-3.950605,10.885207-4.710738,11.520294-2.234297,23.305276,3.020349,30.023525,13.387357,1.405177,2.173567,2.547722,4.497156,3.397134,6.907789.264999.750219.47826,1.428823.650865,2.073211.355145,1.269839.633336,2.566085.821873,3.834216,1.823096,11.74846-2.931451,23.603578-12.114833,30.190929-3.30539,2.368892-6.968357,3.955339-10.888921,4.715711Z" fill="none" stroke="#231f20" stroke-miterlimit="10" stroke-width=".698824"/><path d="M303.98562,73.704374c1.681544,10.837356-2.413349,22.089054-11.420052,28.549861-11.760116,8.428831-27.694557,5.67275-36.819456-5.919968-.583087-.732654-1.131818-1.501326-1.652819-2.304821-.136974-.208816-.267284-.418835-.39897-.635949-.440652-.708839-.852221-1.445312-1.222572-2.182418-6.663869-13.114337-3.229119-29.51084,8.422421-37.859813,12.505452-8.955813,29.735593-5.274386,38.477587,8.216398,1.348256,2.08452,2.421962,4.281087,3.219511,6.545846.228804.646957.436314,1.290593.612023,1.947848.337425,1.206804.600397,2.420687.782327,3.643016Z" fill="none" stroke="#231f20" stroke-miterlimit="10" stroke-width=".855"/><path d="M215.006832,121.483118c-10.5088,2.038124-21.34172-2.164515-28.271236-10.967694-.593835-.746405-1.18249-1.566959-1.74362-2.431976-.143076-.218051-.284623-.445755-.427269-.681325-.452871-.727816-.889473-1.507692-1.287604-2.299708-7.134139-14.03969-3.286121-31.246517,8.95447-40.017693,3.303818-2.366036,6.965873-3.950605,10.885207-4.710738,11.520704-2.234377,23.305686,3.02027,30.023525,13.387357,1.405587,2.173488,2.548541,4.496997,3.397134,6.907789.266772.754979.480193,1.434402.651103,2.074441.354906,1.268609.633097,2.564855.821634,3.832986,1.823096,11.74846-2.931451,23.603578-12.114423,30.190849-3.30539,2.368892-6.968767,3.955419-10.888921,4.715711Z" fill="none" stroke="#231f20" stroke-miterlimit="10" stroke-width=".698824"/><path d="M236.31893,86.827955c1.681544,10.837356-2.413349,22.089054-11.420052,28.549861-11.760116,8.428831-27.694557,5.67275-36.819456-5.919968-.583087-.732654-1.131818-1.501326-1.652819-2.304821-.136974-.208816-.267284-.418835-.39897-.635949-.440652-.708839-.852221-1.445312-1.222572-2.182418-6.663869-13.114337-3.229119-29.51084,8.422421-37.859813,12.505452-8.955813,29.735593-5.274386,38.477587,8.216398,1.348256,2.08452,2.421962,4.281087,3.219511,6.545846.228804.646957.436314,1.290593.612023,1.947848.337425,1.206804.600397,2.420687.782327,3.643016Z" fill="none" stroke="#231f20" stroke-miterlimit="10" stroke-width=".855"/><path d="M147.340015,134.606724c-10.5088,2.038124-21.34172-2.164515-28.270826-10.967773-.595542-.748626-1.184196-1.56918-1.74403-2.431896-.142917-.217232-.283485-.444274-.425973-.679025-.454168-.730116-.89077-1.509993-1.288901-2.302008-7.134139-14.03969-3.286121-31.246517,8.95447-40.017693,3.303818-2.366036,6.965873-3.950605,10.885207-4.710738,11.520704-2.234377,23.305686,3.02027,30.023525,13.387357,1.405428,2.172668,2.547972,4.496257,3.397544,6.90771.265727.751779.478658,1.430872.650693,2.07452.353952,1.263691.632143,2.559937.821965,3.832497,1.822845,11.749359-2.931781,23.604067-12.114753,30.191338-3.30539,2.368892-6.968357,3.955339-10.888921,4.715711Z" fill="none" stroke="#231f20" stroke-miterlimit="10" stroke-width=".698824"/><path d="M168.652239,99.951536c1.681544,10.837356-2.413349,22.089054-11.420052,28.549861-11.760116,8.428831-27.694557,5.67275-36.819456-5.919968-.583087-.732654-1.131818-1.501326-1.652819-2.304821-.136974-.208816-.267284-.418835-.39897-.635949-.440652-.708839-.852221-1.445312-1.222572-2.182418-6.663869-13.114337-3.229119-29.51084,8.422421-37.859813,12.505452-8.955813,29.735593-5.274386,38.477587,8.216398,1.348256,2.08452,2.421962,4.281087,3.219511,6.545846.228804.646957.436314,1.290593.612023,1.947848.337425,1.206804.600397,2.420687.782327,3.643016Z" fill="none" stroke="#231f20" stroke-miterlimit="10" stroke-width=".855"/><path d="M94.551703,224.447802c-10.5088,2.038124-21.34131-2.164594-28.270416-10.967853-.595462-.748216-1.184196-1.56918-1.74403-2.431896-.143235-.218871-.283644-.445094-.425404-.678285-.454816-.731266-.891907-1.511473-1.289629-2.303568-7.133649-14.03936-3.285552-31.245777,8.955039-40.016952,3.303818-2.366036,6.966203-3.951094,10.885538-4.711227,11.520294-2.234297,23.304946,3.020838,30.023194,13.387846,1.405097,2.173157,2.547642,4.496746,3.397134,6.907789.26476.74899.478101,1.428003.650865,2.073211.355145,1.269839.633256,2.565675.821873,3.834216,1.823096,11.74846-2.931531,23.603168-12.114912,30.190519-3.305311,2.369302-6.968687,3.955828-10.889251,4.7162Z" fill="none" stroke="#231f20" stroke-miterlimit="10" stroke-width=".698824"/><path d="M115.864441,189.792392c1.681544,10.837356-2.413349,22.089054-11.420052,28.549861-11.760116,8.428831-27.694557,5.67275-36.819456-5.919968-.583087-.732654-1.131818-1.501326-1.652819-2.304821-.136974-.208816-.267284-.418835-.39897-.635949-.440652-.708839-.852221-1.445312-1.222572-2.182418-6.663869-13.114337-3.229119-29.51084,8.422421-37.859813,12.505452-8.955813,29.735593-5.274386,38.477587,8.216398,1.348256,2.08452,2.421962,4.281087,3.219511,6.545846.228804.646957.436314,1.290593.612023,1.947848.337425,1.206804.600397,2.420687.782327,3.643016Z" fill="none" stroke="#231f20" stroke-miterlimit="10" stroke-width=".855"/><path d="M109.430948,301.164706c-10.5088,2.038124-21.34172-2.164515-28.270826-10.967773-.595303-.747396-1.183958-1.56795-1.74395-2.431487-.143884-.220021-.284213-.445834-.426052-.679435-.454088-.729706-.89069-1.509583-1.288981-2.302418-7.133649-14.03936-3.285631-31.246186,8.95496-40.017362,3.303818-2.366036,6.965873-3.950605,10.885207-4.710738,11.520294-2.234297,23.305276,3.020349,30.023604,13.387767,1.405018,2.172747,2.547563,4.496336,3.397054,6.90738.264999.750219.47834,1.429233.650944,2.073621.355145,1.269839.633256,2.565675.821793,3.833806,1.823096,11.74846-2.931451,23.603578-12.114833,30.190929-3.30539,2.368892-6.968357,3.955339-10.888921,4.715711Z" fill="none" stroke="#231f20" stroke-miterlimit="10" stroke-width=".698824"/><path d="M130.743332,266.509666c1.681544,10.837356-2.413349,22.089054-11.420052,28.549861-11.760116,8.428831-27.694557,5.67275-36.819456-5.919968-.583087-.732654-1.131818-1.501326-1.652819-2.304821-.136974-.208816-.267284-.418835-.39897-.635949-.440652-.708839-.852221-1.445312-1.222572-2.182418-6.663869-13.114337-3.229119-29.51084,8.422421-37.859813,12.505452-8.955813,29.735593-5.274386,38.477587,8.216398,1.348256,2.08452,2.421962,4.281087,3.219511,6.545846.228804.646957.436314,1.290593.612023,1.947848.337425,1.206804.600397,2.420687.782327,3.643016Z" fill="none" stroke="#231f20" stroke-miterlimit="10" stroke-width=".855"/><path d="M432.885379,158.829853c-10.5088,2.038124-21.34131-2.164594-28.270826-10.967773-.593835-.746405-1.18249-1.566959-1.74362-2.431976-.143076-.218051-.284623-.445755-.426701-.680585-.452792-.727406-.889394-1.507283-1.288173-2.300448-7.134139-14.03969-3.286121-31.246517,8.95447-40.017693,3.303818-2.366036,6.966203-3.951094,10.885538-4.711227,11.520704-2.234377,23.305356,3.020759,30.023194,13.387846,1.405507,2.173078,2.548462,4.496587,3.397134,6.907789.266613.754159.479954,1.433172.651103,2.074441.354906,1.268609.633018,2.564445.821634,3.832986,1.823096,11.74846-2.931531,23.603168-12.114502,30.190439-3.305311,2.369302-6.968687,3.955828-10.889251,4.7162Z" fill="none" stroke="#231f20" stroke-miterlimit="10" stroke-width=".698824"/><path d="M454.197893,124.174486c1.681544,10.837356-2.413349,22.089054-11.420052,28.549861-11.760116,8.428831-27.694557,5.67275-36.819456-5.919968-.583087-.732654-1.131818-1.501326-1.652819-2.304821-.136974-.208816-.267284-.418835-.39897-.635949-.440652-.708839-.852221-1.445312-1.222572-2.182418-6.663869-13.114337-3.229119-29.51084,8.422421-37.859813,12.505452-8.955813,29.735593-5.274386,38.477587,8.216398,1.348256,2.08452,2.421962,4.281087,3.219511,6.545846.228804.646957.436314,1.290593.612023,1.947848.337425,1.206804.600397,2.420687.782327,3.643016Z" fill="none" stroke="#231f20" stroke-miterlimit="10" stroke-width=".855"/><path d="M447.764625,235.546757c-10.5088,2.038124-21.34172-2.164515-28.271236-10.967694-.593597-.745175-1.182331-1.56614-1.74354-2.431566-.143725-.219201-.285192-.446495-.427349-.681735-.451654-.725926-.888666-1.505723-1.287525-2.299298-7.134218-14.0401-3.2862-31.246927,8.954391-40.018102,3.303818-2.366036,6.965873-3.950605,10.885207-4.710738,11.520704-2.234377,23.305766,3.020679,30.023604,13.387767,1.405428,2.172668,2.548052,4.496667,3.397054,6.90738.266772.754979.480193,1.434402.651183,2.074851.354906,1.268609.633018,2.564445.821555,3.832576,1.823096,11.74846-2.931451,23.603578-12.114423,30.190849-3.30539,2.368892-6.968767,3.955419-10.888921,4.715711Z" fill="none" stroke="#231f20" stroke-miterlimit="10" stroke-width=".698824"/><path d="M469.076785,200.891761c1.681544,10.837356-2.413349,22.089054-11.420052,28.549861-11.760116,8.428831-27.694557,5.67275-36.819456-5.919968-.583087-.732654-1.131818-1.501326-1.652819-2.304821-.136974-.208816-.267284-.418835-.39897-.635949-.440652-.708839-.852221-1.445312-1.222572-2.182418-6.663869-13.114337-3.229119-29.51084,8.422421-37.859813,12.505452-8.955813,29.735593-5.274386,38.477587,8.216398,1.348256,2.08452,2.421962,4.281087,3.219511,6.545846.228804.646957.436314,1.290593.612023,1.947848.337425,1.206804.600397,2.420687.782327,3.643016Z" fill="none" stroke="#231f20" stroke-miterlimit="10" stroke-width=".855"/><path d="M462.64354,312.264151c-10.5088,2.038124-21.34172-2.164515-28.271236-10.967694-.594814-.747066-1.183058-1.5677-1.74354-2.431566-.143725-.219201-.285192-.446495-.427349-.681735-.452382-.727486-.889394-1.507283-1.287525-2.299298-7.134218-14.0401-3.2862-31.246927,8.954391-40.018102,3.303818-2.366036,6.965873-3.950605,10.885207-4.710738,11.520704-2.234377,23.305686,3.02027,30.023525,13.387357,1.405587,2.173488,2.548541,4.496997,3.397134,6.907789.266772.754979.480193,1.434402.651183,2.074851.354827,1.2682.633018,2.564445.821555,3.832576,1.823096,11.74846-2.931451,23.603578-12.114423,30.190849-3.30539,2.368892-6.968767,3.955419-10.888921,4.715711Z" fill="none" stroke="#231f20" stroke-miterlimit="10" stroke-width=".698824"/><path d="M483.955677,277.609035c1.681544,10.837356-2.413349,22.089054-11.420052,28.549861-11.760116,8.428831-27.694557,5.67275-36.819456-5.919968-.583087-.732654-1.131818-1.501326-1.652819-2.304821-.136974-.208816-.267284-.418835-.39897-.635949-.440652-.708839-.852221-1.445312-1.222572-2.182418-6.663869-13.114337-3.229119-29.51084,8.422421-37.859813,12.505452-8.955813,29.735593-5.274386,38.477587,8.216398,1.348256,2.08452,2.421962,4.281087,3.219511,6.545846.228804.646957.436314,1.290593.612023,1.947848.337425,1.206804.600397,2.420687.782327,3.643016Z" fill="none" stroke="#231f20" stroke-miterlimit="10" stroke-width=".855"/><path d="M365.218562,171.953459c-10.5088,2.038124-21.34131-2.164594-28.270416-10.967853-.595542-.748626-1.184196-1.56918-1.74403-2.431896-.142508-.217311-.283075-.444354-.425404-.678285-.454816-.731266-.891907-1.511473-1.289629-2.303568-7.13398-14.03887-3.285962-31.245697,8.954629-40.016873,3.303818-2.366036,6.966203-3.951094,10.885538-4.711227,11.520704-2.234377,23.305356,3.020759,30.023194,13.387846,1.404938,2.172338,2.547893,4.495847,3.397544,6.90771.26476.74899.478101,1.428003.650865,2.073211.35402,1.26623.632131,2.562066.821714,3.833396,1.822845,11.749359-2.931781,23.604067-12.114753,30.191338-3.305311,2.369302-6.968687,3.955828-10.889251,4.7162Z" fill="none" stroke="#231f20" stroke-miterlimit="10" stroke-width=".698824"/><path d="M386.531203,137.298067c1.681544,10.837356-2.413349,22.089054-11.420052,28.549861-11.760116,8.428831-27.694557,5.67275-36.819456-5.919968-.583087-.732654-1.131818-1.501326-1.652819-2.304821-.136974-.208816-.267284-.418835-.39897-.635949-.440652-.708839-.852221-1.445312-1.222572-2.182418-6.663869-13.114337-3.229119-29.51084,8.422421-37.859813,12.505452-8.955813,29.735593-5.274386,38.477587,8.216398,1.348256,2.08452,2.421962,4.281087,3.219511,6.545846.228804.646957.436314,1.290593.612023,1.947848.337425,1.206804.600397,2.420687.782327,3.643016Z" fill="none" stroke="#231f20" stroke-miterlimit="10" stroke-width=".855"/><path d="M380.097807,248.670363c-10.5088,2.038124-21.34172-2.164515-28.270826-10.967773-.595303-.747396-1.183958-1.56795-1.74395-2.431487-.143156-.218461-.283644-.445094-.426052-.679435-.454088-.729706-.89069-1.509583-1.288981-2.302418-7.134059-14.03928-3.286041-31.246107,8.95455-40.017283,3.303818-2.366036,6.965873-3.950605,10.885207-4.710738,11.520704-2.234377,23.305766,3.020679,30.023604,13.387767,1.404938,2.172338,2.547893,4.495847,3.397464,6.9073.265409.75014.47834,1.429233.651024,2.074031.35394,1.26582.632052,2.561656.821634,3.832986,1.822845,11.749359-2.931781,23.604067-12.114753,30.191338-3.30539,2.368892-6.968357,3.955339-10.888921,4.715711Z" fill="none" stroke="#231f20" stroke-miterlimit="10" stroke-width=".698824"/><path d="M401.410095,214.015342c1.681544,10.837356-2.413349,22.089054-11.420052,28.549861-11.760116,8.428831-27.694557,5.67275-36.819456-5.919968-.583087-.732654-1.131818-1.501326-1.652819-2.304821-.136974-.208816-.267284-.418835-.39897-.635949-.440652-.708839-.852221-1.445312-1.222572-2.182418-6.663869-13.114337-3.229119-29.51084,8.422421-37.859813,12.505452-8.955813,29.735593-5.274386,38.477587,8.216398,1.348256,2.08452,2.421962,4.281087,3.219511,6.545846.228804.646957.436314,1.290593.612023,1.947848.337425,1.206804.600397,2.420687.782327,3.643016Z" fill="none" stroke="#231f20" stroke-miterlimit="10" stroke-width=".855"/><path d="M394.976722,325.387757c-10.5088,2.038124-21.34172-2.164515-28.270826-10.967773-.59652-.749286-1.185175-1.569841-1.74395-2.431487-.143156-.218461-.283644-.445094-.426052-.679435-.454816-.731266-.891418-1.511143-1.288981-2.302418-7.134059-14.03928-3.286041-31.246107,8.95455-40.017283,3.303818-2.366036,6.965873-3.950605,10.885207-4.710738,11.520704-2.234377,23.305686,3.02027,30.023525,13.387357,1.405428,2.172668,2.547972,4.496257,3.397544,6.90771.265409.75014.47834,1.429233.651024,2.074031.35394,1.26582.632052,2.561656.821634,3.832986,1.822845,11.749359-2.931781,23.604067-12.114753,30.191338-3.30539,2.368892-6.968357,3.955339-10.888921,4.715711Z" fill="none" stroke="#231f20" stroke-miterlimit="10" stroke-width=".698824"/><path d="M416.288987,290.732616c1.681544,10.837356-2.413349,22.089054-11.420052,28.549861-11.760116,8.428831-27.694557,5.67275-36.819456-5.919968-.583087-.732654-1.131818-1.501326-1.652819-2.304821-.136974-.208816-.267284-.418835-.39897-.635949-.440652-.708839-.852221-1.445312-1.222572-2.182418-6.663869-13.114337-3.229119-29.51084,8.422421-37.859813,12.505452-8.955813,29.735593-5.274386,38.477587,8.216398,1.348256,2.08452,2.421962,4.281087,3.219511,6.545846.228804.646957.436314,1.290593.612023,1.947848.337425,1.206804.600397,2.420687.782327,3.643016Z" fill="none" stroke="#231f20" stroke-miterlimit="10" stroke-width=".855"/><path d="M297.551745,185.077065c-10.5088,2.038124-21.34131-2.164594-28.270416-10.967853-.5966-.749696-1.185334-1.57066-1.744189-2.432716-.141939-.216571-.282916-.443534-.425245-.677465-.452382-.727486-.888904-1.506952-1.28906-2.302828-7.134218-14.0401-3.286121-31.246517,8.95447-40.017693,3.303818-2.366036,6.966203-3.951094,10.885538-4.711227,11.520294-2.234297,23.304946,3.020838,30.023194,13.387846,1.405097,2.173157,2.547642,4.496746,3.397134,6.907789.26476.74899.478101,1.428003.650865,2.073211.355145,1.269839.633256,2.565675.821873,3.834216,1.823096,11.74846-2.931531,23.603168-12.114912,30.190519-3.305311,2.369302-6.968687,3.955828-10.889251,4.7162Z" fill="none" stroke="#231f20" stroke-miterlimit="10" stroke-width=".698824"/><path d="M318.864512,150.421649c1.681544,10.837356-2.413349,22.089054-11.420052,28.549861-11.760116,8.428831-27.694557,5.67275-36.819456-5.919968-.583087-.732654-1.131818-1.501326-1.652819-2.304821-.136974-.208816-.267284-.418835-.39897-.635949-.440652-.708839-.852221-1.445312-1.222572-2.182418-6.663869-13.114337-3.229119-29.51084,8.422421-37.859813,12.505452-8.955813,29.735593-5.274386,38.477587,8.216398,1.348256,2.08452,2.421962,4.281087,3.219511,6.545846.228804.646957.436314,1.290593.612023,1.947848.337425,1.206804.600397,2.420687.782327,3.643016Z" fill="none" stroke="#231f20" stroke-miterlimit="10" stroke-width=".855"/><path d="M312.43099,261.793969c-10.5088,2.038124-21.34172-2.164515-28.270826-10.967773-.595952-.748546-1.184685-1.56951-1.744109-2.432306-.142587-.217721-.283485-.444274-.425893-.678615-.451575-.725516-.888177-1.505392-1.288412-2.301678-7.134218-14.0401-3.2862-31.246927,8.954391-40.018102,3.303818-2.366036,6.965873-3.950605,10.885207-4.710738,11.520294-2.234297,23.305276,3.020349,30.023604,13.387767,1.405018,2.172747,2.547563,4.496336,3.397054,6.90738.264999.750219.47834,1.429233.650944,2.073621.355145,1.269839.633256,2.565675.821793,3.833806,1.823096,11.74846-2.931451,23.603578-12.114833,30.190929-3.30539,2.368892-6.968357,3.955339-10.888921,4.715711Z" fill="none" stroke="#231f20" stroke-miterlimit="10" stroke-width=".698824"/><path d="M333.743404,227.138923c1.681544,10.837356-2.413349,22.089054-11.420052,28.549861-11.760116,8.428831-27.694557,5.67275-36.819456-5.919968-.583087-.732654-1.131818-1.501326-1.652819-2.304821-.136974-.208816-.267284-.418835-.39897-.635949-.440652-.708839-.852221-1.445312-1.222572-2.182418-6.663869-13.114337-3.229119-29.51084,8.422421-37.859813,12.505452-8.955813,29.735593-5.274386,38.477587,8.216398,1.348256,2.08452,2.421962,4.281087,3.219511,6.545846.228804.646957.436314,1.290593.612023,1.947848.337425,1.206804.600397,2.420687.782327,3.643016Z" fill="none" stroke="#231f20" stroke-miterlimit="10" stroke-width=".855"/><path d="M327.309905,338.511362c-10.5088,2.038124-21.34172-2.164515-28.270826-10.967773-.597169-.750436-1.185902-1.571401-1.744109-2.432306-.142587-.217721-.283485-.444274-.425893-.678615-.452382-.727486-.888904-1.506952-1.288412-2.301678-7.134218-14.0401-3.2862-31.246927,8.954391-40.018102,3.303818-2.366036,6.965873-3.950605,10.885207-4.710738,11.520294-2.234297,23.305276,3.020349,30.023525,13.387357,1.405177,2.173567,2.547722,4.497156,3.397134,6.907789.264999.750219.47834,1.429233.651024,2.074031.354986,1.269019.633177,2.565265.821714,3.833396,1.823096,11.74846-2.931451,23.603578-12.114833,30.190929-3.30539,2.368892-6.968357,3.955339-10.888921,4.715711Z" fill="none" stroke="#231f20" stroke-miterlimit="10" stroke-width=".698824"/><path d="M348.622296,303.856197c1.681544,10.837356-2.413349,22.089054-11.420052,28.549861-11.760116,8.428831-27.694557,5.67275-36.819456-5.919968-.583087-.732654-1.131818-1.501326-1.652819-2.304821-.136974-.208816-.267284-.418835-.39897-.635949-.440652-.708839-.852221-1.445312-1.222572-2.182418-6.663869-13.114337-3.229119-29.51084,8.422421-37.859813,12.505452-8.955813,29.735593-5.274386,38.477587,8.216398,1.348256,2.08452,2.421962,4.281087,3.219511,6.545846.228804.646957.436314,1.290593.612023,1.947848.337425,1.206804.600397,2.420687.782327,3.643016Z" fill="none" stroke="#231f20" stroke-miterlimit="10" stroke-width=".855"/><path d="M229.885337,198.200591c-10.5088,2.038124-21.34131-2.164594-28.270826-10.967773-.593835-.746405-1.18249-1.566959-1.74362-2.431976-.143076-.218051-.284623-.445755-.426701-.680585-.452792-.727406-.889394-1.507283-1.288173-2.300448-7.134139-14.03969-3.286121-31.246517,8.95447-40.017693,3.303818-2.366036,6.966203-3.951094,10.885538-4.711227,11.520704-2.234377,23.305356,3.020759,30.023194,13.387846,1.405507,2.173078,2.548462,4.496587,3.397134,6.907789.266613.754159.479954,1.433172.651103,2.074441.354906,1.268609.633018,2.564445.821634,3.832986,1.823096,11.74846-2.931531,23.603168-12.114502,30.190439-3.305311,2.369302-6.968687,3.955828-10.889251,4.7162Z" fill="none" stroke="#231f20" stroke-miterlimit="10" stroke-width=".698824"/><path d="M251.197822,163.54523c1.681544,10.837356-2.413349,22.089054-11.420052,28.549861-11.760116,8.428831-27.694557,5.67275-36.819456-5.919968-.583087-.732654-1.131818-1.501326-1.652819-2.304821-.136974-.208816-.267284-.418835-.39897-.635949-.440652-.708839-.852221-1.445312-1.222572-2.182418-6.663869-13.114337-3.229119-29.51084,8.422421-37.859813,12.505452-8.955813,29.735593-5.274386,38.477587,8.216398,1.348256,2.08452,2.421962,4.281087,3.219511,6.545846.228804.646957.436314,1.290593.612023,1.947848.337425,1.206804.600397,2.420687.782327,3.643016Z" fill="none" stroke="#231f20" stroke-miterlimit="10" stroke-width=".855"/><path d="M244.764583,274.917495c-10.5088,2.038124-21.34172-2.164515-28.271236-10.967694-.593597-.745175-1.182331-1.56614-1.74354-2.431566-.143725-.219201-.285192-.446495-.427349-.681735-.451654-.725926-.888666-1.505723-1.287525-2.299298-7.134218-14.0401-3.2862-31.246927,8.954391-40.018102,3.303818-2.366036,6.965873-3.950605,10.885207-4.710738,11.520704-2.234377,23.305766,3.020679,30.023604,13.387767,1.405428,2.172668,2.548052,4.496667,3.397054,6.90738.266772.754979.480193,1.434402.651183,2.074851.354906,1.268609.633018,2.564445.821555,3.832576,1.823096,11.74846-2.931451,23.603578-12.114423,30.190849-3.30539,2.368892-6.968767,3.955419-10.888921,4.715711Z" fill="none" stroke="#231f20" stroke-miterlimit="10" stroke-width=".698824"/><path d="M266.076714,240.262504c1.681544,10.837356-2.413349,22.089054-11.420052,28.549861-11.760116,8.428831-27.694557,5.67275-36.819456-5.919968-.583087-.732654-1.131818-1.501326-1.652819-2.304821-.136974-.208816-.267284-.418835-.39897-.635949-.440652-.708839-.852221-1.445312-1.222572-2.182418-6.663869-13.114337-3.229119-29.51084,8.422421-37.859813,12.505452-8.955813,29.735593-5.274386,38.477587,8.216398,1.348256,2.08452,2.421962,4.281087,3.219511,6.545846.228804.646957.436314,1.290593.612023,1.947848.337425,1.206804.600397,2.420687.782327,3.643016Z" fill="none" stroke="#231f20" stroke-miterlimit="10" stroke-width=".855"/><path d="M259.643498,351.634888c-10.5088,2.038124-21.34172-2.164515-28.271236-10.967694-.594814-.747066-1.183058-1.5677-1.74354-2.431566-.143725-.219201-.285192-.446495-.427349-.681735-.452382-.727486-.889394-1.507283-1.287525-2.299298-7.134218-14.0401-3.2862-31.246927,8.954391-40.018102,3.303818-2.366036,6.965873-3.950605,10.885207-4.710738,11.520704-2.234377,23.305686,3.02027,30.023525,13.387357,1.405587,2.173488,2.548541,4.496997,3.397134,6.907789.266772.754979.480193,1.434402.651183,2.074851.354827,1.2682.633018,2.564445.821555,3.832576,1.823096,11.74846-2.931451,23.603578-12.114423,30.190849-3.30539,2.368892-6.968767,3.955419-10.888921,4.715711Z" fill="none" stroke="#231f20" stroke-miterlimit="10" stroke-width=".698824"/><path d="M280.955606,316.979779c1.681544,10.837356-2.413349,22.089054-11.420052,28.549861-11.760116,8.428831-27.694557,5.67275-36.819456-5.919968-.583087-.732654-1.131818-1.501326-1.652819-2.304821-.136974-.208816-.267284-.418835-.39897-.635949-.440652-.708839-.852221-1.445312-1.222572-2.182418-6.663869-13.114337-3.229119-29.51084,8.422421-37.859813,12.505452-8.955813,29.735593-5.274386,38.477587,8.216398,1.348256,2.08452,2.421962,4.281087,3.219511,6.545846.228804.646957.436314,1.290593.612023,1.947848.337425,1.206804.600397,2.420687.782327,3.643016Z" fill="none" stroke="#231f20" stroke-miterlimit="10" stroke-width=".855"/><path d="M162.21852,211.324197c-10.5088,2.038124-21.34131-2.164594-28.270416-10.967853-.595542-.748626-1.184196-1.56918-1.74403-2.431896-.142508-.217311-.283075-.444354-.425404-.678285-.454088-.729706-.89069-1.509583-1.28947-2.302748-7.134139-14.03969-3.286121-31.246517,8.95447-40.017693,3.303818-2.366036,6.966203-3.951094,10.885538-4.711227,11.520704-2.234377,23.305356,3.020759,30.023194,13.387846,1.404938,2.172338,2.547893,4.495847,3.397544,6.90771.265488.75055.478499,1.430053.650693,2.07452.353952,1.263691.632064,2.559527.821885,3.832087,1.822845,11.749359-2.931781,23.604067-12.114753,30.191338-3.305311,2.369302-6.968687,3.955828-10.889251,4.7162Z" fill="none" stroke="#231f20" stroke-miterlimit="10" stroke-width=".698824"/><path d="M183.531131,176.668811c1.681544,10.837356-2.413349,22.089054-11.420052,28.549861-11.760116,8.428831-27.694557,5.67275-36.819456-5.919968-.583087-.732654-1.131818-1.501326-1.652819-2.304821-.136974-.208816-.267284-.418835-.39897-.635949-.440652-.708839-.852221-1.445312-1.222572-2.182418-6.663869-13.114337-3.229119-29.51084,8.422421-37.859813,12.505452-8.955813,29.735593-5.274386,38.477587,8.216398,1.348256,2.08452,2.421962,4.281087,3.219511,6.545846.228804.646957.436314,1.290593.612023,1.947848.337425,1.206804.600397,2.420687.782327,3.643016Z" fill="none" stroke="#231f20" stroke-miterlimit="10" stroke-width=".855"/><path d="M177.097765,288.041101c-10.5088,2.038124-21.34172-2.164515-28.270826-10.967773-.595303-.747396-1.183958-1.56795-1.74395-2.431487-.143156-.218461-.283644-.445094-.426052-.679435-.452951-.728226-.889962-1.508023-1.288822-2.301598-7.134218-14.0401-3.2862-31.246927,8.954391-40.018102,3.303818-2.366036,6.965873-3.950605,10.885207-4.710738,11.520704-2.234377,23.305766,3.020679,30.023604,13.387767,1.404938,2.172338,2.547893,4.495847,3.397464,6.9073.265727.751779.478737,1.431282.650773,2.07493.353952,1.263691.632064,2.559527.821885,3.832087,1.822845,11.749359-2.931781,23.604067-12.114753,30.191338-3.30539,2.368892-6.968357,3.955339-10.888921,4.715711Z" fill="none" stroke="#231f20" stroke-miterlimit="10" stroke-width=".698824"/><path d="M198.410023,253.386085c1.681544,10.837356-2.413349,22.089054-11.420052,28.549861-11.760116,8.428831-27.694557,5.67275-36.819456-5.919968-.583087-.732654-1.131818-1.501326-1.652819-2.304821-.136974-.208816-.267284-.418835-.39897-.635949-.440652-.708839-.852221-1.445312-1.222572-2.182418-6.663869-13.114337-3.229119-29.51084,8.422421-37.859813,12.505452-8.955813,29.735593-5.274386,38.477587,8.216398,1.348256,2.08452,2.421962,4.281087,3.219511,6.545846.228804.646957.436314,1.290593.612023,1.947848.337425,1.206804.600397,2.420687.782327,3.643016Z" fill="none" stroke="#231f20" stroke-miterlimit="10" stroke-width=".855"/><path d="M191.97668,364.758494c-10.5088,2.038124-21.34172-2.164515-28.270826-10.967773-.59652-.749286-1.185175-1.569841-1.74395-2.431487-.143156-.218461-.283644-.445094-.426052-.679435-.453679-.729786-.89069-1.509583-1.288822-2.301598-7.134218-14.0401-3.2862-31.246927,8.954391-40.018102,3.303818-2.366036,6.965873-3.950605,10.885207-4.710738,11.520704-2.234377,23.305686,3.02027,30.023525,13.387357,1.405428,2.172668,2.547972,4.496257,3.397544,6.90771.265727.751779.478737,1.431282.650773,2.07493.353873,1.263281.631985,2.559117.821885,3.832087,1.822845,11.749359-2.931781,23.604067-12.114753,30.191338-3.30539,2.368892-6.968357,3.955339-10.888921,4.715711Z" fill="none" stroke="#231f20" stroke-miterlimit="10" stroke-width=".698824"/><path d="M213.288915,330.10336c1.681544,10.837356-2.413349,22.089054-11.420052,28.549861-11.760116,8.428831-27.694557,5.67275-36.819456-5.919968-.583087-.732654-1.131818-1.501326-1.652819-2.304821-.136974-.208816-.267284-.418835-.39897-.635949-.440652-.708839-.852221-1.445312-1.222572-2.182418-6.663869-13.114337-3.229119-29.51084,8.422421-37.859813,12.505452-8.955813,29.735593-5.274386,38.477587,8.216398,1.348256,2.08452,2.421962,4.281087,3.219511,6.545846.228804.646957.436314,1.290593.612023,1.947848.337425,1.206804.600397,2.420687.782327,3.643016Z" fill="none" stroke="#231f20" stroke-miterlimit="10" stroke-width=".855"/></svg>