<?xml version="1.0" encoding="UTF-8"?><svg id="Layer_1" xmlns="http://www.w3.org/2000/svg" width="393.149902" height="220.109863" viewBox="0 0 393.149902 220.109863"><path d="M390.650235,74.200104c0,13.059998-9.450012,25.309998-25.960022,35.849976-33.559998-21.429993-96.279968-35.849976-168.119995-35.849976-71.829956,0-134.549988,14.419983-168.109985,35.849976C11.950223,99.510101,2.500211,87.260101,2.500211,74.200104,2.500211,34.600067,89.390225,2.500092,196.570218,2.500092c107.190002,0,194.080017,32.099976,194.080017,71.700012Z" fill="rgba(227,244,247,.2)"/><path d="M364.689941,110.049805c-33.559998,21.429993-96.280029,35.849976-168.119995,35.849976-71.830017,0-134.549988-14.419983-168.109985-35.849976,33.559998-21.429993,96.279968-35.849976,168.109985-35.849976,71.839966,0,134.559998,14.419983,168.119995,35.849976Z" fill="rgba(227,244,247,.2)"/><path d="M196.569824,147.899902c-69.424316,0-134.25293-13.857422-169.185547-36.164062l-2.640137-1.685547,2.640137-1.685547c34.932129-22.307617,99.760254-36.165039,169.185547-36.165039,69.431641,0,134.263672,13.857422,169.196289,36.165039l2.639648,1.685547-2.639648,1.685547c-34.932617,22.306641-99.765625,36.164062-169.196289,36.164062ZM32.262207,110.050293c34.91748,20.929688,97.381836,33.849609,164.307617,33.849609,66.932617,0,129.400391-12.919922,164.318359-33.849609-34.916992-20.930664-97.385742-33.850586-164.318359-33.850586-66.926758,0-129.391113,12.919922-164.307617,33.850586Z" fill="#e2f3f7" stroke="#58595b" stroke-miterlimit="10"/><g opacity=".2"><path d="M390.650235,76.194916v71.699951c0,39.600037-86.890015,71.710022-194.080017,71.710022C89.390225,219.604889,2.500211,187.494904,2.500211,147.894867v-71.699951c0,13.059998,9.450012,25.309998,25.960022,35.849976,33.559998,21.429993,96.279968,35.849976,168.109985,35.849976,71.839966,0,134.559998-14.419983,168.119995-35.849976,16.51001-10.539978,25.960022-22.789978,25.960022-35.849976Z" fill="#e2f3f7"/></g><path d="M196.569824,219.609863c-52.066895,0-101.047852-7.503906-137.92041-21.128906C21.151367,184.624512.5,165.95166.5,145.899902v-71.700195h4c0,11.894531,8.657715,23.708984,25.036621,34.165039,34.326172,21.918945,98.329102,35.535156,167.033203,35.535156,68.710938,0,132.717773-13.616211,167.043945-35.535156,16.378906-10.456055,25.036133-22.269531,25.036133-34.165039h4v71.700195c0,20.051758-20.651367,38.725586-58.150391,52.581055-36.874023,13.625-85.858398,21.128906-137.929688,21.128906ZM4.5,89.218262v56.681641c0,18.254883,19.723145,35.595703,55.535645,48.829102,36.439941,13.464844,84.928711,20.880859,136.53418,20.880859,51.610352,0,100.101562-7.416016,136.542969-20.880859,35.813477-13.233398,55.537109-30.574219,55.537109-48.829102v-56.681641c-4.295898,7.955078-12.00293,15.572266-22.883789,22.517578-34.932617,22.306641-99.765625,36.164062-169.196289,36.164062-69.424316,0-134.25293-13.857422-169.185547-36.164062-10.880859-6.946289-18.588379-14.5625-22.884277-22.517578Z" fill="#e2f3f7" stroke="#58595b" stroke-miterlimit="10"/><path d="M196.569824,147.899902c-69.424316,0-134.25293-13.857422-169.185547-36.164062C9.796387,100.508301.5,87.527832.5,74.199707c0-20.050781,20.651367-38.72168,58.149414-52.576172C95.520508,8.002441,144.501953.5,196.569824.5c52.072266,0,101.056641,7.502441,137.929688,21.123535,37.499023,13.853516,58.150391,32.525391,58.150391,52.576172,0,13.329102-9.295898,26.308594-26.883789,37.536133-34.932617,22.306641-99.765625,36.164062-169.196289,36.164062ZM196.569824,4.500488c-51.606934,0-100.095703,7.413086-136.53418,20.875977C24.223145,38.606934,4.5,55.945801,4.5,74.199707c0,11.894531,8.657715,23.708008,25.036621,34.165039,34.326172,21.918945,98.329102,35.535156,167.033203,35.535156,68.710938,0,132.717773-13.616211,167.043945-35.535156,16.378906-10.456055,25.036133-22.270508,25.036133-34.165039,0-18.253906-19.723633-35.592773-55.537109-48.823242-36.439453-13.462891-84.931641-20.875977-136.542969-20.875977Z" fill="#e2f3f7" stroke="#58595b" stroke-miterlimit="10"/></svg>