<?xml version="1.0" encoding="UTF-8"?><svg id="Layer_1" xmlns="http://www.w3.org/2000/svg" width="386.113756" height="413.63562" xmlns:xlink="http://www.w3.org/1999/xlink" viewBox="0 0 386.113756 413.63562"><defs><radialGradient id="radial-gradient" cx="193.213787" cy="207.131226" fx="193.213787" fy="207.131226" r="199.056056" gradientUnits="userSpaceOnUse"><stop offset="0" stop-color="#d4eef9"/><stop offset=".295013" stop-color="#cfecf8"/><stop offset=".60732" stop-color="#c3e7f6"/><stop offset=".926605" stop-color="#addff3"/><stop offset="1" stop-color="#a8ddf3"/></radialGradient><radialGradient id="radial-gradient-2" cx="149.001491" cy="367.478882" fx="149.001491" fy="367.478882" r=".008219" xlink:href="#radial-gradient"/><radialGradient id="radial-gradient-3" cx="164.638443" cy="240.457126" fx="164.638443" fy="240.457126" r="37.165918" gradientTransform="translate(-50.4592 -131.133301) scale(1.359828 1.476885)" gradientUnits="userSpaceOnUse"><stop offset="0" stop-color="#cddee4"/><stop offset=".23886" stop-color="#cadce2" stop-opacity=".993737"/><stop offset=".407007" stop-color="#c3d6de" stop-opacity=".973564"/><stop offset=".553485" stop-color="#b7cdd7" stop-opacity=".939333"/><stop offset=".687476" stop-color="#a6c0cd" stop-opacity=".891016"/><stop offset=".813074" stop-color="#8fafbf" stop-opacity=".828495"/><stop offset=".930771" stop-color="#749bb0" stop-opacity=".752868"/><stop offset="1" stop-color="#628da5" stop-opacity=".7"/></radialGradient></defs><path d="M171.511195,412.949097c-.905273,0-1.764648-.390625-2.358887-1.073242-.713379-.818359-1.4375-1.632812-2.163086-2.449219l-.085938-.095703c-3.572754-4.015625-7.267578-8.167969-9.95459-13.117188l-.089844-.176758c-3.12207-6.586914-3.661621-12.030273-4.137207-16.832031-.388184-3.913086-.754395-7.610352-2.443848-11.822266l-.310059-.772461-.916992.18457.053223-.001953c-.061035.003906-.112793.013672-.160645.023438l-.995117.200195-.001465,1.777344c-.002441,10.916016-.004883,22.205078-12.816406,33.0625-.563965.477539-1.280762.741211-2.018555.741211-1.069336,0-2.056641-.541992-2.641602-1.450195-.835449-1.297852-.506836-3.095703.763672-4.182617,10.458984-8.939453,10.460449-17.427734,10.462402-28.173828.000977-4.803711.001953-10.245117,1.019043-16.064453,1.270508-6.466797,4.443359-12.00293,7.381348-16.574219l.445312-.681641.813477-1.228516-1.442871-.301758c-3.99707-.835938-7.945801-1.893555-12.070801-3.232422-2.539062-.824219-5.400391-.893555-7.883301-.893555l-2.474609.008789c-3.000488,0-6.138184-.106445-8.631836-1.378906-2.655273-1.356445-4.270996-4.525391-5.981445-7.879883-1.546387-3.033203-3.145508-6.169922-5.662598-8.000977-4.910156-3.574219-8.678223-7.341797-13.041504-11.705078-.286621-.287109-.513672-.495117-.749023-.694336-2.023438-1.71582-4.519043-2.62207-7.216309-2.62207-3.567871,0-7.055176,1.664062-9.327637,4.452148-2.98877,3.666992-6.824219,6.785156-11.399902,9.266602-1.633301.929688-3.28125,1.767578-4.875,2.578125-4.893555,2.488281-9.483887,4.821289-12.160156,8.9375-2.800293,4.220703-3.098633,9.511719-3.183594,15.486328-.092773,7.498047-.040527,15.001953.009766,22.258789.005859.830078-.313477,1.612305-.898438,2.201172-.585938.589844-1.366699.915039-2.198242.915039-1.740234,0-3.14209-1.391602-3.153809-3.102539-.050293-7.352539-.101562-14.851562-.008789-22.355469.028809-2.026367.088867-4.410156.317871-6.710938.191895-1.936523-.440918-3.867188-1.73584-5.296875-1.291016-1.424805-3.061523-2.209961-4.985352-2.209961-.964355,0-1.834473-.056641-2.662598-.167969l-.250977-.042969c-4.876465-1.004883-8.15625-3.18457-10.791504-4.936523-2.943848-1.957031-5.262207-3.498047-9.325195-3.498047-1.37793,0-2.900391.177734-4.654297.541992-.208496.042969-.422852.06543-.635254.06543-1.569336,0-2.90332-1.177734-3.102539-2.739258-.201172-1.583008.988281-3.145508,2.651855-3.482422,2.041504-.414062,3.973145-.624023,5.741211-.624023,5.967285,0,9.430664,2.302734,12.780273,4.529297,2.48877,1.654297,4.839355,3.217773,8.479004,3.996094.605957.078125,1.15332.109375,1.715332.109375,2.533203,0,5.15332-.623047,7.927734-1.282227.981445-.233398,1.952637-.463867,2.91748-.666992.118164-.025391.234863-.042969.350586-.052734,1.714355-.15625,3.120117-.672852,4.180664-1.53418,2.970703-2.416016,6.447266-4.183594,9.809082-5.892578,1.599609-.814453,3.179688-1.618164,4.664551-2.46582.731445-.396484,1.519043-.974609,2.40332-1.751953,7.072754-6.219727,8.252441-16.871094,2.744141-24.775391-.707031-1.015625-1.286133-1.970703-1.77002-2.917969-1.429688-2.800781-1.505371-6.28418-1.585938-9.97168-.066895-3.056641-.135742-6.217773-1.046387-9.022461-1.989746-6.12793-3.712891-11.682617-4.643555-17.605469-.425293-2.706055-1.499512-5.416992-2.538086-8.039062-1.319336-3.329102-2.683105-6.771484-2.683105-10.147461,0-1.708984-.041992-3.458008-.083984-5.219727-.111328-4.639648-.226562-9.4375.448242-13.730469.557617-3.546875,2.250977-7.084961,3.888672-10.507812,1.121094-2.341797,2.280273-4.764648,3.05957-7.164062.834473-2.570312,1.253906-5.412109,1.65918-8.161133.539551-3.65625,1.097168-7.4375,2.638184-10.456055.586426-1.149414.263672-4.748047-.375977-5.896484-1.456543-2.617188-4.110352-4.178711-7.097656-4.178711-3.031738,0-5.696289,1.59668-7.12793,4.272461l-.726562,1.354492c-2.891113,5.439453-7.384766,8.196289-13.358398,8.196289-5.90332,0-11.733398-2.638672-14.535645-3.90625-3.800293-1.671875-7.703613-3.464844-11.146973-5.045898-1.881836-.865234-3.76416-1.729492-5.650391-2.585938-.844727-.383789-1.471191-1.117188-1.719727-2.011719-.251953-.908203-.089355-1.845703.457031-2.638672.515137-.746094,1.569824-1.228516,2.687988-1.228516.487305,0,.95166.09375,1.34375.271484,1.832031.833008,3.660645,1.672852,5.489258,2.512695l.206055.094727c3.561523,1.634766,7.243652,3.326172,10.878906,4.924805,5.035156,2.277344,8.950195,3.386719,11.959473,3.386719,4.718262,0,6.756348-2.807617,7.878906-4.918945l.649414-1.209961c1.88623-3.527344,3.515137-6.572266,6.024902-9.303711,3.728516-4.058594,3.979492-10.057617.597168-14.265625l-.073242-.089844c-1.209961-1.506836-2.543945-2.908203-3.956543-4.391602-.739258-.776367-1.493652-1.569336-2.236328-2.391602-4.081055-4.511719-9.102051-7.537109-14.520508-8.749023-5.216797-1.166992-8.991211-3.541016-11.539062-7.257812-1.964355-2.6875-3.119629-5.807617-4.237305-8.825195-1.036133-2.796875-2.012207-5.431641-3.497559-7.421875-1.73291-2.419922-4.286133-4.234375-6.974121-6.036133-.76709-.515625-1.265137-1.338867-1.365723-2.258789-.102051-.932617.206055-1.827148.867188-2.520508.549316-.576172,1.324707-.892578,2.182617-.892578.69873,0,1.405273.21582,1.989258.609375,2.959473,1.991211,6.040527,4.202148,8.322754,7.378906,2.020508,2.716797,3.196777,5.892578,4.333984,8.963867,1.021484,2.759766,1.983887,5.360352,3.436523,7.329102l.081543.115234c1.996094,2.943359,5.36084,4.59082,10.577637,5.169922.135254.014648.269043.022461.402344.022461,1.827637-.000977,3.401367-1.351562,3.661133-3.142578.22998-1.587891.669922-4.492188,1.032715-6.100586.470703-2.089844.911621-4.046875,1.110352-5.961914l.02002-.158203c.858887-5.796875-1.345215-11.243164-7.149414-17.634766-.628906-.692383-.912598-1.621094-.779297-2.547852.135254-.94043.66748-1.737305,1.498535-2.244141.450195-.274414.973633-.419922,1.51416-.419922.927246,0,1.866699.426758,2.513184,1.142578,4.38623,4.853516,10.049805,12.472656,8.594727,22.556641-.244629,2.287109-.741211,4.491211-1.221191,6.623047-.546387,2.423828-1.056152,4.6875-1.191406,6.883789l-.009277.117188c-.469238,4.984375,2.373047,8.367188,7.109863,13.342773,1.441895,1.515625,2.930664,3.079102,4.299316,4.782227,3.896484,4.826172,6.475098,10.895508,8.96875,16.764648.62793,1.479492,1.250488,2.942383,1.88623,4.371094,1.049316,2.360352,3.309082,3.827148,5.896973,3.826172,2.066895,0,3.955078-.959961,5.181152-2.634766,3.881836-5.333984,7.897949-10.077148,11.98584-14.165039,2.606934-2.606445,5.932129-4.573242,9.147461-6.475586,2.042969-1.208984,4.155273-2.458008,6.104492-3.876953,2.140137-1.557617,4.06543-3.505859,5.927734-5.389648,2.51709-2.547852,5.120117-5.181641,8.197266-6.75293,4.582031-2.339844,9.763184-3.994141,14.773926-5.59375.888672-.283203,1.774414-.566406,2.653809-.851562,1.846191-.599609,3.73584-1.303711,5.562988-1.984375,3.979492-1.482422,8.094238-3.015625,12.227539-3.665039.376953-.05957.771484-.089844,1.173828-.089844l.12793.000977c5.01123,0,9.540039-3.176758,11.269531-7.905273.381836-1.043945.782227-2.110352,1.196289-3.213867l.248535-.662109c1.624023-4.749023,2.04541-8.521484,1.335938-11.900391-2.603516-11.128906-15.782715-21.015625-25.405762-28.235352l-1.956055-1.469727c-.800293-.603516-1.25293-1.52832-1.240723-2.53418.012207-1.010742.513672-1.944336,1.375488-2.5625.47998-.34375,1.060547-.526367,1.680176-.526367.714355,0,1.429199.242188,2.013672.681641l1.876953,1.411133c6.45752,4.84375,14.492676,10.871094,20.339355,17.946289.71875.870117,1.776855,1.368164,2.902832,1.368164,1.376465,0,2.606934-.712891,3.291992-1.905273,1.80127-3.356445,4.296875-6.237305,6.710449-9.022461,4.226074-4.879883,7.875977-9.09375,7.425781-14.592773-.326172-3.543945-2.04834-6.949219-3.871094-10.553711-.344727-.680664-.688477-1.360352-1.021973-2.040039-1.214844-2.400391-2.419434-4.976562-3.911133-8.365234-.351562-.798828-.351562-1.716797.000488-2.517578.356934-.811523,1.020508-1.417969,1.868164-1.705078.29541-.100586.603516-.151367.916016-.151367,1.26709,0,2.483398.828125,3.026367,2.05957,1.402344,3.180664,2.541992,5.614258,3.693359,7.891602.324219.661133.643555,1.291992.961914,1.921875.616211,1.21875,1.194336,2.361328,1.738281,3.529297.983398,2.109375,3.044922,3.420898,5.379883,3.419922,2.141602,0,4.063477-1.104492,5.141602-2.956055l.051758-.087891c1.725586-3,2.660156-6.487305,3.649414-10.180664.78125-2.911133,1.581055-5.891602,2.80957-8.746094,1.4375-3.419922,3.407227-6.485352,5.301758-9.333984.581055-.873047,1.555664-1.394531,2.606445-1.394531.803711,0,1.576172.313477,2.174805.881836,1.070312,1.016602,1.196289,2.807617.293945,4.167969-1.59668,2.405273-3.402344,5.21582-4.626953,8.125-1.063477,2.475586-1.772461,5.119141-2.522461,7.917969-1.051758,3.923828-2.137695,7.976562-4.277344,11.693359-3.160156,5.442383-7.631836,9.710938-11.956055,13.837891-.69043.658203-1.376953,1.314453-2.057617,1.973633-.355469.344727-.798828.594727-1.316406.743164l-.385742.110352-.203125.34668c-1.746094,2.995117-4.09375,5.705078-6.165527,8.09668-2.304199,2.660156-4.47998,5.171875-5.915039,7.866211l-.06543.117188c-2.147949,3.705078-2.79541,8.195312-3.17334,12.492188-.042969.484375-.208008.954102-.490723,1.395508l-.177246.276367.021484.328125c.243652,3.712891-.393066,7.71582-1.945312,12.239258l-.259766.693359c-1.578125,4.201172-2.824707,7.520508-3.624512,10.859375-.190918.795898-.007812,1.624023.501953,2.270508.517578.65625,1.293457,1.032227,2.129395,1.032227,2.181152,0,4.292969-.115234,6.335449-.225586,2.018555-.110352,3.924805-.213867,5.859863-.213867,2.141602,0,3.947266.126953,5.68457.401367.62793.097656,1.296875.147461,1.990234.147461,2.462891,0,5.044922-.612305,7.542969-1.204102,2.46875-.585938,4.800781-1.138672,6.980469-1.138672,1.070312,0,2.00293.133789,2.852539.410156,3.166016,1.027344,6.012695,3.407227,8.766602,5.708984,2.196289,1.834961,4.466797,3.732422,6.938477,4.994141,2.875977,1.467773,4.944336,4.073242,7.135742,6.832031,1.771484,2.230469,3.603516,4.538086,5.924805,6.227539,2.463867,1.792969,5.642578,2.580078,8.716797,3.341797,3.499023.866211,6.803711,1.68457,8.958984,3.839844l.101562.103516c4.192383,4.337891,9.951172,6.823242,15.805664,6.823242,2.762695-.000977,5.457031-.540039,8.004883-1.603516,1.998047-.832031,3.994141-1.555664,5.754883-2.194336,8.989258-3.263672,16.750977-6.081055,20.685547-19.15332,2.037109-7.499023,2.139648-15.214844,2.248047-23.383789l.000977-.113281c.041992-3.057617.084961-6.219727.242188-9.331055.083008-1.664062,1.457031-2.967773,3.126953-2.967773l.15332.003906c.831055.041992,1.598633.40625,2.158203,1.025391.560547.619141.845703,1.419922.802734,2.25293-.15332,3.049805-.195312,6.183594-.235352,9.212891-.108398,8.217773-.220703,16.714844-2.474609,24.969727l-.024414.085938c-.277344.928711-.585938,1.853516-.913086,2.738281-.803711,2.179688-.509766,4.514648.808594,6.40625,1.30957,1.878906,3.400391,3,5.591797,3,1.15332,0,2.270508-.304688,3.320312-.907227,3.525391-2.020508,6.385742-5.207031,10.34375-9.617188,2.393555-2.665039,5.061523-5.636719,8.450195-9.058594.670898-.677734,1.583984-1.066406,2.504883-1.066406.609375,0,1.182617.176758,1.658203.509766.783203.549805,1.260742,1.366211,1.34375,2.299805.082031.920898-.244141,1.825195-.894531,2.479492-3.386719,3.413086-6.055664,6.386719-8.410156,9.010742-9.00293,10.02832-13.619141,14.461914-28.719727,14.461914-2.845703,0-6.083984-.15918-9.900391-.487305-.15332-.013672-.301758-.041992-.448242-.076172l-.350586-.082031-.321289.160156c-2.811523,1.395508-5.761719,2.46582-8.614258,3.500977-2.121094.769531-4.314453,1.56543-6.454102,2.496094-3.65332,1.59082-6.399414,4.522461-7.732422,8.256836-1.345703,3.772461-1.050781,8.013672.810547,11.633789l.114258.220703c1.626953,3.188477,2.325195,6.580078,3.063477,10.171875.479492,2.330078.975586,4.740234,1.75,7.125,1.774414,5.464844,3.015625,10.763672,4.023438,17.180664l.016602.098633c.738281,4.487305,4.671875,7.749023,9.352539,7.749023.49707,0,.99707-.039062,1.488281-.115234,5.766602-.899414,13.274414-1.355469,22.316406-1.355469,1.523438,0,2.995117.013672,4.388672.036133l.225586.001953c6.241211-.000977,11.666016-4.169922,13.19043-10.139648.567383-2.219727,1.423828-4.356445,2.545898-6.350586,2.989258-5.310547,7.844727-9.857422,14.042969-13.148438.948242-.50293,1.918945-.973633,2.891602-1.443359,2.374023-1.147461,4.617188-2.231445,6.333984-3.774414,2.983398-2.678711,4.385742-7.102539,3.489258-11.008789-.232422-1.011719-.005859-2.067383.620117-2.895508.634766-.839844,1.576172-1.333008,2.650391-1.386719l.163086-.004883c1.630859,0,3.083008,1.267578,3.452148,3.014648,1.335938,6.316406-.899414,13.181641-5.696289,17.488281-2.450195,2.201172-5.379883,3.618164-7.964844,4.869141-.913086.441406-1.795898.868164-2.65625,1.324219-5.013672,2.662109-8.894531,6.257812-11.224609,10.399414-.757812,1.345703-1.277344,3.256836-1.545898,5.677734-.295898,2.675781.509766,5.287109,2.271484,7.352539,1.754883,2.058594,4.306641,3.313477,7,3.444336.610352.029297,1.214844.044922,1.813477.044922,5.021484,0,8.969727-1.121094,12.070312-3.425781,1.728516-1.286133,3.264648-3.003906,4.891602-4.823242,2.665039-2.977539,5.682617-6.349609,10.014648-8.003906.402344-.15332.822266-.230469,1.248047-.230469,1.65918,0,3.457031,1.240234,3.518555,3.540039.038086,1.378906-.916016,2.693359-2.373047,3.270508-2.696289,1.068359-4.77832,3.394531-7.188477,6.088867-1.790039,2.000977-3.636719,4.066406-5.933594,5.774414-4.362305,3.245117-9.648438,4.823242-16.158203,4.823242h-.000977c-5.80957,0-11.724609-1.208008-17.445312-2.375977-1.848633-.378906-3.679688-.751953-5.474609-1.078125-1.445312-.259766-2.924805-.485352-4.398438-.667969-.272461-.03418-.540039-.050781-.803711-.050781-2.167969,0-4.145508,1.107422-5.290039,2.961914-1.129883,1.829102-1.224609,4.075195-.254883,6.009766,1.298828,2.59375,2.551758,5.214844,3.722656,7.791016l.30957.68457c.995117,2.201172,1.935547,4.280273,3.15625,6.111328,3.908203,5.865234,10.557617,9.163086,17.59668,12.654297,5.850586,2.901367,11.897461,5.899414,16.760742,10.598633,1.295898,1.251953,1.524414,3.241211.53125,4.62793-.675781.944336-1.719727,1.485352-2.863281,1.485352-.917969,0-1.786133-.353516-2.443359-.994141-4.088867-3.986328-9.428711-6.635742-15.081055-9.44043-7.566406-3.751953-15.378906-7.626953-20.325195-15.049805-1.541992-2.313477-2.644531-4.751953-3.709961-7.110352l-.304688-.672852c-1.857422-4.087891-3.881836-8.201172-6.016602-12.227539-2.106445-3.97168-6.197266-6.438477-10.675781-6.438477-.827148,0-1.65918.085938-2.472656.256836-4.316406.907227-7.612305,4.323242-8.397461,8.701172l-.036133.201172c-.761719,4.249023-1.709961,9.537109-2.225586,12.818359-.166992,1.067383-.327148,2.130859-.485352,3.189453-.767578,5.115234-1.492188,9.946289-3.02832,14.678711-.905273,2.786133-1.013672,5.930664-1.118164,8.97168-.12793,3.708008-.249023,7.209961-1.6875,10.027344-1.250977,2.449219-4.072266,4.074219-7.357422,5.795898-1.698242.889648-2.929688,2.395508-3.467773,4.240234-.540039,1.851562-.308594,3.793945.652344,5.467773,1.677734,2.919922,3.380859,5.884766,5.801758,9.209961,2.604492,3.399414,5.671875,6.200195,9.131836,8.34375,2.663086,1.688477,5.56543,2.946289,8.638672,4.277344,4.358398,1.886719,8.853516,3.833008,12.636719,7.078125,11.003906,9.643555,12.214844,24.685547,11.881836,39.50293-.037109,1.68457-1.4375,3.055664-3.12207,3.055664-1.793945-.040039-3.165039-1.472656-3.125977-3.195312.297852-13.302734-.673828-26.706055-9.727539-34.640625-3.041016-2.608398-6.915039-4.286133-11.016602-6.0625-3.173828-1.374023-6.438477-2.787109-9.484375-4.720703-4.106445-2.543945-7.734375-5.859375-10.791992-9.861328-.490234-.65918-1.165039-1.001953-1.899414-1.001953-1.119141,0-2.060547.767578-2.289062,1.865234-.438477,2.110352-.981445,4.193359-1.505859,6.207031-.40625,1.560547-.789062,3.033203-1.129883,4.520508l-.033203.133789c-2.898438,10.750977.633789,16.305664,4.723633,22.738281.456055.714844.917969,1.443359,1.379883,2.19043.74707,1.208008,1.900391,2.132812,3.24707,2.602539,12.773438,4.494141,16.024414,13.249023,18.891602,20.973633,2.733398,7.365234,5.091797,13.723633,15.196289,17.032227,1.412109.461914,2.366211,1.714844,2.322266,3.047852-.066406,1.94043-1.644531,3.100586-3.132812,3.100586-.324219,0-.647461-.050781-.959961-.152344-13.115234-4.226562-16.391602-13.056641-19.283203-20.847656-1.398438-3.768555-2.71875-7.326172-5.091797-10.387695-.541992-.701172-1.352539-1.102539-2.222656-1.102539-.807617,0-1.589844.336914-2.145508.925781-.541992.574219-.81543,1.333984-.768555,2.138672.224609,4.047852.202148,8.078125.180664,11.975586-.014648,2.657227-.029297,5.398438.03418,8.088867.041992,1.722656-1.326172,3.158203-3.048828,3.199219h-.000977c-1.757812,0-3.157227-1.368164-3.197266-3.049805-.066406-2.782227-.051758-5.570312-.037109-8.265625.020508-3.84668.041992-7.760742-.168945-11.541016-.404297-7.042969-3.348633-11.672852-6.466797-16.574219-4.257812-6.695312-9.083984-14.283203-5.501953-27.663086.370117-1.603516.792969-3.226562,1.166016-4.65918.785156-3.012695,1.525391-5.858398,1.932617-8.697266.170898-1.125-.116211-2.146484-.798828-2.94043-.688477-.800781-1.725586-1.27832-2.776367-1.27832-.930664,0-1.819336.371094-2.50293,1.043945l-.452148.445312c-.772461.759766-1.552734,1.52832-2.336914,2.313477-1.56543,1.56543-3.00293,3.207031-4.393555,4.793945-2.573242,2.938477-5.003906,5.712891-8.146484,8-3.363281,2.448242-6.948242,4.109375-10.743164,5.868164-1.670898.774414-3.399414,1.575195-5.118164,2.453125-2.634766,1.345703-4.807617,3.65332-6.90918,5.884766-2.486328,2.640625-4.834961,5.135742-7.822266,6.105469-1.553711.504883-3.128906,1.058594-4.720703,1.619141-4.322266,1.521484-8.791016,3.09375-13.230469,3.791016-6.925293,1.087891-13.231445,1.639648-18.743652,1.639648-3.211426,0-6.459961-1.6875-9.601562-3.319336l-1.115723-.577148c-.789551-.405273-1.674316-.619141-2.559082-.619141-1.880859,0-3.630371.932617-4.679688,2.494141-2.415527,3.762695-5.036133,8.270508-6.242676,13.310547l-.112793.470703.299805.379883c8.224609,10.447266,8.951172,17.783203,9.653809,24.87793.464844,4.688477.903809,9.113281,3.52832,14.691406,2.369141,4.330078,5.640137,8.005859,9.103027,11.896484.740723.831055,1.479492,1.663086,2.208496,2.498047.92041,1.055664,1.039551,2.964844.250488,4.004883-.613281.807617-1.531738,1.270508-2.52002,1.270508Z" fill="url(#radial-gradient)"/><path d="M217.338588,2.313721h0c.387085.000122.959229.105347,1.486938.606323.723022.686523.787231,1.928955.149414,2.889893-1.621582,2.443115-3.456909,5.300049-4.708984,8.275513-1.094971,2.546997-1.813232,5.225464-2.57373,8.061646-1.033691,3.85791-2.102417,7.84729-4.173218,11.446777-3.090576,5.32312-7.510254,9.540894-11.784424,13.619751-.691284.659668-1.381226,1.318604-2.063232,1.97937-.235962.228638-.536987.396484-.894653.498779l-.772705.220947-.404907.694336c-1.69873,2.912964-4.014893,5.58667-6.060791,7.948608-2.34082,2.702393-4.55188,5.255005-6.024292,8.020386l-.052612.095947c-2.255493,3.891724-2.926025,8.511475-3.314697,12.924194-.02832.320923-.141724.638672-.33728.94458l-.353516.553101.042969.654907c.234131,3.570679-.382324,7.437866-1.884399,11.821777l-.258545.692505c-1.526733,4.063477-2.845215,7.572876-3.661255,10.97876-.262695,1.096436-.011353,2.234863.689575,3.123535.708374.898193,1.770508,1.41333,2.914185,1.41333,2.197266,0,4.325562-.115845,6.383667-.227905,2.00647-.109253,3.901611-.212402,5.811279-.212402,2.085083,0,3.842163.123535,5.529541.388672.675415.106201,1.397461.160034,2.145874.160034,2.579224,0,5.219849-.625977,7.773438-1.231445,2.4104-.571533,4.687134-1.111328,6.749878-1.111328.962524,0,1.794556.118286,2.543579.36145,2.981323.96814,5.629883,3.181519,8.43396,5.524902,2.238281,1.870605,4.552734,3.804932,7.125122,5.118164,2.682007,1.369263,4.685547,3.891968,6.806763,6.562866,1.813721,2.283691,3.689087,4.64502,6.120728,6.414673,2.62146,1.907959,5.896606,2.718994,9.063721,3.503296,3.360474.832275,6.534546,1.618286,8.495972,3.579834l.091675.09314c4.37439,4.526733,10.39563,7.122803,16.519897,7.122803,2.896118,0,5.718994-.565063,8.390137-1.679565,1.948364-.812988,3.860962-1.507202,5.711426-2.178955,9.240479-3.35376,17.220825-6.250244,21.300171-19.804199l.007812-.025879.00708-.026001c2.063232-7.591064,2.166504-15.370483,2.276001-23.606201l.000732-.059937c.04126-3.06604.083984-6.236328.240723-9.348022.057129-1.131348.992432-2.017578,2.129395-2.017578.034912,0,.070068.000732.100098.002197.566895.028687,1.088867.276367,1.469482.69751.380737.421021.574585.965088.545898,1.531982-.154419,3.057007-.196289,6.205444-.236816,9.250244-.108154,8.155762-.219971,16.589111-2.434326,24.701172l-.019409.069458c-.277832.927124-.579346,1.832153-.895996,2.689941-.919434,2.490723-.582153,5.160034.925415,7.323608,1.496338,2.147339,3.893555,3.429199,6.412598,3.429199,1.329956,0,2.61438-.349609,3.817749-1.039307,3.662231-2.098633,6.568359-5.336182,10.615967-9.845459,2.349976-2.617188,5.013428-5.583496,8.390137-8.994385.477417-.482178,1.148193-.77002,1.794556-.77002.408447,0,.773193.110596,1.084473.328857.538208.377441.865723.934937.922119,1.569946.055664.626099-.166016,1.240479-.608643,1.686157-3.413208,3.439087-6.086426,6.418335-8.444702,9.046387-8.795654,9.797852-13.302612,14.129517-27.974854,14.129517-2.823242,0-6.033813-.158081-9.815674-.483398-.082642-.00708-.179688-.024048-.305176-.053467l-.700195-.163696-.644043.31958c-2.764526,1.371704-5.686035,2.431763-8.511475,3.457031-2.140869.7771-4.354614,1.580566-6.510986,2.519043-3.910767,1.702026-6.849976,4.841064-8.276123,8.838745-1.438354,4.031738-1.123535,8.561035.86377,12.425781l.110596.215088c1.567749,3.071045,2.252319,6.399414,2.977173,9.923096.484741,2.356934.986084,4.794189,1.777344,7.231201,1.75769,5.41333,2.987427,10.664795,3.987793,17.030518l.015381.095947c.819092,4.979492,5.168701,8.593506,10.342529,8.593506.546875,0,1.098633-.042725,1.640259-.127197,5.717651-.891357,13.170288-1.343506,22.150757-1.343506,1.432251,0,2.906982.012207,4.384033.036133l.240112.001953c6.699951,0,12.523315-4.479004,14.161255-10.89209.545166-2.134521,1.369019-4.189209,2.448608-6.107666,2.894775-5.143799,7.61145-9.554443,13.639771-12.754883.95813-.508545,1.967529-.996582,2.857666-1.427002,2.440308-1.179443,4.745239-2.293457,6.567383-3.930664,3.245483-2.913574,4.770996-7.726562,3.795898-11.976318-.165771-.7229-.004028-1.477295.443848-2.06958.453491-.599854,1.129272-.951904,1.902222-.991211.037842-.001953.075317-.00293.112671-.00293,1.143188.000244,2.207153.954834,2.474854,2.220947,1.263062,5.973633-.851562,12.465088-5.387451,16.53833-2.344482,2.106201-5.206177,3.490479-7.761108,4.726562-.873535.422363-1.776978.858887-2.6604,1.327637-5.182373,2.751221-9.203125,6.48291-11.627319,10.79126-.822998,1.462158-1.384033,3.500488-1.667603,6.059082-.327148,2.952881.562256,5.83374,2.504639,8.111328,1.933716,2.267578,4.744507,3.650146,7.711792,3.793457.635742.030762,1.262451.046387,1.862549.046387,5.243042,0,9.386108-1.185059,12.666748-3.623535,1.80957-1.346191,3.378906-3.101074,5.042725-4.96167,2.586426-2.889893,5.517944-6.165283,9.621338-7.73291.289062-.109863.589722-.165771.893555-.165771,1.187622,0,2.474243.899902,2.519409,2.567383.030151,1.110107-.853271,1.962158-1.742188,2.314209-2.915161,1.154785-5.069092,3.561523-7.569092,6.35498-1.75354,1.960449-3.566772,3.987793-5.782104,5.635986-4.18396,3.112061-9.274414,4.625-15.562134,4.625-5.707764,0-11.57312-1.19751-17.244507-2.355713-1.707642-.349365-3.643311-.745605-5.498169-1.081787-1.460327-.26416-2.958252-.492188-4.452393-.67749-.307861-.038086-.619385-.057373-.926025-.057373-2.517944,0-4.814087,1.284424-6.142334,3.436279-1.312622,2.126221-1.423828,4.736816-.297607,6.983154,1.290283,2.573975,2.537109,5.183594,3.705078,7.75415l.310059.68457c1.012939,2.240234,1.969727,4.355957,3.235107,6.254639,4.056641,6.087646,10.821777,9.443115,17.987793,12.99707,5.779297,2.865479,11.755371,5.828613,16.508057,10.420898.92627.89502,1.107666,2.356201.412964,3.326172-.485718.678467-1.233276,1.067627-2.051147,1.067627-.655884,0-1.275635-.252197-1.745361-.710449-4.201538-4.096191-9.609375-6.779297-15.345459-9.625244-7.437622-3.688477-15.128296-7.502441-19.926636-14.703125-1.496948-2.246094-2.581665-4.64624-3.631836-6.969727l-.305176-.673096c-1.868774-4.11377-3.901978-8.246094-6.043091-12.282715-2.280518-4.299072-6.709839-6.969727-11.559326-6.969727-.895996,0-1.796875.09375-2.679077.27832-4.71582.992188-8.317017,4.722656-9.174561,9.50415l-.012085.066895c-.770874,4.297852-1.730347,9.646484-2.253052,12.973145-.168457,1.071777-.328613,2.139404-.488037,3.202393-.760498,5.071045-1.478882,9.860596-2.989258,14.512207-.94812,2.919922-1.059204,6.135254-1.166626,9.244873-.124146,3.593994-.241455,6.98877-1.578857,9.608398-1.116699,2.1875-3.799438,3.723389-6.930664,5.364258-1.94165,1.017578-3.349365,2.73877-3.963623,4.84668-.616577,2.115723-.352295,4.333252.744629,6.244873l.030762.053711c1.662476,2.893311,3.38147,5.88501,5.860107,9.286621,2.663208,3.476074,5.82019,6.358154,9.365723,8.554932,2.738892,1.736816,5.677856,3.009521,8.800049,4.361328,4.278198,1.852539,8.701904,3.768066,12.353394,6.900146,10.703247,9.380127,11.876221,24.160645,11.549438,38.735596-.025757,1.145508-.978271,2.077637-2.172119,2.077393-1.171387-.026367-2.103394-1.000977-2.077393-2.172119.303833-13.545166-.705566-27.210449-10.084106-35.429443-3.150513-2.702148-7.09082-4.407715-11.278687-6.220459-3.121704-1.351807-6.349487-2.75-9.348145-4.6521-3.99353-2.474365-7.531128-5.708496-10.497681-9.59082l-.055054-.073975c-.633545-.853027-1.60144-1.342285-2.655518-1.342285-1.598877,0-2.942993,1.094727-3.268677,2.662598-.434692,2.094238-.973022,4.159424-1.50293,6.192139-.404907,1.556152-.787354,3.025879-1.119019,4.475342l-.028931.117188c-3.0177,11.194336.624634,16.921875,4.842285,23.553955.452026.710938.912476,1.435059,1.371826,2.179199.866699,1.402832,2.2052,2.475586,3.779175,3.02417,12.320068,4.335449,15.346558,12.490723,18.273926,20.37915,2.821899,7.60376,5.259033,14.170654,15.822388,17.629639.975342.319336,1.661865,1.187256,1.632446,2.063721-.046509,1.386475-1.133789,2.134521-2.133057,2.134521-.21936,0-.438354-.034912-.652954-.104248-12.653687-4.077881-15.703857-12.297363-18.653564-20.246338-1.425659-3.841309-2.772217-7.469482-5.237061-10.650146-.733887-.947021-1.832275-1.48999-3.013916-1.48999-1.081665,0-2.12854.451904-2.872192,1.239502-.733276.776611-1.102783,1.800293-1.040649,2.88208l.00293.051514c.220093,3.968506.198242,7.984863.177002,11.896484-.014648,2.656982-.029785,5.404541.034424,8.084229.013672.567627-.194458,1.106445-.585815,1.51709-.391479.410645-.919556.644287-1.482422.657715l-.058105.000977c-1.1427,0-2.094727-.930176-2.121948-2.073975-.065674-2.742188-.050659-5.521729-.036133-8.209717l-2-.010742,2.000244-.056396c.02063-3.807617.04187-7.744629-.17041-11.566406-.420166-7.298828-3.572021-12.255615-6.622803-17.053223-4.349487-6.839111-8.847168-13.910889-5.379028-26.865479l.009155-.03418.007935-.03418c.353882-1.536377.758911-3.092041,1.151001-4.5979.791504-3.039062,1.539062-5.909424,1.951416-8.790771l.010864-.071289c.205811-1.354004-.162964-2.660645-1.03833-3.679199-.888428-1.033691-2.176392-1.626465-3.533936-1.626465-1.194824,0-2.333008.4729-3.205322,1.331787l-.39624.390137c-.791992.779541-1.592285,1.567383-2.398315,2.373291-1.588989,1.589111-3.037964,3.243408-4.439087,4.843262-2.535034,2.894531-4.929443,5.628662-7.981934,7.850098-3.286011,2.391357-6.828613,4.032959-10.579224,5.770752-1.678345.777832-3.413818,1.582031-5.148315,2.467529-2.789917,1.424316-5.023071,3.796143-7.182617,6.090088-2.396362,2.54541-4.65979,4.949463-7.403687,5.840576-1.570801.51001-3.186523,1.078369-4.749023,1.628174-4.277344,1.505371-8.700439,3.061768-13.048462,3.744873-6.871948,1.080078-13.125977,1.627686-18.588257,1.627686-2.967285,0-5.966309-1.55835-9.141357-3.208008-.373535-.194092-.746582-.387939-1.119629-.579102-.930176-.476807-1.972778-.72876-3.015015-.72876-2.214844,0-4.274658,1.0979-5.532593,2.971436-2.30603,3.591309-5.113403,8.382812-6.362549,13.600098l-.225464.941895.599121.760742c8.043579,10.216553,8.755859,17.405518,9.44519,24.362061.473389,4.772217.920654,9.279785,3.617798,15.013916l.026123.05542.029419.053711c2.395386,4.374512,5.703369,8.091309,9.205566,12.026367.738281.82959,1.475342,1.658447,2.201782,2.490967.606323.695312.711182,2.079102.207642,2.742432-.578491.761963-1.328003.875732-1.723267.875732-.615845,0-1.200562-.266113-1.604614-.72998-.706055-.810791-1.422974-1.616943-2.140747-2.424072l-.115479-.129883c-3.529541-3.966064-7.178955-8.066895-9.810059-12.904297l-.076904-.151123c-3.049683-6.443115-3.579346-11.787598-4.046875-16.503662-.394775-3.985107-.767822-7.749268-2.51062-12.096191l-.61792-1.54126-1.628662.323975-.01123.002441h-.001587l-.185791.037109-.031128.005859-.016357.003662-.00708.001465-.001221.000244-.00293.000488-.144775.028809-1.608521.31958-.001831,1.639648-.000488.959229c-.002075,11.181396-.00415,21.74292-12.463257,32.302246-.490845.41626-1.016602.503662-1.371338.503662-.73877,0-1.395264-.361572-1.801025-.991943-.556519-.864502-.305054-2.129639.572754-2.879883,10.809448-9.239746,10.810791-17.931152,10.8125-28.943848.001221-4.758545.002563-10.1521,1.000122-15.859863l.012329-.066895c1.225708-6.236328,4.342285-11.669922,7.218384-16.145996l.03479-.053467c.089355-.132568.172607-.26123.255859-.389648l.158813-.243896,1.624878-2.45752-2.883789-.603271c-3.965332-.829102-7.879761-1.877441-11.966797-3.204346-2.678345-.869873-5.632935-.942627-8.192139-.942627-.415771,0-.832397.002197-1.249023.004395-.40918.002197-.818115.004395-1.22583.004395-2.879028,0-5.881958-.098145-8.176758-1.269531-2.367065-1.20874-3.911255-4.237305-5.546021-7.443848-1.599854-3.137939-3.254028-6.382812-5.964478-8.355225-4.848145-3.52832-8.591187-7.271484-12.925293-11.605713l-.068726-.068604c-.233765-.233398-.4823-.461914-.738037-.678711-2.175415-1.843994-4.968018-2.859619-7.863403-2.859619-3.865723,0-7.642456,1.802246-10.102783,4.821045-2.906494,3.566162-6.641479,6.600342-11.137817,9.03833-1.606934.915039-3.254517,1.752686-4.8479,2.5625-4.982788,2.533203-9.689331,4.925781-12.502441,9.251953-2.955078,4.454834-3.267822,9.896729-3.355103,16.036865-.092773,7.500732-.040771,15.012451.009521,22.276611.003906.562012-.212036,1.091064-.608032,1.489746-.396606.399414-.925293.619385-1.517944.619385-1.16333,0-2.116333-.946289-2.124512-2.14502-.049927-7.268799-.101562-14.785156-.008789-22.297607.028442-2.005127.087769-4.360596.312866-6.628418.219971-2.216553-.505249-4.427734-1.989624-6.066895-1.461182-1.613281-3.54834-2.538574-5.726318-2.538574h-.076172c-.832642,0-1.646484-.051758-2.419434-.154053l-.213013-.036377c-4.705078-.974854-7.753418-3.001709-10.449707-4.794189-2.95459-1.964111-5.506104-3.660645-9.872192-3.660645-1.447021,0-3.036011.184326-4.85437.5625-.144043.029541-.290527.044678-.435181.044678-1.067261,0-1.974487-.802002-2.109985-1.865234-.137207-1.075195.696533-2.141357,1.858276-2.376709,1.976562-.400391,3.841431-.603516,5.542725-.603516,5.665527.000244,9.000854,2.217285,12.226929,4.362061,2.456665,1.633301,4.996948,3.322266,8.822754,4.141357l.088379.019043.089722.010742c.556274.067627,1.143433.101562,1.745361.101562,2.649414,0,5.324463-.635498,8.167358-1.310791.898071-.213379,1.915894-.455322,2.878906-.658936.081787-.01709.163208-.029541.243042-.036865,1.912842-.173096,3.500854-.763428,4.719727-1.754639,2.887695-2.347656,6.315918-4.09082,9.656616-5.789551,1.553589-.790039,3.160156-1.607178,4.663574-2.4646l.05896-.032959c.743286-.401855,1.569824-1.006104,2.526733-1.847656,7.455078-6.555664,8.703735-17.775391,2.904297-26.098145-.679688-.975342-1.235596-1.891357-1.699829-2.800781-1.325684-2.59668-1.399292-5.96875-1.477173-9.538574-.068237-3.129395-.138794-6.36499-1.094849-9.309326-1.97644-6.08667-3.687256-11.601074-4.606689-17.452148-.442627-2.815918-1.53772-5.580078-2.596802-8.253174-1.343506-3.390869-2.612427-6.59375-2.612427-9.778076,0-1.725342-.042847-3.51416-.084351-5.244141-.110229-4.594971-.224121-9.346191.436646-13.550293.534668-3.402832,2.196167-6.874512,3.803223-10.231934,1.13501-2.371582,2.308716-4.823975,3.108276-7.286133.860474-2.650635,1.285889-5.534912,1.697266-8.324219.55188-3.741455,1.07312-7.275635,2.539673-10.148193.741333-1.452393.38855-5.433838-.393066-6.837158-1.635864-2.93811-4.615723-4.692261-7.971069-4.692261-3.406738,0-6.401001,1.794678-8.009155,4.799805l-.075928.141724-.654175,1.219482c-2.740479,5.15625-6.820679,7.662598-12.473755,7.662598-5.68457,0-11.383667-2.578125-14.1427-3.826172-3.73645-1.643066-7.491455-3.36792-11.123169-5.036133-1.883301-.864624-3.766479-1.729248-5.654175-2.586792-.574219-.26062-1.000366-.759521-1.169312-1.368652-.171265-.617676-.058716-1.258057.317017-1.802979.323364-.469116,1.089844-.796753,1.864014-.796753.345703,0,.66748.06311.93042.182739,1.777832.807739,3.552124,1.622437,5.326416,2.437134l.159546.073242c3.627686,1.66626,7.378906,3.38916,11.080811,5.017578,5.17688,2.341553,9.226807,3.479736,12.381348,3.479736,5.25647,0,7.5177-3.110107,8.757812-5.442871l.651855-1.215454c1.854736-3.466675,3.456543-6.460693,5.879395-9.0979,4.065552-4.424683,4.334717-10.971924.640015-15.567627l-.069458-.086304c-1.242188-1.546021-2.589233-2.960815-4.015259-4.458618-.686523-.721069-1.4646-1.53833-2.218872-2.372437-4.220825-4.666626-9.422852-7.797852-15.043945-9.055054-4.959229-1.109253-8.535278-3.348877-10.932495-6.847046l-.017212-.025146-.018066-.024658c-1.865356-2.551392-2.996216-5.605713-4.09021-8.560669-1.05957-2.86084-2.060547-5.56311-3.618896-7.650024l-.039795-.054688c-1.791504-2.503174-4.424561-4.377197-7.192627-6.233887-.521851-.350098-.860352-.909912-.928955-1.535889-.069336-.634155.142578-1.245605.596802-1.72168.484741-.507812,1.121948-.583618,1.45874-.583496.502075,0,1.010254.155884,1.43103.439087,2.883911,1.940674,5.882446,4.089844,8.088379,7.158447,1.926392,2.591187,3.077759,5.700562,4.191162,8.707642,1.045044,2.822632,2.032104,5.48877,3.543823,7.537598l.071777.100952c2.18396,3.218872,5.776611,5.00354,11.305786,5.616699.171997.019043.34314.02832.513184.02832,2.320801,0,4.319824-1.71936,4.650024-3.999268.387329-2.674927.758545-4.870361,1.02063-6.032837.474121-2.104858.922119-4.09314,1.121948-6.023071l.017212-.138306c.909668-6.143921-1.371216-11.842285-7.395752-18.476929-.427368-.470337-.620361-1.101929-.529663-1.732544.092041-.639771.457642-1.184082,1.029541-1.532837.297485-.181396.631714-.273315.993408-.273315.649536.000122,1.311768.303711,1.77124.812256,4.251343,4.704956,9.741943,12.077881,8.347168,21.743896l-.005249.036499-.003906.036743c-.234863,2.198608-.726196,4.37854-1.202515,6.492676-.549805,2.439331-1.069214,4.743286-1.207153,6.990356l-.007446.099854c-.547119,5.81543,3.126221,9.674438,7.387451,14.151123,1.42334,1.495728,2.895264,3.04248,4.23877,4.713989,3.807861,4.716431,6.358643,10.720459,8.825562,16.526855.611816,1.439941,1.244629,2.929077,1.892822,4.386353,1.21228,2.726318,3.821899,4.420044,6.810547,4.420044,2.389038,0,4.571655-1.109741,5.988647-3.04541l.050049-.068481c3.803833-5.226685,7.785767-9.930176,11.835449-13.97998,2.5177-2.517578,5.642334-4.365967,8.950439-6.322754,2.062622-1.220093,4.195557-2.481689,6.182861-3.927979,2.205811-1.605347,4.160034-3.583008,6.050049-5.495605,2.575073-2.605957,5.007446-5.067261,7.941406-6.565308,4.507935-2.30127,9.648315-3.942505,14.619385-5.529785.891235-.284546,1.779663-.568237,2.662231-.854736,1.865845-.605957,3.764648-1.313354,5.601074-1.997681,3.933472-1.465576,8.000977-2.981201,12.035522-3.615112.325562-.051147.668335-.077026,1.01001-.077026l.071167.000244.066772.000244c5.428589,0,10.334473-3.440918,12.207764-8.562134.393188-1.074951.806396-2.175537,1.235229-3.316772l.206787-.551514.010376-.027344.009399-.027832c1.674561-4.898804,2.106201-8.8396,1.348389-12.447021-2.681763-11.459961-16.029175-21.473022-25.773682-28.783325l-1.952515-1.467285c-.545654-.411865-.85376-1.041016-.845459-1.726074.005005-.404663.135986-1.171509.958374-1.761475.390137-.279907.812012-.338623,1.097168-.338623.499023,0,1.000977.170776,1.41333.480835l1.87854,1.412231c6.415161,4.812866,14.39917,10.802856,20.167847,17.783081.909058,1.099976,2.248047,1.730835,3.673584,1.730835,1.713013,0,3.306641-.922363,4.182617-2.448242l.014038-.024536.013428-.02478c1.712769-3.194946,4.170776-6.032227,6.548096-8.776245,4.192017-4.839233,8.151367-9.410156,7.664185-15.347534-.341553-3.722046-2.105225-7.210205-3.973389-10.905151-.342773-.676514-.684692-1.352417-1.027466-2.050293-1.197754-2.366821-2.395142-4.928345-3.881836-8.30542-.24292-.552002-.242798-1.160156.000244-1.712646.242798-.55188.69519-.963867,1.273804-1.1604.192139-.065186.392334-.098267.594849-.098267.863403.000122,1.731689.601807,2.111572,1.463135,1.409058,3.195435,2.555054,5.643799,3.705688,7.918823.32373.658447.636475,1.277588.948364,1.895264l.067383.133301c.559204,1.105591,1.137451,2.248901,1.680176,3.413574,1.149414,2.466553,3.558594,3.998901,6.287231,3.998901,2.50061,0,4.745483-1.290771,6.005249-3.453125l.054321-.093384c1.78833-3.108154,2.740356-6.658569,3.750854-10.426514.765381-2.855347,1.557007-5.807739,2.765747-8.618896,1.400879-3.331299,3.342163-6.351562,5.210938-9.160156.394653-.593384,1.057129-.94751,1.772217-.94751M217.338832.313721c-1.334473-.000122-2.643677.645752-3.437866,1.84021-1.922607,2.889404-3.922852,6.005127-5.38916,9.492188-1.260498,2.931152-2.071289,5.956787-2.855713,8.882812-.973389,3.629883-1.892578,7.05835-3.550781,9.94043l-.049072.084229c-.960815,1.649292-2.621948,2.459717-4.276978,2.459717-1.80188,0-3.59668-.960205-4.474487-2.84375-.548706-1.17749-1.130981-2.330078-1.708252-3.471436-.331055-.655518-.662109-1.30957-1.005615-2.008301-1.138062-2.250244-2.273926-4.676147-3.670532-7.843262-.703003-1.593994-2.282349-2.656006-3.941284-2.65625-.411987,0-.828491.06543-1.238037.204468-2.325317.789429-3.428833,3.374512-2.46167,5.572388,1.5,3.407227,2.718018,6.012451,3.927979,8.403076.335449.68335.681152,1.366699,1.027588,2.050781,1.779053,3.518555,3.459229,6.841553,3.766113,10.184326.416748,5.080078-3.105469,9.146484-7.184326,13.855225-2.449951,2.827881-4.982666,5.752441-6.799072,9.140625l-.022705.039551c-.529663.922485-1.474854,1.403076-2.424683,1.403076-.784546,0-1.572144-.327637-2.131836-1.004883-5.915649-7.157959-13.963501-13.197876-20.509399-18.108887l-1.876831-1.411011c-.765869-.575806-1.69458-.882202-2.615234-.882202-.797363,0-1.588623.229858-2.262817.713501-2.417603,1.734253-2.312378,5.078125-.152344,6.708862l1.956055,1.469971c9.502441,7.128662,22.511963,16.888916,25.027832,27.640137.670654,3.194824.259033,6.802734-1.293457,11.344482l-.206787.551514c-.43042,1.145386-.845703,2.251465-1.240845,3.331665-1.589966,4.346802-5.705078,7.249268-10.32959,7.249268-.018311,0-.036133,0-.054565-.000122l-.074219-.000366c-.445312,0-.88916.032104-1.329102.101196-6.171265.969727-12.129883,3.79834-17.944214,5.686401-5.917358,1.921143-12.107666,3.71521-17.573364,6.505493-5.522705,2.81958-9.282104,8.603027-14.258911,12.225098-5.00061,3.63916-11.007446,6.090454-15.370605,10.453613-4.363159,4.363281-8.399048,9.216675-12.03833,14.217285l-.047363.064697c-1.10083,1.503784-2.742554,2.225952-4.374268,2.225952-2.028564,0-4.041748-1.115601-4.983154-3.232544-.633423-1.424194-1.253418-2.882446-1.879517-4.355957-2.520508-5.932617-5.126953-12.067383-9.110107-17.000977-1.395752-1.736572-2.899658-3.316406-4.354248-4.844971-4.525391-4.75415-7.276367-7.905029-6.836914-12.576416l.010254-.132568c.130371-2.118896.632568-4.346924,1.164307-6.706055.488037-2.165771.992676-4.404053,1.23999-6.719238,1.507812-10.449707-4.280396-18.321289-8.842651-23.370361-.850098-.940796-2.052734-1.471313-3.255127-1.471436-.70166,0-1.403076.180542-2.034668.565674-2.292603,1.397949-2.650391,4.434082-.939087,6.317871,5.583984,6.149414,7.711426,11.343018,6.897705,16.839111l-.022705.177979c-.193359,1.861816-.629639,3.796875-1.091309,5.846191-.341919,1.516846-.76062,4.200195-1.046753,6.176392-.190796,1.317749-1.362793,2.285889-2.670654,2.285889-.096924,0-.194458-.005249-.29248-.016113-4.928467-.546509-8.05127-2.069214-9.87146-4.751831l-.09375-.132568c-1.366211-1.852295-2.306396-4.390137-3.30127-7.077393-1.162354-3.13916-2.364258-6.385254-4.46167-9.206543-2.34668-3.264771-5.512207-5.562256-8.576904-7.624512-.764893-.514771-1.662964-.779785-2.547485-.779907-1.075806,0-2.131714.391724-2.905762,1.203003-1.823242,1.910645-1.427002,4.895752.664917,6.299072,2.609619,1.750488,5.084229,3.506836,6.68042,5.737061l.049561.068115c1.399902,1.875,2.352051,4.445801,3.360352,7.168213,1.141357,3.082764,2.321289,6.269531,4.35083,9.04541,3.079468,4.493652,7.599609,6.651367,12.145752,7.668213,5.440796,1.216919,10.257324,4.309937,13.99707,8.444824.748169.827271,1.508545,1.627197,2.253662,2.409912,1.398926,1.469238,2.720215,2.85791,3.904785,4.332275l.069702.08667c3.093262,3.847656,2.786377,9.32605-.553833,12.961426-2.587036,2.815674-4.258911,5.935059-6.170166,9.507568l-.650879,1.213623c-1.396973,2.627686-3.333496,4.388184-6.995483,4.388184-2.729492,0-6.417236-.977295-11.557007-3.302002-3.697754-1.626709-7.445557-3.3479-11.070312-5.012695-1.829956-.840332-3.65979-1.680786-5.493408-2.513916-.536499-.243774-1.143555-.361816-1.75769-.361816-1.365601,0-2.766968.582886-3.51062,1.661499-1.507202,2.186279-.629639,5.083008,1.672119,6.128052,1.884766.856201,3.765625,1.719727,5.646484,2.583252,3.654541,1.678711,7.433105,3.413818,11.152588,5.049316,2.852783,1.290527,8.831299,3.995361,14.947754,3.995361,5.287354,0,10.67749-2.021484,14.239746-8.723877l.650635-1.212891.076294-.142334c1.335327-2.495361,3.788818-3.744507,6.246338-3.744507,2.429443,0,4.862671,1.220703,6.223633,3.665161.53772.965576.737061,4.2146.359131,4.955078-2.790405,5.465576-2.436646,12.846436-4.35791,18.763916-1.887817,5.814209-6.015259,11.653809-6.984985,17.825195-.944824,6.011719-.376465,12.827637-.376465,19.10498,0,6.2771,4.288696,12.329834,5.233398,18.341797.969849,6.171143,2.792358,11.945068,4.680298,17.759277,1.921265,5.91748-.097412,13.674072,2.692993,19.139648.533569,1.04541,1.156494,2.053711,1.840332,3.034912,5.162842,7.40918,4.197021,17.489502-2.584351,23.452637-.790894.695557-1.524048,1.248047-2.15686,1.590088l-.081543.04541c-1.487305.848145-3.081055,1.658203-4.62207,2.441895-3.430542,1.744385-6.934082,3.526123-9.986206,6.007568-1.026489.834717-2.320679,1.195312-3.638184,1.314453-.15564.01416-.312134.037842-.468872.070312-.973389.205811-1.952637.437988-2.935547.671631-2.70459.642578-5.286743,1.256592-7.704834,1.256592-.509033,0-1.010498-.0271-1.504639-.086914-3.454346-.739746-5.729004-2.252197-8.13501-3.851807-3.358032-2.232422-7.064941-4.695801-13.333374-4.696045-1.761475,0-3.724731.19458-5.939941.643311-2.136597.432861-3.720947,2.427246-3.44519,4.589844.270996,2.124756,2.073975,3.612305,4.093994,3.612305.276733,0,.557373-.027832.838867-.085938,1.728149-.359375,3.182007-.52124,4.450684-.52124,3.763062,0,5.901001,1.422119,8.767334,3.327881,2.708008,1.800293,6.077881,4.041504,11.183594,5.092529l.283447.04834c.915283.123047,1.822266.176514,2.719971.176514h.076172c3.438354,0,6.065308,2.986572,5.725708,6.407959-.220825,2.225342-.289795,4.498535-.322388,6.797607-.093262,7.547607-.04126,15.085693.008789,22.375244.015503,2.26709,1.857056,4.095703,4.124268,4.095703h.029297c2.273315,0,4.112427-1.849854,4.09668-4.123047-.050293-7.259521-.102051-14.768066-.009766-22.238037.082764-5.814697.365479-10.951172,3.021973-14.956055,2.530518-3.891357,7.004883-6.16626,11.742188-8.574463,1.61499-.821045,3.284668-1.669922,4.931152-2.607422,4.703735-2.550049,8.648071-5.77002,11.698486-9.512939,2.160889-2.651367,5.362793-4.084473,8.55249-4.084473,2.333862,0,4.660889.766846,6.570068,2.385254.214355.181641.420654.371094.618164.568359,4.363281,4.363281,8.229736,8.236816,13.230347,11.876221,4.976807,3.621826,6.255249,13.143311,11.777954,15.963135,2.648438,1.352051,5.832764,1.488281,9.086182,1.488281.822754,0,1.650879-.008789,2.474854-.008789,2.641357,0,5.249634.089844,7.574463.844727,4.055664,1.316895,8.042236,2.395752,12.175049,3.26001-.137695.208252-.262939.408203-.405273.619629l-.047607.07251c-2.989014,4.651611-6.218506,10.291992-7.509033,16.858154l-.015869.084961c-1.032227,5.905518-1.032959,11.393555-1.03418,16.236328-.001709,10.890869-.003174,18.773926-10.112061,27.414795-1.594238,1.362793-2.090088,3.719238-.954956,5.482666.810791,1.259521,2.141724,1.909424,3.482788,1.909424.942383,0,1.889648-.320801,2.665039-.978516,13.542603-11.477539,13.156738-23.343262,13.170044-34.78418.097046-.019287.146606-.029053.179932-.035645.000122,0,.005493-.001221.016235-.003418-.000732.000244-.001465.000244-.002075.000488-.002441.000488-.005005.000977-.00769.001465.002686-.000488.005005-.000977.00769-.001465.001953-.000488.003906-.000732.005737-.001221h.000122-.000122c.015015-.00293.022705-.004395.022949-.004395.033325-.006592.082764-.016602.179932-.035889,1.634521,4.07666,1.991211,7.658447,2.376709,11.549072.484131,4.883789,1.033203,10.420166,4.241211,17.187012l.102051.200684c2.741943,5.050049,6.47583,9.246094,10.08667,13.303711.751709.845215,1.50293,1.688965,2.242188,2.537842.815674.936768,1.961182,1.416504,3.112793,1.416504,1.229614,0,2.466309-.546875,3.316284-1.666504,1.105957-1.456543.908813-3.887695-.293335-5.266113-.730957-.837891-1.472412-1.671631-2.215088-2.506104-3.424805-3.848145-6.660889-7.485352-8.945312-11.657227-2.551514-5.424316-2.981689-9.766846-3.437744-14.364258-.717529-7.240967-1.464233-14.729004-9.863647-25.397461,1.152466-4.813477,3.699829-9.246582,6.100464-12.985107.886963-1.320557,2.349365-2.052002,3.849609-2.052002.711548,0,1.431396.164307,2.102783.508545,3.652588,1.872559,7.328247,4.007324,11.173218,4.007324,6.277222,0,12.887085-.707031,18.898804-1.651855,6.171387-.969727,12.290283-3.558838,18.104614-5.446777,5.917236-1.921387,9.412354-9.26123,14.878052-12.051514,5.522705-2.81958,11.018188-4.780518,15.994995-8.402588,5.00061-3.63916,8.295166-8.532959,12.658325-12.895996.937134-.937256,1.866333-1.849365,2.783691-2.752686.533447-.525391,1.175049-.756836,1.802002-.756836,1.469116,0,2.858643,1.270264,2.594971,3.005127l-.010986.072266c-.398438,2.783203-1.132324,5.602295-1.909424,8.586182-.395508,1.519043-.804199,3.088623-1.164551,4.653076-3.695801,13.804688,1.255371,21.588135,5.624268,28.45752,3.04541,4.789307,5.922363,9.312744,6.312744,16.093506.209473,3.769775.1875,7.689697.166992,11.47998-.014648,2.711426-.030029,5.515137.036621,8.296143.053467,2.244141,1.889648,4.026123,4.121338,4.026123.033691,0,.067383-.000732.101074-.001465,2.277832-.054199,4.07959-1.94458,4.024658-4.222412-.063721-2.659424-.04834-5.401611-.033691-8.052979.02124-3.914062.043213-7.962158-.180176-11.990479l-.003174-.055176c-.069092-1.201416.915039-2.00708,1.916138-2.00708.522095,0,1.048584.218994,1.433105.715088,2.274048,2.93457,3.559814,6.394531,4.942749,10.12085,2.970703,8.005371,6.337646,17.078613,19.915283,21.454102.421143.13623.847412.200684,1.266357.200684,2.116089,0,4.050537-1.641602,4.131958-4.067383.062012-1.848145-1.251587-3.456055-3.009033-4.031494-9.646973-3.158936-11.820923-9.018311-14.57019-16.42627-2.943604-7.932129-6.279785-16.921875-19.484619-21.568359l-.015503-.005371c-1.131104-.394287-2.096436-1.164551-2.725952-2.183594-.463867-.751221-.928955-1.48291-1.385742-2.201172-4.127197-6.48999-7.387207-11.616211-4.598877-21.960205l.038086-.152344c.336914-1.470703.719238-2.938477,1.123535-4.491943.533325-2.046143,1.077148-4.138184,1.516479-6.254395.140991-.678955.72168-1.069092,1.310425-1.069092.387207,0,.777954.168457,1.049805.534668l.054932.073975c3.131836,4.098633,6.862061,7.503662,11.050049,10.098633,3.118652,1.978271,6.425537,3.409424,9.623291,4.794434,4.030518,1.744629,7.836914,3.393311,10.754883,5.895996,8.745117,7.664062,9.679688,20.805908,9.386719,33.866455-.050537,2.2771,1.75415,4.165283,4.031982,4.216553.031494.000732.062988.000732.09375.000732,2.235352,0,4.072266-1.786377,4.122803-4.032715.337646-15.060059-.906738-30.360352-12.230713-40.284668-3.898682-3.344238-8.465332-5.321045-12.881836-7.233398-3.039551-1.316162-5.910645-2.559082-8.518799-4.212891-3.356689-2.080078-6.333984-4.799561-8.849121-8.082275-2.385498-3.274658-4.077393-6.218994-5.713623-9.06665l-.030396-.052979c-1.696899-2.95752-.6073-6.741699,2.412842-8.324463,3.225586-1.690186,6.362183-3.442139,7.783569-6.226318,2.790405-5.465576.945068-13.227539,2.866455-19.14502,1.887939-5.814209,2.580811-11.850342,3.550781-18.021729.522095-3.322754,1.496094-8.750488,2.257935-12.997559.705444-3.933105,3.707642-7.077393,7.617798-7.899902.757202-.158691,1.516724-.235596,2.267334-.235596,4.042236,0,7.840332,2.226807,9.79248,5.906982,2.121704,3.999756,4.125854,8.071289,5.989014,12.172607l.304688.671875c1.083984,2.398438,2.206055,4.87793,3.789062,7.25293,5.094727,7.645508,13.02832,11.580078,20.702148,15.385742,5.583984,2.770508,10.859375,5.386719,14.837891,9.265625.875.853516,2.008789,1.27832,3.141602,1.27832,1.385132,0,2.770386-.636475,3.677368-1.90332,1.303833-1.820801.961182-4.372314-.649414-5.928711-4.9729-4.805176-11.090698-7.839844-17.009399-10.774414-6.916992-3.430664-13.451172-6.670898-17.211914-12.314453-1.174805-1.762695-2.098633-3.805664-3.077148-5.969727l-.310547-.685547c-1.192139-2.624023-2.440796-5.235596-3.739014-7.825195-1.768311-3.5271.861816-7.523193,4.651978-7.523193.2229,0,.449829.013672.680054.042236,1.454102.18042,2.902344.400146,4.342529.660645,1.788086.324219,3.611328.696289,5.453125,1.073242,5.677979,1.159424,11.735962,2.39624,17.645508,2.39624,5.907959,0,11.667603-1.235596,16.755859-5.020264,2.373047-1.765625,4.257812-3.871094,6.079102-5.907227,2.325562-2.598633,4.336792-4.847412,6.814941-5.829102,1.763428-.698486,3.056396-2.331787,3.004883-4.227783-.073853-2.726562-2.210083-4.512939-4.518677-4.512939-.533691,0-1.07605.095215-1.604858.296387-4.560547,1.742188-7.664062,5.210938-10.40332,8.271484-1.59375,1.782227-3.099609,3.464844-4.743164,4.6875-3.224121,2.396484-7.172119,3.228271-11.473022,3.228271-.582764,0-1.171265-.015137-1.766113-.043945-5.02832-.24292-8.879395-4.68335-8.325073-9.687012.220215-1.987061.64624-3.918945,1.422607-5.298096,2.236328-3.974609,5.978516-7.43457,10.822266-10.005859.859375-.456055,1.741211-.881836,2.62207-1.307617,2.644531-1.279297,5.642578-2.729492,8.198242-5.025391,5.080322-4.562012,7.418335-11.767822,6.00769-18.439941-.451904-2.137451-2.270996-3.806885-4.431519-3.807129-.070923,0-.141846.001831-.213501.005493-2.886475.146606-4.810425,2.820435-4.194702,5.505249.817383,3.5625-.460938,7.597656-3.182617,10.041016-1.607422,1.444336-3.790039,2.500977-6.101562,3.618164-.983398.475586-1.96582.952148-2.924805,1.460938-6.366211,3.379883-11.362305,8.0625-14.445312,13.541016-1.179321,2.095459-2.063232,4.321777-2.643433,6.593262-1.421021,5.563477-6.497437,9.387207-12.223511,9.387207-.069336,0-.138672-.000488-.208252-.001709-1.401611-.022705-2.882568-.036377-4.415894-.036377-7.225952,0-15.623047.301514-22.458862,1.367432-.446289.06958-.891479.103271-1.332153.103271-4.037964,0-7.697266-2.833984-8.369019-6.918213-.004639-.02832-.009155-.056641-.013672-.084961-.969727-6.171143-2.172852-11.520264-4.060791-17.334473-1.921265-5.917236-2.085205-11.980469-4.875488-17.446045l-.113037-.219971c-3.572144-6.947021-.731079-15.398926,6.431641-18.516357,2.090088-.909668,4.22998-1.687012,6.395264-2.4729,2.925049-1.061401,5.878418-2.136475,8.718018-3.54541.192017.044922.387451.081299.5896.098633,3.771973.324463,7.067139.490723,9.986572.490723,15.274658,0,20.264648-4.546875,29.463135-14.793457,2.349609-2.618408,5.013428-5.585449,8.375977-8.973633,1.774048-1.786133,1.575317-4.78772-.584839-6.30249-.672607-.47168-1.449951-.691284-2.232666-.691284-1.169922,0-2.352051.490479-3.21582,1.362915-3.42334,3.457886-6.108276,6.449463-8.482544,9.09375-3.966675,4.419067-6.718018,7.481812-10.09668,9.417969-.933838.535156-1.895996.774536-2.823364.774536-3.771118,0-6.977295-3.954468-5.461792-8.060181.32959-.892822.641724-1.827881.935547-2.80835l.027832-.098145c2.285889-8.373779,2.400146-16.937988,2.51001-25.220215.040283-3.028564.082031-6.159668.234375-9.175781.11499-2.275635-1.636963-4.212891-3.911865-4.327881-.067261-.003174-.134521-.004761-.20105-.004761-2.189087-.000122-4.015259,1.708252-4.126831,3.916626-.159668,3.169189-.202148,6.378662-.243896,9.481934-.107666,8.105713-.209473,15.762451-2.206055,23.108643-3.790283,12.593262-10.975342,15.200684-20.068359,18.500977-1.866455.67749-3.813843,1.384766-5.79834,2.212769-2.473511,1.032104-5.057251,1.525391-7.619995,1.525391-5.566406,0-11.036377-2.326294-15.081665-6.512573-.039185-.040527-.078735-.080811-.118652-.120605-4.363159-4.363281-12.793457-3.643555-17.794067-7.282959-4.976929-3.62207-7.672119-10.322266-13.194946-13.141724-5.465698-2.790405-9.933594-8.842651-15.85083-10.764038-1.007568-.327148-2.06665-.459229-3.161255-.459229-4.609253,0-9.848999,2.342773-14.523315,2.342773-.622559,0-1.235596-.041504-1.835205-.135742-1.966064-.30896-3.903076-.412964-5.84021-.412964-3.986084,0-7.970459.440308-12.194946.440308-1.089233,0-1.912598-1.011719-1.658813-2.070923.780518-3.257446,2.020752-6.568481,3.588501-10.741333l.268799-.719971c1.595215-4.646729,2.248169-8.807129,1.997681-12.62854.346069-.541382.584106-1.161743.644409-1.846313.368408-4.183594.993896-8.544434,3.052734-12.09668l.07251-.131104c1.38208-2.594971,3.522217-5.06543,5.78833-7.681641,2.18689-2.524658,4.504639-5.213257,6.27417-8.247559.630981-.180542,1.232178-.496826,1.736328-.985352.678223-.656982,1.364502-1.3125,2.052246-1.96875,4.376221-4.17627,8.901123-8.495361,12.133301-14.0625,2.20459-3.832031,3.30835-7.950439,4.375488-11.93335.741211-2.76416,1.441406-5.375244,2.479248-7.789307,1.170288-2.781128,2.875244-5.454346,4.537964-7.959473,1.12854-1.700195,1.041138-4.041016-.438721-5.446167-.826416-.78479-1.852417-1.155884-2.86377-1.156006h0ZM149.146815,367.7948h0l-.003662.000732.003662-.000732h0Z" fill="#328cb2"/><path d="M149.012904,367.476685c-.008301.001709-.017456.003418-.022827.004395.013794-.002686.022827-.004395.022827-.004395Z" fill="url(#radial-gradient-2)"/><path d="M149.012904,367.476685s-.009033.001709-.022827.004395c.005371-.000977.014526-.002686.022827-.004395h0Z" fill="#328cb2"/><circle cx="173.420741" cy="223.994246" r="52.580011" fill="url(#radial-gradient-3)"/></svg>