<?xml version="1.0" encoding="UTF-8"?><svg id="Layer_1" xmlns="http://www.w3.org/2000/svg" width="344.932864" height="627.759313" xmlns:xlink="http://www.w3.org/1999/xlink" viewBox="0 0 344.932864 627.759313"><defs><radialGradient id="radial-gradient" cx="172.430239" cy="302.267116" fx="165.23131" fy="-2.641817" r="309.565848" gradientUnits="userSpaceOnUse"><stop offset="0" stop-color="#a2d165"/><stop offset=".063991" stop-color="#b1d87e"/><stop offset=".193713" stop-color="#cee7ae"/><stop offset=".258354" stop-color="#daedc1"/><stop offset=".316419" stop-color="#d7ebbc"/><stop offset=".380465" stop-color="#cfe7af"/><stop offset=".447379" stop-color="#c1e099"/><stop offset=".515811" stop-color="#afd77a"/><stop offset=".555866" stop-color="#a2d165"/><stop offset=".801676" stop-color="#daedc1"/><stop offset=".836665" stop-color="#d6ebba"/><stop offset=".884865" stop-color="#cbe5a8"/><stop offset=".940739" stop-color="#b9dc8b"/><stop offset="1" stop-color="#a2d165"/></radialGradient><radialGradient id="radial-gradient-2" cx="172.250498" cy="311.490739" fx="164.814405" fy="-3.463214" r="319.764287" xlink:href="#radial-gradient"/><radialGradient id="radial-gradient-3" cx="172.479418" cy="311.17021" fx="165.05223" fy="-3.406552" r="319.381335" xlink:href="#radial-gradient"/><radialGradient id="radial-gradient-4" cx="174.746657" cy="304.586355" fx="167.474439" fy="-3.426699" r="312.717379" xlink:href="#radial-gradient"/><radialGradient id="radial-gradient-5" cx="172.86511" cy="313.66637" fx="165.364821" fy="-4.006566" r="322.524798" xlink:href="#radial-gradient"/><radialGradient id="radial-gradient-6" cx="173.254617" cy="314.834481" fx="165.70701" fy="-4.842596" r="324.559548" xlink:href="#radial-gradient"/><radialGradient id="radial-gradient-7" cx="172.479397" cy="302.983569" fx="165.339851" fy=".589803" r="307.012266" xlink:href="#radial-gradient"/><radialGradient id="radial-gradient-8" cx="171.888319" cy="309.502642" fx="164.561005" fy="-.843979" r="315.086587" xlink:href="#radial-gradient"/><radialGradient id="radial-gradient-9" cx="172.49256" cy="313.802844" fx="164.999234" fy="-3.575169" r="322.22537" xlink:href="#radial-gradient"/><radialGradient id="radial-gradient-10" cx="172.409252" cy="313.807136" fx="164.913755" fy="-3.662853" r="322.318751" xlink:href="#radial-gradient"/><radialGradient id="radial-gradient-11" cx="196.332583" cy="311.768492" fx="189.172065" fy="8.486473" r="307.914087" xlink:href="#radial-gradient"/><radialGradient id="radial-gradient-12" cx="180.257417" cy="306.933487" fx="173.040594" fy="1.266681" r="310.335297" xlink:href="#radial-gradient"/><radialGradient id="radial-gradient-13" cx="180.327838" cy="312.937029" fx="173.01187" fy="3.070988" r="314.598667" xlink:href="#radial-gradient"/><radialGradient id="radial-gradient-14" cx="177.881676" cy="302.446157" fx="170.764466" fy=".998456" r="306.051753" xlink:href="#radial-gradient"/><radialGradient id="radial-gradient-15" cx="178.04516" cy="296.723059" fx="171.04908" fy=".405763" r="300.84299" xlink:href="#radial-gradient"/><radialGradient id="radial-gradient-16" cx="172.478655" cy="313.807136" fx="164.984999" fy="-3.584888" r="322.239595" xlink:href="#radial-gradient"/><radialGradient id="radial-gradient-17" cx="172.479685" cy="307.057878" fx="165.193059" fy="-1.565432" r="313.336956" xlink:href="#radial-gradient"/><radialGradient id="radial-gradient-18" cx="172.479397" cy="314.17661" fx="164.966529" fy="-4.029133" r="323.065743" xlink:href="#radial-gradient"/><radialGradient id="radial-gradient-19" cx="174.044493" cy="314.458284" fx="166.57467" fy="-1.924291" r="321.214729" xlink:href="#radial-gradient"/><radialGradient id="radial-gradient-20" cx="172.479397" cy="313.807138" fx="164.985751" fy="-3.584461" r="322.239163" xlink:href="#radial-gradient"/><radialGradient id="radial-gradient-21" cx="172.569201" cy="314.353105" fx="164.912819" fy="-9.931104" r="329.237046" xlink:href="#radial-gradient"/><radialGradient id="radial-gradient-22" cx="172.513906" cy="313.996648" fx="164.722561" fy="-16.003918" r="335.040709" xlink:href="#radial-gradient"/><radialGradient id="radial-gradient-23" cx="172.29213" cy="313.807136" fx="164.797421" fy="-3.629448" r="322.284836" xlink:href="#radial-gradient"/><radialGradient id="radial-gradient-24" cx="172.479397" cy="313.807136" fx="164.985751" fy="-3.584446" r="322.239147" xlink:href="#radial-gradient"/><radialGradient id="radial-gradient-25" cx="172.479397" cy="313.807136" fx="164.985751" fy="-3.584446" r="322.239147" xlink:href="#radial-gradient"/><radialGradient id="radial-gradient-26" cx="172.377726" cy="311.832629" fx="164.776543" fy="-10.113644" r="326.863403" xlink:href="#radial-gradient"/><radialGradient id="radial-gradient-27" cx="171.107517" cy="311.508948" fx="163.552676" fy="-8.474541" r="324.87064" xlink:href="#radial-gradient"/><radialGradient id="radial-gradient-28" cx="170.555085" cy="313.811" fx="163.067697" fy="-3.31552" r="321.970037" xlink:href="#radial-gradient"/><radialGradient id="radial-gradient-29" cx="172.479397" cy="313.807136" fx="164.985751" fy="-3.584446" r="322.239147" xlink:href="#radial-gradient"/><radialGradient id="radial-gradient-30" cx="172.514661" cy="313.526219" fx="165.013453" fy="-4.185649" r="322.564324" xlink:href="#radial-gradient"/><radialGradient id="radial-gradient-31" cx="172.488722" cy="315.190016" fx="165.029368" fy="-.74917" r="320.764567" xlink:href="#radial-gradient"/><radialGradient id="radial-gradient-32" cx="173.254058" cy="316.436704" fx="165.85697" fy="3.134797" r="318.08701" xlink:href="#radial-gradient"/><radialGradient id="radial-gradient-33" cx="180.065721" cy="313.812862" fx="172.65252" fy="-.171459" r="318.779847" xlink:href="#radial-gradient"/><radialGradient id="radial-gradient-34" cx="176.929761" cy="310.325873" fx="169.402314" fy="-8.497362" r="323.692665" xlink:href="#radial-gradient"/><radialGradient id="radial-gradient-35" cx="172.686053" cy="341.700032" fx="165.833913" fy="51.47925" r="294.653364" xlink:href="#radial-gradient"/><radialGradient id="radial-gradient-36" cx="172.139567" cy="306.022456" fx="164.972663" fy="2.469923" r="308.188732" xlink:href="#radial-gradient"/><radialGradient id="radial-gradient-37" cx="171.33151" cy="310.135207" fx="163.899526" fy="-4.644701" r="319.587583" xlink:href="#radial-gradient"/><radialGradient id="radial-gradient-38" cx="169.867378" cy="309.602333" fx="162.417391" fy="-5.940113" r="320.361769" xlink:href="#radial-gradient"/><radialGradient id="radial-gradient-39" cx="190.932841" cy="311.295406" fx="183.930985" fy="14.733455" r="301.091383" xlink:href="#radial-gradient"/><radialGradient id="radial-gradient-40" cx="172.486115" cy="313.499353" fx="165.002338" fy="-3.474225" r="321.814758" xlink:href="#radial-gradient"/><radialGradient id="radial-gradient-41" cx="177.140325" cy="300.456385" fx="170.131208" fy="3.586902" r="301.403611" xlink:href="#radial-gradient"/><radialGradient id="radial-gradient-42" cx="172.477481" cy="317.728472" fx="164.879256" fy="-4.092542" r="326.73623" xlink:href="#radial-gradient"/><radialGradient id="radial-gradient-43" cx="172.610255" cy="314.53576" fx="165.095207" fy="-3.762299" r="323.159468" xlink:href="#radial-gradient"/><radialGradient id="radial-gradient-44" cx="172.268807" cy="294.796934" fx="165.286375" fy="-.942297" r="300.256096" xlink:href="#radial-gradient"/><radialGradient id="radial-gradient-45" cx="171.057639" cy="141.526545" fx="171.057639" fy="141.526545" r="16.43954" gradientUnits="userSpaceOnUse"><stop offset="0" stop-color="#ecf6e0"/><stop offset=".110281" stop-color="#e2edd4"/><stop offset=".304404" stop-color="#c8d5b7"/><stop offset=".55956" stop-color="#9eb087"/><stop offset=".862577" stop-color="#657c46"/><stop offset="1" stop-color="#496326"/></radialGradient><radialGradient id="radial-gradient-46" cx="170.288115" cy="140.972298" fx="170.288115" fy="140.972298" r="15.702281" xlink:href="#radial-gradient-45"/><radialGradient id="radial-gradient-47" cx="171.061511" cy="141.559112" fx="171.061511" fy="141.559112" r="16.443511" xlink:href="#radial-gradient-45"/></defs><path d="M162.264737,281.641067c39.66307,10.539766,32.745666-2.20488,33.236797-35.059137-16.258055-1.538181-32.578405-1.712622-48.888346-1.567644-.000002.000072-.000002,27.144848-.000002,27.144848-1.392529,9.502166,9.296517,7.594546,15.65155,9.481934Z" fill="none" stroke="#231f20" stroke-miterlimit="10" stroke-width=".75"/><path d="M156.201565,285.590286c-1.658081-.317871-3.318176-.651611-4.976746-1.002319,6.944917,8.623523,21.779719,7.643229,31.621399,5.540405-8.874451-1.551147-17.795776-2.841431-26.644653-4.538086Z" fill="none" stroke="#231f20" stroke-miterlimit="10" stroke-width=".75"/><path d="M173.574734,240.251663c7.294434.22998,14.625122.627197,21.927368,1.321045,2.187334-19.860427-12.042768-27.01866-29.778518-24.924012-12.518354-.112533-20.622355,11.460352-19.109757,23.3344,8.991303-.145008,17.992035-.014149,26.960907.268566Z" fill="none" stroke="#231f20" stroke-miterlimit="10" stroke-width=".75"/><path d="M191.856045,323.637039c-15.090273-.070198-30.1411-1.544677-45.242859-1.115582.850491,15.690596-6.142899,50.261827,19.112069,49.757193,13.361663,1.754506,30.003181-2.891894,29.776215-19.111153.000632.001525.000632-29.522279.000632-29.522279-1.215332-.004028-2.430725-.003418-3.646057-.008179Z" fill="none" stroke="#231f20" stroke-miterlimit="10" stroke-width=".75"/><path d="M159.710476,317.543411c11.938538.294922,23.846924,1.051636,35.791626,1.088501.583897-8.058671-3.723363-15.675435-10.692736-19.001025-9.10597-.028883-18.223096-.154371-27.331983-.082716-6.420227,3.080933-10.864197,9.623047-10.864197,17.220093,2.460318,1.93327,9.226925.011969,13.09729.775146Z" fill="none" stroke="#231f20" stroke-miterlimit="10" stroke-width=".75"/><path d="M162.918972,528.841262c-4.215271-1.522095-8.420898-3.070312-12.620972-4.633423,4.73556,10.449989,18.06106,10.71165,28.090271,10.062866-5.173401-1.762085-10.329956-3.57373-15.469299-5.429443Z" fill="none" stroke="#231f20" stroke-miterlimit="10" stroke-width=".75"/><path d="M181.587307,477.90718c23.371715,2.70858,15.53797-10.395858.497686-17.665012-2.802716-1.076713-11.875427-.369233-14.938994-.565618-10.485939.000284-18.990211,8.447671-19.100746,18.907632,11.182556-.106689,22.363342-.366455,33.542053-.677002Z" fill="none" stroke="#231f20" stroke-miterlimit="10" stroke-width=".75"/><path d="M148.034939,483.586502c-1.511453,46.829034-1.57277,32.152824,39.027738,48.32271,15.380683-6.280868,8.406802-37.087376,9.862008-49.447434-16.29502.483244-32.589637.96945-48.889746,1.124723Z" fill="none" stroke="#231f20" stroke-miterlimit="10" stroke-width=".75"/><path d="M191.075955,400.892532c1.480835,1.059814,2.953491,2.131104,4.426147,3.202393,2.838872-23.642612-17.345028-29.009744-36.421936-24.217041,10.861877,6.703003,21.611084,13.582275,31.995789,21.014648Z" fill="none" stroke="#231f20" stroke-miterlimit="10" stroke-width=".75"/><path d="M179.650662,452.992141c19.917126-2.388252,15.597743-28.771801,15.850466-42.744636-13.329006-9.893811-27.204113-18.995338-41.398487-27.616379-12.504281,7.0394-5.971529,39.590077-7.490703,50.889819,11.030423,6.46143,22.032254,12.970219,33.038724,19.471195Z" fill="none" stroke="#231f20" stroke-miterlimit="10" stroke-width=".75"/><path d="M147.465237,439.834182c2.756275,9.739577,12.964499,14.60438,22.850586,13.455811-7.609375-4.497925-15.228149-8.97998-22.850586-13.455811Z" fill="none" stroke="#231f20" stroke-miterlimit="10" stroke-width=".75"/><path d="M129.594937,25.518325c1.379456-.667419,2.765747-1.320801,4.160767-1.955872-3.716131-2.614359-7.241724-5.088074-10.069824-8.301942-9.75019-2.519585,3.018795,9.057964,5.909057,10.257813Z" fill="url(#radial-gradient)" stroke="#3c611b" stroke-miterlimit="10"/><path d="M171.475979,10.817398c10.101588-16.928742-1.474147-10.496082-4.988403,1.232178,1.658142-.429138,3.319885-.843018,4.988403-1.232178Z" fill="url(#radial-gradient-2)" stroke="#3c611b" stroke-miterlimit="10"/><path d="M164.226162,17.79451c-2.369353,6.563398-2.309286,13.946066-9.584714,17.324084-8.875767,8.184084-12.003496-13.179473-20.367007-6.275378,5.497619,4.013644,11.898881,9.561177,11.946278,17.497031-.200783,6.708846-5.092023,14.058295-1.202691,20.637732.743681,3.356699,5.572202-.334788,3.453553-2.019336-1.928715-5.345542.752078-22.161513,6.923499-25.52971,9.568504-4.090576,10.488611-14.247883,13.557949-22.893579-1.580994.396118-3.154663.824158-4.726868,1.259155Z" fill="url(#radial-gradient-3)" stroke="#3c611b" stroke-miterlimit="10"/><path d="M47.433987,165.388626c1.206299,1.243408,2.464172,2.514771,4.04364,3.504639,1.254359-5.492899-4.725545-13.161633-9.739746-7.907959,2.207476,1.083346,4.013524,2.591369,5.696106,4.40332Z" fill="url(#radial-gradient-4)" stroke="#3c611b" stroke-miterlimit="10"/><path d="M51.477627,195.742141c-2.599698.639454-5.644235,4.176351-8.23057,2.010708-6.342785-6.967421-22.681778-3.929285-25.726659-12.747077-1.343658-5.524052-10.305681-5.417937-14.470788-6.984817-2.573181-.759827-3.643853,3.24896-1.085113,3.852116,18.683785,2.531453,7.50854,10.218897,25.848018,14.032971,23.372595,1.978389,5.938869,18.805809-8.782776,17.354014-9.086998,7.714809,17.937393,2.529732,19.158044-2.095049,5.579414-10.083848,14.693183-8.014708,13.289844-15.422866Z" fill="url(#radial-gradient-5)" stroke="#3c611b" stroke-miterlimit="10"/><path d="M63.706448,170.904251c5.887758-.010269,18.359044-2.624664,17.187182-10.363211-7.679776,4.084691-15.108762,8.31562-24.416685,6.093747-1.185497,5.815841,3.100529,4.26477,7.229503,4.269464Z" fill="url(#radial-gradient-6)" stroke="#3c611b" stroke-miterlimit="10"/><path d="M153.760647,73.852493c4.055363,2.100479,6.911192,6.646761,6.417603,11.002441,2.445801-1.698975,4.956604-3.298584,7.533264-4.763916-6.501958-4.39115-11.81091-14.410049-17.288818-8.134277,1.121289.673427,2.226971,1.254547,3.337952,1.895752Z" fill="url(#radial-gradient-7)" stroke="#3c611b" stroke-miterlimit="10"/><path d="M111.773831,105.466262c4.152826,4.382571,6.967194,9.798794,8.211243,15.61792,6.230408-6.314331,12.471497-12.616943,18.960144-18.661133-7.261598,5.131833-17.558459,7.865361-24.254939.305021-1.299091-2.650862-6.057541,1.314752-2.916447,2.738192Z" fill="url(#radial-gradient-8)" stroke="#3c611b" stroke-miterlimit="10"/><path d="M198.199185,101.328323c-1.472836-.149705-20.329061-11.494524-26.555274-17.658546-19.486667,11.154766-36.020062,27.974733-50.93024,44.229943-.392858,11.545192,3.485139,32.520277-11.633567,36.565963-8.354086,5.227024-23.646311-9.698067-23.117703.168,6.590391,1.095651,20.280734,2.328348,15.325785,12.125747-1.058076,7.813254-15.944074,5.178201-14.681996,12.834527,39.528744-26.591774,77.004202-57.00179,114.118629-87.066171-.85614-.356689-1.702881-.745117-2.525635-1.199463Z" fill="url(#radial-gradient-9)" stroke="#3c611b" stroke-miterlimit="10"/><path d="M81.514126,186.54097c-6.278019,2.196148-27.117483,3.045539-25.036499,11.390503,6.795276-5.453781,24.923042-2.72929,25.036499-11.390503Z" fill="url(#radial-gradient-10)" stroke="#3c611b" stroke-miterlimit="10"/><path d="M318.161221,54.186905c2.908036-.096838,13.940176-27.897544,5.607933-21.60342-1.790866,5.601494-8.966027,18.04462-5.607933,21.60342Z" fill="url(#radial-gradient-11)" stroke="#3c611b" stroke-miterlimit="10"/><path d="M336.426358,96.049026c2.661854-.848236,9.754929.079483,7.607361-4.372392-3.336254-1.218568-11.116278-.564377-7.607361,4.372392Z" fill="url(#radial-gradient-12)" stroke="#3c611b" stroke-miterlimit="10"/><path d="M330.097134,92.728225c-9.09233,1.395867-15.826544-3.462785-24.609241-5.045013-4.282937-.682934-7.005835-4.757502-6.534803-8.986524-.760651-8.520366,4.028079-13.927804,11.437548-18.26765,6.370972-2.480626,2.559283-8.55494-2.222996-3.325907-15.171369,7.579624-14.546883,20.235039-7.071555,33.421356,6.966554-.629624,30.956299,14.042275,29.001047,2.203738Z" fill="url(#radial-gradient-13)" stroke="#3c611b" stroke-miterlimit="10"/><path d="M279.437832,99.400833c1.339235,9.733266,21.112688-7.237691,14.990723-12.182617-3.238944,4.980811-9.31141,11.0126-14.990723,12.182617Z" fill="url(#radial-gradient-14)" stroke="#3c611b" stroke-miterlimit="10"/><path d="M264.342801,66.956619c3.963684-6.325317,9.339966-11.732178,15.708923-15.715515-1.14168-9.131777-22.389531,11.00148-15.708923,15.715515Z" fill="url(#radial-gradient-15)" stroke="#3c611b" stroke-miterlimit="10"/><path d="M273.483181,98.170608c-27.429527-13.759864-8.498407-15.335853-14.321472-30.237-5.302795,9.045208-5.263627,23.707459-17.758852,25.412896,2.108503,9.281874,6.826106-6.502786,34.294131,9.781623-.744385-1.649658-1.484863-3.301025-2.213806-4.95752Z" fill="url(#radial-gradient-16)" stroke="#3c611b" stroke-miterlimit="10"/><path d="M130.15939,171.770096c13.945737,14.922286,30.747838-47.270808,88.300561-40.984981-1.33225-13.495936,3.960317-30.686802,19.389773-32.59834-3.522398-11.099022-20.613501,11.669314-31.300109,5.986318-28.680245,23.700053-57.950353,46.687851-87.862698,68.80965,3.989197-1.065063,9.65033-2.285767,11.472473-1.212646Z" fill="url(#radial-gradient-17)" stroke="#3c611b" stroke-miterlimit="10"/><path d="M218.443448,135.783645c-20.376983-1.280791-40.186646,5.084622-54.771153,19.651961-8.2178,7.310442-15.506435,15.498918-22.670437,23.806657,3.593811,3.027954,6.849304,6.397217,9.71283,10.057861,21.990419-12.315799,46.633075-18.276274,71.110596-23.503052-4.911717-7.399939-3.132667-21.561258-3.381836-30.013428Z" fill="url(#radial-gradient-18)" stroke="#3c611b" stroke-miterlimit="10"/><path d="M165.216031,240.040237c22.894757,6.147025-6.496984-38.746911,37.095947-64.537964-74.59623,22.265076-35.946277,7.309162-37.095947,64.537964Z" fill="url(#radial-gradient-19)" stroke="#3c611b" stroke-miterlimit="10"/><path d="M175.666409,283.87593c-.171509-14.109375-.333191-27.159424-.479126-38.571045-3.305866-.112427-6.606473-.197626-9.908508-.243166.136169,10.972414.287292,23.547854.448059,37.176394,3.309814.56189,6.624939,1.098267,9.939575,1.637817Z" fill="url(#radial-gradient-20)" stroke="#3c611b" stroke-miterlimit="10"/><path d="M165.786404,287.29512c-1.571436,8.452294,3.119241,7.481385,10.01068,7.255985,1.702215-7.427588-4.587931-6.080191-10.01068-7.255985Z" fill="url(#radial-gradient-21)" stroke="#3c611b" stroke-miterlimit="10"/><path d="M176.078091,318.126175c-.841537-10.050573,3.897347-21.751862-10.149196-18.594438.747485,9.622127-3.744443,21.334717,10.149196,18.594438Z" fill="url(#radial-gradient-22)" stroke="#3c611b" stroke-miterlimit="10"/><path d="M166.198574,322.765457c3.368703,17.934321-8.142218,62.890783,10.74054,68.459839-.266235-22.745972-.538513-45.959839-.800781-68.033447-3.313171-.143433-6.62616-.294678-9.939758-.426392Z" fill="url(#radial-gradient-23)" stroke="#3c611b" stroke-miterlimit="10"/><path d="M177.648953,451.810257c-.201782-17.141602-.418152-35.65271-.639893-54.602783-3.317505-2.223145-6.666016-4.401123-10.035034-6.548828.216492,19.04541.429199,37.766846.628967,55.220093,3.347961,1.978394,6.697876,3.953247,10.045959,5.931519Z" fill="url(#radial-gradient-24)" stroke="#3c611b" stroke-miterlimit="10"/><path d="M168.034512,483.251541c.202026,17.294312.377197,31.895874.511108,42.302856,3.334635,1.205009,6.688205,2.357251,10.042114,3.509277-.141296-10.654785-.33783-26.69458-.569214-46.060303-3.327881.089111-6.655823.172363-9.984009.248169Z" fill="url(#radial-gradient-25)" stroke="#3c611b" stroke-miterlimit="10"/><path d="M177.958828,478.001785c-.266677-10.710384,2.846181-22.491306-10.288818-26.27478,2.092018,11.458106-6.298377,30.608599,10.288818,26.27478Z" fill="url(#radial-gradient-26)" stroke="#3c611b" stroke-miterlimit="10"/><path d="M159.203946,608.223953c-6.415671-4.920102-13.273773-9.266819-19.898376-13.904419.614132,3.802684,5.191775,4.32988,7.056979,6.828178,1.263151,3.13459-5.574557,2.983589-3.560641,10.132881-.575957,8.611598,34.264615,6.527394,16.402039-3.056641Z" fill="url(#radial-gradient-27)" stroke="#3c611b" stroke-miterlimit="10"/><path d="M108.823574,573.626053c2.798796,9.36555-8.936712,17.792993-17.354277,17.322234-11.576971-.559129-15.063487,16.51158-.22209,15.405715,9.110241.704301,12.277783-2.105757,12.665783-3.740035,1.933044-8.141846-5.701538-7.686279-3.444458-9.444458,8.221535-3.749675,22.670548-13.618685,8.355042-19.543457Z" fill="url(#radial-gradient-28)" stroke="#3c611b" stroke-miterlimit="10"/><path d="M155.912991,599.539749c-.08828.001839-.175666-.007938-.26355-.010742,3.493558,2.405768,6.856345,4.988729,10.164001,7.639893-1.215698-5.094727-5.157043-7.62915-9.900452-7.62915Z" fill="url(#radial-gradient-29)" stroke="#3c611b" stroke-miterlimit="10"/><path d="M145.412991,584.267288c4.001034-31.528067-19.835172-32.255068,11.733582-33.161621-9.192924-12.074415-31.786452-5.514142-44.823053-1.240641-10.58538,4.999891-6.709088,18.868952,3.16778,22.268962-.511631-4.728918-3.628089-10.600753-1.816842-14.858934,7.177009-5.606777,18.744099-5.00513,22.497668,4.304635,5.455195,11.208891-3.596814,26.459474,10.418601,31.683205-1.616431-2.305038-1.348775-5.500303-1.177734-8.995605Z" fill="url(#radial-gradient-30)" stroke="#3c611b" stroke-miterlimit="10"/><path d="M211.53378,558.640335c4.030397-15.167957-17.971693.958458-26.588035-14.672645-21.17164-26.957313-11.942013-3.28113-28.548073-.595788,4.567983,6.369644,9.021256,6.768412,16.307487,5.542515,6.204278,1.492535,27.876387,12.887453,38.828622,9.725918Z" fill="url(#radial-gradient-31)" stroke="#3c611b" stroke-miterlimit="10"/><path d="M258.882718,575.550979c-4.23892-4.837591-9.883591-9.833781-16.792926-9.675916-9.309779-.07686-11.690306-13.090539-20.065643-15.001903-6.136363-3.565956-7.948696,8.671377-2.778914,8.778765,6.664217,1.506354,6.481173,2.40711,6.22336,6.554571,1.944982,7.160327-1.679666,13.779778.776995,21.501754,3.243994,7.686356,6.394716,14.603375-.037111,21.278992-6.01663,4.333193-15.511828.956605-15.55401,13.019758,1.085396,11.218225,21.658984-15.986898,26.374139-18.860628,1.49389-6.54029-2.376521-11.739802-4.045806-17.337079-3.426098-8.776758,6.237809-16.269158,14.05133-11.606312,4.887483,4.286526,11.44434,11.695128,11.848587,1.347998Z" fill="url(#radial-gradient-32)" stroke="#3c611b" stroke-miterlimit="10"/><path d="M275.935452,591.48555c5.335877,1.058348,9.860707,1.803438,10.752258,6.808838,14.981223-13.644633-15.785661-12.199871-22.874334-18.818225-9.479225,7.99898,5.252877,10.197965,12.122076,12.009387Z" fill="url(#radial-gradient-33)" stroke="#3c611b" stroke-miterlimit="10"/><path d="M295.560879,609.24263c-.242708-1.482842-1.570522-10.133605-1.820312-11.424561-3.349657,3.517689-7.32639,6.897167-5.1584,12.101855-8.275888,4.547118-8.848572,17.884127,4.14604,15.100191,10.58093,2.138372,13.394123-13.587292,2.832672-15.777486Z" fill="url(#radial-gradient-34)" stroke="#3c611b" stroke-miterlimit="10"/><path d="M224.321316,622.366897c-1.793335,1.628174-3.603943,3.236206-5.42395,4.833496,8.116527-.340293,16.079426.307303,16.126491-4.253237.735804-13.68193-5.37886-5.482066-10.702541-.580259Z" fill="url(#radial-gradient-35)" stroke="#3c611b" stroke-miterlimit="10"/><path d="M243.477627,175.164993c-12.1141,6.351445-15.831082-8.477385-27.175049-2.994629,7.275252,1.070447,11.721318,9.138208,19.639845,8.532318,4.296555-.332009,8.778317-.008154,7.535204-5.537689Z" fill="url(#radial-gradient-36)" stroke="#3c611b" stroke-miterlimit="10"/><path d="M286.191494,175.845657c-7.119357-1.806323-25.67365.099915-20.938843-11.891846-6.841857-1.306986-3.907152,7.967095-10.628463,8.276582-4.251749.615205-7.071618.280156-6.146561,5.48709,8.650255-5.629227,41.642004,7.57575,37.713867-1.871826Z" fill="url(#radial-gradient-37)" stroke="#3c611b" stroke-miterlimit="10"/><path d="M307.755948,175.510696c-3.13148-3.84016-11.58495,1.939076-16.564935.554376-3.187414,7.125862,16.171281,3.540783,16.564935-.554376Z" fill="url(#radial-gradient-38)" stroke="#3c611b" stroke-miterlimit="10"/><path d="M311.453823,155.233841c3.553876-.899502,4.746396-7.097947.039271-5.017973-3.002372,1.561899-1.756745,2.760113-.039271,5.017973Z" fill="url(#radial-gradient-39)" stroke="#3c611b" stroke-miterlimit="10"/><path d="M286.14938,155.51387c-6.85143-.177683-16.017607-.628322-21.720093,3.524292,6.126581-2.1205,19.346043,1.465284,21.720093-3.524292Z" fill="url(#radial-gradient-40)" stroke="#3c611b" stroke-miterlimit="10"/><path d="M304.603726,154.038284c-3.191284,1.046387-6.984985,1.595581-11.477417,1.628174-5.343367.601326.939372,2.445218,3.517934,1.637294,3.160433,2.727175,13.416676,2.051955,7.959483-3.265468Z" fill="url(#radial-gradient-41)" stroke="#3c611b" stroke-miterlimit="10"/><path d="M51.477627,110.421585c-3.574586,5.063658-11.30962,2.814224-11.95546,6.336238,1.781306,4.465051,9.232041.863687,11.955089-1.267695.000371-.000672.000371-5.068543.000371-5.068543Z" fill="url(#radial-gradient-42)" stroke="#3c611b" stroke-miterlimit="10"/><path d="M104.597561,99.207962c-17.906382,2.627391-27.646316-17.858499-44.900196-18.45384-10.156327,3.943559,13.668323,6.027054,15.485465,10.000355,2.538462,1.995917,2.482862,5.546321.585941,7.971021-4.018461,9.345224-10.606355,10.028214-19.291885,9.412376-.454512,5.494052.456162,3.440792,5.059117,3.950638,8.447186,1.789102,14.48073-5.006575,17.96088-11.801128,7.20157-6.542116,19.683941,10.804456,28.706757-1.140702-1.234863-.106934-2.46106-.022705-3.606079.061279Z" fill="url(#radial-gradient-43)" stroke="#3c611b" stroke-miterlimit="10"/><path d="M26.435452,157.331009c5.337953.580746,9.627032,2.61937,13.848083-1.305176-3.220672-1.453489-21.161098-5.364898-13.848083,1.305176Z" fill="url(#radial-gradient-44)" stroke="#3c611b" stroke-miterlimit="10"/><path d="M172.774746,125.182083c-8.842842-.985485-16.89927,5.527014-17.987427,14.149292,6.01947-4.686157,12.019531-9.397339,17.987427-14.149292Z" fill="url(#radial-gradient-45)"/><path d="M163.608181,148.914505c6.220684-8.583183,32.775406-12.660872,14.949587-21.999084-7.766998,6.220918-15.595829,12.364391-23.461127,18.460992,1.524518,5.854626,4.067596,9.190212,8.51154,3.538092Z" fill="url(#radial-gradient-46)"/><path d="M187.304715,139.82222c-8.972951,3.758048-16.980531,9.611549-24.165283,16.097656,11.021701,6.614697,26.280825-3.533965,24.165283-16.097656Z" fill="url(#radial-gradient-47)"/></svg>