<?xml version="1.0" encoding="UTF-8"?><svg id="Layer_1" xmlns="http://www.w3.org/2000/svg" width="135.117557" height="742.80557" viewBox="0 0 135.117557 742.80557"><path d="M133.407779,714.677571l-3.548543-.517631c-.692045-.10095-1.339962-.377422-1.889618-.809851-2.507909-1.973039-10.296502-7.779572-15.871978-8.423063-1.652344-.189453-3.309082-.145508-4.912109-.102051-2.495117.066895-4.849121.131348-6.958008-.668945-1.487305-.564453-2.816406-1.549805-4.224121-2.592773-.748535-.554688-1.522949-1.128906-2.340332-1.649414-1.71405-1.092224-4.392944-1.51825-6.058105-1.682678-.919556-.09082-1.707703-.690979-2.062012-1.544373-.997253-2.401733-2.269836-4.667358-4.09082-6.614746-2.216309-2.370117-5.024414-4.025879-7.740723-5.626465-3.416992-2.014648-6.644531-3.916992-8.447754-7.03418-1.611328-2.785645-1.844727-6.133789-2.092285-9.678711-.061035-.880371-.122559-1.758789-.205566-2.626953-.101458-1.061728-.363644-3.391875-.708627-6.362213-.222595-1.916566,1.413662-3.548821,3.325406-3.288037,6.491218.885476,13.107518.251626,19.350628-1.800739,1.115906-.181763,2.206909.756653,3.368774,1.03302,2.232178.479675,4.430603-.941101,4.910217-3.173218.985229-5.379761-6.776855-7.039917-8.083557-1.737061-.184937.860596-.565002,1.332153-.994385,1.674988-4.262129,1.758452-11.602518.795568-16.833185-.269782-3.625836-.738488-6.375109-3.702898-6.816508-7.376754-.393797-3.277651-.762518-6.329035-1.043279-8.647382-.278168-2.296925,1.514897-4.320008,3.828605-4.319993,0,0,12.719479-.040685,18.495032-.11,1.48605-.017835,2.913774.64054,3.80923,1.826636,1.276331,1.690593,3.299626,2.783987,5.581931,2.783039,3.753618-.001558,6.943693-3.144204,6.997038-6.897443.055618-3.91317-3.099433-7.102152-6.99921-7.102152-2.522036,0-4.728753,1.334723-5.958466,3.335995-1.250164,2.034556-3.544542,3.185669-5.932493,3.181919-4.996206-.007845-12.603585-.01331-16.962007-.016022-1.871521-.001099-3.383972-1.518616-3.383972-3.390076v-24.370728c0-1.912673,1.55053-3.463199,3.463203-3.463194l28.209072.000078c1.358369.000004,2.536409.82365,3.144437,2.038339,1.613404,3.223179,5.357544,5.488925,9.717467,5.488925.552246,0,1-.447754,1-1s-.447754-1-1-1c-4.729004,0-8.57666-3.152344-8.57666-7.027344s3.847656-7.027344,8.57666-7.027344c.552246,0,1-.447754,1-1s-.447754-1-1-1c-4.485004,0-8.318226,2.397477-9.851201,5.768402-.484419,1.065211-1.531592,1.758879-2.701778,1.758879l-28.443909.000002c-1.953593,0-3.537292-1.5837-3.537292-3.537292v-16.962402c0-1.503522,1.218858-2.72236,2.72238-2.722335l11.421358.000189c1.0729.000018,2.072185.532526,2.677456,1.418393,1.273012,1.863165,3.419871,3.080127,5.85339,3.052801,3.725086-.041829,6.867497-3.172395,6.919962-6.897346.055113-3.913044-3.099724-7.101702-6.999269-7.101702-2.790392,0-5.194802,1.633896-6.317051,3.996674-.714705,1.504736-2.153031,2.530851-3.818874,2.530852h-9.88501c-1.421769.000002-2.574341-1.15257-2.574341-2.574339v-34.715332c0-1.96875,1.586609-3.566528,3.555298-3.573059,5.368713-.017761,15.39032-.056702,19.847839-.111389,1.270813-.015564,2.406189.655762,3.14502,1.689819,1.508304,2.11121,4.156844,3.349383,7.050983,2.80313,2.746544-.518395,4.967533-2.721245,5.500902-5.46492.871447-4.482759-2.537768-8.405837-6.863103-8.405837-3.017334,0-5.583374,1.910461-6.564819,4.587219-.416748,1.136536-1.429749,1.93866-2.64032,1.935791-4.568726-.010925-14.99469-.01825-20.102356-.021362-1.622009-.000977-2.929443-1.316101-2.929443-2.93811v-25.896545c0-1.319429,1.069609-2.389037,2.389038-2.389037l28.963745.000016c1.439636,0,2.820296.752091,3.464789,2.039406,1.613424,3.222667,5.357172,5.487859,9.716607,5.487859.552246,0,1-.447754,1-1s-.447754-1-1-1c-4.729004,0-8.57666-3.152344-8.57666-7.027344s3.847656-7.027344,8.57666-7.027344c.552246,0,1-.447754,1-1s-.447754-1-1-1c-4.423232,0-8.212724,2.331914-9.785896,5.630045-.543651,1.139756-1.655247,1.897147-2.918022,1.897151l-29.107782.000085c-1.503582.000004-2.722479-1.218889-2.722479-2.722471v-18.22168c0-1.258063,1.019878-2.277915,2.277941-2.277884l11.534721.000292c1.280454.000032,2.431042.665624,3.202334,1.687715,1.290105,1.709606,3.344091,2.808592,5.657226,2.783509,3.725721-.0404,6.869691-3.171653,6.922329-6.897221.055287-3.913055-3.099572-7.101953-6.999275-7.101953-2.77898,0-5.175185,1.620572-6.302434,3.967961-.774991,1.613844-2.494322,2.559394-4.284602,2.559421l-9.248658.00014c-1.524082.000023-2.7596-1.235495-2.759577-2.759577l.000138-9.030273c.000025-1.648513.866095-3.188463,2.3038-3.995062,10.012114-5.617124,17.21327-21.188663,17.21327-39.530573,0-18.401645-7.247243-34.017416-17.310254-39.587839-2.023842-1.120306-3.272268-3.250499-3.264689-5.563714.014726-4.494356.029349-11.037106.029349-11.037106,0-4.671692,3.78717-8.458862,8.458862-8.458862,0,0,9.780868-.038935,14.583994-.105422,1.366739-.018919,2.710585.561466,3.505338,1.673537,1.267705,1.773858,3.340423,2.931292,5.687378,2.931603,3.754361.000497,6.946533-3.142613,7.000569-6.896585.056331-3.913445-3.098915-7.103193-6.999202-7.103193-2.770072,0-5.159753,1.610165-6.292288,3.94516-.786407,1.621367-2.505892,2.576159-4.307905,2.572185-5.058342-.011156-13.62228-.017284-13.62228-.017284-4.426267,0-8.014465-3.588198-8.014465-8.014465v-15.415527c0-4.3035,3.488676-7.792175,7.792175-7.792175h26.32373c.841003,4.264648,5.186218,7.527344,10.418274,7.527344.552246,0,1-.447754,1-1s-.447754-1-1-1c-4.729004,0-8.57666-3.152344-8.57666-7.027344s3.847656-7.027344,8.57666-7.027344c.552246,0,1-.447754,1-1s-.447754-1-1-1c-5.232056,0-9.577271,3.262695-10.418274,7.527344h-26.10144c-4.426267,0-8.014465-3.588198-8.014465-8.014465v-8.082275c0-3.935264,3.190163-7.125425,7.125427-7.125422l6.141672.000004c1.487574.000001,2.920423.644742,3.842787,1.811841,1.294075,1.637437,3.30241,2.682826,5.557428,2.659956,3.591447-.036425,6.875433-3.304887,6.927166-6.896146.056373-3.913394-3.098928-7.103247-6.999204-7.103247-2.912474,0-5.404498,1.780003-6.456946,4.3109-.559476,1.345411-1.877576,2.216685-3.334677,2.216685h-3.900271c-4.917203.000002-8.903386-3.986175-8.903392-8.903378v-.000061c-.000005-4.040171,3.442523-7.22558,7.469299-6.896857,1.467095.119765,3.0376.145121,4.60847-.034112,1.380005-.150024,2.640015-.380005,3.779968-.720032,1.170044.72998,2.75,1.119995,4.880005,1.119995,7.910034,0,12.590027-3.369995,12.590027-12.460022,0-8.839966-4.440002-15.909973-11.98999-16.259949v-.02002c7.769958-.070007,12.349976-3.470032,12.349976-12.450012,0-8.98999-4.580017-16.140015-12.349976-16.279968v-.01001h.109985c7.919983,0,12.599976-3.369995,12.599976-12.450012,0-9.090027-4.679993-16.299988-12.599976-16.299988h-.109985v-.01001c.149963.01001.309998.01001.469971.01001,7.910034,0,12.590027-3.359985,12.590027-12.440002s-4.679993-16.299988-12.590027-16.299988c-.159973,0-.320007,0-.469971.009949v-.029968c.26001.01001.539978.02002.829956.02002,7.910034,0,12.590027-3.369995,12.590027-12.440002,0-9.080017-4.679993-16.309998-12.590027-16.309998-.289978,0-.559998.009949-.829956.029968v-.080017c.369995.040039.769958.050049,1.179993.050049,7.919983,0,12.599976-3.360046,12.599976-12.429993,0-9.080017-4.679993-16.310059-12.599976-16.310059-.419983,0-.809998.02002-1.179993.050049v-.130005c.47998.049988.98999.079956,1.539978.079956,7.919983,0,12.590027-3.349976,12.590027-12.439941,0-9.070007-4.670044-16.290039-12.590027-16.290039-1.969971,0-3.469971.330017-4.619995.960022-1.210022-.619995-2.559998-.960022-4.039978-.960022-6.340027,0-9.369995.720032-10.660034,2.100037-1.579956-1.340027-3.51001-2.100037-5.72998-2.100037-7.640015,0-10.470032,1.049988-11.25,3.01001-2.02002-1.909973-4.619995-3.01001-7.720032-3.01001-2.690002,0-4.5.609985-5.72998,1.77002-1.219971-1.160034-3.029968-1.77002-5.719971-1.77002-7.910034,0-12.590027,7.220032-12.590027,16.299988,0,8.790039,4.390015,12.220032,11.849976,12.429993.130005.01001.26001.01001.390015.01001-.130005,0-.26001,0-.390015.01001-7.679993.22998-12.209961,7.359985-12.209961,16.290039,0,8.929993,4.529968,12.329956,12.209961,12.439941-7.899963.02002-12.559998,7.230042-12.559998,16.300049,0,8.940002,4.530029,12.339966,12.230042,12.440002h.329956v.009949c-.109985-.009949-.219971-.009949-.329956-.009949-7.910034,0-12.590027,7.219971-12.590027,16.299988,0,8.940002,4.540039,12.339966,12.230042,12.440002h.359985c.109985,0,.219971,0,.329956-.01001v.029968c-.219971-.019958-.449951-.019958-.689941-.019958-7.910034,0-12.590027,7.219971-12.590027,16.299988,0,8.940002,4.539978,12.349976,12.23999,12.450012h.350037c.23999,0,.469971,0,.689941-.02002v.059998c-.329956-.029968-.679993-.039978-1.039978-.039978-7.919983,0-12.599976,7.209961-12.599976,16.289978,0,8.940002,4.539978,12.340027,12.23999,12.450012h.359985c.359985,0,.710022-.01001,1.039978-.039978v.109985c-.439941-.049988-.899963-.070007-1.399963-.070007-7.919983,0-12.590027,7.210022-12.590027,16.289978,0,9.080017,4.670044,12.450012,12.590027,12.450012,2.690002,0,4.5-.609985,5.719971-1.77002,1.220032,1.160034,3.030029,1.77002,5.720032,1.77002,4.109985,0,7.349976-.909973,9.5-3.059998.221292.456742.503545.865092.861532,1.220228,2.361156,2.342355,3.930611,5.360171,3.930686,8.686082l.000019.824708c0,4.287598-3.47583,7.763428-7.763428,7.763428,0,0-4.080507.021637-6.76432.060948-1.270922.018616-2.382716-.748144-2.920984-1.899603-1.556152-3.328914-5.363611-5.688689-9.812987-5.688689-.552246,0-1,.447754-1,1s.447754,1,1,1c4.729004,0,8.57666,3.152344,8.57666,7.027344s-3.847656,7.027344-8.57666,7.027344c-.552246,0-1,.447754-1,1s.447754,1,1,1c4.530032,0,8.394554-2.446065,9.895373-5.870536.462828-1.056052,1.498572-1.739459,2.651463-1.722138,2.799731.042062,7.396035.065331,7.396035.065331,4.042114,0,7.318848,3.276733,7.318848,7.318787v7.02887c0,4.901245-3.973267,8.874512-8.874512,8.874512,0,0-16.674683.006775-23.148376.012451-1.35376.001221-2.591858-.733582-3.250854-1.916138-1.366061-2.451451-4.161158-3.996873-7.260595-3.505248-2.837734.450114-5.169129,2.68291-5.717436,5.503318-.87139,4.482292,2.537766,8.405494,6.863102,8.405494,2.615112,0,4.893372-1.434814,6.094238-3.559692.679932-1.203064,1.940369-1.953857,3.322266-1.952637,6.590759.005676,23.542236.012451,23.542236.012451,4.655701,0,8.429932,3.774231,8.429932,8.429932v14.806641c0,4.410323-3.575273,7.985595-7.985596,7.985595h-13.868469c-1.475388-.000002-2.78089-.900738-3.361795-2.256953-1.098114-2.563726-3.679999-4.339007-6.668897-4.239046-3.657721.12233-6.695964,3.214351-6.758594,6.873581-.067128,3.922015,3.092022,7.122357,6.998637,7.122357,2.350464,0,4.425903-1.160645,5.693481-2.938599.680786-.954895,1.730164-1.574768,2.902954-1.573425,4.855591.005493,16.618286.012085,16.618286.012085,3.551208,0,6.429993,2.878784,6.429993,6.429993,0,0,.012155,7.859862.023993,12.883374.005318,2.256494-1.253625,4.333897-3.276089,5.334614-10.46696,5.179062-18.091226,21.124984-18.091226,39.999541,0,19.584024,8.208783,36.010462,19.284093,40.532153,1.834161.748828,3.087598,2.464207,3.087601,4.445341l.00001,7.15422c0,1.764099-1.422607,3.187927-3.186707,3.194641-3.34845.012634-8.52594.036133-11.442566.068787-1.208008.01355-2.274902-.710815-2.770996-1.812439-1.524292-3.384583-5.365051-5.794495-9.86145-5.794495-.552246,0-1,.447754-1,1s.447754,1,1,1c4.729004,0,8.57666,3.152344,8.57666,7.027344s-3.847656,7.027344-8.57666,7.027344c-.552246,0-1,.447754-1,1s.447754,1,1,1c4.404114,0,8.179138-2.312012,9.764465-5.587341.586426-1.21167,1.750183-2.031433,3.096252-2.017151,3.081116.032776,8.392029.055969,11.631531.067871,1.532532.005676,2.769409,1.245422,2.76947,2.777954,0,4.351624-.000061,12.765137-.000061,17.327942,0,1.728333-1.401062,3.125549-3.129395,3.125549,0,0-21.579529.007141-28.971069.012939-1.304688.001038-2.512695-.69989-3.134766-1.846741-1.348877-2.486909-4.159025-4.065186-7.280578-3.577673-2.84609.444492-5.187478,2.680023-5.736281,5.507852-.869777,4.48172,2.538884,8.4035,6.863478,8.4035,2.664978,0,4.980103-1.490051,6.161743-3.681946.614929-1.140625,1.82251-1.831909,3.118347-1.830933,7.484985.005798,29.608887.013,29.608887.013,1.380493,0,2.499634,1.113342,2.499634,2.493835.000061,5.292358,0,17.705322,0,24.349365,0,2.420288-1.962036,4.378967-4.382263,4.378906l-17.879944-.000264c-1.228943-.000018-2.387849-.721617-2.804743-1.877689-.997201-2.765295-3.682855-4.722101-6.816398-4.61802-3.503291.116363-6.69542,3.362085-6.759283,6.866727-.071527,3.925211,3.089162,7.129245,6.997978,7.129245,2.147034,0,4.064514-.968323,5.346497-2.491089,1.041748-1.237305,2.518188-2.021912,4.135681-2.020447,6.013489.005432,19.144287.011597,19.144287.011597,1.666931,0,3.018188,1.348877,3.01825,3.015808v34.980225c-.000061,1.580078-1.270874,2.859558-2.850891,2.865417-3.062584.011304-7.906912.032516-11.010859.062223-1.563806.014967-3.018278-.82837-3.738036-2.216773-1.641486-3.166405-5.350245-5.382315-9.661932-5.382315-.552246,0-1,.447754-1,1s.447754,1,1,1c4.729004,0,8.57666,3.152344,8.57666,7.027344s-3.847656,7.027344-8.57666,7.027344c-.552246,0-1,.447754-1,1s.447754,1,1,1c4.388771,0,8.152908-2.295903,9.747864-5.553131.635904-1.298647,2.014081-2.062142,3.45999-2.047806,3.117156.030906,8.15419.052774,11.275728.064255,1.538879.005676,2.778137,1.251465,2.778137,2.790344,0,4.140381-.000061,11.938232-.000061,16.614075,0,2.116943-1.716125,3.827087-3.833069,3.827087,0,0-22.353882.007568-28.922241.013428-.992493.000854-1.875549-.587952-2.297485-1.486328-1.320875-2.812649-4.456323-4.603296-7.900615-3.857198-2.725459.590386-4.766375,2.687717-5.298291,5.425189-.870926,4.482166,2.538062,8.404787,6.86309,8.404787,2.518372,0,4.724304-1.330627,5.956604-3.326721.813843-1.318359,2.184875-2.186951,3.734192-2.185791,7.766602.005676,28.716675.012634,28.716675.012634,1.646423,0,2.98114,1.330627,2.981201,2.977112v24.440796c0,2.101035-1.703225,3.80426-3.80426,3.80426h-20.18811c-.410034,0-.786865-.212646-.99231-.567444-.927307-1.601257-3.78009-6.032776-6.89978-5.928589-3.657715.122131-6.696045,3.213928-6.758972,6.873108-.067444,3.922241,3.091919,7.122864,6.998718,7.122864,2.98999,0,6.729797-4.381653,6.784424-4.381653l21.934631-.118286c1.615784,0,2.925598,1.307373,2.925659,2.923157v6.385077c0,1.817203-1.751582,3.154222-3.487948,2.618255-.723239-.223243-1.452143-.416987-2.187772-.57749-2.332947-.525452-4.712036-.747559-7.062805-.663086-1.174927.060486-2.345093.149719-3.500061.348206-1.15332.203735-2.288208.483093-3.407104.808472-1.116882.333862-2.208435.747498-3.264709,1.236145-.535461.2323-1.02179.55249-1.612671.685608-.598999.124451-1.253723.156006-2.159363-.124207l-.388-.121094c-.544099-.164999-1.137082-.221545-1.754196-.143805-1.807351.227677-3.291429,1.699764-3.551097,3.502797-.371771,2.581432,1.665122,4.833519,4.245999,4.7481,2.15236-.071237,3.889315-1.888431,3.997064-4.039272.04255-.849376.347414-1.363416.720678-1.759897.386658-.40033.90448-.563171,1.382507-.791748.973694-.426941,1.977661-.78418,3.000366-1.067383,2.044922-.578918,4.178223-.774231,6.279236-.69873,1.051575.072449,2.093506.200989,3.118225.406555,1.021973.223877,2.019348.535156,2.988403.901917.670433.265166,1.644424.798073,2.641449,1.381281,2.476721,1.448754,4.001821,4.101671,4.001802,6.970998l-.000002.23665c0,.412659-1.052917,8.250183-1.03125,11.918884.026855,4.430176.051758,8.614258-2.003418,11.905762-2.17627,3.48584-6.203125,5.205566-10.466309,7.025879-4.459961,1.904297-9.072266,3.874023-11.774414,8.07959-1.427246,2.221191-2.067871,4.717285-2.6875,7.131348-.20697.806274-.90625,3.06012-.978638,3.402405-1.307843,3.791749-3.650482,7.189857-6.70506,9.777225-.757496.641634-1.755981.926902-2.738303.783588l-2.490089-.363288c-1.219236-.177879-2.06558,1.181802-1.367696,2.19725l4.213745,6.131165c.697754,1.015259,2.270081.712524,2.540955-.489258l1.404175-5.27124c.16333-.928467,4.55072-5.276917,6.768494-9.111267.483093-.835266,1.620544-.99353,2.295044-.303467,1.597107,1.634033,3.984619,4.391235,4.343994,6.591125.398438,2.4375-.010254,4.940918-.443359,7.59082-.209961,1.285156-.427246,2.61377-.547852,3.94873-.26636,2.935635,1.093348,6.45911,2.153386,8.693594.720452,1.51866.819704,3.252.279361,4.843669l-.661257,1.94784c-.396092,1.166754.787488,2.245722,1.912714,1.743657l6.793213-3.031067c1.125272-.502086,1.112817-2.103683-.020127-2.588207l-1.230304-.526163c-1.54574-.661064-2.824581-1.812962-3.64528-3.280195-1.218553-2.178509-2.786356-5.415193-2.5944-7.53262.111328-1.227539.310547-2.445801.520996-3.735352.453125-2.771484.921387-5.637207.443848-8.558594-.587219-3.595459-5.228088-8.089966-7.058411-9.741943-.449646-.405823-.633728-1.024536-.480469-1.610535.066833-.255371.132324-.509521.197083-.76178.585938-2.28418,1.140137-4.441895,2.305176-6.255371,1.163391-1.810364,4.276245-3.802063,6.159485-4.896484,1.51593-.881104,3.467346-.401306,4.371582,1.100952.406372.675232.702515,1.458984.849304,2.23645.216309,1.143555.246582,2.337402.278809,3.601562.038574,1.515625.078613,3.083008.453613,4.654785.987305,4.143555,3.9375,7.172363,6.790527,10.101074.339844.349121.678223.696289,1.01123,1.043457,2.336623,2.438305,3.821473,4.608311,4.519282,6.625851.477362,1.380172.229567,2.906485-.611432,4.100416l-1.875145,2.662066c-.709556,1.007328.121021,2.37669,1.342233,2.212925l7.372861-.988708c1.221262-.163772,1.661725-1.703649.711795-2.488465l-2.303162-1.902832c-.751892-.621277-1.334473-1.419373-1.700745-2.323364-1.032898-2.549011-3.364075-7.963928-5.289673-9.973083-.338867-.353516-.682617-.707031-1.02832-1.061523-2.568848-2.637695-5.226074-5.364746-6.021484-8.703125-.301758-1.266602-.335938-2.611816-.372559-4.036133-.033691-1.327637-.068848-2.700195-.32959-4.081543-.246277-1.303772-.799438-2.624023-1.595154-3.739258-.585693-.820862-.36969-1.959106.524475-2.425293,2.629761-1.370911,7.262939-4.069336,9.004272-6.858398,2.515137-4.028809,2.486328-8.850098,2.458496-13.512207-.013123-2.212891-.023804-4.368652.235229-6.361084.102356-.787598.541717-3.469796,3.109003-3.10092,1.50124.215703,2.543219,1.819121,2.861761,2.632598.71051,1.814453,1.7276,4.639343,1.887756,6.313782.080566.842773.139648,1.695801.199219,2.550781.260254,3.729004.529297,7.584961,2.488281,10.97168,1.712429,2.960837,4.351502,4.946253,7.137166,6.68307.680515.42429.877857,1.327631.430739,1.99337-.890399,1.325765-2.195088,3.49424-2.502964,5.221509-.431641,2.418457-.271484,4.831055-.116699,7.163574.029785.445312.059082.890137.084473,1.333984.48291,8.50293-.613281,16.918457-3.258301,25.01416-.03772.115479-4.186951,3.139465-4.186951,3.139465-1.019897.690857-.727722,2.265259.472168,2.544189l7.246948,1.684814c1.19989.278992,2.156616-1.005005,1.546082-2.074951,0,0-2.255798-4.272766-2.226685-4.361877,2.761719-8.452148,3.90625-17.23877,3.401855-26.116211-.025879-.453125-.055664-.907227-.085938-1.361816-.149414-2.25293-.290527-4.380371.076172-6.438965.26618-1.492935.826703-2.80643,1.594151-3.815558.739616-.972532,2.135359-1.148359,3.141163-.454665,1.252285.86369,2.956191,2.107845,3.840369,3.053427,2.146179,2.295166,3.431641,5.165466,4.470398,8.297241.00592.02179.014282.042908.02124.064575.487732,1.477112.926453,3.006531,1.36676,4.570312.958075,3.402366,3.588642,8.960428,4.859583,11.557386.463215.946503.666454,1.996927.594877,3.048266l-.199277,2.927008c-.083694,1.229304,1.336964,1.968729,2.295842,1.194941l5.789001-4.67157c.958867-.77378.536219-2.318557-.683014-2.496413l-2.443509-.356448c-1.57866-.230288-2.93011-1.241308-3.600749-2.688873-1.16589-2.516557-2.940996-6.542779-3.725059-9.327772-.123905-.440163-.248979-.881433-.376036-1.323133-.247937-.86193.53705-1.665083,1.404978-1.43904,1.220247.317801,2.625413.71802,3.015491.966763.728027.463379,1.426758.981445,2.166016,1.529297,1.509766,1.118652,3.070312,2.275391,4.945801,2.987305,2.662598,1.010742,5.428711.935547,8.104004.863281,1.566406-.042969,3.046387-.08252,4.486816.083496,3.942621.454772,9.549728,4.201894,12.530445,6.385794,1.2758.934748,1.987644,2.450701,1.880198,4.028635l-.158569,2.328737c-.083707,1.22931,1.336961,1.968743,2.295838,1.194945l5.789001-4.671631c.958858-.773783.536204-2.318552-.683025-2.496403Z" fill="#fbf06d" stroke="#645f2b" stroke-linejoin="round"/><path d="M43.326173,91.711317c0,9.082016-.336375,14.37037-8.250837,14.37037s-12.593383-3.362429-12.593383-12.444444,4.678921-16.296296,12.593383-16.296296,8.250837,5.288354,8.250837,14.37037Z" fill="#f8ebab" stroke="#9d8b38" stroke-linejoin="round" stroke-width=".942469"/><path d="M33.268625,91.58493c0,8.958892,2.395287,15.497275-10.022944,14.079939-6.773345-.773066-10.828452-3.316845-10.828452-12.275737s4.023182-16.075369,10.828452-16.075369c17.1479,0,10.022944,5.312275,10.022944,14.271167Z" fill="#f8ebab" stroke="#9d8b38" stroke-linejoin="round" stroke-width=".86799"/><path d="M33.26145,117.416161c0,9.082016-.336375,14.37037-8.250837,14.37037s-12.593383-3.362429-12.593383-12.444444,4.678921-16.296296,12.593383-16.296296,8.250837,5.288354,8.250837,14.37037Z" fill="#f8ebab" stroke="#9d8b38" stroke-linejoin="round" stroke-width=".942469"/><path d="M33.26145,144.331121c0,9.082016-.336375,14.37037-8.250837,14.37037s-12.593383-3.362429-12.593383-12.444444,4.678921-16.296296,12.593383-16.296296,8.250837,5.288354,8.250837,14.37037Z" fill="#f8ebab" stroke="#9d8b38" stroke-linejoin="round" stroke-width=".942469"/><path d="M33.26145,173.071862c0,9.082016-.336375,14.37037-8.250837,14.37037s-12.593383-3.362429-12.593383-12.444444,4.678921-16.296296,12.593383-16.296296,8.250837,5.288354,8.250837,14.37037Z" fill="#f8ebab" stroke="#9d8b38" stroke-linejoin="round" stroke-width=".942469"/><path d="M33.26145,199.738528c0,9.082016-.336375,14.37037-8.250837,14.37037s-12.593383-3.362429-12.593383-12.444444,4.678921-16.296296,12.593383-16.296296,8.250837,5.288354,8.250837,14.37037Z" fill="#f8ebab" stroke="#9d8b38" stroke-linejoin="round" stroke-width=".942469"/><path d="M33.26145,232.182973c0,9.082016-.336375,14.37037-8.250837,14.37037s-12.593383-3.362429-12.593383-12.444444,4.678921-16.296296,12.593383-16.296296,8.250837,5.288354,8.250837,14.37037Z" fill="#f8ebab" stroke="#9d8b38" stroke-linejoin="round" stroke-width=".942469"/><path d="M93.356368,67.001454c-.539146-1.238281-1.258327-2.369019-2.137591-3.334717-1.772545-1.946716-2.808895-4.535095-2.808895-7.265076v-11.529602c0-2.179504-1.463913-4.148193-3.473416-4.353271-2.276589-.2323-4.210064,1.716614-4.210064,4.129639v13.610779c0,.992126-.744901,1.796448-1.663789,1.796448h-1.062973c-.918888,0-1.663733-.804321-1.663733-1.796448V5.617787c0-2.356995-1.446672-4.539795-3.585055-5.013367-2.897302-.641724-5.470426,1.762878-5.470426,4.784729v52.296143c0,1.309082-.982876,2.370361-2.195248,2.370361-1.212428,0-2.195248-1.061279-2.195248-2.370361v-15.623047c0-2.356934-1.446559-4.539734-3.584829-5.013428-2.897302-.641907-5.470539,1.762695-5.470539,4.784668v15.259216c0,1.636414-1.228595,2.962952-2.744059,2.962952-1.515521,0-2.744059-1.326538-2.744059-2.962952V22.506642c0-2.356934-1.446729-4.539612-3.585055-5.013123-2.897358-.641541-5.470426,1.762451-5.470426,4.784302v34.353943c0,1.890991-1.419709,3.423889-3.170944,3.423889-1.734447,0-3.14042-1.518188-3.14042-3.39093v-18.158264c0-2.356873-1.446729-4.53949-3.585055-5.012939-2.897302-.641479-5.470313,1.762451-5.470313,4.784302l-.000057,15.376953c0,3.570312-1.579339,6.869385-4.139237,9.129211-1.305696,1.152588-2.356912,2.622681-3.071006,4.292297" fill="#faf079" stroke="#645f2b" stroke-linejoin="round"/><path d="M33.26145,77.537111c0,9.082016-.336375,14.37037-8.250837,14.37037s-12.593383-3.362429-12.593383-12.444444,4.678921-16.296296,12.593383-16.296296,8.250837,5.288354,8.250837,14.37037Z" fill="#f8ebab" stroke="#9d8b38" stroke-linejoin="round" stroke-width=".942469"/><path d="M58.70046,91.711317c0,9.082016-.336375,14.37037-8.250837,14.37037s-12.593383-3.362429-12.593383-12.444444,4.678921-16.296296,12.593383-16.296296,8.250837,5.288354,8.250837,14.37037Z" fill="#f8ebab" stroke="#9d8b38" stroke-linejoin="round" stroke-width=".942469"/><path d="M33.26145,77.537111c0,9.082016.336375,14.37037,8.250837,14.37037s12.593383-3.362429,12.593383-12.444444-4.678921-16.296296-12.593383-16.296296-8.250837,5.288354-8.250837,14.37037Z" fill="#f8ebab" stroke="#9d8b38" stroke-linejoin="round" stroke-width=".942469"/><path d="M55.096044,91.711317c0,9.082016.336375,14.37037,8.250837,14.37037s12.593383-3.362429,12.593383-12.444444-4.678921-16.296296-12.593383-16.296296-8.250837,5.288354-8.250837,14.37037Z" fill="#f8ebab" stroke="#9d8b38" stroke-linejoin="round" stroke-width=".942469"/><path d="M77.660851,94.816991c0,8.958892-2.395287,15.497275,10.022944,14.079939,6.773345-.773066,10.828452-3.316845,10.828452-12.275737s-4.023182-16.075369-10.828452-16.075369c-17.1479,0-10.022944,5.312275-10.022944,14.271167Z" fill="#f8ebab" stroke="#9d8b38" stroke-linejoin="round" stroke-width=".86799"/><path d="M77.288026,77.537111c0,9.082016.336375,14.37037,8.250837,14.37037s12.593383-3.362429,12.593383-12.444444-4.678921-16.296296-12.593383-16.296296-8.250837,5.288354-8.250837,14.37037Z" fill="#f8ebab" stroke="#9d8b38" stroke-linejoin="round" stroke-width=".942469"/><path d="M50.664181,77.437895c0,8.958892-2.727358,15.497275,11.412476,14.079939,7.712368-.773066,12.329656-3.316845,12.329656-12.275737s-4.580936-16.075369-12.329656-16.075369c-19.5252,0-11.412476,5.312275-11.412476,14.271167Z" fill="#f8ebab" stroke="#9d8b38" stroke-linejoin="round" stroke-width=".926205"/><path d="M66.85874,77.437908c0,8.958892-2.395287,15.497275,10.022944,14.079939,6.773345-.773066,10.828452-3.316845,10.828452-12.275737s-4.023182-16.075369-10.828452-16.075369c-17.1479,0-10.022944,5.312275-10.022944,14.271167Z" fill="#f8ebab" stroke="#9d8b38" stroke-linejoin="round" stroke-width=".86799"/><path d="M23.569552,124.25047c0,8.958892-2.395287,15.497275,10.022944,14.079939,6.773345-.773066,10.828452-3.316845,10.828452-12.275737s-4.023182-16.075369-10.828452-16.075369c-17.1479,0-10.022944,5.312275-10.022944,14.271167Z" fill="#f8ebab" stroke="#9d8b38" stroke-linejoin="round" stroke-width=".86799"/><path d="M42.984224,123.361581c0,8.958892-2.395287,15.497275,10.022944,14.079939,6.773345-.773066,10.828452-3.316845,10.828452-12.275737s-4.023182-16.075369-10.828452-16.075369c-17.1479,0-10.022944,5.312275-10.022944,14.271167Z" fill="#f8ebab" stroke="#9d8b38" stroke-linejoin="round" stroke-width=".86799"/><path d="M32.904063,106.277852c0,9.082016-.336375,14.37037-8.250837,14.37037s-12.593383-3.362429-12.593383-12.444444,4.678921-16.296296,12.593383-16.296296,8.250837,5.288354,8.250837,14.37037Z" fill="#f8ebab" stroke="#9d8b38" stroke-linejoin="round" stroke-width=".942469"/><path d="M32.904063,106.277852c0,9.082016.336375,14.37037,8.250837,14.37037s12.593383-3.362429,12.593383-12.444444-4.678921-16.296296-12.593383-16.296296-8.250837,5.288354-8.250837,14.37037Z" fill="#f8ebab" stroke="#9d8b38" stroke-linejoin="round" stroke-width=".942469"/><path d="M77.288026,120.648222c0,9.082016.336375,14.37037,8.250837,14.37037s12.593383-3.362429,12.593383-12.444444-4.678921-16.296296-12.593383-16.296296-8.250837,5.288354-8.250837,14.37037Z" fill="#f8ebab" stroke="#9d8b38" stroke-linejoin="round" stroke-width=".942469"/><path d="M76.930639,106.277852c0,9.082016.336375,14.37037,8.250837,14.37037s12.593383-3.362429,12.593383-12.444444-4.678921-16.296296-12.593383-16.296296-8.250837,5.288354-8.250837,14.37037Z" fill="#f8ebab" stroke="#9d8b38" stroke-linejoin="round" stroke-width=".942469"/><path d="M56.563644,122.438961c0,8.958892-2.395287,15.497275,10.022944,14.079939,6.773345-.773066,10.828452-3.316845,10.828452-12.275737s-4.023182-16.075369-10.828452-16.075369c-17.1479,0-10.022944,5.312275-10.022944,14.271167Z" fill="#f8ebab" stroke="#9d8b38" stroke-linejoin="round" stroke-width=".86799"/><path d="M66.501353,106.178649c0,8.958892-2.395287,15.497275,10.022944,14.079939,6.773345-.773066,10.828452-3.316845,10.828452-12.275737s-4.023182-16.075369-10.828452-16.075369c-17.1479,0-10.022944,5.312275-10.022944,14.271167Z" fill="#f8ebab" stroke="#9d8b38" stroke-linejoin="round" stroke-width=".86799"/><path d="M50.103337,106.178649c0,8.958892-2.395287,15.497275,10.022944,14.079939,6.773345-.773066,10.828452-3.316845,10.828452-12.275737s-4.023182-16.075369-10.828452-16.075369c-17.1479,0-10.022944,5.312275-10.022944,14.271167Z" fill="#f8ebab" stroke="#9d8b38" stroke-linejoin="round" stroke-width=".86799"/><path d="M23.569552,149.387836c0,8.958892-2.395287,15.497275,10.022944,14.079939,6.773345-.773066,10.828452-3.316845,10.828452-12.275737s-4.023182-16.075369-10.828452-16.075369c-17.1479,0-10.022944,5.312275-10.022944,14.271167Z" fill="#f8ebab" stroke="#9d8b38" stroke-linejoin="round" stroke-width=".86799"/><path d="M22.497391,206.869317c0,8.958892-2.395287,15.497275,10.022944,14.079939,6.773345-.773066,10.828452-3.316845,10.828452-12.275737s-4.023182-16.075369-10.828452-16.075369c-17.1479,0-10.022944,5.312275-10.022944,14.271167Z" fill="#f8ebab" stroke="#9d8b38" stroke-linejoin="round" stroke-width=".86799"/><path d="M22.140004,235.413907c0,8.958892-2.395287,15.497275,10.022944,14.079939,6.773345-.773066,10.828452-3.316845,10.828452-12.275737s-4.023182-16.075369-10.828452-16.075369c-17.1479,0-10.022944,5.312275-10.022944,14.271167Z" fill="#f8ebab" stroke="#9d8b38" stroke-linejoin="round" stroke-width=".86799"/><path d="M37.156904,235.413907c0,8.958892-2.395287,15.497275,10.022944,14.079939,6.773345-.773066,10.828452-3.316845,10.828452-12.275737s-4.023182-16.075369-10.828452-16.075369c-17.1479,0-10.022944,5.312275-10.022944,14.271167Z" fill="#f8ebab" stroke="#9d8b38" stroke-linejoin="round" stroke-width=".86799"/><path d="M39.301222,206.967393c0,8.958892-2.395287,15.497275,10.022944,14.079939,6.773345-.773066,10.828452-3.316845,10.828452-12.275737s-4.023182-16.075369-10.828452-16.075369c-17.1479,0-10.022944,5.312275-10.022944,14.271167Z" fill="#f8ebab" stroke="#9d8b38" stroke-linejoin="round" stroke-width=".86799"/><path d="M56.563644,206.967393c0,8.958892-2.395287,15.497275,10.022944,14.079939,6.773345-.773066,10.828452-3.316845,10.828452-12.275737s-4.023182-16.075369-10.828452-16.075369c-17.1479,0-10.022944,5.312275-10.022944,14.271167Z" fill="#f8ebab" stroke="#9d8b38" stroke-linejoin="round" stroke-width=".86799"/><path d="M69.026374,208.078504c0,8.958892-2.395287,15.497275,10.022944,14.079939,6.773345-.773066,10.828452-3.316845,10.828452-12.275737s-4.023182-16.075369-10.828452-16.075369c-17.1479,0-10.022944,5.312275-10.022944,14.271167Z" fill="#f8ebab" stroke="#9d8b38" stroke-linejoin="round" stroke-width=".86799"/><path d="M40.84832,149.387836c0,8.958892-2.395287,15.497275,10.022944,14.079939,6.773345-.773066,10.828452-3.316845,10.828452-12.275737s-4.023182-16.075369-10.828452-16.075369c-17.1479,0-10.022944,5.312275-10.022944,14.271167Z" fill="#f8ebab" stroke="#9d8b38" stroke-linejoin="round" stroke-width=".86799"/><path d="M55.699242,149.191685c0,8.958892-2.395287,15.497275,10.022944,14.079939,6.773345-.773066,10.828452-3.316845,10.828452-12.275737s-4.023182-16.075369-10.828452-16.075369c-17.1479,0-10.022944,5.312275-10.022944,14.271167Z" fill="#f8ebab" stroke="#9d8b38" stroke-linejoin="round" stroke-width=".86799"/><path d="M69.026374,149.387836c0,8.958892-2.395287,15.497275,10.022944,14.079939,6.773345-.773066,10.828452-3.316845,10.828452-12.275737s-4.023182-16.075369-10.828452-16.075369c-17.1479,0-10.022944,5.312275-10.022944,14.271167Z" fill="#f8ebab" stroke="#9d8b38" stroke-linejoin="round" stroke-width=".86799"/><path d="M32.546676,135.018593c0,9.082016-.336375,14.37037-8.250837,14.37037s-12.593383-3.362429-12.593383-12.444444,4.678921-16.296296,12.593383-16.296296,8.250837,5.288354,8.250837,14.37037Z" fill="#f8ebab" stroke="#9d8b38" stroke-linejoin="round" stroke-width=".942469"/><path d="M32.546676,135.018593c0,9.082016.336375,14.37037,8.250837,14.37037s12.593383-3.362429,12.593383-12.444444-4.678921-16.296296-12.593383-16.296296-8.250837,5.288354-8.250837,14.37037Z" fill="#f8ebab" stroke="#9d8b38" stroke-linejoin="round" stroke-width=".942469"/><path d="M77.288026,147.563182c0,9.082016.336375,14.37037,8.250837,14.37037s12.593383-3.362429,12.593383-12.444444-4.678921-16.296296-12.593383-16.296296-8.250837,5.288354-8.250837,14.37037Z" fill="#f8ebab" stroke="#9d8b38" stroke-linejoin="round" stroke-width=".942469"/><path d="M76.573252,176.303923c0,9.082016.336375,14.37037,8.250837,14.37037s12.593383-3.362429,12.593383-12.444444-4.678921-16.296296-12.593383-16.296296-8.250837,5.288354-8.250837,14.37037Z" fill="#f8ebab" stroke="#9d8b38" stroke-linejoin="round" stroke-width=".942469"/><path d="M76.573252,135.018593c0,9.082016.336375,14.37037,8.250837,14.37037s12.593383-3.362429,12.593383-12.444444-4.678921-16.296296-12.593383-16.296296-8.250837,5.288354-8.250837,14.37037Z" fill="#f8ebab" stroke="#9d8b38" stroke-linejoin="round" stroke-width=".942469"/><path d="M49.74595,134.91939c0,8.958892-2.395287,15.497275,10.022944,14.079939,6.773345-.773066,10.828452-3.316845,10.828452-12.275737s-4.023182-16.075369-10.828452-16.075369c-17.1479,0-10.022944,5.312275-10.022944,14.271167Z" fill="#f8ebab" stroke="#9d8b38" stroke-linejoin="round" stroke-width=".86799"/><path d="M66.143966,134.91939c0,8.958892-2.395287,15.497275,10.022944,14.079939,6.773345-.773066,10.828452-3.316845,10.828452-12.275737s-4.023182-16.075369-10.828452-16.075369c-17.1479,0-10.022944,5.312275-10.022944,14.271167Z" fill="#f8ebab" stroke="#9d8b38" stroke-linejoin="round" stroke-width=".86799"/><path d="M22.854778,182.037689c0,8.958892-2.395287,15.497275,10.022944,14.079939,6.773345-.773066,10.828452-3.316845,10.828452-12.275737s-4.023182-16.075369-10.828452-16.075369c-17.1479,0-10.022944,5.312275-10.022944,14.271167Z" fill="#f8ebab" stroke="#9d8b38" stroke-linejoin="round" stroke-width=".86799"/><path d="M32.189289,163.759334c0,9.082016-.336375,14.37037-8.250837,14.37037s-12.593383-3.362429-12.593383-12.444444,4.678921-16.296296,12.593383-16.296296,8.250837,5.288354,8.250837,14.37037Z" fill="#f8ebab" stroke="#9d8b38" stroke-linejoin="round" stroke-width=".942469"/><path d="M40.84832,182.037689c0,8.958892-2.395287,15.497275,10.022944,14.079939,6.773345-.773066,10.828452-3.316845,10.828452-12.275737s-4.023182-16.075369-10.828452-16.075369c-17.1479,0-10.022944,5.312275-10.022944,14.271167Z" fill="#f8ebab" stroke="#9d8b38" stroke-linejoin="round" stroke-width=".86799"/><path d="M32.189289,163.759334c0,9.082016.336375,14.37037,8.250837,14.37037s12.593383-3.362429,12.593383-12.444444-4.678921-16.296296-12.593383-16.296296-8.250837,5.288354-8.250837,14.37037Z" fill="#f8ebab" stroke="#9d8b38" stroke-linejoin="round" stroke-width=".942469"/><path d="M76.215865,163.759334c0,9.082016.336375,14.37037,8.250837,14.37037s12.593383-3.362429,12.593383-12.444444-4.678921-16.296296-12.593383-16.296296-8.250837,5.288354-8.250837,14.37037Z" fill="#f8ebab" stroke="#9d8b38" stroke-linejoin="round" stroke-width=".942469"/><path d="M57.866876,183.593245c0,8.958892-2.395287,15.497275,10.022944,14.079939,6.773345-.773066,10.828452-3.316845,10.828452-12.275737s-4.023182-16.075369-10.828452-16.075369c-17.1479,0-10.022944,5.312275-10.022944,14.271167Z" fill="#f8ebab" stroke="#9d8b38" stroke-linejoin="round" stroke-width=".86799"/><path d="M49.388563,163.660131c0,8.958892-2.395287,15.497275,10.022944,14.079939,6.773345-.773066,10.828452-3.316845,10.828452-12.275737s-4.023182-16.075369-10.828452-16.075369c-17.1479,0-10.022944,5.312275-10.022944,14.271167Z" fill="#f8ebab" stroke="#9d8b38" stroke-linejoin="round" stroke-width=".86799"/><path d="M65.786579,163.660131c0,8.958892-2.395287,15.497275,10.022944,14.079939,6.773345-.773066,10.828452-3.316845,10.828452-12.275737s-4.023182-16.075369-10.828452-16.075369c-17.1479,0-10.022944,5.312275-10.022944,14.271167Z" fill="#f8ebab" stroke="#9d8b38" stroke-linejoin="round" stroke-width=".86799"/><path d="M31.831902,192.500074c0,9.082016-.336375,14.37037-8.250837,14.37037s-12.593383-3.362429-12.593383-12.444444,4.678921-16.296296,12.593383-16.296296,8.250837,5.288354,8.250837,14.37037Z" fill="#f8ebab" stroke="#9d8b38" stroke-linejoin="round" stroke-width=".942469"/><path d="M31.831902,192.500074c0,9.082016.336375,14.37037,8.250837,14.37037s12.593383-3.362429,12.593383-12.444444-4.678921-16.296296-12.593383-16.296296-8.250837,5.288354-8.250837,14.37037Z" fill="#f8ebab" stroke="#9d8b38" stroke-linejoin="round" stroke-width=".942469"/><path d="M77.288026,202.97059c0,9.082016.336375,14.37037,8.250837,14.37037s12.593383-3.362429,12.593383-12.444444-4.678921-16.296296-12.593383-16.296296-8.250837,5.288354-8.250837,14.37037Z" fill="#f8ebab" stroke="#9d8b38" stroke-linejoin="round" stroke-width=".942469"/><path d="M75.858478,192.500074c0,9.082016.336375,14.37037,8.250837,14.37037s12.593383-3.362429,12.593383-12.444444-4.678921-16.296296-12.593383-16.296296-8.250837,5.288354-8.250837,14.37037Z" fill="#f8ebab" stroke="#9d8b38" stroke-linejoin="round" stroke-width=".942469"/><path d="M49.031176,192.400871c0,8.958892-2.395287,15.497275,10.022944,14.079939,6.773345-.773066,10.828452-3.316845,10.828452-12.275737s-4.023182-16.075369-10.828452-16.075369c-17.1479,0-10.022944,5.312275-10.022944,14.271167Z" fill="#f8ebab" stroke="#9d8b38" stroke-linejoin="round" stroke-width=".86799"/><path d="M65.429192,192.400871c0,8.958892-2.395287,15.497275,10.022944,14.079939,6.773345-.773066,10.828452-3.316845,10.828452-12.275737s-4.023182-16.075369-10.828452-16.075369c-17.1479,0-10.022944,5.312275-10.022944,14.271167Z" fill="#f8ebab" stroke="#9d8b38" stroke-linejoin="round" stroke-width=".86799"/><path d="M31.474515,221.240815c0,9.082016-.336375,14.37037-8.250837,14.37037s-12.593383-3.362429-12.593383-12.444444,4.678921-16.296296,12.593383-16.296296,8.250837,5.288354,8.250837,14.37037Z" fill="#f8ebab" stroke="#9d8b38" stroke-linejoin="round" stroke-width=".942469"/><path d="M31.474515,221.240815c0,9.082016.336375,14.37037,8.250837,14.37037s12.593383-3.362429,12.593383-12.444444-4.678921-16.296296-12.593383-16.296296-8.250837,5.288354-8.250837,14.37037Z" fill="#f8ebab" stroke="#9d8b38" stroke-linejoin="round" stroke-width=".942469"/><path d="M57.136663,235.415034c0,9.082016.336375,14.37037,8.250837,14.37037s12.593383-3.362429,12.593383-12.444444-4.678921-16.296296-12.593383-16.296296-8.250837,5.288354-8.250837,14.37037Z" fill="#f8ebab" stroke="#9d8b38" stroke-linejoin="round" stroke-width=".942469"/><path d="M73.517396,235.415034c0,9.082016.336375,14.37037,8.250837,14.37037s12.593383-3.362429,12.593383-12.444444-4.678921-16.296296-12.593383-16.296296-8.250837,5.288354-8.250837,14.37037Z" fill="#f8ebab" stroke="#9d8b38" stroke-linejoin="round" stroke-width=".942469"/><path d="M75.501091,221.240815c0,9.082016.336375,14.37037,8.250837,14.37037s12.593383-3.362429,12.593383-12.444444-4.678921-16.296296-12.593383-16.296296-8.250837,5.288354-8.250837,14.37037Z" fill="#f8ebab" stroke="#9d8b38" stroke-linejoin="round" stroke-width=".942469"/><path d="M48.673789,221.141612c0,8.958892-2.395287,15.497275,10.022944,14.079939,6.773345-.773066,10.828452-3.316845,10.828452-12.275737s-4.023182-16.075369-10.828452-16.075369c-17.1479,0-10.022944,5.312275-10.022944,14.271167Z" fill="#f8ebab" stroke="#9d8b38" stroke-linejoin="round" stroke-width=".86799"/><path d="M65.071805,221.141612c0,8.958892-2.395287,15.497275,10.022944,14.079939,6.773345-.773066,10.828452-3.316845,10.828452-12.275737s-4.023182-16.075369-10.828452-16.075369c-17.1479,0-10.022944,5.312275-10.022944,14.271167Z" fill="#f8ebab" stroke="#9d8b38" stroke-linejoin="round" stroke-width=".86799"/><path d="M31.117128,249.981556c0,9.082016-.336375,14.37037-8.250837,14.37037s-12.593383-3.362429-12.593383-12.444444,4.678921-16.296296,12.593383-16.296296,8.250837,5.288354,8.250837,14.37037Z" fill="#f8ebab" stroke="#9d8b38" stroke-linejoin="round" stroke-width=".942469"/><path d="M31.117128,249.981556c0,9.082016.336375,14.37037,8.250837,14.37037s12.593383-3.362429,12.593383-12.444444-4.678921-16.296296-12.593383-16.296296-8.250837,5.288354-8.250837,14.37037Z" fill="#f8ebab" stroke="#9d8b38" stroke-linejoin="round" stroke-width=".942469"/><path d="M75.143704,249.981556c0,9.082016.336375,14.37037,8.250837,14.37037s12.593383-3.362429,12.593383-12.444444-4.678921-16.296296-12.593383-16.296296-8.250837,5.288354-8.250837,14.37037Z" fill="#f8ebab" stroke="#9d8b38" stroke-linejoin="round" stroke-width=".942469"/><path d="M48.316402,249.882353c0,8.958892-2.395287,15.497275,10.022944,14.079939,6.773345-.773066,10.828452-3.316845,10.828452-12.275737s-4.023182-16.075369-10.828452-16.075369c-17.1479,0-10.022944,5.312275-10.022944,14.271167Z" fill="#f8ebab" stroke="#9d8b38" stroke-linejoin="round" stroke-width=".86799"/><path d="M64.714418,249.882353c0,8.958892-2.395287,15.497275,10.022944,14.079939,6.773345-.773066,10.828452-3.316845,10.828452-12.275737s-4.023182-16.075369-10.828452-16.075369c-17.1479,0-10.022944,5.312275-10.022944,14.271167Z" fill="#f8ebab" stroke="#9d8b38" stroke-linejoin="round" stroke-width=".86799"/><ellipse cx="53.390896" cy="408.61438" rx="13.192119" ry="21.892084" fill="#c8b92e"/></svg>