<?xml version="1.0" encoding="UTF-8"?><svg id="Layer_1" xmlns="http://www.w3.org/2000/svg" width="520.873585" height="598.371864" xmlns:xlink="http://www.w3.org/1999/xlink" viewBox="0 0 520.873585 598.371864"><defs><radialGradient id="radial-gradient" cx="186.43385" cy="166.744452" fx="186.43385" fy="166.744452" r="8.893396" gradientUnits="userSpaceOnUse"><stop offset="0" stop-color="#faedee"/><stop offset=".393945" stop-color="#f4dadd"/><stop offset="1" stop-color="#eab7bc"/></radialGradient><radialGradient id="radial-gradient-2" cx="214.250727" cy="178.565827" fx="214.250727" fy="178.565827" r="8.563869" xlink:href="#radial-gradient"/><radialGradient id="radial-gradient-3" cx="223.361032" cy="212.581465" fx="223.361032" fy="212.581465" r="9.576292" xlink:href="#radial-gradient"/><radialGradient id="radial-gradient-4" cx="176.343021" cy="205.983795" fx="176.343021" fy="205.983795" r="8.74672" xlink:href="#radial-gradient"/><radialGradient id="radial-gradient-5" cx="197.346146" cy="217.535519" fx="197.346146" fy="217.535519" r="7.890266" xlink:href="#radial-gradient"/><radialGradient id="radial-gradient-6" cx="206.2826" cy="152.628583" fx="206.2826" fy="152.628583" r="8.105368" xlink:href="#radial-gradient"/></defs><path d="M488.548398,326.251782c-7.123352-1.200195-9.473328-6.703125-9.116425-17.587402.231842-7.070312-.063263-15.628906,1.274414-24.051758,1.284332-8.087402,6.691742-15.76709,7.536835-23.157227,1.176514-10.288574-1.684937-18.887695-4.672791-23.40918-2.544861-7.168457-.70462-14.975586,2.005371-22.510254,2.44635-6.80127,6.855469-13.245605,10.876404-19.814453,4.202637-6.865723,6.910034-14.375977,9.963135-20.425293,4.251404-8.42334,7.697388-15.898926,2.916565-21.405273-4.793457-6.666016-14.702881-3.197754-24.173157,7.112793-5.065094,5.514648-9.033966,14.258789-15.17392,22.340332-6.908783,9.108398-19.47934,8.258789-26.196045-.989746-4.612152-6.208984-8.654358-12.793457-12.785065-19.402344-4.178711-6.685547-11.027496-11.427246-15.764801-17.435547-4.864594-6.169434-7.564728-14.896484-14.148346-19.18457-3.242798-2.116699-7.640381-5.002441-5.998474-8.509766,3.982544-8.506836,8.623505-15.626953,10.865906-22.389648,4.261322-12.851074,5.533783-21.770508,1.981445-23.821289-3.960083-2.286621-12.012085,5.083008-22.447693,17.58252-7.489777,8.848633-15.636108,12.789062-23.470459,13.876465-8.717651,1.209473-18.229797.549316-27.597687-1.304688-8.684387-1.718262-17.223083-4.966309-26.661316-3.606934-8.907013.786621-14.132782-7.553711-11.75061-16.172363,2.523468-9.089355,3.374512-18.172852,4.90332-26.264648,1.858673-9.838379,4.772003-18.728027,5.250275-26.316406.880493-13.969238-3.057892-23.276855-6.381165-25.523438-7.390808-5.167969-11.637573-1.527344-16.004486,7.081543-2.656738,5.237793-6.275177,11.817383-8.530975,20.042969-1.785736,6.51123-1.994781,14.099121-3.83429,21.586426-1.699158,6.915527-2.808472,14.296875-4.774689,21.39502-2.215851,8.037109-9.624695,13.189941-16.108765,17.606934-6.490021,4.421387-13.46875,5.534668-21.761475,4.603516-7.787292-1.648926-15.633011-1.714844-22.395187-.849609-7.587433.971191-13.103546,7.787109-19.489624,10.768555-6.898376,3.220215-15.617096,2.914062-21.228149,6.997559-6.613739,4.813477-11.289795,11.186035-16.294998,14.868652-8.294937,6.104004-15.838104,10.342773-20.425766,4.141602-6.352524-8.733398-7.009476-20.107422-11.688812-26.346191-6.258011-8.343262-14.751938-9.909668-26.245255-5.357422-8.438332,2.787109-4.542122,9.606445.817871,22.093262,3.02533,7.04834,6.618546,15.5,8.889847,25.196777,4.422653,6.288086,2.512726,14.479492-2.73259,20.100098-4.544067,5.569824-6.721924,13.146973-11.387421,18.617188-4.635788,5.435059-12.792923,7.92334-17.434753,13.467285-4.559044,5.445312-5.305817,13.937012-9.762192,19.686035-6.573959,9.444824-18.82914,12.850098-30.097942,15.180664-8.190754,1.498535-13.471462,7.118164-18.068066,9.890137-8.203773,4.947754-12.830677,11.540039-7.339798,16.67334,3.348228,3.130371,11.065037,4.638672,20.367054,6.353027,10.546627,2.009766,16.042393,8.113281,17.658047,16.526855,1.564484,8.146973.554611,17.92041.761124,25.765625-.117119,7.970703-.194183,15.674316.639763,23.211914.874565,7.904297,1.278862,15.709961,2.872398,23.128906,1.675087,7.799316,5.410019,14.750977,7.500198,22.003906,2.814705,6.338867,2.288193,13.84668,3.764488,20.563477,1.527115,6.947754,5.223122,13.885254,4.03035,20.650879-1.152275,6.535645-5.006371,12.951172-9.898407,18.769531-5.072876,6.464844-12.184158,10.661133-15.322205,15.951172-5.859013,9.877441-5.39661,18.454102-2.580479,21.27002,2.556576,2.556641,7.648899-.601074,16.17194-5.290039,4.604851-2.533203,11.055672-3.894531,16.752159-8.120117,10.259422-6.477539,18.243805-8.450684,25.21022-6.746094,8.204323,2.007324,14.351265,8.972656,21.129112,15.936035,6.064194,6.230469,14.342178,10.336426,21.840714,15.291504,6.626617,5.343262,13.350845,14.15625,20.975113,20.165039,7.85527,6.190918,17.060684,12.55957,14.253311,23.755859-2.08493,8.312988-3.685669,15.597656-3.75592,22.761719-.087753,8.95166-2.873978,17.550781-.957855,23.989746,3.400009,11.425781,11.356857,19.580078,15.530304,19.605957,9.68718.108887,10.08519-9.243164,11.77182-24.324707.816544-7.30127-.772736-16.966309,2.760178-27.843262,1.740768-10.064453,12.270187-18.422363,22.961639-16.26123,7.839066,1.38916,15.967331.203125,23.906906.914062,8.072235.722656,15.91861,5.208008,23.744659,5.196777,10.298706-.626953,17.291931,2.185059,22.842682,8.092285,5.889313,6.26709,8.035248,15.351562,11.357025,22.788574,5.029724,11.260742,12.303314,21.478027,19.687836,17.061523,6.982605-5.637695,5.346558-13.114258,4.130859-20.521484-.89325-5.442871-4.094391-11.81543-5.16922-20.271973-1.244843-9.754883,7.033234-18.906738,16.52771-21.465332,7.636047-2.131836,15.887482-3.275879,23.212158-6.48291,7.286591-3.19043,13.848877-8.243652,20.77478-12.149902,5.282867-2.979492,13.421326-3.206055,21.149323.056641,6.924377,2.922852,11.094055,10.290527,15.29953,15.05127,2.914825,3.299805,8.904083,8.868164,12.575409,17.354004,2.897644,6.697266,7.348145,13.17627,10.434631,19.219238,4.999939,9.789062,8.315765,17.509277,12.954742,13.797852,4.190399-3.352051,9.854156-12.405762,9.462158-24.092285-.24762-7.382812-3.434692-16.203125-7.637848-25.135254-3.256683-6.92041-10.790894-12.242676-17.299438-19.360352-6.156952-10.251465-3.691589-21.081543-.372101-29.919434,3.304077-8.796875,8.521118-17.867188,15.59259-25.29541,3.905396-5.257324,8.539032-10.17041,12.226746-16.071289,3.532684-5.652832,7.801208-11.100586,10.876495-17.227539,3.023926-6.024902,6.38028-12.181641,8.720184-18.556152,3.229706-10.671387,12.41153-16.301758,22.265289-18.309082,9.892395-4.213867,12.419556-10.531738,13.497681-17.185547,1.238037-7.640625-1.427795-13.312988-8.855896-18.717773-5.812012-4.228516-12.285522-11.28125-21.678162-10.960449Z" fill="#d4dff9" stroke="#08506f" stroke-miterlimit="10" stroke-width="3"/><path d="M186.212113,294.234267c.16169,11.071613-17.229735,11.071745-17.06662-.000763-.161737-11.07085,17.229689-11.070982,17.06662.000763Z" fill="#5959a2"/><path d="M283.573449,148.638143c.16169,11.071613-17.229735,11.071745-17.06662-.000763-.161737-11.07085,17.229689-11.070982,17.06662.000763Z" fill="#5959a2"/><path d="M334.616409,123.038143c.16169,11.071613-17.229735,11.071745-17.06662-.000763-.161737-11.07085,17.229689-11.070982,17.06662.000763Z" fill="#5959a2"/><path d="M232.319499,362.631849c.16169,11.071613-17.229735,11.071745-17.06662-.000763-.161737-11.07085,17.229689-11.070982,17.06662.000763Z" fill="#5959a2"/><path d="M144.535663,215.707866c.16169,11.071613-17.229735,11.071745-17.06662-.000763-.161737-11.07085,17.229689-11.070982,17.06662.000763Z" fill="#5959a2"/><path d="M186.212113,468.71832c.16169,11.071613-17.229735,11.071745-17.06662-.000763-.161737-11.07085,17.229689-11.070982,17.06662.000763Z" fill="#5959a2"/><path d="M445.446653,400.812045c.16169,11.071613-17.229735,11.071745-17.06662-.000763-.161737-11.07085,17.229689-11.070982,17.06662.000763Z" fill="#5959a2"/><path d="M110.615715,337.031849c.16169,11.071613-17.229735,11.071745-17.06662-.000763-.161737-11.07085,17.229689-11.070982,17.06662.000763Z" fill="#5959a2"/><path d="M275.040116,245.43026c.16169,11.071613-17.229735,11.071745-17.06662-.000763-.161737-11.07085,17.229689-11.070982,17.06662.000763Z" fill="#5959a2"/><path d="M403.202329,224.241199c.16169,11.071613-17.229735,11.071745-17.06662-.000763-.161737-11.07085,17.229689-11.070982,17.06662.000763Z" fill="#5959a2"/><path d="M245.269793,192.050414c-.365865,77.962373-87.671578,77.957514-88.030303-.003028.365695-77.959345,87.671408-77.954486,88.030303.003028Z" fill="#fff" stroke="#08506f" stroke-miterlimit="10" stroke-width="3"/><path d="M194.23014,168.446018c.014925,1.021925,1.09814,2.502715.827105,3.324715-.309179.937681-6.185857-2.068346-6.780773-1.390824-.623176.709706-.071352-.183049-.904653.241192-.827931.421506.617168,5.08626-.314081,5.225965-.923749.13858-1.602316-1.002419-2.526031-1.141123-.931315-.139845.507605-3.985678-.320294-4.407393-.83313-.424379-5.641866,5.351494-6.264818,4.64167-.59423-.677097.502413-2.817847.193463-3.754679-.271212-.822398,3.909961-1.717428,3.925025-2.739984-.01493-1.021892-2.3879-1.320672-2.116848-2.142638.309193-.93763,2.779274,1.043587,3.374215.36611.623184-.709638-1.989392-3.670571-1.15609-4.094766.827915-.421453.752853-4.801888,1.684078-4.941574.923719-.13856,1.946168,5.532858,2.869854,5.671544.93129.139829,2.758824-3.215926,3.586708-2.794263.83313.424334-.852209,3.711696-.229247,4.42145.594257.677051,1.393775.332147,1.702746,1.268925.271234.822363,2.464702,1.22315,2.449642,2.245672Z" fill="url(#radial-gradient)"/><path d="M194.23014,168.446018c.014925,1.021925,1.09814,2.502715.827105,3.324715-.309179.937681-6.185857-2.068346-6.780773-1.390824-.623176.709706-.071352-.183049-.904653.241192-.827931.421506.617168,5.08626-.314081,5.225965-.923749.13858-1.602316-1.002419-2.526031-1.141123-.931315-.139845.507605-3.985678-.320294-4.407393-.83313-.424379-5.641866,5.351494-6.264818,4.64167-.59423-.677097.502413-2.817847.193463-3.754679-.271212-.822398,3.909961-1.717428,3.925025-2.739984-.01493-1.021892-2.3879-1.320672-2.116848-2.142638.309193-.93763,2.779274,1.043587,3.374215.36611.623184-.709638-1.989392-3.670571-1.15609-4.094766.827915-.421453.752853-4.801888,1.684078-4.941574.923719-.13856,1.946168,5.532858,2.869854,5.671544.93129.139829,2.758824-3.215926,3.586708-2.794263.83313.424334-.852209,3.711696-.229247,4.42145.594257.677051,1.393775.332147,1.702746,1.268925.271234.822363,2.464702,1.22315,2.449642,2.245672Z" fill="none" stroke="#985f64" stroke-miterlimit="10" stroke-width=".75"/><path d="M222.808451,178.478144c.012211.836078-3.235768,1.162453-3.434857,1.852502-.225892.782949,1.192896,2.097679.750544,2.692631-.467836.629228-.829442,1.677032-1.471421,2.095975-.643192.419734-1.326448,1.795161-2.074234,2.003813-.739621.206373-2.008127-2.198374-2.781696-2.198501-.773672-.000127-1.117647-.907793-1.857256-1.114478-.747729-.208954-2.525702,1.986882-3.168707,1.566808-.641641-.419183-1.473904-1.250779-1.941346-1.88019-.441446-.594405.186269-1.97081-.039257-2.752712-.199081-.690216-1.109627-1.430339-1.097305-2.266659-.012215-.836051.902608-1.574624,1.101708-2.264645.225903-.782911.712309-1.331073,1.154681-1.925989.467846-.629174,1.44454-.358345,2.086527-.777248.643185-.419684.335265-3.107994,1.083037-3.316619.739599-.206345,1.907729.940291,2.681273.94042.773647.000128,1.991482-1.321953,2.73107-1.115295.747714.208929,1.171853,1.875276,1.814851,2.295301.641648.419142,1.677807.721156,2.145262,1.350511.441469.594368,1.374138,1.395358,1.599681,2.177218.199098.690188.729765,1.800865.717446,2.637157Z" fill="url(#radial-gradient-2)"/><path d="M222.808451,178.478144c.012211.836078-3.235768,1.162453-3.434857,1.852502-.225892.782949,1.192896,2.097679.750544,2.692631-.467836.629228-.829442,1.677032-1.471421,2.095975-.643192.419734-1.326448,1.795161-2.074234,2.003813-.739621.206373-2.008127-2.198374-2.781696-2.198501-.773672-.000127-1.117647-.907793-1.857256-1.114478-.747729-.208954-2.525702,1.986882-3.168707,1.566808-.641641-.419183-1.473904-1.250779-1.941346-1.88019-.441446-.594405.186269-1.97081-.039257-2.752712-.199081-.690216-1.109627-1.430339-1.097305-2.266659-.012215-.836051.902608-1.574624,1.101708-2.264645.225903-.782911.712309-1.331073,1.154681-1.925989.467846-.629174,1.44454-.358345,2.086527-.777248.643185-.419684.335265-3.107994,1.083037-3.316619.739599-.206345,1.907729.940291,2.681273.94042.773647.000128,1.991482-1.321953,2.73107-1.115295.747714.208929,1.171853,1.875276,1.814851,2.295301.641648.419142,1.677807.721156,2.145262,1.350511.441469.594368,1.374138,1.395358,1.599681,2.177218.199098.690188.729765,1.800865.717446,2.637157Z" fill="none" stroke="#985f64" stroke-miterlimit="10" stroke-width=".75"/><path d="M230.674006,212.177278c.01253.857913.981338,1.810374.77705,2.518444-.231792.803397,1.136263,3.060882.68236,3.671372-.480054.645661-4.638243-2.46356-5.296988-2.033676-.659989.430696.537364,5.086694-.229951,5.300795-.758929.211761-2.224746,1.185365-3.01851,1.185237-.793879-.000128-1.305511-4.38863-2.064438-4.600711-.767258-.21441-2.26419,1.211258-2.923989.780214-.6584-.43013.437141-2.598801-.042512-3.24465-.452976-.609929-2.106087-.397756-2.337504-1.200079-.204281-.708243-1.736404-1.519526-1.723761-2.377689-.012534-.857885,2.253374-1.457035,2.457674-2.165077.231803-.803357-.088095-1.724621.36583-2.335074.480064-.645606.878389-1.505506,1.537142-1.935348.659982-.430645.846867-3.178002,1.614167-3.392076.758907-.211732,2.327128,5.782645,3.120866,5.782774.793853.000129,1.985861-4.639224,2.744766-4.42717.767243.214384.719054,2.545092,1.378847,2.976086.658407.430088,1.424931.533516,1.904596,1.179307.453.609891-1.334051,1.842556-1.102617,2.644836.204299.708214,2.169612.81435,2.156972,1.672484Z" fill="url(#radial-gradient-3)"/><path d="M230.674006,212.177278c.01253.857913.981338,1.810374.77705,2.518444-.231792.803397,1.136263,3.060882.68236,3.671372-.480054.645661-4.638243-2.46356-5.296988-2.033676-.659989.430696.537364,5.086694-.229951,5.300795-.758929.211761-2.224746,1.185365-3.01851,1.185237-.793879-.000128-1.305511-4.38863-2.064438-4.600711-.767258-.21441-2.26419,1.211258-2.923989.780214-.6584-.43013.437141-2.598801-.042512-3.24465-.452976-.609929-2.106087-.397756-2.337504-1.200079-.204281-.708243-1.736404-1.519526-1.723761-2.377689-.012534-.857885,2.253374-1.457035,2.457674-2.165077.231803-.803357-.088095-1.724621.36583-2.335074.480064-.645606.878389-1.505506,1.537142-1.935348.659982-.430645.846867-3.178002,1.614167-3.392076.758907-.211732,2.327128,5.782645,3.120866,5.782774.793853.000129,1.985861-4.639224,2.744766-4.42717.767243.214384.719054,2.545092,1.378847,2.976086.658407.430088,1.424931.533516,1.904596,1.179307.453.609891-1.334051,1.842556-1.102617,2.644836.204299.708214,2.169612.81435,2.156972,1.672484Z" fill="none" stroke="#985f64" stroke-miterlimit="10" stroke-width=".75"/><path d="M182.932712,206.212921c.007148.489433,2.292853,1.067781,2.230702,1.511356-.067625.48265-.384641,1.020007-.52589,1.448363-.151141.458352-1.27629.494769-1.501327.890957-.23545.41452.057655,1.184419-.246646,1.530889-.310989.354084-.016916,1.60003-.386812,1.883041-.371406.284165-.851543.934066-1.269059,1.146575-.415422.211443-1.500618-.738448-1.94855-.597944-.444793.13952-.997871.038813-1.461842.108384-.461846.069252-.958382-1.034344-1.426543-1.034402-.468179-.000058-.795743-.023399-1.257579-.092774-.463989-.069698-1.278538,1.451073-1.723317,1.31141-.447977-.140667-.594002-1.148187-1.009424-1.359828-.41746-.21268-1.516026.501763-1.887332.21741-.369646-.283081.278372-1.740748-.032371-2.094862-.303833-.34624-1.401716-.145319-1.636821-.559469-.224792-.395983.466927-1.223806.31594-1.681872-.141056-.427939-1.574132-.617393-1.641715-1.099518-.062254-.444108.95671-1.038232.96393-1.528318-.00715-.489417,1.031735-.794547,1.093889-1.238106.067628-.482632-.922557-1.081418-.781299-1.509757.151149-.45833.966532-.517711,1.191581-.913878.235459-.414492.733913-.386069,1.038225-.732514.310995-.354053-.491714-1.783163-.121813-2.066147.371406-.284135.688489-.849912,1.106003-1.062398.415416-.211417,1.316497.704559,1.76442.564072.444782-.139501.899055.234786,1.363012.165225.461831-.069242.789557-2.106238,1.257702-2.106179.468163.000059,1.000715.670036,1.462536.739402.463975.069689.586137,1.466761,1.030905,1.606406.447968.140649,1.327218-.886376,1.742633-.67476.417457.212656.676916.755633,1.048223,1.039954.369651.283054-.031591,1.270259.279159,1.624342.303845.346214.071985.79288.307102,1.207002.224806.39596,2.127744-.03057,2.278742.427473.141068.427921.494951.942674.562541,1.424781.06226.444092-2.171684,1.015613-2.178902,1.505682Z" fill="url(#radial-gradient-4)"/><path d="M182.932712,206.212921c.007148.489433,2.292853,1.067781,2.230702,1.511356-.067625.48265-.384641,1.020007-.52589,1.448363-.151141.458352-1.27629.494769-1.501327.890957-.23545.41452.057655,1.184419-.246646,1.530889-.310989.354084-.016916,1.60003-.386812,1.883041-.371406.284165-.851543.934066-1.269059,1.146575-.415422.211443-1.500618-.738448-1.94855-.597944-.444793.13952-.997871.038813-1.461842.108384-.461846.069252-.958382-1.034344-1.426543-1.034402-.468179-.000058-.795743-.023399-1.257579-.092774-.463989-.069698-1.278538,1.451073-1.723317,1.31141-.447977-.140667-.594002-1.148187-1.009424-1.359828-.41746-.21268-1.516026.501763-1.887332.21741-.369646-.283081.278372-1.740748-.032371-2.094862-.303833-.34624-1.401716-.145319-1.636821-.559469-.224792-.395983.466927-1.223806.31594-1.681872-.141056-.427939-1.574132-.617393-1.641715-1.099518-.062254-.444108.95671-1.038232.96393-1.528318-.00715-.489417,1.031735-.794547,1.093889-1.238106.067628-.482632-.922557-1.081418-.781299-1.509757.151149-.45833.966532-.517711,1.191581-.913878.235459-.414492.733913-.386069,1.038225-.732514.310995-.354053-.491714-1.783163-.121813-2.066147.371406-.284135.688489-.849912,1.106003-1.062398.415416-.211417,1.316497.704559,1.76442.564072.444782-.139501.899055.234786,1.363012.165225.461831-.069242.789557-2.106238,1.257702-2.106179.468163.000059,1.000715.670036,1.462536.739402.463975.069689.586137,1.466761,1.030905,1.606406.447968.140649,1.327218-.886376,1.742633-.67476.417457.212656.676916.755633,1.048223,1.039954.369651.283054-.031591,1.270259.279159,1.624342.303845.346214.071985.79288.307102,1.207002.224806.39596,2.127744-.03057,2.278742.427473.141068.427921.494951.942674.562541,1.424781.06226.444092-2.171684,1.015613-2.178902,1.505682Z" fill="none" stroke="#985f64" stroke-miterlimit="10" stroke-width=".75"/><path d="M204.486223,217.828394c.01005.688061-2.367156.963834-2.502637,1.552995-.151846.660322.976156,1.500011.671522,2.036096-.325761.573267-1.263205.394974-1.726137.826172-.471871.439525-.753675.633067-1.327358.924983-.570022.290053-1.021148.011629-1.651243.15595-.624547.14305-.931971,1.07906-1.576106,1.078932-.644214-.000128-1.588989,1.842307-2.213525,1.698965-.630098-.144619-.170532-3.180794-.740447-3.471191-.573465-.292206-.964715-.125143-1.436283-.564949-.462387-.431244-.59713-.626385-.92243-1.19954-.30396-.535556-.556109-.730904-.707665-1.390363-.135414-.589222.403188-.960507.413327-1.648646-.010053-.688039-.67873-1.089199-.543241-1.678337.151853-.660293.809218-.669649,1.113868-1.205707.325773-.573226-1.399605-2.626948-.936661-3.058113.471874-.43948,1.221113-.982526,1.794795-1.274411.570011-.290017,1.342159-.902237,1.97224-1.046539.624528-.14303,1.566177-.604223,2.210291-.604094.644193.000129,1.257416,1.892572,1.881934,2.035896.630082.144601,1.124907.51499,1.694812.805352.573463.292174.183606,1.517653.655178,1.957414.462401.431209,1.979011-.237725,2.304324.335388.303979.535527.886647,1.0683,1.038216,1.72773.135426.589199.543362,1.3179.533226,2.006016Z" fill="url(#radial-gradient-5)"/><path d="M204.486223,217.828394c.01005.688061-2.367156.963834-2.502637,1.552995-.151846.660322.976156,1.500011.671522,2.036096-.325761.573267-1.263205.394974-1.726137.826172-.471871.439525-.753675.633067-1.327358.924983-.570022.290053-1.021148.011629-1.651243.15595-.624547.14305-.931971,1.07906-1.576106,1.078932-.644214-.000128-1.588989,1.842307-2.213525,1.698965-.630098-.144619-.170532-3.180794-.740447-3.471191-.573465-.292206-.964715-.125143-1.436283-.564949-.462387-.431244-.59713-.626385-.92243-1.19954-.30396-.535556-.556109-.730904-.707665-1.390363-.135414-.589222.403188-.960507.413327-1.648646-.010053-.688039-.67873-1.089199-.543241-1.678337.151853-.660293.809218-.669649,1.113868-1.205707.325773-.573226-1.399605-2.626948-.936661-3.058113.471874-.43948,1.221113-.982526,1.794795-1.274411.570011-.290017,1.342159-.902237,1.97224-1.046539.624528-.14303,1.566177-.604223,2.210291-.604094.644193.000129,1.257416,1.892572,1.881934,2.035896.630082.144601,1.124907.51499,1.694812.805352.573463.292174.183606,1.517653.655178,1.957414.462401.431209,1.979011-.237725,2.304324.335388.303979.535527.886647,1.0683,1.038216,1.72773.135426.589199.543362,1.3179.533226,2.006016Z" fill="none" stroke="#985f64" stroke-miterlimit="10" stroke-width=".75"/><path d="M213.48721,152.341861c.010071.68955,1.106787,1.433828.982069,2.032353-.138868.666434-1.944412.613694-2.225431,1.167275-.301447.593825,1.136817,2.344916.703163,2.808882-.445286.476412-1.996184-.324022-2.546179.01547-.549092.338935-1.04327.424099-1.661725.626562-.61271.200582-.957694,1.580909-1.604319,1.647542-.643795.066342-1.214032-1.751809-1.857809-1.818248-.646707-.066741-1.040933-.050958-1.653676-.251692-.618476-.202612-1.515415.562331-2.064465.223205-.549812-.339596-1.349584-.422541-1.794668-.899031-.433284-.463858-1.341528-.815729-1.642711-1.409319-.280793-.553404,1.20428-1.742537,1.065526-2.408703-.1247-.598694-1.051041-1.045196-1.040879-1.734967-.010074-.689528-.031192-1.333179.093532-1.931682.138875-.666407,1.129412-.882901,1.410446-1.436455.301459-.593786-.687759-2.067189-.25409-2.531121.445292-.476366.93769-1.310829,1.487687-1.650287.549086-.338895,1.707571.254118,2.326016.05168.612694-.200555,1.294477-.157879,1.941083-.224502.643774-.066332,1.186819.865735,1.830576.932166.646687.066733,1.481892-1.082289,2.094619-.88158.618465.202588,1.378806.336916,1.92785.676001.549815.339562,1.318561.681924,1.763653,1.158369.433301.463823,1.007109,1.115712,1.308307,1.709261.280812.553376-.285101,1.542412-.146335,2.20855.124712.598671-.432081,1.230522-.442241,1.92027Z" fill="url(#radial-gradient-6)"/><path d="M213.48721,152.341861c.010071.68955,1.106787,1.433828.982069,2.032353-.138868.666434-1.944412.613694-2.225431,1.167275-.301447.593825,1.136817,2.344916.703163,2.808882-.445286.476412-1.996184-.324022-2.546179.01547-.549092.338935-1.04327.424099-1.661725.626562-.61271.200582-.957694,1.580909-1.604319,1.647542-.643795.066342-1.214032-1.751809-1.857809-1.818248-.646707-.066741-1.040933-.050958-1.653676-.251692-.618476-.202612-1.515415.562331-2.064465.223205-.549812-.339596-1.349584-.422541-1.794668-.899031-.433284-.463858-1.341528-.815729-1.642711-1.409319-.280793-.553404,1.20428-1.742537,1.065526-2.408703-.1247-.598694-1.051041-1.045196-1.040879-1.734967-.010074-.689528-.031192-1.333179.093532-1.931682.138875-.666407,1.129412-.882901,1.410446-1.436455.301459-.593786-.687759-2.067189-.25409-2.531121.445292-.476366.93769-1.310829,1.487687-1.650287.549086-.338895,1.707571.254118,2.326016.05168.612694-.200555,1.294477-.157879,1.941083-.224502.643774-.066332,1.186819.865735,1.830576.932166.646687.066733,1.481892-1.082289,2.094619-.88158.618465.202588,1.378806.336916,1.92785.676001.549815.339562,1.318561.681924,1.763653,1.158369.433301.463823,1.007109,1.115712,1.308307,1.709261.280812.553376-.285101,1.542412-.146335,2.20855.124712.598671-.432081,1.230522-.442241,1.92027Z" fill="none" stroke="#985f64" stroke-miterlimit="10" stroke-width=".75"/><path d="M394.197548,301.541774c26.578881,20.231292,14.951524,56.710814-20.269931,108.247027-23.36738,34.191268-80.42381,59.196164-99.70908,46.923182-24.353835-15.498574-24.719038-61.330775,12.071671-111.758752,29.510557-40.44928,81.328459-63.642749,107.90734-43.411457Z" fill="#b7cbeb" stroke="#60728a" stroke-miterlimit="10" stroke-width="3"/></svg>