<?xml version="1.0" encoding="UTF-8"?><svg id="Layer_1" xmlns="http://www.w3.org/2000/svg" width="448.66071" height="438.896959" xmlns:xlink="http://www.w3.org/1999/xlink" viewBox="0 0 448.66071 438.896959"><defs><radialGradient id="radial-gradient" cx="224.330355" cy="219.448479" fx="224.330355" fy="219.448479" r="220.402934" gradientUnits="userSpaceOnUse"><stop offset="0" stop-color="#d4eef9"/><stop offset=".295013" stop-color="#cfecf8"/><stop offset=".60732" stop-color="#c3e7f6"/><stop offset=".926605" stop-color="#addff3"/><stop offset="1" stop-color="#a8ddf3"/></radialGradient><radialGradient id="radial-gradient-2" cx="285.639442" cy="267.19367" fx="311.377391" fy="280.706165" r="116.999206" gradientUnits="userSpaceOnUse"><stop offset="0" stop-color="#d6e7f7"/><stop offset=".335302" stop-color="#b2d7f1"/><stop offset=".994413" stop-color="#63b5e5"/></radialGradient></defs><path d="M439.930616,214.266603c.366647,25.117501,11.440973,49.970687,5.462584,70.703208-6.782737,23.521928-19.633508,45.496318-32.916134,63.37391-14.057026,18.919887-34.795636,32.659215-54.089531,45.257375-19.331769,12.622889-40.580194,24.317229-63.058194,30.593489-22.230654,6.207197-46.4404,13.202958-69.692761,13.202375-23.252685-.000583-48.492208-3.30958-70.722267-9.518173-22.477743-6.277768-42.431982-22.065061-61.762355-34.690004-19.292313-12.600085-30.733883-33.038501-44.78812-51.96085-13.27939-17.879111-29.204816-34.623471-35.983761-58.146988-5.974659-20.732576-11.047806-43.716701-10.677959-68.833814-.366767-25.116696-.897974-49.717249,5.080758-70.448944,6.783062-23.520765,27.215293-39.464747,40.498538-57.341258,14.057327-18.918266,30.519102-32.541212,49.813225-45.13816,19.33156-12.621391,36.263353-31.214255,58.74094-37.489716,22.230003-6.206338,46.579274,2.544224,69.830901,2.544846,23.251927.000622,47.63788-8.877874,69.867295-2.670075,22.477292,6.277022,44.949297,16.459097,64.279475,29.082558,19.29253,12.598875,28.742782,35.828521,42.797394,54.749195,13.28009,17.877993,35.506192,32.656441,42.285629,56.17872,5.975163,20.731731-4.595903,45.436027-4.965657,70.552307Z" fill="url(#radial-gradient)"/><path d="M439.930616,214.266603c.366647,25.117501,11.440973,49.970687,5.462584,70.703208-6.782737,23.521928-19.633508,45.496318-32.916134,63.37391-14.057026,18.919887-34.795636,32.659215-54.089531,45.257375-19.331769,12.622889-40.580194,24.317229-63.058194,30.593489-22.230654,6.207197-46.4404,13.202958-69.692761,13.202375-23.252685-.000583-48.492208-3.30958-70.722267-9.518173-22.477743-6.277768-42.431982-22.065061-61.762355-34.690004-19.292313-12.600085-30.733883-33.038501-44.78812-51.96085-13.27939-17.879111-29.204816-34.623471-35.983761-58.146988-5.974659-20.732576-11.047806-43.716701-10.677959-68.833814-.366767-25.116696-.897974-49.717249,5.080758-70.448944,6.783062-23.520765,27.215293-39.464747,40.498538-57.341258,14.057327-18.918266,30.519102-32.541212,49.813225-45.13816,19.33156-12.621391,36.263353-31.214255,58.74094-37.489716,22.230003-6.206338,46.579274,2.544224,69.830901,2.544846,23.251927.000622,47.63788-8.877874,69.867295-2.670075,22.477292,6.277022,44.949297,16.459097,64.279475,29.082558,19.29253,12.598875,28.742782,35.828521,42.797394,54.749195,13.28009,17.877993,35.506192,32.656441,42.285629,56.17872,5.975163,20.731731-4.595903,45.436027-4.965657,70.552307Z" fill="none" stroke="#08506f" stroke-miterlimit="10" stroke-width="3"/><path d="M377.536765,327.974067c-40.113254,100.19478-277.129691,66.184186-180.102957-16.434093,23.45025-10.592784,40.192002-4.734895,56.519369-34.54076,23.281816-42.501322,6.597418-70.995665,13.025859-99.043745,44.749098-99.994261,179.941412,48.53898,110.557729,150.018597Z" fill="url(#radial-gradient-2)" stroke="#3b88a9" stroke-miterlimit="10"/></svg>