<?xml version="1.0" encoding="UTF-8"?><svg id="Layer_1" xmlns="http://www.w3.org/2000/svg" width="567.619715" height="335.228389" xmlns:xlink="http://www.w3.org/1999/xlink" viewBox="0 0 567.619715 335.228389"><defs><linearGradient id="linear-gradient" x1="519.178615" y1="90.423139" x2="625.511987" y2="90.423139" gradientTransform="translate(70.310454 458.950679) rotate(-46.917028) scale(1.016171 1)" gradientUnits="userSpaceOnUse"><stop offset="0" stop-color="#f0d7ec"/><stop offset=".081769" stop-color="#f2dbee"/><stop offset=".558872" stop-color="#fff2fd"/><stop offset=".678243" stop-color="#f7e7f4"/><stop offset="1" stop-color="#e6cde1"/></linearGradient><linearGradient id="linear-gradient-2" x1="-231.578957" y1="158.01912" x2="-186.117471" y2="147.857577" gradientTransform="translate(170.555603 21.239794) rotate(-149.749118) scale(1 -1)" gradientUnits="userSpaceOnUse"><stop offset="0" stop-color="#ceccff"/><stop offset=".207462" stop-color="#b4b1ff"/><stop offset=".398986" stop-color="#a3a0ff"/><stop offset=".54023" stop-color="#9e9aff"/><stop offset=".662465" stop-color="#a4a1ff"/><stop offset=".84285" stop-color="#b8b5ff"/><stop offset="1" stop-color="#ceccff"/></linearGradient><radialGradient id="radial-gradient" cx="-185.884009" cy="304.391447" fx="-185.884009" fy="304.391447" r="24.982852" gradientTransform="translate(510.110887 122.870052) rotate(-90.107558) scale(1.009055 -.932982) skewX(-.025449)" gradientUnits="userSpaceOnUse"><stop offset="0" stop-color="#9e9aff"/><stop offset=".338762" stop-color="#a09cff"/><stop offset=".58564" stop-color="#a9a6ff"/><stop offset=".802727" stop-color="#b8b6ff"/><stop offset="1" stop-color="#ceccff"/></radialGradient><linearGradient id="linear-gradient-3" x1="284.747877" y1="-18.166381" x2="436.162881" y2="-18.166381" gradientTransform="translate(-90.891141 207.747019) rotate(-1.141344) scale(1.239335 1.306935)" gradientUnits="userSpaceOnUse"><stop offset="0" stop-color="#ebe8b8"/><stop offset=".184204" stop-color="#eeebbd"/><stop offset=".419712" stop-color="#f7f5cd"/><stop offset=".555866" stop-color="#fffdda"/><stop offset=".566799" stop-color="#fefbd7"/><stop offset=".740352" stop-color="#f0edba"/><stop offset=".890715" stop-color="#e8e5a9"/><stop offset="1" stop-color="#e6e2a3"/></linearGradient><linearGradient id="linear-gradient-4" x1="292.630325" y1="63.047206" x2="567.321296" y2="63.047206" gradientUnits="userSpaceOnUse"><stop offset="0" stop-color="#ffe5fb"/><stop offset=".46648" stop-color="#fff2fd"/><stop offset="1" stop-color="#ffe5fb"/></linearGradient><linearGradient id="linear-gradient-5" x1="201.482705" y1="131.999467" x2="319.412514" y2="131.999467" gradientUnits="userSpaceOnUse"><stop offset="0" stop-color="#fffcc8"/><stop offset=".555866" stop-color="#fffdda"/><stop offset=".713334" stop-color="#fffccb"/><stop offset="1" stop-color="#fffbb5"/></linearGradient><linearGradient id="linear-gradient-6" x1="292.911077" y1="105.992344" x2="500.34082" y2="105.992344" xlink:href="#linear-gradient-4"/><linearGradient id="linear-gradient-7" x1=".147949" y1="104.984012" x2="221.328597" y2="104.984012" xlink:href="#linear-gradient-4"/><linearGradient id="linear-gradient-8" x1="177.804795" y1="180.814796" x2="340.935654" y2="180.814796" xlink:href="#linear-gradient-5"/><linearGradient id="linear-gradient-9" x1=".147949" y1="63.138613" x2="288.634506" y2="63.138613" xlink:href="#linear-gradient-4"/></defs><polygon points="567.321296 66.312514 499.916219 138.386072 499.916219 125.554964 567.321296 53.481406 567.321296 66.312514" fill="url(#linear-gradient)"/><path d="M283.155622,210.42238l-.01953-.013763c7.295724-7.809504,29.207862-13.671855,41.094715-3.617731,11.427205,9.665344,9.026202,23.807863.865516,32.75552-8.160686,8.947657-76.42305,84.412142-76.42305,84.412142l-41.883495-29.17194,76.365844-84.364228Z" fill="url(#linear-gradient-2)" stroke="#7773bf" stroke-miterlimit="10"/><ellipse cx="226.471934" cy="311.106508" rx="22.890772" ry="25.652973" transform="translate(-156.31129 350.524773) rotate(-59.826502)" fill="url(#radial-gradient)" stroke="#7773bf" stroke-miterlimit="10"/><path d="M323.436354,172.208535c-.375637-18.854607,1.088402-35.181248-3.444444-51.777778-.319088-1.091801-2.458236-4.685986-2.777778-5.777778-.559921-1.969743-2.033582-4.738593-2.666667-6.666667-4.720159-14.788066-7.026134-10.639684-14.511262-22.373073l2.511262-1.987895h0c-.076763-.116233-4.145913-2.967234-4.222222-3.083476,4.161303-.161413,1.358137-1.622286,5.222222-1.777778,1.338234-.04581,2.588318-1.510496,3.888889-1.555556,3.805599-.311343.70917-11.035549,4.449332-10.894645.781282.024646,1.562925.067476,2.345023.110297,1.544702.086988,3.109245.212834,4.63736.37866l.05536-.001103c10.007238,1.114205,19.692242,3.804037,28.962096,8.031137,10.12897,4.444551,19.559852,10.237651,28.688753,15.820391,3.877705,2.373735,7.8686,4.823723,11.855914,7.116766,13.3973,7.948691,26.205793,12.477727,41.107688,16.631875.57934.164623,1.177757.329823,1.776155.494066,5.405228,1.598431,11.010796,2.976495,16.686892,4.15784,0,0-102.350705,110.760173-155.353485,156.754862-20.704534,11.0114-29.151464,12.875719-29.038736,8.661332.24386-9.116848,60.619573-72.511859,59.827648-112.261479Z" fill="url(#linear-gradient-3)"/><path d="M292.630325,75.807654l9.203337,5.808979c16.290161-.300293,24.97485-7.336195,37.784908-7.591078,3.719971-.240234,7.409912-.210205,11.02478.074707l-.001575.004956c9.464722.75,18.569824,3.270264,27.194824,7.54541,8.085205,3.854736,15.615234,8.804443,22.890015,13.589355,3.075073,2.010498,6.254883,4.110352,9.450073,6.090088,11.084839,7.080322,21.734985,11.070557,34.319824,14.879883,21.135132,6.915527,36.497928,8.370594,53.732913,9.375477l1.808091-.260466,67.28378-71.84356c-17.145264-1.005615-43.296039-4.176317-64.280658-11.045702-12.465088-3.780029-21.829241-7.495966-32.794329-14.485468-3.17981-1.980469-7.13372-4.189579-10.208793-6.199344-7.30481-4.814941-14.875466-10.004315-23.035378-13.8737-12.165161-6.030029-26.19074-8.044759-39.855902-7.175374-16.724854.330322-33.94616.551063-34.531365.565712l-69.984547,74.540124Z" fill="url(#linear-gradient-4)"/><path d="M319.412514,158.706865c0,56.29541-26.459839,102.090088-58.965088,102.090088-32.519897,0-58.964722-45.794678-58.964722-102.090088,0-31.664795,8.369751-59.984619,21.494751-78.719971.795044-1.139648.510132-2.534912-.375-3.32959L289.952676,3.201982h.164795c-.359985.495117-.704956.990234-1.064941,1.515381-8.625,12.824707-14.114868,32.009766-14.114868,53.399414,0,38.535645,17.789795,69.885498,39.644897,69.885498.704956,0,1.394897-.030029,2.084839-.090088,1.785278,9.719971,2.745117,20.069824,2.745117,30.794678Z" fill="url(#linear-gradient-5)"/><path d="M446.318304,115.260259c-12.470215-3.783691-23.018555-7.734375-33.972656-14.72168-3.174316-1.976074-6.350098-4.064941-9.421875-6.084961-7.318359-4.812012-14.885742-9.786621-23.056641-13.672852-12.162598-6.021973-25.274414-8.633789-38.941406-7.775391-10.825195.215332-35.28479.687012-46.171875.897217-.753662.014648-1.384277.336914-1.842773.810791l26.370117,15.960938c4.399292-.079102,8.613281-.156006,12.581177-.22998,13.438477-.784424,26.288086,1.586426,38.225098,7.040771,8.088867,3.550781,15.612305,8.118164,22.886719,12.534668,3.079102,1.869141,6.263672,3.802734,9.446777,5.632324,11.093262,6.532471,21.75,10.21875,34.321289,13.740234,21.133301,6.37793,46.111816,8.819824,63.344238,9.746338l.254328-13.424822c-17.144531-.997559-33.026911-3.589339-54.022517-10.453596Z" fill="url(#linear-gradient-6)"/><path d="M221.284287,76.657304c-13.95813.265869-46.935059-.560348-58.544678-.305465-11.383301.221191-23.893066,4.223145-35.220703,11.263184-1.652344,1.007812-3.291504,2.040527-4.929199,3.073242-5.85498,3.688477-11.90918,7.504395-18.476074,10.007812-9.862793,3.648926-18.51416,5.103516-27.673828,6.641602-4.96875.836426-10.107422,1.699219-15.770508,2.953125-9.509766,1.908691-19.942383,4.016602-30.077637,6.064453L.147949,123.075244l.156441,10.590413,21.6912-3.280859c10.062012-1.877197,20.406738-3.807129,29.85791-5.55835,5.639648-1.1521,10.759277-1.94751,15.708984-2.71582,9.231445-1.431885,17.950195-2.783936,27.953613-6.201416,6.711914-2.362793,12.829102-5.920898,18.745605-9.362549,1.631836-.949219,3.265137-1.898438,4.91748-2.829346,11.10498-6.375,23.345215-9.994629,34.464844-10.193848,10.946777-.222656,27.05896-.519287,45.550049-.851807,0,0,23.282959-16.037064,22.09021-16.014359Z" fill="url(#linear-gradient-7)"/><path d="M292.962753,78.563209c13.93689,18.573486,24.055298,48.833496,24.055298,81.409424,0,55.461914-25.779785,100.583496-57.46582,100.583496s-57.464355-45.121582-57.464355-100.583496c0-31.630371,9.24939-61.155029,22.467407-79.804688.637939-.900146-2.614563-2.653708-3.030212-3.510641l-23.541321,16.613668c.055664-.000732.109863-.001465.165527-.00293-12.648926,20.512939-20.344482,47.388428-20.344482,76.795898,0,64.187988,36.590332,116.407471,81.56543,116.407471s81.56543-52.219482,81.56543-116.407471c0-30.440186-8.239014-58.175537-21.689209-78.938965.112061-.002197.220459-.003662.332153-.005859l-26.370117-15.960938c-.847046.875244-1.081421,2.290283-.245728,3.405029Z" fill="url(#linear-gradient-8)"/><path d="M288.634506,3.201982l-67.35022,73.455322c-.435059-.405029-1.034912-.659912-1.709839-.645264-23.834839.465088-45.015015.884766-58.439941,1.169678-11.114868.225586-23.355103,4.140381-34.469971,11.040527-1.650146,1.019531-3.285278,2.039795-4.905029,3.074707-5.924927,3.719971-12.045044,7.575439-18.75,10.140381-10.005249,3.70459-18.719971,5.159912-27.960205,6.719971-4.950073.824707-10.064941,1.694824-15.704956,2.939941-9.52478,1.905029-19.949707,4.019531-30.090088,6.060059L.147949,123.075244,66.574448,48.622392l19.5-3.930176c10.290161-2.085205,20.894897-4.229736,30.55481-6.164795,5.670044-1.245117,10.815308-2.115234,15.780029-2.955322,9.150146-1.530029,17.805176-2.984619,27.675293-6.629883,6.55481-2.504883,12.599854-6.314941,18.464722-10.004883,1.635132-1.034912,3.285278-2.070557,4.935059-3.090088,11.325073-7.034912,23.835205-11.040527,35.219971-11.25,15.255249-.344971,40.515015-.840088,68.295044-1.365234.540161-.014648,1.094971-.030029,1.635132-.030029Z" fill="url(#linear-gradient-9)"/><polygon points="200.173053 76.651222 221.997804 76.967197 290.306672 2.776214 268.481921 2.46024 200.173053 76.651222" fill="#afe1b7"/><polygon points="293.667146 74.690982 315.491898 75.006957 383.800766 .815974 362.614872 1.26753 293.667146 74.690982" fill="#afe1b7"/><path d="M67.397763,48.19961l19.5-3.9375c10.284668-2.078613,20.894531-4.223145,30.553711-6.161133,5.664551-1.253906,10.804688-2.116699,15.774902-2.953125,9.158203-1.538086,17.808105-2.991211,27.670898-6.640137,6.561035-2.501953,12.612305-6.314941,18.464355-10.001953,1.64209-1.03418,3.28418-2.069824,4.940918-3.079102,11.326172-7.040039,23.834473-11.041992,35.219238-11.263184,15.251953-.334717,40.517944-.829102,68.296509-1.361572.600952-.011719,1.200806-.023438,1.803955-.034424-.358887.497314-.71521,1.001221-1.064209,1.520508-8.625,12.827637-14.117798,32.003906-14.117798,53.408203,0,38.072312,18.040434,69.130602,39.54177,69.86276" fill="none" stroke="#000" stroke-miterlimit="10"/><path d="M567.590634,53.408594c-17.147461-.999023-41.989746-3.629883-62.980957-10.492676-12.46582-3.780762-23.012695-7.72998-33.972656-14.72168-3.177246-1.977539-6.355957-4.067871-9.430664-6.089355-7.31543-4.810547-14.879883-9.783691-23.047852-13.666992-12.165527-6.023438-25.274414-8.641113-38.941406-7.776855-16.71167.333984-14.681206.189014-36.602227.606495" fill="none" stroke="#000" stroke-miterlimit="10"/><polygon points="199.728609 92.039584 178.15262 92.285853 199.952677 76.967197 221.328597 76.967197 199.728609 92.039584" fill="#afe1b7"/><polygon points="317.309388 89.743288 340.390326 89.32822 316.111591 74.37672 293.208481 75.15818 317.309388 89.743288" fill="#afe1b7"/><path d="M161.398545,76.506353c-11.383301.221191-23.893066,4.223145-35.220703,11.263184-1.652344,1.007812-3.291504,2.040527-4.929199,3.073242-5.85498,3.688477-11.90918,7.504395-18.476074,10.007812-9.862793,3.648926-18.51416,5.103516-27.673828,6.641602-4.96875.836426-10.107422,1.699219-15.770508,2.953125-9.509766,1.908691-19.942383,4.016602-30.077637,6.064453L0,122.132041l.295898,1.470703,29.25206-5.62227c10.133789-2.047852,20.564941-4.155762,30.09082-6.067383,5.639648-1.248047,10.759277-2.109375,15.708984-2.941406,9.231445-1.55127,17.94873-3.016113,27.952148-6.717773,6.713379-2.559082,12.830566-6.414551,18.74707-10.142578,1.631836-1.02832,3.265137-2.056641,4.91748-3.064453,11.106445-6.903809,23.345215-10.825195,34.464844-11.040527,13.430131-.295408,34.602236-.713396,58.438171-1.172901,2.063624-.039782,3.265212,2.275241,2.081738,3.966252-13.113036,18.736602-21.492077,47.062514-21.492077,78.728133,0,56.289551,26.450684,102.083496,58.964355,102.083496s58.96582-45.793945,58.96582-102.083496c0-32.982862-9.087293-62.348522-23.149537-81.021847-.966091-1.282877-.070178-3.109025,1.535487-3.139762,16.291056-.311856,31.572774-.606837,44.380652-.862317,13.437012-.851074,26.289551,1.718262,38.225098,7.625977,8.088867,3.84668,15.612305,8.793457,22.886719,13.577637,3.079102,2.024414,6.263672,4.119141,9.446777,6.101074,11.091797,7.07373,21.748535,11.066895,34.321289,14.882812,21.133301,6.908203,37.030655,8.574582,54.263077,9.578l.087891-1.49707c-17.144531-.997559-32.90419-2.647824-53.899795-9.512082-12.470215-3.783691-23.018555-7.734375-33.972656-14.72168-3.174316-1.976074-6.350098-4.064941-9.421875-6.084961-7.318359-4.812012-14.885742-9.786621-23.056641-13.672852-12.162598-6.021973-25.274414-8.633789-38.941406-7.775391-10.825308.215228-35.284886.687331-46.17184.897117-2.146515.041362-3.377041,2.498768-2.088518,4.216017,13.936743,18.573855,24.055279,48.833749,24.055279,81.409327,0,55.461914-25.779785,100.583496-57.46582,100.583496s-57.464355-45.121582-57.464355-100.583496c0-31.630077,9.24934-61.154736,22.467561-79.804609,1.327379-1.872827-.061945-4.453288-2.35705-4.409568-13.95814.265889-49.059623.937923-60.669105,1.192693Z" fill="#231f20"/><path d="M437.359863,128.071245c-12.46875-3.491765-23.01709-7.139049-33.972656-13.591105-3.174316-1.824319-6.350098-3.752768-9.421875-5.617657-7.318359-4.442466-14.885742-9.035042-23.056641-12.622824-12.165527-5.560858-25.289062-7.978858-38.941406-7.178267-4.319458.079789-8.935913.163634-13.765869.250185-.563232.010819-1.12793.020961-1.697754.031104.306519.451008.607178.910131.908203,1.368577,13.555664,20.613176,21.892822,48.380278,21.892822,78.908199,0,63.423805-35.916504,115.022673-80.06543,115.022673s-80.06543-51.598868-80.06543-115.022673c0-29.505546,7.780151-56.443657,20.539307-76.826258.296265-.473322.60022-.935149.901611-1.40171-.585938.010819-1.164917.020961-1.746094.031104-18.929077.340116-35.444458.644394-46.59668.870913-11.384766.204205-23.894531,3.898822-35.220703,10.399562-1.652344.930416-3.291504,1.883822-4.929199,2.837228-5.85498,3.405214-11.90918,6.92673-18.474609,9.237895-9.864258,3.368701-18.515625,4.711583-27.673828,6.132902-4.970215.770839-10.108887,1.567372-15.771973,2.724983-9.436523,1.748587-19.782715,3.678389-29.844727,5.555449L.147949,132.947815l.295898,1.357758,20.210449-3.766291c10.062012-1.87706,20.406738-3.806862,29.85791-5.558153,5.639648-1.152201,10.759277-1.947382,15.708984-2.715516,9.231445-1.432137,17.950195-2.784486,27.953613-6.201872,6.711914-2.362553,12.829102-5.920583,18.745605-9.362311,1.631836-.949349,3.265137-1.898698,4.91748-2.829114,11.10498-6.374972,23.345215-9.99521,34.464844-10.194005,10.979736-.223138,27.154541-.52133,45.715576-.854684-12.64856,20.512426-20.344482,47.38833-20.344482,76.79583,0,64.187883,36.590332,116.407478,81.56543,116.407478s81.56543-52.219596,81.56543-116.407478c0-30.440019-8.238647-58.17534-21.688843-78.939303,4.520142-.081141,8.844727-.160253,12.912964-.235309,13.438477-.784362,26.288086,1.586305,38.225098,7.040328,8.088867,3.551268,15.612305,8.11815,22.886719,12.534921,3.079102,1.868946,6.263672,3.802805,9.446777,5.632533,11.093262,6.531845,21.75,10.218347,34.321289,13.739864,21.133301,6.377677,46.111816,8.820019,63.344238,9.746378l.087891-1.3821c-17.144531-.92095-41.985352-3.348416-62.980957-9.685522Z" fill="#231f20"/></svg>