<?xml version="1.0" encoding="UTF-8"?><svg id="Layer_1" xmlns="http://www.w3.org/2000/svg" width="942.372235" height="662.485776" viewBox="0 0 942.372235 662.485776"><rect x="584.778866" y="478.04704" width="237.777778" height="168.888889" rx="49.777728" ry="49.777728" transform="translate(131.498372 -133.32974) rotate(11.931935)" fill="#f8adb0" stroke="#6e171a" stroke-linecap="round" stroke-miterlimit="10" stroke-width="4"/><rect x="709.615731" y="393.715512" width="226.666667" height="122.222222" rx="48" ry="48" transform="translate(111.815914 -160.317313) rotate(11.931935)" fill="#d8b1d7" stroke="#782075" stroke-linecap="round" stroke-miterlimit="10" stroke-width="4"/><rect x="564.53831" y="389.925898" width="180" height="122.222222" rx="41.777778" ry="41.777778" transform="translate(107.393714 -125.580346) rotate(11.931935)" fill="#fac4b0" stroke="#963816" stroke-linecap="round" stroke-miterlimit="10" stroke-width="4"/><path d="M598.495457,400.960799s-4.303179,14.989763,13.968375,18.093722c19.043324,3.235067,23.146403-11.007899,23.146403-11.007899" fill="none" stroke="#723359" stroke-linecap="round" stroke-miterlimit="10" stroke-width="4"/><path d="M616.453971,320.080532c-19.24185-16.92002-29.348308-22.209597-55.359504-26.960142-36.290739-7.492179-49.30379,18.351108-45.977992,59.937229,3.539762,44.261554,34.213299,60.2267,51.473509,80.058461" fill="none" stroke="#723359" stroke-linecap="round" stroke-miterlimit="10" stroke-width="4"/><path d="M938.55103,371.146404l1.732882-29.263489c.634597-10.721189-2.180542-20.84414-7.475879-29.302821-.889681-1.421162-3.011951-1.35523-3.818469.114724-.91068,1.659799-2.250577,3.108248-3.993992,4.156448l-59.552702,35.808202c-6.335027,3.809163-14.794649,2.249266-18.792157-3.96863-4.136408-6.433947-2.11442-14.965844,4.393631-18.878956,0,0,55.901311-33.595731,59.953906-36.030464.095329-.057272.075785-.197542-.031697-.226098-10.206336-2.711572-233.034988-17.071651-233.034988-17.071651-28.678826-1.698141-53.304251,20.174104-55.002345,48.853003l-1.600178,27.026415c-1.698019,28.678912,20.174257,53.304306,48.853163,55.002433l213.366217,12.633779c28.678881,1.698126,53.304344-20.174023,55.002608-48.852895Z" fill="#fee3b8" stroke="#8c5411" stroke-linecap="round" stroke-miterlimit="10" stroke-width="4"/><rect x="843.972348" y="308.596227" width="94.814815" height="27.000162" rx="11.259248" ry="11.259248" transform="translate(-38.516854 505.38896) rotate(-31.017779)" fill="#c2c2ff" stroke="#3434bf" stroke-miterlimit="10" stroke-width="4"/><rect x="632.117385" y="324.514437" width="24.444444" height="84.444444" rx="9.777768" ry="9.777768" transform="translate(89.744302 -125.293171) rotate(11.931935)" fill="#f8c5e3" stroke="#723359" stroke-linecap="round" stroke-miterlimit="10" stroke-width="4"/><rect x="595.00269" y="317.428635" width="24.444444" height="84.444444" rx="9.777768" ry="9.777768" transform="translate(87.477411 -117.77282) rotate(11.931935)" fill="#f8c5e3" stroke="#723359" stroke-linecap="round" stroke-miterlimit="10" stroke-width="4"/><path d="M412.619782,78.445833c20.284696,7.29238,42.47318,7.131073,63.361176,12.454538,20.887997,5.323465,42.325074,18.89402,46.147144,40.108153,3.508504,19.473696-8.319243,42.04463,3.266415,58.085422,7.871964,10.899047,22.869285,13.029798,36.087992,15.483956,13.218706,2.454158,28.316506,8.120801,31.753227,21.118725,2.876374,10.87865-3.196488,24.771887,5.034722,32.444288,2.67266,2.491223,6.307041,3.594826,9.728025,4.877863,26.682451,10.007212,45.304826,34.497762,47.462189,62.913305" fill="none" stroke="#723359" stroke-linecap="round" stroke-miterlimit="10" stroke-width="4"/><rect x="2" y="2" width="415.555556" height="119.735266" rx="33.777744" ry="33.777744" fill="#f8c5e3" stroke="#723359" stroke-linecap="round" stroke-miterlimit="10" stroke-width="4"/></svg>