<?xml version="1.0" encoding="UTF-8"?><svg id="a" xmlns="http://www.w3.org/2000/svg" width="261.7396" height="315.1487" xmlns:xlink="http://www.w3.org/1999/xlink" viewBox="0 0 261.7396 315.1487"><defs><linearGradient id="b" x1="110.8787" y1="22.7395" x2="110.7787" y2="22.7395" gradientUnits="userSpaceOnUse"><stop offset="0" stop-color="#13272e"/><stop offset=".0162" stop-color="#162c34"/><stop offset=".1526" stop-color="#2e5767"/><stop offset=".2916" stop-color="#437c92"/><stop offset=".4311" stop-color="#549ab6"/><stop offset=".5712" stop-color="#61b2d1"/><stop offset=".7121" stop-color="#6bc2e5"/><stop offset=".8543" stop-color="#71ccf1"/><stop offset="1" stop-color="#73d0f5"/></linearGradient><linearGradient id="c" x1="136.0752" y1="291.7862" x2="136.0752" y2="54.4835" gradientUnits="userSpaceOnUse"><stop offset="0" stop-color="#1d3b47"/><stop offset=".1097" stop-color="#1f3f4c"/><stop offset=".2515" stop-color="#264d5c"/><stop offset=".3598" stop-color="#2e5c6e"/><stop offset=".5993" stop-color="#448ea8"/><stop offset=".6495" stop-color="#4897b3"/><stop offset=".7446" stop-color="#4ea4c3"/><stop offset=".8526" stop-color="#51accd"/><stop offset="1" stop-color="#53afd0"/></linearGradient><radialGradient id="d" cx="132.6316" cy="219.6305" fx="132.6316" fy="219.6305" r="27.1296" gradientUnits="userSpaceOnUse"><stop offset="0" stop-color="#f1f7eb"/><stop offset=".1976" stop-color="#edf5e7"/><stop offset=".3698" stop-color="#e2f1dc"/><stop offset=".5325" stop-color="#d0e9ca"/><stop offset=".6893" stop-color="#b7deb1"/><stop offset=".842" stop-color="#97d091"/><stop offset=".9897" stop-color="#70c06a"/><stop offset="1" stop-color="#6dbf67"/></radialGradient><radialGradient id="e" cx="-123.5428" cy="347.2575" fx="-123.5428" fy="347.2575" r="26.8561" gradientTransform="translate(246.5819 -175.6309) scale(.8511 .9246)" gradientUnits="userSpaceOnUse"><stop offset="0" stop-color="#ffecd2"/><stop offset=".2098" stop-color="#fee8c9"/><stop offset=".543" stop-color="#fedeb2"/><stop offset=".9558" stop-color="#fdce8d"/><stop offset="1" stop-color="#fdcd89"/></radialGradient></defs><path d="M110.8787,22.7345v.01h-.1c.03,0,.07,0,.1-.01Z" fill="url(#b)"/><path d="M111.1942,8.611h0c5.6468-1.2503,11.3988-1.9965,17.1855-2.2296l16.7858-.6761c14.3678-.5787,27.6371,7.5735,33.3809,20.508l3.896,8.7734-25.5577,96.4908-45.2382-18.7051-16.6813-79.4776c-2.3508-11.2002,4.8593-22.1665,16.229-24.6838Z" fill="#cfecf8" stroke="#05415a" stroke-miterlimit="10" stroke-width="4"/><path d="M246.7978,31.4811l-39.1756,99.0298-66.0303,166.9302-7.4396-156.05-2.5724-54.0414c-.9545-20.0528,2.5798-40.0386,10.1917-57.6316l5.8281-13.4701c3.8272-8.8457,11.1513-14.3051,19.0781-14.2475.033.0002.0654.0005.0974.0007,33.7371.1599,62.3262,12.4497,80.0149,29.48h.0079Z" fill="#cfecf8" stroke="#05415a" stroke-miterlimit="10" stroke-width="4"/><path d="M8.28,40.6172l42.8453,99.0298,64.9396,150.111c2.0063,4.6378,7.9861,3.203,8.2564-1.9811l7.1563-137.2498,2.9354-56.3849c.9642-18.5219-2.6061-36.9821-10.2955-53.232l-9.3246-19.7057c-2.9619-6.2594-8.6236-10.1316-14.7583-10.0936l-4.2357.0263c-36.8975.1599-68.1647,12.4497-87.5103,29.48h-.0086Z" fill="#cfecf8" stroke="#05415a" stroke-miterlimit="10" stroke-width="4"/><path d="M214.089,140.3982c-5.0677,62.6803-29.0697,119.3195-51.991,148.2305-.9747,1.2294-11.5306-3.6772-26.7482-4.6009-8.0042-.4859-28.3655,8.166-28.6968,7.7434-22.9105-29.2151-46.9229-91.204-48.9155-157.8431-1.3378-44.6115,23.7302-81.8449,39.309-79.3223.7919-.5359,2.7504.7365,5.5241,2.9001,1.0251.7996,2.2041,1.301,3.4147,1.2865,5.1882-.0622,14.3358,6.6306,26.5394,6.6306,14.3369,0,29.6829-7.5821,37.6905-4.391,1.9154.7633,4.0171.4489,5.6062-1.0823.1107-.1067.2156-.21.3146-.3097,1.1137-1.1223,2.5259-1.7212,3.959-1.6419,15.6504.8654,37.5032,39.1124,33.9939,82.4002Z" fill="url(#c)"/><circle cx="132.6316" cy="219.6305" r="27.1296" fill="url(#d)" stroke="#134d26" stroke-miterlimit="10" stroke-width="1.445"/><rect x="116.4131" y="123.22" width="50.0372" height="44.4771" rx="7.6971" ry="7.6971" transform="translate(-15.8972 17.362) rotate(-6.6518)" fill="url(#e)" stroke="#93703e" stroke-miterlimit="10" stroke-width="1.7728"/><path d="M134.4077,300.4241c-.2251,8.5848-8.5555,14.6648-16.7677,12.1533-32.5414-9.9522-88.7907-44.0958-100.3718-102.3986-7.3649-37.0774,10.1038-41.6753,1.5281-87.9892C9.7667,73.4241-3.4632,62.3166,4.3961,45.3283c5.7475-12.4235,19.7535-19.764,30.7642-21.0846,12.5578-1.5062,14.6483,5.606,33.6568,9.5719,25.9397,5.4121,35.8534-4.9518,49.5191,4.6911.7824.552,10.8147,7.925,13.3617,20.5267,1.8272,9.0404-1.0186,17.1536-2.3607,20.9796-2.8638,8.1644-6.1646,10.2956-8.2514,19.6306-.6769,3.0279-1.4685,6.5689-1.2009,11.2302.687,11.9663,7.3671,14.1189,6.4508,23.8918-.5353,5.7103-2.3925,11.4633-2.3925,11.4634-.7164,2.2194-1.5751,4.3705-1.8287,7.601-.2431,3.0963.2027,5.3863.3362,6.1672,1.7041,9.9711-2.5129,19.8979-10.3437,26.3032-8.4246,6.899-13.9147,17.2807-14.2404,29.0162-.1118,4.0284.3904,7.9238,1.4287,11.6041,3.0133,10.7377,11.3159,17.9708,14.0455,20.5475.9319.8704,1.8791,1.6642,2.8384,2.3862,12.0963,9.1057,18.9361,23.5799,18.5393,38.7152l-.3108,11.8545Z" fill="#cfecf8" stroke="#05415a" stroke-miterlimit="10" stroke-width="4"/><path d="M236.8796,136.7289c.595-45.3294,31.3019-59.4407,20.5961-91.0422-4.3476-12.8334-15.5778-28.7639-29.0735-30.1323-9.7678-.9906-13.2682,6.403-29.9868,7.5653-13.1437.9136-14.6591-3.4004-25.2841-1.2738-12.5933,2.5206-20.816,10.7101-25.3091,15.0405-5.1074,4.9226-11.3712,10.9595-13.2735,20.5838-1.7884,9.0482,1.0922,17.1491,2.4506,20.9694,2.8988,8.1521,6.2087,10.2691,8.3355,19.5949.289,1.2671.5985,2.6242.8424,4.1162l.0309.1938c.665,4.1713,4.503,7.0746,8.6979,6.5797,5.6402-.6654,10.7519,3.3675,11.4173,9.0076l5.3681,45.5033c.6654,5.6403-3.3675,10.752-9.0077,11.4174l-5.4412.6419c-4.5095.532-6.1635,6.223-2.6415,9.0891l.0841.0685c6.9644,7.1124,7.93,12.4636,7.6362,15.9301-.5979,7.0529-6.64,9.02-6.4707,15.9959.1683,6.9345,6.2002,7.5057,5.9118,14.4649-.2996,7.227-7.1059,13.8795-8.0487,14.7816-.7214.6901-1.3574,1.2214-1.7991,1.5747-1.4084,1.1239-2.5231,1.7628-3.7394,2.676-1.8727,1.4061-3.9068,3.2078-5.983,5.5652-8.3426,9.4728-11.9925,22.1953-10.4004,34.7174l1.0824,8.5126c.2615,8.5704,8.6019,14.6306,16.7912,12.0899,28.1762-8.741,60.6094-30.824,69.6947-41.8482,10.605-12.8677,26.6715-32.3624,30.2654-60.9886,4.1158-32.7834-13.1952-37.1712-12.746-71.3946Z" fill="#cfecf8" stroke="#05415a" stroke-miterlimit="10" stroke-width="4"/></svg>