<?xml version="1.0" encoding="UTF-8"?><svg id="Layer_1" xmlns="http://www.w3.org/2000/svg" width="584.27051" height="279.85742" viewBox="0 0 584.27051 279.85742"><line x1="67.72795" y1="111.16486" x2="131.72795" y2="149.35142" fill="none" stroke="#231f20" stroke-linecap="round" stroke-miterlimit="10" stroke-width="4"/><line x1="195.98574" y1="111.16486" x2="131.98574" y2="149.35142" fill="none" stroke="#231f20" stroke-linecap="round" stroke-miterlimit="10" stroke-width="4"/><line x1="450.89801" y1="111.6192" x2="450.89799" y2="37.0926" fill="none" stroke="#231f20" stroke-linecap="round" stroke-miterlimit="10" stroke-width="4"/><polygon points="383.86841 223.50073 387.66455 148.97412 390.86475 148.97412 394.66089 223.50073 383.86841 223.50073 383.86841 223.50073" fill="#231f20"/><line x1="457.06098" y1="111.6192" x2="457.06095" y2="37.0926" fill="none" stroke="#231f20" stroke-linecap="round" stroke-miterlimit="10" stroke-width="4"/><polyline points="518.36708 149.35142 454.36708 111.16486 453.81588 111.16486 389.81588 149.35142 389.26468 149.35142 325.26468 111.16486 325.22849 111.16486 259.98574 149.35142 195.98574 111.16486" fill="none" stroke="#231f20" stroke-linecap="round" stroke-miterlimit="10" stroke-width="4"/><text transform="translate(524.53319 164.04154)" fill="#231f20" font-family="TimesNewRomanPS-BoldMT, &apos;Times New Roman&apos;" font-size="38.4" font-weight="700"><tspan x="0" y="0">OH</tspan></text><text transform="translate(442.29295 31.91166)" fill="#231f20" font-family="TimesNewRomanPS-BoldMT, &apos;Times New Roman&apos;" font-size="38.4" font-weight="700"><tspan x="0" y="0">O</tspan></text><text transform="translate(375.09276 254.48881)" fill="#231f20" font-family="TimesNewRomanPS-BoldMT, &apos;Times New Roman&apos;" font-size="38.4" font-weight="700"><tspan x="0" y="0">NH</tspan></text><text transform="translate(432.69237 267.27592) scale(.583)" fill="#231f20" font-family="TimesNewRomanPS-BoldMT, &apos;Times New Roman&apos;" font-size="38.4" font-weight="700" letter-spacing=".00004em"><tspan x="0" y="0">2</tspan></text><text transform="translate(.0003 119.38261)" fill="#231f20" font-family="TimesNewRomanPS-BoldMT, &apos;Times New Roman&apos;" font-size="38.4" font-weight="700"><tspan x="0" y="0">H</tspan></text><text transform="translate(29.86944 132.16972) scale(.583)" fill="#231f20" font-family="TimesNewRomanPS-BoldMT, &apos;Times New Roman&apos;" font-size="38.4" font-weight="700"><tspan x="0" y="0">2</tspan></text><text transform="translate(41.0628 119.38261)" fill="#231f20" font-family="TimesNewRomanPS-BoldMT, &apos;Times New Roman&apos;" font-size="38.4" font-weight="700"><tspan x="0" y="0">N</tspan></text></svg>