<?xml version="1.0" encoding="UTF-8"?><svg id="Layer_1" xmlns="http://www.w3.org/2000/svg" width="417.781516" height="422.944383" xmlns:xlink="http://www.w3.org/1999/xlink" viewBox="0 0 417.781516 422.944383"><defs><radialGradient id="radial-gradient" cx="208.890758" cy="211.472192" fx="208.890758" fy="211.472192" r="208.685466" gradientUnits="userSpaceOnUse"><stop offset="0" stop-color="#fef5e8"/><stop offset=".231262" stop-color="#fdf4e5" stop-opacity=".991138"/><stop offset=".446121" stop-color="#fdf1df" stop-opacity=".964118"/><stop offset=".654476" stop-color="#fdedd5" stop-opacity=".918875"/><stop offset=".857585" stop-color="#fde7c6" stop-opacity=".855785"/><stop offset="1" stop-color="#fde2ba" stop-opacity=".8"/></radialGradient><radialGradient id="radial-gradient-2" cx="161.40588" cy="273.169218" fx="161.40588" fy="273.169218" r="47.779708" gradientTransform="translate(436.271053 -244.8767) rotate(48.96457) scale(1.231546 1.756086)" gradientUnits="userSpaceOnUse"><stop offset="0" stop-color="#f5dcc7"/><stop offset=".231524" stop-color="#f4d9c3"/><stop offset=".446625" stop-color="#f2d2b8"/><stop offset=".655212" stop-color="#eec6a5"/><stop offset=".858539" stop-color="#e9b68b"/><stop offset="1" stop-color="#e5a874"/></radialGradient></defs><path d="M361.731258,256.353803c-4.092601-1.203853-7.913585-2.914334-11.690901-4.434606-11.114074-4.473128-18.526526-15.09298-18.683887-27.07241l-.00214-.162906c-.051923-3.952758,3.434834-7.010616,7.351048-6.471858,9.584613,1.318566,16.046728.938741,16.749818-1.427556.6922-2.328125-4.339478-6.09375-12.842224-10.150391-7.935181-3.787109-13.235474-11.541016-13.890442-20.308594l-.009338-.125c-.475704-6.367605,3.023093-12.358821,8.781944-15.11714,14.798213-7.087907,24.538066-14.067423,23.284035-17.240282-1.330442-3.364406-14.621164-1.396311-31.67736,4.284996-1.569486.522786-3.255334-.404771-3.652752-2.010588l-.042053-.169922c-1.988918-8.036481,1.512027-16.457359,8.653256-20.645875,10.514143-6.166817,16.8633-11.672238,15.724158-14.26818-1.276672-2.908203-11.61322-1.367188-25.508728,3.321289-4.894104,1.652344-10.248962-.613281-12.410645-5.304688l-.037232-.081055c-5.940368-12.932379-3.613494-28.169301,5.951848-38.706786,18.67292-20.570682,44.959347-52.96789,33.976741-61.57544-9.158798-7.177531-50.151426-2.692637-66.800549,44.46187-3.280602,9.291491-14.195042,13.272377-22.841153,8.54597-5.883057-3.215981-12.016189-6.03368-18.362676-8.415033-4.950428-1.857519-7.848478-6.996441-6.734691-12.16525,1.384377-6.424553,2.264935-13.988138-1.031194-14.568182-3.027095-.533181-6.382348,6.834344-8.731942,12.980668-1.7235,4.50852-6.368797,7.189398-11.136404,6.436318l-.210205-.033203c-7.300037-1.153096-12.456578-7.784236-11.771246-15.142938,2.299361-24.689222,5.848502-36.531874-7.15887-38.988891-12.579407-2.375-12.981934,9.490234-11.440857,33.78125.638794,10.070312-3.771606,18.708008-13.335754,21.921875-1.933594.916016-8.222229,7.629883-15.609497,1.201172-13.131287-28.459961-51.356995-55.244141-56.983093-46.238281-6.844971,10.958008,17.459656,38.979492,28.925903,51.222656,15.939087,17.019531-13.333313,11.444336-23.002502,20.4375-.945068.878906-2.019287,1.605469-3.027527,2.411133-5.884583,4.703125-13.82312,5.99707-20.750305,3.038086-4.683777-2-17.348999-9.430664-18.699585-6.325195-.860535,1.978516,8.739075,11.443359,10.794495,13.722656,4.890735,5.424549,5.349757,13.456628,1.139397,19.440934-.621516.883378-1.201915,1.796042-1.807383,2.690495-3.601337,5.32022-10.232054,7.661527-16.472822,6.069743-3.14563-.802734-13.740173-10.475586-16.987061-6.145508-4,5.333008,10.328918,12.445312,12.421265,14.741211,5.102051,5.599609,6.48175,13.618164,4.207764,20.844727-1.019287,3.238281-1.927002,6.527344-2.718262,9.859375-2.039001,8.588867-10.913879,14.135742-19.55188,12.316406-21.808899-4.594727-35.346375-11.884766-32.101135-.324219,1.990618,7.091207,10.303609,17.015926,32.255946,19.350927,8.920402.948835,15.906219,8.105288,16.745144,17.036697.284017,3.023721.617272,6.12089.998665,8.973704.179443,1.341797.569702,4.058594,1.027649,7.200195,1.498291,10.27832-2.419006,20.616211-10.387451,27.27832-9.908813,8.285156-24.864258,13.857422-34.025574,20.268555-7.591064,5.3125-3.809998,17.397461,5.452148,17.157227,12.679443-.327148,25.029175-5.961914,38.080261-14.818359,8.388-5.691406,19.743896-3.899414,25.811096,4.22168.093872.125.187866.250977.282043.376953l.221346.296231c4.280764,5.729028,4.604878,13.441074.981148,19.606728-4.271395,7.267636-5.922961,13.052204-3.770976,14.879268,2.566762,2.179854,9.811371-1.893401,17.916017-9.556384,2.316597-2.190354,5.919531-2.342211,8.376115-.310101.059284.04904.118608.098034.177972.146981,5.17968,4.270809,6.189481,11.900058,2.034845,17.173377-.10568.134136-.208156.259865-.30695.376205-10.961792,12.911133-17.086243,25.722656-13.679443,28.615234,3.406799,2.891602,15.05481-5.229492,26.016602-18.140625.026431-.031133.052834-.062265.079208-.093396,3.780532-4.462386,10.928716-3.403197,13.171935,1.998033,3.382678,8.144821,4.762601,17.135481,3.787553,26.232082-4.633728,43.228516-.207642,58.389648,9.831848,56.56543,10.61648-1.928704,25.071984-9.275341,29.110844-69.803171.420377-6.299929,5.860513-11.075188,12.164301-10.717299l.292419.016602c6.169389.350259,11.044961,5.362864,11.236739,11.539211.6194,19.948146.312938,29.86798,12.183551,30.448056,10.830804.5301,11.601059-7.874378,8.62712-24.955917-1.673486-9.61207,4.299802-18.892133,13.727829-21.403059,2.636559-.702183,5.243297-1.477904,7.817865-2.324272,8.423515-2.769161,17.21287,3.064484,17.795228,11.912349.811514,12.329465,2.467274,18.587611,10.359716,19.243555,8.747046.728503,9.564365-6.872793,7.10742-22.464085-2.111734-13.400652,2.692453-27.064215,13.007908-35.874907,4.670669-3.989337,9.082296-8.271652,13.206192-12.820576,8.531263-9.410535,22.33779-11.852611,33.424024-5.652931l.251465.140625c19.276855,6.547852,78.625183,3.267578,82.684265-11.229492,3.650452-13.038086-37.333313-16-54.321411-21Z" fill="url(#radial-gradient)" stroke="#bd9b69" stroke-miterlimit="10" stroke-width="3"/><path d="M245.344117,253.627557c-34.096532,32.139404-61.26832,45.695324-91.030615,17.917182-26.666667-24.888889-5.28062-60.07216,20.296296-92.740741,18.361297-23.4523,46.034888-28.04076,78.666667-8.830034,31.707627,18.666667,27.876149,49.90049-7.932348,83.653593Z" fill="url(#radial-gradient-2)" stroke="#73543a" stroke-miterlimit="10"/></svg>