<?xml version="1.0" encoding="UTF-8"?><svg id="Dimensions" xmlns="http://www.w3.org/2000/svg" width="553.307688" height="423.886456" xmlns:xlink="http://www.w3.org/1999/xlink" viewBox="0 0 553.307688 423.886456"><defs><linearGradient id="linear-gradient" x1=".832117" y1="211.943228" x2="552.475571" y2="211.943228" gradientUnits="userSpaceOnUse"><stop offset="0" stop-color="#fff"/><stop offset="1" stop-color="#e6e7e8" stop-opacity=".5"/></linearGradient></defs><rect x=".832117" y=".832117" width="551.643454" height="422.222222" rx="33.15506" ry="33.15506" fill="url(#linear-gradient)" stroke="#231f20" stroke-miterlimit="10" stroke-width="1.664234"/><path d="M45.216131,400.217859c-10.905762,0-19.777832-8.87207-19.777832-19.77832,0-10.905273,8.87207-19.777344,19.777832-19.777344s19.777832,8.87207,19.777832,19.777344c0,10.90625-8.87207,19.77832-19.777832,19.77832Z" fill="none" stroke="#231f20" stroke-miterlimit="10"/><circle cx="45.216312" cy="380.4398" r="17.777778" fill="#efa8ca" stroke="#231f20" stroke-miterlimit="10"/><path d="M86.993963,400.217859c-10.905762,0-19.777832-8.87207-19.777832-19.77832,0-10.905273,8.87207-19.777344,19.777832-19.777344s19.777832,8.87207,19.777832,19.777344c0,10.90625-8.87207,19.77832-19.777832,19.77832Z" fill="none" stroke="#231f20" stroke-miterlimit="10"/><circle cx="86.99409" cy="380.4398" r="17.777778" fill="#efa8ca" stroke="#231f20" stroke-miterlimit="10"/><path d="M128.771795,400.217859c-10.905762,0-19.777832-8.87207-19.777832-19.77832,0-10.905273,8.87207-19.777344,19.777832-19.777344s19.777832,8.87207,19.777832,19.777344c0,10.90625-8.87207,19.77832-19.777832,19.77832Z" fill="none" stroke="#231f20" stroke-miterlimit="10"/><circle cx="128.771867" cy="380.4398" r="17.777778" fill="#efa8ca" stroke="#231f20" stroke-miterlimit="10"/><path d="M170.549627,400.217859c-10.905762,0-19.777832-8.87207-19.777832-19.77832,0-10.905273,8.87207-19.777344,19.777832-19.777344s19.777832,8.87207,19.777832,19.777344c0,10.90625-8.87207,19.77832-19.777832,19.77832Z" fill="none" stroke="#231f20" stroke-miterlimit="10"/><circle cx="170.549645" cy="380.4398" r="17.777778" fill="#efa8ca" stroke="#231f20" stroke-miterlimit="10"/><path d="M212.327459,400.217859c-10.905762,0-19.777832-8.87207-19.777832-19.77832,0-10.905273,8.87207-19.777344,19.777832-19.777344s19.777832,8.87207,19.777832,19.777344c0,10.90625-8.87207,19.77832-19.777832,19.77832Z" fill="none" stroke="#231f20" stroke-miterlimit="10"/><circle cx="212.327423" cy="380.4398" r="17.777778" fill="#efa8ca" stroke="#231f20" stroke-miterlimit="10"/><path d="M254.105291,400.217859c-10.905762,0-19.777832-8.87207-19.777832-19.77832,0-10.905273,8.87207-19.777344,19.777832-19.777344s19.777832,8.87207,19.777832,19.777344c0,10.90625-8.87207,19.77832-19.777832,19.77832Z" fill="none" stroke="#231f20" stroke-miterlimit="10"/><circle cx="254.105201" cy="380.4398" r="17.777778" fill="#efa8ca" stroke="#231f20" stroke-miterlimit="10"/><path d="M295.883123,400.217859c-10.905762,0-19.777832-8.87207-19.777832-19.77832,0-10.905273,8.87207-19.777344,19.777832-19.777344s19.777832,8.87207,19.777832,19.777344c0,10.90625-8.87207,19.77832-19.777832,19.77832Z" fill="none" stroke="#231f20" stroke-miterlimit="10"/><circle cx="295.882979" cy="380.4398" r="17.777778" fill="#efa8ca" stroke="#231f20" stroke-miterlimit="10"/><path d="M337.660955,400.217859c-10.905762,0-19.777832-8.87207-19.777832-19.77832,0-10.905273,8.87207-19.777344,19.777832-19.777344,10.905273,0,19.777344,8.87207,19.777344,19.777344,0,10.90625-8.87207,19.77832-19.777344,19.77832Z" fill="none" stroke="#231f20" stroke-miterlimit="10"/><circle cx="337.660756" cy="380.4398" r="17.777778" fill="#efa8ca" stroke="#231f20" stroke-miterlimit="10"/><path d="M379.438299,400.217859c-10.905273,0-19.777344-8.87207-19.777344-19.77832,0-10.905273,8.87207-19.777344,19.777344-19.777344,10.905762,0,19.777832,8.87207,19.777832,19.777344,0,10.90625-8.87207,19.77832-19.777832,19.77832Z" fill="none" stroke="#231f20" stroke-miterlimit="10"/><circle cx="379.438534" cy="380.4398" r="17.777778" fill="#efa8ca" stroke="#231f20" stroke-miterlimit="10"/><path d="M421.216131,400.217859c-10.905762,0-19.777832-8.87207-19.777832-19.77832,0-10.905273,8.87207-19.777344,19.777832-19.777344s19.777832,8.87207,19.777832,19.777344c0,10.90625-8.87207,19.77832-19.777832,19.77832Z" fill="none" stroke="#231f20" stroke-miterlimit="10"/><circle cx="421.216312" cy="380.4398" r="17.777778" fill="#efa8ca" stroke="#231f20" stroke-miterlimit="10"/><path d="M462.993963,400.217859c-10.905762,0-19.777832-8.87207-19.777832-19.77832,0-10.905273,8.87207-19.777344,19.777832-19.777344s19.777832,8.87207,19.777832,19.777344c0,10.90625-8.87207,19.77832-19.777832,19.77832Z" fill="none" stroke="#231f20" stroke-miterlimit="10"/><circle cx="462.99409" cy="380.4398" r="17.777778" fill="#efa8ca" stroke="#231f20" stroke-miterlimit="10"/><path d="M504.771795,400.217859c-10.905762,0-19.777832-8.87207-19.777832-19.77832,0-10.905273,8.87207-19.777344,19.777832-19.777344s19.777832,8.87207,19.777832,19.777344c0,10.90625-8.87207,19.77832-19.777832,19.77832Z" fill="none" stroke="#231f20" stroke-miterlimit="10"/><circle cx="504.771867" cy="380.4398" r="17.777778" fill="#efa8ca" stroke="#231f20" stroke-miterlimit="10"/><path d="M45.216131,352.760828c-10.905762,0-19.777832-8.87207-19.777832-19.77832,0-10.905273,8.87207-19.777344,19.777832-19.777344s19.777832,8.87207,19.777832,19.777344c0,10.90625-8.87207,19.77832-19.777832,19.77832Z" fill="none" stroke="#231f20" stroke-miterlimit="10"/><circle cx="45.216312" cy="332.982618" r="17.777778" fill="#efa8ca" stroke="#231f20" stroke-miterlimit="10"/><path d="M86.993963,352.760828c-10.905762,0-19.777832-8.87207-19.777832-19.77832,0-10.905273,8.87207-19.777344,19.777832-19.777344s19.777832,8.87207,19.777832,19.777344c0,10.90625-8.87207,19.77832-19.777832,19.77832Z" fill="none" stroke="#231f20" stroke-miterlimit="10"/><circle cx="86.99409" cy="332.982618" r="17.777778" fill="#efa8ca" stroke="#231f20" stroke-miterlimit="10"/><path d="M128.771795,352.760828c-10.905762,0-19.777832-8.87207-19.777832-19.77832,0-10.905273,8.87207-19.777344,19.777832-19.777344s19.777832,8.87207,19.777832,19.777344c0,10.90625-8.87207,19.77832-19.777832,19.77832Z" fill="none" stroke="#231f20" stroke-miterlimit="10"/><circle cx="128.771867" cy="332.982618" r="17.777778" fill="#efa8ca" stroke="#231f20" stroke-miterlimit="10"/><path d="M170.549627,352.760828c-10.905762,0-19.777832-8.87207-19.777832-19.77832,0-10.905273,8.87207-19.777344,19.777832-19.777344s19.777832,8.87207,19.777832,19.777344c0,10.90625-8.87207,19.77832-19.777832,19.77832Z" fill="none" stroke="#231f20" stroke-miterlimit="10"/><circle cx="170.549645" cy="332.982618" r="17.777778" fill="#efa8ca" stroke="#231f20" stroke-miterlimit="10"/><path d="M212.327459,352.760828c-10.905762,0-19.777832-8.87207-19.777832-19.77832,0-10.905273,8.87207-19.777344,19.777832-19.777344s19.777832,8.87207,19.777832,19.777344c0,10.90625-8.87207,19.77832-19.777832,19.77832Z" fill="none" stroke="#231f20" stroke-miterlimit="10"/><circle cx="212.327423" cy="332.982618" r="17.777778" fill="#efa8ca" stroke="#231f20" stroke-miterlimit="10"/><path d="M254.105291,352.760828c-10.905762,0-19.777832-8.87207-19.777832-19.77832,0-10.905273,8.87207-19.777344,19.777832-19.777344s19.777832,8.87207,19.777832,19.777344c0,10.90625-8.87207,19.77832-19.777832,19.77832Z" fill="none" stroke="#231f20" stroke-miterlimit="10"/><circle cx="254.105201" cy="332.982618" r="17.777778" fill="#efa8ca" stroke="#231f20" stroke-miterlimit="10"/><path d="M295.883123,352.760828c-10.905762,0-19.777832-8.87207-19.777832-19.77832,0-10.905273,8.87207-19.777344,19.777832-19.777344s19.777832,8.87207,19.777832,19.777344c0,10.90625-8.87207,19.77832-19.777832,19.77832Z" fill="none" stroke="#231f20" stroke-miterlimit="10"/><circle cx="295.882979" cy="332.982618" r="17.777778" fill="#efa8ca" stroke="#231f20" stroke-miterlimit="10"/><path d="M337.660955,352.760828c-10.905762,0-19.777832-8.87207-19.777832-19.77832,0-10.905273,8.87207-19.777344,19.777832-19.777344,10.905273,0,19.777344,8.87207,19.777344,19.777344,0,10.90625-8.87207,19.77832-19.777344,19.77832Z" fill="none" stroke="#231f20" stroke-miterlimit="10"/><circle cx="337.660756" cy="332.982618" r="17.777778" fill="#efa8ca" stroke="#231f20" stroke-miterlimit="10"/><path d="M379.438299,352.760828c-10.905273,0-19.777344-8.87207-19.777344-19.77832,0-10.905273,8.87207-19.777344,19.777344-19.777344,10.905762,0,19.777832,8.87207,19.777832,19.777344,0,10.90625-8.87207,19.77832-19.777832,19.77832Z" fill="none" stroke="#231f20" stroke-miterlimit="10"/><circle cx="379.438534" cy="332.982618" r="17.777778" fill="#efa8ca" stroke="#231f20" stroke-miterlimit="10"/><path d="M421.216131,352.760828c-10.905762,0-19.777832-8.87207-19.777832-19.77832,0-10.905273,8.87207-19.777344,19.777832-19.777344s19.777832,8.87207,19.777832,19.777344c0,10.90625-8.87207,19.77832-19.777832,19.77832Z" fill="none" stroke="#231f20" stroke-miterlimit="10"/><circle cx="421.216312" cy="332.982618" r="17.777778" fill="#efa8ca" stroke="#231f20" stroke-miterlimit="10"/><path d="M462.993963,352.760828c-10.905762,0-19.777832-8.87207-19.777832-19.77832,0-10.905273,8.87207-19.777344,19.777832-19.777344s19.777832,8.87207,19.777832,19.777344c0,10.90625-8.87207,19.77832-19.777832,19.77832Z" fill="none" stroke="#231f20" stroke-miterlimit="10"/><circle cx="462.99409" cy="332.982618" r="17.777778" fill="#efa8ca" stroke="#231f20" stroke-miterlimit="10"/><path d="M504.771795,352.760828c-10.905762,0-19.777832-8.87207-19.777832-19.77832,0-10.905273,8.87207-19.777344,19.777832-19.777344s19.777832,8.87207,19.777832,19.777344c0,10.90625-8.87207,19.77832-19.777832,19.77832Z" fill="none" stroke="#231f20" stroke-miterlimit="10"/><circle cx="504.771867" cy="332.982618" r="17.777778" fill="#efa8ca" stroke="#231f20" stroke-miterlimit="10"/><path d="M45.216131,305.30282c-10.905762,0-19.777832-8.87207-19.777832-19.777344s8.87207-19.777344,19.777832-19.777344,19.777832,8.87207,19.777832,19.777344-8.87207,19.777344-19.777832,19.777344Z" fill="none" stroke="#231f20" stroke-miterlimit="10"/><circle cx="45.216312" cy="285.525435" r="17.777778" fill="#efa8ca" stroke="#231f20" stroke-miterlimit="10"/><path d="M86.993963,305.30282c-10.905762,0-19.777832-8.87207-19.777832-19.777344s8.87207-19.777344,19.777832-19.777344,19.777832,8.87207,19.777832,19.777344-8.87207,19.777344-19.777832,19.777344Z" fill="none" stroke="#231f20" stroke-miterlimit="10"/><circle cx="86.99409" cy="285.525435" r="17.777778" fill="#efa8ca" stroke="#231f20" stroke-miterlimit="10"/><path d="M128.771795,305.30282c-10.905762,0-19.777832-8.87207-19.777832-19.777344s8.87207-19.777344,19.777832-19.777344,19.777832,8.87207,19.777832,19.777344-8.87207,19.777344-19.777832,19.777344Z" fill="none" stroke="#231f20" stroke-miterlimit="10"/><circle cx="128.771867" cy="285.525435" r="17.777778" fill="#efa8ca" stroke="#231f20" stroke-miterlimit="10"/><path d="M170.549627,305.30282c-10.905762,0-19.777832-8.87207-19.777832-19.777344s8.87207-19.777344,19.777832-19.777344,19.777832,8.87207,19.777832,19.777344-8.87207,19.777344-19.777832,19.777344Z" fill="none" stroke="#231f20" stroke-miterlimit="10"/><circle cx="170.549645" cy="285.525435" r="17.777778" fill="#efa8ca" stroke="#231f20" stroke-miterlimit="10"/><path d="M212.327459,305.30282c-10.905762,0-19.777832-8.87207-19.777832-19.777344s8.87207-19.777344,19.777832-19.777344,19.777832,8.87207,19.777832,19.777344-8.87207,19.777344-19.777832,19.777344Z" fill="none" stroke="#231f20" stroke-miterlimit="10"/><circle cx="212.327423" cy="285.525435" r="17.777778" fill="#efa8ca" stroke="#231f20" stroke-miterlimit="10"/><path d="M254.105291,305.30282c-10.905762,0-19.777832-8.87207-19.777832-19.777344s8.87207-19.777344,19.777832-19.777344,19.777832,8.87207,19.777832,19.777344-8.87207,19.777344-19.777832,19.777344Z" fill="none" stroke="#231f20" stroke-miterlimit="10"/><circle cx="254.105201" cy="285.525435" r="17.777778" fill="#efa8ca" stroke="#231f20" stroke-miterlimit="10"/><path d="M295.883123,305.30282c-10.905762,0-19.777832-8.87207-19.777832-19.777344s8.87207-19.777344,19.777832-19.777344,19.777832,8.87207,19.777832,19.777344-8.87207,19.777344-19.777832,19.777344Z" fill="none" stroke="#231f20" stroke-miterlimit="10"/><circle cx="295.882979" cy="285.525435" r="17.777778" fill="#efa8ca" stroke="#231f20" stroke-miterlimit="10"/><path d="M337.660955,305.30282c-10.905762,0-19.777832-8.87207-19.777832-19.777344s8.87207-19.777344,19.777832-19.777344c10.905273,0,19.777344,8.87207,19.777344,19.777344s-8.87207,19.777344-19.777344,19.777344Z" fill="none" stroke="#231f20" stroke-miterlimit="10"/><circle cx="337.660756" cy="285.525435" r="17.777778" fill="#efa8ca" stroke="#231f20" stroke-miterlimit="10"/><path d="M379.438299,305.30282c-10.905273,0-19.777344-8.87207-19.777344-19.777344s8.87207-19.777344,19.777344-19.777344c10.905762,0,19.777832,8.87207,19.777832,19.777344s-8.87207,19.777344-19.777832,19.777344Z" fill="none" stroke="#231f20" stroke-miterlimit="10"/><circle cx="379.438534" cy="285.525435" r="17.777778" fill="#efa8ca" stroke="#231f20" stroke-miterlimit="10"/><path d="M421.216131,305.30282c-10.905762,0-19.777832-8.87207-19.777832-19.777344s8.87207-19.777344,19.777832-19.777344,19.777832,8.87207,19.777832,19.777344-8.87207,19.777344-19.777832,19.777344Z" fill="none" stroke="#231f20" stroke-miterlimit="10"/><circle cx="421.216312" cy="285.525435" r="17.777778" fill="#efa8ca" stroke="#231f20" stroke-miterlimit="10"/><path d="M462.993963,305.30282c-10.905762,0-19.777832-8.87207-19.777832-19.777344s8.87207-19.777344,19.777832-19.777344,19.777832,8.87207,19.777832,19.777344-8.87207,19.777344-19.777832,19.777344Z" fill="none" stroke="#231f20" stroke-miterlimit="10"/><circle cx="462.99409" cy="285.525435" r="17.777778" fill="#efa8ca" stroke="#231f20" stroke-miterlimit="10"/><path d="M504.771795,305.30282c-10.905762,0-19.777832-8.87207-19.777832-19.777344s8.87207-19.777344,19.777832-19.777344,19.777832,8.87207,19.777832,19.777344-8.87207,19.777344-19.777832,19.777344Z" fill="none" stroke="#231f20" stroke-miterlimit="10"/><circle cx="504.771867" cy="285.525435" r="17.777778" fill="#efa8ca" stroke="#231f20" stroke-miterlimit="10"/><path d="M45.216131,257.845789c-10.905762,0-19.777832-8.87207-19.777832-19.777344,0-10.90625,8.87207-19.77832,19.777832-19.77832s19.777832,8.87207,19.777832,19.77832c0,10.905273-8.87207,19.777344-19.777832,19.777344Z" fill="none" stroke="#231f20" stroke-miterlimit="10"/><circle cx="45.216312" cy="238.068253" r="17.777778" fill="#efa8ca" stroke="#231f20" stroke-miterlimit="10"/><path d="M86.993963,257.845789c-10.905762,0-19.777832-8.87207-19.777832-19.777344,0-10.90625,8.87207-19.77832,19.777832-19.77832s19.777832,8.87207,19.777832,19.77832c0,10.905273-8.87207,19.777344-19.777832,19.777344Z" fill="none" stroke="#231f20" stroke-miterlimit="10"/><circle cx="86.99409" cy="238.068253" r="17.777778" fill="#efa8ca" stroke="#231f20" stroke-miterlimit="10"/><path d="M128.771795,257.845789c-10.905762,0-19.777832-8.87207-19.777832-19.777344,0-10.90625,8.87207-19.77832,19.777832-19.77832s19.777832,8.87207,19.777832,19.77832c0,10.905273-8.87207,19.777344-19.777832,19.777344Z" fill="none" stroke="#231f20" stroke-miterlimit="10"/><circle cx="128.771867" cy="238.068253" r="17.777778" fill="#efa8ca" stroke="#231f20" stroke-miterlimit="10"/><path d="M170.549627,257.845789c-10.905762,0-19.777832-8.87207-19.777832-19.777344,0-10.90625,8.87207-19.77832,19.777832-19.77832s19.777832,8.87207,19.777832,19.77832c0,10.905273-8.87207,19.777344-19.777832,19.777344Z" fill="none" stroke="#231f20" stroke-miterlimit="10"/><circle cx="170.549645" cy="238.068253" r="17.777778" fill="#efa8ca" stroke="#231f20" stroke-miterlimit="10"/><path d="M212.327459,257.845789c-10.905762,0-19.777832-8.87207-19.777832-19.777344,0-10.90625,8.87207-19.77832,19.777832-19.77832s19.777832,8.87207,19.777832,19.77832c0,10.905273-8.87207,19.777344-19.777832,19.777344Z" fill="none" stroke="#231f20" stroke-miterlimit="10"/><circle cx="212.327423" cy="238.068253" r="17.777778" fill="#efa8ca" stroke="#231f20" stroke-miterlimit="10"/><path d="M254.105291,257.845789c-10.905762,0-19.777832-8.87207-19.777832-19.777344,0-10.90625,8.87207-19.77832,19.777832-19.77832s19.777832,8.87207,19.777832,19.77832c0,10.905273-8.87207,19.777344-19.777832,19.777344Z" fill="none" stroke="#231f20" stroke-miterlimit="10"/><circle cx="254.105201" cy="238.068253" r="17.777778" fill="#efa8ca" stroke="#231f20" stroke-miterlimit="10"/><path d="M295.883123,257.845789c-10.905762,0-19.777832-8.87207-19.777832-19.777344,0-10.90625,8.87207-19.77832,19.777832-19.77832s19.777832,8.87207,19.777832,19.77832c0,10.905273-8.87207,19.777344-19.777832,19.777344Z" fill="none" stroke="#231f20" stroke-miterlimit="10"/><circle cx="295.882979" cy="238.068253" r="17.777778" fill="#efa8ca" stroke="#231f20" stroke-miterlimit="10"/><path d="M337.660955,257.845789c-10.905762,0-19.777832-8.87207-19.777832-19.777344,0-10.90625,8.87207-19.77832,19.777832-19.77832,10.905273,0,19.777344,8.87207,19.777344,19.77832,0,10.905273-8.87207,19.777344-19.777344,19.777344Z" fill="none" stroke="#231f20" stroke-miterlimit="10"/><circle cx="337.660756" cy="238.068253" r="17.777778" fill="#efa8ca" stroke="#231f20" stroke-miterlimit="10"/><path d="M379.438299,257.845789c-10.905273,0-19.777344-8.87207-19.777344-19.777344,0-10.90625,8.87207-19.77832,19.777344-19.77832,10.905762,0,19.777832,8.87207,19.777832,19.77832,0,10.905273-8.87207,19.777344-19.777832,19.777344Z" fill="none" stroke="#231f20" stroke-miterlimit="10"/><circle cx="379.438534" cy="238.068253" r="17.777778" fill="#efa8ca" stroke="#231f20" stroke-miterlimit="10"/><path d="M421.216131,257.845789c-10.905762,0-19.777832-8.87207-19.777832-19.777344,0-10.90625,8.87207-19.77832,19.777832-19.77832s19.777832,8.87207,19.777832,19.77832c0,10.905273-8.87207,19.777344-19.777832,19.777344Z" fill="none" stroke="#231f20" stroke-miterlimit="10"/><circle cx="421.216312" cy="238.068253" r="17.777778" fill="#efa8ca" stroke="#231f20" stroke-miterlimit="10"/><path d="M462.993963,257.845789c-10.905762,0-19.777832-8.87207-19.777832-19.777344,0-10.90625,8.87207-19.77832,19.777832-19.77832s19.777832,8.87207,19.777832,19.77832c0,10.905273-8.87207,19.777344-19.777832,19.777344Z" fill="none" stroke="#231f20" stroke-miterlimit="10"/><circle cx="462.99409" cy="238.068253" r="17.777778" fill="#efa8ca" stroke="#231f20" stroke-miterlimit="10"/><path d="M504.771795,257.845789c-10.905762,0-19.777832-8.87207-19.777832-19.777344,0-10.90625,8.87207-19.77832,19.777832-19.77832s19.777832,8.87207,19.777832,19.77832c0,10.905273-8.87207,19.777344-19.777832,19.777344Z" fill="none" stroke="#231f20" stroke-miterlimit="10"/><circle cx="504.771867" cy="238.068253" r="17.777778" fill="#efa8ca" stroke="#231f20" stroke-miterlimit="10"/><path d="M45.216131,210.388758c-10.905762,0-19.777832-8.87207-19.777832-19.777344,0-10.90625,8.87207-19.77832,19.777832-19.77832s19.777832,8.87207,19.777832,19.77832c0,10.905273-8.87207,19.777344-19.777832,19.777344Z" fill="none" stroke="#231f20" stroke-miterlimit="10"/><circle cx="45.216312" cy="190.611071" r="17.777778" fill="#efa8ca" stroke="#231f20" stroke-miterlimit="10"/><path d="M86.993963,210.388758c-10.905762,0-19.777832-8.87207-19.777832-19.777344,0-10.90625,8.87207-19.77832,19.777832-19.77832s19.777832,8.87207,19.777832,19.77832c0,10.905273-8.87207,19.777344-19.777832,19.777344Z" fill="none" stroke="#231f20" stroke-miterlimit="10"/><circle cx="86.99409" cy="190.611071" r="17.777778" fill="#efa8ca" stroke="#231f20" stroke-miterlimit="10"/><path d="M128.771795,210.388758c-10.905762,0-19.777832-8.87207-19.777832-19.777344,0-10.90625,8.87207-19.77832,19.777832-19.77832s19.777832,8.87207,19.777832,19.77832c0,10.905273-8.87207,19.777344-19.777832,19.777344Z" fill="none" stroke="#231f20" stroke-miterlimit="10"/><circle cx="128.771867" cy="190.611071" r="17.777778" fill="#efa8ca" stroke="#231f20" stroke-miterlimit="10"/><path d="M170.549627,210.388758c-10.905762,0-19.777832-8.87207-19.777832-19.777344,0-10.90625,8.87207-19.77832,19.777832-19.77832s19.777832,8.87207,19.777832,19.77832c0,10.905273-8.87207,19.777344-19.777832,19.777344Z" fill="none" stroke="#231f20" stroke-miterlimit="10"/><circle cx="170.549645" cy="190.611071" r="17.777778" fill="#efa8ca" stroke="#231f20" stroke-miterlimit="10"/><path d="M212.327459,210.388758c-10.905762,0-19.777832-8.87207-19.777832-19.777344,0-10.90625,8.87207-19.77832,19.777832-19.77832s19.777832,8.87207,19.777832,19.77832c0,10.905273-8.87207,19.777344-19.777832,19.777344Z" fill="none" stroke="#231f20" stroke-miterlimit="10"/><circle cx="212.327423" cy="190.611071" r="17.777778" fill="#efa8ca" stroke="#231f20" stroke-miterlimit="10"/><path d="M254.105291,210.388758c-10.905762,0-19.777832-8.87207-19.777832-19.777344,0-10.90625,8.87207-19.77832,19.777832-19.77832s19.777832,8.87207,19.777832,19.77832c0,10.905273-8.87207,19.777344-19.777832,19.777344Z" fill="none" stroke="#231f20" stroke-miterlimit="10"/><circle cx="254.105201" cy="190.611071" r="17.777778" fill="#efa8ca" stroke="#231f20" stroke-miterlimit="10"/><path d="M295.883123,210.388758c-10.905762,0-19.777832-8.87207-19.777832-19.777344,0-10.90625,8.87207-19.77832,19.777832-19.77832s19.777832,8.87207,19.777832,19.77832c0,10.905273-8.87207,19.777344-19.777832,19.777344Z" fill="none" stroke="#231f20" stroke-miterlimit="10"/><circle cx="295.882979" cy="190.611071" r="17.777778" fill="#efa8ca" stroke="#231f20" stroke-miterlimit="10"/><path d="M337.660955,210.388758c-10.905762,0-19.777832-8.87207-19.777832-19.777344,0-10.90625,8.87207-19.77832,19.777832-19.77832,10.905273,0,19.777344,8.87207,19.777344,19.77832,0,10.905273-8.87207,19.777344-19.777344,19.777344Z" fill="none" stroke="#231f20" stroke-miterlimit="10"/><circle cx="337.660756" cy="190.611071" r="17.777778" fill="#efa8ca" stroke="#231f20" stroke-miterlimit="10"/><path d="M379.438299,210.388758c-10.905273,0-19.777344-8.87207-19.777344-19.777344,0-10.90625,8.87207-19.77832,19.777344-19.77832,10.905762,0,19.777832,8.87207,19.777832,19.77832,0,10.905273-8.87207,19.777344-19.777832,19.777344Z" fill="none" stroke="#231f20" stroke-miterlimit="10"/><circle cx="379.438534" cy="190.611071" r="17.777778" fill="#efa8ca" stroke="#231f20" stroke-miterlimit="10"/><path d="M421.216131,210.388758c-10.905762,0-19.777832-8.87207-19.777832-19.777344,0-10.90625,8.87207-19.77832,19.777832-19.77832s19.777832,8.87207,19.777832,19.77832c0,10.905273-8.87207,19.777344-19.777832,19.777344Z" fill="none" stroke="#231f20" stroke-miterlimit="10"/><circle cx="421.216312" cy="190.611071" r="17.777778" fill="#efa8ca" stroke="#231f20" stroke-miterlimit="10"/><path d="M462.993963,210.388758c-10.905762,0-19.777832-8.87207-19.777832-19.777344,0-10.90625,8.87207-19.77832,19.777832-19.77832s19.777832,8.87207,19.777832,19.77832c0,10.905273-8.87207,19.777344-19.777832,19.777344Z" fill="none" stroke="#231f20" stroke-miterlimit="10"/><circle cx="462.99409" cy="190.611071" r="17.777778" fill="#efa8ca" stroke="#231f20" stroke-miterlimit="10"/><path d="M504.771795,210.388758c-10.905762,0-19.777832-8.87207-19.777832-19.777344,0-10.90625,8.87207-19.77832,19.777832-19.77832s19.777832,8.87207,19.777832,19.77832c0,10.905273-8.87207,19.777344-19.777832,19.777344Z" fill="none" stroke="#231f20" stroke-miterlimit="10"/><circle cx="504.771867" cy="190.611071" r="17.777778" fill="#efa8ca" stroke="#231f20" stroke-miterlimit="10"/><path d="M45.216131,162.931726c-10.905762,0-19.777832-8.87207-19.777832-19.77832,0-10.905273,8.87207-19.777344,19.777832-19.777344s19.777832,8.87207,19.777832,19.777344c0,10.90625-8.87207,19.77832-19.777832,19.77832Z" fill="none" stroke="#231f20" stroke-miterlimit="10"/><circle cx="45.216312" cy="143.153889" r="17.777778" fill="#efa8ca" stroke="#231f20" stroke-miterlimit="10"/><path d="M86.993963,162.931726c-10.905762,0-19.777832-8.87207-19.777832-19.77832,0-10.905273,8.87207-19.777344,19.777832-19.777344s19.777832,8.87207,19.777832,19.777344c0,10.90625-8.87207,19.77832-19.777832,19.77832Z" fill="none" stroke="#231f20" stroke-miterlimit="10"/><circle cx="86.99409" cy="143.153889" r="17.777778" fill="#efa8ca" stroke="#231f20" stroke-miterlimit="10"/><path d="M128.771795,162.931726c-10.905762,0-19.777832-8.87207-19.777832-19.77832,0-10.905273,8.87207-19.777344,19.777832-19.777344s19.777832,8.87207,19.777832,19.777344c0,10.90625-8.87207,19.77832-19.777832,19.77832Z" fill="none" stroke="#231f20" stroke-miterlimit="10"/><circle cx="128.771867" cy="143.153889" r="17.777778" fill="#efa8ca" stroke="#231f20" stroke-miterlimit="10"/><path d="M170.549627,162.931726c-10.905762,0-19.777832-8.87207-19.777832-19.77832,0-10.905273,8.87207-19.777344,19.777832-19.777344s19.777832,8.87207,19.777832,19.777344c0,10.90625-8.87207,19.77832-19.777832,19.77832Z" fill="none" stroke="#231f20" stroke-miterlimit="10"/><circle cx="170.549645" cy="143.153889" r="17.777778" fill="#efa8ca" stroke="#231f20" stroke-miterlimit="10"/><path d="M212.327459,162.931726c-10.905762,0-19.777832-8.87207-19.777832-19.77832,0-10.905273,8.87207-19.777344,19.777832-19.777344s19.777832,8.87207,19.777832,19.777344c0,10.90625-8.87207,19.77832-19.777832,19.77832Z" fill="none" stroke="#231f20" stroke-miterlimit="10"/><circle cx="212.327423" cy="143.153889" r="17.777778" fill="#efa8ca" stroke="#231f20" stroke-miterlimit="10"/><path d="M254.105291,162.931726c-10.905762,0-19.777832-8.87207-19.777832-19.77832,0-10.905273,8.87207-19.777344,19.777832-19.777344s19.777832,8.87207,19.777832,19.777344c0,10.90625-8.87207,19.77832-19.777832,19.77832Z" fill="none" stroke="#231f20" stroke-miterlimit="10"/><circle cx="254.105201" cy="143.153889" r="17.777778" fill="#efa8ca" stroke="#231f20" stroke-miterlimit="10"/><path d="M295.883123,162.931726c-10.905762,0-19.777832-8.87207-19.777832-19.77832,0-10.905273,8.87207-19.777344,19.777832-19.777344s19.777832,8.87207,19.777832,19.777344c0,10.90625-8.87207,19.77832-19.777832,19.77832Z" fill="none" stroke="#231f20" stroke-miterlimit="10"/><circle cx="295.882979" cy="143.153889" r="17.777778" fill="#efa8ca" stroke="#231f20" stroke-miterlimit="10"/><path d="M337.660955,162.931726c-10.905762,0-19.777832-8.87207-19.777832-19.77832,0-10.905273,8.87207-19.777344,19.777832-19.777344,10.905273,0,19.777344,8.87207,19.777344,19.777344,0,10.90625-8.87207,19.77832-19.777344,19.77832Z" fill="none" stroke="#231f20" stroke-miterlimit="10"/><circle cx="337.660756" cy="143.153889" r="17.777778" fill="#efa8ca" stroke="#231f20" stroke-miterlimit="10"/><path d="M379.438299,162.931726c-10.905273,0-19.777344-8.87207-19.777344-19.77832,0-10.905273,8.87207-19.777344,19.777344-19.777344,10.905762,0,19.777832,8.87207,19.777832,19.777344,0,10.90625-8.87207,19.77832-19.777832,19.77832Z" fill="none" stroke="#231f20" stroke-miterlimit="10"/><circle cx="379.438534" cy="143.153889" r="17.777778" fill="#efa8ca" stroke="#231f20" stroke-miterlimit="10"/><path d="M421.216131,162.931726c-10.905762,0-19.777832-8.87207-19.777832-19.77832,0-10.905273,8.87207-19.777344,19.777832-19.777344s19.777832,8.87207,19.777832,19.777344c0,10.90625-8.87207,19.77832-19.777832,19.77832Z" fill="none" stroke="#231f20" stroke-miterlimit="10"/><circle cx="421.216312" cy="143.153889" r="17.777778" fill="#efa8ca" stroke="#231f20" stroke-miterlimit="10"/><path d="M462.993963,162.931726c-10.905762,0-19.777832-8.87207-19.777832-19.77832,0-10.905273,8.87207-19.777344,19.777832-19.777344s19.777832,8.87207,19.777832,19.777344c0,10.90625-8.87207,19.77832-19.777832,19.77832Z" fill="none" stroke="#231f20" stroke-miterlimit="10"/><circle cx="462.99409" cy="143.153889" r="17.777778" fill="#efa8ca" stroke="#231f20" stroke-miterlimit="10"/><path d="M504.771795,162.931726c-10.905762,0-19.777832-8.87207-19.777832-19.77832,0-10.905273,8.87207-19.777344,19.777832-19.777344s19.777832,8.87207,19.777832,19.777344c0,10.90625-8.87207,19.77832-19.777832,19.77832Z" fill="none" stroke="#231f20" stroke-miterlimit="10"/><circle cx="504.771867" cy="143.153889" r="17.777778" fill="#efa8ca" stroke="#231f20" stroke-miterlimit="10"/><path d="M45.216131,115.474695c-10.905762,0-19.777832-8.87207-19.777832-19.77832,0-10.905273,8.87207-19.777344,19.777832-19.777344s19.777832,8.87207,19.777832,19.777344c0,10.90625-8.87207,19.77832-19.777832,19.77832Z" fill="none" stroke="#231f20" stroke-miterlimit="10"/><circle cx="45.216312" cy="95.696707" r="17.777778" fill="#efa8ca" stroke="#231f20" stroke-miterlimit="10"/><path d="M86.993963,115.474695c-10.905762,0-19.777832-8.87207-19.777832-19.77832,0-10.905273,8.87207-19.777344,19.777832-19.777344s19.777832,8.87207,19.777832,19.777344c0,10.90625-8.87207,19.77832-19.777832,19.77832Z" fill="none" stroke="#231f20" stroke-miterlimit="10"/><circle cx="86.99409" cy="95.696707" r="17.777778" fill="#efa8ca" stroke="#231f20" stroke-miterlimit="10"/><path d="M128.771795,115.474695c-10.905762,0-19.777832-8.87207-19.777832-19.77832,0-10.905273,8.87207-19.777344,19.777832-19.777344s19.777832,8.87207,19.777832,19.777344c0,10.90625-8.87207,19.77832-19.777832,19.77832Z" fill="none" stroke="#231f20" stroke-miterlimit="10"/><circle cx="128.771867" cy="95.696707" r="17.777778" fill="#efa8ca" stroke="#231f20" stroke-miterlimit="10"/><path d="M170.549627,115.474695c-10.905762,0-19.777832-8.87207-19.777832-19.77832,0-10.905273,8.87207-19.777344,19.777832-19.777344s19.777832,8.87207,19.777832,19.777344c0,10.90625-8.87207,19.77832-19.777832,19.77832Z" fill="none" stroke="#231f20" stroke-miterlimit="10"/><circle cx="170.549645" cy="95.696707" r="17.777778" fill="#efa8ca" stroke="#231f20" stroke-miterlimit="10"/><path d="M212.327459,115.474695c-10.905762,0-19.777832-8.87207-19.777832-19.77832,0-10.905273,8.87207-19.777344,19.777832-19.777344s19.777832,8.87207,19.777832,19.777344c0,10.90625-8.87207,19.77832-19.777832,19.77832Z" fill="none" stroke="#231f20" stroke-miterlimit="10"/><circle cx="212.327423" cy="95.696707" r="17.777778" fill="#efa8ca" stroke="#231f20" stroke-miterlimit="10"/><path d="M254.105291,115.474695c-10.905762,0-19.777832-8.87207-19.777832-19.77832,0-10.905273,8.87207-19.777344,19.777832-19.777344s19.777832,8.87207,19.777832,19.777344c0,10.90625-8.87207,19.77832-19.777832,19.77832Z" fill="none" stroke="#231f20" stroke-miterlimit="10"/><circle cx="254.105201" cy="95.696707" r="17.777778" fill="#efa8ca" stroke="#231f20" stroke-miterlimit="10"/><path d="M295.883123,115.474695c-10.905762,0-19.777832-8.87207-19.777832-19.77832,0-10.905273,8.87207-19.777344,19.777832-19.777344s19.777832,8.87207,19.777832,19.777344c0,10.90625-8.87207,19.77832-19.777832,19.77832Z" fill="none" stroke="#231f20" stroke-miterlimit="10"/><circle cx="295.882979" cy="95.696707" r="17.777778" fill="#efa8ca" stroke="#231f20" stroke-miterlimit="10"/><path d="M337.660955,115.474695c-10.905762,0-19.777832-8.87207-19.777832-19.77832,0-10.905273,8.87207-19.777344,19.777832-19.777344,10.905273,0,19.777344,8.87207,19.777344,19.777344,0,10.90625-8.87207,19.77832-19.777344,19.77832Z" fill="none" stroke="#231f20" stroke-miterlimit="10"/><circle cx="337.660756" cy="95.696707" r="17.777778" fill="#efa8ca" stroke="#231f20" stroke-miterlimit="10"/><path d="M379.438299,115.474695c-10.905273,0-19.777344-8.87207-19.777344-19.77832,0-10.905273,8.87207-19.777344,19.777344-19.777344,10.905762,0,19.777832,8.87207,19.777832,19.777344,0,10.90625-8.87207,19.77832-19.777832,19.77832Z" fill="none" stroke="#231f20" stroke-miterlimit="10"/><circle cx="379.438534" cy="95.696707" r="17.777778" fill="#efa8ca" stroke="#231f20" stroke-miterlimit="10"/><path d="M421.216131,115.474695c-10.905762,0-19.777832-8.87207-19.777832-19.77832,0-10.905273,8.87207-19.777344,19.777832-19.777344s19.777832,8.87207,19.777832,19.777344c0,10.90625-8.87207,19.77832-19.777832,19.77832Z" fill="none" stroke="#231f20" stroke-miterlimit="10"/><circle cx="421.216312" cy="95.696707" r="17.777778" fill="#efa8ca" stroke="#231f20" stroke-miterlimit="10"/><path d="M462.993963,115.474695c-10.905762,0-19.777832-8.87207-19.777832-19.77832,0-10.905273,8.87207-19.777344,19.777832-19.777344s19.777832,8.87207,19.777832,19.777344c0,10.90625-8.87207,19.77832-19.777832,19.77832Z" fill="none" stroke="#231f20" stroke-miterlimit="10"/><circle cx="462.99409" cy="95.696707" r="17.777778" fill="#efa8ca" stroke="#231f20" stroke-miterlimit="10"/><path d="M504.771795,115.474695c-10.905762,0-19.777832-8.87207-19.777832-19.77832,0-10.905273,8.87207-19.777344,19.777832-19.777344s19.777832,8.87207,19.777832,19.777344c0,10.90625-8.87207,19.77832-19.777832,19.77832Z" fill="none" stroke="#231f20" stroke-miterlimit="10"/><circle cx="504.771867" cy="95.696707" r="17.777778" fill="#efa8ca" stroke="#231f20" stroke-miterlimit="10"/><path d="M45.216131,68.017664c-10.905762,0-19.777832-8.87207-19.777832-19.77832,0-10.905273,8.87207-19.777344,19.777832-19.777344s19.777832,8.87207,19.777832,19.777344c0,10.90625-8.87207,19.77832-19.777832,19.77832Z" fill="none" stroke="#231f20" stroke-miterlimit="10"/><circle cx="45.216312" cy="48.239524" r="17.777778" fill="#efa8ca" stroke="#231f20" stroke-miterlimit="10"/><path d="M86.993963,68.017664c-10.905762,0-19.777832-8.87207-19.777832-19.77832,0-10.905273,8.87207-19.777344,19.777832-19.777344s19.777832,8.87207,19.777832,19.777344c0,10.90625-8.87207,19.77832-19.777832,19.77832Z" fill="none" stroke="#231f20" stroke-miterlimit="10"/><circle cx="86.99409" cy="48.239524" r="17.777778" fill="#efa8ca" stroke="#231f20" stroke-miterlimit="10"/><path d="M128.771795,68.017664c-10.905762,0-19.777832-8.87207-19.777832-19.77832,0-10.905273,8.87207-19.777344,19.777832-19.777344s19.777832,8.87207,19.777832,19.777344c0,10.90625-8.87207,19.77832-19.777832,19.77832Z" fill="none" stroke="#231f20" stroke-miterlimit="10"/><circle cx="128.771867" cy="48.239524" r="17.777778" fill="#efa8ca" stroke="#231f20" stroke-miterlimit="10"/><path d="M170.549627,68.017664c-10.905762,0-19.777832-8.87207-19.777832-19.77832,0-10.905273,8.87207-19.777344,19.777832-19.777344s19.777832,8.87207,19.777832,19.777344c0,10.90625-8.87207,19.77832-19.777832,19.77832Z" fill="none" stroke="#231f20" stroke-miterlimit="10"/><circle cx="170.549645" cy="48.239524" r="17.777778" fill="#efa8ca" stroke="#231f20" stroke-miterlimit="10"/><path d="M212.327459,68.017664c-10.905762,0-19.777832-8.87207-19.777832-19.77832,0-10.905273,8.87207-19.777344,19.777832-19.777344s19.777832,8.87207,19.777832,19.777344c0,10.90625-8.87207,19.77832-19.777832,19.77832Z" fill="none" stroke="#231f20" stroke-miterlimit="10"/><circle cx="212.327423" cy="48.239524" r="17.777778" fill="#efa8ca" stroke="#231f20" stroke-miterlimit="10"/><path d="M254.105291,68.017664c-10.905762,0-19.777832-8.87207-19.777832-19.77832,0-10.905273,8.87207-19.777344,19.777832-19.777344s19.777832,8.87207,19.777832,19.777344c0,10.90625-8.87207,19.77832-19.777832,19.77832Z" fill="none" stroke="#231f20" stroke-miterlimit="10"/><circle cx="254.105201" cy="48.239524" r="17.777778" fill="#efa8ca" stroke="#231f20" stroke-miterlimit="10"/><path d="M295.883123,68.017664c-10.905762,0-19.777832-8.87207-19.777832-19.77832,0-10.905273,8.87207-19.777344,19.777832-19.777344s19.777832,8.87207,19.777832,19.777344c0,10.90625-8.87207,19.77832-19.777832,19.77832Z" fill="none" stroke="#231f20" stroke-miterlimit="10"/><circle cx="295.882979" cy="48.239524" r="17.777778" fill="#efa8ca" stroke="#231f20" stroke-miterlimit="10"/><path d="M337.660955,68.017664c-10.905762,0-19.777832-8.87207-19.777832-19.77832,0-10.905273,8.87207-19.777344,19.777832-19.777344,10.905273,0,19.777344,8.87207,19.777344,19.777344,0,10.90625-8.87207,19.77832-19.777344,19.77832Z" fill="none" stroke="#231f20" stroke-miterlimit="10"/><circle cx="337.660756" cy="48.239524" r="17.777778" fill="#efa8ca" stroke="#231f20" stroke-miterlimit="10"/><path d="M379.438299,68.017664c-10.905273,0-19.777344-8.87207-19.777344-19.77832,0-10.905273,8.87207-19.777344,19.777344-19.777344,10.905762,0,19.777832,8.87207,19.777832,19.777344,0,10.90625-8.87207,19.77832-19.777832,19.77832Z" fill="none" stroke="#231f20" stroke-miterlimit="10"/><circle cx="379.438534" cy="48.239524" r="17.777778" fill="#efa8ca" stroke="#231f20" stroke-miterlimit="10"/><path d="M421.216131,68.017664c-10.905762,0-19.777832-8.87207-19.777832-19.77832,0-10.905273,8.87207-19.777344,19.777832-19.777344s19.777832,8.87207,19.777832,19.777344c0,10.90625-8.87207,19.77832-19.777832,19.77832Z" fill="none" stroke="#231f20" stroke-miterlimit="10"/><circle cx="421.216312" cy="48.239524" r="17.777778" fill="#efa8ca" stroke="#231f20" stroke-miterlimit="10"/><path d="M462.993963,68.017664c-10.905762,0-19.777832-8.87207-19.777832-19.77832,0-10.905273,8.87207-19.777344,19.777832-19.777344s19.777832,8.87207,19.777832,19.777344c0,10.90625-8.87207,19.77832-19.777832,19.77832Z" fill="none" stroke="#231f20" stroke-miterlimit="10"/><circle cx="462.99409" cy="48.239524" r="17.777778" fill="#efa8ca" stroke="#231f20" stroke-miterlimit="10"/><path d="M504.771795,68.017664c-10.905762,0-19.777832-8.87207-19.777832-19.77832,0-10.905273,8.87207-19.777344,19.777832-19.777344s19.777832,8.87207,19.777832,19.777344c0,10.90625-8.87207,19.77832-19.777832,19.77832Z" fill="none" stroke="#231f20" stroke-miterlimit="10"/><circle cx="504.771867" cy="48.239524" r="17.777778" fill="#efa8ca" stroke="#231f20" stroke-miterlimit="10"/><path d="M511.248083,367.04603c.089808.47994-3.298409,1.19262-9.022503,4.399294-5.291471,2.964353-7.667154,5.308232-8.044898,4.965442-.437323-.396843,2.00104-4.215174,6.006476-6.731625,5.040269-3.166558,10.944471-3.25539,11.060925-2.633111Z" fill="#f4cbe0"/><path d="M469.326638,367.04603c.089808.47994-3.298409,1.19262-9.022503,4.399294-5.291471,2.964353-7.667154,5.308232-8.044898,4.965442-.437323-.396843,2.00104-4.215174,6.006476-6.731625,5.040269-3.166558,10.944471-3.25539,11.060925-2.633111Z" fill="#f4cbe0"/><path d="M427.405193,367.04603c.089808.47994-3.298409,1.19262-9.022503,4.399294-5.291471,2.964353-7.667154,5.308232-8.044898,4.965442-.437323-.396843,2.00104-4.215174,6.006476-6.731625,5.040269-3.166558,10.944471-3.25539,11.060925-2.633111Z" fill="#f4cbe0"/><path d="M385.483749,367.04603c.089808.47994-3.298409,1.19262-9.022503,4.399294-5.291471,2.964353-7.667154,5.308232-8.044898,4.965442-.437323-.396843,2.00104-4.215174,6.006476-6.731625,5.040269-3.166558,10.944471-3.25539,11.060925-2.633111Z" fill="#f4cbe0"/><path d="M343.562304,367.04603c.089808.47994-3.298409,1.19262-9.022503,4.399294-5.291471,2.964353-7.667154,5.308232-8.044898,4.965442-.437323-.396843,2.00104-4.215174,6.006476-6.731625,5.040269-3.166558,10.944471-3.25539,11.060925-2.633111Z" fill="#f4cbe0"/><path d="M301.640859,367.04603c.089808.47994-3.298409,1.19262-9.022503,4.399294-5.291471,2.964353-7.667154,5.308232-8.044898,4.965442-.437323-.396843,2.00104-4.215174,6.006476-6.731625,5.040269-3.166558,10.944471-3.25539,11.060925-2.633111Z" fill="#f4cbe0"/><path d="M259.719415,367.04603c.089808.47994-3.298409,1.19262-9.022503,4.399294-5.291471,2.964353-7.667154,5.308232-8.044898,4.965442-.437323-.396843,2.00104-4.215174,6.006476-6.731625,5.040269-3.166558,10.944471-3.25539,11.060925-2.633111Z" fill="#f4cbe0"/><path d="M217.79797,367.04603c.089808.47994-3.298409,1.19262-9.022503,4.399294-5.291471,2.964353-7.667154,5.308232-8.044898,4.965442-.437323-.396843,2.00104-4.215174,6.006476-6.731625,5.040269-3.166558,10.944471-3.25539,11.060925-2.633111Z" fill="#f4cbe0"/><path d="M175.876525,367.04603c.089808.47994-3.298409,1.19262-9.022503,4.399294-5.291471,2.964353-7.667154,5.308232-8.044898,4.965442-.437323-.396843,2.00104-4.215174,6.006476-6.731625,5.040269-3.166558,10.944471-3.25539,11.060925-2.633111Z" fill="#f4cbe0"/><path d="M133.955081,367.04603c.089808.47994-3.298409,1.19262-9.022503,4.399294-5.291471,2.964353-7.667154,5.308232-8.044898,4.965442-.437323-.396843,2.00104-4.215174,6.006476-6.731625,5.040269-3.166558,10.944471-3.25539,11.060925-2.633111Z" fill="#f4cbe0"/><path d="M92.033636,367.04603c.089808.47994-3.298409,1.19262-9.022503,4.399294-5.291471,2.964353-7.667154,5.308232-8.044898,4.965442-.437323-.396843,2.00104-4.215174,6.006476-6.731625,5.040269-3.166558,10.944471-3.25539,11.060925-2.633111Z" fill="#f4cbe0"/><path d="M50.112191,367.04603c.089808.47994-3.298409,1.19262-9.022503,4.399294-5.291471,2.964353-7.667154,5.308232-8.044898,4.965442-.437323-.396843,2.00104-4.215174,6.006476-6.731625,5.040269-3.166558,10.944471-3.25539,11.060925-2.633111Z" fill="#f4cbe0"/><path d="M511.014782,319.523721c.089808.47994-3.298409,1.19262-9.022503,4.399294-5.291471,2.964353-7.667154,5.308232-8.044898,4.965442-.437323-.396843,2.00104-4.215174,6.006476-6.731625,5.040269-3.166558,10.944471-3.25539,11.060925-2.633111Z" fill="#f4cbe0"/><path d="M469.093337,319.523721c.089808.47994-3.298409,1.19262-9.022503,4.399294-5.291471,2.964353-7.667154,5.308232-8.044898,4.965442-.437323-.396843,2.00104-4.215174,6.006476-6.731625,5.040269-3.166558,10.944471-3.25539,11.060925-2.633111Z" fill="#f4cbe0"/><path d="M427.171892,319.523721c.089808.47994-3.298409,1.19262-9.022503,4.399294-5.291471,2.964353-7.667154,5.308232-8.044898,4.965442-.437323-.396843,2.00104-4.215174,6.006476-6.731625,5.040269-3.166558,10.944471-3.25539,11.060925-2.633111Z" fill="#f4cbe0"/><path d="M385.250448,319.523721c.089808.47994-3.298409,1.19262-9.022503,4.399294-5.291471,2.964353-7.667154,5.308232-8.044898,4.965442-.437323-.396843,2.00104-4.215174,6.006476-6.731625,5.040269-3.166558,10.944471-3.25539,11.060925-2.633111Z" fill="#f4cbe0"/><path d="M343.329003,319.523721c.089808.47994-3.298409,1.19262-9.022503,4.399294-5.291471,2.964353-7.667154,5.308232-8.044898,4.965442-.437323-.396843,2.00104-4.215174,6.006476-6.731625,5.040269-3.166558,10.944471-3.25539,11.060925-2.633111Z" fill="#f4cbe0"/><path d="M301.407558,319.523721c.089808.47994-3.298409,1.19262-9.022503,4.399294-5.291471,2.964353-7.667154,5.308232-8.044898,4.965442-.437323-.396843,2.00104-4.215174,6.006476-6.731625,5.040269-3.166558,10.944471-3.25539,11.060925-2.633111Z" fill="#f4cbe0"/><path d="M259.486114,319.523721c.089808.47994-3.298409,1.19262-9.022503,4.399294-5.291471,2.964353-7.667154,5.308232-8.044898,4.965442-.437323-.396843,2.00104-4.215174,6.006476-6.731625,5.040269-3.166558,10.944471-3.25539,11.060925-2.633111Z" fill="#f4cbe0"/><path d="M217.564669,319.523721c.089808.47994-3.298409,1.19262-9.022503,4.399294-5.291471,2.964353-7.667154,5.308232-8.044898,4.965442-.437323-.396843,2.00104-4.215174,6.006476-6.731625,5.040269-3.166558,10.944471-3.25539,11.060925-2.633111Z" fill="#f4cbe0"/><path d="M175.643224,319.523721c.089808.47994-3.298409,1.19262-9.022503,4.399294-5.291471,2.964353-7.667154,5.308232-8.044898,4.965442-.437323-.396843,2.00104-4.215174,6.006476-6.731625,5.040269-3.166558,10.944471-3.25539,11.060925-2.633111Z" fill="#f4cbe0"/><path d="M133.72178,319.523721c.089808.47994-3.298409,1.19262-9.022503,4.399294-5.291471,2.964353-7.667154,5.308232-8.044898,4.965442-.437323-.396843,2.00104-4.215174,6.006476-6.731625,5.040269-3.166558,10.944471-3.25539,11.060925-2.633111Z" fill="#f4cbe0"/><path d="M91.800335,319.523721c.089808.47994-3.298409,1.19262-9.022503,4.399294-5.291471,2.964353-7.667154,5.308232-8.044898,4.965442-.437323-.396843,2.00104-4.215174,6.006476-6.731625,5.040269-3.166558,10.944471-3.25539,11.060925-2.633111Z" fill="#f4cbe0"/><path d="M49.87889,319.523721c.089808.47994-3.298409,1.19262-9.022503,4.399294-5.291471,2.964353-7.667154,5.308232-8.044898,4.965442-.437323-.396843,2.00104-4.215174,6.006476-6.731625,5.040269-3.166558,10.944471-3.25539,11.060925-2.633111Z" fill="#f4cbe0"/><path d="M510.78148,272.001412c.089808.47994-3.298409,1.19262-9.022503,4.399294-5.291471,2.964353-7.667154,5.308232-8.044898,4.965442-.437323-.396843,2.00104-4.215174,6.006476-6.731625,5.040269-3.166558,10.944471-3.25539,11.060925-2.633111Z" fill="#f4cbe0"/><path d="M468.860036,272.001412c.089808.47994-3.298409,1.19262-9.022503,4.399294-5.291471,2.964353-7.667154,5.308232-8.044898,4.965442-.437323-.396843,2.00104-4.215174,6.006476-6.731625,5.040269-3.166558,10.944471-3.25539,11.060925-2.633111Z" fill="#f4cbe0"/><path d="M426.938591,272.001412c.089808.47994-3.298409,1.19262-9.022503,4.399294-5.291471,2.964353-7.667154,5.308232-8.044898,4.965442-.437323-.396843,2.00104-4.215174,6.006476-6.731625,5.040269-3.166558,10.944471-3.25539,11.060925-2.633111Z" fill="#f4cbe0"/><path d="M385.017146,272.001412c.089808.47994-3.298409,1.19262-9.022503,4.399294-5.291471,2.964353-7.667154,5.308232-8.044898,4.965442-.437323-.396843,2.00104-4.215174,6.006476-6.731625,5.040269-3.166558,10.944471-3.25539,11.060925-2.633111Z" fill="#f4cbe0"/><path d="M343.095702,272.001412c.089808.47994-3.298409,1.19262-9.022503,4.399294-5.291471,2.964353-7.667154,5.308232-8.044898,4.965442-.437323-.396843,2.00104-4.215174,6.006476-6.731625,5.040269-3.166558,10.944471-3.25539,11.060925-2.633111Z" fill="#f4cbe0"/><path d="M301.174257,272.001412c.089808.47994-3.298409,1.19262-9.022503,4.399294-5.291471,2.964353-7.667154,5.308232-8.044898,4.965442-.437323-.396843,2.00104-4.215174,6.006476-6.731625,5.040269-3.166558,10.944471-3.25539,11.060925-2.633111Z" fill="#f4cbe0"/><path d="M259.252812,272.001412c.089808.47994-3.298409,1.19262-9.022503,4.399294-5.291471,2.964353-7.667154,5.308232-8.044898,4.965442-.437323-.396843,2.00104-4.215174,6.006476-6.731625,5.040269-3.166558,10.944471-3.25539,11.060925-2.633111Z" fill="#f4cbe0"/><path d="M217.331368,272.001412c.089808.47994-3.298409,1.19262-9.022503,4.399294-5.291471,2.964353-7.667154,5.308232-8.044898,4.965442-.437323-.396843,2.00104-4.215174,6.006476-6.731625,5.040269-3.166558,10.944471-3.25539,11.060925-2.633111Z" fill="#f4cbe0"/><path d="M175.409923,272.001412c.089808.47994-3.298409,1.19262-9.022503,4.399294-5.291471,2.964353-7.667154,5.308232-8.044898,4.965442-.437323-.396843,2.00104-4.215174,6.006476-6.731625,5.040269-3.166558,10.944471-3.25539,11.060925-2.633111Z" fill="#f4cbe0"/><path d="M133.488478,272.001412c.089808.47994-3.298409,1.19262-9.022503,4.399294-5.291471,2.964353-7.667154,5.308232-8.044898,4.965442-.437323-.396843,2.00104-4.215174,6.006476-6.731625,5.040269-3.166558,10.944471-3.25539,11.060925-2.633111Z" fill="#f4cbe0"/><path d="M91.567034,272.001412c.089808.47994-3.298409,1.19262-9.022503,4.399294-5.291471,2.964353-7.667154,5.308232-8.044898,4.965442-.437323-.396843,2.00104-4.215174,6.006476-6.731625,5.040269-3.166558,10.944471-3.25539,11.060925-2.633111Z" fill="#f4cbe0"/><path d="M49.645589,272.001412c.089808.47994-3.298409,1.19262-9.022503,4.399294-5.291471,2.964353-7.667154,5.308232-8.044898,4.965442-.437323-.396843,2.00104-4.215174,6.006476-6.731625,5.040269-3.166558,10.944471-3.25539,11.060925-2.633111Z" fill="#f4cbe0"/><path d="M510.548179,224.479103c.089808.47994-3.298409,1.19262-9.022503,4.399294-5.291471,2.964353-7.667154,5.308232-8.044898,4.965442-.437323-.396843,2.00104-4.215174,6.006476-6.731625,5.040269-3.166558,10.944471-3.25539,11.060925-2.633111Z" fill="#f4cbe0"/><path d="M468.626735,224.479103c.089808.47994-3.298409,1.19262-9.022503,4.399294-5.291471,2.964353-7.667154,5.308232-8.044898,4.965442-.437323-.396843,2.00104-4.215174,6.006476-6.731625,5.040269-3.166558,10.944471-3.25539,11.060925-2.633111Z" fill="#f4cbe0"/><path d="M426.70529,224.479103c.089808.47994-3.298409,1.19262-9.022503,4.399294-5.291471,2.964353-7.667154,5.308232-8.044898,4.965442-.437323-.396843,2.00104-4.215174,6.006476-6.731625,5.040269-3.166558,10.944471-3.25539,11.060925-2.633111Z" fill="#f4cbe0"/><path d="M384.783845,224.479103c.089808.47994-3.298409,1.19262-9.022503,4.399294-5.291471,2.964353-7.667154,5.308232-8.044898,4.965442-.437323-.396843,2.00104-4.215174,6.006476-6.731625,5.040269-3.166558,10.944471-3.25539,11.060925-2.633111Z" fill="#f4cbe0"/><path d="M342.862401,224.479103c.089808.47994-3.298409,1.19262-9.022503,4.399294-5.291471,2.964353-7.667154,5.308232-8.044898,4.965442-.437323-.396843,2.00104-4.215174,6.006476-6.731625,5.040269-3.166558,10.944471-3.25539,11.060925-2.633111Z" fill="#f4cbe0"/><path d="M300.940956,224.479103c.089808.47994-3.298409,1.19262-9.022503,4.399294-5.291471,2.964353-7.667154,5.308232-8.044898,4.965442-.437323-.396843,2.00104-4.215174,6.006476-6.731625,5.040269-3.166558,10.944471-3.25539,11.060925-2.633111Z" fill="#f4cbe0"/><path d="M259.019511,224.479103c.089808.47994-3.298409,1.19262-9.022503,4.399294-5.291471,2.964353-7.667154,5.308232-8.044898,4.965442-.437323-.396843,2.00104-4.215174,6.006476-6.731625,5.040269-3.166558,10.944471-3.25539,11.060925-2.633111Z" fill="#f4cbe0"/><path d="M217.098067,224.479103c.089808.47994-3.298409,1.19262-9.022503,4.399294-5.291471,2.964353-7.667154,5.308232-8.044898,4.965442-.437323-.396843,2.00104-4.215174,6.006476-6.731625,5.040269-3.166558,10.944471-3.25539,11.060925-2.633111Z" fill="#f4cbe0"/><path d="M175.176622,224.479103c.089808.47994-3.298409,1.19262-9.022503,4.399294-5.291471,2.964353-7.667154,5.308232-8.044898,4.965442-.437323-.396843,2.00104-4.215174,6.006476-6.731625,5.040269-3.166558,10.944471-3.25539,11.060925-2.633111Z" fill="#f4cbe0"/><path d="M133.255177,224.479103c.089808.47994-3.298409,1.19262-9.022503,4.399294-5.291471,2.964353-7.667154,5.308232-8.044898,4.965442-.437323-.396843,2.00104-4.215174,6.006476-6.731625,5.040269-3.166558,10.944471-3.25539,11.060925-2.633111Z" fill="#f4cbe0"/><path d="M91.333733,224.479103c.089808.47994-3.298409,1.19262-9.022503,4.399294-5.291471,2.964353-7.667154,5.308232-8.044898,4.965442-.437323-.396843,2.00104-4.215174,6.006476-6.731625,5.040269-3.166558,10.944471-3.25539,11.060925-2.633111Z" fill="#f4cbe0"/><path d="M49.412288,224.479103c.089808.47994-3.298409,1.19262-9.022503,4.399294-5.291471,2.964353-7.667154,5.308232-8.044898,4.965442-.437323-.396843,2.00104-4.215174,6.006476-6.731625,5.040269-3.166558,10.944471-3.25539,11.060925-2.633111Z" fill="#f4cbe0"/><path d="M510.314878,176.956794c.089808.47994-3.298409,1.19262-9.022503,4.399294-5.291471,2.964353-7.667154,5.308232-8.044898,4.965442-.437323-.396843,2.00104-4.215174,6.006476-6.731625,5.040269-3.166558,10.944471-3.25539,11.060925-2.633111Z" fill="#f4cbe0"/><path d="M468.393433,176.956794c.089808.47994-3.298409,1.19262-9.022503,4.399294-5.291471,2.964353-7.667154,5.308232-8.044898,4.965442-.437323-.396843,2.00104-4.215174,6.006476-6.731625,5.040269-3.166558,10.944471-3.25539,11.060925-2.633111Z" fill="#f4cbe0"/><path d="M426.471989,176.956794c.089808.47994-3.298409,1.19262-9.022503,4.399294-5.291471,2.964353-7.667154,5.308232-8.044898,4.965442-.437323-.396843,2.00104-4.215174,6.006476-6.731625,5.040269-3.166558,10.944471-3.25539,11.060925-2.633111Z" fill="#f4cbe0"/><path d="M384.550544,176.956794c.089808.47994-3.298409,1.19262-9.022503,4.399294-5.291471,2.964353-7.667154,5.308232-8.044898,4.965442-.437323-.396843,2.00104-4.215174,6.006476-6.731625,5.040269-3.166558,10.944471-3.25539,11.060925-2.633111Z" fill="#f4cbe0"/><path d="M342.629099,176.956794c.089808.47994-3.298409,1.19262-9.022503,4.399294-5.291471,2.964353-7.667154,5.308232-8.044898,4.965442-.437323-.396843,2.00104-4.215174,6.006476-6.731625,5.040269-3.166558,10.944471-3.25539,11.060925-2.633111Z" fill="#f4cbe0"/><path d="M300.707655,176.956794c.089808.47994-3.298409,1.19262-9.022503,4.399294-5.291471,2.964353-7.667154,5.308232-8.044898,4.965442-.437323-.396843,2.00104-4.215174,6.006476-6.731625,5.040269-3.166558,10.944471-3.25539,11.060925-2.633111Z" fill="#f4cbe0"/><path d="M258.78621,176.956794c.089808.47994-3.298409,1.19262-9.022503,4.399294-5.291471,2.964353-7.667154,5.308232-8.044898,4.965442-.437323-.396843,2.00104-4.215174,6.006476-6.731625,5.040269-3.166558,10.944471-3.25539,11.060925-2.633111Z" fill="#f4cbe0"/><path d="M216.864765,176.956794c.089808.47994-3.298409,1.19262-9.022503,4.399294-5.291471,2.964353-7.667154,5.308232-8.044898,4.965442-.437323-.396843,2.00104-4.215174,6.006476-6.731625,5.040269-3.166558,10.944471-3.25539,11.060925-2.633111Z" fill="#f4cbe0"/><path d="M174.943321,176.956794c.089808.47994-3.298409,1.19262-9.022503,4.399294-5.291471,2.964353-7.667154,5.308232-8.044898,4.965442-.437323-.396843,2.00104-4.215174,6.006476-6.731625,5.040269-3.166558,10.944471-3.25539,11.060925-2.633111Z" fill="#f4cbe0"/><path d="M133.021876,176.956794c.089808.47994-3.298409,1.19262-9.022503,4.399294-5.291471,2.964353-7.667154,5.308232-8.044898,4.965442-.437323-.396843,2.00104-4.215174,6.006476-6.731625,5.040269-3.166558,10.944471-3.25539,11.060925-2.633111Z" fill="#f4cbe0"/><path d="M91.100431,176.956794c.089808.47994-3.298409,1.19262-9.022503,4.399294-5.291471,2.964353-7.667154,5.308232-8.044898,4.965442-.437323-.396843,2.00104-4.215174,6.006476-6.731625,5.040269-3.166558,10.944471-3.25539,11.060925-2.633111Z" fill="#f4cbe0"/><path d="M49.178987,176.956794c.089808.47994-3.298409,1.19262-9.022503,4.399294-5.291471,2.964353-7.667154,5.308232-8.044898,4.965442-.437323-.396843,2.00104-4.215174,6.006476-6.731625,5.040269-3.166558,10.944471-3.25539,11.060925-2.633111Z" fill="#f4cbe0"/><path d="M510.081577,129.434485c.089808.47994-3.298409,1.19262-9.022503,4.399294-5.291471,2.964353-7.667154,5.308232-8.044898,4.965442-.437323-.396843,2.00104-4.215174,6.006476-6.731625,5.040269-3.166558,10.944471-3.25539,11.060925-2.633111Z" fill="#f4cbe0"/><path d="M468.160132,129.434485c.089808.47994-3.298409,1.19262-9.022503,4.399294-5.291471,2.964353-7.667154,5.308232-8.044898,4.965442-.437323-.396843,2.00104-4.215174,6.006476-6.731625,5.040269-3.166558,10.944471-3.25539,11.060925-2.633111Z" fill="#f4cbe0"/><path d="M426.238687,129.434485c.089808.47994-3.298409,1.19262-9.022503,4.399294-5.291471,2.964353-7.667154,5.308232-8.044898,4.965442-.437323-.396843,2.00104-4.215174,6.006476-6.731625,5.040269-3.166558,10.944471-3.25539,11.060925-2.633111Z" fill="#f4cbe0"/><path d="M384.317243,129.434485c.089808.47994-3.298409,1.19262-9.022503,4.399294-5.291471,2.964353-7.667154,5.308232-8.044898,4.965442-.437323-.396843,2.00104-4.215174,6.006476-6.731625,5.040269-3.166558,10.944471-3.25539,11.060925-2.633111Z" fill="#f4cbe0"/><path d="M342.395798,129.434485c.089808.47994-3.298409,1.19262-9.022503,4.399294-5.291471,2.964353-7.667154,5.308232-8.044898,4.965442-.437323-.396843,2.00104-4.215174,6.006476-6.731625,5.040269-3.166558,10.944471-3.25539,11.060925-2.633111Z" fill="#f4cbe0"/><path d="M300.474353,129.434485c.089808.47994-3.298409,1.19262-9.022503,4.399294-5.291471,2.964353-7.667154,5.308232-8.044898,4.965442-.437323-.396843,2.00104-4.215174,6.006476-6.731625,5.040269-3.166558,10.944471-3.25539,11.060925-2.633111Z" fill="#f4cbe0"/><path d="M258.552909,129.434485c.089808.47994-3.298409,1.19262-9.022503,4.399294-5.291471,2.964353-7.667154,5.308232-8.044898,4.965442-.437323-.396843,2.00104-4.215174,6.006476-6.731625,5.040269-3.166558,10.944471-3.25539,11.060925-2.633111Z" fill="#f4cbe0"/><path d="M216.631464,129.434485c.089808.47994-3.298409,1.19262-9.022503,4.399294-5.291471,2.964353-7.667154,5.308232-8.044898,4.965442-.437323-.396843,2.00104-4.215174,6.006476-6.731625,5.040269-3.166558,10.944471-3.25539,11.060925-2.633111Z" fill="#f4cbe0"/><path d="M174.710019,129.434485c.089808.47994-3.298409,1.19262-9.022503,4.399294-5.291471,2.964353-7.667154,5.308232-8.044898,4.965442-.437323-.396843,2.00104-4.215174,6.006476-6.731625,5.040269-3.166558,10.944471-3.25539,11.060925-2.633111Z" fill="#f4cbe0"/><path d="M132.788575,129.434485c.089808.47994-3.298409,1.19262-9.022503,4.399294-5.291471,2.964353-7.667154,5.308232-8.044898,4.965442-.437323-.396843,2.00104-4.215174,6.006476-6.731625,5.040269-3.166558,10.944471-3.25539,11.060925-2.633111Z" fill="#f4cbe0"/><path d="M90.86713,129.434485c.089808.47994-3.298409,1.19262-9.022503,4.399294-5.291471,2.964353-7.667154,5.308232-8.044898,4.965442-.437323-.396843,2.00104-4.215174,6.006476-6.731625,5.040269-3.166558,10.944471-3.25539,11.060925-2.633111Z" fill="#f4cbe0"/><path d="M48.945685,129.434485c.089808.47994-3.298409,1.19262-9.022503,4.399294-5.291471,2.964353-7.667154,5.308232-8.044898,4.965442-.437323-.396843,2.00104-4.215174,6.006476-6.731625,5.040269-3.166558,10.944471-3.25539,11.060925-2.633111Z" fill="#f4cbe0"/><path d="M509.848276,81.912176c.089808.47994-3.298409,1.19262-9.022503,4.399294-5.291471,2.964353-7.667154,5.308232-8.044898,4.965442-.437323-.396843,2.00104-4.215174,6.006476-6.731625,5.040269-3.166558,10.944471-3.25539,11.060925-2.633111Z" fill="#f4cbe0"/><path d="M467.926831,81.912176c.089808.47994-3.298409,1.19262-9.022503,4.399294-5.291471,2.964353-7.667154,5.308232-8.044898,4.965442-.437323-.396843,2.00104-4.215174,6.006476-6.731625,5.040269-3.166558,10.944471-3.25539,11.060925-2.633111Z" fill="#f4cbe0"/><path d="M426.005386,81.912176c.089808.47994-3.298409,1.19262-9.022503,4.399294-5.291471,2.964353-7.667154,5.308232-8.044898,4.965442-.437323-.396843,2.00104-4.215174,6.006476-6.731625,5.040269-3.166558,10.944471-3.25539,11.060925-2.633111Z" fill="#f4cbe0"/><path d="M384.083942,81.912176c.089808.47994-3.298409,1.19262-9.022503,4.399294-5.291471,2.964353-7.667154,5.308232-8.044898,4.965442-.437323-.396843,2.00104-4.215174,6.006476-6.731625,5.040269-3.166558,10.944471-3.25539,11.060925-2.633111Z" fill="#f4cbe0"/><path d="M342.162497,81.912176c.089808.47994-3.298409,1.19262-9.022503,4.399294-5.291471,2.964353-7.667154,5.308232-8.044898,4.965442-.437323-.396843,2.00104-4.215174,6.006476-6.731625,5.040269-3.166558,10.944471-3.25539,11.060925-2.633111Z" fill="#f4cbe0"/><path d="M300.241052,81.912176c.089808.47994-3.298409,1.19262-9.022503,4.399294-5.291471,2.964353-7.667154,5.308232-8.044898,4.965442-.437323-.396843,2.00104-4.215174,6.006476-6.731625,5.040269-3.166558,10.944471-3.25539,11.060925-2.633111Z" fill="#f4cbe0"/><path d="M258.319608,81.912176c.089808.47994-3.298409,1.19262-9.022503,4.399294-5.291471,2.964353-7.667154,5.308232-8.044898,4.965442-.437323-.396843,2.00104-4.215174,6.006476-6.731625,5.040269-3.166558,10.944471-3.25539,11.060925-2.633111Z" fill="#f4cbe0"/><path d="M216.398163,81.912176c.089808.47994-3.298409,1.19262-9.022503,4.399294-5.291471,2.964353-7.667154,5.308232-8.044898,4.965442-.437323-.396843,2.00104-4.215174,6.006476-6.731625,5.040269-3.166558,10.944471-3.25539,11.060925-2.633111Z" fill="#f4cbe0"/><path d="M174.476718,81.912176c.089808.47994-3.298409,1.19262-9.022503,4.399294-5.291471,2.964353-7.667154,5.308232-8.044898,4.965442-.437323-.396843,2.00104-4.215174,6.006476-6.731625,5.040269-3.166558,10.944471-3.25539,11.060925-2.633111Z" fill="#f4cbe0"/><path d="M132.555274,81.912176c.089808.47994-3.298409,1.19262-9.022503,4.399294-5.291471,2.964353-7.667154,5.308232-8.044898,4.965442-.437323-.396843,2.00104-4.215174,6.006476-6.731625,5.040269-3.166558,10.944471-3.25539,11.060925-2.633111Z" fill="#f4cbe0"/><path d="M90.633829,81.912176c.089808.47994-3.298409,1.19262-9.022503,4.399294-5.291471,2.964353-7.667154,5.308232-8.044898,4.965442-.437323-.396843,2.00104-4.215174,6.006476-6.731625,5.040269-3.166558,10.944471-3.25539,11.060925-2.633111Z" fill="#f4cbe0"/><path d="M48.712384,81.912176c.089808.47994-3.298409,1.19262-9.022503,4.399294-5.291471,2.964353-7.667154,5.308232-8.044898,4.965442-.437323-.396843,2.00104-4.215174,6.006476-6.731625,5.040269-3.166558,10.944471-3.25539,11.060925-2.633111Z" fill="#f4cbe0"/><path d="M509.614974,34.389867c.089808.47994-3.298409,1.19262-9.022503,4.399294-5.291471,2.964353-7.667154,5.308232-8.044898,4.965442-.437323-.396843,2.00104-4.215174,6.006476-6.731625,5.040269-3.166558,10.944471-3.25539,11.060925-2.633111Z" fill="#f4cbe0"/><path d="M467.69353,34.389867c.089808.47994-3.298409,1.19262-9.022503,4.399294-5.291471,2.964353-7.667154,5.308232-8.044898,4.965442-.437323-.396843,2.00104-4.215174,6.006476-6.731625,5.040269-3.166558,10.944471-3.25539,11.060925-2.633111Z" fill="#f4cbe0"/><path d="M425.772085,34.389867c.089808.47994-3.298409,1.19262-9.022503,4.399294-5.291471,2.964353-7.667154,5.308232-8.044898,4.965442-.437323-.396843,2.00104-4.215174,6.006476-6.731625,5.040269-3.166558,10.944471-3.25539,11.060925-2.633111Z" fill="#f4cbe0"/><path d="M383.85064,34.389867c.089808.47994-3.298409,1.19262-9.022503,4.399294-5.291471,2.964353-7.667154,5.308232-8.044898,4.965442-.437323-.396843,2.00104-4.215174,6.006476-6.731625,5.040269-3.166558,10.944471-3.25539,11.060925-2.633111Z" fill="#f4cbe0"/><path d="M341.929196,34.389867c.089808.47994-3.298409,1.19262-9.022503,4.399294-5.291471,2.964353-7.667154,5.308232-8.044898,4.965442-.437323-.396843,2.00104-4.215174,6.006476-6.731625,5.040269-3.166558,10.944471-3.25539,11.060925-2.633111Z" fill="#f4cbe0"/><path d="M300.007751,34.389867c.089808.47994-3.298409,1.19262-9.022503,4.399294-5.291471,2.964353-7.667154,5.308232-8.044898,4.965442-.437323-.396843,2.00104-4.215174,6.006476-6.731625,5.040269-3.166558,10.944471-3.25539,11.060925-2.633111Z" fill="#f4cbe0"/><path d="M258.086306,34.389867c.089808.47994-3.298409,1.19262-9.022503,4.399294-5.291471,2.964353-7.667154,5.308232-8.044898,4.965442-.437323-.396843,2.00104-4.215174,6.006476-6.731625,5.040269-3.166558,10.944471-3.25539,11.060925-2.633111Z" fill="#f4cbe0"/><path d="M174.243417,34.389867c.089808.47994-3.298409,1.19262-9.022503,4.399294-5.291471,2.964353-7.667154,5.308232-8.044898,4.965442-.437323-.396843,2.00104-4.215174,6.006476-6.731625,5.040269-3.166558,10.944471-3.25539,11.060925-2.633111Z" fill="#f4cbe0"/><path d="M216.398163,32.390336c.089808.47994-3.298409,1.19262-9.022503,4.399294-5.291471,2.964353-7.667154,5.308232-8.044898,4.965442-.437323-.396843,2.00104-4.215174,6.006476-6.731625,5.040269-3.166558,10.944471-3.25539,11.060925-2.633111Z" fill="#f4cbe0"/><path d="M132.321972,34.389867c.089808.47994-3.298409,1.19262-9.022503,4.399294-5.291471,2.964353-7.667154,5.308232-8.044898,4.965442-.437323-.396843,2.00104-4.215174,6.006476-6.731625,5.040269-3.166558,10.944471-3.25539,11.060925-2.633111Z" fill="#f4cbe0"/><path d="M90.400528,34.389867c.089808.47994-3.298409,1.19262-9.022503,4.399294-5.291471,2.964353-7.667154,5.308232-8.044898,4.965442-.437323-.396843,2.00104-4.215174,6.006476-6.731625,5.040269-3.166558,10.944471-3.25539,11.060925-2.633111Z" fill="#f4cbe0"/><path d="M48.172901,33.594355c.089808.47994-3.298409,1.19262-9.022503,4.399294-5.291471,2.964353-7.667154,5.308232-8.044898,4.965442-.437323-.396843,2.00104-4.215174,6.006476-6.731625,5.040269-3.166558,10.944471-3.25539,11.060925-2.633111Z" fill="#f4cbe0"/></svg>