<?xml version="1.0" encoding="UTF-8"?><svg id="Layer_1" xmlns="http://www.w3.org/2000/svg" width="406.0183" height="348.49023" viewBox="0 0 406.0183 348.49023"><line x1="82.26042" y1="138.95803" x2="162.26042" y2="186.69123" fill="none" stroke="#231f20" stroke-linecap="round" stroke-miterlimit="10" stroke-width="4"/><line x1="243.63841" y1="138.95803" x2="323.63841" y2="186.69123" fill="none" stroke="#231f20" stroke-linecap="round" stroke-miterlimit="10" stroke-width="4"/><line x1="239.30208" y1="139.52595" x2="239.30206" y2="46.36771" fill="none" stroke="#231f20" stroke-linecap="round" stroke-miterlimit="10" stroke-width="4"/><polygon points="154.93188 279.37769 160.26049 186.21948 164.26049 186.21948 169.5891 279.37769 154.93188 279.37769 154.93188 279.37769" fill="#231f20"/><polygon points="93.14452 46.36768 84.13012 139.526 80.13012 139.526 71.11571 46.36768 93.14452 46.36768 93.14452 46.36768" fill="#231f20"/><line x1="247.00579" y1="139.52595" x2="247.00576" y2="46.36771" fill="none" stroke="#231f20" stroke-linecap="round" stroke-miterlimit="10" stroke-width="4"/><line x1="242.94942" y1="138.95803" x2="162.94942" y2="186.69123" fill="none" stroke="#231f20" stroke-linecap="round" stroke-miterlimit="10" stroke-width="4"/><line x1="82" y1="138.95803" x2="2" y2="186.69123" fill="none" stroke="#231f20" stroke-linecap="round" stroke-miterlimit="10" stroke-width="4"/><text transform="translate(331.34643 205.05322)" fill="#231f20" font-family="TimesNewRomanPS-BoldMT, &apos;Times New Roman&apos;" font-size="48" font-weight="700"><tspan x="0" y="0">OH</tspan></text><text transform="translate(225.28686 39.89087)" fill="#231f20" font-family="TimesNewRomanPS-BoldMT, &apos;Times New Roman&apos;" font-size="48" font-weight="700"><tspan x="0" y="0">O</tspan></text><text transform="translate(144.28051 316.77979)" fill="#231f20" font-family="TimesNewRomanPS-BoldMT, &apos;Times New Roman&apos;" font-size="48" font-weight="700"><tspan x="0" y="0">NH</tspan></text><text transform="translate(216.28051 332.76367) scale(.583)" fill="#231f20" font-family="TimesNewRomanPS-BoldMT, &apos;Times New Roman&apos;" font-size="48" font-weight="700"><tspan x="0" y="0">2</tspan></text><text transform="translate(65.5863 40.6106)" fill="#231f20" font-family="TimesNewRomanPS-BoldMT, &apos;Times New Roman&apos;" font-size="43.2" font-weight="700"><tspan x="0" y="0">OH</tspan></text></svg>