<?xml version="1.0" encoding="UTF-8"?><svg id="Layer_1" xmlns="http://www.w3.org/2000/svg" width="512.16068" height="334.09668" viewBox="0 0 512.16068 334.09668"><line x1="69.37639" y1="151.51514" x2="12.39962" y2="186.06981" fill="none" stroke="#231f20" stroke-linecap="round" stroke-miterlimit="10" stroke-width="3.78917"/><line x1="122.11237" y1="247.87923" x2="121.63265" y2="181.24479" fill="none" stroke="#231f20" stroke-linecap="round" stroke-miterlimit="10" stroke-width="3.78917"/><line x1="12.0337" y1="241.38442" x2="69.74231" y2="274.7025" fill="none" stroke="#231f20" stroke-linecap="round" stroke-miterlimit="10" stroke-width="3.78917"/><line x1="355.51352" y1="133.25437" x2="355.5135" y2="44.28419" fill="none" stroke="#231f20" stroke-linecap="round" stroke-miterlimit="10" stroke-width="3.78917"/><polygon points="276.73514 266.81885 281.23026 177.84863 285.01932 177.84863 289.51469 266.81885 276.73514 266.81885 276.73514 266.81885" fill="#231f20"/><line x1="362.75195" y1="133.25437" x2="362.75193" y2="44.28419" fill="none" stroke="#231f20" stroke-linecap="round" stroke-miterlimit="10" stroke-width="3.78917"/><polyline points="132.74569 178.29927 207.91402 132.71198 207.95653 132.71198 283.12486 178.29927 283.77224 178.29927 358.94057 132.71198 359.58795 132.71198 434.75628 178.29927" fill="none" stroke="#231f20" stroke-linecap="round" stroke-miterlimit="10" stroke-width="3.78917"/><text transform="translate(441.99842 195.83533) scale(.98383 1)" fill="#231f20" font-family="TimesNewRomanPS-BoldMT, &apos;Times New Roman&apos;" font-size="45.84209" font-weight="700"><tspan x="0" y="0">OH</tspan></text><text transform="translate(345.40662 38.09802) scale(.98383 1)" fill="#231f20" font-family="TimesNewRomanPS-BoldMT, &apos;Times New Roman&apos;" font-size="45.84209" font-weight="700"><tspan x="0" y="0">O</tspan></text><text transform="translate(266.47986 303.81189) scale(.98383 1)" fill="#231f20" font-family="TimesNewRomanPS-BoldMT, &apos;Times New Roman&apos;" font-size="45.84209" font-weight="700"><tspan x="0" y="0">NH</tspan></text><text transform="translate(334.13123 319.07751) scale(.57357)" fill="#231f20" font-family="TimesNewRomanPS-BoldMT, &apos;Times New Roman&apos;" font-size="45.84209" font-weight="700"><tspan x="0" y="0">2</tspan></text><polygon points="2.84188 177.06201 2.84188 252.06201 67.79378 289.56201 132.74569 252.06201 132.74569 177.06201 67.79378 139.56201 2.84188 177.06201" fill="none" stroke="#231f20" stroke-linecap="round" stroke-miterlimit="10" stroke-width="5.68375"/></svg>