<?xml version="1.0" encoding="UTF-8"?><svg id="Layer_1" xmlns="http://www.w3.org/2000/svg" width="524.12817" height="475.69531" viewBox="0 0 524.12817 475.69531"><line x1="521.74268" y1="240.3667" x2="484.13745" y2="239.78174" fill="none" stroke="#515ba7" stroke-miterlimit="10" stroke-width="3"/><line x1="509.91406" y1="269.72021" x2="481.42773" y2="265.13184" fill="none" stroke="#515ba7" stroke-miterlimit="10" stroke-width="3"/><line x1="516.50586" y1="278.58154" x2="479.62402" y2="271.44434" fill="none" stroke="#515ba7" stroke-miterlimit="10" stroke-width="3"/><line x1="515.50879" y1="286.37598" x2="482.42285" y2="278.7085" fill="none" stroke="#515ba7" stroke-miterlimit="10" stroke-width="3"/><line x1="511.61401" y1="293.19092" x2="492.46167" y2="288.56836" fill="none" stroke="#515ba7" stroke-miterlimit="10" stroke-width="3"/><line x1="509.01562" y1="308.81152" x2="482.22168" y2="299.69141" fill="none" stroke="#515ba7" stroke-miterlimit="10" stroke-width="3"/><line x1="504.32275" y1="299.2998" x2="497.60864" y2="297.21973" fill="none" stroke="#515ba7" stroke-miterlimit="10" stroke-width="3"/><line x1="505.43115" y1="254.04639" x2="485.78931" y2="252.68408" fill="none" stroke="#515ba7" stroke-miterlimit="10" stroke-width="3"/><line x1="495.97144" y1="260.41162" x2="489.40625" y2="259.63379" fill="none" stroke="#515ba7" stroke-miterlimit="10" stroke-width="3"/><line x1="517.45068" y1="247.42676" x2="483.35571" y2="245.89111" fill="none" stroke="#515ba7" stroke-miterlimit="10" stroke-width="3"/><path d="M501.49146,261.95605c-4.45825-2.74414-9.07666-5.27979-12.34692-7.9458-1.64697-1.33545-2.9856-2.70703-3.87427-4.17432-.45581-.73486-.75049-1.49072-1.00293-2.28613-.24927-.79492-.37109-1.62402-.34741-2.49805.07812-2.90576,1.73804-5.12549,4.35474-7.20312-.29419,0-3.7356-.00049-5.1626-.00049-1.77612,2.04785-2.86499,4.26904-2.93921,7.05273-.04004,1.13037.13281,2.1958.37769,3.2041.22656,1.00732.60522,1.96338,1.11328,2.88037,1.01562,1.83398,2.54712,3.51465,4.41113,5.11816.93213.80176,1.94727,1.58301,3.02295,2.35254,1.05273.76611,2.1416,1.51758,3.28418,2.26562,2.27832,1.49463,4.71362,2.96875,7.12183,4.47607,2.25244,1.40967,4.46826,2.83984,6.50464,4.32764,2.03271,1.48682,3.91821,3.03662,5.35645,4.65674,2.93359,3.24414,4.55298,6.87891,3.72217,11.01172l3.65747.82861c.55859-2.77393.38232-5.32568-.34766-7.65674-.7561-2.33691-1.9519-4.43506-3.729-6.39209-3.46411-3.90039-8.35034-7.07764-13.17651-10.01758Z" fill="#e2a78a"/><path d="M506.17554,314.4126c1.41309.53906,2.59033.98828,3.50269,1.33643.01367-.03516.05933-.15332.073-.18848.98193-2.64795,1.2561-5.16064.84033-7.57471-.45312-2.4292-1.47681-4.71826-2.88184-6.88037-1.40503-2.1626-3.19092-4.2002-5.16455-6.14307-1.95337-1.9375-4.23828-3.82227-6.43457-5.62354-4.14429-3.38037-8.21655-6.50928-11.03833-9.604-1.37744-1.54053-2.59741-3.10742-3.30322-4.69287-.71729-1.58887-.98047-3.20898-.63794-4.92188.17139-.85645.47485-1.63721.89404-2.35693.37305-.72754.86572-1.39307,1.46265-2.01074,1.19385-1.23438,2.80542-2.27637,4.70923-3.21533,3.81152-1.87549,8.81519-3.3374,13.78101-5.03125,5.36133-1.80371,10.83374-3.8252,15.07983-6.86475,4.15991-3.03125,6.90771-7.13086,7.07031-12.79248h-3.75c-.1084,4.21045-2.49438,7.39502-6.07568,9.91064-.89648.63037-1.86328,1.2207-2.89575,1.77881-1.06104.55664-2.17896,1.08154-3.3374,1.58203-2.31714,1.00195-4.79614,1.9082-7.30664,2.78662-2.68433.93896-5.38745,1.84033-7.94238,2.79639-2.55103.95654-4.94287,1.96924-7.14941,3.11719-2.17529,1.15234-4.04395,2.45361-5.44385,4.01709-1.40234,1.56396-2.28735,3.39746-2.78369,5.60352-.44409,2.21436-.16479,4.26465.63892,6.2373.20093.49316.43457.98096.69824,1.46484.23901.47803.50854.95215.80566,1.42285.59424.94189,1.29883,1.87061,2.08936,2.79199,3.14697,3.67822,7.7395,7.26172,12.07642,10.92627,4.01172,3.41357,7.86743,6.88818,10.38843,10.54395,1.23926,1.81982,2.23535,3.7168,2.58936,5.60303.37183,1.8916.25708,3.82959-.4834,5.7959-.00244.00586-.06836.17969-.0708.18555Z" fill="#c7873a"/><path d="M475.96167,302.88525c2.19922-.76855,4.83398-1.25293,7.72144-1.62305,1.43994-.18604,2.95825-.33789,4.48853-.49023,1.51196-.15283,3.06738-.31006,4.63574-.46875,5.62476-.57617,11.40527-1.33838,16.21362-3.3623,2.41895-1.00635,4.42163-2.37988,6.10962-4.16211,1.66187-1.78809,2.93872-4.00977,3.61401-6.75635l-3.65747-.82861c-1.01733,4.08936-4.06445,6.66553-8.10938,8.32861-1.01685.41553-2.07983.78076-3.2251,1.09277-1.15698.30811-2.36255.57227-3.60229.80469-2.47925.46484-5.09595.80078-7.7373,1.10303-3.97729.45557-7.9751.82959-11.59424,1.47949-3.677.63232-7.05566,1.50928-9.65015,3.0542,1.4292.54541,3.04443,1.16162,4.79297,1.82861Z" fill="#e2a78a"/><line x1="506.62207" y1="317.28223" x2="471.68921" y2="303.33252" fill="none" stroke="#515ba7" stroke-miterlimit="10" stroke-width="3"/><line x1="485.1731" y1="340.46191" x2="460.11719" y2="326.15918" fill="none" stroke="#515ba7" stroke-miterlimit="10" stroke-width="3"/><line x1="488.3125" y1="351.07666" x2="456.24536" y2="331.5083" fill="none" stroke="#515ba7" stroke-miterlimit="10" stroke-width="3"/><line x1="484.62256" y1="357.95166" x2="456.24683" y2="339.28906" fill="none" stroke="#515ba7" stroke-miterlimit="10" stroke-width="3"/><line x1="478.66431" y1="362.97314" x2="462.26367" y2="352.03906" fill="none" stroke="#515ba7" stroke-miterlimit="10" stroke-width="3"/><line x1="470.93652" y1="376.65967" x2="448.80713" y2="359.02686" fill="none" stroke="#515ba7" stroke-miterlimit="10" stroke-width="3"/><line x1="469.79004" y1="366.21191" x2="464.18774" y2="361.9668" fill="none" stroke="#515ba7" stroke-miterlimit="10" stroke-width="3"/><line x1="486.5647" y1="324.27002" x2="468.67944" y2="316.02637" fill="none" stroke="#515ba7" stroke-miterlimit="10" stroke-width="3"/><line x1="475.38867" y1="326.83936" x2="469.52148" y2="323.79199" fill="none" stroke="#515ba7" stroke-miterlimit="10" stroke-width="3"/><line x1="500.08008" y1="322.3291" x2="468.76172" y2="308.76465" fill="none" stroke="#515ba7" stroke-miterlimit="10" stroke-width="3"/><path d="M480.03491,330.24854c-3.32031-4.20264-6.62134-8.1499-8.70898-11.79834-.52173-.9126-.96753-1.80615-1.31812-2.68213-.37061-.88428-.67065-1.76172-.84521-2.61719-.35522-1.71338-.26074-3.35938.44458-4.96387.56836-1.34229,1.51831-2.35107,2.58398-3.20752,1.08325-.84961,2.43042-1.48877,3.98901-2.00635-.2749-.10498-3.49023-1.33154-4.82349-1.84033-1.1604.65381-2.17432,1.4126-3.01904,2.3335-.83105.92627-1.63379,1.96094-2.17871,3.24658-.91309,2.07617-1.08594,4.14844-.72998,6.2583.31055,2.08789,1.07959,4.1792,2.23682,6.33447,1.14697,2.15039,2.63672,4.34326,4.27881,6.56934.82104,1.11328,1.68018,2.23438,2.55371,3.36182.84888,1.1123,1.70801,2.23779,2.56323,3.35889,3.19067,4.20654,6.21851,8.43213,7.91016,12.54248.4231,1.02734.7627,2.04736,1.00098,3.05664.22754,1.00244.31958,1.97266.30908,2.93896-.02905,1.92627-.54102,3.79297-1.66895,5.55469l3.14233,2.0459c1.51514-2.36523,2.26074-4.78223,2.40967-7.19189.10205-2.44189-.44336-4.91064-1.35181-7.31836-.91626-2.41309-2.229-4.78809-3.7439-7.11279-.75781-1.16309-1.56445-2.3125-2.39966-3.4502-.86084-1.15137-1.74707-2.28955-2.63452-3.4126Z" fill="#e2a78a"/><path d="M466.45142,380.97412c1.15039.98193,2.10864,1.7998,2.85156,2.43408.02466-.02783.10791-.12207.13281-.1499,1.87305-2.07568,2.83447-4.44189,3.24927-6.84082.41187-2.40332.23975-4.87451-.33252-7.36279-.54834-2.4707-1.59766-5.03857-2.82227-7.56104-1.22778-2.5249-2.65869-5.02686-4.10181-7.47412-5.31445-9.13916-11.02881-17.33936-7.31445-23.24121,1.73022-3.05273,5.05103-4.24219,9.32129-4.64893,4.20337-.43311,9.27344-.10303,14.61133.11865,5.69409.23096,11.60425.32617,16.50537-1.06738,4.90552-1.37646,9.22192-4.0918,11.12622-9.42627l-3.50366-1.33691c-.75659,1.95947-1.896,3.50928-3.4917,4.64795-1.59985,1.1377-3.52563,1.92139-5.67188,2.4502-4.31421,1.04883-9.41943,1.11865-14.76538.96582-5.72534-.1665-11.47144-.49854-16.2644.1792-1.20752.16504-2.31616.41406-3.4231.70996-1.10498.29688-2.13818.67578-3.08667,1.15869-1.89746.96582-3.45312,2.3418-4.57446,4.32227-2.39893,3.86182-1.95947,8.10498-.20288,12.72754,1.646,4.54004,4.64233,9.43506,7.48853,14.38477,1.3208,2.30615,2.64502,4.64355,3.70752,6.88428,1.0647,2.2417,1.94507,4.44531,2.4978,6.57373.55322,2.12793.77808,4.18066.53735,6.11328-.12036.96631-.35693,1.90234-.72607,2.80078-.39575.87549-.93433,1.7041-1.61768,2.49023-.00439.00488-.12573.14307-.13013.14795Z" fill="#c7873a"/><path d="M441.85522,359.979c4.76099.08545,10.53442,1.63916,16.71655,3.20654,2.75928.69531,5.56763,1.36426,8.34033,1.83252,2.79297.48389,5.47974.71191,8.02783.55371,2.55469-.15186,4.98145-.68311,7.17871-1.75537,1.0979-.53662,2.14087-1.20605,3.10718-2.03174.92358-.85645,1.77222-1.86816,2.5293-3.05029l-3.14233-2.0459c-2.20117,3.56836-6.0459,4.83447-10.43091,4.98096-4.42993.12158-9.41064-.854-14.65088-2.1377-3.91504-.94238-7.8269-1.96094-11.48633-2.58691-3.65942-.62451-7.03662-.83887-10.09131-.2959,1.16333.99268,2.47852,2.11523,3.90186,3.33008Z" fill="#e2a78a"/><line x1="465.896" y1="383.78564" x2="437.64136" y2="358.95947" fill="none" stroke="#515ba7" stroke-miterlimit="10" stroke-width="3"/><line x1="438.22021" y1="398.56006" x2="419.09302" y2="376.96436" fill="none" stroke="#515ba7" stroke-miterlimit="10" stroke-width="3"/><line x1="437.78271" y1="409.52393" x2="413.60303" y2="380.77441" fill="none" stroke="#515ba7" stroke-miterlimit="10" stroke-width="3"/><line x1="432.17212" y1="414.85645" x2="411.11401" y2="388.20947" fill="none" stroke="#515ba7" stroke-miterlimit="10" stroke-width="3"/><line x1="425.02417" y1="417.77979" x2="412.85156" y2="402.27783" fill="none" stroke="#515ba7" stroke-miterlimit="10" stroke-width="3"/><line x1="413.50781" y1="428.2998" x2="397.82544" y2="404.7417" fill="none" stroke="#515ba7" stroke-miterlimit="10" stroke-width="3"/><line x1="415.56445" y1="417.99805" x2="411.5459" y2="412.23145" fill="none" stroke="#515ba7" stroke-miterlimit="10" stroke-width="3"/><line x1="444.698" y1="383.66748" x2="430.51123" y2="370.02002" fill="none" stroke="#515ba7" stroke-miterlimit="10" stroke-width="3"/><line x1="433.31128" y1="382.46484" x2="428.75122" y2="377.67822" fill="none" stroke="#515ba7" stroke-miterlimit="10" stroke-width="3"/><line x1="458.13403" y1="386.37305" x2="433.08154" y2="363.1958" fill="none" stroke="#515ba7" stroke-miterlimit="10" stroke-width="3"/><path d="M436.58813,387.18604c-.87549-2.51123-1.76416-4.96338-2.52661-7.30273-.75586-2.33252-1.39478-4.56055-1.823-6.67529-.82324-4.2041-.60791-7.73047,1.84668-10.27539,1.92993-2.21777,4.62329-2.87842,7.94629-2.79736-.22388-.19092-2.84131-2.42529-3.92651-3.35156-2.66797.44678-4.93042,1.4834-6.78296,3.61426-3.2002,3.28271-3.55493,7.61963-2.80786,12.45947.71362,4.79395,2.68921,10.19092,4.51465,15.604,1.73779,5.0957,3.19678,10.00098,3.47241,14.39502.1355,2.19385-.03442,4.24902-.63623,6.09521-.30322.92041-.70459,1.80029-1.24609,2.5957-.55591.77686-1.23584,1.48975-2.05322,2.12744l2.33716,2.93262c1.08716-.86621,2.03296-1.76074,2.75244-2.80176.72559-1.03271,1.29321-2.12354,1.72192-3.25977.85791-2.27344,1.15869-4.72754,1.07324-7.27832-.04468-1.27832-.17627-2.56982-.39868-3.896-.23389-1.33936-.54053-2.69238-.89771-4.05029-.71411-2.71582-1.62964-5.4502-2.56592-8.13525Z" fill="#e2a78a"/><path d="M407.96069,431.02637c.7981,1.28467,1.46313,2.35498,1.97852,3.18457.03125-.01953.13696-.08594.16821-.10547,4.67822-3.00098,6.6936-7.39697,7.03125-12.59961.38574-5.146-.70312-10.84424-1.89478-16.35693-1.17041-5.23242-2.42383-10.24805-2.70044-14.47461-.13818-2.11475-.03271-4.0332.45532-5.69189.44995-1.70508,1.2627-3.17188,2.6123-4.3252,1.34741-1.15576,2.91309-1.74072,4.67139-1.91309,1.75977-.16992,3.62793-.01611,5.70166.46045,4.12305.93018,8.8728,2.94189,13.86035,4.91016,5.30371,2.07715,10.72705,3.9873,15.88501,4.39307,1.28638.09863,2.55273.10107,3.79004-.01562,1.24365-.11035,2.44653-.3501,3.56934-.77002,2.26904-.81543,4.37427-2.20215,6.21191-4.30908l-2.85205-2.43457c-1.36963,1.56982-3.01465,2.58008-4.85498,3.14648-1.84399.56396-3.85889.70801-6.08887.45654-4.41943-.4624-9.33838-2.1626-14.29468-4.01514-5.2666-1.94678-10.63916-4.17334-15.45264-5.11328-2.40576-.46777-4.67505-.61719-6.75366-.2583-2.09448.34424-4.08984,1.09912-5.82812,2.61084-3.43823,3.05664-4.47998,7.14404-4.30054,12.06982.08887,2.45508.47217,5.09277.98315,7.82129.47852,2.68604,1.08325,5.45898,1.65503,8.23438,1.06885,5.18945,1.99902,10.31348,1.79004,14.75098-.23022,4.39551-1.69141,7.99609-5.17725,10.23926-.00537.00391-.15991.10156-.16553.10498Z" fill="#c7873a"/><path d="M390.896,403.55713c4.44922,1.39697,9.57397,4.77148,14.99023,8.18359,4.80957,2.99707,9.79639,5.91162,14.77441,7.27686,1.24316.33984,2.48413.58154,3.71826.70166.6167.06006,1.23267.09033,1.84473.08594.60034-.021,1.198-.07617,1.79199-.16748,2.37524-.36523,4.69482-1.31934,6.88721-3.03027l-2.33716-2.93262c-3.28906,2.53467-7.15747,2.73633-11.39648,1.44971-4.24805-1.28857-8.76074-3.88135-13.28833-6.62646-6.78198-4.06934-13.64966-8.70117-19.69189-9.29834.80713,1.29932,1.71948,2.76807,2.70703,4.35742Z" fill="#e2a78a"/><line x1="406.6228" y1="433.57617" x2="387.20581" y2="401.35889" fill="none" stroke="#515ba7" stroke-miterlimit="10" stroke-width="3"/><line x1="375.88525" y1="439.27344" x2="363.91553" y2="413.02295" fill="none" stroke="#515ba7" stroke-miterlimit="10" stroke-width="3"/><line x1="372.33228" y1="449.6958" x2="357.5498" y2="415.16064" fill="none" stroke="#515ba7" stroke-miterlimit="10" stroke-width="3"/><line x1="365.44434" y1="453.1377" x2="352.96875" y2="421.54932" fill="none" stroke="#515ba7" stroke-miterlimit="10" stroke-width="3"/><line x1="357.77295" y1="453.81494" x2="350.55054" y2="435.47266" fill="none" stroke="#515ba7" stroke-miterlimit="10" stroke-width="3"/><line x1="343.81421" y1="460.63574" x2="335.43726" y2="433.60693" fill="none" stroke="#515ba7" stroke-miterlimit="10" stroke-width="3"/><line x1="348.70288" y1="451.40918" x2="346.49219" y2="444.73682" fill="none" stroke="#515ba7" stroke-miterlimit="10" stroke-width="3"/><line x1="386.46436" y1="427.02637" x2="376.97729" y2="409.771" fill="none" stroke="#515ba7" stroke-miterlimit="10" stroke-width="3"/><line x1="375.95068" y1="422.52051" x2="373.0061" y2="416.60107" fill="none" stroke="#515ba7" stroke-miterlimit="10" stroke-width="3"/><line x1="398.42871" y1="433.58887" x2="381.48462" y2="403.9624" fill="none" stroke="#515ba7" stroke-miterlimit="10" stroke-width="3"/><path d="M377.69653,428.01465c-.21265-5.35449-.53589-10.50342-.03662-14.70801.24463-2.11279.71924-3.94678,1.48047-5.53418.75269-1.604,1.83154-2.88965,3.37646-3.77979,2.5647-1.48682,5.40405-1.22412,8.49976-.23291-.15527-.25-1.97119-3.17334-2.72412-4.38574-2.63501-.28467-5.18311-.06104-7.65015,1.37061-2.01685,1.13965-3.39355,2.78613-4.43457,4.63672-1.03979,1.84961-1.6604,4.0459-2.02222,6.47412-.72266,4.85352-.39429,10.67285-.28638,16.28662.12109,5.28906.12329,10.48682-.86963,14.80225-.24805,1.07861-.55811,2.10254-.94287,3.05811-.39551.93018-.8689,1.78467-1.42896,2.56006-1.12036,1.54883-2.59375,2.76758-4.50635,3.54395l1.39087,3.48242c2.56226-1.04004,4.53198-2.56738,6.02124-4.4375,1.47705-1.90234,2.4436-4.22363,3.09375-6.70117,1.28442-4.99463,1.25757-10.73145,1.03931-16.43555Z" fill="#e2a78a"/><path d="M337.76074,461.72217c.40405,1.45703.74048,2.67139,1.00146,3.61279.03564-.00928.15601-.03906.19165-.04785,5.30396-1.56396,8.41895-5.3501,10.26245-10.06738,1.81348-4.84375,2.3772-10.65967,2.80298-16.31396.39844-5.29053.67749-10.36719,1.6084-14.57715.9458-4.18506,2.6084-7.29248,5.89453-8.68262,3.23755-1.49707,6.66675-.5498,10.37817,1.60352,1.86328,1.09766,3.75293,2.4209,5.71118,3.91064,1.95874,1.49219,3.98096,3.1416,6.0603,4.79932,2.22314,1.77246,4.49756,3.54346,6.81812,5.11914,2.32251,1.58008,4.69312,2.96924,7.05322,3.87891,2.37158.93262,4.77881,1.46973,7.19849,1.42285,2.41187-.05908,4.87842-.63232,7.19409-2.16553l-1.97876-3.18506c-.87549.55127-1.76221.9707-2.69238,1.20996-.93604.22949-1.88965.32324-2.85693.29785-1.93506-.05078-3.92358-.57812-5.94238-1.43848-4.03833-1.71875-8.18481-4.75-12.41089-8.07617-4.49878-3.51758-8.94312-7.16504-13.24878-9.41699-4.33081-2.28125-8.5874-3.36377-12.78296-1.39697-4.27783,1.78906-6.43213,5.52246-7.67114,10.34082-1.27881,4.69482-1.63525,10.40771-2.11279,16.08936-.44727,5.31006-.9917,10.54492-2.48071,14.62109-1.4729,4.10596-3.84741,7.25439-7.80835,8.41406-.00635.00146-.18286.0459-.18896.04785Z" fill="#c7873a"/><path d="M329.12134,430.55908c3.89038,2.60449,7.8374,7.21924,12.05664,12.00391,1.8877,2.13867,3.8252,4.28467,5.84033,6.24854,2.00488,1.93213,4.07397,3.63721,6.25122,4.98438,2.17529,1.3418,4.45239,2.30273,6.84277,2.69287,1.19067.18359,2.427.27393,3.6582.10938,1.23242-.16016,2.49097-.48926,3.77173-1.00928l-1.39087-3.48242c-1.91943.75781-3.79712.96924-5.69946.55225-1.89648-.39893-3.76367-1.27441-5.60352-2.48242-3.68359-2.42236-7.24707-6.14209-10.80835-10.06641-5.4021-6.00928-10.63086-12.20996-16.28906-14.49414.40869,1.47363.87036,3.14014,1.37036,4.94336Z" fill="#e2a78a"/><line x1="335.75024" y1="463.71484" x2="326.17065" y2="427.34424" fill="none" stroke="#515ba7" stroke-miterlimit="10" stroke-width="3"/><line x1="304.73901" y1="460.66797" x2="300.45386" y2="432.13574" fill="none" stroke="#515ba7" stroke-miterlimit="10" stroke-width="3"/><line x1="298.48047" y1="469.68994" x2="293.71558" y2="432.42725" fill="none" stroke="#515ba7" stroke-miterlimit="10" stroke-width="3"/><line x1="290.9436" y1="471.14746" x2="287.54346" y2="437.35498" fill="none" stroke="#515ba7" stroke-miterlimit="10" stroke-width="3"/><line x1="283.40015" y1="469.69678" x2="281.41895" y2="450.08496" fill="none" stroke="#515ba7" stroke-miterlimit="10" stroke-width="3"/><line x1="268.17065" y1="472.50146" x2="267.35059" y2="444.21582" fill="none" stroke="#515ba7" stroke-miterlimit="10" stroke-width="3"/><line x1="275.33936" y1="464.93701" x2="275.00928" y2="457.91602" fill="none" stroke="#515ba7" stroke-miterlimit="10" stroke-width="3"/><line x1="318.26709" y1="451.8042" x2="313.9519" y2="432.59375" fill="none" stroke="#515ba7" stroke-miterlimit="10" stroke-width="3"/><line x1="309.42578" y1="444.61279" x2="308.23315" y2="438.10986" fill="none" stroke="#515ba7" stroke-miterlimit="10" stroke-width="3"/><line x1="327.92212" y1="461.48975" x2="319.93701" y2="428.30762" fill="none" stroke="#515ba7" stroke-miterlimit="10" stroke-width="3"/><path d="M309.57812,450.34277c1.28906-5.12793,2.39258-10.24902,4.0459-14.15234,1.64624-3.9585,3.84814-6.62305,7.29688-7.57617,2.88477-.73877,5.52637.23291,8.25928,2.17285-.07861-.28369-.99805-3.59961-1.37915-4.9751-2.49341-1.13379-4.99268-1.55225-7.77075-.84033-1.13013.28271-2.13892.73828-3.06592,1.26904-.93188.51172-1.76855,1.15381-2.52783,1.90771-1.51807,1.50684-2.72729,3.46045-3.75049,5.70703-2.03516,4.53955-3.36353,10.05713-4.79639,15.5459-1.33936,5.13232-2.76196,10.14258-4.89233,14.0332-2.13257,3.83496-5.00488,6.43164-9.09619,6.90967l.38916,3.72998c5.479-.63965,9.19116-3.68896,11.77246-8.20898,2.59888-4.44824,4.1377-10.04443,5.51538-15.52246Z" fill="#e2a78a"/><path d="M262.06836,471.94482v3.74902c.03662-.00049.16016-.00195.19678-.00244,5.50659-.11621,9.50537-2.89648,12.54321-6.95068,3.04248-4.16748,5.15283-9.62354,7.09424-14.95361,1.81348-5.01953,3.47046-9.7627,5.51709-13.57666,2.05615-3.76611,4.5083-6.35596,8.06934-6.75732,3.54492-.5083,6.58276,1.27783,9.56128,4.36719,1.48535,1.53516,2.95068,3.39355,4.427,5.39648,1.46948,1.9668,2.95435,4.10303,4.49048,6.26367,3.28418,4.61963,6.76245,9.29102,10.81177,12.51318,4.02466,3.15186,8.62183,4.70557,13.97827,3.34375l-1.00171-3.61328c-3.99634,1.02588-7.64185-.41162-11.02075-3.16943-.8457-.68945-1.67627-1.46094-2.49438-2.2959-.82397-.86035-1.63574-1.78564-2.43848-2.75488-1.60547-1.93896-3.17505-4.05811-4.73633-6.21338-3.34302-4.625-6.59106-9.2876-10.12622-12.69238-3.55786-3.479-7.34399-5.54395-11.95093-4.86182-4.63306.51025-7.72998,3.60645-10.24658,7.85596-2.51733,4.15869-4.41064,9.58154-6.40674,14.9209-1.86597,4.99805-3.79932,9.8833-6.32324,13.40869-2.51733,3.56592-5.63696,5.93164-9.75,6.01953-.00635,0-.18774.00342-.19409.00342Z" fill="#c7873a"/><path d="M262.06787,439.60645c3.06226,3.50293,5.6333,9.04834,8.41064,14.78027,1.24341,2.56787,2.53076,5.15625,3.93994,7.59033,1.40845,2.41064,2.93701,4.60254,4.66455,6.48828,1.72705,1.87793,3.65259,3.41699,5.83936,4.4375,1.09326.51025,2.25122.89062,3.47974,1.11914,1.22559.19189,2.51978.20459,3.88818.05225l-.38916-3.72998c-4.08789.53076-7.4502-1.64844-10.32642-4.93945-2.88354-3.32764-5.30664-7.8623-7.67944-12.61035-3.58301-7.22998-6.9646-14.64697-11.82764-18.31787,0,1.5293.00024,3.2583.00024,5.12988Z" fill="#e2a78a"/><line x1="259.60645" y1="473.32275" x2="260.07666" y2="435.71582" fill="none" stroke="#515ba7" stroke-miterlimit="10" stroke-width="3"/><line x1="230.55933" y1="462.1626" x2="233.95239" y2="433.51172" fill="none" stroke="#515ba7" stroke-miterlimit="10" stroke-width="3"/><line x1="222.13965" y1="469.24707" x2="227.36865" y2="432.04639" fill="none" stroke="#515ba7" stroke-miterlimit="10" stroke-width="3"/><line x1="214.48779" y1="468.62158" x2="220.12598" y2="435.12988" fill="none" stroke="#515ba7" stroke-miterlimit="10" stroke-width="3"/><line x1="207.58105" y1="465.25977" x2="210.85596" y2="445.81885" fill="none" stroke="#515ba7" stroke-miterlimit="10" stroke-width="3"/><line x1="192.12207" y1="463.90771" x2="198.86182" y2="436.42383" fill="none" stroke="#515ba7" stroke-miterlimit="10" stroke-width="3"/><line x1="201.06494" y1="458.49756" x2="202.60815" y2="451.64014" fill="none" stroke="#515ba7" stroke-miterlimit="10" stroke-width="3"/><line x1="245.94092" y1="457.19775" x2="246.86597" y2="437.52881" fill="none" stroke="#515ba7" stroke-miterlimit="10" stroke-width="3"/><line x1="239.31738" y1="447.89258" x2="239.88452" y2="441.30566" fill="none" stroke="#515ba7" stroke-miterlimit="10" stroke-width="3"/><line x1="252.67334" y1="469.07324" x2="253.79053" y2="434.96191" fill="none" stroke="#515ba7" stroke-miterlimit="10" stroke-width="3"/><path d="M237.94824,453.49463c2.60425-4.6875,5.01685-9.25537,7.64844-12.58984,1.31616-1.66748,2.6875-3.02588,4.17358-3.93604,1.48657-.91357,3.09497-1.50098,4.89038-1.4458,2.98706.06641,5.28223,1.71436,7.40283,4.31885v-5.1626c-2.10718-1.76367-4.41406-2.84082-7.29321-2.90479-4.67383-.01807-8.21802,2.2749-11.39185,6.08789-1.58203,1.8877-3.05957,4.1084-4.49756,6.48242-1.4375,2.37402-2.82617,4.80762-4.24146,7.271-5.2605,9.14209-10.85059,17.90332-19.0166,16.48975l-.60889,3.7002c2.72119.43799,5.18823.15186,7.42407-.67578,2.24414-.88818,4.26294-2.35352,6.09937-4.14111,3.67749-3.59717,6.6333-8.5415,9.41089-13.49414Z" fill="#e2a78a"/><path d="M186.37549,461.72412c-.40381,1.45752-.74048,2.67188-1.00122,3.61279.0354.00928.15527.04102.19067.05078,5.35767,1.35791,9.95068-.18506,13.97632-3.354,4.04688-3.22266,7.52148-7.89502,10.802-12.51562,1.53442-2.16162,3.01758-4.2959,4.48608-6.26562,1.47729-2.01709,2.93945-3.86572,4.42432-5.40381,2.97656-3.09375,6.01099-4.86768,9.55859-4.37598,3.56104.40186,6.0144,2.9917,8.073,6.75781.51367.94141,1.00122,1.95654,1.47217,3.02832.47314,1.04688.92993,2.1499,1.37915,3.29541.89795,2.2915,1.76562,4.75,2.67529,7.24561,1.94507,5.32617,4.05859,10.79492,7.10425,14.94531,3.04053,4.05469,7.04077,6.83447,12.54712,6.9502v-3.75c-4.11255-.0874-7.23364-2.45264-9.75317-6.01904-1.26172-1.79346-2.37964-3.84326-3.41284-6.13867-1.0332-2.30029-1.98438-4.76465-2.91919-7.26172-1.99976-5.33984-3.89648-10.7627-6.4165-14.92188-2.52124-4.23291-5.61841-7.3418-10.25171-7.84814-4.60962-.66602-8.39209,1.38672-11.948,4.87012-3.5354,3.42139-6.77759,8.07275-10.11768,12.70215-1.55981,2.15576-3.12769,4.27539-4.73169,6.21436-1.6062,1.94971-3.24463,3.70068-4.93091,5.06006-3.37646,2.7583-7.02075,4.19678-11.01733,3.17041-.0061-.00146-.18237-.04736-.18872-.04883Z" fill="#c7873a"/><path d="M195.01392,430.56055c2.00562,4.19922,3.00073,10.23584,4.15308,16.50928,1.02051,5.66309,2.23389,11.2915,4.57446,15.83838,2.33374,4.53564,5.80908,8.09863,11.27246,8.89746l.60889-3.7002c-2.03174-.33057-3.73291-1.17383-5.15649-2.44629-1.41528-1.32471-2.56006-3.04199-3.51099-5.02979-1.90332-3.97559-3.03125-9.03223-4.06787-14.20459-1.54834-7.87354-2.8147-15.97754-6.50317-20.80762-.40869,1.47412-.87036,3.14014-1.37036,4.94336Z" fill="#e2a78a"/><line x1="183.62109" y1="462.41309" x2="194.13574" y2="426.30273" fill="none" stroke="#515ba7" stroke-miterlimit="10" stroke-width="3"/><line x1="158.59424" y1="443.78613" x2="169.68018" y2="417.14893" fill="none" stroke="#515ba7" stroke-miterlimit="10" stroke-width="3"/><line x1="148.5498" y1="448.26221" x2="163.78564" y2="413.92432" fill="none" stroke="#515ba7" stroke-miterlimit="10" stroke-width="3"/><line x1="141.32202" y1="445.58594" x2="155.97778" y2="414.94775" fill="none" stroke="#515ba7" stroke-miterlimit="10" stroke-width="3"/><line x1="135.60596" y1="440.40186" x2="144.13989" y2="422.63477" fill="none" stroke="#515ba7" stroke-miterlimit="10" stroke-width="3"/><line x1="121.07422" y1="434.79102" x2="135.24561" y2="410.2998" fill="none" stroke="#515ba7" stroke-miterlimit="10" stroke-width="3"/><line x1="131.1958" y1="432.10693" x2="134.58911" y2="425.95117" fill="none" stroke="#515ba7" stroke-miterlimit="10" stroke-width="3"/><line x1="174.7666" y1="443.18945" x2="180.9729" y2="424.50244" fill="none" stroke="#515ba7" stroke-miterlimit="10" stroke-width="3"/><line x1="170.90771" y1="432.45117" x2="173.24243" y2="426.26611" fill="none" stroke="#515ba7" stroke-miterlimit="10" stroke-width="3"/><line x1="178.06128" y1="456.44629" x2="188.30859" y2="423.89111" fill="none" stroke="#515ba7" stroke-miterlimit="10" stroke-width="3"/><path d="M168.07153,437.4624c3.77441-3.78809,7.34009-7.55127,10.7688-10.05029,1.71606-1.25195,3.39966-2.19238,5.07178-2.6709,1.67041-.47168,3.37329-.61279,5.08008-.07666,2.85083.85352,4.59961,3.09424,5.95459,6.12207.07861-.2832.99805-3.59961,1.37915-4.9751-1.5647-2.21338-3.47559-3.90674-6.22095-4.72803-2.22827-.67188-4.37036-.60107-6.42969-.13574-2.07153.50293-4.11011,1.54834-6.1416,2.94141-2.03003,1.39014-4.05591,3.13867-6.07983,5.02588-2.00732,1.84473-4.02124,3.85107-6.05103,5.82764-3.79663,3.69727-7.6062,7.24561-11.44653,9.4668-3.82422,2.19678-7.63184,2.90381-11.39478,1.18848l-1.60522,3.38916c5.0354,2.31787,9.82007,1.61816,14.36914-.90625,4.53052-2.45459,8.74048-6.44482,12.74609-10.41846Z" fill="#e2a78a"/><path d="M116.17456,431.03076c-.7981,1.28467-1.46313,2.35498-1.97827,3.18457.03101.02002.1355.08789.1665.1084,2.31494,1.53418,4.79028,2.0918,7.19751,2.15674,2.41943.04639,4.82544-.49121,7.1958-1.42432,2.35815-.90869,4.73584-2.31445,7.05298-3.88916,2.31885-1.57666,4.5918-3.34863,6.81323-5.12207,2.07764-1.6582,4.09839-3.30859,6.05566-4.80127,1.95337-1.48389,3.84961-2.82373,5.71118-3.91992,3.70898-2.1543,7.13672-3.10254,10.37427-1.60498,3.29297,1.375,4.9519,4.49414,5.90137,8.67676.93262,4.2124,1.22119,9.27393,1.62036,14.57275.43018,5.65186.9939,11.48047,2.81494,16.30908,1.84717,4.71436,4.96069,8.51221,10.2688,10.06006l1.00171-3.61377c-3.96509-1.14355-6.33789-4.30322-7.81421-8.40674-.73511-2.06982-1.26416-4.33936-1.63867-6.8374-.37598-2.49365-.62769-5.12256-.85327-7.77783-.48242-5.67969-.83789-11.40527-2.12549-16.08545-1.24316-4.81641-3.3938-8.56201-7.67847-10.33545-4.19727-1.96387-8.44653-.8916-12.78247,1.40576-4.30298,2.25293-8.7439,5.90234-13.23926,9.42139-2.09619,1.63525-4.21631,3.27881-6.2771,4.6543-2.06274,1.37939-4.11133,2.57324-6.12939,3.43408-2.01782.86133-4.00562,1.38916-5.94019,1.44043-1.93652.05566-3.82397-.35889-5.55298-1.5-.00537-.00342-.15918-.10254-.16455-.10596Z" fill="#c7873a"/><path d="M133.23828,403.56104c.16943,1.16992.24634,2.43164.2561,3.76611.02271,1.31348-.01416,2.68799-.09863,4.125-.16699,2.87109-.50659,5.96338-.82446,9.12402-.55493,5.63428-1.05859,11.57129-.0293,16.52539.50073,2.50146,1.35181,4.81836,2.69995,6.82959.67383,1.00537,1.47144,1.93408,2.40918,2.77002.93799.83545,2.05396,1.49609,3.30518,2.08594l1.60522-3.38916c-.93774-.43262-1.75879-.96973-2.47437-1.59717-.71021-.63916-1.29639-1.40869-1.80078-2.23145-1.00391-1.65625-1.63696-3.61523-2.00708-5.78076-.72876-4.354-.46069-9.42969.04688-14.79541.36499-4.00879.7981-8.03027.87061-11.74951.08057-3.73438-.24438-7.08838-1.25146-10.04004-.80713,1.29932-1.71948,2.76758-2.70703,4.35742Z" fill="#e2a78a"/><line x1="113.32739" y1="430.91016" x2="133.60327" y2="399.23145" fill="none" stroke="#515ba7" stroke-miterlimit="10" stroke-width="3"/><line x1="94.5249" y1="405.91553" x2="112.84595" y2="383.62354" fill="none" stroke="#515ba7" stroke-miterlimit="10" stroke-width="3"/><line x1="83.63574" y1="407.20166" x2="108.22168" y2="378.79883" fill="none" stroke="#515ba7" stroke-miterlimit="10" stroke-width="3"/><line x1="77.46948" y1="402.5083" x2="100.48022" y2="377.52832" fill="none" stroke="#515ba7" stroke-miterlimit="10" stroke-width="3"/><line x1="73.47217" y1="395.87354" x2="86.87622" y2="381.43848" fill="none" stroke="#515ba7" stroke-miterlimit="10" stroke-width="3"/><line x1="61.23218" y1="386.09082" x2="82.12817" y2="367.00342" fill="none" stroke="#515ba7" stroke-miterlimit="10" stroke-width="3"/><line x1="71.75903" y1="386.55762" x2="76.83618" y2="381.69678" fill="none" stroke="#515ba7" stroke-miterlimit="10" stroke-width="3"/><line x1="110.24341" y1="409.96582" x2="121.52441" y2="393.83203" fill="none" stroke="#515ba7" stroke-miterlimit="10" stroke-width="3"/><line x1="109.64673" y1="398.54395" x2="113.66089" y2="393.29053" fill="none" stroke="#515ba7" stroke-miterlimit="10" stroke-width="3"/><line x1="109.61548" y1="423.66797" x2="128.67554" y2="395.35645" fill="none" stroke="#515ba7" stroke-miterlimit="10" stroke-width="3"/><path d="M105.49878,402.51611c4.68384-2.51318,9.09814-4.99805,13.14429-6.48877,4.03394-1.46631,7.52734-1.73926,10.46924.25586,2.49805,1.5918,3.57104,4.16943,3.99805,7.47559.15527-.25,1.97119-3.17334,2.72437-4.38525-.85498-2.58203-2.23682-4.67871-4.64038-6.20898-3.80493-2.61084-8.08618-2.41016-12.81152-.84912-4.62402,1.44434-9.63867,4.22803-14.69214,6.87305-2.36255,1.23682-4.71875,2.43555-7.02905,3.45508-2.28296.98584-4.50977,1.77832-6.65259,2.25439-2.14111.47461-4.19312.62549-6.10669.31641-1.9043-.31885-3.71631-1.04541-5.20557-2.49805l-2.52905,2.76855c.5083.47656,1.02515.90967,1.55762,1.29199.54761.36426,1.10498.68457,1.67017.96338,1.13086.55859,2.29419.95117,3.48096,1.19873,2.37378.49658,4.83984.41309,7.34058-.06689,5.04028-1.00635,10.29004-3.68799,15.28174-6.35596Z" fill="#e2a78a"/><path d="M57.68237,380.98047c-1.15015.98193-2.10864,1.7998-2.85132,2.43408.02417.02832.10596.12354.13013.15186,1.83789,2.10693,3.94312,3.49316,6.21143,4.30811,2.26099.82373,4.80933.95898,7.36377.77637,5.15869-.41113,10.57007-2.31543,15.8833-4.40771,4.98486-1.97119,9.73169-3.98584,13.85278-4.91699,2.07544-.48047,3.93408-.62598,5.70508-.46924,1.75781.17188,3.323.75684,4.67065,1.9126,1.35181,1.15039,2.15674,2.62695,2.61841,4.31934.48877,1.65918.59497,3.57861.45776,5.69385-.27246,4.22559-1.53052,9.25293-2.6875,14.47412-1.18848,5.51514-2.27393,11.21582-1.88574,16.36279.33911,5.20605,2.36597,9.5874,7.04004,12.59473l1.97876-3.18555c-3.48779-2.23975-4.94385-5.85205-5.1853-10.23389-.21118-4.43896.71606-9.56494,1.78174-14.75684.56958-2.77539,1.1748-5.55273,1.64893-8.23584.50195-2.71973.8894-5.36572.9751-7.81934.18237-4.93408-.8728-9.00879-4.30933-12.06738-1.74097-1.50879-3.72705-2.27246-5.83276-2.60352-2.07788-.3584-4.34619-.20801-6.75098.26074-4.80518.93604-10.18823,3.1792-15.45044,5.12744-4.95337,1.85547-9.86987,3.55811-14.2876,4.02246-2.22778.25098-4.25562.12109-6.09351-.44727-1.8396-.56592-3.48462-1.57617-4.85449-3.146-.00415-.00488-.12476-.14404-.12891-.14893Z" fill="#c7873a"/><path d="M82.27783,359.98438c-.72144,4.59229-3.31177,10.18799-5.83252,16.04541-2.20361,5.19336-4.33423,10.59521-4.90601,15.7373-.14307,1.28516-.18921,2.55371-.11572,3.79688.08081,1.23535.31836,2.40576.6792,3.56006.73022,2.29785,2.03394,4.45117,4.06494,6.36084l2.52905-2.76855c-3.02856-2.85547-3.78247-6.70557-3.23511-11.03809.61426-4.41113,2.47998-9.27979,4.49951-14.18066.76099-1.84375,1.52661-3.69824,2.27197-5.50439.7251-1.80908,1.4231-3.60938,2.04883-5.39404,1.22754-3.5498,2.03394-6.91406,1.89746-9.94531-1.16333.99316-2.47827,2.11572-3.90161,3.33057Z" fill="#e2a78a"/><line x1="54.95215" y1="380.02539" x2="83.90869" y2="356.01514" fill="none" stroke="#515ba7" stroke-miterlimit="10" stroke-width="3"/><line x1="44.80566" y1="350.22266" x2="69.2356" y2="334.87305" fill="none" stroke="#515ba7" stroke-miterlimit="10" stroke-width="3"/><line x1="33.98828" y1="347.97803" x2="66.36108" y2="328.91992" fill="none" stroke="#515ba7" stroke-miterlimit="10" stroke-width="3"/><line x1="29.61743" y1="341.49756" x2="59.46069" y2="325.28467" fill="none" stroke="#515ba7" stroke-miterlimit="10" stroke-width="3"/><line x1="28.0188" y1="333.84131" x2="45.40625" y2="324.56396" fill="none" stroke="#515ba7" stroke-miterlimit="10" stroke-width="3"/><line x1="19.58228" y1="320.48145" x2="45.63257" y2="309.44141" fill="none" stroke="#515ba7" stroke-miterlimit="10" stroke-width="3"/><line x1="29.38037" y1="324.45898" x2="35.77588" y2="321.54297" fill="none" stroke="#515ba7" stroke-miterlimit="10" stroke-width="3"/><line x1="58.43335" y1="359.06982" x2="74.16455" y2="347.22559" fill="none" stroke="#515ba7" stroke-miterlimit="10" stroke-width="3"/><line x1="61.41357" y1="348.0376" x2="66.87036" y2="344.30566" fill="none" stroke="#515ba7" stroke-miterlimit="10" stroke-width="3"/><line x1="53.68726" y1="371.88428" x2="80.52075" y2="350.79395" fill="none" stroke="#515ba7" stroke-miterlimit="10" stroke-width="3"/><path d="M56.20923,350.52588c5.2832-.9502,10.33618-1.99854,14.55811-2.11523,2.12134-.06494,3.99316.1333,5.66455.64795,1.68994.50195,3.10938,1.36963,4.20435,2.75439.91113,1.15234,1.40942,2.42676,1.60059,3.82861.18262,1.40723.15381,2.86572-.14087,4.49268.22363-.19092,2.84106-2.42529,3.92651-3.35205-.01733-1.34521-.25659-2.56885-.6145-3.80518-.36938-1.22754-.95923-2.38818-1.8335-3.49414-1.40137-1.80811-3.22437-2.90918-5.18604-3.65771-1.96265-.74658-4.21362-1.03418-6.6626-1.03906s-5.09521.27393-7.84058.67285c-2.72925.38867-5.49756.85742-8.30054,1.31006-5.22778.83643-10.3938,1.52295-14.8291,1.08838-4.3894-.45508-7.92676-2.13721-10.01294-5.77441l-3.28687,1.80518c2.79468,4.89404,7.10815,7.18359,12.30835,7.77637,5.14307.64209,10.86719-.16846,16.44507-1.13867Z" fill="#e2a78a"/><path d="M17.95557,314.42041c-1.41284.53906-2.59033.98828-3.50269,1.33643.01294.03564.05688.15479.06982.18994.4978,1.3208,1.12061,2.49365,1.84863,3.52979.7168,1.0415,1.64893,1.89795,2.60254,2.66113,1.93701,1.51465,4.20874,2.54395,6.68286,3.22607,4.89795,1.39062,10.82471,1.28271,16.50903,1.05078,5.3396-.22705,10.39526-.55469,14.61426-.13281,4.2688.4043,7.58838,1.5918,9.31836,4.64502,1.84595,2.98682,1.38843,6.4458-.26343,10.40186-.83081,1.97803-1.93286,4.05615-3.12085,6.18408-1.2063,2.14014-2.55737,4.36865-3.90576,6.65918-1.44189,2.44873-2.87158,4.95264-4.09814,7.479-1.22974,2.5293-2.26245,5.08691-2.81152,7.55957-.57104,2.48975-.74219,4.96191-.32959,7.36572.40918,2.40527,1.3855,4.75879,3.25732,6.83545l2.85205-2.43457c-.68457-.78467-1.21973-1.6167-1.62036-2.48779-.37793-.89111-.60864-1.83301-.7312-2.79736-.24121-1.93359-.01709-3.9873.53516-6.11621,1.10107-4.25684,3.49609-8.80273,6.19141-13.46094,2.84351-4.95264,5.8374-9.85205,7.48169-14.39453,1.73511-4.61328,2.19727-8.87256-.22119-12.72314-1.12134-1.98047-2.67651-3.35645-4.57324-4.32129-1.89722-.96387-4.15259-1.50586-6.51636-1.86084-4.79102-.6748-10.53491-.33838-16.2583-.16797-2.698.09033-5.28467.10205-7.77173-.02393-2.4856-.12646-4.85205-.39941-6.9978-.92725-2.14551-.52686-4.07104-1.30957-5.67065-2.44629-1.61377-1.13037-2.73999-2.68506-3.50073-4.64258-.00244-.00635-.06714-.18018-.06958-.18652Z" fill="#c7873a"/><path d="M48.16919,302.89209c-1.14209,2.04346-2.79736,4.16455-4.71558,6.36816-1.85132,2.17627-3.97095,4.43506-6.11011,6.77051-3.81274,4.17334-7.70679,8.62939-9.88403,13.30029-1.06348,2.3208-1.72949,4.71094-1.80713,7.15625-.05396,2.42969.36646,4.98291,1.80347,7.40088l3.28687-1.80518c-1.06641-1.80273-1.37744-3.73975-1.22314-5.68701.15161-1.94678.78564-3.91455,1.75732-5.88672.97168-1.97266,2.28027-3.94922,3.77905-5.92383,1.55127-2,3.28955-3.99561,5.0686-5.9834,5.39819-6.00879,10.86963-11.72852,12.8374-17.53906-1.42896.54541-3.04443,1.16162-4.79272,1.8291Z" fill="#e2a78a"/><line x1="15.73096" y1="312.57031" x2="51.07617" y2="299.70557" fill="none" stroke="#515ba7" stroke-miterlimit="10" stroke-width="3"/><line x1="16.28784" y1="280.94775" x2="44.52881" y2="275.05518" fill="none" stroke="#515ba7" stroke-miterlimit="10" stroke-width="3"/><line x1="6.92163" y1="275.03223" x2="43.91895" y2="268.52002" fill="none" stroke="#515ba7" stroke-miterlimit="10" stroke-width="3"/><line x1="5.16626" y1="267.38037" x2="38.80811" y2="262.7207" fill="none" stroke="#515ba7" stroke-miterlimit="10" stroke-width="3"/><line x1="6.30054" y1="259.63184" x2="25.85596" y2="257.10791" fill="none" stroke="#515ba7" stroke-miterlimit="10" stroke-width="3"/><line x1="3.22852" y1="244.10156" x2="31.50757" y2="243.06152" fill="none" stroke="#515ba7" stroke-miterlimit="10" stroke-width="3"/><line x1="10.91235" y1="251.31787" x2="17.92651" y2="250.86426" fill="none" stroke="#515ba7" stroke-miterlimit="10" stroke-width="3"/><line x1="26.02734" y1="293.99561" x2="44.85498" y2="288.25684" fill="none" stroke="#515ba7" stroke-miterlimit="10" stroke-width="3"/><line x1="32.68066" y1="284.64746" x2="39.09058" y2="283.02881" fill="none" stroke="#515ba7" stroke-miterlimit="10" stroke-width="3"/><line x1="17.21191" y1="304.45459" x2="49.61035" y2="293.72266" fill="none" stroke="#515ba7" stroke-miterlimit="10" stroke-width="3"/><path d="M26.95068,285.18164c5.25439.94336,10.32397,1.70166,14.28198,3.03857,4.0686,1.31299,7.08276,3.16455,8.12231,6.49707.40332,1.39893.52026,2.72803.26221,4.08936-.25317,1.35938-.84204,2.7373-1.66968,4.16504.2749-.10449,3.49023-1.33154,4.82349-1.84033.4397-1.26416.70093-2.50928.72876-3.76318.03101-1.25488-.20581-2.50684-.59058-3.84717-.67627-2.15869-1.90601-3.82129-3.55737-5.16064-.81714-.67139-1.77515-1.25146-2.75586-1.78467-.9729-.53516-2.03613-1.00586-3.17114-1.42773-4.54004-1.68506-10.22974-2.60156-15.86475-3.68213-5.18262-1.02979-10.20898-2.20166-14.18237-4.17676-1.98315-.9873-3.69604-2.17676-5.01416-3.64062-1.24829-1.4751-2.06787-3.23242-2.36597-5.31592l-3.71216.53271c.69995,5.63135,4.27222,9.25293,8.79639,11.66748,2.27466,1.21045,4.80713,2.12891,7.4856,2.86621,2.73047.72559,5.57422,1.27881,8.3833,1.78271Z" fill="#e2a78a"/><path d="M3.75098,237.85205H.00195c.00049.0376.00269.16455.00342.20215.16772,5.66211,2.90088,9.75928,7.08154,12.78662,4.24634,3.03564,9.71826,5.05225,15.0791,6.85107,4.96313,1.68994,9.98828,3.14502,13.78979,5.01855,1.90356.93701,3.51465,1.97754,4.7085,3.21143.60107.61621,1.07959,1.28418,1.47192,2.0083.41992.71924.7229,1.5.89404,2.35645.34253,1.7124.07935,3.33301-.63794,4.92285-.7146,1.58838-1.91333,3.15186-3.29248,4.69482-2.82129,3.09766-6.89258,6.23047-11.03564,9.61572-4.48315,3.63281-8.77441,7.44531-11.58521,11.77637-1.40454,2.16406-2.42773,4.4541-2.88037,6.88428-.39648,2.4082-.13525,4.92627.85107,7.57227l3.50342-1.33691c-.74048-1.96582-.85547-3.9043-.48413-5.79688.33521-1.88037,1.34375-3.7832,2.57861-5.60254,2.51978-3.65918,6.37402-7.1377,10.38452-10.55566,4.31592-3.66357,8.92139-7.25586,12.06348-10.93652.79053-.92188,1.49487-1.85156,2.08911-2.79443.58691-.94092,1.07275-1.89648,1.49365-2.88721.80371-1.97363,1.08301-4.02441.63916-6.23926-.20532-1.11084-.63208-2.10596-1.06543-3.03955-.44531-.93164-1.02783-1.7793-1.72754-2.56104-1.39941-1.5625-3.26782-2.86182-5.44263-4.01221-1.08179-.57617-2.26465-1.11084-3.45923-1.62598-1.18213-.5166-2.42236-1.00684-3.69971-1.48389-2.55469-.95361-5.25757-1.85254-7.94165-2.78906-2.51025-.87646-4.98926-1.78076-7.30615-2.78027-2.32715-.99902-4.47803-2.09473-6.24341-3.35498-3.5813-2.51221-5.96777-5.69531-6.07642-9.90576-.00024-.00684-.00439-.19238-.00439-.19873Z" fill="#c7873a"/><path d="M36.08936,237.85107c-3.48584,2.99756-9.01953,5.5708-14.73486,8.41846-2.53882,1.27344-5.18945,2.6084-7.51514,4.06787-2.35229,1.46094-4.54248,3.05566-6.38843,4.85742-1.84595,1.80078-3.34741,3.80957-4.323,6.08154-.9585,2.26855-1.21875,4.78418-.84253,7.58887l3.71216-.53271c-.29517-2.08447.01514-4.00342.79004-5.76953.77979-1.76758,2.15356-3.39697,3.76709-4.90088,3.26245-3.01318,7.7876-5.5542,12.45166-8,7.12183-3.6958,14.58813-7.09375,18.21265-11.81104h-5.12964Z" fill="#e2a78a"/><line x1="2.38574" y1="235.32861" x2="39.99097" y2="235.91357" fill="none" stroke="#515ba7" stroke-miterlimit="10" stroke-width="3"/><line x1="14.21411" y1="205.9751" x2="42.70044" y2="210.56348" fill="none" stroke="#515ba7" stroke-miterlimit="10" stroke-width="3"/><line x1="7.62231" y1="197.11377" x2="44.50415" y2="204.25098" fill="none" stroke="#515ba7" stroke-miterlimit="10" stroke-width="3"/><line x1="8.61938" y1="189.31934" x2="41.70557" y2="196.98682" fill="none" stroke="#515ba7" stroke-miterlimit="10" stroke-width="3"/><line x1="12.5144" y1="182.50439" x2="31.66675" y2="187.12695" fill="none" stroke="#515ba7" stroke-miterlimit="10" stroke-width="3"/><line x1="15.11255" y1="166.88379" x2="41.90649" y2="176.00391" fill="none" stroke="#515ba7" stroke-miterlimit="10" stroke-width="3"/><line x1="19.80566" y1="176.39551" x2="26.51978" y2="178.47559" fill="none" stroke="#515ba7" stroke-miterlimit="10" stroke-width="3"/><line x1="18.69727" y1="221.64893" x2="38.33911" y2="223.01123" fill="none" stroke="#515ba7" stroke-miterlimit="10" stroke-width="3"/><line x1="28.15698" y1="215.28369" x2="34.72217" y2="216.06152" fill="none" stroke="#515ba7" stroke-miterlimit="10" stroke-width="3"/><line x1="6.67749" y1="228.26855" x2="40.77271" y2="229.8042" fill="none" stroke="#515ba7" stroke-miterlimit="10" stroke-width="3"/><path d="M22.63696,213.73926c4.45825,2.74414,9.07666,5.27979,12.34668,7.9458,1.64697,1.33545,2.98584,2.70703,3.87451,4.17432.45557.73486.75049,1.49072,1.00269,2.28613.24951.79492.37109,1.62402.34766,2.49805-.07812,2.90576-1.73804,5.12549-4.35498,7.20312.29419,0,3.7356.00049,5.1626.00049,1.77637-2.04785,2.86523-4.26904,2.93945-7.05273.03979-1.13037-.13281-2.1958-.37793-3.2041-.22632-1.00732-.60522-1.96338-1.11304-2.88037-1.01562-1.83398-2.54736-3.51465-4.41138-5.11816-.93188-.80176-1.94727-1.58301-3.02295-2.35254-1.05249-.76611-2.1416-1.51758-3.28394-2.26562-2.27832-1.49463-4.71362-2.96875-7.12207-4.47607-2.25244-1.40967-4.46802-2.83984-6.50439-4.32764-2.03296-1.48682-3.91821-3.03662-5.35669-4.65674-2.93359-3.24414-4.55273-6.87891-3.72217-11.01172l-3.65723-.82861c-.55859,2.77393-.38257,5.32568.34766,7.65674.7561,2.33691,1.9519,4.43506,3.72876,6.39209,3.46411,3.90039,8.35034,7.07764,13.17676,10.01758Z" fill="#e2a78a"/><path d="M17.95264,161.28271c-1.41284-.53906-2.59033-.98828-3.50269-1.33643-.01343.03516-.05933.15332-.07275.18848-.98193,2.64795-1.25635,5.16064-.84058,7.57471.45312,2.4292,1.47681,4.71826,2.88208,6.88037,1.40503,2.1626,3.19092,4.2002,5.16455,6.14307,1.95337,1.9375,4.23804,3.82227,6.43433,5.62354,4.14429,3.38037,8.2168,6.50928,11.03857,9.604,1.3772,1.54053,2.59741,3.10742,3.30298,4.69287.71753,1.58887.98071,3.20898.63794,4.92188-.17114.85645-.47485,1.63721-.8938,2.35693-.37305.72754-.86572,1.39307-1.46265,2.01074-1.19409,1.23438-2.80542,2.27637-4.70947,3.21533-3.81128,1.87549-8.81519,3.3374-13.78076,5.03125-5.36157,1.80371-10.83374,3.8252-15.08008,6.86475-4.15991,3.03125-6.90771,7.13086-7.07031,12.79248h3.75c.1084-4.21045,2.49463-7.39502,6.07593-9.91064.89624-.63037,1.86304-1.2207,2.89575-1.77881,1.06104-.55664,2.17896-1.08154,3.3374-1.58203,2.31689-1.00195,4.7959-1.9082,7.30664-2.78662,2.68408-.93896,5.38745-1.84033,7.94238-2.79639,2.55078-.95654,4.94287-1.96924,7.14941-3.11719,2.17529-1.15234,4.04395-2.45361,5.4436-4.01709,1.40234-1.56396,2.2876-3.39746,2.78394-5.60352.44385-2.21436.16479-4.26465-.63892-6.2373-.20093-.49316-.43481-.98096-.69824-1.46484-.23901-.47803-.50854-.95215-.80566-1.42285-.59424-.94189-1.29883-1.87061-2.0896-2.79199-3.14697-3.67822-7.73926-7.26172-12.07617-10.92627-4.01196-3.41357-7.86743-6.88818-10.38843-10.54395-1.2395-1.81982-2.23535-3.7168-2.5896-5.60303-.37158-1.8916-.25708-3.82959.48364-5.7959.0022-.00586.06836-.17969.07056-.18555Z" fill="#c7873a"/><path d="M48.16675,172.81006c-2.19946.76855-4.83423,1.25293-7.72144,1.62305-1.43994.18604-2.95825.33789-4.48853.49023-1.51221.15283-3.06763.31006-4.63574.46875-5.625.57617-11.40527,1.33838-16.21362,3.3623-2.41895,1.00635-4.42163,2.37988-6.10962,4.16211-1.66211,1.78809-2.93872,4.00977-3.61401,6.75635l3.65723.82861c1.01758-4.08936,4.06445-6.66553,8.10938-8.32861,1.01709-.41553,2.08008-.78076,3.22534-1.09277,1.15698-.30811,2.3623-.57227,3.60205-.80469,2.47949-.46484,5.09619-.80078,7.7373-1.10303,3.97754-.45557,7.97534-.82959,11.59448-1.47949,3.677-.63232,7.05566-1.50928,9.6499-3.0542-1.42896-.54541-3.04443-1.16162-4.79272-1.82861Z" fill="#e2a78a"/><line x1="17.5061" y1="158.41309" x2="52.43896" y2="172.36279" fill="none" stroke="#515ba7" stroke-miterlimit="10" stroke-width="3"/><line x1="38.95532" y1="135.2334" x2="64.01099" y2="149.53613" fill="none" stroke="#515ba7" stroke-miterlimit="10" stroke-width="3"/><line x1="35.81592" y1="124.61865" x2="67.88281" y2="144.18701" fill="none" stroke="#515ba7" stroke-miterlimit="10" stroke-width="3"/><line x1="39.50586" y1="117.74365" x2="67.88159" y2="136.40625" fill="none" stroke="#515ba7" stroke-miterlimit="10" stroke-width="3"/><line x1="45.46411" y1="112.72217" x2="61.8645" y2="123.65625" fill="none" stroke="#515ba7" stroke-miterlimit="10" stroke-width="3"/><line x1="53.19189" y1="99.03564" x2="75.32104" y2="116.66846" fill="none" stroke="#515ba7" stroke-miterlimit="10" stroke-width="3"/><line x1="54.33838" y1="109.4834" x2="59.94043" y2="113.72852" fill="none" stroke="#515ba7" stroke-miterlimit="10" stroke-width="3"/><line x1="37.56348" y1="151.42529" x2="55.44873" y2="159.66895" fill="none" stroke="#515ba7" stroke-miterlimit="10" stroke-width="3"/><line x1="48.7395" y1="148.85596" x2="54.60669" y2="151.90332" fill="none" stroke="#515ba7" stroke-miterlimit="10" stroke-width="3"/><line x1="24.04834" y1="153.36621" x2="55.36646" y2="166.93066" fill="none" stroke="#515ba7" stroke-miterlimit="10" stroke-width="3"/><path d="M44.09351,145.44678c3.32007,4.20264,6.62134,8.1499,8.70898,11.79834.52173.9126.96753,1.80615,1.31812,2.68213.37036.88428.67041,1.76172.84521,2.61719.35522,1.71338.26074,3.35938-.44458,4.96387-.56836,1.34229-1.51855,2.35107-2.58423,3.20752-1.08325.84961-2.43018,1.48877-3.98877,2.00635.27466.10498,3.48999,1.33154,4.82324,1.84033,1.1604-.65381,2.17456-1.4126,3.01904-2.3335.83105-.92627,1.63379-1.96094,2.17871-3.24658.91333-2.07617,1.08594-4.14844.73022-6.2583-.31055-2.08789-1.07959-4.1792-2.23706-6.33447-1.14673-2.15039-2.63672-4.34326-4.27856-6.56934-.82104-1.11328-1.68018-2.23438-2.55396-3.36182-.84863-1.1123-1.70776-2.23779-2.56323-3.35889-3.19043-4.20654-6.21851-8.43213-7.90991-12.54248-.4231-1.02734-.7627-2.04736-1.00098-3.05664-.22754-1.00244-.31958-1.97266-.30908-2.93896.02905-1.92627.54102-3.79297,1.66895-5.55469l-3.14258-2.0459c-1.51489,2.36523-2.26074,4.78223-2.40967,7.19189-.10181,2.44189.4436,4.91064,1.35205,7.31836.91602,2.41309,2.229,4.78809,3.7439,7.11279.75757,1.16309,1.56445,2.3125,2.39941,3.4502.86084,1.15137,1.74707,2.28955,2.63477,3.4126Z" fill="#e2a78a"/><path d="M57.677,94.72119c-1.15039-.98193-2.10889-1.7998-2.85156-2.43408-.02466.02783-.10815.12207-.13281.1499-1.87305,2.07568-2.83472,4.44189-3.24927,6.84082-.41211,2.40332-.23999,4.87451.33228,7.36279.54834,2.4707,1.5979,5.03857,2.82227,7.56104,1.22778,2.5249,2.65894,5.02686,4.10205,7.47412,5.31445,9.13916,11.02856,17.33936,7.31421,23.24121-1.73022,3.05273-5.05103,4.24219-9.32104,4.64893-4.20337.43311-9.27368.10303-14.61133-.11865-5.69409-.23096-11.60425-.32617-16.50562,1.06738-4.90527,1.37646-9.22168,4.0918-11.12598,9.42627l3.50366,1.33691c.75659-1.95947,1.896-3.50928,3.4917-4.64795,1.59985-1.1377,3.52563-1.92139,5.67188-2.4502,4.31421-1.04883,9.41919-1.11865,14.76538-.96582,5.72534.1665,11.47144.49854,16.26416-.1792,1.20776-.16504,2.31641-.41406,3.42334-.70996,1.10474-.29688,2.13818-.67578,3.08667-1.15869,1.89746-.96582,3.45312-2.3418,4.57446-4.32227,2.39893-3.86182,1.95923-8.10498.20288-12.72754-1.646-4.54004-4.64233-9.43506-7.48853-14.38477-1.32104-2.30615-2.64502-4.64355-3.70776-6.88428-1.06445-2.2417-1.94482-4.44531-2.4978-6.57373-.55298-2.12793-.77808-4.18066-.53711-6.11328.12012-.96631.35693-1.90234.72583-2.80078.39575-.87549.93433-1.7041,1.61792-2.49023.00415-.00488.12573-.14307.13013-.14795Z" fill="#c7873a"/><path d="M82.27319,115.71631c-4.76123-.08545-10.53442-1.63916-16.7168-3.20654-2.75903-.69531-5.56763-1.36426-8.34033-1.83252-2.79272-.48389-5.47949-.71191-8.02759-.55371-2.55493.15186-4.98145.68311-7.17896,1.75537-1.0979.53662-2.14087,1.20605-3.10718,2.03174-.92334.85645-1.77197,1.86816-2.5293,3.05029l3.14258,2.0459c2.20117-3.56836,6.0459-4.83447,10.43091-4.98096,4.42993-.12158,9.4104.854,14.65088,2.1377,3.91504.94238,7.8269,1.96094,11.48608,2.58691,3.65942.62451,7.03687.83887,10.09131.2959-1.16333-.99268-2.47827-2.11523-3.90161-3.33008Z" fill="#e2a78a"/><line x1="58.23218" y1="91.90967" x2="86.48706" y2="116.73584" fill="none" stroke="#515ba7" stroke-miterlimit="10" stroke-width="3"/><line x1="85.9082" y1="77.13525" x2="105.0354" y2="98.73096" fill="none" stroke="#515ba7" stroke-miterlimit="10" stroke-width="3"/><line x1="86.34546" y1="66.17139" x2="110.52539" y2="94.9209" fill="none" stroke="#515ba7" stroke-miterlimit="10" stroke-width="3"/><line x1="91.9563" y1="60.83887" x2="113.01416" y2="87.48584" fill="none" stroke="#515ba7" stroke-miterlimit="10" stroke-width="3"/><line x1="99.10425" y1="57.91553" x2="111.27686" y2="73.41748" fill="none" stroke="#515ba7" stroke-miterlimit="10" stroke-width="3"/><line x1="110.62036" y1="47.39551" x2="126.30298" y2="70.95361" fill="none" stroke="#515ba7" stroke-miterlimit="10" stroke-width="3"/><line x1="108.56372" y1="57.69727" x2="112.58252" y2="63.46387" fill="none" stroke="#515ba7" stroke-miterlimit="10" stroke-width="3"/><line x1="79.43042" y1="92.02783" x2="93.61694" y2="105.67529" fill="none" stroke="#515ba7" stroke-miterlimit="10" stroke-width="3"/><line x1="90.81689" y1="93.23047" x2="95.3772" y2="98.01709" fill="none" stroke="#515ba7" stroke-miterlimit="10" stroke-width="3"/><line x1="65.99414" y1="89.32227" x2="91.04688" y2="112.49951" fill="none" stroke="#515ba7" stroke-miterlimit="10" stroke-width="3"/><path d="M87.54004,88.50928c.87573,2.51123,1.7644,4.96338,2.52661,7.30273.7561,2.33252,1.39478,4.56055,1.82324,6.67529.82324,4.2041.60791,7.73047-1.84692,10.27539-1.92993,2.21777-4.62305,2.87842-7.94604,2.79736.22363.19092,2.84106,2.42529,3.92651,3.35156,2.66797-.44678,4.93042-1.4834,6.78296-3.61426,3.2002-3.28271,3.55469-7.61963,2.80786-12.45947-.71387-4.79395-2.68921-10.19092-4.51489-15.604-1.73779-5.0957-3.19678-10.00098-3.47217-14.39502-.1355-2.19385.03418-4.24902.63623-6.09521.30322-.92041.70435-1.80029,1.24609-2.5957.55591-.77686,1.23584-1.48975,2.05322-2.12744l-2.33716-2.93262c-1.0874.86621-2.0332,1.76074-2.75244,2.80176-.72583,1.03271-1.29346,2.12354-1.72217,3.25977-.85767,2.27344-1.15845,4.72754-1.07324,7.27832.04492,1.27832.17627,2.56982.39893,3.896.23389,1.33936.54053,2.69238.89746,4.05029.71411,2.71582,1.62988,5.4502,2.56592,8.13525Z" fill="#e2a78a"/><path d="M116.16748,44.66895c-.7981-1.28467-1.46289-2.35498-1.97827-3.18457-.03125.01953-.13696.08594-.16846.10547-4.67822,3.00098-6.69336,7.39697-7.03125,12.59961-.3855,5.146.70312,10.84424,1.89502,16.35693,1.17017,5.23242,2.42358,10.24805,2.7002,14.47461.13818,2.11475.03296,4.0332-.45532,5.69189-.44971,1.70508-1.2627,3.17188-2.61206,4.3252-1.34766,1.15576-2.91309,1.74072-4.67163,1.91309-1.75952.16992-3.62793.01611-5.70142-.46045-4.12329-.93018-8.8728-2.94189-13.86035-4.91016-5.30371-2.07715-10.72729-3.9873-15.88525-4.39307-1.28638-.09863-2.55273-.10107-3.79004.01562-1.24341.11035-2.44629.3501-3.56934.77002-2.26904.81543-4.37427,2.20215-6.21191,4.30908l2.85229,2.43457c1.36963-1.56982,3.01465-2.58008,4.85474-3.14648,1.84424-.56396,3.85889-.70801,6.08887-.45654,4.41968.4624,9.33862,2.1626,14.29492,4.01514,5.26636,1.94678,10.63916,4.17334,15.45239,5.11328,2.40601.46777,4.67529.61719,6.75391.2583,2.09448-.34424,4.08984-1.09912,5.82812-2.61084,3.43799-3.05664,4.47974-7.14404,4.30029-12.06982-.08862-2.45508-.47217-5.09277-.98315-7.82129-.47852-2.68604-1.08301-5.45898-1.65479-8.23438-1.06885-5.18945-1.99902-10.31348-1.79004-14.75098.22998-4.39551,1.69141-7.99609,5.17725-10.23926.00537-.00391.15991-.10156.16528-.10498Z" fill="#c7873a"/><path d="M133.23242,72.13818c-4.44946-1.39697-9.57422-4.77148-14.99048-8.18359-4.80957-2.99707-9.79639-5.91162-14.77417-7.27686-1.24316-.33984-2.48438-.58154-3.71826-.70166-.61694-.06006-1.23267-.09033-1.84473-.08594-.60059.021-1.198.07617-1.79199.16748-2.37524.36523-4.69482,1.31934-6.88721,3.03027l2.33716,2.93262c3.28882-2.53467,7.15723-2.73633,11.39648-1.44971,4.2478,1.28857,8.7605,3.88135,13.28833,6.62646,6.78174,4.06934,13.64966,8.70117,19.69165,9.29834-.80713-1.29932-1.71948-2.76807-2.70679-4.35742Z" fill="#e2a78a"/><line x1="117.50537" y1="42.11914" x2="136.92261" y2="74.33643" fill="none" stroke="#515ba7" stroke-miterlimit="10" stroke-width="3"/><line x1="148.24316" y1="36.42188" x2="160.21289" y2="62.67236" fill="none" stroke="#515ba7" stroke-miterlimit="10" stroke-width="3"/><line x1="151.79614" y1="25.99951" x2="166.57837" y2="60.53467" fill="none" stroke="#515ba7" stroke-miterlimit="10" stroke-width="3"/><line x1="158.68408" y1="22.55762" x2="171.15942" y2="54.146" fill="none" stroke="#515ba7" stroke-miterlimit="10" stroke-width="3"/><line x1="166.35547" y1="21.88037" x2="173.57788" y2="40.22266" fill="none" stroke="#515ba7" stroke-miterlimit="10" stroke-width="3"/><line x1="180.31421" y1="15.05957" x2="188.69092" y2="42.08838" fill="none" stroke="#515ba7" stroke-miterlimit="10" stroke-width="3"/><line x1="175.42554" y1="24.28613" x2="177.63623" y2="30.9585" fill="none" stroke="#515ba7" stroke-miterlimit="10" stroke-width="3"/><line x1="137.66406" y1="48.66895" x2="147.15112" y2="65.92432" fill="none" stroke="#515ba7" stroke-miterlimit="10" stroke-width="3"/><line x1="148.17773" y1="53.1748" x2="151.12231" y2="59.09424" fill="none" stroke="#515ba7" stroke-miterlimit="10" stroke-width="3"/><line x1="125.69946" y1="42.10645" x2="142.6438" y2="71.73291" fill="none" stroke="#515ba7" stroke-miterlimit="10" stroke-width="3"/><path d="M146.43164,47.68066c.21289,5.35449.53589,10.50342.03662,14.70801-.24438,2.11279-.71899,3.94678-1.48022,5.53418-.75269,1.604-1.83179,2.88965-3.37646,3.77979-2.5647,1.48682-5.40405,1.22412-8.5.23291.15527.25,1.97119,3.17334,2.72437,4.38574,2.63501.28467,5.18311.06104,7.6499-1.37061,2.01709-1.13965,3.3938-2.78613,4.43457-4.63672,1.04004-1.84961,1.6604-4.0459,2.02222-6.47412.7229-4.85352.39453-10.67285.28662-16.28662-.12134-5.28906-.12329-10.48682.86963-14.80225.24805-1.07861.55786-2.10254.94287-3.05811.39526-.93018.8689-1.78467,1.42896-2.56006,1.12012-1.54883,2.59351-2.76758,4.5061-3.54395l-1.39062-3.48242c-2.5625,1.04004-4.53198,2.56738-6.02124,4.4375-1.47705,1.90234-2.44385,4.22363-3.09375,6.70117-1.28467,4.99463-1.25757,10.73145-1.03955,16.43555Z" fill="#e2a78a"/><path d="M186.36768,13.97314c-.40405-1.45703-.74072-2.67139-1.00146-3.61279-.03564.00928-.15601.03906-.19189.04785-5.30396,1.56396-8.4187,5.3501-10.26245,10.06738-1.81323,4.84375-2.3772,10.65967-2.80273,16.31396-.39844,5.29053-.67749,10.36719-1.60864,14.57715-.94556,4.18506-2.6084,7.29248-5.89429,8.68262-3.23755,1.49707-6.66699.5498-10.37817-1.60352-1.86328-1.09766-3.75317-2.4209-5.71118-3.91064-1.95898-1.49219-3.98096-3.1416-6.0603-4.79932-2.22339-1.77246-4.4978-3.54346-6.81812-5.11914-2.32251-1.58008-4.69312-2.96924-7.05347-3.87891-2.37158-.93262-4.77856-1.46973-7.19849-1.42285-2.41162.05908-4.87817.63232-7.19385,2.16553l1.97876,3.18506c.87549-.55127,1.76221-.9707,2.69238-1.20996.93579-.22949,1.88965-.32324,2.85693-.29785,1.93481.05078,3.92358.57812,5.94238,1.43848,4.03809,1.71875,8.18457,4.75,12.41064,8.07617,4.49878,3.51758,8.94312,7.16504,13.24902,9.41699,4.33081,2.28125,8.5874,3.36377,12.78296,1.39697,4.27783-1.78906,6.43213-5.52246,7.67114-10.34082,1.27881-4.69482,1.63525-10.40771,2.11279-16.08936.44727-5.31006.9917-10.54492,2.48047-14.62109,1.47314-4.10596,3.84766-7.25439,7.80859-8.41406.0061-.00146.18262-.0459.18896-.04785Z" fill="#c7873a"/><path d="M195.00684,45.13623c-3.89038-2.60449-7.83716-7.21924-12.0564-12.00391-1.88794-2.13867-3.8252-4.28467-5.84033-6.24854-2.00513-1.93213-4.07422-3.63721-6.25146-4.98438-2.17505-1.3418-4.45215-2.30273-6.84253-2.69287-1.19067-.18359-2.42725-.27393-3.6582-.10938-1.23267.16016-2.49097.48926-3.77173,1.00928l1.39062,3.48242c1.91943-.75781,3.79712-.96924,5.69971-.55225,1.89648.39893,3.76367,1.27441,5.60352,2.48242,3.68359,2.42236,7.24707,6.14209,10.80835,10.06641,5.40186,6.00928,10.63086,12.20996,16.28906,14.49414-.40869-1.47363-.87061-3.14014-1.37061-4.94336Z" fill="#e2a78a"/><line x1="188.37793" y1="11.98047" x2="197.95752" y2="48.35107" fill="none" stroke="#515ba7" stroke-miterlimit="10" stroke-width="3"/><line x1="219.38916" y1="15.02734" x2="223.67432" y2="43.55957" fill="none" stroke="#515ba7" stroke-miterlimit="10" stroke-width="3"/><line x1="225.64795" y1="6.00537" x2="230.41284" y2="43.26807" fill="none" stroke="#515ba7" stroke-miterlimit="10" stroke-width="3"/><line x1="233.18457" y1="4.54785" x2="236.58496" y2="38.34033" fill="none" stroke="#515ba7" stroke-miterlimit="10" stroke-width="3"/><line x1="240.72827" y1="5.99854" x2="242.70947" y2="25.61035" fill="none" stroke="#515ba7" stroke-miterlimit="10" stroke-width="3"/><line x1="255.95776" y1="3.19385" x2="256.77759" y2="31.47949" fill="none" stroke="#515ba7" stroke-miterlimit="10" stroke-width="3"/><line x1="248.78906" y1="10.7583" x2="249.1189" y2="17.7793" fill="none" stroke="#515ba7" stroke-miterlimit="10" stroke-width="3"/><line x1="205.86108" y1="23.89111" x2="210.17651" y2="43.10156" fill="none" stroke="#515ba7" stroke-miterlimit="10" stroke-width="3"/><line x1="214.70264" y1="31.08252" x2="215.89502" y2="37.58545" fill="none" stroke="#515ba7" stroke-miterlimit="10" stroke-width="3"/><line x1="196.20605" y1="14.20557" x2="204.19141" y2="47.3877" fill="none" stroke="#515ba7" stroke-miterlimit="10" stroke-width="3"/><path d="M214.55005,25.35254c-1.28906,5.12793-2.39258,10.24902-4.0459,14.15234-1.64624,3.9585-3.8479,6.62305-7.29688,7.57617-2.88452.73877-5.52612-.23291-8.25903-2.17285.07861.28369.9978,3.59961,1.37915,4.9751,2.49341,1.13379,4.99243,1.55225,7.77075.84033,1.12988-.28271,2.13867-.73828,3.06592-1.26904.93188-.51172,1.76855-1.15381,2.52783-1.90771,1.51782-1.50684,2.72729-3.46045,3.75024-5.70703,2.0354-4.53955,3.36353-10.05713,4.79639-15.5459,1.3396-5.13232,2.76221-10.14258,4.89258-14.0332,2.13232-3.83496,5.00488-6.43164,9.09595-6.90967l-.38892-3.72998c-5.479.63965-9.19116,3.68896-11.77246,8.20898-2.59888,4.44824-4.1377,10.04443-5.51562,15.52246Z" fill="#e2a78a"/><path d="M262.06006,3.75049V.00146c-.03662.00049-.16016.00195-.19678.00244-5.50684.11621-9.50537,2.89648-12.54321,6.95068-3.04272,4.16748-5.15308,9.62354-7.09424,14.95361-1.81372,5.01953-3.4707,9.7627-5.51709,13.57666-2.0564,3.76611-4.5083,6.35596-8.06958,6.75732-3.54492.5083-6.58252-1.27783-9.56104-4.36719-1.48535-1.53516-2.95068-3.39355-4.427-5.39648-1.46948-1.9668-2.95459-4.10303-4.49072-6.26367-3.28394-4.61963-6.76221-9.29102-10.81152-12.51318-4.0249-3.15186-8.62207-4.70557-13.97827-3.34375l1.00171,3.61328c3.99609-1.02588,7.64185.41162,11.02051,3.16943.84595.68945,1.67627,1.46094,2.49463,2.2959.82373.86035,1.63574,1.78564,2.43848,2.75488,1.60547,1.93896,3.1748,4.05811,4.73633,6.21338,3.34277,4.625,6.59106,9.2876,10.12598,12.69238,3.55811,3.479,7.34424,5.54395,11.95117,4.86182,4.63306-.51025,7.72974-3.60645,10.24658-7.85596,2.51733-4.15869,4.4104-9.58154,6.40674-14.9209,1.86572-4.99805,3.79907-9.8833,6.32324-13.40869,2.51733-3.56592,5.63696-5.93164,9.74976-6.01953.00635,0,.18799-.00342.19434-.00342Z" fill="#c7873a"/><path d="M262.06055,36.08887c-3.06226-3.50293-5.6333-9.04834-8.41089-14.78027-1.24341-2.56787-2.53052-5.15625-3.93994-7.59033-1.4082-2.41064-2.93677-4.60254-4.66455-6.48828-1.72681-1.87793-3.65234-3.41699-5.83911-4.4375-1.09326-.51025-2.25146-.89062-3.47974-1.11914-1.22583-.19189-2.51978-.20459-3.88818-.05225l.38892,3.72998c4.08789-.53076,7.45044,1.64844,10.32642,4.93945,2.88379,3.32764,5.30664,7.8623,7.67969,12.61035,3.58301,7.22998,6.96436,14.64697,11.82739,18.31787v-5.12988Z" fill="#e2a78a"/><line x1="264.52173" y1="2.37256" x2="264.05176" y2="39.97949" fill="none" stroke="#515ba7" stroke-miterlimit="10" stroke-width="3"/><line x1="293.56909" y1="13.53271" x2="290.17603" y2="42.18359" fill="none" stroke="#515ba7" stroke-miterlimit="10" stroke-width="3"/><line x1="301.98877" y1="6.44824" x2="296.75977" y2="43.64893" fill="none" stroke="#515ba7" stroke-miterlimit="10" stroke-width="3"/><line x1="309.64062" y1="7.07373" x2="304.00244" y2="40.56543" fill="none" stroke="#515ba7" stroke-miterlimit="10" stroke-width="3"/><line x1="316.54712" y1="10.43555" x2="313.27246" y2="29.87646" fill="none" stroke="#515ba7" stroke-miterlimit="10" stroke-width="3"/><line x1="332.0061" y1="11.7876" x2="325.2666" y2="39.27148" fill="none" stroke="#515ba7" stroke-miterlimit="10" stroke-width="3"/><line x1="323.06323" y1="17.19775" x2="321.52026" y2="24.05518" fill="none" stroke="#515ba7" stroke-miterlimit="10" stroke-width="3"/><line x1="278.18726" y1="18.49756" x2="277.26221" y2="38.1665" fill="none" stroke="#515ba7" stroke-miterlimit="10" stroke-width="3"/><line x1="284.81079" y1="27.80273" x2="284.2439" y2="34.38965" fill="none" stroke="#515ba7" stroke-miterlimit="10" stroke-width="3"/><line x1="271.45483" y1="6.62207" x2="270.33765" y2="40.7334" fill="none" stroke="#515ba7" stroke-miterlimit="10" stroke-width="3"/><path d="M286.17993,22.20068c-2.604,4.6875-5.01685,9.25537-7.64819,12.58984-1.31641,1.66748-2.6875,3.02588-4.17358,3.93604-1.48682.91357-3.09497,1.50098-4.89038,1.4458-2.9873-.06641-5.28247-1.71436-7.40283-4.31885v5.1626c2.10718,1.76367,4.41406,2.84082,7.29321,2.90479,4.67383.01807,8.21802-2.2749,11.39185-6.08789,1.58203-1.8877,3.05957-4.1084,4.49731-6.48242,1.43774-2.37402,2.82617-4.80762,4.2417-7.271,5.2605-9.14209,10.85059-17.90332,19.01636-16.48975l.60913-3.7002c-2.72144-.43799-5.18848-.15186-7.42407.67578-2.24414.88818-4.26294,2.35352-6.09961,4.14111-3.67725,3.59717-6.63306,8.5415-9.41089,13.49414Z" fill="#e2a78a"/><path d="M337.75269,13.97119c.40405-1.45752.74072-2.67188,1.00146-3.61279-.0354-.00928-.15527-.04102-.19092-.05078-5.35742-1.35791-9.95044.18506-13.97607,3.354-4.04688,3.22266-7.52148,7.89502-10.802,12.51562-1.53467,2.16162-3.01758,4.2959-4.48608,6.26562-1.47754,2.01709-2.9397,3.86572-4.42432,5.40381-2.97681,3.09375-6.01123,4.86768-9.55884,4.37598-3.56104-.40186-6.0144-2.9917-8.073-6.75781-.51343-.94141-1.00098-1.95654-1.47192-3.02832-.47339-1.04688-.93018-2.1499-1.37915-3.29541-.89819-2.2915-1.76587-4.75-2.67554-7.24561-1.94482-5.32617-4.05835-10.79492-7.10425-14.94531-3.04028-4.05469-7.04053-6.83447-12.54712-6.9502v3.75c4.11279.0874,7.23364,2.45264,9.75342,6.01904,1.26147,1.79346,2.37964,3.84326,3.41284,6.13867,1.03296,2.30029,1.98438,4.76465,2.91919,7.26172,1.99976,5.33984,3.89648,10.7627,6.4165,14.92188,2.521,4.23291,5.61841,7.3418,10.25171,7.84814,4.60962.66602,8.39209-1.38672,11.948-4.87012,3.5354-3.42139,6.77759-8.07275,10.11768-12.70215,1.55981-2.15576,3.12769-4.27539,4.73169-6.21436,1.6062-1.94971,3.24463-3.70068,4.93091-5.06006,3.37646-2.7583,7.02075-4.19678,11.01733-3.17041.0061.00146.18237.04736.18848.04883Z" fill="#c7873a"/><path d="M329.11426,45.13477c-2.00562-4.19922-3.00073-10.23584-4.15283-16.50928-1.02051-5.66309-2.23413-11.2915-4.57471-15.83838-2.3335-4.53564-5.80884-8.09863-11.27222-8.89746l-.60913,3.7002c2.03174.33057,3.73291,1.17383,5.15649,2.44629,1.41528,1.32471,2.56006,3.04199,3.51123,5.02979,1.90332,3.97559,3.03101,9.03223,4.06787,14.20459,1.5481,7.87354,2.81445,15.97754,6.50317,20.80762.40845-1.47412.87036-3.14014,1.37012-4.94336Z" fill="#e2a78a"/><line x1="340.50732" y1="13.28223" x2="329.99243" y2="49.39258" fill="none" stroke="#515ba7" stroke-miterlimit="10" stroke-width="3"/><line x1="365.53418" y1="31.90918" x2="354.44824" y2="58.54639" fill="none" stroke="#515ba7" stroke-miterlimit="10" stroke-width="3"/><line x1="375.57861" y1="27.43311" x2="360.34277" y2="61.771" fill="none" stroke="#515ba7" stroke-miterlimit="10" stroke-width="3"/><line x1="382.8064" y1="30.10938" x2="368.15063" y2="60.74756" fill="none" stroke="#515ba7" stroke-miterlimit="10" stroke-width="3"/><line x1="388.52246" y1="35.29346" x2="379.98853" y2="53.06055" fill="none" stroke="#515ba7" stroke-miterlimit="10" stroke-width="3"/><line x1="403.0542" y1="40.9043" x2="388.88257" y2="65.39551" fill="none" stroke="#515ba7" stroke-miterlimit="10" stroke-width="3"/><line x1="392.93262" y1="43.58838" x2="389.53931" y2="49.74414" fill="none" stroke="#515ba7" stroke-miterlimit="10" stroke-width="3"/><line x1="349.36157" y1="32.50586" x2="343.15552" y2="51.19287" fill="none" stroke="#515ba7" stroke-miterlimit="10" stroke-width="3"/><line x1="353.2207" y1="43.24414" x2="350.88574" y2="49.4292" fill="none" stroke="#515ba7" stroke-miterlimit="10" stroke-width="3"/><line x1="346.06714" y1="19.24902" x2="335.81958" y2="51.8042" fill="none" stroke="#515ba7" stroke-miterlimit="10" stroke-width="3"/><path d="M356.05664,38.23291c-3.77417,3.78809-7.33984,7.55127-10.7688,10.05029-1.71582,1.25195-3.39966,2.19238-5.07153,2.6709-1.67065.47168-3.37354.61279-5.08032.07666-2.85059-.85352-4.59937-3.09424-5.95435-6.12207-.07861.2832-.99805,3.59961-1.37915,4.9751,1.56445,2.21338,3.47534,3.90674,6.22095,4.72803,2.22827.67188,4.37036.60107,6.42969.13574,2.07153-.50293,4.11011-1.54834,6.1416-2.94141,2.03003-1.39014,4.05591-3.13867,6.07983-5.02588,2.00732-1.84473,4.02124-3.85107,6.05103-5.82764,3.79663-3.69727,7.6062-7.24561,11.44653-9.4668,3.82397-2.19678,7.63184-2.90381,11.39478-1.18848l1.60522-3.38916c-5.0354-2.31787-9.82031-1.61816-14.36938.90625-4.53027,2.45459-8.74048,6.44482-12.74609,10.41846Z" fill="#e2a78a"/><path d="M407.95386,44.66455c.7981-1.28467,1.46289-2.35498,1.97827-3.18457-.03101-.02002-.1355-.08789-.1665-.1084-2.31519-1.53418-4.79028-2.0918-7.19775-2.15674-2.41919-.04639-4.8252.49121-7.19556,1.42432-2.35815.90869-4.73584,2.31445-7.05322,3.88916-2.31885,1.57666-4.59155,3.34863-6.81299,5.12207-2.07788,1.6582-4.09839,3.30859-6.05591,4.80127-1.95312,1.48389-3.84961,2.82373-5.71094,3.91992-3.70898,2.1543-7.13696,3.10254-10.37451,1.60498-3.29272-1.375-4.95166-4.49414-5.90137-8.67676-.93262-4.2124-1.22119-9.27393-1.62012-14.57275-.43018-5.65186-.9939-11.48047-2.81494-16.30908-1.84741-4.71436-4.96094-8.51221-10.2688-10.06006l-1.00195,3.61377c3.96509,1.14355,6.33789,4.30322,7.81445,8.40674.73486,2.06982,1.26416,4.33936,1.63843,6.8374.37622,2.49365.62793,5.12256.85327,7.77783.48242,5.67969.83789,11.40527,2.12549,16.08545,1.24341,4.81641,3.39404,8.56201,7.67871,10.33545,4.19727,1.96387,8.44653.8916,12.78223-1.40576,4.30322-2.25293,8.74414-5.90234,13.2395-9.42139,2.09595-1.63525,4.21606-3.27881,6.27686-4.6543,2.06299-1.37939,4.11157-2.57324,6.12964-3.43408,2.01782-.86133,4.00562-1.38916,5.93994-1.44043,1.93652-.05566,3.82397.35889,5.55298,1.5.00562.00342.15942.10254.16479.10596Z" fill="#c7873a"/><path d="M390.88989,72.13428c-.16919-1.16992-.24609-2.43164-.25586-3.76611-.02271-1.31348.01392-2.68799.09863-4.125.16699-2.87109.50635-5.96338.82422-9.12402.55518-5.63428,1.05884-11.57129.0293-16.52539-.50073-2.50146-1.35156-4.81836-2.69971-6.82959-.67383-1.00537-1.47168-1.93408-2.40942-2.77002-.93774-.83545-2.05371-1.49609-3.30493-2.08594l-1.60522,3.38916c.9375.43262,1.75879.96973,2.47412,1.59717.71045.63916,1.29639,1.40869,1.80078,2.23145,1.00391,1.65625,1.63721,3.61523,2.00732,5.78076.72876,4.354.46045,9.42969-.04712,14.79541-.36475,4.00879-.79785,8.03027-.87061,11.74951-.08057,3.73438.24463,7.08838,1.25171,10.04004.80713-1.29932,1.71948-2.76758,2.70679-4.35742Z" fill="#e2a78a"/><line x1="410.80103" y1="44.78516" x2="390.52515" y2="76.46387" fill="none" stroke="#515ba7" stroke-miterlimit="10" stroke-width="3"/><line x1="429.60327" y1="69.77979" x2="411.28247" y2="92.07178" fill="none" stroke="#515ba7" stroke-miterlimit="10" stroke-width="3"/><line x1="440.49243" y1="68.49365" x2="415.90649" y2="96.89648" fill="none" stroke="#515ba7" stroke-miterlimit="10" stroke-width="3"/><line x1="446.65894" y1="73.18701" x2="423.64819" y2="98.16699" fill="none" stroke="#515ba7" stroke-miterlimit="10" stroke-width="3"/><line x1="450.65625" y1="79.82178" x2="437.2522" y2="94.25684" fill="none" stroke="#515ba7" stroke-miterlimit="10" stroke-width="3"/><line x1="462.89624" y1="89.60449" x2="442.00024" y2="108.69189" fill="none" stroke="#515ba7" stroke-miterlimit="10" stroke-width="3"/><line x1="452.36938" y1="89.1377" x2="447.29224" y2="93.99854" fill="none" stroke="#515ba7" stroke-miterlimit="10" stroke-width="3"/><line x1="413.88477" y1="65.72949" x2="402.60376" y2="81.86328" fill="none" stroke="#515ba7" stroke-miterlimit="10" stroke-width="3"/><line x1="414.48145" y1="77.15137" x2="410.46729" y2="82.40479" fill="none" stroke="#515ba7" stroke-miterlimit="10" stroke-width="3"/><line x1="414.51294" y1="52.02734" x2="395.45264" y2="80.33887" fill="none" stroke="#515ba7" stroke-miterlimit="10" stroke-width="3"/><path d="M418.62964,73.1792c-4.68408,2.51318-9.09814,4.99805-13.14429,6.48877-4.03394,1.46631-7.52759,1.73926-10.46924-.25586-2.49805-1.5918-3.57129-4.16943-3.99829-7.47559-.15503.25-1.97119,3.17334-2.72412,4.38525.85474,2.58203,2.23657,4.67871,4.64038,6.20898,3.80493,2.61084,8.08594,2.41016,12.81152.84912,4.62378-1.44434,9.63867-4.22803,14.69189-6.87305,2.36279-1.23682,4.71899-2.43555,7.0293-3.45508,2.28271-.98584,4.50977-1.77832,6.65234-2.25439,2.14111-.47461,4.19336-.62549,6.10693-.31641,1.9043.31885,3.71631,1.04541,5.20557,2.49805l2.52905-2.76855c-.5083-.47656-1.02515-.90967-1.55786-1.29199-.54761-.36426-1.10474-.68457-1.67017-.96338-1.13062-.55859-2.29395-.95117-3.48071-1.19873-2.37378-.49658-4.83984-.41309-7.34082.06689-5.04004,1.00635-10.29004,3.68799-15.28149,6.35596Z" fill="#e2a78a"/><path d="M466.44604,94.71484c1.15015-.98193,2.10864-1.7998,2.85132-2.43408-.02417-.02832-.10596-.12354-.13037-.15186-1.83765-2.10693-3.94287-3.49316-6.21143-4.30811-2.26099-.82373-4.80908-.95898-7.36353-.77637-5.15869.41113-10.57007,2.31543-15.8833,4.40771-4.98511,1.97119-9.73193,3.98584-13.85303,4.91699-2.0752.48047-3.93384.62598-5.70508.46924-1.75781-.17188-3.323-.75684-4.67041-1.9126-1.35181-1.15039-2.15674-2.62695-2.61865-4.31934-.48853-1.65918-.59473-3.57861-.45752-5.69385.27222-4.22559,1.53027-9.25293,2.68726-14.47412,1.18872-5.51514,2.27417-11.21582,1.88599-16.36279-.33936-5.20605-2.36597-9.5874-7.04004-12.59473l-1.97876,3.18555c3.48779,2.23975,4.9436,5.85205,5.1853,10.23389.21118,4.43896-.71606,9.56494-1.78198,14.75684-.56958,2.77539-1.17456,5.55273-1.64868,8.23584-.50195,2.71973-.8894,5.36572-.97534,7.81934-.18237,4.93408.87305,9.00879,4.30933,12.06738,1.74097,1.50879,3.72705,2.27246,5.83301,2.60352,2.07788.3584,4.34619.20801,6.75073-.26074,4.80542-.93604,10.18823-3.1792,15.45044-5.12744,4.95361-1.85547,9.87012-3.55811,14.28784-4.02246,2.22754-.25098,4.25537-.12109,6.09326.44727,1.83984.56592,3.48486,1.57617,4.85449,3.146.00439.00488.12476.14404.12915.14893Z" fill="#c7873a"/><path d="M441.85034,115.71094c.72168-4.59229,3.31177-10.18799,5.83276-16.04541,2.20337-5.19336,4.33398-10.59521,4.90576-15.7373.14331-1.28516.18921-2.55371.11597-3.79688-.08081-1.23535-.3186-2.40576-.67944-3.56006-.72998-2.29785-2.03394-4.45117-4.0647-6.36084l-2.52905,2.76855c3.02832,2.85547,3.78223,6.70557,3.23486,11.03809-.61401,4.41113-2.47974,9.27979-4.49951,14.18066-.76099,1.84375-1.52637,3.69824-2.27197,5.50439-.72485,1.80908-1.42285,3.60938-2.04858,5.39404-1.22778,3.5498-2.03418,6.91406-1.89771,9.94531,1.16333-.99316,2.47852-2.11572,3.90161-3.33057Z" fill="#e2a78a"/><line x1="469.17627" y1="95.66992" x2="440.21948" y2="119.68018" fill="none" stroke="#515ba7" stroke-miterlimit="10" stroke-width="3"/><line x1="479.32275" y1="125.47266" x2="454.89282" y2="140.82227" fill="none" stroke="#515ba7" stroke-miterlimit="10" stroke-width="3"/><line x1="490.14014" y1="127.71729" x2="457.76709" y2="146.77539" fill="none" stroke="#515ba7" stroke-miterlimit="10" stroke-width="3"/><line x1="494.51099" y1="134.19775" x2="464.66772" y2="150.41064" fill="none" stroke="#515ba7" stroke-miterlimit="10" stroke-width="3"/><line x1="496.10962" y1="141.854" x2="478.72217" y2="151.13135" fill="none" stroke="#515ba7" stroke-miterlimit="10" stroke-width="3"/><line x1="504.54614" y1="155.21387" x2="478.49585" y2="166.25391" fill="none" stroke="#515ba7" stroke-miterlimit="10" stroke-width="3"/><line x1="494.7478" y1="151.23633" x2="488.35254" y2="154.15234" fill="none" stroke="#515ba7" stroke-miterlimit="10" stroke-width="3"/><line x1="465.69507" y1="116.62549" x2="449.96362" y2="128.46973" fill="none" stroke="#515ba7" stroke-miterlimit="10" stroke-width="3"/><line x1="462.71484" y1="127.65771" x2="457.25781" y2="131.38965" fill="none" stroke="#515ba7" stroke-miterlimit="10" stroke-width="3"/><line x1="470.44116" y1="103.81104" x2="443.60767" y2="124.90137" fill="none" stroke="#515ba7" stroke-miterlimit="10" stroke-width="3"/><path d="M467.91895,125.16943c-5.2832.9502-10.33618,1.99854-14.55811,2.11523-2.12109.06494-3.99316-.1333-5.66431-.64795-1.68994-.50195-3.10938-1.36963-4.20435-2.75439-.91113-1.15234-1.40942-2.42676-1.60059-3.82861-.18286-1.40723-.15405-2.86572.14087-4.49268-.22388.19092-2.84131,2.42529-3.92676,3.35205.01733,1.34521.25659,2.56885.61475,3.80518.36914,1.22754.95898,2.38818,1.8335,3.49414,1.40112,1.80811,3.22437,2.90918,5.18579,3.65771,1.96289.74658,4.21362,1.03418,6.66284,1.03906,2.44873.00488,5.09497-.27393,7.84058-.67285,2.72925-.38867,5.49756-.85742,8.30054-1.31006,5.22754-.83643,10.39355-1.52295,14.8291-1.08838,4.3894.45508,7.92676,2.13721,10.01294,5.77441l3.28687-1.80518c-2.79492-4.89404-7.1084-7.18359-12.30835-7.77637-5.14307-.64209-10.86743.16846-16.44531,1.13867Z" fill="#e2a78a"/><path d="M506.17261,161.2749c1.41309-.53906,2.59033-.98828,3.50269-1.33643-.01294-.03564-.05664-.15479-.06958-.18994-.49805-1.3208-1.12085-2.49365-1.84888-3.52979-.7168-1.0415-1.64868-1.89795-2.60229-2.66113-1.93701-1.51465-4.20874-2.54395-6.68286-3.22607-4.89795-1.39062-10.82495-1.28271-16.50903-1.05078-5.3396.22705-10.39551.55469-14.6145.13281-4.26855-.4043-7.58813-1.5918-9.31812-4.64502-1.84619-2.98682-1.38867-6.4458.26343-10.40186.83057-1.97803,1.93286-4.05615,3.12085-6.18408,1.20605-2.14014,2.55713-4.36865,3.90576-6.65918,1.44165-2.44873,2.87134-4.95264,4.0979-7.479,1.22974-2.5293,2.2627-5.08691,2.81152-7.55957.57129-2.48975.74243-4.96191.32983-7.36572-.40942-2.40527-1.38574-4.75879-3.25732-6.83545l-2.85229,2.43457c.68457.78467,1.21973,1.6167,1.62061,2.48779.37793.89111.6084,1.83301.73096,2.79736.24146,1.93359.01709,3.9873-.53491,6.11621-1.10107,4.25684-3.49634,8.80273-6.19141,13.46094-2.84351,4.95264-5.8374,9.85205-7.48169,14.39453-1.73511,4.61328-2.19751,8.87256.22119,12.72314,1.12109,1.98047,2.67651,3.35645,4.57324,4.32129,1.89722.96387,4.15259,1.50586,6.51611,1.86084,4.79102.6748,10.53491.33838,16.2583.16797,2.69824-.09033,5.28491-.10205,7.77197.02393,2.4856.12646,4.85181.39941,6.99756.92725,2.14575.52686,4.07104,1.30957,5.6709,2.44629,1.61353,1.13037,2.73975,2.68506,3.50073,4.64258.0022.00635.06714.18018.06934.18652Z" fill="#c7873a"/><path d="M475.95898,172.80322c1.14233-2.04346,2.79761-4.16455,4.71582-6.36816,1.85107-2.17627,3.9707-4.43506,6.10986-6.77051,3.81274-4.17334,7.70679-8.62939,9.88403-13.30029,1.06348-2.3208,1.72949-4.71094,1.80737-7.15625.05396-2.42969-.36646-4.98291-1.80347-7.40088l-3.28687,1.80518c1.06641,1.80273,1.37744,3.73975,1.22314,5.68701-.15186,1.94678-.78564,3.91455-1.75732,5.88672-.97168,1.97266-2.28027,3.94922-3.7793,5.92383-1.55103,2-3.28931,3.99561-5.06836,5.9834-5.39819,6.00879-10.86963,11.72852-12.83765,17.53906,1.4292-.54541,3.04443-1.16162,4.79272-1.8291Z" fill="#e2a78a"/><line x1="508.39746" y1="163.125" x2="473.05225" y2="175.98975" fill="none" stroke="#515ba7" stroke-miterlimit="10" stroke-width="3"/><line x1="507.84033" y1="194.74756" x2="479.59961" y2="200.64014" fill="none" stroke="#515ba7" stroke-miterlimit="10" stroke-width="3"/><line x1="517.20654" y1="200.66309" x2="480.20947" y2="207.17529" fill="none" stroke="#515ba7" stroke-miterlimit="10" stroke-width="3"/><line x1="518.96191" y1="208.31494" x2="485.32007" y2="212.97461" fill="none" stroke="#515ba7" stroke-miterlimit="10" stroke-width="3"/><line x1="517.82788" y1="216.06348" x2="498.27222" y2="218.5874" fill="none" stroke="#515ba7" stroke-miterlimit="10" stroke-width="3"/><line x1="520.89966" y1="231.59375" x2="492.62085" y2="232.63379" fill="none" stroke="#515ba7" stroke-miterlimit="10" stroke-width="3"/><line x1="513.21606" y1="224.37744" x2="506.2019" y2="224.83105" fill="none" stroke="#515ba7" stroke-miterlimit="10" stroke-width="3"/><line x1="498.10083" y1="181.69971" x2="479.27344" y2="187.43848" fill="none" stroke="#515ba7" stroke-miterlimit="10" stroke-width="3"/><line x1="491.44751" y1="191.04785" x2="485.0376" y2="192.6665" fill="none" stroke="#515ba7" stroke-miterlimit="10" stroke-width="3"/><line x1="506.91626" y1="171.24072" x2="474.51807" y2="181.97266" fill="none" stroke="#515ba7" stroke-miterlimit="10" stroke-width="3"/><path d="M497.17773,190.51367c-5.25439-.94336-10.32397-1.70166-14.28198-3.03857-4.0686-1.31299-7.08301-3.16455-8.12256-6.49707-.40308-1.39893-.52002-2.72803-.26221-4.08936.25342-1.35938.84229-2.7373,1.66968-4.16504-.2749.10449-3.49023,1.33154-4.82349,1.84033-.43945,1.26416-.70093,2.50928-.72852,3.76318-.03101,1.25488.20581,2.50684.59058,3.84717.67603,2.15869,1.90576,3.82129,3.55737,5.16064.81714.67139,1.77515,1.25146,2.75562,1.78467.97314.53516,2.03638,1.00586,3.17139,1.42773,4.54004,1.68506,10.22974,2.60156,15.86475,3.68213,5.18237,1.02979,10.20898,2.20166,14.18213,4.17676,1.9834.9873,3.69629,2.17676,5.0144,3.64062,1.24805,1.4751,2.06787,3.23242,2.36597,5.31592l3.71191-.53271c-.69971-5.63135-4.27222-9.25293-8.79614-11.66748-2.2749-1.21045-4.80713-2.12891-7.48584-2.86621-2.73022-.72559-5.57422-1.27881-8.38306-1.78271Z" fill="#e2a78a"/><path d="M520.37744,237.84326h3.74902c-.00073-.0376-.00293-.16455-.00342-.20215-.16772-5.66211-2.90088-9.75928-7.08154-12.78662-4.24634-3.03564-9.71826-5.05225-15.07935-6.85107-4.96289-1.68994-9.98804-3.14502-13.78955-5.01855-1.90356-.93701-3.51489-1.97754-4.7085-3.21143-.60132-.61621-1.07959-1.28418-1.47217-2.0083-.41992-.71924-.72266-1.5-.89404-2.35645-.34253-1.7124-.0791-3.33301.63818-4.92285.7146-1.58838,1.91333-3.15186,3.29248-4.69482,2.82129-3.09766,6.89258-6.23047,11.03564-9.61572,4.48315-3.63281,8.77417-7.44531,11.58521-11.77637,1.40454-2.16406,2.42773-4.4541,2.88013-6.88428.39648-2.4082.1355-4.92627-.85083-7.57227l-3.50366,1.33691c.74072,1.96582.85571,3.9043.48438,5.79688-.33521,1.88037-1.34375,3.7832-2.57861,5.60254-2.51978,3.65918-6.37402,7.1377-10.38477,10.55566-4.31592,3.66357-8.92114,7.25586-12.06323,10.93652-.79053.92188-1.49487,1.85156-2.08911,2.79443-.58691.94092-1.07275,1.89648-1.49365,2.88721-.80371,1.97363-1.08301,4.02441-.6394,6.23926.20557,1.11084.63232,2.10596,1.06543,3.03955.44556.93164,1.02808,1.7793,1.72778,2.56104,1.39941,1.5625,3.26758,2.86182,5.44263,4.01221,1.08179.57617,2.26465,1.11084,3.45898,1.62598,1.18213.5166,2.42236,1.00684,3.69971,1.48389,2.55469.95361,5.25781,1.85254,7.94189,2.78906,2.51025.87646,4.98926,1.78076,7.30591,2.78027,2.32715.99902,4.47803,2.09473,6.24365,3.35498,3.5813,2.51221,5.96777,5.69531,6.07642,9.90576,0,.00684.00415.19238.00439.19873Z" fill="#c7873a"/><path d="M488.03906,237.84424c3.48584-2.99756,9.01953-5.5708,14.73486-8.41846,2.53857-1.27344,5.18921-2.6084,7.51514-4.06787,2.35229-1.46094,4.54248-3.05566,6.38818-4.85742,1.84595-1.80078,3.34766-3.80957,4.32324-6.08154.95825-2.26855,1.21851-4.78418.84229-7.58887l-3.71191.53271c.29492,2.08447-.01514,4.00342-.79004,5.76953-.77979,1.76758-2.15381,3.39697-3.76709,4.90088-3.2627,3.01318-7.7876,5.5542-12.45166,8-7.12183,3.6958-14.58838,7.09375-18.21265,11.81104h5.12964Z" fill="#e2a78a"/></svg>