<?xml version="1.0" encoding="UTF-8"?><svg xmlns="http://www.w3.org/2000/svg" width="507.431873" height="445.655907" viewBox="0 0 507.431873 445.655907"><g isolation="isolate"><g id="Layer_1"><path d="M422.019491,343.152196c-.620016-.477501-1.516034-.457007-2.231634-.140236s-1.287114.883131-1.821634,1.454721c-1.054589,1.127727-2.034818,2.324982-2.932209,3.581412-.675795.946174-1.336584,1.956887-2.330923,2.559577-.690028.418241-1.490066.607119-2.248532.882425s-1.522117.675312-1.943228,1.363592" fill="none" stroke="#3a4196" stroke-miterlimit="10" stroke-width="2.1"/><path d="M506.687797,365.484502l-.804709-.808218c-4.108181-4.126093-9.177822-7.165973-14.752682-8.846068l-.000016-.000005c-4.388928-1.322691-8.476449-3.491838-12.031938-6.385055l-2.544621-2.070641c-7.776414-4.673489-11.122481-14.173316-8.099736-22.72768,7.63939-21.619464,10.601133-43.962686,10.601133-69.817833,0-104.810986-74.515009-189.777246-166.439014-189.777246-56.741998,0-106.847968,32.375-136.891998,81.802246-7.447968,12.25-16.155969,23.701904-26.291998,33.837891-18.633997,18.626904-30.596973,47.557959-30.596973,80.045068,0,34.817822,13.741003,65.540918,34.699005,83.881055,12.480969,10.919727,24.170978,22.735986,34.327985,35.839795,30.499005,39.340137,75.082007,64.148096,124.753979,64.148096,44.54622,0,84.999589-19.951087,114.863499-52.446494,4.855565-5.283419,12.655925-6.547948,18.941245-3.236101.507815.267577,1.016319.533986,1.54488.757808,2.75696,1.167449,12.236403,5.364033,16.097412,9.431882l.000012.000012c3.075223,3.239967,6.752445,5.849504,10.826006,7.682665l5.264966,2.36931" fill="#9fd0ee" stroke="#3a4196" stroke-miterlimit="10" stroke-width="2.1"/><path d="M311.36504,420.93655c80.838422,0,146.605095-72.596628,146.605095-161.829649s-65.766673-161.829649-146.605095-161.829649c-41.226195,0-67.626305,18.20206-67.887938,18.385547-9.76434,6.888804-21.692418,18.435102-26.785763,23.365818-8.85712,8.571663-18.748539,19.611697-25.486773,27.364364-7.251306,8.342639-12.417025,15.165147-16.567813,20.646993-4.667597,6.164231-8.354581,11.033337-12.814231,15.27765-15.638846,14.88188-24.608095,37.647012-24.608095,62.459297,0,30.954418,18.976533,54.359076,28.095966,65.606035,1.331269,1.642009,2.329891,2.792487,3.339386,3.845864,4.776668,4.984958,8.711353,8.313174,13.511806,12.068634,5.631901,4.404362,9.211174,7.178098,11.594411,9.025024,4.228938,3.277991,4.77225,3.699208,6.286663,5.093443,2.448475,2.255419,3.41074,3.369065,5.157904,5.390772,1.322775,1.530845,3.134157,3.627555,6.484076,7.266493,17.408435,18.907213,26.888717,25.635299,30.004186,27.845851,1.569117,1.113647,3.168135,2.198498,4.751863,3.225088.2195.133932,27.733418,16.792423,64.924351,16.792423Z" fill="#fff"/><path d="M447.331953,270.34133c0,.44126-.399005.860986-1.120026,1.253027-1.161981.623096-2.078979,1.596191-2.673962,2.743945-.427032.805273-.7,1.701123-.79801,2.632178-7.97301,74.592041-61.215009,131.326904-125.691998,132.573096-18.850995.364014-39.004022-3.059082-59.15-12.992041-14.916998-7.35-29.827032-18.263232-44.212024-33.845068-.013971-.006836-.020978-.021191-.020978-.028027-.825995-1.035986-1.645026-2.078809-2.457007-3.143164-.189014-.251904-.371021-.503809-.552985-.755713-3.430017-4.949219-4.207007-11.270068-2.422015-17.017041l2.016003-6.531055c.539014-1.72915,1.287976-4.171973,2.107007-6.853027,1.630969-5.348096,3.527985-11.640918,4.557007-15.098877.447968-1.49126.384991-1.876123.398962-3.367041-1.154974,2.989014-2.414966,5.670068-3.744983,8.007959-.111981.203027-.231012.398877-.35.595068-.111981.19585-.231012.384863-.35.581055-.014014.028027-.027985.048877-.041998.069727-.231012.378027-.468988.749219-.707007,1.106055-.118988.189014-.244983.364014-.370978.546191-.441003.636768-.889014,1.24585-1.344031,1.812891-.034991-.090918-.062976-.181836-.091003-.273096.427032-.525.840009-1.078027,1.246021-1.65874.118988-.182178.244983-.364355.370978-.546191.238019-.356836.476038-.728027.707007-1.106055.014014-.02085.028027-.042041.041998-.070068.119031-.189014.238019-.384863.35-.580713.119031-.196191.238019-.392041.35-.595068,1.330017-2.338232,2.590009-5.018945,3.745026-8.007959.384991-.993945.755969-2.01626,1.119983-3.06626,4.557007-13.285986,7.377985-31.639795,7.377985-51.918945,0-19.473877-2.603979-37.176904-6.845978-50.315918-2.030017-6.271973-4.431012-11.507959-7.105017-15.4.007007-.034863.021021-.070068.028027-.098096,2.743988,3.913232,5.200995,9.226123,7.266003,15.617041.224005.468945.441003.945068.658002,1.435205-.021021-1.49126-.280017-3.010205-.79801-4.494287-1.350995-3.975781-3.815009-11.025-5.725995-16.435986-.595026-1.665918-1.127032-3.17085-1.561029-4.389014l-3.681964-10.415918c-.007007-.028027-.021021-.048877-.028027-.076904-1.812976-4.774219-1.350995-10.059082,1.106012-14.426904,12.893988-12.6,27.623562-27.552107,43.772567-36.350984,21.258997-11.598877,44.483445-15.09218,64.342442-13.972111,69.880969,3.940918,126.727985,68.067822,126.727985,152.025781,0,1.617041-.027985,3.227246-.069983,4.823096-.021021.938232.083997,1.868945.328979,2.765137.455017,1.701123,1.385986,3.254932,2.772015,4.375.342993.279932.525.567041.525.867822Z" fill="#eac5dd"/><path d="M196.448424,357.250145c-.692993-.539014-1.560986-1.210986-2.687976-2.085986-2.387024-1.848096-5.964014-4.620068-11.599005-9.023096-4.794983-3.759082-8.729022-7.084082-13.509991-12.067822-1.008002-1.057178-2.008997-2.205273-3.339014-3.85-9.120978-11.242041-28.09801-34.65-28.09801-65.60415,0-24.807959,8.974005-47.57915,24.612024-62.460986,2.092993-1.987891,4.010986-4.115918,5.95-6.45415-.686029,1.547314-1.330017,3.107959-1.946021,4.676123-2.645978,6.846191-4.717993,13.887891-6.090009,21.042041-1.378979,7.112109-2.113971,14.321973-2.211981,21.517822-.014014,1.043164.741998,1.988232,1.777985,2.086328,1.106012.111768,2.050995-.693164,2.163019-1.757178v-.014014c.707007-6.951123,2.036981-13.810986,3.961981-20.468164,1.911029-6.67085,4.466003-13.110645,7.504022-19.277686,2.120978-4.228027,6.916003-11.578027,9.87699-15.974219.608997-.903027,2.02301-.364014,1.883002.721191-.608997,4.500781-1.14801,8.764014-1.806012,12.320068-.153979.412891-.308002.832959-.454974,1.259863-4.690009,13.334863-7.602032,31.948096-7.602032,52.548877,0,16.393945,1.841003,31.535205,4.963019,43.75,0,.014014.007007.035205.007007.049219.189014.742041.384991,1.469727.587976,2.18374,0,.007178.007007.021191.007007.028027.867993,4.445068,2.267993,11.256055,3.955017,18.682959.35,1.526123-1.715009,2.373096-2.533997,1.035986l-.041998-.069727c-1.875995-3.045068-3.612024-6.174219-5.284991-9.345068-1.631012-3.192041-3.178027-6.440137-4.613019-9.743945-1.407007-3.30415-2.716003-6.664014-3.906012-10.073096-2.372968-6.818164-4.249005-13.825-5.655969-20.951123v-.014014c0-.531836-.294031-1.035986-.777032-1.273877-1.708002-.840137-3.142993.448096-2.995978,1.854932.825995,7.399219,2.141998,14.762891,4.010986,22.015137.931012,3.625781,1.995026,7.217041,3.171021,10.787109,1.196973,3.555713,2.52699,7.076904,3.954974,10.562891,1.47699,3.464795,3.024005,6.909082,4.725,10.275781,1.700995,3.374219,3.528027,6.692041,5.474005,9.940137,3.177985,5.334082,10.304022,14.875,12.964014,18.304932.517993.671973,1.028979,1.351123,1.511981,2.051123.441003.629932,1.14801,1.589014,2.092993,2.814014Z" fill="#e0f3fc"/><path d="M502.492656,372.541324l-4.386147-3.599182c-3.878515-3.18263-8.176486-5.81648-12.773005-7.827457l-2.878227-1.259224c-5.048627-2.208774-9.734472-5.167825-13.898814-8.776921l-.000013-.000011c-4.594395-3.981809-9.820512-7.169752-15.463407-9.432714l-1.197588-.480267c-3.892359-2.397782-5.408062-7.282332-3.604858-11.483317,9.554467-22.259375,14.598195-46.807388,14.598195-72.213896,0-44.548096-15.49801-86.456836-43.637976-118.012891-28.300995-31.731055-65.982007-49.210205-106.099005-49.210205-24.031012,0-47.915009,6.503027-69.083002,18.81626-20.405017,11.864795-53.892993,52.772754-55.020026,53.822754-.020978.021191-9.505969,11.592041-13.383997,17.892041-3.891998,6.285986-7.153979,12.92915-9.834991,19.760986-2.645978,6.846191-4.717993,13.888232-6.090009,21.042041-1.378979,7.112109-2.113971,14.321973-2.211981,21.518164-.014014,1.042822.741998,1.987891,1.777985,2.085986,1.106012.111768,2.050995-.693164,2.163019-1.757178v-.014014c.707007-6.950781,2.036981-13.810986,3.961981-20.467822,1.911029-6.671191,4.466003-13.110986,7.504022-19.278027,2.120978-4.228027,6.916003-11.578027,9.87699-15.974219.608997-.902686,2.02301-.363672,1.883002.721191-.685986,5.09585-1.288019,9.884082-2.072015,13.698877,4.542993-12.914795,10.752032-20.873877,17.59801-20.873877,7.231012,0,13.755017,8.882959,18.354022,23.106836.223962.469287.440961.945068.658002,1.435205-.021021-1.490918-.280017-3.010205-.79801-4.493945-1.764014-5.194287-5.439014-15.652246-7.287024-20.825l-3.682007-10.41626c-.006964-.028027-.020978-.048877-.027985-.076904-2.156012-5.662891-1.099005-12.053809,2.688019-16.778809,26.130969-32.64126,63.727985-51.744287,103.025995-51.744287,76.391003,0,138.536981,69.993164,138.536981,156.023096s-62.145978,156.023096-138.536981,156.023096c-40.466998,0-76.188019-19.978027-102.333002-54.221973-.189014-.252246-.371021-.50415-.553027-.756055-3.429974-4.948877-4.206964-11.270068-2.421973-17.017041l2.016003-6.531055c1.616998-5.179932,5.116998-16.757959,6.663971-21.951904.44801-1.490918.385034-1.876123.399005-3.367041-1.154974,2.989014-2.414966,5.670068-3.744983,8.007959-.112024.203027-.231012.399219-.35.595068-.112024.19585-.231012.384863-.35.581055-.014014.028027-.027985.048877-.041998.070068-.231012.378027-.468988.748877-.707007,1.106055-.118988.188672-.244983.363672-.370978.54585-3.353027,4.87915-7.140009,7.728027-11.137024,7.531836-5.683997,0-10.92699-5.480713-15.141003-14.734863-.07699-.175-.160986-.35-.237976-.532178-1.190009-2.659863-2.289014-5.62085-3.290009-8.840918-.546021-1.764014-1.071021-3.604932-1.561029-5.515918.79801,4.2,2.387024,12.060986,4.361029,20.776123.35,1.525781-1.715009,2.372754-2.533997,1.035986l-.041998-.070068c-1.875995-3.045068-3.612024-6.173877-5.285034-9.345068-1.630969-3.192041-3.177985-6.440137-4.612976-9.743945-1.407007-3.30415-2.716003-6.664014-3.906012-10.073096-2.37301-6.817822-4.249005-13.825-5.656012-20.950781v-.014014c-.000001-.535409-.299002-1.035722-.779257-1.272403-1.70765-.84157-3.142396.444646-2.99371,1.853458.825995,7.398877,2.141998,14.762891,4.010986,22.014795.931012,3.626123,1.994983,7.217041,3.171021,10.787109,1.196973,3.556055,2.52699,7.076904,3.954974,10.562891,1.47699,3.465137,3.024005,6.909082,4.725,10.276123,1.700995,3.373877,3.528027,6.692041,5.474005,9.939795,3.17826,5.329972,10.301816,14.876586,12.961124,18.304396.522013.672867,1.028937,1.352416,1.515252,2.05152,4.182266,6.012235,33.096073,41.991318,51.715622,52.430071,20.930017,11.725,43.49801,17.668164,67.081012,17.668164,40.116998,0,77.79801-17.471973,106.099005-49.209863.951807-1.066489,1.88882-2.145258,2.81104-3.235802,2.206225-2.608908,5.991605-3.203697,8.900539-1.41151l5.970178,2.621442c5.117652,2.247107,9.831932,5.318678,13.954979,9.092315l.000012.000011c3.981873,3.644427,8.516091,6.634865,13.433979,8.860072l4.330901,1.959611c3.490969,1.579566,6.793182,3.546805,9.844354,5.864615l5.29556,4.022748" fill="#d19885" stroke="#b14c3a" stroke-miterlimit="10" stroke-width=".7"/><path d="M179.789373,298.294831c0,.014014.006964.034863.006964.048877.490009,1.910986,1.015009,3.751904,1.561029,5.515918,1.000995,3.220068,2.1,6.181055,3.290009,8.840918.07699.182178.160986.357178.237976.532178,4.214014,9.25415,9.457007,14.734863,15.141003,14.734863-9.457007-.468945-20.159991-29.490918-20.236981-29.672754Z" fill="none" stroke="#5c3722" stroke-miterlimit="10" stroke-width=".7"/><path d="M225.229327,254.544831c0,12.130713-1.008002,23.568945-2.792993,33.648877,0,.014014,0,.034863-.007007.048877-.399005,2.247314-.840009,4.431055-1.308997,6.538232-.147015.622754-.287024,1.239014-.433997,1.847754-.847015,3.521191-1.791998,6.811328-2.835034,9.835205-.363971,1.05-.734991,2.071973-1.119983,3.065918-.238019.623096-.483002,1.232178-.734991,1.820068-.25199.609082-.511029,1.196973-.770026,1.778027h-.006964c-.714014,1.581836-1.456012,3.051904-2.233002,4.409863-.112024.203027-.231012.399219-.35.595068-.112024.19585-.231012.392041-.35.581055-.014014.028027-.028027.048877-.041998.070068-.231012.378027-.469031.748877-.707007,1.106055-.125995.181836-.252032.363672-.371021.54585-3.359991,4.823096-7.140009,7.531836-11.136981,7.531836-5.683997,0-10.92699-5.480713-15.141003-14.734863-.07699-.175-.160986-.35-.238019-.532178-1.190009-2.659863-2.288971-5.62085-3.290009-8.840918-.545978-1.764014-1.070978-3.604932-1.560986-5.515918,0-.014014-.007007-.034863-.007007-.048877-3.121973-12.215137-4.962976-27.356055-4.962976-43.75,0-20.601123,2.911981-39.214014,7.60199-52.549219,4.542993-12.914795,10.75199-20.873877,17.59801-20.873877,6.012976,0,11.535986,6.139014,15.868988,16.379932.79801,1.882959,1.554022,3.913232,2.267993,6.062109.070026.217041.147015.440918.216998.664795.342993,1.064014.672015,2.149219.994031,3.269287,3.653979,12.739795,5.85199,29.140918,5.85199,47.046973Z" fill="#dcdcde" stroke="#231f20" stroke-miterlimit="10" stroke-width=".7"/><path d="M446.642428,261.440254c0,56.942787-32.414054,103.220622-34.971997,103.696944-13.971176,2.601614,20.744898-46.16125,20.744898-103.104037s-31.191485-103.104037-16.980147-103.104037,31.207245,45.568343,31.207245,102.51113Z" fill="#bfa1b4" opacity=".43"/><path d="M148.689621,259.988402c0,13.40211,3.497894,24.266667,0,24.266667s-6.333497-10.864557-6.333497-24.266667,2.835603-24.266667,6.333497-24.266667,0,10.864557,0,24.266667Z" fill="#e0f3fc" mix-blend-mode="screen" opacity=".61"/><path d="M225.229327,254.544831c0,12.130713-1.008002,23.568945-2.792993,33.648877,0,.014014,0,.034863-.007007.048877-.399005,2.247314-.840009,4.431055-1.308997,6.538232-.147015.622754-.287024,1.239014-.433997,1.847754-.847015,3.521191-1.791998,6.811328-2.835034,9.835205-.363971,1.05-.734991,2.071973-1.119983,3.065918-.238019.623096-.483002,1.232178-.734991,1.820068-.25199.609082-.511029,1.196973-.770026,1.778027h-.006964c-.62301,0,1.198595,1.010405-.254353-.012212-2.762691-1.944444,2.855223-27.336836,2.855223-55.392891,0-24.821973-5.897885-53.010815-1.921891-60.221021.79801,1.882959,1.554022,3.913232,2.267993,6.062109.070026.217041.147015.440918.216998.664795.342993,1.064014.672015,2.149219.994031,3.269287,3.653979,12.739795,5.85199,29.140918,5.85199,47.046973Z" fill="#dcdcde" mix-blend-mode="multiply" opacity=".47"/><line x1="288.620283" y1="286.098021" x2="446.806953" y2="269.473508" fill="none" stroke="#231f20" stroke-miterlimit="10" stroke-width="3"/><line x1="293.434182" y1="240.001146" x2="446.806953" y2="269.473508" fill="none" stroke="#231f20" stroke-miterlimit="10" stroke-width="3"/><polyline points="104.94539 280.705427 221.279557 293.175153 282.728776 286.717145" fill="none" stroke="#231f20" stroke-miterlimit="10" stroke-width="3"/><polygon points="281.334061 294.384382 293.434159 285.592145 279.770524 279.507429 281.334061 294.384382" fill="#231f20"/><polyline points="104.06337 249.407209 1.271012 269.473493 .159867 269.473493 100.99025 280.281354" fill="none" stroke="#231f20" stroke-miterlimit="10" stroke-width="3"/><polygon points="100.482377 242.485578 114.628312 247.344831 103.348466 257.167463 100.482377 242.485578" fill="#231f20"/><polygon points="98.017106 287.484968 111.693314 281.428571 99.611405 272.611188 98.017106 287.484968" fill="#231f20"/><polyline points="287.031571 238.716413 223.274247 226.135847 105.473832 249.131818" fill="none" stroke="#231f20" stroke-miterlimit="10" stroke-width="3"/><polygon points="286.332413 230.954694 297.592301 240.800153 283.436539 245.63072 286.332413 230.954694" fill="#231f20"/><path d="M497.455724,380.849499l-4.193125-2.051835c-2.677123-1.310005-5.160838-2.982875-7.380984-4.971354l-1.620144-1.451086c-2.63437-2.359479-5.637009-4.27208-8.888949-5.662022l-.00001-.000004c-3.136134-1.340445-6.041141-3.167302-8.607872-5.413192l-1.649756-1.443536c-2.524291-2.208755-5.376025-4.012447-8.453426-5.346705l-2.640851-1.144984c-2.547655-1.104578-4.942863-2.53185-7.126819-4.246776l-6.073955-4.769501c-5.176308-3.337962-7.081898-9.963383-4.525331-15.566963,9.728592-21.323501,15.220867-45.480279,15.220867-71.058682,0-86.030273-62.146021-156.023096-138.537024-156.023096-39.297968,0-76.894983,19.103027-103.025995,51.743945-.545978.685986-2.167256,2.645995-1.462976,2.148877-6.676252,9.403857,11.563179-14.3755,39.549476-31.158202,22.488363-13.485724,53.039388-20.093208,68.614495-19.213771,69.881012,3.94126,126.728027,68.068164,126.728027,152.026123,0,1.617041-.028027,3.226904-.070026,4.823096-.069983,2.722754.987024,5.431836,3.100995,7.139795.343036.280273.525.567041.525.868164,0,.440918-.398962.860986-1.119983,1.253027-1.981012,1.064014-3.233997,3.128809-3.472015,5.375781-7.972968,74.592041-61.214966,131.327246-125.691998,132.573096-33.669983.651123-71.462976-10.787109-106.008002-49.756055,26.145026,34.243945,61.866003,54.221973,102.333002,54.221973,40.309504,0,76.648696-19.486813,101.992067-50.539942,3.948739-4.838375,10.870395-5.99008,16.103207-2.581256l7.573602,5.652248c1.973022,1.472484,4.179151,2.603443,6.526488,3.345763l.000009.000003c3.639994,1.151109,6.917902,3.229391,9.511658,6.030648l.544984.588583c2.157853,2.330481,4.794607,4.166241,7.729128,5.38117l4.633378,1.918277c2.070361.857156,3.997658,2.025505,5.715222,3.464631l3.554728,2.978465c1.666911,1.396685,3.531649,2.538563,5.53342,3.388407l5.904962,2.506928" fill="#fbf5b5" stroke="#7a6b2b" stroke-miterlimit="10" stroke-width=".736679"/></g></g></svg>