<?xml version="1.0" encoding="UTF-8"?><svg id="a" xmlns="http://www.w3.org/2000/svg" width="261.928029" height="314.260485" xmlns:xlink="http://www.w3.org/1999/xlink" viewBox="0 0 261.928029 314.260485"><defs><linearGradient id="b" x1="134.081745" y1="281.221029" x2="134.081745" y2="60.94074" gradientUnits="userSpaceOnUse"><stop offset="0" stop-color="#1d3b47"/><stop offset=".109691" stop-color="#1f3f4c"/><stop offset=".251479" stop-color="#264d5c"/><stop offset=".359835" stop-color="#2e5c6e"/><stop offset=".599277" stop-color="#448ea8"/><stop offset=".649539" stop-color="#4897b3"/><stop offset=".744611" stop-color="#4ea4c3"/><stop offset=".852561" stop-color="#51accd"/><stop offset="1" stop-color="#53afd0"/></linearGradient><radialGradient id="c" cx="130.134768" cy="210.764128" fx="130.134768" fy="210.764128" r="31.917217" gradientTransform="translate(5.620335 17.377575) scale(.978377 .944349)" gradientUnits="userSpaceOnUse"><stop offset="0" stop-color="#f1f7eb"/><stop offset=".197635" stop-color="#edf5e7"/><stop offset=".36977" stop-color="#e2f1dc"/><stop offset=".532485" stop-color="#d0e9ca"/><stop offset=".689345" stop-color="#b7deb1"/><stop offset=".842036" stop-color="#97d091"/><stop offset=".989674" stop-color="#70c06a"/><stop offset="1" stop-color="#6dbf67"/></radialGradient></defs><path d="M113.145761,18.42483l.000028-.000006c5.524738-1.180683,11.152363-1.885393,16.813923-2.105494l16.422847-.638462c14.057096-.54649,27.03947,7.152029,32.659073,19.366759l3.811729,8.285146-25.005059,91.120974-44.260012-17.664185-16.320625-75.054593c-2.299945-10.576889,4.754206-20.932869,15.878096-23.310138Z" fill="#cfecf8" stroke="#05415a" stroke-miterlimit="10" stroke-width="2.747762"/><path d="M208.134473,135.538199l-65.162131,157.640362-7.341806-147.365724-2.538573-51.033906c-.941971-18.936809,2.545889-37.810428,10.057662-54.424325l5.751429-12.72052c3.776899-8.353423,11.004635-13.509037,18.827219-13.454592.032546.000227.064585.000434.096105.000624,20.95274.095037,39.89336,4.726887,55.40689,12.156208,2.216221,1.061333-15.096794,109.201874-15.096794,109.201874Z" fill="#cfecf8" stroke="#05415a" stroke-miterlimit="10" stroke-width="3.844851"/><path d="M54.063839,142.168498l63.778282,141.757223c1.970466,4.379669,7.843275,3.024707,8.108739-1.870831l7.028305-129.611754,2.882876-53.247022c.946999-17.491172-2.559478-34.923977-10.111344-50.269569l-9.157887-18.609068c-2.908948-5.911059-8.469427-9.567773-14.494353-9.531858l-4.159975.024797c-24.105692.100456-45.76451,5.269753-63.157657,13.453794-2.904779,1.366793,19.283013,107.904288,19.283013,107.904288Z" fill="#cfecf8" stroke="#05415a" stroke-miterlimit="10" stroke-width="3.844851"/><path d="M233.432192,139.603413c-9.347241,83.120499-71.519593,142.029266-104.588751,141.61383-.027957.00852-.065177,0-.093134,0h-.027901c-33.041258-1.561943-90.931022-64.043501-94.403642-147.537852-1.70375-40.845813,30.220351-74.936326,50.060004-72.626679,1.22893-.598001,4.66433,1.262942,9.496233,4.063079,6.125953-1.62016,18.536228,5.841057,35.685272,5.841057,20.379651,0,42.360598-8.649308,51.15858-2.575785,3.305046-1.844512,5.38122-3.331806,5.790863-3.963277,19.960689-3.821891,51.67062,33.077076,46.922475,75.185628Z" fill="url(#b)"/><path d="M130.968476,295.32866c-.337925,8.103248-8.570815,13.734114-16.570258,11.253837-31.698117-9.828195-86.257466-42.81316-96.787352-98.01933-6.696434-35.108096,10.455996-39.218369,2.701732-83.064099C12.147859,79.332392-.642322,68.668902,7.279326,52.731654c5.793112-11.654918,19.59553-18.400736,30.385239-19.501989,12.305718-1.255998,14.253235,5.487387,32.794518,9.483889,25.302044,5.453766,35.142614-4.201098,48.379262,5.085129.757799.531632,10.471124,7.626421,12.789926,19.559385,1.663501,8.560686-1.231757,16.183874-2.597129,19.778858-2.913569,7.67138-6.171918,9.640062-8.341442,18.427038-.703732,2.850187-1.526695,6.183322-1.32883,10.588327.507975,11.308339,7.013447,13.429377,5.983056,22.645425-.60201,5.38493-2.497765,10.792587-2.497808,10.792668-.731326,2.086206-1.60081,4.106041-1.893252,7.153125-.280302,2.920525.12447,5.088706.244297,5.827849,1.530283,9.437828-2.731265,18.755476-10.479775,24.699994-8.336242,6.402853-13.849484,16.133195-14.329043,27.210193-.1646,3.802374.273225,7.48731,1.238474,10.976152,2.800595,10.179055,10.82361,17.118868,13.45862,19.588082.899714.834198,1.815506,1.596282,2.74399,2.290795,11.708741,8.758221,18.201455,22.516162,17.605679,36.802513l-.466633,11.189573Z" fill="#cfecf8" stroke="#05415a" stroke-miterlimit="10" stroke-width="3.844851"/><ellipse cx="132.941244" cy="216.412491" rx="31.227082" ry="30.140995" fill="url(#c)" stroke="#134d26" stroke-miterlimit="10" stroke-width="1.634061"/><path d="M235.830281,140.001013c-.032843-42.810416,29.815787-56.537139,18.913842-86.237103-4.427241-12.06097-15.629674-26.956602-28.850845-28.072022-9.569096-.8074-12.893155,6.219885-29.232964,7.536349-12.84586,1.034726-14.386817-3.019104-24.752218-.871725-12.28561,2.544855-20.218624,10.385535-24.555516,14.533431-4.929746,4.715059-10.975514,10.497353-12.705947,19.61023-1.626887,8.567155,1.30102,16.178895,2.68176,19.76839,2.946418,7.659695,6.21321,9.615484,8.420291,18.393597.117062.465554.237373.944.355956,1.437945.001852.007714.003723.015537.005611.023464.398178,1.671117,1.412861,3.139651,2.867299,4.124303,2.0398,1.380941,4.142892,2.900531,6.282186,4.571575.055736.043529.111362.087058.166882.130587,5.712549,4.478793,7.312033,12.207689,4.024652,18.563322-3.301215,6.38238-2.112257,7.001966-1.939248,10.670137.215788,4.574565,2.430771,8.450514,4.98765,11.491933,1.613345,1.919081,2.037588,4.508645,1.025543,6.778803-.610743,1.369983-1.14844,3.046665-1.378024,4.99585-.226453,1.92264-.099822,3.65793.175078,5.130962.455405,2.440257-1.324072,4.742405-3.870839,5.06703l-.000017.000002c-4.403946.561351-5.946114,5.955292-2.463748,8.617285l.083243.063633c6.909671,6.624738,7.926923,11.665109,7.686449,14.942204-.489189,6.667621-6.373486,8.604044-6.113127,15.188896.258687,6.545889,6.167348,7.006074,5.979543,13.581243-.195031,6.828087-6.763308,13.198754-7.67349,14.063101-.696341.660998-1.311291,1.170984-1.738674,1.510359-1.362586,1.079684-2.444391,1.697569-3.621859,2.575749-1.813194,1.352418-3.779011,3.080531-5.778379,5.334272-8.032111,9.054007-11.430191,21.114371-9.702902,32.916939l1.174364,8.024431c.372027,8.089217,8.61359,13.702515,16.590614,11.196162,27.445742-8.622719,58.875039-29.899393,67.613554-40.427871,10.200109-12.289449,25.653384-30.907606,28.780859-57.985479,3.581671-31.009741-13.412799-34.926392-13.43758-67.247985Z" fill="#cfecf8" stroke="#05415a" stroke-miterlimit="10" stroke-width="3.844851"/></svg>