<?xml version="1.0" encoding="UTF-8"?><svg id="Layer_1" xmlns="http://www.w3.org/2000/svg" width="411.481937" height="456.713375" viewBox="0 0 411.481937 456.713375"><line x1="193.989509" y1="217.960279" x2="224.211731" y2="217.960279" fill="none" stroke="#298638" stroke-linecap="round" stroke-miterlimit="10" stroke-width="7"/><line x1="193.989509" y1="228.356688" x2="224.211731" y2="228.356688" fill="none" stroke="#298638" stroke-linecap="round" stroke-miterlimit="10" stroke-width="7"/><line x1="265.082118" y1="144.608443" x2="286.452456" y2="165.978781" fill="none" stroke="#298638" stroke-linecap="round" stroke-miterlimit="10" stroke-width="7"/><path d="M335.413322,77.575942l-72.008775,81.293701c-12.096752,13.659209-18.758789,31.330041-18.758789,49.755617v232.387033c0,8.11759-6.435424,14.701082-14.37492,14.701082s-14.37492-6.583493-14.37492-14.701082v-232.387033c0-25.7392,9.305194-50.416017,26.200939-69.493789l71.321322-80.516239" fill="#afe1b7" stroke="#298638" stroke-miterlimit="10" stroke-width="2"/><path d="M313.418178,58.615232l46.754366-52.782052c5.326421-6.017435,14.42305-6.480946,20.30297-1.025466,5.883931,5.451378,6.333147,14.746203,1.002715,20.763638l-46.064907,52.00459" fill="#de99a6" stroke="#c8546b" stroke-miterlimit="10" stroke-width="2"/><path d="M365.163626,102.883731l-68.600673,79.831494c-2.621089,3.050144-6.203078,4.725029-9.873411,4.967106s-7.433013-.948391-10.413485-3.629084c-5.964687-5.357029-6.550644-14.648958-1.310208-20.745021l68.315852-79.500054" fill="#afe1b7" stroke="#298638" stroke-miterlimit="10" stroke-width="2"/><path d="M343.2817,83.808172l42.026268-48.90652c5.242179-6.100288,14.325953-6.699408,20.286896-1.338022,5.964687,5.357029,6.550644,14.648958,1.310208,20.745021l-41.741447,48.57508" fill="#de99a6" stroke="#c8546b" stroke-miterlimit="10" stroke-width="2"/><line x1="146.399819" y1="144.608443" x2="125.029481" y2="165.978781" fill="none" stroke="#298638" stroke-linecap="round" stroke-miterlimit="10" stroke-width="7"/><path d="M76.068616,77.575942l72.008775,81.293701c12.096752,13.659209,18.758789,31.330041,18.758789,49.755617v232.387033c0,8.11759,6.435424,14.701082,14.37492,14.701082s14.37492-6.583493,14.37492-14.701082v-232.387033c0-25.7392-9.305194-50.416017-26.200939-69.493789L98.063759,58.615232" fill="#afe1b7" stroke="#298638" stroke-miterlimit="10" stroke-width="2"/><path d="M98.063759,58.615232L51.309393,5.83318C45.982972-.184255,36.886343-.647766,31.006423,4.807714c-5.883931,5.451378-6.333147,14.746203-1.002715,20.763638l46.064907,52.00459" fill="#de99a6" stroke="#c8546b" stroke-miterlimit="10" stroke-width="2"/><path d="M46.318312,102.883731l68.600673,79.831494c2.621089,3.050144,6.203078,4.725029,9.873411,4.967106s7.433013-.948391,10.413485-3.629084c5.964687-5.357029,6.550644-14.648958,1.310208-20.745021l-68.315852-79.500054" fill="#afe1b7" stroke="#298638" stroke-miterlimit="10" stroke-width="2"/><path d="M68.200238,83.808172L26.173969,34.901652c-5.242179-6.100288-14.325953-6.699408-20.286896-1.338022C-.077614,38.920659-.663571,48.212588,4.576865,54.308651l41.741447,48.57508" fill="#de99a6" stroke="#c8546b" stroke-miterlimit="10" stroke-width="2"/></svg>