<?xml version="1.0" encoding="UTF-8"?><svg id="Layer_1" xmlns="http://www.w3.org/2000/svg" width="359.536736" height="247.63007" viewBox="0 0 359.536736 247.63007"><path d="M172.61998,194.971962c-.040441,4.827766-.6075,9.47696-1.636117,13.859187-2.405775,10.28696-7.354863,19.180745-13.948275,25.790273-.542736.542834-1.085372,1.061147-1.644225,1.57155-.567059.510205-1.134119,1.004392-1.717295,1.482166-.866656.712903-1.757637,1.393374-2.67304,2.033108-.6075.429324-1.223009.834324-1.854833,1.231216-2.51098,1.57155-5.159696,2.867432-7.921725,3.863716-.348442.121619-.696687.24304-1.044932.35655-4.795236,1.571353-9.9225,2.219194-15.203716,1.797979-.024324-.00791-.04054-.00791-.064863-.00791-.040441,0-.08098-.008306-.121421-.008306-2.705471-.218518-5.427059-.161763-8.14054.081079-.194392.016216-.396892.032432-.591284.048647-.550745.048647-1.101687.088989-1.652432.129529-.340137.024324-.680372.048647-1.0125.072971-.753245.048647-1.49848.088989-2.235608.121421-.097196.008108-.186284.008108-.275372.008108-.720912.04054-1.433716.064863-2.14652.081079-.323921.008108-.64804.016216-.97196.024324-.785676.016216-1.563344.024324-2.340912.024324h-.016216c-.712804,0-1.425608-.008108-2.130304-.024324-.226824,0-.453647-.008108-.672363-.008108-.647941-.016216-1.287773-.04054-1.919597-.064863-.291687-.016216-.575068-.024324-.858647-.04054-.6075-.024126-1.215-.064666-1.814392-.105205-.801892-.048647-1.603784-.113511-2.397568-.186284-.785676-.064863-1.571353-.145942-2.34902-.234932-.591284-.064863-1.182667-.137637-1.757736-.210608-.28348-.04054-.575068-.080881-.858549-.113313-.761451-.113511-1.522804-.226824-2.26804-.348442-.48598-.080881-.97196-.16196-1.449833-.251147-.089187-.016216-.170167-.032234-.259255-.04845-.259255-.048647-.510304-.089187-.761353-.145745-.316011-.056755-.639932-.121619-.955844-.186284-.494088-.097295-.980167-.2025-1.466049-.316011-.477971-.097295-.955844-.210608-1.425608-.323921-.712903-.170068-1.409392-.340334-2.106079-.526619-.016216-.008108-.032432-.008108-.040441-.016216-.583275-.153853-1.158344-.307705-1.725304-.477971-.801892-.234734-1.595676-.477773-2.373245-.728921-.575167-.186284-1.142227-.372568-1.701079-.575068-.631824-.218716-1.247432-.44554-1.86304-.672363-.226824-.088989-.445441-.170068-.664156-.259058-.056656-.024324-.113412-.04054-.170167-.064863-.502097-.194392-.996284-.396892-1.490273-.6075-.583275-.234932-1.150236-.486079-1.717295-.737227-.088989-.040342-.170068-.080881-.251049-.113313-.591383-.267166-1.174559-.542637-1.749628-.826216-.453647-.218716-.899088-.437234-1.344529-.672166-.24304-.121619-.486079-.24304-.721011-.372568-.008108,0-.024225-.008306-.032333-.016216-.453549-.234932-.907196-.486079-1.352736-.737227-.534529-.291489-1.061147-.599392-1.57946-.907295-.226824-.129529-.453647-.267166-.672363-.405-.485881-.291489-.963853-.591284-1.433716-.898989-.421117-.267363-.842333-.542637-1.247333-.826216-.477872-.315813-.947736-.64804-1.409392-.980068-.210608-.145745-.421216-.299795-.623716-.453647-.502196-.36446-.996284-.745137-1.482264-1.125813-.405-.316011-.81-.639932-1.206892-.96405-1.555236-1.279666-3.0375-2.624194-4.446892-4.033784-.405-.405-.81-.826216-1.206892-1.247432-.364559-.372568-.712903-.761353-1.061147-1.150137-.170068-.178176-.332128-.36446-.486079-.550745-.323921-.36446-.647941-.737029-.955745-1.109597q-.008108-.008306-.016216-.016216c-.056656-.064863-.113313-.137834-.170068-.2025-3.636892-4.341687-7.622029-8.359255-11.898853-12.077227-.04054-.032432-.072971-.064863-.113511-.097097-1.303989-1.126011-2.567637-2.284255-3.790745-3.458716-.129529-.121619-.251147-.24304-.372568-.36446-.510304-.502295-1.020608-1.00459-1.522804-1.514795-.494088-.510205-.980167-1.020608-1.466049-1.538921-.113511-.121619-.234932-.24304-.348442-.372568-.526421-.567158-1.036725-1.142227-1.547029-1.717295-.048647-.056755-.097196-.113511-.137637-.16196-1.093579-1.247432-2.138511-2.511079-3.151011-3.79905-.097097-.121421-.194392-.242842-.283381-.36446-.44554-.56696-.874863-1.150137-1.304187-1.725205-.502196-.672363-.988176-1.360745-1.466147-2.041216-.437333-.623716-.858549-1.247432-1.271656-1.879255-.097196-.137637-.186284-.275273-.267264-.413108-.413108-.623716-.81-1.25554-1.206892-1.895471,0,0-.008108-.00791-.016216-.016018-.413108-.672363-.818108-1.352834-1.223108-2.041216-.056755-.105403-.12152-.218716-.186284-.324119-.356353-.623716-.704696-1.247432-1.044932-1.879058-.016216-.024324-.032432-.048647-.04054-.081079-.372568-.680273-.737029-1.360745-1.093381-2.057432-.137834-.267363-.275471-.534529-.405-.81-.24304-.486079-.486079-.97196-.721011-1.466147-.024324-.04845-.048549-.097097-.064764-.153853-.332128-.688579-.647941-1.385068-.963951-2.089863-.008108-.016216-.008108-.024126-.016117-.040342-.291588-.656147-.575167-1.320403-.85054-1.984658-.372568-.890881-.72902-1.797979-1.069156-2.697166-.2025-.534529-.405-1.069255-.591284-1.603784-.089187-.24304-.178176-.486079-.259255-.729119-.259255-.728921-.502196-1.466147-.737029-2.203176-.234932-.745137-.469863-1.490471-.688579-2.235608-.04054-.137637-.08098-.275273-.113313-.413108-.2025-.688381-.396892-1.385068-.575167-2.081755-.178176-.680273-.356451-1.360745-.518412-2.049126-.056755-.234932-.113313-.477971-.170068-.729119-.129628-.56696-.259255-1.133921-.372568-1.700881-.259255-1.206892-.494187-2.421892-.696687-3.645-.088989-.510403-.170068-1.020608-.251049-1.522903-.12152-.76946-.226824-1.538921-.32402-2.308381-.2025-1.514795-.36446-3.045608-.48598-4.584727-.024324-.283381-.048549-.575068-.064764-.866558-.008108-.072971-.016216-.145942-.016216-.218716-.048647-.623716-.081079-1.247432-.113412-1.871147-.008108,0-.008108-.008108,0-.024324-.04054-.737029-.072872-1.474255-.089088-2.211284-.008108-.153853-.016216-.307903-.008108-.461755-.024324-.761353-.032432-1.514597-.032432-2.276147v-.040342c0-.696687.008108-1.401284.024324-2.097971.008108-.542637.024324-1.093381.048647-1.636216,0-.04054,0-.080881.008108-.121421,0,.097097,0,.186284.008009.283381.016216.453647.04054.907295.064764,1.352637.024324.461755.048647.923511.089187,1.385266.032432.461755.064764.915205.105205,1.368853.032432.453647.072971.907097.121619,1.360745l.145745,1.360942c.08098.720813.170068,1.441626.267363,2.154529.048549.437432.113313.866755.186284,1.295881.088989.656147.194392,1.312295.315813,1.960334.072971.44554.153951.890881.234932,1.344529.081079.453647.16196.899187.259255,1.336421.088989.421216.170068.850737.259156,1.271755.105304.461755.210608.931619.315912,1.393176.089088.372568.178176.753442.267264,1.134119.267264,1.077166.542736,2.146421.85054,3.207568.08098.307903.170068.615608.259156.923313.04054.145942.081079.291687.129628.437432.137736.461755.275372.923511.421216,1.385068.08098.259255.170068.518511.251049.777568.178176.55905.36446,1.109795.558951,1.660737.105304.307705.210509.61541.32402.915205.178176.510205.36446,1.0125.550745,1.514795.639932,1.684666,1.328412,3.353313,2.06554,5.005745.259156.591284.534529,1.182568.81,1.773853.08098.170068.16196.340137.24304.510403.275273.566763.550745,1.125813.826117,1.676558.469764.915205.947736,1.8225,1.433716,2.721687.307804.558853.615608,1.109597.93152,1.66054.105304.177979.210608.348245.307804.526421.36446.615608.72902,1.231216,1.101588,1.838716l.008108.008108c.437432.712705.89098,1.4175,1.344529,2.113989.388784.591482.785775,1.17446,1.190775,1.757834.16196.242842.332128.485881.502196.728921.380676.534727.761353,1.069255,1.150137,1.595676.016216.024324.032432.048647.048647.064863.97196,1.320205,1.976353,2.608176,3.029392,3.879932.024324.024324.04054.04845.064863.072773.526421.639932,1.069156,1.271755,1.62,1.903579.048549.056755.097097.113313.137637.16196.469863.534727.939628,1.061147,1.4175,1.57946.089088.097295.178176.186482.259255.283579.510205.534529,1.0125,1.069255,1.530813,1.603784.097295.097097.186284.194392.283579.291687.558853.56696,1.133921,1.133921,1.717097,1.700881,1.239324,1.198784,2.527295,2.373245,3.8475,3.515471.032432.024324.056755.048647.089187.081079,4.29304,3.709666,8.278176,7.74345,11.923176,12.085137.056755.064863.113412.137637.170068.2025.81.963853,1.644324,1.911489,2.519187,2.826892.291489.315813.583176.615608.890881.923313.162059.170068.332227.340137.502295.510403.421216.421018.858549.834324,1.29598,1.247234.461656.429521.93152.858647,1.409392,1.279863.453549.396892.915304.785676,1.377059,1.174658.056656.04845.113313.088989.170068.137637.437432.356353.874764.712705,1.320205,1.052842.129727.105403.251147.2025.380775.299795.396892.299795.793784.599392,1.198784.898989.040441.032432.089088.064863.137736.097295.494088.356353.996284.712705,1.506588,1.061147.534628.36446,1.077264.720813,1.628009,1.077363,0,0,.008108,0,.008108.00791.550844.348442,1.101687.688579,1.66054,1.028716.56696.340334,1.142128.664255,1.717295.988374.575068.323921,1.166353.639932,1.757637.955745.558853.291687,1.133921.575068,1.709088.85845.024324.016216.056656.032432.089088.040737.558853.275273,1.125912.542637,1.701079.801694.088989.04054.186284.081079.283381.129727.567059.251147,1.150236.502097,1.733511.745137.6075.259255,1.223108.502295,1.838716.745137.056558.016216.113313.04054.170068.064863.615608.234932,1.239324.469863,1.871049.688579.6075.218716,1.206892.421216,1.8225.615608.129628.04845.251049.088989.380775.129529.6075.194392,1.223108.380676,1.846725.56696.68848.2025,1.377059.396892,2.081656.583176.696687.186284,1.409392.364658,2.122295.534727.591284.145745,1.182568.283381,1.78196.405.259255.056558.52652.113313.785676.170068.52652.113313,1.05304.210608,1.57946.315813.145844.024324.299795.056755.44554.081079.615608.113313,1.239324.218716,1.86304.323921.218716.032432.44554.072971.672264.105403.52652.081079,1.05304.16196,1.579559.234932.332029.040342.664156.088989.996284.129529.494088.064863.996284.121619,1.49848.178176.777667.089187,1.563344.170068,2.34902.234932.793784.072773,1.595676.137637,2.397568.186284.591284.04054,1.198784.072971,1.798176.105205.267363.016216.542736.024521.818108.04054.64804.024324,1.304187.048647,1.960236.064863.210608,0,.429225.008108.647941.008108.721011.016216,1.441824.024324,2.170844.024324h.032333c.761451,0,1.531011-.008108,2.308579-.024324.332029-.008108.664255-.016216,1.004392-.032432.672363-.008108,1.344529-.032432,2.025-.064863.85054-.032432,1.717196-.080881,2.583853-.137637.364559-.024324.729119-.048647,1.101687-.081079.493989-.032234.988176-.064666,1.490372-.113313.226725-.016216.461656-.032432.696588-.056755,2.689255-.234932,5.38652-.291489,8.083784-.080881.056755.008108.12152.008108.178176.016216.267363.024324.542736.04054.81.056755,12.287736.761353,23.652059-4.301147,32.108511-13.211147.526421-.550942,1.044833-1.117903,1.547029-1.701079,2.016892-2.341011,3.839392-4.90054,5.451284-7.670676.405-.688579.793784-1.393176,1.166353-2.106079.372667-.720813.737227-1.441824,1.085471-2.18696.518412-1.109795,1.004392-2.243716,1.45804-3.40196.599392-1.547029,1.142029-3.134597,1.62-4.762903.234833-.81.461656-1.636216.664156-2.470342.623716-2.535403,1.101588-5.167903,1.401284-7.865068.113412-.988374.2025-1.992766.259156-3.005266.153951,1.86304.283579,3.345403.137736,4.066216Z" fill="#865924"/><path d="M358.71748,128.916423c-.008009.364658-.016117.721011-.024225,1.085471-.024324.866755-.064863,1.733313-.105403,2.59196-.016216.44554-.048549.882971-.080881,1.320403-.008108.16196-.016216.323921-.032432.485881-.032432.534727-.072971,1.077363-.12152,1.61209-.04054.510205-.089088,1.02041-.137736,1.538921-.024324.186284-.04054.380676-.064764.575068-.04054.429324-.089088.858647-.137736,1.287773-.064764.526619-.137637,1.053237-.2025,1.579658-.04054.323921-.08098.639932-.137637.963853-.113511.842432-.24304,1.676755-.388784,2.511079-.024324.153853-.048647.307705-.072971.453647-.113412.647842-.226824,1.303989-.356353,1.952029-.105403.550745-.218716,1.101489-.332128,1.644324,0,.032432-.008108.056558-.016216.088989,0,.008108,0,.016216-.008108.024324-.097196.453647-.194392.899187-.291588,1.352834-.097196.421018-.194392.842234-.291588,1.26345-.08098.36446-.170167.720813-.267264,1.085471-.121619.502097-.251147,1.004392-.380676,1.506489-.121619.461755-.24304.915403-.372667,1.377158-.210608.737029-.429324,1.482166-.647941,2.219194-.307903,1.00459-.623716,2.008982-.963951,3.005266-.380775,1.133921-.785775,2.26804-1.206892,3.393853-.210608.558853-.429324,1.125813-.64804,1.684863-.218617.558853-.445441,1.117705-.680372,1.676755-.218716.534529-.44554,1.069058-.680471,1.603784-.016117.040342-.040441.080881-.048549.121421-.234833.534529-.477872,1.061147-.720912,1.595676-.251147.550745-.502196,1.093381-.76946,1.644324-1.304187,2.729795-2.737804,5.418853-4.301147,8.05946-.259156.437432-.518313.866755-.785676,1.304187-.048647.088989-.105304.178176-.16196.267166-2.041216,3.321079-4.892432,9.007295-6.342363,12.627971-.226824.558853-.461656,1.126011-.696588,1.676755-.218617.502097-.437333,1.004392-.664156,1.506489-.226824.510403-.461755,1.0125-.696687,1.522903-.226725.477773-.461656.955745-.696489,1.433716-.032432.080881-.072971.153853-.113511.234932l-.6075,1.190479c-.291489.567158-.591284,1.126011-.898989,1.676755-.259255.461755-.510403.923511-.777667,1.37696v.016216c-.28348.477971-.558951.955942-.850441,1.425806-.316011.534529-.64804,1.069058-.980068,1.595479-.2025.316011-.405.632021-.615608.947834-.356451.558853-.729119,1.109597-1.109795,1.652432-.307705.45345-.631824.907097-.955745,1.360745-.04054.064863-.089187.129529-.137736.194392-.6075.834324-1.223108,1.652432-1.862941,2.462432-.972059,1.239324-1.984559,2.446216-3.029392,3.628784-.340236.396892-.696687.777568-1.05304,1.166353-.2025.226824-.413108.44554-.623716.664255-.251147.275273-.502196.534529-.761353.801892l-.064863.064666c-.372568.388982-.753245.769658-1.142029,1.150334-.348344.348245-.704795.696687-1.069255,1.044932-.105304.097097-.210608.194392-.315912.299597-.340236.316011-.68848.631824-1.036725.955942-1.279863,1.158245-2.608275,2.284058-3.977227,3.377637-.299597.24304-.6075.486079-.923313.728921-.251147.186284-.502295.380874-.753344.567158-.76946.582979-1.555236,1.158245-2.357128,1.717097-2.259833,1.57946-4.61696,3.061824-7.079392,4.438784-.429324.24304-.858549.477971-1.29598.712903-.072872.040342-.145844.080881-.218617.121421-.469863.24304-.947834.493989-1.425608.737029-.494187.251147-.988275.502295-1.490471.745334-.008108,0-.016216.00791-.024324.016216-.48598.226626-.97196.461558-1.466049.688381-.032432.016216-.064764.032432-.097196.048647-.396892.186284-.793784.36446-1.198784.542637-.712903.316011-1.441824.631824-2.170844.931619-.388784.16196-.777568.315813-1.166451.469666-1.182568.477971-2.38946.923511-3.60446,1.344727-.48598.178176-.97196.340137-1.466147.502097-1.684666.567158-3.40196,1.085471-5.151489,1.563442-1.158344.315813-2.332903.6075-3.523579.890881-.550745.129529-1.109597.259255-1.668549.372568-.356451.089187-.712804.16196-1.069156.226824-.396892.089187-.801892.170068-1.215.251147-.891079.178176-1.790167.340137-2.705471.486079-.372568.072773-.737029.129529-1.109696.186284-.575068.097097-1.150236.186284-1.725304.259058-.526421.081079-1.061147.153853-1.595676.218716-.048647.016216-.097196.016216-.153853.016216-.502295.072971-1.0125.129727-1.522903.186284-.194392.032432-.388784.048647-.583176.064863-.550745.064863-1.117705.121421-1.676656.178176h-.024324c-.656049.064863-1.304088.121619-1.968344.170068-.485881.04054-.97196.072971-1.457941.105403s-.972059.064666-1.466049.088989c-.364559.024324-.729119.04054-1.101687.056755-2.033108.097097-4.114764.145745-6.220745.145745-.639932,0-1.279863-.008108-1.927903-.016216-.623617-.008108-1.263549-.016216-1.895273-.040342-1.344727-.032432-2.697363-.089187-4.058108-.162158-2.883647-.16196-5.767295-.16196-8.642736.072971-12.182432.996284-23.498108-3.734187-32.043549-12.279529-.534727-.534727-1.061147-1.085471-1.579559-1.652432-2.316588-2.551619-4.406451-5.394727-6.212736-8.496892-.396892-.688579-.793784-1.393176-1.166353-2.106079-.186284-.356353-.372568-.712903-.550745-1.077166-.721011-1.449932-1.393275-2.948511-1.992667-4.487432-.299696-.769658-.583275-1.547227-.858549-2.341011-.275471-.793784-.526619-1.595676-.769559-2.405676-.356451-1.215-.680372-2.454324-.963951-3.709863-.194392-.842234-.36446-1.692773-.518313-2.551421-.234932-1.287971-.429324-2.59196-.583176-3.912363-.259255-2.211284-.405-4.463108-.429324-6.763381,0-.137834-.024324-.259255-.04054-.388784-.121421-.769658,0-2.235806.153853-4.058306.259255,4.333579.955844,8.49709,2.033108,12.433579.218716.826216.461755,1.636216.712903,2.438108,1.150137,3.60446,2.624392,7.006619,4.373921,10.157432.388784.704597.793784,1.393176,1.206892,2.06554.421216.680273.85054,1.344529,1.287971,1.992568.218716.323921.445441.64804.672264.963853.461656.639932.923412,1.263647,1.401284,1.871147.242941.307705.48598.6075.72902.907295.737029.890881,1.49848,1.749529,2.292363,2.575745.267166.275471.526421.550745.801892.818108,8.545441,8.553647,19.861117,13.275813,32.043549,12.279529,2.867333-.234932,5.759088-.234932,8.634628-.072971,1.085372.056755,2.162637.105403,3.223784.137834.526421.016216,1.05304.032234,1.57946.04845.518412.008306,1.044932.016216,1.563245.024521,2.778442.032234,5.499932-.016216,8.156755-.15405,1.441824-.064666,2.867432-.16196,4.276824-.283381.704696-.064863,1.401284-.129727,2.097872-.19459,1.393275-.137637,2.770236-.299597,4.122872-.493989.510403-.072971,1.020608-.137637,1.522903-.218716.761353-.113511,1.506489-.234932,2.259833-.36446,2.235608-.380676,4.430775-.834324,6.569088-1.344529.477971-.113511.955844-.227021,1.425608-.348442.469863-.113313.939628-.234932,1.409392-.36446.93152-.251147,1.854932-.518313,2.770236-.785676.453549-.137637.907196-.275471,1.360844-.421216.6075-.186284,1.198784-.388784,1.798176-.583176.89098-.299795,1.773853-.615608,2.640608-.931619.874764-.315813,1.741421-.65595,2.59196-1.004194,1.13402-.461755,2.251824-.939727,3.353412-1.433716.550844-.251147,1.101588-.502295,1.644225-.76155.542834-.259255,1.077363-.518313,1.611892-.785676.518511-.267363,1.036824-.534529,1.555334-.801892.534529-.275471,1.061049-.56696,1.587568-.858647.518313-.291489,1.028716-.583176,1.538921-.874666,1.0125-.591284,2.008784-1.198784,2.980844-1.8225.477872-.299795.947736-.6075,1.409392-.915403.048549-.032432.097196-.064666.145844-.105205.44554-.291687.89098-.599392,1.328313-.907295.502295-.340137.996284-.696687,1.490471-1.06095.429324-.324119.858647-.639932,1.279764-.96405.453549-.348245.907196-.696687,1.344628-1.05304.44554-.356353.882872-.712705,1.320304-1.077166.356451-.299795.712804-.599392,1.069156-.899187.510403-.437432,1.0125-.882773,1.506687-1.336421.396892-.364658.801892-.737227,1.190676-1.101687.834324-.793784,1.652432-1.595676,2.438108-2.413784.36446-.372568.720813-.753245,1.077264-1.133921,1.29598-1.385266,2.535304-2.810676,3.709764-4.276824.550844-.672363,1.085471-1.360942,1.62-2.057432.307903-.421216.623716-.834324.923412-1.25554.2025-.283381.405-.558853.599491-.842432,1.206892-1.708989,2.340813-3.458518,3.410068-5.256892.218716-.356353.429324-.720813.631824-1.077363q.008108-.00791.008108-.016018c.267166-.453647.526421-.915403.777568-1.37696.16196-.283579.315813-.567158.469764-.858647.2025-.388784.405-.777568.615608-1.166353,1.198784-2.341011,2.300372-4.754795,3.288549-7.217227.016216-.032432.024324-.064863.04054-.097295,1.466147-3.612568,4.276824-9.242029,6.309932-12.530479.145745-.24304.291588-.477971.437432-.721011,1.158245-1.911489,2.251725-3.863716,3.272333-5.83196.315912-.599392.623716-1.206892.923412-1.814392.631824-1.271755,1.231216-2.543511,1.806284-3.839392.210608-.486079.421216-.96405.631824-1.449932.323921-.745334.631824-1.498579.931421-2.259932.226824-.56696.453647-1.133921.664255-1.709187.2025-.534529.405-1.077166.599392-1.62.518412-1.4175.996284-2.851216,1.441824-4.284734.178176-.56696.348245-1.134119.510304-1.701079.145844-.461755.275372-.923313.396892-1.393176.113412-.372568.210608-.745137.307804-1.117705.121421-.44554.234932-.899187.348245-1.344727.145844-.56696.283579-1.125813.413108-1.692773.105403-.421216.2025-.85054.291687-1.271755.097097-.429324.186284-.85054.275372-1.279863.113412-.526421.218617-1.05304.315912-1.587568.129529-.656147.24304-1.304187.356353-1.960334.081079-.477773.16196-.955745.234932-1.433518.113313-.656147.210608-1.304187.291588-1.960334.008108-.032432.016216-.072773.016216-.105205.008009-.032432.016117-.056755.016117-.089187.016216-.113313.032432-.226824.04054-.340137.081079-.558853.153853-1.117903.210608-1.676755.04054-.315813.081079-.639932.105304-.955745.097196-.826216.178275-1.652432.242941-2.486755.04054-.437432.072971-.882773.097295-1.320205.089088-1.190676.153853-2.381353.194392-3.572227.016216.332227.024324.656147.032432.988374.016216.267166.024324.534529.024324.801694.024225,1.296079.024225,2.592158.008009,3.879932Z" fill="#865924"/><path d="M185.596196,181.469326c-.469764-4.195745-2.025-7.881284-6.180304-8.691284-.291588-.056755-.599392-.048647-.882872.008108-4.163412.874863-5.718549,4.543989-6.188412,8.691284-.275471-3.823176-.429324-8.618511,1.069255-12.068921.939529-2.162834,2.518989-3.807158,5.111049-4.349795.291588-.056755.599392-.056755.89098,0,6.6825,1.296079,6.64196,10.052029,6.180304,16.410608Z" fill="#865924"/><path d="M358.709471,121.205207c-.008108.324119-.008108.639932-.024324.96405-.008108.340137-.016216.696489-.032432,1.036824v.040342c-.04054,1.190874-.105304,2.38155-.194392,3.572227-.024324.437432-.056755.882773-.097295,1.320205-.064666.834324-.145745,1.66054-.242941,2.486755-.024225.315813-.064764.639932-.105304.955745-.056755.558853-.129529,1.117903-.210608,1.676755-.008108.113313-.024324.226824-.04054.340137,0,.032432-.008108.056755-.016117.089187,0,.032432-.008108.072773-.016216.105205-.08098.656147-.178275,1.304187-.291588,1.960334-.072971.477773-.153853.955745-.234932,1.433518-.113313.656147-.226824,1.304187-.356353,1.960334-.097295.534529-.2025,1.061147-.315912,1.587568-.089088.429324-.178275.85054-.275372,1.279863-.089187.421216-.186284.85054-.291687,1.271755-.129529.56696-.267264,1.125813-.413108,1.692773-.113313.44554-.226824.899187-.348245,1.344727-.097196.372568-.194392.745137-.307804,1.117705-.12152.469863-.251049.931421-.396892,1.393176-.162059.56696-.332128,1.134119-.510304,1.701079-.44554,1.433518-.923412,2.867234-1.441824,4.284734-.194392.542834-.396892,1.085471-.599392,1.62-.210608.575266-.437432,1.142227-.664255,1.709187-.299597.761353-.6075,1.514597-.931421,2.259932-.210608.485881-.421216.963853-.631824,1.449932-.575068,1.295881-1.17446,2.567637-1.806284,3.839392-.299696.6075-.6075,1.215-.923412,1.814392-1.020608,1.968245-2.114088,3.920471-3.272333,5.83196-.145844.24304-.291687.477971-.437432.721011-1.190683,1.935824-2.454338,3.847521-3.782758,5.710373-.138227.193837-.24501.40796-.316881.634927-.663998,2.096894-1.400696,4.161187-2.210292,6.185179-.016216.032432-.024324.064863-.04054.097295-.988176,2.462432-2.089764,4.876216-3.288549,7.217227-.210608.388784-.413108.777568-.615608,1.166353-.153951.291489-.307804.575068-.469764.858647-.251147.461558-.510403.923313-.777568,1.37696q0,.008108-.008108.016018c-.2025.35655-.413108.721011-.631824,1.077363-1.069255,1.798374-2.203176,3.547903-3.410068,5.256892-.194491.283579-.396991.55905-.599491.842432-.299696.421216-.615509.834324-.923412,1.25554-.534529.696489-1.069156,1.385068-1.62,2.057432-1.17446,1.466147-2.413784,2.891558-3.709764,4.276824-.356451.380676-.712804.761353-1.077264,1.133921-.785676.818108-1.603784,1.62-2.438108,2.413784-.388784.36446-.793784.737029-1.190676,1.101687-.494187.453647-.996284.898989-1.506687,1.336421-.356353.299795-.712705.599392-1.069156.899187-.437432.36446-.874764.720813-1.320304,1.077166-.437432.356353-.891079.704795-1.344628,1.05304-.421117.324119-.850441.639932-1.279764.96405-.494187.364263-.988176.720813-1.490471,1.06095-.437333.307903-.882773.615608-1.328313.907295-.048647.04054-.097295.072773-.145844.105205-.461656.307903-.93152.615608-1.409392.915403-.972059.623716-1.968344,1.231216-2.980844,1.8225-.510205.291489-1.020608.583176-1.538921.874666-.52652.291687-1.05304.583176-1.587568.858647-.518511.267363-1.036824.534529-1.555334.801892-.534529.267363-1.069058.526421-1.611892.785676-.542637.259255-1.093381.510403-1.644225.76155-1.101588.493989-2.219392.97196-3.353412,1.433716-.85054.348245-1.717196.688381-2.59196,1.004194-.866755.316011-1.749628.631824-2.640608.931619-.599392.194392-1.190676.396892-1.798176.583176-.453647.145745-.907295.283579-1.360844.421216-.915304.267363-1.838716.534529-2.770236.785676-.469764.129529-.939529.251147-1.409392.36446-.469764.121421-.947637.234932-1.425608.348442-1.603784.380479-3.24.728921-4.90054,1.044734-.550745.105403-1.109597.2025-1.668549.299795-.753344.129529-1.49848.25095-2.259833.36446-.502295.081079-1.0125.145745-1.522903.218716-1.352637.186284-2.729597.348245-4.122872.493989-.696588.064863-1.393176.129727-2.097872.19459-1.409392.113313-2.835.21041-4.276824.283381-2.656824.137834-5.378313.186284-8.156755.15405-.518313-.008306-1.044833-.016216-1.563245-.024521-.526421-.016216-1.05304-.032234-1.57946-.04845-1.061147-.032432-2.138412-.081079-3.223784-.137834-1.595025-.088953-3.206253-.202407-4.841783-.348067-.179148-.015955-.362232-.008582-.539698.020651-1.092563.179978-2.177012.310617-3.253147.400387-12.182432.996284-23.498108-3.725881-32.043549-12.279529-.275471-.267363-.534727-.542637-.801892-.818108-.793883-.826216-1.555334-1.684863-2.292363-2.575745-.24304-.299795-.486079-.59959-.72902-.907295-.477872-.6075-.939628-1.231216-1.401284-1.871147-.226824-.315813-.453549-.639932-.672264-.963853-.437432-.64804-.866755-1.312295-1.287971-1.992568-.413108-.672363-.818108-1.360942-1.206892-2.06554-1.749529-3.150813-3.223784-6.552971-4.373921-10.157432-.251147-.801892-.494187-1.611892-.712903-2.438108-1.077264-3.936489-1.773853-8.1-2.033108-12.433579-.072773-1.085273-.113313-2.178853-.121421-3.280342,0-.129727-.016216-.259255-.04054-.388784-.16196-1.044932.113412-3.353511.315912-6.11554.461656-6.358579.502196-15.114529-6.180304-16.410608-.291588-.056755-.599392-.056755-.89098,0-2.592059.542637-4.17152,2.18696-5.111049,4.349795-1.498579,3.45041-1.344727,8.245745-1.069255,12.068921.194392,2.656824.461755,4.843784.275372,5.775205-.008009,1.231216-.056656,2.446216-.137736,3.653108-.056656,1.0125-.145745,2.016892-.259156,3.005266-.299696,2.697166-.777568,5.329666-1.401284,7.865068-.2025.834126-.429324,1.660342-.664156,2.470342-.477971,1.628306-1.020608,3.215874-1.62,4.762903-.453647,1.158245-.939628,2.292166-1.45804,3.40196-.348245.745137-.712804,1.466147-1.085471,2.18696-.372568.712903-.761353,1.4175-1.166353,2.106079-1.611892,2.770137-3.434392,5.329666-5.451284,7.670676-.502196.583176-1.020608,1.150137-1.547029,1.701079-8.456451,8.91-19.820775,13.9725-32.108511,13.211147-.267264-.016216-.542637-.032432-.81-.056755-.056656-.008108-.121421-.008108-.178176-.016216-.991759-.08951-1.983517-.211489-2.983477-.374547-.207646-.03386-.422-.03926-.630867-.014005-1.74092.210497-3.465628.388599-5.166029.526188-.502196.048647-.996383.081079-1.490372.113313-.372568.032432-.737128.056755-1.101687.081079-.866656.056755-1.733313.105205-2.583853.137637-.680471.032432-1.352637.056755-2.025.064863-.340137.016216-.672363.024324-1.004392.032432-.777568.016216-1.547128.024324-2.308579.024324h-.032333c-.72902,0-1.449833-.008108-2.170844-.024324-.1886,0-.377126-.006029-.560506-.00769-.627071-.00568-1.252788-.009189-1.878259-.054312-.331457-.023912-.665304-.031966-.987519-.051509-.599392-.032234-1.206892-.064666-1.798176-.105205-.801892-.048647-1.603784-.113511-2.397568-.186284-.785676-.064863-1.571353-.145745-2.34902-.234932-.502196-.056558-1.004392-.113313-1.49848-.178176-.332128-.04054-.664255-.089187-.996284-.129529-.52652-.072971-1.05304-.153853-1.579559-.234932-.226725-.032432-.453549-.072971-.672264-.105403-.623716-.105205-1.247432-.210608-1.86304-.323921-.145745-.024324-.299696-.056755-.44554-.081079-.526421-.105205-1.052941-.2025-1.57946-.315813-.259156-.056755-.526421-.113511-.785676-.170068-.599392-.121619-1.190676-.259255-1.78196-.405-.712903-.170068-1.425608-.348442-2.122295-.534727-.704597-.186284-1.393176-.380676-2.081656-.583176-.623617-.186284-1.239225-.372568-1.846725-.56696-.129727-.04054-.251147-.081079-.380775-.129529-.615608-.194392-1.215-.396892-1.8225-.615608-.631725-.218716-1.255441-.453647-1.871049-.688579-.056755-.024324-.113511-.048647-.170068-.064863-.615608-.242842-1.231216-.485881-1.838716-.745137-.583275-.24304-1.166451-.493989-1.733511-.745137-.097097-.048647-.194392-.089187-.283381-.129727-.575167-.259058-1.142227-.526421-1.701079-.801694-.032432-.008306-.064764-.024521-.089088-.040737-.575167-.283381-1.150236-.566763-1.709088-.85845-.591284-.315813-1.182568-.631824-1.757637-.955745-.575167-.324119-1.150334-.64804-1.717295-.988374-.558853-.340137-1.109696-.680273-1.66054-1.028716,0-.00791-.008108-.00791-.008108-.00791-.550745-.35655-1.093381-.712903-1.628009-1.077363-.510304-.348442-1.0125-.704795-1.506588-1.061147-.048647-.032432-.097295-.064863-.137736-.097295-.405-.299597-.801892-.599194-1.198784-.898989-.129628-.097295-.251049-.194392-.380775-.299795-.445441-.340137-.882773-.696489-1.320205-1.052842-.056755-.048647-.113412-.089187-.170068-.137637-.461755-.388982-.923511-.777766-1.377059-1.174658-.477872-.421216-.947736-.850342-1.409392-1.279863-.437432-.41291-.874764-.826216-1.29598-1.247234-.170068-.170266-.340236-.340334-.502295-.510403-.307705-.307705-.599392-.6075-.890881-.923313-.874863-.915403-1.709187-1.86304-2.519187-2.826892-.056656-.064863-.113313-.137637-.170068-.2025-1.587568-1.919795-3.053716-3.928579-4.406353-6.034658-.162059-.242842-.364559-.461558-.6075-.631626-2.413784-1.725403-4.714255-3.531687-6.909324-5.418853-.032432-.032432-.056755-.056755-.089187-.081079-1.320205-1.142227-2.608176-2.316687-3.8475-3.515471-.583176-.56696-1.158245-1.133921-1.717097-1.700881-.097295-.097295-.186284-.19459-.283579-.291687-.518313-.534529-1.020608-1.069255-1.530813-1.603784-.081079-.097097-.170167-.186284-.259255-.283579-.477872-.518313-.947637-1.044734-1.4175-1.57946-.04054-.048647-.089088-.105205-.137637-.16196-.550844-.631824-1.093579-1.263647-1.62-1.903579-.024324-.024324-.04054-.04845-.064863-.072773-1.05304-1.271755-2.057432-2.559727-3.029392-3.879932-.016216-.016216-.032432-.04054-.048647-.064863-.388784-.526421-.76946-1.06095-1.150137-1.595676-.170068-.24304-.340236-.486079-.502196-.728921-.405-.583374-.801991-1.166353-1.190775-1.757834-.453549-.696489-.907097-1.401284-1.344529-2.113989l-.008108-.008108c-.372568-.6075-.737128-1.223108-1.101588-1.838716-.097196-.178176-.2025-.348442-.307804-.526421-.315912-.550942-.623716-1.101687-.93152-1.66054-.48598-.899187-.963951-1.806482-1.433716-2.721687-.275372-.550745-.550844-1.109795-.826117-1.676558-.081079-.170266-.162059-.340334-.24304-.510403-.275471-.591284-.550844-1.182568-.81-1.773853-.737128-1.652432-1.425608-3.321079-2.06554-5.005745-.186284-.502295-.372568-1.00459-.550745-1.514795-.255248-.674139-.468498-1.388276-.73528-2.052467-.104899-.433061-.26318-.867053-.39874-1.301044-.145844-.461558-.28348-.923313-.421216-1.385068-.048549-.145745-.089088-.291489-.129628-.437432-.089088-.307705-.178176-.61541-.259156-.923313-.307804-1.061147-.583275-2.130403-.85054-3.207568-.089088-.380676-.178176-.76155-.267264-1.134119-.105304-.461558-.210608-.931421-.315912-1.393176-.089088-.421018-.170167-.85054-.259156-1.271755-.097295-.437234-.178176-.882773-.259255-1.336421-.08098-.453647-.16196-.898989-.234932-1.344529-.121421-.64804-.226824-1.304187-.315813-1.960334-.072971-.429126-.137736-.85845-.186284-1.295881-.097295-.712903-.186383-1.433716-.267363-2.154529l-.145745-1.360942c-.048647-.453647-.089187-.907097-.121619-1.360745-.040441-.453647-.072773-.907097-.105205-1.368853-.04054-.461755-.064863-.923511-.089187-1.385266-.024225-.445342-.048549-.898989-.064764-1.352637-.008009-.097097-.008009-.186284-.008009-.283381-.04054-.76155-.056755-1.531011-.072971-2.292363,0-.145745-.008108-.283381,0-.421216-.024324-1.790068,0-3.588245.08098-5.378313.032432-.704795.072872-1.40959.113412-2.106079v-.056755c.048647-.704597.105304-1.401284.16196-2.105881.056755-.631824.113511-1.263647.178176-1.895471.008108-.113313.024324-.226824.04054-.340137.089187-.826216.186284-1.652432.299795-2.478647.080881-.615608.170068-1.239324.267166-1.854932.089187-.623716.194491-1.239324.299795-1.86304.105205-.647842.218716-1.295881.348245-1.935813.113412-.6075.234932-1.215.36446-1.8225.032432-.145745.064863-.299597.097295-.453647.024324-.145745.056656-.283381.089088-.429324.137736-.599392.275372-1.206892.413108-1.806284,0-.008108.008009-.024324.016117-.032432.145844-.639932.307903-1.279666.469863-1.919597.024324-.097295.048647-.194392.072971-.291687.16196-.599392.323921-1.198784.493989-1.806284.024324-.097097.048647-.194392.081079-.291489.194392-.672363.388784-1.344727.599392-2.01709.430469-1.405021.885291-2.801692,1.380913-4.198784.072638-.204756.115287-.419669.125676-.636679.064763-1.35284.15395-2.705481.267264-4.050015,0-.081079.008108-.170266.024324-.251147.008108-.153853.016216-.299795.032432-.453647.064764-.76946.145745-1.538921.226824-2.308579,0-.048647.008108-.088989.016117-.137637.08098-.728921.170167-1.449932.267264-2.162637.008108-.121619.024324-.24304.048647-.364658.089088-.672166.186284-1.344529.291588-2.016694,0-.048647.008108-.105403.024324-.15405.097196-.672166.210608-1.344529.332128-2.016892.024324-.194392.056656-.380676.105205-.575068.113511-.64804.234932-1.296079.364559-1.936011.048549-.25095.097196-.502097.153951-.745137,0-.040342.008108-.072773.024324-.105205.080881-.413108.16196-.818108.251049-1.223108.048549-.226824.097196-.44554.153951-.664255.105205-.486079.218617-.963853.340137-1.441824.048647-.25095.113412-.510205.186284-.761353.137637-.56696.283579-1.125813.429324-1.684863.032432-.153853.072872-.299597.121421-.44554.137834-.518313.283579-1.028716.437432-1.538921.072971-.299795.16196-.599392.259255-.898989.137637-.469863.28348-.939727.429324-1.40959.056656-.21041.121421-.421216.194392-.623716.186284-.575068.372568-1.142029.56696-1.717097.048647-.145745.097196-.283381.145745-.421216.194392-.56696.396892-1.142029.615608-1.709187.048647-.161763.105403-.323921.170167-.477773.242941-.64804.48598-1.296079.745236-1.936011-.008108-.016216,0-.024126.016216-.040342.210509-.542637.429225-1.077363.647941-1.611892.113412-.291687.234833-.575266.364559-.858647.218617-.526619.453549-1.05304.680273-1.571353.032432-.081079.072971-.16196.113511-.24304.307705-.688579.623716-1.368853.947637-2.041216.291588-.6075.583176-1.215.891079-1.814392.056558-.129529.121421-.251147.186284-.372568.307705-.599392.623716-1.198784.939529-1.798176.024324-.056755.056755-.113511.089187-.162158.210509-.388784.421117-.777568.639833-1.158245.194392-.372568.405-.737029.615608-1.101687.332128-.591284.680372-1.174263,1.028617-1.749529.380775-.631824.777667-1.271755,1.174559-1.895471.32402-.502097.647941-1.0125.980167-1.506489.510205-.785676,1.036725-1.555137,1.57946-2.316489.429324-.6075.866755-1.20709,1.312196-1.806284.469764-.639932.947736-1.263647,1.441725-1.887363.469863-.6075.955844-1.206892,1.441824-1.798374,1.952128-2.381353,4.041892-4.66541,6.253176-6.852568.396892-.396694.801892-.785676,1.206892-1.166353.153951-.153853.307903-.307705.469863-.453647.486079-.45345.97196-.898989,1.466147-1.344529.088989-.080881.178176-.16196.267264-.24304.405-.36446.826216-.728921,1.247333-1.093381.210608-.178176.421216-.36446.631824-.534727.437432-.380676.882971-.745137,1.33652-1.109597.429324-.348442.858549-.696687,1.304088-1.044932,1.425608-1.126011,2.899863-2.211284,4.41446-3.256216.583275-.405,1.166451-.801892,1.765942-1.190676.542637-.36446,1.093381-.712903,1.652333-1.069255.129628-.081079.259156-.16196.388784-.242842.558951-.348442,1.117804-.688579,1.684764-1.028716.113511-.064863.234932-.137834.356451-.210806.583176-.340137,1.166451-.680273,1.765844-1.0125.777568-.437234,1.555137-.85845,2.357029-1.271558.664255-.356353,1.33652-.696687,2.016892-1.036824.04054-.016216.072971-.032432.105403-.048647.712705-.348245,1.425509-.696687,2.146421-1.028716.016216-.008108.032432-.016216.056755-.024324.737029-.340137,1.482264-.680273,2.235608-1.004392.008108,0,.008108-.008108.016216-.008108.745137-.323921,1.506489-.639932,2.267941-.947637.024225-.008108.048549-.024324.072872-.032432.745236-.299597,1.490471-.591284,2.251824-.874863.048647-.024126.097196-.040342.145745-.056558.591284-.226824,1.182667-.437432,1.790167-.656147.234833-.088989.477872-.170068.720912-.251147.615608-.210608,1.231216-.421216,1.854932-.623716.186284-.064666.36446-.121421.550745-.178176.712804-.226824,1.441824-.45345,2.162637-.664255.793784-.234734,1.595775-.469666,2.397667-.688381.056656-.016216.105304-.024324.153951-.04054.826117-.218716,1.652333-.437432,2.486656-.639932.6075-.153853,1.223009-.299597,1.838617-.437432.340334-.080881.672363-.153853,1.0125-.226626.777667-.170068,1.555334-.332227,2.349119-.486079.680273-.137637,1.360745-.267363,2.049225-.388784.064764-.016216.137736-.024324.2025-.032432.267264-.056755.534628-.097295.801991-.145745.76946-.129529,1.538921-.251147,2.316489-.372766.907295-.137637,1.8225-.267166,2.746011-.380479.915205-.121619,1.838617-.227021,2.770137-.332227.024324,0,.048647-.008108.072872-.008108.923412-.097097,1.846824-.178176,2.778344-.259255.866656-.072773,1.741421-.137637,2.616284-.194194.145745-.016216.28348-.024521.421216-.024521.858647-.056558,1.709088-.097097,2.575745-.137637.137736-.008108.267363-.016216.405-.016216.874863-.032432,1.749628-.064863,2.6325-.080881h.089187c.988176-.024324,1.98446-.032432,2.988853-.032432h.008108c.899088,0,1.806284.008108,2.71348.024324.664156.008108,1.328412.024126,2.000775.048647.388784.00791.785676.024126,1.182568.040342,1.702649.0727,3.42159.169348,5.164441.290333l.544356-.022712c1.458563-.226917,2.941387-.445724,4.424311-.64019.137637-.016216.267264-.032432.405-.048647.558853-.072773,1.117705-.137637,1.684764-.2025.866656-.105205,1.74152-.194392,2.608176-.283381.769559-.072971,1.530912-.137834,2.300372-.194392.283579-.024324.558951-.04054.834324-.056755.332128-.024324.672363-.048647,1.004392-.064863.405-.024324.81-.04845,1.206892-.064666.137736-.008108.267363-.016216.396892-.016216.307903-.016216.615608-.024324.923511-.032432,6.002029-.178176,11.842097.259058,17.066558,1.757637.348442.097295.688579.194392,1.020608.307903,1.126011.356353,2.211383.761353,3.264324,1.231018.388784.162158.777568.340334,1.150236.526619.364559.178176.72902.36446,1.085372.56696,1.37696.745137,2.681147,1.611892,3.904255,2.600068.380676.307903.753245.631824,1.117705.963853,0,0,.008108,0,.008108.008306.178275.16196.364559.332029.542834.510205,4.811353,4.681824,7.994597,11.680137,8.626421,21.878108-.072872,0-.072872,72.592097-.008108,81.793784.008108.421216.348245.737029.76946.737029h.064863c.413108.008306.761353-.315813.76946-.728921v-6.577295c-.016216-15.55196-.016216-51.102773,0-66.922097-.008108-4.301147,0-7.136147,0-7.727432.234932-3.175137.696687-6.03446,1.360844-8.618313q0-.008108.008108-.016216c.745236-2.899863,1.757736-5.443176,2.99696-7.670676.226824-.405.453549-.793982.68848-1.16655.429324-.688381.882971-1.344529,1.360844-1.976353.242941-.323921.494088-.639932.753344-.939529.242941-.291687.493989-.575068.745137-.85054.170068-.186284.348245-.372568.52652-.550745,3.604559-3.677432,8.156656-5.986011,13.275912-7.33054.380676-.105205.761353-.2025,1.150137-.291489.364559-.089187.737128-.170266,1.117903-.243237.421216-.088989.850441-.170068,1.279764-.242842.097196-.024324.194392-.04054.299696-.048647.429324-.081079.866755-.145745,1.312196-.210608.08098-.016216.170068-.024324.259156-.032432.437432-.064666.874863-.121421,1.320403-.16196,2.527097-.291489,5.143381-.413108,7.808313-.413108.639932,0,1.279863.008108,1.919696.024324.64804.008108,1.304088.032432,1.952128.056755.550745.024324,1.09348.04845,1.644324.080881.226824.008108.453549.024324.680372.04054.542736.032432,1.077264.064863,1.62.105403.631725.04845,1.263549.097097,1.895372.153853.032432,0,.056755.008108.089187.008108.664156.056755,1.328313.121421,1.98446.186284.24304.024324.48598.04845.728921.072971,1.085471.113313,2.170844.234734,3.248108.36446.129628.016018.251147.032234.380676.04054,2.057883.251005,4.107654.526542,6.133088.810186.187084.026199.376263.03028.564399.013203,2.038612-.185047,4.053204-.321783,6.035789-.418389.048549,0,.105304-.008306.153951-.008306,4.341489-.21041,8.545441-.21041,12.619764-.016216.518412.016216,1.036725.048647,1.555236.081079.575068.032432,1.150137.072971,1.717097.113511,3.118579.234932,6.147971.583176,9.088176,1.036626.518511.081079,1.036824.162158,1.547227.251147.704597.121619,1.409392.251147,2.097773.380874.534727.105205,1.061147.2025,1.579559.315813.680372.145745,1.360844.291687,2.033108.44554.874764.194392,1.74152.405,2.592059.631626.299597.072971.591284.15405.890881.234932,1.296079.348442,2.567834.721011,3.823275,1.109795.405.129529.801892.259058,1.198784.388784.48598.153853.963951.316011,1.433716.486079.453549.153853.899088.315813,1.33652.477773.575068.210608,1.142029.421216,1.709088.639932.388784.153853.76946.307705,1.150236.461755.461656.186284.915205.372568,1.368853.56696.44554.194392.89098.388784,1.344529.583176.44554.2025.882971.396892,1.320403.6075.437432.2025.874764.413108,1.312097.623716.818108.396892,1.62.801892,2.413883,1.231216,1.052941.558853,2.081656,1.133921,3.094156,1.725403.380676.226626.753344.45345,1.125912.680273.307804.186284.615608.380676.915304.56696.372568.234932.72902.461755,1.093579.704795.388784.25095.76946.502097,1.150137.761353.008108.008108.008108.016216.016216.016216.380676.259255.761353.518313,1.133921.785676.405.283579.801892.575068,1.198784.866755.512857.369362,1.007721.756717,1.511086,1.135583.604642.455094,1.196098.932487,1.776537,1.418071.320486.268112.633983.530514.940652.799659.704696.599392,1.393176,1.206892,2.073549,1.8225.656147.6075,1.296079,1.223108,1.927903,1.846824.267264.259255.526421.526619.785676.793784,1.668549,1.701079,3.256216,3.474932,4.746588,5.321755l.72902.923313c.36446.461755.720813.931619,1.069156,1.409392.186284.24304.364559.486079.542736.737227.777568,1.069058,1.530813,2.162637,2.243716,3.280342.259156.388784.502097.777766.745137,1.174658.016216.024126.032432.056558.048647.080881.396892.631824.777568,1.271755,1.150137,1.919795.510403.882971.996284,1.773853,1.474255,2.67304.961775,1.834753,1.859164,3.709674,2.675856,5.633213.10022.236045.239289.454645.411019.645092,1.63585,1.814136,3.190843,3.668603,4.664781,5.5719.461656.583176.915304,1.17446,1.352736,1.773853.153853.2025.299696.39709.437432.59959.299597.396694.591284.801694.874764,1.206694.137736.186284.275372.372568.396892.567158.380676.526421.745236,1.061147,1.101588,1.595676.04054.056755.081079.113313.12152.178176.332128.493989.656049.988176.972059,1.490273.2025.299795.388784.59959.575068.907295.372568.575068.728921,1.158245,1.077264,1.741421.291588.486079.575167.972158.850441,1.45804,1.603784,2.754119,3.053716,5.564795,4.366011,8.432029.2025.437432.405.882971.591284,1.328511.421216.923511.818108,1.854932,1.190676,2.79446.178176.429324.356353.866755.518313,1.304187.105403.259058.210608.518313.307903.785676.121421.307903.234932.615608.348245.931421.218716.583176.429324,1.16655.631824,1.749727.008108.016018.016216.04054.016216.064666.194392.526619.372568,1.061147.542637,1.587568.121619.35655.234932.721011.348344,1.085471.097196.275471.178275.55905.259156.842432.114103.34936.221924.698719.328993,1.053609.63013,2.088628,1.183199,4.201281,1.659051,6.330364.16616.743441.333843,1.487148.482496,2.230625.097196.486079.194392.972158.283579,1.45804.242941,1.206892.445441,2.421892.631725,3.645.105304.656147.194392,1.304187.28348,1.960334,0,.016216.008108.032432,0,.048647.097295.688381.186284,1.376763.259255,2.065342.016216.137637.032432.275471.048549.413108.056656.486079.105304.96405.145844,1.441824.048647.461755.089088.931421.121421,1.393176.008108.056755.016216.113313.016216.170068.056755.664255.097295,1.336619.137736,2.000676.040441.55905.064764,1.126011.089088,1.684863.024324.534727.048647,1.077363.056755,1.611892.016216.307903.024324.6075.024324.907295.032333,1.287773.032333,2.583853.008108,3.879734Z" fill="#e5c8a7"/><path d="M358.709471,121.205207c-.008108.324119-.008108.639932-.024324.96405-.008108.340137-.016216.696489-.032432,1.036824v.040342c-.04054,1.190874-.105304,2.38155-.194392,3.572227-.024324.437432-.056755.882773-.097295,1.320205-.064666.834324-.145745,1.66054-.242941,2.486755-.024225.315813-.064764.639932-.105304.955745-.056755.558853-.129529,1.117903-.210608,1.676755-.008108.113313-.024324.226824-.04054.340137,0,.032432-.008108.056755-.016117.089187,0,.032432-.008108.072773-.016216.105205-.08098.656147-.178275,1.304187-.291588,1.960334-.072971.477773-.153853.955745-.234932,1.433518-.113313.656147-.226824,1.304187-.356353,1.960334-.097295.534529-.2025,1.061147-.315912,1.587568-.089088.429324-.178275.85054-.275372,1.279863-.089187.421216-.186284.85054-.291687,1.271755-.129529.56696-.267264,1.125813-.413108,1.692773-.113313.44554-.226824.899187-.348245,1.344727-.097196.372568-.194392.745137-.307804,1.117705-.12152.469863-.251049.931421-.396892,1.393176-.162059.56696-.332128,1.134119-.510304,1.701079-.44554,1.433518-.923412,2.867234-1.441824,4.284734-.194392.542834-.396892,1.085471-.599392,1.62-.210608.575266-.437432,1.142227-.664255,1.709187-.299597.761353-.6075,1.514597-.931421,2.259932-.210608.485881-.421216.963853-.631824,1.449932-.575068,1.295881-1.17446,2.567637-1.806284,3.839392-.299696.6075-.6075,1.215-.923412,1.814392-1.020608,1.968245-2.114088,3.920471-3.272333,5.83196-.145844.24304-.291687.477971-.437432.721011-2.033108,3.28845-4.843784,8.91791-6.309932,12.530479-.016216.032432-.024324.064863-.04054.097295-.988176,2.462432-2.089764,4.876216-3.288549,7.217227-.210608.388784-.413108.777568-.615608,1.166353-.153951.291489-.307804.575068-.469764.858647-.251147.461558-.510403.923313-.777568,1.37696q0,.008108-.008108.016018c-.2025.35655-.413108.721011-.631824,1.077363-1.069255,1.798374-2.203176,3.547903-3.410068,5.256892-.194491.283579-.396991.55905-.599491.842432-.299696.421216-.615509.834324-.923412,1.25554-.534529.696489-1.069156,1.385068-1.62,2.057432-1.17446,1.466147-2.413784,2.891558-3.709764,4.276824-.356451.380676-.712804.761353-1.077264,1.133921-.785676.818108-1.603784,1.62-2.438108,2.413784-.388784.36446-.793784.737029-1.190676,1.101687-.494187.453647-.996284.898989-1.506687,1.336421-.356353.299795-.712705.599392-1.069156.899187-.437432.36446-.874764.720813-1.320304,1.077166-.437432.356353-.891079.704795-1.344628,1.05304-.421117.324119-.850441.639932-1.279764.96405-.494187.364263-.988176.720813-1.490471,1.06095-.437333.307903-.882773.615608-1.328313.907295-.048647.04054-.097295.072773-.145844.105205-.461656.307903-.93152.615608-1.409392.915403-.972059.623716-1.968344,1.231216-2.980844,1.8225-.510205.291489-1.020608.583176-1.538921.874666-.52652.291687-1.05304.583176-1.587568.858647-.518511.267363-1.036824.534529-1.555334.801892-.534529.267363-1.069058.526421-1.611892.785676-.542637.259255-1.093381.510403-1.644225.76155-1.101588.493989-2.219392.97196-3.353412,1.433716-.85054.348245-1.717196.688381-2.59196,1.004194-.866755.316011-1.749628.631824-2.640608.931619-.599392.194392-1.190676.396892-1.798176.583176-.453647.145745-.907295.283579-1.360844.421216-.915304.267363-1.838716.534529-2.770236.785676-.469764.129529-.939529.251147-1.409392.36446-.469764.121421-.947637.234932-1.425608.348442-1.603784.380479-3.24.737029-4.90054,1.044734-.550745.105403-1.109597.2025-1.668549.299795-.753344.129529-1.49848.25095-2.259833.36446-.502295.081079-1.0125.145745-1.522903.218716-1.352637.194392-2.729597.356353-4.122872.493989-.696588.064863-1.393176.129727-2.097872.19459-1.409392.121421-2.835.218716-4.276824.283381-2.656824.137834-5.378313.186284-8.156755.15405-.518313-.008306-1.044833-.016216-1.563245-.024521-.526421-.016216-1.05304-.032234-1.57946-.04845-1.061147-.032432-2.138412-.081079-3.223784-.137834-2.87554-.16196-5.767295-.16196-8.634628.072971-12.182432.996284-23.498108-3.725881-32.043549-12.279529-.275471-.267363-.534727-.542637-.801892-.818108-.793883-.826216-1.555334-1.684863-2.292363-2.575745-.24304-.299795-.486079-.59959-.72902-.907295-.477872-.6075-.939628-1.231216-1.401284-1.871147-.226824-.315813-.453549-.639932-.672264-.963853-.437432-.64804-.866755-1.312295-1.287971-1.992568-.413108-.672363-.818108-1.360942-1.206892-2.06554-1.749529-3.150813-3.223784-6.552971-4.373921-10.157432-.251147-.801892-.494187-1.611892-.712903-2.438108-1.077264-3.936489-1.773853-8.1-2.033108-12.433579-.072773-1.085273-.113313-2.178853-.121421-3.280342,0-.129727-.016216-.259255-.04054-.388784-.16196-1.044932.113412-3.353511.315912-6.11554.461656-6.358579.502196-15.114529-6.180304-16.410608-.291588-.056755-.599392-.056755-.89098,0-2.592059.542637-4.17152,2.18696-5.111049,4.349795-1.498579,3.45041-1.344727,8.245745-1.069255,12.068921.194392,2.656824.461755,4.843784.275372,5.775205-.008009,1.231216-.056656,2.446216-.137736,3.653108-.056656,1.0125-.145745,2.016892-.259156,3.005266-.299696,2.697166-.777568,5.329666-1.401284,7.865068-.2025.834126-.429324,1.660342-.664156,2.470342-.477971,1.628306-1.020608,3.215874-1.62,4.762903-.453647,1.158245-.939628,2.292166-1.45804,3.40196-.348245.745137-.712804,1.466147-1.085471,2.18696-.372568.712903-.761353,1.4175-1.166353,2.106079-1.611892,2.770137-3.434392,5.329666-5.451284,7.670676-.502196.583176-1.020608,1.150137-1.547029,1.701079-8.456451,8.91-19.820775,13.9725-32.108511,13.211147-.267264-.016216-.542637-.032432-.81-.056755-.056656-.008108-.121421-.008108-.178176-.016216-2.697264-.210608-5.394529-.15405-8.083784.080881-.234932.024324-.469863.04054-.696588.056755-.502196.048647-.996383.081079-1.490372.113313-.372568.032432-.737128.056755-1.101687.081079-.866656.056755-1.733313.105205-2.583853.137637-.680471.032432-1.352637.056755-2.025.064863-.340137.016216-.672363.024324-1.004392.032432-.777568.016216-1.547128.024324-2.308579.024324h-.032333c-.72902,0-1.449833-.008108-2.170844-.024324-.218716,0-.437333-.008108-.647941-.008108-.656049-.016216-1.312196-.04054-1.960236-.064863-.275372-.016018-.550745-.024324-.818108-.04054-.599392-.032234-1.206892-.064666-1.798176-.105205-.801892-.048647-1.603784-.113511-2.397568-.186284-.785676-.064863-1.571353-.145745-2.34902-.234932-.502196-.056558-1.004392-.113313-1.49848-.178176-.332128-.04054-.664255-.089187-.996284-.129529-.52652-.072971-1.05304-.153853-1.579559-.234932-.226725-.032432-.453549-.072971-.672264-.105403-.623716-.105205-1.247432-.210608-1.86304-.323921-.145745-.024324-.299696-.056755-.44554-.081079-.526421-.105205-1.052941-.2025-1.57946-.315813-.259156-.056755-.526421-.113511-.785676-.170068-.599392-.121619-1.190676-.259255-1.78196-.405-.712903-.170068-1.425608-.348442-2.122295-.534727-.704597-.186284-1.393176-.380676-2.081656-.583176-.623617-.186284-1.239225-.372568-1.846725-.56696-.129727-.04054-.251147-.081079-.380775-.129529-.615608-.194392-1.215-.396892-1.8225-.615608-.631725-.218716-1.255441-.453647-1.871049-.688579-.056755-.024324-.113511-.048647-.170068-.064863-.615608-.242842-1.231216-.485881-1.838716-.745137-.583275-.24304-1.166451-.493989-1.733511-.745137-.097097-.048647-.194392-.089187-.283381-.129727-.575167-.259058-1.142227-.526421-1.701079-.801694-.032432-.008306-.064764-.024521-.089088-.040737-.575167-.283381-1.150236-.566763-1.709088-.85845-.591284-.315813-1.182568-.631824-1.757637-.955745-.575167-.324119-1.150334-.64804-1.717295-.988374-.558853-.340137-1.109696-.680273-1.66054-1.028716,0-.00791-.008108-.00791-.008108-.00791-.550745-.35655-1.093381-.712903-1.628009-1.077363-.510304-.348442-1.0125-.704795-1.506588-1.061147-.048647-.032432-.097295-.064863-.137736-.097295-.405-.299597-.801892-.599194-1.198784-.898989-.129628-.097295-.251049-.194392-.380775-.299795-.445441-.340137-.882773-.696489-1.320205-1.052842-.056755-.048647-.113412-.089187-.170068-.137637-.461755-.388982-.923511-.777766-1.377059-1.174658-.477872-.421216-.947736-.850342-1.409392-1.279863-.437432-.41291-.874764-.826216-1.29598-1.247234-.170068-.170266-.340236-.340334-.502295-.510403-.307705-.307705-.599392-.6075-.890881-.923313-.874863-.915403-1.709187-1.86304-2.519187-2.826892-.056656-.064863-.113313-.137637-.170068-.2025-3.645-4.341687-7.630137-8.375471-11.923176-12.085137-.032432-.032432-.056755-.056755-.089187-.081079-1.320205-1.142227-2.608176-2.316687-3.8475-3.515471-.583176-.56696-1.158245-1.133921-1.717097-1.700881-.097295-.097295-.186284-.19459-.283579-.291687-.518313-.534529-1.020608-1.069255-1.530813-1.603784-.081079-.097097-.170167-.186284-.259255-.283579-.477872-.518313-.947637-1.044734-1.4175-1.57946-.04054-.048647-.089088-.105205-.137637-.16196-.550844-.631824-1.093579-1.263647-1.62-1.903579-.024324-.024324-.04054-.04845-.064863-.072773-1.044932-1.271755-2.057432-2.567834-3.029392-3.879932-.016216-.016216-.032432-.04054-.048647-.064863-.388784-.526421-.76946-1.06095-1.150137-1.595676-.170068-.24304-.340236-.486079-.502196-.728921-.405-.583374-.801991-1.166353-1.190775-1.757834-.453549-.696489-.907097-1.401284-1.344529-2.113989l-.008108-.008108c-.372568-.6075-.737128-1.223108-1.101588-1.838716-.097196-.178176-.2025-.348442-.307804-.526421-.315912-.550942-.623716-1.101687-.93152-1.66054-.48598-.899187-.963951-1.806482-1.433716-2.721687-.275372-.550745-.550844-1.109795-.826117-1.676558-.081079-.170266-.162059-.340334-.24304-.510403-.275471-.591284-.550844-1.182568-.81-1.773853-.737128-1.652432-1.425608-3.321079-2.06554-5.005745-.186284-.502295-.372568-1.00459-.550745-1.514795-.113511-.299795-.218716-.6075-.32402-.915205-.194491-.550942-.380775-1.101687-.558951-1.660737-.08098-.259058-.170068-.518313-.251049-.777568-.145844-.461558-.28348-.923313-.421216-1.385068-.048549-.145745-.089088-.291489-.129628-.437432-.089088-.307705-.178176-.61541-.259156-.923313-.307804-1.061147-.583275-2.130403-.85054-3.207568-.089088-.380676-.178176-.76155-.267264-1.134119-.105304-.461558-.210608-.931421-.315912-1.393176-.089088-.421018-.170167-.85054-.259156-1.271755-.097295-.437234-.178176-.882773-.259255-1.336421-.08098-.453647-.16196-.898989-.234932-1.344529-.121421-.64804-.226824-1.304187-.315813-1.960334-.072971-.429126-.137736-.85845-.186284-1.295881-.097295-.712903-.186383-1.433716-.267363-2.154529l-.145745-1.360942c-.048647-.453647-.089187-.907097-.121619-1.360745-.040441-.453647-.072773-.907097-.105205-1.368853-.04054-.461755-.064863-.923511-.089187-1.385266-.024225-.445342-.048549-.898989-.064764-1.352637-.008009-.097097-.008009-.186284-.008009-.283381-.04054-.76155-.056755-1.531011-.072971-2.292363,0-.145745-.008108-.283381,0-.421216-.024324-1.790068,0-3.588245.08098-5.378313.032432-.704795.072872-1.40959.113412-2.106079v-.056755c.048647-.704597.105304-1.401284.16196-2.105881.056755-.631824.113511-1.263647.178176-1.895471.008108-.113313.024324-.226824.04054-.340137.089187-.826216.186284-1.652432.299795-2.478647.080881-.615608.170068-1.239324.267166-1.854932.089187-.623716.194491-1.239324.299795-1.86304.105205-.647842.218716-1.295881.348245-1.935813.113412-.6075.234932-1.215.36446-1.8225,0-.024324,0-.04054.008108-.064863.008108-.016216.008108-.032234.008108-.04054.024324-.121421.048647-.234932.081079-.348245.024324-.145745.056656-.283381.089088-.429324.137736-.599392.275372-1.206892.413108-1.806284,0-.008108.008009-.024324.016117-.032432.145844-.639932.307903-1.279666.469863-1.919597.024324-.097295.048647-.194392.072971-.291687.16196-.599392.323921-1.198784.493989-1.806284.024324-.097097.048647-.194392.081079-.291489.194392-.672363.388784-1.344727.599392-2.01709.016216-.056558.032432-.121421.048549-.177979.874764-2.810874,1.449932-5.71054,1.709088-8.650942.008108-.056558.008108-.113313.016216-.170068,0-.032432.008108-.064863.008108-.097295.016216-.16196.032432-.332029.048647-.493989.064764-.76946.145745-1.538921.226824-2.308579,0-.048647.008108-.088989.016117-.137637.08098-.728921.170167-1.449932.267264-2.162637.008108-.121619.024324-.24304.048647-.364658.089088-.672166.186284-1.344529.291588-2.016694,0-.048647.008108-.105403.024324-.15405.097196-.672166.210608-1.344529.332128-2.016892.024324-.194392.056656-.380676.105205-.575068.113511-.64804.234932-1.296079.364559-1.936011.048549-.299597.113412-.591284.178275-.882773,0-.04054.008009-.072971.016117-.105205.072872-.364658.153951-.729119.234932-1.085471.048549-.226824.097196-.44554.153951-.664255.105205-.486079.218617-.963853.340137-1.441824.048647-.25095.113412-.510205.186284-.761353.137637-.56696.283579-1.125813.429324-1.684863.032432-.153853.072872-.299597.121421-.44554.137834-.518313.283579-1.028716.437432-1.538921.072971-.299795.16196-.599392.259255-.898989.137637-.469863.28348-.939727.429324-1.40959.056656-.21041.121421-.421216.194392-.623716.186284-.575068.372568-1.142029.56696-1.717097.048647-.145745.097196-.283381.145745-.421216.194392-.56696.396892-1.142029.615608-1.709187.048647-.161763.105403-.323921.170167-.477773.242941-.64804.48598-1.296079.745236-1.936011-.008108-.016216,0-.024126.016216-.040342.210509-.542637.429225-1.077363.647941-1.611892.113412-.291687.234833-.575266.364559-.858647.218617-.526619.453549-1.05304.680273-1.571353.032432-.081079.072971-.16196.113511-.24304.307705-.688579.623716-1.368853.947637-2.041216.291588-.6075.583176-1.215.891079-1.814392.056558-.129529.121421-.251147.186284-.372568.307705-.599392.623716-1.198784.939529-1.798176.024324-.056755.056755-.113511.089187-.162158.210509-.388784.421117-.777568.639833-1.158245.194392-.372568.405-.737029.615608-1.101687.332128-.591284.680372-1.174263,1.028617-1.749529.380775-.631824.777667-1.271755,1.174559-1.895471.32402-.502097.647941-1.0125.980167-1.506489.510205-.785676,1.036725-1.555137,1.57946-2.316489.429324-.6075.866755-1.20709,1.312196-1.806284.469764-.639932.947736-1.263647,1.441725-1.887363.469863-.6075.955844-1.206892,1.441824-1.798374,1.952128-2.381353,4.041892-4.66541,6.253176-6.852568.396892-.396694.801892-.785676,1.206892-1.166353.153951-.153853.307903-.307705.469863-.453647.486079-.45345.97196-.898989,1.466147-1.344529.088989-.080881.178176-.16196.267264-.24304.405-.36446.826216-.728921,1.247333-1.093381.210608-.178176.421216-.36446.631824-.534727.437432-.380676.882971-.745137,1.33652-1.109597.429324-.348442.858549-.696687,1.304088-1.044932,1.425608-1.126011,2.899863-2.211284,4.41446-3.256216.583275-.405,1.166451-.801892,1.765942-1.190676.542637-.36446,1.093381-.712903,1.652333-1.069255.129628-.081079.259156-.16196.388784-.242842.558951-.348442,1.117804-.688579,1.684764-1.028716.113511-.064863.234932-.137834.356451-.210806.583176-.340137,1.166451-.680273,1.765844-1.0125.777568-.437234,1.555137-.85845,2.357029-1.271558.664255-.356353,1.33652-.696687,2.016892-1.036824.04054-.016216.072971-.032432.105403-.048647.712705-.348245,1.425509-.696687,2.146421-1.028716.016216-.008108.032432-.016216.056755-.024324.737029-.340137,1.482264-.680273,2.235608-1.004392.008108,0,.008108-.008108.016216-.008108.745137-.323921,1.506489-.639932,2.267941-.947637.024225-.008108.048549-.024324.072872-.032432.745236-.299597,1.490471-.591284,2.251824-.874863.048647-.024126.097196-.040342.145745-.056558.591284-.226824,1.182667-.437432,1.790167-.656147.234833-.088989.477872-.170068.720912-.251147.615608-.210608,1.231216-.421216,1.854932-.623716.186284-.064666.36446-.121421.550745-.178176.712804-.226824,1.441824-.45345,2.162637-.664255.793784-.234734,1.595775-.469666,2.397667-.688381.056656-.016216.105304-.024324.153951-.04054.826117-.218716,1.652333-.437432,2.486656-.639932.6075-.153853,1.223009-.299597,1.838617-.437432.340334-.080881.672363-.153853,1.0125-.226626.777667-.170068,1.555334-.332227,2.349119-.486079.680273-.137637,1.360745-.267363,2.049225-.388784.064764-.016216.137736-.024324.2025-.032432.267264-.056755.534628-.097295.801991-.145745.76946-.129529,1.538921-.251147,2.316489-.372766.907295-.137637,1.8225-.267166,2.746011-.380479.915205-.121619,1.838617-.227021,2.770137-.332227.024324,0,.048647-.008108.072872-.008108.923412-.097097,1.846824-.178176,2.778344-.259255.866656-.072773,1.741421-.137637,2.616284-.194194.145745-.016216.28348-.024521.421216-.024521.858647-.056558,1.709088-.097097,2.575745-.137637.137736-.008108.267363-.016216.405-.016216.874863-.032432,1.749628-.064863,2.6325-.080881h.089187c.988176-.024324,1.98446-.032432,2.988853-.032432h.008108c.899088,0,1.806284.008108,2.71348.024324.664156.008108,1.328412.024126,2.000775.048647.388784.00791.785676.024126,1.182568.040342,3.377637.129727,6.76348.032432,10.133108-.372568.137637-.016216.267264-.032432.405-.048647.558853-.072773,1.117705-.137637,1.684764-.2025.866656-.105205,1.74152-.194392,2.608176-.283381.769559-.072971,1.530912-.137834,2.300372-.194392.283579-.024324.558951-.04054.834324-.056755.332128-.024324.672363-.048647,1.004392-.064863.405-.024324.81-.04845,1.206892-.064666.137736-.008108.267363-.016216.396892-.016216.307903-.016216.615608-.024324.923511-.032432,6.002029-.178176,11.842097.259058,17.066558,1.757637.348442.097295.688579.194392,1.020608.307903,1.126011.356353,2.211383.761353,3.264324,1.231018.388784.162158.777568.340334,1.150236.526619.364559.178176.72902.36446,1.085372.56696,1.37696.745137,2.681147,1.611892,3.904255,2.600068.380676.307903.753245.631824,1.117705.963853,0,0,.008108,0,.008108.008306.178275.16196.364559.332029.542834.510205,4.811353,4.681824,7.994597,11.680137,8.626421,21.878108-.072872,0-.072872,72.592097-.008108,81.793784.008108.421216.348245.737029.76946.737029h.064863c.413108.008306.761353-.315813.76946-.728921v-6.577295c-.016216-15.55196-.016216-51.102773,0-66.922097-.008108-4.301147,0-7.136147,0-7.727432.234932-3.175137.696687-6.03446,1.360844-8.618313q0-.008108.008108-.016216c.745236-2.899863,1.757736-5.443176,2.99696-7.670676.226824-.405.453549-.793982.68848-1.16655.429324-.688381.882971-1.344529,1.360844-1.976353.242941-.323921.494088-.639932.753344-.939529.242941-.291687.493989-.575068.745137-.85054.170068-.186284.348245-.372568.52652-.550745,3.604559-3.677432,8.156656-5.986011,13.275912-7.33054.380676-.105205.761353-.2025,1.150137-.291489.364559-.089187.737128-.170266,1.117903-.243237.421216-.088989.850441-.170068,1.279764-.242842.097196-.024324.194392-.04054.299696-.048647.429324-.081079.866755-.145745,1.312196-.210608.08098-.016216.170068-.024324.259156-.032432.437432-.064666.874863-.121421,1.320403-.16196,2.527097-.291489,5.143381-.413108,7.808313-.413108.639932,0,1.279863.008108,1.919696.024324.64804.008108,1.304088.032432,1.952128.056755.550745.024324,1.09348.04845,1.644324.080881.226824.008108.453549.024324.680372.04054.542736.032432,1.077264.064863,1.62.105403.631725.04845,1.263549.097097,1.895372.153853.032432,0,.056755.008108.089187.008108.664156.056755,1.328313.121421,1.98446.186284.24304.024324.48598.04845.728921.072971,1.085471.113313,2.170844.234734,3.248108.36446.129628.016018.251147.032234.380676.04054,4.220167.485881,8.488883.599194,12.733275.405.048549,0,.105304-.008306.153951-.008306,4.341489-.21041,8.545441-.21041,12.619764-.016216.518412.016216,1.036725.048647,1.555236.081079.575068.032432,1.150137.072971,1.717097.113511,3.118579.234932,6.147971.583176,9.088176,1.036626.518511.081079,1.036824.162158,1.547227.251147.704597.121619,1.409392.251147,2.097773.380874.534727.105205,1.061147.2025,1.579559.315813.680372.145745,1.360844.291687,2.033108.44554.874764.2025,1.733412.405,2.592059.631626.299597.072971.591284.15405.890881.234932,1.296079.348442,2.567834.721011,3.823275,1.109795.405.129529.801892.259058,1.198784.388784.48598.153853.963951.316011,1.433716.486079.453549.153853.899088.315813,1.33652.477773.575068.210608,1.142029.421216,1.709088.639932.388784.153853.76946.307705,1.150236.461755.461656.186284.915205.372568,1.368853.56696.44554.194392.89098.388784,1.344529.583176.44554.2025.882971.396892,1.320403.6075.437432.2025.874764.413108,1.312097.623716.818108.396892,1.62.81,2.413883,1.231216,1.052941.558853,2.081656,1.133921,3.094156,1.725403.380676.226626.753344.45345,1.125912.680273.307804.186284.615608.380676.915304.56696.372568.234932.72902.461755,1.093579.704795.388784.25095.76946.502097,1.150137.761353.008108.008108.008108.016216.016216.016216.380676.259255.761353.518313,1.133921.785676.405.283579.801892.575068,1.198784.866755.348442.25095.688579.510205,1.028716.76946.737227.558853,1.466147,1.133921,2.178951,1.717295.348344.291489.68848.575068,1.020608.866558.704696.599392,1.393176,1.206892,2.073549,1.8225.656147.615608,1.296079,1.223108,1.927903,1.846824.267264.259255.526421.526619.785676.793784,1.668549,1.701079,3.256216,3.474932,4.746588,5.321755l.72902.923313c.36446.461755.720813.931619,1.069156,1.409392.186284.24304.364559.486079.542736.737227.777568,1.069058,1.530813,2.162637,2.243716,3.280342.259156.388784.502097.777766.745137,1.174658.016216.024126.032432.056558.048647.080881.396892.631824.777568,1.271755,1.150137,1.919795.510403.882971.996284,1.773853,1.474255,2.67304,2.138313,4.074126,4.681824,7.929932,7.524932,11.55041.080881.097295.153853.19459.226725.299795.461656.583176.915304,1.17446,1.352736,1.773853.153853.2025.299696.39709.437432.59959.299597.396694.591284.801694.874764,1.206694.137736.186284.275372.372568.396892.567158.380676.526421.745236,1.061147,1.101588,1.595676.04054.056755.081079.113313.12152.178176.332128.493989.656049.988176.972059,1.490273.2025.299795.388784.59959.575068.907295.372568.575068.728921,1.158245,1.077264,1.741421.291588.486079.575167.972158.850441,1.45804,1.603784,2.754119,3.053716,5.564795,4.366011,8.432029.2025.437432.405.882971.591284,1.328511.421216.923511.818108,1.854932,1.190676,2.79446.178176.429324.356353.866755.518313,1.304187.105403.259058.210608.518313.307903.785676.121421.307903.234932.615608.348245.931421.218716.583176.429324,1.16655.631824,1.749727.008108.016018.016216.04054.016216.064666.194392.526619.372568,1.061147.542637,1.587568.121619.35655.234932.721011.348344,1.085471.097196.275471.178275.55905.259156.842432.129628.396892.251147.793784.372667,1.198784.623617,2.097971,1.17446,4.220068,1.652333,6.350471.153951.688381.307903,1.37696.44554,2.065342.097196.486079.194392.972158.283579,1.45804.242941,1.206892.445441,2.421892.631725,3.645.105304.656147.194392,1.304187.28348,1.960334,0,.016216.008108.032432,0,.048647.097295.688381.186284,1.376763.259255,2.065342.016216.137637.032432.275471.048549.413108.056656.486079.105304.96405.145844,1.441824.048647.461755.089088.931421.121421,1.393176.008108.056755.016216.113313.016216.170068.056755.664255.097295,1.336619.137736,2.000676.040441.55905.064764,1.126011.089088,1.684863.024324.534727.048647,1.077363.056755,1.611892.016216.307903.024324.6075.024324.907295.032333,1.287773.032333,2.583853.008108,3.879734Z" fill="none" stroke="#80705e" stroke-miterlimit="10" stroke-width="1.62"/><path d="M317.193803,167.088937c-1.671387,6.734497-5.722656,23.057709-18.074219,28.148163-10.818604,4.458588-14.213867-5.383667-33.777588-3.555542-10.702393,1.000092-17.115479,4.639862-28.740723,2.074066-4.359131-.962097-7.801758-2.432678-10.074219-3.555573-2.79126-1.836792-6.821289-4.93573-10.370361-9.777771-1.608398-2.194305-3.223145-4.890045-7.877441-16.406586-5.645264-13.968231-5.997803-15.312683-8.199951-16.879944-4.370117-3.110046-12.870117,2.549988-18.22998,2.690002-.690186.019958-3.460205.019958-4.160156,0-5.349854-.140015-13.859863-5.800049-18.219971-2.690002-5.209961,3.709961-6.469971,10.719971-8.199951,16.879944-3.609375,12.852234-5.662842,16.36795-9.540039,20.340027-3.272705,3.352661-6.905518,5.15152-9.424316,6.140625-3.360107.815063-8.398926,2.042755-14.518555,3.555573-22.530273,5.569702-21.893066,5.655334-24,5.925934-11.584473,1.487854-28.706665-1.375824-39.703613-13.333344-8.513184-9.256775-9.959961-20.271301-11.123413-29.128815-1.745483-13.288086,1.301758-21.70694,2.330078-24.359985,1.810059-4.669983,4.380005-9.369995,8.709961-11.890015,3.800049-2.209961,8.430054-2.429993,12.820068-2.109985,5.129883.369995,10.209961,1.380005,15.089844,3.01001,1.310059.440002,2.380127.780029,3.880005,1.289978,7.840088,2.640015,8.369873,3.130005,10.110107,3.559998,4.459961,1.080017,11.569824.460022,15.429932-4,4.919922-5.679993,2.059814-14.72998,1.919922-15.159973-2.02002-6.080017-6.119873-7.279968-9.199951-15.919983-2.689941-7.540039-1.030029-11.450012-1.699951-17.140015-2.199951-18.710022-25.049927-19.5-35.759888-43.690002-1.610107-3.640015-5.180054-11.690002-4.070068-19.26001.570068-.26001,1.160034-.519958,1.73999-.779968h.02002c.73999-.330017,1.5-.640015,2.27002-.950012.02002-.01001.040039-.030029.070068-.030029.73999-.299988,1.48999-.589966,2.25-.880005.049927-.019958.099854-.039978.149902-.059998.590088-.219971,1.179932-.429993,1.790039-.649963.22998-.090027.469971-.169983.719971-.25.609985-.210022,1.22998-.419983,1.849976-.630005.190063-.059998.369995-.119995.550049-.169983.720093-.230042,1.440063-.460022,2.170044-.670044.789795-.22998,1.589844-.469971,2.389893-.690002.060059-.009949.110107-.019958.160156-.039978.819824-.219971,1.649902-.429993,2.47998-.640015.609863-.149963,1.22998-.299988,1.839844-.429993.340088-.089966.669922-.159973,1.01001-.22998.779907-.169983,1.559937-.330017,2.349976-.48999.679932-.140015,1.359863-.26001,2.050049-.390015l.209961-.030029c.26001-.059998.530029-.099976.799805-.139954.77002-.130005,1.540039-.26001,2.310059-.380005.910156-.130005,1.830078-.26001,2.75-.380005.920166-.119995,1.840088-.220032,2.77002-.330017.02002,0,.050049-.01001.070068-.01001.090088-.01001.179932-.019958.27002-.029968,2.639893,2.130005,4.629883,4.389954,5.919922,5.869995,6.719971,7.669983,4.25,10.839966,11.219971,21.799988,6.030029,9.51001,8.800049,8.279968,17.900146,20.48999,7.639893,10.25,11.459961,15.380005,12.659912,22.150024,1.870117,10.609985-3.929932,11.639954-4.47998,28.899963,0,0-.530029,18.170044,7.449951,26.580017,1.390137,1.470032,3.050049,2.72998,4.969971,3.359985,1.890137.630005,3.910156.630005,5.890137.630005,6.879883-.019958,13.77002-.039978,20.649902-.049988h.070068c6.879883.01001,13.76001.030029,20.639893.049988,1.97998,0,4.01001,0,5.890137-.630005,1.919922-.630005,3.580078-1.889954,4.969971-3.359985,7.98999-8.409973,7.449951-26.580017,7.449951-26.580017-.540039-17.26001-6.339844-18.289978-4.47998-28.899963,1.199951-6.77002,5.02002-11.900024,12.669922-22.150024,9.090088-12.210022,11.860107-10.97998,17.900146-20.48999,6.959961-10.960022,4.48999-14.130005,11.209961-21.799988,1.27002-1.460022,3.209961-3.670044,5.790039-5.76001,2.389893.219971,4.72998.51001,7.01001.859985.52002.080017,1.040039.160034,1.549805.25.700195.119995,1.410156.25,2.090088.380005.540039.109985,1.070068.210022,1.580078.320007.679932.150024,1.359863.289978,2.040039.440002.869873.210022,1.72998.409973,2.589844.640015.300049.070007.590088.149963.890137.22998,1.300049.349976,2.570068.719971,3.820068,1.109985.409912.130005.799805.26001,1.199951.390015.48999.150024.969971.320007,1.439941.48999.449951.150024.889893.309998,1.329834.470032.580078.209961,1.140137.429993,1.710205.639954.389893.160034.77002.309998,1.149902.470032.459961.179993.920166.369995,1.370117.559998.449951.200012.889893.390015,1.339844.589966.449951.200012.890137.390015,1.320068.600037.439941.210022.879883.419983,1.320068.630005.51001.23999,1.01001.48999,1.5.75.820068,7.380005-2.580078,15.070007-4.150146,18.609985-10.699951,24.190002-33.560059,24.97998-35.76001,43.690002-.669922,5.690002.98999,9.599976-1.699951,17.140015-3.209961,9-7.72998,9.959961-9.199951,15.919983-1.209961,4.900024.340088,10.880005,4.149902,14.720032,3.449951,3.47998,8.780029,5.219971,13.199951,4.439941,1.850098-.329956,2.150146-.879944,10.110107-3.559998,1.5-.509949,2.570068-.849976,3.889893-1.289978,4.870117-1.630005,9.950195-2.640015,15.080078-3.01001,4.390137-.320007,9.02002-.099976,12.820068,2.109985,2.038086,1.185242,5.432129,3.708984,8.709961,11.890015,1.871826,4.671844,7.018799,17.517578,2.94458,33.933228Z" fill="#b89065"/><ellipse cx="181.258937" cy="140.510964" rx="7.390071" ry="6.695609" fill="#fff" stroke="#80705e" stroke-miterlimit="10" stroke-width=".630572"/></svg>