<?xml version="1.0" encoding="UTF-8"?><svg id="Layer_1" xmlns="http://www.w3.org/2000/svg" width="571.638195" height="263.496088" xmlns:xlink="http://www.w3.org/1999/xlink" viewBox="0 0 571.638195 263.496088"><defs><radialGradient id="radial-gradient" cx="285.819098" cy="131.748044" fx="285.819098" fy="131.748044" r="222.073227" gradientUnits="userSpaceOnUse"><stop offset="0" stop-color="#ffeedb"/><stop offset=".279889" stop-color="#fdebd6"/><stop offset=".560489" stop-color="#f7e2ca"/><stop offset=".840602" stop-color="#edd3b6"/><stop offset="1" stop-color="#e6c9a8"/></radialGradient><radialGradient id="radial-gradient-2" cx="490.561644" cy="133.855647" fx="490.561644" fy="133.855647" r="63.957755" gradientTransform="translate(-16.23717 -19.390217) scale(1.030175 1.045287)" gradientUnits="userSpaceOnUse"><stop offset="0" stop-color="#ffeedb"/><stop offset=".20824" stop-color="#fce9d5"/><stop offset=".472886" stop-color="#f4dec5"/><stop offset=".766733" stop-color="#e7cbab"/><stop offset="1" stop-color="#dab892"/></radialGradient></defs><rect x="393.186312" y="91.521805" width="129.777778" height="115.907951" fill="#be9e7a"/><path d="M559.580708,234.797377c-3.879883,3.190186-7.609863,6.590088-10.839966,10.440186-21.019897,25-64.900024,16.689941-96.099976,15.429932-9.119995-.359863-18.199951-1.569824-27-4-6.859985-1.899902-13.640015-4.51001-18.910034-8.339844-4.22998-3.070068-8.839966-5.560059-13.619995-7.690186-4-1.780029-7.800049-4.48999-9.959961-7.369873-6.640015-9.300049-8.689941-15.820068-9.469971-20.22998-.140137-.810059.299927-9.400146.299927-9.400146,0-2.929932-2.539917-5.289795-5.529907-4.98999-1.380127.140137-2.570068.870117-3.370117,1.910156-.079956.109863-.149902.25-.22998.429932-1.189941,2.939941-3.51001,5.280029-6.550049,6.209961-4.459961,1.369873-8.72998,3.369873-12.679932,5.919922-.179932.120117-.359985.230225-.540039.350098-13.609863,8.77002-28.75,14.899902-44.629883,18.070068-8.890137,1.779785-18.51001,3.699951-27.26001,5.329834-10.910034,2.040039-21.610107,5.170166-31.690063,9.810059-13.460083,6.189941-29.779907,7.530029-43.23999,1.98999-8.799927-2.080078-18.700073-10.219971-25.700073-18.72998-6.77002-8.22998-14.619873-15.51001-23.589844-21.27002-5.370117-3.439941-10.940063-6.939941-16.350098-10.23999-8.219971-5.01001-18.310059-5.419922-27.089966-1.51001-8.059937,3.590088-17.339966,4.949951-25.920044,3.969971-.929932-.109863-1.849976-.219971-2.790039-.27002-8.069946-.48999-34.069946-4.719971-37.969971-11.309814-7.040039-11.890137-19.77002-18.830078-28.439941-27.75-11.110107-12.5-11.430054-19.459961-7.959961-29.22998,5.059937-14.220215,13.819946-26.900146,25.379883-36.590088,13.350098-11.199951,29.73999-18.920166,46.180054-18.060059,2.640015.139893,4.72998.590088,5.799927.780029,4.870117.859863,10.030029,2.699951,13.180054,6.51001,5.609985,6.810059,12.960083,14.869873,16.589966,22.969971,5.120117,11.280029,7.860107,23.850098,8.610107,36.22998.059937.930176,1.280029.820068,1.409912-.050049,3.060059-21.079834-3.969971-39.47998-16.639893-56.25-5.690063-7.530029-6.090088-17.909912-.48999-25.5.089844-.129883.179932-.25.269897-.349854,20.170044-25.22998,63.049927-32.72998,92.559937-36.75,13.980103-1.110107,47.77002-17.700195,62.810059-20.73999,23.689941-4.800049,146.350098-12.050049,148.670044,23.919922.269897,4.199951-1.470093,8.199951-4.410034,11.139893-1.080078,1.080078-2.439941,1.830078-3.849976,2.420166-5.77002,2.429932-9.059937,8.369873-12.290039,13.349854-1.809937,2.740234-3.799927,5.370117-6.47998,7.170166-8.299927,5.570068-19.72998,3.969971-27.779907,10.25-5.25,3.789795-10.280029,9.300049-17.290039,8.929932,6.969971.560059,12.280029-4.879883,17.579956-8.52002,8.289917-6.070068,19.630005-4.109863,28.190063-9.629883,4.268179-2.677842,6.914914-7.290829,9.837786-11.493476,3.645589-5.241806,10.621317-6.962037,16.332136-4.106622l.080078.040039c2.309937,1.139893,4.559937,2.419922,6.73999,3.819824,1.51001.970215,2.929932,1.25,4.369873,1.110107.060901-.005701.121804-.011387.182709-.01706,8.708622-.811101,15.951121,6.749274,14.714469,15.407719-1.059984,7.421506-1.597129,15.188131-1.597129,23.199429,0,54.589844,11.25,78.279785,72.890015,96.060059,15.695052,2.997059,30.194239-1.144219,42.395517-10.15164,2.948337-2.176568,7.070671-1.230539,9.013856,1.876577.013533.021639.0271.043258.040701.064857,12.919922,20.620117,25.619873,37.719971,4.129883,55.429932Z" fill="url(#radial-gradient)" stroke="#907f6a" stroke-miterlimit="10"/><path d="M290.576285,91.521805c3.68755-2.778184,7.044452-4.494536,9.506395-5.559,2.804803-1.212676,4.775874-2.064906,7.621408-2.39602,4.406936-.512795,7.796458.586736,7.938887,0,.114781-.473027-2.023142-1.455418-2.838556-1.830108-2.49151-1.144846-5.4363-1.994114-9.47613-2.743258-4.269304-.791685-9.045178-.369801-12.322798,2.683606" fill="none" stroke="#9d8b77" stroke-linecap="round" stroke-miterlimit="10" stroke-width="3"/><path d="M319.276604,69.069014c-.12861-.808664-.407266-2.210348-1.093187-3.796867-.543028-1.270776-1.350418-2.664757-2.543668-3.950904-2.679381-2.911212-5.79451-3.635161-7.580764-4.027948-6.616292-1.44785-12.160831,1.53265-16.219238,3.712158-3.236713,1.74056-6.544859,3.51191-9.359953,7.52444-.714502,1.024321-4.258402,5.845505-3.672549,11.690963.421532,4.205069,1.429003,5.660675,5.215809,6.769702.943184.277245,1.829166.369664,2.686568.315753,2.314985-.161733,4.022644-1.301564,4.837176-1.963898" fill="none" stroke="#9d8b77" stroke-linecap="round" stroke-miterlimit="10" stroke-width="3"/><path d="M550.481781,160.50486c-2.404397-10.424687-15.303073-8.272219-23.316357-8.499644-2.687323-.419656.347106-1.435569,1.413599-1.469078,4.797857-.4688,9.680361-.100469,14.441019.68737,3.345829.648298,5.446405-1.281285,4.68468-4.792005-.446594-2.803761-2.669721-5.269896-2.775718-8.048905-.114761-2.450408.883243-4.933494.166986-7.365451-.535409-2.205376-2.23859-3.829046-3.102106-5.862265-1.765396-2.494684,1.899482-11.960379-2.638989-12.136197-1.059864.132752-2.070173.870976-3.049082,1.346312-2.611668,1.464111-5.997569.962832-8.682615,2.191653-2.203165.889509-4.281061,2.986135-6.686669,3.16387-2.866935-.063478.2647-1.503812,2.112769-2.398303,2.014544-1.16068,3.950716-2.551353,6.289466-2.954922,4.486478-.517778,9.044988-1.262735,9.727435-6.713425.623836-5.688515-.573132-13.232192-4.879194-17.503451-1.629386-1.500733-3.817024-3.112533-5.483646-4.792904-4.834882-4.265153-6.953759-11.934661-12.532065-14.841529-4.26481-2.224458-9.31553-5.47687-13.751524-8.081467-3.82377-2.198856-7.908891-3.922625-11.761042-6.003258-4.881216-3.068171-13.202814-4.809708-11.480447,3.984817,2.347041,11.6674,10.877073,21.579817,11.662084,33.848576.140265,2.478406.040173,5.387178-.880993,7.640589-2.171994,3.966642-.725991-3.334864-.672397-4.428256.442521-6.430442-2.000033-12.999527-4.675708-18.830667-2.864422-6.177265-6.310454-12.845569-7.259656-19.602356-.235071-1.48013-.443091-3.015379-1.128225-4.333693-2.315056-4.336862-6.416739-3.780645-10.990309-3.663873-3.341294.043928-7.128378-1.336708-9.969456-.843291-3.418415.641121-6.251452,2.355349-9.709259,3.247388-2.717996.97317-6.653326,1.157369-7.805394,3.942216-1.850791,3.60051.808262,6.876316,2.663249,9.83314,2.341562,4.2618,3.543337,8.781176,6.513799,12.518118,3.783587,4.905667,10.000469,10.351184,10.596583,16.692081-.03816.547858.103395,1.731501-.531185,1.843842-1.0684-.832794-1.067633-3.182346-1.784067-4.648098-3.258169-7.568961-10.674102-12.082133-13.423576-19.801262-1.758053-3.852129-4.475741-12.245766-9.887396-9.043568-2.869692,2.499237-3.409416,7.235748-4.235725,10.809568-1.062672,5.22812.263486,9.548674.71028,15.000932.365613,4.581254-1.042592,8.881395-1.404868,13.30957-.108282,7.822134,4.253486,10.85738,10.505932,14.34585,1.420014.845629,2.94831,2.789336.296521,2.239868-2.113036-.527156-4.236549-2.756175-6.597428-2.333179-3.095708.5076-4.26206,5.61026-3.747827,8.639513.499167,5.050449,3.234596,8.992215,6.242664,12.90742,1.807467,2.585335,3.245524,5.660016,4.293601,8.625588,1.034488,2.792179,1.511618,5.587383,3.689907,7.631641,2.399136,2.24842,7.159623,3.816246,10.117632,1.751812,1.329629-.411737,4.167643-5.255087,5.205895-4.07363.156342,2.90927-3.008482,4.880558-4.818658,6.802305-1.04719,1.024527-1.927246,2.464626-1.461142,3.965928.313102,1.075401,1.108694,1.989105,1.932837,2.739014,2.469045,1.98268,5.213502,4.37131,8.252885,5.592655,2.846019.948033,4.055295-2.378977,5.390333-4.276642,2.926861-4.373826,7.039258-7.628528,9.288215-12.578961,1.039676-2.206912,1.483966-4.714406,1.150364-7.115066-.308653-2.114572.381814-3.898876,1.682281-1.26789,1.88707,5.437412-1.627463,11.510249-5.063498,15.546275-2.245514,2.891166-5.648293,5.765868-6.383038,9.292434-.591286,2.962587,1.844892,5.323044,4.310625,6.442972,6.202147,2.871268,34.187373,15.373074,40.994328,11.401307,5.508316-4.988717-5.445326-13.04447-9.021368-16.305047-1.040427-.78095-4.035275-3.679728-3.250427-4.521435.902156-.391565,2.001444.717807,2.746159,1.274406,3.704042,3.460791,7.960326,6.41496,10.89112,10.604086,2.739872,3.762705,3.239482,10.014867,9.138944,8.908891,8.293775-1.396782,23.898806-8.067554,27.430058-16.043371,1.722671-4.22309,1.107889-9.023473.344931-13.402471l-.04613-.196448Z" fill="url(#radial-gradient-2)" stroke="#907f6a" stroke-miterlimit="10" stroke-width="1.037704"/><path d="M443.879702,132.367614c8.322655-3.537608-.213711-29.314708,8.854252-33.312323,5.130339-1.441538,7.750593,6.61327,7.367246,10.530344-.156013,1.59415.123515,3.225428,1.05945,4.525306,3.427582,4.760412,5.976522-5.270607,5.049334-9.987371.13433-12.982484-17.467387-19.639767-14.471334-32.702989,8.829027-16.272339,26.298134-13.248318,27.281676,5.745373l-.052979-.427246c.397384,2.246735,1.12201,3.443209,2.763058,5.231971,9.457181,9.21418,2.266586,22.403734,5.464981,32.953799,5.904825,15.293588,22.399257-21.088292,4.14995-35.534248-1.539064-1.693076-3.491154-3.202605-4.505828-5.43755-2.587087-5.655832,4.645968-9.887202,9.26907-7.131861,15.599551,6.209907,22.821803,23.122346,30.670907,36.639646,4.20354,12.806454-15.935688,14.249929-14.147465,25.39128,34.264485-8.053206,34.779331,31.827161,6.064255,20.433124-1.91405-.728658-2.081084.233845-.526536-.870624-.033917.126362-.298628.248513-.348062.362166-.138352.04126-.644445.768537-.298469.383013,2.616463,8.331293,14.880025,4.988091,20.497309,11.142909,6.505074,4.392317,4.982824,15.979973-3.012135,17.971713-13.608416,2.230106-27.519736-6.832957-34.4382-18.118746-.895309-1.39777-2.046528-3.630438-2.770933-4.722573.529248.498527,1.724476,1.068857,2.8733.891097l.03464-.002472c1.150091-.082077,2.049433.969674,1.791447,2.093458-1.3739,5.984703-4.165191,13.411053-11.149847,8.898296-5.590396-3.47614-9.11949-20.803253-1.205613-17.071689,1.596368.752722,2.852162,2.073519,3.660975,3.642214,1.136687,2.204608,2.663296,5.173093,3.255597,5.836054-3.938329-2.490575-5.679303,3.110685-4.65219-.825602.332172-5.644525,3.292045-15.417913,10.860332-11.666186,5.275696,4.168332,6.741958,11.049347,12.380291,14.796842,4.371138,3.898584,13.171549,10.865928,15.297473,6.434055,2.32998-4.857267-9.346564-4.105974-14.157601-6.404916-6.410061-3.257367-11.01818-13.858496-4.561129-19.202245,5.621451-7.505397,21.405216,11.132538,19.66776-2.999625-8.070643-5.58069-20.208927,6.126478-27.754569-3.029584-7.738412-10.48481,3.840005-24.756717,13.524832-29.347595.504481-.24117.402948-.934917.058299-1.332308-6.933194-10.797762-13.551969-24.571186-25.950696-29.729334,3.448751.715344,6.323618-4.432302,4.423153-6.940534,28.331322,22.361642-.04736,85.74967-19.271609,47.794407-4.382644-10.627511,4.579695-22.794536-5.00155-31.621332-3.206962-2.789111-2.457518-18.868288-7.05507-14.614813-.655837.386373-1.4717.957709-2.2145,1.57554-1.286088,1.069717-1.546339,2.951848-.587922,4.32289,4.316581,6.174992,10.124583,12.056466,11.977123,19.784362,7.066694,15.683259-11.271804,41.031571-20.57092,17.01182l.401733.959839c-1.946964-2.78622-2.764191-6.041909-3.291203-9.23861,1.406847,2.123577,5.145963,2.301675,6.529972-.137001-9.508655,10.292374,1.522148,23.185464-4.258394,34.583871-4.271156,10.671821-18.725056-1.49331-8.973662-7.52601Z" fill="#9d8b77"/><path d="M347.321468,58.565581c-1.327059,2.620809-1.771497,6.414729-4.386956,7.595538-3.578919,1.488993-7.013553-1.156866-10.11436-2.686054-.492385-.260003-1.056148-.424648-1.65191-.537553-3.754717-.711566-7.132754-2.656034-9.762813-5.42858-.610485-.643558-1.255666-1.219823-1.975303-1.634067-18.081446-12.53906-55.274586,7.051654-48.247281,30.574674,1.411097,3.281548,4.920231,3.405307,7.299659,6.046525,1.68592,1.898901,5.700728,5.877462,2.686814,6.617704-4.195325.852594-6.039424,1.811215-7.666667,4.35513-1.619343,2.531565-4.857043,4.130272-6.709461,6.496629l-.072233.092228c-2.845721,3.63346-1.884973,8.522254-7.662751,11.300032-.790143.379876-1.431105,1.405101-2.049384,1.837867-2.40255,1.43243-6.598344-2.934353-6.504897-6.265708-.007011-.94547-.002161-1.973455-.003507-2.936928-.071333-3.49518.135002-4.871885,1.653584-7.412572,2.607447-4.789676,6.413387-11.602891,8.979118-16.021716.728168-1.279039,1.234934-2.578891,1.506626-4.024476.680258-4.246414,1.902748-10.694338,2.983701-15.382071.641084-2.481135.143467-3.304076-2.541452-2.072855-15.314049,6.58537-31.048684,18.447095-46.807621,23.731842-3.003607,1.009042-5.128159,2.440639-8.059211,4.084185-6.278393,3.534127-14.419272,7.726096-20.713759,10.623949-2.324228,1.113398-4.281384,1.703723-6.349259,3.353379-1.610134,1.325457-4.015822,3.058688-6.032458,4.708604-1.481351,1.211971-1.958564,2.792204-2.987407,4.40613-2.113852,3.31596-3.593652,6.98631-3.821328,11.116447-.073412,5.322663-5.391602,3.035837-7.713867.264917-4.415804-4.691402-9.404855-6.806989-11.020727-10.311079-1.775684-4.361124,1.227419-8.105103,5.164646-11.676758,3.759671-3.289352,8.515668-6.071018,11.575332-7.738282,36.862332-19.602109,65.361329-26.587859,94.863202-41.544903,20.535543-11.116792,40.340644-20.250051,64.240108-19.592493,1.545538.042523,3.105433.141439,4.639472-.051491,16.665754-2.095987,24.452284-1.182923,17.333084,17.936326l-.070737.175481Z" fill="#b8babc"/><path d="M233.639118,84.465634c5.100441-2.761484,23.941173-12.185977,30.415412-15.47916.757309-.385213,1.651924.149281,1.68008.998465.025861.779987.023704,1.614263.024051,2.018029.001763,2.050847-.170622,4.151762-.754201,6.038409-.370851,1.19892-.65945,2.421731-.736369,3.674338l-.019692.320674c-.178116,2.900567-1.01589,5.720449-2.45974,8.242414-1.005771,1.756774-2.169821,3.549333-3.32752,5.35144-2.999496,4.669103-5.317441,9.758309-6.709155,15.130518-.677253,2.614292-1.1285,5.271071-.546028,7.729861.436875,1.84418,2.185809,3.028275,4.081011,3.019758.162994-.000732.326032.00402.488122.018275,2.055729-.088337,1.485243.261304.357337,1.399084-1.120326,1.177243-2.15374,2.689641-2.970874,4.106647-.001816.003149-.003684.006381-.005604.009695-.509654.879895-1.769672.99839-2.399125.199798-1.138141-1.443968-1.872665-3.351598-2.475435-4.991535-1.092839-3.258211-1.059577-7.034332.549764-10.154584,1.866504-4.256935,1.039198-9.858339-1.628545-13.931406-1.631085-2.265635-3.609282-4.317233-5.675684-5.874764-2.160171-1.339732-5.001379-2.573295-7.351101-4.075318-1.242094-.793989-1.508369-2.459697-.629755-3.643443l.030807-.041506.062244-.065688Z" fill="#fff"/></svg>