<?xml version="1.0" encoding="UTF-8"?><svg xmlns="http://www.w3.org/2000/svg" width="556.63804" height="545.220215" xmlns:xlink="http://www.w3.org/1999/xlink" viewBox="0 0 556.63804 545.220215"><defs><linearGradient id="linear-gradient" x1="189.846465" y1="293.789685" x2="544.863738" y2="293.789685" gradientTransform="translate(17.076957 -19.053539) rotate(3.058166)" gradientUnits="userSpaceOnUse"><stop offset=".36342" stop-color="#e93636"/><stop offset="1" stop-color="#c52127"/></linearGradient></defs><g isolation="isolate"><g id="Layer_1"><path d="M434.620352,398.786342c-.885737-.682144-2.165763-.652867-3.188048-.200338s-1.838735,1.261616-2.602335,2.078173c-1.506556,1.611039-2.906883,3.321403-4.18887,5.116303-.965421,1.351678-1.909406,2.795553-3.32989,3.656539-.985755.597487-2.128666.867313-3.212189,1.260607s-2.174453.964731-2.776041,1.947989" fill="none" stroke="#3a4196" stroke-miterlimit="10" stroke-width="3"/><path d="M555.575076,430.689636l-1.149584-1.154597c-5.86883-5.894418-13.111174-10.237105-21.075261-12.63724l-.000023-.000007c-6.269898-1.889558-12.109213-4.98834-17.188483-9.121507l-3.635172-2.958058c-11.109163-6.676413-15.889259-20.247594-11.571052-32.468114,10.913414-30.884948,15.144475-62.803837,15.144475-99.739762C516.099976,122.880371,409.649963,1.5,278.329956,1.5c-81.059998,0-152.639954,46.25-195.559998,116.860352-10.639954,17.5-23.079956,33.859863-37.559998,48.339844C18.589966,193.310059,1.5,234.640137,1.5,281.050293c0,49.739746,19.630005,93.629883,49.570007,119.830078,17.829956,15.599609,34.529968,32.47998,49.039978,51.199707,43.570007,56.200195,107.26001,91.640137,178.219971,91.640137,63.637457,0,121.427985-28.501553,164.090712-74.923563,6.936521-7.547741,18.079893-9.354211,27.058921-4.623002.72545.382252,1.451885.762837,2.206972,1.082583,3.938514,1.667784,17.480576,7.662904,22.996302,13.474117l.000017.000017c4.393175,4.628524,9.64635,8.356435,15.465723,10.975236l7.52138,3.384729" fill="#9fd0ee" stroke="#3a4196" stroke-miterlimit="10" stroke-width="3"/><path d="M276.542565,509.906848c115.48346,0,209.43585-103.709469,209.43585-231.185212S392.026025,47.536424,276.542565,47.536424c-58.894565,0-96.609007,26.002943-96.982768,26.265068-13.949058,9.841149-30.989168,26.33586-38.265376,33.379739-12.653029,12.245233-26.783627,28.01671-36.409676,39.091949-10.359009,11.918056-17.738607,21.664495-23.668304,29.495705-6.667996,8.806044-11.935116,15.761911-18.306045,21.825214-22.341209,21.259829-35.154421,53.781445-35.154421,89.227568,0,44.220597,27.109333,77.655823,40.137094,93.722907,1.901813,2.345727,3.328416,3.989267,4.770551,5.494092,6.823811,7.121368,12.44479,11.875963,19.302579,17.240905,8.045573,6.291945,13.15882,10.254426,16.563444,12.892891,6.041339,4.682845,6.817501,5.284583,8.980947,7.276347,3.497822,3.222027,4.872486,4.81295,7.368434,7.701103,1.889678,2.186922,4.477367,5.182221,9.262966,10.380705,24.869194,27.010305,38.412453,36.621856,42.863123,39.779787,2.241596,1.590924,4.525908,3.140711,6.788376,4.607269.313571.191332,39.619168,23.989176,92.749073,23.989176Z" fill="#fff"/><path d="M470.781012,294.77082c0,.630371-.570007,1.22998-1.600037,1.790039-1.659973.890137-2.969971,2.280273-3.819946,3.919922-.610046,1.150391-1,2.430176-1.140015,3.760254-11.390015,106.560059-87.450012,187.609863-179.559998,189.390137-26.929993.52002-55.720032-4.370117-84.5-18.560059-21.309998-10.5-42.610046-26.090332-63.160034-48.350098-.019958-.009766-.029968-.030273-.029968-.040039-1.179993-1.47998-2.350037-2.969727-3.51001-4.490234-.27002-.359863-.530029-.719727-.789978-1.07959-4.900024-7.070312-6.01001-16.100098-3.460022-24.310059l2.880005-9.330078c.77002-2.470215,1.839966-5.959961,3.01001-9.790039,2.329956-7.640137,5.039978-16.629883,6.51001-21.569824.639954-2.130371.549988-2.680176.569946-4.810059-1.649963,4.27002-3.449951,8.100098-5.349976,11.439941-.159973.290039-.330017.569824-.5.850098-.159973.279785-.330017.549805-.5.830078-.02002.040039-.039978.069824-.059998.099609-.330017.540039-.669983,1.070312-1.01001,1.580078-.169983.27002-.349976.52002-.529968.780273-.630005.909668-1.27002,1.779785-1.920044,2.589844-.049988-.129883-.089966-.259766-.130005-.390137.610046-.75,1.200012-1.540039,1.780029-2.369629.169983-.260254.349976-.520508.529968-.780273.340027-.509766.680054-1.040039,1.01001-1.580078.02002-.029785.040039-.060059.059998-.100098.170044-.27002.340027-.549805.5-.82959.170044-.280273.340027-.560059.5-.850098,1.900024-3.340332,3.700012-7.169922,5.350037-11.439941.549988-1.419922,1.079956-2.880371,1.599976-4.380371,6.51001-18.97998,10.539978-45.199707,10.539978-74.169922,0-27.819824-3.719971-53.109863-9.779968-71.879883-2.900024-8.959961-6.330017-16.439941-10.150024-22,.01001-.049805.030029-.100098.040039-.140137,3.919983,5.590332,7.429993,13.180176,10.380005,22.310059.320007.669922.630005,1.350098.940002,2.050293-.030029-2.130371-.400024-4.300293-1.140015-6.42041-1.929993-5.679688-5.450012-15.75-8.179993-23.47998-.850037-2.379883-1.610046-4.529785-2.230042-6.27002l-5.259949-14.879883c-.01001-.040039-.030029-.069824-.040039-.109863-2.589966-6.820312-1.929993-14.370117,1.580017-20.609863,18.419983-18,39.462231-39.360154,62.532238-51.929978,30.369995-16.569824,63.547779-21.560257,91.917774-19.960159,99.829956,5.629883,181.039978,97.239746,181.039978,217.179688,0,2.310059-.039978,4.610352-.099976,6.890137-.030029,1.340332.119995,2.669922.469971,3.950195.650024,2.430176,1.97998,4.649902,3.960022,6.25.48999.399902.75.810059.75,1.239746Z" fill="#eac5dd"/><path d="M112.375971,418.926269c-.98999-.77002-2.22998-1.72998-3.839966-2.97998-3.410034-2.640137-8.52002-6.600098-16.570007-12.890137-6.849976-5.370117-12.470032-10.120117-19.299988-17.239746-1.440002-1.510254-2.869995-3.150391-4.77002-5.5-13.029968-16.060059-40.140015-49.5-40.140015-93.720215,0-35.439941,12.820007-67.970215,35.160034-89.22998,2.98999-2.839844,5.72998-5.879883,8.5-9.220215-.980042,2.210449-1.900024,4.439941-2.780029,6.680176-3.779968,9.780273-6.73999,19.839844-8.700012,30.060059-1.969971,10.160156-3.019958,20.459961-3.159973,30.739746-.02002,1.490234,1.059998,2.840332,2.539978,2.980469,1.580017.159668,2.929993-.990234,3.090027-2.510254v-.02002c1.01001-9.930176,2.909973-19.72998,5.659973-29.240234,2.730042-9.529785,6.380005-18.729492,10.720032-27.539551,3.029968-6.040039,9.880005-16.540039,14.109985-22.820312.869995-1.290039,2.890015-.52002,2.690002,1.030273-.869995,6.429688-1.640015,12.52002-2.580017,17.600098-.219971.589844-.440002,1.189941-.649963,1.799805-6.700012,19.049805-10.860046,45.640137-10.860046,75.069824,0,23.419922,2.630005,45.050293,7.090027,62.5,0,.02002.01001.050293.01001.070312.27002,1.060059.549988,2.099609.839966,3.119629,0,.010254.01001.030273.01001.040039,1.23999,6.350098,3.23999,16.080078,5.650024,26.689941.5,2.180176-2.450012,3.390137-3.619995,1.47998l-.059998-.099609c-2.679993-4.350098-5.160034-8.820312-7.549988-13.350098-2.330017-4.560059-4.540039-9.200195-6.590027-13.919922-2.01001-4.720215-3.880005-9.52002-5.580017-14.390137-3.389954-9.740234-6.070007-19.75-8.079956-29.930176v-.02002c0-.759766-.420044-1.47998-1.110046-1.819824-2.440002-1.200195-4.48999.640137-4.279968,2.649902,1.179993,10.570312,3.059998,21.089844,5.72998,31.450195,1.330017,5.179688,2.850037,10.310059,4.530029,15.410156,1.709961,5.07959,3.609985,10.109863,5.649963,15.089844,2.109985,4.949707,4.320007,9.870117,6.75,14.679688,2.429993,4.820312,5.040039,9.560059,7.820007,14.200195,4.539978,7.620117,14.720032,21.25,18.52002,26.149902.73999.959961,1.469971,1.930176,2.159973,2.930176.630005.899902,1.640015,2.27002,2.98999,4.02002Z" fill="#e0f3fc"/><path d="M549.582017,440.77081l-6.265924-5.141688c-5.540736-4.546614-11.680695-8.309257-18.24715-11.182082l-4.111753-1.798892c-7.212325-3.155392-13.906388-7.382607-19.855449-12.538459l-.000019-.000016c-6.563421-5.688299-14.029302-10.242503-22.090582-13.475305l-1.71084-.686096c-5.560513-3.425403-7.725802-10.403331-5.149798-16.404739,13.649239-31.799107,20.854564-66.867697,20.854564-103.162709,0-63.640137-22.140015-123.509766-62.339966-168.589844-40.429993-45.330078-94.26001-70.300293-151.570007-70.300293-34.330017,0-68.450012,9.290039-98.690002,26.880371-29.150024,16.949707-76.98999,75.389648-78.600037,76.889648-.029968.030273-13.579956,16.560059-19.119995,25.560059-5.559998,8.97998-10.219971,18.470215-14.049988,28.22998-3.779968,9.780273-6.73999,19.840332-8.700012,30.060059-1.969971,10.160156-3.019958,20.459961-3.159973,30.740234-.02002,1.489746,1.059998,2.839844,2.539978,2.97998,1.580017.159668,2.929993-.990234,3.090027-2.510254v-.02002c1.01001-9.929688,2.909973-19.72998,5.659973-29.239746,2.730042-9.530273,6.380005-18.72998,10.720032-27.540039,3.029968-6.040039,9.880005-16.540039,14.109985-22.820312.869995-1.289551,2.890015-.519531,2.690002,1.030273-.97998,7.279785-1.840027,14.120117-2.960022,19.569824,6.48999-18.449707,15.360046-29.819824,25.140015-29.819824,10.330017,0,19.650024,12.689941,26.220032,33.009766.319946.67041.629944,1.350098.940002,2.050293-.030029-2.129883-.400024-4.300293-1.140015-6.419922-2.52002-7.42041-7.77002-22.360352-10.410034-29.75l-5.26001-14.880371c-.009949-.040039-.029968-.069824-.039978-.109863-3.080017-8.089844-1.570007-17.219727,3.840027-23.969727,37.329956-46.630371,91.039978-73.92041,147.179993-73.92041,109.130005,0,197.909973,99.990234,197.909973,222.890137s-88.779968,222.890137-197.909973,222.890137c-57.809998,0-108.840027-28.540039-146.190002-77.459961-.27002-.360352-.530029-.720215-.790039-1.080078-4.899963-7.069824-6.009949-16.100098-3.459961-24.310059l2.880005-9.330078c2.309998-7.399902,7.309998-23.939941,9.519958-31.359863.640015-2.129883.550049-2.680176.570007-4.810059-1.649963,4.27002-3.449951,8.100098-5.349976,11.439941-.160034.290039-.330017.570312-.5.850098-.160034.279785-.330017.549805-.5.830078-.02002.040039-.039978.069824-.059998.100098-.330017.540039-.669983,1.069824-1.01001,1.580078-.169983.269531-.349976.519531-.529968.779785-4.790039,6.970215-10.200012,11.040039-15.910034,10.759766-8.119995,0-15.609985-7.82959-21.630005-21.049805-.109985-.25-.22998-.5-.339966-.760254-1.700012-3.799805-3.27002-8.029785-4.700012-12.629883-.780029-2.52002-1.530029-5.149902-2.230042-7.879883,1.140015,6,3.410034,17.22998,6.230042,29.680176.5,2.179688-2.450012,3.389648-3.619995,1.47998l-.059998-.100098c-2.679993-4.350098-5.160034-8.819824-7.550049-13.350098-2.329956-4.560059-4.539978-9.200195-6.589966-13.919922-2.01001-4.720215-3.880005-9.52002-5.580017-14.390137-3.390015-9.739746-6.070007-19.75-8.080017-29.929688v-.02002c-.000002-.76487-.427146-1.479603-1.113225-1.817718-2.4395-1.202243-4.489137.635209-4.276729,2.647796,1.179993,10.569824,3.059998,21.089844,5.72998,31.449707,1.330017,5.180176,2.849976,10.310059,4.530029,15.410156,1.709961,5.080078,3.609985,10.109863,5.649963,15.089844,2.109985,4.950195,4.320007,9.870117,6.75,14.680176,2.429993,4.819824,5.040039,9.560059,7.820007,14.199707,4.540372,7.614246,14.716881,21.252266,18.515892,26.149136.745733.961239,1.46991,1.932022,2.164645,2.930742,5.974666,8.588908,47.280104,59.987597,73.87946,74.900102,29.900024,16.75,62.140015,25.240234,95.830017,25.240234,57.309998,0,111.140015-24.959961,151.570007-70.299805,1.359724-1.523555,2.698315-3.064654,4.015772-4.622574,3.151751-3.727011,8.559436-4.576711,12.715055-2.016443l8.528826,3.744917c7.310932,3.210153,14.045617,7.598112,19.935685,12.989021l.000017.000016c5.688391,5.206324,12.165844,9.478379,19.191398,12.657245l6.187002,2.799445c4.987099,2.256522,9.704545,5.066865,14.063363,8.378021l7.565085,5.746783" fill="#d19885" stroke="#b14c3a" stroke-miterlimit="10"/><path d="M88.577326,334.704392c0,.02002.009949.049805.009949.069824.700012,2.72998,1.450012,5.359863,2.230042,7.879883,1.429993,4.600098,3,8.830078,4.700012,12.629883.109985.260254.22998.510254.339966.760254,6.02002,13.220215,13.51001,21.049805,21.630005,21.049805-13.51001-.669922-28.799988-42.129883-28.909973-42.389648Z" fill="none" stroke="#5c3722" stroke-miterlimit="10"/><path d="M153.491546,272.204392c0,17.32959-1.440002,33.669922-3.98999,48.069824,0,.02002,0,.049805-.01001.069824-.570007,3.210449-1.200012,6.330078-1.869995,9.340332-.210022.889648-.410034,1.77002-.619995,2.639648-1.210022,5.030273-2.559998,9.730469-4.050049,14.050293-.519958,1.5-1.049988,2.959961-1.599976,4.379883-.340027.890137-.690002,1.760254-1.049988,2.600098-.359985.870117-.730042,1.709961-1.100037,2.540039h-.009949c-1.02002,2.259766-2.080017,4.359863-3.190002,6.299805-.160034.290039-.330017.570312-.5.850098-.160034.279785-.330017.560059-.5.830078-.02002.040039-.040039.069824-.059998.100098-.330017.540039-.670044,1.069824-1.01001,1.580078-.179993.259766-.360046.519531-.530029.779785-4.799988,6.890137-10.200012,10.759766-15.909973,10.759766-8.119995,0-15.609985-7.82959-21.630005-21.049805-.109985-.25-.22998-.5-.340027-.760254-1.700012-3.799805-3.269958-8.029785-4.700012-12.629883-.779968-2.52002-1.529968-5.149902-2.22998-7.879883,0-.02002-.01001-.049805-.01001-.069824-4.459961-17.450195-7.089966-39.080078-7.089966-62.5,0-29.430176,4.159973-56.02002,10.859985-75.070312,6.48999-18.449707,15.359985-29.819824,25.140015-29.819824,8.589966,0,16.47998,8.77002,22.669983,23.399902,1.140015,2.689941,2.220032,5.590332,3.23999,8.660156.100037.310059.210022.629883.309998.949707.48999,1.52002.960022,3.070312,1.420044,4.67041,5.219971,18.199707,8.359985,41.629883,8.359985,67.209961Z" fill="#dcdcde" stroke="#231f20" stroke-miterlimit="10"/><path d="M469.795976,282.054996c0,81.346839-46.305792,147.458031-49.959996,148.138492-19.958822,3.716592,29.635569-65.944643,29.635569-147.291482s-44.559265-147.291482-24.257352-147.291482,44.581779,65.097633,44.581779,146.444472Z" fill="#bfa1b4" opacity=".43"/><path d="M44.14911,279.980922c0,19.145871,4.996991,34.666667,0,34.666667s-9.047852-15.520795-9.047852-34.666667,4.050861-34.666667,9.047852-34.666667,0,15.520795,0,34.666667Z" fill="#e0f3fc" mix-blend-mode="screen" opacity=".61"/><path d="M153.491546,272.204392c0,17.32959-1.440002,33.669922-3.98999,48.069824,0,.02002,0,.049805-.01001.069824-.570007,3.210449-1.200012,6.330078-1.869995,9.340332-.210022.889648-.410034,1.77002-.619995,2.639648-1.210022,5.030273-2.559998,9.730469-4.050049,14.050293-.519958,1.5-1.049988,2.959961-1.599976,4.379883-.340027.890137-.690002,1.760254-1.049988,2.600098-.359985.870117-.730042,1.709961-1.100037,2.540039h-.009949c-.890015,0,1.712278,1.443436-.363361-.017445-3.946702-2.777778,4.07889-39.052623,4.07889-79.132701,0-35.459961-8.425551-75.729736-2.745558-86.030029,1.140015,2.689941,2.220032,5.590332,3.23999,8.660156.100037.310059.210022.629883.309998.949707.48999,1.52002.960022,3.070312,1.420044,4.67041,5.219971,18.199707,8.359985,41.629883,8.359985,67.209961Z" fill="#dcdcde" mix-blend-mode="multiply" opacity=".47"/><path d="M524.716099,456.144796c-2.304854-1.399248-4.724197-2.614156-7.234769-3.583581-2.5043-.974714-5.051345-1.71908-7.559342-2.473584-5.004248-1.481732-9.977625-3.010468-14.117131-5.940316-2.058066-1.449141-3.848635-3.230554-5.149356-5.362309-1.329052-2.134613-2.293192-4.587492-3.657865-6.924857-1.327151-2.371544-3.374477-4.419842-5.672408-5.843414-2.307298-1.447298-4.818477-2.405387-7.301451-3.273587-2.487467-.866484-4.980702-1.636458-7.353571-2.645835-2.362406-1.008451-4.611455-2.301299-6.357351-4.129468-.889649-.893217-1.640367-1.927172-2.273575-3.037241-.637681-1.108719-1.193454-2.318193-1.945966-3.444415-1.503899-2.262043-3.571703-4.036875-5.809018-5.466987-2.257615-1.413961-4.721372-2.470246-7.316583-3.100197-2.148283-.463781-4.34951-.604866-6.547086-.462186-1.638525.106383-3.237206-.715863-3.899339-2.218414-.073466-.166713-.137585-.337399-.192059-.510523-1.011977-3.207238,1.178751-6.206695,2.785166-8.913545,2.615275-4.379041,5.122353-8.751027,7.130782-13.477391.63366-1.591508,1.14695-3.268416,1.33953-5.003655.637539-5.103138-1.063321-10.192826-1.33048-15.163865-.7739-7.050229,4.026515-12.27398,8.601206-17.027535,1.979743-2.147267,3.998923-4.435202,5.244398-7.181806.528447-1.165366.386287-2.322747.162922-3.341426-8.25144-37.631585,18.972662-78.981977-11.006341-111.705889-12.833824-14.749265-30.62361-24.700554-41.69055-40.985612-16.243187-23.058037,1.404773-50.829352-29.250937-65.761726-5.006166-2.51211-10.302755-4.348628-15.60095-6.105895,5.276005,1.822521,10.548707,3.72518,15.506233,6.290802,19.019358,9.616507,19.244384,23.417759,20.804176,42.2521.552521,5.578865,1.631966,11.164793,3.886647,16.331256.761781,1.733885,1.629261,3.415279,2.583649,5.045843.532076.909049-.221627,2.042179-1.261278,1.873061-3.047298-.495698-6.034658-1.35964-8.921785-2.488554-11.989164-4.741281-21.999041-13.201293-33.995253-18.112687-17.202685-7.475952-33.837184-.612168-49.361876,7.387454,17.885973-8.223616,28.812228-11.223724,39.977575-9.12041.570925.10755.751292.842669.303141,1.212375-1.92305,1.586438-3.809945,3.253357-5.418396,5.226574-2.070577,2.439151-3.465287,5.556011-3.747235,8.750047-.424616,4.654019-.215143,9.416605-3.622652,12.898099-5.440279,5.875417-13.902959,6.190131-21.317387,7.561846-6.018356,1.064349-12.703495,3.622841-15.550119,9.434268,3.189045-5.560012,9.698798-7.723307,15.681525-8.696226,8.877292-1.277241,20.527352-2.175059,24.498712-11.722328,1.175949-3.0813,1.003569-6.327847,1.392297-9.344547.423387-4.803592,5.976384-10.73612,8.603848-13.417412.882277-.900352,2.18756-1.238064,3.395593-.877922,7.759459,2.313269,16.053182,7.010891,27.190608,14.07183,6.810285,4.041863,14.214638,7.554392,22.15017,8.50254,1.351779.161512,2.573161.876967,3.396488,1.961184.966407,1.272634,2.254439,2.938417,3.143381,3.971779,6.307993,7.347002,13.944545,13.544476,21.363193,19.906296,1.251979,1.073628,1.749063,2.815301,1.198359,4.369924-2.871426,8.105965-12.081115,12.779452-20.358459,13.62631-4.831926.508567-9.730274.108427-14.591531-.479149-2.341909-.414981-4.678307-.752242-7.00641-1.012308-1.116336-.124703-1.975599-1.021833-2.045622-2.142928-.270154-4.325249-1.63878-8.573348-3.931942-12.243222-5.329206-9.079957-15.424576-12.445785-25.250917-13.894749-4.831665-.861167-9.685569-1.555498-14.346673-3.135701,8.991449,3.919416,19.364278,3.699297,28.171468,7.993511,7.795504,3.699745,13.172207,11.679398,14.178958,20.186814.178324,1.506901-1.040271,2.836371-2.555329,2.751808-20.592336-1.149368-40.316303,4.098756-56.993383,17.749151,20.556335-15.495522,44.637436-19.811919,69.654915-15.237575,4.883469.612295,9.858288,1.047754,14.827718.548733.312483-.029086.628456-.078889.942923-.11881,1.778701,7.485864,3.273359,16.085052-1.719135,22.590786-5.323138,7.046359-15.53224,3.887283-22.318472,8.428374-4.809469,3.407072-5.73016,8.963629-6.316713,14.545068-.085442.813034-.840411,1.392043-1.644208,1.242929-2.117776-.392871-4.363512.006503-6.333775.836035-4.622856,1.90715-7.601179,5.981538-11.674549,8.632379,0,0-1.779464,1.015032-1.779413,1.015218-9.856248,4.898628-20.477406,8.304739-31.170069,10.861831-2.693496.565604-5.415025,1.143402-8.185125,1.096137,2.766834.173614,5.539405-.254397,8.248608-.785667,10.837251-2.244245,21.497954-5.64806,31.448415-10.528819.015803-.00863.03548-.019986.051472-.028728-3.756031,5.004314-10.163917,6.94152-14.543464,11.393412-4.644554,4.681489-6.241439,11.270229-9.619485,16.719476-6.727246,11.064453-17.91323,18.308811-28.511059,25.306486,14.558678-8.775713,26.843815-17.224622,33.419773-33.604153,1.400662-2.866736,2.967695-5.691088,5.218038-7.915264,4.505823-4.494165,11.393489-6.52236,14.765357-12.248392,0,0-.020113-.012504-.049455-.030758.971319-.550771,2.083932-1.228157,2.832187-1.832165,4.527846-3.713336,9.866801-9.521753,16.107263-8.042446.676592.160387,1.126839.815726,1.05044,1.506858-.185415,1.677335-.411072,3.314306-.778458,4.849947-1.63721,7.971615-5.027739,15.584532-9.861124,22.201085,6.463961-7.961165,10.518426-17.910763,11.609933-28.140659,1.257116-13.631729,3.62134-17.957743,17.816604-19.342049,9.760006-1.033329,14.796488-7.765188,14.740319-17.327273-.022489-3.340148-.635199-6.59511-1.355282-9.792668-.209509-.930334.380905-1.873593,1.311224-2.083171,7.574309-1.706304,15.017385-6.471273,17.557771-13.82109.348748-1.008993,1.61783-1.337782,2.413766-.626321,7.866702,7.031795,15.09642,14.58037,19.717315,24.320813,6.996303,15.844974,5.350377,32.379405,2.994816,49.028362.001922-.287661.004001-.608013.004001-.608013-8.307271.002858-17.258836.12135-24.496094,4.841025-3.62883,2.319105-5.980068,6.129758-7.842769,9.866271-.840283,1.777008-1.918988,3.354354-3.179084,4.748872-.840629.930304-2.289703,1.119693-3.286566.359175-3.310641-2.525725-2.790973-8.334175-2.599754-12.232017.138207-3.693199-.984611-8.223603-4.741455-9.800726-1.736328-.818591-3.543769-1.159583-5.083586-2.045728-3.113275-1.732952-5.471162-4.845233-6.279274-8.438446.401997,3.664482,2.64339,7.15078,5.903886,9.0878,3.122898,1.811397,7.220629,2.040652,8.409595,5.946131,1.25492,3.336838.436796,7.015044.531969,10.766308-.02195,2.698956,1.017629,5.839082,3.182498,7.574446.741271.594204.656618,1.774349-.129832,2.30732-3.671058,2.487849-8.055582,4.036184-12.440215,4.825734-.17778.034999-.358005.059721-.536229.09274-.000053-.005871-1.068785.068689-1.554151.268788-11.576901,1.785675-23.990403-.009143-34.746,5.436279,7.694228-3.453564,16.223055-3.46879,24.500205-3.769333,2.765695-.040741,5.672479-.204257,8.582073-.558814-.498805.481399-.923965,1.043012-1.256294,1.625477-1.795163,2.994064-1.264647,6.805382-3.491306,9.439732-1.463158,1.71748-3.601669,2.988992-5.28809,4.635173-.591717.577598-1.387606.944286-2.209385.85249-3.179869-.355202-6.308387,2.091021-8.784558,3.74021-3.071741,1.980057-6.872166,2.304378-10.549559,2.00877-5.514128-.424665-11.342702-2.110577-16.896014-.560521-1.850491.480819-3.576476,1.422672-4.94905,2.711144,1.495166-1.155399,3.251705-1.872891,5.061414-2.248191,7.49142-1.544062,14.88326,2.104999,22.450823,1.023422,1.913534-.278804,3.821654-.951646,5.466952-1.98607,2.146667-1.33935,4.510557-3.330454,7.000897-3.601641.817717-.089046,1.415761.761294,1.048716,1.497412-.105643.211869-.1975.402609-.253581.531945-1.153275,2.659179-1.829657,5.525125-4.023552,7.533622-1.187155,1.129925-2.830379,1.935619-4.547626,1.606475.81587.265218,1.722498.244587,2.56475.006834,6.278865-2.038044,5.499519-10.466747,10.751139-13.693,1.327864-1.023634,2.822851-1.960592,3.994735-3.365283,1.210706-1.40714,1.742963-3.217137,2.123167-4.876462.605937-2.931687,1.594945-6.995185,5.015242-7.26329,0,0,11.595437-3.200031,15.932627-6.971206.059173.009029.114231.025295.174348.032663,0,0,.008775-.086447.020751-.205362,2.005066-1.784977,3.726442-3.927638,5.007461-6.552487,5.77415-13.268708,18.560714-14.16534,31.374272-14.145163-2.207569,15.526207-4.964333,31.147008-1.854317,46.397473.326339,1.600254-.705811,3.174457-2.313487,3.462013-7.785802,1.3926-14.31283,6.327377-18.649916,13.019211-4.545435,6.621057-9.939843,6.513656-17.227817,5.620277-12.152379-1.305336-22.325725-.583749-30.262473,9.878088-2.852209,3.377303-5.529032,6.950888-9.166337,9.42748-3.555291,2.435621-8.437206,3.608727-12.44106,1.541104,3.958768,2.260561,9.026395,1.264362,12.702471-1.142802,3.810984-2.424527,6.595029-6.026979,9.474417-9.337552,6.161975-7.697237,13.277142-10.28153,23.011094-9.858181,6.582202-.103212,13.70883,2.655799,19.878566-.7489,3.959846-2.365598,5.922374-6.69272,9.005888-9.84386,1.506386-1.550749,3.192418-2.933472,5.036184-4.072081,2.878841-1.776839,6.107902-2.98165,9.446435-3.51992.779095-.125613,1.364982.73069.954891,1.404925-1.170911,1.925107-2.668072,3.684571-4.232745,5.373165-2.260048,2.468758-4.691268,4.892309-6.525563,7.844309-4.039567,6.015469-1.842968,13.513819-1.029282,20.043579.388121,3.306421.054881,6.578458-1.245489,9.657023-1.939659,4.583223-4.470394,9.029614-7.03283,13.323462-.942631,1.560576-2.02325,3.196172-2.655914,4.979535-.014371.040184-.028688.083916-.043154.130452-.435131,1.401511-1.622958,2.431894-3.062483,2.71744-17.440669,3.459604-29.500987,18.445441-43.711517,28.055246-4.992737,3.44191-10.405857,6.346955-16.257874,7.871885-3.547498.93192-7.288178,1.395609-10.879067,2.326173-1.372278.35562-2.853796.083873-3.931294-.837327-4.453014-3.807074-10.414016-5.570108-16.097135-6.594486-8.557226-1.551058-18.345396-1.993011-25.317771-7.467915-2.105934-1.653638-2.552717-4.668657-.997119-6.848012.766184-1.073405,1.684914-2.069672,2.536073-3.025335,9.141788-9.129293-1.088362-17.215393-.216443-27.031611-1.732717,7.765176,5.956603,15.230831,2.394671,22.810875-1.459654,2.826238-4.358518,5.008885-5.992569,7.772779-.691771,1.170088-2.395429,1.193619-3.092007.026386-2.781019-4.660057-4.433112-10.000044-6.847978-14.869193-1.53391-3.107499-3.493136-6.068046-6.087622-8.369285,2.474543,2.436634,4.222154,5.457999,5.657282,8.573668,2.842998,6.296504,4.54015,13.243742,9.019068,18.713381.048749.058837.103303.108571.152572.166825.000613.027416-.003368.052752-.002457.080306,0,0,.03107-.001518.072858-.003442,6.991682,8.175908,18.749438,8.750532,28.519962,10.541794,4.660873.897114,9.511371,2.209401,13.502698,4.795342,1.559856,1.010615,1.529595,3.305899-.06121,4.267061l-.032717.019768c-5.410288,3.278776-8.655488,8.900272-11.649099,14.236689-5.944059,11.770938-14.006788,19.014684-26.568422,23.241657-11.579436,3.949632-24.016946,4.012503-36.140123,3.735946-2.302919-.072672-4.62747-.129387-6.958487-.209184-1.884349-.064506-3.37083-1.598637-3.431755-3.483105-.411185-12.718378-5.094097-25.155447-12.865648-35.219544-2.681541-3.721846-5.37601-7.524331-6.63261-11.871976-.938862-3.271544-.313563-6.836768-.590269-10.244811-.079072-.684515-.119408-1.427104-.325595-2.103985.012726-.004821.082549-.03153.082549-.03153-1.354014-3.899445,1.527592-7.562696,3.753489-10.632399,9.214691-11.72028-2.992749-23.390972-4.089406-35.354333-.155397,11.727038,12.151928,23.682395,3.184342,34.705025-2.042852,2.727907-4.493136,6.07803-4.244349,9.67345-4.016783-2.135671-6.328389-5.952907-8.686689-9.734742-2.367512-3.99381-5.633562-7.521221-9.589613-9.98823-3.899083-2.545991-8.270922-4.225223-12.703006-5.480429,4.383698,1.42523,8.649328,3.288266,12.438923,5.876939,3.832815,2.559932,6.916779,5.998156,9.216819,9.987261,1.796506,2.944763,3.577281,6.102736,6.299991,8.360705.81683.746056,2.028673,1.322026,2.884876,1.907723.149258.111026.263421.257707.360739.42109.056039.210687.113542.421453.190778.633517,0,0,.052915-.020277.059715-.022848.153927.56248.197244,1.229804.264156,1.853646.256056,3.469651-.396822,6.955043.570513,10.424677,1.305767,4.587426,4.060046,8.472809,6.722932,12.216641,7.106749,9.333881,11.575131,20.646553,12.48919,32.330708.234245,2.99429-2.332539,5.475127-5.321369,5.179249-6.520654-.645509-12.923213-1.940765-18.872796-4.79999-5.55587-2.595022-9.941521-6.958256-13.515313-11.880413-3.678225-4.851701-7.166876-10.13421-12.39972-13.489937-10.015435-6.431664-25.626595-4.785364-31.525529-16.808844,5.671934,12.083965,21.375098,10.786332,31.284493,17.182381,5.149668,3.360085,8.54937,8.613148,12.176832,13.465438,3.562271,4.997089,8.052839,9.508466,13.660991,12.174004,11.174871,5.494504,23.939379,5.467196,36.089119,5.851769,12.213159.301534,24.752582.254255,36.468923-3.719235,12.793219-4.280612,21.067665-11.664875,27.152213-23.643457,2.942565-5.21042,6.078309-10.675424,11.303244-13.834646,1.159639-.694983,2.374347-1.241186,3.622928-1.696096.120035.137459,9.619341-2.102598,13.806946-3.202045,23.280706-5.977553,36.541308-31.258133,60.118018-35.965747,1.07333-.214314,2.203179.324287,2.604444,1.342596.649285,1.647721,1.968442,3.002017,3.810561,3.221457l.005251-.052529c2.463281-.529617,5.062463-.555172,7.537354-.027611,2.503986.577891,4.908303,1.655327,7.056096,3.070144,2.137805,1.421007,4.098668,3.18169,5.46075,5.322713.686712,1.067331,1.208073,2.257362,1.852503,3.431965.643734,1.178477,1.418555,2.294401,2.361473,3.279702,1.847324,2.007297,4.219792,3.417736,6.639968,4.504943,2.432359,1.08798,4.938864,1.911595,7.380723,2.814883,2.437902.901854,4.838814,1.880579,6.95028,3.263749,2.114731,1.383834,3.851868,3.174617,5.05655,5.403926,1.242987,2.210208,2.158311,4.684439,3.551999,7.034722,1.387636,2.376609,3.353036,4.402438,5.545856,6.004128,4.414715,3.244906,9.622706,4.921867,14.589415,6.499878,2.49568.792842,4.95943,1.59987,7.317493,2.582052,2.354648.977476,4.604948,2.180541,6.744974,3.553135,4.262745,2.771647,8.026408,6.293004,11.041927,10.35224l2.387657-1.816368c-3.342528-4.271931-7.445379-7.915317-12.039903-10.741729Z" fill="url(#linear-gradient)" opacity=".38"/><path d="M432.769512,400.477697c.641218.571971,1.43154.965405,2.352604,1.075123l.005251-.052529c2.46328-.529624,5.062461-.555186,7.537353-.027632,2.503987.577885,4.908307,1.655314,7.056105,3.070125,2.137809,1.421001,4.098677,3.181679,5.460764,5.322698.686715,1.067329,1.208079,2.257359,1.852512,3.43196.643737,1.178476,1.418561,2.294397,2.361482,3.279696,1.84733,2.007292,4.219802,3.417725,6.63998,4.504925,2.432362,1.087973,4.938869,1.911582,7.380731,2.814862,2.437905.901847,4.838819,1.880565,6.950289,3.26373,2.114735,1.383828,3.851876,3.174606,5.056564,5.403912,1.242993,2.210204,2.158324,4.684433,3.552018,7.034712,1.387642,2.376605,3.353048,4.402429,5.545872,6.004112,4.414724,3.244894,9.622719,4.921841,14.589433,6.499838,2.495682.792835,4.959434,1.599857,7.3175,2.582032,2.35465.977469,4.604954,2.180528,6.744983,3.553117,4.262753,2.771635,8.026426,6.292982,11.041955,10.352209l2.387652-1.816375c-3.342539-4.271922-7.4454-7.915297-12.039932-10.741697-2.304857-1.399242-4.724204-2.614143-7.234779-3.583562-2.504303-.974707-5.05135-1.719066-7.559349-2.473563-5.004253-1.481718-9.977633-3.010441-14.117147-5.940277-2.05807-1.449136-3.848643-3.230544-5.149371-5.362295-1.329058-2.13461-2.293205-4.587486-3.657884-6.924847-1.327157-2.37154-3.374489-4.419833-5.672424-5.843398-2.307302-1.447292-4.818483-2.405374-7.30146-3.273567-2.487469-.866477-4.980706-1.636444-7.353578-2.645815-2.362408-1.008445-4.611461-2.301287-6.357362-4.12945-.889652-.893215-1.640372-1.927167-2.273583-3.037235-.637684-1.108717-1.193461-2.318189-1.945975-3.44441-1.503905-2.262039-3.571714-4.036865-5.809033-5.466971-2.257619-1.413955-4.721379-2.470233-7.316591-3.100177-2.148285-.463775-4.349511-.604854-6.547087-.462168-.988088.064155-1.961687-.209386-2.724155-.76617" fill="#b0292a"/><path d="M542.386399,452.639631l-5.990179-2.931193c-3.824461-1.871435-7.372626-4.26125-10.544263-7.101934l-2.314492-2.07298c-3.763386-3.370685-8.05287-6.102971-12.698498-8.088602l-.000014-.000006c-4.480192-1.914921-8.630201-4.524718-12.29696-7.733132l-2.356794-2.062195c-3.606131-3.155364-7.680035-5.732067-12.076324-7.63815l-3.772644-1.635692c-3.639507-1.577968-7.061233-3.616928-10.181171-6.066822l-8.677079-6.813572c-7.394725-4.768517-10.116997-14.233404-6.464759-22.238519,13.897988-30.462144,21.744096-64.971828,21.744096-101.512403,0-122.900391-88.780029-222.890137-197.910034-222.890137-56.139954,0-109.849976,27.290039-147.179993,73.919922-.779968.97998-3.09608,3.779993-2.089966,3.069824-9.537503,13.434081,16.518827-20.536429,56.499251-44.511716,32.126233-19.26532,75.770555-28.704582,98.020708-27.448244,99.830017,5.630371,181.040039,97.240234,181.040039,217.180176,0,2.310059-.040039,4.609863-.100037,6.890137-.099976,3.889648,1.410034,7.759766,4.429993,10.199707.490051.400391.75.810059.75,1.240234,0,.629883-.569946,1.22998-1.599976,1.790039-2.830017,1.52002-4.619995,4.469727-4.960022,7.679688-11.389954,106.560059-87.449951,187.610352-179.559998,189.390137-48.099976.930176-102.089966-15.410156-151.440002-71.080078,37.350037,48.919922,88.380005,77.459961,146.190002,77.459961,57.585006,0,109.498137-27.838304,145.702952-72.199917,5.641056-6.911964,15.529135-8.557257,23.004582-3.687508l10.819431,8.07464c2.818603,2.103549,5.970216,3.719204,9.323554,4.779661l.000013.000004c5.199992,1.644442,9.882717,4.613416,13.588083,8.615211l.778549.840833c3.082647,3.329258,6.849439,5.951772,11.041612,7.687386l6.619111,2.740396c2.957659,1.224508,5.71094,2.893578,8.164603,4.949473l5.078183,4.25495c2.381301,1.995264,5.045213,3.626519,7.904885,4.840581l8.43566,3.581326" fill="#fbf5b5" stroke="#7a6b2b" stroke-miterlimit="10" stroke-width="1.052398"/></g></g></svg>