<?xml version="1.0" encoding="UTF-8"?><svg id="Layer_1" xmlns="http://www.w3.org/2000/svg" width="510.55295" height="720.92585" viewBox="0 0 510.55295 720.92585"><path d="M255.5541,719.92585c-.9082,0-1.84375-.02344-2.81152-.07422-24.50293-1.26562-41.38184-17.25781-60.92676-35.77441-23.25098-22.02637-42.65039-48.81152-57.6582-79.61035l9.62695-4.69141c14.44336,29.64062,33.08105,55.38867,55.39648,76.52832,20.80469,19.71094,34.5498,31.84277,54.11426,32.85449,9.94336.50488,14.9707-2.17578,21.92773-5.89551,6.73438-3.60156,15.11523-8.08496,29.60547-9.72656,18.64844-2.10742,31.92188,2.06055,42.58691,5.41309,11.30762,3.55469,17.54004,5.19824,24.6582.71191,12.64453-7.96973,15.25195-27.0332,16.50488-36.19531,4.23828-30.9834-12.10547-55.35449-19.3291-64.39453l8.36523-6.68555c8.08594,10.11914,26.37305,37.44238,21.57324,72.53027-1.35742,9.92676-4.53711,33.17285-21.40332,43.80371-11.64551,7.34082-22.29883,3.99121-33.58008.44531-10.20605-3.20898-21.77148-6.84668-38.1709-4.98828-12.45215,1.41113-19.21777,5.0293-25.75977,8.52832-6.64551,3.55469-13.50195,7.2207-24.71973,7.2207Z" fill="#c8c1df" stroke="#282566" stroke-miterlimit="10" stroke-width="2"/><path d="M397.86627,73.67313c-1.34668,0-2.68848-.54102-3.6748-1.6084-3.82031-4.1377-5.75195-9.80273-5.43848-15.95215.37598-7.37402,3.875-14.66797,9.36133-19.51172,7.72168-6.81738,18.94336-10.13184,33.27246-9.85059,4.11523.08105,8.2207.40527,12.19141.71875,6.60352.52148,12.83984,1.01367,19.04004.46973,14.64355-1.28711,28.8584-8.91797,38.02539-20.41113,1.72266-2.16016,4.86914-2.5127,7.02637-.79199,2.15918,1.72168,2.51367,4.86816.79199,7.02637-10.84082,13.59277-27.65137,22.61621-44.96875,24.1377-7.02832.62012-13.97949.06836-20.70312-.46191-3.8252-.30176-7.78027-.61426-11.59863-.68945-11.78418-.22754-20.6748,2.24219-26.45801,7.34863-3.45898,3.05371-5.75586,7.85254-5.99316,12.52441-.125,2.43359.26074,5.91113,2.79883,8.65918,1.87305,2.0293,1.74707,5.19238-.28125,7.06641-.96191.8877-2.17871,1.32617-3.3916,1.32617Z" fill="#c8c1df" stroke="#282566" stroke-miterlimit="10" stroke-width="2"/><path d="M163.27919,35.63532c-5.32129-11.21191-12.98633-19.95312-22.78125-25.98169-8.84375-5.44312-23.86963-11.15894-45.25342-7.49414-16.78271,2.87695-25.83984,10.64429-33.11621,16.88599-6.66943,5.71973-11.4873,9.85254-20.12305,9.53394-9.14158-.33626-18.691-7.19979-34.81813-20.76649-2.44705-2.05854-6.18875-.32321-6.18713,2.87454.00002.03325.00003.0665.00005.09975.00056,1.10852.49312,2.16465,1.34168,2.87794,17.44284,14.66212,27.9368,22.08684,39.38375,22.50947,11.60742.42749,18.28271-5.29858,25.3501-11.36035,6.90869-5.92578,14.73926-12.64209,29.45264-15.16382,15.29443-2.62158,28.74756-.44165,39.98584,6.4751,8.52344,5.24609,15.21875,12.90649,19.8999,22.7688,12.40967,26.14478-.65039,53.48267-3.39502,58.69775-.97705,1.85718-.26465,4.15454,1.59326,5.13208.2041.10767.41406.19458.62646.26172,1.72021.54492,3.63525-.2019,4.50537-1.85498,3.03955-5.77637,17.49707-36.08228,3.53516-65.49561Z" fill="#c8c1df" stroke="#282566" stroke-miterlimit="10" stroke-width="2"/><path d="M166.73418,485.83936c.88274-45.09125,13.89317-87.74953,32.99093-128.69188,11.82071-27.56124,22.35779-82.41739,26.56812-106.12246,1.60309-9.02572,2.67836-18.13393,3.12244-27.29015,3.03664-62.61029-12.64339-122.50552-38.35386-178.5248-26.92322,2.26726-53.03866,1.9807-79.95866,2.75923,41.57524,75.12988,52.7954,164.70169,25.63472,247.06854-8.76757,26.44106-20.57881,52.02416-30.34527,78.51219-3.28545,9.90819-6.00984,19.79-8.57388,30.0857-1.79402,7.20373-3.26362,14.49393-4.39414,21.8311-2.16744,14.06679-3.72915,27.74369-4.63887,42.01401-17.26309-5.19478-35.33717-6.34699-53.50521-9.497,9.21256,25.59548,20.32895,49.09922,32.44425,72.55598,14.25401,26.3595,30.36489,49.62835,50.51833,73.7082,7.36808,7.66233,12.73838,15.41862,20.10646,23.08095,5.94123,5.40752,11.10527,11.25042,16.71259,16.71609,4.09218,3.98881,10.97577,1.49778,11.6022-4.18237,3.55332-32.21972,13.75438-62.29644,29.43342-91.81775,2.20288-4.1477,4.69238-8.1333,7.35539-12.00169,3.46774-5.03737,8.38724-12.56976,9.06455-13.31392.95192-1.04587,13.18594-17.6389,18.85048-24.91303-22.16362-2.9621-43.32834-5.97118-64.63399-11.97694h0Z" fill="#c8c1df" stroke="#282566" stroke-miterlimit="10" stroke-width="7"/><path d="M405.78323,199.81557c.88274,45.09125,13.89317,87.74953,32.99093,128.69188,11.82071,27.56124,22.35779,82.41739,26.56812,106.12246,1.60309,9.02572,2.67836,18.13393,3.12244,27.29015,3.03664,62.61029-12.64339,122.50552-38.35386,178.5248-26.92322-2.26726-53.03866-1.9807-79.95866-2.75923,41.57524-75.12988,52.7954-164.70169,25.63472-247.06854-8.76757-26.44106-20.57881-52.02416-30.34527-78.51219-3.28545-9.90819-6.00984-19.79-8.57388-30.0857-1.79402-7.20373-3.26362-14.49393-4.39414-21.8311-2.16744-14.06679-3.72915-27.74369-4.63887-42.01401-17.26309,5.19478-35.33717,6.34699-53.50521,9.497,9.21256-25.59548,20.32895-49.09922,32.44425-72.55598,14.25401-26.3595,30.36489-49.62835,50.51833-73.7082,7.36808-7.66233,12.73838-15.41862,20.10646-23.08095,5.94123-5.40752,11.10527-11.25042,16.71259-16.71609,4.09218-3.98881,10.97577-1.49778,11.6022,4.18237,3.55332,32.21972,13.75438,62.29644,29.43342,91.81775,2.20288,4.1477,4.69238,8.1333,7.35539,12.00169,3.46774,5.03737,8.38724,12.56976,9.06455,13.31392.95192,1.04587,13.18594,17.6389,18.85048,24.91303-22.16362,2.9621-43.32834,5.97118-64.63399,11.97694h0Z" fill="#c8c1df" stroke="#282566" stroke-miterlimit="10" stroke-width="7"/></svg>