<?xml version="1.0" encoding="UTF-8"?><svg id="Layer_1" xmlns="http://www.w3.org/2000/svg" width="440.212661" height="436.164424" xmlns:xlink="http://www.w3.org/1999/xlink" viewBox="0 0 440.212661 436.164424"><defs><linearGradient id="linear-gradient" x1="141.924517" y1="256.625697" x2="393.290266" y2="256.625697" gradientUnits="userSpaceOnUse"><stop offset="0" stop-color="#ebbdbd"/><stop offset=".180469" stop-color="#ce5d5e"/><stop offset=".18843" stop-color="#cd595a"/><stop offset=".397415" stop-color="#d87e7f"/><stop offset=".54143" stop-color="#e19b9c"/><stop offset=".604191" stop-color="#dd8f90"/><stop offset=".715245" stop-color="#d47172"/><stop offset=".792159" stop-color="#cd595a"/><stop offset=".836299" stop-color="#ce5f5e"/><stop offset=".897822" stop-color="#d3716c"/><stop offset=".969238" stop-color="#da8e82"/><stop offset="1" stop-color="#de9e8e"/></linearGradient></defs><path d="M432.764455,218.913568c33.467797,116.077535-79.175673,209.852801-215.447544,215.551073-102.088003,4.628558-148.156101-72.088851-193.891267-134.460171-16.194761-22.0856-8.251764-53.847862-18.041972-81.090902-21.509317-59.853602,52.265924-102.193289,75.853139-153.84981C110.261064,1.5,166.557361,52.239319,219.074063,17.587817c65.074752-42.937538,144.486501,7.254982,158.4199,66.210553,11.25155,47.608025,42.72586,84.653399,55.270492,135.115198Z" fill="#b1d5f1" opacity=".58" stroke="#004a79" stroke-linecap="round" stroke-miterlimit="10" stroke-width="3"/><path d="M150.45785,167.98154c.16169,11.071613-17.229735,11.071745-17.06662-.000763-.161737-11.07085,17.229689-11.070982,17.06662.000763Z" fill="#5959a2"/><path d="M130.011917,193.58154c.16169,11.071613-17.229735,11.071745-17.06662-.000763-.161737-11.07085,17.229689-11.070982,17.06662.000763Z" fill="#5959a2"/><path d="M368.830689,332.429732c.16169,11.071613-17.229735,11.071745-17.06662-.000763-.161737-11.07085,17.229689-11.070982,17.06662.000763Z" fill="#5959a2"/><path d="M174.252912,413.445043c.16169,11.071613-17.229735,11.071745-17.06662-.000763-.161737-11.07085,17.229689-11.070982,17.06662.000763Z" fill="#5959a2"/><path d="M405.808467,295.393099c.16169,11.071613-17.229735,11.071745-17.06662-.000763-.161737-11.07085,17.229689-11.070982,17.06662.000763Z" fill="#5959a2"/><path d="M397.275134,201.43596c.16169,11.071613-17.229735,11.071745-17.06662-.000763-.161737-11.07085,17.229689-11.070982,17.06662.000763Z" fill="#5959a2"/><path d="M276.140724,199.092405c.16169,11.071613-17.229735,11.071745-17.06662-.000763-.161737-11.07085,17.229689-11.070982,17.06662.000763Z" fill="#5959a2"/><path d="M199.341292,150.914874c.16169,11.071613-17.229735,11.071745-17.06662-.000763-.161737-11.07085,17.229689-11.070982,17.06662.000763Z" fill="#5959a2"/><path d="M71.941801,303.926432c.16169,11.071613-17.229735,11.071745-17.06662-.000763-.161737-11.07085,17.229689-11.070982,17.06662.000763Z" fill="#5959a2"/><path d="M114.252912,107.126432c.16169,11.071613-17.229735,11.071745-17.06662-.000763-.161737-11.07085,17.229689-11.070982,17.06662.000763Z" fill="#5959a2"/><path d="M243.60181,56.625697c.16169,11.071613-17.229735,11.071745-17.06662-.000763-.161737-11.07085,17.229689-11.070982,17.06662.000763Z" fill="#5959a2"/><path d="M253.400903,89.49495c.16169,11.071613-17.229735,11.071745-17.06662-.000763-.161737-11.07085,17.229689-11.070982,17.06662.000763Z" fill="#5959a2"/><path d="M114.252912,256.625697c.16169,11.071613-17.229735,11.071745-17.06662-.000763-.161737-11.07085,17.229689-11.070982,17.06662.000763Z" fill="#5959a2"/><path d="M80.475134,159.448207c.16169,11.071613-17.229735,11.071745-17.06662-.000763-.161737-11.07085,17.229689-11.070982,17.06662.000763Z" fill="#5959a2"/><path d="M47.408467,202.114874c.16169,11.071613-17.229735,11.071745-17.06662-.000763-.161737-11.07085,17.229689-11.070982,17.06662.000763Z" fill="#5959a2"/><path d="M217.186245,98.593099c.303076,20.759396-32.305661,20.759574-31.999913-.001429-.303164-20.757967,32.305574-20.758144,31.999913.001429Z" fill="#f05495"/><path d="M360.297356,82.593099c.303076,20.759396-32.305661,20.759574-31.999913-.001429-.303164-20.757967,32.305574-20.758144,31.999913.001429Z" fill="#f05495"/><path d="M201.186245,201.43596c.303076,20.759396-32.305661,20.759574-31.999913-.001429-.303164-20.757967,32.305574-20.758144,31.999913.001429Z" fill="#f05495"/><path d="M70.875134,256.625697c.303076,20.759396-32.305661,20.759574-31.999913-.001429-.303164-20.757967,32.305574-20.758144,31.999913.001429Z" fill="#f05495"/><path d="M165.719578,92.339684c.303076,20.759396-32.305661,20.759574-31.999913-.001429-.303164-20.757967,32.305574-20.758144,31.999913.001429Z" fill="#f05495"/><path d="M243.852912,234.080793c.303076,20.759396-32.305661,20.759574-31.999913-.001429-.303164-20.757967,32.305574-20.758144,31.999913.001429Z" fill="#f05495"/><path d="M404.741801,240.625697c.303076,20.759396-32.305661,20.759574-31.999913-.001429-.303164-20.757967,32.305574-20.758144,31.999913.001429Z" fill="#f05495"/><path d="M317.630689,40.625697c.303076,20.759396-32.305661,20.759574-31.999913-.001429-.303164-20.757967,32.305574-20.758144,31.999913.001429Z" fill="#f05495"/><path d="M113.186245,142.38154c.303076,20.759396-32.305661,20.759574-31.999913-.001429-.303164-20.757967,32.305574-20.758144,31.999913.001429Z" fill="#f05495"/><path d="M129.186245,348.429732c.303076,20.759396-32.305661,20.759574-31.999913-.001429-.303164-20.757967,32.305574-20.758144,31.999913.001429Z" fill="#f05495"/><path d="M344.297356,380.429732c.303076,20.759396-32.305661,20.759574-31.999913-.001429-.303164-20.757967,32.305574-20.758144,31.999913.001429Z" fill="#f05495"/><path d="M264.887173,138.493223c-15.607519,49.655238,89.613298,60.561366,52.242512,72.262028-90.081608,28.637159,22.108455,105.45654-53.236746,89.178633-37.084059-18.870362-84.803265-86.913186-117.80665-15.441366-27.12009,58.731011,84.743126,159.065474,149.15972,93.480481,8.487139-8.64108,14.41587-16.99185,8.706468-29.604385-20.230818-48.127429,70.910659-60.423718,56.497028-105.14581-19.061296-47.892484,14.94752-44.808999,30.950148-76.256726,18.896779-37.135197-109.68711-82.002678-126.51248-28.472855Z" fill="url(#linear-gradient)" stroke="#8a181a" stroke-linecap="round" stroke-miterlimit="10" stroke-width="2"/></svg>