<?xml version="1.0" encoding="UTF-8"?><svg id="Layer_1" xmlns="http://www.w3.org/2000/svg" width="386.659779" height="296.583869" xmlns:xlink="http://www.w3.org/1999/xlink" viewBox="0 0 386.659779 296.583869"><defs><linearGradient id="linear-gradient" x1="333.431452" y1="117.970257" x2="386.659779" y2="117.970257" gradientUnits="userSpaceOnUse"><stop offset="0" stop-color="#fff"/><stop offset="1" stop-color="#e6e7e8" stop-opacity=".5"/></linearGradient><linearGradient id="linear-gradient-2" x1="0" y1="43.097518" x2="341.869736" y2="43.097518" gradientUnits="userSpaceOnUse"><stop offset="0" stop-color="#fff"/><stop offset="1" stop-color="#e6e7e8" stop-opacity=".5"/></linearGradient><linearGradient id="linear-gradient-3" x1="10.751791" y1="139.536963" x2="385.947435" y2="139.536963" gradientUnits="userSpaceOnUse"><stop offset="0" stop-color="#fff"/><stop offset="1" stop-color="#e6e7e8" stop-opacity=".5"/></linearGradient><linearGradient id="linear-gradient-4" x1="49.58362" y1="122.840856" x2="125.963564" y2="122.840856" gradientUnits="userSpaceOnUse"><stop offset="0" stop-color="#fff"/><stop offset=".041899" stop-color="#fdfdfd" stop-opacity=".4"/><stop offset="1" stop-color="#e6e7e8" stop-opacity=".5"/></linearGradient><linearGradient id="linear-gradient-5" x1="76.250287" y1="221.621497" x2="152.630231" y2="221.621497" xlink:href="#linear-gradient-4"/><linearGradient id="linear-gradient-6" x1="249.104418" y1="78.737352" x2="325.484362" y2="78.737352" xlink:href="#linear-gradient-4"/><linearGradient id="linear-gradient-7" x1="275.771084" y1="177.517993" x2="352.151028" y2="177.517993" xlink:href="#linear-gradient-4"/><linearGradient id="linear-gradient-8" x1="149.344019" y1="100.789104" x2="225.723963" y2="100.789104" xlink:href="#linear-gradient-4"/><linearGradient id="linear-gradient-9" x1="176.010686" y1="199.569745" x2="252.39063" y2="199.569745" xlink:href="#linear-gradient-4"/></defs><polygon points="376.944121 231.589799 376.354194 231.710158 362.276733 162.86176 340.623697 56.937866 333.431452 21.740492 343.14711 4.230356 350.339355 39.42773 371.992391 145.351625 386.069852 214.200022 386.659779 214.079663 386.288676 213.780897 376.573018 231.291032 380.88982 221.06266 376.944121 231.589799" fill="url(#linear-gradient)"/><polygon points="332.154078 18.192129 341.869736 .681994 341.769736 .59001 301.894627 8.745642 10.086761 68.393656 9.496834 68.514016 9.715658 68.09489 0 85.605026 332.154078 18.192129" fill="url(#linear-gradient-2)"/><polyline points="376.231777 228.070046 336.356668 236.225678 44.548802 295.873693 43.958875 295.994052 29.881414 227.145654 8.228378 121.22176 1.036133 86.024386" fill="none" stroke="#231f20" stroke-miterlimit="10"/><polygon points="343.024624 .59001 385.947435 210.55991 346.072326 218.715542 54.26446 278.363557 53.674533 278.483916 39.597072 209.635519 17.944036 103.711624 10.751791 68.51425 343.024624 .59001" fill="url(#linear-gradient-3)" stroke="#231f20" stroke-miterlimit="10"/><line x1="10.751791" y1="68.51425" x2="1.036133" y2="86.024386" fill="none" stroke="#231f20" stroke-miterlimit="10" stroke-width=".84582"/><line x1="53.893358" y1="278.064791" x2="44.1777" y2="295.574926" fill="none" stroke="#231f20" stroke-miterlimit="10" stroke-width=".84582"/><line x1="386.047435" y1="210.651894" x2="376.331777" y2="228.16203" fill="none" stroke="#231f20" stroke-miterlimit="10" stroke-width=".84582"/><path d="M125.963564,113.811012c-.609985,15.179932-9.719971,29.399902-24.609985,35.809937-19.440002,8.359985-41.789978.410034-51.769958-17.76001.599976-15.180054,9.719971-29.410034,24.599976-35.799927,19.440002-8.360107,41.799988-.410034,51.779968,17.75Z" fill="url(#linear-gradient-4)" opacity=".49" stroke="#231f20" stroke-miterlimit="10"/><path d="M101.764658,149.620363c-20.670044,8.889893-44.630005-.660034-53.52002-21.330078-.140015-.319946-.27002-.639893-.400024-.969971-1.51001-17.050049,7.910034-33.880005,24.480042-41,20.669983-8.889893,44.639954.660034,53.529968,21.320068.140015.339966.280029.669922.410034,1.01001,1.48999,17.030029-7.930054,33.839966-24.5,40.969971Z" fill="#3ab4e7" opacity=".54"/><path d="M125.963564,113.811012c-.609985,15.179932-9.719971,29.399902-24.609985,35.809937-19.440002,8.359985-41.789978.410034-51.769958-17.76001-.640015-1.150024-1.220032-2.339966-1.75-3.569946-.140015-.320068-.27002-.640015-.400024-.969971-.440002-1.080078-.830017-2.190063-1.160034-3.290039-5.97998-19.590088,3.620056-40.97998,22.880005-49.26001,20.670044-8.880005,44.640015.669922,53.530029,21.319946,1.369995,3.190063,2.309998,6.460083,2.830017,9.75.149963.940063.269958,1.869995.339966,2.810059.150024,1.72998.190002,3.449951.109985,5.160034Z" fill="none" stroke="#231f20" stroke-miterlimit="10"/><circle cx="85.255881" cy="112.198394" r="43.059491" fill="none" stroke="#231f20" stroke-miterlimit="10" stroke-width="1.056915"/><path d="M102.625318,100.063572c.230024,1.473907-8.611011,1.933135-23.564495,8.675157-13.82331,6.232574-20.03825,12.048607-21.020261,10.841884-1.136898-1.397015,5.254243-11.574851,15.720304-17.104633,13.170042-6.958333,28.56618-4.323449,28.864452-2.412409Z" fill="#ccecfc" opacity=".72"/><path d="M152.630231,212.591654c-.609985,15.179932-9.719971,29.399902-24.609985,35.809937-19.440002,8.359985-41.789978.410034-51.769958-17.76001.599976-15.180054,9.719971-29.410034,24.599976-35.799927,19.440002-8.360107,41.799988-.410034,51.779968,17.75Z" fill="url(#linear-gradient-5)" opacity=".5" stroke="#231f20" stroke-miterlimit="10"/><path d="M128.431325,248.401004c-20.670044,8.889893-44.630005-.660034-53.52002-21.330078-.140015-.319946-.27002-.639893-.400024-.969971-1.51001-17.050049,7.910034-33.880005,24.480042-41,20.669983-8.889893,44.639954.660034,53.529968,21.320068.140015.339966.280029.669922.410034,1.01001,1.48999,17.030029-7.930054,33.839966-24.5,40.969971Z" fill="#3ab4e7" opacity=".54"/><path d="M152.630231,212.591654c-.609985,15.179932-9.719971,29.399902-24.609985,35.809937-19.440002,8.359985-41.789978.410034-51.769958-17.76001-.640015-1.150024-1.220032-2.339966-1.75-3.569946-.140015-.320068-.27002-.640015-.400024-.969971-.440002-1.080078-.830017-2.190063-1.160034-3.290039-5.97998-19.590088,3.620056-40.97998,22.880005-49.26001,20.670044-8.880005,44.640015.669922,53.530029,21.319946,1.369995,3.190063,2.309998,6.460083,2.830017,9.75.149963.940063.269958,1.869995.339966,2.810059.150024,1.72998.190002,3.449951.109985,5.160034Z" fill="none" stroke="#231f20" stroke-miterlimit="10"/><circle cx="111.922548" cy="210.979035" r="43.059491" fill="none" stroke="#231f20" stroke-miterlimit="10" stroke-width="1.056915"/><path d="M127.164735,195.996637c.311494,1.458864-8.490413,2.408199-23.046549,9.969973-13.455987,6.99037-19.338464,13.142459-20.385952,11.992114-1.212701-1.331745,4.603557-11.848692,14.746489-17.950974,12.763437-7.678743,28.282108-5.902646,28.686012-4.011112Z" fill="#ccecfc" opacity=".72"/><path d="M325.484362,69.707509c-.609985,15.179932-9.719971,29.399902-24.609985,35.809937-19.440002,8.359985-41.789978.410034-51.769958-17.76001.599976-15.180054,9.719971-29.410034,24.599976-35.799927,19.440002-8.360107,41.799988-.410034,51.779968,17.75Z" fill="url(#linear-gradient-6)" opacity=".5" stroke="#231f20" stroke-miterlimit="10"/><path d="M301.285456,105.516859c-20.670044,8.889893-44.630005-.660034-53.52002-21.330078-.140015-.319946-.27002-.639893-.400024-.969971-1.51001-17.050049,7.910034-33.880005,24.480042-41,20.669983-8.889893,44.639954.660034,53.529968,21.320068.140015.339966.280029.669922.410034,1.01001,1.48999,17.030029-7.930054,33.839966-24.5,40.969971Z" fill="#3ab4e7" opacity=".54"/><path d="M325.484362,69.707509c-.609985,15.179932-9.719971,29.399902-24.609985,35.809937-19.440002,8.359985-41.789978.410034-51.769958-17.76001-.640015-1.150024-1.220032-2.339966-1.75-3.569946-.140015-.320068-.27002-.640015-.400024-.969971-.440002-1.080078-.830017-2.190063-1.160034-3.290039-5.97998-19.590088,3.620056-40.97998,22.880005-49.26001,20.670044-8.880005,44.640015.669922,53.530029,21.319946,1.369995,3.190063,2.309998,6.460083,2.830017,9.75.149963.940063.269958,1.869995.339966,2.810059.150024,1.72998.190002,3.449951.109985,5.160034Z" fill="none" stroke="#231f20" stroke-miterlimit="10"/><circle cx="284.776678" cy="68.09489" r="43.059491" fill="none" stroke="#231f20" stroke-miterlimit="10" stroke-width="1.056915"/><path d="M300.018866,53.112492c.311494,1.458864-8.490413,2.408199-23.046549,9.969973-13.455987,6.99037-19.338464,13.142459-20.385952,11.992114-1.212701-1.331745,4.603557-11.848692,14.746489-17.950974,12.763437-7.678743,28.282108-5.902646,28.686012-4.011112Z" fill="#ccecfc" opacity=".72"/><path d="M352.151028,168.48815c-.609985,15.179932-9.719971,29.399902-24.609985,35.809937-19.440002,8.359985-41.789978.410034-51.769958-17.76001.599976-15.180054,9.719971-29.410034,24.599976-35.799927,19.440002-8.360107,41.799988-.410034,51.779968,17.75Z" fill="url(#linear-gradient-7)" opacity=".5" stroke="#231f20" stroke-miterlimit="10"/><path d="M327.537588,203.71173c-20.670044,8.889893-44.630005-.660034-53.52002-21.330078-.140015-.319946-.27002-.639893-.400024-.969971-1.51001-17.050049,7.910034-33.880005,24.480042-41,20.669983-8.889893,44.639954.660034,53.529968,21.320068.140015.339966.280029.669922.410034,1.01001,1.48999,17.030029-7.930054,33.839966-24.5,40.969971Z" fill="#3ab4e7" opacity=".54"/><path d="M352.151028,168.48815c-.609985,15.179932-9.719971,29.399902-24.609985,35.809937-19.440002,8.359985-41.789978.410034-51.769958-17.76001-.640015-1.150024-1.220032-2.339966-1.75-3.569946-.140015-.320068-.27002-.640015-.400024-.969971-.440002-1.080078-.830017-2.190063-1.160034-3.290039-5.97998-19.590088,3.620056-40.97998,22.880005-49.26001,20.670044-8.880005,44.640015.669922,53.530029,21.319946,1.369995,3.190063,2.309998,6.460083,2.830017,9.75.149963.940063.269958,1.869995.339966,2.810059.150024,1.72998.190002,3.449951.109985,5.160034Z" fill="none" stroke="#231f20" stroke-miterlimit="10"/><circle cx="311.443345" cy="166.875532" r="43.059491" fill="none" stroke="#231f20" stroke-miterlimit="10" stroke-width="1.056915"/><path d="M326.685533,151.893133c.311494,1.458864-8.490413,2.408199-23.046549,9.969973-13.455987,6.99037-19.338464,13.142459-20.385952,11.992114-1.212701-1.331745,4.603557-11.848692,14.746489-17.950974,12.763437-7.678743,28.282108-5.902646,28.686012-4.011112Z" fill="#ccecfc" opacity=".72"/><path d="M225.723963,91.75926c-.609985,15.179932-9.719971,29.399902-24.609985,35.809937-19.440002,8.359985-41.789978.410034-51.769958-17.76001.599976-15.180054,9.719971-29.410034,24.599976-35.799927,19.440002-8.360107,41.799988-.410034,51.779968,17.75Z" fill="url(#linear-gradient-8)" opacity=".5" stroke="#231f20" stroke-miterlimit="10"/><path d="M201.525057,127.568611c-20.670044,8.889893-44.630005-.660034-53.52002-21.330078-.140015-.319946-.27002-.639893-.400024-.969971-1.51001-17.050049,7.910034-33.880005,24.480042-41,20.669983-8.889893,44.639954.660034,53.529968,21.320068.140015.339966.280029.669922.410034,1.01001,1.48999,17.030029-7.930054,33.839966-24.5,40.969971Z" fill="#3ab4e7" opacity=".54"/><path d="M225.723963,91.75926c-.609985,15.179932-9.719971,29.399902-24.609985,35.809937-19.440002,8.359985-41.789978.410034-51.769958-17.76001-.640015-1.150024-1.220032-2.339966-1.75-3.569946-.140015-.320068-.27002-.640015-.400024-.969971-.440002-1.080078-.830017-2.190063-1.160034-3.290039-5.97998-19.590088,3.620056-40.97998,22.880005-49.26001,20.670044-8.880005,44.640015.669922,53.530029,21.319946,1.369995,3.190063,2.309998,6.460083,2.830017,9.75.149963.940063.269958,1.869995.339966,2.810059.150024,1.72998.190002,3.449951.109985,5.160034Z" fill="none" stroke="#231f20" stroke-miterlimit="10"/><circle cx="185.01628" cy="90.146642" r="43.059491" fill="none" stroke="#231f20" stroke-miterlimit="10" stroke-width="1.056915"/><path d="M200.258467,75.164244c.311494,1.458864-8.490413,2.408199-23.046549,9.969973-13.455987,6.99037-19.338464,13.142459-20.385952,11.992114-1.212701-1.331745,4.603557-11.848692,14.746489-17.950974,12.763437-7.678743,28.282108-5.902646,28.686012-4.011112Z" fill="#ccecfc" opacity=".72"/><path d="M228.191724,226.349253c-20.670044,8.889893-44.630005-.660034-53.52002-21.330078-.140015-.319946-.27002-.639893-.400024-.969971-1.51001-17.050049,7.910034-33.880005,24.480042-41,20.669983-8.889893,44.639954.660034,53.529968,21.320068.140015.339966.280029.669922.410034,1.01001,1.48999,17.030029-7.930054,33.839966-24.5,40.969971Z" fill="#3ab4e7" opacity=".73"/><path d="M252.39063,190.539902c-.609985,15.179932-9.719971,29.399902-24.609985,35.809937-19.440002,8.359985-41.789978.410034-51.769958-17.76001.599976-15.180054,9.719971-29.410034,24.599976-35.799927,19.440002-8.360107,41.799988-.410034,51.779968,17.75Z" fill="url(#linear-gradient-9)" opacity=".5" stroke="#231f20" stroke-miterlimit="10"/><path d="M252.39063,190.539902c-.609985,15.179932-9.719971,29.399902-24.609985,35.809937-19.440002,8.359985-41.789978.410034-51.769958-17.76001-.640015-1.150024-1.220032-2.339966-1.75-3.569946-.140015-.320068-.27002-.640015-.400024-.969971-.440002-1.080078-.830017-2.190063-1.160034-3.290039-5.97998-19.590088,3.620056-40.97998,22.880005-49.26001,20.670044-8.880005,44.640015.669922,53.530029,21.319946,1.369995,3.190063,2.309998,6.460083,2.830017,9.75.149963.940063.269958,1.869995.339966,2.810059.150024,1.72998.190002,3.449951.109985,5.160034Z" fill="none" stroke="#231f20" stroke-miterlimit="10"/><circle cx="211.682946" cy="188.927284" r="43.059491" fill="none" stroke="#231f20" stroke-miterlimit="10" stroke-width="1.056915"/><path d="M226.925134,173.944885c.311494,1.458864-8.490413,2.408199-23.046549,9.969973-13.455987,6.99037-19.338464,13.142459-20.385952,11.992114-1.212701-1.331745,4.603557-11.848692,14.746489-17.950974,12.763437-7.678743,28.282108-5.902646,28.686012-4.011112Z" fill="#ccecfc" opacity=".72"/></svg>