<?xml version="1.0" encoding="UTF-8"?><svg id="Layer_1" xmlns="http://www.w3.org/2000/svg" width="261.70175" height="721.20108" viewBox="0 0 261.70175 721.20108"><path d="M156.37442,720.20108c-1.15918,0-2.30957-.50146-3.09961-1.46973-3.3252-4.07129-4.18066-10.12451-2.3457-16.60742.66309-2.3457,1.56445-4.53271,2.43555-6.64697.86426-2.09668,1.67969-4.07666,2.21777-6.07861,2.78125-10.35449-2.85352-22.48193-12.56152-27.0332-2.44629-1.14697-5.15527-1.9043-8.02344-2.70605-4.2959-1.20166-8.73926-2.44385-12.75-5.146-7.2207-4.8623-10.52246-12.56885-13.71582-20.02197-2.12891-4.96826-4.13965-9.66064-7.19336-13.38818-4.29102-5.23779-10.89355-8.49609-17.66211-8.71533-6.76074-.23193-13.56641,2.604-18.1875,7.5542-1.50879,1.61475-4.04004,1.70068-5.6543.19336-1.61426-1.50781-1.70117-4.03857-.19336-5.65332,6.1748-6.61133,15.27051-10.36865,24.29492-10.09033,9.04004.29346,17.8584,4.64551,23.58984,11.64111,3.77344,4.60498,6.10449,10.0459,8.35938,15.30762,2.8623,6.68115,5.56641,12.99219,10.83105,16.5376,2.94043,1.98047,6.58105,2.99854,10.43555,4.07666,3.05664.85449,6.2168,1.73828,9.26562,3.16748,13.27539,6.22363,20.69531,22.19189,16.8916,36.35205-.67188,2.49902-1.625,4.81299-2.54785,7.05078-.82031,1.99268-1.59668,3.875-2.13477,5.77734-1.09668,3.87646-.78125,7.37842.84375,9.36865,1.39746,1.71094,1.14355,4.23096-.56738,5.62842-.74316.60645-1.63867.90186-2.52832.90186Z" fill="#c8c1df" stroke="#282566" stroke-miterlimit="10" stroke-width="2"/><path d="M221.34415,58.51114c-1.00488,0-2.04395-.07275-3.12207-.22363-15.94141-2.22949-28.61035-16.93604-39.78809-29.91113-9.02148-10.47168-17.55273-20.35889-24.20508-19.28662-5.78125.93457-9.68848,5.90088-15.09473,12.77441-5.62012,7.14404-12.61426,16.03516-24.42578,22.88525-13.13965,7.61865-30.21777,8.33496-50.76758,2.125-2.11426-.63916-3.31055-2.87158-2.67188-4.98633.63965-2.11572,2.87402-3.31152,4.98633-2.67188,18.34473,5.54395,33.2959,5.07568,44.43945-1.38721,10.48535-6.08105,16.68359-13.95996,22.15137-20.91113,6.0332-7.66943,11.24316-14.29297,20.10547-15.72559,11.09277-1.79297,20.56348,9.21777,31.54297,21.9624,10.25586,11.90479,21.87988,25.39795,34.83496,27.20996,9.64453,1.35156,15.02441-7.74268,22.73438-22.87646,3.42969-6.73291,6.97656-13.69482,11.50195-19.40771,1.37305-1.73145,3.89062-2.02295,5.61914-.65137,1.73242,1.37158,2.02344,3.88721.65234,5.61914-4.03027,5.0874-7.39355,11.68799-10.64453,18.07129-6.86816,13.48145-13.95508,27.39062-27.84863,27.3916Z" fill="#c8c1df" stroke="#282566" stroke-miterlimit="10" stroke-width="2"/><path d="M130.77243,133.55995v.31c0,12.72003-12.41992,21.68005-29.49023,29.23004C63.27243,147.40999,1.94235,139.61,1.50241,111.21999v-.31c0-12.72998,12.41992-21.67999,29.49023-29.22998,38.00977,15.68994,99.33984,23.48999,99.77979,51.87994Z" fill="#4d4b7e" stroke="#282566" stroke-miterlimit="10" stroke-width="3"/><path d="M133.34274,297.77999v.31c0,12.72998-12.42041,21.67999-29.49023,29.22998-38.00977-15.69-99.33984-23.48999-99.78027-51.88v-.31c0-12.71997,12.42041-21.67999,29.49023-29.22998,38.00977,15.69,99.33984,23.48999,99.78027,51.88Z" fill="#4d4b7e" stroke="#282566" stroke-miterlimit="10" stroke-width="3"/><path d="M135.90231,461.99996v.31c0,12.73004-12.40967,21.69-29.46973,29.23004-38.01025-15.67999-99.3501-23.48999-99.79004-51.88v-.31c0-12.72003,12.41016-21.67999,29.46973-29.22003,38.01025,15.67999,99.3501,23.48004,99.79004,51.87Z" fill="#4d4b7e" stroke="#282566" stroke-miterlimit="10" stroke-width="3"/><path d="M69.28317,584.78871c-10.77148-3.28625-21.37354-6.62994-30.60059-10.43872-17.06006,7.53998-29.47998,16.5-29.47998,29.22998v.31c.30322,19.44641,29.17285,29.23389,59.54883,38.5119.12549-20.18103.31494-44.48035.53174-57.61316Z" fill="#4d4b7e" stroke="#282566" stroke-miterlimit="10" stroke-width="3"/><path d="M130.77243,133.86995v57.46002c.43994,28.16998-59.64014,37.95001-97.20996,54.57001-17.06982,7.54999-29.49023,16.51001-29.49023,29.22998v-57.45996c-.43994-28.17004,59.64014-37.95001,97.20996-54.57001,17.07031-7.54999,29.49023-16.51001,29.49023-29.23004Z" fill="#c8c1df" stroke="#282566" stroke-miterlimit="10" stroke-width="3"/><path d="M133.34274,298.08998v57.46002c.43945,28.16998-59.65039,37.94995-97.23047,54.57996-17.05957,7.54004-29.46973,16.5-29.46973,29.22003v-57.46002c-.4502-28.15997,59.62988-37.95001,97.20996-54.57001,17.06982-7.54999,29.49023-16.5,29.49023-29.22998Z" fill="#c8c1df" stroke="#282566" stroke-miterlimit="10" stroke-width="3"/><path d="M135.90231,462.30995v57.46002c.44043,28.16998-59.63965,37.95001-97.21973,54.58002-17.06006,7.53998-29.47998,16.5-29.47998,29.22998v-57.46002c-.43994-28.16998,59.6499-37.94995,97.22998-54.57996,17.06006-7.54004,29.46973-16.5,29.46973-29.23004Z" fill="#c8c1df" stroke="#282566" stroke-miterlimit="10" stroke-width="3"/><path d="M67.75192,67.35927c-.06738-5.21216-.13477-10.42426-.20215-15.63641-.15723-13.71869-.22314-27.4386-.25586-41.15869C34.66598,21.60909,1.1733,32.39339,1.50241,53.44997v57.46002c0-12.72998,12.41992-21.67999,29.49023-29.22998,11.01709-4.87262,23.96582-9.15906,36.7583-13.49255.00244-.27618-.00293-.55194.00098-.82819Z" fill="#c8c1df" stroke="#282566" stroke-miterlimit="10" stroke-width="3"/></svg>