<?xml version="1.0" encoding="UTF-8"?><svg id="Layer_1" xmlns="http://www.w3.org/2000/svg" width="520.873585" height="598.371864" xmlns:xlink="http://www.w3.org/1999/xlink" viewBox="0 0 520.873585 598.371864"><defs><radialGradient id="radial-gradient" cx="212.232901" cy="208.447914" fx="212.232901" fy="208.447914" r="35.345082" gradientUnits="userSpaceOnUse"><stop offset="0" stop-color="#faedee"/><stop offset=".393945" stop-color="#f4dadd"/><stop offset="1" stop-color="#eab7bc"/></radialGradient></defs><path d="M488.548398,326.251782c-7.123352-1.200195-9.473328-6.703125-9.116425-17.587402.231842-7.070312-.063263-15.628906,1.274414-24.051758,1.284332-8.087402,6.691742-15.76709,7.536835-23.157227,1.176514-10.288574-1.684937-18.887695-4.672791-23.40918-2.544861-7.168457-.70462-14.975586,2.005371-22.510254,2.44635-6.80127,6.855469-13.245605,10.876404-19.814453,4.202637-6.865723,6.910034-14.375977,9.963135-20.425293,4.251404-8.42334,7.697388-15.898926,2.916565-21.405273-4.793457-6.666016-14.702881-3.197754-24.173157,7.112793-5.065094,5.514648-9.033966,14.258789-15.17392,22.340332-6.908783,9.108398-19.47934,8.258789-26.196045-.989746-4.612152-6.208984-8.654358-12.793457-12.785065-19.402344-4.178711-6.685547-11.027496-11.427246-15.764801-17.435547-4.864594-6.169434-7.564728-14.896484-14.148346-19.18457-3.242798-2.116699-7.640381-5.002441-5.998474-8.509766,3.982544-8.506836,8.623505-15.626953,10.865906-22.389648,4.261322-12.851074,5.533783-21.770508,1.981445-23.821289-3.960083-2.286621-12.012085,5.083008-22.447693,17.58252-7.489777,8.848633-15.636108,12.789062-23.470459,13.876465-8.717651,1.209473-18.229797.549316-27.597687-1.304688-8.684387-1.718262-17.223083-4.966309-26.661316-3.606934-8.907013.786621-14.132782-7.553711-11.75061-16.172363,2.523468-9.089355,3.374512-18.172852,4.90332-26.264648,1.858673-9.838379,4.772003-18.728027,5.250275-26.316406.880493-13.969238-3.057892-23.276855-6.381165-25.523438-7.390808-5.167969-11.637573-1.527344-16.004486,7.081543-2.656738,5.237793-6.275177,11.817383-8.530975,20.042969-1.785736,6.51123-1.994781,14.099121-3.83429,21.586426-1.699158,6.915527-2.808472,14.296875-4.774689,21.39502-2.215851,8.037109-9.624695,13.189941-16.108765,17.606934-6.490021,4.421387-13.46875,5.534668-21.761475,4.603516-7.787292-1.648926-15.633011-1.714844-22.395187-.849609-7.587433.971191-13.103546,7.787109-19.489624,10.768555-6.898376,3.220215-15.617096,2.914062-21.228149,6.997559-6.613739,4.813477-11.289795,11.186035-16.294998,14.868652-8.294937,6.104004-15.838104,10.342773-20.425766,4.141602-6.352524-8.733398-7.009476-20.107422-11.688812-26.346191-6.258011-8.343262-14.751938-9.909668-26.245255-5.357422-8.438332,2.787109-4.542122,9.606445.817871,22.093262,3.02533,7.04834,6.618546,15.5,8.889847,25.196777,4.422653,6.288086,2.512726,14.479492-2.73259,20.100098-4.544067,5.569824-6.721924,13.146973-11.387421,18.617188-4.635788,5.435059-12.792923,7.92334-17.434753,13.467285-4.559044,5.445312-5.305817,13.937012-9.762192,19.686035-6.573959,9.444824-18.82914,12.850098-30.097942,15.180664-8.190754,1.498535-13.471462,7.118164-18.068066,9.890137-8.203773,4.947754-12.830677,11.540039-7.339798,16.67334,3.348228,3.130371,11.065037,4.638672,20.367054,6.353027,10.546627,2.009766,16.042393,8.113281,17.658047,16.526855,1.564484,8.146973.554611,17.92041.761124,25.765625-.117119,7.970703-.194183,15.674316.639763,23.211914.874565,7.904297,1.278862,15.709961,2.872398,23.128906,1.675087,7.799316,5.410019,14.750977,7.500198,22.003906,2.814705,6.338867,2.288193,13.84668,3.764488,20.563477,1.527115,6.947754,5.223122,13.885254,4.03035,20.650879-1.152275,6.535645-5.006371,12.951172-9.898407,18.769531-5.072876,6.464844-12.184158,10.661133-15.322205,15.951172-5.859013,9.877441-5.39661,18.454102-2.580479,21.27002,2.556576,2.556641,7.648899-.601074,16.17194-5.290039,4.604851-2.533203,11.055672-3.894531,16.752159-8.120117,10.259422-6.477539,18.243805-8.450684,25.21022-6.746094,8.204323,2.007324,14.351265,8.972656,21.129112,15.936035,6.064194,6.230469,14.342178,10.336426,21.840714,15.291504,6.626617,5.343262,13.350845,14.15625,20.975113,20.165039,7.85527,6.190918,17.060684,12.55957,14.253311,23.755859-2.08493,8.312988-3.685669,15.597656-3.75592,22.761719-.087753,8.95166-2.873978,17.550781-.957855,23.989746,3.400009,11.425781,11.356857,19.580078,15.530304,19.605957,9.68718.108887,10.08519-9.243164,11.77182-24.324707.816544-7.30127-.772736-16.966309,2.760178-27.843262,1.740768-10.064453,12.270187-18.422363,22.961639-16.26123,7.839066,1.38916,15.967331.203125,23.906906.914062,8.072235.722656,15.91861,5.208008,23.744659,5.196777,10.298706-.626953,17.291931,2.185059,22.842682,8.092285,5.889313,6.26709,8.035248,15.351562,11.357025,22.788574,5.029724,11.260742,12.303314,21.478027,19.687836,17.061523,6.982605-5.637695,5.346558-13.114258,4.130859-20.521484-.89325-5.442871-4.094391-11.81543-5.16922-20.271973-1.244843-9.754883,7.033234-18.906738,16.52771-21.465332,7.636047-2.131836,15.887482-3.275879,23.212158-6.48291,7.286591-3.19043,13.848877-8.243652,20.77478-12.149902,5.282867-2.979492,13.421326-3.206055,21.149323.056641,6.924377,2.922852,11.094055,10.290527,15.29953,15.05127,2.914825,3.299805,8.904083,8.868164,12.575409,17.354004,2.897644,6.697266,7.348145,13.17627,10.434631,19.219238,4.999939,9.789062,8.315765,17.509277,12.954742,13.797852,4.190399-3.352051,9.854156-12.405762,9.462158-24.092285-.24762-7.382812-3.434692-16.203125-7.637848-25.135254-3.256683-6.92041-10.790894-12.242676-17.299438-19.360352-6.156952-10.251465-3.691589-21.081543-.372101-29.919434,3.304077-8.796875,8.521118-17.867188,15.59259-25.29541,3.905396-5.257324,8.539032-10.17041,12.226746-16.071289,3.532684-5.652832,7.801208-11.100586,10.876495-17.227539,3.023926-6.024902,6.38028-12.181641,8.720184-18.556152,3.229706-10.671387,12.41153-16.301758,22.265289-18.309082,9.892395-4.213867,12.419556-10.531738,13.497681-17.185547,1.238037-7.640625-1.427795-13.312988-8.855896-18.717773-5.812012-4.228516-12.285522-11.28125-21.678162-10.960449Z" fill="#d4dff9" stroke="#08506f" stroke-miterlimit="10" stroke-width="3"/><path d="M199.405195,307.489732c.16169,11.071613-17.229735,11.071745-17.06662-.000763-.161737-11.07085,17.229689-11.070982,17.06662.000763Z" fill="#5959a2"/><path d="M296.766531,161.893608c.16169,11.071613-17.229735,11.071745-17.06662-.000763-.161737-11.07085,17.229689-11.070982,17.06662.000763Z" fill="#5959a2"/><path d="M347.809491,136.293608c.16169,11.071613-17.229735,11.071745-17.06662-.000763-.161737-11.07085,17.229689-11.070982,17.06662.000763Z" fill="#5959a2"/><path d="M245.51258,375.887314c.16169,11.071613-17.229735,11.071745-17.06662-.000763-.161737-11.07085,17.229689-11.070982,17.06662.000763Z" fill="#5959a2"/><path d="M157.728744,228.963331c.16169,11.071613-17.229735,11.071745-17.06662-.000763-.161737-11.07085,17.229689-11.070982,17.06662.000763Z" fill="#5959a2"/><path d="M199.405195,481.973785c.16169,11.071613-17.229735,11.071745-17.06662-.000763-.161737-11.07085,17.229689-11.070982,17.06662.000763Z" fill="#5959a2"/><path d="M458.639735,414.06751c.16169,11.071613-17.229735,11.071745-17.06662-.000763-.161737-11.07085,17.229689-11.070982,17.06662.000763Z" fill="#5959a2"/><path d="M123.808796,350.287314c.16169,11.071613-17.229735,11.071745-17.06662-.000763-.161737-11.07085,17.229689-11.070982,17.06662.000763Z" fill="#5959a2"/><path d="M288.233198,258.685725c.16169,11.071613-17.229735,11.071745-17.06662-.000763-.161737-11.07085,17.229689-11.070982,17.06662.000763Z" fill="#5959a2"/><path d="M416.395411,237.496664c.16169,11.071613-17.229735,11.071745-17.06662-.000763-.161737-11.07085,17.229689-11.070982,17.06662.000763Z" fill="#5959a2"/><path d="M258.462874,205.30588c-.365865,77.962373-87.671578,77.957514-88.030303-.003028.365695-77.959345,87.671408-77.954486,88.030303.003028Z" fill="#fff" stroke="#08506f" stroke-miterlimit="10" stroke-width="3"/><path d="M247.809518,201.927555c-.027297,5.60513-19.882797,7.810727-21.498339,11.891728-2.026322,5.118667-4.06112,4.164426-7.699776,6.885415-4.130063,3.088463-3.365485,22.85571-8.216374,22.855237-4.850771-.000473-9.560735-12.444333-13.690176-15.533493-3.637616-2.721235-3.608537-7.739102-5.634009-12.857029-1.615122-4.08106-13.891656-7.639579-13.918378-13.244548.027285-5.605003-1.313328-14.553315.302258-18.634197,2.026354-5.11846,21.116151,2.609919,24.75485-.110928,4.130014-3.088229,3.340644-6.193829,8.191453-6.19335,4.850683.00048,10.750884-5.837701,14.880281-2.748771,3.637659,2.721093,7.092209,7.478714,9.11773,12.596423,1.615181,4.080939,13.383745,9.488674,13.41048,15.093512Z" fill="url(#radial-gradient)"/><path d="M247.809518,201.927555c-.027297,5.60513-19.882797,7.810727-21.498339,11.891728-2.026322,5.118667-4.06112,4.164426-7.699776,6.885415-4.130063,3.088463-3.365485,22.85571-8.216374,22.855237-4.850771-.000473-9.560735-12.444333-13.690176-15.533493-3.637616-2.721235-3.608537-7.739102-5.634009-12.857029-1.615122-4.08106-13.891656-7.639579-13.918378-13.244548.027285-5.605003-1.313328-14.553315.302258-18.634197,2.026354-5.11846,21.116151,2.609919,24.75485-.110928,4.130014-3.088229,3.340644-6.193829,8.191453-6.19335,4.850683.00048,10.750884-5.837701,14.880281-2.748771,3.637659,2.721093,7.092209,7.478714,9.11773,12.596423,1.615181,4.080939,13.383745,9.488674,13.41048,15.093512Z" fill="none" stroke="#985f64" stroke-miterlimit="10" stroke-width="2"/><path d="M407.853604,305.626858c26.578881,20.231292,23.167137,63.795106-18.610641,110.279062-27.683005,30.801437-82.0831,57.164129-101.36837,44.891147-24.353835-15.498574-24.719038-61.330775,12.071671-111.758752,29.510557-40.44928,81.328459-63.642749,107.90734-43.411457Z" fill="#b7cbeb" stroke="#60728a" stroke-miterlimit="10" stroke-width="3"/></svg>