<?xml version="1.0" encoding="UTF-8"?><svg id="Dimensions" xmlns="http://www.w3.org/2000/svg" width="478.751626" height="592.103503" xmlns:xlink="http://www.w3.org/1999/xlink" viewBox="0 0 478.751626 592.103503"><defs><radialGradient id="radial-gradient" cx="121.533973" cy="261.598646" fx="121.533973" fy="261.598646" r="115.371178" gradientUnits="userSpaceOnUse"><stop offset="0" stop-color="#ffd9da"/><stop offset=".176369" stop-color="#fcd3d4"/><stop offset=".400566" stop-color="#f6c3c5"/><stop offset=".650561" stop-color="#eca9ac"/><stop offset=".917488" stop-color="#de858a"/><stop offset="1" stop-color="#d9797e"/></radialGradient><radialGradient id="radial-gradient-2" cx="203.409489" cy="76.396249" fx="203.409489" fy="76.396249" r="106.569337" gradientUnits="userSpaceOnUse"><stop offset="0" stop-color="#cfdbdf"/><stop offset="1" stop-color="#9fb6c0"/></radialGradient><radialGradient id="radial-gradient-3" cx="230.140172" cy="-74.41639" fx="230.140172" fy="-74.41639" r="16.504623" gradientTransform="translate(-188.953404 381.634506) scale(1.599694 1.471248)" gradientUnits="userSpaceOnUse"><stop offset=".005587" stop-color="#fff6f3"/><stop offset=".256545" stop-color="#fcf2ef"/><stop offset=".489828" stop-color="#f6e8e4"/><stop offset=".716137" stop-color="#ead7d1"/><stop offset=".93689" stop-color="#dbbfb6"/><stop offset="1" stop-color="#d6b7ae"/></radialGradient><radialGradient id="radial-gradient-4" cx="387.981461" cy="176.70671" fx="387.981461" fy="176.70671" r="116.850561" gradientUnits="userSpaceOnUse"><stop offset="0" stop-color="#f4faee"/><stop offset=".241413" stop-color="#ebf4e2"/><stop offset=".664523" stop-color="#d6e7c5"/><stop offset="1" stop-color="#c2dbaa"/></radialGradient><radialGradient id="radial-gradient-5" cx="316.944977" cy="449.582279" fx="316.944977" fy="449.582279" r="114.853957" gradientUnits="userSpaceOnUse"><stop offset="0" stop-color="#efccdd"/><stop offset=".302153" stop-color="#ebc0d5"/><stop offset=".83198" stop-color="#e2a3c1"/><stop offset="1" stop-color="#df99ba"/></radialGradient></defs><path d="M73.172026,151.632384c.584081,11.63375,1.641584,23.423301-2.579068,34.222165-4.371582,11.185059-16.274658,10.461914-26.15625,12.57666,0,0-10.612793,2.27124-24.27002,12.867188C1.186708,226.023983-.88336,259.103329,2.127382,280.683895c5.893311,42.239502,35.938232,67.504639,74.242676,81.027344,28.123535,9.928711,79.826904,20.993652,95.793701-14.092285,9.630615-21.162598,7.281982-35.046875,31.158691-44.677734,16.526855-6.66626,35.479004-9.802246,38.461914-30.805664,4.374512-30.80127-43.000977-49.834473-63.505127-63.482178-6.873535-4.575195-13.97998-9.390869-18.174316-16.51123-6.446184-10.947453-10.385475-25.550939-11.023212-40.34965" fill="url(#radial-gradient)" stroke="#660c10" stroke-miterlimit="10" stroke-width="2"/><path d="M73.172026,151.632384c-.288571-5.747775-.461583-11.457519.174595-16.990969.677002-5.889038,1.459473-33.854736,17.255859-56.545898,13.331787-19.150635,22.233154-13.273438,58.424316-44.690186,16.595459-14.406128,18.099121-18.571899,29.333496-24,6.076416-2.935913,27.384521-12.22522,52-6.666626,20.412598,4.609497,20.415283,14.306885,44,18.666626,12.527832,2.315796,16.37793.291382,29.710938,3.77356,13.627197,3.55896,23.226807,9.231079,29.835205,13.293457l-34.766637,53.452024c-13.423796-6.229949-27.543546-10.824766-42.152797-13.180174-29.21875-4.710693-60.492676.089111-85.188721,16.399536-17.040321,11.254228-23.684991,34.176581-22.716572,56.648763" fill="url(#radial-gradient-2)" stroke="#104961" stroke-miterlimit="10" stroke-width="2"/><ellipse cx="179.200349" cy="272.149514" rx="26.402339" ry="24.282399" fill="url(#radial-gradient-3)" stroke="#231f20" stroke-miterlimit="10" stroke-width="1.093066"/><path d="M298.211295,91.496592c13.423799,6.22995,27.080148,14.522812,38.905589,23.418748,16.328125,12.283081,31.638184,27.33606,38.400391,46.616821,5.998047,17.102173,4.681641,35.994751.461914,53.620483-9.013224,37.645758-30.196655,66.538632-52.831288,94.608269l74.34116,5.688092c7.179029-16.544451,13.325688-30.565369,28.870987-46.043675,18.897461-18.815918,23.260254-11.484375,34.666992-26.666748,24.661621-32.824707,21.725586-90.332397-6.666992-122.666626-11.814453-13.45459-12.435547-4.783691-50.666504-32-21.224121-15.109497-40.872684-31.823851-70.615848-50.107542" fill="url(#radial-gradient-4)" stroke="#00b85a" stroke-miterlimit="10" stroke-width="2"/><path d="M245.901552,590.633736c-8.843262-35.821289-16.7771-92.831543,1.838135-156.262207,5.510254-18.775879,12.502686-34.396484,19.282471-47.654297,14.877548-29.092748,36.071252-53.316453,56.125744-78.186409l74.34116,5.688092c-6.163954,14.205157-13.088975,30.270671-27.377548,50.716335-11.670898,16.699707-19.460938,22.266846-25.888672,31.561768-31.104004,44.977539-39.969971,106.655762-26.350098,183.321777" fill="url(#radial-gradient-5)"/><path d="M397.948318,314.391034c-6.163954,14.205157-13.548233,31.328644-27.836805,51.774307-11.670898,16.699707-19.460938,22.266846-25.888672,31.561768-31.104004,44.977539-39.969971,106.655762-26.350098,183.321777" fill="none" stroke="#c92f77" stroke-miterlimit="10" stroke-width="2"/><path d="M245.901552,591.863827c-8.843262-35.821289-16.7771-92.831543,1.838135-156.262207,5.510254-18.775879,12.502686-34.396484,19.282471-47.654297,14.877548-29.092748,57.544377-79.926892,57.544377-79.926892" fill="none" stroke="#c92f77" stroke-miterlimit="10" stroke-width="2"/></svg>