<?xml version="1.0" encoding="UTF-8"?><svg id="Layer_1" xmlns="http://www.w3.org/2000/svg" width="481.261864" height="409.794277" xmlns:xlink="http://www.w3.org/1999/xlink" viewBox="0 0 481.261864 409.794277"><defs><radialGradient id="radial-gradient" cx="240.633331" cy="204.895067" fx="240.633331" fy="204.895067" r="222.981002" gradientUnits="userSpaceOnUse"><stop offset=".005587" stop-color="#fee5c4" stop-opacity=".8"/><stop offset=".346692" stop-color="#fee2bd" stop-opacity=".8"/><stop offset=".750194" stop-color="#fedaab" stop-opacity=".8"/><stop offset="1" stop-color="#ffd39c" stop-opacity=".8"/></radialGradient><radialGradient id="radial-gradient-2" cx="388.163712" cy="200.614448" fx="388.163712" fy="200.614448" r="93.825296" gradientUnits="userSpaceOnUse"><stop offset="0" stop-color="#eef8e0"/><stop offset="1" stop-color="#cdeba2"/></radialGradient><radialGradient id="radial-gradient-3" cx="387.627742" cy="198.988348" fx="387.627742" fy="198.988348" r="95.238675" gradientUnits="userSpaceOnUse"><stop offset="0" stop-color="#eef8e0"/><stop offset="1" stop-color="#acde64"/></radialGradient><radialGradient id="radial-gradient-4" cx="170.061133" cy="80.195379" fx="170.061133" fy="80.195379" r="68.242381" gradientTransform="translate(33.333129 116.570612) scale(.808018 .860641)" gradientUnits="userSpaceOnUse"><stop offset="0" stop-color="#dff1f9"/><stop offset=".311706" stop-color="#dceff8"/><stop offset=".497191" stop-color="#d4ecf6"/><stop offset=".649649" stop-color="#c5e6f4"/><stop offset=".784133" stop-color="#b1ddf0"/><stop offset=".905636" stop-color="#97d2eb"/><stop offset="1" stop-color="#7ec7e6"/></radialGradient></defs><path d="M479.435016,170.908417c-2.560547-12.526367-7.183594-24.31543-10.925781-33.185547-3.924805-9.304688-9.574219-17.750977-15.037109-25.919922-.889648-1.330078-1.782227-2.664062-2.669922-4.005859-1.712891-2.587891-3.390625-5.28418-5.012695-7.891602-4.40625-7.083008-8.963867-14.408203-14.918945-20.734375-6.776367-7.199219-14.819336-13.368164-22.597656-19.333984-1.366211-1.047852-2.736328-2.098633-4.104492-3.158203-3.552734-2.751953-6.789062-5.954102-10.213867-9.34375-5.05957-5.006836-10.290039-10.183594-16.605469-13.748047-7.015625-3.959961-14.920898-6.802734-22.56543-9.552734-3.350586-1.205078-6.814453-2.451172-10.147461-3.771484-2.391602-.947266-4.792969-1.93457-7.209961-2.926758-8.317383-3.416992-16.916992-6.949219-25.861328-9.204102-6.446289-1.625-13.339844-1.241211-20.010742-.871094-5.087891.28418-10.352539.578125-15.345703-.033203-4.299805-.524414-8.694336-1.428711-12.945312-2.302734-6.963867-1.432617-14.165039-2.914062-21.572266-2.914062-4.567383,0-9.262695-.384766-13.802734-.757812-7.104492-.582031-14.451172-1.186523-21.485352-.326172-6.729492.821289-12.833008,4.244141-18.735352,7.553711-4.807617,2.696289-9.348633,5.242188-14.137695,6.450195-3.943359.994141-7.949219,1.793945-11.824219,2.567383-7.244141,1.446289-14.735352,2.942383-21.785156,5.735352-4.560547,1.806641-9.577148,2.933594-14.429688,4.022461-6.654297,1.494141-13.53418,3.039062-19.435547,6.369141-10.848633,6.124023-20.807617,12.681641-29.597656,19.491211-9.393555,7.273438-17.854492,16.035156-25.71582,24.386719-1.898438,2.016602-3.896484,4.06543-5.830078,6.045898-6.332031,6.492188-12.880859,13.205078-17.794922,20.629883-6.727539,10.164062-11.84082,21.802734-16.105469,31.913086-3.3125,7.850586-4.78125,16.550781-6.201172,24.963867-.539062,3.198242-1.097656,6.504883-1.745117,9.671875-2.364258,11.568359-2.5625,23.632812-2.5625,34.999023,0,10.480469,2.107422,20.574219,4.144531,30.334961.290039,1.387695.580078,2.774414.863281,4.163086.895508,4.379883,1.204102,9.108398,1.501953,13.680664.475586,7.285156.966797,14.818359,3.801758,21.537109,2.767578,6.5625,7.75,12.03418,12.567383,17.325195,3.194336,3.508789,6.49707,7.135742,9.046875,10.988281,2.249023,3.397461,4.299805,7.112305,6.283203,10.704102,3.615234,6.548828,7.353516,13.320312,12.628906,18.922852,6.792969,7.216797,14.950195,13.476562,22.838867,19.530273,1.354492,1.039062,2.708984,2.078125,4.056641,3.12207l.268555.208008c8.973633,6.950195,18.25293,14.136719,28.490234,19.916016,8.876953,5.009766,18.714844,8.880859,28.229492,12.624023,1.290039.507812,2.580078,1.015625,3.870117,1.526367,3.90332,1.546875,7.871094,3.464844,11.707031,5.319336,6.649414,3.213867,13.525391,6.538086,20.841797,8.381836,6.336914,1.597656,13.164062.836914,19.766602.100586,5.280273-.589844,10.736328-1.204102,15.84668-.575195,4.470703.545898,9.035156,1.591797,13.448242,2.602539,6.763672,1.550781,13.757812,3.15332,20.986328,3.15332,7.232422,0,14.230469-1.599609,20.998047-3.146484,4.410156-1.007812,8.969727-2.050781,13.4375-2.595703,4.170898-.509766,8.399414-.789062,12.488281-1.05957,7.283203-.481445,14.814453-.978516,22.036133-2.799805,3.851562-.970703,7.816406-1.782227,11.650391-2.566406,7.472656-1.529297,15.200195-3.110352,22.334961-5.9375,7.787109-3.084961,14.946289-7.426758,21.869141-11.624023,2.894531-1.755859,5.887695-3.571289,8.84375-5.239258,3.935547-2.220703,8.208984-4.124023,12.342773-5.964844,6.557617-2.920898,13.338867-5.94043,18.999023-10.324219,5.548828-4.297852,9.356445-10.366211,13.039062-16.235352,2.740234-4.368164,5.329102-8.494141,8.569336-11.935547,3.28125-3.484375,7.3125-6.508789,11.212891-9.432617,5.546875-4.161133,11.283203-8.462891,15.110352-14.243164,6.118164-9.244141,10.50293-19.662109,14.743164-29.736328l.842773-2.001953c3.637695-8.623047,5.411133-17.962891,7.125977-26.995117.447266-2.356445.894531-4.712891,1.374023-7.057617,1.884766-9.223633,1.77832-18.302734,1.665039-27.914062-.026367-2.237305-.052734-4.489258-.052734-6.755859,0-3.275391.114258-6.583984.224609-9.78418.28418-8.246094.578125-16.773438-1.110352-25.03418Z" fill="url(#radial-gradient)"/><path d="M447.582318,197.827453c0,52.006314-54.969884,119.360639-88.895367,121.284528-67.369152,3.820454,0-69.227671,0-121.233985s-62.702486-122.579018,2-115.397661c33.772607,3.748436,86.895367,63.340804,86.895367,115.347118Z" fill="url(#radial-gradient-2)" opacity=".76"/><path d="M353.302058,319.112251c-1.565186,0-3.076904-.049805-4.494141-.147217-.826172-.057129-1.450195-.772705-1.393066-1.599609.057129-.825439.772705-1.450195,1.599609-1.393066,2.616211.180908,5.564209.183105,8.69165.018311.818848-.030762,1.532959.591064,1.576904,1.418701s-.591797,1.532959-1.418701,1.576904c-1.567383.082764-3.102539.125244-4.562256.125977ZM340.18658,317.461372c-.147949,0-.298096-.021973-.446777-.068848-3.409424-1.061279-6.183838-2.651367-8.244873-4.727783-.58374-.588135-.580811-1.537354.007324-2.121094.587402-.584473,1.538086-.580078,2.121094.007324,1.713135,1.724854,4.070801,3.062988,7.008545,3.977783.791016.246094,1.232666,1.086914.98584,1.87793-.199951.642334-.791748,1.054688-1.431152,1.054688ZM366.475398,317.350776c-.635742,0-1.226074-.407959-1.428955-1.046631-.250488-.789551.186035-1.632568.975586-1.883789,2.538574-.806396,5.213379-1.928467,7.948975-3.334717.736084-.375732,1.640625-.087891,2.02002.648926.378662.736816.087891,1.641357-.648926,2.02002-2.883545,1.481689-5.713623,2.668213-8.411865,3.525146-.150879.047607-.303955.071045-.454834.071045ZM382.296443,309.390816c-.484131,0-.95874-.233643-1.248047-.665771-.460693-.688477-.276123-1.620117.412354-2.080811,2.318848-1.552002,4.691162-3.298096,7.051025-5.191406.645996-.518555,1.589355-.415283,2.108643.232178.517822.645996.414551,1.590088-.232178,2.108643-2.426514,1.946045-4.869141,3.744141-7.259033,5.34375-.256348.171387-.546387.253418-.832764.253418ZM328.609187,305.314155c-.70459,0-1.333008-.498779-1.471436-1.216553-.28418-1.475098-.428467-3.092285-.428467-4.80542,0-1.401123.09668-2.914307.287109-4.49707.098877-.82251.845215-1.413574,1.667725-1.310303.82251.098877,1.40918.845215,1.310303,1.667725-.175781,1.464844-.265137,2.85791-.265137,4.139648,0,1.523438.125977,2.949463.374268,4.238525.156738.812988-.375732,1.599609-1.189453,1.756348-.095215.018311-.191162.0271-.284912.0271ZM396.178035,298.317329c-.403564,0-.806396-.161865-1.101562-.481934-.5625-.608643-.525146-1.557861.083496-2.119629,2.099854-1.940186,4.212158-4.014404,6.27832-6.165527.574219-.596924,1.52417-.615234,2.121094-.04248.597656.574219.615967,1.523438.04248,2.121094-2.107178,2.193604-4.262695,4.30957-6.405762,6.290039-.288574.266602-.65332.398438-1.018066.398438ZM330.24615,287.774849c-.128174,0-.259277-.016846-.389648-.052002-.799805-.2146-1.274414-1.037109-1.059814-1.837646.70166-2.616211,1.576172-5.425049,2.672607-8.586182.271729-.782959,1.127197-1.196777,1.908691-.925781.782959.271729,1.19751,1.126465.925781,1.908691-1.072998,3.093018-1.92627,5.834473-2.609619,8.381104-.179443.669434-.785889,1.111816-1.447998,1.111816ZM408.5003,285.514595c-.347168,0-.695801-.120117-.979248-.364746-.626953-.540527-.696533-1.488281-.155273-2.115234,1.89624-2.197266,3.776367-4.490479,5.589111-6.815918.510498-.65332,1.453125-.769043,2.10498-.260742.65332.509033.770508,1.45166.260742,2.10498-1.842773,2.364258-3.755127,4.696289-5.683594,6.931641-.297363.343506-.715576.52002-1.136719.52002ZM419.430232,271.500435c-.298828,0-.599854-.088623-.862793-.273926-.67749-.477539-.839355-1.413574-.361816-2.090332,1.692627-2.400146,3.343506-4.864746,4.907959-7.325684.44458-.700195,1.371094-.905273,2.070557-.460693.69873.443848.905273,1.371094.460693,2.070557-1.589355,2.500488-3.267334,5.005371-4.987061,7.444336-.292236.414551-.756592.635742-1.227539.635742ZM335.969294,270.956245c-.180908,0-.364746-.032959-.543457-.102539-.771973-.300293-1.155029-1.168945-.854736-1.94165.914062-2.351807,1.932861-4.904297,3.30542-8.275635.312744-.767578,1.185791-1.135986,1.954834-.823975.767578.312012,1.135986,1.187256.823975,1.954834-1.365967,3.356689-2.380371,5.895264-3.287842,8.231689-.230713.593262-.797607.957275-1.398193.957275ZM428.963435,256.49897c-.251221,0-.506104-.062988-.740479-.196289-.719971-.410156-.971191-1.325684-.561768-2.045654,1.461914-2.567139,2.861572-5.178223,4.160156-7.760742.372803-.740479,1.272949-1.037109,2.01416-.666504.740479.372803,1.038574,1.274414.666504,2.01416-1.322754,2.628662-2.746582,5.285156-4.233398,7.896973-.276855.485596-.783691.758057-1.305176.758057ZM342.629939,254.477485c-.188965,0-.380859-.035889-.566162-.112061-.766846-.313477-1.135254-1.188721-.821777-1.955566,1.108887-2.71582,2.221436-5.46167,3.315674-8.226562.303955-.770508,1.174805-1.14917,1.946045-.843018.770508.304688,1.147705,1.17627.843018,1.946045-1.097168,2.775146-2.214111,5.53125-3.327393,8.257324-.237305.581543-.797607.933838-1.389404.933838ZM436.938044,240.625923c-.199951,0-.402832-.040283-.598389-.125244-.759521-.331055-1.106689-1.215088-.776367-1.974609,1.189453-2.729736,2.289551-5.477051,3.270996-8.164307.284912-.777832,1.146973-1.175537,1.924072-.894287.777832.28418,1.178467,1.145508.894287,1.924072-1.001953,2.743652-2.125488,5.547363-3.338379,8.332764-.246094.563965-.797607.901611-1.376221.901611ZM349.130915,237.932075c-.172119,0-.347168-.030029-.518555-.093018-.7771-.286377-1.175537-1.14917-.88916-1.92627,1.094971-2.971436,2.047119-5.698975,2.911377-8.337158.257812-.788086,1.107422-1.216553,1.891846-.95874.787354.257812,1.216553,1.104492.95874,1.891846-.875244,2.674072-1.839111,5.435303-2.946533,8.441162-.223389.606445-.797607.982178-1.407715.982178ZM443.010554,223.935493c-.138428,0-.27832-.019775-.41748-.060059-.796143-.22998-1.254639-1.062012-1.023926-1.857422.828369-2.86377,1.538086-5.725342,2.110107-8.506348.16626-.812256.955078-1.338135,1.771729-1.16748.810791.166992,1.33374.960205,1.166748,1.771729-.587402,2.85791-1.316895,5.797119-2.167236,8.735596-.189697.656982-.788818,1.083984-1.439941,1.083984ZM354.614558,221.032173c-.129639,0-.260742-.017578-.391846-.052734-.799805-.216064-1.272949-1.039307-1.056885-1.839111.80127-2.967773,1.470703-5.841797,1.98999-8.541504.156006-.813721.944824-1.342529,1.755615-1.190186.813721.156006,1.346924.942627,1.190186,1.755615-.532471,2.772217-1.21875,5.719482-2.039795,8.758301-.180176.668701-.785889,1.109619-1.447266,1.109619ZM446.54449,206.544868c-.054932,0-.110596-.00293-.16626-.008789-.823242-.091553-1.417236-.832764-1.326416-1.656006.328125-2.964111.494385-5.889404.494385-8.696045,0-.828369.671631-1.5,1.5-1.5s1.5.671631,1.5,1.5c0,2.916504-.172119,5.953125-.511963,9.025635-.084961.767578-.734619,1.335205-1.489746,1.335205ZM357.885554,203.592476c-.043945,0-.088623-.002197-.133301-.005859-.824707-.07251-1.434814-.800537-1.362305-1.625977.172852-1.963623.260742-3.890625.260742-5.726074,0-.965332-.021973-1.957031-.065918-2.946533-.036621-.827637.60498-1.527832,1.432617-1.564453.789551-.044678,1.527832.603516,1.564453,1.432617.04541,1.033447.068848,2.069092.068848,3.078369,0,1.92334-.091553,3.938232-.272461,5.989746-.068848.780029-.723633,1.368164-1.492676,1.368164ZM446.56573,188.966011c-.755859,0-1.40625-.570557-1.489014-1.3396-.303223-2.818359-.760254-5.720947-1.358643-8.626465-.166992-.811523.355225-1.604736,1.166748-1.771729.810059-.171387,1.604736.355225,1.771729,1.166748.617432,2.999268,1.089111,5.99707,1.402588,8.910645.088623.823975-.506836,1.562988-1.330811,1.651611-.054199.005859-.108398.008789-.162598.008789ZM357.190486,185.889839c-.728027,0-1.367432-.531738-1.480957-1.273682-.416016-2.729736-.979248-5.624268-1.675049-8.602295-.188965-.807129.312744-1.613525,1.119141-1.801758.810791-.19043,1.614258.312744,1.801758,1.119141.713379,3.054199,1.292725,6.025635,1.720459,8.832275.124512.81958-.437988,1.584229-1.256836,1.709473-.076904.011719-.153076.016846-.228516.016846ZM443.025935,171.58564c-.648193,0-1.24585-.42334-1.437744-1.07666-.806396-2.735596-1.748291-5.531982-2.798584-8.311523-.292969-.774902.098145-1.640625.873047-1.933594.772705-.292236,1.639893.097412,1.933594.873047,1.07666,2.849854,2.041992,5.717285,2.868896,8.523926.234375.794678-.219727,1.628906-1.014404,1.862549-.141357.041748-.28418.062256-.424805.062256ZM353.216365,168.586372c-.648193,0-1.24585-.424072-1.438477-1.077393-.787354-2.677734-1.661133-5.428711-2.671143-8.409668-.265869-.784424.155273-1.63623.939697-1.9021.787354-.265869,1.636963.154541,1.9021.939697,1.022461,3.019775,1.908691,5.808838,2.707764,8.525391.233643.794678-.221191,1.628906-1.015869,1.862549-.141357.041016-.28418.061523-.424072.061523ZM436.773249,154.968452c-.569092,0-1.113281-.325928-1.365234-.878174-1.198975-2.625732-2.511475-5.280029-3.900879-7.888184-.388916-.731689-.112061-1.639893.618896-2.029541.732422-.387451,1.639893-.111328,2.029541.618896,1.417969,2.662354,2.757568,5.371582,3.981445,8.052979.344238.753662.011719,1.643555-.741943,1.987793-.201416.092285-.413086.13623-.621826.13623ZM347.554744,151.737739c-.610107,0-1.183594-.375732-1.407715-.982178-.892822-2.421387-1.888184-5.057373-3.133301-8.293945-.298096-.772705.087891-1.640625.861328-1.937988.768311-.295166,1.640625.087158,1.937988.861328,1.250977,3.249756,2.251465,5.897461,3.149414,8.333496.286377.7771-.111328,1.63916-.88916,1.92627-.170654.062988-.345703.093018-.518555.093018ZM428.431697,139.276314c-.506836,0-1.000488-.256348-1.283203-.720703-1.507324-2.478516-3.11499-4.96582-4.779053-7.391602-.46875-.682617-.294434-1.616455.388916-2.085205.684814-.468018,1.617188-.293701,2.085205.388916,1.694824,2.470459,3.33252,5.003906,4.868408,7.529297.430664.70752.205078,1.630371-.502441,2.061035-.243164.147949-.512695.218262-.777832.218262ZM341.205378,135.136665c-.601318,0-1.168945-.364746-1.398926-.960205-.965332-2.495361-2.096191-5.436768-3.16626-8.326172-.287842-.7771.108398-1.639893.884766-1.927734.775635-.287109,1.63916.106934,1.927734.884766,1.064209,2.872559,2.190674,5.801514,3.151611,8.288086.298828.772705-.085693,1.640625-.858398,1.939453-.177246.068848-.360352.101807-.540527.101807ZM418.386531,124.622749c-.450439,0-.895752-.202148-1.190918-.58667-1.787842-2.331299-3.65332-4.633301-5.544434-6.842285-.53833-.629883-.465088-1.576172.164062-2.115234.62915-.53833,1.576904-.464355,2.115234.164062,1.925537,2.25,3.824707,4.59375,5.645508,6.966797.503906.657715.380127,1.598877-.276855,2.103516-.272461.20874-.593994.309814-.912598.309814ZM335.087458,118.449898c-.629883,0-1.21582-.399902-1.423828-1.029785-1.061279-3.20874-1.893311-6.030762-2.544434-8.62793-.201416-.803467.287109-1.618652,1.090576-1.820068.802734-.196289,1.61792.287109,1.820068,1.090576.63208,2.524658,1.444336,5.277832,2.481445,8.415527.260742.786621-.16626,1.634766-.952881,1.894775-.156006.052002-.314941.076904-.470947.076904ZM406.828913,111.127876c-.394775,0-.788818-.155273-1.083984-.462891-2.049316-2.142334-4.157959-4.220215-6.265869-6.176514-.607178-.563232-.643066-1.512451-.079102-2.119629.563232-.60791,1.513916-.641602,2.119629-.079102,2.151855,1.996582,4.302246,4.116211,6.393311,6.301025.572754.598389.551514,1.54834-.046875,2.121094-.290771.277588-.664307.416016-1.037109.416016ZM331.004939,101.192573c-.768311,0-1.422363-.58667-1.492676-1.365967-.095947-1.071533-.14502-2.113037-.145752-3.097412,0-2.314453.273926-4.420898.813721-6.262939.232178-.79541,1.067871-1.253906,1.861084-1.017334.794678.23291,1.250244,1.065674,1.017334,1.861084-.459229,1.568115-.692139,3.390381-.692139,5.417725.000732.89502.04541,1.8479.134033,2.830811.073975.825439-.5354,1.554199-1.360107,1.628174-.04541.003662-.09082.005859-.135498.005859ZM393.792537,99.057564c-.331787,0-.666504-.109863-.944092-.334717-2.337891-1.89624-4.697754-3.667236-7.013672-5.263916-.681885-.470215-.853271-1.404053-.383057-2.08667.470215-.681152,1.404785-.852539,2.08667-.383057,2.379639,1.640625,4.801758,3.458496,7.199707,5.403076.643066.522217.741943,1.466309.220459,2.110107-.296631.365479-.729492.555176-1.166016.555176ZM379.146296,89.026314c-.246094,0-.495117-.060059-.72583-.188232-2.672607-1.481689-5.309326-2.738525-7.836182-3.735352-.77124-.303955-1.14917-1.174805-.845215-1.946045.303955-.769043,1.174072-1.145508,1.946045-.844482,2.647705,1.044434,5.403809,2.357666,8.189941,3.902344.724365.401367.986572,1.314697.584473,2.039062-.273926.494385-.785889.772705-1.313232.772705ZM336.676081,85.324653c-.479004,0-.949951-.228516-1.23999-.654053-.467285-.684082-.291504-1.617188.392578-2.084473,2.310059-1.577637,5.297607-2.669678,8.880615-3.245361.812988-.131104,1.587158.424805,1.718994,1.24292s-.424805,1.587891-1.24292,1.718994c-3.143555.505371-5.722412,1.434082-7.664795,2.760498-.258545.177246-.552979.261475-.844482.261475ZM362.63238,82.705513c-.090088,0-.181641-.008057-.273926-.024902-.80127-.147949-1.599609-.266602-2.373779-.353027-2.200195-.244629-4.297852-.400635-6.233643-.464355-.828369-.0271-1.477295-.720703-1.450195-1.54834.0271-.828369.726562-1.464844,1.54834-1.450195,2.013428.065918,4.189453.227783,6.468018.481934.844482.09375,1.7146.222656,2.586182.383789.814453.150146,1.352783.932373,1.202637,1.747559-.133301.722168-.763916,1.227539-1.473633,1.227539Z" fill="url(#radial-gradient-3)" stroke="#09780d" stroke-miterlimit="10"/><path d="M179.269748,47.083275c-77.793701-.366699-141.293701,62.397461-142.121826,139.916504-.782959,73.303711,56.966553,134.721191,130.192871,138.181641,77.870361,3.680176,142.490967-58.145508,143.395752-135.012207.833984-70.828613-54.904053-130.231445-125.655762-133.634277-75.685303-3.639648-138.442383,56.781738-138.643555,131.638184-.180908,67.282227,52.603516,123.649414,119.767822,127.637695,73.688477,4.375488,135.059082-54.229492,135.243896-126.947266.164062-64.54248-50.174072-118.668457-114.57666-122.914551-71.47583-4.711914-131.139648,52.100098-131.139648,122.584961,0,65.181641,53.02832,118.209961,118.209961,118.209961s118.209961-53.02832,118.209961-118.209961c0-62.618164-50.943359-113.561523-113.561523-113.561523s-113.561523,50.943359-113.561523,113.561523c0,60.054688,48.858398,108.913086,108.913086,108.913086,60.209677,0,109.164858-49.109392,108.913102-109.375482-.228015-54.582768-43.099713-100.173179-97.575782-103.592011-59.913452-3.760073-109.960128,43.405514-110.939126,102.295618-.892578,53.695801,40.230957,98.181152,93.848389,101.212402,57.522217,3.251465,105.362549-42.611328,105.370605-99.438965.006592-47.586914-39.651855-90.812988-87.08252-94.661621-55.836914-4.53125-102.738281,39.566895-102.854004,94.443848-.095215,45.280762,37.543701,86.472168,82.67041,90.206543,53.842041,4.455078,98.987305-38.638184,97.95166-91.795898-.840088-43.124023-33.247314-78.707031-76.127686-83.360352-51.287842-5.56543-94.858154,34.460938-95.195557,84.566406-.283203,42.014648,31.983643,77.67627,73.842773,81.298828,48.203369,4.171387,88.719482-34.15332,88.196045-81.62207-.439697-39.853516-30.902832-72.345215-70.652344-75.254883-42.471924-3.108398-78.370117,28.748047-81.820312,69.696289-3.493408,41.459473,28.281494,77.280762,69.878174,78.177734,40.244629.868164,73.263184-31.598633,73.301025-71.641113h.001709c.039062-2.30957.026367-2.549805-.182617-3.686523-.081055-.438477-.198242-1.072266-.362305-2.229492-.677734-4.75293-2.15918-8.358398-4.52832-11.023438-1.134766-1.275391-2.5-2.432617-4.425781-3.75293-.931846-.638311-2.153158-1.264916-3.502834-1.854467-4.666841-2.038522-8.633533-5.420428-11.464831-9.653479-9.483773-14.179113-26.603834-23.648303-46.157822-23.648303-29.842773,0-54.035156,22.046875-54.035156,49.243164s24.192383,49.243164,54.035156,49.243164,54.034912-22.046875,54.034912-49.243164c0-2.498487-.208732-4.952055-.606911-7.348495-.502478-3.024165,2.841919-5.183919,5.385231-3.472305l.051514.034668c1.647461,1.12793,2.787109,2.086914,3.697266,3.110352,1.855469,2.086914,2.986328,4.924805,3.556641,8.928711.176758,1.242188.302734,1.920898.389648,2.392578.148438.806641.151367.822266.116211,2.891602,0,39.178223-33.437988,70.692871-73.274414,67.503906-35.400391-2.833496-62.235352-32.109863-62.177734-67.623535.067775-41.711989,35.605151-75.26247,78.001673-72.040003,38.613243,2.934908,67.684962,35.386902,66.72318,74.099576-1.03296,41.577636-35.177002,75.083493-76.999267,75.083493-42.470703,0-77.022461-34.552734-77.022461-77.023438,0-45.548828,37.481445-82.508789,83.220703-81.65625,47.512207.885254,83.835693,41.684082,79.80957,89.033691-4.019043,47.269531-46.295654,83.799316-95.655762,78.416016-43.22583-4.714844-75.787842-40.475586-76.653076-83.949219-1.065674-53.549316,44.39917-96.96875,98.630859-92.494629,45.448486,3.75,83.370361,45.225098,83.287109,90.828125-.10083,55.182617-47.19043,99.547852-103.30957,95.135742-50.013428-3.932617-88.029053-45.359863-87.923584-95.527832.119629-56.842773,47.7854-102.731934,105.259033-99.928223,54.165771,2.64209,96.006592,47.382324,95.260986,101.606934-.817627,59.466309-51.360107,107.135742-111.84082,103.224121-53.919678-3.487305-98.474365-51.694336-97.971191-105.724121.571045-61.356445,51.834229-110.820312,113.841309-108.443359,59.913574,2.295898,106.390381,51.724609,105.256104,111.671387-1.172607,61.968262-51.946045,112.017578-114.189209,112.017578-62.975586,0-114.209961-51.234375-114.209961-114.209961,0-65.539062,53.319336-118.858398,118.858398-118.858398s118.858398,53.319336,118.858398,118.858398c0,70.853027-59.972656,127.962891-131.820312,123.23291-64.738037-4.262207-115.345215-58.662109-115.192139-123.540527.172607-73.094238,61.854248-132.008301,135.919189-127.617188,67.503906,4.002441,120.562744,60.647949,120.389648,128.270508-.192627,75.225098-63.251221,135.94873-139.306152,132.301758-71.09668-3.40918-127.115723-63.092285-126.290527-134.265625.871826-75.174805,62.397461-136.038574,137.821777-135.833496,79.40918.21582,141.574707,66.79541,136.814453,146.062012-4.46582,74.361328-66.37915,133.490234-141.842773,133.490234-77.692627,0-141.023193-62.674805-142.086182-140.120605-.279297-4.138184-1.913058-7.629895-2.501673-8.784913-3.925926-7.703704-9.361111-15.574074-12.962963-21.62963-1.583333-2.907407-6.993083-9.691189-6.666667-12.111111-.254596,6.711738-2.944625,12.763935-3.005172,13.078876-.091797.479492-.260986.916992-.428955,1.37207-.385254,1.04541-.255615,2.19873-.335205,3.294434-.079834,1.099609-.212891,2.188477-.189453,3.292969.007568.361328-3.308113,15.486488-3.559733,16.813503.513671-.351025,5.10064-6.521266,7.214383-7.932149,1.100432-.734517,3.600432-.95674,7.450249.635714,3.442912,1.424139,5.731817,1.673868,8.563558,6.686057,1.096229,1.940328,1.55541,3.632114,1.877443,5.341752.411475,2.184482.66119,4.396605.789657,6.615787,2.072378,35.799194,16.976515,69.147988,42.508682,94.679668,27.579102,27.579102,64.276367,42.767578,103.332031,42.767578,39.056641,0,75.753906-15.188477,103.333008-42.767578,26.346191-26.346191,41.38501-61.01416,42.676758-98.110352,2.768555-79.509277-61.126221-146.297852-140.682617-146.67334Z" fill="#306194" stroke="#306194" stroke-miterlimit="10"/><path d="M479.432617,170.910487c-2.560547-12.526367-7.183594-24.31543-10.925781-33.185547-3.924805-9.304688-9.574219-17.750977-15.037109-25.919922-.889648-1.330078-1.782227-2.664062-2.669922-4.005859-1.712891-2.587891-3.390625-5.28418-5.012695-7.891602-4.40625-7.083008-8.963867-14.408203-14.918945-20.734375-6.776367-7.199219-14.819336-13.368164-22.597656-19.333984-1.366211-1.047852-2.736328-2.098633-4.104492-3.158203-3.552734-2.751953-6.789062-5.954102-10.213867-9.34375-5.05957-5.006836-10.290039-10.183594-16.605469-13.748047-7.015625-3.959961-14.920898-6.802734-22.56543-9.552734-3.350586-1.205078-6.814453-2.451172-10.147461-3.771484-2.391602-.947266-4.792969-1.93457-7.209961-2.926758-8.317383-3.416992-16.916992-6.949219-25.861328-9.204102-6.446289-1.625-13.339844-1.241211-20.010742-.871094-5.087891.28418-10.352539.578125-15.345703-.033203-4.299805-.524414-8.694336-1.428711-12.945312-2.302734-6.963867-1.432617-14.165039-2.914062-21.572266-2.914062-4.567383,0-9.262695-.384766-13.802734-.757812-7.104492-.582031-14.451172-1.186523-21.485352-.326172-6.729492.821289-12.833008,4.244141-18.735352,7.553711-4.807617,2.696289-9.348633,5.242188-14.137695,6.450195-3.943359.994141-7.949219,1.793945-11.824219,2.567383-7.244141,1.446289-14.735352,2.942383-21.785156,5.735352-4.560547,1.806641-9.577148,2.933594-14.429688,4.022461-6.654297,1.494141-13.53418,3.039062-19.435547,6.369141-10.848633,6.124023-20.807617,12.681641-29.597656,19.491211-9.393555,7.273438-17.854492,16.035156-25.71582,24.386719-1.898438,2.016602-3.896484,4.06543-5.830078,6.045898-6.332031,6.492188-12.880859,13.205078-17.794922,20.629883-6.727539,10.164062-11.84082,21.802734-16.105469,31.913086-3.3125,7.850586-4.78125,16.550781-6.201172,24.963867-.539062,3.198242-1.097656,6.504883-1.745117,9.671875-2.364258,11.568359-2.5625,23.632812-2.5625,34.999023,0,10.480469,2.107422,20.574219,4.144531,30.334961.290039,1.387695.580078,2.774414.863281,4.163086.895508,4.379883,1.204102,9.108398,1.501953,13.680664.475586,7.285156.966797,14.818359,3.801758,21.537109,2.767578,6.5625,7.75,12.03418,12.567383,17.325195,3.194336,3.508789,6.49707,7.135742,9.046875,10.988281,2.249023,3.397461,4.299805,7.112305,6.283203,10.704102,3.615234,6.548828,7.353516,13.320312,12.628906,18.922852,6.792969,7.216797,14.950195,13.476562,22.838867,19.530273,1.354492,1.039062,2.708984,2.078125,4.056641,3.12207l.268555.208008c8.973633,6.950195,18.25293,14.136719,28.490234,19.916016,8.876953,5.009766,18.714844,8.880859,28.229492,12.624023,1.290039.507812,2.580078,1.015625,3.870117,1.526367,3.90332,1.546875,7.871094,3.464844,11.707031,5.319336,6.649414,3.213867,13.525391,6.538086,20.841797,8.381836,6.336914,1.597656,13.164062.836914,19.766602.100586,5.280273-.589844,10.736328-1.204102,15.84668-.575195,4.470703.545898,9.035156,1.591797,13.448242,2.602539,6.763672,1.550781,13.757812,3.15332,20.986328,3.15332,7.232422,0,14.230469-1.599609,20.998047-3.146484,4.410156-1.007812,8.969727-2.050781,13.4375-2.595703,4.170898-.509766,8.399414-.789062,12.488281-1.05957,7.283203-.481445,14.814453-.978516,22.036133-2.799805,3.851562-.970703,7.816406-1.782227,11.650391-2.566406,7.472656-1.529297,15.200195-3.110352,22.334961-5.9375,7.787109-3.084961,14.946289-7.426758,21.869141-11.624023,2.894531-1.755859,5.887695-3.571289,8.84375-5.239258,3.935547-2.220703,8.208984-4.124023,12.342773-5.964844,6.557617-2.920898,13.338867-5.94043,18.999023-10.324219,5.548828-4.297852,9.356445-10.366211,13.039062-16.235352,2.740234-4.368164,5.329102-8.494141,8.569336-11.935547,3.28125-3.484375,7.3125-6.508789,11.212891-9.432617,5.546875-4.161133,11.283203-8.462891,15.110352-14.243164,6.118164-9.244141,10.50293-19.662109,14.743164-29.736328l.842773-2.001953c3.637695-8.623047,5.411133-17.962891,7.125977-26.995117.447266-2.356445.894531-4.712891,1.374023-7.057617,1.884766-9.223633,1.77832-18.302734,1.665039-27.914062-.026367-2.237305-.052734-4.489258-.052734-6.755859,0-3.275391.114258-6.583984.224609-9.78418.28418-8.246094.578125-16.773438-1.110352-25.03418ZM477.544922,195.841152c-.111328,3.225586-.226562,6.560547-.226562,9.887695,0,2.279297.026367,4.541992.052734,6.791016.111328,9.446289.216797,18.369141-1.604492,27.277344-.482422,2.359375-.932617,4.729492-1.381836,7.099609-1.685547,8.87793-3.428711,18.05957-6.942383,26.388672l-.844727,2.003906c-4.186523,9.948242-8.515625,20.234375-14.479492,29.244141-3.540039,5.347656-8.819336,9.307617-14.40918,13.499023-4.000977,3.000977-8.138672,6.103516-11.595703,9.776367-3.441406,3.655273-6.230469,8.099609-8.926758,12.397461-3.543945,5.647461-7.207031,11.486328-12.335938,15.458984-5.373047,4.162109-11.691406,6.975586-18.381836,9.955078-4.197266,1.868164-8.537109,3.801758-12.59668,6.091797-2.99707,1.692383-6.010742,3.519531-8.924805,5.287109-6.817383,4.133789-13.866211,8.408203-21.418945,11.400391-6.888672,2.729492-14.146484,4.214844-21.831055,5.787109-3.866211.791016-7.864258,1.609375-11.783203,2.597656-6.957031,1.753906-14.020508,2.220703-21.499023,2.714844-4.129883.273438-8.400391.555664-12.654297,1.074219-4.62207.564453-9.258789,1.624023-13.743164,2.649414-6.605469,1.509766-13.435547,3.071289-20.329102,3.071289-6.888672,0-13.714844-1.564453-20.31543-3.077148-4.488281-1.02832-9.129883-2.091797-13.755859-2.657227-1.658203-.202148-3.333008-.285156-5.014648-.285156-3.849609,0-7.733398.433594-11.527344.857422-6.62793.738281-12.887695,1.436523-18.702148-.027344-7.018555-1.769531-13.754883-5.026367-20.268555-8.174805-3.884766-1.87793-7.901367-3.820312-11.907227-5.407227-1.291992-.511719-2.584961-1.020508-3.87793-1.529297-9.417969-3.706055-19.158203-7.538086-27.852539-12.445312-10.047852-5.670898-19.239258-12.790039-28.126953-19.673828l-.268555-.208008c-1.352539-1.047852-2.709961-2.088867-4.067383-3.130859-7.794922-5.981445-15.854492-12.166016-22.482422-19.207031-5.015625-5.327148-8.661133-11.930664-12.186523-18.316406-2.011719-3.643555-4.091797-7.412109-6.407227-10.910156-2.677734-4.044922-6.05957-7.758789-9.330078-11.351562-4.862305-5.338867-9.454102-10.382812-12.022461-16.47168-2.637695-6.25293-3.112305-13.529297-3.571289-20.56543-.304688-4.673828-.620117-9.506836-1.556641-14.087891-.285156-1.391602-.575195-2.783203-.866211-4.174805-2.005859-9.612305-4.081055-19.550781-4.081055-29.72168,0-6.842285.072754-13.9375.653809-20.995605.06958-.845215,1.606201-12.216309,1.84082-13.365723l.007324-.036133c.658203-3.217773,1.220703-6.550781,1.764648-9.774414,1.390625-8.244141,2.830078-16.768555,6.005859-24.296875,4.212891-9.986328,9.258789-21.473633,15.84375-31.422852,4.757812-7.188477,11.205078-13.798828,17.44043-20.191406,1.942383-1.990234,3.950195-4.048828,5.866211-6.083984,7.780273-8.264648,16.147461-16.930664,25.369141-24.072266,8.675781-6.720703,18.512695-13.197266,29.235352-19.249023,5.515625-3.113281,11.879883-4.541992,18.618164-6.054688,4.964844-1.115234,10.098633-2.267578,14.87793-4.161133,6.797852-2.693359,13.826172-4.09668,21.267578-5.582031,3.910156-.78125,7.954102-1.588867,11.969727-2.601562,5.174805-1.304688,10.104492-4.068359,14.87207-6.741211,5.648438-3.167969,11.489258-6.443359,17.630859-7.192383,6.732422-.821289,13.602539-.257812,20.876953.337891,4.600586.376953,9.357422.767578,14.047852.767578,7.102539,0,14.151367,1.450195,20.967773,2.852539,4.30957.885742,8.765625,1.802734,13.186523,2.342773,5.256836.640625,10.65625.34082,15.875977.050781,6.740234-.376953,13.107422-.729492,19.109375.783203,8.737305,2.203125,17.236328,5.694336,25.456055,9.070312,2.428711.998047,4.841797,1.989258,7.244141,2.941406,3.37793,1.337891,6.865234,2.592773,10.237305,3.805664,7.527344,2.707031,15.311523,5.506836,22.106445,9.342773,5.964844,3.366211,11.050781,8.399414,15.969727,13.266602,3.337891,3.304688,6.790039,6.720703,10.486328,9.583008,1.37207,1.0625,2.746094,2.116211,4.117188,3.167969,8.037109,6.164062,15.62793,11.987305,22.239258,19.009766,5.75,6.108398,10.226562,13.303711,14.555664,20.262695,1.632812,2.625,3.322266,5.339844,5.057617,7.962891.890625,1.345703,1.786133,2.683594,2.677734,4.017578,5.632812,8.421875,10.953125,16.376953,14.767578,25.417969,3.6875,8.743164,8.242188,20.351562,10.75,32.621094,1.617188,7.911133,1.342773,15.885742,1.051758,24.329102Z" fill="#8a5d3b" stroke="#8a5d3b" stroke-miterlimit="10"/><path d="M226.039427,185.599028c.030413,33.015383-26.444349,58.758578-55.945553,58.55896-30.642891-.207342-54.00425-26.05608-54.625171-58.18268-.627569-32.470577,16.244451-57.629732,55.285362-58.924006,30.154047-.999659,55.252416,22.782512,55.285362,58.547726Z" fill="url(#radial-gradient-4)" stroke="#306194" stroke-miterlimit="10" stroke-width="2"/></svg>