<?xml version="1.0" encoding="UTF-8"?><svg id="a" xmlns="http://www.w3.org/2000/svg" width="510.328782" height="783.955571" xmlns:xlink="http://www.w3.org/1999/xlink" viewBox="0 0 510.328782 783.955571"><defs><radialGradient id="b" cx="432.938188" cy="196.150393" fx="432.938188" fy="196.150393" r="11.201786" gradientTransform="translate(-155.678032 213.557568) rotate(-31.582629)" gradientUnits="userSpaceOnUse"><stop offset="0" stop-color="#f1f7eb"/><stop offset=".197635" stop-color="#edf5e7"/><stop offset=".36977" stop-color="#e2f1dc"/><stop offset=".532485" stop-color="#d0e9ca"/><stop offset=".689345" stop-color="#b7deb1"/><stop offset=".842036" stop-color="#97d091"/><stop offset=".989674" stop-color="#70c06a"/><stop offset="1" stop-color="#6dbf67"/></radialGradient><radialGradient id="c" cx="123.320271" cy="372.007166" fx="123.320271" fy="372.007166" r="11.201786" gradientTransform="translate(-162.502009 747.129982) rotate(-103.225435)" xlink:href="#b"/></defs><line x1="360.47613" y1="219.379646" x2="363.133042" y2="191.862325" fill="none" stroke="#282566" stroke-linecap="round" stroke-miterlimit="10" stroke-width="3.1654"/><line x1="360.393891" y1="219.491445" x2="334.915985" y2="230.221704" fill="none" stroke="#282566" stroke-linecap="round" stroke-miterlimit="10" stroke-width="3.1654"/><path d="M407.930778,491.508458c-6.857027,3.364638-15.498895,2.425676-22.290753,1.687373-.665592-.071819-1.320608-.143144-1.960725-.209377l-23.431364-2.710116c-2.085584-.240607-3.580173-2.126428-3.339158-4.211179.24122-2.084335,2.125383-3.579144,4.210967-3.338537l23.38348,2.705191c.609237.062266,1.277312.134934,1.957205.208521,8.187506.889066,17.466144,1.89797,21.812093-4.044752,1.765386-2.442523,2.500857-5.695244,3.28009-9.138906.426227-1.886273.86746-3.836744,1.502825-5.753803,1.056673-3.343652,2.658106-6.547937,4.743517-9.475563,2.917194-4.12417,6.603703-7.680754,10.1688-11.12042,2.334238-2.25194,4.540166-4.379961,6.511743-6.627583l.091837-.101375c7.423563-7.873727,8.977222-17.810241,4.262747-27.261697-5.08534-10.80768-14.762196-17.468549-25.005979-24.520386-10.733734-7.389118-21.833597-15.029525-27.688616-27.842032-3.105352-6.632889-4.005624-13.575682-2.590123-20.046688l.027639-.116381c1.287831-5.111488,3.404652-9.508479,5.27319-13.387878,4.082315-8.478963,7.031829-14.605646,1.389698-24.920051-5.805993-10.262947-16.564226-15.366111-27.954177-20.769037-12.977096-6.156749-26.396772-12.522629-32.836055-27.168453-3.91921-9.189046-2.71985-18.634493-1.559972-27.768642.268862-2.118563.523348-4.118987.715193-6.120712.611862-6.228122.319404-11.076859-.919657-15.266393-4.108217-12.790621-14.534518-21.196018-27.183616-21.852358-13.098887-.680062-24.726694,6.834599-30.344824,19.609962-.847003,1.921687-3.08827,2.793932-5.008723,1.948391-1.921082-.844716-2.792902-3.087225-1.948603-5.008103,6.818259-15.500137,21.614969-24.974573,37.696496-24.140079,15.880167.824263,28.927989,11.247206,34.051477,27.202512,1.551832,5.244097,1.932358,11.013762,1.221683,18.241066-.202198,2.109108-.476087,4.261656-.739686,6.342503-1.080239,8.504506-2.099865,16.536474.993737,23.79205,5.283081,12.013232,16.86176,17.505956,29.119696,23.321622,11.957172,5.672329,24.320953,11.537337,31.338308,23.940798,7.542765,13.788234,3.106598,23.001403-1.183521,31.911962-1.786777,3.711148-3.634666,7.548382-4.736204,11.889548-1.037025,4.809668-.32021,10.055766,2.07545,15.174701,4.996852,10.932729,14.761622,17.654838,25.100138,24.771285,10.626004,7.314867,21.613593,14.878085,27.535646,27.467047,6.079852,12.186033,4.028028,25.570404-5.523886,35.738699-2.169692,2.467273-4.57603,4.789204-6.904626,7.035793-3.464161,3.342094-6.7369,6.499338-9.248346,10.049847-1.631465,2.290018-2.87672,4.781688-3.710434,7.417115-.533918,1.614112-.915913,3.301978-1.320441,5.089252-.870461,3.849584-1.85682,8.212778-4.545246,11.931234-1.825338,2.497254-4.044573,4.24429-6.488918,5.444025Z" fill="#c8c1df" stroke="#282566" stroke-miterlimit="10" stroke-width="1.9"/><line x1="255.631201" y1="197.72532" x2="253.554048" y2="184.433695" fill="none" stroke="#282566" stroke-linecap="round" stroke-miterlimit="10" stroke-width="3.1654"/><line x1="253.531492" y1="184.431051" x2="260.056883" y2="175.068013" fill="none" stroke="#282566" stroke-linecap="round" stroke-miterlimit="10" stroke-width="3.1654"/><polygon points="260.062762 175.032337 250.592804 160.383977 261.597844 146.850919 277.869292 153.135389 276.920559 170.552463 260.062762 175.032337" fill="none" stroke="#282566" stroke-linecap="round" stroke-miterlimit="10" stroke-width="3.1654"/><line x1="233.257917" y1="583.979728" x2="230.771012" y2="556.446522" fill="none" stroke="#282566" stroke-linecap="round" stroke-miterlimit="10" stroke-width="3.1654"/><line x1="233.339464" y1="584.092033" x2="258.75061" y2="594.979447" fill="none" stroke="#282566" stroke-linecap="round" stroke-miterlimit="10" stroke-width="3.1654"/><circle cx="315.86523" cy="153.913595" r="11.201786" fill="url(#b)" stroke="#134d26" stroke-miterlimit="10" stroke-width="1.5827"/><text transform="translate(349.913213 193.780848) rotate(-28.990273)" fill="#282566" font-family="TimesNewRomanPS-BoldMT, &apos;Times New Roman&apos;" font-size="14.2443" font-weight="700"><tspan x="0" y="0">SH</tspan></text><line x1="233.760582" y1="102.336542" x2="225.254749" y2="76.002193" fill="none" stroke="#282566" stroke-linecap="round" stroke-miterlimit="10" stroke-width="3.374185"/><line x1="233.873531" y1="102.42361" x2="264.008749" y2="105.876198" fill="none" stroke="#282566" stroke-linecap="round" stroke-miterlimit="10" stroke-width="3.374185"/><line x1="332.353145" y1="81.963406" x2="336.641293" y2="109.274099" fill="none" stroke="#282566" stroke-linecap="round" stroke-miterlimit="10" stroke-width="3.1654"/><line x1="332.40491" y1="81.834633" x2="354.402654" y2="65.090637" fill="none" stroke="#282566" stroke-linecap="round" stroke-miterlimit="10" stroke-width="3.1654"/><text transform="translate(265.22912 118.5381) rotate(-26.09742)" fill="#282566" font-family="TimesNewRomanPS-BoldMT, &apos;Times New Roman&apos;" font-size="14.2443" font-weight="700"><tspan x="0" y="0">SH</tspan></text><text transform="translate(336.670764 123.106607) rotate(-26.133291)" fill="#282566" font-family="TimesNewRomanPS-BoldMT, &apos;Times New Roman&apos;" font-size="14.2443" font-weight="700"><tspan x="0" y="0">SH</tspan></text><line x1="305.355226" y1="143.769476" x2="304.008058" y2="142.320623" fill="none" stroke="#231f20" stroke-linecap="round" stroke-miterlimit="10" stroke-width="1.5827"/><line x1="301.809328" y1="139.955633" x2="298.5105" y2="136.408026" fill="none" stroke="#231f20" stroke-dasharray="3.229394 3.229394" stroke-linecap="round" stroke-miterlimit="10" stroke-width="1.5827"/><line x1="297.411379" y1="135.22553" x2="280.918703" y2="117.487737" fill="none" stroke="#231f20" stroke-dasharray="3.229394 3.229394 3.229394 3.229394" stroke-linecap="round" stroke-miterlimit="10" stroke-width="1.5827"/><line x1="279.819094" y1="116.305242" x2="278.471926" y2="114.856268" fill="none" stroke="#231f20" stroke-linecap="round" stroke-miterlimit="10" stroke-width="1.5827"/><line x1="348.154055" y1="177.797064" x2="346.723879" y2="176.429754" fill="none" stroke="#231f20" stroke-linecap="round" stroke-miterlimit="10" stroke-width="1.5827"/><line x1="344.442629" y1="174.247869" x2="341.020265" y2="170.975042" fill="none" stroke="#231f20" stroke-dasharray="3.156951 3.156951" stroke-linecap="round" stroke-miterlimit="10" stroke-width="1.5827"/><line x1="339.879152" y1="169.8841" x2="331.893801" y2="162.247503" fill="none" stroke="#231f20" stroke-dasharray="3.156951 3.156951 3.156951 3.156951" stroke-linecap="round" stroke-miterlimit="10" stroke-width="1.5827"/><line x1="330.753176" y1="161.156561" x2="329.323" y2="159.789129" fill="none" stroke="#231f20" stroke-linecap="round" stroke-miterlimit="10" stroke-width="1.5827"/><line x1="301.103762" y1="156.672186" x2="299.174562" y2="157.111395" fill="none" stroke="#231f20" stroke-linecap="round" stroke-miterlimit="10" stroke-width="1.5827"/><line x1="296.915773" y1="157.625555" x2="293.527101" y2="158.396917" fill="none" stroke="#231f20" stroke-dasharray="2.316921 2.316921" stroke-linecap="round" stroke-miterlimit="10" stroke-width="1.5827"/><line x1="292.397219" y1="158.654119" x2="284.49048" y2="160.453924" fill="none" stroke="#231f20" stroke-dasharray="2.316921 2.316921 2.316921 2.316921" stroke-linecap="round" stroke-miterlimit="10" stroke-width="1.5827"/><line x1="283.360597" y1="160.711126" x2="281.431887" y2="161.150213" fill="none" stroke="#231f20" stroke-linecap="round" stroke-miterlimit="10" stroke-width="1.5827"/><line x1="338.088137" y1="124.418279" x2="337.171144" y2="126.171453" fill="none" stroke="#231f20" stroke-linecap="round" stroke-miterlimit="10" stroke-width="1.5827"/><line x1="335.880617" y1="128.639105" x2="333.944582" y2="132.340521" fill="none" stroke="#231f20" stroke-dasharray="2.784825 2.784825" stroke-linecap="round" stroke-miterlimit="10" stroke-width="1.5827"/><line x1="333.299074" y1="133.574407" x2="328.781984" y2="142.211248" fill="none" stroke="#231f20" stroke-dasharray="2.784825 2.784825 2.784825 2.784825" stroke-linecap="round" stroke-miterlimit="10" stroke-width="1.5827"/><line x1="328.136476" y1="143.445135" x2="327.219484" y2="145.198187" fill="none" stroke="#231f20" stroke-linecap="round" stroke-miterlimit="10" stroke-width="1.5827"/><line x1="191.401743" y1="626.23529" x2="164.948014" y2="618.206445" fill="none" stroke="#282566" stroke-linecap="round" stroke-miterlimit="10" stroke-width="3.1654"/><line x1="191.495138" y1="626.337953" x2="196.992812" y2="653.431083" fill="none" stroke="#282566" stroke-linecap="round" stroke-miterlimit="10" stroke-width="3.1654"/><text transform="translate(159.234484 616.524468) rotate(-26.777728)" fill="#282566" font-family="TimesNewRomanPS-BoldMT, &apos;Times New Roman&apos;" font-size="14.2443" font-weight="700"><tspan x="0" y="0">SH</tspan></text><line x1="185.799539" y1="433.434553" x2="159.998742" y2="423.505756" fill="none" stroke="#282566" stroke-linecap="round" stroke-miterlimit="10" stroke-width="3.1654"/><line x1="185.885232" y1="433.543727" x2="189.400802" y2="460.964575" fill="none" stroke="#282566" stroke-linecap="round" stroke-miterlimit="10" stroke-width="3.1654"/><text transform="translate(190.011593 475.215699) rotate(-26.777728)" fill="#282566" font-family="TimesNewRomanPS-BoldMT, &apos;Times New Roman&apos;" font-size="14.2443" font-weight="700"><tspan x="0" y="0">SH</tspan></text><text transform="translate(96.772076 508.343965) rotate(-26.777728)" fill="#282566" font-family="TimesNewRomanPS-BoldMT, &apos;Times New Roman&apos;" font-size="14.2443" font-weight="700"><tspan x="0" y="0">SH</tspan></text><line x1="72.828255" y1="476.507929" x2="74.32132" y2="448.902986" fill="none" stroke="#282566" stroke-linecap="round" stroke-miterlimit="10" stroke-width="3.1654"/><line x1="72.892828" y1="476.630781" x2="96.476953" y2="491.054761" fill="none" stroke="#282566" stroke-linecap="round" stroke-miterlimit="10" stroke-width="3.1654"/><text transform="translate(218.106649 556.564198) rotate(-26.133291)" fill="#282566" font-family="TimesNewRomanPS-BoldMT, &apos;Times New Roman&apos;" font-size="14.2443" font-weight="700"><tspan x="0" y="0">HS</tspan></text><circle cx="171.424986" cy="541.971548" r="11.201786" fill="url(#c)" stroke="#134d26" stroke-miterlimit="10" stroke-width="1.5827"/><line x1="160.080324" y1="531.603704" x2="158.289797" y2="530.762884" fill="none" stroke="#231f20" stroke-linecap="round" stroke-miterlimit="10" stroke-width="1.5827"/><line x1="155.17798" y1="529.301702" x2="150.5105" y2="527.110052" fill="none" stroke="#231f20" stroke-dasharray="3.437646 3.437646" stroke-linecap="round" stroke-miterlimit="10" stroke-width="1.5827"/><line x1="148.954347" y1="526.379339" x2="113.170656" y2="509.576116" fill="none" stroke="#231f20" stroke-dasharray="3.437646 3.437646 3.437646 3.437646" stroke-linecap="round" stroke-miterlimit="10" stroke-width="1.5827"/><line x1="111.614504" y1="508.845648" x2="109.823976" y2="508.004583" fill="none" stroke="#231f20" stroke-linecap="round" stroke-miterlimit="10" stroke-width="1.5827"/><line x1="163.612062" y1="598.092962" x2="164.082277" y2="596.171331" fill="none" stroke="#231f20" stroke-linecap="round" stroke-miterlimit="10" stroke-width="1.5827"/><line x1="164.908449" y1="592.796087" x2="166.147219" y2="587.733343" fill="none" stroke="#231f20" stroke-dasharray="3.474746 3.474746" stroke-linecap="round" stroke-miterlimit="10" stroke-width="1.5827"/><line x1="166.560305" y1="586.045843" x2="172.755129" y2="560.732366" fill="none" stroke="#231f20" stroke-dasharray="3.474746 3.474746 3.474746 3.474746" stroke-linecap="round" stroke-miterlimit="10" stroke-width="1.5827"/><line x1="173.168215" y1="559.044622" x2="173.63843" y2="557.122991" fill="none" stroke="#231f20" stroke-linecap="round" stroke-miterlimit="10" stroke-width="1.5827"/><line x1="216.903566" y1="542.47553" x2="214.939699" y2="542.238226" fill="none" stroke="#231f20" stroke-linecap="round" stroke-miterlimit="10" stroke-width="1.5827"/><line x1="211.215578" y1="541.788275" x2="205.62964" y2="541.113226" fill="none" stroke="#231f20" stroke-dasharray="3.751137 3.751137" stroke-linecap="round" stroke-miterlimit="10" stroke-width="1.5827"/><line x1="203.767336" y1="540.888128" x2="190.733156" y2="539.312933" fill="none" stroke="#231f20" stroke-dasharray="3.751137 3.751137 3.751137 3.751137" stroke-linecap="round" stroke-miterlimit="10" stroke-width="1.5827"/><line x1="188.87134" y1="539.087835" x2="186.906984" y2="538.85053" fill="none" stroke="#231f20" stroke-linecap="round" stroke-miterlimit="10" stroke-width="1.5827"/><line x1="189.980226" y1="475.288519" x2="189.488527" y2="477.204778" fill="none" stroke="#231f20" stroke-linecap="round" stroke-miterlimit="10" stroke-width="1.5827"/><line x1="188.420168" y1="481.367376" x2="186.818117" y2="487.611273" fill="none" stroke="#231f20" stroke-dasharray="4.297482 4.297482" stroke-linecap="round" stroke-miterlimit="10" stroke-width="1.5827"/><line x1="186.283937" y1="489.692571" x2="178.27173" y2="520.912054" fill="none" stroke="#231f20" stroke-dasharray="4.297482 4.297482 4.297482 4.297482" stroke-linecap="round" stroke-miterlimit="10" stroke-width="1.5827"/><line x1="177.737551" y1="522.993353" x2="177.245851" y2="524.909612" fill="none" stroke="#231f20" stroke-linecap="round" stroke-miterlimit="10" stroke-width="1.5827"/><path d="M508.825395,113.318722c-.559959.803221-1.417175,1.401094-2.452657,1.6128-11.74545,2.402404-22.662381-4.372639-29.752549-10.478939-7.06848-6.087411-13.04863-13.25218-18.83194-20.181748-3.211601-3.84704-6.531842-7.8254-9.95763-11.511821-11.445386-12.313483-22.429797-18.951867-33.581114-20.293526-12.893839-1.552207-25.831171,4.14834-38.342467,9.660733-1.993167.878021-3.978552,1.752988-5.956211,2.596601-21.310859,9.092382-37.757841,9.8667-50.280203,2.366225-9.024669-5.404996-14.392487-14.287956-19.584182-22.877619-1.472475-2.437732-2.995756-4.957986-4.551739-7.297552-7.616292-11.452818-17.189003-19.904026-27.683466-24.439193-11.81115-5.104522-24.919097-5.036801-35.063269.181399-10.879749,5.595647-17.743126,17.296026-16.690116,28.452146.559783,5.928626,3.124494,11.531941,5.840262,17.463833,2.548692,5.569538,5.184672,11.328049,6.23971,17.672593,2.890548,17.392386-8.387944,36.001593-25.144146,41.483551-4.466857,1.461557-9.032879,2.022142-13.448322,2.56335-4.336259.53235-8.432438,1.03518-12.24549,2.329829-4.281246,1.453414-8.286597,4.844804-9.97299,8.443514-.997481,2.130798-1.136468,4.163904-.412574,6.043028.784788,2.038391-.230368,4.328322-2.270181,5.114474-2.039371.785518-4.328735-.231127-5.114474-2.270181-1.506454-3.911252-1.288249-8.144427.630863-12.243168,2.617854-5.590889,8.21145-10.413902,14.595325-12.581414,4.584495-1.556654,9.282363-2.132718,13.825599-2.690347,4.225998-.51878,8.21717-1.008144,11.951098-2.229835,13.194434-4.317357,22.075482-18.970048,19.799184-32.665264-.88242-5.305695-3.188244-10.343226-5.629298-15.676633-2.870071-6.269326-5.837418-12.752487-6.522772-20.013116-1.349697-14.294647,7.262946-29.194747,20.948887-36.233979,12.226237-6.288603,27.860746-6.441391,41.822125-.407801,11.902202,5.143505,22.6677,14.591116,31.133603,27.321112,1.650337,2.482594,3.219028,5.076897,4.735135,7.586498,4.907033,8.118958,9.541726,15.788047,16.877415,20.181387,10.193589,6.10591,24.294796,5.171522,43.108327-2.855452,1.949761-.831974,3.906365-1.694033,5.871192-2.559781,13.486783-5.942088,27.432812-12.08686,42.478822-10.275922,13.087487,1.575101,25.658683,9.021067,38.431713,22.763167,3.569863,3.840559,6.959018,7.901818,10.236806,11.828914,5.834772,6.990881,11.345852,13.594067,17.920135,19.255936,5.747535,4.949852,14.403409,10.481165,23.003433,8.722498,2.14083-.437821,4.2314.942355,4.669,3.083501.226433,1.105569-.032436,2.197826-.630845,3.056201Z" fill="#c8c1df" stroke="#282566" stroke-miterlimit="10" stroke-width="1.5827"/><path d="M28.745362,276.199283c-4.544147.716382-8.434555,3.876785-11.478802,7.14457-3.81773,4.098065-6.936073,8.724684-9.515081,13.690681-2.61197,5.029466-4.831403,10.283009-6.026492,15.841864-1.006741,4.682772-1.615291,9.866205.406982,14.383185,3.482517,7.778605,10.159118,13.842482,16.870878,18.831072,6.35458,4.723112,13.234106,8.711685,19.373369,13.727536.684747.559446,1.360578,1.129894,2.024887,1.713487.156004.137049.311475.274734.466244.41318.028394.025399.780092.720179.299517.268791-.411466-.386476.077168.075658.177302.170171.225373.212722.449113.427121.671134.64334,1.282707,1.249184,2.508836,2.557802,3.65114,3.936972.579157.69925,1.136609,1.416545,1.668424,2.152473.234718.324803.464355.653339.688312.985656.111683.16572.219871.33361.331015.499652.503863.752742-.332058-.570998.087343.145381.902934,1.542301,1.716453,3.123558,2.357578,4.794174.142162.37044.269427.745537.402259,1.119292.32536.915476-.143545-.562065.008999.030616.049671.192986.109862.383564.161506.576141.247834.924152.445738,1.861598.590409,2.807452.117753.769865.181933,1.541678.249582,2.316869.050943.583754-.015471-.96566-.003772-.056192.002339.181872.009527.363681.011928.545579.006003.454766.001167.909685-.012505,1.364276-.04951,1.646162-.224074,3.287186-.478758,4.913675-.114403.73061-.245421,1.458594-.389005,2.184015-.012054.0609-.187446.965252-.061551.31714.109013-.561204-.009798.041893-.040472.18059-.10078.455687-.205765.910414-.31405,1.364374-1.596172,6.691566-3.919525,13.264702-4.642653,20.138543-.805246,7.65444.966307,15.135216,5.66965,21.299306,4.7871,6.27386,11.864108,10.471685,18.97441,13.610926,7.682708,3.391962,15.897749,5.745023,24.045983,7.716896,8.69612,2.104461,17.528424,3.653461,26.431667,4.548642,7.885422.792844,16.03345,1.306122,23.848408-.347998,7.465392-1.580131,14.908796-5.419195,18.688357-12.347288,3.889679-7.129943,3.714121-15.24096,1.106239-22.777868-5.838254-16.872841-23.340518-24.521758-36.212061-35.100911-.776658-.638337-1.541892-1.290702-2.292345-1.959678-.166483-.148408-.331778-.2981-.497251-.447633.108205.097781.603713.567008.045678.037407-.403054-.382518-.805197-.765677-1.199592-1.157175-1.407788-1.397447-2.743017-2.869575-3.969427-4.429217-.573649-.729517-1.122488-1.478618-1.642968-2.246983-.12211-.180267-.238099-.364918-.361614-.544137-.368595-.53483.469888.808661-.061389-.098936-.274865-.469561-.55288-.93582-.812332-1.414321-.415389-.766093-.800397-1.548863-1.150988-2.346722-.198205-.451065-.385069-.906979-.560853-1.36723-.098093-.256835-.193136-.51476-.283885-.774294-.039935-.11421-.276809-.951361-.124196-.356443.16143.629286-.06462-.257118-.080075-.314843-.047858-.178742-.093373-.358218-.136843-.538063-.087195-.360741-.165225-.723788-.234317-1.088427-.164968-.870632-.280188-1.750255-.34718-2.633801-.021943-.289399-.202832-.81827-.005343.02978-.036335-.156029-.01154-.41282-.013487-.561746-.004899-.374692-.001078-.749579.011388-1.124096.029581-.888677.106409-1.775477.230975-2.655875.047507-.335769.047459-.947884.207978-1.241693-.038799.071017-.212343.893929-.03929.184884.044011-.180327.085559-.360958.13157-.540849.20557-.803721.453411-1.596929.744916-2.373659.144455-.384906.299908-.765548.465939-1.141635.091794-.207929.191755-.411995.284877-.619241.241394-.537228-.15237.068801-.118323.216768-.088121-.382962,1.039534-1.744564,1.264129-2.063459.230233-.3269.471261-.646152.722985-.9568.111496-.137596.227237-.271539.34039-.407702.54054-.650462-.052479.129214-.093844.096017-.015399-.012358,1.413048-1.305926,1.56081-1.42361.310234-.247085.651869-.45704.95988-.704804.4423-.355785-.858412.475299-.081543.049633.156268-.085623.308404-.178032.465206-.262968.717856-.388846,1.464991-.708474,2.234027-.980959,1.957406-.693548,2.848703-3.473297,1.93151-5.252725-1.058554-2.053682-3.163616-2.671723-5.252725-1.93151-6.792739,2.406802-11.508776,8.924749-13.053267,15.795248-1.719914,7.650846-.422629,15.310916,3.647676,22.02636,4.297764,7.09072,10.498935,12.635474,17.139848,17.495161,3.471836,2.54062,7.062458,4.913846,10.564697,7.411721,1.834246,1.308226,3.647135,2.647796,5.405559,4.05678.777197.62275,1.544076,1.258587,2.296396,1.911209.187669.162799.374597.326507.560489.491339-.035169-.031185.868615.787712.437508.390301-.358195-.330197.210897.200482.289614.275096.224866.213147.448264.427836.66958.644672,1.595208,1.56292,3.095467,3.224767,4.452594,4.999227.491701.642905.947957,1.30657,1.401864,1.976104.542418.800092-.303736-.527408.003103.004186.098392.170462.203503.337213.302938.507139.249292.426019.488862.857509.718698,1.294339.808426,1.536507,1.474747,3.131412,2.043692,4.770564.252951.728761.013266-.066756-.032599-.119457.073394.084333.129266.435536.166486.567272.120251.425614.231216.853755.332653,1.284241.20153.855268.36482,1.719305.486039,2.589624.060133.431735.110141.864786.149209,1.29894.017295.192192.030395.384592.0452.57699.047496.617225-.054009-.133531-.00648-.146478-.045714.012452-.036688,2.344318-.054523,2.574983-.06223.804851-.190746,1.593113-.316885,2.389095-.093254.588471.249804-.936858.005302-.036902-.049323.181545-.090978.36517-.140223.546809-.123082.453995-.262952.903749-.419049,1.34747-.211948.602483-.439343,1.617622-.880033,2.088541.458498-.489948.271449-.493771.087054-.185042-.122809.205617-.237299.416001-.361937.620668-.227709.37392-.468668.73954-.722548,1.096229-.257624.36195-.528263.714388-.81056,1.057403-.1241.150792-.255716.295554-.379256.446626-.388895.475563.716703-.698937.026845-.034078-.623934.601324-1.245019,1.19295-1.926945,1.729853-.300345.236472-.607646.464289-.920846.683445-.156828.109737-.316275.214833-.474253.32276-.603618.412375.072157-.019512.13986-.086264-.574163.566098-1.702002.950401-2.425986,1.28329-.754327.34684-1.525037.657076-2.307295.935101-.185813.066041-.372814.128345-.559342.192329-.726601.249244.060135.014242.115941-.033493-.286056.244685-1.074583.307077-1.441746.40061-1.723131.438959-3.477795.748889-5.24243.963522-.869981.105816-1.742716.188351-2.616892.250482-.258794.018393-1.404734.074914-.53817.0397-.516773.021-1.033518.03968-1.550637.050157-8.170402.165532-16.449004-.872507-24.500315-2.172447-2.123782-.3429-4.241693-.722121-6.352479-1.137596-.482464-.094965-.964568-.191783-1.446265-.290562-.240854-.049391-.481504-.099711-.722268-.149526-1.158032-.239602.434254.099461-.259043-.055229-1.079897-.240949-2.160569-.47715-3.237798-.730033-4.248515-.997351-8.462372-2.142344-12.631148-3.433076-3.783012-1.171292-7.548872-2.428176-11.205384-3.954138-.78513-.327656-1.565148-.667732-2.338924-1.021381-.435776-.199168-.869504-.40277-1.301099-.610839-.19175-.092442-.383056-.185772-.57391-.280049-.10598-.052351-1.04549-.533307-.524594-.260881.491563.257084-.115395-.063329-.233905-.126451-.187213-.099716-.373884-.200409-.560005-.302147-.417768-.228361-.832771-.461726-1.244612-.700616-.818231-.474618-1.623992-.971122-2.413931-1.49151-1.50994-.994703-2.963355-2.07751-4.327367-3.265151-.182495-.158898-.745773-.624395-.01348.003595-.152593-.130859-.298134-.278884-.44252-.417589-.291348-.279886-.577423-.565402-.857772-.856307-.626151-.649726-1.224552-1.326904-1.787323-2.032322-.529631-.663878-1.011203-1.357118-1.488538-2.058753-.345758-.50823.467425.833653-.005082-.020225-.09648-.174351-.201159-.344544-.298549-.518417-.244294-.436143-.474706-.880331-.690689-1.331158-.348995-.728467-.660728-1.475317-.930989-2.23654-.068412-.192692-.131615-.386655-.1976-.580102.268077.785917.079092.254801.034139.07933-.113367-.442517-.234077-.88148-.3318-1.327971-.173279-.791699-.305226-1.592464-.398473-2.397483-.041159-.355336-.074701-.711616-.10112-1.068349-.012648-.170784-.044155-.366756-.03419-.534793-.06164,1.039425.015952.163732.012374-.060045-.025119-1.571358.078259-3.142888.269265-4.702182.093976-.76718.209348-1.531587.341188-2.293152.062495-.360995.129-.721315.198643-1.080998.034946-.180482.072135-.360492.107311-.54092.183894-.943227-.194493.861047.015718-.079166.355773-1.591268.751785-3.17218,1.171158-4.747827,1.737769-6.529058,3.870084-13.145041,4.022568-19.955783.173115-7.732177-2.435245-14.86543-7.036514-21.030064-4.486263-6.010553-10.511093-10.84029-16.637223-15.086709-3.287944-2.279088-6.651522-4.446936-9.926977-6.744481-1.665063-1.167947-3.310191-2.365442-4.911768-3.619366-.771919-.604359-1.533913-1.22139-2.282681-1.85423-.394377-.333318-.785265-.670752-1.171763-1.013184-.171317-.151785-.341035-.305293-.511432-.45811.535587.480332.006332.00332-.222313-.213918-1.39598-1.326338-2.724851-2.725927-3.948408-4.213479-.644608-.783688-1.260923-1.590811-1.842185-2.422638-.258759-.370303-.508667-.746329-.755088-1.124908.08311.127682.393243.654866.008484.003422-.173254-.293339-.347069-.585731-.51418-.88266-.379098-.673595-.751065-1.359228-1.063772-2.066582-.083229-.188268-.150164-.382422-.229137-.572198-.24515-.589109.277598,1.107974.048682.154972-.211654-.881136-.332077-1.748404-.420556-2.649327-.056675-.577088.014909,1.068808.013641.183173-.000367-.256453-.005626-.512526-.001547-.769055.008499-.534449.036866-1.068411.080873-1.601083.092066-1.114383.253269-2.222543.461834-3.320859.02498-.131548.052849-.262713.077103-.394404.112932-.613191-.082314.381714-.088732.406946.076176-.29948.134753-.604543.206788-.905198.147947-.617499.309312-1.231696.481976-1.842734.349849-1.238082.747152-2.462664,1.182127-3.673392.913283-2.542069,1.99143-5.025028,3.200949-7.439853.520453-1.039092-.333232.618071.103493-.20635.164871-.311231.328872-.62285.496799-.932453.334718-.61711.678492-1.229324,1.031413-1.836208.676488-1.163289,1.386468-2.307215,2.13216-3.427433,1.408659-2.116162,2.956966-4.112613,4.631107-6.024017.351732-.40158-.761524.803695-.236482.258102.092791-.096422.183363-.195085.275808-.291839.182422-.190926.366792-.380002.553379-.566861.406698-.407292.823403-.804686,1.251602-1.189338.794306-.713527,1.628306-1.386001,2.512259-1.985716.337327-.228859.959264-.434911-.172141.097279.190844-.089769.370218-.222596.554627-.325894.381052-.21345.771101-.411217,1.170856-.587302.202538-.089214.407187-.173612.614477-.251198.089686-.033568.183272-.061525.271652-.097711.492621-.201693-.596687.178741-.559851.172808.402568-.064831.795653-.206064,1.201977-.270121,2.04855-.322953,3.658775-2.532735,3.200107-4.590322-.474291-2.127668-2.404726-3.544664-4.590322-3.200107h0Z" fill="#c8c1df" stroke="#282566" stroke-miterlimit="10" stroke-width="1.5827"/><path d="M228.479382,232.185211c-12.802377,12.431394-28.337005,20.802212-45.105308,26.995785-10.996866,4.457602-29.232227,16.94641-37.015849,22.438735-2.963619,2.091206-5.801811,4.352556-8.475914,6.803138-18.285542,16.757099-30.553072,37.961922-38.921463,60.869691,8.200565,6.858468,15.462998,14.210034,23.24817,21.486156,9.228824-32.697647,31.012703-61.004175,61.581164-76.599167,9.826613-4.992718,20.270063-8.896814,30.390589-13.624629,3.682303-1.870909,7.199519-3.89061,10.786889-6.071316,2.510023-1.525804,4.952915-3.166244,7.313554-4.914292,4.525807-3.35135,8.772762-6.761733,13.001633-10.520472,3.40711,6.266832,8.167745,11.622913,12.398574,17.566821,4.536172-9.760973,7.95471-19.463925,11.079335-29.43178,3.331508-11.379401,5.280479-22.406869,6.3187-34.787861.06183-4.205628.711488-7.881451.773318-12.087079-.164798-3.174438.010125-6.254899-.044602-9.352721-.039939-2.260769-2.66877-3.476941-4.426342-2.054405-9.969533,8.069097-21.211398,13.684854-33.838729,17.619292-1.774122.552783-3.583691.980192-5.409413,1.326341-2.37743.45075-5.857668,1.198766-6.255279,1.219408-.558816.02901-8.618139,1.287886-12.235941,1.755861,5.406483,7.00352,10.519052,13.742138,14.836913,21.362495h0Z" fill="#c8c1df" stroke="#282566" stroke-miterlimit="10" stroke-width="2.769725"/><path d="M372.888932,558.99941l-.121602.151087c-4.989637,6.199491-14.629661,5.636493-26.010076,2.540358-12.591167-22.7345-39.778533-50.880273-28.859066-64.891631l.121602-.151087c4.993539-6.204339,14.629637-5.636464,26.010052-2.540329,12.591191,22.734471,39.778533,50.880273,28.85909,64.891602Z" fill="#4d4b7e" stroke="#282566" stroke-miterlimit="10" stroke-width="1.888031"/><path d="M309.738626,640.057243l-.121602.151087c-4.993539,6.204339-14.629878,5.63627-26.010052,2.540329-12.591167-22.7345-39.778533-50.880273-28.859307-64.891825l.121602-.151087c4.989613-6.199461,14.629878-5.63627,26.010052-2.540329,12.591167,22.7345,39.778533,50.880273,28.859307,64.891825Z" fill="#4d4b7e" stroke="#282566" stroke-miterlimit="10" stroke-width="1.888031"/><path d="M246.583045,721.110782l-.121602.151087c-4.993563,6.204369-14.628506,5.645412-25.999962,2.548499-12.595334-22.729816-39.78359-50.884343-28.864123-64.895702l.121602-.151087c4.989637-6.199491,14.62482-5.64034,25.996035-2.54362,12.595334,22.729816,39.787493,50.879495,28.86805,64.890823Z" fill="#4d4b7e" stroke="#282566" stroke-miterlimit="10" stroke-width="1.888031"/><path d="M165.561664,754.511941c-4.023242-5.877262-7.940392-11.715263-10.996975-17.234148-11.371432-3.096943-21.011456-3.659941-26.004995,2.544399l-.121602.151087c-7.478622,9.598155,2.920133,25.827817,14.26164,42.407104,7.978222-9.786022,17.603454-21.553825,22.861932-27.868442Z" fill="#4d4b7e" stroke="#282566" stroke-miterlimit="10" stroke-width="1.888031"/><path d="M372.767331,559.150496l-22.539616,28.004873c-10.833156,13.904119-44.300085-5.177331-69.348396-11.989951-11.380175-3.095941-21.020439-3.659132-26.010052,2.540329l22.539592-28.004843c10.83318-13.904149,44.300085,5.177331,69.348396,11.989951,11.380415,3.096135,21.020439,3.659132,26.010076-2.540358Z" fill="#c8c1df" stroke="#282566" stroke-miterlimit="10" stroke-width="1.888031"/><path d="M309.617024,640.20833l-22.539616,28.004873c-10.833397,13.903925-44.305119-5.181431-69.362412-11.993243-11.371215-3.09672-21.006399-3.65587-25.996035,2.54362l22.539616-28.004873c10.824172-13.903311,44.295028,5.173261,69.348396,11.989951,11.380175,3.095941,21.016513,3.664011,26.010052-2.540329Z" fill="#c8c1df" stroke="#282566" stroke-miterlimit="10" stroke-width="1.888031"/><path d="M246.461443,721.261869l-22.539616,28.004873c-10.832915,13.904313-44.299845-5.177137-69.357139-11.988949-11.371432-3.096943-21.011456-3.659941-26.004995,2.544399l22.539616-28.004873c10.833156-13.904119,44.304878,5.181237,69.362172,11.993049,11.371456,3.096913,21.006399,3.65587,25.999962-2.548499Z" fill="#c8c1df" stroke="#282566" stroke-miterlimit="10" stroke-width="1.888031"/><path d="M367.776484,501.719303c2.011321-2.567049,4.022617-5.134068,6.033938-7.701118,5.303834-6.748625,10.65318-13.461602,16.018972-20.161488-20.424133-7.568177-41.172513-15.606625-49.269987-5.213433l-22.539616,28.004873c4.993539-6.204339,14.629637-5.636464,26.010052-2.540329,7.34482,1.998279,15.412356,5.048992,23.421291,8.014749.109542-.133638.215063-.270168.325351-.403254Z" fill="#c8c1df" stroke="#282566" stroke-miterlimit="10" stroke-width="1.888031"/><path d="M67.149132,236.156112c13.338984-13.225508,22.459008-29.407642,29.312244-46.931626,4.910974-11.484548,18.418877-30.426811,24.354669-38.508942,2.260056-3.077276,4.696674-6.019151,7.329171-8.784552,18.001035-18.909839,40.562865-31.397249,64.839081-39.747033,7.054378,8.767582,14.646445,16.557682,22.148675,24.896427-34.59668,9.059838-64.822681,31.420835-81.845954,63.280943-5.450782,10.242238-9.768171,21.155401-14.946027,31.712256-2.042558,3.838049-4.238415,7.499383-6.605121,11.231334-1.655945,2.611184-3.431197,5.149427-5.318058,7.598955-3.617482,4.696224-7.291523,9.097794-11.331827,13.473375,6.527439,3.710933,12.069336,8.828186,18.240466,13.399588-10.363445,4.579134-20.643508,7.983182-31.196497,11.072613-12.042691,3.278975-23.687383,5.109938-36.738394,5.95536-4.427415-.018913-8.308979.591409-12.736395.572496-3.337621-.236833-6.583121-.114253-9.842307-.233713-2.378531-.087181-3.605985-2.87816-2.073749-4.699495,8.691347-10.331218,14.826104-22.050485,19.219037-35.261451.617201-1.856122,1.103161-3.752053,1.503922-5.666607.521865-2.493106,1.378608-6.140918,1.408273-6.558968.041691-.587543,1.527527-9.044374,2.092291-12.842556,7.262834,5.829869,14.252741,11.345121,22.1865,16.041596h0Z" fill="#c8c1df" stroke="#282566" stroke-miterlimit="10" stroke-width="2.7697"/></svg>