<?xml version="1.0" encoding="UTF-8"?><svg id="Layer_1" xmlns="http://www.w3.org/2000/svg" width="250.851767" height="720.908003" xmlns:xlink="http://www.w3.org/1999/xlink" viewBox="0 0 250.851767 720.908003"><defs><radialGradient id="radial-gradient" cx="90.672222" cy="360.454002" fx="90.672222" fy="360.454002" r="276.267955" gradientUnits="userSpaceOnUse"><stop offset="0" stop-color="#efffe1"/><stop offset=".156142" stop-color="#e7fad5"/><stop offset=".430864" stop-color="#d1edb8"/><stop offset=".789296" stop-color="#afd989"/><stop offset="1" stop-color="#99cc6a"/></radialGradient><radialGradient id="radial-gradient-2" cx="72.168714" cy="170.370292" fx="72.168714" fy="170.370292" r="16.215103" gradientTransform="translate(9.754578 130.314675) scale(1.216598 1.101583)" gradientUnits="userSpaceOnUse"><stop offset="0" stop-color="#ecf6e0"/><stop offset=".110281" stop-color="#e2edd4"/><stop offset=".304404" stop-color="#c8d5b7"/><stop offset=".55956" stop-color="#9eb087"/><stop offset=".862577" stop-color="#657c46"/><stop offset="1" stop-color="#496326"/></radialGradient></defs><path d="M121.715049,82.336104l.0625.144287c1.617676,3.695312,3.423828,6.526611,5.51123,8.607544.817383.814575,1.120117,1.963501.73877,3.026001-4.01123,11.184937-24.669922,72.147949-9.6875,101.490112,1.993164,3.901978,4.350586,7.567505,6.629883,11.112793,3.867188,6.012939,7.519531,11.692627,9.015625,17.833252.824818,3.384631.947412,6.791166.518926,10.147326-1.888805,14.794287-15.769205,23.898864-30.327118,20.657617-2.52749-.562733-3.9487-.572541-5.771154-.940075-16.344238-3.296143-36.676025,5.651489-49.76709,17.661499-4.943604,4.535156-21.498047,19.722656-21.446777,42.893555.045654,20.695312,13.309814,34.932129,15.312012,37.017334,6.992122,7.28283,19.538239,25.489339,53.741482,29.046125,1.514563.157499,2.918269.842964,4.009898,1.904591,10.637735,10.345375,30.733908,34.398361,36.58822,47.20944,5.973633,13.072998,8.87207,28.282715,9.399414,49.315918.206055,8.255127.146484,19.043945-2.161133,29.282959-2.507812,11.125732-7.482422,21.527832-12.75,32.540527-1.681641,3.516846-3.421875,7.153076-5.056641,10.785156-11.470947,25.468262-18.610352,52.199951-21.286865,79.636963-.389404,3.991455-2.611084,7.568115-6.005371,9.977051-4.842529,3.436523-8.140869,8.517578-11.364014,13.500732-.856445,1.324707-1.714844,2.6521-2.583008,3.922119-2.282227,3.161865-4.675781,5.491699-7.323242,7.127441-3.337891,2.087402-7.235352,3.235596-11.361328,4.451172-2.568359.756104-5.222656,1.53833-7.682617,2.550537-14.13208,5.274902-23.190918,16.029053-24.251709,28.783936-.060059.72168.417725,1.445312,1.167236,1.598389.107178.021973.214355.032959.321777.032959.777344,0,1.43457-.566406,1.494141-1.309814.774902-9.744629,6.712891-18.238037,16.265625-23.634521,2.209961-1.248535,4.975586.184326,5.264648,2.600342.07666.640869.346191,1.562744.685547,2.540771,1.047852,3.020996.354004,6.33667-1.797852,8.782227-2.02832,2.305176-4.236328,5.065918-4.798828,6.652588-.996094,2.80835-1.714844,4.837646-5.240234,6.226807-2.760963,1.055038-6.281629,2.620204-9.070947,5.397175-.497359.495157-.612772,1.323081-.174223,1.871005.306589.383054.756955.57264,1.206107.57264.399414,0,.797852-.149902,1.092773-.446533,2.400391-2.410645,5.574219-3.814941,8.086914-4.775146,4.796875-1.890381,5.888672-4.969238,6.944336-7.947266.391113-1.102539,1.327881-2.282227,2.07959-3.422119.909424-1.37915,2.88916-1.889893,4.325684-.995361,2.435059,1.516113.028809,3.828369-.868164,6.299805-.364258.972168-.751953,1.937256-1.138672,2.902344-.803223,2.001221-1.633545,4.069824-2.25,6.200439-.231445.799561.278809,1.704346,1.141357,1.858398.09375.016846.186768.024902.279541.024902.661133,0,1.266602-.415771,1.447266-1.047119.581055-2.029785,1.397461-4.065186,2.1875-6.033691.394531-.984863.790039-1.969727,1.166016-2.974609,3.137695-8.644775.979492-13.459717-.753906-17.328613-.892578-1.992188-1.648682-3.680176-1.646973-5.627441.002686-3.063477,2.26123-5.722168,5.359375-6.634521l.052246-.015381c4.144531-1.220947,8.430664-2.483398,12.117188-4.788818,1.168701-.722168,2.289551-1.559082,3.372803-2.521484,1.470703-1.306641,3.883545-.309814,3.866455,1.596436-.012939,1.458984-.039307,2.878418-.088867,3.827637-.079102,2.319824-1.577148,4.30542-4.625977,6.097412-2.644531,1.68042-4.519531,3.661865-5.581055,5.904053-1.324219,2.887695-1.628906,6.114746-1.923828,9.236084-.208984,2.205322-.424316,4.484375-1.007324,6.53833-.228271.804932.276855,1.701172,1.144043,1.856934.09375.016602.187012.024902.279297.024902.65918,0,1.263672-.413818,1.446289-1.042969.671875-2.321045.902344-4.763428,1.125977-7.125488.286133-3.031006.556641-5.894043,1.682617-8.3479.820312-1.73584,2.337891-3.315186,4.464844-4.666992,3.865234-2.271484,5.881836-5.092041,5.992188-8.359375.142578-2.730957.119141-5.506592.09668-8.190186-.004883-.570312-.017578-1.412842-.038574-2.27002-.056641-2.305908.637451-4.567383,1.992432-6.486572,2.515137-3.562256,6.694092-9.068115,9.849609-11.141113,1.145264-.752686,2.705322.052246,2.639404,1.368164l-.001465.029297c-.01854.412511.006795.817221.072108,1.209991.235822,1.418147.068743,2.879869-.333322,4.260122-1.169247,4.013917-1.458013,8.299576-.802263,12.687603,3.161133,15.698242-4.803711,20.796631-12.505859,25.727539-7.0625,4.520996-14.366211,9.196289-10.836914,21.514893.180664.630859.786133,1.046631,1.447266,1.046631.129883,0,.261719-.016113.392578-.049805.799805-.203613,1.272461-.981201,1.056641-1.736084-2.970703-10.369141,2.586914-13.927246,9.624023-18.432129.773926-.495361,1.557373-.99707,2.339111-1.514404,2.275146-1.506104,5.393311.102295,5.238281,2.721191-.032715.550293-.069336,1.104492-.106689,1.66333l-.094727,1.462402c-.080078,2.435059.521484,4.774902,1.103516,7.037598.430664,1.670898.836914,3.249023.982422,4.86377.408203,3.757812-.100586,7.653809-.592773,11.433105-.101562.775879.483398,1.477295,1.305664,1.572754.061523.007324.123047.010498.183594.010498.74707,0,1.395508-.530518,1.489258-1.248047.511719-3.924072,1.041016-7.981934.600586-12.032715-.163086-1.807617-.615234-3.566895-1.052734-5.267822-.560547-2.175293-1.088867-4.229492-1.023438-6.242676l.092773-1.409912c.172852-2.585693.343262-5.231689.097168-7.893555-.178467-1.927734.147461-3.888672,1.161377-5.570312,2.548096-4.225342,3.716797-9.883545,2.057861-18.118164-.459961-3.082764-.228027-6.09668.149414-9.034424.380859-2.964844,6.455078-3.244385,7.166992.073486,1.837402,8.558594,3.721191,16.062744,15.114258,18.678955l.020996.005859c.955078.259521,1.387207,1.308594.861328,2.104736-2.303711,3.488037-2.241211,7.583252-2.172363,11.574219.057614,3.313552.111323,6.44475-1.162892,9.118977-.000129.00027-.000273.000537-.000429.000792-1.398428,2.28718-3.410041,4.169161-5.538828,6.160993-.938218.877419-1.907454,1.784133-2.815746,2.726333-.480656.4986-.586357,1.304923-.154019,1.845955.309029.386722.760738.57737,1.210975.57737.408203,0,.81543-.156738,1.111328-.465088.870117-.90625,1.830078-1.804443,2.758789-2.67334,1.20752-1.12915,2.94043-3.114502,4.255371-4.672852.852539-1.01001,2.568359-.700439,2.945801.540771.00293.009766.005859.019043.008789.02832.623047,2.12793.813477,4.40625,1.014648,6.818115.387695,4.64624.788086,9.450684,4.447266,13.337646.295898.315186.708008.475586,1.12207.475586.406336,0,.816945-.156245,1.118099-.473458.525179-.553185.413074-1.435063-.101974-1.997692-2.893764-3.161096-3.234405-7.244392-3.595226-11.564251-.203125-2.438721-.414062-4.960693-1.115234-7.359131-.25-.831055-.521484-1.656738-.792969-2.481934-.274662-.835704-.884049-2.608445-1.348395-3.690711-.288534-.672496-.440753-1.39784-.399664-2.128467.078136-1.389371.056164-2.789003.032239-4.170569-.045166-2.590332-.086914-5.100342.540039-7.349365.689453-2.4729,4.270752-2.753418,5.389893-.424805.384766.800537.655762,1.657471.801514,2.560059.387695,1.84082.492188,3.731445.602539,5.733154.079102,1.434326.161133,2.91748.352539,4.33667.961914,9.415283,7.722656,17.049072,14.563477,24.061279.295898.303223.699219.456787,1.103516.456787.359574,0,.720244-.121673,1.00789-.367026.623576-.531891.56809-1.524055-.004052-2.110919-6.727163-6.900273-12.815849-13.806261-13.689385-22.354574l-.003418-.026123c-.193848-1.478027,1.214844-2.691895,2.760254-2.391357,4.024902.783447,5.731689,3.486572,7.892578,6.939453,1.217773,1.946289,2.597656,4.151855,4.616211,6.180664,1.783203,1.631592,3.939453,2.60083,6.024414,3.53833.537109.241943,1.074219.48291,1.62793.748047,3.241211,1.473145,5.744141,4.031494,7.765625,6.340088.296875.338867.725586.513916,1.157227.513916.438316,0,.881399-.181128,1.1931-.554619.437054-.523692.358387-1.311952-.091532-1.824633-2.219456-2.529065-4.989957-5.329515-8.695318-7.013326-.548828-.262695-1.107422-.513916-1.666992-.765625-1.952148-.87793-3.796875-1.70752-5.176758-2.967773-1.741211-1.752441-2.976562-3.726318-4.170898-5.63501-2.182129-3.487305-4.426025-7.057861-9.523438-8.187744-2.378906-.5271-4.172119-2.312012-4.58252-4.585938-.033691-.185303-.070312-.369629-.108887-.553223-.822266-5.098145-4.772461-9.081543-10.625977-10.670898-7.19043-1.651611-10.07373-10.311035-11.260254-16.993896-.794189-4.474365,3.190186-8.453369,7.947021-7.804688,3.186279.43457,6.539795,1.30957,8.752686,2.973145,1.223633.959961,2.357422,1.924805,3.455078,2.857666,2.292969,1.949707,4.521973,3.841797,7.16333,5.299805,2.221436,1.226318,3.993164,3.027588,5.253418,5.145508,3.186279,5.354248,8.455322,7.947266,13.588135,10.461182,5.488281,2.6875,10.671875,5.226074,13.632812,11.005371,1.616211,3.051514,2.379883,6.395752,3.189453,9.937012,1.050781,4.604492,2.138672,9.365479,5.261719,13.44165.293945.382568.751953.585938,1.216797.585938.304688,0,.612305-.087158.87793-.268799.671875-.458008.822266-1.343506.336914-1.977295-2.754883-3.593994-3.729492-7.861084-4.760742-12.378418l-.015137-.06543c-.68457-3.015137,2.788086-5.337402,5.583008-3.740967,3.780518,2.159912,5.473633,4.783447,7.127441,7.352295,2.12793,3.304932,4.327148,6.722168,10.730469,8.037598l.163086.024414c4.313477.425293,7.197266,1.628418,9.350586,3.900635.296875.3125.707031.471436,1.119141.471436.450875,0,.904679-.191135,1.21209-.581934.39387-.500712.3041-1.361193-.13621-1.821599-2.633603-2.753796-6.179162-4.273588-11.148145-4.776399-2.039551-.42749-3.896973-1.736084-5.197998-2.96167-.954834-.89917-.259277-2.441895,1.0896-2.438721,3.051025.006592,6.101318.012939,9.141602-.004639.142578.008301.283203.012451.420898.012451,3.491211-.000488,5.447266-2.61792,6.760742-4.375732.477539-.639404.316406-1.522949-.361328-1.973145-.677734-.451172-1.613281-.298828-2.089844.340576-1.674805,2.241455-2.791992,3.286377-4.579102,3.167236l-.057617-.003906-.057617.000244c-3.195312.018555-6.397461.010254-9.601562.003662h-.052246c-3.008545-.006592-5.860107-1.313477-7.673584-3.57959-2.400879-3.000488-6.016357-6.155762-13.366943-8.430908-1.129883-.349609-11.052734-8.632812-16.734375-11.414795-2.691895-1.318359-5.314941-2.605957-7.592773-4.266602-2.637207-1.922363-.942871-5.927734,2.379395-5.6875.525391.038086.99707.068848,1.381348.089355,1.481445.079346,2.961914.158203,4.451172.275879,13.008789.884766,25.84082,4.350342,38.136719,10.300537.219727.105957.453125.15625.683594.15625.663086,0,1.297119-.41626,1.468994-1.11792.157959-.645752-.25415-1.303223-.87915-1.604736-12.62915-6.096436-25.815674-9.648438-39.177734-10.557373-1.498047-.118408-3.005859-.198975-4.514648-.279785-2.439453-.130371-4.961914-.265381-7.443359-.575684-6.422852-.554199-9.886719-3.5-14.272461-7.229492-1.119141-.951416-2.275391-1.935547-3.569336-2.949951-4.512939-3.393066-9.739258-4.531006-14.40918-4.66748-2.626953-.07666-4.636475-2.234131-4.426025-4.707275l.00293-.034424c.223633-2.630127,2.00293-4.977783,4.644531-5.840088,5.932861-1.937012,13.18042-.809326,17.702393.284668,1.337891.324219,2.686523.675293,4.040039,1.027832,5.212891,1.358887,10.549805,2.749512,15.869141,2.749512,2.310547,0,4.618164-.262695,6.910156-.904297.365653-.102383.726924-.213771,1.084301-.332464,3.06005-1.016313,6.355928-1.143486,9.424765-.154024,5.454478,1.758645,9.633431,3.751332,13.42648,5.56266,4.205566,2.008301,8.139404,3.886475,13.043945,5.124512,6.962891,1.757568,8.36499.34082,21.759766,1.045166,10.667725.560791,16.865723,1.876953,17.042969,1.061035.151855-.698486-4.234375-2.36377-7.301514-3.059082-2.826416-.640625-6.080566-.909912-9.867432-.831787l-.119141.006836c-17.396484,1.679443-24.369141-1.654541-33.204102-5.873291-2.773682-1.324463-5.749512-2.743408-9.269043-4.106201-2.167725-.839111-1.970459-3.812744.294922-4.37793,7.858887-1.960449,16.253662-2.575439,25.355957-3.056396.833496-.044189,1.576904-.668457,1.55542-1.456055-.021729-.801514-.717041-1.426758-1.582764-1.378906-12.65918.666992-24.003906,1.57251-34.660156,5.919678-.78418.330566-1.561523.68042-2.337891,1.030762-1.867188.842041-3.630859,1.637451-5.5,2.160645-6.744141,1.88916-14.056641-.016602-21.12793-1.859863-1.371094-.357422-2.737305-.713379-4.09375-1.041504-4.82666-1.16748-10.665527-1.969971-16.037354-1.08252-3.098877.511963-5.869629-1.895996-5.446533-4.838379,3.214355-22.361084,9.567627-44.168945,18.986816-65.083252,1.580078-3.50708,3.289062-7.080811,4.942383-10.536865,5.318359-11.120117,10.818359-22.618652,13.616211-35.035645,2.588867-11.485352,2.665039-23.201904,2.442383-32.126953-.568359-22.68042-3.792969-39.299561-10.458008-53.88623-6.483643-14.185303-16.408203-26.346436-26.243896-38.036621-.831299-.988037-2.304443-3.940918-1.629395-7.07666.617676-2.869141,2.877441-4.613525,3.529297-5.137451,5.657959-4.549072,25.233398-25.759521,31.259277-40,6.806152-16.084473,2.43457-38.883301-4.44458-51.555664-3.142334-5.788574-9.025635-13.913208-8.415771-25.271729.220947-4.115967-.315674-4.730957,2.416748-12.739136,2.717529-7.964844,3.26123-16.039551,1.402344-23.670044-1.96582-8.067993-6.341797-14.870972-10.572266-21.450317-2.217773-3.447998-4.3125-6.7052-6.032227-10.073486-14.259766-27.927002,7.237793-90.729004,12.422852-94.085205,5.254395-3.400879,15.160645-4.623291,19.821289-3.612549,1.270508.275635,2.551758.574219,3.839844.873779,7.805664,1.819214,15.878906,3.699707,23.549805,1.075806,7.420898-2.538696,12.170898-8.665894,14.848633-13.358765,2.189453-3.834717,3.788086-7.949707,5.333984-11.929077.71582-1.841797,1.456055-3.745728,2.240234-5.582886,1.413086-3.311157,3.251953-7.091919,6.165039-10.026001.950684-.95813,1.981934-1.774902,3.061035-2.438599,2.676025-1.646362,6.217773-.969238,8.246338,1.359863,1.829834,2.101074,4.747559,3.341064,7.904053,3.069702,4.990234-.429077,4.228027-4.088013,3.788574-8.644653-.439941-4.556763-.390625-8.285645-5.380859-7.856689-3.087646.265503-5.673584,1.914795-7.093262,4.212891-1.032715,1.671631-2.651611,2.988525-4.620605,3.527832-2.915527.798584-5.731201,2.452637-8.094727,4.833008-.260986.262695-.513672.530762-.758301.803223-1.476562,1.643799-4.340088.298706-3.699219-1.769775.141602-.457275.324707-.901611.555176-1.331055.759766-1.41687,2.006836-2.602295,3.327148-3.857422,1.481445-1.407959,3.012695-2.864502,3.977539-4.778076,1.25-2.480225,1.286133-5.215576,1.317383-7.629395.065918-5.16626.126953-10.470093-.496826-15.733276-.243896-2.058838.461182-4.095581,1.940674-5.625854,2.013184-2.082031,2.876953-5.119507,2.003906-8.107056-1.33252-4.559692-5.012207-3.202881-9.685059-1.986328-4.672852,1.216553-8.569336,1.832153-7.236816,6.391724.844482,2.890625,3.110107,5.032471,5.846191,5.904297,2.394287.762939,4.075684,2.813965,4.300781,5.189941.438477,4.63501.385498,9.338745.327148,13.932129-.027344,2.122314-.058594,4.527832-1.026367,6.447021-.745117,1.478027-2.033203,2.702637-3.397461,3.999756-1.425781,1.355957-2.900391,2.757568-3.874023,4.572998-1.062988,1.981323-1.035645,5.306641-.725098,8.160889.434082,3.990112-.177734,8.026855-1.651855,11.788818-.026855.068604-.052734.134644-.077148.197754-1.509766,3.88623-3.071289,7.904785-5.158203,11.561279-2.430664,4.259033-6.699219,9.805176-13.229492,12.039551-6.820312,2.330811-14.44043.554077-21.80957-1.162842-1.303711-.303223-2.600586-.605591-3.886719-.884521-6.379883-1.383667-15.373004-2.369891-20.238281-.438354-2.772841,1.10083-8.439507-1.788059-5.335938-5.440796,1.170759-1.377921,2.634766-2.506348,4.163086-3.719482,1.118164-.887695,2.273438-1.80542,3.337891-2.825439,3.701172-3.546875,7.089355-11.091797,8.768555-15.240112.613281-1.514038,1.356934-2.974609,2.286133-4.337769,1.86377-2.734131,2.734375-6.370239,3.799805-10.247925.97168-3.540161,1.419922-7.190552,1.852539-10.720581l.161133-1.30481c.28418-2.27771.579102-4.316772,1.308594-6.201782.838379-2.165039,2.255859-4.125122,3.770996-6.002197.445801-.552368,1.057861-.954834,1.742188-1.210083,2.002197-.746704,2.811523-2.237793,2.964355-4.109253.230225-2.820801-2.106445-2.85437-5.750977-3.119385-3.644531-.265137-6.580566-.709229-6.811035,2.111572-.127441,1.562012.664307,3.026123,2.015137,4.066895,1.352051,1.041382,1.616211,2.884888.745117,4.312012-.578125.947021-1.091309,1.937988-1.494141,2.97876-.840792,2.173022-1.163064,4.384372-1.468719,6.841793-.00002.000163-.000031.00025-.000031.00025-.00149.006538-4.605384,20.214944-4.085937,16.314574,1.107666-8.316772,1.063477-16.814819.688965-25.209839-.0449-1.007792.368334-1.957269,1.039986-2.74286.639028-.747432.996087-1.720625.908353-2.70007-.229908-2.566659-2.427364-2.053296-5.201757-1.660585-2.618408.370605-4.778809.496216-4.528076,2.624756.159668,1.354736,1.09668,2.57959,2.429199,3.104736,1.472412.580078,2.370605,2.007324,2.413574,3.504883.217773,7.608643-.026611,15.268555-.738525,22.828247-.795898,8.453003-2.482422,17.930542-8.952148,24.13147-.96582.925537-2.018555,1.761108-3.132812,2.645508-1.5625,1.241211-5.058105,4.73938-5.34375,5.183105-2.142578,3.329346-7.367188,3.117554-9.081055-.42627-.219205-.452812-.434993-.922708-.64834-1.409933-.000064-.000147-.000099-.000225-.000099-.000225-.002904-.005109-7.099514-12.491137-6.639648-15.71533.410156-2.87793,1.509766-5.599609,2.674805-8.481079.387695-.960571.775391-1.920532,1.136719-2.886108.727539-1.945679,1.346924-3.920654,1.859375-5.916016.650879-2.534912,2.320312-4.74292,4.695312-6.076416,1.831055-1.028198,3.757324-2.409424,4.3125-3.859863.393066-1.025879.612793-2.065674.717285-3.111328.285645-2.864258,1.703125-5.553345,3.959961-7.487061.278809-.239258.54834-.448486.79834-.611694l.421875-.275635c3.782227-2.487427,6.416748-5.082886,8.000732-7.87085.470947-.829102,1.260986-1.430054,2.209229-1.71936,1.564697-.477173,2.871338-1.657227,3.38623-3.283447.825684-2.607544-1.429199-3.012817-4.127441-3.77417-2.69873-.76123-4.819336-1.590576-5.64502,1.01709-.44821,1.415424-.198279,2.859043.553559,4.006953.777535,1.187146.891934,2.72281.039783,3.857585-1.401828,1.866757-3.43295,3.667855-6.131915,5.442835l-.414062.270508c-.463379.302734-.938965.615601-1.40918.947388-.900879.636475-2.19043-.224243-1.80127-1.221069l.010254-.026367c.249023-.623535.681641-1.230225,1.139648-1.872192.192383-.270996.385742-.541992.568359-.817139.830078-1.248413,1.464355-2.624878,1.894287-4.05188.197754-.656006.662842-1.192749,1.227051-1.618774,1.171387-.884644,1.936768-2.246338,1.958252-3.795044.038086-2.721436-2.248047-2.528564-5.064453-2.563354-2.816406-.034912-5.096191-.284424-5.134277,2.43689-.021484,1.550293.701416,2.939209,1.847656,3.854492,1.266357,1.010864,1.711914,2.694336.858154,4.036377-.041992.065918-.084473.131348-.127686.196411-.166016.249878-.341797.495483-.516602.741577-.533203.748047-1.084961,1.521484-1.457031,2.453857-.779297,1.950928-.52832,4.002441-.324219,5.670044.341797,2.809692.695312,5.714722-.258789,8.204468-.019531.050293-.039551.100586-.060547.150879-.928223,2.219971-4.480469,1.485352-4.360352-.898438.29248-5.821411-.29248-11.674072-1.743164-17.362549-.341797-1.341064.025391-2.793457,1.077881-3.75,2.289307-2.080811,3.323242-5.30957,2.395752-8.483398-1.33252-4.559814-5.012207-3.202881-9.685059-1.986328-4.672852,1.216553-8.569336,1.832031-7.236816,6.391846.928955,3.179932,3.578125,5.4552,6.681152,6.128906,1.974121.428467,3.446045,2.003174,3.663086,3.904297,1.187988,10.418701-.62085,24.078857-1.618652,30.148193-.201172,1.222412-2.01709,1.466309-2.505859.318604-.004395-.010254-.008301-.020508-.012695-.030762-.460938-1.101562-.606445-2.371704-.708008-3.476074-.189453-2.070312-.257812-4.202881-.324219-6.265015-.070312-2.196655-.142578-4.467529-.360352-6.713501-.520508-5.377319-1.858398-9.61853-4.089844-12.965576-.303711-.455322-.626953-.89917-.951172-1.342163-.444336-.608887-.865234-1.184082-1.224609-1.783325-.820312-1.365479-1.333252-2.87207-1.693848-4.434082-.191406-.829224-.022949-1.708862.49585-2.401855.815918-1.089844,1.166016-2.494385.830811-3.919189-.625-2.656738-2.803223-1.973633-5.552734-1.397461s-5.029297.827393-4.404297,3.484375c.42041,1.787598,1.797363,3.123047,3.490723,3.631592,1.215332.364868,2.184326,1.234131,2.516846,2.396606.396484,1.386597.934814,2.752075,1.706299,4.036255.424805.707397.90332,1.361816,1.365234,1.994629.299805.410645.600586.820923.881836,1.242676,1.973633,2.960815,3.165039,6.792725,3.640625,11.71521.209961,2.160278.28125,4.387329.350586,6.541626.067383,2.101196.136719,4.273926.333984,6.422607.119141,1.303955.296875,2.817017.907227,4.273438.184814.441895.403076.863281.645508,1.266602,1.595215,2.653809,1.876465,5.803467,1.146729,8.775879-.176758.720215-.32251,1.449707-.427979,2.189941-.237793,1.663574-.231445,3.273804.000977,4.780273.41748,2.70752,6.180664,10.888916,6.775391,12.25Z" fill="url(#radial-gradient)" stroke="#345417" stroke-miterlimit="10"/><path d="M117.547855,317.991881c.378706,23.487831-40.367941,23.488027-39.985895-.001617-.378815-23.486214,40.367832-23.48641,39.985895.001617Z" fill="url(#radial-gradient-2)"/></svg>