<?xml version="1.0" encoding="UTF-8"?><svg id="Layer_1" xmlns="http://www.w3.org/2000/svg" width="453.443118" height="489.96582" xmlns:xlink="http://www.w3.org/1999/xlink" viewBox="0 0 453.443118 489.96582"><defs><radialGradient id="radial-gradient" cx="209.178111" cy="342.785543" fx="209.178111" fy="342.785543" r="68.242381" gradientTransform="translate(579.660317 -21.315653) rotate(90) scale(1.251614 1.226427)" gradientUnits="userSpaceOnUse"><stop offset="0" stop-color="#dff1f9"/><stop offset=".311706" stop-color="#dceff8"/><stop offset=".497191" stop-color="#d4ecf6"/><stop offset=".649649" stop-color="#c5e6f4"/><stop offset=".784133" stop-color="#b1ddf0"/><stop offset=".905636" stop-color="#97d2eb"/><stop offset="1" stop-color="#7ec7e6"/></radialGradient><radialGradient id="radial-gradient-2" cx="226.721559" cy="244.98291" fx="226.721559" fy="244.98291" r="233.5308" gradientTransform="translate(471.704469 18.261351) rotate(90)" gradientUnits="userSpaceOnUse"><stop offset=".005587" stop-color="#fee5c4" stop-opacity=".8"/><stop offset=".346692" stop-color="#fee2bd" stop-opacity=".8"/><stop offset=".750194" stop-color="#fedaab" stop-opacity=".8"/><stop offset="1" stop-color="#ffd39c" stop-opacity=".8"/></radialGradient><radialGradient id="radial-gradient-3" cx="114.294148" cy="-101.778866" fx="114.294148" fy="-101.778866" r="93.825296" gradientTransform="translate(233.42456 345.595447) rotate(-.248991)" gradientUnits="userSpaceOnUse"><stop offset="0" stop-color="#eef8e0"/><stop offset="1" stop-color="#cdeba2"/></radialGradient><radialGradient id="radial-gradient-4" cx="113.758178" cy="-103.404966" fx="113.758178" fy="-103.404966" r="95.238675" gradientTransform="translate(233.42456 345.595447) rotate(-.248991)" gradientUnits="userSpaceOnUse"><stop offset="0" stop-color="#eef8e0"/><stop offset="1" stop-color="#acde64"/></radialGradient></defs><path d="M159.246083,326.144078c-47.047438.04711-83.731894-40.962069-83.447436-86.659179.295466-47.465574,37.130322-83.652118,82.911231-84.613919,46.271081-.972099,82.123271,25.162515,83.967633,85.636549,1.42453,46.708358-32.465437,85.585515-83.431428,85.636549Z" fill="url(#radial-gradient)" stroke="#306194" stroke-miterlimit="10" stroke-width="2"/><path d="M223.387454,487.46582c125.675293,0,227.555664-108.563232,227.555664-242.48291S349.062747,2.5,223.387454,2.5C124.877225,2.5,40.998917,69.206788,9.338403,162.540592c-7.919433,23.346142,9.285834,47.591976,33.938618,47.591976h3.263271c12.882945,0,24.630985-6.989581,31.167104-18.091356,16.219534-27.549314,46.088565-46.098473,80.312469-46.34464,51.37949-.369564,93.903769,41.220629,94.61996,92.596457.731794,52.495094-41.602719,95.27948-93.930106,95.27948-36.371663,0-67.913072-20.67176-83.521197-50.906881-6.144603-11.902955-18.611344-19.199809-32.006734-19.199809h-4.745081c-23.329652,0-40.537924,21.928007-34.838417,44.550745,26.039679,103.357871,114.574534,179.449255,219.789164,179.449255Z" fill="url(#radial-gradient-2)" stroke="#8a5d3b" stroke-miterlimit="10" stroke-width="5"/><path d="M406.681262,240.275669c.226004,52.005823-54.450659,119.598395-88.367461,121.669695-67.351914,4.113184-.300843-69.227017-.526847-121.23284-.226004-52.005823-63.234585-122.305374,1.498497-115.405263,33.788577,3.601635,87.169807,62.962585,87.395811,114.968408Z" fill="url(#radial-gradient-3)" opacity=".76"/><path d="M312.92896,361.969036c-1.565171.006802-3.077092-.036433-4.494738-.127685-.826412-.053538-1.45354-.766396-1.400005-1.59354.053541-.82568.766396-1.45354,1.59354-1.400005,2.616972.169537,5.564952.158923,8.691648-.019461.818706-.03432,1.535513.584397,1.583055,1.411835s-.58513,1.535516-1.411835,1.583055c-1.567008.089574-3.101965.138726-4.561665.145802ZM299.806431,360.375168c-.147948.000643-.298188-.020677-.447072-.066905-3.414004-1.046453-6.195302-2.624469-8.265341-4.691909-.586291-.585592-.587486-1.534815-.001893-2.121106.584857-.58702,1.535551-.586757,2.121106-.001893,1.720614,1.717392,4.084073,3.045269,7.025765,3.947289.792078.242654,1.237378,1.081547.993991,1.873628-.197158.643197-.787157,1.058118-1.426555,1.060897ZM326.094521,360.15033c-.635736.002763-1.227836-.402627-1.43349-1.040411-.253917-.788455.178939-1.633361.96739-1.888011,2.535046-.817421,5.204949-1.951104,7.934408-3.369229.734444-.378928,1.640228-.095019,2.02282.640141.381861.735164.095023,1.64096-.640141,2.02282-2.877079,1.494206-5.701974,2.693017-8.396467,3.561669-.150671.048263-.303643.072365-.454521.073021ZM341.880824,352.121691c-.484126.002104-.959747-.229474-1.250928-.660342-.463681-.686468-.283161-1.618902.403307-2.082583,2.312081-1.562064,4.676785-3.318451,7.028399-5.221999.643737-.521357,1.587536-.422186,2.109632.223012.520625.64374.421457,1.588271-.223012,2.109632-2.418034,1.956571-4.852824,3.765265-7.235742,5.375245-.2556.172499-.54528.25579-.831655.257035ZM288.17636,348.278378c-.704583.003062-1.335163-.492982-1.476708-1.210147-.290587-1.473849-.441901-3.090394-.449346-4.803513-.006089-1.40111.084014-2.914699.267564-4.498276.095302-.822932.839064-1.417234,1.662015-1.317538.822932.095302,1.412839.839083,1.317538,1.662015-.169414,1.465594-.252715,2.859035-.247145,4.140762.00662,1.523423.138793,2.948888.392683,4.236859.16027.812299-.368777,1.601227-1.181809,1.7615-.095134.018724-.191043.02793-.284792.028337ZM355.714163,340.987984c-.403561.001754-.807092-.158359-1.103646-.477142-.56514-.606192-.531912-1.555564.074284-2.119972,2.091402-1.949293,4.194673-4.032671,6.251467-6.192753.571619-.599414,1.521482-.621852,2.120889-.051698.600146.571616.622581,1.520746.051698,2.120889-2.097625,2.20274-4.243927,4.328054-6.378367,6.317817-.287413.267853-.651583.401273-1.016325.402858ZM289.737086,330.732123c-.128173.000557-.259348-.015719-.389871-.050308-.80073-.211122-1.278909-1.031561-1.06779-1.833023.690284-2.619235,1.552581-5.431847,2.635269-8.597715.268323-.784132,1.121986-1.201665,1.90465-.934067.784132.268323,1.202394,1.12125.934067,1.90465-1.059547,3.097651-1.900896,5.842789-2.573173,8.392365-.176533.670207-.78105,1.115221-1.443153,1.118098ZM367.980675,328.131822c-.347165.001509-.696316-.117092-.980824-.360487-.629296-.537798-.702994-1.48524-.164464-2.11454,1.886674-2.205485,3.756817-4.506847,5.559439-6.840142.507654-.655533,1.449769-.775351,2.103827-.269887.655526.506189.776809,1.448298.269887,2.103827-1.832482,2.372244-3.734683,4.712563-5.653417,6.956274-.295868.344795-.71331.523124-1.134448.524954ZM378.849603,314.070296c-.298825.001299-.600233-.086015-.863975-.270174-.679559-.47459-.845491-1.409913-.370897-2.08874,1.682181-2.407479,3.322334-4.87923,4.876077-7.346943.441533-.702121,1.367147-.911223,2.068535-.469687.700653.440807.911223,1.367147.469687,2.068535-1.578474,2.507372-3.245551,5.019523-4.954663,7.465938-.290432.415817-.753822.639024-1.224765.641071ZM295.387088,313.888808c-.180906.000786-.364886-.031374-.543898-.100176-.77327-.296935-1.160098-1.163915-.863166-1.937918.903834-2.355757,1.91153-4.91265,3.269425-8.289921.309406-.76893,1.180843-1.141129,1.951235-.832462.768927.308673,1.141135,1.182308.832462,1.951235-1.351367,3.362594-2.35473,5.905552-3.252038,8.2459-.228133.594259-.79344.960733-1.39402.963342ZM388.317524,299.027544c-.251218.001092-.506372-.060788-.741325-.193069-.721746-.407024-.976943-1.321451-.570652-2.043194,1.450744-2.573467,2.839042-5.190609,4.126391-7.778748.369581-.742092,1.26843-1.042631,2.011245-.675251.742092.369581,1.044103,1.269889.675251,2.011245-1.311318,2.634386-2.723588,5.297042-4.199041,7.915295-.274743.486794-.78039.761455-1.301869.763721ZM301.976058,297.381258c-.188963.000821-.381012-.034233-.566644-.109599-.768201-.310141-1.140409-1.183776-.830268-1.951977,1.097074-2.720614,2.19768-5.471272,3.279892-8.240894.300604-.771821,1.1698-1.154264,1.942363-.851467.771825.301336,1.152806,1.171271.851467,1.942363-1.085098,2.779888-2.190053,5.54082-3.291477,8.271706-.234775.582569-.793542.937295-1.385333.939867ZM396.223078,283.119992c-.199949.000869-.403003-.038532-.598927-.122643-.760953-.327751-1.111959-1.210267-.784941-1.971217,1.177579-2.73488,2.265728-5.486949,3.235486-8.178444.281529-.779063,1.141853-1.18051,1.920168-.90264.77906.280797,1.183434,1.140376.90264,1.920168-.990021,2.747981-2.101361,5.556548-3.302136,8.347193-.243641.565029-.793682.905069-1.37229.907583ZM308.405072,280.807753c-.172118.000748-.347295-.02852-.518954-.090763-.778337-.282997-1.18052-1.144051-.897523-1.922387,1.082047-2.976166,2.022334-5.707817,2.875119-8.349731.254385-.789199,1.102125-1.221354,1.887661-.966953.788466.254388,1.221341,1.099195.966953,1.887661-.863615,2.677851-1.815474,5.443244-2.909823,8.453887-.220751.60741-.793332.985635-1.403433.988286ZM402.222999,266.40333c-.138426.000602-.278404-.018566-.417738-.058244-.797134-.226518-1.259242-1.056549-1.031988-1.852955.815916-2.867342,1.513191-5.731972,2.073121-8.515437.162728-.812971.949254-1.342273,1.766638-1.175169.811509.163467,1.3379.9544,1.174436,1.766641-.574977,2.860436-1.29169,5.802787-2.129254,8.744931-.18684.657801-.7841,1.087402-1.435217,1.090232ZM313.815221,263.88418c-.129637.000563-.260816-.016445-.392071-.051031-.800736-.212587-1.277454-1.033765-1.064867-1.834501.788365-2.971227,1.445303-5.848133,1.952853-8.550071.152468-.814391.938981-1.346623,1.750426-1.197804.814391.152468,1.351007.936765,1.197804,1.750426-.520418,2.774505-1.193883,5.724725-2.001715,8.767082-.177268.669478-.781059,1.113024-1.44243,1.115898ZM405.681327,248.997512c-.054931.000239-.110607-.002449-.166296-.008066-.823632-.087974-1.420842-.826597-1.3336-1.650226.315241-2.965509.468787-5.891497.45659-8.698111-.0036-.828361.665106-1.502905,1.493467-1.506504s1.502905.665106,1.506504,1.493467c.012674,2.916476-.146247,5.953817-.472735,9.027774-.081624.76794-.72881,1.338385-1.48393,1.341666ZM317.010398,246.430433c-.043945.000191-.088632-.001812-.133325-.00528-.825014-.068925-1.43828-.794294-1.369358-1.620041.164317-1.964356.243832-3.891721.235856-5.727153-.004195-.965323-.030477-1.956917-.078722-2.946219-.040217-.82747.598335-1.530447,1.425805-1.570664.789349-.048108,1.53044.59687,1.570664,1.425805.049901,1.03324.077839,2.068773.082225,3.078041.008358,1.923322-.074437,3.938593-.246429,5.990874-.065457.780321-.71768,1.371296-1.486716,1.374638ZM405.626174,231.418728c-.755852.003285-1.408716-.56444-1.494821-1.333116-.315468-2.817015-.785108-5.717589-1.396118-8.620479-.170517-.81079.348248-1.606265,1.159038-1.776782.809306-.174905,1.606265.348248,1.776782,1.159038.63046,2.996556,1.115163,5.992281,1.441298,8.904465.092203.823582-.500039,1.565176-1.323621,1.657379-.054173.006095-.108359.00926-.162558.009496ZM316.238406,228.730984c-.72802.003164-1.36973-.525791-1.486478-1.267234-.427874-2.727903-1.00368-5.619959-1.712416-8.594934-.192471-.8063.305729-1.614869,1.1113-1.806604.809956-.193951,1.615602.305726,1.806604,1.1113.726645,3.05107,1.318898,6.01996,1.758825,8.824715.128072.819031-.4311,1.586117-1.249395,1.714918-.076853.012053-.153002.017511-.22844.017839ZM402.010883,214.053904c-.648187.002817-1.247678-.417922-1.442409-1.070402-.818277-2.732066-1.772315-5.524333-2.834677-8.299283-.296333-.773622.091014-1.641036.864636-1.937369.771428-.295592,1.6403.090285,1.937369.864636,1.089035,2.845148,2.066819,5.708357,2.905912,8.511378.237826.793652-.212646,1.629846-1.006301,1.86694-.141175.042362-.283906.06349-.42453.064101ZM312.189127,211.444951c-.648187.002817-1.247681-.418654-1.443145-1.071131-.798983-2.674287-1.684709-5.421441-2.707663-8.397981-.269276-.783261.148161-1.63689.931422-1.906165.786191-.269288,1.637619.147426,1.906165.931422,1.035574,3.015304,1.933917,5.800488,2.744787,8.513543.237094.793655-.214111,1.629852-1.007765,1.866946-.141178.04163-.28391.062758-.423801.063366ZM395.686043,197.464046c-.569086.002473-1.114687-.321087-1.369038-.872233-1.210374-2.620497-2.534396-5.269065-3.935122-7.871157-.392092-.729992-.119186-1.63939.610071-2.032211.730731-.39063,1.639393-.118454,2.032211.610071,1.429525,2.656166,2.780886,5.359548,4.016404,8.0356.34751.752159.018861,1.643488-.733298,1.990998-.201013.09316-.41249.138024-.621228.138931ZM306.45434,194.621081c-.610102.002651-1.185215-.370585-1.41197-.976051-.903336-2.417484-1.910144-5.04912-3.169314-8.280251-.301451-.771402.08076-1.640991.852898-1.941713.767021-.298502,1.640988.080028,1.941713.852898,1.265087,3.244289,2.277072,5.887621,3.185599,8.319731.289751.775848-.104204,1.639628-.880781,1.930115-.170379.063729-.345296.094519-.518146.09527ZM387.276376,181.808305c-.506831.002203-1.001593-.251997-1.286323-.71512-1.518081-2.471942-3.136541-4.952237-4.811129-7.370763-.471712-.680574-.301455-1.61516.379851-2.086876.682774-.470989,1.615896-.300726,2.086876.379851,1.705544,2.46307,3.354234,4.989377,4.901082,7.508069.433735.705641.212161,1.629464-.49348,2.063199-.242519.149005-.511742.220488-.776876.22164ZM300.032891,178.047756c-.601313.002613-1.170519-.359663-1.403085-.954117-.976167-2.491143-2.119798-5.427607-3.202413-8.312334-.291216-.775841.101271-1.640348.87638-1.931561.77438-.290477,1.639609.099809,1.931561.87638,1.076682,2.867907,2.215865,5.791939,3.187599,8.274312.302183.771399-.078563,1.640982-.849962,1.943165-.176945.069617-.359906.103372-.54008.104155ZM377.167625,167.198533c-.450435.001957-.896622-.198254-1.193456-.581489-1.797956-2.323507-3.673421-4.617381-5.574116-6.818126-.541062-.627537-.471933-1.574136.154869-2.115927.626805-.541059,1.574871-.471204,2.115927.154869,1.935297,2.241611,3.844634,4.577086,5.67573,6.942197.50676.655519.387072,1.59721-.267712,2.104699-.271551.209922-.592642.312393-.911243.313777ZM293.842513,161.387732c-.629877.002737-1.217547-.394615-1.42829-1.023588-1.075214-3.204098-1.919501-6.022477-2.581904-8.616791-.204906-.802584.280072-1.619885,1.082656-1.82479.801874-.199776,1.619152.280076,1.82479,1.082656.643046,2.521888,1.467258,5.271506,2.517993,8.404664.264158.785481-.159154,1.635473-.944638,1.898898-.155778.052679-.314604.078272-.470609.07895ZM365.551472,153.754013c-.394772.001716-.789486-.151844-1.085986-.458176-2.058607-2.133408-4.17626-4.202106-6.292651-6.149226-.60962-.560588-.649633-1.509642-.088312-2.119265.560585-.610352,1.511114-.648175,2.119265-.088312,2.160512,1.987212,4.320093,4.097476,6.420633,6.273182.575349.595894.558237,1.545929-.037657,2.121277-.289562.278849-.662492.418899-1.035292.420519ZM289.685037,144.148312c-.768303.003339-1.424899-.580483-1.498598-1.359467-.100603-1.071106-.154201-2.112387-.159211-3.096749-.010058-2.314431.254711-4.422047.786496-6.266417.228719-.796412,1.062412-1.258535,1.856645-1.025412.795682.229455,1.254863,1.060231,1.025412,1.856645-.45241,1.570096-.677399,3.393357-.668588,5.420681.004622.895008.05344,1.847686.146334,2.830201.077561.82511-.528641,1.556511-1.353019,1.634069-.045394.003859-.090794.006254-.135471.006448ZM352.462764,141.740467c-.331784.001442-.666975-.106966-.945537-.330611-2.346109-1.886063-4.713646-3.646787-7.036481-5.233387-.683922-.467247-.859365-1.400331-.392121-2.084986.46725-.683189,1.401067-.858636,2.084986-.392121,2.386746,1.630268,4.816742,3.437596,7.223119,5.371737.64533.519417.748308,1.46307.229627,2.109129-.29504.366764-.727073.558341-1.163592.560238ZM337.773069,131.77296c-.246091.001069-.495374-.057906-.726641-.185076-2.679021-1.470061-5.321177-2.715427-7.85234-3.701263-.772554-.300601-1.154264-1.1698-.853664-1.942353.30061-.770357,1.169083-1.150599,1.942357-.852931,2.652219,1.032918,5.414003,2.33416,8.206822,3.866716.726103.398216.992276,1.310398.593328,2.036503-.271775.49557-.782523.776113-1.309862.778405ZM295.287169,128.255897c-.478999.002082-.950935-.224385-1.242821-.648658-.470254-.682045-.298529-1.615905.383516-2.086159,2.303181-1.587661,5.285956-2.692674,8.866428-3.283923.812411-.134635,1.588989.417903,1.724379,1.235438s-.4179,1.589722-1.235438,1.724379c-3.141329.519027-5.716126,1.458936-7.652726,2.793781-.257772.178368-.551837.263875-.843338.265142ZM321.231841,125.523983c-.090087.000391-.181674-.007267-.274031-.023712-.801905-.144466-1.600753-.259648-2.375291-.342708-2.201238-.235065-4.299552-.381954-6.235602-.437262-.828479-.0235-1.480413-.714276-1.45691-1.542023.0235-.828479.72019-1.467987,1.542023-1.45691,2.013695.057168,4.190403.209575,6.470051.453821.844882.090079,1.715551.215203,2.587825.372547.815098.146606,1.356822.926485,1.21022,1.742316-.130161.72274-.758574,1.230847-1.468284,1.233931Z" fill="url(#radial-gradient-4)" stroke="#09780d" stroke-miterlimit="10"/></svg>