<?xml version="1.0" encoding="UTF-8"?><svg id="Layer_1" xmlns="http://www.w3.org/2000/svg" width="460.428503" height="215.488643" viewBox="0 0 460.428503 215.488643"><path d="M5.923732,215.4625C13.903047,98.444625,111.353253,5.996455,230.395886,5.996455c117.584041,0,214.101543,90.196571,224.138679,205.175884" fill="#dbf0de" opacity=".36"/><path d="M5.743055,218.390728c.053996-.977753.114235-1.953842.180677-2.928228" fill="#dbf0de" opacity=".36"/><path d="M6.506925,214.488643c-.182617,0-.365234-.008789-.550781-.027344-3.022461-.299805-5.229492-2.993164-4.928711-6.016602.680664-6.862305,1.682617-13.770508,2.976562-20.533203.570312-2.983398,3.456055-4.9375,6.435547-4.369141,2.983398.571289,4.939453,3.452148,4.369141,6.435547-1.232422,6.44043-2.186523,13.019531-2.835938,19.554688-.28125,2.837891-2.672852,4.956055-5.46582,4.956055ZM453.920987,211.225947c-2.758789,0-5.137695-2.071289-5.458008-4.87793-.743164-6.524414-1.792969-13.087891-3.120117-19.508789-.615234-2.974609,1.297852-5.884766,4.272461-6.499023,2.969727-.617188,5.883789,1.296875,6.499023,4.272461,1.394531,6.744141,2.49707,13.637695,3.27832,20.489258.34375,3.018555-1.824219,5.744141-4.841797,6.087891-.211914.023438-.421875.036133-.629883.036133ZM15.568448,169.89001c-.542969,0-1.094727-.080078-1.640625-.250977-2.899414-.904297-4.516602-3.989258-3.611328-6.888672,2.054688-6.583008,4.435547-13.150391,7.078125-19.518555,1.164062-2.806641,4.385742-4.137695,7.1875-2.972656,2.805664,1.164062,4.136719,4.381836,2.972656,7.1875-2.515625,6.0625-4.782227,12.314453-6.738281,18.581055-.734375,2.354492-2.905273,3.862305-5.248047,3.862305ZM444.208097,166.766963c-2.3125,0-4.463867-1.469727-5.224609-3.786133-2.045898-6.232422-4.40332-12.445312-7.004883-18.467773-1.205078-2.789062.079102-6.025391,2.867188-7.230469,2.789062-1.208008,6.025391.079102,7.230469,2.867188,2.733398,6.326172,5.208984,12.853516,7.358398,19.399414.947266,2.885742-.624023,5.994141-3.509766,6.941406-.569336.1875-1.148438.276367-1.716797.276367ZM33.482511,128.034541c-.902344,0-1.817383-.222656-2.662109-.691406-2.657227-1.472656-3.616211-4.820312-2.142578-7.477539,3.34375-6.029297,7.00293-11.978516,10.875-17.679688,1.706055-2.511719,5.126953-3.166016,7.639648-1.459961s3.166992,5.126953,1.459961,7.639648c-3.686523,5.428711-7.170898,11.09375-10.355469,16.834961-1.003906,1.811523-2.880859,2.833984-4.814453,2.833984ZM425.698331,125.206416c-1.90625,0-3.758789-.992188-4.775391-2.764648-3.262695-5.686523-6.827148-11.299805-10.59375-16.680664-1.742188-2.489258-1.136719-5.917969,1.351562-7.660156,2.489258-1.741211,5.917969-1.135742,7.660156,1.351562,3.955078,5.651367,7.697266,11.543945,11.123047,17.516602,1.511719,2.634766.600586,5.996094-2.03418,7.506836-.862305.495117-1.803711.730469-2.731445.730469ZM59.473722,90.656611c-1.266602,0-2.539062-.43457-3.576172-1.323242-2.306641-1.976562-2.574219-5.449219-.597656-7.755859,4.482422-5.230469,9.258789-10.323242,14.197266-15.136719,2.173828-2.118164,5.65625-2.077148,7.777344.099609,2.120117,2.174805,2.076172,5.657227-.099609,7.777344-4.703125,4.584961-9.25293,9.435547-13.521484,14.417969-1.087891,1.269531-2.628906,1.920898-4.179688,1.920898ZM399.1788,88.215205c-1.523438,0-3.039062-.628906-4.125977-1.861328-4.344727-4.924805-8.963867-9.709961-13.726562-14.223633-2.205078-2.088867-2.299805-5.569336-.209961-7.774414,2.088867-2.206055,5.569336-2.298828,7.775391-.209961,5,4.737305,9.848633,9.760742,14.40918,14.930664,2.009766,2.277344,1.792969,5.75293-.485352,7.762695-1.045898.922852-2.34375,1.375977-3.636719,1.375977ZM92.42587,59.249385c-1.639648,0-3.262695-.729492-4.34668-2.125-1.864258-2.398438-1.430664-5.853516.967773-7.717773,5.443359-4.230469,11.142578-8.263672,16.9375-11.986328,2.556641-1.640625,5.959961-.900391,7.600586,1.655273,1.641602,2.555664.900391,5.958984-1.655273,7.600586-5.520508,3.544922-10.948242,7.385742-16.132812,11.416016-1.00293.779297-2.191406,1.157227-3.371094,1.157227ZM365.779386,57.281611c-1.154297,0-2.316406-.361328-3.308594-1.109375-5.246094-3.958008-10.729492-7.72168-16.297852-11.186523-2.579102-1.604492-3.369141-4.996094-1.764648-7.575195,1.605469-2.579102,4.99707-3.368164,7.575195-1.764648,5.847656,3.637695,11.604492,7.589844,17.112305,11.745117,2.424805,1.829102,2.907227,5.27832,1.078125,7.703125-1.081055,1.432617-2.728516,2.1875-4.394531,2.1875ZM130.990323,35.091182c-2.02832,0-3.978516-1.125977-4.936523-3.068359-1.34375-2.723633-.224609-6.021484,2.5-7.365234,6.180664-3.048828,12.574219-5.850586,19.003906-8.327148,2.833984-1.094727,6.018555.319336,7.109375,3.154297,1.092773,2.834961-.320312,6.017578-3.154297,7.109375-6.121094,2.359375-12.208984,5.026367-18.09375,7.928711-.782227.385742-1.611328.568359-2.428711.568359ZM326.853605,33.672236c-.791016,0-1.594727-.170898-2.357422-.53418-5.927734-2.817383-12.056641-5.397461-18.216797-7.666992-2.850586-1.050781-4.30957-4.212891-3.259766-7.0625,1.049805-2.848633,4.210938-4.307617,7.0625-3.259766,6.47168,2.384766,12.910156,5.094727,19.136719,8.055664,2.743164,1.303711,3.910156,4.584961,2.605469,7.328125-.941406,1.981445-2.914062,3.139648-4.970703,3.139648ZM173.633878,19.218135c-2.444336,0-4.675781-1.641602-5.319336-4.118164-.763672-2.939453,1-5.942383,3.94043-6.706055,6.667969-1.732422,13.498047-3.180664,20.300781-4.304688,2.998047-.495117,5.827148,1.533203,6.323242,4.530273.495117,2.99707-1.533203,5.828125-4.530273,6.323242-6.476562,1.069336-12.979492,2.448242-19.328125,4.097656-.463867.120117-.928711.177734-1.386719.177734ZM283.96005,18.416377c-.431641,0-.871094-.050781-1.30957-.158203-6.365234-1.555664-12.886719-2.838867-19.384766-3.813477-3.003906-.451172-5.073242-3.251953-4.623047-6.255859.452148-3.003906,3.255859-5.067383,6.255859-4.623047,6.825195,1.025391,13.675781,2.373047,20.363281,4.006836,2.950195.720703,4.757812,3.697266,4.037109,6.648438-.614258,2.511719-2.862305,4.195312-5.338867,4.195312ZM218.614347,12.302119c-2.907227,0-5.335938-2.279297-5.487305-5.216797-.157227-3.033203,2.174805-5.619141,5.208984-5.776367,6.854492-.352539,13.866211-.405273,20.745117-.148438,3.035156.112305,5.404297,2.665039,5.291992,5.700195-.113281,3.036133-2.672852,5.415039-5.700195,5.291992-6.553711-.243164-13.237305-.194336-19.770508.141602-.095703.005859-.192383.007812-.288086.007812Z" fill="#bfe7c5" stroke="#426f49" stroke-miterlimit="10" stroke-width="2"/></svg>