<?xml version="1.0" encoding="UTF-8"?><svg id="Layer_1" xmlns="http://www.w3.org/2000/svg" width="264.91812" height="306.11948" xmlns:xlink="http://www.w3.org/1999/xlink" viewBox="0 0 264.91812 306.11948"><defs><linearGradient id="linear-gradient" x1="125.26477" y1="304.88292" x2="125.26477" y2="58.19918" gradientUnits="userSpaceOnUse"><stop offset="0" stop-color="#1d3b47"/><stop offset=".10969" stop-color="#1f3f4c"/><stop offset=".25148" stop-color="#264d5c"/><stop offset=".35984" stop-color="#2e5c6e"/><stop offset=".59928" stop-color="#448ea8"/><stop offset=".64954" stop-color="#4897b3"/><stop offset=".74461" stop-color="#4ea4c3"/><stop offset=".85256" stop-color="#51accd"/><stop offset="1" stop-color="#53afd0"/></linearGradient><radialGradient id="radial-gradient" cx="133.91137" cy="210.41078" fx="133.91137" fy="210.41078" r="37.54967" gradientUnits="userSpaceOnUse"><stop offset="0" stop-color="#f1f7eb"/><stop offset=".19763" stop-color="#edf5e7"/><stop offset=".36977" stop-color="#e2f1dc"/><stop offset=".53249" stop-color="#d0e9ca"/><stop offset=".68935" stop-color="#b7deb1"/><stop offset=".84204" stop-color="#97d091"/><stop offset=".98967" stop-color="#70c06a"/><stop offset="1" stop-color="#6dbf67"/></radialGradient></defs><path d="M223.3027,168.56961c-3.90281,57.82872-24.39527,118.34879-56.32919,135.29331-7.25926,3.85185-9.47334-8.45246-37.63372-8.48471-27.22804-.03118-25.99923,13.10963-36.75896,8.53913-33.17942-14.09389-61.51263-58.71758-65.72024-136.40435-4.98462-92.03299,71.79404-109.3758,105.57179-109.31365,60.74064.11177,96.60122,25.45431,90.87032,110.37026Z" fill="url(#linear-gradient)"/><path d="M107.98004,292.72678c-1.23799,8.49802-10.22855,13.55106-18.08645,10.08662-31.13727-13.72797-82.95756-54.27951-87.56761-113.54243-2.93174-37.68797,14.95797-40.18923,11.91541-87.19204C11.03776,52.58805-.78678,39.99494,9.02506,24.05446,16.20047,12.39718,30.9757,6.76333,42.06535,6.75313c12.6478-.01165,13.88315,7.29772,32.2898,13.48218,25.11833,8.43952,36.18733-.68014,48.61775,10.51006.71164.64063,9.80239,9.1475,10.84231,21.9619.74603,9.19302-3.03857,16.91299-4.82335,20.55362-3.80854,7.76877-7.33807,9.49495-10.51341,18.5179-1.02998,2.92673-2.23448,6.34937-2.51959,11.00964-.7319,11.96363,5.647,14.89055,3.58226,24.48675-1.20638,5.60706-3.7304,11.10021-3.73045,11.10029-.9737,2.11919-2.08052,4.15376-2.71415,7.33168-.60732,3.04592-.43519,5.37249-.39497,6.16369.51379,10.1026-4.84674,19.46154-13.37953,24.89651-9.18084,5.85505-15.8593,15.51526-17.56952,27.13003-.58705,3.98698-.54874,7.91446.04735,11.69161,1.72328,11.01858,9.11288,19.18214,11.51889,22.06337.82251.97441,1.66932,1.87458,2.53649,2.70494,10.93554,10.47133,16.01692,25.65244,13.8343,40.63479l-1.70951,11.73471Z" fill="#cfecf8" stroke="#05415a" stroke-miterlimit="10" stroke-width="4"/><path d="M154.47593,292.57804c1.00893,8.5148,9.84681,13.82349,17.78297,10.57744,27.30515-11.16832,57.68582-35.99969,65.77367-47.77488,9.4407-13.74481,23.74334-34.56816,24.82346-63.39897,1.23698-33.01757-16.39101-35.87662-18.93236-70.00859-3.36606-45.20819,25.99116-61.94723,12.56641-92.49315-5.45174-12.4046-18.03031-27.29352-31.59394-27.47817-9.817-.13364-12.65831,7.53749-29.21154,10.15528-13.01365,2.05803-14.9-2.10718-25.29865.93927-12.32507,3.61082-19.8011,12.48703-23.89888,17.19333-4.658,5.34974-10.37064,11.91069-11.42512,21.6644-.99137,9.16983,2.58567,16.98815,4.27253,20.67514,3.59963,7.86774,7.08181,9.6876,10.01497,18.79214.95143,2.95322,2.06405,6.40679,2.22455,11.07304.41205,11.97892-6.04276,14.73437-4.23515,24.3823,1.0562,5.6373,3.43256,11.19591,3.43261,11.19599.91675,2.14444,1.9688,4.20785,2.51734,7.40157.52572,3.06107.2915,5.3822.23015,6.17207-.78349,10.08525,4.32512,19.58403,12.70966,25.24503,9.02114,6.09824,15.43919,15.9334,16.8385,27.58969.48032,4.00125.3371,7.92629-.35966,11.68616-2.01701,10.96866-9.62206,18.93187-12.10417,21.74781-2.15122,2.44057-3.5742,3.3073-5.14616,4.71816-1.74263,1.56406-3.61143,3.53636-5.47362,6.06583-7.4838,10.16548-10.00883,23.15854-7.32912,35.49399l1.82155,8.38513Z" fill="#cfecf8" stroke="#05415a" stroke-miterlimit="10" stroke-width="4"/><circle cx="133.91137" cy="210.41078" r="37.54967" fill="url(#radial-gradient)" stroke="#134d26" stroke-miterlimit="10" stroke-width="2"/><circle cx="133.91137" cy="210.41078" r="37.54967" fill="url(#radial-gradient)" stroke="#134d26" stroke-miterlimit="10" stroke-width="2"/></svg>