<?xml version="1.0" encoding="UTF-8"?><svg id="Layer_1" xmlns="http://www.w3.org/2000/svg" width="463.194405" height="452.404561" xmlns:xlink="http://www.w3.org/1999/xlink" viewBox="0 0 463.194405 452.404561"><defs><radialGradient id="radial-gradient" cx="278.036157" cy="268.919538" fx="278.036157" fy="268.919538" r="109.257445" gradientUnits="userSpaceOnUse"><stop offset="0" stop-color="#c3d0db"/><stop offset=".21071" stop-color="#bfcdd9" stop-opacity=".996365"/><stop offset=".406489" stop-color="#b5c5d2" stop-opacity=".985282"/><stop offset=".596396" stop-color="#a4b8c8" stop-opacity=".966717"/><stop offset=".78263" stop-color="#8ca6ba" stop-opacity=".940648"/><stop offset=".964665" stop-color="#6e8fa8" stop-opacity=".907371"/><stop offset="1" stop-color="#688aa4" stop-opacity=".9"/></radialGradient></defs><g opacity=".58"><path d="M459.440264,225.724002c.1198,8.206981,2.492339,16.217139,1.913515,23.970945-.61028,8.175177-1.307732,16.188983-2.649329,23.86039-1.40907,8.057229-2.960024,15.986266-5.123237,23.487776-2.259007,7.833699-5.49976,15.241054-8.521127,22.468726-3.131931,7.492162-8.102992,13.890206-11.986969,20.731172-3.991407,7.030188-8.346265,13.536115-13.058726,19.878583-4.800339,6.460742-7.870702,14.323648-13.341561,20.07078-5.528472,5.807654-11.162316,11.769724-17.295028,16.848657-6.157348,5.099336-13.228041,9.263692-19.912781,13.628438-6.680959,4.362277-14.995031,5.883779-22.121026,9.512295-7.102759,3.616684-13.477613,8.774092-20.941437,11.66179-7.431281,2.875108-15.600257,3.446643-23.3094,5.599105-7.676253,2.143279-15.333035,3.819772-23.205748,5.246556-7.846881,1.422103-15.299868,6.012566-23.263698,6.722867-7.949747.709044-16.100026,1.492725-24.088558,1.492479-7.988577-.000246-15.838593-4.148169-23.788274-4.857715-7.963874-.710812-15.88483-1.011488-23.73164-2.434138-7.872733-1.427349-16.423602-.228082-24.099749-2.371982-7.709024-2.153082-14.034584-8.546991-21.465612-11.422776-7.463713-2.888435-15.299001-4.693521-22.401492-8.311033-7.125678-3.629322-14.179242-7.375373-20.85972-11.738543-6.684131-4.365555-13.180385-9.035384-19.336971-14.135592-6.131853-5.079719-12.63441-9.919926-18.161884-15.728409-5.469866-5.747946-8.299656-13.729478-13.098868-20.191079-4.711131-6.34301-11.277269-11.501922-15.267285-18.532634-3.882521-6.841297-8.431471-13.668469-11.561939-21.160914-3.019814-7.227608-3.151294-15.694886-5.408825-23.528425-2.161795-7.501337-4.660829-15.055414-6.068575-23.112381-1.340259-7.67072-1.468273-15.636805-2.077402-23.81116-.57784-7.754465-3.824411-15.656526-3.703553-23.864216-.119839-8.206715,2.998025-16.117121,3.576862-23.870658.610294-8.174902.401047-16.213791,1.742713-23.88492,1.409141-8.056932,4.507411-15.49153,6.670749-22.992741,2.259129-7.833362,3.62101-15.770528,6.642546-22.997864,3.132089-7.491772,8.27711-13.777109,12.16128-20.617694,3.991575-7.029742,6.31034-15.00199,11.022989-21.344031,4.800486-6.460248,10.089655-12.580878,15.560665-18.327549,5.528573-5.807134,12.134556-10.480733,18.26736-15.559193,6.157385-5.098816,11.342283-11.691318,18.027042-16.055604,6.680926-4.361785,13.887777-8.259108,21.013714-11.887204,7.102658-3.616243,15.406037-4.765351,22.869735-7.652689,7.43112-2.874735,14.63568-6.546218,22.344641-8.698395,7.676044-2.142987,15.323703-5.049221,23.19619-6.475805,7.846638-1.4219,15.885688-2.961567,23.849264-3.671758,7.949484-.708935,16.131821,1.062438,24.120088,1.062697,7.988309.000259,15.784329,2.559503,23.733747,3.268965,7.963616.71073,15.784202,1.257448,23.630766,2.679919,7.8725,1.427173,15.783003,2.221749,23.458938,4.365378,7.708833,2.152816,15.900743,2.931882,23.331606,5.807311,7.463579,2.888089,13.756548,8.386532,20.858935,12.003613,7.125614,3.62891,14.788182,6.2388,21.468628,10.60148,6.684147,4.365097,12.537657,9.855566,18.694286,14.955249,6.131949,5.07924,13.902185,8.583842,19.429776,14.391792,5.470032,5.747473,9.610472,12.914921,14.409856,19.37601,4.711344,6.342566,10.224637,12.46208,14.214857,19.492323,3.882752,6.840898,5.386295,15.093227,8.516968,22.585259,3.020032,7.227256,5.970142,14.619548,8.227854,22.45273,2.161975,7.501024,5.506667,14.997154,6.914548,23.053809,1.34039,7.670436,1.542313,15.795087,2.151525,23.96916.577918,7.754194-2.050401,15.783431-2.171228,23.990851Z" fill="#b1d5f1"/><path d="M459.440264,225.724002c.1198,8.206981,2.492339,16.217139,1.913515,23.970945-.61028,8.175177-1.307732,16.188983-2.649329,23.86039-1.40907,8.057229-2.960024,15.986266-5.123237,23.487776-2.259007,7.833699-5.49976,15.241054-8.521127,22.468726-3.131931,7.492162-8.102992,13.890206-11.986969,20.731172-3.991407,7.030188-8.346265,13.536115-13.058726,19.878583-4.800339,6.460742-7.870702,14.323648-13.341561,20.07078-5.528472,5.807654-11.162316,11.769724-17.295028,16.848657-6.157348,5.099336-13.228041,9.263692-19.912781,13.628438-6.680959,4.362277-14.995031,5.883779-22.121026,9.512295-7.102759,3.616684-13.477613,8.774092-20.941437,11.66179-7.431281,2.875108-15.600257,3.446643-23.3094,5.599105-7.676253,2.143279-15.333035,3.819772-23.205748,5.246556-7.846881,1.422103-15.299868,6.012566-23.263698,6.722867-7.949747.709044-16.100026,1.492725-24.088558,1.492479-7.988577-.000246-15.838593-4.148169-23.788274-4.857715-7.963874-.710812-15.88483-1.011488-23.73164-2.434138-7.872733-1.427349-16.423602-.228082-24.099749-2.371982-7.709024-2.153082-14.034584-8.546991-21.465612-11.422776-7.463713-2.888435-15.299001-4.693521-22.401492-8.311033-7.125678-3.629322-14.179242-7.375373-20.85972-11.738543-6.684131-4.365555-13.180385-9.035384-19.336971-14.135592-6.131853-5.079719-12.63441-9.919926-18.161884-15.728409-5.469866-5.747946-8.299656-13.729478-13.098868-20.191079-4.711131-6.34301-11.277269-11.501922-15.267285-18.532634-3.882521-6.841297-8.431471-13.668469-11.561939-21.160914-3.019814-7.227608-3.151294-15.694886-5.408825-23.528425-2.161795-7.501337-4.660829-15.055414-6.068575-23.112381-1.340259-7.67072-1.468273-15.636805-2.077402-23.81116-.57784-7.754465-3.824411-15.656526-3.703553-23.864216-.119839-8.206715,2.998025-16.117121,3.576862-23.870658.610294-8.174902.401047-16.213791,1.742713-23.88492,1.409141-8.056932,4.507411-15.49153,6.670749-22.992741,2.259129-7.833362,3.62101-15.770528,6.642546-22.997864,3.132089-7.491772,8.27711-13.777109,12.16128-20.617694,3.991575-7.029742,6.31034-15.00199,11.022989-21.344031,4.800486-6.460248,10.089655-12.580878,15.560665-18.327549,5.528573-5.807134,12.134556-10.480733,18.26736-15.559193,6.157385-5.098816,11.342283-11.691318,18.027042-16.055604,6.680926-4.361785,13.887777-8.259108,21.013714-11.887204,7.102658-3.616243,15.406037-4.765351,22.869735-7.652689,7.43112-2.874735,14.63568-6.546218,22.344641-8.698395,7.676044-2.142987,15.323703-5.049221,23.19619-6.475805,7.846638-1.4219,15.885688-2.961567,23.849264-3.671758,7.949484-.708935,16.131821,1.062438,24.120088,1.062697,7.988309.000259,15.784329,2.559503,23.733747,3.268965,7.963616.71073,15.784202,1.257448,23.630766,2.679919,7.8725,1.427173,15.783003,2.221749,23.458938,4.365378,7.708833,2.152816,15.900743,2.931882,23.331606,5.807311,7.463579,2.888089,13.756548,8.386532,20.858935,12.003613,7.125614,3.62891,14.788182,6.2388,21.468628,10.60148,6.684147,4.365097,12.537657,9.855566,18.694286,14.955249,6.131949,5.07924,13.902185,8.583842,19.429776,14.391792,5.470032,5.747473,9.610472,12.914921,14.409856,19.37601,4.711344,6.342566,10.224637,12.46208,14.214857,19.492323,3.882752,6.840898,5.386295,15.093227,8.516968,22.585259,3.020032,7.227256,5.970142,14.619548,8.227854,22.45273,2.161975,7.501024,5.506667,14.997154,6.914548,23.053809,1.34039,7.670436,1.542313,15.795087,2.151525,23.96916.577918,7.754194-2.050401,15.783431-2.171228,23.990851Z" fill="none" stroke="#004a79" stroke-linecap="round" stroke-miterlimit="10" stroke-width="3"/></g><path d="M126.22951,75.215271c.16169,11.071613-17.229735,11.071745-17.06662-.000763-.161737-11.07085,17.229689-11.070982,17.06662.000763Z" fill="#5959a2"/><path d="M283.148028,412.979311c.16169,11.071613-17.229735,11.071745-17.06662-.000763-.161737-11.07085,17.229689-11.070982,17.06662.000763Z" fill="#5959a2"/><path d="M235.552736,99.198372c.242484,16.607486-25.844552,16.607647-25.59993-.001144-.242554-16.606342,25.844482-16.606504,25.59993.001144Z" fill="#5959a2"/><path d="M151.592473,181.331705c.242484,16.607486-25.844552,16.607647-25.59993-.001144-.242554-16.606342,25.844482-16.606504,25.59993.001144Z" fill="#5959a2"/><path d="M423.059139,295.084163c.242484,16.607486-25.844552,16.607647-25.59993-.001144-.242554-16.606342,25.844482-16.606504,25.59993.001144Z" fill="#5959a2"/><path d="M110.48146,359.560229c.242484,16.607486-25.844552,16.607647-25.59993-.001144-.242554-16.606342,25.844482-16.606504,25.59993.001144Z" fill="#5959a2"/><path d="M222.751062,34.976427c.242484,16.607486-25.844552,16.607647-25.59993-.001144-.242554-16.606342,25.844482-16.606504,25.59993.001144Z" fill="#5959a2"/><path d="M390.64087,124.109721c.242484,16.607486-25.844552,16.607647-25.59993-.001144-.242554-16.606342,25.844482-16.606504,25.59993.001144Z" fill="#5959a2"/><path d="M85.938834,133.422667c.242484,16.607486-25.844552,16.607647-25.59993-.001144-.242554-16.606342,25.844482-16.606504,25.59993.001144Z" fill="#5959a2"/><path d="M404.378828,177.065038c.16169,11.071613-17.229735,11.071745-17.06662-.000763-.161737-11.07085,17.229689-11.070982,17.06662.000763Z" fill="#5959a2"/><path d="M68.870505,194.131705c.16169,11.071613-17.229735,11.071745-17.06662-.000763-.161737-11.07085,17.229689-11.070982,17.06662.000763Z" fill="#5959a2"/><path d="M155.859139,271.874079c.16169,11.071613-17.229735,11.071745-17.06662-.000763-.161737-11.07085,17.229689-11.070982,17.06662.000763Z" fill="#5959a2"/><path d="M317.281362,90.665038c.16169,11.071613-17.229735,11.071745-17.06662-.000763-.161737-11.07085,17.229689-11.070982,17.06662.000763Z" fill="#5959a2"/><path d="M178.230271,338.456772c.16169,11.071613-17.229735,11.071745-17.06662-.000763-.161737-11.07085,17.229689-11.070982,17.06662.000763Z" fill="#5959a2"/><path d="M376.967611,271.874079c7.938857,91.626418-39.143558,120.789985-104.833588,114.079849-55.285536-5.647333-62.181288-39.193699-86.157553-114.079849-21.042204-65.722065-.508924-86.275707,77.62422-113.009432,95.168706-32.562545,107.172543,41.516936,113.366921,113.009432Z" fill="url(#radial-gradient)" stroke="#4e687b" stroke-miterlimit="10" stroke-width="2"/></svg>