<?xml version="1.0" encoding="UTF-8"?><svg id="a" xmlns="http://www.w3.org/2000/svg" width="330.9355" height="330.316" xmlns:xlink="http://www.w3.org/1999/xlink" viewBox="0 0 330.9355 330.316"><defs><radialGradient id="b" cx="223.5814" cy="52.4101" fx="223.5814" fy="52.4101" r="39.5483" gradientTransform="translate(-38.5112) scale(.9235 1)" gradientUnits="userSpaceOnUse"><stop offset="0" stop-color="#1e3c48"/><stop offset=".4881" stop-color="#2e5f71"/><stop offset="1" stop-color="#4289a2"/></radialGradient><linearGradient id="c" x1="167.9589" y1="303.2089" x2="167.9589" y2="38.0896" gradientUnits="userSpaceOnUse"><stop offset="0" stop-color="#1d3b47"/><stop offset=".1097" stop-color="#1f3f4c"/><stop offset=".2515" stop-color="#264d5c"/><stop offset=".3598" stop-color="#2e5c6e"/><stop offset=".5993" stop-color="#448ea8"/><stop offset=".6495" stop-color="#4897b3"/><stop offset=".7446" stop-color="#4ea4c3"/><stop offset=".8526" stop-color="#51accd"/><stop offset="1" stop-color="#53afd0"/></linearGradient><radialGradient id="d" cx="1104.1525" cy="296.9242" fx="1104.1525" fy="296.9242" r="31.5955" gradientTransform="translate(-797.1739 -147.8742) scale(.8948 .9609)" gradientUnits="userSpaceOnUse"><stop offset="0" stop-color="#ffecd2"/><stop offset=".2098" stop-color="#fee8c9"/><stop offset=".543" stop-color="#fedeb2"/><stop offset=".9558" stop-color="#fdce8d"/><stop offset="1" stop-color="#fdcd89"/></radialGradient></defs><path d="M144.9575,4.3639h0c5.6468-1.2503,11.3988-1.9965,17.1855-2.2296l16.7858-.6761c14.3678-.5787,27.6371,7.5735,33.3809,20.508l3.896,8.7734-25.5577,96.4908-45.2382-18.7051-16.6813-79.4776c-2.3508-11.2002,4.8593-22.1665,16.229-24.6838Z" fill="#cfecf8" stroke="#05415a" stroke-miterlimit="10" stroke-width="2.8586"/><path d="M310.1032,31.1935l-49.2056,97.6126-82.9359,164.5413-9.3444-153.8169-3.231-53.268c-1.1989-19.7658,3.2403-39.4656,12.801-56.8068l7.3202-13.2774c4.8071-8.7191,14.0063-14.1004,23.9626-14.0436.0414.0002.0822.0005.1223.0007,42.3748.1576,78.2835,12.2715,100.5009,29.0581h.0099Z" fill="#cfecf8" stroke="#05415a" stroke-miterlimit="10" stroke-width="4"/><path d="M23.2552,40.1988l49.2056,97.6126,74.5797,147.9629c2.3042,4.5714,9.1716,3.1571,9.482-1.9527l8.2186-135.2857,3.3711-55.578c1.1074-18.2569-2.9929-36.4528-11.8238-52.4702l-10.7089-19.4237c-3.4016-6.1698-9.9038-9.9866-16.9491-9.9491l-4.8645.0259c-42.3748.1576-78.2835,12.2715-100.5009,29.0581h-.0099Z" fill="#cfecf8" stroke="#05415a" stroke-miterlimit="10" stroke-width="4"/><path d="M216.9368,50.0163c0,11.1275-21.9282,20.1481-48.9779,20.1481s-48.9779-9.0206-48.9779-20.1481,21.9282-15.3604,48.9779-15.3604,48.9779,4.2329,48.9779,15.3604Z" fill="url(#b)"/><path d="M274.6723,132.7644c-10.04,100.04-76.82,170.9399-112.34,170.4399-.03.0103-.07,0-.1,0h-.03c-35.49-1.8799-97.67-77.0798-101.4-177.5698-1.83-49.1602,32.46-90.1899,53.77-87.4102,1.32-.7197,5.01,1.52,10.2,4.8901,6.58-1.95,19.91,7.03,38.33,7.03,21.89,0,45.5-10.4099,54.95-3.1001,3.55-2.22,5.78-4.01,6.22-4.77,21.44-4.5999,55.5,39.8101,50.4,90.49Z" fill="url(#c)"/><path d="M170.9383,288.76c1.1814,8.3819-5.9249,15.6511-14.3177,14.549-33.2568-4.3669-93.5057-28.3834-114.273-83.1708-13.2069-34.8417,3.0246-42.1606-12.8659-85.7838C12.7502,88.4221-1.9223,79.7824,2.947,61.9862c3.5609-13.0144,15.9788-22.4345,26.467-25.5141,11.9618-3.5124,15.154,3.0604,34.279,3.8154,26.0987,1.0302,34.0455-10.6615,48.9027-3.5166.8506.409,11.8056,5.94,16.3369,17.7747,3.2507,8.4902,1.8076,16.8412,1.1271,20.7793-1.4523,8.4038-4.3134,11.0138-4.8194,20.4288-.1642,3.0538-.3561,6.6252.6643,11.1127,2.6196,11.5205,9.4644,12.5235,10.1677,22.1732.411,5.6384-.456,11.5337-.456,11.5337-.3345,2.2745-.8183,4.5055-.5379,7.6874.2687,3.0495,1.0756,5.2028,1.3326,5.9401,1.2539,3.5963-4.7311,17.4696-5.765,27.2565-1.0381,9.8273,3.3889,11.5198.4992,18.7894-1.9088,4.802-4.8198,6.5275-5.0027,11.3389-.0206.5418.0188.9372.0287,1.0518.5331,6.1938,7.2845,6.6346,10.6406,12.7282,2.7983,5.0806,3.2441,14.1049,5.0103,15.3518.6051.4271,1.2732.8333,1.2733.8333.8673.5254,1.5338.8461,1.875,1.0233,13.2441,6.8787,22.2539,19.8337,24.3367,34.6114l1.6314,11.5745Z" fill="#cfecf8" stroke="#05415a" stroke-miterlimit="10" stroke-width="4"/><path d="M294.9351,146.5551c7.1568-44.1077,39.1419-53.4104,33.2892-85.7737-2.3767-13.1428-11.0143-30.3036-23.9735-33.5958-9.3794-2.383-13.8649,4.3176-30.3333,3.0252-12.947-1.0162-13.7986-5.4421-24.466-4.9103-12.6436.6304-21.8485,7.4217-26.8574,10.9917-5.6937,4.0583-12.6765,9.0352-15.9275,18.1425-3.0564,8.5621-1.4233,16.878-.6531,20.7997,1.6434,8.3685,4.5633,10.9127,5.2838,20.3135.0979,1.2773.2028,2.6453.2241,4.1353l.002.1934c.0432,4.1633,3.3638,7.5507,7.5254,7.6769,5.5955.1696,9.994,4.8431,9.8244,10.4385l-1.3683,45.1424c-.1696,5.5956-4.8431,9.9941-10.4386,9.8245l-5.398-.1636c-4.4738-.1356-6.912,5.1729-3.894,8.4782l.0721.079c5.758,7.9447,5.9231,13.302,5.1337,16.6391-1.6062,6.7895-7.7823,7.8307-8.6294,14.6565-.842,6.7853,4.956,8.2173,3.665,14.9603-1.3406,7.0025-8.9416,12.5009-9.9918,13.2436-.8035.5682-1.5006.9939-1.9825,1.2742-1.5362.8914-2.7157,1.3526-4.034,2.0665-2.0298,1.0992-4.2744,2.5607-6.6406,4.5578-9.5081,8.0252-14.9124,19.8995-15.1769,32.3388l-.1798,8.4564c-.9885,8.3937,6.2638,15.5121,14.6166,14.2233,28.7387-4.434,63.5635-21.2583,74.0207-30.6882,12.2063-11.0068,30.6988-27.6821,38.356-55.0699,8.7691-31.3651-7.4716-38.1546-2.0683-71.4557Z" fill="#cfecf8" stroke="#05415a" stroke-miterlimit="10" stroke-width="4"/><rect x="159.9005" y="110.2395" width="61.8897" height="54.3753" rx="13.0395" ry="13.0395" fill="url(#d)" stroke="#93703e" stroke-miterlimit="10" stroke-width="1.7728"/></svg>