<?xml version="1.0" encoding="UTF-8"?><svg id="Layer_1" xmlns="http://www.w3.org/2000/svg" width="521.3291" height="345.69824" viewBox="0 0 521.3291 345.69824"><line x1="44.12185" y1="130.97957" x2="117.64454" y2="174.84799" fill="none" stroke="#231f20" stroke-linecap="round" stroke-miterlimit="10" stroke-width="4"/><line x1="197.57108" y1="136.1659" x2="277.57108" y2="183.8991" fill="none" stroke="#231f20" stroke-linecap="round" stroke-miterlimit="10" stroke-width="4"/><line x1="36.63571" y1="136.1659" x2="116.63571" y2="183.8991" fill="none" stroke="#231f20" stroke-linecap="round" stroke-miterlimit="10" stroke-width="4"/><line x1="358.94907" y1="136.1659" x2="438.94907" y2="183.8991" fill="none" stroke="#231f20" stroke-linecap="round" stroke-miterlimit="10" stroke-width="4"/><line x1="353.97016" y1="136.73381" x2="353.97013" y2="43.57557" fill="none" stroke="#231f20" stroke-linecap="round" stroke-miterlimit="10" stroke-width="4"/><line x1="117.22961" y1="277.25238" x2="117.22958" y2="184.09413" fill="none" stroke="#231f20" stroke-linecap="round" stroke-miterlimit="10" stroke-width="4"/><polygon points="270.24243 276.58566 275.57104 183.42743 279.57104 183.42743 284.89966 276.58566 270.24243 276.58566 270.24243 276.58566" fill="#231f20"/><line x1="363.67406" y1="136.73381" x2="363.67403" y2="43.57557" fill="none" stroke="#231f20" stroke-linecap="round" stroke-miterlimit="10" stroke-width="4"/><line x1="358.26007" y1="136.1659" x2="278.26007" y2="183.8991" fill="none" stroke="#231f20" stroke-linecap="round" stroke-miterlimit="10" stroke-width="4"/><line x1="197.10339" y1="136.1659" x2="117.10339" y2="183.8991" fill="none" stroke="#231f20" stroke-linecap="round" stroke-miterlimit="10" stroke-width="4"/><text transform="translate(446.65723 202.26118)" fill="#231f20" font-family="TimesNewRomanPS-BoldMT, &apos;Times New Roman&apos;" font-size="48" font-weight="700"><tspan x="0" y="0">OH</tspan></text><text transform="translate(.00049 138.22173)" fill="#231f20" font-family="TimesNewRomanPS-BoldMT, &apos;Times New Roman&apos;" font-size="48" font-weight="700"><tspan x="0" y="0">O</tspan></text><text transform="translate(259.59106 313.98775)" fill="#231f20" font-family="TimesNewRomanPS-BoldMT, &apos;Times New Roman&apos;" font-size="48" font-weight="700"><tspan x="0" y="0">NH</tspan></text><text transform="translate(331.59106 329.97163) scale(.583)" fill="#231f20" font-family="TimesNewRomanPS-BoldMT, &apos;Times New Roman&apos;" font-size="48" font-weight="700"><tspan x="0" y="0">2</tspan></text><text transform="translate(97.07251 311.02479)" fill="#231f20" font-family="TimesNewRomanPS-BoldMT, &apos;Times New Roman&apos;" font-size="48" font-weight="700"><tspan x="0" y="0">NH</tspan></text><text transform="translate(169.07251 327.00867) scale(.583)" fill="#231f20" font-family="TimesNewRomanPS-BoldMT, &apos;Times New Roman&apos;" font-size="48" font-weight="700"><tspan x="0" y="0">2</tspan></text><text transform="translate(341.66705 35.90132)" fill="#231f20" font-family="TimesNewRomanPS-BoldMT, &apos;Times New Roman&apos;" font-size="43.2" font-weight="700"><tspan x="0" y="0">O</tspan></text></svg>