<?xml version="1.0" encoding="UTF-8"?><svg id="a" xmlns="http://www.w3.org/2000/svg" width="438.008419" height="335.032006" viewBox="0 0 438.008419 335.032006"><path d="M214.452221,5.502371c-7.986987,4.061275-9.486987,13.061275-10.986987,20.561275-3,36,4.5,72,15,108,13.5,52.5,25.5,102,57,150,7.5,9,31.5,21,33,21,22.5,6,43.5,12,66,13.5,21,1.5,40.5-1.5,59.793186-5.914822" fill="none" stroke="#785b3a" stroke-linecap="round" stroke-miterlimit="10" stroke-width="7.5"/><path d="M207.884166,311.289741c-18.66778-.179018-37.46928-70.384795-61.010129-151.497835C123.333188,78.678866,118.093557,8.905912,135.170995,3.949651" fill="none" stroke="#785b3a" stroke-linecap="round" stroke-miterlimit="10" stroke-width="7.5"/><circle cx="210.300881" cy="88.743637" r="68.317964" fill="#f2737d" stroke="#631c25" stroke-miterlimit="10" stroke-width="5"/><circle cx="138.362359" cy="119.111455" r="68.317964" fill="#a8ddf3" stroke="#34444a" stroke-miterlimit="10" stroke-width="5"/><circle cx="284.113306" cy="165.253733" r="68.317964" fill="#fabe78" stroke="#785b3a" stroke-miterlimit="10" stroke-width="5"/><circle cx="280.783197" cy="116.13577" r="68.317964" fill="#5cbd84" stroke="#145d3b" stroke-miterlimit="10" stroke-width="5"/><circle cx="147.477378" cy="229.648446" r="68.317964" fill="#5cbd84" stroke="#145d3b" stroke-miterlimit="10" stroke-width="5"/><circle cx="278.618844" cy="218.448446" r="68.317964" fill="#a8ddf3" stroke="#34444a" stroke-miterlimit="10" stroke-width="5"/><circle cx="212.465233" cy="225.379565" r="68.317964" fill="#f2737d" stroke="#631c25" stroke-miterlimit="10" stroke-width="5"/><circle cx="212.465233" cy="132.476971" r="68.317964" fill="#fabe78" stroke="#785b3a" stroke-miterlimit="10" stroke-width="5"/><path d="M215.261452,5.521895c17.776936.428906,30.536528,69.225066,28.499346,153.660525-2.037181,84.435459-18.099697,152.536226-35.876632,152.107321" fill="none" stroke="#785b3a" stroke-linecap="round" stroke-miterlimit="10" stroke-width="7.5"/><path d="M3.75,311.091538c5.692919.70065,11.266781,2.278806,16.454959,4.781869,10.209438,4.925593,19.148564,13.071396,30.322844,14.976537,13.641142,2.325726,26.79427-5.176944,38.833969-11.998631,8.650764-4.901518,18.299892-9.691525,27.943972-10.461834.917855-.073313,2.944732.098342,5.030366.328361,5.647945.622897,11.330868-1.256168,15.35583-5.267024.484203-.482506.865013-.913706,1.095196-1.253451,13.350613-19.705226,24.032029-76.978641,25.668043-144.786839,2.037181-84.435459-10.722411-153.23162-28.499346-153.660525" fill="none" stroke="#785b3a" stroke-linecap="round" stroke-miterlimit="10" stroke-width="7.5"/></svg>