<?xml version="1.0" encoding="UTF-8"?><svg id="Layer_1" xmlns="http://www.w3.org/2000/svg" width="487.35637" height="349.82422" viewBox="0 0 487.35637 349.82422"><line x1="2" y1="138.95822" x2="82" y2="186.69142" fill="none" stroke="#231f20" stroke-linecap="round" stroke-miterlimit="10" stroke-width="4"/><line x1="320.64034" y1="139.52613" x2="320.64031" y2="46.36789" fill="none" stroke="#231f20" stroke-linecap="round" stroke-miterlimit="10" stroke-width="4"/><line x1="83.03816" y1="280.46434" x2="83.03814" y2="187.3061" fill="none" stroke="#231f20" stroke-linecap="round" stroke-miterlimit="10" stroke-width="4"/><polygon points="236.85344 279.37793 241.59855 186.21973 245.59855 186.21973 250.34392 279.37793 236.85344 279.37793 236.85344 279.37793" fill="#231f20"/><path d="M176.08902,48.02305l-.20208,1.8418c-.08785.80066-.76422,1.40688-1.56968,1.40688h-20.9611c-.80546,0-1.48184-.60622-1.56968-1.40688l-.20208-1.8418c-.10255-.93468.62939-1.75132,1.56968-1.75132h21.36526c.94029,0,1.67223.81664,1.56968,1.75132Z" fill="#231f20"/><path d="M174.44351,63.02305l-.20208,1.8418c-.08785.80066-.76422,1.40688-1.56968,1.40688h-17.66984c-.80546,0-1.48184-.60622-1.56968-1.40688l-.20208-1.8418c-.10255-.93468.62939-1.75132,1.56968-1.75132h18.074c.94029,0,1.67223.81664,1.56968,1.75132Z" fill="#231f20"/><path d="M172.79776,78.02305l-.20208,1.8418c-.08785.80066-.76422,1.40688-1.56968,1.40688h-14.37834c-.80546,0-1.48184-.60622-1.56968-1.40688l-.20208-1.8418c-.10255-.93468.62939-1.75132,1.56968-1.75132h14.78249c.94029,0,1.67223.81664,1.56968,1.75132Z" fill="#231f20"/><path d="M171.15201,93.02305l-.20208,1.8418c-.08785.80066-.76422,1.40688-1.56968,1.40688h-11.08684c-.80546,0-1.48184-.60622-1.56968-1.40688l-.20208-1.8418c-.10255-.93468.62939-1.75132,1.56968-1.75132h11.49099c.94029,0,1.67223.81664,1.56968,1.75132Z" fill="#231f20"/><path d="M169.50626,108.02305l-.20208,1.8418c-.08785.80066-.76422,1.40688-1.56968,1.40688h-7.79533c-.80546,0-1.48184-.60622-1.56968-1.40688l-.20208-1.8418c-.10255-.93468.62939-1.75132,1.56968-1.75132h8.19948c.94029,0,1.67223.81664,1.56968,1.75132Z" fill="#231f20"/><path d="M167.86075,123.02305l-.20208,1.8418c-.08785.80066-.76422,1.40688-1.56968,1.40688h-4.50432c-.80546,0-1.48184-.60622-1.56968-1.40688l-.20208-1.8418c-.10255-.93468.62939-1.75132,1.56968-1.75132h4.90847c.94029,0,1.67223.81664,1.56968,1.75132Z" fill="#231f20"/><path d="M166.21504,138.02301h0c-.08783.80067-.76421,1.40692-1.56968,1.40692h-1.61691c-.80543,0-1.48179-.60618-1.56967-1.4068h0c-.1026-.93471.62935-1.75141,1.56967-1.75141h1.61691c.94028,0,1.67221.81661,1.56968,1.75128Z" fill="#231f20"/><line x1="328.34405" y1="139.52613" x2="328.34402" y2="46.36789" fill="none" stroke="#231f20" stroke-linecap="round" stroke-miterlimit="10" stroke-width="4"/><polyline points="83.55344 186.69142 163.55344 138.95822 163.59868 138.95822 243.59868 186.69142 244.28767 186.69142 324.28767 138.95822 324.97667 138.95822 404.97667 186.69142" fill="none" stroke="#231f20" stroke-linecap="round" stroke-miterlimit="10" stroke-width="4"/><text transform="translate(412.68454 205.05322)" fill="#231f20" font-family="TimesNewRomanPS-BoldMT, &apos;Times New Roman&apos;" font-size="48" font-weight="700"><tspan x="0" y="0">OH</tspan></text><text transform="translate(309.8843 39.89087)" fill="#231f20" font-family="TimesNewRomanPS-BoldMT, &apos;Times New Roman&apos;" font-size="48" font-weight="700"><tspan x="0" y="0">O</tspan></text><text transform="translate(225.8843 318.11328)" fill="#231f20" font-family="TimesNewRomanPS-BoldMT, &apos;Times New Roman&apos;" font-size="48" font-weight="700"><tspan x="0" y="0">NH</tspan></text><text transform="translate(297.8843 334.09717) scale(.583)" fill="#231f20" font-family="TimesNewRomanPS-BoldMT, &apos;Times New Roman&apos;" font-size="48" font-weight="700"><tspan x="0" y="0">2</tspan></text></svg>