<?xml version="1.0" encoding="UTF-8"?><svg id="Layer_1" xmlns="http://www.w3.org/2000/svg" width="261.73958" height="315.14874" xmlns:xlink="http://www.w3.org/1999/xlink" viewBox="0 0 261.73958 315.14874"><defs><linearGradient id="linear-gradient" x1="110.8787" y1="22.73948" x2="110.77873" y2="22.73948" gradientUnits="userSpaceOnUse"><stop offset="0" stop-color="#13272e"/><stop offset=".0162" stop-color="#162c34"/><stop offset=".15255" stop-color="#2e5767"/><stop offset=".29164" stop-color="#437c92"/><stop offset=".43112" stop-color="#549ab6"/><stop offset=".5712" stop-color="#61b2d1"/><stop offset=".71207" stop-color="#6bc2e5"/><stop offset=".85428" stop-color="#71ccf1"/><stop offset="1" stop-color="#73d0f5"/></linearGradient><radialGradient id="radial-gradient" cx="132.63156" cy="219.63049" fx="132.63156" fy="219.63049" r="27.12963" gradientUnits="userSpaceOnUse"><stop offset="0" stop-color="#f1f7eb"/><stop offset=".19763" stop-color="#edf5e7"/><stop offset=".36977" stop-color="#e2f1dc"/><stop offset=".53249" stop-color="#d0e9ca"/><stop offset=".68935" stop-color="#b7deb1"/><stop offset=".84204" stop-color="#97d091"/><stop offset=".98967" stop-color="#70c06a"/><stop offset="1" stop-color="#6dbf67"/></radialGradient><radialGradient id="radial-gradient-2" cx="-123.54284" cy="347.25755" fx="-123.54284" fy="347.25755" r="26.85613" gradientTransform="translate(246.58192 -175.6309) scale(.85112 .92464)" gradientUnits="userSpaceOnUse"><stop offset="0" stop-color="#ffecd2"/><stop offset=".20984" stop-color="#fee8c9"/><stop offset=".543" stop-color="#fedeb2"/><stop offset=".95579" stop-color="#fdce8d"/><stop offset="1" stop-color="#fdcd89"/></radialGradient></defs><path d="M110.8787,22.73448v.01001h-.09998c.02997,0,.07001,0,.09998-.01001Z" fill="url(#linear-gradient)"/><path d="M111.19422,8.61103h.00003c5.64684-1.25027,11.39884-1.99651,17.18552-2.22958l16.7858-.67609c14.36777-.5787,27.63706,7.5735,33.38086,20.50805l3.89597,8.77339-25.55768,96.49077-45.23818-18.70514-16.68132-79.47759c-2.35078-11.20019,4.85928-22.16645,16.22901-24.68381Z" fill="#cfecf8" stroke="#05415a" stroke-miterlimit="10" stroke-width="4"/><path d="M246.79783,31.48109l-39.17556,99.02979-66.03032,166.93018-7.43963-156.05005-2.5724-54.04136c-.95452-20.05276,2.57981-40.03861,10.19167-57.63157l5.82806-13.47015c3.82722-8.84569,11.15126-14.30513,19.07806-14.24748.03298.00024.06545.00046.09739.00066,33.73713.15991,62.32624,12.44971,80.01488,29.47998h.00786Z" fill="#cfecf8" stroke="#05415a" stroke-miterlimit="10" stroke-width="4"/><path d="M8.27999,40.61716l42.84534,99.02979,64.93959,150.11104c2.00635,4.63776,7.98609,3.20295,8.25639-1.98108l7.15628-137.24983,2.93537-56.38489c.96424-18.52193-2.60608-36.98206-10.29546-53.23198l-9.32464-19.70571c-2.96192-6.2594-8.62364-10.13161-14.75827-10.09357l-4.23572.02626c-36.89746.15991-68.16466,12.44971-87.51029,29.47998h-.00859Z" fill="#cfecf8" stroke="#05415a" stroke-miterlimit="10" stroke-width="4"/><circle cx="132.63156" cy="219.63049" r="27.12963" fill="url(#radial-gradient)" stroke="#134d26" stroke-miterlimit="10" stroke-width="1.445"/><rect x="116.41308" y="123.22004" width="50.03724" height="44.47711" rx="7.69707" ry="7.69707" transform="translate(-15.89724 17.36201) rotate(-6.65183)" fill="url(#radial-gradient-2)" stroke="#93703e" stroke-miterlimit="10" stroke-width="1.77281"/><path d="M134.40775,300.42415c-.22507,8.58477-8.55549,14.66485-16.76775,12.15329-32.54138-9.95217-88.79069-44.09577-100.37175-102.39864-7.36493-37.07743,10.10384-41.67526,1.52811-87.98917C9.76666,73.42411-3.4632,62.31659,4.39614,45.32831c5.74755-12.42354,19.75348-19.76396,30.76422-21.08459,12.5578-1.50621,14.64827,5.60596,33.65679,9.5719,25.93965,5.41205,35.85339-4.95177,49.5191,4.69107.78236.55205,10.8147,7.92502,13.36166,20.52673,1.82718,9.04044-1.01861,17.15356-2.36065,20.97959-2.86379,8.16441-6.1646,10.29559-8.25141,19.63055-.6769,3.02794-1.46849,6.56894-1.20088,11.23024.68702,11.96629,7.3671,14.11889,6.45085,23.89185-.53532,5.71033-2.3925,11.46326-2.39255,11.46335-.71645,2.21941-1.57508,4.37052-1.82872,7.60104-.24311,3.09634.20275,5.38627.33618,6.16718,1.70405,9.97109-2.51293,19.89793-10.34367,26.30316-8.42459,6.89895-13.91468,17.28069-14.24036,29.01618-.11178,4.02841.39038,7.92385,1.42866,11.60409,3.01331,10.73772,11.31585,17.97082,14.04549,20.54754.93189.87038,1.87914,1.66417,2.83836,2.38624,12.09635,9.10567,18.93613,23.57991,18.53933,38.71521l-.31079,11.8545Z" fill="#cfecf8" stroke="#05415a" stroke-miterlimit="10" stroke-width="4"/><path d="M236.87956,136.72886c.59499-45.3294,31.30187-59.4407,20.59608-91.04223-4.34759-12.83341-15.57778-28.76387-29.07348-30.13233-9.7678-.9906-13.2682,6.40304-29.98679,7.56535-13.1437.91364-14.65908-3.40045-25.28406-1.27379-12.59332,2.52062-20.81597,10.71006-25.30911,15.04047-5.10743,4.92257-11.37121,10.95948-13.2735,20.58384-1.78841,9.04821,1.0922,17.14908,2.45063,20.96936,2.89876,8.15207,6.20871,10.26909,8.3355,19.59489.28899,1.2671.5985,2.62422.84239,4.11618l.03091.19376c.66501,4.17127,4.50303,7.07462,8.69788,6.57974,5.64021-.66539,10.75191,3.3675,11.41728,9.00759l5.36813,45.5033c.6654,5.64033-3.36749,10.75203-9.0077,11.41742l-5.44118.64191c-4.50953.532-6.16346,6.22297-2.64148,9.08911l.08414.0685c6.96438,7.11243,7.93004,12.46364,7.63619,15.93014-.59787,7.05295-6.63998,9.01999-6.47065,15.99595.16831,6.93453,6.20023,7.50569,5.91177,14.46486-.29955,7.22696-7.10589,13.87953-8.04875,14.78161-.72142.6901-1.3574,1.2214-1.79913,1.57466-1.40842,1.12392-2.52312,1.76283-3.73942,2.67602-1.8727,1.40609-3.90684,3.20784-5.98303,5.56522-8.34264,9.47284-11.9925,22.19535-10.40036,34.71736l1.08237,8.51263c.26146,8.57038,8.60191,14.63056,16.79124,12.08988,28.17618-8.74095,60.60939-30.82401,69.69471-41.84815,10.60501-12.86772,26.67154-32.36236,30.26542-60.98862,4.11579-32.78342-13.19518-37.17123-12.746-71.39461Z" fill="#cfecf8" stroke="#05415a" stroke-miterlimit="10" stroke-width="4"/></svg>