<?xml version="1.0" encoding="UTF-8"?><svg id="Layer_1" xmlns="http://www.w3.org/2000/svg" width="503.220223" height="649.552189" xmlns:xlink="http://www.w3.org/1999/xlink" viewBox="0 0 503.220223 649.552189"><defs><radialGradient id="radial-gradient" cx="251.610111" cy="324.776094" fx="251.610111" fy="324.776094" r="289.513719" gradientUnits="userSpaceOnUse"><stop offset=".005587" stop-color="#fee5c4" stop-opacity=".8"/><stop offset=".346692" stop-color="#fee2bd" stop-opacity=".8"/><stop offset=".750194" stop-color="#fedaab" stop-opacity=".8"/><stop offset="1" stop-color="#ffd39c" stop-opacity=".8"/></radialGradient><radialGradient id="radial-gradient-2" cx="193.133903" cy="311.173649" fx="193.133903" fy="311.173649" r="25.333333" gradientTransform="translate(-28.948052 -109.015696) scale(1.172515 1.332342)" gradientUnits="userSpaceOnUse"><stop offset="0" stop-color="#ffe5cf"/><stop offset=".352941" stop-color="#f6d1b2"/><stop offset="1" stop-color="#e5a874"/></radialGradient></defs><path d="M502.21918,72.7568h-.000244c-.612061-11.418945-10.365479-20.179688-21.784424-19.567383-18.340428,2.999861-60.933445-6.005705-59.808105,23.941895h.000244c.758299,8.918598,5.082236,14.249057,11.10151,17.059478,10.933891,5.105073,16.755335,17.159515,13.195965,28.68959-6.428928,20.825601-13.792738,44.294828-17.091193,57.051149-3.099593,12.358474-11.159163,33.603591-30.298812,37.041091-6.184515,1.066428-13.168884,1.005368-19.976627,1.602197-11.835793,1.037634-22.349065-7.551742-23.915759-19.329185-.957225-7.195829-1.860759-14.262424-1.422999-20.9804.898329-13.786001,12.101328-24.660253,25.896749-25.399965l19.415951-1.041085c27.144389-1.918703,24.990423-42.347048-2.21792-41.351483.000879-.00008-55.763769,2.989178-55.763769,2.989178-11.418945.612305-20.179688,10.365723-19.567383,21.784668h0c.800467,9.513189,5.715671,14.987969,12.431369,17.636647,7.853557,3.09745,12.677024,11.229108,11.072997,19.517633-1.439122,7.436406-.882453,15.730242,1.335477,26.002458,4.061699,32.330285-1.634245,66.449527-25.254375,81.239222-11.514522,7.209794-25.272558,1.187835-31.664061-10.800243-18.99919-35.635397-66.325423-61.413175-88.859595-57.471677-9.263372,1.620275-20.502613-8.231659-19.000599-17.51494,3.5426-21.895236,16.339186-46.829501,17.031563-47.913285,7.62695-12.030288,21.333981-16.332046,35.8457-20.886733,31.74119-7.589567,58.117973-31.843496,68.434845-62.573203,3.528403-10.509655,13.154673-17.769771,24.22491-18.363341l32.400792-1.737284c11.419189-.611816,20.179688-10.365234,19.567627-21.78418h0c-.612305-11.418945-10.365479-20.179688-21.784424-19.567383l-80.133789,4.295898c-11.418945.612305-20.179688,10.365723-19.567383,21.784668h0c1.514984,14.098251,10.105475,18.388447,20.452435,19.282438,10.69713.924246,17.430289,12.134297,12.912366,21.874482-11.08022,23.88783-33.204015,42.054047-59.203197,48.20017-2.887468.906683-5.85042,1.837372-8.81899,2.859907-12.184828,4.197113-25.560974-2.008919-30.237644-14.017855-4.311429-11.071056-11.31196-21.089309-19.540126-30.258007-7.552515-8.415815-1.619303-21.79274,9.688501-21.792721l13.346019.000023c11.097168,0,20.093262-8.996582,20.093262-20.09375h0c0-11.097168-8.996094-20.093262-20.093262-20.093262H65.960635c-11.097412,0-20.093506,8.996094-20.093506,20.093262h0c0,11.097168,8.996094,20.09375,20.093506,20.09375l46.904337.000023c15.754445.000008,30.852057,6.350649,41.860937,17.620391,25.146202,25.742058,43.382182,49.811067,23.830856,91.126388-3.749024,8.852563-6.855099,18.443457-8.199831,28.221421-2.107672,15.32554-10.613967,29.045872-23.123412,38.146875-18.544258,13.491512-32.403016,25.573267-36.504771,56.991981-1.526967,11.696293-9.344254,21.692407-19.597098,27.524568-5.447053,3.098466-10.533878,6.421786-15.157125,9.597325-13.756875,8.708045-27.588773,27.028461-26.997293,43.83011-.847587,33.169468-25.986841,49.895182-30.54815,74.925988-1.177035,6.459141-4.785201,12.170117-9.859545,16.336283-4.911402,4.032387-7.905841,10.261608-7.539326,17.096127l.296387,5.528809c.612145,11.418968,10.365326,20.179607,21.78429,19.56739l103.541393-5.551277c11.418945-.612305,20.179688-10.365234,19.567383-21.78418.956304-11.739088-5.81499-22.198831-16.3994-24.663629-3.643838-.848542-7.164255-2.168565-10.289247-4.225747-.351901-.231657-.74302-.417051-1.167798-.545194-6.02904-5.787009-3.27526-20.127765-17.043954-21.444332-18.890426-7.5305-20.101709-43.728929-37.617158-57.379442-3.223581-2.51227-4.500575-6.781036-3.302136-10.688301,3.081921-10.047967,10.448888-16.831552,20.821469-23.688607,4.099096-2.813492,8.59056-5.752577,13.362547-8.51501,6.939295-4.017056,13.591818.69882,17.882778,7.472165,22.808182,36.003056,16.585959,57.336389,78.490143,66.775939,8.315691,1.26803,13.134771,10.033224,9.07394,17.399925-4.449553,8.071875-10.734507,15.558487-16.164691,22.757136-9.546521,12.341898-19.062448,24.684159-25.426768,39.241192-8.120456,16.876351-7.595662,33.498507-5.058964,50.937537-.991076,13.205744-7.709728,32.944318-16.841623,42.237167-2.707944,2.755673-6.36463,4.377146-10.22191,4.596432-19.047539,1.082854-50.777501-3.124171-49.933165,23.251325h0c.612305,11.418945,10.365479,20.179688,21.784424,19.567383l55.764648-2.989746c11.419189-.612305,20.179688-10.365723,19.567627-21.784668h0c-.412608-9.562591-6.753061-16.020377-14.813979-18.548218-5.566271-1.745539-8.214717-8.011705-5.504838-13.177636,20.008648-38.143151-5.095633-51.698523,19.513144-92.382246,3.823047-6.320337,13.15905-6.242828,16.726719.2251,3.001495,5.441495,5.247212,11.766161,7.551123,18.272648,10.627901,38.503419,35.262339,48.467446,68.549606,45.27686,7.088396-.679423,12.719662,5.667495,11.258973,12.636955-3.628297,17.311876,2.069223,33.627391-10.080827,38.634303-3.187154,1.361212-5.94474,3.716196-8.160128,6.556598-5.753803,7.377092-14.287844,12.070131-23.638858,12.363854-16.550737.519874-34.138162,2.949628-33.540468,22.805386-1.055772,13.198407,7.993344,25.994012,22.080977,25.094835-.000768.000349,189.242884-10.145159,189.242884-10.145159,11.418945-.612305,20.179443-10.365723,19.567383-21.784668,1.054696-13.200305-7.993265-25.994146-22.08158-25.095845.000358-.000161-11.071381.593359-22.929745,1.2291-19.281933,1.033729-37.991129-6.820664-50.696501-21.36147-9.710829-11.113666-19.271199-23.600209-28.820721-37.608222-8.330339-13.210253-23.594589-18.008852-38.534687-13.220029-65.57754,10.284328-54.487245-35.512525-76.061419-64.034821-4.080422-5.394551-4.073171-12.846851.095635-18.173397,7.988938-10.207586,16.147412-20.915514,19.744898-32.867074,1.832556-6.088114,6.703925-10.844542,12.844051-12.494466,26.730879-7.1829,48.687946-26.014642,60.09421-50.720637,3.667858-7.944589,13.71342-10.624283,20.695276-5.349497,17.566866,13.271751,20.47543,42.183747,39.622,52.388747,8.497947,4.529352,13.673528,13.509135,12.686813,23.088097-.535362,5.19726-.249013,10.535539.476685,15.846064,1.272515,9.312023-5.560205,17.758642-14.945296,18.261777l-.28874.015479c-27.126528,1.910015-25.00509,42.347248,2.217934,41.351966-.000893.000085,115.896568-6.213782,115.896568-6.213782,11.669735-.62524,20.562832-10.79763,19.513562-22.538093-.999427-11.182763-11.015477-19.388479-22.226708-18.787368l-20.354066,1.091322c-15.262874.818348-29.568682-7.482187-36.405502-21.152699-9.845477-19.686448-21.534805-39.318212-45.146773-36.627549-28.508137-6.345495-22.574916-46.515438-54.863246-59.203713-5.610621-2.204793-9.108887-7.868918-8.652827-13.879923.068739-.906001.124586-1.814368.16741-2.723797.298071-6.329983,4.941704-11.507688,11.162224-12.71709,22.313622-4.338244,37.975049-22.047965,45.083497-45.37434,2.622349-8.605239,8.699607-15.883876,16.853648-19.683673,4.682649-2.182122,9.878774-3.155796,17.565726-2.891308,29.584412,3.008213,48.010142-24.685786,51.591644-44.991813,3.813797-14.724867,13.037789-43.691941,20.074401-66.720497,3.383413-11.072816,12.852254-19.231156,24.319186-20.832469,11.58051-1.617174,21.386867-6.380073,21.269483-21.829784ZM62.289414,382.568324c10.301498,16.041429,11.726393,40.551976,32.71955,47.706083,2.680832.114882,4.270396,1.465388,5.365788,3.415655,3.700038,6.587652-1.137016,14.767929-8.681801,15.172465l-47.793625,2.562591c-12.428578.666394-20.937948-12.458642-15.147012-23.475842,7.05811-13.427986,18.316963-26.289639,22.745234-44.254018,1.26188-5.11913,8.270663-5.924061,10.723598-1.257055l.068268.130121ZM296.42125,539.095668c10.906684,15.989041,21.819099,30.002961,32.967816,42.32301,4.902338,5.417399,1.270195,14.1076-6.025567,14.498733l-53.896672,2.889453c-5.257503.28186-7.231563-6.875593-2.522028-9.229539.045068-.022526.090347-.04499.135838-.067393,18.564995-9.067118,10.085434-29.463789,15.253473-47.763489,1.793768-6.35162,10.018588-7.987396,14.020094-2.738717l.067046.087943ZM366.488262,440.036692c-1.427693-6.832807-2.71136-13.709242-2.914525-20.65784-.342052-11.698764,15.29681-16.071949,21.049597-5.879622.37572.665671.74508,1.332438,1.108462,1.997804,3.874613,7.095009,7.469994,14.041088,11.139493,21.070144,1.530041,2.930849-.480084,6.464572-3.781537,6.641528l-21.011469,1.1262c-2.668444.143027-5.043462-1.682431-5.590022-4.298215Z" fill="url(#radial-gradient)" stroke="#8a5d3b" stroke-miterlimit="10" stroke-width="2"/><ellipse cx="197.504274" cy="305.574033" rx="29.703704" ry="30.56174" fill="url(#radial-gradient-2)"/></svg>