<?xml version="1.0" encoding="UTF-8"?><svg id="Layer_1" xmlns="http://www.w3.org/2000/svg" width="449.309873" height="704.00505" xmlns:xlink="http://www.w3.org/1999/xlink" viewBox="0 0 449.309873 704.00505"><defs><radialGradient id="radial-gradient" cx="117.20912" cy="199.274783" fx="64.295542" fy="206.444708" r="135.715209" gradientUnits="userSpaceOnUse"><stop offset="0" stop-color="#ffd9da"/><stop offset=".176369" stop-color="#fcd3d4"/><stop offset=".400566" stop-color="#f6c3c5"/><stop offset=".650561" stop-color="#eca9ac"/><stop offset=".917488" stop-color="#de858a"/><stop offset="1" stop-color="#d9797e"/></radialGradient><radialGradient id="radial-gradient-2" cx="283.315809" cy="110.440991" fx="283.315809" fy="110.440991" r="112.132151" gradientUnits="userSpaceOnUse"><stop offset="0" stop-color="#cfdbdf"/><stop offset="1" stop-color="#9fb6c0"/></radialGradient><radialGradient id="radial-gradient-3" cx="300.629696" cy="386.378654" fx="300.629696" fy="386.378654" r="156.282968" gradientUnits="userSpaceOnUse"><stop offset="0" stop-color="#f4faee"/><stop offset=".241413" stop-color="#ebf4e2"/><stop offset=".664523" stop-color="#d6e7c5"/><stop offset="1" stop-color="#c2dbaa"/></radialGradient><radialGradient id="radial-gradient-4" cx="395.09285" cy="540.625537" fx="395.09285" fy="540.625537" r="64.975304" gradientUnits="userSpaceOnUse"><stop offset="0" stop-color="#cce0d6"/><stop offset=".176029" stop-color="#c0d9cd"/><stop offset=".485752" stop-color="#a3c7b5"/><stop offset=".89014" stop-color="#74a98e"/><stop offset="1" stop-color="#66a183"/></radialGradient><radialGradient id="radial-gradient-5" cx="339.471088" cy="645.961977" fx="339.471088" fy="645.961977" r="68.656504" gradientUnits="userSpaceOnUse"><stop offset="0" stop-color="#efccdd"/><stop offset=".302153" stop-color="#ebc0d5"/><stop offset=".83198" stop-color="#e2a3c1"/><stop offset="1" stop-color="#df99ba"/></radialGradient><radialGradient id="radial-gradient-6" cx="90.639968" cy="343.083183" fx="90.639968" fy="343.083183" r="82.478249" gradientUnits="userSpaceOnUse"><stop offset="0" stop-color="#f6d7d8"/><stop offset="1" stop-color="#edafb2"/></radialGradient><radialGradient id="radial-gradient-7" cx="155.151666" cy="317.043226" fx="155.151666" fy="317.043226" r="25.925926" gradientTransform="translate(48.793546 56.280332) scale(.801384 .761121)" gradientUnits="userSpaceOnUse"><stop offset=".005587" stop-color="#fff6f3"/><stop offset=".256545" stop-color="#fcf2ef"/><stop offset=".489828" stop-color="#f6e8e4"/><stop offset=".716137" stop-color="#ead7d1"/><stop offset=".93689" stop-color="#dbbfb6"/><stop offset="1" stop-color="#d6b7ae"/></radialGradient><radialGradient id="radial-gradient-8" cx="149.444092" cy="317.043166" fx="149.444092" fy="317.043166" r="41.220044" xlink:href="#radial-gradient-7"/></defs><path d="M100.574773,183.972104s65.875284,38.690497,65.916125,38.711523c35.533075,18.29373,65.504564,26.616648,66.863904,58.708521,1.819824,42.97998-35.980225,56.460083-53.360107,69.790039-.300796.232698-.591921.465357-.875196.696194-.323701.26378-.803129.160628-.978903-.218141-2.950617-6.358201-6.205314-13.250247-9.584665-20.033084-.000343-2.723873-13.939365,2.461313-26.809778-18.824452-2.954378-4.886106-3.857232-17.380902-3.079743-24.555009-9.666857-7.572224-21.239291-12.655306-32.811609-16.935504-19.580078-7.26001-36.320068-2.380005-54.940186,5.439941-14.956006,6.287229-33.799247,18.981255-47.051454,33.033838-.43592.462248-1.212237.084581-1.104058-.541516.536259-3.103647,1.195771-6.180799,1.967761-9.231456.005213-.020602.011342-.040975.018352-.061036l4.329555-12.389771c.030029-.060059,2.169922-6.410034,2.199951-6.469971,8.22998-18.25,9.040039-39.030029,1.560059-57.590088-.48999-1.22998-.960205-2.439941-1.400146-3.619995l-.001789.00014C-12.965346,154.330643,5.173082,87.686905,68.551256,53.236344c20.360596-11.239624,56.379509-6.009583,79.046502-1.22821,8.288782,1.537451,15.529784,4.368147,22.49069,4.394326.312668.001176.577042.222005.627089.530644l11.708619,72.206311c.055482.342154-.169937.670836-.509699.739463-14.487471,2.926251-29.765753,1.992125-44.017254-3.04451-16.38501-6.392578-32.321777-5.820007-44.906006,8.11438-.09855.108628-.196375.217525-.293478.326687-13.347946,15.005662-9.442968,38.529094,7.873637,48.70125" fill="url(#radial-gradient)" stroke="#660c10" stroke-miterlimit="10" stroke-width="2"/><path d="M180.153586,130.213621c11.277796-1.791818,24.278653-7.470771,33.655482-14.331525,7.881836-5.766968,13.786133-13.114685,20.943604-19.579468,16.03044-14.478951,44.86681-19.667316,64.415337-13.072461,4.197706,1.41613,8.10352,3.653103,11.140772,6.878201,19.345548,20.542022-14.045728,51.86925-27.590289,65.512802-12.221436,11.94104-23.894287,19.057739-33.912354,31.824768-7.343738,9.139224-11.531896,20.696062-12.258682,32.436044l115.055311-14.540025c.352551-3.388007,2.862361-8.072552,8.265871-14.721886,22.595703-27.436401,42.302246-60.416931,37.472168-99.554504-5.171875-44.113037-43.321777-81.662292-87.09375-88.527344-12.705078-2.12262-25.682617-1.723633-38.456055-.738831-35.537598,1.917419-60.574836,21.382324-85.898323,47.926697-5.151917,4.907534-12.210296,6.533909-17.33709,6.623854" fill="url(#radial-gradient-2)" stroke="#104961" stroke-miterlimit="10" stroke-width="2"/><path d="M351.875826,203.292173c.166667,5.361111,10.747774,10.859373,24.7975,13.367938,18.329102,3.663391,34.342285,17.574036,41.218262,34.798828,11.246582,27.637512,7.366699,60.204651-6.80957,86.111023-16.790039,28.262207-42.05957,49.774841-70.413086,67.523132-16.060059,10.150269-33.78418,17.607544-50.853516,24.274353-14.43042,6.771729-31.888184,21.321594-31.423584,38.283203.366943,9.832397,9.823486,18.743469,19.645752,15.267151,4.334961-1.37616,23.499351-10.52355,30.949353-12.384888,11.692726-2.921357,23.443131-4.50273,34.975131-4.749297l6.587731,87.273523c-11.800132,6.24488-27.063295,14.141716-36.451751,15.179478-40.375371,4.462927-83.840982-2.582427-111.120523-31.922454-21.433105-22.493042-29.790039-55.971436-24.712891-86.217407,4.677246-28.060181,21.350586-53.20282,43.153809-71.956909,9.694824-8.369263,20.583008-15.558655,31.055176-20.450012,8.307617-3.892151,14.35223-7.309447,22.79834-9.042053,26.603867-5.457428,39.9372-46.910392,17.529297-56.384216-21.84015-9.233784-42.220215-24.310974-51.786621-46.295837-2.495929-5.689346-4.214791-16.573831-4.598173-23.037424-.165705-2.793692.296432-5.126981.296432-5.126981" fill="url(#radial-gradient-3)" stroke="#00b85a" stroke-miterlimit="10" stroke-width="2"/><path d="M341.875826,465.749453c31.995028-.68409,64.395101,8.940796,87.131484,28.695753,36.09293,31.360056,15.519607,83.913143-12.440884,121.090468l-58.776187-25.153779c5.792988-4.905848,11.131855-10.208552,15.380779-16.140512,4.44043-6.429688,15.171387-17.048317,13.815918-24.893654-2.418945-9.886475-20.179964-4.688598-27.095215-1.18911-2.646931,1.339489-7.829981,4.096066-11.329792,5.94824" fill="url(#radial-gradient-4)" stroke="#006331" stroke-miterlimit="10" stroke-width="2"/><path d="M359.626594,588.798447c-9.928729,8.40824-23.027804,17.234151-32.423349,24.480899-11.114746,8.155151-56.544434,56.039506-66.216309,66.290604l39.555556,23.555556c27.111111-14.666667,86.751439-55.566897,106.701146-76.051028,3.152718-3.632976,7.670267-9.363059,10.711601-13.406932" fill="url(#radial-gradient-5)"/><path d="M300.542493,703.125506c27.111111-14.666667,86.751439-55.566897,106.701146-76.051028,3.152718-3.632976,7.670267-9.363059,10.711601-13.406932" fill="none" stroke="#c92f77" stroke-miterlimit="10" stroke-width="2"/><path d="M359.626594,588.798447c-9.928729,8.40824-23.027804,17.234151-32.423349,24.480899-11.114746,8.155151-56.544434,56.039506-66.216309,66.290604" fill="none" stroke="#c92f77" stroke-miterlimit="10" stroke-width="2"/><path d="M179.381672,351.686486c-16.590088,14.210083-2.619873,29.819946-53.570068,58.710083-26.949951,15.279907-70.899902,9.519897-97.779785-16-17.220215-16.360107-25.540039-39.440063-26.100098-62.880127-.169922-6.97998.310059-13.97998,1.379883-20.879883,9.675334-14.992535,32.990234-28.080078,48.5-34.600098,18.620117-7.819946,35.089044-11.922176,54.940186-5.439941,11.664518,3.808957,22.889133,8.90852,32.326967,16.358322-1.189833,10.63385,3.23543,18.940666,6.797071,23.726219,5.887051,7.90513,17.832107,8.656778,23.923913,20.927775,3.386693,6.821966,6.641338,13.731951,9.581932,20.07765Z" fill="url(#radial-gradient-6)"/><path d="M119.567432,275.793155c-6.855279-3.874344-26.580495-9.223204-34.136051-8.753676-15.467945.961231-28.740741,4.67862-44.664099,14.15485-9.239793,5.498739-16.257676,9.177706-25.029456,16.075565-4.753676,3.738145-12.97872,11.974562-12.97872,11.974562-1.069824,6.899902-1.462809,16.658828-1.428075,22.987658.12868,23.4464,8.879883,46.52002,26.100098,62.880127,26.879883,25.519897,70.829834,31.279907,97.779785,16,50.950195-28.890137,37.58067-45.215672,54.170758-59.425755" fill="none" stroke="#d1383e" stroke-miterlimit="10" stroke-width="2"/><ellipse cx="173.129544" cy="297.588738" rx="20.776612" ry="19.732779" fill="url(#radial-gradient-7)" stroke="#231f20" stroke-miterlimit="10" stroke-width=".585745"/><path d="M173.129452,331.059083c-19.431987,0-35.24053-15.014682-35.24053-33.470391s15.808543-33.470391,35.24053-33.470391c9.413909,0,18.263563,3.481536,24.919586,9.803155,1.56442,1.486565,1.56442,3.895916-.000783,5.38211-1.563637,1.485822-4.101613,1.485822-5.666815,0-5.14169-4.884111-11.979276-7.574051-19.251989-7.574051-15.012638,0-27.226694,11.600413-27.226694,25.859176s12.214056,25.859176,27.226694,25.859176c6.69124,0,13.123439-2.326475,18.111739-6.551294,1.653636-1.39923,4.186134-1.260979,5.657424.307719,1.472855,1.568698,1.328074,3.974333-.323214,5.373191-6.458807,5.469446-14.784901,8.481599-23.445948,8.481599Z" fill="url(#radial-gradient-8)" stroke="#231f20" stroke-miterlimit="10" stroke-width=".585745"/></svg>