<?xml version="1.0" encoding="UTF-8"?><svg id="Layer_1" xmlns="http://www.w3.org/2000/svg" width="399.485262" height="275.144522" viewBox="0 0 399.485262 275.144522"><path d="M191.799978,216.635514c-.044934,5.364185-.675,10.529956-1.817908,15.399097-2.673083,11.429956-8.17207,21.311938-15.498083,28.655859-.60304.603149-1.205969,1.179053-1.826917,1.746167-.630066.566895-1.260132,1.115991-1.908105,1.646851-.962952.792114-1.95293,1.548193-2.970044,2.259009-.675.477026-1.358899.927026-2.060925,1.368018-2.789978,1.746167-5.732996,3.186035-8.801917,4.293018-.387158.135132-.774097.270044-1.161035.396167-5.32804,1.745947-11.025,2.465771-16.893018,1.997754-.027026-.008789-.045044-.008789-.07207-.008789-.044934,0-.089978-.009229-.134912-.009229-3.006079-.242798-6.030066-.179736-9.045044.090088-.215991.018018-.440991.036035-.656982.054053-.611938.054053-1.224097.098877-1.836035.143921-.37793.027026-.755969.054053-1.125.081079-.836938.054053-1.664978.098877-2.484009.134912-.107996.009009-.206982.009009-.305969.009009-.801013.045044-1.593018.07207-2.385022.090088-.359912.009009-.720044.018018-1.079956.027026-.872974.018018-1.737048.027026-2.601013.027026h-.018018c-.792004,0-1.584009-.009009-2.367004-.027026-.252026,0-.504053-.009009-.74707-.009009-.719934-.018018-1.430859-.045044-2.132886-.07207-.324097-.018018-.638965-.027026-.954053-.045044-.675-.026807-1.35-.071851-2.015991-.116895-.890991-.054053-1.781982-.126123-2.663965-.206982-.872974-.07207-1.745947-.162158-2.610022-.261035-.656982-.07207-1.314075-.15293-1.95304-.234009-.314978-.045044-.638965-.089868-.953943-.125903-.846057-.126123-1.692004-.252026-2.520044-.387158-.539978-.089868-1.079956-.179956-1.610925-.279053-.099097-.018018-.189075-.035815-.288062-.053833-.288062-.054053-.567004-.099097-.845947-.161938-.351123-.063062-.711035-.135132-1.062048-.206982-.548987-.108105-1.089075-.225-1.628943-.351123-.531079-.108105-1.062048-.234009-1.584009-.359912-.792114-.188965-1.565991-.378149-2.340088-.585132-.018018-.009009-.036035-.009009-.044934-.018018-.648083-.170947-1.287048-.341895-1.917004-.531079-.890991-.260815-1.772974-.530859-2.636938-.809912-.639075-.206982-1.269141-.413965-1.890088-.638965-.702026-.243018-1.386035-.495044-2.070044-.74707-.252026-.098877-.494934-.188965-.737952-.287842-.062952-.027026-.126013-.045044-.189075-.07207-.557886-.215991-1.106982-.440991-1.655859-.675-.648083-.261035-1.27804-.540088-1.908105-.819141-.098877-.044824-.188965-.089868-.278943-.125903-.657092-.296851-1.305066-.60293-1.944031-.918018-.504053-.243018-.998987-.485815-1.493921-.746851-.270044-.135132-.540088-.270044-.801123-.413965-.009009,0-.026917-.009229-.035925-.018018-.503943-.261035-1.007996-.540088-1.50304-.819141-.593921-.323877-1.179053-.665991-1.754956-1.008105-.252026-.143921-.504053-.296851-.74707-.45-.539868-.323877-1.070947-.656982-1.593018-.998877-.467908-.29707-.935925-.60293-1.385925-.918018-.530969-.350903-1.05304-.720044-1.565991-1.088965-.234009-.161938-.468018-.333105-.693018-.504053-.557996-.404956-1.106982-.82793-1.64696-1.250903-.45-.351123-.9-.711035-1.340991-1.071167-1.72804-1.421851-3.375-2.915771-4.940991-4.481982-.45-.45-.9-.918018-1.340991-1.386035-.405066-.413965-.792114-.845947-1.179053-1.27793-.188965-.197974-.369031-.404956-.540088-.611938-.359912-.404956-.719934-.818921-1.061938-1.232886q-.009009-.009229-.018018-.018018c-.062952-.07207-.125903-.153149-.188965-.225-4.040991-4.824097-8.468921-9.288062-13.220947-13.419141-.045044-.036035-.081079-.07207-.126123-.107886-1.448877-1.251123-2.85293-2.538062-4.211938-3.843018-.143921-.135132-.279053-.270044-.413965-.404956-.567004-.558105-1.134009-1.116211-1.692004-1.683105-.548987-.566895-1.089075-1.134009-1.628943-1.709912-.126123-.135132-.261035-.270044-.387158-.413965-.584912-.630176-1.151917-1.269141-1.718921-1.908105-.054053-.063062-.107996-.126123-.15293-.179956-1.215088-1.386035-2.376123-2.790088-3.501123-4.221167-.107886-.134912-.215991-.269824-.314868-.404956-.495044-.629956-.97207-1.27793-1.449097-1.916895-.557996-.74707-1.097974-1.511938-1.629053-2.268018-.485925-.693018-.953943-1.386035-1.412952-2.088062-.107996-.15293-.206982-.305859-.29696-.459009-.459009-.693018-.9-1.395044-1.340991-2.106079,0,0-.009009-.008789-.018018-.017798-.459009-.74707-.909009-1.503149-1.359009-2.268018-.063062-.117114-.135022-.243018-.206982-.360132-.395947-.693018-.782996-1.386035-1.161035-2.087842-.018018-.027026-.036035-.054053-.045044-.090088-.413965-.755859-.818921-1.511938-1.214868-2.286035-.153149-.29707-.306079-.593921-.45-.9-.270044-.540088-.540088-1.079956-.801123-1.629053-.027026-.053833-.053943-.107886-.07196-.170947-.369031-.765088-.719934-1.538965-1.071057-2.32207-.009009-.018018-.009009-.026807-.017908-.044824-.323987-.729053-.639075-1.467114-.945044-2.205176-.413965-.989868-.810022-1.997754-1.187952-2.996851-.225-.593921-.45-1.188062-.656982-1.781982-.099097-.270044-.197974-.540088-.288062-.810132-.288062-.809912-.557996-1.629053-.818921-2.447974-.261035-.82793-.52207-1.656079-.765088-2.484009-.045044-.15293-.089978-.305859-.125903-.459009-.225-.764868-.440991-1.538965-.639075-2.313062-.197974-.755859-.396057-1.511938-.576013-2.276807-.063062-.261035-.125903-.531079-.188965-.810132-.144031-.629956-.288062-1.259912-.413965-1.889868-.288062-1.340991-.549097-2.690991-.774097-4.05-.098877-.567114-.188965-1.134009-.278943-1.692114-.135022-.854956-.252026-1.709912-.360022-2.564868-.225-1.683105-.404956-3.384009-.539978-5.094141-.027026-.314868-.053943-.638965-.07196-.962842-.009009-.081079-.018018-.162158-.018018-.243018-.054053-.693018-.090088-1.386035-.126013-2.079053-.009009,0-.009009-.009009,0-.027026-.045044-.818921-.080969-1.638062-.098987-2.456982-.009009-.170947-.018018-.342114-.009009-.513062-.027026-.845947-.036035-1.682886-.036035-2.529053v-.044824c0-.774097.009009-1.556982.027026-2.331079.009009-.60293.027026-1.214868.054053-1.818018,0-.045044,0-.089868.009009-.134912,0,.107886,0,.206982.008899.314868.018018.504053.045044,1.008105.07196,1.50293.027026.513062.054053,1.026123.099097,1.539185.036035.513062.07196,1.016895.116895,1.520947.036035.504053.081079,1.007886.135132,1.511938l.161938,1.512158c.089978.800903.188965,1.601807.29707,2.393921.053943.486035.125903.963062.206982,1.439868.098877.729053.215991,1.458105.350903,2.178149.081079.495044.171057.989868.261035,1.493921.090088.504053.179956.999097.288062,1.484912.098877.468018.188965.945264.287952,1.413062.117004.513062.234009,1.035132.351013,1.547974.098987.413965.197974.837158.29696,1.260132.29696,1.196851.60304,2.384912.945044,3.563965.089978.342114.188965.684009.287952,1.025903.045044.162158.090088.324097.144031.486035.15304.513062.305969,1.026123.468018,1.538965.089978.288062.188965.576123.278943.863965.197974.621167.404956,1.233105.621057,1.845264.117004.341895.233899.683789.360022,1.016895.197974.566895.404956,1.125.611938,1.683105.711035,1.871851,1.476013,3.725903,2.295044,5.561938.287952.656982.593921,1.313965.9,1.970947.089978.188965.179956.37793.270044.567114.305859.629736.611938,1.250903.917908,1.862842.52196,1.016895,1.05304,2.025,1.593018,3.024097.342004.620947.684009,1.232886,1.035022,1.845044.117004.197754.234009.386938.342004.584912.404956.684009.810022,1.368018,1.223987,2.043018l.009009.009009c.486035.791895.989978,1.575,1.493921,2.348877.431982.657202.873083,1.304956,1.323083,1.953149.179956.269824.369031.539868.557996.809912.422974.594141.845947,1.188062,1.27793,1.772974.018018.027026.036035.054053.054053.07207,1.079956,1.466895,2.195947,2.897974,3.365991,4.311035.027026.027026.045044.053833.07207.080859.584912.711035,1.187952,1.413062,1.8,2.115088.053943.063062.107886.125903.15293.179956.52207.594141,1.044031,1.179053,1.575,1.754956.098987.108105.197974.207202.288062.315088.566895.593921,1.125,1.188062,1.700903,1.781982.108105.107886.206982.215991.315088.324097.620947.629956,1.259912,1.259912,1.907886,1.889868,1.377026,1.331982,2.808105,2.636938,4.275,3.906079.036035.027026.063062.054053.099097.090088,4.770044,4.121851,9.197974,8.603833,13.247974,13.42793.063062.07207.126013.15293.188965.225.9,1.070947,1.827026,2.123877,2.799097,3.140991.323877.350903.647974.684009.989868,1.025903.180066.188965.369141.37793.558105.567114.468018.467798.953943.927026,1.439978,1.385815.512952.477246,1.035022.954053,1.565991,1.42207.503943.440991,1.017004.872974,1.530066,1.305176.062952.053833.125903.098877.188965.15293.486035.395947.97196.791895,1.466895,1.169824.144141.117114.279053.225.423083.333105.440991.333105.881982.665991,1.331982.998877.044934.036035.098987.07207.15304.108105.548987.395947,1.106982.791895,1.673987,1.179053.594031.404956,1.19696.800903,1.808899,1.19707,0,0,.009009,0,.009009.008789.612048.387158,1.224097.765088,1.845044,1.143018.629956.378149,1.269031.738062,1.908105,1.098193.638965.359912,1.295947.711035,1.95293,1.061938.620947.324097,1.259912.638965,1.898987.953833.027026.018018.062952.036035.098987.045264.620947.305859,1.251013.60293,1.890088.890771.098877.045044.206982.090088.314868.144141.630066.279053,1.27804.557886,1.926123.82793.675.288062,1.359009.558105,2.043018.82793.062842.018018.125903.045044.188965.07207.684009.261035,1.377026.52207,2.078943.765088.675.243018,1.340991.468018,2.025.684009.144031.053833.278943.098877.423083.143921.675.215991,1.359009.422974,2.051917.629956.764978.225,1.530066.440991,2.312952.647974.774097.206982,1.565991.405176,2.358105.594141.656982.161938,1.313965.314868,1.979956.45.288062.062842.585022.125903.872974.188965.585022.125903,1.170044.234009,1.754956.350903.162048.027026.333105.063062.495044.090088.684009.125903,1.377026.243018,2.070044.359912.243018.036035.495044.081079.74696.117114.585022.090088,1.170044.179956,1.755066.261035.368921.044824.737952.098877,1.106982.143921.548987.07207,1.106982.135132,1.664978.197974.864075.099097,1.737048.188965,2.610022.261035.881982.080859,1.772974.15293,2.663965.206982.656982.045044,1.331982.081079,1.997974.116895.29707.018018.60304.027246.909009.045044.720044.027026,1.449097.054053,2.17804.07207.234009,0,.476917.009009.719934.009009.801123.018018,1.602026.027026,2.412048.027026h.035925c.846057,0,1.701123-.009009,2.565088-.027026.368921-.009009.738062-.018018,1.115991-.036035.74707-.009009,1.493921-.036035,2.25-.07207.945044-.036035,1.907996-.089868,2.870947-.15293.405066-.027026.810132-.054053,1.224097-.090088.548877-.035815,1.097974-.071851,1.655969-.125903.251917-.018018.512952-.036035.773987-.063062,2.988062-.261035,5.985022-.323877,8.981982-.089868.063062.009009.135022.009009.197974.018018.29707.027026.60304.045044.9.063062,13.65304.845947,26.280066-4.779053,35.676123-14.679053.584912-.612158,1.160925-1.242114,1.718921-1.890088,2.240991-2.601123,4.265991-5.445044,6.056982-8.522974.45-.765088.881982-1.547974,1.295947-2.340088.414075-.800903.819141-1.602026,1.206079-2.429956.576013-1.233105,1.115991-2.493018,1.620044-3.779956.665991-1.718921,1.268921-3.482886,1.8-5.292114.260925-.9.512952-1.818018.737952-2.744824.693018-2.817114,1.223987-5.742114,1.556982-8.738965.126013-1.098193.225-2.214185.287952-3.339185.171057,2.070044.315088,3.717114.15304,4.518018Z" fill="#865924"/><path d="M398.574978,143.24047c-.008899.405176-.017908.801123-.026917,1.206079-.027026.963062-.07207,1.925903-.117114,2.879956-.018018.495044-.053943.981079-.089868,1.467114-.009009.179956-.018018.359912-.036035.539868-.036035.594141-.081079,1.19707-.135022,1.791211-.045044.566895-.098987,1.133789-.15304,1.709912-.027026.206982-.045044.422974-.07196.638965-.045044.477026-.098987.954053-.15304,1.430859-.07196.585132-.15293,1.170264-.225,1.755176-.045044.359912-.089978.711035-.15293,1.070947-.126123.936035-.270044,1.863062-.431982,2.790088-.027026.170947-.054053.341895-.081079.504053-.126013.719824-.252026,1.448877-.395947,2.168921-.117114.611938-.243018,1.223877-.369031,1.827026,0,.036035-.009009.062842-.018018.098877,0,.009009,0,.018018-.009009.027026-.107996.504053-.215991.999097-.323987,1.503149-.107996.467798-.215991.935815-.323987,1.403833-.089978.404956-.189075.800903-.29696,1.206079-.135132.557886-.279053,1.115991-.422974,1.673877-.135132.513062-.270044,1.017114-.414075,1.530176-.234009.818921-.477026,1.646851-.719934,2.465771-.342114,1.116211-.693018,2.232202-1.071057,3.339185-.423083,1.259912-.873083,2.520044-1.340991,3.770947-.234009.620947-.477026,1.250903-.720044,1.87207-.242908.620947-.494934,1.241895-.755969,1.863062-.243018.593921-.495044,1.187842-.756079,1.781982-.017908.044824-.044934.089868-.053943.134912-.260925.593921-.530969,1.179053-.801013,1.772974-.279053.611938-.557996,1.214868-.854956,1.827026-1.449097,3.033105-3.042004,6.020947-4.779053,8.954956-.287952.486035-.575903.963062-.872974,1.449097-.054053.098877-.117004.197974-.179956.296851-2.268018,3.690088-5.436035,10.008105-7.04707,14.031079-.252026.620947-.512952,1.251123-.773987,1.863062-.242908.557886-.485925,1.115991-.737952,1.673877-.252026.567114-.513062,1.125-.774097,1.692114-.251917.530859-.512952,1.061938-.773877,1.593018-.036035.089868-.081079.170947-.126123.261035l-.675,1.322754c-.323877.630176-.656982,1.251123-.998877,1.863062-.288062.513062-.567114,1.026123-.864075,1.529956v.018018c-.314978.531079-.621057,1.062158-.944934,1.584229-.351123.593921-.720044,1.187842-1.088965,1.772754-.225.351123-.45.702246-.684009,1.053149-.396057.620947-.810132,1.232886-1.233105,1.836035-.341895.503833-.702026,1.007886-1.061938,1.511938-.045044.07207-.099097.143921-.15304.215991-.675.927026-1.359009,1.836035-2.069934,2.736035-1.080066,1.377026-2.205066,2.718018-3.365991,4.031982-.37804.440991-.774097.863965-1.170044,1.295947-.225.252026-.459009.495044-.693018.738062-.279053.305859-.557996.593921-.845947.890991l-.07207.071851c-.413965.432202-.836938.855176-1.268921,1.278149-.387048.386938-.783105.774097-1.188062,1.161035-.117004.107886-.234009.215991-.351013.332886-.37804.351123-.764978.702026-1.151917,1.062158-1.42207,1.286938-2.898083,2.537842-4.419141,3.75293-.332886.270044-.675.540088-1.025903.809912-.279053.206982-.558105.423193-.837048.630176-.854956.647754-1.72804,1.286938-2.619031,1.907886-2.510925,1.754956-5.129956,3.402026-7.865991,4.931982-.477026.270044-.953943.531079-1.439978.792114-.080969.044824-.162048.089868-.242908.134912-.52207.270044-1.053149.548877-1.584009.818921-.549097.279053-1.098083.558105-1.656079.828149-.009009,0-.018018.008789-.027026.018018-.539978.251807-1.079956.512842-1.628943.764868-.036035.018018-.07196.036035-.107996.054053-.440991.206982-.881982.404956-1.331982.60293-.792114.351123-1.602026.702026-2.412048,1.035132-.431982.179956-.863965.350903-1.296057.521851-1.313965.531079-2.654956,1.026123-4.004956,1.494141-.539978.197974-1.079956.37793-1.629053.557886-1.871851.630176-3.779956,1.206079-5.723877,1.737158-1.287048.350903-2.592114.675-3.915088.989868-.611938.143921-1.232886.288062-1.853943.413965-.396057.099097-.792004.179956-1.187952.252026-.440991.099097-.890991.188965-1.35.279053-.990088.197974-1.989075.37793-3.006079.540088-.413965.080859-.818921.143921-1.232996.206982-.638965.107886-1.27804.206982-1.917004.287842-.584912.090088-1.179053.170947-1.772974.243018-.054053.018018-.107996.018018-.170947.018018-.558105.081079-1.125.144141-1.692114.206982-.215991.036035-.431982.054053-.647974.07207-.611938.07207-1.241895.134912-1.862952.197974h-.027026c-.728943.07207-1.448987.135132-2.187048.188965-.539868.045044-1.079956.081079-1.619934.117114s-1.080066.071851-1.628943.098877c-.405066.027026-.810132.045044-1.224097.063062-2.259009.107886-4.57196.161938-6.911938.161938-.711035,0-1.42207-.009009-2.142114-.018018-.692908-.009009-1.403943-.018018-2.105859-.044824-1.494141-.036035-2.99707-.099097-4.509009-.180176-3.204053-.179956-6.408105-.179956-9.60304.081079-13.536035,1.106982-26.109009-4.149097-35.603943-13.643921-.594141-.594141-1.179053-1.206079-1.755066-1.836035-2.573987-2.835132-4.896057-5.994141-6.90304-9.440991-.440991-.765088-.881982-1.547974-1.295947-2.340088-.206982-.395947-.413965-.792114-.611938-1.196851-.801123-1.611035-1.548083-3.276123-2.214075-4.986035-.332996-.855176-.648083-1.719141-.953943-2.601123-.306079-.881982-.585132-1.772974-.855066-2.672974-.396057-1.35-.755969-2.727026-1.071057-4.12207-.215991-.935815-.404956-1.880859-.575903-2.834912-.261035-1.431079-.477026-2.879956-.647974-4.34707-.288062-2.456982-.45-4.959009-.477026-7.514868,0-.153149-.027026-.288062-.045044-.431982-.134912-.855176,0-2.484229.170947-4.509229.288062,4.815088,1.062048,9.441211,2.259009,13.815088.243018.918018.513062,1.818018.792114,2.709009,1.27793,4.004956,2.915991,7.785132,4.859912,11.286035.431982.782886.881982,1.547974,1.340991,2.295044.468018.755859.945044,1.493921,1.431079,2.213965.243018.359912.494934.720044.74696,1.070947.512952.711035,1.026013,1.404053,1.556982,2.079053.269934.341895.539978.675.810022,1.008105.818921.989868,1.664978,1.943921,2.54707,2.861938.296851.306079.584912.611938.890991.909009,9.494934,9.504053,22.067908,14.750903,35.603943,13.643921,3.185925-.261035,6.398987-.261035,9.594031-.081079,1.205969.063062,2.40293.117114,3.581982.153149.584912.018018,1.170044.035815,1.754956.053833.576013.009229,1.161035.018018,1.736938.027246,3.087158.035815,6.111035-.018018,9.063062-.171167,1.602026-.071851,3.186035-.179956,4.752026-.314868.782996-.07207,1.556982-.144141,2.330969-.216211,1.548083-.15293,3.07804-.332886,4.580969-.548877.567114-.081079,1.134009-.15293,1.692114-.243018.845947-.126123,1.673877-.261035,2.510925-.404956,2.484009-.422974,4.923083-.927026,7.298987-1.493921.531079-.126123,1.062048-.252246,1.584009-.387158.52207-.125903,1.044031-.261035,1.565991-.404956,1.035022-.279053,2.061035-.575903,3.07804-.872974.503943-.15293,1.007996-.306079,1.512048-.468018.675-.206982,1.331982-.431982,1.997974-.647974.989978-.333105,1.970947-.684009,2.934009-1.035132.97196-.350903,1.934912-.728833,2.879956-1.115771,1.260022-.513062,2.502026-1.044141,3.726013-1.593018.612048-.279053,1.223987-.558105,1.826917-.846167.603149-.288062,1.19707-.575903,1.790991-.872974.576123-.29707,1.152026-.593921,1.728149-.890991.593921-.306079,1.178943-.629956,1.763965-.954053.575903-.323877,1.143018-.647974,1.709912-.971851,1.125-.656982,2.231982-1.331982,3.312048-2.025.530969-.333105,1.05304-.675,1.565991-1.017114.053943-.036035.107996-.071851.162048-.116895.495044-.324097.989978-.665991,1.475903-1.008105.558105-.37793,1.106982-.774097,1.656079-1.178833.477026-.360132.954053-.711035,1.42196-1.071167.503943-.386938,1.007996-.774097,1.494031-1.170044.495044-.395947.980969-.791895,1.467004-1.196851.396057-.333105.792004-.665991,1.187952-.999097.567114-.486035,1.125-.980859,1.674097-1.484912.440991-.405176.890991-.819141,1.322974-1.224097.927026-.881982,1.836035-1.772974,2.709009-2.681982.404956-.413965.800903-.836938,1.19696-1.259912,1.439978-1.539185,2.817004-3.122974,4.12196-4.752026.612048-.74707,1.206079-1.512158,1.8-2.286035.342114-.468018.693018-.927026,1.026013-1.395044.225-.314868.45-.620947.666101-.936035,1.340991-1.898877,2.600903-3.842798,3.788965-5.840991.243018-.395947.477026-.800903.702026-1.19707q.009009-.008789.009009-.017798c.296851-.504053.584912-1.017114.863965-1.529956.179956-.315088.350903-.630176.52196-.954053.225-.431982.45-.863965.684009-1.295947,1.331982-2.601123,2.555969-5.283105,3.653943-8.019141.018018-.036035.027026-.07207.045044-.108105,1.629053-4.013965,4.752026-10.268921,7.011035-13.922754.161938-.270044.323987-.531079.486035-.801123,1.286938-2.123877,2.501917-4.293018,3.635925-6.479956.351013-.665991.693018-1.340991,1.026013-2.015991.702026-1.413062,1.368018-2.826123,2.006982-4.265991.234009-.540088.468018-1.071167.702026-1.611035.359912-.828149.702026-1.665088,1.034912-2.511035.252026-.629956.504053-1.259912.738062-1.899097.225-.593921.45-1.196851.665991-1.8.576013-1.575,1.106982-3.168018,1.602026-4.760815.197974-.629956.386938-1.260132.567004-1.890088.162048-.513062.305969-1.025903.440991-1.547974.126013-.413965.234009-.82793.342004-1.241895.134912-.495044.261035-.999097.386938-1.494141.162048-.629956.315088-1.250903.459009-1.880859.117114-.468018.225-.945044.324097-1.413062.107886-.477026.206982-.945044.305969-1.42207.126013-.584912.242908-1.170044.351013-1.763965.143921-.729053.270044-1.449097.395947-2.178149.090088-.530859.179956-1.061938.261035-1.592798.125903-.729053.234009-1.449097.323987-2.178149.009009-.036035.018018-.080859.018018-.116895.008899-.036035.017908-.063062.017908-.099097.018018-.125903.036035-.252026.045044-.37793.090088-.620947.170947-1.242114.234009-1.863062.045044-.350903.090088-.711035.117004-1.061938.107996-.918018.198083-1.836035.269934-2.763062.045044-.486035.081079-.980859.108105-1.466895.098987-1.322974.170947-2.645947.215991-3.969141.018018.369141.027026.729053.036035,1.098193.018018.296851.027026.593921.027026.890771.026917,1.440088.026917,2.880176.008899,4.311035Z" fill="#865924"/><path d="M206.217996,201.632584c-.52196-4.661938-2.25-8.756982-6.867004-9.656982-.323987-.063062-.665991-.054053-.980969.009009-4.626013.97207-6.353943,5.048877-6.876013,9.656982-.306079-4.247974-.477026-9.576123,1.188062-13.409912,1.043921-2.403149,2.798877-4.230176,5.678943-4.833105.323987-.063062.665991-.063062.989978,0,7.425,1.440088,7.379956,11.168921,6.867004,18.234009Z" fill="#865924"/><path d="M398.566079,134.672452c-.009009.360132-.009009.711035-.027026,1.071167-.009009.37793-.018018.773877-.036035,1.152026v.044824c-.045044,1.323193-.117004,2.646167-.215991,3.969141-.027026.486035-.063062.980859-.108105,1.466895-.071851.927026-.161938,1.845044-.269934,2.763062-.026917.350903-.07196.711035-.117004,1.061938-.063062.620947-.143921,1.242114-.234009,1.863062-.009009.125903-.027026.252026-.045044.37793,0,.036035-.009009.063062-.017908.099097,0,.036035-.009009.080859-.018018.116895-.089978.729053-.198083,1.449097-.323987,2.178149-.081079.530859-.170947,1.061938-.261035,1.592798-.125903.729053-.252026,1.449097-.395947,2.178149-.108105.593921-.225,1.179053-.351013,1.763965-.098987.477026-.198083.945044-.305969,1.42207-.099097.468018-.206982.945044-.324097,1.413062-.143921.629956-.29696,1.250903-.459009,1.880859-.125903.495044-.252026.999097-.386938,1.494141-.107996.413965-.215991.82793-.342004,1.241895-.135022.52207-.278943,1.034912-.440991,1.547974-.180066.629956-.369031,1.260132-.567004,1.890088-.495044,1.592798-1.026013,3.185815-1.602026,4.760815-.215991.603149-.440991,1.206079-.665991,1.8-.234009.639185-.486035,1.269141-.738062,1.899097-.332886.845947-.675,1.682886-1.034912,2.511035-.234009.539868-.468018,1.070947-.702026,1.611035-.638965,1.439868-1.304956,2.85293-2.006982,4.265991-.332996.675-.675,1.35-1.026013,2.015991-1.134009,2.186938-2.348987,4.356079-3.635925,6.479956-.162048.270044-.324097.531079-.486035.801123-1.322974,2.150903-2.727026,4.275-4.20304,6.344824-.15304.215991-.269934.45-.351013.702026-.738062,2.331079-1.556982,4.625903-2.456982,6.875903-.018018.036035-.027026.07207-.045044.108105-1.097974,2.736035-2.32196,5.418018-3.653943,8.019141-.234009.431982-.459009.863965-.684009,1.295947-.171057.323877-.342004.638965-.52196.954053-.279053.512842-.567114,1.025903-.863965,1.529956q0,.009009-.009009.017798c-.225.396167-.459009.801123-.702026,1.19707-1.188062,1.998193-2.447974,3.942114-3.788965,5.840991-.216101.315088-.441101.621167-.666101.936035-.332996.468018-.683899.927026-1.026013,1.395044-.593921.773877-1.187952,1.538965-1.8,2.286035-1.304956,1.629053-2.681982,3.212842-4.12196,4.752026-.396057.422974-.792004.845947-1.19696,1.259912-.872974.909009-1.781982,1.8-2.709009,2.681982-.431982.404956-.881982.818921-1.322974,1.224097-.549097.504053-1.106982.998877-1.674097,1.484912-.395947.333105-.791895.665991-1.187952.999097-.486035.404956-.97196.800903-1.467004,1.196851-.486035.395947-.990088.783105-1.494031,1.170044-.467908.360132-.944934.711035-1.42196,1.071167-.549097.404736-1.097974.800903-1.656079,1.178833-.485925.342114-.980859.684009-1.475903,1.008105-.054053.045044-.108105.080859-.162048.116895-.512952.342114-1.035022.684009-1.565991,1.017114-1.080066.693018-2.187048,1.368018-3.312048,2.025-.566895.323877-1.134009.647974-1.709912.971851-.585022.324097-1.170044.647974-1.763965.954053-.576123.29707-1.152026.593921-1.728149.890991-.593921.29707-1.187842.584912-1.790991.872974-.60293.288062-1.214868.567114-1.826917.846167-1.223987.548877-2.465991,1.079956-3.726013,1.593018-.945044.386938-1.907996.764868-2.879956,1.115771-.963062.351123-1.944031.702026-2.934009,1.035132-.665991.215991-1.322974.440991-1.997974.647974-.504053.161938-1.008105.315088-1.512048.468018-1.017004.29707-2.043018.593921-3.07804.872974-.52196.143921-1.043921.279053-1.565991.404956-.52196.134912-1.05293.261035-1.584009.387158-1.781982.422754-3.6.809912-5.445044,1.160815-.611938.117114-1.232886.225-1.853943.333105-.837048.143921-1.664978.278833-2.510925.404956-.558105.090088-1.125.161938-1.692114.243018-1.50293.206982-3.032886.386938-4.580969.548877-.773987.07207-1.547974.144141-2.330969.216211-1.565991.125903-3.15.233789-4.752026.314868-2.952026.153149-5.975903.206982-9.063062.171167-.575903-.009229-1.160925-.018018-1.736938-.027246-.584912-.018018-1.170044-.035815-1.754956-.053833-1.179053-.036035-2.376013-.090088-3.581982-.153149-1.772974-.098877-3.563965-.225-5.381982-.386938-.206982-.018018-.414075-.009009-.621057.027026-1.205969.197974-2.40304.341895-3.590991.440991-13.536035,1.106982-26.109009-4.139868-35.603943-13.643921-.306079-.29707-.594141-.60293-.890991-.909009-.882092-.918018-1.728149-1.87207-2.54707-2.861938-.270044-.333105-.540088-.666211-.810022-1.008105-.530969-.675-1.044031-1.368018-1.556982-2.079053-.252026-.350903-.503943-.711035-.74696-1.070947-.486035-.720044-.963062-1.458105-1.431079-2.213965-.459009-.74707-.909009-1.512158-1.340991-2.295044-1.943921-3.500903-3.581982-7.281079-4.859912-11.286035-.279053-.890991-.549097-1.790991-.792114-2.709009-1.19696-4.373877-1.970947-9-2.259009-13.815088-.080859-1.205859-.125903-2.420947-.134912-3.644824,0-.144141-.018018-.288062-.045044-.431982-.179956-1.161035.126013-3.726123.351013-6.795044.512952-7.065088.557996-16.793921-6.867004-18.234009-.323987-.063062-.665991-.063062-.989978,0-2.880066.60293-4.635022,2.429956-5.678943,4.833105-1.665088,3.833789-1.494141,9.161938-1.188062,13.409912.215991,2.952026.513062,5.381982.305969,6.416895-.008899,1.368018-.062952,2.718018-.15304,4.059009-.062952,1.125-.161938,2.240991-.287952,3.339185-.332996,2.996851-.863965,5.921851-1.556982,8.738965-.225.926807-.477026,1.844824-.737952,2.744824-.531079,1.809229-1.134009,3.573193-1.8,5.292114-.504053,1.286938-1.044031,2.546851-1.620044,3.779956-.386938.82793-.792004,1.629053-1.206079,2.429956-.413965.792114-.845947,1.575-1.295947,2.340088-1.790991,3.07793-3.815991,5.921851-6.056982,8.522974-.557996.647974-1.134009,1.27793-1.718921,1.890088-9.396057,9.9-22.023083,15.525-35.676123,14.679053-.29696-.018018-.60293-.036035-.9-.063062-.062952-.009009-.134912-.009009-.197974-.018018-1.097974-.099097-2.195947-.234009-3.30293-.414185-.234009-.035815-.477026-.044824-.711035-.017798-1.935022.234009-3.852026.431982-5.742004.584912-.557996.054053-1.107092.090088-1.655969.125903-.413965.036035-.819031.063062-1.224097.090088-.962952.063062-1.925903.116895-2.870947.15293-.756079.036035-1.50293.063062-2.25.07207-.37793.018018-.74707.027026-1.115991.036035-.863965.018018-1.719031.027026-2.565088.027026h-.035925c-.810022,0-1.610925-.009009-2.412048-.027026-.243018,0-.485925-.009009-.719934-.009009-.728943-.018018-1.457996-.045044-2.17804-.07207-.305969-.017798-.611938-.027026-.909009-.045044-.665991-.035815-1.340991-.071851-1.997974-.116895-.890991-.054053-1.781982-.126123-2.663965-.206982-.872974-.07207-1.745947-.161938-2.610022-.261035-.557996-.062842-1.115991-.125903-1.664978-.197974-.369031-.045044-.738062-.099097-1.106982-.143921-.585022-.081079-1.170044-.170947-1.755066-.261035-.251917-.036035-.503943-.081079-.74696-.117114-.693018-.116895-1.386035-.234009-2.070044-.359912-.161938-.027026-.332996-.063062-.495044-.090088-.584912-.116895-1.169934-.225-1.754956-.350903-.287952-.063062-.584912-.126123-.872974-.188965-.665991-.135132-1.322974-.288062-1.979956-.45-.792114-.188965-1.584009-.387158-2.358105-.594141-.782886-.206982-1.547974-.422974-2.312952-.647974-.692908-.206982-1.376917-.413965-2.051917-.629956-.144141-.045044-.279053-.090088-.423083-.143921-.684009-.215991-1.35-.440991-2.025-.684009-.701917-.243018-1.394934-.504053-2.078943-.765088-.063062-.027026-.126123-.054053-.188965-.07207-.684009-.269824-1.368018-.539868-2.043018-.82793-.648083-.270044-1.296057-.548877-1.926123-.82793-.107886-.054053-.215991-.099097-.314868-.144141-.639075-.287842-1.269141-.584912-1.890088-.890771-.036035-.009229-.07196-.027246-.098987-.045264-.639075-.314868-1.27804-.629736-1.898987-.953833-.656982-.350903-1.313965-.702026-1.95293-1.061938-.639075-.360132-1.278149-.720044-1.908105-1.098193-.620947-.37793-1.232996-.755859-1.845044-1.143018,0-.008789-.009009-.008789-.009009-.008789-.611938-.396167-1.214868-.792114-1.808899-1.19707-.567004-.387158-1.125-.783105-1.673987-1.179053-.054053-.036035-.108105-.07207-.15304-.108105-.45-.332886-.890991-.665771-1.331982-.998877-.144031-.108105-.278943-.215991-.423083-.333105-.494934-.37793-.980859-.773877-1.466895-1.169824-.063062-.054053-.126013-.099097-.188965-.15293-.513062-.432202-1.026123-.864185-1.530066-1.305176-.530969-.468018-1.05304-.944824-1.565991-1.42207-.486035-.458789-.97196-.918018-1.439978-1.385815-.188965-.189185-.37804-.378149-.558105-.567114-.341895-.341895-.665991-.675-.989868-1.025903-.97207-1.017114-1.899097-2.070044-2.799097-3.140991-.062952-.07207-.125903-.15293-.188965-.225-1.763965-2.133105-3.393018-4.365088-4.895947-6.705176-.180066-.269824-.405066-.512842-.675-.701807-2.681982-1.917114-5.238062-3.924097-7.677026-6.020947-.036035-.036035-.063062-.063062-.099097-.090088-1.466895-1.269141-2.897974-2.574097-4.275-3.906079-.647974-.629956-1.286938-1.259912-1.907886-1.889868-.108105-.108105-.206982-.216211-.315088-.324097-.575903-.593921-1.134009-1.188062-1.700903-1.781982-.090088-.107886-.189075-.206982-.288062-.315088-.530969-.575903-1.05293-1.160815-1.575-1.754956-.045044-.054053-.098987-.116895-.15293-.179956-.612048-.702026-1.215088-1.404053-1.8-2.115088-.027026-.027026-.045044-.053833-.07207-.080859-1.170044-1.413062-2.286035-2.844141-3.365991-4.311035-.018018-.018018-.036035-.045044-.054053-.07207-.431982-.584912-.854956-1.178833-1.27793-1.772974-.188965-.270044-.37804-.540088-.557996-.809912-.45-.648193-.891101-1.295947-1.323083-1.953149-.503943-.773877-1.007886-1.556982-1.493921-2.348877l-.009009-.009009c-.413965-.675-.819031-1.359009-1.223987-2.043018-.107996-.197974-.225-.387158-.342004-.584912-.351013-.612158-.693018-1.224097-1.035022-1.845044-.539978-.999097-1.071057-2.007202-1.593018-3.024097-.305969-.611938-.612048-1.233105-.917908-1.862842-.090088-.189185-.180066-.378149-.270044-.567114-.306079-.656982-.612048-1.313965-.9-1.970947-.819031-1.836035-1.584009-3.690088-2.295044-5.561938-.206982-.558105-.413965-1.116211-.611938-1.683105-.126123-.333105-.243018-.675-.360022-1.016895-.216101-.612158-.423083-1.224097-.621057-1.845264-.089978-.287842-.188965-.575903-.278943-.863965-.162048-.512842-.314978-1.025903-.468018-1.538965-.053943-.161938-.098987-.323877-.144031-.486035-.098987-.341895-.197974-.683789-.287952-1.025903-.342004-1.179053-.648083-2.367114-.945044-3.563965-.098987-.422974-.197974-.846167-.29696-1.260132-.117004-.512842-.234009-1.034912-.351013-1.547974-.098987-.467798-.189075-.945044-.287952-1.413062-.108105-.485815-.197974-.980859-.288062-1.484912-.089978-.504053-.179956-.998877-.261035-1.493921-.134912-.720044-.252026-1.449097-.350903-2.178149-.081079-.476807-.15304-.953833-.206982-1.439868-.108105-.792114-.207092-1.593018-.29707-2.393921l-.161938-1.512158c-.054053-.504053-.099097-1.007886-.135132-1.511938-.044934-.504053-.080859-1.007886-.116895-1.520947-.045044-.513062-.07207-1.026123-.099097-1.539185-.026917-.494824-.053943-.998877-.07196-1.50293-.008899-.107886-.008899-.206982-.008899-.314868-.045044-.846167-.063062-1.701123-.081079-2.54707,0-.161938-.009009-.314868,0-.468018-.027026-1.988965,0-3.986938.089978-5.975903.036035-.783105.080969-1.566211.126013-2.340088v-.063062c.054053-.782886.117004-1.556982.179956-2.339868.063062-.702026.126123-1.404053.197974-2.106079.009009-.125903.027026-.252026.045044-.37793.099097-.918018.206982-1.836035.333105-2.754053.089868-.684009.188965-1.377026.296851-2.061035.099097-.693018.216101-1.377026.333105-2.070044.116895-.719824.243018-1.439868.386938-2.150903.126013-.675.261035-1.35.404956-2.025.036035-.161938.07207-.332886.108105-.504053.027026-.161938.062952-.314868.098987-.477026.15304-.665991.305969-1.340991.459009-2.006982,0-.009009.008899-.027026.017908-.036035.162048-.711035.342114-1.421851.52207-2.132886.027026-.108105.054053-.215991.081079-.324097.179956-.665991.359912-1.331982.548877-2.006982.027026-.107886.054053-.215991.090088-.323877.215991-.74707.431982-1.494141.665991-2.241211.477026-1.556982.980969-3.104736,1.529956-4.65293.081079-.234009.126013-.476807.144031-.719824.07196-1.503149.171057-3.006079.29696-4.5,0-.090088.009009-.189185.027026-.279053.009009-.170947.018018-.333105.036035-.504053.07196-.854956.161938-1.709912.252026-2.565088,0-.054053.009009-.098877.017908-.15293.089978-.809912.189075-1.611035.29696-2.40293.009009-.135132.027026-.270044.054053-.405176.098987-.746851.206982-1.493921.323987-2.240771,0-.054053.009009-.117114.027026-.171167.107996-.746851.234009-1.493921.369031-2.240991.027026-.215991.062952-.422974.116895-.638965.126123-.720044.261035-1.440088.405066-2.151123.053943-.278833.107996-.557886.171057-.82793,0-.044824.009009-.080859.027026-.116895.089868-.459009.179956-.909009.278943-1.359009.053943-.252026.107996-.495044.171057-.738062.116895-.540088.242908-1.070947.37793-1.602026.054053-.278833.126013-.566895.206982-.845947.15293-.629956.315088-1.250903.477026-1.87207.036035-.170947.080969-.332886.134912-.495044.153149-.575903.315088-1.143018.486035-1.709912.081079-.333105.179956-.665991.288062-.998877.15293-.52207.314978-1.044141.477026-1.566211.062952-.233789.134912-.468018.215991-.693018.206982-.638965.413965-1.268921.629956-1.907886.054053-.161938.107996-.314868.161938-.468018.215991-.629956.440991-1.268921.684009-1.899097.054053-.179736.117114-.359912.189075-.530859.269934-.720044.539978-1.440088.82804-2.151123-.009009-.018018,0-.026807.018018-.044824.233899-.60293.476917-1.19707.719934-1.790991.126013-.324097.260925-.639185.405066-.954053.242908-.585132.503943-1.170044.755859-1.745947.036035-.090088.081079-.179956.126123-.270044.341895-.765088.693018-1.520947,1.05293-2.268018.323987-.675.647974-1.35.990088-2.015991.062842-.143921.134912-.279053.206982-.413965.341895-.665991.693018-1.331982,1.043921-1.997974.027026-.063062.063062-.126123.099097-.180176.233899-.431982.467908-.863965.710925-1.286938.215991-.413965.45-.818921.684009-1.224097.369031-.656982.755969-1.304736,1.142908-1.943921.423083-.702026.864075-1.413062,1.305066-2.106079.360022-.557886.719934-1.125,1.089075-1.673877.566895-.872974,1.151917-1.72793,1.754956-2.573877.477026-.675.963062-1.341211,1.457996-2.006982.52196-.711035,1.05304-1.404053,1.601917-2.09707.52207-.675,1.062048-1.340991,1.602026-1.998193,2.169031-2.645947,4.490991-5.183789,6.947974-7.613965.440991-.440771.890991-.872974,1.340991-1.295947.171057-.170947.342114-.341895.52207-.504053.540088-.503833,1.079956-.998877,1.629053-1.493921.098877-.089868.197974-.179956.29696-.270044.45-.404956.918018-.809912,1.385925-1.214868.234009-.197974.468018-.404956.702026-.594141.486035-.422974.981079-.82793,1.485022-1.232886.477026-.387158.953943-.774097,1.448987-1.161035,1.584009-1.251123,3.22207-2.456982,4.904956-3.618018.648083-.45,1.296057-.890991,1.962158-1.322974.60293-.404956,1.214868-.792114,1.835925-1.188062.144031-.090088.287952-.179956.431982-.269824.621057-.387158,1.242004-.765088,1.87196-1.143018.126123-.07207.261035-.153149.396057-.234229.647974-.37793,1.296057-.755859,1.962048-1.125.863965-.485815,1.72793-.953833,2.618921-1.412842.738062-.395947,1.485022-.774097,2.240991-1.152026.045044-.018018.081079-.036035.117114-.054053.791895-.386938,1.583899-.774097,2.384912-1.143018.018018-.009009.036035-.018018.063062-.027026.818921-.37793,1.64696-.755859,2.484009-1.115991.009009,0,.009009-.009009.018018-.009009.82793-.359912,1.673877-.711035,2.519934-1.05293.026917-.009009.053943-.027026.080969-.036035.82804-.332886,1.656079-.656982,2.502026-.97207.054053-.026807.107996-.044824.161938-.062842.656982-.252026,1.314075-.486035,1.989075-.729053.260925-.098877.530969-.188965.801013-.279053.684009-.234009,1.368018-.468018,2.061035-.693018.206982-.071851.404956-.134912.611938-.197974.792004-.252026,1.602026-.503833,2.40293-.738062.881982-.260815,1.773083-.521851,2.664075-.764868.062952-.018018.117004-.027026.171057-.045044.917908-.243018,1.835925-.486035,2.762952-.711035.675-.170947,1.358899-.332886,2.042908-.486035.378149-.089868.74707-.170947,1.125-.251807.864075-.188965,1.728149-.369141,2.610132-.540088.755859-.15293,1.511938-.29707,2.276917-.431982.07196-.018018.15304-.027026.225-.036035.29696-.063062.594031-.108105.891101-.161938.854956-.143921,1.709912-.279053,2.573877-.414185,1.008105-.15293,2.025-.296851,3.051123-.422754,1.016895-.135132,2.042908-.252246,3.07793-.369141.027026,0,.054053-.009009.080969-.009009,1.026013-.107886,2.052026-.197974,3.087048-.288062.962952-.080859,1.934912-.15293,2.906982-.215771.161938-.018018.314978-.027246.468018-.027246.954053-.062842,1.898987-.107886,2.861938-.15293.15304-.009009.29707-.018018.45-.018018.97207-.036035,1.944031-.07207,2.925-.089868h.099097c1.097974-.027026,2.204956-.036035,3.320947-.036035h.009009c.998987,0,2.006982.009009,3.014978.027026.737952.009009,1.476013.026807,2.223083.054053.431982.008789.872974.026807,1.313965.044824,1.898877.081079,3.815991.188965,5.759912.324097.197974.009009.387048,0,.585022-.027026,1.620044-.252026,3.267004-.495044,4.914075-.711035.15293-.018018.29696-.036035.45-.054053.620947-.080859,1.241895-.15293,1.87196-.225.962952-.116895,1.935022-.215991,2.897974-.314868.855066-.081079,1.701013-.153149,2.555969-.215991.315088-.027026.621057-.045044.927026-.063062.369031-.027026.74707-.054053,1.115991-.07207.45-.027026.9-.053833,1.340991-.071851.15304-.009009.29707-.018018.440991-.018018.342114-.018018.684009-.027026,1.026123-.036035,6.668921-.197974,13.157886.287842,18.962842,1.95293.387158.108105.765088.215991,1.134009.342114,1.251123.395947,2.457092.845947,3.627026,1.367798.431982.180176.863965.378149,1.27804.585132.405066.197974.810022.404956,1.205969.629956,1.529956.82793,2.979053,1.790991,4.338062,2.888965.422974.342114.836938.702026,1.241895,1.070947,0,0,.009009,0,.009009.009229.198083.179956.405066.368921.603149.566895,5.345947,5.202026,8.882886,12.97793,9.584912,24.309009-.080969,0-.080969,80.657886-.009009,90.881982.009009.468018.386938.818921.854956.818921h.07207c.459009.009229.845947-.350903.854956-.809912v-7.308105c-.018018-17.279956-.018018-56.780859,0-74.357886-.009009-4.779053,0-7.929053,0-8.586035.261035-3.52793.774097-6.704956,1.512048-9.575903q0-.009009.009009-.018018c.82804-3.22207,1.95304-6.047974,3.329956-8.522974.252026-.45.503943-.882202.764978-1.296167.477026-.764868.981079-1.493921,1.512048-2.195947.269934-.359912.548987-.711035.837048-1.043921.269934-.324097.548877-.638965.82793-.945044.188965-.206982.386938-.413965.585022-.611938,4.005066-4.086035,9.062952-6.651123,14.751013-8.145044.422974-.116895.845947-.225,1.27793-.323877.405066-.099097.819031-.189185,1.242114-.270264.468018-.098877.944934-.188965,1.42196-.269824.107996-.027026.215991-.045044.332996-.054053.477026-.090088.963062-.161938,1.457996-.234009.089978-.018018.188965-.027026.287952-.036035.486035-.071851.97207-.134912,1.467114-.179956,2.807886-.323877,5.714868-.459009,8.675903-.459009.711035,0,1.42207.009009,2.132996.027026.720044.009009,1.448987.036035,2.169031.063062.611938.027026,1.214978.053833,1.827026.089868.252026.009009.503943.027026.755969.045044.60304.036035,1.19696.07207,1.8.117114.701917.053833,1.403943.107886,2.105969.170947.036035,0,.063062.009009.099097.009009.737952.063062,1.475903.134912,2.204956.206982.270044.027026.539978.053833.809912.081079,1.206079.125903,2.412048.260815,3.609009.404956.144031.017798.279053.035815.422974.045044,2.286035.278833,4.563062.584912,6.813062.9.197974.026807.395947.035815.594031.018018,2.276917-.207202,4.526917-.360132,6.740991-.468018.053943,0,.117004-.009229.171057-.009229,4.823877-.233789,9.494934-.233789,14.02196-.018018.576013.018018,1.151917.054053,1.72804.090088.638965.036035,1.27793.081079,1.907886.126123,3.465088.261035,6.831079.647974,10.097974,1.151807.576123.090088,1.152026.180176,1.719141.279053.782886.135132,1.565991.279053,2.330859.423193.594141.116895,1.179053.225,1.755066.350903.755969.161938,1.512048.324097,2.259009.495044.97196.215991,1.935022.45,2.880066.701807.332886.081079.656982.171167.989868.261035,1.440088.387158,2.853149.801123,4.248083,1.233105.45.143921.890991.287842,1.331982.431982.539978.170947,1.071057.351123,1.593018.540088.503943.170947.998987.350903,1.485022.530859.638965.234009,1.268921.468018,1.898987.711035.431982.170947.854956.341895,1.27804.513062.512952.206982,1.016895.413965,1.520947.629956.495044.215991.989978.431982,1.493921.647974.495044.225.981079.440991,1.467114.675.486035.225.97196.459009,1.457886.693018.909009.440991,1.8.890991,2.682092,1.368018,1.169934.620947,2.312952,1.259912,3.437952,1.917114.422974.251807.837048.503833,1.251013.755859.342004.206982.684009.422974,1.017004.629956.413965.261035.810022.513062,1.215088.783105.431982.278833.854956.557886,1.27793.845947.009009.009009.009009.018018.018018.018018.422974.288062.845947.575903,1.259912.872974.45.315088.890991.638965,1.331982.963062.387158.278833.765088.566895,1.143018.854956.819141.620947,1.629053,1.259912,2.421057,1.908105.387048.323877.764978.638965,1.134009.962842.782996.665991,1.547974,1.340991,2.303943,2.025.729053.675,1.440088,1.359009,2.142114,2.052026.29696.288062.584912.585132.872974.881982,1.853943,1.890088,3.618018,3.861035,5.273987,5.913062l.810022,1.025903c.404956.513062.800903,1.035132,1.187952,1.565991.206982.270044.405066.540088.60304.819141.863965,1.187842,1.700903,2.40293,2.493018,3.644824.287952.431982.557886.864185.82793,1.305176.018018.026807.036035.062842.054053.089868.440991.702026.863965,1.413062,1.27793,2.133105.567114.981079,1.106982,1.970947,1.638062,2.970044,1.070947,2.043018,2.070044,4.130859,2.979053,6.272974.107886.260815.260925.495044.45.702026,1.817908,2.015991,3.545947,4.076807,5.183899,6.191895.512952.647974,1.017004,1.304956,1.50304,1.970947.170947.225.332996.441211.486035.666211.332886.440771.656982.890771.97196,1.340771.15304.206982.305969.413965.440991.630176.422974.584912.82804,1.179053,1.223987,1.772974.045044.063062.090088.125903.135022.197974.369031.548877.728943,1.097974,1.080066,1.655859.225.333105.431982.666211.638965,1.008105.413965.638965.809912,1.286938,1.19696,1.934912.323987.540088.639075,1.080176.944934,1.620044,1.781982,3.060132,3.393018,6.183105,4.851123,9.368921.225.486035.45.981079.656982,1.476123.468018,1.026123.909009,2.061035,1.322974,3.104956.197974.477026.395947.963062.575903,1.449097.117114.287842.234009.575903.342114.872974.134912.342114.261035.684009.386938,1.034912.243018.647974.477026,1.296167.702026,1.944141.009009.017798.018018.045044.018018.071851.215991.585132.413965,1.179053.60293,1.763965.135132.396167.261035.801123.387048,1.206079.107996.306079.198083.621167.287952.936035.144031.440991.279053.881982.414075,1.331982.692908,2.331079,1.304956,4.688965,1.835925,7.056079.171057.764868.342114,1.529956.495044,2.294824.107996.540088.215991,1.080176.315088,1.620044.269934,1.340991.494934,2.690991.701917,4.05.117004.729053.215991,1.449097.314978,2.178149,0,.018018.009009.036035,0,.054053.108105.764868.206982,1.529736.288062,2.294824.018018.15293.036035.306079.053943.459009.062952.540088.117004,1.071167.162048,1.602026.054053.513062.098987,1.034912.134912,1.547974.009009.063062.018018.125903.018018.188965.063062.738062.108105,1.485132.15304,2.222974.044934.621167.07196,1.251123.098987,1.87207.027026.594141.054053,1.19707.063062,1.790991.018018.342114.027026.675.027026,1.008105.035925,1.430859.035925,2.870947.009009,4.310815Z" fill="#e5c8a7"/><path d="M398.566079,134.672452c-.009009.360132-.009009.711035-.027026,1.071167-.009009.37793-.018018.773877-.036035,1.152026v.044824c-.045044,1.323193-.117004,2.646167-.215991,3.969141-.027026.486035-.063062.980859-.108105,1.466895-.071851.927026-.161938,1.845044-.269934,2.763062-.026917.350903-.07196.711035-.117004,1.061938-.063062.620947-.143921,1.242114-.234009,1.863062-.009009.125903-.027026.252026-.045044.37793,0,.036035-.009009.063062-.017908.099097,0,.036035-.009009.080859-.018018.116895-.089978.729053-.198083,1.449097-.323987,2.178149-.081079.530859-.170947,1.061938-.261035,1.592798-.125903.729053-.252026,1.449097-.395947,2.178149-.108105.593921-.225,1.179053-.351013,1.763965-.098987.477026-.198083.945044-.305969,1.42207-.099097.468018-.206982.945044-.324097,1.413062-.143921.629956-.29696,1.250903-.459009,1.880859-.125903.495044-.252026.999097-.386938,1.494141-.107996.413965-.215991.82793-.342004,1.241895-.135022.52207-.278943,1.034912-.440991,1.547974-.180066.629956-.369031,1.260132-.567004,1.890088-.495044,1.592798-1.026013,3.185815-1.602026,4.760815-.215991.603149-.440991,1.206079-.665991,1.8-.234009.639185-.486035,1.269141-.738062,1.899097-.332886.845947-.675,1.682886-1.034912,2.511035-.234009.539868-.468018,1.070947-.702026,1.611035-.638965,1.439868-1.304956,2.85293-2.006982,4.265991-.332996.675-.675,1.35-1.026013,2.015991-1.134009,2.186938-2.348987,4.356079-3.635925,6.479956-.162048.270044-.324097.531079-.486035.801123-2.259009,3.653833-5.381982,9.908789-7.011035,13.922754-.018018.036035-.027026.07207-.045044.108105-1.097974,2.736035-2.32196,5.418018-3.653943,8.019141-.234009.431982-.459009.863965-.684009,1.295947-.171057.323877-.342004.638965-.52196.954053-.279053.512842-.567114,1.025903-.863965,1.529956q0,.009009-.009009.017798c-.225.396167-.459009.801123-.702026,1.19707-1.188062,1.998193-2.447974,3.942114-3.788965,5.840991-.216101.315088-.441101.621167-.666101.936035-.332996.468018-.683899.927026-1.026013,1.395044-.593921.773877-1.187952,1.538965-1.8,2.286035-1.304956,1.629053-2.681982,3.212842-4.12196,4.752026-.396057.422974-.792004.845947-1.19696,1.259912-.872974.909009-1.781982,1.8-2.709009,2.681982-.431982.404956-.881982.818921-1.322974,1.224097-.549097.504053-1.106982.998877-1.674097,1.484912-.395947.333105-.791895.665991-1.187952.999097-.486035.404956-.97196.800903-1.467004,1.196851-.486035.395947-.990088.783105-1.494031,1.170044-.467908.360132-.944934.711035-1.42196,1.071167-.549097.404736-1.097974.800903-1.656079,1.178833-.485925.342114-.980859.684009-1.475903,1.008105-.054053.045044-.108105.080859-.162048.116895-.512952.342114-1.035022.684009-1.565991,1.017114-1.080066.693018-2.187048,1.368018-3.312048,2.025-.566895.323877-1.134009.647974-1.709912.971851-.585022.324097-1.170044.647974-1.763965.954053-.576123.29707-1.152026.593921-1.728149.890991-.593921.29707-1.187842.584912-1.790991.872974-.60293.288062-1.214868.567114-1.826917.846167-1.223987.548877-2.465991,1.079956-3.726013,1.593018-.945044.386938-1.907996.764868-2.879956,1.115771-.963062.351123-1.944031.702026-2.934009,1.035132-.665991.215991-1.322974.440991-1.997974.647974-.504053.161938-1.008105.315088-1.512048.468018-1.017004.29707-2.043018.593921-3.07804.872974-.52196.143921-1.043921.279053-1.565991.404956-.52196.134912-1.05293.261035-1.584009.387158-1.781982.422754-3.6.818921-5.445044,1.160815-.611938.117114-1.232886.225-1.853943.333105-.837048.143921-1.664978.278833-2.510925.404956-.558105.090088-1.125.161938-1.692114.243018-1.50293.215991-3.032886.395947-4.580969.548877-.773987.07207-1.547974.144141-2.330969.216211-1.565991.134912-3.15.243018-4.752026.314868-2.952026.153149-5.975903.206982-9.063062.171167-.575903-.009229-1.160925-.018018-1.736938-.027246-.584912-.018018-1.170044-.035815-1.754956-.053833-1.179053-.036035-2.376013-.090088-3.581982-.153149-3.195044-.179956-6.408105-.179956-9.594031.081079-13.536035,1.106982-26.109009-4.139868-35.603943-13.643921-.306079-.29707-.594141-.60293-.890991-.909009-.882092-.918018-1.728149-1.87207-2.54707-2.861938-.270044-.333105-.540088-.666211-.810022-1.008105-.530969-.675-1.044031-1.368018-1.556982-2.079053-.252026-.350903-.503943-.711035-.74696-1.070947-.486035-.720044-.963062-1.458105-1.431079-2.213965-.459009-.74707-.909009-1.512158-1.340991-2.295044-1.943921-3.500903-3.581982-7.281079-4.859912-11.286035-.279053-.890991-.549097-1.790991-.792114-2.709009-1.19696-4.373877-1.970947-9-2.259009-13.815088-.080859-1.205859-.125903-2.420947-.134912-3.644824,0-.144141-.018018-.288062-.045044-.431982-.179956-1.161035.126013-3.726123.351013-6.795044.512952-7.065088.557996-16.793921-6.867004-18.234009-.323987-.063062-.665991-.063062-.989978,0-2.880066.60293-4.635022,2.429956-5.678943,4.833105-1.665088,3.833789-1.494141,9.161938-1.188062,13.409912.215991,2.952026.513062,5.381982.305969,6.416895-.008899,1.368018-.062952,2.718018-.15304,4.059009-.062952,1.125-.161938,2.240991-.287952,3.339185-.332996,2.996851-.863965,5.921851-1.556982,8.738965-.225.926807-.477026,1.844824-.737952,2.744824-.531079,1.809229-1.134009,3.573193-1.8,5.292114-.504053,1.286938-1.044031,2.546851-1.620044,3.779956-.386938.82793-.792004,1.629053-1.206079,2.429956-.413965.792114-.845947,1.575-1.295947,2.340088-1.790991,3.07793-3.815991,5.921851-6.056982,8.522974-.557996.647974-1.134009,1.27793-1.718921,1.890088-9.396057,9.9-22.023083,15.525-35.676123,14.679053-.29696-.018018-.60293-.036035-.9-.063062-.062952-.009009-.134912-.009009-.197974-.018018-2.99696-.234009-5.993921-.171167-8.981982.089868-.261035.027026-.52207.045044-.773987.063062-.557996.054053-1.107092.090088-1.655969.125903-.413965.036035-.819031.063062-1.224097.090088-.962952.063062-1.925903.116895-2.870947.15293-.756079.036035-1.50293.063062-2.25.07207-.37793.018018-.74707.027026-1.115991.036035-.863965.018018-1.719031.027026-2.565088.027026h-.035925c-.810022,0-1.610925-.009009-2.412048-.027026-.243018,0-.485925-.009009-.719934-.009009-.728943-.018018-1.457996-.045044-2.17804-.07207-.305969-.017798-.611938-.027026-.909009-.045044-.665991-.035815-1.340991-.071851-1.997974-.116895-.890991-.054053-1.781982-.126123-2.663965-.206982-.872974-.07207-1.745947-.161938-2.610022-.261035-.557996-.062842-1.115991-.125903-1.664978-.197974-.369031-.045044-.738062-.099097-1.106982-.143921-.585022-.081079-1.170044-.170947-1.755066-.261035-.251917-.036035-.503943-.081079-.74696-.117114-.693018-.116895-1.386035-.234009-2.070044-.359912-.161938-.027026-.332996-.063062-.495044-.090088-.584912-.116895-1.169934-.225-1.754956-.350903-.287952-.063062-.584912-.126123-.872974-.188965-.665991-.135132-1.322974-.288062-1.979956-.45-.792114-.188965-1.584009-.387158-2.358105-.594141-.782886-.206982-1.547974-.422974-2.312952-.647974-.692908-.206982-1.376917-.413965-2.051917-.629956-.144141-.045044-.279053-.090088-.423083-.143921-.684009-.215991-1.35-.440991-2.025-.684009-.701917-.243018-1.394934-.504053-2.078943-.765088-.063062-.027026-.126123-.054053-.188965-.07207-.684009-.269824-1.368018-.539868-2.043018-.82793-.648083-.270044-1.296057-.548877-1.926123-.82793-.107886-.054053-.215991-.099097-.314868-.144141-.639075-.287842-1.269141-.584912-1.890088-.890771-.036035-.009229-.07196-.027246-.098987-.045264-.639075-.314868-1.27804-.629736-1.898987-.953833-.656982-.350903-1.313965-.702026-1.95293-1.061938-.639075-.360132-1.278149-.720044-1.908105-1.098193-.620947-.37793-1.232996-.755859-1.845044-1.143018,0-.008789-.009009-.008789-.009009-.008789-.611938-.396167-1.214868-.792114-1.808899-1.19707-.567004-.387158-1.125-.783105-1.673987-1.179053-.054053-.036035-.108105-.07207-.15304-.108105-.45-.332886-.890991-.665771-1.331982-.998877-.144031-.108105-.278943-.215991-.423083-.333105-.494934-.37793-.980859-.773877-1.466895-1.169824-.063062-.054053-.126013-.099097-.188965-.15293-.513062-.432202-1.026123-.864185-1.530066-1.305176-.530969-.468018-1.05304-.944824-1.565991-1.42207-.486035-.458789-.97196-.918018-1.439978-1.385815-.188965-.189185-.37804-.378149-.558105-.567114-.341895-.341895-.665991-.675-.989868-1.025903-.97207-1.017114-1.899097-2.070044-2.799097-3.140991-.062952-.07207-.125903-.15293-.188965-.225-4.05-4.824097-8.47793-9.306079-13.247974-13.42793-.036035-.036035-.063062-.063062-.099097-.090088-1.466895-1.269141-2.897974-2.574097-4.275-3.906079-.647974-.629956-1.286938-1.259912-1.907886-1.889868-.108105-.108105-.206982-.216211-.315088-.324097-.575903-.593921-1.134009-1.188062-1.700903-1.781982-.090088-.107886-.189075-.206982-.288062-.315088-.530969-.575903-1.05293-1.160815-1.575-1.754956-.045044-.054053-.098987-.116895-.15293-.179956-.612048-.702026-1.215088-1.404053-1.8-2.115088-.027026-.027026-.045044-.053833-.07207-.080859-1.161035-1.413062-2.286035-2.853149-3.365991-4.311035-.018018-.018018-.036035-.045044-.054053-.07207-.431982-.584912-.854956-1.178833-1.27793-1.772974-.188965-.270044-.37804-.540088-.557996-.809912-.45-.648193-.891101-1.295947-1.323083-1.953149-.503943-.773877-1.007886-1.556982-1.493921-2.348877l-.009009-.009009c-.413965-.675-.819031-1.359009-1.223987-2.043018-.107996-.197974-.225-.387158-.342004-.584912-.351013-.612158-.693018-1.224097-1.035022-1.845044-.539978-.999097-1.071057-2.007202-1.593018-3.024097-.305969-.611938-.612048-1.233105-.917908-1.862842-.090088-.189185-.180066-.378149-.270044-.567114-.306079-.656982-.612048-1.313965-.9-1.970947-.819031-1.836035-1.584009-3.690088-2.295044-5.561938-.206982-.558105-.413965-1.116211-.611938-1.683105-.126123-.333105-.243018-.675-.360022-1.016895-.216101-.612158-.423083-1.224097-.621057-1.845264-.089978-.287842-.188965-.575903-.278943-.863965-.162048-.512842-.314978-1.025903-.468018-1.538965-.053943-.161938-.098987-.323877-.144031-.486035-.098987-.341895-.197974-.683789-.287952-1.025903-.342004-1.179053-.648083-2.367114-.945044-3.563965-.098987-.422974-.197974-.846167-.29696-1.260132-.117004-.512842-.234009-1.034912-.351013-1.547974-.098987-.467798-.189075-.945044-.287952-1.413062-.108105-.485815-.197974-.980859-.288062-1.484912-.089978-.504053-.179956-.998877-.261035-1.493921-.134912-.720044-.252026-1.449097-.350903-2.178149-.081079-.476807-.15304-.953833-.206982-1.439868-.108105-.792114-.207092-1.593018-.29707-2.393921l-.161938-1.512158c-.054053-.504053-.099097-1.007886-.135132-1.511938-.044934-.504053-.080859-1.007886-.116895-1.520947-.045044-.513062-.07207-1.026123-.099097-1.539185-.026917-.494824-.053943-.998877-.07196-1.50293-.008899-.107886-.008899-.206982-.008899-.314868-.045044-.846167-.063062-1.701123-.081079-2.54707,0-.161938-.009009-.314868,0-.468018-.027026-1.988965,0-3.986938.089978-5.975903.036035-.783105.080969-1.566211.126013-2.340088v-.063062c.054053-.782886.117004-1.556982.179956-2.339868.063062-.702026.126123-1.404053.197974-2.106079.009009-.125903.027026-.252026.045044-.37793.099097-.918018.206982-1.836035.333105-2.754053.089868-.684009.188965-1.377026.296851-2.061035.099097-.693018.216101-1.377026.333105-2.070044.116895-.719824.243018-1.439868.386938-2.150903.126013-.675.261035-1.35.404956-2.025,0-.027026,0-.045044.009009-.07207.009009-.018018.009009-.035815.009009-.045044.027026-.134912.054053-.261035.090088-.386938.027026-.161938.062952-.314868.098987-.477026.15304-.665991.305969-1.340991.459009-2.006982,0-.009009.008899-.027026.017908-.036035.162048-.711035.342114-1.421851.52207-2.132886.027026-.108105.054053-.215991.081079-.324097.179956-.665991.359912-1.331982.548877-2.006982.027026-.107886.054053-.215991.090088-.323877.215991-.74707.431982-1.494141.665991-2.241211.018018-.062842.036035-.134912.053943-.197754.97196-3.123193,1.611035-6.345044,1.898987-9.612158.009009-.062842.009009-.125903.018018-.188965,0-.036035.009009-.07207.009009-.108105.018018-.179956.036035-.368921.054053-.548877.07196-.854956.161938-1.709912.252026-2.565088,0-.054053.009009-.098877.017908-.15293.089978-.809912.189075-1.611035.29696-2.40293.009009-.135132.027026-.270044.054053-.405176.098987-.746851.206982-1.493921.323987-2.240771,0-.054053.009009-.117114.027026-.171167.107996-.746851.234009-1.493921.369031-2.240991.027026-.215991.062952-.422974.116895-.638965.126123-.720044.261035-1.440088.405066-2.151123.053943-.332886.126013-.656982.198083-.980859,0-.045044.008899-.081079.017908-.116895.080969-.405176.171057-.810132.261035-1.206079.053943-.252026.107996-.495044.171057-.738062.116895-.540088.242908-1.070947.37793-1.602026.054053-.278833.126013-.566895.206982-.845947.15293-.629956.315088-1.250903.477026-1.87207.036035-.170947.080969-.332886.134912-.495044.153149-.575903.315088-1.143018.486035-1.709912.081079-.333105.179956-.665991.288062-.998877.15293-.52207.314978-1.044141.477026-1.566211.062952-.233789.134912-.468018.215991-.693018.206982-.638965.413965-1.268921.629956-1.907886.054053-.161938.107996-.314868.161938-.468018.215991-.629956.440991-1.268921.684009-1.899097.054053-.179736.117114-.359912.189075-.530859.269934-.720044.539978-1.440088.82804-2.151123-.009009-.018018,0-.026807.018018-.044824.233899-.60293.476917-1.19707.719934-1.790991.126013-.324097.260925-.639185.405066-.954053.242908-.585132.503943-1.170044.755859-1.745947.036035-.090088.081079-.179956.126123-.270044.341895-.765088.693018-1.520947,1.05293-2.268018.323987-.675.647974-1.35.990088-2.015991.062842-.143921.134912-.279053.206982-.413965.341895-.665991.693018-1.331982,1.043921-1.997974.027026-.063062.063062-.126123.099097-.180176.233899-.431982.467908-.863965.710925-1.286938.215991-.413965.45-.818921.684009-1.224097.369031-.656982.755969-1.304736,1.142908-1.943921.423083-.702026.864075-1.413062,1.305066-2.106079.360022-.557886.719934-1.125,1.089075-1.673877.566895-.872974,1.151917-1.72793,1.754956-2.573877.477026-.675.963062-1.341211,1.457996-2.006982.52196-.711035,1.05304-1.404053,1.601917-2.09707.52207-.675,1.062048-1.340991,1.602026-1.998193,2.169031-2.645947,4.490991-5.183789,6.947974-7.613965.440991-.440771.890991-.872974,1.340991-1.295947.171057-.170947.342114-.341895.52207-.504053.540088-.503833,1.079956-.998877,1.629053-1.493921.098877-.089868.197974-.179956.29696-.270044.45-.404956.918018-.809912,1.385925-1.214868.234009-.197974.468018-.404956.702026-.594141.486035-.422974.981079-.82793,1.485022-1.232886.477026-.387158.953943-.774097,1.448987-1.161035,1.584009-1.251123,3.22207-2.456982,4.904956-3.618018.648083-.45,1.296057-.890991,1.962158-1.322974.60293-.404956,1.214868-.792114,1.835925-1.188062.144031-.090088.287952-.179956.431982-.269824.621057-.387158,1.242004-.765088,1.87196-1.143018.126123-.07207.261035-.153149.396057-.234229.647974-.37793,1.296057-.755859,1.962048-1.125.863965-.485815,1.72793-.953833,2.618921-1.412842.738062-.395947,1.485022-.774097,2.240991-1.152026.045044-.018018.081079-.036035.117114-.054053.791895-.386938,1.583899-.774097,2.384912-1.143018.018018-.009009.036035-.018018.063062-.027026.818921-.37793,1.64696-.755859,2.484009-1.115991.009009,0,.009009-.009009.018018-.009009.82793-.359912,1.673877-.711035,2.519934-1.05293.026917-.009009.053943-.027026.080969-.036035.82804-.332886,1.656079-.656982,2.502026-.97207.054053-.026807.107996-.044824.161938-.062842.656982-.252026,1.314075-.486035,1.989075-.729053.260925-.098877.530969-.188965.801013-.279053.684009-.234009,1.368018-.468018,2.061035-.693018.206982-.071851.404956-.134912.611938-.197974.792004-.252026,1.602026-.503833,2.40293-.738062.881982-.260815,1.773083-.521851,2.664075-.764868.062952-.018018.117004-.027026.171057-.045044.917908-.243018,1.835925-.486035,2.762952-.711035.675-.170947,1.358899-.332886,2.042908-.486035.378149-.089868.74707-.170947,1.125-.251807.864075-.188965,1.728149-.369141,2.610132-.540088.755859-.15293,1.511938-.29707,2.276917-.431982.07196-.018018.15304-.027026.225-.036035.29696-.063062.594031-.108105.891101-.161938.854956-.143921,1.709912-.279053,2.573877-.414185,1.008105-.15293,2.025-.296851,3.051123-.422754,1.016895-.135132,2.042908-.252246,3.07793-.369141.027026,0,.054053-.009009.080969-.009009,1.026013-.107886,2.052026-.197974,3.087048-.288062.962952-.080859,1.934912-.15293,2.906982-.215771.161938-.018018.314978-.027246.468018-.027246.954053-.062842,1.898987-.107886,2.861938-.15293.15304-.009009.29707-.018018.45-.018018.97207-.036035,1.944031-.07207,2.925-.089868h.099097c1.097974-.027026,2.204956-.036035,3.320947-.036035h.009009c.998987,0,2.006982.009009,3.014978.027026.737952.009009,1.476013.026807,2.223083.054053.431982.008789.872974.026807,1.313965.044824,3.75293.144141,7.514978.036035,11.259009-.413965.15293-.018018.29696-.036035.45-.054053.620947-.080859,1.241895-.15293,1.87196-.225.962952-.116895,1.935022-.215991,2.897974-.314868.855066-.081079,1.701013-.153149,2.555969-.215991.315088-.027026.621057-.045044.927026-.063062.369031-.027026.74707-.054053,1.115991-.07207.45-.027026.9-.053833,1.340991-.071851.15304-.009009.29707-.018018.440991-.018018.342114-.018018.684009-.027026,1.026123-.036035,6.668921-.197974,13.157886.287842,18.962842,1.95293.387158.108105.765088.215991,1.134009.342114,1.251123.395947,2.457092.845947,3.627026,1.367798.431982.180176.863965.378149,1.27804.585132.405066.197974.810022.404956,1.205969.629956,1.529956.82793,2.979053,1.790991,4.338062,2.888965.422974.342114.836938.702026,1.241895,1.070947,0,0,.009009,0,.009009.009229.198083.179956.405066.368921.603149.566895,5.345947,5.202026,8.882886,12.97793,9.584912,24.309009-.080969,0-.080969,80.657886-.009009,90.881982.009009.468018.386938.818921.854956.818921h.07207c.459009.009229.845947-.350903.854956-.809912v-7.308105c-.018018-17.279956-.018018-56.780859,0-74.357886-.009009-4.779053,0-7.929053,0-8.586035.261035-3.52793.774097-6.704956,1.512048-9.575903q0-.009009.009009-.018018c.82804-3.22207,1.95304-6.047974,3.329956-8.522974.252026-.45.503943-.882202.764978-1.296167.477026-.764868.981079-1.493921,1.512048-2.195947.269934-.359912.548987-.711035.837048-1.043921.269934-.324097.548877-.638965.82793-.945044.188965-.206982.386938-.413965.585022-.611938,4.005066-4.086035,9.062952-6.651123,14.751013-8.145044.422974-.116895.845947-.225,1.27793-.323877.405066-.099097.819031-.189185,1.242114-.270264.468018-.098877.944934-.188965,1.42196-.269824.107996-.027026.215991-.045044.332996-.054053.477026-.090088.963062-.161938,1.457996-.234009.089978-.018018.188965-.027026.287952-.036035.486035-.071851.97207-.134912,1.467114-.179956,2.807886-.323877,5.714868-.459009,8.675903-.459009.711035,0,1.42207.009009,2.132996.027026.720044.009009,1.448987.036035,2.169031.063062.611938.027026,1.214978.053833,1.827026.089868.252026.009009.503943.027026.755969.045044.60304.036035,1.19696.07207,1.8.117114.701917.053833,1.403943.107886,2.105969.170947.036035,0,.063062.009009.099097.009009.737952.063062,1.475903.134912,2.204956.206982.270044.027026.539978.053833.809912.081079,1.206079.125903,2.412048.260815,3.609009.404956.144031.017798.279053.035815.422974.045044,4.689075.539868,9.432092.665771,14.148083.45.053943,0,.117004-.009229.171057-.009229,4.823877-.233789,9.494934-.233789,14.02196-.018018.576013.018018,1.151917.054053,1.72804.090088.638965.036035,1.27793.081079,1.907886.126123,3.465088.261035,6.831079.647974,10.097974,1.151807.576123.090088,1.152026.180176,1.719141.279053.782886.135132,1.565991.279053,2.330859.423193.594141.116895,1.179053.225,1.755066.350903.755969.161938,1.512048.324097,2.259009.495044.97196.225,1.926013.45,2.880066.701807.332886.081079.656982.171167.989868.261035,1.440088.387158,2.853149.801123,4.248083,1.233105.45.143921.890991.287842,1.331982.431982.539978.170947,1.071057.351123,1.593018.540088.503943.170947.998987.350903,1.485022.530859.638965.234009,1.268921.468018,1.898987.711035.431982.170947.854956.341895,1.27804.513062.512952.206982,1.016895.413965,1.520947.629956.495044.215991.989978.431982,1.493921.647974.495044.225.981079.440991,1.467114.675.486035.225.97196.459009,1.457886.693018.909009.440991,1.8.9,2.682092,1.368018,1.169934.620947,2.312952,1.259912,3.437952,1.917114.422974.251807.837048.503833,1.251013.755859.342004.206982.684009.422974,1.017004.629956.413965.261035.810022.513062,1.215088.783105.431982.278833.854956.557886,1.27793.845947.009009.009009.009009.018018.018018.018018.422974.288062.845947.575903,1.259912.872974.45.315088.890991.638965,1.331982.963062.387158.278833.765088.566895,1.143018.854956.819141.620947,1.629053,1.259912,2.421057,1.908105.387048.323877.764978.638965,1.134009.962842.782996.665991,1.547974,1.340991,2.303943,2.025.729053.684009,1.440088,1.359009,2.142114,2.052026.29696.288062.584912.585132.872974.881982,1.853943,1.890088,3.618018,3.861035,5.273987,5.913062l.810022,1.025903c.404956.513062.800903,1.035132,1.187952,1.565991.206982.270044.405066.540088.60304.819141.863965,1.187842,1.700903,2.40293,2.493018,3.644824.287952.431982.557886.864185.82793,1.305176.018018.026807.036035.062842.054053.089868.440991.702026.863965,1.413062,1.27793,2.133105.567114.981079,1.106982,1.970947,1.638062,2.970044,2.375903,4.526807,5.202026,8.811035,8.361035,12.833789.089868.108105.170947.216211.251917.333105.512952.647974,1.017004,1.304956,1.50304,1.970947.170947.225.332996.441211.486035.666211.332886.440771.656982.890771.97196,1.340771.15304.206982.305969.413965.440991.630176.422974.584912.82804,1.179053,1.223987,1.772974.045044.063062.090088.125903.135022.197974.369031.548877.728943,1.097974,1.080066,1.655859.225.333105.431982.666211.638965,1.008105.413965.638965.809912,1.286938,1.19696,1.934912.323987.540088.639075,1.080176.944934,1.620044,1.781982,3.060132,3.393018,6.183105,4.851123,9.368921.225.486035.45.981079.656982,1.476123.468018,1.026123.909009,2.061035,1.322974,3.104956.197974.477026.395947.963062.575903,1.449097.117114.287842.234009.575903.342114.872974.134912.342114.261035.684009.386938,1.034912.243018.647974.477026,1.296167.702026,1.944141.009009.017798.018018.045044.018018.071851.215991.585132.413965,1.179053.60293,1.763965.135132.396167.261035.801123.387048,1.206079.107996.306079.198083.621167.287952.936035.144031.440991.279053.881982.414075,1.331982.692908,2.331079,1.304956,4.688965,1.835925,7.056079.171057.764868.342114,1.529956.495044,2.294824.107996.540088.215991,1.080176.315088,1.620044.269934,1.340991.494934,2.690991.701917,4.05.117004.729053.215991,1.449097.314978,2.178149,0,.018018.009009.036035,0,.054053.108105.764868.206982,1.529736.288062,2.294824.018018.15293.036035.306079.053943.459009.062952.540088.117004,1.071167.162048,1.602026.054053.513062.098987,1.034912.134912,1.547974.009009.063062.018018.125903.018018.188965.063062.738062.108105,1.485132.15304,2.222974.044934.621167.07196,1.251123.098987,1.87207.027026.594141.054053,1.19707.063062,1.790991.018018.342114.027026.675.027026,1.008105.035925,1.430859.035925,2.870947.009009,4.310815Z" fill="none" stroke="#80705e" stroke-miterlimit="10" stroke-width="1.8"/><path d="M308.709628,8.538635c.157959-.377441.456543-1.119629.205688-1.898926-.471924-1.466797-2.415649-1.595215-11.58374-3.020996-1.894653-.294434-3.318115-.523438-4.582642.30957-1.455811.958984-1.842896,2.760254-1.999146,3.538574-1.983887,9.886719-4.819336,25.212891-7.319092,32.227539-4.069824,11.420898-10.118164,8.862305-14.259155,20.611816-3.11499,8.838379-.007935,10.996582-.851929,24.72168-.388672,6.320801-2.335083,26.641113-15.983154,44.320312-3.563843,4.616699-5.345825,6.924805-8.507446,8.943848-11.644531,7.436523-27.621094,3.635742-39.143311,4.915039-3.87915.430664-7.782593.430664-11.661743,0-11.796021-1.30957-26.045288,1.964355-39.143433-4.915039-3.941528-2.070312-6.494263-4.381348-7.914429-5.68457-15.332397-14.070801-16.162476-36.43457-16.576172-47.57959-.524414-14.126465,2.087769-16.380371-.851929-24.72168-4.140991-11.749512-10.189331-9.190918-14.259155-20.611816-2.499756-7.014648-5.335205-22.34082-7.319092-32.227539-.15625-.77832-.543335-2.57959-1.999146-3.538574-1.264526-.833008-2.687988-.604004-4.582642-.30957-9.168091,1.425781-11.111816,1.554199-11.58374,3.020996-.250854.779297.047729,1.521484.205688,1.898926,3.254639,7.780273,12.476685,18.896973,13.427124,28.489258.178955,1.806641.169434,4.616699-1.085693,8.207031-1.810791,4.994141,1.351929,9.404785,3.498169,13.69043l.051025.104004c1.904175,3.88623,2.536987,8.273438,1.810303,12.540039-.810059,4.755371-1.177002,7.62793,4.025635,12.078125,12.281372,10.90918,11.329712,22.285645,13.240356,37.525879.115723.922852.109375,1.76416.007568,2.552734-.206665,1.600586-.771118,3.53418-2.379883,5.816895-5.216187,7.400879-13.924561,10.694336-13.924683,10.694336-4.665649,1.202148-5.751099,2.294434-5.777832,3.11084-.032715,1.000977,1.324097,1.181152,4.222168,3.777832.000122,0,3.456909,3.097168,6.324341,8.037598.075684.130371.134277.227051.193604.365723.950684,2.223145-.459106,4.898926-.944824,5.805664-2.893066,5.401855-12.266357,22.902832-11.038086,36.581543.570068,6.348145,3.270508,10.168457,3.851807,10.962891,3.284302,4.487793,7.710693,6.379883,9.481567,7.111328,3.312988,1.368164,6.257935,1.603516,12.148071,2.074219,4.303345.34375,6.452759.543457,8.888916.295898,2.928589-.297852,9.30896-.946289,14.502075-5.753418,1.043457-.96582,3.351807-3.150879,4.740723-6.814453.280151-.73877,1.464844-4.021973.888916-8.88916-.750488-6.342773-3.613892-7.963379-4.427979-11.728027-1.726196-7.981934,6.700684-20.065918,16.730835-23.061035,6.249634-1.866211,17.208984-1.894043,29.298706-1.163086.766846.046387,27.25293-.703125,33.502563,1.163086,10.633423,3.175293,18.787964,15.799316,16.730835,23.061035-1.140381,4.025391-5.122314,5.173828-7.68689,12.913086-1.51062,4.559082-1.056396,6.959473-.888794,7.704102.908936,4.040527,3.957642,6.390137,6.814819,8.592285,5.351318,4.124512,10.831665,5.458496,13.333252,5.92627,4.646851.868652,8.102539.408203,14.22229-.296387,5.093262-.586426,8.555664-.985352,12.740723-2.666992,3.402222-1.367188,10.334229-4.152344,13.925903-10.666504,4.079468-7.398926,1.675659-15.665039.888916-18.370117-2.454224-8.439453-9.075439-17.214844-14.314209-26.976562-.71228-1.327148-1.422485-3.419922-.944824-5.805664.746826-3.730957,4.326782-6.543457,7.259033-8.847656,3.176025-2.495605,4.660156-2.902832,4.634888-4.01416-.0354-1.555664-3.414551-2.043945-8.885986-4.540039-8.459839-3.859863-11.333252-7.689453-11.970337-8.584473-1.997803-2.807129-2.313965-5.307129-2.379761-5.816895-.101807-.789062-.108154-1.629883.007446-2.552734,1.910645-15.240234.958984-26.616699,13.240356-37.525879,5.202759-4.450195,4.835693-7.322754,4.025757-12.078125-.726685-4.266602-.093872-8.653809,1.810303-12.540039l.050903-.104004c2.14624-4.285645,5.30896-8.696289,3.498169-13.69043-1.255127-3.590332-1.264648-6.400391-1.085693-8.207031.950439-9.592285,10.172485-20.708984,13.427124-28.489258Z" fill="#b89065"/><ellipse cx="198.430908" cy="152.757315" rx="7.390071" ry="6.695609" fill="#fff" stroke="#80705e" stroke-miterlimit="10" stroke-width=".630572"/></svg>