<?xml version="1.0" encoding="UTF-8"?><svg id="Layer_1" xmlns="http://www.w3.org/2000/svg" width="129.209457" height="720.815759" viewBox="0 0 129.209457 720.815759"><line x1="72.35383" y1="567.619129" x2="72.35383" y2="622.42513" fill="none" stroke="#231f20" stroke-miterlimit="10" stroke-width="4"/><circle cx="72.35383" cy="622.42513" r="18" fill="#e29fb4" stroke="#57353f" stroke-miterlimit="10" stroke-width="2.281916"/><rect x="50.427904" y="540.813128" width="43.851852" height="53.612002" rx="21.925904" ry="21.925904" fill="#b0bfe0" stroke="#3f547e" stroke-miterlimit="10" stroke-width="2"/><line x1="110.068499" y1="624.16556" x2="110.068499" y2="686.387782" fill="none" stroke="#231f20" stroke-miterlimit="10" stroke-width="4"/><circle cx="110.068499" cy="624.16556" r="18" fill="#e29fb4" stroke="#57353f" stroke-miterlimit="10" stroke-width="2.281916"/><rect x="93.624054" y="664.731089" width="32.888889" height="55.08467" rx="10.962952" ry="10.962952" fill="#f5d49d" stroke="#816a46" stroke-miterlimit="10" stroke-width="2"/><line x1="23.483431" y1="19.145189" x2="23.483431" y2="574.795742" fill="none" stroke="#231f20" stroke-miterlimit="10" stroke-width="4"/><circle cx="23.48331" cy="263.151981" r="18" fill="#bca3cd" stroke="#574066" stroke-miterlimit="10" stroke-width="2.281916"/><circle cx="23.48331" cy="222.484162" r="18" fill="#bca3cd" stroke="#574066" stroke-miterlimit="10" stroke-width="2.281916"/><circle cx="23.481106" cy="303.817595" r="18" fill="#bca3cd" stroke="#574066" stroke-miterlimit="10" stroke-width="2.281916"/><circle cx="23.481106" cy="344.485414" r="18" fill="#bca3cd" stroke="#574066" stroke-miterlimit="10" stroke-width="2.281916"/><circle cx="23.48331" cy="100.480705" r="18" fill="#bca3cd" stroke="#574066" stroke-miterlimit="10" stroke-width="2.281916"/><circle cx="23.483431" cy="59.813008" r="18" fill="#bca3cd" stroke="#574066" stroke-miterlimit="10" stroke-width="2.281916"/><circle cx="23.48331" cy="141.148524" r="18" fill="#bca3cd" stroke="#574066" stroke-miterlimit="10" stroke-width="2.281916"/><circle cx="23.48331" cy="181.816343" r="18" fill="#bca3cd" stroke="#574066" stroke-miterlimit="10" stroke-width="2.281916"/><rect x="1.000018" y="440.737444" width="43.851852" height="73.446227" rx="21.850031" ry="21.850031" fill="#dae0d2" stroke="#4c5244" stroke-miterlimit="10" stroke-width="2"/><rect x="2.933598" y="541.391519" width="43.851852" height="53.612002" rx="21.925907" ry="21.925907" fill="#b0bfe0" stroke="#3f547e" stroke-miterlimit="10" stroke-width="2"/><circle cx="23.483431" cy="19.145189" r="18" fill="#bca3cd" stroke="#574066" stroke-miterlimit="10" stroke-width="2.281916"/></svg>