<?xml version="1.0" encoding="UTF-8"?><svg id="Layer_1" xmlns="http://www.w3.org/2000/svg" width="514" height="548.666992" viewBox="0 0 514 548.666992"><ellipse cx="257" cy="274.333496" rx="251.379706" ry="266.166748" fill="#eff6ff" opacity=".44"/><path d="M257,546.666992c-68.176758,0-132.253906-28.370605-180.428711-79.885254C28.483398,415.359863,2,347.013672,2,274.333496S28.483398,133.307129,76.571289,81.885254C124.746094,30.370605,188.823242,2,257,2s132.253906,28.370605,180.428711,79.885254c48.087891,51.421875,74.571289,119.768066,74.571289,192.448242s-26.483398,141.026367-74.571289,192.448242c-48.174805,51.514648-112.251953,79.885254-180.428711,79.885254ZM257,12C121.90625,12,12,129.682129,12,274.333496s109.90625,262.333496,245,262.333496,245-117.682129,245-262.333496S392.09375,12,257,12Z" fill="#d0e3ff" stroke="#687a96" stroke-miterlimit="10" stroke-width="4"/></svg>