<?xml version="1.0" encoding="UTF-8"?><svg id="Layer_1" xmlns="http://www.w3.org/2000/svg" width="440.212661" height="436.164424" xmlns:xlink="http://www.w3.org/1999/xlink" viewBox="0 0 440.212661 436.164424"><defs><linearGradient id="linear-gradient" x1="60.085489" y1="279.426978" x2="397.075879" y2="279.426978" gradientUnits="userSpaceOnUse"><stop offset="0" stop-color="#ebbdbd"/><stop offset=".180469" stop-color="#ce5d5e"/><stop offset=".18843" stop-color="#cd595a"/><stop offset=".397415" stop-color="#d87e7f"/><stop offset=".54143" stop-color="#e19b9c"/><stop offset=".604191" stop-color="#dd8f90"/><stop offset=".715245" stop-color="#d47172"/><stop offset=".792159" stop-color="#cd595a"/><stop offset=".836299" stop-color="#ce5f5e"/><stop offset=".897822" stop-color="#d3716c"/><stop offset=".969238" stop-color="#da8e82"/><stop offset="1" stop-color="#de9e8e"/></linearGradient></defs><path d="M432.764455,218.913568c33.467797,116.077535-79.175673,209.852801-215.447544,215.551073-102.088003,4.628558-148.156101-72.088851-193.891267-134.460171-16.194761-22.0856-8.251764-53.847862-18.041972-81.090902-21.509317-59.853602,52.265924-102.193289,75.853139-153.84981C110.261064,1.5,166.557361,52.239319,219.074063,17.587817c65.074752-42.937538,144.486501,7.254982,158.4199,66.210553,11.25155,47.608025,42.72586,84.653399,55.270492,135.115198Z" fill="#b1d5f1" opacity=".58" stroke="#004a79" stroke-linecap="round" stroke-miterlimit="10" stroke-width="3"/><path d="M148.064514,168.337901c.16169,11.071613-17.229735,11.071745-17.06662-.000763-.161737-11.07085,17.229689-11.070982,17.06662.000763Z" fill="#5959a2"/><path d="M88.805254,151.271234c.16169,11.071613-17.229735,11.071745-17.06662-.000763-.161737-11.07085,17.229689-11.070982,17.06662.000763Z" fill="#5959a2"/><path d="M195.768217,135.449012c.16169,11.071613-17.229735,11.071745-17.06662-.000763-.161737-11.07085,17.229689-11.070982,17.06662.000763Z" fill="#5959a2"/><path d="M271.323773,181.96753c.16169,11.071613-17.229735,11.071745-17.06662-.000763-.161737-11.07085,17.229689-11.070982,17.06662.000763Z" fill="#5959a2"/><path d="M304.208704,109.96753c.16169,11.071613-17.229735,11.071745-17.06662-.000763-.161737-11.07085,17.229689-11.070982,17.06662.000763Z" fill="#5959a2"/><path d="M158.13463,70.856419c.16169,11.071613-17.229735,11.071745-17.06662-.000763-.161737-11.07085,17.229689-11.070982,17.06662.000763Z" fill="#5959a2"/><path d="M195.768217,281.22679c.16169,11.071613-17.229735,11.071745-17.06662-.000763-.161737-11.07085,17.229689-11.070982,17.06662.000763Z" fill="#5959a2"/><path d="M118.434884,371.004567c.16169,11.071613-17.229735,11.071745-17.06662-.000763-.161737-11.07085,17.229689-11.070982,17.06662.000763Z" fill="#5959a2"/><path d="M314.879329,281.22679c.16169,11.071613-17.229735,11.071745-17.06662-.000763-.161737-11.07085,17.229689-11.070982,17.06662.000763Z" fill="#5959a2"/><path d="M398.434884,336.337901c.16169,11.071613-17.229735,11.071745-17.06662-.000763-.161737-11.07085,17.229689-11.070982,17.06662.000763Z" fill="#5959a2"/><path d="M397.075879,199.140657c0-28.149225-14.054435-48.903743-31.113179-50.968843-81.779217-10.957942-56.588662,105.576093-.73954,88.447888,41.258328-.087811,1.129266,66.566587-6.600843,82.988843-25.018723,38.185384-48.0782-20.490206-107.323942-11.366668-59.847507,8.798506-79.774685,28.827811-79.774683,52.884082.004304,3.007562-2.951516,5.121045-5.743089,4.087902-15.367535-11.251449-64.028174-29.226757-37.663541-61.272353,8.175023-9.594976,28.958816-17.628117,27.181039-47.422999-3.783313-70.623507-99.850073-52.175915-95.03772,8.580601,1.181535,31.736888,35.063922,40.81885,48.739542,61.456727,12.113175,23.430717,48.002004,42.007366,69.130015,56.478684,54.082386,67.426243,155.619593-1.413081,177.466829-40.549886,33.539438-40.812412,34.315113-93.50737,41.479111-143.343979Z" fill="url(#linear-gradient)" stroke="#8a181a" stroke-linecap="round" stroke-miterlimit="10" stroke-width="2"/></svg>