<?xml version="1.0" encoding="UTF-8"?><svg id="Layer_1" xmlns="http://www.w3.org/2000/svg" width="344.735781" height="627.873783" xmlns:xlink="http://www.w3.org/1999/xlink" viewBox="0 0 344.735781 627.873783"><defs><radialGradient id="radial-gradient" cx="172.367891" cy="313.936891" fx="164.875064" fy="-3.420015" r="322.203941" gradientUnits="userSpaceOnUse"><stop offset="0" stop-color="#a2d165"/><stop offset=".063991" stop-color="#b1d87e"/><stop offset=".193713" stop-color="#cee7ae"/><stop offset=".258354" stop-color="#daedc1"/><stop offset=".316419" stop-color="#d7ebbc"/><stop offset=".380465" stop-color="#cfe7af"/><stop offset=".447379" stop-color="#c1e099"/><stop offset=".515811" stop-color="#afd77a"/><stop offset=".555866" stop-color="#a2d165"/><stop offset=".801676" stop-color="#daedc1"/><stop offset=".836665" stop-color="#d6ebba"/><stop offset=".884865" stop-color="#cbe5a8"/><stop offset=".940739" stop-color="#b9dc8b"/><stop offset="1" stop-color="#a2d165"/></radialGradient><radialGradient id="radial-gradient-2" cx="171.146372" cy="141.605973" fx="171.146372" fy="141.605973" r="16.215103" gradientUnits="userSpaceOnUse"><stop offset="0" stop-color="#ecf6e0"/><stop offset=".110281" stop-color="#e2edd4"/><stop offset=".304404" stop-color="#c8d5b7"/><stop offset=".55956" stop-color="#9eb087"/><stop offset=".862577" stop-color="#657c46"/><stop offset="1" stop-color="#496326"/></radialGradient></defs><path d="M344.121978,91.757449c-9.770557-.807431-21.660216,3.958698-31.408142-2.159498-12.118674-2.080565-16.172593-6.154509-12.668902-18.731085,11.554365-16.173754,21.397236-10.808939,27.126581-35.968026-.254968-9.083187-6.834066,3.060546-6.614085,6.468981-4.887654,20.646141-29.562122,15.040776-25.633137,43.719736-.04315,2.153206-1.06453,4.147631-2.72373,5.5219-10.192656,11.498369-16.195791,10.60886-28.108508,2.067235-15.644888-11.735967,4.902907-34.210591,16.429684-41.600626.911034-.556935,1.363664-1.7099.894227-2.6669-.525038-1.070347-1.839894-1.436711-2.837109-.832693-18.478275,9.116621-20.029273,28.888983-30.437506,43.062262-5.357535,3.930939-13.309138,3.051764-19.276824,6.33633-8.409463,7.53938-20.341055,10.302749-30.576903,4.433503.000253.000586-16.258159-8.819276-22.924826-14.402609-2.949146-2.46991-14.505927-13.643842-19.512458-16.53642-12.288721-3.806283-6.849916-14.798967-5.428078-24.225,1.55555-7.713121,15.827548-10.496354,15.655487-20.322614,1.945883-7.892709,5.148919-15.365884,9.525048-22.21645-1.476425-13.108818-13.319778,18.01353-13.406168,21.259899-.512547,5.883925-10.071454,16.289229-15.754817,10.05025-5.958796-8.671337-15.974902-12.173546-22.667294-19.674187-.678798-.771216-1.823494-1.068383-2.690696-.517379-2.654028,6.37156,12.006748,11.681718,15.884142,16.073636,22.1085,15.003739-7.799941,32.937237,19.096009,44.557708,15.917563,14.578022-13.837813,24.460854-22.827022,30.256015-8.038403,4.795447-15.77465.114246-21.676986-5.591393-11.146467-1.565137-21.873269-.187206-30.448564-9.551171-2.227365-5.008814-29.608349-15.010135-22.134911-5.816588,18.893091,2.642241,25.388079,12.193253,7.809342,23.353936-6.869624-.166245-13.987709-.329074-19.119831,5.32675-2.229919,2.324428-7.558472-.299189-8.054531,3.406623,6.350759,7.712347,14.266387-7.404378,22.01221-4.668932,14.909374,3.640595,14.671426-16.410923,23.853007-13.255897,5.859597,3.399088,12.768473,4.966188,19.504514,4.363377,11.175089-.42186,15.417454,15.588486,15.822661,24.701898-.323995,11.733487,3.432956,32.385595-11.634893,36.56692-12.060905,3.850635-20.050065-7.168436-30.561317-3.23222-4.442555,3.504629-9.211711,6.046475-15.020453,5.675291-14.927844,1.321358-17.149071-14.27127-36.647898-13.554747-2.5506-.27115-2.92538,3.780779-.414757,3.976721,11.66101.564973,17.967805,4.675369,25.355785,11.773411,22.732836,8.777457,23.995565-12.001363,47.392305-1.162619,10.574453,9.687082-7.760196,18.265052-17.920426,18.641913-12.149404,2.152534-23.93749,5.999019-34.934365,11.616077-1.018386.537273-2.265919.364657-3.082152-.447455-3.998426-3.933608-9.606377-4.720042-14.623021-5.763675-11.09518-.771064-9.062614-9.402487-16.753819-11.726142-.001089.001536-8.820394-2.241262-8.820394-2.241262-.857223-.217996-1.816382.073294-2.278415.827534-2.46226,4.113626,8.451358,4.205448,10.111799,5.292379,6.036783,3.604528,4.221883,9.870347,16.930339,11.763021,23.474416,2.025126,5.838923,18.79929-8.783717,17.355814-9.287828,7.646187,18.04586,2.555433,19.157989-2.095192,3.213615-4.542235,7.194416-8.697934,12.39298-10.615788,19.662019-10.717647,43.700671-7.489869,60.005232-24.485237,31.221983-16.987569,54.259845,27.661424,54.504544,54.060252-6.762376,53.969016,20.054435,304.154548-8.555555,313.232143-16.285612,5.063597-44.054755-4.704495-50.371172,15.445255-.92778,7.301429,5.216259,15.955688,2.307234,22.269696-7.54243,14.203925-27.00802,5.13888-27.215627,19.431553-.956294,8.644466,23.782267,6.344179,22.657378,2.110468,1.933268-8.141017-5.701297-7.685533-3.444225-9.443725,18.988468-8.150113,15.640363-17.233448,12.681558-33.927522,6.656857-11.258487,24.474109-4.956221,24.589804,8.548734,2.901438,11.545142-4.514827,26.902469,8.622147,33.357071,1.26361,3.134562-5.574049,2.983579-3.560176,10.132828-.70681,7.039716,23.695738,7.750492,23.408068-.777208-.0635-17.524008-24.06395-4.756711-20.741096-27.236261,2.78047-16.332366-8.516029-31.722401-3.38817-31.327978,46.885214-4.124524,17.463771-4.536393,61.36453,7.023677,6.591564.329288,23.773566-2.284203,22.023923,7.244088-.131915,2.109474,1.147002,3.324968.799834,5.538347-5.301943,11.349951,8.036175,24.735364,1.874459,34.193539-1.500553,2.803772-3.549196,5.801169-7.193595,5.103328-10.022587-.37882-16.942367,17.919909-.592322,16.127061,9.034219-.414009,14.111036.151754,14.666591-4.221926,1.067487-8.403922-4.720468-9.377659-2.888889-12.333333,9.87536-9.094961,2.272657-17.972198.266839-28.127682.019413-13.644577,16.333274-10.771834,21.591809-1.923542,16.536202,17.823726,33.576773,1.188372,34.586918,29.356362-3.498701,1.751975-5.927045,5.527854-5.927045,9.917075,0,6.054688,4.387569,5.185196,10.074092,5.185196,5.686401,0,10.518437.869491,10.518437-5.185196,0-5.092407-3.265625-9.361267-7.685425-10.593567-1.141245-15.154564-4.620206-23.843156-20.944795-25.166473-13.533154-1.408344-18.9879-17.841495-32.52549-18.202542-9.307969-.062736-11.692985-13.098065-20.066413-15.000426-9.91618-1.068122-25.571631,4.480697-33.010442-2.644762-4.719206-4.891247-10.698446-9.80108-10.400964-17.327537-.670971-49.854449-2.743474-236.191086-3.687855-305.566418-.299581-21.184326,11.104634-40.848111,29.617194-51.143664,11.04933-7.244316,19.106643,3.497824,28.975317,6.333771,6.391846,1.011925,12.393159-2.365125,18.374615-3.78291,17.978642-1.707691,36.904787,7.121456,54.345886,1.123049,2.4951-.612415,1.619082-4.674727-1.009853-3.87237-11.419282,3.916715-23.235897,1.206426-34.756746-.447208-9.605892-1.346678-6.454538-13.575574,2.031338-13.502645,12.352177-2.530514,36.954014,4.062433,42.163563-9.14823-.608803-1.296695-2.200205-1.551258-3.172126-.677465-11.311798,12.883148-45.942722-4.762969-51.104058,16.047831-.841453,7.592441-10.02019,5.677005-15.170298,8.320154-14.71888,7.862006-27.14644-8.38405-26.826716-22.214816.799248-13.887537-3.973247-40.355588,9.538872-49.986122,39.213167-21.970561,43.071727,15.420526,63.63829-5.955781,6.842926-8.941323,15.566541-5.49918,24.19935-1.298868,5.83879,1.970177,30.242558,3.456481,28.263775-3.452615Z" fill="url(#radial-gradient)" stroke="#3c611b" stroke-miterlimit="10"/><path d="M187.579857,141.606156c.311283,21.321891-33.180996,21.322069-32.866969-.001468-.311373-21.320423,33.180906-21.320601,32.866969.001468Z" fill="url(#radial-gradient-2)"/></svg>