<?xml version="1.0" encoding="UTF-8"?><svg id="Layer_1" xmlns="http://www.w3.org/2000/svg" width="489.86086" height="754.29565" viewBox="0 0 489.86086 754.29565"><path d="M268.53919,753.29565c-.93555,0-1.86621-.01611-2.79004-.04102-20.89355-.55908-41.42188-4.53809-61.01367-11.82715-9.11328-3.39014-20.30469-8.59912-26.00781-18.87354-6.73145-12.12842-4.13867-28.7207,7.11523-45.52246,1.87402-2.79688,3.87891-5.56201,5.81836-8.23633,6.46289-8.91113,12.56738-17.32812,14.40625-27.12402,2.39258-12.74121-3.61133-27.45459-14.94141-36.61328-10.34277-8.36084-24.7832-12.6626-40.64746-12.11035-12.80078.44531-26.65234,3.87109-43.5918,10.78076-2.55664,1.04297-5.47559-.18408-6.51855-2.74072-1.04297-2.55713.18457-5.4751,2.74121-6.51807,18.06543-7.36914,33.00684-11.02832,47.02148-11.51611,18.27344-.62646,35.06445,4.45264,47.28223,14.32764,14.32715,11.58203,21.58203,29.73047,18.48242,46.23584-2.25391,12.00244-9.3125,21.73633-16.13867,31.14893-1.88574,2.6001-3.83594,5.28906-5.60547,7.93115-4.30176,6.42236-13.56445,22.7002-6.67969,35.10352,4.11328,7.41113,13.25,11.56445,20.75,14.35498,18.55859,6.9043,38.00391,10.67334,57.79492,11.20312,4.58398.12061,9.83203.09082,14.0332-1.85986,3.10254-1.43994,6.12305-4.65771,5.89355-8.02148-.18359-2.69775-2.24316-5.31494-4.62695-8.3457-2.74512-3.48828-5.85547-7.44238-6.6748-12.63281-1.08398-6.86914,2.20215-12.57422,5.10156-17.60693,1.81738-3.15381,3.5332-6.13232,4.04199-9.03369,1.22949-7.01318-4.75293-13.95557-10.25-17.76953-3.16602-2.19727-6.625-4.01074-10.28711-5.93066-4.51074-2.36475-9.17578-4.81055-13.43945-8.10791-8.08398-6.25146-14.37109-17.09521-10.19531-27.22852,3.12402-7.57812,10.61133-11.26904,17.52344-13.88037,26.47266-10.00342,55.41113-14.58398,83.67969-13.25049,2.75879.13037,4.88965,2.47217,4.75879,5.23047-.12891,2.7583-2.43945,4.88574-5.22949,4.75879-26.92871-1.271-54.46875,3.0918-79.6748,12.61572-4.90625,1.85352-10.14551,4.29297-11.81152,8.33643-2.06055,4.99951,1.99512,11.58545,7.06641,15.50781,3.56836,2.75928,7.64746,4.89746,11.96582,7.16162,3.77051,1.97656,7.66992,4.021,11.34473,6.57129,8.2998,5.75928,16.44141,16.06348,14.39844,27.71289-.81348,4.63818-3.1582,8.70752-5.22656,12.29785-2.37305,4.11914-4.42285,7.67676-3.88965,11.05615.41309,2.61523,2.47461,5.23486,4.65625,8.00879,2.97754,3.78418,6.35254,8.07324,6.74512,13.84863.56543,8.27539-5.44824,14.88916-11.65918,17.77197-4.99121,2.31641-10.43066,2.82617-15.72168,2.82666Z" fill="#c8c1df" stroke="#282566" stroke-miterlimit="10" stroke-width="2"/><path d="M183.22138,67.94309c-.99482-.14183-2.01322-.3605-3.05926-.66203-15.46717-4.45709-25.93367-20.80447-35.16826-35.22728-7.45325-11.64012-14.50365-22.63243-21.24074-22.50978-5.85528.10927-10.42433,4.47441-16.74657,10.51613-6.57215,6.27933-14.75114,14.09432-27.41123,19.20881-14.08339,5.68791-31.09166,3.9867-50.55932-5.06143-2.00289-.93116-2.87212-3.31008-1.94138-5.31351.93185-2.00427,3.31263-2.87275,5.31351-1.94138,17.37865,8.07756,32.24625,9.72414,44.19041,4.8987,11.23865-4.54032,18.48685-11.46556,24.88096-17.57545,7.05525-6.74116,13.14788-12.56308,22.12367-12.73056,11.23479-.20943,19.05668,12.02776,28.12753,26.19442,8.473,13.2331,18.07629,28.23177,30.64595,31.85408,9.35724,2.69923,15.9668-5.54468,25.73551-19.43883,4.34562-6.18146,8.83957-12.57309,14.12596-17.5901,1.60367-1.52033,4.13719-1.45359,5.65483.14822,1.5215,1.60236,1.45456,4.13388-.14725,5.65496-4.70795,4.46766-8.96915,10.52749-13.0885,16.38807-8.70214,12.37715-17.68121,25.14688-31.43583,23.18696Z" fill="#c8c1df" stroke="#282566" stroke-miterlimit="10" stroke-width="2"/><path d="M136.11125,120.45995l.02161.30924c.88678,12.68908-10.87827,22.49316-27.3807,31.21484-39.01112-13.00197-100.73575-16.50734-103.15384-44.79761l-.02161-.30924c-.88747-12.69901,10.87828-22.4931,27.38071-31.21478,39.01111,13.00191,100.73575,16.50734,103.15384,44.79755Z" fill="#4d4b7e" stroke="#282566" stroke-miterlimit="10" stroke-width="3"/><path d="M150.12395,284.10123l.02161.30924c.88747,12.69901-10.87877,22.49314-27.38071,31.21478-39.01112-13.00197-100.73575-16.50734-103.15433-44.79757l-.02161-.30924c-.88678-12.68902,10.87877-22.49314,27.38071-31.21478,39.01112,13.00197,100.73575,16.50734,103.15433,44.79757Z" fill="#4d4b7e" stroke="#282566" stroke-miterlimit="10" stroke-width="3"/><path d="M164.12592,447.7432l.02161.30924c.88748,12.69907-10.86735,22.50237-27.36025,31.21341-39.01091-12.99195-100.74598-16.50662-103.16407-44.79689l-.02161-.30924c-.88678-12.68908,10.86854-22.49242,27.36094-31.20343,39.01091,12.99195,100.74529,16.4967,103.16337,44.78691Z" fill="#4d4b7e" stroke="#282566" stroke-miterlimit="10" stroke-width="3"/><path d="M106.22911,574.87758c-10.97438-2.52732-21.78374-5.12375-31.25387-8.28-16.4929,8.71098-28.25795,18.51506-27.37048,31.21407l.02161.30924c1.6582,19.37796,31.13992,27.12897,62.08881,34.26674-1.28174-20.14068-2.78678-44.39408-3.48607-57.51005Z" fill="#4d4b7e" stroke="#282566" stroke-miterlimit="10" stroke-width="3"/><path d="M136.13287,120.76919l4.00584,57.32022c2.40275,28.07077-56.84934,42.0155-93.16908,61.21425-16.50194,8.72164-28.26748,18.52576-27.38071,31.21478l-4.00583-57.32016c-2.40275-28.07083,56.84934-42.0155,93.16908-61.21425,16.50243-8.72168,28.26748-18.52576,27.3807-31.21484Z" fill="#c8c1df" stroke="#282566" stroke-miterlimit="10" stroke-width="3"/><path d="M150.14556,284.41048l4.00584,57.32022c2.40226,28.07081-56.85957,42.01616-93.18885,61.2256-16.49241,8.71101-28.24772,18.51434-27.36094,31.20343l-4.00584-57.32022c-2.41228-28.06007,56.83911-42.01479,93.16908-61.21425,16.50194-8.72164,28.26818-18.51577,27.38071-31.21478Z" fill="#c8c1df" stroke="#282566" stroke-miterlimit="10" stroke-width="3"/><path d="M164.14753,448.05245l4.00584,57.32022c2.40323,28.07074-56.84885,42.01547-93.17813,61.22491-16.4929,8.71098-28.25795,18.51506-27.37048,31.21407l-4.00584-57.32022c-2.40275-28.07077,56.85908-42.01612,93.18836-61.22557,16.49289-8.71104,28.24772-18.51434,27.36025-31.21341Z" fill="#c8c1df" stroke="#282566" stroke-miterlimit="10" stroke-width="3"/><path d="M68.62888,58.81382c-.43059-5.19478-.86117-10.3895-1.29175-15.58428-1.11325-13.67435-2.13549-27.35628-3.12462-41.04071C32.43396,15.48155-.22539,28.57456,1.57087,49.55696l4.00584,57.32022c-.88747-12.69901,10.87828-22.4931,27.38071-31.21478,10.65059-5.62882,23.26898-10.80756,35.72823-16.02234-.01682-.27568-.0414-.55039-.05676-.82624Z" fill="#c8c1df" stroke="#282566" stroke-miterlimit="10" stroke-width="3"/><path d="M446.83349,387.48582l-.08508.29809c-3.49376,12.24116-17.89358,17.43871-36.38004,20.01396-32.24409-25.51934-89.07845-49.85192-81.7103-77.27267l.08508-.29809c3.49101-12.23154,17.89358-17.43871,36.38004-20.01396,32.24409,25.51934,89.07845,49.85192,81.7103,77.27267Z" fill="#4d4b7e" stroke="#282566" stroke-miterlimit="10" stroke-width="3"/><path d="M404.22443,546.1024l-.08508.29809c-3.49377,12.24122-17.88599,17.45128-36.36034,20.01964-32.24731-25.50985-89.08831-49.85474-81.71969-77.27535l.08508-.29809c3.49103-12.2316,17.88372-17.44152,36.35759-20.01002,32.24731,25.50985,89.09104,49.84517,81.72243,77.26572Z" fill="#4d4b7e" stroke="#282566" stroke-miterlimit="10" stroke-width="3"/><path d="M446.74841,387.78392l-15.76996,55.25362c-7.3087,27.20889-67.77528,20.1216-108.47645,25.79914-18.47387,2.56849-32.86656,7.77842-36.35759,20.01002l15.76996-55.25362c7.29563-27.20222,67.75558-20.12729,108.454-25.7952,18.48646-2.57525,32.88628-7.77279,36.38004-20.01396Z" fill="#c8c1df" stroke="#282566" stroke-miterlimit="10" stroke-width="3"/><path d="M488.41846,233.87909l-15.76996,55.25362c-7.3087,27.20889-67.77528,20.1216-108.47645,25.79914-18.47387,2.56849-32.86656,7.77842-36.35759,20.01002l15.76996-55.25362c7.29563-27.20222,67.75558-20.12729,108.454-25.7952,18.48646-2.57525,32.88628-7.77279,36.38004-20.01396Z" fill="#c8c1df" stroke="#282566" stroke-miterlimit="10" stroke-width="3"/><path d="M367.77885,566.42002c-12.56512,1.75283-27.01425,2.2893-41.20156,2.99367-.5247,2.11418-1.0975,4.21717-1.72456,6.30747l-4.09706,15.09153c-3.10968,11.39006-6.28254,22.76311-9.48653,34.12778,35.05449-1.73088,71.52799-2.53934,77.10009-23.28648l15.76994-55.25356c-3.49375,12.24116-17.88597,17.45123-36.36032,20.01959Z" fill="#c8c1df" stroke="#282566" stroke-miterlimit="10" stroke-width="3"/></svg>