<?xml version="1.0" encoding="UTF-8"?><svg xmlns="http://www.w3.org/2000/svg" width="553.307688" height="423.886456" xmlns:xlink="http://www.w3.org/1999/xlink" viewBox="0 0 553.307688 423.886456"><defs><linearGradient id="linear-gradient" x1=".832117" y1="211.943228" x2="552.475571" y2="211.943228" gradientUnits="userSpaceOnUse"><stop offset="0" stop-color="#fff"/><stop offset="1" stop-color="#e6e7e8"/></linearGradient></defs><g isolation="isolate"><g id="Layer_1"><rect x=".832117" y=".832117" width="551.643454" height="422.222222" rx="33.15506" ry="33.15506" fill="url(#linear-gradient)" stroke="#231f20" stroke-miterlimit="10" stroke-width="1.664234"/><path d="M45.216131,400.217859c-10.905762,0-19.777832-8.87207-19.777832-19.77832,0-10.905273,8.87207-19.777344,19.777832-19.777344s19.777832,8.87207,19.777832,19.777344c0,10.90625-8.87207,19.77832-19.777832,19.77832Z" fill="none" stroke="#231f20" stroke-miterlimit="10"/><circle cx="45.216312" cy="380.4398" r="17.777778" fill="#a4dff9" stroke="#231f20" stroke-miterlimit="10"/><path d="M86.993963,400.217859c-10.905762,0-19.777832-8.87207-19.777832-19.77832,0-10.905273,8.87207-19.777344,19.777832-19.777344s19.777832,8.87207,19.777832,19.777344c0,10.90625-8.87207,19.77832-19.777832,19.77832Z" fill="none" stroke="#231f20" stroke-miterlimit="10"/><circle cx="86.99409" cy="380.4398" r="17.777778" fill="#a4dff9" stroke="#231f20" stroke-miterlimit="10"/><path d="M128.771795,400.217859c-10.905762,0-19.777832-8.87207-19.777832-19.77832,0-10.905273,8.87207-19.777344,19.777832-19.777344s19.777832,8.87207,19.777832,19.777344c0,10.90625-8.87207,19.77832-19.777832,19.77832Z" fill="none" stroke="#231f20" stroke-miterlimit="10"/><circle cx="128.771867" cy="380.4398" r="17.777778" fill="#a4dff9" stroke="#231f20" stroke-miterlimit="10"/><path d="M170.549627,400.217859c-10.905762,0-19.777832-8.87207-19.777832-19.77832,0-10.905273,8.87207-19.777344,19.777832-19.777344s19.777832,8.87207,19.777832,19.777344c0,10.90625-8.87207,19.77832-19.777832,19.77832Z" fill="none" stroke="#231f20" stroke-miterlimit="10"/><circle cx="170.549645" cy="380.4398" r="17.777778" fill="#a4dff9" stroke="#231f20" stroke-miterlimit="10"/><path d="M212.327459,400.217859c-10.905762,0-19.777832-8.87207-19.777832-19.77832,0-10.905273,8.87207-19.777344,19.777832-19.777344s19.777832,8.87207,19.777832,19.777344c0,10.90625-8.87207,19.77832-19.777832,19.77832Z" fill="none" stroke="#231f20" stroke-miterlimit="10"/><circle cx="212.327423" cy="380.4398" r="17.777778" fill="#a4dff9" stroke="#231f20" stroke-miterlimit="10"/><path d="M254.105291,400.217859c-10.905762,0-19.777832-8.87207-19.777832-19.77832,0-10.905273,8.87207-19.777344,19.777832-19.777344s19.777832,8.87207,19.777832,19.777344c0,10.90625-8.87207,19.77832-19.777832,19.77832Z" fill="none" stroke="#231f20" stroke-miterlimit="10"/><circle cx="254.105201" cy="380.4398" r="17.777778" fill="#a4dff9" stroke="#231f20" stroke-miterlimit="10"/><path d="M295.883123,400.217859c-10.905762,0-19.777832-8.87207-19.777832-19.77832,0-10.905273,8.87207-19.777344,19.777832-19.777344s19.777832,8.87207,19.777832,19.777344c0,10.90625-8.87207,19.77832-19.777832,19.77832Z" fill="none" stroke="#231f20" stroke-miterlimit="10"/><circle cx="295.882979" cy="380.4398" r="17.777778" fill="#a4dff9" stroke="#231f20" stroke-miterlimit="10"/><path d="M337.660955,400.217859c-10.905762,0-19.777832-8.87207-19.777832-19.77832,0-10.905273,8.87207-19.777344,19.777832-19.777344,10.905273,0,19.777344,8.87207,19.777344,19.777344,0,10.90625-8.87207,19.77832-19.777344,19.77832Z" fill="none" stroke="#231f20" stroke-miterlimit="10"/><circle cx="337.660756" cy="380.4398" r="17.777778" fill="#a4dff9" stroke="#231f20" stroke-miterlimit="10"/><path d="M379.438299,400.217859c-10.905273,0-19.777344-8.87207-19.777344-19.77832,0-10.905273,8.87207-19.777344,19.777344-19.777344,10.905762,0,19.777832,8.87207,19.777832,19.777344,0,10.90625-8.87207,19.77832-19.777832,19.77832Z" fill="none" stroke="#231f20" stroke-miterlimit="10"/><circle cx="379.438534" cy="380.4398" r="17.777778" fill="#a4dff9" stroke="#231f20" stroke-miterlimit="10"/><path d="M421.216131,400.217859c-10.905762,0-19.777832-8.87207-19.777832-19.77832,0-10.905273,8.87207-19.777344,19.777832-19.777344s19.777832,8.87207,19.777832,19.777344c0,10.90625-8.87207,19.77832-19.777832,19.77832Z" fill="none" stroke="#231f20" stroke-miterlimit="10"/><circle cx="421.216312" cy="380.4398" r="17.777778" fill="#a4dff9" stroke="#231f20" stroke-miterlimit="10"/><path d="M462.993963,400.217859c-10.905762,0-19.777832-8.87207-19.777832-19.77832,0-10.905273,8.87207-19.777344,19.777832-19.777344s19.777832,8.87207,19.777832,19.777344c0,10.90625-8.87207,19.77832-19.777832,19.77832Z" fill="none" stroke="#231f20" stroke-miterlimit="10"/><circle cx="462.99409" cy="380.4398" r="17.777778" fill="#a4dff9" stroke="#231f20" stroke-miterlimit="10"/><path d="M504.771795,400.217859c-10.905762,0-19.777832-8.87207-19.777832-19.77832,0-10.905273,8.87207-19.777344,19.777832-19.777344s19.777832,8.87207,19.777832,19.777344c0,10.90625-8.87207,19.77832-19.777832,19.77832Z" fill="none" stroke="#231f20" stroke-miterlimit="10"/><circle cx="504.771867" cy="380.4398" r="17.777778" fill="#a4dff9" stroke="#231f20" stroke-miterlimit="10"/><path d="M45.216131,352.760828c-10.905762,0-19.777832-8.87207-19.777832-19.77832,0-10.905273,8.87207-19.777344,19.777832-19.777344s19.777832,8.87207,19.777832,19.777344c0,10.90625-8.87207,19.77832-19.777832,19.77832Z" fill="none" stroke="#231f20" stroke-miterlimit="10"/><circle cx="45.216312" cy="332.982618" r="17.777778" fill="#a4dff9" stroke="#231f20" stroke-miterlimit="10"/><path d="M86.993963,352.760828c-10.905762,0-19.777832-8.87207-19.777832-19.77832,0-10.905273,8.87207-19.777344,19.777832-19.777344s19.777832,8.87207,19.777832,19.777344c0,10.90625-8.87207,19.77832-19.777832,19.77832Z" fill="none" stroke="#231f20" stroke-miterlimit="10"/><circle cx="86.99409" cy="332.982618" r="17.777778" fill="#a4dff9" stroke="#231f20" stroke-miterlimit="10"/><path d="M128.771795,352.760828c-10.905762,0-19.777832-8.87207-19.777832-19.77832,0-10.905273,8.87207-19.777344,19.777832-19.777344s19.777832,8.87207,19.777832,19.777344c0,10.90625-8.87207,19.77832-19.777832,19.77832Z" fill="none" stroke="#231f20" stroke-miterlimit="10"/><circle cx="128.771867" cy="332.982618" r="17.777778" fill="#a4dff9" stroke="#231f20" stroke-miterlimit="10"/><path d="M170.549627,352.760828c-10.905762,0-19.777832-8.87207-19.777832-19.77832,0-10.905273,8.87207-19.777344,19.777832-19.777344s19.777832,8.87207,19.777832,19.777344c0,10.90625-8.87207,19.77832-19.777832,19.77832Z" fill="none" stroke="#231f20" stroke-miterlimit="10"/><circle cx="170.549645" cy="332.982618" r="17.777778" fill="#a4dff9" stroke="#231f20" stroke-miterlimit="10"/><path d="M212.327459,352.760828c-10.905762,0-19.777832-8.87207-19.777832-19.77832,0-10.905273,8.87207-19.777344,19.777832-19.777344s19.777832,8.87207,19.777832,19.777344c0,10.90625-8.87207,19.77832-19.777832,19.77832Z" fill="none" stroke="#231f20" stroke-miterlimit="10"/><circle cx="212.327423" cy="332.982618" r="17.777778" fill="#a4dff9" stroke="#231f20" stroke-miterlimit="10"/><path d="M254.105291,352.760828c-10.905762,0-19.777832-8.87207-19.777832-19.77832,0-10.905273,8.87207-19.777344,19.777832-19.777344s19.777832,8.87207,19.777832,19.777344c0,10.90625-8.87207,19.77832-19.777832,19.77832Z" fill="none" stroke="#231f20" stroke-miterlimit="10"/><circle cx="254.105201" cy="332.982618" r="17.777778" fill="#a4dff9" stroke="#231f20" stroke-miterlimit="10"/><path d="M295.883123,352.760828c-10.905762,0-19.777832-8.87207-19.777832-19.77832,0-10.905273,8.87207-19.777344,19.777832-19.777344s19.777832,8.87207,19.777832,19.777344c0,10.90625-8.87207,19.77832-19.777832,19.77832Z" fill="none" stroke="#231f20" stroke-miterlimit="10"/><circle cx="295.882979" cy="332.982618" r="17.777778" fill="#a4dff9" stroke="#231f20" stroke-miterlimit="10"/><path d="M337.660955,352.760828c-10.905762,0-19.777832-8.87207-19.777832-19.77832,0-10.905273,8.87207-19.777344,19.777832-19.777344,10.905273,0,19.777344,8.87207,19.777344,19.777344,0,10.90625-8.87207,19.77832-19.777344,19.77832Z" fill="none" stroke="#231f20" stroke-miterlimit="10"/><circle cx="337.660756" cy="332.982618" r="17.777778" fill="#a4dff9" stroke="#231f20" stroke-miterlimit="10"/><path d="M379.438299,352.760828c-10.905273,0-19.777344-8.87207-19.777344-19.77832,0-10.905273,8.87207-19.777344,19.777344-19.777344,10.905762,0,19.777832,8.87207,19.777832,19.777344,0,10.90625-8.87207,19.77832-19.777832,19.77832Z" fill="none" stroke="#231f20" stroke-miterlimit="10"/><circle cx="379.438534" cy="332.982618" r="17.777778" fill="#a4dff9" stroke="#231f20" stroke-miterlimit="10"/><path d="M421.216131,352.760828c-10.905762,0-19.777832-8.87207-19.777832-19.77832,0-10.905273,8.87207-19.777344,19.777832-19.777344s19.777832,8.87207,19.777832,19.777344c0,10.90625-8.87207,19.77832-19.777832,19.77832Z" fill="none" stroke="#231f20" stroke-miterlimit="10"/><circle cx="421.216312" cy="332.982618" r="17.777778" fill="#a4dff9" stroke="#231f20" stroke-miterlimit="10"/><path d="M462.993963,352.760828c-10.905762,0-19.777832-8.87207-19.777832-19.77832,0-10.905273,8.87207-19.777344,19.777832-19.777344s19.777832,8.87207,19.777832,19.777344c0,10.90625-8.87207,19.77832-19.777832,19.77832Z" fill="none" stroke="#231f20" stroke-miterlimit="10"/><circle cx="462.99409" cy="332.982618" r="17.777778" fill="#a4dff9" stroke="#231f20" stroke-miterlimit="10"/><path d="M504.771795,352.760828c-10.905762,0-19.777832-8.87207-19.777832-19.77832,0-10.905273,8.87207-19.777344,19.777832-19.777344s19.777832,8.87207,19.777832,19.777344c0,10.90625-8.87207,19.77832-19.777832,19.77832Z" fill="none" stroke="#231f20" stroke-miterlimit="10"/><circle cx="504.771867" cy="332.982618" r="17.777778" fill="#a4dff9" stroke="#231f20" stroke-miterlimit="10"/><path d="M45.216131,305.30282c-10.905762,0-19.777832-8.87207-19.777832-19.777344s8.87207-19.777344,19.777832-19.777344,19.777832,8.87207,19.777832,19.777344-8.87207,19.777344-19.777832,19.777344Z" fill="none" stroke="#231f20" stroke-miterlimit="10"/><circle cx="45.216312" cy="285.525435" r="17.777778" fill="#a4dff9" stroke="#231f20" stroke-miterlimit="10"/><path d="M86.993963,305.30282c-10.905762,0-19.777832-8.87207-19.777832-19.777344s8.87207-19.777344,19.777832-19.777344,19.777832,8.87207,19.777832,19.777344-8.87207,19.777344-19.777832,19.777344Z" fill="none" stroke="#231f20" stroke-miterlimit="10"/><circle cx="86.99409" cy="285.525435" r="17.777778" fill="#a4dff9" stroke="#231f20" stroke-miterlimit="10"/><path d="M128.771795,305.30282c-10.905762,0-19.777832-8.87207-19.777832-19.777344s8.87207-19.777344,19.777832-19.777344,19.777832,8.87207,19.777832,19.777344-8.87207,19.777344-19.777832,19.777344Z" fill="none" stroke="#231f20" stroke-miterlimit="10"/><circle cx="128.771867" cy="285.525435" r="17.777778" fill="#a4dff9" stroke="#231f20" stroke-miterlimit="10"/><path d="M170.549627,305.30282c-10.905762,0-19.777832-8.87207-19.777832-19.777344s8.87207-19.777344,19.777832-19.777344,19.777832,8.87207,19.777832,19.777344-8.87207,19.777344-19.777832,19.777344Z" fill="none" stroke="#231f20" stroke-miterlimit="10"/><circle cx="170.549645" cy="285.525435" r="17.777778" fill="#a4dff9" stroke="#231f20" stroke-miterlimit="10"/><path d="M212.327459,305.30282c-10.905762,0-19.777832-8.87207-19.777832-19.777344s8.87207-19.777344,19.777832-19.777344,19.777832,8.87207,19.777832,19.777344-8.87207,19.777344-19.777832,19.777344Z" fill="none" stroke="#231f20" stroke-miterlimit="10"/><circle cx="212.327423" cy="285.525435" r="17.777778" fill="#a4dff9" stroke="#231f20" stroke-miterlimit="10"/><path d="M254.105291,305.30282c-10.905762,0-19.777832-8.87207-19.777832-19.777344s8.87207-19.777344,19.777832-19.777344,19.777832,8.87207,19.777832,19.777344-8.87207,19.777344-19.777832,19.777344Z" fill="none" stroke="#231f20" stroke-miterlimit="10"/><circle cx="254.105201" cy="285.525435" r="17.777778" fill="#a4dff9" stroke="#231f20" stroke-miterlimit="10"/><path d="M295.883123,305.30282c-10.905762,0-19.777832-8.87207-19.777832-19.777344s8.87207-19.777344,19.777832-19.777344,19.777832,8.87207,19.777832,19.777344-8.87207,19.777344-19.777832,19.777344Z" fill="none" stroke="#231f20" stroke-miterlimit="10"/><circle cx="295.882979" cy="285.525435" r="17.777778" fill="#a4dff9" stroke="#231f20" stroke-miterlimit="10"/><path d="M337.660955,305.30282c-10.905762,0-19.777832-8.87207-19.777832-19.777344s8.87207-19.777344,19.777832-19.777344c10.905273,0,19.777344,8.87207,19.777344,19.777344s-8.87207,19.777344-19.777344,19.777344Z" fill="none" stroke="#231f20" stroke-miterlimit="10"/><circle cx="337.660756" cy="285.525435" r="17.777778" fill="#a4dff9" stroke="#231f20" stroke-miterlimit="10"/><path d="M379.438299,305.30282c-10.905273,0-19.777344-8.87207-19.777344-19.777344s8.87207-19.777344,19.777344-19.777344c10.905762,0,19.777832,8.87207,19.777832,19.777344s-8.87207,19.777344-19.777832,19.777344Z" fill="none" stroke="#231f20" stroke-miterlimit="10"/><circle cx="379.438534" cy="285.525435" r="17.777778" fill="#a4dff9" stroke="#231f20" stroke-miterlimit="10"/><path d="M421.216131,305.30282c-10.905762,0-19.777832-8.87207-19.777832-19.777344s8.87207-19.777344,19.777832-19.777344,19.777832,8.87207,19.777832,19.777344-8.87207,19.777344-19.777832,19.777344Z" fill="none" stroke="#231f20" stroke-miterlimit="10"/><circle cx="421.216312" cy="285.525435" r="17.777778" fill="#a4dff9" stroke="#231f20" stroke-miterlimit="10"/><path d="M462.993963,305.30282c-10.905762,0-19.777832-8.87207-19.777832-19.777344s8.87207-19.777344,19.777832-19.777344,19.777832,8.87207,19.777832,19.777344-8.87207,19.777344-19.777832,19.777344Z" fill="none" stroke="#231f20" stroke-miterlimit="10"/><circle cx="462.99409" cy="285.525435" r="17.777778" fill="#a4dff9" stroke="#231f20" stroke-miterlimit="10"/><path d="M504.771795,305.30282c-10.905762,0-19.777832-8.87207-19.777832-19.777344s8.87207-19.777344,19.777832-19.777344,19.777832,8.87207,19.777832,19.777344-8.87207,19.777344-19.777832,19.777344Z" fill="none" stroke="#231f20" stroke-miterlimit="10"/><circle cx="504.771867" cy="285.525435" r="17.777778" fill="#a4dff9" stroke="#231f20" stroke-miterlimit="10"/><path d="M45.216131,257.845789c-10.905762,0-19.777832-8.87207-19.777832-19.777344,0-10.90625,8.87207-19.77832,19.777832-19.77832s19.777832,8.87207,19.777832,19.77832c0,10.905273-8.87207,19.777344-19.777832,19.777344Z" fill="none" stroke="#231f20" stroke-miterlimit="10"/><circle cx="45.216312" cy="238.068253" r="17.777778" fill="#a4dff9" stroke="#231f20" stroke-miterlimit="10"/><path d="M86.993963,257.845789c-10.905762,0-19.777832-8.87207-19.777832-19.777344,0-10.90625,8.87207-19.77832,19.777832-19.77832s19.777832,8.87207,19.777832,19.77832c0,10.905273-8.87207,19.777344-19.777832,19.777344Z" fill="none" stroke="#231f20" stroke-miterlimit="10"/><circle cx="86.99409" cy="238.068253" r="17.777778" fill="#a4dff9" stroke="#231f20" stroke-miterlimit="10"/><path d="M128.771795,257.845789c-10.905762,0-19.777832-8.87207-19.777832-19.777344,0-10.90625,8.87207-19.77832,19.777832-19.77832s19.777832,8.87207,19.777832,19.77832c0,10.905273-8.87207,19.777344-19.777832,19.777344Z" fill="none" stroke="#231f20" stroke-miterlimit="10"/><circle cx="128.771867" cy="238.068253" r="17.777778" fill="#a4dff9" stroke="#231f20" stroke-miterlimit="10"/><path d="M170.549627,257.845789c-10.905762,0-19.777832-8.87207-19.777832-19.777344,0-10.90625,8.87207-19.77832,19.777832-19.77832s19.777832,8.87207,19.777832,19.77832c0,10.905273-8.87207,19.777344-19.777832,19.777344Z" fill="none" stroke="#231f20" stroke-miterlimit="10"/><circle cx="170.549645" cy="238.068253" r="17.777778" fill="#a4dff9" stroke="#231f20" stroke-miterlimit="10"/><path d="M212.327459,257.845789c-10.905762,0-19.777832-8.87207-19.777832-19.777344,0-10.90625,8.87207-19.77832,19.777832-19.77832s19.777832,8.87207,19.777832,19.77832c0,10.905273-8.87207,19.777344-19.777832,19.777344Z" fill="none" stroke="#231f20" stroke-miterlimit="10"/><circle cx="212.327423" cy="238.068253" r="17.777778" fill="#a4dff9" stroke="#231f20" stroke-miterlimit="10"/><path d="M254.105291,257.845789c-10.905762,0-19.777832-8.87207-19.777832-19.777344,0-10.90625,8.87207-19.77832,19.777832-19.77832s19.777832,8.87207,19.777832,19.77832c0,10.905273-8.87207,19.777344-19.777832,19.777344Z" fill="none" stroke="#231f20" stroke-miterlimit="10"/><circle cx="254.105201" cy="238.068253" r="17.777778" fill="#a4dff9" stroke="#231f20" stroke-miterlimit="10"/><path d="M295.883123,257.845789c-10.905762,0-19.777832-8.87207-19.777832-19.777344,0-10.90625,8.87207-19.77832,19.777832-19.77832s19.777832,8.87207,19.777832,19.77832c0,10.905273-8.87207,19.777344-19.777832,19.777344Z" fill="none" stroke="#231f20" stroke-miterlimit="10"/><circle cx="295.882979" cy="238.068253" r="17.777778" fill="#a4dff9" stroke="#231f20" stroke-miterlimit="10"/><path d="M337.660955,257.845789c-10.905762,0-19.777832-8.87207-19.777832-19.777344,0-10.90625,8.87207-19.77832,19.777832-19.77832,10.905273,0,19.777344,8.87207,19.777344,19.77832,0,10.905273-8.87207,19.777344-19.777344,19.777344Z" fill="none" stroke="#231f20" stroke-miterlimit="10"/><circle cx="337.660756" cy="238.068253" r="17.777778" fill="#a4dff9" stroke="#231f20" stroke-miterlimit="10"/><path d="M379.438299,257.845789c-10.905273,0-19.777344-8.87207-19.777344-19.777344,0-10.90625,8.87207-19.77832,19.777344-19.77832,10.905762,0,19.777832,8.87207,19.777832,19.77832,0,10.905273-8.87207,19.777344-19.777832,19.777344Z" fill="none" stroke="#231f20" stroke-miterlimit="10"/><circle cx="379.438534" cy="238.068253" r="17.777778" fill="#a4dff9" stroke="#231f20" stroke-miterlimit="10"/><path d="M421.216131,257.845789c-10.905762,0-19.777832-8.87207-19.777832-19.777344,0-10.90625,8.87207-19.77832,19.777832-19.77832s19.777832,8.87207,19.777832,19.77832c0,10.905273-8.87207,19.777344-19.777832,19.777344Z" fill="none" stroke="#231f20" stroke-miterlimit="10"/><circle cx="421.216312" cy="238.068253" r="17.777778" fill="#a4dff9" stroke="#231f20" stroke-miterlimit="10"/><path d="M462.993963,257.845789c-10.905762,0-19.777832-8.87207-19.777832-19.777344,0-10.90625,8.87207-19.77832,19.777832-19.77832s19.777832,8.87207,19.777832,19.77832c0,10.905273-8.87207,19.777344-19.777832,19.777344Z" fill="none" stroke="#231f20" stroke-miterlimit="10"/><circle cx="462.99409" cy="238.068253" r="17.777778" fill="#a4dff9" stroke="#231f20" stroke-miterlimit="10"/><path d="M504.771795,257.845789c-10.905762,0-19.777832-8.87207-19.777832-19.777344,0-10.90625,8.87207-19.77832,19.777832-19.77832s19.777832,8.87207,19.777832,19.77832c0,10.905273-8.87207,19.777344-19.777832,19.777344Z" fill="none" stroke="#231f20" stroke-miterlimit="10"/><circle cx="504.771867" cy="238.068253" r="17.777778" fill="#a4dff9" stroke="#231f20" stroke-miterlimit="10"/><path d="M45.216131,210.388758c-10.905762,0-19.777832-8.87207-19.777832-19.777344,0-10.90625,8.87207-19.77832,19.777832-19.77832s19.777832,8.87207,19.777832,19.77832c0,10.905273-8.87207,19.777344-19.777832,19.777344Z" fill="none" stroke="#231f20" stroke-miterlimit="10"/><circle cx="45.216312" cy="190.611071" r="17.777778" fill="#a4dff9" stroke="#231f20" stroke-miterlimit="10"/><path d="M86.993963,210.388758c-10.905762,0-19.777832-8.87207-19.777832-19.777344,0-10.90625,8.87207-19.77832,19.777832-19.77832s19.777832,8.87207,19.777832,19.77832c0,10.905273-8.87207,19.777344-19.777832,19.777344Z" fill="none" stroke="#231f20" stroke-miterlimit="10"/><circle cx="86.99409" cy="190.611071" r="17.777778" fill="#a4dff9" stroke="#231f20" stroke-miterlimit="10"/><path d="M128.771795,210.388758c-10.905762,0-19.777832-8.87207-19.777832-19.777344,0-10.90625,8.87207-19.77832,19.777832-19.77832s19.777832,8.87207,19.777832,19.77832c0,10.905273-8.87207,19.777344-19.777832,19.777344Z" fill="none" stroke="#231f20" stroke-miterlimit="10"/><circle cx="128.771867" cy="190.611071" r="17.777778" fill="#a4dff9" stroke="#231f20" stroke-miterlimit="10"/><path d="M170.549627,210.388758c-10.905762,0-19.777832-8.87207-19.777832-19.777344,0-10.90625,8.87207-19.77832,19.777832-19.77832s19.777832,8.87207,19.777832,19.77832c0,10.905273-8.87207,19.777344-19.777832,19.777344Z" fill="none" stroke="#231f20" stroke-miterlimit="10"/><circle cx="170.549645" cy="190.611071" r="17.777778" fill="#a4dff9" stroke="#231f20" stroke-miterlimit="10"/><path d="M212.327459,210.388758c-10.905762,0-19.777832-8.87207-19.777832-19.777344,0-10.90625,8.87207-19.77832,19.777832-19.77832s19.777832,8.87207,19.777832,19.77832c0,10.905273-8.87207,19.777344-19.777832,19.777344Z" fill="none" stroke="#231f20" stroke-miterlimit="10"/><circle cx="212.327423" cy="190.611071" r="17.777778" fill="#a4dff9" stroke="#231f20" stroke-miterlimit="10"/><path d="M254.105291,210.388758c-10.905762,0-19.777832-8.87207-19.777832-19.777344,0-10.90625,8.87207-19.77832,19.777832-19.77832s19.777832,8.87207,19.777832,19.77832c0,10.905273-8.87207,19.777344-19.777832,19.777344Z" fill="none" stroke="#231f20" stroke-miterlimit="10"/><circle cx="254.105201" cy="190.611071" r="17.777778" fill="#a4dff9" stroke="#231f20" stroke-miterlimit="10"/><path d="M295.883123,210.388758c-10.905762,0-19.777832-8.87207-19.777832-19.777344,0-10.90625,8.87207-19.77832,19.777832-19.77832s19.777832,8.87207,19.777832,19.77832c0,10.905273-8.87207,19.777344-19.777832,19.777344Z" fill="none" stroke="#231f20" stroke-miterlimit="10"/><circle cx="295.882979" cy="190.611071" r="17.777778" fill="#a4dff9" stroke="#231f20" stroke-miterlimit="10"/><path d="M337.660955,210.388758c-10.905762,0-19.777832-8.87207-19.777832-19.777344,0-10.90625,8.87207-19.77832,19.777832-19.77832,10.905273,0,19.777344,8.87207,19.777344,19.77832,0,10.905273-8.87207,19.777344-19.777344,19.777344Z" fill="none" stroke="#231f20" stroke-miterlimit="10"/><circle cx="337.660756" cy="190.611071" r="17.777778" fill="#a4dff9" stroke="#231f20" stroke-miterlimit="10"/><path d="M379.438299,210.388758c-10.905273,0-19.777344-8.87207-19.777344-19.777344,0-10.90625,8.87207-19.77832,19.777344-19.77832,10.905762,0,19.777832,8.87207,19.777832,19.77832,0,10.905273-8.87207,19.777344-19.777832,19.777344Z" fill="none" stroke="#231f20" stroke-miterlimit="10"/><circle cx="379.438534" cy="190.611071" r="17.777778" fill="#a4dff9" stroke="#231f20" stroke-miterlimit="10"/><path d="M421.216131,210.388758c-10.905762,0-19.777832-8.87207-19.777832-19.777344,0-10.90625,8.87207-19.77832,19.777832-19.77832s19.777832,8.87207,19.777832,19.77832c0,10.905273-8.87207,19.777344-19.777832,19.777344Z" fill="none" stroke="#231f20" stroke-miterlimit="10"/><circle cx="421.216312" cy="190.611071" r="17.777778" fill="#a4dff9" stroke="#231f20" stroke-miterlimit="10"/><path d="M462.993963,210.388758c-10.905762,0-19.777832-8.87207-19.777832-19.777344,0-10.90625,8.87207-19.77832,19.777832-19.77832s19.777832,8.87207,19.777832,19.77832c0,10.905273-8.87207,19.777344-19.777832,19.777344Z" fill="none" stroke="#231f20" stroke-miterlimit="10"/><circle cx="462.99409" cy="190.611071" r="17.777778" fill="#a4dff9" stroke="#231f20" stroke-miterlimit="10"/><path d="M504.771795,210.388758c-10.905762,0-19.777832-8.87207-19.777832-19.777344,0-10.90625,8.87207-19.77832,19.777832-19.77832s19.777832,8.87207,19.777832,19.77832c0,10.905273-8.87207,19.777344-19.777832,19.777344Z" fill="none" stroke="#231f20" stroke-miterlimit="10"/><circle cx="504.771867" cy="190.611071" r="17.777778" fill="#a4dff9" stroke="#231f20" stroke-miterlimit="10"/><path d="M45.216131,162.931726c-10.905762,0-19.777832-8.87207-19.777832-19.77832,0-10.905273,8.87207-19.777344,19.777832-19.777344s19.777832,8.87207,19.777832,19.777344c0,10.90625-8.87207,19.77832-19.777832,19.77832Z" fill="none" stroke="#231f20" stroke-miterlimit="10"/><circle cx="45.216312" cy="143.153889" r="17.777778" fill="#a4dff9" stroke="#231f20" stroke-miterlimit="10"/><path d="M86.993963,162.931726c-10.905762,0-19.777832-8.87207-19.777832-19.77832,0-10.905273,8.87207-19.777344,19.777832-19.777344s19.777832,8.87207,19.777832,19.777344c0,10.90625-8.87207,19.77832-19.777832,19.77832Z" fill="none" stroke="#231f20" stroke-miterlimit="10"/><circle cx="86.99409" cy="143.153889" r="17.777778" fill="#a4dff9" stroke="#231f20" stroke-miterlimit="10"/><path d="M128.771795,162.931726c-10.905762,0-19.777832-8.87207-19.777832-19.77832,0-10.905273,8.87207-19.777344,19.777832-19.777344s19.777832,8.87207,19.777832,19.777344c0,10.90625-8.87207,19.77832-19.777832,19.77832Z" fill="none" stroke="#231f20" stroke-miterlimit="10"/><circle cx="128.771867" cy="143.153889" r="17.777778" fill="#a4dff9" stroke="#231f20" stroke-miterlimit="10"/><path d="M170.549627,162.931726c-10.905762,0-19.777832-8.87207-19.777832-19.77832,0-10.905273,8.87207-19.777344,19.777832-19.777344s19.777832,8.87207,19.777832,19.777344c0,10.90625-8.87207,19.77832-19.777832,19.77832Z" fill="none" stroke="#231f20" stroke-miterlimit="10"/><circle cx="170.549645" cy="143.153889" r="17.777778" fill="#a4dff9" stroke="#231f20" stroke-miterlimit="10"/><path d="M212.327459,162.931726c-10.905762,0-19.777832-8.87207-19.777832-19.77832,0-10.905273,8.87207-19.777344,19.777832-19.777344s19.777832,8.87207,19.777832,19.777344c0,10.90625-8.87207,19.77832-19.777832,19.77832Z" fill="none" stroke="#231f20" stroke-miterlimit="10"/><circle cx="212.327423" cy="143.153889" r="17.777778" fill="#a4dff9" stroke="#231f20" stroke-miterlimit="10"/><path d="M254.105291,162.931726c-10.905762,0-19.777832-8.87207-19.777832-19.77832,0-10.905273,8.87207-19.777344,19.777832-19.777344s19.777832,8.87207,19.777832,19.777344c0,10.90625-8.87207,19.77832-19.777832,19.77832Z" fill="none" stroke="#231f20" stroke-miterlimit="10"/><circle cx="254.105201" cy="143.153889" r="17.777778" fill="#a4dff9" stroke="#231f20" stroke-miterlimit="10"/><path d="M295.883123,162.931726c-10.905762,0-19.777832-8.87207-19.777832-19.77832,0-10.905273,8.87207-19.777344,19.777832-19.777344s19.777832,8.87207,19.777832,19.777344c0,10.90625-8.87207,19.77832-19.777832,19.77832Z" fill="none" stroke="#231f20" stroke-miterlimit="10"/><circle cx="295.882979" cy="143.153889" r="17.777778" fill="#a4dff9" stroke="#231f20" stroke-miterlimit="10"/><path d="M337.660955,162.931726c-10.905762,0-19.777832-8.87207-19.777832-19.77832,0-10.905273,8.87207-19.777344,19.777832-19.777344,10.905273,0,19.777344,8.87207,19.777344,19.777344,0,10.90625-8.87207,19.77832-19.777344,19.77832Z" fill="none" stroke="#231f20" stroke-miterlimit="10"/><circle cx="337.660756" cy="143.153889" r="17.777778" fill="#a4dff9" stroke="#231f20" stroke-miterlimit="10"/><path d="M379.438299,162.931726c-10.905273,0-19.777344-8.87207-19.777344-19.77832,0-10.905273,8.87207-19.777344,19.777344-19.777344,10.905762,0,19.777832,8.87207,19.777832,19.777344,0,10.90625-8.87207,19.77832-19.777832,19.77832Z" fill="none" stroke="#231f20" stroke-miterlimit="10"/><circle cx="379.438534" cy="143.153889" r="17.777778" fill="#a4dff9" stroke="#231f20" stroke-miterlimit="10"/><path d="M421.216131,162.931726c-10.905762,0-19.777832-8.87207-19.777832-19.77832,0-10.905273,8.87207-19.777344,19.777832-19.777344s19.777832,8.87207,19.777832,19.777344c0,10.90625-8.87207,19.77832-19.777832,19.77832Z" fill="none" stroke="#231f20" stroke-miterlimit="10"/><circle cx="421.216312" cy="143.153889" r="17.777778" fill="#a4dff9" stroke="#231f20" stroke-miterlimit="10"/><path d="M462.993963,162.931726c-10.905762,0-19.777832-8.87207-19.777832-19.77832,0-10.905273,8.87207-19.777344,19.777832-19.777344s19.777832,8.87207,19.777832,19.777344c0,10.90625-8.87207,19.77832-19.777832,19.77832Z" fill="none" stroke="#231f20" stroke-miterlimit="10"/><circle cx="462.99409" cy="143.153889" r="17.777778" fill="#a4dff9" stroke="#231f20" stroke-miterlimit="10"/><path d="M504.771795,162.931726c-10.905762,0-19.777832-8.87207-19.777832-19.77832,0-10.905273,8.87207-19.777344,19.777832-19.777344s19.777832,8.87207,19.777832,19.777344c0,10.90625-8.87207,19.77832-19.777832,19.77832Z" fill="none" stroke="#231f20" stroke-miterlimit="10"/><circle cx="504.771867" cy="143.153889" r="17.777778" fill="#a4dff9" stroke="#231f20" stroke-miterlimit="10"/><path d="M45.216131,115.474695c-10.905762,0-19.777832-8.87207-19.777832-19.77832,0-10.905273,8.87207-19.777344,19.777832-19.777344s19.777832,8.87207,19.777832,19.777344c0,10.90625-8.87207,19.77832-19.777832,19.77832Z" fill="none" stroke="#231f20" stroke-miterlimit="10"/><circle cx="45.216312" cy="95.696707" r="17.777778" fill="#a4dff9" stroke="#231f20" stroke-miterlimit="10"/><path d="M86.993963,115.474695c-10.905762,0-19.777832-8.87207-19.777832-19.77832,0-10.905273,8.87207-19.777344,19.777832-19.777344s19.777832,8.87207,19.777832,19.777344c0,10.90625-8.87207,19.77832-19.777832,19.77832Z" fill="none" stroke="#231f20" stroke-miterlimit="10"/><circle cx="86.99409" cy="95.696707" r="17.777778" fill="#a4dff9" stroke="#231f20" stroke-miterlimit="10"/><path d="M128.771795,115.474695c-10.905762,0-19.777832-8.87207-19.777832-19.77832,0-10.905273,8.87207-19.777344,19.777832-19.777344s19.777832,8.87207,19.777832,19.777344c0,10.90625-8.87207,19.77832-19.777832,19.77832Z" fill="none" stroke="#231f20" stroke-miterlimit="10"/><circle cx="128.771867" cy="95.696707" r="17.777778" fill="#a4dff9" stroke="#231f20" stroke-miterlimit="10"/><path d="M170.549627,115.474695c-10.905762,0-19.777832-8.87207-19.777832-19.77832,0-10.905273,8.87207-19.777344,19.777832-19.777344s19.777832,8.87207,19.777832,19.777344c0,10.90625-8.87207,19.77832-19.777832,19.77832Z" fill="none" stroke="#231f20" stroke-miterlimit="10"/><circle cx="170.549645" cy="95.696707" r="17.777778" fill="#a4dff9" stroke="#231f20" stroke-miterlimit="10"/><path d="M212.327459,115.474695c-10.905762,0-19.777832-8.87207-19.777832-19.77832,0-10.905273,8.87207-19.777344,19.777832-19.777344s19.777832,8.87207,19.777832,19.777344c0,10.90625-8.87207,19.77832-19.777832,19.77832Z" fill="none" stroke="#231f20" stroke-miterlimit="10"/><circle cx="212.327423" cy="95.696707" r="17.777778" fill="#a4dff9" stroke="#231f20" stroke-miterlimit="10"/><path d="M254.105291,115.474695c-10.905762,0-19.777832-8.87207-19.777832-19.77832,0-10.905273,8.87207-19.777344,19.777832-19.777344s19.777832,8.87207,19.777832,19.777344c0,10.90625-8.87207,19.77832-19.777832,19.77832Z" fill="none" stroke="#231f20" stroke-miterlimit="10"/><circle cx="254.105201" cy="95.696707" r="17.777778" fill="#a4dff9" stroke="#231f20" stroke-miterlimit="10"/><path d="M295.883123,115.474695c-10.905762,0-19.777832-8.87207-19.777832-19.77832,0-10.905273,8.87207-19.777344,19.777832-19.777344s19.777832,8.87207,19.777832,19.777344c0,10.90625-8.87207,19.77832-19.777832,19.77832Z" fill="none" stroke="#231f20" stroke-miterlimit="10"/><circle cx="295.882979" cy="95.696707" r="17.777778" fill="#a4dff9" stroke="#231f20" stroke-miterlimit="10"/><path d="M337.660955,115.474695c-10.905762,0-19.777832-8.87207-19.777832-19.77832,0-10.905273,8.87207-19.777344,19.777832-19.777344,10.905273,0,19.777344,8.87207,19.777344,19.777344,0,10.90625-8.87207,19.77832-19.777344,19.77832Z" fill="none" stroke="#231f20" stroke-miterlimit="10"/><circle cx="337.660756" cy="95.696707" r="17.777778" fill="#a4dff9" stroke="#231f20" stroke-miterlimit="10"/><path d="M379.438299,115.474695c-10.905273,0-19.777344-8.87207-19.777344-19.77832,0-10.905273,8.87207-19.777344,19.777344-19.777344,10.905762,0,19.777832,8.87207,19.777832,19.777344,0,10.90625-8.87207,19.77832-19.777832,19.77832Z" fill="none" stroke="#231f20" stroke-miterlimit="10"/><circle cx="379.438534" cy="95.696707" r="17.777778" fill="#a4dff9" stroke="#231f20" stroke-miterlimit="10"/><path d="M421.216131,115.474695c-10.905762,0-19.777832-8.87207-19.777832-19.77832,0-10.905273,8.87207-19.777344,19.777832-19.777344s19.777832,8.87207,19.777832,19.777344c0,10.90625-8.87207,19.77832-19.777832,19.77832Z" fill="none" stroke="#231f20" stroke-miterlimit="10"/><circle cx="421.216312" cy="95.696707" r="17.777778" fill="#a4dff9" stroke="#231f20" stroke-miterlimit="10"/><path d="M462.993963,115.474695c-10.905762,0-19.777832-8.87207-19.777832-19.77832,0-10.905273,8.87207-19.777344,19.777832-19.777344s19.777832,8.87207,19.777832,19.777344c0,10.90625-8.87207,19.77832-19.777832,19.77832Z" fill="none" stroke="#231f20" stroke-miterlimit="10"/><circle cx="462.99409" cy="95.696707" r="17.777778" fill="#a4dff9" stroke="#231f20" stroke-miterlimit="10"/><path d="M504.771795,115.474695c-10.905762,0-19.777832-8.87207-19.777832-19.77832,0-10.905273,8.87207-19.777344,19.777832-19.777344s19.777832,8.87207,19.777832,19.777344c0,10.90625-8.87207,19.77832-19.777832,19.77832Z" fill="none" stroke="#231f20" stroke-miterlimit="10"/><circle cx="504.771867" cy="95.696707" r="17.777778" fill="#a4dff9" stroke="#231f20" stroke-miterlimit="10"/><path d="M45.216131,68.017664c-10.905762,0-19.777832-8.87207-19.777832-19.77832,0-10.905273,8.87207-19.777344,19.777832-19.777344s19.777832,8.87207,19.777832,19.777344c0,10.90625-8.87207,19.77832-19.777832,19.77832Z" fill="none" stroke="#231f20" stroke-miterlimit="10"/><circle cx="45.216312" cy="48.239524" r="17.777778" fill="#a4dff9" stroke="#231f20" stroke-miterlimit="10"/><path d="M86.993963,68.017664c-10.905762,0-19.777832-8.87207-19.777832-19.77832,0-10.905273,8.87207-19.777344,19.777832-19.777344s19.777832,8.87207,19.777832,19.777344c0,10.90625-8.87207,19.77832-19.777832,19.77832Z" fill="none" stroke="#231f20" stroke-miterlimit="10"/><circle cx="86.99409" cy="48.239524" r="17.777778" fill="#a4dff9" stroke="#231f20" stroke-miterlimit="10"/><path d="M128.771795,68.017664c-10.905762,0-19.777832-8.87207-19.777832-19.77832,0-10.905273,8.87207-19.777344,19.777832-19.777344s19.777832,8.87207,19.777832,19.777344c0,10.90625-8.87207,19.77832-19.777832,19.77832Z" fill="none" stroke="#231f20" stroke-miterlimit="10"/><circle cx="128.771867" cy="48.239524" r="17.777778" fill="#a4dff9" stroke="#231f20" stroke-miterlimit="10"/><path d="M170.549627,68.017664c-10.905762,0-19.777832-8.87207-19.777832-19.77832,0-10.905273,8.87207-19.777344,19.777832-19.777344s19.777832,8.87207,19.777832,19.777344c0,10.90625-8.87207,19.77832-19.777832,19.77832Z" fill="none" stroke="#231f20" stroke-miterlimit="10"/><circle cx="170.549645" cy="48.239524" r="17.777778" fill="#a4dff9" stroke="#231f20" stroke-miterlimit="10"/><path d="M212.327459,68.017664c-10.905762,0-19.777832-8.87207-19.777832-19.77832,0-10.905273,8.87207-19.777344,19.777832-19.777344s19.777832,8.87207,19.777832,19.777344c0,10.90625-8.87207,19.77832-19.777832,19.77832Z" fill="none" stroke="#231f20" stroke-miterlimit="10"/><circle cx="212.327423" cy="48.239524" r="17.777778" fill="#a4dff9" stroke="#231f20" stroke-miterlimit="10"/><path d="M254.105291,68.017664c-10.905762,0-19.777832-8.87207-19.777832-19.77832,0-10.905273,8.87207-19.777344,19.777832-19.777344s19.777832,8.87207,19.777832,19.777344c0,10.90625-8.87207,19.77832-19.777832,19.77832Z" fill="none" stroke="#231f20" stroke-miterlimit="10"/><circle cx="254.105201" cy="48.239524" r="17.777778" fill="#a4dff9" stroke="#231f20" stroke-miterlimit="10"/><path d="M295.883123,68.017664c-10.905762,0-19.777832-8.87207-19.777832-19.77832,0-10.905273,8.87207-19.777344,19.777832-19.777344s19.777832,8.87207,19.777832,19.777344c0,10.90625-8.87207,19.77832-19.777832,19.77832Z" fill="none" stroke="#231f20" stroke-miterlimit="10"/><circle cx="295.882979" cy="48.239524" r="17.777778" fill="#a4dff9" stroke="#231f20" stroke-miterlimit="10"/><path d="M337.660955,68.017664c-10.905762,0-19.777832-8.87207-19.777832-19.77832,0-10.905273,8.87207-19.777344,19.777832-19.777344,10.905273,0,19.777344,8.87207,19.777344,19.777344,0,10.90625-8.87207,19.77832-19.777344,19.77832Z" fill="none" stroke="#231f20" stroke-miterlimit="10"/><circle cx="337.660756" cy="48.239524" r="17.777778" fill="#a4dff9" stroke="#231f20" stroke-miterlimit="10"/><path d="M379.438299,68.017664c-10.905273,0-19.777344-8.87207-19.777344-19.77832,0-10.905273,8.87207-19.777344,19.777344-19.777344,10.905762,0,19.777832,8.87207,19.777832,19.777344,0,10.90625-8.87207,19.77832-19.777832,19.77832Z" fill="none" stroke="#231f20" stroke-miterlimit="10"/><circle cx="379.438534" cy="48.239524" r="17.777778" fill="#a4dff9" stroke="#231f20" stroke-miterlimit="10"/><path d="M421.216131,68.017664c-10.905762,0-19.777832-8.87207-19.777832-19.77832,0-10.905273,8.87207-19.777344,19.777832-19.777344s19.777832,8.87207,19.777832,19.777344c0,10.90625-8.87207,19.77832-19.777832,19.77832Z" fill="none" stroke="#231f20" stroke-miterlimit="10"/><circle cx="421.216312" cy="48.239524" r="17.777778" fill="#a4dff9" stroke="#231f20" stroke-miterlimit="10"/><path d="M462.993963,68.017664c-10.905762,0-19.777832-8.87207-19.777832-19.77832,0-10.905273,8.87207-19.777344,19.777832-19.777344s19.777832,8.87207,19.777832,19.777344c0,10.90625-8.87207,19.77832-19.777832,19.77832Z" fill="none" stroke="#231f20" stroke-miterlimit="10"/><circle cx="462.99409" cy="48.239524" r="17.777778" fill="#a4dff9" stroke="#231f20" stroke-miterlimit="10"/><path d="M504.771795,68.017664c-10.905762,0-19.777832-8.87207-19.777832-19.77832,0-10.905273,8.87207-19.777344,19.777832-19.777344s19.777832,8.87207,19.777832,19.777344c0,10.90625-8.87207,19.77832-19.777832,19.77832Z" fill="none" stroke="#231f20" stroke-miterlimit="10"/><circle cx="504.771867" cy="48.239524" r="17.777778" fill="#a4dff9" stroke="#231f20" stroke-miterlimit="10"/><path d="M508.940708,365.860845c.089808.47994-3.298409,1.19262-9.022503,4.399294-5.291471,2.964353-7.667154,5.308232-8.044898,4.965442-.437323-.396843,2.00104-4.215174,6.006476-6.731625,5.040269-3.166558,10.944471-3.25539,11.060925-2.633111Z" fill="#ccecfc"/><path d="M466.012535,364.823807c.089808.47994-3.298409,1.19262-9.022503,4.399294-5.291471,2.964353-7.667154,5.308232-8.044898,4.965442-.437323-.396843,2.00104-4.215174,6.006476-6.731625,5.040269-3.166558,10.944471-3.25539,11.060925-2.633111Z" fill="#ccecfc"/><path d="M425.902741,365.860845c.089808.47994-3.298409,1.19262-9.022503,4.399294-5.291471,2.964353-7.667154,5.308232-8.044898,4.965442-.437323-.396843,2.00104-4.215174,6.006476-6.731625,5.040269-3.166558,10.944471-3.25539,11.060925-2.633111Z" fill="#ccecfc"/><path d="M385.483749,367.04603c.089808.47994-3.298409,1.19262-9.022503,4.399294-5.291471,2.964353-7.667154,5.308232-8.044898,4.965442-.437323-.396843,2.00104-4.215174,6.006476-6.731625,5.040269-3.166558,10.944471-3.25539,11.060925-2.633111Z" fill="#ccecfc"/><path d="M341.784526,364.934919c.089808.47994-3.298409,1.19262-9.022503,4.399294-5.291471,2.964353-7.667154,5.308232-8.044898,4.965442-.437323-.396843,2.00104-4.215174,6.006476-6.731625,5.040269-3.166558,10.944471-3.25539,11.060925-2.633111Z" fill="#ccecfc"/><path d="M299.529748,365.379363c.089808.47994-3.298409,1.19262-9.022503,4.399294-5.291471,2.964353-7.667154,5.308232-8.044898,4.965442-.437323-.396843,2.00104-4.215174,6.006476-6.731625,5.040269-3.166558,10.944471-3.25539,11.060925-2.633111Z" fill="#ccecfc"/><path d="M257.61091,364.934919c.089808.47994-3.298409,1.19262-9.022503,4.399294-5.291471,2.964353-7.667154,5.308232-8.044898,4.965442-.437323-.396843,2.00104-4.215174,6.006476-6.731625,5.040269-3.166558,10.944471-3.25539,11.060925-2.633111Z" fill="#ccecfc"/><path d="M216.088331,364.823807c.089808.47994-3.298409,1.19262-9.022503,4.399294-5.291471,2.964353-7.667154,5.308232-8.044898,4.965442-.437323-.396843,2.00104-4.215174,6.006476-6.731625,5.040269-3.166558,10.944471-3.25539,11.060925-2.633111Z" fill="#ccecfc"/><path d="M174.098748,365.379363c.089808.47994-3.298409,1.19262-9.022503,4.399294-5.291471,2.964353-7.667154,5.308232-8.044898,4.965442-.437323-.396843,2.00104-4.215174,6.006476-6.731625,5.040269-3.166558,10.944471-3.25539,11.060925-2.633111Z" fill="#ccecfc"/><path d="M133.955081,367.04603c.089808.47994-3.298409,1.19262-9.022503,4.399294-5.291471,2.964353-7.667154,5.308232-8.044898,4.965442-.437323-.396843,2.00104-4.215174,6.006476-6.731625,5.040269-3.166558,10.944471-3.25539,11.060925-2.633111Z" fill="#ccecfc"/><path d="M92.033636,367.04603c.089808.47994-3.298409,1.19262-9.022503,4.399294-5.291471,2.964353-7.667154,5.308232-8.044898,4.965442-.437323-.396843,2.00104-4.215174,6.006476-6.731625,5.040269-3.166558,10.944471-3.25539,11.060925-2.633111Z" fill="#ccecfc"/><path d="M50.112191,367.04603c.089808.47994-3.298409,1.19262-9.022503,4.399294-5.291471,2.964353-7.667154,5.308232-8.044898,4.965442-.437323-.396843,2.00104-4.215174,6.006476-6.731625,5.040269-3.166558,10.944471-3.25539,11.060925-2.633111Z" fill="#ccecfc"/><path d="M507.966666,317.745943c.089808.47994-3.298409,1.19262-9.022503,4.399294-5.291471,2.964353-7.667154,5.308232-8.044898,4.965442-.437323-.396843,2.00104-4.215174,6.006476-6.731625,5.040269-3.166558,10.944471-3.25539,11.060925-2.633111Z" fill="#ccecfc"/><path d="M466.809242,317.881323c.053919.485284-3.377866.944383-9.324287,3.717124-5.496997,2.563216-8.04018,4.724202-8.391424,4.354308-.406646-.428224,2.308539-4.054936,6.48979-6.266989,5.261504-2.783518,11.156001-2.433651,11.225922-1.804443Z" fill="#ccecfc"/><path d="M424.568221,317.745943c.089808.47994-3.298409,1.19262-9.022503,4.399294-5.291471,2.964353-7.667154,5.308232-8.044898,4.965442-.437323-.396843,2.00104-4.215174,6.006476-6.731625,5.040269-3.166558,10.944471-3.25539,11.060925-2.633111Z" fill="#ccecfc"/><path d="M382.882782,317.745943c.089808.47994-3.298409,1.19262-9.022503,4.399294-5.291471,2.964353-7.667154,5.308232-8.044898,4.965442-.437323-.396843,2.00104-4.215174,6.006476-6.731625,5.040269-3.166558,10.944471-3.25539,11.060925-2.633111Z" fill="#ccecfc"/><path d="M340.747489,317.745943c.089808.47994-3.298409,1.19262-9.022503,4.399294-5.291471,2.964353-7.667154,5.308232-8.044898,4.965442-.437323-.396843,2.00104-4.215174,6.006476-6.731625,5.040269-3.166558,10.944471-3.25539,11.060925-2.633111Z" fill="#ccecfc"/><path d="M299.529748,318.320876c.089808.47994-3.298409,1.19262-9.022503,4.399294-5.291471,2.964353-7.667154,5.308232-8.044898,4.965442-.437323-.396843,2.00104-4.215174,6.006476-6.731625,5.040269-3.166558,10.944471-3.25539,11.060925-2.633111Z" fill="#ccecfc"/><path d="M257.018317,317.745943c.089808.47994-3.298409,1.19262-9.022503,4.399294-5.291471,2.964353-7.667154,5.308232-8.044898,4.965442-.437323-.396843,2.00104-4.215174,6.006476-6.731625,5.040269-3.166558,10.944471-3.25539,11.060925-2.633111Z" fill="#ccecfc"/><path d="M216.088331,317.745943c.089808.47994-3.298409,1.19262-9.022503,4.399294-5.291471,2.964353-7.667154,5.308232-8.044898,4.965442-.437323-.396843,2.00104-4.215174,6.006476-6.731625,5.040269-3.166558,10.944471-3.25539,11.060925-2.633111Z" fill="#ccecfc"/><path d="M174.098748,317.745943c.089808.47994-3.298409,1.19262-9.022503,4.399294-5.291471,2.964353-7.667154,5.308232-8.044898,4.965442-.437323-.396843,2.00104-4.215174,6.006476-6.731625,5.040269-3.166558,10.944471-3.25539,11.060925-2.633111Z" fill="#ccecfc"/><path d="M132.192502,317.745943c.089808.47994-3.298409,1.19262-9.022503,4.399294-5.291471,2.964353-7.667154,5.308232-8.044898,4.965442-.437323-.396843,2.00104-4.215174,6.006476-6.731625,5.040269-3.166558,10.944471-3.25539,11.060925-2.633111Z" fill="#ccecfc"/><path d="M91.800335,319.523721c.089808.47994-3.298409,1.19262-9.022503,4.399294-5.291471,2.964353-7.667154,5.308232-8.044898,4.965442-.437323-.396843,2.00104-4.215174,6.006476-6.731625,5.040269-3.166558,10.944471-3.25539,11.060925-2.633111Z" fill="#ccecfc"/><path d="M49.87889,319.523721c.089808.47994-3.298409,1.19262-9.022503,4.399294-5.291471,2.964353-7.667154,5.308232-8.044898,4.965442-.437323-.396843,2.00104-4.215174,6.006476-6.731625,5.040269-3.166558,10.944471-3.25539,11.060925-2.633111Z" fill="#ccecfc"/><path d="M508.202792,270.355412c.052415.485449-3.380778.933907-9.335766,3.688201-5.504917,2.546163-8.054786,4.699255-8.404883,4.328273-.405316-.429482,2.321098-4.04776,6.509187-6.246841,5.270108-2.767193,11.163491-2.399056,11.231462-1.769633Z" fill="#ccecfc"/><path d="M466.683531,270.220755c.059846.484589-3.366073.985593-9.278164,3.830798-5.465262,2.630203-7.981845,4.822108-8.337584,4.456533-.411848-.423222,2.258811-4.082845,6.412717-6.345833,5.227094-2.84761,11.125426-2.569806,11.203032-1.941499Z" fill="#ccecfc"/><path d="M424.568221,269.631041c.089808.47994-3.298409,1.19262-9.022503,4.399294-5.291471,2.964353-7.667154,5.308232-8.044898,4.965442-.437323-.396843,2.00104-4.215174,6.006476-6.731625,5.040269-3.166558,10.944471-3.25539,11.060925-2.633111Z" fill="#ccecfc"/><path d="M382.054183,270.668079c.089808.47994-3.298409,1.19262-9.022503,4.399294-5.291471,2.964353-7.667154,5.308232-8.044898,4.965442-.437323-.396843,2.00104-4.215174,6.006476-6.731625,5.040269-3.166558,10.944471-3.25539,11.060925-2.633111Z" fill="#ccecfc"/><path d="M340.154897,270.371782c.089808.47994-3.298409,1.19262-9.022503,4.399294-5.291471,2.964353-7.667154,5.308232-8.044898,4.965442-.437323-.396843,2.00104-4.215174,6.006476-6.731625,5.040269-3.166558,10.944471-3.25539,11.060925-2.633111Z" fill="#ccecfc"/><path d="M299.374321,270.668079c.089808.47994-3.298409,1.19262-9.022503,4.399294-5.291471,2.964353-7.667154,5.308232-8.044898,4.965442-.437323-.396843,2.00104-4.215174,6.006476-6.731625,5.040269-3.166558,10.944471-3.25539,11.060925-2.633111Z" fill="#ccecfc"/><path d="M257.61091,270.371782c.089808.47994-3.298409,1.19262-9.022503,4.399294-5.291471,2.964353-7.667154,5.308232-8.044898,4.965442-.437323-.396843,2.00104-4.215174,6.006476-6.731625,5.040269-3.166558,10.944471-3.25539,11.060925-2.633111Z" fill="#ccecfc"/><path d="M216.088331,270.668079c.089808.47994-3.298409,1.19262-9.022503,4.399294-5.291471,2.964353-7.667154,5.308232-8.044898,4.965442-.437323-.396843,2.00104-4.215174,6.006476-6.731625,5.040269-3.166558,10.944471-3.25539,11.060925-2.633111Z" fill="#ccecfc"/><path d="M174.788405,270.668079c.089808.47994-3.298409,1.19262-9.022503,4.399294-5.291471,2.964353-7.667154,5.308232-8.044898,4.965442-.437323-.396843,2.00104-4.215174,6.006476-6.731625,5.040269-3.166558,10.944471-3.25539,11.060925-2.633111Z" fill="#ccecfc"/><path d="M132.192502,270.668079c.089808.47994-3.298409,1.19262-9.022503,4.399294-5.291471,2.964353-7.667154,5.308232-8.044898,4.965442-.437323-.396843,2.00104-4.215174,6.006476-6.731625,5.040269-3.166558,10.944471-3.25539,11.060925-2.633111Z" fill="#ccecfc"/><path d="M90.412386,270.692707c.089808.47994-3.298409,1.19262-9.022503,4.399294-5.291471,2.964353-7.667154,5.308232-8.044898,4.965442-.437323-.396843,2.00104-4.215174,6.006476-6.731625,5.040269-3.166558,10.944471-3.25539,11.060925-2.633111Z" fill="#ccecfc"/><path d="M48.460404,270.692707c.089808.47994-3.298409,1.19262-9.022503,4.399294-5.291471,2.964353-7.667154,5.308232-8.044898,4.965442-.437323-.396843,2.00104-4.215174,6.006476-6.731625,5.040269-3.166558,10.944471-3.25539,11.060925-2.633111Z" fill="#ccecfc"/><path d="M507.870924,222.849473c.089808.47994-3.298409,1.19262-9.022503,4.399294-5.291471,2.964353-7.667154,5.308232-8.044898,4.965442-.437323-.396843,2.00104-4.215174,6.006476-6.731625,5.040269-3.166558,10.944471-3.25539,11.060925-2.633111Z" fill="#ccecfc"/><path d="M466.143895,222.849473c.089808.47994-3.298409,1.19262-9.022503,4.399294-5.291471,2.964353-7.667154,5.308232-8.044898,4.965442-.437323-.396843,2.00104-4.215174,6.006476-6.731625,5.040269-3.166558,10.944471-3.25539,11.060925-2.633111Z" fill="#ccecfc"/><path d="M424.568221,223.442066c.089808.47994-3.298409,1.19262-9.022503,4.399294-5.291471,2.964353-7.667154,5.308232-8.044898,4.965442-.437323-.396843,2.00104-4.215174,6.006476-6.731625,5.040269-3.166558,10.944471-3.25539,11.060925-2.633111Z" fill="#ccecfc"/><path d="M383.069063,222.849473c.089808.47994-3.298409,1.19262-9.022503,4.399294-5.291471,2.964353-7.667154,5.308232-8.044898,4.965442-.437323-.396843,2.00104-4.215174,6.006476-6.731625,5.040269-3.166558,10.944471-3.25539,11.060925-2.633111Z" fill="#ccecfc"/><path d="M342.079083,223.442066c.089808.47994-3.298409,1.19262-9.022503,4.399294-5.291471,2.964353-7.667154,5.308232-8.044898,4.965442-.437323-.396843,2.00104-4.215174,6.006476-6.731625,5.040269-3.166558,10.944471-3.25539,11.060925-2.633111Z" fill="#ccecfc"/><path d="M299.374321,223.442066c.089808.47994-3.298409,1.19262-9.022503,4.399294-5.291471,2.964353-7.667154,5.308232-8.044898,4.965442-.437323-.396843,2.00104-4.215174,6.006476-6.731625,5.040269-3.166558,10.944471-3.25539,11.060925-2.633111Z" fill="#ccecfc"/><path d="M258.130622,223.442066c.089808.47994-3.298409,1.19262-9.022503,4.399294-5.291471,2.964353-7.667154,5.308232-8.044898,4.965442-.437323-.396843,2.00104-4.215174,6.006476-6.731625,5.040269-3.166558,10.944471-3.25539,11.060925-2.633111Z" fill="#ccecfc"/><path d="M216.631464,223.442066c.089808.47994-3.298409,1.19262-9.022503,4.399294-5.291471,2.964353-7.667154,5.308232-8.044898,4.965442-.437323-.396843,2.00104-4.215174,6.006476-6.731625,5.040269-3.166558,10.944471-3.25539,11.060925-2.633111Z" fill="#ccecfc"/><path d="M174.710019,223.442066c.089808.47994-3.298409,1.19262-9.022503,4.399294-5.291471,2.964353-7.667154,5.308232-8.044898,4.965442-.437323-.396843,2.00104-4.215174,6.006476-6.731625,5.040269-3.166558,10.944471-3.25539,11.060925-2.633111Z" fill="#ccecfc"/><path d="M133.255177,222.721196c.089808.47994-3.298409,1.19262-9.022503,4.399294-5.291471,2.964353-7.667154,5.308232-8.044898,4.965442-.437323-.396843,2.00104-4.215174,6.006476-6.731625,5.040269-3.166558,10.944471-3.25539,11.060925-2.633111Z" fill="#ccecfc"/><path d="M90.86713,222.721196c.089808.47994-3.298409,1.19262-9.022503,4.399294-5.291471,2.964353-7.667154,5.308232-8.044898,4.965442-.437323-.396843,2.00104-4.215174,6.006476-6.731625,5.040269-3.166558,10.944471-3.25539,11.060925-2.633111Z" fill="#ccecfc"/><path d="M48.945685,222.721196c.089808.47994-3.298409,1.19262-9.022503,4.399294-5.291471,2.964353-7.667154,5.308232-8.044898,4.965442-.437323-.396843,2.00104-4.215174,6.006476-6.731625,5.040269-3.166558,10.944471-3.25539,11.060925-2.633111Z" fill="#ccecfc"/><path d="M507.870924,175.188067c.089808.47994-3.298409,1.19262-9.022503,4.399294-5.291471,2.964353-7.667154,5.308232-8.044898,4.965442-.437323-.396843,2.00104-4.215174,6.006476-6.731625,5.040269-3.166558,10.944471-3.25539,11.060925-2.633111Z" fill="#ccecfc"/><path d="M466.143895,175.188067c.089808.47994-3.298409,1.19262-9.022503,4.399294-5.291471,2.964353-7.667154,5.308232-8.044898,4.965442-.437323-.396843,2.00104-4.215174,6.006476-6.731625,5.040269-3.166558,10.944471-3.25539,11.060925-2.633111Z" fill="#ccecfc"/><path d="M424.568221,175.188067c.089808.47994-3.298409,1.19262-9.022503,4.399294-5.291471,2.964353-7.667154,5.308232-8.044898,4.965442-.437323-.396843,2.00104-4.215174,6.006476-6.731625,5.040269-3.166558,10.944471-3.25539,11.060925-2.633111Z" fill="#ccecfc"/><path d="M383.069063,175.828635c.089808.47994-3.298409,1.19262-9.022503,4.399294-5.291471,2.964353-7.667154,5.308232-8.044898,4.965442-.437323-.396843,2.00104-4.215174,6.006476-6.731625,5.040269-3.166558,10.944471-3.25539,11.060925-2.633111Z" fill="#ccecfc"/><path d="M341.784526,175.828635c.089808.47994-3.298409,1.19262-9.022503,4.399294-5.291471,2.964353-7.667154,5.308232-8.044898,4.965442-.437323-.396843,2.00104-4.215174,6.006476-6.731625,5.040269-3.166558,10.944471-3.25539,11.060925-2.633111Z" fill="#ccecfc"/><path d="M299.374321,175.828635c.089808.47994-3.298409,1.19262-9.022503,4.399294-5.291471,2.964353-7.667154,5.308232-8.044898,4.965442-.437323-.396843,2.00104-4.215174,6.006476-6.731625,5.040269-3.166558,10.944471-3.25539,11.060925-2.633111Z" fill="#ccecfc"/><path d="M257.61091,175.828635c.089808.47994-3.298409,1.19262-9.022503,4.399294-5.291471,2.964353-7.667154,5.308232-8.044898,4.965442-.437323-.396843,2.00104-4.215174,6.006476-6.731625,5.040269-3.166558,10.944471-3.25539,11.060925-2.633111Z" fill="#ccecfc"/><path d="M216.088331,176.093651c.089808.47994-3.298409,1.19262-9.022503,4.399294-5.291471,2.964353-7.667154,5.308232-8.044898,4.965442-.437323-.396843,2.00104-4.215174,6.006476-6.731625,5.040269-3.166558,10.944471-3.25539,11.060925-2.633111Z" fill="#ccecfc"/><path d="M174.054432,176.093651c.089808.47994-3.298409,1.19262-9.022503,4.399294-5.291471,2.964353-7.667154,5.308232-8.044898,4.965442-.437323-.396843,2.00104-4.215174,6.006476-6.731625,5.040269-3.166558,10.944471-3.25539,11.060925-2.633111Z" fill="#ccecfc"/><path d="M132.788575,175.410739c.089808.47994-3.298409,1.19262-9.022503,4.399294-5.291471,2.964353-7.667154,5.308232-8.044898,4.965442-.437323-.396843,2.00104-4.215174,6.006476-6.731625,5.040269-3.166558,10.944471-3.25539,11.060925-2.633111Z" fill="#ccecfc"/><path d="M90.86713,176.093651c.089808.47994-3.298409,1.19262-9.022503,4.399294-5.291471,2.964353-7.667154,5.308232-8.044898,4.965442-.437323-.396843,2.00104-4.215174,6.006476-6.731625,5.040269-3.166558,10.944471-3.25539,11.060925-2.633111Z" fill="#ccecfc"/><path d="M48.945685,176.093651c.089808.47994-3.298409,1.19262-9.022503,4.399294-5.291471,2.964353-7.667154,5.308232-8.044898,4.965442-.437323-.396843,2.00104-4.215174,6.006476-6.731625,5.040269-3.166558,10.944471-3.25539,11.060925-2.633111Z" fill="#ccecfc"/><path d="M508.029216,127.898231c.065809.483815-3.35368,1.026973-9.230283,3.944772-5.432455,2.697311-7.921854,4.920042-8.282068,4.558876-.417029-.418118,2.208358-4.110354,6.334079-6.424326,5.191629-2.911768,11.092934-2.706625,11.178272-2.079321Z" fill="#ccecfc"/><path d="M467.016192,128.720535c.057803.484837-3.370198.971394-9.294231,3.791651-5.476301,2.607141-8.002102,4.788417-8.356297,4.421346-.410061-.424955,2.276003-4.073287,6.439411-6.318743,5.239052-2.82555,11.13616-2.522883,11.211117-1.894254Z" fill="#ccecfc"/><path d="M423.720296,128.101152c.089808.47994-3.298409,1.19262-9.022503,4.399294-5.291471,2.964353-7.667154,5.308232-8.044898,4.965442-.437323-.396843,2.00104-4.215174,6.006476-6.731625,5.040269-3.166558,10.944471-3.25539,11.060925-2.633111Z" fill="#ccecfc"/><path d="M382.463286,128.101152c.089808.47994-3.298409,1.19262-9.022503,4.399294-5.291471,2.964353-7.667154,5.308232-8.044898,4.965442-.437323-.396843,2.00104-4.215174,6.006476-6.731625,5.040269-3.166558,10.944471-3.25539,11.060925-2.633111Z" fill="#ccecfc"/><path d="M340.689102,128.101152c.089808.47994-3.298409,1.19262-9.022503,4.399294-5.291471,2.964353-7.667154,5.308232-8.044898,4.965442-.437323-.396843,2.00104-4.215174,6.006476-6.731625,5.040269-3.166558,10.944471-3.25539,11.060925-2.633111Z" fill="#b2d6f1" mix-blend-mode="screen" opacity=".68"/><path d="M299.26701,128.841892c.089808.47994-3.298409,1.19262-9.022503,4.399294-5.291471,2.964353-7.667154,5.308232-8.044898,4.965442-.437323-.396843,2.00104-4.215174,6.006476-6.731625,5.040269-3.166558,10.944471-3.25539,11.060925-2.633111Z" fill="#ccecfc"/><path d="M258.086306,128.101152c.089808.47994-3.298409,1.19262-9.022503,4.399294-5.291471,2.964353-7.667154,5.308232-8.044898,4.965442-.437323-.396843,2.00104-4.215174,6.006476-6.731625,5.040269-3.166558,10.944471-3.25539,11.060925-2.633111Z" fill="#ccecfc"/><path d="M216.088331,128.2493c.089808.47994-3.298409,1.19262-9.022503,4.399294-5.291471,2.964353-7.667154,5.308232-8.044898,4.965442-.437323-.396843,2.00104-4.215174,6.006476-6.731625,5.040269-3.166558,10.944471-3.25539,11.060925-2.633111Z" fill="#ccecfc"/><path d="M174.054432,128.2493c.089808.47994-3.298409,1.19262-9.022503,4.399294-5.291471,2.964353-7.667154,5.308232-8.044898,4.965442-.437323-.396843,2.00104-4.215174,6.006476-6.731625,5.040269-3.166558,10.944471-3.25539,11.060925-2.633111Z" fill="#ccecfc"/><path d="M131.60339,128.2493c.089808.47994-3.298409,1.19262-9.022503,4.399294-5.291471,2.964353-7.667154,5.308232-8.044898,4.965442-.437323-.396843,2.00104-4.215174,6.006476-6.731625,5.040269-3.166558,10.944471-3.25539,11.060925-2.633111Z" fill="#b2d6f1" mix-blend-mode="screen" opacity=".68"/><path d="M89.830093,128.2493c.089808.47994-3.298409,1.19262-9.022503,4.399294-5.291471,2.964353-7.667154,5.308232-8.044898,4.965442-.437323-.396843,2.00104-4.215174,6.006476-6.731625,5.040269-3.166558,10.944471-3.25539,11.060925-2.633111Z" fill="#ccecfc"/><path d="M48.712384,128.2493c.089808.47994-3.298409,1.19262-9.022503,4.399294-5.291471,2.964353-7.667154,5.308232-8.044898,4.965442-.437323-.396843,2.00104-4.215174,6.006476-6.731625,5.040269-3.166558,10.944471-3.25539,11.060925-2.633111Z" fill="#ccecfc"/><path d="M507.272017,80.613687c.087998.480275-3.302883,1.180171-9.039031,4.365234-5.302614,2.944375-7.68712,5.279277-8.063568,4.935066-.435823-.39849,2.016923-4.207597,6.031822-6.708924,5.052176-3.147526,10.956671-3.21409,11.070777-2.591376Z" fill="#ccecfc"/><path d="M466.581096,80.981099c.068979.483373-3.346876,1.048933-9.204228,4.005189-5.414659,2.732861-7.889434,4.971861-8.252008,4.613065-.419761-.415375,2.181369-4.124741,6.291834-6.465706,5.172431-2.945735,11.074955-2.779278,11.164402-2.152547Z" fill="#ccecfc"/><path d="M423.720296,80.578843c.089808.47994-3.298409,1.19262-9.022503,4.399294-5.291471,2.964353-7.667154,5.308232-8.044898,4.965442-.437323-.396843,2.00104-4.215174,6.006476-6.731625,5.040269-3.166558,10.944471-3.25539,11.060925-2.633111Z" fill="#ccecfc"/><path d="M383.230593,80.578843c.089808.47994-3.298409,1.19262-9.022503,4.399294-5.291471,2.964353-7.667154,5.308232-8.044898,4.965442-.437323-.396843,2.00104-4.215174,6.006476-6.731625,5.040269-3.166558,10.944471-3.25539,11.060925-2.633111Z" fill="#ccecfc"/><path d="M340.689102,79.84023c.089808.47994-3.298409,1.19262-9.022503,4.399294-5.291471,2.964353-7.667154,5.308232-8.044898,4.965442-.437323-.396843,2.00104-4.215174,6.006476-6.731625,5.040269-3.166558,10.944471-3.25539,11.060925-2.633111Z" fill="#ccecfc"/><path d="M299.26701,80.578843c.089808.47994-3.298409,1.19262-9.022503,4.399294-5.291471,2.964353-7.667154,5.308232-8.044898,4.965442-.437323-.396843,2.00104-4.215174,6.006476-6.731625,5.040269-3.166558,10.944471-3.25539,11.060925-2.633111Z" fill="#ccecfc"/><path d="M258.086306,80.578843c.089808.47994-3.298409,1.19262-9.022503,4.399294-5.291471,2.964353-7.667154,5.308232-8.044898,4.965442-.437323-.396843,2.00104-4.215174,6.006476-6.731625,5.040269-3.166558,10.944471-3.25539,11.060925-2.633111Z" fill="#ccecfc"/><path d="M216.398163,80.656463c.089808.47994-3.298409,1.19262-9.022503,4.399294-5.291471,2.964353-7.667154,5.308232-8.044898,4.965442-.437323-.396843,2.00104-4.215174,6.006476-6.731625,5.040269-3.166558,10.944471-3.25539,11.060925-2.633111Z" fill="#ccecfc"/><path d="M174.054432,80.656463c.089808.47994-3.298409,1.19262-9.022503,4.399294-5.291471,2.964353-7.667154,5.308232-8.044898,4.965442-.437323-.396843,2.00104-4.215174,6.006476-6.731625,5.040269-3.166558,10.944471-3.25539,11.060925-2.633111Z" fill="#ccecfc"/><path d="M131.60339,80.656463c.089808.47994-3.298409,1.19262-9.022503,4.399294-5.291471,2.964353-7.667154,5.308232-8.044898,4.965442-.437323-.396843,2.00104-4.215174,6.006476-6.731625,5.040269-3.166558,10.944471-3.25539,11.060925-2.633111Z" fill="#ccecfc"/><path d="M90.400528,80.656463c.089808.47994-3.298409,1.19262-9.022503,4.399294-5.291471,2.964353-7.667154,5.308232-8.044898,4.965442-.437323-.396843,2.00104-4.215174,6.006476-6.731625,5.040269-3.166558,10.944471-3.25539,11.060925-2.633111Z" fill="#ccecfc"/><path d="M48.479083,80.656463c.089808.47994-3.298409,1.19262-9.022503,4.399294-5.291471,2.964353-7.667154,5.308232-8.044898,4.965442-.437323-.396843,2.00104-4.215174,6.006476-6.731625,5.040269-3.166558,10.944471-3.25539,11.060925-2.633111Z" fill="#ccecfc"/><path d="M507.720693,33.458265c.089808.47994-3.298409,1.19262-9.022503,4.399294-5.291471,2.964353-7.667154,5.308232-8.044898,4.965442-.437323-.396843,2.00104-4.215174,6.006476-6.731625,5.040269-3.166558,10.944471-3.25539,11.060925-2.633111Z" fill="#ccecfc"/><path d="M465.471308,33.458265c.089808.47994-3.298409,1.19262-9.022503,4.399294-5.291471,2.964353-7.667154,5.308232-8.044898,4.965442-.437323-.396843,2.00104-4.215174,6.006476-6.731625,5.040269-3.166558,10.944471-3.25539,11.060925-2.633111Z" fill="#ccecfc"/><path d="M425.462062,33.458265c.089808.47994-3.298409,1.19262-9.022503,4.399294-5.291471,2.964353-7.667154,5.308232-8.044898,4.965442-.437323-.396843,2.00104-4.215174,6.006476-6.731625,5.040269-3.166558,10.944471-3.25539,11.060925-2.633111Z" fill="#ccecfc"/><path d="M383.230593,33.458265c.089808.47994-3.298409,1.19262-9.022503,4.399294-5.291471,2.964353-7.667154,5.308232-8.044898,4.965442-.437323-.396843,2.00104-4.215174,6.006476-6.731625,5.040269-3.166558,10.944471-3.25539,11.060925-2.633111Z" fill="#ccecfc"/><path d="M340.689102,32.377269c.089808.47994-3.298409,1.19262-9.022503,4.399294-5.291471,2.964353-7.667154,5.308232-8.044898,4.965442-.437323-.396843,2.00104-4.215174,6.006476-6.731625,5.040269-3.166558,10.944471-3.25539,11.060925-2.633111Z" fill="#ccecfc"/><path d="M299.26701,33.458265c.089808.47994-3.298409,1.19262-9.022503,4.399294-5.291471,2.964353-7.667154,5.308232-8.044898,4.965442-.437323-.396843,2.00104-4.215174,6.006476-6.731625,5.040269-3.166558,10.944471-3.25539,11.060925-2.633111Z" fill="#ccecfc"/><path d="M258.086306,33.458265c.089808.47994-3.298409,1.19262-9.022503,4.399294-5.291471,2.964353-7.667154,5.308232-8.044898,4.965442-.437323-.396843,2.00104-4.215174,6.006476-6.731625,5.040269-3.166558,10.944471-3.25539,11.060925-2.633111Z" fill="#ccecfc"/><path d="M216.088331,33.063627c.089808.47994-3.298409,1.19262-9.022503,4.399294-5.291471,2.964353-7.667154,5.308232-8.044898,4.965442-.437323-.396843,2.00104-4.215174,6.006476-6.731625,5.040269-3.166558,10.944471-3.25539,11.060925-2.633111Z" fill="#ccecfc"/><path d="M174.054432,33.797275c.089808.47994-3.298409,1.19262-9.022503,4.399294-5.291471,2.964353-7.667154,5.308232-8.044898,4.965442-.437323-.396843,2.00104-4.215174,6.006476-6.731625,5.040269-3.166558,10.944471-3.25539,11.060925-2.633111Z" fill="#ccecfc"/><path d="M132.036755,33.797275c.089808.47994-3.298409,1.19262-9.022503,4.399294-5.291471,2.964353-7.667154,5.308232-8.044898,4.965442-.437323-.396843,2.00104-4.215174,6.006476-6.731625,5.040269-3.166558,10.944471-3.25539,11.060925-2.633111Z" fill="#ccecfc"/><path d="M89.830093,33.797275c.089808.47994-3.298409,1.19262-9.022503,4.399294-5.291471,2.964353-7.667154,5.308232-8.044898,4.965442-.437323-.396843,2.00104-4.215174,6.006476-6.731625,5.040269-3.166558,10.944471-3.25539,11.060925-2.633111Z" fill="#ccecfc"/><path d="M47.590194,33.063627c.089808.47994-3.298409,1.19262-9.022503,4.399294-5.291471,2.964353-7.667154,5.308232-8.044898,4.965442-.437323-.396843,2.00104-4.215174,6.006476-6.731625,5.040269-3.166558,10.944471-3.25539,11.060925-2.633111Z" fill="#ccecfc"/></g></g></svg>