<?xml version="1.0" encoding="UTF-8"?><svg id="Dimensions" xmlns="http://www.w3.org/2000/svg" width="171.950357" height="635.787046" viewBox="0 0 171.950357 635.787046"><path d="M120.310698,94.175064c.45571-.667171.892011-1.350399,1.307397-2.045169,1.241904-2.077191,3.752081-2.995236,6.08732-2.35986,3.73665,1.016675,7.666775,1.562819,11.725905,1.562819,25.252581,0,31.399805-23.107019,30.421956-48.576606-.884873-23.0479-5.379955-39.707745-28.422942-40.712456-18.99271-.828113-35.507201,10.2107-42.752927,26.319786-1.211393,2.693234-3.084982.195676-5.268575-1.792515-.69315-.631123-2.818798-1.779491-6.470928-1.594086-3.67722.186678-5.175006,1.324449-6.121664,2.186678-2.553557,2.325814-4.181956,3.68534-5.648637.558216C67.787452,11.98659,51.500579,1.260147,32.798019,2.039887,9.719894,3.002778,2.96002,23.452973,2.075499,46.534028c-.976074,25.467773,7.382677,44.798828,32.634142,44.798828,4.166739,0,8.197576-.575469,12.022414-1.645812,2.693929-.75387,5.55092.332947,7.006107,2.72209.108416.177998.218142.355415.329179.531352" fill="none" stroke="#d1383e" stroke-miterlimit="10" stroke-width="4"/><path d="M109.215633,146.97532c-.111081-1.592483.518025-3.23113,1.919375-4.311658,5.123582-3.950597,9.045493-9.164626,11.194961-15.118736,1.020621-2.827159,3.673176-4.732575,6.678919-4.732573l4.369181.000003c2.714966.000002,5.284716,1.451235,6.500156,3.878939,2.79759,5.58787,8.666927,9.45273,15.44987,9.482171,1.687808.007326,3.214515-1.17998,3.517718-2.840346.405851-2.222474-1.291216-4.159445-3.439639-4.159445-5.666992,0-10.277344-4.423828-10.277344-9.861328,0-5.417637,4.57673-9.828994,10.215369-9.861103,1.815796-.01034,3.418177-1.423337,3.55209-3.234218.151796-2.05271-1.469542-3.766007-3.490115-3.766007-6.567959,0-12.288849,3.596373-15.209219,8.877165-1.499962,2.712323-4.262065,4.484152-7.361514,4.484154h-3.054029c-3.052818.000003-5.653033-2.160266-6.275924-5.148862-.678006-3.253033-1.867547-6.338797-3.496433-9.182859-1.308665-2.28495-1.183545-5.131199.301643-7.305553" fill="none" stroke="#660c10" stroke-miterlimit="10" stroke-width="4"/><path d="M119.827893,220.055584c.290468-1.74178,1.026239-3.41897,2.179392-4.86473,5.995378-7.516674,9.579797-17.041318,9.579797-27.403897,0-15.480702-8.000631-29.086082-20.089874-36.923633-1.406724-.91199-2.176335-2.379279-2.281574-3.888004" fill="none" stroke="#104961" stroke-miterlimit="10" stroke-width="4"/><path d="M116.39795,268.079553c.270333-1.47844.863978-2.903781,1.735561-4.167346,4.119043-5.97152,6.532916-13.210516,6.532916-21.013921,0-5.944546-1.401955-11.559968-3.890418-16.537624-.99965-1.999594-1.299248-4.199529-.948116-6.305078" fill="none" stroke="#00b85a" stroke-miterlimit="10" stroke-width="4"/><path d="M104.950063,310.067305c.201721-4.071336,1.888803-7.93577,4.747277-10.869348,4.928224-5.057708,7.940278-11.81,7.940278-19.229359,0-2.561453-.361064-5.042833-1.035364-7.403116-.42166-1.475956-.474638-3.007492-.204305-4.485929" fill="none" stroke="#006331" stroke-miterlimit="10" stroke-width="4"/><path d="M70.128751,310.067354c.089288.797131.134111,1.601389.134111,2.40808v128.735352c0,255.878906,34.666749,257.65625,34.666749,0l.000003-130.317383c0-.276158.006848-.551598.020449-.826098" fill="none" stroke="#c92f77" stroke-miterlimit="10" stroke-width="4"/><path d="M58.698582,268.901336c.163593,1.447248.070563,2.925714-.300712,4.373918-.550291,2.146479-.843014,4.387685-.843014,6.693344,0,7.185058,2.824811,13.744225,7.479031,18.744097,2.9068,3.122677,4.62266,7.139002,5.094865,11.354659" fill="none" stroke="#006331" stroke-miterlimit="10" stroke-width="4"/><path d="M54.872473,222.503292c-.037321,1.851544-.438142,3.708876-1.215232,5.471805-2.012571,4.565774-3.131194,9.613108-3.131194,14.923188,0,7.540041,2.253419,14.551762,6.121096,20.404299,1.125821,1.703584,1.827997,3.622049,2.051439,5.598751" fill="none" stroke="#00b85a" stroke-miterlimit="10" stroke-width="4"/><path d="M65.301221,146.84661c-.093697,1.803363-.993172,3.572043-2.657115,4.719788-11.499836,7.932292-19.038714,21.193406-19.038714,36.220559,0,9.714844,3.150147,18.693361,8.483645,25.970702,1.89812,2.589907,2.845637,5.659732,2.783436,8.745633" fill="none" stroke="#104961" stroke-miterlimit="10" stroke-width="4"/><path d="M54.067341,92.940485c1.838927,2.91375,2.097721,6.605009.503801,9.659679-.949107,1.818917-1.720827,3.729732-2.298901,5.713238-1.013781,3.478517-4.214859,5.859297-7.838094,5.859297h-1.017493c-2.839134,0-5.491484-1.53568-6.793172-4.05883-2.832686-5.490789-8.648616-9.273196-15.358605-9.302248-1.687762-.007308-3.214402,1.179981-3.517591,2.840304-.405842,2.222473,1.291225,4.159447,3.43965,4.159447,5.666992,0,10.277344,4.423828,10.277344,9.861328,0,5.417637-4.57673,9.828994-10.215369,9.861103-1.815796.01034-3.418177,1.423337-3.55209,3.234218-.151796,2.05271,1.469542,3.766007,3.490115,3.766007,6.527085,0,12.21761-3.55175,15.154418-8.778753,1.615208-2.874788,4.726865-4.582573,8.024334-4.582574h.000013c3.753333,0,7.122291,2.359698,8.340147,5.909957,1.981878,5.777516,5.622962,10.879801,10.417828,14.836075,1.559164,1.286476,2.271242,3.124518,2.177546,4.927877" fill="none" stroke="#660c10" stroke-miterlimit="10" stroke-width="4"/></svg>