<?xml version="1.0" encoding="UTF-8"?><svg id="Layer_1" xmlns="http://www.w3.org/2000/svg" width="563.37598" height="90.95378" viewBox="0 0 563.37598 90.95378"><line x1="4.60803" y1="47.275" x2="4.68237" y2="83.38926" fill="none" stroke="#26a9e0" stroke-miterlimit="10" stroke-width="6"/><line x1="4.52759" y1="8.16441" x2="4.60803" y2="47.275" fill="none" stroke="#515ba7" stroke-miterlimit="10" stroke-width="6"/><line x1="59.87683" y1="46.92613" x2="59.92029" y2="84.25938" fill="none" stroke="#26a9e0" stroke-miterlimit="10" stroke-width="6"/><line x1="59.85315" y1="26.55674" x2="59.87683" y2="46.92613" fill="none" stroke="#515ba7" stroke-miterlimit="10" stroke-width="6"/><line x1="73.88013" y1="46.8375" x2="74.12451" y2="85.52427" fill="none" stroke="#26a9e0" stroke-miterlimit="10" stroke-width="6"/><line x1="73.6499" y1="10.39365" x2="73.88013" y2="46.8375" fill="none" stroke="#515ba7" stroke-miterlimit="10" stroke-width="6"/><line x1="87.91821" y1="46.1959" x2="88.11304" y2="77.04429" fill="none" stroke="#26a9e0" stroke-miterlimit="10" stroke-width="6"/><line x1="87.68396" y1="9.11973" x2="87.91821" y2="46.1959" fill="none" stroke="#515ba7" stroke-miterlimit="10" stroke-width="6"/><line x1="130.04895" y1="43.95078" x2="130.35828" y2="65.44517" fill="none" stroke="#26a9e0" stroke-miterlimit="10" stroke-width="6"/><line x1="129.54407" y1="8.85532" x2="130.04895" y2="43.95078" fill="none" stroke="#515ba7" stroke-miterlimit="10" stroke-width="6"/><line x1="115.84119" y1="23.69981" x2="115.92993" y2="37.75742" fill="none" stroke="#515ba7" stroke-miterlimit="10" stroke-width="6"/><line x1="31.58447" y1="47.21055" x2="32.16809" y2="78.66221" fill="none" stroke="#26a9e0" stroke-miterlimit="10" stroke-width="6"/><line x1="31.4375" y1="39.29234" x2="31.58447" y2="47.21055" fill="none" stroke="#515ba7" stroke-miterlimit="10" stroke-width="6"/><line x1="45.8595" y1="56.86631" x2="45.94299" y2="70.08848" fill="none" stroke="#26a9e0" stroke-miterlimit="10" stroke-width="6"/><line x1="17.71411" y1="47.19224" x2="17.94995" y2="84.52476" fill="none" stroke="#26a9e0" stroke-miterlimit="10" stroke-width="6"/><line x1="17.5188" y1="16.2667" x2="17.71411" y2="47.19224" fill="none" stroke="#515ba7" stroke-miterlimit="10" stroke-width="6"/><line x1="102.34436" y1="45.13731" x2="102.58606" y2="52.59483" fill="none" stroke="#26a9e0" stroke-miterlimit="10" stroke-width="6"/><line x1="101.30933" y1="13.19834" x2="102.34436" y2="45.13731" fill="none" stroke="#515ba7" stroke-miterlimit="10" stroke-width="6"/><path d="M47.51697,45.4896c-8.39514,19.47388-16.32483,37.86816-31.4408,37.96362-6.28857.03979-11.20715-3.11426-15.62317-8.19458.00403.58838.04712,7.47119.06519,10.3252,4.46887,3.39673,9.45532,5.4082,15.60535,5.36938,19.97205-.12622,29.25378-21.65649,38.22998-42.47803,8.39514-19.47437,16.32507-37.86865,31.44104-37.96411l-.04736-7.49976c-19.97229.12646-29.25403,21.65674-38.23022,42.47827Z" fill="#e2a78a"/><path d="M31.33826,47.21519c.20825.46631.41663.93335.62537,1.40112,9.23804,20.70654,18.79077,42.11816,38.76208,41.99194,19.97241-.12622,29.25415-21.65649,38.2301-42.47803,8.39539-19.47412,16.32507-37.86816,31.44104-37.96362.01172-.00024.3457-.00098.35754-.00098-.00781-3.02466-.02649-5.54492-.04736-7.4978-.06653-.00024-.29089-.00171-.35754-.00122-19.97241.12622-29.25415,21.65649-38.22998,42.47803-8.39551,19.47412-16.3252,37.86816-31.44116,37.96362-15.11523.09546-23.27612-18.19702-31.9165-37.56348C29.5238,24.83823,19.97144,3.4271,0,3.55332l.04736,7.49976c14.74988-.09326,22.87756,17.32373,31.29089,36.16211" fill="#c7873a"/><path d="M141.16296,74.84116c-6.3938-7.11304-11.49646-18.28271-16.6521-29.83838C115.27234,24.29649,105.71936,2.88511,85.74719,3.01133l.04736,7.49976c15.11597-.09546,23.27747,18.19702,31.91797,37.56348,6.50598,14.58179,13.16821,29.5127,23.51514,37.02588-.01929-3.05908-.04785-6.51685-.0647-10.25928Z" fill="#e2a78a"/><line x1="145.3241" y1="46.38609" x2="145.39844" y2="82.50059" fill="none" stroke="#26a9e0" stroke-miterlimit="10" stroke-width="6"/><line x1="145.24365" y1="7.27549" x2="145.3241" y2="46.38609" fill="none" stroke="#515ba7" stroke-miterlimit="10" stroke-width="6"/><line x1="200.59302" y1="46.03721" x2="200.63647" y2="83.37046" fill="none" stroke="#26a9e0" stroke-miterlimit="10" stroke-width="6"/><line x1="200.56921" y1="25.66782" x2="200.59302" y2="46.03721" fill="none" stroke="#515ba7" stroke-miterlimit="10" stroke-width="6"/><line x1="214.59619" y1="45.94859" x2="214.8407" y2="84.63535" fill="none" stroke="#26a9e0" stroke-miterlimit="10" stroke-width="6"/><line x1="214.36597" y1="9.50474" x2="214.59619" y2="45.94859" fill="none" stroke="#515ba7" stroke-miterlimit="10" stroke-width="6"/><line x1="228.63428" y1="45.30698" x2="228.8291" y2="76.15537" fill="none" stroke="#26a9e0" stroke-miterlimit="10" stroke-width="6"/><line x1="228.40002" y1="8.23081" x2="228.63428" y2="45.30698" fill="none" stroke="#515ba7" stroke-miterlimit="10" stroke-width="6"/><line x1="270.76501" y1="43.06187" x2="271.07434" y2="64.55625" fill="none" stroke="#26a9e0" stroke-miterlimit="10" stroke-width="6"/><line x1="270.26013" y1="7.96641" x2="270.76501" y2="43.06187" fill="none" stroke="#515ba7" stroke-miterlimit="10" stroke-width="6"/><line x1="256.55725" y1="22.81089" x2="256.646" y2="36.86851" fill="none" stroke="#515ba7" stroke-miterlimit="10" stroke-width="6"/><line x1="172.30054" y1="46.32163" x2="172.88416" y2="77.77329" fill="none" stroke="#26a9e0" stroke-miterlimit="10" stroke-width="6"/><line x1="172.15356" y1="38.40342" x2="172.30054" y2="46.32163" fill="none" stroke="#515ba7" stroke-miterlimit="10" stroke-width="6"/><line x1="186.57556" y1="55.97764" x2="186.65918" y2="69.19956" fill="none" stroke="#26a9e0" stroke-miterlimit="10" stroke-width="6"/><line x1="158.43018" y1="46.30332" x2="158.66602" y2="83.63584" fill="none" stroke="#26a9e0" stroke-miterlimit="10" stroke-width="6"/><line x1="158.23486" y1="15.37779" x2="158.43018" y2="46.30332" fill="none" stroke="#515ba7" stroke-miterlimit="10" stroke-width="6"/><line x1="243.06042" y1="44.24839" x2="243.30212" y2="51.70591" fill="none" stroke="#26a9e0" stroke-miterlimit="10" stroke-width="6"/><line x1="242.02539" y1="12.30967" x2="243.06042" y2="44.24839" fill="none" stroke="#515ba7" stroke-miterlimit="10" stroke-width="6"/><path d="M188.23303,44.60069c-8.39514,19.47412-16.32483,37.86816-31.4408,37.96362-6.28857.03979-11.20703-3.11426-15.62317-8.19458.00403.58838.04712,7.47119.06519,10.3252,4.46887,3.39673,9.45532,5.4082,15.60535,5.36938,19.97217-.12622,29.25378-21.65649,38.22998-42.47803,8.39514-19.47437,16.32507-37.86841,31.44116-37.96411l-.04749-7.49976c-19.97229.12646-29.25403,21.65674-38.23022,42.47827Z" fill="#e2a78a"/><path d="M172.05432,46.32627c.20825.46631.41663.93335.62537,1.40112,9.23804,20.70654,18.79077,42.11816,38.76208,41.99194,19.97241-.12622,29.25415-21.65649,38.2301-42.47803,8.39539-19.47412,16.32507-37.86816,31.44104-37.96362.01172-.00024.3457-.00098.35754-.00098-.00769-3.02466-.02649-5.54492-.04736-7.4978-.06653,0-.29089-.00146-.35754-.00122-19.97241.12622-29.25403,21.65649-38.22998,42.47803-8.39551,19.47412-16.3252,37.86816-31.44116,37.96387-15.11523.09546-23.27612-18.19727-31.9165-37.56372-9.23792-20.7063-18.79041-42.11768-38.76184-41.99146l.04736,7.49976c14.74988-.09326,22.87769,17.32397,31.29089,36.16211" fill="#c7873a"/><path d="M281.87903,73.95225c-6.3938-7.11304-11.49646-18.28247-16.6521-29.83813-9.23853-20.70654-18.7915-42.11792-38.76367-41.9917l.04749,7.49976c15.11597-.09546,23.27734,18.19702,31.91785,37.56348,6.50598,14.58179,13.16833,29.5127,23.51526,37.02588-.01941-3.05908-.04797-6.51685-.06482-10.25928Z" fill="#e2a78a"/><line x1="286.04028" y1="45.49717" x2="286.1145" y2="81.61167" fill="none" stroke="#26a9e0" stroke-miterlimit="10" stroke-width="6"/><line x1="285.95972" y1="6.38657" x2="286.04028" y2="45.49717" fill="none" stroke="#515ba7" stroke-miterlimit="10" stroke-width="6"/><line x1="341.30908" y1="45.14829" x2="341.35254" y2="82.48154" fill="none" stroke="#26a9e0" stroke-miterlimit="10" stroke-width="6"/><line x1="341.2854" y1="24.77891" x2="341.30908" y2="45.14829" fill="none" stroke="#515ba7" stroke-miterlimit="10" stroke-width="6"/><line x1="355.31238" y1="45.05967" x2="355.55676" y2="83.74644" fill="none" stroke="#26a9e0" stroke-miterlimit="10" stroke-width="6"/><line x1="355.08215" y1="8.61582" x2="355.31238" y2="45.05967" fill="none" stroke="#515ba7" stroke-miterlimit="10" stroke-width="6"/><line x1="369.35034" y1="44.41807" x2="369.54517" y2="75.26646" fill="none" stroke="#26a9e0" stroke-miterlimit="10" stroke-width="6"/><line x1="369.11609" y1="7.3419" x2="369.35034" y2="44.41807" fill="none" stroke="#515ba7" stroke-miterlimit="10" stroke-width="6"/><line x1="411.48108" y1="42.17295" x2="411.79041" y2="63.66758" fill="none" stroke="#26a9e0" stroke-miterlimit="10" stroke-width="6"/><line x1="410.9762" y1="7.07749" x2="411.48108" y2="42.17295" fill="none" stroke="#515ba7" stroke-miterlimit="10" stroke-width="6"/><line x1="397.27332" y1="21.92197" x2="397.36206" y2="35.97959" fill="none" stroke="#515ba7" stroke-miterlimit="10" stroke-width="6"/><line x1="313.0166" y1="45.43272" x2="313.60022" y2="76.88438" fill="none" stroke="#26a9e0" stroke-miterlimit="10" stroke-width="6"/><line x1="312.86963" y1="37.5145" x2="313.0166" y2="45.43272" fill="none" stroke="#515ba7" stroke-miterlimit="10" stroke-width="6"/><line x1="327.29163" y1="55.08872" x2="327.37524" y2="68.31065" fill="none" stroke="#26a9e0" stroke-miterlimit="10" stroke-width="6"/><line x1="299.14636" y1="45.41441" x2="299.3822" y2="82.74693" fill="none" stroke="#26a9e0" stroke-miterlimit="10" stroke-width="6"/><line x1="298.95093" y1="14.48887" x2="299.14636" y2="45.41441" fill="none" stroke="#515ba7" stroke-miterlimit="10" stroke-width="6"/><line x1="383.77649" y1="43.35947" x2="384.01819" y2="50.81699" fill="none" stroke="#26a9e0" stroke-miterlimit="10" stroke-width="6"/><line x1="382.74146" y1="11.42075" x2="383.77649" y2="43.35947" fill="none" stroke="#515ba7" stroke-miterlimit="10" stroke-width="6"/><path d="M328.9491,43.71177c-8.39514,19.47412-16.32483,37.86816-31.4408,37.96362-6.28857.03979-11.20703-3.11426-15.62317-8.19458.00403.58838.04712,7.47119.06519,10.3252,4.46887,3.39673,9.45544,5.4082,15.60535,5.36938,19.97217-.12622,29.25378-21.65649,38.22998-42.47803,8.39526-19.47437,16.3252-37.86841,31.44116-37.96387l-.04736-7.5c-19.97241.12646-29.25415,21.65674-38.23035,42.47827Z" fill="#e2a78a"/><path d="M312.77039,45.43736c.20825.46631.41663.93335.62537,1.40112,9.23804,20.70654,18.79077,42.11816,38.76221,41.99194,19.97229-.12622,29.25403-21.65649,38.22998-42.47803,8.39539-19.47388,16.32507-37.86816,31.44104-37.96362.01184-.00024.3457-.00098.35754-.00098-.00769-3.02466-.02649-5.54492-.04736-7.4978-.06641,0-.29077-.00146-.35754-.00122-19.97241.12622-29.25403,21.65649-38.22998,42.47803-8.39539,19.47412-16.3252,37.86841-31.44116,37.96387-15.11523.09546-23.27612-18.19727-31.9165-37.56372-9.23792-20.7063-18.79041-42.11768-38.76184-41.99146l.04736,7.49976c14.74988-.09302,22.87769,17.32397,31.29089,36.16211" fill="#c7873a"/><path d="M422.59509,73.06333c-6.3938-7.11279-11.49646-18.28247-16.6521-29.83813-9.23853-20.70654-18.7915-42.11792-38.76355-41.9917l.04736,7.5c15.11597-.0957,23.27734,18.19678,31.91785,37.56323,6.50598,14.58179,13.16833,29.5127,23.51526,37.02588-.01941-3.05884-.04797-6.51685-.06482-10.25928Z" fill="#e2a78a"/><line x1="426.75635" y1="44.60825" x2="426.83057" y2="80.72276" fill="none" stroke="#26a9e0" stroke-miterlimit="10" stroke-width="6"/><line x1="426.67578" y1="5.49766" x2="426.75635" y2="44.60825" fill="none" stroke="#515ba7" stroke-miterlimit="10" stroke-width="6"/><line x1="482.02515" y1="44.25938" x2="482.0686" y2="81.59263" fill="none" stroke="#26a9e0" stroke-miterlimit="10" stroke-width="6"/><line x1="482.00146" y1="23.88999" x2="482.02515" y2="44.25938" fill="none" stroke="#515ba7" stroke-miterlimit="10" stroke-width="6"/><line x1="496.02844" y1="44.17075" x2="496.27283" y2="82.85752" fill="none" stroke="#26a9e0" stroke-miterlimit="10" stroke-width="6"/><line x1="495.79822" y1="7.72691" x2="496.02844" y2="44.17075" fill="none" stroke="#515ba7" stroke-miterlimit="10" stroke-width="6"/><line x1="510.06641" y1="43.52915" x2="510.26123" y2="74.37754" fill="none" stroke="#26a9e0" stroke-miterlimit="10" stroke-width="6"/><line x1="509.83215" y1="6.45298" x2="510.06641" y2="43.52915" fill="none" stroke="#515ba7" stroke-miterlimit="10" stroke-width="6"/><line x1="552.19727" y1="41.28404" x2="552.50647" y2="62.77866" fill="none" stroke="#26a9e0" stroke-miterlimit="10" stroke-width="6"/><line x1="551.69226" y1="6.18858" x2="552.19727" y2="41.28404" fill="none" stroke="#515ba7" stroke-miterlimit="10" stroke-width="6"/><line x1="537.98938" y1="21.03306" x2="538.07812" y2="35.09068" fill="none" stroke="#515ba7" stroke-miterlimit="10" stroke-width="6"/><line x1="453.73267" y1="44.5438" x2="454.31628" y2="75.99546" fill="none" stroke="#26a9e0" stroke-miterlimit="10" stroke-width="6"/><line x1="453.58582" y1="36.62559" x2="453.73267" y2="44.5438" fill="none" stroke="#515ba7" stroke-miterlimit="10" stroke-width="6"/><line x1="468.00769" y1="54.19981" x2="468.09131" y2="67.42173" fill="none" stroke="#26a9e0" stroke-miterlimit="10" stroke-width="6"/><line x1="439.86243" y1="44.52549" x2="440.09827" y2="81.85801" fill="none" stroke="#26a9e0" stroke-miterlimit="10" stroke-width="6"/><line x1="439.66699" y1="13.59995" x2="439.86243" y2="44.52549" fill="none" stroke="#515ba7" stroke-miterlimit="10" stroke-width="6"/><line x1="524.49255" y1="42.47056" x2="524.73425" y2="49.92808" fill="none" stroke="#26a9e0" stroke-miterlimit="10" stroke-width="6"/><line x1="523.45764" y1="10.53184" x2="524.49255" y2="42.47056" fill="none" stroke="#515ba7" stroke-miterlimit="10" stroke-width="6"/><path d="M469.66516,42.82285c-8.39514,19.47412-16.32483,37.86816-31.4408,37.96387-6.28857.03955-11.20703-3.1145-15.62317-8.19458.00403.58838.04712,7.47095.06519,10.32495,4.46887,3.39673,9.45544,5.4082,15.60535,5.36938,19.97217-.12622,29.25391-21.65649,38.22998-42.47803,8.39526-19.47437,16.3252-37.86841,31.44116-37.96387l-.04736-7.5c-19.97241.12646-29.25415,21.65674-38.23035,42.47827Z" fill="#e2a78a"/><path d="M453.48645,44.54844c.20825.46631.41663.93335.62537,1.40137,9.23804,20.7063,18.79077,42.11792,38.76221,41.9917,19.97229-.12622,29.25403-21.65649,38.22998-42.47778,8.39539-19.47412,16.32507-37.86841,31.44104-37.96387.01184,0,.3457-.00098.35754-.00098-.00769-3.02466-.02637-5.54492-.04736-7.4978-.06641,0-.29077-.00146-.35754-.00098-19.97229.12598-29.25403,21.65625-38.22998,42.47778-8.39539,19.47412-16.32507,37.86841-31.44104,37.96387-15.11536.09546-23.27625-18.19727-31.9165-37.56372-9.23804-20.7063-18.79053-42.11768-38.76196-41.99146l.04736,7.49976c14.74988-.09302,22.87769,17.32397,31.29089,36.16211" fill="#c7873a"/><path d="M563.31116,72.17442c-6.3938-7.11279-11.49646-18.28247-16.6521-29.83813C537.42053,21.62974,527.86755.21861,507.89551.34458l.04736,7.5c15.11597-.09546,23.27734,18.19678,31.91797,37.56323,6.50586,14.58203,13.16821,29.5127,23.51514,37.02588-.01929-3.05884-.04797-6.51685-.06482-10.25928Z" fill="#e2a78a"/></svg>