<?xml version="1.0" encoding="UTF-8"?><svg id="Layer_1" xmlns="http://www.w3.org/2000/svg" width="128.688231" height="669.063524" viewBox="0 0 128.688231 669.063524"><path d="M112.918297,100.133129c7.777185-10.528936,12.214364-23.67259,11.734646-37.876207-1.079571-31.964186-27.462882-57.802145-59.442147-58.25084C31.486677,3.532906,4,30.728704,4,64.344236c0,12.821594,4.004089,24.702923,10.82556,34.473851,1.027416,1.471648,1.912703,3.022647,2.646306,4.63057" fill="none" stroke="#8b3d40" stroke-miterlimit="10" stroke-width="8"/><path d="M102.29784,169.679017c.169563-4.07663,1.273818-8.13141,3.3262-11.841271,3.733356-6.748368,5.859358-14.508989,5.859358-22.767924,0-4.684194-.686029-9.206774-1.961001-13.475534-2.188377-7.326955-1.147362-15.310383,3.3959-21.461158" fill="none" stroke="#104961" stroke-miterlimit="10" stroke-width="8"/><path d="M41.827087,274.593853c1.642696,4.949332,2.51715,10.163611,2.51715,15.493306l-4.380994,133.074873c0,321.942458,40,323.127643,40,0l4.380997-136.492875c0-4.145537.628122-8.204428,1.813477-12.078124" fill="none" stroke="#c92f77" stroke-miterlimit="10" stroke-width="8"/><path d="M17.471866,103.448658c2.662055,5.834734,3.326777,12.419037,1.537598,18.681346-1.174473,4.110774-1.804386,8.451093-1.804386,12.939819,0,7.849431,1.920401,15.248737,5.315905,21.756703,2.108371,4.040993,3.220656,8.437371,3.358915,12.852664" fill="none" stroke="#104961" stroke-miterlimit="10" stroke-width="8"/><path d="M86.157718,274.588215c2.229714-7.286622,6.431118-13.917959,12.132392-19.238091,10.498372-9.796535,17.110769-24.065612,17.110769-39.954618,0-11.126261-3.24529-21.454208-8.795982-30.009602-3.087517-4.758852-4.533929-10.252426-4.307057-15.706887" fill="none" stroke="#00a651" stroke-miterlimit="10" stroke-width="8"/><path d="M25.879898,169.67919c.182154,5.817057-1.326358,11.666945-4.475086,16.780212-5.135677,8.339905-8.117459,18.271269-8.117459,28.936104,0,15.209524,6.058941,28.934706,15.785515,38.673478,5.829139,5.836449,10.211803,12.861923,12.754219,20.52205" fill="none" stroke="#00a651" stroke-miterlimit="10" stroke-width="8"/></svg>