<?xml version="1.0" encoding="UTF-8"?><svg id="a" xmlns="http://www.w3.org/2000/svg" width="440.973129" height="638.313135" viewBox="0 0 440.973129 638.313135"><path d="M429.940532,104.242757c-1.902344,0-3.772461-.90332-4.9375-2.584961-4.705078-6.794922-7.007812-13.822266-6.84375-20.887695.146484-6.341797,2.257812-10.431641,3.954102-13.716797,1.470703-2.848633,2.442383-4.730469,2.341797-7.977539-.297852-9.624023-9.844727-16.44043-9.94043-16.508789-.897461-.621094-4.21582-2.739258-8.87207-3.65625-1.782227-.349609-4.161133-.567383-13.55957.617188-5.05957.637695-10.196289,1.442383-15.266602,2.389648-3.255859.618164-6.390625-1.538086-7-4.794922-.609375-3.257812,1.538086-6.391602,4.794922-7,5.302734-.991211,10.675781-1.833008,15.970703-2.500977,10.226562-1.286133,13.874023-1.172852,17.37793-.484375,6.745117,1.328125,11.614258,4.337891,13.393555,5.569336.595703.412109,14.609375,10.287109,15.095703,25.99707.197266,6.358398-1.948242,10.514648-3.672852,13.854492-1.417969,2.746094-2.538086,4.915039-2.621094,8.489258-.103516,4.477539,1.482422,9.113281,4.712891,13.77832,1.886719,2.724609,1.207031,6.462891-1.516602,8.348633-1.041992.72168-2.232422,1.068359-3.411133,1.068359Z" fill="#c8c1df" stroke="#282566" stroke-miterlimit="10" stroke-width="2"/><path d="M118.616314,53.308187c-7.032227,0-13.368164-2.925781-19.000977-5.526367-1.261719-.582031-2.518555-1.163086-3.776367-1.707031-13.008789-5.62793-27.87207-7.450195-41.857422-5.130859-3.003906.5-5.829102-1.529297-6.326172-4.525391-.49707-2.99707,1.529297-5.829102,4.525391-6.326172,16.045898-2.661133,33.099609-.571289,48.027344,5.886719,1.336914.579102,2.675781,1.196289,4.017578,1.81543,5.317383,2.455078,10.356445,4.768555,15.204102,4.490234,3.932617-.229492,7.887695-2.186523,12.076172-4.257812,2.813477-1.392578,5.722656-2.832031,8.886719-3.896484,16.556641-5.571289,33.742188.90918,49.926758,8.024414,2.780273,1.222656,4.043945,4.467773,2.821289,7.249023s-4.46582,4.042969-7.249023,2.821289c-14.800781-6.507812-29.152344-11.989258-41.991211-7.668945-2.459961.827148-4.916016,2.042969-7.516602,3.329102-4.990234,2.46875-10.149414,5.021484-16.314453,5.379883-.487305.029297-.972656.042969-1.453125.042969Z" fill="#c8c1df" stroke="#282566" stroke-miterlimit="10" stroke-width="2"/><path d="M223.741919,637.112847c-.994824-.141826-2.013218-.360501-3.059256-.662032-15.467173-4.457089-25.933675-20.804471-35.168262-35.227276-7.453245-11.64012-14.503653-22.632428-21.240744-22.509784-5.855283.10927-10.424325,4.474415-16.746566,10.516128-6.572145,6.279329-14.751136,14.094315-27.411226,19.208808-14.083392,5.687908-31.091665,3.9867-50.559317-5.061426-2.002886-.931161-2.872124-3.310077-1.941377-5.313515.931851-2.004267,3.312632-2.872746,5.313515-1.941377,17.378646,8.077561,32.246248,9.724141,44.190407,4.898705,11.238653-4.540319,18.486853-11.465561,24.880958-17.57545,7.055248-6.741159,13.14788-12.563078,22.123669-12.730561,11.23479-.209427,19.056676,12.027761,28.127533,26.194424,8.473001,13.233096,18.076292,28.231768,30.645951,31.854076,9.357236,2.699228,15.966796-5.54468,25.73551-19.438826,4.345616-6.181461,8.839567-12.573094,14.125956-17.590102,1.603673-1.520327,4.137192-1.453591,5.654826.148218,1.5215,1.602361,1.454557,4.133877-.147252,5.654963-4.707949,4.46766-8.969147,10.527493-13.088499,16.388067-8.702138,12.37715-17.681205,25.146879-31.435825,23.186959Z" fill="#c8c1df" stroke="#282566" stroke-miterlimit="10" stroke-width="2"/><path d="M136.111254,120.459949l.021612.309243c.88678,12.689083-10.878274,22.493162-27.380704,31.214841-39.011117-13.001969-100.735753-16.507339-103.15384-44.797608l-.021612-.309243c-.887473-12.699008,10.878278-22.493101,27.380708-31.21478,39.011113,13.001908,100.735753,16.507339,103.153836,44.797547Z" fill="#4d4b7e" stroke="#282566" stroke-miterlimit="10" stroke-width="3"/><path d="M150.123947,284.101232l.021612.309243c.887473,12.699008-10.878765,22.493135-27.380708,31.21478-39.011117-13.001969-100.735753-16.507339-103.154327-44.797574l-.021612-.309243c-.886775-12.689022,10.878765-22.493135,27.380708-31.21478,39.011117,13.001969,100.735753,16.507339,103.154327,44.797574Z" fill="#4d4b7e" stroke="#282566" stroke-miterlimit="10" stroke-width="3"/><path d="M164.125921,447.743204l.021612.309243c.887478,12.699068-10.867351,22.502372-27.360246,31.213411-39.010907-12.991949-100.745982-16.506624-103.164069-44.796893l-.021612-.309243c-.88678-12.689083,10.868536-22.492421,27.360944-31.203426,39.010907,12.991949,100.745288,16.4967,103.163371,44.786908Z" fill="#4d4b7e" stroke="#282566" stroke-miterlimit="10" stroke-width="3"/><path d="M106.229113,574.877576c-10.974379-2.527323-21.78374-5.123752-31.25387-8.279996-16.492899,8.710978-28.257953,18.515058-27.370479,31.214065l.021612.309243c1.658196,19.377958,31.139919,27.128967,62.088807,34.266741-1.281742-20.140677-2.786782-44.394079-3.486069-57.510053Z" fill="#4d4b7e" stroke="#282566" stroke-miterlimit="10" stroke-width="3"/><path d="M136.132865,120.769192l4.005838,57.320218c2.402747,28.070773-56.849335,42.015502-93.169083,61.214248-16.501943,8.721645-28.267484,18.525758-27.380708,31.21478l-4.005834-57.320157c-2.402752-28.070834,56.849335-42.015502,93.169083-61.214248,16.50243-8.721679,28.267484-18.525758,27.380704-31.214841Z" fill="#c8c1df" stroke="#282566" stroke-miterlimit="10" stroke-width="3"/><path d="M150.145559,284.410476l4.005838,57.320218c2.40226,28.070807-56.859568,42.016156-93.188847,61.225602-16.492408,8.711005-28.247724,18.514343-27.360944,31.203426l-4.005838-57.320218c-2.412279-28.060073,56.839106-42.014787,93.169083-61.214248,16.501943-8.721645,28.268182-18.515772,27.380708-31.21478Z" fill="#c8c1df" stroke="#282566" stroke-miterlimit="10" stroke-width="3"/><path d="M164.147532,448.052447l4.005838,57.320218c2.403235,28.070739-56.848848,42.015468-93.178127,61.224914-16.492899,8.710978-28.257953,18.515058-27.370479,31.214065l-4.005838-57.320218c-2.402747-28.070773,56.859081-42.016122,93.18836-61.225568,16.492895-8.711039,28.247724-18.514343,27.360246-31.213411Z" fill="#c8c1df" stroke="#282566" stroke-miterlimit="10" stroke-width="3"/><path d="M68.628884,58.813824c-.430586-5.194779-.861167-10.389497-1.291753-15.584276-1.113245-13.674349-2.135489-27.356282-3.124624-41.040712C32.433963,15.481547-.225393,28.574559,1.570872,49.556963l4.005838,57.320218c-.887473-12.699008,10.878278-22.493101,27.380708-31.21478,10.650589-5.628823,23.268984-10.807555,35.728229-16.022338-.016819-.275682-.041401-.550394-.056763-.826239Z" fill="#c8c1df" stroke="#282566" stroke-miterlimit="10" stroke-width="3"/><path d="M439.092047,140.569894l-.066251.302835c-2.718444,12.426153-16.766299,18.524859-35.055761,22.252256-33.778434-23.450711-92.0246-44.177564-86.387045-72.005687l.066251-.302835c2.72057-12.435872,16.766286-18.524799,35.055747-22.252197,33.778447,23.450651,92.0246,44.177564,86.387058,72.005627Z" fill="#4d4b7e" stroke="#282566" stroke-miterlimit="10" stroke-width="3"/><path d="M406.506918,301.545155l-.066251.302835c-2.72057,12.435872-16.766763,18.524695-35.055747,22.252197-33.778434-23.450711-92.0246-44.177564-86.387522-72.005791l.066251-.302835c2.718431-12.426093,16.766763-18.524695,35.055747-22.252197,33.778434,23.450711,92.0246,44.177564,86.387522,72.005791Z" fill="#4d4b7e" stroke="#282566" stroke-miterlimit="10" stroke-width="3"/><path d="M373.911308,462.518061l-.066251.302835c-2.720583,12.435931-16.758408,18.536769-35.035727,22.256639-33.78105-23.441037-92.034617-44.179755-86.397062-72.007878l.066251-.302835c2.718444-12.426153,16.756746-18.526886,35.033587-22.24686,33.78105,23.441037,92.036743,44.170036,86.399201,71.9981Z" fill="#4d4b7e" stroke="#282566" stroke-miterlimit="10" stroke-width="3"/><path d="M282.589682,568.232533c-9.820306-5.512343-19.462819-11.044584-27.662704-16.73731-18.277305,3.71981-32.32516,9.818516-35.04573,22.254388l-.066251.302835c-3.859746,19.061931,22.251172,34.793113,49.942515,50.348532,4.43555-19.687956,9.813721-43.385381,12.83217-56.168445Z" fill="#4d4b7e" stroke="#282566" stroke-miterlimit="10" stroke-width="3"/><path d="M439.025796,140.87273l-12.27999,56.132486c-5.590532,27.613175-66.372667,24.327319-106.62641,32.534148-18.288984,3.727502-32.337316,9.826104-35.055747,22.252197l12.279976-56.132426c5.590545-27.613235,66.372667-24.327319,106.62641-32.534148,18.289461-3.727397,32.337316-9.826104,35.055761-22.252256Z" fill="#c8c1df" stroke="#282566" stroke-miterlimit="10" stroke-width="3"/><path d="M406.440667,301.847991l-12.27999,56.132486c-5.591009,27.613071-66.382671,24.325068-106.648571,32.539484-18.276841,3.719974-32.315143,9.820708-35.033587,22.24686l12.27999-56.132486c5.578376-27.605588,66.36265-24.32951,106.62641-32.534148,18.288984-3.727502,32.335177-9.816325,35.055747-22.252197Z" fill="#c8c1df" stroke="#282566" stroke-miterlimit="10" stroke-width="3"/><path d="M373.845057,462.820897l-12.27999,56.132486c-5.590055,27.613279-66.37219,24.327423-106.63809,32.54184-18.277305,3.71981-32.32516,9.818516-35.04573,22.254388l12.27999-56.132486c5.590532-27.613175,66.382194-24.325172,106.648094-32.539589,18.277318-3.71987,32.315143-9.820708,35.035727-22.256639Z" fill="#c8c1df" stroke="#282566" stroke-miterlimit="10" stroke-width="3"/><path d="M391.675531,62.430347c1.048083-5.106139,2.096153-10.212218,3.144237-15.318357,2.778277-13.435339,5.646013-26.852356,8.546225-40.262456-34.234556,3.816711-69.258181,7.194015-73.436761,27.834444l-12.27999,56.132486c2.72057-12.435872,16.766286-18.524799,35.055747-22.252197,11.8039-2.405542,25.369538-3.825628,38.792593-5.325077.061409-.269281.115095-.539815.177949-.808843Z" fill="#c8c1df" stroke="#282566" stroke-miterlimit="10" stroke-width="3"/></svg>