<?xml version="1.0" encoding="UTF-8"?><svg id="a" xmlns="http://www.w3.org/2000/svg" width="561.848633" height="462.977539" viewBox="0 0 561.848633 462.977539"><line x1="44.446264" y1="270.509385" x2="44.446245" y2="186.881545" fill="none" stroke="#231f20" stroke-linecap="round" stroke-miterlimit="10" stroke-width="4"/><text transform="translate(25.61068 177.72781) scale(.98383 1)" fill="#231f20" font-family="TimesNewRomanPS-BoldMT, &apos;Times New Roman&apos;" font-size="40.5" font-weight="700"><tspan x="0" y="0">H</tspan></text><text transform="translate(.000328 303.092068) scale(.98383 1)" fill="#231f20" font-family="TimesNewRomanPS-BoldMT, &apos;Times New Roman&apos;" font-size="40.5" font-weight="700"><tspan x="0" y="0">HO</tspan></text><line x1="397.912929" y1="414.509385" x2="397.912909" y2="330.881545" fill="none" stroke="#231f20" stroke-linecap="round" stroke-miterlimit="10" stroke-width="4"/><text transform="translate(379.0765 321.72781) scale(.98383 1)" fill="#231f20" font-family="TimesNewRomanPS-BoldMT, &apos;Times New Roman&apos;" font-size="40.5" font-weight="700"><tspan x="0" y="0">H</tspan></text><text transform="translate(379.913414 447.69949) scale(.98383 1)" fill="#231f20" font-family="TimesNewRomanPS-BoldMT, &apos;Times New Roman&apos;" font-size="40.5" font-weight="700"><tspan x="0" y="0">OH</tspan></text><line x1="517.862953" y1="270.509371" x2="517.862934" y2="186.881532" fill="none" stroke="#231f20" stroke-linecap="round" stroke-miterlimit="10" stroke-width="4"/><text transform="translate(505.331566 303.699478) scale(.98383 1)" fill="#231f20" font-family="TimesNewRomanPS-BoldMT, &apos;Times New Roman&apos;" font-size="40.5" font-weight="700"><tspan x="0" y="0">H</tspan></text><text transform="translate(498.678425 177.727814) scale(.98383 1)" fill="#231f20" font-family="TimesNewRomanPS-BoldMT, &apos;Times New Roman&apos;" font-size="40.5" font-weight="700"><tspan x="0" y="0">OH</tspan></text><line x1="163.779597" y1="417.126328" x2="163.779578" y2="333.498488" fill="none" stroke="#231f20" stroke-linecap="round" stroke-miterlimit="10" stroke-width="4"/><text transform="translate(144.943687 324.344997) scale(.98383 1)" fill="#231f20" font-family="TimesNewRomanPS-BoldMT, &apos;Times New Roman&apos;" font-size="40.5" font-weight="700"><tspan x="0" y="0">OH</tspan></text><text transform="translate(145.780602 449.708279) scale(.98383 1)" fill="#231f20" font-family="TimesNewRomanPS-BoldMT, &apos;Times New Roman&apos;" font-size="40.5" font-weight="700"><tspan x="0" y="0">H</tspan></text><line x1="163.779537" y1="126.439972" x2="163.779518" y2="42.812132" fill="none" stroke="#231f20" stroke-linecap="round" stroke-miterlimit="10" stroke-width="4"/><text transform="translate(144.943687 33.658474) scale(.98383 1)" fill="#231f20" font-family="TimesNewRomanPS-BoldMT, &apos;Times New Roman&apos;" font-size="40.5" font-weight="700"><tspan x="0" y="0">CH</tspan></text><text transform="translate(204.711266 47.144802) scale(.573573)" fill="#231f20" font-family="TimesNewRomanPS-BoldMT, &apos;Times New Roman&apos;" font-size="40.5" font-weight="700"><tspan x="0" y="0">2</tspan></text><text transform="translate(216.3265 33.658474) scale(.98383 1)" fill="#231f20" font-family="TimesNewRomanPS-BoldMT, &apos;Times New Roman&apos;" font-size="40.5" font-weight="700" letter-spacing="-.000025em"><tspan x="0" y="0">OH</tspan></text><text transform="translate(145.780602 159.021755) scale(.98383 1)" fill="#231f20" font-family="TimesNewRomanPS-BoldMT, &apos;Times New Roman&apos;" font-size="40.5" font-weight="700"><tspan x="0" y="0">H</tspan></text><text transform="translate(377.913414 95.732693) scale(.98383 1)" fill="#231f20" font-family="TimesNewRomanPS-BoldMT, &apos;Times New Roman&apos;" font-size="40.5" font-weight="700"><tspan x="0" y="0">O</tspan></text><polyline points="374.446292 77.782774 163.661479 77.782774 46.377664 225.479512 163.661479 373.176249 398.229108 373.176249 515.512922 225.479512 409.15387 91.540441" fill="none" stroke="#231f20" stroke-linecap="round" stroke-miterlimit="10" stroke-width="6"/></svg>