<?xml version="1.0" encoding="UTF-8"?><svg id="Layer_1" xmlns="http://www.w3.org/2000/svg" width="509.320643" height="188.591263" xmlns:xlink="http://www.w3.org/1999/xlink" viewBox="0 0 509.320643 188.591263"><defs><linearGradient id="linear-gradient" x1="261.831156" y1="564.055867" x2="302.031563" y2="554.023043" gradientTransform="translate(-19.486055 -669.317834) rotate(1.443891) scale(1.071586 1.364349)" gradientUnits="userSpaceOnUse"><stop offset="0" stop-color="#ceccff"/><stop offset=".207462" stop-color="#b4b1ff"/><stop offset=".398986" stop-color="#a3a0ff"/><stop offset=".54023" stop-color="#9e9aff"/><stop offset=".662465" stop-color="#a4a1ff"/><stop offset=".84285" stop-color="#b8b5ff"/><stop offset="1" stop-color="#ceccff"/></linearGradient><radialGradient id="radial-gradient" cx="329.157819" cy="240.049543" fx="329.157819" fy="240.049543" r="24.982852" gradientTransform="translate(447.581918 -157.05007) rotate(90.70888) scale(1.008907 .70937) skewX(-.584267)" gradientUnits="userSpaceOnUse"><stop offset="0" stop-color="#9e9aff"/><stop offset=".338762" stop-color="#a09cff"/><stop offset=".58564" stop-color="#a9a6ff"/><stop offset=".802727" stop-color="#b8b6ff"/><stop offset="1" stop-color="#ceccff"/></radialGradient><linearGradient id="linear-gradient-2" x1="149.771624" y1="115.125424" x2="366.578752" y2="115.125424" gradientUnits="userSpaceOnUse"><stop offset="0" stop-color="#fffcc8"/><stop offset=".555866" stop-color="#fffdda"/><stop offset=".713334" stop-color="#fffccb"/><stop offset="1" stop-color="#fffbb5"/></linearGradient><linearGradient id="linear-gradient-3" x1="366.756923" y1="141.928533" x2="509.320643" y2="141.928533" gradientUnits="userSpaceOnUse"><stop offset="0" stop-color="#ffe5fb"/><stop offset=".46648" stop-color="#fff2fd"/><stop offset="1" stop-color="#ffe5fb"/></linearGradient><linearGradient id="linear-gradient-4" x1="5.468052" y1="138.941728" x2="149.772007" y2="138.941728" xlink:href="#linear-gradient-3"/><linearGradient id="linear-gradient-5" x1="250.148163" y1="104.060502" x2="250.148163" y2="17.059399" xlink:href="#linear-gradient-2"/><linearGradient id="linear-gradient-6" x1="350.329164" y1="85.557148" x2="505.468202" y2="85.557148" xlink:href="#linear-gradient-3"/><linearGradient id="linear-gradient-7" x1="77.313657" y1="122.030501" x2="72.127113" y2="62.748034" xlink:href="#linear-gradient-3"/></defs><path d="M281.32173,52.893682l.025569-.001632c-2.181094-10.855013-18.744662-27.883412-35.26222-25.405497-15.878846,2.382097-21.747392,16.198743-19.42853,28.528614,1.782982,9.480484,20.927448,116.165074,20.927448,116.165074l51.065413-3.101504-17.327681-116.185056Z" fill="url(#linear-gradient)" stroke="#7773bf" stroke-miterlimit="10" stroke-width="1.5"/><ellipse cx="273.232843" cy="170.437663" rx="17.402891" ry="25.651481" transform="translate(100.770966 442.397374) rotate(-89.574541)" fill="url(#radial-gradient)" stroke="#7773bf" stroke-miterlimit="10" stroke-width="1.5"/><path d="M337.152971,99.525588c-51.547852,1.027588-143.436035,2.704102-179.69458,3.500977-2.542236.049072-5.113037.299561-7.686768.710449v27.145752c3.79541-.841553,7.608765-1.331543,11.361328-1.404785,36.258545-.796143,128.147095-2.473389,179.694946-3.500977,8.725708-.550781,17.371582.365479,25.750854,2.757568v-25.327148c-9.511963-3.251953-19.419434-4.513184-29.425781-3.881836Z" fill="url(#linear-gradient-2)"/><path d="M505.646083,153.133855c-20.690918-1.204102-43.907227-4.229736-63.155273-10.522705-12.24353-3.714111-22.895508-7.623047-34.151367-14.802246-10.726318-6.678955-20.848755-14.223633-32.414062-19.721924-3.006592-1.488281-6.067017-2.756104-9.168457-3.815918v25.327148c4.362305,1.245117,8.656494,2.867432,12.843384,4.940186,11.565308,5.498291,21.687378,13.043701,32.413696,19.721924,11.256226,7.179199,21.907837,11.088867,34.151367,14.802246,19.248047,6.292969,42.464355,9.318604,63.155273,10.523438l-3.674561-26.452148Z" fill="url(#linear-gradient-3)"/><path d="M122.614537,114.504106c-7.69812,4.693359-15.080566,9.919189-23.534912,13.143311-15.209473,5.626465-27.254883,6.018311-43.557861,9.626953-16.01001,3.212402-34.632935,6.991699-50.053711,10.097168l3.674927,26.451416c15.420776-3.105469,34.043701-6.884766,50.053711-10.097168,16.302612-3.608643,28.348389-4.000488,43.557495-9.626221,8.454346-3.224854,15.837158-8.450684,23.535278-13.144043,7.219116-4.488281,15.309448-7.937988,23.482544-9.749268v-27.145752c-9.405762,1.50293-18.856934,5.283691-27.157471,10.443604Z" fill="url(#linear-gradient-4)"/><path d="M351.310033,18.466752l15.446889,85.360288-15.446889-85.360288c-6.432129-1.258301-12.992065-1.66626-19.595215-1.250244-51.547485,1.027588-143.436035,2.704834-179.69458,3.500977-6.113159.118652-12.385986,1.344727-18.480835,3.401367l16.114014,79.94165c2.57373-.410889,5.144531-.661377,7.686768-.710449,36.258545-.796875,128.146729-2.474121,179.69458-3.501709,10.109741-.6373,20.119773.651135,29.722158,3.978696" fill="url(#linear-gradient-5)"/><path d="M366.579164,103.765762c3.000288,1.039704,6.257034,2.366679,9.168335,3.807988,11.565674,5.498291,21.687744,13.042969,32.414062,19.721924,11.256226,7.179199,21.907837,11.088135,34.151367,14.802246,19.248047,6.292969,42.464355,9.317871,63.155273,10.522705l-5.319946-82.631836c-20.691284-1.204834-43.907227-4.230469-63.155273-10.523438-12.24353-3.713379-22.895142-7.623047-34.151367-14.802246-10.726318-6.678223-20.848755-14.223633-32.414062-19.721924-6.143188-3.041748-13.605103-5.17749-20.098389-6.44751l16.25,85.27209Z" fill="url(#linear-gradient-6)"/><path d="M117.294573,31.683491c-7.698486,4.693359-15.080933,9.919189-23.535278,13.144043-15.209106,5.625732-27.254883,6.017578-43.557861,9.626221-16.009644,3.212402-34.632935,6.991699-50.053345,10.097168l5.31958,82.632568c15.421143-3.106201,34.043701-6.885498,50.053711-10.0979,16.302979-3.60791,28.348389-3.999756,43.557861-9.626221,8.454346-3.224121,15.836792-8.449951,23.535278-13.144043,8.300171-5.15918,17.751343-8.939941,27.157104-10.442871l-16.114014-79.94165c-5.704102,1.924072-11.252563,4.575439-16.363037,7.752686Z" fill="url(#linear-gradient-7)"/><path d="M505.468202,152.271062c-20.691169-1.204692-43.907338-4.229895-63.155347-10.522759-12.243611-3.713975-22.895268-7.623054-34.151302-14.802444-10.726496-6.678647-20.84864-14.223398-32.413982-19.721863-12.228998-6.054323-25.325656-8.534667-38.594299-7.698223-51.547731,1.027766-143.436128,2.704743-179.69465,3.501199-11.833966.230256-24.272316,4.58218-34.843985,11.154085-7.6983,4.693443-15.080778,9.919252-23.535111,13.143815-15.209375,5.626093-27.255015,6.01798-43.557811,9.626269-16.009935,3.212398-34.632881,6.991697-50.053663,10.097698" fill="none" stroke="#231f20" stroke-miterlimit="10" stroke-width="1.5"/><path d="M509.142966,178.722552c-20.691169-1.204692-43.907338-4.229895-63.155347-10.522759-12.243611-3.713975-22.895268-7.623054-34.151302-14.802444-10.726496-6.678647-20.84864-14.223398-32.413982-19.721863-12.228998-6.054323-25.325656-8.534667-38.594299-7.698223-51.547731,1.027766-143.436128,2.704743-179.69465,3.501199-11.833966.230256-24.272316,4.58218-34.843985,11.154085-7.6983,4.693443-15.080778,9.919252-23.535111,13.143815-15.209375,5.626093-27.255015,6.01798-43.557811,9.626269-16.009935,3.212398-34.632881,6.991697-50.053663,10.097698" fill="none" stroke="#231f20" stroke-miterlimit="10" stroke-width="1.5"/><path d="M500.148238,69.962379c-20.691169-1.204692-43.907338-4.229895-63.155347-10.522759-12.243611-3.713975-22.895268-7.623054-34.151302-14.802444-10.726496-6.678647-20.84864-14.223398-32.413982-19.721863-12.228998-6.054323-25.325656-8.534667-38.594299-7.698223-51.547731,1.027766-143.436128,2.704743-179.69465,3.501199-11.833966.230256-24.272316,4.58218-34.843985,11.154085-7.6983,4.693443-15.080778,9.919252-23.535111,13.143815-15.209375,5.626093-27.255015,6.01798-43.557811,9.626269-16.009935,3.212398-34.632881,6.991697-50.053663,10.097698" fill="none" stroke="#231f20" stroke-miterlimit="10" stroke-width="1.5"/></svg>