<?xml version="1.0" encoding="UTF-8"?><svg id="Layer_1" xmlns="http://www.w3.org/2000/svg" width="287.629389" height="198.104056" viewBox="0 0 287.629389 198.104056"><path d="M138.095984,155.97757c-.032353,3.862213-.486,7.581568-1.308894,11.08735-1.92462,8.229568-5.883891,15.344596-11.15862,20.632219-.434188.434268-.868298.848918-1.31538,1.25724-.453647.408164-.907295.803514-1.373836,1.185732-.693325.570322-1.406109,1.114699-2.138432,1.626486-.486.343459-.978407.667459-1.483866.984973-2.008784,1.25724-4.127757,2.293945-6.33738,3.090973-.278754.097295-.55735.194432-.835945.28524-3.836188,1.257082-7.938,1.775355-12.162973,1.438383-.019459-.006328-.032432-.006328-.051891-.006328-.032353,0-.064784-.006645-.097137-.006645-2.164377-.174814-4.341647-.12941-6.512432.064863-.155514.012973-.317514.025945-.473027.038918-.440596.038918-.88135.071191-1.321945.103623-.272109.019459-.544298.038918-.81.058377-.602596.038918-1.198784.071191-1.788486.097137-.077757.006486-.149027.006486-.220298.006486-.576729.032432-1.146973.051891-1.717216.064863-.259137.006486-.518432.012973-.777568.019459-.628541.012973-1.250675.019459-1.872729.019459h-.012973c-.570243,0-1.140486-.006486-1.704243-.019459-.181459,0-.362918-.006486-.537891-.006486-.518353-.012973-1.030219-.032432-1.535678-.051891-.23335-.012973-.460055-.019459-.686918-.032432-.486-.019301-.972-.051732-1.451514-.084164-.641514-.038918-1.283027-.090809-1.918055-.149027-.628541-.051891-1.257082-.116754-1.879216-.187945-.473027-.051891-.946134-.110109-1.406188-.168486-.226784-.032432-.460055-.064705-.686839-.09065-.609161-.090809-1.218243-.181459-1.814432-.278754-.388784-.064705-.777568-.129568-1.159866-.200918-.07135-.012973-.136134-.025787-.207404-.03876-.207404-.038918-.408243-.07135-.609082-.116596-.252809-.045404-.511945-.097295-.764675-.149027-.395271-.077836-.784134-.162-1.172839-.252809-.382377-.077836-.764675-.168486-1.140486-.259137-.570322-.136055-1.127514-.272268-1.684863-.421295-.012973-.006486-.025945-.006486-.032353-.012973-.46662-.123082-.926675-.246164-1.380243-.382377-.641514-.187787-1.276541-.382219-1.898596-.583137-.460134-.149027-.913781-.298055-1.360863-.460055-.505459-.174973-.997945-.356432-1.490432-.537891-.181459-.071191-.356353-.136055-.531325-.207246-.045325-.019459-.090729-.032432-.136134-.051891-.401678-.155514-.797027-.317514-1.192219-.486-.46662-.187945-.920188-.388863-1.373836-.589781-.071191-.032273-.136055-.064705-.200839-.09065-.473106-.213732-.939647-.434109-1.399702-.660973-.362918-.174973-.719271-.349787-1.075623-.537732-.194432-.097295-.388863-.194432-.576809-.298055-.006486,0-.01938-.006645-.025866-.012973-.362839-.187945-.725757-.388863-1.082188-.589781-.427623-.233191-.848918-.479514-1.263568-.725836-.181459-.103623-.362918-.213732-.537891-.324-.388705-.233191-.771082-.473027-1.146973-.719191-.336894-.213891-.673866-.434109-.997866-.660973-.382298-.25265-.758188-.518432-1.127514-.784055-.168486-.116596-.336973-.239836-.498973-.362918-.401757-.291568-.797027-.596109-1.185812-.90065-.324-.252809-.648-.511945-.965514-.77124-1.244188-1.023732-2.43-2.099355-3.557514-3.227027-.324-.324-.648-.660973-.965514-.997945-.291647-.298055-.570322-.609082-.848918-.920109-.136055-.142541-.265702-.291568-.388863-.440596-.259137-.291568-.518353-.589623-.764596-.887678q-.006486-.006645-.012973-.012973c-.045325-.051891-.09065-.110268-.136055-.162-2.909514-3.47335-6.097623-6.687404-9.519082-9.661781-.032432-.025945-.058377-.051891-.090809-.077678-1.043191-.900809-2.054109-1.827404-3.032596-2.766973-.103623-.097295-.200918-.194432-.298055-.291568-.408243-.401836-.816486-.803672-1.218243-1.211836-.395271-.408164-.784134-.816486-1.172839-1.231137-.090809-.097295-.187945-.194432-.278754-.298055-.421137-.453727-.82938-.913781-1.237623-1.373836-.038918-.045404-.077757-.090809-.110109-.129568-.874863-.997945-1.710809-2.008863-2.520809-3.03924-.077678-.097137-.155514-.194273-.226705-.291568-.356432-.453568-.699891-.920109-1.04335-1.380164-.401757-.537891-.790541-1.088596-1.172918-1.632973-.349866-.498973-.686839-.997945-1.017325-1.503404-.077757-.110109-.149027-.220219-.213812-.330486-.330486-.498973-.648-1.004432-.965514-1.516377,0,0-.006486-.006328-.012973-.012814-.330486-.537891-.654486-1.082268-.978486-1.632973-.045404-.084322-.097216-.174973-.149027-.259295-.285082-.498973-.563757-.997945-.835945-1.503246-.012973-.019459-.025945-.038918-.032432-.064863-.298055-.544219-.589623-1.088596-.874705-1.645945-.110268-.213891-.220377-.427623-.324-.648-.194432-.388863-.388863-.777568-.576809-1.172918-.019459-.03876-.038839-.077678-.051812-.123082-.265702-.550863-.518353-1.108055-.771161-1.671891-.006486-.012973-.006486-.019301-.012894-.032273-.233271-.524918-.460134-1.056322-.680432-1.587727-.298055-.712705-.583216-1.438383-.855325-2.157732-.162-.427623-.324-.855404-.473027-1.283027-.07135-.194432-.142541-.388863-.207404-.583295-.207404-.583137-.401757-1.172918-.589623-1.762541-.187945-.596109-.375891-1.192377-.550863-1.788486-.032432-.110109-.064784-.220219-.09065-.330486-.162-.550705-.317514-1.108055-.460134-1.665404-.142541-.544219-.285161-1.088596-.414729-1.639301-.045404-.187945-.09065-.382377-.136055-.583295-.103702-.453568-.207404-.907137-.298055-1.360705-.207404-.965514-.39535-1.937514-.55735-2.916-.071191-.408322-.136055-.816486-.200839-1.218322-.097216-.615568-.181459-1.231137-.259216-1.846705-.162-1.211836-.291568-2.436486-.388784-3.667781-.019459-.226705-.038839-.460055-.051812-.693246-.006486-.058377-.012973-.116754-.012973-.174973-.038918-.498973-.064863-.997945-.090729-1.496918-.006486,0-.006486-.006486,0-.019459-.032432-.589623-.058298-1.179404-.071271-1.769027-.006486-.123082-.012973-.246322-.006486-.369404-.019459-.609082-.025945-1.211678-.025945-1.820918v-.032273c0-.55735.006486-1.121027.019459-1.678377.006486-.434109.019459-.874705.038918-1.308973,0-.032432,0-.064705.006486-.097137,0,.077678,0,.149027.006407.226705.012973.362918.032432.725836.051812,1.082109.019459.369404.038918.738809.07135,1.108213.025945.369404.051812.732164.084164,1.095082.025945.362918.058377.725678.097295,1.088596l.116596,1.088754c.064784.57665.136055,1.153301.213891,1.723623.038839.349945.09065.693404.149027,1.036705.071191.524918.155514,1.049836.25265,1.568268.058377.356432.123161.712705.187945,1.075623.064863.362918.129568.71935.207404,1.069137.071191.336973.136055.68059.207325,1.017404.084243.369404.168486.745295.252729,1.114541.071271.298055.142541.602754.213812.907295.213812.861732.434188,1.717137.680432,2.566055.064784.246322.136055.492486.207325.73865.032432.116754.064863.23335.103702.349945.110188.369404.220298.738809.336973,1.108055.064784.207404.136055.414809.200839.622055.142541.44724.291568.887836.447161,1.32859.084243.246164.168407.492328.259216.732164.142541.408164.291568.81.440596,1.211836.511945,1.347732,1.062729,2.68265,1.652432,4.004596.207325.473027.427623.946055.648,1.419082.064784.136055.129568.272109.194432.408322.220219.45341.440596.90065.660894,1.341246.375812.732164.758188,1.458,1.146973,2.17735.246243.447082.492486.887678.745216,1.328432.084243.142383.168486.278596.246243.421137.291568.492486.583216.984973.881271,1.470973l.006486.006486c.349945.570164.712784,1.134,1.075623,1.691191.311027.473186.62862.939568.95262,1.406268.129568.194273.265702.388705.401757.583137.304541.427781.609082.855404.920109,1.276541.012973.019459.025945.038918.038918.051891.777568,1.056164,1.581082,2.086541,2.423514,3.103945.019459.019459.032432.03876.051891.058219.421137.511945.855325,1.017404,1.296,1.522863.038839.045404.077678.09065.110109.129568.375891.427781.751702.848918,1.134,1.263568.071271.077836.142541.149186.207404.226863.408164.427623.81.855404,1.22465,1.283027.077836.077678.149027.155514.226863.23335.447082.453568.907137.907137,1.373678,1.360705.991459.959027,2.021836,1.898596,3.078,2.812377.025945.019459.045404.038918.07135.064863,3.434432,2.967732,6.622541,6.19476,9.538541,9.668109.045404.051891.090729.110109.136055.162.648.771082,1.315459,1.529191,2.01535,2.261514.233191.25265.466541.492486.712705.73865.129647.136055.265781.272109.401836.408322.336973.336814.686839.667459,1.036784.997787.369325.343617.745216.686918,1.127514,1.023891.362839.317514.732243.628541,1.101647.939727.045325.03876.09065.071191.136055.110109.349945.285082.699812.570164,1.056164.842273.103781.084322.200918.162.30462.239836.317514.239836.635027.479514.959027.719191.032353.025945.071271.051891.110188.077836.395271.285082.797027.570164,1.205271.848918.427702.291568.861812.57665,1.302407.861891,0,0,.006486,0,.006486.006328.440675.278754.88135.550863,1.328432.822973.453568.272268.913702.531404,1.373836.790699.460055.259137.933082.511945,1.406109.764596.447082.23335.907137.460055,1.367271.68676.019459.012973.045325.025945.071271.03259.447082.220219.900729.434109,1.360863.641355.071191.032432.149027.064863.226705.103781.453647.200918.920188.401678,1.386809.596109.486.207404.978486.401836,1.470973.596109.045246.012973.09065.032432.136055.051891.492486.187945.991459.375891,1.496839.550863.486.174973.965514.336973,1.458.492486.103702.03876.200839.071191.30462.103623.486.155514.978486.304541,1.47738.453568.550784.162,1.101647.317514,1.665325.466541.55735.149027,1.127514.291727,1.697836.427781.473027.116596.946055.226705,1.425568.324.207404.045246.421216.09065.628541.136055.421216.09065.842432.168486,1.263568.25265.116675.019459.239836.045404.356432.064863.492486.09065.991459.174973,1.490432.259137.174973.025945.356432.058377.537812.084322.421216.064863.842432.129568,1.263647.187945.265623.032273.531325.071191.797027.103623.395271.051891.797027.097295,1.198784.142541.622134.07135,1.250675.136055,1.879216.187945.635027.058219,1.276541.110109,1.918055.149027.473027.032432.959027.058377,1.438541.084164.213891.012973.434188.019617.654486.032432.518432.019459,1.04335.038918,1.568188.051891.168486,0,.34338.006486.518353.006486.576809.012973,1.153459.019459,1.736675.019459h.025866c.609161,0,1.224809-.006486,1.846863-.019459.265623-.006486.531404-.012973.803514-.025945.537891-.006486,1.075623-.025945,1.62-.051891.680432-.025945,1.373757-.064705,2.067082-.110109.291647-.019459.583295-.038918.88135-.064863.395191-.025787.790541-.051732,1.192298-.09065.18138-.012973.369325-.025945.557271-.045404,2.151404-.187945,4.309216-.233191,6.467027-.064705.045404.006486.097216.006486.142541.012973.213891.019459.434188.032432.648.045404,9.830188.609082,18.921647-3.440918,25.686809-10.568918.421137-.440754.835866-.894322,1.237623-1.360863,1.613514-1.872809,3.071514-3.920432,4.361027-6.136541.324-.550863.635027-1.114541.933082-1.684863.298134-.57665.589781-1.153459.868377-1.749568.414729-.887836.803514-1.794973,1.166432-2.721568.479514-1.237623.913623-2.507678,1.296-3.810322.187866-.648.369325-1.308973.531325-1.976273.498973-2.028322.881271-4.134322,1.121027-6.292055.090729-.790699.162-1.594213.207325-2.404213.123161,1.490432.226863,2.676322.110188,3.252973Z" fill="#865924"/><path d="M286.973984,103.133138c-.006407.291727-.012894.576809-.01938.868377-.019459.693404-.051891,1.38665-.084322,2.073568-.012973.356432-.038839.706377-.064705,1.056322-.006486.129568-.012973.259137-.025945.388705-.025945.427781-.058377.861891-.097216,1.289672-.032432.408164-.071271.816328-.110188,1.231137-.019459.149027-.032432.304541-.051812.460055-.032432.343459-.071271.686918-.110188,1.030219-.051812.421295-.110109.84259-.162,1.263727-.032432.259137-.064784.511945-.110109.771082-.090809.673945-.194432,1.341404-.311027,2.008863-.019459.123082-.038918.246164-.058377.362918-.090729.518273-.181459,1.043191-.285082,1.561623-.084322.440596-.174973.881191-.265702,1.315459,0,.025945-.006486.045246-.012973.071191,0,.006486,0,.012973-.006486.019459-.077757.362918-.155514.71935-.233271,1.082268-.077757.336814-.155514.673787-.233271,1.01076-.064784.291568-.136134.57665-.213812.868377-.097295.401678-.200918.803514-.304541,1.205191-.097295.369404-.194432.732322-.298134,1.101727-.168486.589623-.343459,1.185732-.518353,1.775355-.246322.803672-.498973,1.607186-.771161,2.404213-.30462.907137-.62862,1.814432-.965514,2.715082-.168486.447082-.343459.90065-.518432,1.347891-.174894.447082-.356353.894164-.544298,1.341404-.174973.427623-.356432.855246-.544377,1.283027-.012894.032273-.032353.064705-.038839.097137-.187866.427623-.382298.848918-.576729,1.276541-.200918.440596-.401757.874705-.615568,1.315459-1.04335,2.183836-2.190243,4.335082-3.440918,6.447568-.207325.349945-.41465.693404-.628541,1.04335-.038918.071191-.084243.142541-.129568.213732-1.632973,2.656863-3.913945,7.205836-5.073891,10.102377-.181459.447082-.369325.900809-.557271,1.341404-.174894.401678-.349866.803514-.531325,1.205191-.181459.408322-.369404.81-.55735,1.218322-.18138.382219-.369325.764596-.557191,1.146973-.025945.064705-.058377.123082-.090809.187945l-.486.952383c-.233191.453727-.473027.900809-.719191,1.341404-.207404.369404-.408322.738809-.622134,1.101568v.012973c-.226784.382377-.447161.764754-.680353,1.140645-.252809.427623-.518432.855246-.784055,1.276383-.162.252809-.324.505617-.492486.758268-.285161.447082-.583295.887678-.887836,1.321945-.246164.36276-.505459.725678-.764596,1.088596-.032432.051891-.07135.103623-.110188.155514-.486.667459-.978486,1.321945-1.490353,1.969945-.777647.991459-1.587647,1.956973-2.423514,2.903027-.272188.317514-.55735.622055-.842432.933082-.162.181459-.330486.356432-.498973.531404-.200918.220219-.401757.427623-.609082.641514l-.051891.051732c-.298055.311186-.602596.615727-.913623.920268-.278675.278596-.563836.55735-.855404.835945-.084243.077678-.168486.155514-.252729.239678-.272188.252809-.550784.505459-.82938.764754-1.023891.926596-2.08662,1.827246-3.181781,2.702109-.239678.194432-.486.388863-.73865.583137-.200918.149027-.401836.304699-.602675.453727-.615568.466383-1.244188.926596-1.885702,1.373678-1.807866,1.263568-3.693568,2.449459-5.663514,3.551027-.343459.194432-.686839.382377-1.036784.570322-.058298.032273-.116675.064705-.174894.097137-.375891.194432-.758268.395191-1.140486.589623-.39535.200918-.79062.401836-1.192377.596268-.006486,0-.012973.006328-.019459.012973-.388784.181301-.777568.369246-1.172839.550705-.025945.012973-.051812.025945-.077757.038918-.317514.149027-.635027.291568-.959027.434109-.570322.252809-1.153459.505459-1.736675.745295-.311027.129568-.622055.25265-.933161.375732-.946055.382377-1.911568.738809-2.883568,1.075781-.388784.142541-.777568.272109-1.172918.401678-1.347732.453727-2.721568.868377-4.121191,1.250754-.926675.25265-1.866322.486-2.818863.712705-.440596.103623-.887678.207404-1.334839.298055-.285161.07135-.570243.129568-.855325.181459-.317514.07135-.641514.136055-.972.200918-.712863.142541-1.432134.272109-2.164377.388863-.298055.058219-.589623.103623-.887757.149027-.460055.077678-.920188.149027-1.380243.207246-.421137.064863-.848918.123082-1.276541.174973-.038918.012973-.077757.012973-.123082.012973-.401836.058377-.81.103781-1.218322.149027-.155514.025945-.311027.038918-.466541.051891-.440596.051891-.894164.097137-1.341325.142541h-.019459c-.524839.051891-1.043271.097295-1.574675.136055-.388705.032432-.777568.058377-1.166353.084322s-.777647.051732-1.172839.071191c-.291647.019459-.583295.032432-.88135.045404-1.626486.077678-3.291812.116596-4.976596.116596-.511945,0-1.023891-.006486-1.542322-.012973-.498894-.006486-1.010839-.012973-1.516219-.032273-1.075781-.025945-2.157891-.07135-3.246486-.129727-2.306918-.129568-4.613836-.129568-6.914188.058377-9.745945.797027-18.798486-2.98735-25.634839-9.823623-.427781-.427781-.848918-.868377-1.263647-1.321945-1.853271-2.041295-3.525161-4.315781-4.970188-6.797514-.317514-.550863-.635027-1.114541-.933082-1.684863-.149027-.285082-.298055-.570322-.440596-.861732-.576809-1.159945-1.11462-2.358809-1.594134-3.589945-.239757-.615727-.46662-1.237781-.686839-1.872809-.220377-.635027-.421295-1.276541-.615647-1.924541-.285161-.972-.544298-1.963459-.771161-2.967891-.155514-.673787-.291568-1.354219-.41465-2.041137-.187945-1.030377-.343459-2.073568-.466541-3.129891-.207404-1.769027-.324-3.570486-.343459-5.410705,0-.110268-.019459-.207404-.032432-.311027-.097137-.615727,0-1.788645.123082-3.246645.207404,3.466863.764675,6.797672,1.626486,9.946863.174973.660973.369404,1.308973.570322,1.950486.920109,2.883568,2.099514,5.605295,3.499137,8.125945.311027.563678.635027,1.114541.965514,1.652432.336973.544219.680432,1.075623,1.030377,1.594055.174973.259137.356353.518432.537812.771082.369325.511945.738729,1.010918,1.121027,1.496918.194353.246164.388784.486.583216.725836.589623.712705,1.198784,1.399623,1.833891,2.060596.213732.220377.421137.440596.641514.654486,6.836353,6.842918,15.888894,10.62065,25.634839,9.823623,2.293866-.187945,4.607271-.187945,6.907702-.058377.868298.045404,1.730109.084322,2.579027.110268.421137.012973.842432.025787,1.263568.03876.414729.006645.835945.012973,1.250596.019617,2.222754.025787,4.399945-.012973,6.525404-.12324,1.153459-.051732,2.293945-.129568,3.421459-.226705.563757-.051891,1.121027-.103781,1.678298-.155672,1.11462-.110109,2.216188-.239678,3.298298-.395191.408322-.058377.816486-.110109,1.218322-.174973.609082-.090809,1.205191-.187945,1.807866-.291568,1.788486-.304541,3.54462-.667459,5.255271-1.075623.382377-.090809.764675-.181617,1.140486-.278754.375891-.09065.751702-.187945,1.127514-.291568.745216-.200918,1.483945-.41465,2.216188-.628541.362839-.110109.725757-.220377,1.088675-.336973.486-.149027.959027-.311027,1.438541-.466541.712784-.239836,1.419082-.492486,2.112486-.745295.699812-.25265,1.393137-.52476,2.073568-.803355.907216-.369404,1.801459-.751781,2.682729-1.146973.440675-.200918.881271-.401836,1.31538-.60924.434268-.207404.861891-.41465,1.289514-.628541.414809-.213891.829459-.427623,1.244268-.641514.427623-.220377.848839-.453568,1.270055-.686918.41465-.233191.822973-.466541,1.231137-.699732.81-.473027,1.607027-.959027,2.384675-1.458.382298-.239836.758188-.486,1.127514-.732322.038839-.025945.077757-.051732.116675-.084164.356432-.23335.712784-.479514,1.06265-.725836.401836-.272109.797027-.55735,1.192377-.84876.343459-.259295.686918-.511945,1.023812-.77124.362839-.278596.725757-.55735,1.075702-.842432.356432-.285082.706298-.570164,1.056243-.861732.285161-.239836.570243-.479514.855325-.71935.408322-.349945.81-.706219,1.20535-1.069137.317514-.291727.641514-.589781.952541-.88135.667459-.635027,1.321945-1.276541,1.950486-1.931027.291568-.298055.57665-.602596.861812-.907137,1.036784-1.108213,2.028243-2.248541,2.967812-3.421459.440675-.537891.868377-1.088754,1.296-1.645945.246322-.336973.498973-.667459.738729-1.004432.162-.226705.324-.447082.479593-.673945.965514-1.367191,1.87265-2.766814,2.728055-4.205514.174973-.285082.343459-.57665.505459-.861891q.006486-.006328.006486-.012814c.213732-.362918.421137-.732322.622055-1.101568.129568-.226863.25265-.453727.375812-.686918.162-.311027.324-.622055.492486-.933082.959027-1.872809,1.840298-3.803836,2.630839-5.773781.012973-.025945.019459-.051891.032432-.077836,1.172918-2.890055,3.421459-7.393623,5.047945-10.024383.116596-.194432.233271-.382377.349945-.576809.926596-1.529191,1.80138-3.090973,2.617866-4.665568.252729-.479514.498973-.965514.738729-1.451514.505459-1.017404.984973-2.034809,1.445027-3.071514.168486-.388863.336973-.77124.505459-1.159945.259137-.596268.505459-1.198863.745137-1.807945.181459-.453568.362918-.907137.531404-1.36735.162-.427623.324-.861732.479514-1.296.414729-1.134.797027-2.280973,1.153459-3.427787.142541-.453568.278596-.907295.408243-1.360863.116675-.369404.220298-.73865.317514-1.114541.090729-.298055.168486-.596109.246243-.894164.097137-.356432.187945-.71935.278596-1.075781.116675-.453568.226863-.90065.330486-1.354219.084322-.336973.162-.680432.23335-1.017404.077678-.343459.149027-.680432.220298-1.023891.090729-.421137.174894-.842432.252729-1.270055.103623-.524918.194432-1.04335.285082-1.568268.064863-.382219.129568-.764596.187945-1.146814.09065-.524918.168486-1.04335.233271-1.568268.006486-.025945.012973-.058219.012973-.084164.006407-.025945.012894-.045404.012894-.07135.012973-.09065.025945-.181459.032432-.272109.064863-.447082.123082-.894322.168486-1.341404.032432-.25265.064863-.511945.084243-.764596.077757-.660973.14262-1.321945.194353-1.989404.032432-.349945.058377-.706219.077836-1.056164.071271-.952541.123082-1.905082.155514-2.857781.012973.265781.019459.524918.025945.790699.012973.213732.019459.427623.019459.641355.01938,1.036863.01938,2.073727.006407,3.103945Z" fill="#865924"/><path d="M148.476957,145.17546c-.375812-3.356596-1.62-6.305027-4.944243-6.953027-.233271-.045404-.479514-.038918-.706298.006486-3.330729.699891-4.574839,3.635191-4.950729,6.953027-.220377-3.058541-.343459-6.894809.855404-9.655137.751623-1.730268,2.015191-3.045727,4.088839-3.479836.233271-.045404.479514-.045404.712784,0,5.346,1.036863,5.313568,8.041623,4.944243,13.128486Z" fill="#865924"/><path d="M286.967577,96.964166c-.006486.259295-.006486.511945-.019459.77124-.006486.272109-.012973.557191-.025945.829459v.032273c-.032432.952699-.084243,1.90524-.155514,2.857781-.019459.349945-.045404.706219-.077836,1.056164-.051732.667459-.116596,1.328432-.194353,1.989404-.01938.25265-.051812.511945-.084243.764596-.045404.447082-.103623.894322-.168486,1.341404-.006486.09065-.019459.181459-.032432.272109,0,.025945-.006486.045404-.012894.07135,0,.025945-.006486.058219-.012973.084164-.064784.524918-.14262,1.04335-.233271,1.568268-.058377.382219-.123082.764596-.187945,1.146814-.09065.524918-.181459,1.04335-.285082,1.568268-.077836.427623-.162.848918-.252729,1.270055-.071271.343459-.14262.680432-.220298,1.023891-.07135.336973-.149027.680432-.23335,1.017404-.103623.453568-.213812.90065-.330486,1.354219-.09065.356432-.181459.71935-.278596,1.075781-.077757.298055-.155514.596109-.246243.894164-.097216.375891-.200839.745137-.317514,1.114541-.129647.453568-.265702.907295-.408243,1.360863-.356432,1.146814-.738729,2.293787-1.153459,3.427787-.155514.434268-.317514.868377-.479514,1.296-.168486.460213-.349945.913781-.531404,1.36735-.239678.609082-.486,1.211678-.745137,1.807945-.168486.388705-.336973.771082-.505459,1.159945-.460055,1.036705-.939568,2.054109-1.445027,3.071514-.239757.486-.486.972-.738729,1.451514-.816486,1.574596-1.691271,3.136377-2.617866,4.665568-.116675.194432-.23335.382377-.349945.576809-.952546,1.548659-1.96347,3.078017-3.026207,4.568298-.110582.15507-.196008.326368-.253505.507942-.531198,1.677515-1.120557,3.32895-1.768234,4.948143-.012973.025945-.019459.051891-.032432.077836-.790541,1.969945-1.671812,3.900973-2.630839,5.773781-.168486.311027-.330486.622055-.492486.933082-.123161.233191-.246243.460055-.375812.686918-.200918.369246-.408322.73865-.622055,1.101568q0,.006486-.006486.012814c-.162.28524-.330486.576809-.505459.861891-.855404,1.438699-1.762541,2.838322-2.728055,4.205514-.155593.226863-.317593.44724-.479593.673945-.239757.336973-.492407.667459-.738729,1.004432-.427623.557191-.855325,1.108055-1.296,1.645945-.939568,1.172918-1.931027,2.313246-2.967812,3.421459-.285161.304541-.570243.609082-.861812.907137-.628541.654486-1.283027,1.296-1.950486,1.931027-.311027.291568-.635027.589623-.952541.88135-.39535.362918-.797027.719191-1.20535,1.069137-.285082.239836-.570164.479514-.855325.71935-.349945.291568-.699812.57665-1.056243.861732-.349945.285082-.712863.563836-1.075702.842432-.336894.259295-.680353.511945-1.023812.77124-.39535.29141-.790541.57665-1.192377.84876-.349866.246322-.706219.492486-1.06265.725836-.038918.032432-.077836.058219-.116675.084164-.369325.246322-.745216.492486-1.127514.732322-.777647.498973-1.574675.984973-2.384675,1.458-.408164.233191-.816486.466541-1.231137.699732-.421216.23335-.842432.466541-1.270055.686918-.414809.213891-.829459.427623-1.244268.641514-.427623.213891-.855246.421137-1.289514.628541-.434109.207404-.874705.408322-1.31538.60924-.881271.395191-1.775514.777568-2.682729,1.146973-.680432.278596-1.373757.550705-2.073568.803355-.693404.252809-1.399702.505459-2.112486.745295-.479514.155514-.952541.317514-1.438541.466541-.362918.116596-.725836.226863-1.088675.336973-.732243.213891-1.470973.427623-2.216188.628541-.375812.103623-.751623.200918-1.127514.291568-.375812.097137-.758109.187945-1.140486.278754-1.283027.304383-2.592.583137-3.920432.835787-.440596.084322-.887678.162-1.334839.239836-.602675.103623-1.198784.20076-1.807866.291568-.401836.064863-.81.116596-1.218322.174973-1.082109.149027-2.183678.278596-3.298298.395191-.557271.051891-1.114541.103781-1.678298.155672-1.127514.09065-2.268.168328-3.421459.226705-2.125459.110268-4.30265.149027-6.525404.12324-.41465-.006645-.835866-.012973-1.250596-.019617-.421137-.012973-.842432-.025787-1.263568-.03876-.848918-.025945-1.710729-.064863-2.579027-.110268-1.27602-.071162-2.565002-.161926-3.873426-.278454-.143318-.012764-.289786-.006866-.431758.016521-.87405.143983-1.74161.248494-2.602518.320309-9.745945.797027-18.798486-2.980705-25.634839-9.823623-.220377-.213891-.427781-.434109-.641514-.654486-.635106-.660973-1.244268-1.347891-1.833891-2.060596-.194432-.239836-.388863-.479672-.583216-.725836-.382298-.486-.751702-.984973-1.121027-1.496918-.181459-.25265-.362839-.511945-.537812-.771082-.349945-.518432-.693404-1.049836-1.030377-1.594055-.330486-.537891-.654486-1.088754-.965514-1.652432-1.399623-2.52065-2.579027-5.242377-3.499137-8.125945-.200918-.641514-.39535-1.289514-.570322-1.950486-.861812-3.149191-1.419082-6.48-1.626486-9.946863-.058219-.868219-.09065-1.743082-.097137-2.624273,0-.103781-.012973-.207404-.032432-.311027-.129568-.835945.090729-2.682809.252729-4.892432.369325-5.086863.401757-12.091623-4.944243-13.128486-.233271-.045404-.479514-.045404-.712784,0-2.073647.434109-3.337216,1.749568-4.088839,3.479836-1.198863,2.760328-1.075781,6.596596-.855404,9.655137.155514,2.125459.369404,3.875027.220298,4.620164-.006407.984973-.045325,1.956973-.110188,2.922486-.045325.81-.116596,1.613514-.207325,2.404213-.239757,2.157732-.622055,4.263732-1.121027,6.292055-.162.667301-.343459,1.328273-.531325,1.976273-.382377,1.302645-.816486,2.572699-1.296,3.810322-.362918.926596-.751702,1.833732-1.166432,2.721568-.278596.596109-.570243,1.172918-.868377,1.749568-.298055.570322-.609082,1.134-.933082,1.684863-1.289514,2.216109-2.747514,4.263732-4.361027,6.136541-.401757.466541-.816486.920109-1.237623,1.360863-6.765161,7.128-15.85662,11.178-25.686809,10.568918-.213812-.012973-.434109-.025945-.648-.045404-.045325-.006486-.097137-.006486-.142541-.012973-.793407-.071608-1.586814-.169191-2.386781-.299637-.166117-.027088-.3376-.031408-.504694-.011204-1.392736.168397-2.772502.310879-4.132823.420951-.401757.038918-.797106.064863-1.192298.09065-.298055.025945-.589702.045404-.88135.064863-.693325.045404-1.38665.084164-2.067082.110109-.544377.025945-1.082109.045404-1.62.051891-.272109.012973-.537891.019459-.803514.025945-.622055.012973-1.237702.019459-1.846863.019459h-.025866c-.583216,0-1.159866-.006486-1.736675-.019459-.15088,0-.301701-.004823-.448405-.006152-.501657-.004544-1.00223-.007351-1.502607-.04345-.265165-.01913-.532243-.025573-.790016-.041207-.479514-.025787-.965514-.051732-1.438541-.084164-.641514-.038918-1.283027-.090809-1.918055-.149027-.628541-.051891-1.257082-.116596-1.879216-.187945-.401757-.045246-.803514-.09065-1.198784-.142541-.265702-.032432-.531404-.07135-.797027-.103623-.421216-.058377-.842432-.123082-1.263647-.187945-.18138-.025945-.362839-.058377-.537812-.084322-.498973-.084164-.997945-.168486-1.490432-.259137-.116596-.019459-.239757-.045404-.356432-.064863-.421137-.084164-.842353-.162-1.263568-.25265-.207325-.045404-.421137-.090809-.628541-.136055-.479514-.097295-.952541-.207404-1.425568-.324-.570322-.136055-1.140486-.278754-1.697836-.427781-.563678-.149027-1.114541-.304541-1.665325-.466541-.498894-.149027-.99138-.298055-1.47738-.453568-.103781-.032432-.200918-.064863-.30462-.103623-.492486-.155514-.972-.317514-1.458-.492486-.50538-.174973-1.004353-.362918-1.496839-.550863-.045404-.019459-.090809-.038918-.136055-.051891-.492486-.194273-.984973-.388705-1.470973-.596109-.46662-.194432-.933161-.395191-1.386809-.596109-.077678-.038918-.155514-.07135-.226705-.103781-.460134-.207246-.913781-.421137-1.360863-.641355-.025945-.006645-.051812-.019617-.071271-.03259-.460134-.226705-.920188-.45341-1.367271-.68676-.473027-.25265-.946055-.505459-1.406109-.764596-.460134-.259295-.920268-.518432-1.373836-.790699-.447082-.272109-.887757-.544219-1.328432-.822973,0-.006328-.006486-.006328-.006486-.006328-.440596-.28524-.874705-.570322-1.302407-.861891-.408243-.278754-.81-.563836-1.205271-.848918-.038918-.025945-.077836-.051891-.110188-.077836-.324-.239678-.641514-.479355-.959027-.719191-.103702-.077836-.200839-.155514-.30462-.239836-.356353-.272109-.706219-.557191-1.056164-.842273-.045404-.038918-.090729-.07135-.136055-.110109-.369404-.311186-.738809-.622213-1.101647-.939727-.382298-.336973-.758188-.680273-1.127514-1.023891-.349945-.330328-.699812-.660973-1.036784-.997787-.136055-.136213-.272188-.272268-.401836-.408322-.246164-.246164-.479514-.486-.712705-.73865-.699891-.732322-1.36735-1.490432-2.01535-2.261514-.045325-.051891-.09065-.110109-.136055-.162-1.270055-1.535836-2.442973-3.142863-3.525082-4.827727-.129647-.194273-.291647-.369246-.486-.505301-1.931027-1.380322-3.771404-2.82535-5.527459-4.335082-.025945-.025945-.045404-.045404-.07135-.064863-1.056164-.913781-2.086541-1.85335-3.078-2.812377-.466541-.453568-.926596-.907137-1.373678-1.360705-.077836-.077836-.149027-.155672-.226863-.23335-.41465-.427623-.816486-.855404-1.22465-1.283027-.064863-.077678-.136134-.149027-.207404-.226863-.382298-.41465-.758109-.835787-1.134-1.263568-.032432-.038918-.071271-.084164-.110109-.129568-.440675-.505459-.874863-1.010918-1.296-1.522863-.019459-.019459-.032432-.03876-.051891-.058219-.842432-1.017404-1.645945-2.047781-2.423514-3.103945-.012973-.012973-.025945-.032432-.038918-.051891-.311027-.421137-.615568-.84876-.920109-1.276541-.136055-.194432-.272188-.388863-.401757-.583137-.324-.466699-.641593-.933082-.95262-1.406268-.362839-.557191-.725678-1.121027-1.075623-1.691191l-.006486-.006486c-.298055-.486-.589702-.978486-.881271-1.470973-.077757-.142541-.162-.278754-.246243-.421137-.252729-.440754-.498973-.88135-.745216-1.328432-.388784-.71935-.771161-1.445186-1.146973-2.17735-.220298-.440596-.440675-.887836-.660894-1.341246-.064863-.136213-.129647-.272268-.194432-.408322-.220377-.473027-.440675-.946055-.648-1.419082-.589702-1.321945-1.140486-2.656863-1.652432-4.004596-.149027-.401836-.298055-.803672-.440596-1.211836-.204198-.539311-.374799-1.110621-.588224-1.641974-.083919-.346449-.210544-.693642-.318992-1.040835-.116675-.369246-.226784-.73865-.336973-1.108055-.038839-.116596-.071271-.233191-.103702-.349945-.071271-.246164-.142541-.492328-.207325-.73865-.246243-.848918-.46662-1.704322-.680432-2.566055-.071271-.304541-.142541-.60924-.213812-.907295-.084243-.369246-.168486-.745137-.252729-1.114541-.071271-.336814-.136134-.680432-.207325-1.017404-.077836-.349787-.142541-.706219-.207404-1.069137-.064784-.362918-.129568-.719191-.187945-1.075623-.097137-.518432-.181459-1.04335-.25265-1.568268-.058377-.343301-.110188-.68676-.149027-1.036705-.077836-.570322-.149106-1.146973-.213891-1.723623l-.116596-1.088754c-.038918-.362918-.07135-.725678-.097295-1.088596-.032353-.362918-.058219-.725678-.084164-1.095082-.032432-.369404-.051891-.738809-.07135-1.108213-.01938-.356273-.038839-.719191-.051812-1.082109-.006407-.077678-.006407-.149027-.006407-.226705-.032432-.60924-.045404-1.224809-.058377-1.833891,0-.116596-.006486-.226705,0-.336973-.019459-1.432055,0-2.870596.064784-4.30265.025945-.563836.058298-1.127672.090729-1.684863v-.045404c.038918-.563678.084243-1.121027.129568-1.684705.045404-.505459.090809-1.010918.142541-1.516377.006486-.09065.019459-.181459.032432-.272109.07135-.660973.149027-1.321945.239836-1.982918.064705-.492486.136055-.991459.213732-1.483945.07135-.498973.155593-.991459.239836-1.490432.084164-.518273.174973-1.036705.278596-1.54865.090729-.486.187945-.972.291568-1.458.025945-.116596.051891-.239678.077836-.362918.019459-.116596.045325-.226705.071271-.343459.110188-.479514.220298-.965514.330486-1.445027,0-.006486.006407-.019459.012894-.025945.116675-.511945.246322-1.023732.375891-1.535678.019459-.077836.038918-.155514.058377-.23335.129568-.479514.259137-.959027.395191-1.445027.019459-.077678.038918-.155514.064863-.233191.155514-.537891.311027-1.075781.479514-1.613672.344375-1.124017.708233-2.241354,1.10473-3.359027.05811-.163805.09223-.335735.100541-.509343.05181-1.082272.12316-2.164385.213811-3.240012,0-.064863.006486-.136213.019459-.200918.006486-.123082.012973-.239836.025945-.362918.051812-.615568.116596-1.231137.181459-1.846863,0-.038918.006486-.071191.012894-.110109.064784-.583137.136134-1.159945.213812-1.730109.006486-.097295.019459-.194432.038918-.291727.071271-.537732.149027-1.075623.233271-1.613355,0-.038918.006486-.084322.019459-.12324.077757-.537732.168486-1.075623.265702-1.613514.019459-.155514.045325-.304541.084164-.460055.090809-.518432.187945-1.036863.291647-1.548809.038839-.20076.077757-.401678.123161-.596109,0-.032273.006486-.058219.019459-.084164.064705-.330486.129568-.654486.200839-.978486.038839-.181459.077757-.356432.123161-.531404.084164-.388863.174894-.771082.272109-1.153459.038918-.20076.090729-.408164.149027-.609082.110109-.453568.226863-.90065.343459-1.347891.025945-.123082.058298-.239678.097137-.356432.110268-.41465.226863-.822973.349945-1.231137.058377-.239836.129568-.479514.207404-.719191.110109-.375891.226784-.751781.343459-1.127672.045325-.168328.097137-.336973.155514-.498973.149027-.460055.298055-.913623.453568-1.373678.038918-.116596.077757-.226705.116596-.336973.155514-.453568.317514-.913623.492486-1.36735.038918-.12941.084322-.259137.136134-.382219.194353-.518432.388784-1.036863.596188-1.548809-.006486-.012973,0-.019301.012973-.032273.168407-.434109.34338-.861891.518353-1.289514.090729-.23335.187866-.460213.291647-.686918.174894-.421295.362839-.842432.544219-1.257082.025945-.064863.058377-.129568.090809-.194432.246164-.550863.498973-1.095082.758109-1.632973.233271-.486.466541-.972.712863-1.451514.045246-.103623.097137-.200918.149027-.298055.246164-.479514.498973-.959027.751623-1.438541.019459-.045404.045404-.090809.07135-.129727.168407-.311027.336894-.622055.511866-.926596.155514-.298055.324-.589623.492486-.88135.265702-.473027.544298-.93941.822894-1.399623.30462-.505459.622134-1.017404.939647-1.516377.259216-.401678.518353-.81.784134-1.205191.408164-.628541.82938-1.244109,1.263568-1.853191.343459-.486.693404-.965672,1.049757-1.445027.375812-.511945.758188-1.010918,1.15338-1.509891.375891-.486.764675-.965514,1.153459-1.438699,1.561702-1.905082,3.233514-3.732328,5.002541-5.482055.317514-.317355.641514-.628541.965514-.933082.123161-.123082.246322-.246164.375891-.362918.388863-.36276.777568-.719191,1.172918-1.075623.071191-.064705.142541-.129568.213812-.194432.324-.291568.660973-.583137.997866-.874705.168486-.142541.336973-.291568.505459-.427781.349945-.304541.706377-.596109,1.069216-.887678.343459-.278754.686839-.55735,1.043271-.835945,1.140486-.900809,2.319891-1.769027,3.531568-2.604973.46662-.324.933161-.641514,1.412754-.952541.434109-.291568.874705-.570322,1.321866-.855404.103702-.064863.207325-.129568.311027-.194273.447161-.278754.894243-.550863,1.347812-.822973.090809-.051891.187945-.110268.285161-.168645.466541-.272109.933161-.544219,1.412675-.81.622055-.349787,1.244109-.68676,1.885623-1.017246.531404-.285082,1.069216-.55735,1.613514-.829459.032432-.012973.058377-.025945.084322-.038918.570164-.278596,1.140407-.55735,1.717137-.822973.012973-.006486.025945-.012973.045404-.019459.589623-.272109,1.185812-.544219,1.788486-.803514.006486,0,.006486-.006486.012973-.006486.596109-.259137,1.205191-.511945,1.814353-.758109.01938-.006486.038839-.019459.058298-.025945.596188-.239678,1.192377-.473027,1.801459-.699891.038918-.019301.077757-.032273.116596-.045246.473027-.181459.946134-.349945,1.432134-.524918.187866-.071191.382298-.136055.576729-.200918.492486-.168486.984973-.336973,1.483945-.498973.149027-.051732.291568-.097137.440596-.142541.570243-.181459,1.153459-.36276,1.730109-.531404.635027-.187787,1.27662-.375732,1.918134-.550705.045325-.012973.084243-.019459.123161-.032432.660894-.174973,1.321866-.349945,1.989325-.511945.486-.123082.978407-.239678,1.470894-.349945.272268-.064705.537891-.123082.81-.181301.622134-.136055,1.244268-.265781,1.879295-.388863.544219-.110109,1.088596-.213891,1.63938-.311027.051812-.012973.110188-.019459.162-.025945.213812-.045404.427702-.077836.641593-.116596.615568-.103623,1.231137-.200918,1.853191-.298213.725836-.110109,1.458-.213732,2.196809-.304383.732164-.097295,1.470894-.181617,2.216109-.265781.019459,0,.038918-.006486.058298-.006486.738729-.077678,1.477459-.142541,2.222675-.207404.693325-.058219,1.393137-.110109,2.093027-.155355.116596-.012973.226784-.019617.336973-.019617.686918-.045246,1.367271-.077678,2.060596-.110109.110188-.006486.213891-.012973.324-.012973.699891-.025945,1.399702-.051891,2.106-.064705h.07135c.790541-.019459,1.587568-.025945,2.391082-.025945h.006486c.719271,0,1.445027.006486,2.170784.019459.531325.006486,1.062729.019301,1.60062.038918.311027.006328.628541.019301.946055.032273,1.362119.05816,2.737272.135479,4.131553.232267l.435485-.018169c1.166851-.181533,2.35311-.35658,3.539449-.512152.110109-.012973.213812-.025945.324-.038918.447082-.058219.894164-.110109,1.347812-.162.693325-.084164,1.393216-.155514,2.086541-.226705.615647-.058377,1.224729-.110268,1.840298-.155514.226863-.019459.447161-.032432.667459-.045404.265702-.019459.537891-.038918.803514-.051891.324-.019459.648-.03876.965514-.051732.110188-.006486.213891-.012973.317514-.012973.246322-.012973.492486-.019459.738809-.025945,4.801623-.142541,9.473678.207246,13.653246,1.406109.278754.077836.550863.155514.816486.246322.900809.285082,1.769106.609082,2.611459.984814.311027.129727.622055.272268.920188.421295.291647.142541.583216.291568.868298.453568,1.101568.596109,2.144918,1.289514,3.123404,2.080055.304541.246322.602596.505459.894164.771082,0,0,.006486,0,.006486.006645.14262.129568.291647.265623.434268.408164,3.849082,3.745459,6.395678,9.344109,6.901137,17.502486-.058298,0-.058298,58.073678-.006486,65.435027.006486.336973.278596.589623.615568.589623h.051891c.330486.006645.609082-.25265.615568-.583137v-5.261836c-.012973-12.441568-.012973-40.882219,0-53.537678-.006486-3.440918,0-5.708918,0-6.181945.187945-2.540109.55735-4.827568,1.088675-6.89465q0-.006486.006486-.012973c.596188-2.319891,1.406188-4.354541,2.397568-6.136541.181459-.324.362839-.635186.550784-.93324.343459-.550705.706377-1.075623,1.088675-1.581082.194353-.259137.395271-.511945.602675-.751623.194353-.23335.395191-.460055.596109-.680432.136055-.149027.278596-.298055.421216-.440596,2.883647-2.941945,6.525325-4.788809,10.620729-5.864432.304541-.084164.609082-.162.920109-.233191.291647-.07135.589702-.136213.894322-.19459.336973-.071191.680353-.136055,1.023812-.194273.077757-.019459.155514-.032432.239757-.038918.343459-.064863.693404-.116596,1.049757-.168486.064784-.012973.136055-.019459.207325-.025945.349945-.051732.699891-.097137,1.056322-.129568,2.021678-.233191,4.114705-.330486,6.24665-.330486.511945,0,1.023891.006486,1.535757.019459.518432.006486,1.043271.025945,1.561702.045404.440596.019459.874784.03876,1.315459.064705.181459.006486.362839.019459.544298.032432.434188.025945.861812.051891,1.296.084322.50538.03876,1.010839.077678,1.516298.123082.025945,0,.045404.006486.07135.006486.531325.045404,1.06265.097137,1.587568.149027.194432.019459.388784.03876.583137.058377.868377.09065,1.736675.187787,2.598486.291568.103702.012814.200918.025787.304541.032432,1.646306.200804,3.286123.421233,4.90647.648149.149667.02096.30101.024224.451519.010562,1.63089-.148038,3.242563-.257427,4.828631-.334711.038839,0,.084243-.006645.123161-.006645,3.473191-.168328,6.836353-.168328,10.095812-.012973.414729.012973.82938.038918,1.244188.064863.460055.025945.920109.058377,1.373678.090809,2.494863.187945,4.918377.466541,7.270541.829301.414809.064863.829459.129727,1.237781.200918.563678.097295,1.127514.200918,1.678219.304699.427781.084164.848918.162,1.263647.25265.544298.116596,1.088675.23335,1.626486.356432.699812.155514,1.393216.324,2.073647.505301.239678.058377.473027.12324.712705.187945,1.036863.278754,2.054268.576809,3.05862.887836.324.103623.641514.207246.959027.311027.388784.123082.771161.252809,1.146973.388863.362839.123082.719271.25265,1.069216.382219.460055.168486.913623.336973,1.367271.511945.311027.123082.615568.246164.920188.369404.369325.149027.732164.298055,1.095082.453568.356432.155514.712784.311027,1.075623.466541.356432.162.706377.317514,1.056322.486.349945.162.699812.330486,1.049678.498973.654486.317514,1.296.641514,1.931106.984973.842353.447082,1.665325.907137,2.475325,1.380322.304541.181301.602675.36276.900729.544219.246243.149027.492486.304541.732243.453568.298055.187945.583216.369404.874863.563836.311027.20076.615568.401678.920109.609082.006486.006486.006486.012973.012973.012973.304541.207404.609082.41465.907137.628541.324.226863.641514.460055.959027.693404.410286.295489.806177.605373,1.208869.908466.483714.364075.956878.745989,1.42123,1.134457.256388.21449.507186.424411.752521.639727.563757.479514,1.114541.965514,1.658839,1.458.524918.486,1.036863.978486,1.542322,1.477459.213812.207404.421137.421295.628541.635027,1.334839,1.360863,2.604973,2.779945,3.797271,4.257404l.583216.73865c.291568.369404.57665.745295.855325,1.127514.149027.194432.291647.388863.434188.589781.622055.855246,1.22465,1.730109,1.794973,2.624273.207325.311027.401678.622213.596109.939727.012973.019301.025945.045246.038918.064705.317514.505459.622055,1.017404.920109,1.535836.408322.706377.797027,1.419082,1.179404,2.138432.76942,1.467803,1.487331,2.96774,2.140685,4.506571.080176.188836.191431.363716.328815.516073,1.30868,1.451309,2.552675,2.934882,3.731825,4.45752.369325.466541.732243.939568,1.082188,1.419082.123082.162.239757.317672.349945.479672.239678.317355.473027.641355.699812.965355.110188.149027.220298.298055.317514.453727.304541.421137.596188.848918.881271,1.276541.032432.045404.064863.09065.097216.142541.265702.395191.524839.790541.777647,1.192219.162.239836.311027.479672.460055.725836.298055.460055.583137.926596.861812,1.393137.233271.388863.460134.777727.680353,1.166432,1.283027,2.203295,2.442973,4.451836,3.492809,6.745623.162.349945.324.706377.473027,1.062809.336973.738809.654486,1.483945.952541,2.235568.142541.343459.285082.693404.41465,1.04335.084322.207246.168486.41465.246322.628541.097137.246322.187945.492486.278596.745137.174973.466541.343459.93324.505459,1.399781.006486.012814.012973.032432.012973.051732.155514.421295.298055.848918.434109,1.270055.097295.28524.187945.576809.278675.868377.077757.220377.14262.44724.207325.673945.091283.279488.177539.558975.263194.842887.504104,1.670902.946559,3.361025,1.327241,5.064291.132928.594752.267074,1.189718.385997,1.7845.077757.388863.155514.777727.226863,1.166432.194353.965514.356353,1.937514.50538,2.916.084243.524918.155514,1.04335.226784,1.568268,0,.012973.006486.025945,0,.038918.077836.550705.149027,1.10141.207404,1.652273.012973.110109.025945.220377.038839.330486.045325.388863.084243.77124.116675,1.153459.038918.369404.071271.745137.097137,1.114541.006486.045404.012973.09065.012973.136055.045404.531404.077836,1.069295.110188,1.600541.032353.44724.051812.900809.071271,1.347891.019459.427781.038918.861891.045404,1.289514.012973.246322.019459.486.019459.725836.025866,1.030219.025866,2.067082.006486,3.103787Z" fill="#e5c8a7"/><path d="M286.967577,96.964166c-.006486.259295-.006486.511945-.019459.77124-.006486.272109-.012973.557191-.025945.829459v.032273c-.032432.952699-.084243,1.90524-.155514,2.857781-.019459.349945-.045404.706219-.077836,1.056164-.051732.667459-.116596,1.328432-.194353,1.989404-.01938.25265-.051812.511945-.084243.764596-.045404.447082-.103623.894322-.168486,1.341404-.006486.09065-.019459.181459-.032432.272109,0,.025945-.006486.045404-.012894.07135,0,.025945-.006486.058219-.012973.084164-.064784.524918-.14262,1.04335-.233271,1.568268-.058377.382219-.123082.764596-.187945,1.146814-.09065.524918-.181459,1.04335-.285082,1.568268-.077836.427623-.162.848918-.252729,1.270055-.071271.343459-.14262.680432-.220298,1.023891-.07135.336973-.149027.680432-.23335,1.017404-.103623.453568-.213812.90065-.330486,1.354219-.09065.356432-.181459.71935-.278596,1.075781-.077757.298055-.155514.596109-.246243.894164-.097216.375891-.200839.745137-.317514,1.114541-.129647.453568-.265702.907295-.408243,1.360863-.356432,1.146814-.738729,2.293787-1.153459,3.427787-.155514.434268-.317514.868377-.479514,1.296-.168486.460213-.349945.913781-.531404,1.36735-.239678.609082-.486,1.211678-.745137,1.807945-.168486.388705-.336973.771082-.505459,1.159945-.460055,1.036705-.939568,2.054109-1.445027,3.071514-.239757.486-.486.972-.738729,1.451514-.816486,1.574596-1.691271,3.136377-2.617866,4.665568-.116675.194432-.23335.382377-.349945.576809-1.626486,2.63076-3.875027,7.134328-5.047945,10.024383-.012973.025945-.019459.051891-.032432.077836-.790541,1.969945-1.671812,3.900973-2.630839,5.773781-.168486.311027-.330486.622055-.492486.933082-.123161.233191-.246243.460055-.375812.686918-.200918.369246-.408322.73865-.622055,1.101568q0,.006486-.006486.012814c-.162.28524-.330486.576809-.505459.861891-.855404,1.438699-1.762541,2.838322-2.728055,4.205514-.155593.226863-.317593.44724-.479593.673945-.239757.336973-.492407.667459-.738729,1.004432-.427623.557191-.855325,1.108055-1.296,1.645945-.939568,1.172918-1.931027,2.313246-2.967812,3.421459-.285161.304541-.570243.609082-.861812.907137-.628541.654486-1.283027,1.296-1.950486,1.931027-.311027.291568-.635027.589623-.952541.88135-.39535.362918-.797027.719191-1.20535,1.069137-.285082.239836-.570164.479514-.855325.71935-.349945.291568-.699812.57665-1.056243.861732-.349945.285082-.712863.563836-1.075702.842432-.336894.259295-.680353.511945-1.023812.77124-.39535.29141-.790541.57665-1.192377.84876-.349866.246322-.706219.492486-1.06265.725836-.038918.032432-.077836.058219-.116675.084164-.369325.246322-.745216.492486-1.127514.732322-.777647.498973-1.574675.984973-2.384675,1.458-.408164.233191-.816486.466541-1.231137.699732-.421216.23335-.842432.466541-1.270055.686918-.414809.213891-.829459.427623-1.244268.641514-.427623.213891-.855246.421137-1.289514.628541-.434109.207404-.874705.408322-1.31538.60924-.881271.395191-1.775514.777568-2.682729,1.146973-.680432.278596-1.373757.550705-2.073568.803355-.693404.252809-1.399702.505459-2.112486.745295-.479514.155514-.952541.317514-1.438541.466541-.362918.116596-.725836.226863-1.088675.336973-.732243.213891-1.470973.427623-2.216188.628541-.375812.103623-.751623.200918-1.127514.291568-.375812.097137-.758109.187945-1.140486.278754-1.283027.304383-2.592.589623-3.920432.835787-.440596.084322-.887678.162-1.334839.239836-.602675.103623-1.198784.20076-1.807866.291568-.401836.064863-.81.116596-1.218322.174973-1.082109.155514-2.183678.285082-3.298298.395191-.557271.051891-1.114541.103781-1.678298.155672-1.127514.097137-2.268.174973-3.421459.226705-2.125459.110268-4.30265.149027-6.525404.12324-.41465-.006645-.835866-.012973-1.250596-.019617-.421137-.012973-.842432-.025787-1.263568-.03876-.848918-.025945-1.710729-.064863-2.579027-.110268-2.300432-.129568-4.613836-.129568-6.907702.058377-9.745945.797027-18.798486-2.980705-25.634839-9.823623-.220377-.213891-.427781-.434109-.641514-.654486-.635106-.660973-1.244268-1.347891-1.833891-2.060596-.194432-.239836-.388863-.479672-.583216-.725836-.382298-.486-.751702-.984973-1.121027-1.496918-.181459-.25265-.362839-.511945-.537812-.771082-.349945-.518432-.693404-1.049836-1.030377-1.594055-.330486-.537891-.654486-1.088754-.965514-1.652432-1.399623-2.52065-2.579027-5.242377-3.499137-8.125945-.200918-.641514-.39535-1.289514-.570322-1.950486-.861812-3.149191-1.419082-6.48-1.626486-9.946863-.058219-.868219-.09065-1.743082-.097137-2.624273,0-.103781-.012973-.207404-.032432-.311027-.129568-.835945.090729-2.682809.252729-4.892432.369325-5.086863.401757-12.091623-4.944243-13.128486-.233271-.045404-.479514-.045404-.712784,0-2.073647.434109-3.337216,1.749568-4.088839,3.479836-1.198863,2.760328-1.075781,6.596596-.855404,9.655137.155514,2.125459.369404,3.875027.220298,4.620164-.006407.984973-.045325,1.956973-.110188,2.922486-.045325.81-.116596,1.613514-.207325,2.404213-.239757,2.157732-.622055,4.263732-1.121027,6.292055-.162.667301-.343459,1.328273-.531325,1.976273-.382377,1.302645-.816486,2.572699-1.296,3.810322-.362918.926596-.751702,1.833732-1.166432,2.721568-.278596.596109-.570243,1.172918-.868377,1.749568-.298055.570322-.609082,1.134-.933082,1.684863-1.289514,2.216109-2.747514,4.263732-4.361027,6.136541-.401757.466541-.816486.920109-1.237623,1.360863-6.765161,7.128-15.85662,11.178-25.686809,10.568918-.213812-.012973-.434109-.025945-.648-.045404-.045325-.006486-.097137-.006486-.142541-.012973-2.157812-.168486-4.315623-.12324-6.467027.064705-.187945.019459-.375891.032432-.557271.045404-.401757.038918-.797106.064863-1.192298.09065-.298055.025945-.589702.045404-.88135.064863-.693325.045404-1.38665.084164-2.067082.110109-.544377.025945-1.082109.045404-1.62.051891-.272109.012973-.537891.019459-.803514.025945-.622055.012973-1.237702.019459-1.846863.019459h-.025866c-.583216,0-1.159866-.006486-1.736675-.019459-.174973,0-.349866-.006486-.518353-.006486-.524839-.012973-1.049757-.032432-1.568188-.051891-.220298-.012814-.440596-.019459-.654486-.032432-.479514-.025787-.965514-.051732-1.438541-.084164-.641514-.038918-1.283027-.090809-1.918055-.149027-.628541-.051891-1.257082-.116596-1.879216-.187945-.401757-.045246-.803514-.09065-1.198784-.142541-.265702-.032432-.531404-.07135-.797027-.103623-.421216-.058377-.842432-.123082-1.263647-.187945-.18138-.025945-.362839-.058377-.537812-.084322-.498973-.084164-.997945-.168486-1.490432-.259137-.116596-.019459-.239757-.045404-.356432-.064863-.421137-.084164-.842353-.162-1.263568-.25265-.207325-.045404-.421137-.090809-.628541-.136055-.479514-.097295-.952541-.207404-1.425568-.324-.570322-.136055-1.140486-.278754-1.697836-.427781-.563678-.149027-1.114541-.304541-1.665325-.466541-.498894-.149027-.99138-.298055-1.47738-.453568-.103781-.032432-.200918-.064863-.30462-.103623-.492486-.155514-.972-.317514-1.458-.492486-.50538-.174973-1.004353-.362918-1.496839-.550863-.045404-.019459-.090809-.038918-.136055-.051891-.492486-.194273-.984973-.388705-1.470973-.596109-.46662-.194432-.933161-.395191-1.386809-.596109-.077678-.038918-.155514-.07135-.226705-.103781-.460134-.207246-.913781-.421137-1.360863-.641355-.025945-.006645-.051812-.019617-.071271-.03259-.460134-.226705-.920188-.45341-1.367271-.68676-.473027-.25265-.946055-.505459-1.406109-.764596-.460134-.259295-.920268-.518432-1.373836-.790699-.447082-.272109-.887757-.544219-1.328432-.822973,0-.006328-.006486-.006328-.006486-.006328-.440596-.28524-.874705-.570322-1.302407-.861891-.408243-.278754-.81-.563836-1.205271-.848918-.038918-.025945-.077836-.051891-.110188-.077836-.324-.239678-.641514-.479355-.959027-.719191-.103702-.077836-.200839-.155514-.30462-.239836-.356353-.272109-.706219-.557191-1.056164-.842273-.045404-.038918-.090729-.07135-.136055-.110109-.369404-.311186-.738809-.622213-1.101647-.939727-.382298-.336973-.758188-.680273-1.127514-1.023891-.349945-.330328-.699812-.660973-1.036784-.997787-.136055-.136213-.272188-.272268-.401836-.408322-.246164-.246164-.479514-.486-.712705-.73865-.699891-.732322-1.36735-1.490432-2.01535-2.261514-.045325-.051891-.09065-.110109-.136055-.162-2.916-3.47335-6.104109-6.700377-9.538541-9.668109-.025945-.025945-.045404-.045404-.07135-.064863-1.056164-.913781-2.086541-1.85335-3.078-2.812377-.466541-.453568-.926596-.907137-1.373678-1.360705-.077836-.077836-.149027-.155672-.226863-.23335-.41465-.427623-.816486-.855404-1.22465-1.283027-.064863-.077678-.136134-.149027-.207404-.226863-.382298-.41465-.758109-.835787-1.134-1.263568-.032432-.038918-.071271-.084164-.110109-.129568-.440675-.505459-.874863-1.010918-1.296-1.522863-.019459-.019459-.032432-.03876-.051891-.058219-.835945-1.017404-1.645945-2.054268-2.423514-3.103945-.012973-.012973-.025945-.032432-.038918-.051891-.311027-.421137-.615568-.84876-.920109-1.276541-.136055-.194432-.272188-.388863-.401757-.583137-.324-.466699-.641593-.933082-.95262-1.406268-.362839-.557191-.725678-1.121027-1.075623-1.691191l-.006486-.006486c-.298055-.486-.589702-.978486-.881271-1.470973-.077757-.142541-.162-.278754-.246243-.421137-.252729-.440754-.498973-.88135-.745216-1.328432-.388784-.71935-.771161-1.445186-1.146973-2.17735-.220298-.440596-.440675-.887836-.660894-1.341246-.064863-.136213-.129647-.272268-.194432-.408322-.220377-.473027-.440675-.946055-.648-1.419082-.589702-1.321945-1.140486-2.656863-1.652432-4.004596-.149027-.401836-.298055-.803672-.440596-1.211836-.090809-.239836-.174973-.486-.259216-.732164-.155593-.440754-.30462-.88135-.447161-1.32859-.064784-.207246-.136055-.41465-.200839-.622055-.116675-.369246-.226784-.73865-.336973-1.108055-.038839-.116596-.071271-.233191-.103702-.349945-.071271-.246164-.142541-.492328-.207325-.73865-.246243-.848918-.46662-1.704322-.680432-2.566055-.071271-.304541-.142541-.60924-.213812-.907295-.084243-.369246-.168486-.745137-.252729-1.114541-.071271-.336814-.136134-.680432-.207325-1.017404-.077836-.349787-.142541-.706219-.207404-1.069137-.064784-.362918-.129568-.719191-.187945-1.075623-.097137-.518432-.181459-1.04335-.25265-1.568268-.058377-.343301-.110188-.68676-.149027-1.036705-.077836-.570322-.149106-1.146973-.213891-1.723623l-.116596-1.088754c-.038918-.362918-.07135-.725678-.097295-1.088596-.032353-.362918-.058219-.725678-.084164-1.095082-.032432-.369404-.051891-.738809-.07135-1.108213-.01938-.356273-.038839-.719191-.051812-1.082109-.006407-.077678-.006407-.149027-.006407-.226705-.032432-.60924-.045404-1.224809-.058377-1.833891,0-.116596-.006486-.226705,0-.336973-.019459-1.432055,0-2.870596.064784-4.30265.025945-.563836.058298-1.127672.090729-1.684863v-.045404c.038918-.563678.084243-1.121027.129568-1.684705.045404-.505459.090809-1.010918.142541-1.516377.006486-.09065.019459-.181459.032432-.272109.07135-.660973.149027-1.321945.239836-1.982918.064705-.492486.136055-.991459.213732-1.483945.07135-.498973.155593-.991459.239836-1.490432.084164-.518273.174973-1.036705.278596-1.54865.090729-.486.187945-.972.291568-1.458,0-.019459,0-.032432.006486-.051891.006486-.012973.006486-.025787.006486-.032432.019459-.097137.038918-.187945.064863-.278596.019459-.116596.045325-.226705.071271-.343459.110188-.479514.220298-.965514.330486-1.445027,0-.006486.006407-.019459.012894-.025945.116675-.511945.246322-1.023732.375891-1.535678.019459-.077836.038918-.155514.058377-.23335.129568-.479514.259137-.959027.395191-1.445027.019459-.077678.038918-.155514.064863-.233191.155514-.537891.311027-1.075781.479514-1.613672.012973-.045246.025945-.097137.038839-.142383.699812-2.248699,1.159945-4.568432,1.367271-6.920754.006486-.045246.006486-.09065.012973-.136055,0-.025945.006486-.051891.006486-.077836.012973-.129568.025945-.265623.038918-.395191.051812-.615568.116596-1.231137.181459-1.846863,0-.038918.006486-.071191.012894-.110109.064784-.583137.136134-1.159945.213812-1.730109.006486-.097295.019459-.194432.038918-.291727.071271-.537732.149027-1.075623.233271-1.613355,0-.038918.006486-.084322.019459-.12324.077757-.537732.168486-1.075623.265702-1.613514.019459-.155514.045325-.304541.084164-.460055.090809-.518432.187945-1.036863.291647-1.548809.038839-.239678.090729-.473027.14262-.706219,0-.032432.006407-.058377.012894-.084164.058298-.291727.123161-.583295.187945-.868377.038839-.181459.077757-.356432.123161-.531404.084164-.388863.174894-.771082.272109-1.153459.038918-.20076.090729-.408164.149027-.609082.110109-.453568.226863-.90065.343459-1.347891.025945-.123082.058298-.239678.097137-.356432.110268-.41465.226863-.822973.349945-1.231137.058377-.239836.129568-.479514.207404-.719191.110109-.375891.226784-.751781.343459-1.127672.045325-.168328.097137-.336973.155514-.498973.149027-.460055.298055-.913623.453568-1.373678.038918-.116596.077757-.226705.116596-.336973.155514-.453568.317514-.913623.492486-1.36735.038918-.12941.084322-.259137.136134-.382219.194353-.518432.388784-1.036863.596188-1.548809-.006486-.012973,0-.019301.012973-.032273.168407-.434109.34338-.861891.518353-1.289514.090729-.23335.187866-.460213.291647-.686918.174894-.421295.362839-.842432.544219-1.257082.025945-.064863.058377-.129568.090809-.194432.246164-.550863.498973-1.095082.758109-1.632973.233271-.486.466541-.972.712863-1.451514.045246-.103623.097137-.200918.149027-.298055.246164-.479514.498973-.959027.751623-1.438541.019459-.045404.045404-.090809.07135-.129727.168407-.311027.336894-.622055.511866-.926596.155514-.298055.324-.589623.492486-.88135.265702-.473027.544298-.93941.822894-1.399623.30462-.505459.622134-1.017404.939647-1.516377.259216-.401678.518353-.81.784134-1.205191.408164-.628541.82938-1.244109,1.263568-1.853191.343459-.486.693404-.965672,1.049757-1.445027.375812-.511945.758188-1.010918,1.15338-1.509891.375891-.486.764675-.965514,1.153459-1.438699,1.561702-1.905082,3.233514-3.732328,5.002541-5.482055.317514-.317355.641514-.628541.965514-.933082.123161-.123082.246322-.246164.375891-.362918.388863-.36276.777568-.719191,1.172918-1.075623.071191-.064705.142541-.129568.213812-.194432.324-.291568.660973-.583137.997866-.874705.168486-.142541.336973-.291568.505459-.427781.349945-.304541.706377-.596109,1.069216-.887678.343459-.278754.686839-.55735,1.043271-.835945,1.140486-.900809,2.319891-1.769027,3.531568-2.604973.46662-.324.933161-.641514,1.412754-.952541.434109-.291568.874705-.570322,1.321866-.855404.103702-.064863.207325-.129568.311027-.194273.447161-.278754.894243-.550863,1.347812-.822973.090809-.051891.187945-.110268.285161-.168645.466541-.272109.933161-.544219,1.412675-.81.622055-.349787,1.244109-.68676,1.885623-1.017246.531404-.285082,1.069216-.55735,1.613514-.829459.032432-.012973.058377-.025945.084322-.038918.570164-.278596,1.140407-.55735,1.717137-.822973.012973-.006486.025945-.012973.045404-.019459.589623-.272109,1.185812-.544219,1.788486-.803514.006486,0,.006486-.006486.012973-.006486.596109-.259137,1.205191-.511945,1.814353-.758109.01938-.006486.038839-.019459.058298-.025945.596188-.239678,1.192377-.473027,1.801459-.699891.038918-.019301.077757-.032273.116596-.045246.473027-.181459.946134-.349945,1.432134-.524918.187866-.071191.382298-.136055.576729-.200918.492486-.168486.984973-.336973,1.483945-.498973.149027-.051732.291568-.097137.440596-.142541.570243-.181459,1.153459-.36276,1.730109-.531404.635027-.187787,1.27662-.375732,1.918134-.550705.045325-.012973.084243-.019459.123161-.032432.660894-.174973,1.321866-.349945,1.989325-.511945.486-.123082.978407-.239678,1.470894-.349945.272268-.064705.537891-.123082.81-.181301.622134-.136055,1.244268-.265781,1.879295-.388863.544219-.110109,1.088596-.213891,1.63938-.311027.051812-.012973.110188-.019459.162-.025945.213812-.045404.427702-.077836.641593-.116596.615568-.103623,1.231137-.200918,1.853191-.298213.725836-.110109,1.458-.213732,2.196809-.304383.732164-.097295,1.470894-.181617,2.216109-.265781.019459,0,.038918-.006486.058298-.006486.738729-.077678,1.477459-.142541,2.222675-.207404.693325-.058219,1.393137-.110109,2.093027-.155355.116596-.012973.226784-.019617.336973-.019617.686918-.045246,1.367271-.077678,2.060596-.110109.110188-.006486.213891-.012973.324-.012973.699891-.025945,1.399702-.051891,2.106-.064705h.07135c.790541-.019459,1.587568-.025945,2.391082-.025945h.006486c.719271,0,1.445027.006486,2.170784.019459.531325.006486,1.062729.019301,1.60062.038918.311027.006328.628541.019301.946055.032273,2.702109.103781,5.410784.025945,8.106486-.298055.110109-.012973.213812-.025945.324-.038918.447082-.058219.894164-.110109,1.347812-.162.693325-.084164,1.393216-.155514,2.086541-.226705.615647-.058377,1.224729-.110268,1.840298-.155514.226863-.019459.447161-.032432.667459-.045404.265702-.019459.537891-.038918.803514-.051891.324-.019459.648-.03876.965514-.051732.110188-.006486.213891-.012973.317514-.012973.246322-.012973.492486-.019459.738809-.025945,4.801623-.142541,9.473678.207246,13.653246,1.406109.278754.077836.550863.155514.816486.246322.900809.285082,1.769106.609082,2.611459.984814.311027.129727.622055.272268.920188.421295.291647.142541.583216.291568.868298.453568,1.101568.596109,2.144918,1.289514,3.123404,2.080055.304541.246322.602596.505459.894164.771082,0,0,.006486,0,.006486.006645.14262.129568.291647.265623.434268.408164,3.849082,3.745459,6.395678,9.344109,6.901137,17.502486-.058298,0-.058298,58.073678-.006486,65.435027.006486.336973.278596.589623.615568.589623h.051891c.330486.006645.609082-.25265.615568-.583137v-5.261836c-.012973-12.441568-.012973-40.882219,0-53.537678-.006486-3.440918,0-5.708918,0-6.181945.187945-2.540109.55735-4.827568,1.088675-6.89465q0-.006486.006486-.012973c.596188-2.319891,1.406188-4.354541,2.397568-6.136541.181459-.324.362839-.635186.550784-.93324.343459-.550705.706377-1.075623,1.088675-1.581082.194353-.259137.395271-.511945.602675-.751623.194353-.23335.395191-.460055.596109-.680432.136055-.149027.278596-.298055.421216-.440596,2.883647-2.941945,6.525325-4.788809,10.620729-5.864432.304541-.084164.609082-.162.920109-.233191.291647-.07135.589702-.136213.894322-.19459.336973-.071191.680353-.136055,1.023812-.194273.077757-.019459.155514-.032432.239757-.038918.343459-.064863.693404-.116596,1.049757-.168486.064784-.012973.136055-.019459.207325-.025945.349945-.051732.699891-.097137,1.056322-.129568,2.021678-.233191,4.114705-.330486,6.24665-.330486.511945,0,1.023891.006486,1.535757.019459.518432.006486,1.043271.025945,1.561702.045404.440596.019459.874784.03876,1.315459.064705.181459.006486.362839.019459.544298.032432.434188.025945.861812.051891,1.296.084322.50538.03876,1.010839.077678,1.516298.123082.025945,0,.045404.006486.07135.006486.531325.045404,1.06265.097137,1.587568.149027.194432.019459.388784.03876.583137.058377.868377.09065,1.736675.187787,2.598486.291568.103702.012814.200918.025787.304541.032432,3.376134.388705,6.791106.479355,10.18662.324.038839,0,.084243-.006645.123161-.006645,3.473191-.168328,6.836353-.168328,10.095812-.012973.414729.012973.82938.038918,1.244188.064863.460055.025945.920109.058377,1.373678.090809,2.494863.187945,4.918377.466541,7.270541.829301.414809.064863.829459.129727,1.237781.200918.563678.097295,1.127514.200918,1.678219.304699.427781.084164.848918.162,1.263647.25265.544298.116596,1.088675.23335,1.626486.356432.699812.162,1.386729.324,2.073647.505301.239678.058377.473027.12324.712705.187945,1.036863.278754,2.054268.576809,3.05862.887836.324.103623.641514.207246.959027.311027.388784.123082.771161.252809,1.146973.388863.362839.123082.719271.25265,1.069216.382219.460055.168486.913623.336973,1.367271.511945.311027.123082.615568.246164.920188.369404.369325.149027.732164.298055,1.095082.453568.356432.155514.712784.311027,1.075623.466541.356432.162.706377.317514,1.056322.486.349945.162.699812.330486,1.049678.498973.654486.317514,1.296.648,1.931106.984973.842353.447082,1.665325.907137,2.475325,1.380322.304541.181301.602675.36276.900729.544219.246243.149027.492486.304541.732243.453568.298055.187945.583216.369404.874863.563836.311027.20076.615568.401678.920109.609082.006486.006486.006486.012973.012973.012973.304541.207404.609082.41465.907137.628541.324.226863.641514.460055.959027.693404.278754.20076.550863.408164.822973.615568.589781.447082,1.172918.907137,1.743161,1.373836.278675.233191.550784.460055.816486.693246.563757.479514,1.114541.965514,1.658839,1.458.524918.492486,1.036863.978486,1.542322,1.477459.213812.207404.421137.421295.628541.635027,1.334839,1.360863,2.604973,2.779945,3.797271,4.257404l.583216.73865c.291568.369404.57665.745295.855325,1.127514.149027.194432.291647.388863.434188.589781.622055.855246,1.22465,1.730109,1.794973,2.624273.207325.311027.401678.622213.596109.939727.012973.019301.025945.045246.038918.064705.317514.505459.622055,1.017404.920109,1.535836.408322.706377.797027,1.419082,1.179404,2.138432,1.71065,3.259301,3.745459,6.343945,6.019945,9.240328.064705.077836.123082.155672.18138.239836.369325.466541.732243.939568,1.082188,1.419082.123082.162.239757.317672.349945.479672.239678.317355.473027.641355.699812.965355.110188.149027.220298.298055.317514.453727.304541.421137.596188.848918.881271,1.276541.032432.045404.064863.09065.097216.142541.265702.395191.524839.790541.777647,1.192219.162.239836.311027.479672.460055.725836.298055.460055.583137.926596.861812,1.393137.233271.388863.460134.777727.680353,1.166432,1.283027,2.203295,2.442973,4.451836,3.492809,6.745623.162.349945.324.706377.473027,1.062809.336973.738809.654486,1.483945.952541,2.235568.142541.343459.285082.693404.41465,1.04335.084322.207246.168486.41465.246322.628541.097137.246322.187945.492486.278596.745137.174973.466541.343459.93324.505459,1.399781.006486.012814.012973.032432.012973.051732.155514.421295.298055.848918.434109,1.270055.097295.28524.187945.576809.278675.868377.077757.220377.14262.44724.207325.673945.103702.317514.200918.635027.298134.959027.498894,1.678377.939568,3.376055,1.321866,5.080377.123161.550705.246322,1.101568.356432,1.652273.077757.388863.155514.777727.226863,1.166432.194353.965514.356353,1.937514.50538,2.916.084243.524918.155514,1.04335.226784,1.568268,0,.012973.006486.025945,0,.038918.077836.550705.149027,1.10141.207404,1.652273.012973.110109.025945.220377.038839.330486.045325.388863.084243.77124.116675,1.153459.038918.369404.071271.745137.097137,1.114541.006486.045404.012973.09065.012973.136055.045404.531404.077836,1.069295.110188,1.600541.032353.44724.051812.900809.071271,1.347891.019459.427781.038918.861891.045404,1.289514.012973.246322.019459.486.019459.725836.025866,1.030219.025866,2.067082.006486,3.103787Z" fill="none" stroke="#80705e" stroke-miterlimit="10" stroke-width="1.296"/><path d="M266.879234,125.54021c-2.580322,1.970337-5.756592,2.987183-12.003906,4.940674-11.09082,3.467896-12.306641,2.358398-13.85083,4.447388-3.944336,5.335693,2.344482,11.983887-1.333496,20.888916-1.862793,4.510254-4.930664,7.484985-6.93042,9.09375,0,.000122-.706543.572998-1.513916,1.128418-11.994629,8.25061-23.555664,9.333374-23.555664,9.333374-13.312744,1.246948-31.539062-5.393677-34.666504-16.444458-1.794678-6.341064,2.554443-9.992676,1.333252-22.222168-.54834-5.490112-1.933594-9.849487-2.945312-12.54187-2.432617-4.307861-6.641602-9.837402-13.212646-11.586426-.380127-.101196-.76001-.187622-1.139893-.26001-6.310059-1.359985-12.850098-1.359985-19.170166,0-.68457.147339-.980469.217896-1.139893.26001-9.534912,2.518799-18.886719,13.658936-17.947754,23.683838.666504,7.116211,6.023193,8.408936,5.926025,15.851807-.071777,5.507568-3.067627,9.578247-4.740723,11.851807-8.532471,11.59436-26.293701,17.177612-42.074219,14.22229-11.523926-2.158203-26.666558-6.518537-26.666504-18.370361.000011-2.304431.853271-2.453247,4.148193-13.629639,2.833984-9.612427,2.846191-12.006348,1.629639-13.037109-.860596-.729248-2.455566-1.746338-8,.888916-2.036133.967773-5.281738,2.169434-9.333496,2.22229-10.438232.136108-17.4375-7.466797-19.259155-9.629639-6.743774-8.006958-10.092285-21.627075-4.052734-30.183594,4.573853-6.47998,12.643555-8.064941,20.052612-9.520142,14.885742-2.923706,20.844482,2.142944,27.259277-3.111084,4.894775-4.009033,6.238281-10.876343,7.111084-15.555542,1.243896-6.668945.358643-12.000244,0-13.777832-1.084717-5.376465-3.267334-9.512207-6.222168-15.111084-3.667236-6.948975-3.815918-5.386597-4.888916-8.444458-2.522949-7.189819-.284424-11.791504-3.77124-19.370483-.726807-1.579834-1.473877-2.792236-1.959961-3.530029.560059-.22998,1.129883-.449951,1.709961-.669922.040039-.02002.080078-.030029.110107-.050049.47998-.179932.949951-.349976,1.439941-.52002.179932-.069946.380127-.139893.570068-.199951.5-.169922.98999-.339966,1.48999-.5.149902-.050049.289795-.099976.439941-.139893.570068-.180054,1.149902-.370117,1.72998-.530029.630127-.190063,1.27002-.380127,1.919922-.560059l.120117-.030029c.659912-.169922,1.320068-.349976,1.98999-.51001.47998-.119873.97998-.23999,1.469971-.349976.27002-.059937.540039-.119995.810059-.180054.619873-.139893,1.23999-.269897,1.879883-.389893.540039-.110107,1.090088-.209961,1.640137-.310059.050049-.01001.109863-.02002.159912-.030029.209961-.039917.429932-.069946.640137-.109863.619873-.110107,1.22998-.200073,1.859863-.300049.719971-.110107,1.449951-.219971,2.189941-.310059.360107-.040039.720215-.089966,1.080078-.130005.834961.402832,2.004883.990723,3.370117,1.757446,5.89209,3.309082,12.669922,7.115601,15.407471,13.037109,1.599365,3.459351,1.263672,7.343262.592529,15.111084,0,.000122-.767822,8.885498,1.699951,14.414307.080078.179321.174561.348877.174805.349121.169922.293579.301758.396851.665039,1.180908.949951,2.050049,1.449951,4.710083,3.01001,12.700073,3.530029,18.029907,4.320068,21.559937,7.410156,25.670044,2.569824,3.389893,5.48999,5.559937,7.929932,7.379883,3.399902,2.530029,7.409912,5.440063,13.280029,6.630127,1.810059.369873,3.48999.51001,4.969971.529907,1.899902.02002,3.77002-.380005,5.550049-1.079956,2.589844-1.02002,9.469971-1.110107,11.889893-.160034,1.73999.700073,3.550049,1.220093,5.429932,1.23999,1.620117.02002,3.530029-.109985,5.610107-.529907,5.880127-1.190063,9.880127-4.100098,13.290039-6.630127,2.439941-1.819946,5.360107-3.98999,7.919922-7.379883,3.100098-4.110107,3.890137-7.640137,7.409912-25.670044,1.573486-8.001709,2.068604-10.652954,3.024414-12.710327.19165-.41272.416504-.776855.835693-1.519775,3.246826-5.75415,6.263916-9.679932,7.01123-10.710571,6.865723-9.470215,1.076904-21.120605,7.851807-25.037109,2.273926-1.314575,6.812256-2.248657,8.927002-6.512207.104248-.209961.181641-.386108.22998-.5.26001.049927.52002.109985.77002.170044.699951.159912,1.380127.319946,2.070068.5.23999.059937.469971.129883.709961.189941,1.040039.280029,2.060059.579956,3.060059.890015.319824.099976.639893.209961.959961.309937.389893.120117.77002.25,1.149902.390015.360107.119995.719971.25,1.070068.380005.459961.170044.909912.340088,1.360107.51001.309814.130005.619873.25.919922.369995.369873.150024.73999.299927,1.099854.460083.350098.149902.710205.309937,1.070068.459961.360107.159912.709961.319946,1.060059.48999.350098.159912.699951.329956,1.050049.5.649902.310059,1.300049.649902,1.929932.97998.839844.449951,1.669922.909912,2.47998,1.380005.300049.180054.600098.369995.899902.549927.240234.150146.490234.300049.72998.450073.300049.190063.580078.369995.870117.559937.01001.01001.030029.02002.040039.030029-1.99707,1.780884-4.984863,4.973511-6.08667,9.590454-2.211426,9.266724,5.345947,15.175171,2.222412,23.111084-1.640381,4.167725-3.987305,3.205078-7.111084,9.333374-2.708496,5.313721-2.772217,10.297119-2.811279,13.000488-.056885,3.936401.047119,12.421875,5.033447,18.110596,7.762451,8.855957,19.058838,1.269165,30.666504,10.666626,1.634033,1.322876,9.613281,8.11438,8.641113,16.602051-.743896,6.495361-6.363525,10.786255-7.675049,11.78772Z" fill="#b89065"/><ellipse cx="143.814694" cy="105.866207" rx="4.729646" ry="4.28519" fill="#fff" stroke="#80705e" stroke-miterlimit="10" stroke-width=".403566"/></svg>