<?xml version="1.0" encoding="UTF-8"?><svg id="Layer_1" xmlns="http://www.w3.org/2000/svg" width="592.404887" height="578.443542" viewBox="0 0 592.404887 578.443542"><ellipse cx="296.202443" cy="289.221771" rx="288.181942" ry="281.30908" fill="#eff6ff" opacity=".5"/><path d="M296.202443,574.943542c-78.18392,0-151.687311-29.719951-206.971847-83.686004C33.94606,437.292024,3.5,365.54108,3.5,289.221771s30.44606-148.070253,85.730596-202.035767C144.515132,33.219951,218.018523,3.5,296.202443,3.5s151.687311,29.719951,206.971847,83.686004c55.284536,53.965514,85.730596,125.716459,85.730596,202.035767s-30.44606,148.070253-85.730596,202.035767c-55.284536,53.966053-128.787927,83.686004-206.971847,83.686004ZM296.202443,23.357112C146.022702,23.357112,23.842255,142.623672,23.842255,289.221771s122.180447,265.86466,272.360189,265.86466,272.360189-119.266561,272.360189-265.86466S446.382185,23.357112,296.202443,23.357112Z" fill="#d0e3ff" stroke="#687a96" stroke-miterlimit="10" stroke-width="7"/></svg>