<?xml version="1.0" encoding="UTF-8"?><svg id="a" xmlns="http://www.w3.org/2000/svg" width="386.537435" height="296.583869" xmlns:xlink="http://www.w3.org/1999/xlink" viewBox="0 0 386.537435 296.583869"><defs><linearGradient id="b" x1="1.036133" y1="182.254151" x2="54.26446" y2="182.254151" gradientUnits="userSpaceOnUse"><stop offset="0" stop-color="#cfe7f2" stop-opacity=".4"/><stop offset="0" stop-color="#e4f5fd" stop-opacity=".403631"/><stop offset="1" stop-color="#d2dce8" stop-opacity=".4"/></linearGradient><linearGradient id="c" x1="332.719108" y1="115.934409" x2="385.947435" y2="115.934409" xlink:href="#b"/><linearGradient id="d" x1="44.095603" y1="253.486544" x2="385.965339" y2="253.486544" xlink:href="#b"/><linearGradient id="e" x1="0" y1="42.906765" x2="341.869736" y2="42.906765" xlink:href="#b"/><linearGradient id="f" x1="10.751791" y1="139.536963" x2="385.947435" y2="139.536963" xlink:href="#b"/></defs><polygon points="44.548802 295.873693 43.958875 295.994052 29.881414 227.145654 8.228378 121.22176 1.036133 86.024386 10.751791 68.51425 17.944036 103.711624 39.597072 209.635519 53.674533 278.483916 54.26446 278.363557 53.893358 278.064791 44.1777 295.574926 48.494501 285.346554 44.548802 295.873693" fill="url(#b)" stroke="#231f20" stroke-miterlimit="10" stroke-width=".25"/><polygon points="376.231777 229.553951 375.641851 229.67431 361.564389 160.825913 339.911353 54.902018 332.719108 19.704644 342.434766 2.194508 349.627011 37.391883 371.280047 143.315777 385.357509 212.164174 385.947435 212.043815 385.576333 211.745049 375.860675 229.255185 380.177476 219.026813 376.231777 229.553951" fill="url(#c)"/><polygon points="376.249681 228.581155 385.965339 211.071019 385.865339 210.979035 345.99023 219.134668 54.182364 278.782682 53.592437 278.903041 53.811261 278.483916 44.095603 295.994052 376.249681 228.581155" fill="url(#d)"/><polygon points="332.154078 18.001377 341.869736 .491241 341.769736 .399257 301.894627 8.554889 10.086761 68.202904 9.496834 68.323263 9.715658 67.904138 0 85.414273 332.154078 18.001377" fill="url(#e)"/><polyline points="376.231777 228.070046 336.356668 236.225678 44.548802 295.873693 43.958875 295.994052 29.881414 227.145654 8.228378 121.22176 1.036133 86.024386" fill="none" stroke="#231f20" stroke-miterlimit="10"/><polygon points="343.024624 .59001 385.947435 210.55991 346.072326 218.715542 54.26446 278.363557 53.674533 278.483916 39.597072 209.635519 17.944036 103.711624 10.751791 68.51425 343.024624 .59001" fill="url(#f)" stroke="#231f20" stroke-miterlimit="10"/><line x1="10.751791" y1="68.51425" x2="1.036133" y2="86.024386" fill="none" stroke="#231f20" stroke-miterlimit="10" stroke-width=".84582"/><line x1="53.893358" y1="278.064791" x2="44.1777" y2="295.574926" fill="none" stroke="#231f20" stroke-miterlimit="10" stroke-width=".84582"/><line x1="386.047435" y1="210.651894" x2="376.331777" y2="228.16203" fill="none" stroke="#231f20" stroke-miterlimit="10" stroke-width=".84582"/><path d="M125.963564,113.811012c-.609985,15.179932-9.719971,29.399902-24.609985,35.809937-19.440002,8.359985-41.789978.410034-51.769958-17.76001-.640015-1.150024-1.220032-2.339966-1.75-3.569946-.140015-.320068-.27002-.640015-.400024-.969971-.440002-1.080078-.830017-2.190063-1.160034-3.290039-5.97998-19.590088,3.620056-40.97998,22.880005-49.26001,20.670044-8.880005,44.640015.669922,53.530029,21.319946,1.369995,3.190063,2.309998,6.460083,2.830017,9.75.149963.940063.269958,1.869995.339966,2.810059.150024,1.72998.190002,3.449951.109985,5.160034Z" fill="#fff" stroke="#231f20" stroke-miterlimit="10"/><path d="M125.963564,113.811012c-.609985,15.179932-9.719971,29.399902-24.609985,35.809937-19.440002,8.359985-41.789978.410034-51.769958-17.76001.599976-15.180054,9.719971-29.410034,24.599976-35.799927,19.440002-8.360107,41.799988-.410034,51.779968,17.75Z" fill="none" stroke="#231f20" stroke-miterlimit="10"/><circle cx="85.255881" cy="112.198394" r="43.059491" fill="none" stroke="#231f20" stroke-miterlimit="10" stroke-width="1.056915"/><path d="M152.630231,212.591654c-.609985,15.179932-9.719971,29.399902-24.609985,35.809937-19.440002,8.359985-41.789978.410034-51.769958-17.76001-.640015-1.150024-1.220032-2.339966-1.75-3.569946-.140015-.320068-.27002-.640015-.400024-.969971-.440002-1.080078-.830017-2.190063-1.160034-3.290039-5.97998-19.590088,3.620056-40.97998,22.880005-49.26001,20.670044-8.880005,44.640015.669922,53.530029,21.319946,1.369995,3.190063,2.309998,6.460083,2.830017,9.75.149963.940063.269958,1.869995.339966,2.810059.150024,1.72998.190002,3.449951.109985,5.160034Z" fill="#fff" stroke="#231f20" stroke-miterlimit="10"/><path d="M152.630231,212.591654c-.609985,15.179932-9.719971,29.399902-24.609985,35.809937-19.440002,8.359985-41.789978.410034-51.769958-17.76001.599976-15.180054,9.719971-29.410034,24.599976-35.799927,19.440002-8.360107,41.799988-.410034,51.779968,17.75Z" fill="none" stroke="#231f20" stroke-miterlimit="10"/><circle cx="111.922548" cy="210.979035" r="43.059491" fill="none" stroke="#231f20" stroke-miterlimit="10" stroke-width="1.056915"/><path d="M325.484362,69.707509c-.609985,15.179932-9.719971,29.399902-24.609985,35.809937-19.440002,8.359985-41.789978.410034-51.769958-17.76001-.640015-1.150024-1.220032-2.339966-1.75-3.569946-.140015-.320068-.27002-.640015-.400024-.969971-.440002-1.080078-.830017-2.190063-1.160034-3.290039-5.97998-19.590088,3.620056-40.97998,22.880005-49.26001,20.670044-8.880005,44.640015.669922,53.530029,21.319946,1.369995,3.190063,2.309998,6.460083,2.830017,9.75.149963.940063.269958,1.869995.339966,2.810059.150024,1.72998.190002,3.449951.109985,5.160034Z" fill="#fff" stroke="#231f20" stroke-miterlimit="10"/><path d="M325.484362,69.707509c-.609985,15.179932-9.719971,29.399902-24.609985,35.809937-19.440002,8.359985-41.789978.410034-51.769958-17.76001.599976-15.180054,9.719971-29.410034,24.599976-35.799927,19.440002-8.360107,41.799988-.410034,51.779968,17.75Z" fill="none" stroke="#231f20" stroke-miterlimit="10"/><circle cx="284.776678" cy="68.09489" r="43.059491" fill="none" stroke="#231f20" stroke-miterlimit="10" stroke-width="1.056915"/><path d="M352.151028,168.48815c-.609985,15.179932-9.719971,29.399902-24.609985,35.809937-19.440002,8.359985-41.789978.410034-51.769958-17.76001-.640015-1.150024-1.220032-2.339966-1.75-3.569946-.140015-.320068-.27002-.640015-.400024-.969971-.440002-1.080078-.830017-2.190063-1.160034-3.290039-5.97998-19.590088,3.620056-40.97998,22.880005-49.26001,20.670044-8.880005,44.640015.669922,53.530029,21.319946,1.369995,3.190063,2.309998,6.460083,2.830017,9.75.149963.940063.269958,1.869995.339966,2.810059.150024,1.72998.190002,3.449951.109985,5.160034Z" fill="#fff" stroke="#231f20" stroke-miterlimit="10"/><path d="M352.151028,168.48815c-.609985,15.179932-9.719971,29.399902-24.609985,35.809937-19.440002,8.359985-41.789978.410034-51.769958-17.76001.599976-15.180054,9.719971-29.410034,24.599976-35.799927,19.440002-8.360107,41.799988-.410034,51.779968,17.75Z" fill="none" stroke="#231f20" stroke-miterlimit="10"/><circle cx="311.443345" cy="166.875532" r="43.059491" fill="none" stroke="#231f20" stroke-miterlimit="10" stroke-width="1.056915"/><path d="M225.723963,91.75926c-.609985,15.179932-9.719971,29.399902-24.609985,35.809937-19.440002,8.359985-41.789978.410034-51.769958-17.76001-.640015-1.150024-1.220032-2.339966-1.75-3.569946-.140015-.320068-.27002-.640015-.400024-.969971-.440002-1.080078-.830017-2.190063-1.160034-3.290039-5.97998-19.590088,3.620056-40.97998,22.880005-49.26001,20.670044-8.880005,44.640015.669922,53.530029,21.319946,1.369995,3.190063,2.309998,6.460083,2.830017,9.75.149963.940063.269958,1.869995.339966,2.810059.150024,1.72998.190002,3.449951.109985,5.160034Z" fill="#fff" stroke="#231f20" stroke-miterlimit="10"/><path d="M225.723963,91.75926c-.609985,15.179932-9.719971,29.399902-24.609985,35.809937-19.440002,8.359985-41.789978.410034-51.769958-17.76001.599976-15.180054,9.719971-29.410034,24.599976-35.799927,19.440002-8.360107,41.799988-.410034,51.779968,17.75Z" fill="none" stroke="#231f20" stroke-miterlimit="10"/><circle cx="185.01628" cy="90.146642" r="43.059491" fill="none" stroke="#231f20" stroke-miterlimit="10" stroke-width="1.056915"/><path d="M252.39063,190.539902c-.609985,15.179932-9.719971,29.399902-24.609985,35.809937-19.440002,8.359985-41.789978.410034-51.769958-17.76001-.640015-1.150024-1.220032-2.339966-1.75-3.569946-.140015-.320068-.27002-.640015-.400024-.969971-.440002-1.080078-.830017-2.190063-1.160034-3.290039-5.97998-19.590088,3.620056-40.97998,22.880005-49.26001,20.670044-8.880005,44.640015.669922,53.530029,21.319946,1.369995,3.190063,2.309998,6.460083,2.830017,9.75.149963.940063.269958,1.869995.339966,2.810059.150024,1.72998.190002,3.449951.109985,5.160034Z" fill="#fff" stroke="#231f20" stroke-miterlimit="10"/><path d="M252.39063,190.539902c-.609985,15.179932-9.719971,29.399902-24.609985,35.809937-19.440002,8.359985-41.789978.410034-51.769958-17.76001.599976-15.180054,9.719971-29.410034,24.599976-35.799927,19.440002-8.360107,41.799988-.410034,51.779968,17.75Z" fill="none" stroke="#231f20" stroke-miterlimit="10"/><circle cx="211.682946" cy="188.927284" r="43.059491" fill="none" stroke="#231f20" stroke-miterlimit="10" stroke-width="1.056915"/></svg>