<?xml version="1.0" encoding="UTF-8"?><svg id="Layer_1" xmlns="http://www.w3.org/2000/svg" width="520.873612" height="598.372237" xmlns:xlink="http://www.w3.org/1999/xlink" viewBox="0 0 520.873612 598.372237"><defs><radialGradient id="radial-gradient" cx="204.218854" cy="109.533022" fx="204.218854" fy="109.533022" r="33.788638" gradientUnits="userSpaceOnUse"><stop offset="0" stop-color="#faedee"/><stop offset=".393945" stop-color="#f4dadd"/><stop offset="1" stop-color="#eab7bc"/></radialGradient></defs><path d="M510.226526,337.212605c-5.812012-4.229004-12.285522-11.281738-21.678162-10.960938-7.123291-1.199707-9.473267-6.702637-9.116394-17.587402.231873-7.069824-.063232-15.628418,1.274414-24.051758,1.284363-8.086914,6.691772-15.766602,7.536804-23.156738,1.176514-10.289062-1.684875-18.887695-4.672729-23.40918-2.544861-7.168457-.704651-14.976074,2.005371-22.510254,2.446289-6.801758,6.855408-13.245605,10.876343-19.814453,4.202698-6.865723,6.910034-14.376465,9.963196-20.425781,4.251343-8.42334,7.697327-15.898438,2.916504-21.404785-4.793457-6.666016-14.702881-3.197754-24.173096,7.112793-5.065125,5.514648-9.033997,14.258789-15.17395,22.339844-6.908752,9.108398-19.479309,8.259277-26.196045-.989258-4.612122-6.208984-8.654358-12.793945-12.785034-19.402344-4.178711-6.685547-11.027527-11.427246-15.764832-17.435547-4.864563-6.169922-7.564697-14.896484-14.148315-19.18457-3.242798-2.117188-7.640381-5.002441-5.998474-8.509766,3.982544-8.506836,8.623474-15.626953,10.865906-22.389648,4.261292-12.851074,5.533752-21.770508,1.981384-23.821777-3.960083-2.286133-12.012024,5.083496-22.447632,17.58252-7.489807,8.849121-15.636108,12.789551-23.470459,13.876465-8.717651,1.209961-18.229797.549805-27.597717-1.304199-8.684387-1.71875-17.223083-4.966797-26.661316-3.606934-8.906982.786621-14.132751-7.553711-11.75061-16.172363,2.523499-9.089355,3.374512-18.172852,4.90332-26.265137,1.858704-9.837891,4.772034-18.728027,5.250305-26.315918.880493-13.969727-3.057922-23.277344-6.381165-25.523926-7.390808-5.167969-11.637573-1.526855-16.004517,7.082031-2.656738,5.237305-6.275146,11.817383-8.531006,20.04248-1.785706,6.511719-1.994751,14.099609-3.834229,21.586426-1.699158,6.916016-2.808472,14.297363-4.774719,21.39502-2.21582,8.037598-9.624695,13.19043-16.108765,17.607422-.685272.466797-.61438.379883-1.171631.758789-5.77359,3.924316-11.985733,10.937988-12.671371,17.050781-.980179,8.73877,9.883652,10.737793,11.111099,20,1.566437,11.820312-13.774658,26.316406-29.777771,30.222168-13.710785,3.346191-31.74263-.14502-36-9.777832-2.740707-6.201172,2.437103-9.946777-.888885-16-4.984558-9.071777-23.008774-12.296875-31.621597-5.976074-.051437.037598-.03273.024902-.149277.11084-8.294922,6.103516-15.838074,10.342773-20.425781,4.141602-6.352478-8.733398-7.00946-20.107422-11.688782-26.346191-6.257996-8.343262-14.751953-9.910156-26.245239-5.357422-8.438354,2.787109-4.542114,9.605957.817871,22.093262,3.02533,7.047852,6.61853,15.5,8.889832,25.196777,4.422668,6.288086,2.512695,14.479492-2.732605,20.099609-4.544067,5.570312-6.721924,13.147461-11.38739,18.617188-4.635803,5.435059-12.792969,7.92334-17.434753,13.467773-4.559082,5.445312-5.305847,13.937012-9.762207,19.685547-6.573975,9.444824-18.829163,12.850098-30.097961,15.180664-8.190735,1.499023-13.471436,7.118164-18.068054,9.890625-8.203796,4.947754-12.830688,11.540039-7.339783,16.67334,3.348206,3.130371,11.065002,4.638184,20.367065,6.353027,10.546631,2.009277,16.042358,8.112793,17.65802,16.526367,1.564514,8.147461.554626,17.92041.761108,25.766113-.117065,7.970703-.194153,15.673828.639771,23.211426.874573,7.904785,1.27887,15.709961,2.872437,23.129395,1.675049,7.799316,5.409973,14.750977,7.500183,22.003906,2.814697,6.338867,2.288208,13.84668,3.764465,20.563477,1.5271,6.947754,5.223145,13.884766,4.030396,20.650391-1.152283,6.536133-5.006409,12.951172-9.898438,18.769531-5.072876,6.464844-12.184143,10.661133-15.322205,15.95166-5.859009,9.876953-5.396606,18.453613-2.580505,21.27002,2.55658,2.556641,7.648926-.601562,16.171936-5.290039,4.604858-2.533691,11.055725-3.89502,16.752197-8.120605,10.259399-6.477539,18.243774-8.450684,25.210205-6.746094,8.204346,2.007324,14.351257,8.972656,21.129089,15.936523,6.064209,6.230469,14.342224,10.336426,21.840759,15.291016,6.626587,5.34375,13.35083,14.15625,20.975098,20.165527,7.855286,6.190918,17.060669,12.55957,14.253296,23.755859-2.0849,8.312988-3.685669,15.597168-3.75592,22.761719-.087769,8.951172-2.873962,17.550781-.957825,23.989746,3.400024,11.425781,11.356873,19.580078,15.530273,19.605957,9.687195.108887,10.085205-9.243164,11.771851-24.324707.816528-7.30127-.772766-16.966309,2.760193-27.84375,1.740723-10.063965,12.270142-18.422363,22.961609-16.26123,7.83905,1.389648,15.967346.203613,23.906921.914551,8.072205.722656,15.918579,5.208008,23.744629,5.196777,10.298706-.627441,17.291931,2.18457,22.842712,8.091797,5.889282,6.267578,8.035217,15.352051,11.356995,22.789062,5.029724,11.260254,12.303345,21.478027,19.687866,17.061035,6.982605-5.637207,5.346558-13.11377,4.130859-20.520996-.89325-5.442871-4.094421-11.81543-5.16925-20.271973-1.244812-9.755371,7.033264-18.906738,16.52771-21.465332,7.636047-2.132324,15.887512-3.275879,23.212158-6.48291,7.286621-3.19043,13.848877-8.243652,20.77478-12.149902,5.282898-2.97998,13.421326-3.206055,21.149353.056152,6.924377,2.92334,11.094055,10.291016,15.2995,15.051758,2.914856,3.299805,8.904114,8.867676,12.575439,17.353516,2.897644,6.697754,7.348145,13.176758,10.434631,19.219238,4.999939,9.789551,8.315735,17.509766,12.954712,13.79834,4.19043-3.352051,9.854187-12.405762,9.462158-24.092285-.24762-7.382812-3.434692-16.203125-7.637817-25.135254-3.256714-6.920898-10.790894-12.242676-17.299438-19.36084-6.156982-10.250977-3.691589-21.081055-.372131-29.919434,3.304077-8.796875,8.521118-17.866699,15.59259-25.294922,3.905396-5.257812,8.539062-10.17041,12.226746-16.071777,3.532715-5.652832,7.801208-11.100098,10.876465-17.227051,3.023987-6.024902,6.38031-12.182129,8.720215-18.556152,3.229736-10.671875,12.41156-16.302246,22.26532-18.30957,9.892395-4.213379,12.419556-10.531738,13.497681-17.185059,1.238037-7.641113-1.427795-13.312988-8.855957-18.717773Z" fill="#d4dff9" stroke="#08506f" stroke-miterlimit="10" stroke-width="3"/><path d="M177.475447,328.55307c.16169,11.071613-17.229735,11.071745-17.06662-.000763-.161737-11.07085,17.229689-11.070982,17.06662.000763Z" fill="#5959a2"/><path d="M228.332023,194.868057c.16169,11.071613-17.229735,11.071745-17.06662-.000763-.161737-11.07085,17.229689-11.070982,17.06662.000763Z" fill="#5959a2"/><path d="M70.554245,298.082069c.16169,11.071613-17.229735,11.071745-17.06662-.000763-.161737-11.07085,17.229689-11.070982,17.06662.000763Z" fill="#5959a2"/><path d="M325.879743,157.356946c.16169,11.071613-17.229735,11.071745-17.06662-.000763-.161737-11.07085,17.229689-11.070982,17.06662.000763Z" fill="#5959a2"/><path d="M223.582832,396.950652c.16169,11.071613-17.229735,11.071745-17.06662-.000763-.161737-11.07085,17.229689-11.070982,17.06662.000763Z" fill="#5959a2"/><path d="M135.798996,250.026669c.16169,11.071613-17.229735,11.071745-17.06662-.000763-.161737-11.07085,17.229689-11.070982,17.06662.000763Z" fill="#5959a2"/><path d="M191.821742,486.429604c.16169,11.071613-17.229735,11.071745-17.06662-.000763-.161737-11.07085,17.229689-11.070982,17.06662.000763Z" fill="#5959a2"/><path d="M436.709987,435.130848c.16169,11.071613-17.229735,11.071745-17.06662-.000763-.161737-11.07085,17.229689-11.070982,17.06662.000763Z" fill="#5959a2"/><path d="M266.30345,279.749063c.16169,11.071613-17.229735,11.071745-17.06662-.000763-.161737-11.07085,17.229689-11.070982,17.06662.000763Z" fill="#5959a2"/><path d="M394.465663,258.560002c.16169,11.071613-17.229735,11.071745-17.06662-.000763-.161737-11.07085,17.229689-11.070982,17.06662.000763Z" fill="#5959a2"/><path d="M230.678211,111.21342c-.027297,5.60513-2.28112,8.078925-3.896662,12.159926-2.026322,5.118667,8.233123,21.240728,4.594467,23.961717-4.130063,3.088463-16.334315-2.270925-21.185205-2.271398-4.850771-.000473-4.641596-11.238035-8.771037-14.327195-3.637616-2.721235-17.299064,2.308649-19.324536-2.809277-1.615122-4.08106-5.794724-11.110679-5.821446-16.715648.027285-5.605003,8.495231-10.936867,10.110817-15.017749,2.026354-5.11846,9.32214-4.562682,12.960839-7.283529,4.130014-3.088229,6.001325-18.138756,10.852134-18.138276,4.850683.00048,9.082184,11.892144,13.211581,14.981074,3.637659,2.721093-2.108215,9.551232-.082694,14.668941,1.615181,4.080939,7.325008,5.186577,7.351743,10.791415Z" fill="url(#radial-gradient)"/><path d="M230.678211,111.21342c-.027297,5.60513-2.28112,8.078925-3.896662,12.159926-2.026322,5.118667,8.233123,21.240728,4.594467,23.961717-4.130063,3.088463-16.334315-2.270925-21.185205-2.271398-4.850771-.000473-4.641596-11.238035-8.771037-14.327195-3.637616-2.721235-17.299064,2.308649-19.324536-2.809277-1.615122-4.08106-5.794724-11.110679-5.821446-16.715648.027285-5.605003,8.495231-10.936867,10.110817-15.017749,2.026354-5.11846,9.32214-4.562682,12.960839-7.283529,4.130014-3.088229,6.001325-18.138756,10.852134-18.138276,4.850683.00048,9.082184,11.892144,13.211581,14.981074,3.637659,2.721093-2.108215,9.551232-.082694,14.668941,1.615181,4.080939,7.325008,5.186577,7.351743,10.791415Z" fill="none" stroke="#985f64" stroke-miterlimit="10" stroke-width="2"/><path d="M334.413076,182.956946c.16169,11.071613-17.229735,11.071745-17.06662-.000763-.161737-11.07085,17.229689-11.070982,17.06662.000763Z" fill="#5959a2"/><path d="M107.421314,365.044094c.16169,11.071613-17.229735,11.071745-17.06662-.000763-.161737-11.07085,17.229689-11.070982,17.06662.000763Z" fill="#5959a2"/><path d="M381.656073,325.193669c26.578881,20.231292,23.167137,63.795106-18.610641,110.279062-27.683005,30.801437-82.0831,57.164129-101.36837,44.891147-24.353835-15.498574-24.719038-61.330775,12.071671-111.758752,29.510557-40.44928,81.328459-63.642749,107.90734-43.411457Z" fill="#b7cbeb" stroke="#60728a" stroke-miterlimit="10" stroke-width="3"/></svg>