<?xml version="1.0" encoding="UTF-8"?><svg id="Layer_1" xmlns="http://www.w3.org/2000/svg" width="551.333333" height="435.546029" viewBox="0 0 551.333333 435.546029"><line x1="59.758753" y1="327.654269" x2="62.454541" y2="335.715456" fill="none" stroke="#2b8741" stroke-linecap="round" stroke-miterlimit="10" stroke-width="1.96875"/><path d="M117.124605,269.708962c1.334943-.608004,2.714748-1.154318,3.903434-2.013898,2.013475-1.456028,2.707157-3.379922,2.11165-5.820209-1.021887-4.187521-2.915077-8.267485.229062-12.215559,1.624159-2.039446,4.175456-3.309462,6.78176-3.375908" fill="none" stroke="#2b8741" stroke-miterlimit="10" stroke-width=".75"/><line x1="83.010921" y1="325.299227" x2="90.030704" y2="330.092206" fill="none" stroke="#2b8741" stroke-linecap="round" stroke-miterlimit="10" stroke-width="1.96875"/><line x1="87.890802" y1="353.611485" x2="96.243686" y2="352.036897" fill="none" stroke="#2b8741" stroke-linecap="round" stroke-miterlimit="10" stroke-width="1.96875"/><line x1="84.6597" y1="322.88443" x2="91.679483" y2="327.677409" fill="none" stroke="#2b8741" stroke-linecap="round" stroke-miterlimit="10" stroke-width="1.96875"/><path d="M118.544213,268.592605c-1.844124-1.259134-4.382979-.750574-5.670357,1.134917l-33.982499,49.770666c-4.774815,6.993179-11.881565,11.972288-20.010907,14.020924l-43.674263,11.003373c-2.192424.552323-3.562161,2.782495-3.060028,4.981838.501017,2.199978,2.686022,3.534009,4.878446,2.981685l43.674263-11.003373c10.103817-2.545822,18.936237-8.733998,24.870278-17.424976l33.982499-49.770666c1.287378-1.885491.836692-4.435255-1.007432-5.694389Z" fill="#b2dbb6" stroke="#2b8741" stroke-miterlimit="10" stroke-width=".210938"/><path d="M63.055543,322.248187c-.883862-.538626-1.978132-.732657-3.074247-.454996l-46.144412,11.689449c-2.191147.554633-3.558917,2.787672-3.053202,4.985775.505113,2.199086,2.692009,3.530431,4.882674,2.975505l46.144412-11.689449c2.191147-.554633,3.558917-2.787672,3.053202-4.985775-.252075-1.09925-.925047-1.982177-1.808427-2.520509Z" fill="#b2dbb6" stroke="#2b8741" stroke-miterlimit="10" stroke-width=".210938"/><path d="M129.14362,275.829686c-1.844124-1.259134-4.382979-.750574-5.670357,1.134917l-36.854543,53.977053c-4.082011,5.978501-5.8342,13.185963-4.935354,20.296716l6.285764,49.687258c.282867,2.242407,2.322253,3.792713,4.553186,3.45806,2.231214-.333064,3.809632-2.420752,3.525834-4.663795l-6.285298-49.68694c-.643509-5.091093.611524-10.252078,3.533658-14.531827l36.854543-53.977053c1.287378-1.885491.836692-4.435255-1.007432-5.694389Z" fill="#b2dbb6" stroke="#2b8741" stroke-miterlimit="10" stroke-width=".210938"/><path d="M99.740747,347.033365c-.814125-.63831-1.876889-.958526-2.994304-.808552-2.235009.298342-3.844729,2.363671-3.594303,4.610705l5.265255,47.324572c.25016,2.248291,2.265054,3.828057,4.499884,3.528109,2.235009-.298342,3.844729-2.363671,3.594303-4.610705l-5.265255-47.324572c-.12508-1.124146-.691455-2.081247-1.50558-2.719557Z" fill="#b2dbb6" stroke="#2b8741" stroke-miterlimit="10" stroke-width=".210938"/><circle cx="138.295231" cy="235.427948" r="14.677335" fill="#f3cf99" stroke="#8a6834" stroke-miterlimit="10" stroke-width=".375"/><circle cx="101.23515" cy="416.508989" r="14.677335" fill="#a4dff9" stroke="#2e2f82" stroke-miterlimit="10" stroke-width=".375"/><line x1="182.817162" y1="327.654269" x2="185.51295" y2="335.715456" fill="none" stroke="#2b8741" stroke-linecap="round" stroke-miterlimit="10" stroke-width="1.96875"/><path d="M240.183014,269.708962c1.334943-.608004,2.714748-1.154318,3.903434-2.013898,2.013475-1.456028,2.707157-3.379922,2.11165-5.820209-1.021887-4.187521-2.915077-8.267485.229062-12.215559,1.624159-2.039446,4.175456-3.309462,6.78176-3.375908" fill="none" stroke="#2b8741" stroke-miterlimit="10" stroke-width=".75"/><line x1="206.06933" y1="325.299227" x2="213.089112" y2="330.092206" fill="none" stroke="#2b8741" stroke-linecap="round" stroke-miterlimit="10" stroke-width="1.96875"/><line x1="210.949211" y1="353.611485" x2="219.302095" y2="352.036897" fill="none" stroke="#2b8741" stroke-linecap="round" stroke-miterlimit="10" stroke-width="1.96875"/><line x1="207.718109" y1="322.88443" x2="214.737892" y2="327.677409" fill="none" stroke="#2b8741" stroke-linecap="round" stroke-miterlimit="10" stroke-width="1.96875"/><path d="M241.602621,268.592605c-1.844124-1.259134-4.382979-.750574-5.670357,1.134917l-33.982499,49.770666c-4.774815,6.993179-11.881565,11.972288-20.010907,14.020924l-43.674263,11.003373c-2.192424.552323-3.562161,2.782495-3.060028,4.981838.501017,2.199978,2.686022,3.534009,4.878446,2.981685l43.674263-11.003373c10.103817-2.545822,18.936237-8.733998,24.870278-17.424976l33.982499-49.770666c1.287378-1.885491.836692-4.435255-1.007432-5.694389Z" fill="#b2dbb6" stroke="#2b8741" stroke-miterlimit="10" stroke-width=".210938"/><path d="M186.113952,322.248187c-.883862-.538626-1.978132-.732657-3.074247-.454996l-46.144412,11.689449c-2.191147.554633-3.558917,2.787672-3.053202,4.985775.505113,2.199086,2.692009,3.530431,4.882674,2.975505l46.144412-11.689449c2.191147-.554633,3.558917-2.787672,3.053202-4.985775-.252075-1.09925-.925047-1.982177-1.808427-2.520509Z" fill="#b2dbb6" stroke="#2b8741" stroke-miterlimit="10" stroke-width=".210938"/><path d="M252.202028,275.829686c-1.844124-1.259134-4.382979-.750574-5.670357,1.134917l-36.854543,53.977053c-4.082011,5.978501-5.8342,13.185963-4.935354,20.296716l6.285764,49.687258c.282867,2.242407,2.322253,3.792713,4.553186,3.45806,2.231214-.333064,3.809632-2.420752,3.525834-4.663795l-6.285298-49.68694c-.643509-5.091093.611524-10.252078,3.533658-14.531827l36.854543-53.977053c1.287378-1.885491.836692-4.435255-1.007432-5.694389Z" fill="#b2dbb6" stroke="#2b8741" stroke-miterlimit="10" stroke-width=".210938"/><path d="M222.799155,347.033365c-.814125-.63831-1.876889-.958526-2.994304-.808552-2.235009.298342-3.844729,2.363671-3.594303,4.610705l5.265255,47.324572c.25016,2.248291,2.265054,3.828057,4.499884,3.528109,2.235009-.298342,3.844729-2.363671,3.594303-4.610705l-5.265255-47.324572c-.12508-1.124146-.691455-2.081247-1.50558-2.719557Z" fill="#b2dbb6" stroke="#2b8741" stroke-miterlimit="10" stroke-width=".210938"/><circle cx="261.35364" cy="235.427948" r="14.677335" fill="#f3cf99" stroke="#8a6834" stroke-miterlimit="10" stroke-width=".375"/><circle cx="224.293558" cy="416.508989" r="14.677335" fill="#a4dff9" stroke="#2e2f82" stroke-miterlimit="10" stroke-width=".375"/><line x1="305.87557" y1="327.654269" x2="308.571358" y2="335.715456" fill="none" stroke="#2b8741" stroke-linecap="round" stroke-miterlimit="10" stroke-width="1.96875"/><path d="M363.241423,269.708962c1.334943-.608004,2.714748-1.154318,3.903434-2.013898,2.013475-1.456028,2.707157-3.379922,2.11165-5.820209-1.021887-4.187521-2.915077-8.267485.229062-12.215559,1.624159-2.039446,4.175456-3.309462,6.78176-3.375908" fill="none" stroke="#2b8741" stroke-miterlimit="10" stroke-width=".75"/><line x1="329.127738" y1="325.299227" x2="336.147521" y2="330.092206" fill="none" stroke="#2b8741" stroke-linecap="round" stroke-miterlimit="10" stroke-width="1.96875"/><line x1="334.007619" y1="353.611485" x2="342.360504" y2="352.036897" fill="none" stroke="#2b8741" stroke-linecap="round" stroke-miterlimit="10" stroke-width="1.96875"/><line x1="330.776517" y1="322.88443" x2="337.7963" y2="327.677409" fill="none" stroke="#2b8741" stroke-linecap="round" stroke-miterlimit="10" stroke-width="1.96875"/><path d="M364.66103,268.592605c-1.844124-1.259134-4.382979-.750574-5.670357,1.134917l-33.982499,49.770666c-4.774815,6.993179-11.881565,11.972288-20.010907,14.020924l-43.674263,11.003373c-2.192424.552323-3.562161,2.782495-3.060028,4.981838.501017,2.199978,2.686022,3.534009,4.878446,2.981685l43.674263-11.003373c10.103817-2.545822,18.936237-8.733998,24.870278-17.424976l33.982499-49.770666c1.287378-1.885491.836692-4.435255-1.007432-5.694389Z" fill="#b2dbb6" stroke="#2b8741" stroke-miterlimit="10" stroke-width=".210938"/><path d="M309.17236,322.248187c-.883862-.538626-1.978132-.732657-3.074247-.454996l-46.144412,11.689449c-2.191147.554633-3.558917,2.787672-3.053202,4.985775.505113,2.199086,2.692009,3.530431,4.882674,2.975505l46.144412-11.689449c2.191147-.554633,3.558917-2.787672,3.053202-4.985775-.252075-1.09925-.925047-1.982177-1.808427-2.520509Z" fill="#b2dbb6" stroke="#2b8741" stroke-miterlimit="10" stroke-width=".210938"/><path d="M375.260437,275.829686c-1.844124-1.259134-4.382979-.750574-5.670357,1.134917l-36.854543,53.977053c-4.082011,5.978501-5.8342,13.185963-4.935354,20.296716l6.285764,49.687258c.282867,2.242407,2.322253,3.792713,4.553186,3.45806,2.231214-.333064,3.809632-2.420752,3.525834-4.663795l-6.285298-49.68694c-.643509-5.091093.611524-10.252078,3.533658-14.531827l36.854543-53.977053c1.287378-1.885491.836692-4.435255-1.007432-5.694389Z" fill="#b2dbb6" stroke="#2b8741" stroke-miterlimit="10" stroke-width=".210938"/><path d="M345.857564,347.033365c-.814125-.63831-1.876889-.958526-2.994304-.808552-2.235009.298342-3.844729,2.363671-3.594303,4.610705l5.265255,47.324572c.25016,2.248291,2.265054,3.828057,4.499884,3.528109,2.235009-.298342,3.844729-2.363671,3.594303-4.610705l-5.265255-47.324572c-.12508-1.124146-.691455-2.081247-1.50558-2.719557Z" fill="#b2dbb6" stroke="#2b8741" stroke-miterlimit="10" stroke-width=".210938"/><circle cx="384.412048" cy="235.427948" r="14.677335" fill="#f3cf99" stroke="#8a6834" stroke-miterlimit="10" stroke-width=".375"/><circle cx="347.351967" cy="416.508989" r="14.677335" fill="#a4dff9" stroke="#2e2f82" stroke-miterlimit="10" stroke-width=".375"/><line x1="428.933979" y1="327.654269" x2="431.629767" y2="335.715456" fill="none" stroke="#2b8741" stroke-linecap="round" stroke-miterlimit="10" stroke-width="1.96875"/><path d="M486.299831,269.708962c1.334943-.608004,2.714748-1.154318,3.903434-2.013898,2.013475-1.456028,2.707157-3.379922,2.11165-5.820209-1.021887-4.187521-2.915077-8.267485.229062-12.215559,1.624159-2.039446,4.175456-3.309462,6.78176-3.375908" fill="none" stroke="#2b8741" stroke-miterlimit="10" stroke-width=".75"/><line x1="452.186147" y1="325.299227" x2="459.20593" y2="330.092206" fill="none" stroke="#2b8741" stroke-linecap="round" stroke-miterlimit="10" stroke-width="1.96875"/><line x1="457.066028" y1="353.611485" x2="465.418912" y2="352.036897" fill="none" stroke="#2b8741" stroke-linecap="round" stroke-miterlimit="10" stroke-width="1.96875"/><line x1="453.834926" y1="322.88443" x2="460.854709" y2="327.677409" fill="none" stroke="#2b8741" stroke-linecap="round" stroke-miterlimit="10" stroke-width="1.96875"/><path d="M487.719439,268.592605c-1.844124-1.259134-4.382979-.750574-5.670357,1.134917l-33.982499,49.770666c-4.774815,6.993179-11.881565,11.972288-20.010907,14.020924l-43.674263,11.003373c-2.192424.552323-3.562161,2.782495-3.060028,4.981838.501017,2.199978,2.686022,3.534009,4.878446,2.981685l43.674263-11.003373c10.103817-2.545822,18.936237-8.733998,24.870278-17.424976l33.982499-49.770666c1.287378-1.885491.836692-4.435255-1.007432-5.694389Z" fill="#b2dbb6" stroke="#2b8741" stroke-miterlimit="10" stroke-width=".210938"/><path d="M432.230769,322.248187c-.883862-.538626-1.978132-.732657-3.074247-.454996l-46.144412,11.689449c-2.191147.554633-3.558917,2.787672-3.053202,4.985775.505113,2.199086,2.692009,3.530431,4.882674,2.975505l46.144412-11.689449c2.191147-.554633,3.558917-2.787672,3.053202-4.985775-.252075-1.09925-.925047-1.982177-1.808427-2.520509Z" fill="#b2dbb6" stroke="#2b8741" stroke-miterlimit="10" stroke-width=".210938"/><path d="M498.318845,275.829686c-1.844124-1.259134-4.382979-.750574-5.670357,1.134917l-36.854543,53.977053c-4.082011,5.978501-5.8342,13.185963-4.935354,20.296716l6.285764,49.687258c.282867,2.242407,2.322253,3.792713,4.553186,3.45806,2.231214-.333064,3.809632-2.420752,3.525834-4.663795l-6.285298-49.68694c-.643509-5.091093.611524-10.252078,3.533658-14.531827l36.854543-53.977053c1.287378-1.885491.836692-4.435255-1.007432-5.694389Z" fill="#b2dbb6" stroke="#2b8741" stroke-miterlimit="10" stroke-width=".210938"/><path d="M468.915973,347.033365c-.814125-.63831-1.876889-.958526-2.994304-.808552-2.235009.298342-3.844729,2.363671-3.594303,4.610705l5.265255,47.324572c.25016,2.248291,2.265054,3.828057,4.499884,3.528109,2.235009-.298342,3.844729-2.363671,3.594303-4.610705l-5.265255-47.324572c-.12508-1.124146-.691455-2.081247-1.50558-2.719557Z" fill="#b2dbb6" stroke="#2b8741" stroke-miterlimit="10" stroke-width=".210938"/><circle cx="507.470457" cy="235.427948" r="14.677335" fill="#f3cf99" stroke="#8a6834" stroke-miterlimit="10" stroke-width=".375"/><circle cx="470.410375" cy="416.508989" r="14.677335" fill="#a4dff9" stroke="#2e2f82" stroke-miterlimit="10" stroke-width=".375"/><path d="M548.333333,3v336.102828c0,51.607255-45.928185,93.443201-102.583472,93.443201H105.583472c-56.655287,0-102.583472-41.835946-102.583472-93.443201V3" fill="none" stroke="#231f20" stroke-linecap="round" stroke-miterlimit="10" stroke-width="6"/></svg>