<?xml version="1.0" encoding="UTF-8"?><svg id="a" xmlns="http://www.w3.org/2000/svg" width="261.92803" height="314.26049" xmlns:xlink="http://www.w3.org/1999/xlink" viewBox="0 0 261.92803 314.26049"><defs><linearGradient id="b" x1="134.08174" y1="281.22103" x2="134.08174" y2="60.94074" gradientUnits="userSpaceOnUse"><stop offset="0" stop-color="#1d3b47"/><stop offset=".10969" stop-color="#1f3f4c"/><stop offset=".25148" stop-color="#264d5c"/><stop offset=".35984" stop-color="#2e5c6e"/><stop offset=".59928" stop-color="#448ea8"/><stop offset=".64954" stop-color="#4897b3"/><stop offset=".74461" stop-color="#4ea4c3"/><stop offset=".85256" stop-color="#51accd"/><stop offset="1" stop-color="#53afd0"/></linearGradient><radialGradient id="c" cx="130.13477" cy="210.76413" fx="130.13477" fy="210.76413" r="31.91722" gradientTransform="translate(5.62034 17.37758) scale(.97838 .94435)" gradientUnits="userSpaceOnUse"><stop offset="0" stop-color="#f1f7eb"/><stop offset=".19763" stop-color="#edf5e7"/><stop offset=".36977" stop-color="#e2f1dc"/><stop offset=".53249" stop-color="#d0e9ca"/><stop offset=".68935" stop-color="#b7deb1"/><stop offset=".84204" stop-color="#97d091"/><stop offset=".98967" stop-color="#70c06a"/><stop offset="1" stop-color="#6dbf67"/></radialGradient></defs><path d="M113.14576,18.42483h.00003c5.52474-1.18069,11.15236-1.8854,16.81392-2.1055l16.42285-.63846c14.0571-.54649,27.03947,7.15203,32.65907,19.36676l3.81173,8.28515-25.00506,91.12097-44.26001-17.66419-16.32062-75.05459c-2.29995-10.57689,4.75421-20.93287,15.8781-23.31014Z" fill="#cfecf8" stroke="#05415a" stroke-miterlimit="10" stroke-width="2.74776"/><path d="M208.13447,135.5382l-65.16213,157.64036-7.34181-147.36572-2.53857-51.03391c-.94197-18.93681,2.54589-37.81043,10.05766-54.42433l5.75143-12.72052c3.7769-8.35342,11.00464-13.50904,18.82722-13.45459.03255.00023.06458.00043.0961.00062,20.95274.09504,39.89336,4.72689,55.40689,12.15621,2.21622,1.06133-15.09679,109.20187-15.09679,109.20187Z" fill="#cfecf8" stroke="#05415a" stroke-miterlimit="10" stroke-width="3.84485"/><path d="M54.06384,142.1685l63.77828,141.75722c1.97047,4.37967,7.84327,3.02471,8.10874-1.87083l7.02831-129.61175,2.88288-53.24702c.947-17.49117-2.55948-34.92398-10.11134-50.26957l-9.15789-18.60907c-2.90895-5.91106-8.46943-9.56777-14.49435-9.53186l-4.15997.0248c-24.10569.10046-45.76451,5.26975-63.15766,13.45379-2.90478,1.36679,19.28301,107.90429,19.28301,107.90429Z" fill="#cfecf8" stroke="#05415a" stroke-miterlimit="10" stroke-width="3.84485"/><path d="M233.43219,139.60341c-9.34724,83.1205-71.51959,142.02927-104.58875,141.61383-.02796.00852-.06518,0-.09313,0h-.0279c-33.04126-1.56194-90.93102-64.0435-94.40364-147.53785-1.70375-40.84581,30.22035-74.93633,50.06-72.62668,1.22893-.598,4.66433,1.26294,9.49623,4.06308,6.12595-1.62016,18.53623,5.84106,35.68527,5.84106,20.37965,0,42.3606-8.64931,51.15858-2.57579,3.30505-1.84451,5.38122-3.33181,5.79086-3.96328,19.96069-3.82189,51.67062,33.07708,46.92247,75.18563Z" fill="url(#b)"/><path d="M130.96848,295.32866c-.33793,8.10325-8.57082,13.73411-16.57026,11.25384-31.69812-9.8282-86.25747-42.81316-96.78735-98.01933-6.69643-35.1081,10.456-39.21837,2.70173-83.0641C12.14786,79.33239-.64232,68.6689,7.27933,52.73165c5.79311-11.65492,19.59553-18.40074,30.38524-19.50199,12.30572-1.256,14.25324,5.48739,32.79452,9.48389,25.30204,5.45377,35.14261-4.2011,48.37926,5.08513.7578.53163,10.47112,7.62642,12.78993,19.55938,1.6635,8.56069-1.23176,16.18387-2.59713,19.77886-2.91357,7.67138-6.17192,9.64006-8.34144,18.42704-.70373,2.85019-1.5267,6.18332-1.32883,10.58833.50797,11.30834,7.01345,13.42938,5.98306,22.64542-.60201,5.38493-2.49776,10.79259-2.49781,10.79267-.73133,2.08621-1.60081,4.10604-1.89325,7.15313-.2803,2.92052.12447,5.08871.2443,5.82785,1.53028,9.43783-2.73126,18.75548-10.47977,24.69999-8.33624,6.40285-13.84948,16.13319-14.32904,27.21019-.1646,3.80237.27323,7.48731,1.23847,10.97615,2.8006,10.17906,10.82361,17.11887,13.45862,19.58808.89971.8342,1.81551,1.59628,2.74399,2.29079,11.70874,8.75822,18.20146,22.51616,17.60568,36.80251l-.46663,11.18957Z" fill="#cfecf8" stroke="#05415a" stroke-miterlimit="10" stroke-width="3.84485"/><ellipse cx="132.94124" cy="216.41249" rx="31.22708" ry="30.141" fill="url(#c)" stroke="#134d26" stroke-miterlimit="10" stroke-width="1.63406"/><path d="M235.83028,140.00101c-.03284-42.81042,29.81579-56.53714,18.91384-86.2371-4.42724-12.06097-15.62967-26.9566-28.85085-28.07202-9.5691-.8074-12.89316,6.21989-29.23296,7.53635-12.84586,1.03473-14.38682-3.0191-24.75222-.87172-12.28561,2.54485-20.21862,10.38553-24.55552,14.53343-4.92975,4.71506-10.97551,10.49735-12.70595,19.61023-1.62689,8.56716,1.30102,16.1789,2.68176,19.76839,2.94642,7.65969,6.21321,9.61548,8.42029,18.3936.11706.46555.23737.944.35596,1.43794.00185.00771.00372.01554.00561.02346.39818,1.67112,1.41286,3.13965,2.8673,4.1243,2.0398,1.38094,4.14289,2.90053,6.28219,4.57158.05574.04353.11136.08706.16688.13059,5.71255,4.47879,7.31203,12.20769,4.02465,18.56332-3.30122,6.38238-2.11226,7.00197-1.93925,10.67014.21579,4.57456,2.43077,8.45051,4.98765,11.49193,1.61335,1.91908,2.03759,4.50864,1.02554,6.7788-.61074,1.36998-1.14844,3.04667-1.37802,4.99585-.22645,1.92264-.09982,3.65793.17508,5.13096.45541,2.44026-1.32407,4.74241-3.87084,5.06703h-.00002c-4.40395.56135-5.94611,5.95529-2.46375,8.61729l.08324.06363c6.90967,6.62474,7.92692,11.66511,7.68645,14.9422-.48919,6.66762-6.37349,8.60404-6.11313,15.1889.25869,6.54589,6.16735,7.00607,5.97954,13.58124-.19503,6.82809-6.76331,13.19875-7.67349,14.0631-.69634.661-1.31129,1.17098-1.73867,1.51036-1.36259,1.07968-2.44439,1.69757-3.62186,2.57575-1.81319,1.35242-3.77901,3.08053-5.77838,5.33427-8.03211,9.05401-11.43019,21.11437-9.7029,32.91694l1.17436,8.02443c.37203,8.08922,8.61359,13.70251,16.59061,11.19616,27.44574-8.62272,58.87504-29.89939,67.61355-40.42787,10.20011-12.28945,25.65338-30.90761,28.78086-57.98548,3.58167-31.00974-13.4128-34.92639-13.43758-67.24799Z" fill="#cfecf8" stroke="#05415a" stroke-miterlimit="10" stroke-width="3.84485"/></svg>