<?xml version="1.0" encoding="UTF-8"?><svg id="Layer_1" xmlns="http://www.w3.org/2000/svg" width="277.99082" height="322.08309" xmlns:xlink="http://www.w3.org/1999/xlink" viewBox="0 0 277.99082 322.08309"><defs><linearGradient id="linear-gradient" x1="114.27407" y1="31.81162" x2="114.17409" y2="31.81162" gradientUnits="userSpaceOnUse"><stop offset="0" stop-color="#13272e"/><stop offset=".0162" stop-color="#162c34"/><stop offset=".15255" stop-color="#2e5767"/><stop offset=".29164" stop-color="#437c92"/><stop offset=".43112" stop-color="#549ab6"/><stop offset=".5712" stop-color="#61b2d1"/><stop offset=".71207" stop-color="#6bc2e5"/><stop offset=".85428" stop-color="#71ccf1"/><stop offset="1" stop-color="#73d0f5"/></linearGradient><radialGradient id="radial-gradient" cx="122.6802" cy="218.07808" fx="122.6802" fy="218.07808" r="31.91722" gradientUnits="userSpaceOnUse"><stop offset="0" stop-color="#f1f7eb"/><stop offset=".19763" stop-color="#edf5e7"/><stop offset=".36977" stop-color="#e2f1dc"/><stop offset=".53249" stop-color="#d0e9ca"/><stop offset=".68935" stop-color="#b7deb1"/><stop offset=".84204" stop-color="#97d091"/><stop offset=".98967" stop-color="#70c06a"/><stop offset="1" stop-color="#6dbf67"/></radialGradient><radialGradient id="radial-gradient-2" cx="152.1214" cy="313.78283" fx="152.1214" fy="313.78283" r="31.59545" gradientTransform="translate(25.12331 -138.09293) scale(.85112 .92464)" gradientUnits="userSpaceOnUse"><stop offset="0" stop-color="#ffecd2"/><stop offset=".20984" stop-color="#fee8c9"/><stop offset=".543" stop-color="#fedeb2"/><stop offset=".95579" stop-color="#fdce8d"/><stop offset="1" stop-color="#fdcd89"/></radialGradient></defs><path d="M114.27407,31.80662v.01001h-.09998c.02997,0,.07001,0,.09998-.01001Z" fill="url(#linear-gradient)"/><path d="M115.54158,7.86442h.00003c5.64684-1.25027,11.39884-1.99651,17.18552-2.22958l16.7858-.67609c14.36777-.5787,27.63706,7.5735,33.38086,20.50805l3.89597,8.77339-25.55768,96.49077-45.23818-18.70514-16.68132-79.47759c-2.35078-11.20019,4.85928-22.16645,16.22901-24.68381Z" fill="#cfecf8" stroke="#05415a" stroke-miterlimit="10" stroke-width="4"/><path d="M251.14519,30.73448l-39.17556,99.02979-66.03032,166.93018-7.43963-156.05005-2.5724-54.04136c-.95452-20.05276,2.57981-40.03861,10.19167-57.63157l5.82806-13.47015c3.82722-8.84569,11.15126-14.30513,19.07806-14.24748.03298.00024.06545.00046.09739.00066,33.73713.15991,62.32624,12.44971,80.01488,29.47998h.00786Z" fill="#cfecf8" stroke="#05415a" stroke-miterlimit="10" stroke-width="2.50678"/><path d="M12.62735,39.87055l42.84534,99.02979,64.93959,150.11104c2.00635,4.63776,7.98609,3.20295,8.25639-1.98108l7.15628-137.24983,2.93537-56.38489c.96424-18.52193-2.60608-36.98206-10.29546-53.23198l-9.32464-19.70571c-2.96192-6.2594-8.62364-10.13161-14.75827-10.09357l-4.23572.02626c-36.89746.15991-68.16466,12.44971-87.51029,29.47998h-.00859Z" fill="#cfecf8" stroke="#05415a" stroke-miterlimit="10" stroke-width="4"/><path d="M104.24056,306.17403c-1.52182,8.45181-10.67651,13.201-18.41402,9.47541-30.66019-14.76278-81.09372-57.02658-83.717-116.41063-1.66827-37.76499,16.29515-39.66589,14.828-86.74422-1.54482-49.57039-12.9411-62.55234-2.60106-78.15537,7.56168-11.4105,22.51726-16.5465,33.60104-16.18541,12.6411.41182,13.63103,7.75845,31.8203,14.55571,24.82168,9.27577,36.18982.53182,48.23861,12.13193.68979.6641,9.49063,9.47057,10.10093,22.3126.43782,9.21285-3.60313,16.80178-5.5088,20.3806-4.06651,7.6369-7.65186,9.24394-11.12751,18.15552-1.1274,2.8906-2.44581,6.271-2.88679,10.91911-1.13204,11.93242,5.14528,15.07127,2.76041,24.59296-1.39343,5.56352-4.09995,10.96909-4.1,10.96917-1.04411,2.0854-2.21843,4.08178-2.9581,7.23669-.70896,3.02388-.61482,5.35491-.60112,6.14701.17526,10.11414-5.49561,19.28835-14.20559,24.43459-9.37172,5.54438-16.36988,14.97557-18.46801,26.52657-.7202,3.96509-.81342,7.89165-.34412,11.68664,1.3534,11.0701,8.46554,19.47649,10.77373,22.43666.78942,1.0014,1.60562,1.92942,2.4445,2.78834,10.57882,10.8316,15.14907,26.17432,12.46605,41.0752l-2.10144,11.67089Z" fill="#cfecf8" stroke="#05415a" stroke-miterlimit="10" stroke-width="4"/><path d="M252.81662,133.60204c-6.10534-44.9203,22.18107-63.41138,6.92605-93.08553-6.19504-12.05071-19.65456-26.14815-33.20439-25.50869-9.807.46267-12.1772,8.29216-28.54085,11.91056-12.86468,2.84455-15.00051-1.19845-25.19496,2.47388-12.08304,4.35265-19.0062,13.66655-22.8106,18.61298-4.32452,5.62282-9.62815,12.51852-10.08836,22.31828-.43265,9.21311,3.61264,16.79978,5.52032,20.37758,4.0708,7.63464,7.65708,9.23967,11.1377,18.14915.47294,1.21054.97946,2.50707,1.44099,3.94665l.05918.18707c1.27369,4.02734,5.49837,6.33209,9.57415,5.22318,5.48011-1.49098,11.13131,1.74285,12.62226,7.22284l12.02876,44.21171c1.49102,5.48023-1.74282,11.13143-7.22293,12.62241l-5.28674,1.43837c-4.38153,1.19209-5.17694,7.06491-1.27033,9.37953l.09333.05532c7.93833,6.00602,9.68361,11.15596,9.90488,14.62786.4502,7.06391-5.2352,9.90163-4.03758,16.7761,1.19049,6.83365,7.24063,6.50781,7.98299,13.43328.77094,7.19196-4.97839,14.77669-5.7777,15.80811-.6116.78907-1.16215,1.40846-1.54687,1.82307-1.22701,1.31958-2.23515,2.11609-3.30326,3.19889-1.64453,1.66722-3.39031,3.7496-5.09561,6.38773-6.85232,10.60094-8.58343,23.72295-5.15961,35.87257l2.32756,8.25947c1.52418,8.43781,10.6681,13.19991,18.39247,9.47777,26.5765-12.80591,55.39312-39.43628,62.75089-51.6812,8.58856-14.29269,21.60017-35.94615,20.9274-64.78928-.77047-33.03179-18.5396-34.81518-23.14912-68.72968Z" fill="#cfecf8" stroke="#05415a" stroke-miterlimit="10" stroke-width="4"/><circle cx="122.6802" cy="218.07808" r="31.91722" fill="url(#radial-gradient)" stroke="#134d26" stroke-miterlimit="10" stroke-width="1.7"/><rect x="125.16375" y="125.88137" width="58.86734" height="52.32602" rx="9.05537" ry="9.05537" transform="translate(-33.19443 43.63739) rotate(-14.52634)" fill="url(#radial-gradient-2)" stroke="#93703e" stroke-miterlimit="10" stroke-width="1.77281"/></svg>