<?xml version="1.0" encoding="UTF-8"?><svg id="a" xmlns="http://www.w3.org/2000/svg" width="523.59101" height="750.325709" viewBox="0 0 523.59101 750.325709"><path d="M437.439584,93.874597c-1.291373-2.133282-2.704864-4.222959-3.549737-6.56924-1.431089-3.97431-.560752-7.340333,2.614563-10.19554,5.448824-4.899521,12.017818-8.81281,11.388191-17.369692-.325245-4.420205-2.689723-8.648916-6.285165-11.240594" fill="none" stroke="#2b8741" stroke-miterlimit="10"/><line x1="432.045119" y1="211.110402" x2="417.595119" y2="211.110402" fill="none" stroke="#2b8741" stroke-linecap="round" stroke-miterlimit="10" stroke-width="5.25"/><line x1="125.851371" y1="597.465312" x2="136.069064" y2="607.683005" fill="none" stroke="#834029" stroke-linecap="round" stroke-miterlimit="10" stroke-width="5.25"/><line x1="61.472717" y1="606.940851" x2="72.984906" y2="598.207466" fill="none" stroke="#834029" stroke-linecap="round" stroke-miterlimit="10" stroke-width="5.25"/><line x1="91.54589" y1="632.298158" x2="105.99589" y2="632.298158" fill="none" stroke="#834029" stroke-linecap="round" stroke-miterlimit="10" stroke-width="5.25"/><line x1="91.54589" y1="641.120793" x2="105.99589" y2="641.120793" fill="none" stroke="#834029" stroke-linecap="round" stroke-miterlimit="10" stroke-width="5.25"/><path d="M87.074358,749.825709c-3.796072,0-6.873009-3.147732-6.873009-7.028955v-102.451334c0-14.395237-5.204616-28.198191-14.654044-38.86714l-50.768981-57.314225c-2.548613-2.877086-2.333831-7.321174.479423-9.927615,2.812295-2.608401,7.158745-2.386785,9.707358.490301l50.768981,57.314225c11.744905,13.2597,18.213281,30.414351,18.213281,48.304454v102.451334c0,3.881223-3.076937,7.028955-6.873009,7.028955Z" fill="#d297c1" stroke="#5c1449" stroke-miterlimit="10"/><path d="M60.604692,621.304396c-1.757228-.091059-3.479533-.86761-4.752266-2.308166l-53.579294-60.64532c-2.544606-2.879105-2.324314-7.325334.49278-9.926597,2.817192-2.603222,7.163721-2.376023,9.707369.503032l53.579294,60.64532c2.544606,2.879105,2.324314,7.325334-.49278,9.926597-1.407638,1.301661-3.198832,1.896144-4.955103,1.805135Z" fill="#d297c1" stroke="#5c1449" stroke-miterlimit="10"/><path d="M108.8929,749.825709c-3.796072,0-6.873009-3.147732-6.873009-7.028955v-111.11005c0-12.306555,4.449046-24.105158,12.527324-33.226718l56.454938-63.733246c2.546695-2.877086,6.896021-3.098702,9.707358-.490301,2.813254,2.60644,3.028036,7.050528.479423,9.927615l-56.45398,63.733246c-5.783759,6.530809-8.969046,14.979676-8.969046,23.789404v111.11005c0,3.881223-3.076937,7.028955-6.873009,7.028955Z" fill="#d297c1" stroke="#5c1449" stroke-miterlimit="10"/><path d="M135.868093,621.673366c-1.754878.115743-3.55391-.453449-4.978947-1.735156-2.851866-2.561329-3.132027-7.004033-.626443-9.918713l52.757326-61.394393c2.506417-2.9167,6.849596-3.203155,9.699672-.639742,2.851866,2.561329,3.132027,7.004033.626443,9.918713l-52.757326,61.394393c-1.253208,1.45835-2.965847,2.259155-4.720725,2.374897Z" fill="#d297c1" stroke="#5c1449" stroke-miterlimit="10"/><line x1="290.275742" y1="452.651972" x2="280.058049" y2="442.434279" fill="none" stroke="#834029" stroke-linecap="round" stroke-miterlimit="10" stroke-width="5.25"/><line x1="354.654395" y1="443.176433" x2="343.142206" y2="451.909818" fill="none" stroke="#834029" stroke-linecap="round" stroke-miterlimit="10" stroke-width="5.25"/><line x1="398.053966" y1="239.693497" x2="387.836273" y2="229.475804" fill="none" stroke="#2b8741" stroke-linecap="round" stroke-miterlimit="10" stroke-width="5.25"/><line x1="462.432619" y1="230.217958" x2="450.92043" y2="238.951343" fill="none" stroke="#2b8741" stroke-linecap="round" stroke-miterlimit="10" stroke-width="5.25"/><line x1="432.045119" y1="204.162066" x2="417.595119" y2="204.162066" fill="none" stroke="#2b8741" stroke-linecap="round" stroke-miterlimit="10" stroke-width="5.25"/><path d="M436.516651,90.946451c3.796072,0,6.873009,3.147732,6.873009,7.028955v102.451334c0,14.395237,5.204616,28.198191,14.654044,38.86714l50.768981,57.314225c2.548613,2.877086,2.333831,7.321174-.479423,9.927615-2.812295,2.608401-7.158745,2.386785-9.707358-.490301l-50.768981-57.314225c-11.744905-13.2597-18.213281-30.414351-18.213281-48.304454v-102.451334c0-3.881223,3.076937-7.028955,6.873009-7.028955Z" fill="#b2dbb6" stroke="#2b8741" stroke-miterlimit="10"/><path d="M462.986317,219.467765c1.757228.091059,3.479533.86761,4.752266,2.308166l53.579294,60.64532c2.544606,2.879105,2.324314,7.325334-.49278,9.926597-2.817192,2.603222-7.163721,2.376023-9.707369-.503032l-53.579294-60.64532c-2.544606-2.879105-2.324314-7.325334.49278-9.926597,1.407638-1.301661,3.198832-1.896144,4.955103-1.805135Z" fill="#b2dbb6" stroke="#2b8741" stroke-miterlimit="10"/><path d="M414.698109,90.946451c3.796072,0,6.873009,3.147732,6.873009,7.028955v111.11005c0,12.306555-4.449046,24.105158-12.527324,33.226718l-56.454938,63.733246c-2.546695,2.877086-6.896021,3.098702-9.707358.490301-2.813254-2.60644-3.028036-7.050528-.479423-9.927615l56.45398-63.733246c5.783759-6.530809,8.969046-14.979676,8.969046-23.789404v-111.11005c0-3.881223,3.076937-7.028955,6.873009-7.028955Z" fill="#b2dbb6" stroke="#2b8741" stroke-miterlimit="10"/><path d="M387.722917,219.098794c1.754878-.115743,3.55391.453449,4.978947,1.735156,2.851866,2.561329,3.132027,7.004033.626443,9.918713l-52.757326,61.394393c-2.506417,2.9167-6.849596,3.203155-9.699672.639742-2.851866-2.561329-3.132027-7.004033-.626443-9.918713l52.757326-61.394393c1.253208-1.45835,2.965847-2.259155,4.720725-2.374897Z" fill="#b2dbb6" stroke="#2b8741" stroke-miterlimit="10"/><circle cx="440.578581" cy="25.451469" r="24.951469" fill="#f3cf99" stroke="#8a6834" stroke-miterlimit="10"/><circle cx="208.2073" cy="524.502721" r="24.951469" fill="#a4dff9" stroke="#2e2f82" stroke-miterlimit="10"/><line x1="324.581222" y1="413.967274" x2="310.131222" y2="413.967274" fill="none" stroke="#834029" stroke-linecap="round" stroke-miterlimit="10" stroke-width="5.25"/><line x1="324.581222" y1="405.964931" x2="310.131222" y2="405.964931" fill="none" stroke="#834029" stroke-linecap="round" stroke-miterlimit="10" stroke-width="5.25"/><path d="M329.052754,300.291575c3.796072,0,6.873009,3.147732,6.873009,7.028955v102.451334c0,14.395237,5.204616,28.198191,14.654044,38.86714l50.768981,57.314225c2.548613,2.877086,2.333831,7.321174-.479423,9.927615-2.812295,2.608401-7.158745,2.386785-9.707358-.490301l-50.768981-57.314225c-11.744905-13.2597-18.213281-30.414351-18.213281-48.304454v-102.451334c0-3.881223,3.076937-7.028955,6.873009-7.028955Z" fill="#fbc7b5" stroke="#6b4133" stroke-miterlimit="10"/><path d="M355.52242,428.812889c1.757228.091059,3.479533.86761,4.752266,2.308166l53.579294,60.64532c2.544606,2.879105,2.324314,7.325334-.49278,9.926597-2.817192,2.603222-7.163721,2.376023-9.707369-.503032l-53.579294-60.64532c-2.544606-2.879105-2.324314-7.325334.49278-9.926597,1.407638-1.301661,3.198832-1.896144,4.955103-1.805135Z" fill="#fbc7b5" stroke="#6b4133" stroke-miterlimit="10"/><path d="M307.234212,300.291575c3.796072,0,6.873009,3.147732,6.873009,7.028955v111.11005c0,12.306555-4.449046,24.105158-12.527324,33.226718l-56.454938,63.733246c-2.546695,2.877086-6.896021,3.098702-9.707358.490301-2.813254-2.60644-3.028036-7.050528-.479423-9.927615l56.45398-63.733246c5.783759-6.530809,8.969046-14.979676,8.969046-23.789404v-111.11005c0-3.881223,3.076937-7.028955,6.873009-7.028955Z" fill="#fbc7b5" stroke="#6b4133" stroke-miterlimit="10"/><path d="M280.259019,428.443919c1.754878-.115743,3.55391.453449,4.978947,1.735156,2.851866,2.561329,3.132027,7.004033.626443,9.918713l-52.757326,61.394393c-2.506417,2.9167-6.849596,3.203155-9.699672.639742-2.851866-2.561329-3.132027-7.004033-.626443-9.918713l52.757326-61.394393c1.253208-1.45835,2.965847-2.259155,4.720725-2.374897Z" fill="#fbc7b5" stroke="#6b4133" stroke-miterlimit="10"/></svg>