<?xml version="1.0" encoding="UTF-8"?><svg id="Layer_1" xmlns="http://www.w3.org/2000/svg" width="566.18984" height="355.791632" xmlns:xlink="http://www.w3.org/1999/xlink" viewBox="0 0 566.18984 355.791632"><defs><radialGradient id="radial-gradient" cx="295.917496" cy="184.35361" fx="295.917496" fy="184.35361" r="243.430171" gradientTransform="translate(4.771062) scale(.940545 1)" gradientUnits="userSpaceOnUse"><stop offset="0" stop-color="#fff6ed"/><stop offset=".557291" stop-color="#ffedda"/><stop offset="1" stop-color="#ffe5c9"/></radialGradient><radialGradient id="radial-gradient-2" cx="411.967208" cy="27.629986" fx="411.967208" fy="27.629986" r="6.737645" gradientUnits="userSpaceOnUse"><stop offset="0" stop-color="#feeae2"/><stop offset=".219672" stop-color="#fde7de"/><stop offset=".434006" stop-color="#fdded2"/><stop offset=".646177" stop-color="#fcd0be"/><stop offset=".855738" stop-color="#fbbca3"/><stop offset="1" stop-color="#fbac8c"/></radialGradient><radialGradient id="radial-gradient-3" cx="354.633875" cy="13.973132" fx="354.633875" fy="13.973132" r="6.737645" xlink:href="#radial-gradient-2"/><radialGradient id="radial-gradient-4" cx="291.522764" cy="7.144705" fx="291.522764" fy="7.144705" r="6.737645" xlink:href="#radial-gradient-2"/><radialGradient id="radial-gradient-5" cx="223.07832" cy="9.366927" fx="223.07832" fy="9.366927" r="6.737645" xlink:href="#radial-gradient-2"/><radialGradient id="radial-gradient-6" cx="157.300542" cy="20.801559" fx="157.300542" fy="20.801559" r="6.737645" xlink:href="#radial-gradient-2"/><radialGradient id="radial-gradient-7" cx="105.744986" cy="36.357115" fx="105.744986" fy="36.357115" r="6.737645" xlink:href="#radial-gradient-2"/><radialGradient id="radial-gradient-8" cx="54.633875" cy="59.91267" fx="54.633875" fy="59.91267" r="6.737645" xlink:href="#radial-gradient-2"/><radialGradient id="radial-gradient-9" cx="40.977021" cy="130.053335" fx="40.977021" fy="130.053335" xlink:href="#radial-gradient-2"/><radialGradient id="radial-gradient-10" cx="82.711322" cy="164.880292" fx="82.711322" fy="164.880292" r="6.737645" xlink:href="#radial-gradient-2"/><radialGradient id="radial-gradient-11" cx="82.711402" cy="164.880285" fx="82.711402" fy="164.880285" r="6.856393" xlink:href="#radial-gradient-2"/><radialGradient id="radial-gradient-12" cx="124.24459" cy="198.051858" fx="124.24459" fy="198.051858" r="6.856393" xlink:href="#radial-gradient-2"/><radialGradient id="radial-gradient-13" cx="124.24459" cy="140.901088" fx="124.24459" fy="140.901088" r="6.856393" xlink:href="#radial-gradient-2"/><radialGradient id="radial-gradient-14" cx="188.65244" cy="171.708712" fx="188.65244" fy="171.708712" r="6.856393" xlink:href="#radial-gradient-2"/><radialGradient id="radial-gradient-15" cx="186.154202" cy="120.725524" fx="186.154202" fy="120.725524" r="6.856393" xlink:href="#radial-gradient-2"/><radialGradient id="radial-gradient-16" cx="253.428214" cy="159.836635" fx="253.428214" fy="159.836635" r="6.856393" xlink:href="#radial-gradient-2"/><radialGradient id="radial-gradient-17" cx="317.872658" cy="162.053328" fx="317.872658" fy="162.053328" r="6.856393" xlink:href="#radial-gradient-2"/><radialGradient id="radial-gradient-18" cx="391.482007" cy="181.788993" fx="391.482007" fy="181.788993" r="6.856393" xlink:href="#radial-gradient-2"/><radialGradient id="radial-gradient-19" cx="469.017938" cy="306.233437" fx="469.017938" fy="306.233437" r="6.856393" xlink:href="#radial-gradient-2"/><radialGradient id="radial-gradient-20" cx="342.472195" cy="224.011215" fx="342.472195" fy="224.011215" r="6.856393" xlink:href="#radial-gradient-2"/><radialGradient id="radial-gradient-21" cx="469.017938" cy="228.900104" fx="469.017938" fy="228.900104" r="6.856393" xlink:href="#radial-gradient-2"/><radialGradient id="radial-gradient-22" cx="515.861052" cy="277.344548" fx="515.861052" fy="277.344548" r="6.856393" xlink:href="#radial-gradient-2"/><radialGradient id="radial-gradient-23" cx="246.598647" cy="110.503301" fx="246.598647" fy="110.503301" r="6.856393" xlink:href="#radial-gradient-2"/><radialGradient id="radial-gradient-24" cx="319.93198" cy="112.58047" fx="319.93198" fy="112.58047" r="6.856393" xlink:href="#radial-gradient-2"/><radialGradient id="radial-gradient-25" cx="398.310434" cy="131.691581" fx="398.310434" fy="131.691581" r="6.856393" xlink:href="#radial-gradient-2"/><radialGradient id="radial-gradient-26" cx="519.245688" cy="209.209334" fx="519.245688" fy="209.209334" r="6.856393" xlink:href="#radial-gradient-2"/><radialGradient id="radial-gradient-27" cx="29.822433" cy="204.880292" fx="29.822433" fy="204.880292" xlink:href="#radial-gradient-2"/><radialGradient id="radial-gradient-28" cx="34.148594" cy="274.65807" fx="34.148594" fy="274.65807" xlink:href="#radial-gradient-2"/><radialGradient id="radial-gradient-29" cx="202.310354" cy="66.458413" fx="202.310354" fy="66.458413" r="6.737645" xlink:href="#radial-gradient-2"/><radialGradient id="radial-gradient-30" cx="277.86591" cy="59.91267" fx="277.86591" fy="59.91267" r="6.737645" xlink:href="#radial-gradient-2"/><radialGradient id="radial-gradient-31" cx="335.680241" cy="65.521184" fx="335.680241" fy="65.521184" r="6.737645" xlink:href="#radial-gradient-2"/><radialGradient id="radial-gradient-32" cx="397.199243" cy="80.115268" fx="397.199243" fy="80.115268" r="6.737645" xlink:href="#radial-gradient-2"/><radialGradient id="radial-gradient-33" cx="448.532576" cy="98.922483" fx="448.532576" fy="98.922483" r="6.737645" xlink:href="#radial-gradient-2"/><radialGradient id="radial-gradient-34" cx="492.977021" cy="123.224908" fx="492.977021" fy="123.224908" r="6.737645" xlink:href="#radial-gradient-2"/><radialGradient id="radial-gradient-35" cx="492.977021" cy="123.224908" fx="492.977021" fy="123.224908" r="6.737645" xlink:href="#radial-gradient-2"/><radialGradient id="radial-gradient-36" cx="535.40184" cy="155.224908" fx="535.40184" fy="155.224908" r="6.737645" xlink:href="#radial-gradient-2"/><radialGradient id="radial-gradient-37" cx="462.189431" cy="48.115268" fx="462.189431" fy="48.115268" r="6.737645" xlink:href="#radial-gradient-2"/><radialGradient id="radial-gradient-38" cx="521.744986" cy="80.115268" fx="521.744986" fy="80.115268" r="6.737645" xlink:href="#radial-gradient-2"/></defs><path d="M507.095011,328.333497c13.174587,25.482701,43.686994,17.707773,26.18993-10.796756-.733393-1.194773-24.988482-43.611437-51.696278-68.690548-33.554443-33.691406-88.528076-64.248047-146.893066-75.599121-58.165527-12.444336-119.740723-5.681641-162.071777,10.121094-43.100708,14.713379-60.65663,30.599031-67.410278,34.888672-15.710186,10.006655-22.502219-6.73184-9.383179-15.978027,9.766457-8.385688,27.59314-21.41748,70.510498-36.06543,42.273682-15.643066,102.303467-22.956543,159.564941-13.054688,57.399414,8.935059,112.044922,35.085449,146.890625,64.137207,35.778076,28.116699,55.464248,59.235283,56.55099,60.558323,18.817352,22.908945,41.369703,9.426755,25.616813-15.089948-2.969262-4.621153-51.789092-59.39954-52.701225-60.473074-11.701318-13.771864,3.216099-21.51188,17.90891-7.386415,14.206787,14.501953,28.091571,29.106429,39.881592,22.387207,11.913683-8.082659-1.854294-26.320733-10.833252-37.706543-4.603027-4.360352-27.955566-30.332031-65.270996-52.64209-36.936768-23.071777-87.83667-42.480957-138.78418-51.249023-50.888672-9.380859-101.831055-8.116211-137.555664-3.901367-35.989868,3.751465-48.753337,13.655707-53.409912,1.277344-2.787869-9.732747,13.675293-14.242676,46.287109-21.104004,32.411133-7.276367,78.864746-9.6875,125.111328-3.155762,46.323242,6.06543,92.444824,21.072266,125.998047,37.880371,33.908447,16.289551,50.14898,27.498499,60.209229,34.665527,16.59668,10.943359,33.481445,15.483398,37.743408,7.349609,8.114502-9.638672-15.788938-29.783573-23.948975-36.216797-26.447275-17.262804-37.515869-26.585938-81.199463-44.253906-43.304199-18.363281-101.192871-31.791016-158.419922-33.473145-57.210938-2.302734-113.765747,7.140625-154.11438,20.229004-40.70166,12.541504-68.32407,28.435443-69.221074,28.993576-31.847913,19.816381-24.422403,40.857545,2.569657,33.510809,4.309115-1.172861,19.54247-7.317932,21.668788-7.638381,19.27922-2.905496,13.09253,16.715071-5.635047,24.984581-8.398966,4.658905-25.27124,14.095703-39.164307,24.245117-9.484375,6.899414-10.113037,7.231445-14.510376,10.82959-18.273003,19.057056,6.575067,37.458098,23.387085,22.800293,11.717432-7.928318,32.252686-25.363281,70.843872-42.157715,38.193726-17.482422,89.8479-30.011719,140.814209-31.057129,50.959717-1.65625,101.23999,8.172852,136.588867,21.371582,35.737549,12.664551,49.325016,20.575141,57.507568,27.180664,29.432571,23.320403,8.289099,29.246329-9.784975,17.098181-15.111111-8.592593-51.756284-29.634802-102.379087-40.37113-50.111816-11.862305-114.106934-11.370117-171.589478,5.509766-57.676758,15.998535-108.854248,48.387207-137.922241,80.077148-29.97644,31.056152-39.66475,51.673105-29.84375,58.730469,9.790394,7.035371,25.698853-6.539062,37.734131-21.120605,18.510132-15.312012,22.605347,5.175293,12.00354,14.263672-18.943726,20.354492-58.202257,60.762201-39.471924,76.523618,10.284151,8.654027,22.149048-12.980161,50.161988-43.604673,26.93396-31.432129,71.249634-64.92334,121.531982-82.428223,49.906494-18.444824,105.793213-20.906738,147.354736-11.919922,41.899414,7.910645,69.473633,27.269043,70.532471,27.671387,22.372803,16.395996-.323486,32.259277-13.202148,22.254883-12.117188-5.102051-34.966797-17.580566-55.736084-22.414551-20.556641-5.307617-39.033203-2.97168-37.493408,10.620605,1.598389,11.706543,14.36792,14.372559,16.161865,14.247559,9.344482,1.054199,51.777588,10.592285,84.123291,34.597168,33.591553,21.685059,57.095459,57.837402,57.35791,58.544922,6.056641,7.384277,15.82666,10.643066,21.695557,5.350098,7.82373-5.61377,2.147461-20.645996-7.755371-33.853027-9.753174-13.542969-23.732666-25.259766-29.039551-31.995117-5.645752-6.796387-5.531982-15.078613.036865-18.889648,6.65332-7.047363,22.177246,2.565918,35.384521,17.842285,13.540527,14.970703,24.763672,35.603516,30.519043,43.544434Z" fill="url(#radial-gradient)" stroke="#9a8479" stroke-miterlimit="10" stroke-width="3"/><path d="M418.795617,27.630062c.129408,8.859547-13.787365,8.859666-13.656817-.000611-.129445-8.858936,13.787328-8.859055,13.656817.000611Z" fill="url(#radial-gradient-2)" stroke="#744f48" stroke-miterlimit="10"/><path d="M361.462284,13.973208c.129408,8.859547-13.787365,8.859666-13.656817-.000611-.129445-8.858936,13.787328-8.859055,13.656817.000611Z" fill="url(#radial-gradient-3)" stroke="#744f48" stroke-miterlimit="10"/><path d="M298.351173,7.144781c.129408,8.859547-13.787365,8.859666-13.656817-.000611-.129445-8.858936,13.787328-8.859055,13.656817.000611Z" fill="url(#radial-gradient-4)" stroke="#744f48" stroke-miterlimit="10"/><path d="M229.906728,9.367003c.129408,8.859547-13.787365,8.859666-13.656817-.000611-.129445-8.858936,13.787328-8.859055,13.656817.000611Z" fill="url(#radial-gradient-5)" stroke="#744f48" stroke-miterlimit="10"/><path d="M164.12895,20.801635c.129408,8.859547-13.787365,8.859666-13.656817-.000611-.129445-8.858936,13.787328-8.859055,13.656817.000611Z" fill="url(#radial-gradient-6)" stroke="#744f48" stroke-miterlimit="10"/><path d="M112.573395,36.357191c.129408,8.859547-13.787365,8.859666-13.656817-.000611-.129445-8.858936,13.787328-8.859055,13.656817.000611Z" fill="url(#radial-gradient-7)" stroke="#744f48" stroke-miterlimit="10"/><path d="M61.462284,59.912746c.129408,8.859547-13.787365,8.859666-13.656817-.000611-.129445-8.858936,13.787328-8.859055,13.656817.000611Z" fill="url(#radial-gradient-8)" stroke="#744f48" stroke-miterlimit="10"/><path d="M47.80543,130.053412c.129408,8.859547-13.787365,8.859666-13.656817-.000611-.129445-8.858936,13.787328-8.859055,13.656817.000611Z" fill="url(#radial-gradient-9)" stroke="#744f48" stroke-miterlimit="10"/><path d="M89.539731,164.880368c.129408,8.859547-13.787365,8.859666-13.656817-.000611-.129445-8.858936,13.787328-8.859055,13.656817.000611Z" fill="url(#radial-gradient-10)" stroke="#744f48" stroke-miterlimit="10"/><path d="M86.125517,170.793959c-7.607866,4.541848-14.566377-7.510393-6.827879-11.827456,7.607318-4.541574,14.565829,7.510666,6.827879,11.827456Z" fill="url(#radial-gradient-11)" stroke="#744f48" stroke-miterlimit="10"/><path d="M127.658705,203.965532c-7.607866,4.541848-14.566377-7.510393-6.827879-11.827456,7.607318-4.541574,14.565829,7.510666,6.827879,11.827456Z" fill="url(#radial-gradient-12)" stroke="#744f48" stroke-miterlimit="10"/><path d="M127.658705,146.814762c-7.607866,4.541848-14.566377-7.510393-6.827879-11.827456,7.607318-4.541574,14.565829,7.510666,6.827879,11.827456Z" fill="url(#radial-gradient-13)" stroke="#744f48" stroke-miterlimit="10"/><path d="M192.066555,177.622387c-7.607866,4.541848-14.566377-7.510393-6.827879-11.827456,7.607318-4.541574,14.565829,7.510666,6.827879,11.827456Z" fill="url(#radial-gradient-14)" stroke="#744f48" stroke-miterlimit="10"/><path d="M189.568317,126.639198c-7.607866,4.541848-14.566377-7.510393-6.827879-11.827456,7.607318-4.541574,14.565829,7.510666,6.827879,11.827456Z" fill="url(#radial-gradient-15)" stroke="#744f48" stroke-miterlimit="10"/><path d="M256.842329,165.750309c-7.607866,4.541848-14.566377-7.510393-6.827879-11.827456,7.607318-4.541574,14.565829,7.510666,6.827879,11.827456Z" fill="url(#radial-gradient-16)" stroke="#744f48" stroke-miterlimit="10"/><path d="M321.286773,167.967003c-7.607866,4.541848-14.566377-7.510393-6.827879-11.827456,7.607318-4.541574,14.565829,7.510666,6.827879,11.827456Z" fill="url(#radial-gradient-17)" stroke="#744f48" stroke-miterlimit="10"/><path d="M394.896122,187.702667c-7.607866,4.541848-14.566377-7.510393-6.827879-11.827456,7.607318-4.541574,14.565829,7.510666,6.827879,11.827456Z" fill="url(#radial-gradient-18)" stroke="#744f48" stroke-miterlimit="10"/><path d="M472.432053,312.147112c-7.607866,4.541848-14.566377-7.510393-6.827879-11.827456,7.607318-4.541574,14.565829,7.510666,6.827879,11.827456Z" fill="url(#radial-gradient-19)" stroke="#744f48" stroke-miterlimit="10"/><path d="M345.88631,229.924889c-7.607866,4.541848-14.566377-7.510393-6.827879-11.827456,7.607318-4.541574,14.565829,7.510666,6.827879,11.827456Z" fill="url(#radial-gradient-20)" stroke="#744f48" stroke-miterlimit="10"/><path d="M472.432053,234.813778c-7.607866,4.541848-14.566377-7.510393-6.827879-11.827456,7.607318-4.541574,14.565829,7.510666,6.827879,11.827456Z" fill="url(#radial-gradient-21)" stroke="#744f48" stroke-miterlimit="10"/><path d="M519.275167,283.258223c-7.607866,4.541848-14.566377-7.510393-6.827879-11.827456,7.607318-4.541574,14.565829,7.510666,6.827879,11.827456Z" fill="url(#radial-gradient-22)" stroke="#744f48" stroke-miterlimit="10"/><path d="M250.012762,116.416976c-7.607866,4.541848-14.566377-7.510393-6.827879-11.827456,7.607318-4.541574,14.565829,7.510666,6.827879,11.827456Z" fill="url(#radial-gradient-23)" stroke="#744f48" stroke-miterlimit="10"/><path d="M323.346095,118.494145c-7.607866,4.541848-14.566377-7.510393-6.827879-11.827456,7.607318-4.541574,14.565829,7.510666,6.827879,11.827456Z" fill="url(#radial-gradient-24)" stroke="#744f48" stroke-miterlimit="10"/><path d="M401.724549,137.605256c-7.607866,4.541848-14.566377-7.510393-6.827879-11.827456,7.607318-4.541574,14.565829,7.510666,6.827879,11.827456Z" fill="url(#radial-gradient-25)" stroke="#744f48" stroke-miterlimit="10"/><path d="M522.659804,215.123009c-7.607866,4.541848-14.566377-7.510393-6.827879-11.827456,7.607318-4.541574,14.565829,7.510666,6.827879,11.827456Z" fill="url(#radial-gradient-26)" stroke="#744f48" stroke-miterlimit="10"/><path d="M36.650842,204.880368c.129408,8.859547-13.787365,8.859666-13.656817-.000611-.129445-8.858936,13.787328-8.859055,13.656817.000611Z" fill="url(#radial-gradient-27)" stroke="#744f48" stroke-miterlimit="10"/><path d="M40.977002,274.658146c.129408,8.859547-13.787365,8.859666-13.656817-.000611-.129445-8.858936,13.787328-8.859055,13.656817.000611Z" fill="url(#radial-gradient-28)" stroke="#744f48" stroke-miterlimit="10"/><path d="M209.138763,66.45849c.129408,8.859547-13.787365,8.859666-13.656817-.000611-.129445-8.858936,13.787328-8.859055,13.656817.000611Z" fill="url(#radial-gradient-29)" stroke="#744f48" stroke-miterlimit="10"/><path d="M284.694318,59.912746c.129408,8.859547-13.787365,8.859666-13.656817-.000611-.129445-8.858936,13.787328-8.859055,13.656817.000611Z" fill="url(#radial-gradient-30)" stroke="#744f48" stroke-miterlimit="10"/><path d="M342.50865,65.52126c.129408,8.859547-13.787365,8.859666-13.656817-.000611-.129445-8.858936,13.787328-8.859055,13.656817.000611Z" fill="url(#radial-gradient-31)" stroke="#744f48" stroke-miterlimit="10"/><path d="M404.027652,80.115344c.129408,8.859547-13.787365,8.859666-13.656817-.000611-.129445-8.858936,13.787328-8.859055,13.656817.000611Z" fill="url(#radial-gradient-32)" stroke="#744f48" stroke-miterlimit="10"/><path d="M455.360985,98.922559c.129408,8.859547-13.787365,8.859666-13.656817-.000611-.129445-8.858936,13.787328-8.859055,13.656817.000611Z" fill="url(#radial-gradient-33)" stroke="#744f48" stroke-miterlimit="10"/><path d="M499.80543,123.224984c.129408,8.859547-13.787365,8.859666-13.656817-.000611-.129445-8.858936,13.787328-8.859055,13.656817.000611Z" fill="url(#radial-gradient-34)" stroke="#744f48" stroke-miterlimit="10"/><path d="M499.80543,123.224984c.129408,8.859547-13.787365,8.859666-13.656817-.000611-.129445-8.858936,13.787328-8.859055,13.656817.000611Z" fill="url(#radial-gradient-35)" stroke="#744f48" stroke-miterlimit="10"/><path d="M542.230249,155.224984c.129408,8.859547-13.787365,8.859666-13.656817-.000611-.129445-8.858936,13.787328-8.859055,13.656817.000611Z" fill="url(#radial-gradient-36)" stroke="#744f48" stroke-miterlimit="10"/><path d="M469.017839,48.115344c.129408,8.859547-13.787365,8.859666-13.656817-.000611-.129445-8.858936,13.787328-8.859055,13.656817.000611Z" fill="url(#radial-gradient-37)" stroke="#744f48" stroke-miterlimit="10"/><path d="M528.573395,80.115344c.129408,8.859547-13.787365,8.859666-13.656817-.000611-.129445-8.858936,13.787328-8.859055,13.656817.000611Z" fill="url(#radial-gradient-38)" stroke="#744f48" stroke-miterlimit="10"/></svg>