<?xml version="1.0" encoding="UTF-8"?><svg id="Layer_1" xmlns="http://www.w3.org/2000/svg" width="103.466797" height="743.711914" xmlns:xlink="http://www.w3.org/1999/xlink" viewBox="0 0 103.466797 743.711914"><defs><linearGradient id="linear-gradient" x1=".5" y1="371.855957" x2="102.966797" y2="371.855957" gradientUnits="userSpaceOnUse"><stop offset=".00838" stop-color="#d1d5f2"/><stop offset=".530726" stop-color="#e5e7f7"/><stop offset=".769348" stop-color="#c8cdee"/><stop offset="1" stop-color="#b2b8e8"/></linearGradient><linearGradient id="linear-gradient-2" x1="1.482747" y1="77.780563" x2="102.07534" y2="77.780563" gradientUnits="userSpaceOnUse"><stop offset=".003314" stop-color="#5d67b9"/><stop offset=".033104" stop-color="#646ebc"/><stop offset=".170803" stop-color="#848cca"/><stop offset=".30399" stop-color="#9ba1d4"/><stop offset=".429571" stop-color="#a9aed9"/><stop offset=".539602" stop-color="#aeb3dc"/><stop offset=".638693" stop-color="#a9afda"/><stop offset=".742912" stop-color="#9da3d4"/><stop offset=".849484" stop-color="#888fcb"/><stop offset=".957013" stop-color="#6a74bf"/><stop offset="1" stop-color="#5d67b9"/></linearGradient><linearGradient id="linear-gradient-3" x1="1.001266" y1="303.558341" x2="102.45497" y2="303.558341" xlink:href="#linear-gradient-2"/><linearGradient id="linear-gradient-4" x1="1.001266" y1="451.382227" x2="102.45497" y2="451.382227" xlink:href="#linear-gradient-2"/><linearGradient id="linear-gradient-5" x1=".968551" y1="126.238651" x2="102.498246" y2="126.238651" xlink:href="#linear-gradient-2"/><linearGradient id="linear-gradient-6" x1="1.014196" y1="363.707809" x2="102.543891" y2="363.707809" xlink:href="#linear-gradient-2"/><linearGradient id="linear-gradient-7" x1="1.014196" y1="552.116898" x2="102.543891" y2="552.116898" xlink:href="#linear-gradient-2"/><linearGradient id="linear-gradient-8" x1="1.014196" y1="651.968749" x2="102.543891" y2="651.968749" xlink:href="#linear-gradient-2"/><linearGradient id="linear-gradient-9" x1="1.014188" y1="674.031815" x2="102.543883" y2="674.031815" xlink:href="#linear-gradient-2"/><linearGradient id="linear-gradient-10" x1="1.019784" y1="203.706543" x2="102.44571" y2="203.706543" xlink:href="#linear-gradient-2"/></defs><path d="M102.966797,162.353516V51.732422C102.966797,23.4375,80.028809.5,51.733398.5h0C23.437988.5.5,23.4375.5,51.732422v110.621094c0,16.998047,8.28418,32.054688,21.02832,41.374023C8.78418,213.047852.5,228.103516.5,245.101562v446.876953c0,28.295898,22.937988,51.233398,51.233398,51.233398h0c28.29541,0,51.233398-22.9375,51.233398-51.233398V245.101562c0-16.998047-8.28418-32.053711-21.02832-41.374023,12.744141-9.319336,21.02832-24.375977,21.02832-41.374023Z" fill="url(#linear-gradient)" opacity=".99" stroke="#142297" stroke-miterlimit="10"/><polygon points="101.94571 94.076859 1.482747 94.076859 1.482747 61.484266 102.07534 61.484266 101.94571 94.076859" fill="url(#linear-gradient-2)"/><rect x="1.001266" y="278.965748" width="101.453704" height="49.185185" fill="url(#linear-gradient-3)"/><rect x="1.001266" y="417.884686" width="101.453704" height="66.995083" fill="url(#linear-gradient-4)"/><polygon points="102.367409 134.386799 .968551 134.386799 .968551 118.090503 102.498246 118.090503 102.367409 134.386799" fill="url(#linear-gradient-5)"/><polygon points="102.413054 371.855957 1.014196 371.855957 1.014196 355.559661 102.543891 355.559661 102.413054 371.855957" fill="url(#linear-gradient-6)"/><polygon points="102.413054 562.247612 1.014196 562.247612 1.014196 541.986183 102.543891 541.986183 102.413054 562.247612" fill="url(#linear-gradient-7)"/><polygon points="102.413054 662.099464 1.014196 662.099464 1.014196 641.838035 102.543891 641.838035 102.413054 662.099464" fill="url(#linear-gradient-8)"/><polygon points="102.413045 679.097172 1.014188 679.097172 1.014188 668.966457 102.543883 668.966457 102.413045 679.097172" fill="url(#linear-gradient-9)"/><path d="M102.44571,163.484375H1.019784c.351664,16.53125,8.351852,30.333225,21.206812,40.243164-12.280886,8.97895-21.058664,23.664135-21.206812,40.201172h101.425926c-.407407-17.111111-8.814815-31-21.205391-40.201172,12.390576-9.058087,20.909095-23.317347,21.205391-40.243164Z" fill="url(#linear-gradient-10)"/></svg>