<?xml version="1.0" encoding="UTF-8"?><svg id="Layer_1" xmlns="http://www.w3.org/2000/svg" width="414.28321" height="332.75968" viewBox="0 0 414.28321 332.75968"><line x1="251.90342" y1="138.95793" x2="331.90342" y2="186.69113" fill="none" stroke="#231f20" stroke-linecap="round" stroke-miterlimit="10" stroke-width="4"/><line x1="247.56709" y1="139.52584" x2="247.56706" y2="46.3676" fill="none" stroke="#231f20" stroke-linecap="round" stroke-miterlimit="10" stroke-width="4"/><line x1="255.27079" y1="139.52584" x2="255.27077" y2="46.3676" fill="none" stroke="#231f20" stroke-linecap="round" stroke-miterlimit="10" stroke-width="4"/><line x1="251.21442" y1="138.95793" x2="171.21442" y2="186.69113" fill="none" stroke="#231f20" stroke-linecap="round" stroke-miterlimit="10" stroke-width="4"/><text transform="translate(339.61133 205.0531)" fill="#231f20" font-family="TimesNewRomanPS-BoldMT, &apos;Times New Roman&apos;" font-size="48" font-weight="700"><tspan x="0" y="0">OH</tspan></text><text transform="translate(236.81104 39.89075)" fill="#231f20" font-family="TimesNewRomanPS-BoldMT, &apos;Times New Roman&apos;" font-size="48" font-weight="700"><tspan x="0" y="0">O</tspan></text><path d="M181.4888,112.88179h0c-.13907,1.26759-1.2099,2.22735-2.48508,2.22735h-16.01907c-1.27519,0-2.34601-.95976-2.48508-2.22734h0c-.16236-1.47977.99644-2.77266,2.48509-2.77266h16.01907c1.48865,0,2.64744,1.29288,2.48509,2.77265Z" fill="#231f20"/><path d="M183.097,97.88179h0c-.16039,1.26759-1.3953,2.22735-2.8659,2.22735h-18.47383c-1.4706,0-2.70551-.95976-2.8659-2.22734h0c-.18723-1.47977,1.14913-2.77266,2.8659-2.77266h18.47383c1.71677,0,3.05313,1.29288,2.8659,2.77265Z" fill="#231f20"/><path d="M179.84305,127.88179h0c-.13907,1.26759-1.2099,2.22735-2.48508,2.22735h-12.72757c-1.27519,0-2.34601-.95976-2.48508-2.22734h0c-.16236-1.47977.99644-2.77266,2.48509-2.77266h12.72757c1.48865,0,2.64744,1.29288,2.48509,2.77265Z" fill="#231f20"/><path d="M178.1973,142.88179h0c-.13907,1.26759-1.2099,2.22735-2.48508,2.22735h-9.43607c-1.27519,0-2.34601-.95976-2.48508-2.22734h0c-.16236-1.47977.99644-2.77266,2.48509-2.77266h9.43606c1.48865,0,2.64744,1.29288,2.48509,2.77265Z" fill="#231f20"/><path d="M176.55155,157.88179h0c-.13907,1.26759-1.2099,2.22735-2.48508,2.22735h-6.14456c-1.27519,0-2.34601-.95976-2.48508-2.22734h0c-.16236-1.47977.99644-2.77266,2.48508-2.77266h6.14456c1.48865,0,2.64744,1.29288,2.48508,2.77265Z" fill="#231f20"/><path d="M174.90604,172.88179h0c-.13907,1.26759-1.2099,2.22735-2.48508,2.22735h-2.85355c-1.27519,0-2.34601-.95976-2.48508-2.22734h0c-.16236-1.47977.99644-2.77266,2.48509-2.77266h2.85354c1.48865,0,2.64744,1.29288,2.48509,2.77265Z" fill="#231f20"/><path d="M173.37232,186.86042h0c-.08783.80067-.76421,1.40692-1.56968,1.40692h-1.61691c-.80543,0-1.48179-.60618-1.56967-1.40679h0c-.1026-.93471.62935-1.75141,1.56967-1.75141h1.61691c.94028,0,1.67221.81661,1.56968,1.75128Z" fill="#231f20"/><text transform="translate(154.03704 303.61481) scale(.98383 1)" fill="#231f20" font-family="TimesNewRomanPS-BoldMT, &apos;Times New Roman&apos;" font-size="43.54998" font-weight="700"><tspan x="0" y="0">NH</tspan></text><text transform="translate(158.84157 66.43335) scale(.98383 1)" fill="#231f20" font-family="TimesNewRomanPS-BoldMT, &apos;Times New Roman&apos;" font-size="43.54998" font-weight="700"><tspan x="0" y="0">H</tspan></text><polyline points="170.99691 272.25805 170.99689 187.05278 66.84284 153.21112 2.47214 241.80985 66.84289 330.40854 148.37497 303.91714" fill="none" stroke="#231f20" stroke-linecap="round" stroke-miterlimit="10" stroke-width="4"/></svg>