<?xml version="1.0" encoding="UTF-8"?><svg id="Layer_1" xmlns="http://www.w3.org/2000/svg" width="666.968673" height="592.733974" viewBox="0 0 666.968673 592.733974"><rect x="272.592984" y="409.456389" width="158.220415" height="62.663821" rx="28.167388" ry="28.167388" fill="#b5e6e3" stroke="#457570" stroke-linecap="round" stroke-miterlimit="10" stroke-width="6"/><path d="M608.592943,7.867194v36.086217c0,2.671021-2.16529,4.836312-4.836312,4.836312h-144.994003c-2.671021,0-4.836312-2.16529-4.836312-4.836312V7.867367c0-4.398781-5.442416-6.554826-8.396354-3.295452-16.385639,18.079902-26.270272,41.404144-26.270272,66.884433,0,57.437622,50.143982,104.000061,111.999939,104.000061s111.999939-46.562439,111.999939-104.000061c0-25.480287-9.884631-48.804664-26.270269-66.884603-2.953937-3.259379-8.396357-1.103334-8.396357,3.295449Z" fill="#b5e6e3" stroke="#457570" stroke-linecap="round" stroke-miterlimit="10" stroke-width="6"/><path d="M252.269839,53.37254c-4.991869,1.832091-10.506053,2.58168-16.26619,1.96034-14.430011-1.55655-26.675383-12.065373-30.555741-26.050754-.947982-3.416667-1.353745-6.763724-1.314819-10.002162.047421-3.945247-2.916377-7.344208-6.861904-7.350195-.041177-.000062-.082361-.000094-.123554-.000094-53.325623,0-96.554626,40.891296-96.554626,91.333374s43.229004,91.333374,96.554626,91.333374,96.554626-40.891296,96.554626-91.333374c0-13.379597-3.043479-26.085401-8.509782-37.534594-5.815752-12.181113-20.250885-17.006639-32.922635-12.355916Z" fill="#b5e6e3" stroke="#457570" stroke-linecap="round" stroke-miterlimit="10" stroke-width="6"/><path d="M104.193221,393.190745c-10.943751-9.323999-11.621525-23.073214-11.846721-37.448607-.225196-14.375393,1.307863-29.245206-3.700486-42.721818-7.633739-20.541129-28.229966-32.678744-46.616812-44.600822-18.386846-11.922078-37.533-28.01499-38.94695-49.883066-.777257-12.021053,4.089966-23.606617,8.860409-34.667931,8.648021-20.052322,17.461427-40.38252,31.184837-57.369335s33.220983-30.505156,54.998587-32.123752" fill="none" stroke="#457570" stroke-linecap="round" stroke-miterlimit="10" stroke-width="6"/><path d="M291.728254,84.877091c11.513547-10.551921,21.80189-19.70534,37.04753-23.092857,7.356844-1.634663,14.989513-1.388002,22.513638-.960424,5.151179.292731,10.337536.672917,15.313844,2.03552,20.156862,5.519311,31.818585,26.349129,52.656425,27.944851" fill="none" stroke="#457570" stroke-linecap="round" stroke-miterlimit="10" stroke-width="6"/><path d="M643.704095,90.754107c15.183991,31.331051,26.886942,67.468047,16.026347,100.547282-8.045176,24.504021-27.498316,43.695423-48.80537,58.227502-6.754665,4.606893-13.868347,8.945148-19.172257,15.167487-10.698624,12.551195-12.196121,30.572799-10.278763,46.953176s6.72503,32.466885,6.720926,48.959095c-.004104,16.49221-6.100631,34.398982-20.456934,42.516222-7.587959,4.290335-16.505387,5.341177-25.09262,6.839-31.996533,5.580975-85.570294,8.548472-111.832025,27.659905" fill="none" stroke="#457570" stroke-linecap="round" stroke-miterlimit="10" stroke-width="6"/><path d="M249.481873,464.91292v-57.082247c0-6.69675,1.111111-7.040951,42.011528-9.681095h39.262329c8.681576,0,13.927598-9.606526,9.244599-16.916744-25.267715-39.443205-70.389686-64.939892-121.284554-62.324727-69.111982,3.551227-125.021239,59.775459-128.209503,128.905137-3.586053,77.754753,58.391949,141.920731,135.3568,141.920731,58.221818,0,107.836446-36.730962,127.005118-88.276934,3.121721-8.394537-3.26165-17.307447-12.217842-17.307447h-44.490256c-45.789328,1.75124-46.678217-9.962581-46.678217-19.236673Z" fill="#edd1ba" stroke="#816d5d" stroke-linecap="round" stroke-miterlimit="10" stroke-width="6"/></svg>