<?xml version="1.0" encoding="UTF-8"?><svg id="a" xmlns="http://www.w3.org/2000/svg" width="278.4908" height="323.3297" xmlns:xlink="http://www.w3.org/1999/xlink" viewBox="0 0 278.4908 323.3297"><defs><linearGradient id="b" x1="114.2741" y1="32.5582" x2="114.1741" y2="32.5582" gradientUnits="userSpaceOnUse"><stop offset="0" stop-color="#13272e"/><stop offset=".0162" stop-color="#162c34"/><stop offset=".1526" stop-color="#2e5767"/><stop offset=".2916" stop-color="#437c92"/><stop offset=".4311" stop-color="#549ab6"/><stop offset=".5712" stop-color="#61b2d1"/><stop offset=".7121" stop-color="#6bc2e5"/><stop offset=".8543" stop-color="#71ccf1"/><stop offset="1" stop-color="#73d0f5"/></linearGradient><linearGradient id="c" x1="138.1303" y1="317.77" x2="138.1303" y2="55.117" gradientUnits="userSpaceOnUse"><stop offset="0" stop-color="#1d3b47"/><stop offset=".1097" stop-color="#1f3f4c"/><stop offset=".2515" stop-color="#264d5c"/><stop offset=".3598" stop-color="#2e5c6e"/><stop offset=".5993" stop-color="#448ea8"/><stop offset=".6495" stop-color="#4897b3"/><stop offset=".7446" stop-color="#4ea4c3"/><stop offset=".8526" stop-color="#51accd"/><stop offset="1" stop-color="#53afd0"/></linearGradient><radialGradient id="d" cx="128.7603" cy="226.1411" fx="128.7603" fy="226.1411" r="37.5497" gradientUnits="userSpaceOnUse"><stop offset="0" stop-color="#f1f7eb"/><stop offset=".1976" stop-color="#edf5e7"/><stop offset=".3698" stop-color="#e2f1dc"/><stop offset=".5325" stop-color="#d0e9ca"/><stop offset=".6893" stop-color="#b7deb1"/><stop offset=".842" stop-color="#97d091"/><stop offset=".9897" stop-color="#70c06a"/><stop offset="1" stop-color="#6dbf67"/></radialGradient></defs><path d="M114.2741,32.5532v.01h-.1c.03,0,.07,0,.1-.01Z" fill="url(#b)"/><path d="M115.5416,8.611h0c5.6468-1.2503,11.3988-1.9965,17.1855-2.2296l16.7858-.6761c14.3678-.5787,27.6371,7.5735,33.3809,20.508l3.896,8.7734-25.5577,96.4908-45.2382-18.7051-16.6813-79.4776c-2.3508-11.2002,4.8593-22.1665,16.229-24.6838Z" fill="#cfecf8" stroke="#05415a" stroke-miterlimit="10" stroke-width="4"/><path d="M251.1452,31.4811l-39.1756,99.0298-66.5989,155.004-6.871-144.1239-2.5724-54.0414c-.9545-20.0528,2.5798-40.0386,10.1917-57.6316l5.8281-13.4701c3.8272-8.8457,11.1513-14.3051,19.0781-14.2475.033.0002.0654.0005.0974.0007,33.7371.1599,62.3262,12.4497,80.0149,29.48h.0079Z" fill="#cfecf8" stroke="#05415a" stroke-miterlimit="10" stroke-width="4"/><path d="M12.6273,40.6172l42.8453,99.0298,64.9396,150.111c2.0063,4.6378,7.9861,3.203,8.2564-1.9811l7.1563-137.2498,2.9354-56.3849c.9642-18.5219-2.6061-36.9821-10.2955-53.232l-9.3246-19.7057c-2.9619-6.2594-8.6236-10.1316-14.7583-10.0936l-4.2357.0263c-36.8975.1599-68.1647,12.4497-87.5103,29.48h-.0086Z" fill="#cfecf8" stroke="#05415a" stroke-miterlimit="10" stroke-width="4"/><path d="M244.8437,149.7918c-6.932,69.0713-35.2314,136.0299-66.585,167.8886-1.3333,1.3548-18.5282-13.1071-39.3441-14.125-10.9488-.5354-40.5771,13.5092-41.0304,13.0436-31.3388-32.1939-64.1848-100.5034-66.9105-173.9371-1.83-49.1602,32.46-90.1899,53.77-87.4102,1.0832-.5906,3.7622.8116,7.5563,3.1958,1.4022.8812,3.0149,1.4336,4.6709,1.4177,7.0968-.0685,19.6096,7.3067,36.3027,7.3067,19.6111,0,40.6027-8.3552,51.556-4.8387,2.6201.8412,5.4949.4947,7.6687-1.1927.1515-.1176.295-.2314.4303-.3413,1.5234-1.2367,3.4552-1.8967,5.4154-1.8093,21.4078.9536,51.2999,43.1004,46.4996,90.8018Z" fill="url(#c)"/><path d="M104.2406,306.9206c-1.5218,8.4518-10.6765,13.201-18.414,9.4754-30.6602-14.7628-81.0937-57.0266-83.717-116.4106-1.6683-37.765,16.2952-39.6659,14.828-86.7442-1.5448-49.5704-12.9411-62.5523-2.6011-78.1554,7.5617-11.4105,22.5173-16.5465,33.601-16.1854,12.6411.4118,13.631,7.7585,31.8203,14.5557,24.8217,9.2758,36.1898.5318,48.2386,12.1319.6898.6641,9.4906,9.4706,10.1009,22.3126.4378,9.2128-3.6031,16.8018-5.5088,20.3806-4.0665,7.6369-7.6519,9.2439-11.1275,18.1555-1.1274,2.8906-2.4458,6.271-2.8868,10.9191-1.132,11.9324,5.1453,15.0713,2.7604,24.593-1.3934,5.5635-4.0999,10.9691-4.1,10.9692-1.0441,2.0854-2.2184,4.0818-2.9581,7.2367-.709,3.0239-.6148,5.3549-.6011,6.147.1753,10.1141-5.4956,19.2884-14.2056,24.4346-9.3717,5.5444-16.3699,14.9756-18.468,26.5266-.7202,3.9651-.8134,7.8916-.3441,11.6866,1.3534,11.0701,8.4655,19.4765,10.7737,22.4367.7894,1.0014,1.6056,1.9294,2.4445,2.7883,10.5788,10.8316,15.1491,26.1743,12.4661,41.0752l-2.1014,11.6709Z" fill="#cfecf8" stroke="#05415a" stroke-miterlimit="10" stroke-width="4"/><path d="M252.8167,134.3487c-6.1054-44.9203,22.181-63.4114,6.926-93.0856-6.1951-12.0507-19.6546-26.1482-33.2044-25.5087-9.807.4626-12.1772,8.2921-28.5409,11.9105-12.8647,2.8446-15.0005-1.1985-25.1949,2.4739-12.083,4.3527-19.0062,13.6666-22.8106,18.613-4.3245,5.6228-9.6281,12.5184-10.0883,22.3182-.4327,9.2131,3.6126,16.7998,5.5203,20.3776,4.0708,7.6346,7.6571,9.2397,11.1377,18.1492l.0143.0369c1.0177,2.6156,2.9341,4.7763,5.4098,6.0983,1.8373.9811,3.7251,2.0521,5.6502,3.2218.1257.0764.251.1528.3758.2293,6.3854,3.9137,8.9176,11.7698,6.5055,18.8601-1.2381,3.6393-1.436,7.6026-.4351,11.4165,1.7835,6.796,7.9988,7.3456,11.4056,13.1107,1.7101,2.8939,2.9415,7.3766,1.3345,14.5665-.794,3.5525-3.5322,6.3564-7.0447,7.312h0c-4.3815,1.192-5.1771,7.0649-1.2706,9.3797l.0933.0553c7.9384,6.006,9.6837,11.156,9.9049,14.6278.4502,7.064-5.2352,9.9017-4.0376,16.7761,1.1905,6.8337,7.2406,6.5078,7.983,13.4333.7709,7.1919-4.9784,14.7766-5.7777,15.8081-.6116.7891-1.1621,1.4084-1.5469,1.823-1.227,1.3196-2.2351,2.1161-3.3032,3.199-1.6445,1.6671-3.3904,3.7496-5.0957,6.3878-6.8523,10.6008-8.5835,23.7227-5.1597,35.8721l2.3277,8.2599c1.5242,8.4377,10.6681,13.1998,18.3925,9.4777,26.5765-12.8059,55.3931-39.4363,62.7509-51.6812,8.5885-14.2927,21.6002-35.9462,20.9274-64.7893-.7705-33.0317-18.5396-34.8152-23.149-68.7296Z" fill="#cfecf8" stroke="#05415a" stroke-miterlimit="10" stroke-width="5"/><circle cx="128.7603" cy="226.1411" r="37.5497" fill="url(#d)" stroke="#134d26" stroke-miterlimit="10" stroke-width="2"/></svg>