<?xml version="1.0" encoding="UTF-8"?><svg id="Layer_1" xmlns="http://www.w3.org/2000/svg" width="509.362305" height="292.078125" xmlns:xlink="http://www.w3.org/1999/xlink" viewBox="0 0 509.362305 292.078125"><defs><radialGradient id="radial-gradient" cx="10.790698" cy="164.32148" fx="10.790698" fy="164.32148" r="53.918921" gradientTransform="translate(14.245283 8.4459) scale(.811321 .93007)" gradientUnits="userSpaceOnUse"><stop offset="0" stop-color="#e6e4f2"/><stop offset="1" stop-color="#bebadd"/></radialGradient><radialGradient id="radial-gradient-2" cx="99.534884" fx="99.534884" r="53.918921" xlink:href="#radial-gradient"/><radialGradient id="radial-gradient-3" cx="188.27907" fx="188.27907" xlink:href="#radial-gradient"/><radialGradient id="radial-gradient-4" cx="277.023256" fx="277.023256" xlink:href="#radial-gradient"/><radialGradient id="radial-gradient-5" cx="365.767442" fx="365.767442" xlink:href="#radial-gradient"/><radialGradient id="radial-gradient-6" cx="454.511628" fx="454.511628" xlink:href="#radial-gradient"/><radialGradient id="radial-gradient-7" cx="543.255814" cy="166.471856" fx="543.255814" fy="166.471856" xlink:href="#radial-gradient"/></defs><path d="M454.255578,225.229081c-.950795,2.895377,1.496345,5.968774,4.356662,7.020349s6.011023.719842,9.057651.792474,6.383421.733572,8.271376,3.125819c1.387283,1.757839,1.712751,4.104921,1.945316,6.332132.319268,3.057547.52492,6.303467-.851403,9.052332-1.451494,2.899004-4.466282,4.74894-7.588359,5.62284s-6.405624.913595-9.6425,1.097166c-4.802968.272389-9.5872.874643-14.307829,1.801114-2.152521.422454-14.924419.394651-19.211346,11.350582-3.007368,7.685811,6.103743,5.908033,6.103743,5.908033" fill="none" stroke="#39b54a" stroke-linecap="round" stroke-miterlimit="10" stroke-width="3"/><path d="M21.947047,94.679591c-1.864422-12.905203-11.41425-24.050478,2.006766-38.525013,7.768409-8.378211,20.099013-6.775786,28.330659-7.584259,6.727175-.660712,12.541737-4.342012,17.601912-8.282269,7.377189-5.744468,17.244792-12.874829,22.724726-20.067238" fill="none" stroke="#94cb72" stroke-linecap="round" stroke-miterlimit="10" stroke-width="3"/><path d="M21.055556,227.331923s2.222222,24.444444,34.222222,24.444444c35.555556,0,37.777778-24.444444,37.777778-24.444444" fill="none" stroke="#39b54a" stroke-linecap="round" stroke-miterlimit="10" stroke-width="3"/><path d="M166.722222,226.998589s2.222222,24.444444,34.222222,24.444444c35.555556,0,37.777778-24.444444,37.777778-24.444444" fill="none" stroke="#39b54a" stroke-linecap="round" stroke-miterlimit="10" stroke-width="3"/><path d="M311.166667,226.998589s2.222222,24.444444,34.222222,24.444444c35.555556,0,37.777778-24.444444,37.777778-24.444444" fill="none" stroke="#39b54a" stroke-linecap="round" stroke-miterlimit="10" stroke-width="3"/><path d="M168.5,93.665256s-2.222222-24.444444-34.222222-24.444444c-35.555556,0-37.777778,24.444444-37.777778,24.444444" fill="none" stroke="#94cb72" stroke-linecap="round" stroke-miterlimit="10" stroke-width="3"/><path d="M452.907407,98.294886s-2.814815-26.814815-34.814815-26.814815c-35.555556,0-37.777778,24.444444-37.777778,24.444444" fill="none" stroke="#94cb72" stroke-linecap="round" stroke-miterlimit="10" stroke-width="3"/><path d="M238.388889,98.443034c-23.689687-11.972281,17.84936-40.108982,8.444444-56-11.118571-18.786496-42.288253-12.617532-30.666667,9.777778,22.77457,43.887603,81.352667-31.888041,97.777778,46.222222" fill="none" stroke="#94cb72" stroke-linecap="round" stroke-miterlimit="10" stroke-width="3"/><path d="M162.716492,79.507309c.465271-.686111.934631-1.375893,1.411499-2.063347" fill="none" stroke="#94cb72" stroke-linecap="round" stroke-miterlimit="10" stroke-width="3"/><path d="M167.266876,73.194427c2.519379-3.134216,5.377686-5.922028,8.953064-7.693871,2.76474-1.370117,5.811417-2.049355,8.82399-2.716789,9.450027-2.093643,18.90004-4.187279,28.350052-6.280922" fill="none" stroke="#94cb72" stroke-dasharray="5.282885 5.282885" stroke-linecap="round" stroke-miterlimit="10" stroke-width="3"/><path d="M215.973389,55.931381c.813599-.180252,1.627197-.360504,2.440826-.540756" fill="none" stroke="#94cb72" stroke-linecap="round" stroke-miterlimit="10" stroke-width="3"/><rect x="1.5" y="94.776367" width="43" height="133" rx="12" ry="12" fill="url(#radial-gradient)" stroke="#524fa1" stroke-miterlimit="10" stroke-width="3"/><rect x="73.5" y="94.776367" width="43" height="133" rx="12" ry="12" fill="url(#radial-gradient-2)" stroke="#524fa1" stroke-miterlimit="10" stroke-width="3"/><rect x="145.5" y="94.776367" width="43" height="133" rx="12" ry="12" fill="url(#radial-gradient-3)" stroke="#524fa1" stroke-miterlimit="10" stroke-width="3"/><rect x="217.5" y="94.776367" width="43" height="133" rx="12" ry="12" fill="url(#radial-gradient-4)" stroke="#524fa1" stroke-miterlimit="10" stroke-width="3"/><rect x="289.5" y="94.776367" width="43" height="133" rx="12" ry="12" fill="url(#radial-gradient-5)" stroke="#524fa1" stroke-miterlimit="10" stroke-width="3"/><rect x="361.5" y="94.776367" width="43" height="133" rx="12" ry="12" fill="url(#radial-gradient-6)" stroke="#524fa1" stroke-miterlimit="10" stroke-width="3"/><rect x="433.5" y="96.776367" width="43" height="133" rx="12" ry="12" fill="url(#radial-gradient-7)" stroke="#524fa1" stroke-miterlimit="10" stroke-width="3"/><text transform="translate(99.611162 20.776367)" fill="#231f20" font-family="TimesNewRomanPS-BoldMT, &apos;Times New Roman&apos;" font-size="25" font-weight="700"><tspan x="0" y="0">NH</tspan></text><text transform="translate(137.111162 29.101562) scale(.583)" fill="#231f20" font-family="TimesNewRomanPS-BoldMT, &apos;Times New Roman&apos;" font-size="25" font-weight="700"><tspan x="0" y="0">2</tspan></text><text transform="translate(432.970268 283.887259)" fill="#231f20" font-family="TimesNewRomanPS-BoldMT, &apos;Times New Roman&apos;" font-size="25" font-weight="700"><tspan x="0" y="0">COOH</tspan></text></svg>