<?xml version="1.0" encoding="UTF-8"?><svg id="Layer_1" xmlns="http://www.w3.org/2000/svg" width="468.378755" height="417.778931" viewBox="0 0 468.378755 417.778931"><path d="M467.378754,399.639854c-.035304,22.853603-45.423859,22.851029-45.454476-.001281.035234-22.852323,45.423789-22.849748,45.454476.001281Z" fill="#9dded9" stroke="#00554f" stroke-linecap="round" stroke-miterlimit="10" stroke-width="2"/><path d="M91.485714,117.009106c-.363577,16.906419-5.874293,35.212478-23.114821,41.939032-22.028885,6.960202-44.994691,10.975665-67.370893,16.802902" fill="none" stroke="#00554f" stroke-linecap="round" stroke-miterlimit="10" stroke-width="2"/><path d="M356.377555,117.009106c-20.608464,46.079647,118.392478,169.931499-2.14178,226.157571" fill="none" stroke="#00554f" stroke-linecap="round" stroke-miterlimit="10" stroke-width="2"/><path d="M335.460883,131.224875c-25.74485,1.046866-56.002891,1.995293-57.792011-31.819663,3.62522-29.187922-15.386255-97.090798,31.81709-98.049889,23.332081-.949246,50.370063-1.817171,56.566247,23.196679.934346,3.771934,1.221455,7.681726.943989,11.557742-2.187262,30.554576,14.149504,94.186353-31.535314,95.115131Z" fill="#9dded9" stroke="#00554f" stroke-linecap="round" stroke-miterlimit="10" stroke-width="2"/><path d="M204.324491,240.045751c-2.945663-22.24269-4.39731-68.033707,11.873657-85.213091,26.962447-16.356699,44.306204,3.298008,73.676114-30.475183" fill="none" stroke="#00554f" stroke-linecap="round" stroke-miterlimit="10" stroke-width="2"/><path d="M148.013526,127.16284c-.623352,9.435181-2.919497,23.782095.100281,32.868835,10.566413,31.795135,36.640487,31.795135,42.652466,56.061279,3.749098,15.13248,2.901855,33.711426,2.638123,40.397827" fill="none" stroke="#00554f" stroke-linecap="round" stroke-miterlimit="10" stroke-width="2"/><path d="M210.264666,324.795471c-49.696116,1.334886-30.175145,21.496848-19.948083,39.938615,15.621985,28.170067,45.873003,46.606227,79.772756,45.089514,33.899797-1.516715,59.347729-24.122074,75.427394-52.03348,10.609098-18.415486,32.746599-43.181942-11.765119-36.80304-25.333333,3.630479-5.939818,42.401576-65.641419,44.601124-70.083722,2.58205-33.341397-41.450938-57.845529-40.792733Z" fill="#9dded9" stroke="#00554f" stroke-linecap="round" stroke-miterlimit="10" stroke-width="2"/><path d="M212.434035,304.795425c-44.649654,1.792307-31.105812-22.098103-21.713244-42.827923,14.347284-31.6651,43.744047-53.371425,77.677713-53.371406,33.93371.000019,61.958802,22.364485,77.677702,53.371642,11.195345,22.083977,23.715124,40.972865-16.748589,41.15778-32.653123.149221-1.188886-46.429709-60.929134-45.9125-70.12909.607152-20.829375,46.172029-55.964449,47.582406Z" fill="#9dded9" stroke="#00554f" stroke-linecap="round" stroke-miterlimit="10" stroke-width="2"/><path d="M259.162182,148.529172c-.035304,22.853603-45.423859,22.851029-45.454476-.001281.035234-22.852323,45.423789-22.849748,45.454476.001281Z" fill="#9dded9" stroke="#00554f" stroke-linecap="round" stroke-miterlimit="10" stroke-width="2"/><path d="M109.717025,1h33.811332c14.658935,0,26.560129,11.901195,26.560129,26.560129v70.09002c0,18.104278-14.698377,32.802655-32.802655,32.802655h-23.992948c-18.529218,0-33.572593-15.043374-33.572593-33.572593V30.996734c0-16.555648,13.441086-29.996734,29.996734-29.996734Z" fill="#9dded9" stroke="#00554f" stroke-linecap="round" stroke-miterlimit="10" stroke-width="2"/><path d="M336.800433,371.789193c7.380281-.111924,23.906623-12.212241,35.183182,1.155986,22.517743,26.694515,36.517743,6.181827,51.664664,19.637206" fill="none" stroke="#00554f" stroke-linecap="round" stroke-miterlimit="10" stroke-width="2"/></svg>