<?xml version="1.0" encoding="UTF-8"?><svg id="Layer_1" xmlns="http://www.w3.org/2000/svg" width="142.33188" height="667.111441" xmlns:xlink="http://www.w3.org/1999/xlink" viewBox="0 0 142.33188 667.111441"><defs><linearGradient id="linear-gradient" x1="1.5" y1="350.000165" x2="140.83188" y2="350.000165" gradientUnits="userSpaceOnUse"><stop offset=".18953" stop-color="#e6cda1"/><stop offset=".220999" stop-color="#e8d0a6"/><stop offset=".499707" stop-color="#feecd1"/><stop offset=".600104" stop-color="#f9e7c8"/><stop offset=".756197" stop-color="#eedab2"/><stop offset=".857542" stop-color="#e6d0a1"/></linearGradient><radialGradient id="radial-gradient" cx="130.393287" cy="52.343873" fx="130.393287" fy="52.343873" r="67.222258" gradientTransform="translate(-8.426417 6.853017) scale(.610402 .66082)" gradientUnits="userSpaceOnUse"><stop offset="0" stop-color="#f0e2ee"/><stop offset=".243327" stop-color="#ebdae9"/><stop offset=".61653" stop-color="#dfc4dc"/><stop offset="1" stop-color="#d0a8cc"/></radialGradient></defs><path d="M95.580258,105.002023c26.249555-9.001892,45.027767-32.076691,45.251219-59.125146.046058-5.575239-3.857572-10.583409-9.37697-11.371862-6.795278-.970713-12.621011,4.276353-12.621011,10.883769,0,22.975586-21.383301,41.666992-47.666504,41.666992-26.205744,0-47.540144-18.580614-47.666436-41.463061-.031016-5.619676-4.206698-10.544736-9.794899-11.139478-6.615586-.704085-12.205657,4.462901-12.205657,10.935547,0,26.386719,17.658997,49.0625,42.74176,58.700195,11.01123,4.231445,18.425232,14.620117,18.425171,26.416016l-.000019,4.382879c-.000026,5.994442-4.716101,10.928139-10.704458,11.198177-4.225836.190559-7.33449.334179-9.879951.374104-8.519827.133631-15.36001,7.059122-15.360013,15.579997l-.000077,233.720455c-.000003,8.606933,6.977294,15.584233,15.584227,15.584233h8.341797c6.913807,0,12.518555,5.604748,12.518555,12.518555v.000016c0,1.161233-1.312819,1.812854-2.25055,1.12793-3.616899-2.641803-8.202223-4.03641-13.124053-3.551135-8.801657.867811-15.9629,7.922331-16.946932,16.711753-1.284664,11.474678,7.661277,21.192882,18.876955,21.192882,4.179042,0,8.042682-1.349882,11.179561-3.636322.943942-.68803,2.265019-.045742,2.265019,1.122338v8.365945c0,1.161175-1.312729,1.812852-2.250443,1.128003-3.617931-2.642317-8.204857-4.037863-13.128309-3.551134-8.802546.870214-15.962883,7.928084-16.943643,16.718999-1.2798,11.471323,7.664646,21.185178,18.877814,21.185178,4.179012,0,8.042625-1.349244,11.179492-3.635892.943943-.688096,2.265089-.045835,2.265089,1.122285v8.366162c0,1.161233-1.312819,1.812854-2.25055,1.12793-3.616899-2.641803-8.202223-4.03641-13.124053-3.551135-8.801657.867811-15.9629,7.922331-16.946932,16.711753-1.284664,11.474678,7.661277,21.192882,18.876955,21.192882,4.292524,0,8.250537-1.425786,11.431072-3.827444.888099-.670613,2.151269-.11678,2.254691.991257,1.212685,12.992354,7.219501,25.035856,16.909696,33.578374.054321.047852.162903.143555.217285.191406.632141.555664,1.276123,1.102539,1.919922,1.649414,2.828308,2.404297,5.270142,4.482422,6.410645,6.923828.273682.585938.423279,1.166016.420898,1.635742-.003052.604492-.007507,1.617188-5.085938,3.498047-5.639832,2.088867-11.509705,3.650391-17.446777,4.637695-1.075195.178711-2.163574.344727-3.256836.510742-7.569458,1.150391-16.148438,2.456055-23.130371,8.286133-12.61908,10.537109-12.043213,29.988281-4.195312,42.707031,7.080383,11.474609,19.284912,19.399414,32.644531,21.205078,1.71051.231445,3.345276.354492,4.925781.472656,2.359436.176758,4.58783.345703,6.425781.851562.709961.195312,1.424316.288086,2.126465.288086,3.553109,0,6.808323-2.385596,7.742547-6.005803,1.107548-4.291856-1.679994-8.680162-5.968036-9.802388-3.214744-.841332-6.349861-1.076623-9.12705-1.285559-1.410156-.106445-2.742249-.207031-3.983887-.374023-8.534973-1.150391-16.647034-6.421875-21.169922-13.751953-4.193909-6.796875-4.859802-17.268555.833984-22.023438,3.551331-2.96582,9.249146-3.831055,15.28125-4.749023,1.16748-.177734,2.32959-.354492,3.477539-.545898,6.93396-1.155273,13.790466-2.976562,20.37793-5.416992,3.825623-1.416992,15.468262-5.728516,15.52832-18.426758.01355-2.868164-.634827-5.724609-1.927246-8.488281-2.615845-5.59375-6.82428-9.173828-10.537109-12.333008-.583008-.496094-1.165955-.991211-1.728027-1.484375-.043701-.038086-.131165-.115234-.174805-.15332-7.47821-6.578125-11.752441-16.243164-11.752441-26.486328v-110.791016c0-6.709397,5.439041-12.148438,12.148438-12.148438h8.711731c6.287842.148438,15.584106-6.977539,15.584106-15.583984l-.000178-233.484558c-.000007-8.640215-6.931845-15.656871-15.570518-15.820131-2.118866-.040044-3.99707-.15334-8.462805-.335983-6.653648-.272125-11.91068-5.74797-11.910687-12.40718l-.000006-6.297852c-.00001-10.094789,6.364289-19.138477,15.913185-22.413128Z" fill="url(#linear-gradient)" stroke="#8a744c" stroke-miterlimit="10" stroke-width="3"/><text transform="translate(35.385432 445.334104)" font-family="TimesNewRomanPS-BoldMT, &apos;Times New Roman&apos;" font-size="18" font-weight="700"><tspan x="0" y="0" letter-spacing="-.074219em">T</tspan><tspan x="10.669922" y="0">ry</tspan></text><text transform="translate(36.033549 487.857612)" font-family="TimesNewRomanPS-BoldMT, &apos;Times New Roman&apos;" font-size="18" font-weight="700"><tspan x="0" y="0" letter-spacing="-.074219em">T</tspan><tspan x="10.669922" y="0">ry</tspan></text><text transform="translate(36.033564 527.810902)" font-family="TimesNewRomanPS-BoldMT, &apos;Times New Roman&apos;" font-size="18" font-weight="700"><tspan x="0" y="0" letter-spacing="-.074219em">T</tspan><tspan x="10.669922" y="0">ry</tspan></text><ellipse cx="71.16594" cy="41.442877" rx="44.789275" ry="39.942877" fill="url(#radial-gradient)" stroke="#85537f" stroke-miterlimit="10" stroke-width="3"/></svg>