<?xml version="1.0" encoding="UTF-8"?><svg id="Layer_1" xmlns="http://www.w3.org/2000/svg" width="266.958714" height="651.665036" xmlns:xlink="http://www.w3.org/1999/xlink" viewBox="0 0 266.958714 651.665036"><defs><linearGradient id="linear-gradient" x1="19.632664" y1="334.553759" x2="133.595395" y2="334.553759" gradientUnits="userSpaceOnUse"><stop offset=".18953" stop-color="#e6cda1"/><stop offset=".220999" stop-color="#e8d0a6"/><stop offset=".499707" stop-color="#feecd1"/><stop offset=".600104" stop-color="#f9e7c8"/><stop offset=".756197" stop-color="#eedab2"/><stop offset=".857542" stop-color="#e6d0a1"/></linearGradient><radialGradient id="radial-gradient" cx="42.790311" cy="421.994752" fx="42.790311" fy="421.994752" r="21.128654" gradientTransform="translate(-15.102643 43.96422) scale(.806333 .895029)" gradientUnits="userSpaceOnUse"><stop offset="0" stop-color="#e0ede1"/><stop offset=".463208" stop-color="#b7dabc"/><stop offset="1" stop-color="#8dc795"/></radialGradient><radialGradient id="radial-gradient-2" cy="469.505494" fy="469.505494" r="21.128654" xlink:href="#radial-gradient"/><radialGradient id="radial-gradient-3" cy="517.016236" fy="517.016236" r="21.128654" xlink:href="#radial-gradient"/><linearGradient id="linear-gradient-2" x1="87.119387" y1="334.553759" x2="201.082117" y2="334.553759" gradientTransform="translate(334.677513) rotate(-180) scale(1 -1)" xlink:href="#linear-gradient"/><radialGradient id="radial-gradient-4" cx="325.747346" cy="423.430911" fx="325.747346" fy="423.430911" r="21.128654" xlink:href="#radial-gradient"/><radialGradient id="radial-gradient-5" cx="325.747346" cy="470.941653" fx="325.747346" fy="470.941653" r="21.128654" xlink:href="#radial-gradient"/><radialGradient id="radial-gradient-6" cx="325.747346" cy="518.452395" fx="325.747346" fy="518.452395" r="21.128654" xlink:href="#radial-gradient"/><radialGradient id="radial-gradient-7" cx="539.745271" cy="47.232348" fx="539.745271" fy="47.232348" r="67.222258" gradientTransform="translate(-172.297419 8.471698) scale(.461165 .527675)" gradientUnits="userSpaceOnUse"><stop offset="0" stop-color="#f0e2ee"/><stop offset=".243327" stop-color="#ebdae9"/><stop offset=".61653" stop-color="#dfc4dc"/><stop offset="1" stop-color="#d0a8cc"/></radialGradient><radialGradient id="radial-gradient-8" cx="786.864793" cy="47.232348" fx="786.864793" fy="47.232348" r="67.222258" xlink:href="#radial-gradient-7"/></defs><path d="M105.487645,131.009762c-2.118896-.040039-3.99707-.15332-8.462769-.335938-6.653687-.272461-11.910767-5.748047-11.910767-12.407227v-6.297852c0-.201172.018555-.399414.023682-.599609.202393-9.850586,3.790527-18.604492,11.445312-21.813477,21.469971-9.001953,36.829102-32.077148,37.011963-59.125.037598-5.575195-3.155273-10.583984-7.669678-11.37207-5.558105-.970703-10.322998,4.276367-10.322998,10.883789,0,22.975586-17.48999,41.666992-38.987549,41.666992-21.434326,0-38.884277-18.581055-38.987549-41.462891-.025391-5.620117-3.440674-10.544922-8.011475-11.139648-5.410889-.704102-9.983154,4.462891-9.983154,10.935547,0,26.386719,14.443604,49.0625,34.959351,58.700195,8.122925,3.816406,12.245483,12.646484,13.291382,22.995117.13916,1.125.230713,2.263672.230713,3.420898l-.000122,4.382812c0,5.994141-4.716064,10.927734-10.704468,11.198242-4.22583.19043-7.334473.333984-9.879883.374023-8.519775.133789-15.360107,7.058594-15.360107,15.580078v233.720703c0,8.606445,6.977295,15.583984,15.584229,15.583984h8.341797c6.913818,0,12.518555,5.604492,12.518555,12.518555,0,1.161133-1.312744,1.8125-2.250488,1.12793-3.616943-2.641602-8.202271-4.036133-13.124146-3.551758-8.801636.868164-15.962891,7.922852-16.946899,16.711914-1.284668,11.474609,7.661255,21.193359,18.876953,21.193359,4.178955,0,8.042725-1.350586,11.179565-3.636719.94397-.6875,2.265015-.045898,2.265015,1.12207v8.366211c0,1.161133-1.312744,1.813477-2.250488,1.12793-3.61792-2.641602-8.204834-4.037109-13.128296-3.550781-8.802612.870117-15.962891,7.927734-16.943604,16.71875-1.279907,11.47168,7.664673,21.185547,18.877808,21.185547,4.178955,0,8.042603-1.349609,11.179443-3.635742.94397-.688477,2.265137-.045898,2.265137,1.12207v8.366211c0,1.161133-1.312744,1.8125-2.250488,1.12793-3.616943-2.641602-8.202271-4.036133-13.124146-3.551758-8.801636.868164-15.962891,7.922852-16.946899,16.711914-1.284668,11.474609,7.661255,21.193359,18.876953,21.193359,4.29248,0,8.250488-1.425781,11.43103-3.828125.888062-.669922,2.151245-.116211,2.254761.992188,1.212646,12.992188,7.219482,25.035156,16.909668,33.578125.054321.047852.162842.143555.217285.191406.63208.555664,1.276123,1.102539,1.919922,1.649414,2.828369,2.404297,5.270142,4.482422,6.410645,6.923828.273682.585938.42334,1.166016.420898,1.635742-.003052.604492-.007568,1.617188-5.085938,3.498047-5.639893,2.088867-11.509766,3.650391-17.446777,4.637695-1.075195.178711-2.163574.344727-3.256836.510742-7.569458,1.150391-16.148438,2.456055-23.130371,8.286133-12.619141,10.537109-12.043213,29.988281-4.195312,42.707031,7.080322,11.474609,19.284912,19.399414,32.644531,21.205078,1.710449.231445,3.345215.354492,4.925781.472656,2.359375.176758,4.587891.345703,6.425781.851562.709961.195312,1.424316.288086,2.126465.288086,3.553101,0,6.80835-2.385742,7.742554-6.005859,1.107544-4.291992-1.680054-8.680664-5.96814-9.802734-3.2146-.84082-6.349854-1.076172-9.126953-1.285156-1.410156-.106445-2.742188-.207031-3.983887-.374023-8.534912-1.150391-16.646973-6.421875-21.169922-13.751953-4.193848-6.796875-4.859863-17.268555.833984-22.023438,3.55127-2.96582,9.249146-3.831055,15.28125-4.749023,1.16748-.177734,2.32959-.354492,3.477539-.545898,6.93396-1.155273,13.790527-2.976562,20.37793-5.416992,3.825684-1.416992,15.468262-5.728516,15.52832-18.426758.01355-2.868164-.634766-5.724609-1.927246-8.488281-2.615845-5.59375-6.824219-9.173828-10.537109-12.333008-.583008-.496094-1.166016-.991211-1.728027-1.484375-.043701-.038086-.131104-.115234-.174805-.15332-7.478271-6.578125-11.752441-16.243164-11.752441-26.486328v-110.791016c0-6.709961,5.438965-12.148438,12.148438-12.148438h8.71167c6.287842.148438,15.584229-6.977539,15.584229-15.583984l-.000244-233.484375c0-8.640625-6.931885-15.657227-15.570557-15.820312Z" fill="url(#linear-gradient)" stroke="#8a744c" stroke-miterlimit="10" stroke-width="3"/><text transform="translate(40.832489 429.887519)" font-family="TimesNewRomanPS-BoldMT, &apos;Times New Roman&apos;" font-size="18" font-weight="700"><tspan x="0" y="0" letter-spacing="-.074219em">T</tspan><tspan x="10.669922" y="0">ry</tspan></text><text transform="translate(41.480621 472.411029)" font-family="TimesNewRomanPS-BoldMT, &apos;Times New Roman&apos;" font-size="18" font-weight="700"><tspan x="0" y="0" letter-spacing="-.074219em">T</tspan><tspan x="10.669922" y="0">ry</tspan></text><text transform="translate(41.480621 512.364311)" font-family="TimesNewRomanPS-BoldMT, &apos;Times New Roman&apos;" font-size="18" font-weight="700"><tspan x="0" y="0" letter-spacing="-.074219em">T</tspan><tspan x="10.669922" y="0">ry</tspan></text><circle cx="19.400588" cy="421.661933" r="17.900588" fill="url(#radial-gradient)" stroke="#4e8254" stroke-miterlimit="10" stroke-width="3"/><text transform="translate(13.324089 429.888173)" font-family="TimesNewRomanPS-BoldMT, &apos;Times New Roman&apos;" font-size="21" font-weight="700" letter-spacing="-.055176em"><tspan x="0" y="0">P</tspan></text><circle cx="19.400588" cy="464.185444" r="17.900588" fill="url(#radial-gradient-2)" stroke="#4e8254" stroke-miterlimit="10" stroke-width="3"/><text transform="translate(13.324089 472.411674)" font-family="TimesNewRomanPS-BoldMT, &apos;Times New Roman&apos;" font-size="21" font-weight="700" letter-spacing="-.055176em"><tspan x="0" y="0">P</tspan></text><circle cx="19.400588" cy="506.708956" r="17.900588" fill="url(#radial-gradient-3)" stroke="#4e8254" stroke-miterlimit="10" stroke-width="3"/><text transform="translate(13.324089 514.935196)" font-family="TimesNewRomanPS-BoldMT, &apos;Times New Roman&apos;" font-size="21" font-weight="700" letter-spacing="-.055176em"><tspan x="0" y="0">P</tspan></text><path d="M161.703146,131.009762c2.118896-.040039,3.99707-.15332,8.462769-.335938,6.653687-.272461,11.910767-5.748047,11.910767-12.407227v-6.297852c0-.201172-.018555-.399414-.023682-.599609-.202393-9.850586-3.790527-18.604492-11.445312-21.813477-21.469971-9.001953-36.829102-32.077148-37.011963-59.125-.037598-5.575195,3.155273-10.583984,7.669678-11.37207,5.558105-.970703,10.322998,4.276367,10.322998,10.883789,0,22.975586,17.48999,41.666992,38.987549,41.666992,21.434326,0,38.884277-18.581055,38.987549-41.462891.025391-5.620117,3.440674-10.544922,8.011475-11.139648,5.410889-.704102,9.983154,4.462891,9.983154,10.935547,0,26.386719-14.443604,49.0625-34.959351,58.700195-8.122925,3.816406-12.245483,12.646484-13.291382,22.995117-.13916,1.125-.230713,2.263672-.230713,3.420898l.000122,4.382812c0,5.994141,4.716064,10.927734,10.704468,11.198242,4.22583.19043,7.334473.333984,9.879883.374023,8.519775.133789,15.360107,7.058594,15.360107,15.580078v233.720703c0,8.606445-6.977295,15.583984-15.584229,15.583984h-8.341797c-6.913818,0-12.518555,5.604492-12.518555,12.518555,0,1.161133,1.312744,1.8125,2.250488,1.12793,3.616943-2.641602,8.202271-4.036133,13.124146-3.551758,8.801636.868164,15.962891,7.922852,16.946899,16.711914,1.284668,11.474609-7.661255,21.193359-18.876953,21.193359-4.178955,0-8.042725-1.350586-11.179565-3.636719-.94397-.6875-2.265015-.045898-2.265015,1.12207v8.366211c0,1.161133,1.312744,1.813477,2.250488,1.12793,3.61792-2.641602,8.204834-4.037109,13.128296-3.550781,8.802612.870117,15.962891,7.927734,16.943604,16.71875,1.279907,11.47168-7.664673,21.185547-18.877808,21.185547-4.178955,0-8.042603-1.349609-11.179443-3.635742-.94397-.688477-2.265137-.045898-2.265137,1.12207v8.366211c0,1.161133,1.312744,1.8125,2.250488,1.12793,3.616943-2.641602,8.202271-4.036133,13.124146-3.551758,8.801636.868164,15.962891,7.922852,16.946899,16.711914,1.284668,11.474609-7.661255,21.193359-18.876953,21.193359-4.29248,0-8.250488-1.425781-11.43103-3.828125-.888062-.669922-2.151245-.116211-2.254761.992188-1.212646,12.992188-7.219482,25.035156-16.909668,33.578125-.054321.047852-.162842.143555-.217285.191406-.63208.555664-1.276123,1.102539-1.919922,1.649414-2.828369,2.404297-5.270142,4.482422-6.410645,6.923828-.273682.585938-.42334,1.166016-.420898,1.635742.003052.604492.007568,1.617188,5.085938,3.498047,5.639893,2.088867,11.509766,3.650391,17.446777,4.637695,1.075195.178711,2.163574.344727,3.256836.510742,7.569458,1.150391,16.148438,2.456055,23.130371,8.286133,12.619141,10.537109,12.043213,29.988281,4.195312,42.707031-7.080322,11.474609-19.284912,19.399414-32.644531,21.205078-1.710449.231445-3.345215.354492-4.925781.472656-2.359375.176758-4.587891.345703-6.425781.851562-.709961.195312-1.424316.288086-2.126465.288086-3.553101,0-6.80835-2.385742-7.742554-6.005859-1.107544-4.291992,1.680054-8.680664,5.96814-9.802734,3.2146-.84082,6.349854-1.076172,9.126953-1.285156,1.410156-.106445,2.742188-.207031,3.983887-.374023,8.534912-1.150391,16.646973-6.421875,21.169922-13.751953,4.193848-6.796875,4.859863-17.268555-.833984-22.023438-3.55127-2.96582-9.249146-3.831055-15.28125-4.749023-1.16748-.177734-2.32959-.354492-3.477539-.545898-6.93396-1.155273-13.790527-2.976562-20.37793-5.416992-3.825684-1.416992-15.468262-5.728516-15.52832-18.426758-.01355-2.868164.634766-5.724609,1.927246-8.488281,2.615845-5.59375,6.824219-9.173828,10.537109-12.333008.583008-.496094,1.166016-.991211,1.728027-1.484375.043701-.038086.131104-.115234.174805-.15332,7.478271-6.578125,11.752441-16.243164,11.752441-26.486328v-110.791016c0-6.709961-5.438965-12.148438-12.148438-12.148438h-8.71167c-6.287842.148438-15.584229-6.977539-15.584229-15.583984l.000244-233.484375c0-8.640625,6.931885-15.657227,15.570557-15.820312Z" fill="url(#linear-gradient-2)" stroke="#8a744c" stroke-miterlimit="10" stroke-width="3"/><text transform="translate(198.157745 431.17292)" font-family="TimesNewRomanPS-BoldMT, &apos;Times New Roman&apos;" font-size="18" font-weight="700"><tspan x="0" y="0" letter-spacing="-.074219em">T</tspan><tspan x="10.669922" y="0">ry</tspan></text><text transform="translate(198.805938 473.69643)" font-family="TimesNewRomanPS-BoldMT, &apos;Times New Roman&apos;" font-size="18" font-weight="700"><tspan x="0" y="0" letter-spacing="-.074219em">T</tspan><tspan x="10.669922" y="0">ry</tspan></text><text transform="translate(198.805938 513.649719)" font-family="TimesNewRomanPS-BoldMT, &apos;Times New Roman&apos;" font-size="18" font-weight="700"><tspan x="0" y="0" letter-spacing="-.074219em">T</tspan><tspan x="10.669922" y="0">ry</tspan></text><circle cx="247.558126" cy="422.947337" r="17.900588" fill="url(#radial-gradient-4)" stroke="#4e8254" stroke-miterlimit="10" stroke-width="3"/><text transform="translate(241.481628 431.173573)" font-family="TimesNewRomanPS-BoldMT, &apos;Times New Roman&apos;" font-size="21" font-weight="700" letter-spacing="-.055176em"><tspan x="0" y="0">P</tspan></text><circle cx="247.558126" cy="465.470849" r="17.900588" fill="url(#radial-gradient-5)" stroke="#4e8254" stroke-miterlimit="10" stroke-width="3"/><text transform="translate(241.481628 473.697082)" font-family="TimesNewRomanPS-BoldMT, &apos;Times New Roman&apos;" font-size="21" font-weight="700" letter-spacing="-.055176em"><tspan x="0" y="0">P</tspan></text><circle cx="247.558126" cy="507.99436" r="17.900588" fill="url(#radial-gradient-6)" stroke="#4e8254" stroke-miterlimit="10" stroke-width="3"/><text transform="translate(241.481628 516.220604)" font-family="TimesNewRomanPS-BoldMT, &apos;Times New Roman&apos;" font-size="21" font-weight="700" letter-spacing="-.055176em"><tspan x="0" y="0">P</tspan></text><ellipse cx="76.613988" cy="33.395043" rx="33.838714" ry="31.895043" fill="url(#radial-gradient-7)" stroke="#85537f" stroke-miterlimit="10" stroke-width="3"/><ellipse cx="190.576761" cy="33.395043" rx="33.838714" ry="31.895043" fill="url(#radial-gradient-8)" stroke="#85537f" stroke-miterlimit="10" stroke-width="3"/></svg>