<?xml version="1.0" encoding="UTF-8"?><svg id="Layer_1" xmlns="http://www.w3.org/2000/svg" width="440.97313" height="638.31313" viewBox="0 0 440.97313 638.31313"><path d="M223.74192,637.11285c-.99482-.14183-2.01322-.3605-3.05926-.66203-15.46717-4.45709-25.93367-20.80447-35.16826-35.22728-7.45325-11.64012-14.50365-22.63243-21.24074-22.50978-5.85528.10927-10.42433,4.47441-16.74657,10.51613-6.57215,6.27933-14.75114,14.09432-27.41123,19.20881-14.08339,5.68791-31.09166,3.9867-50.55932-5.06143-2.00289-.93116-2.87212-3.31008-1.94138-5.31351.93185-2.00427,3.31263-2.87275,5.31351-1.94138,17.37865,8.07756,32.24625,9.72414,44.19041,4.8987,11.23865-4.54032,18.48685-11.46556,24.88096-17.57545,7.05525-6.74116,13.14788-12.56308,22.12367-12.73056,11.23479-.20943,19.05668,12.02776,28.12753,26.19442,8.473,13.2331,18.07629,28.23177,30.64595,31.85408,9.35724,2.69923,15.9668-5.54468,25.73551-19.43883,4.34562-6.18146,8.83957-12.57309,14.12596-17.5901,1.60367-1.52033,4.13719-1.45359,5.65483.14822,1.5215,1.60236,1.45456,4.13388-.14725,5.65496-4.70795,4.46766-8.96915,10.52749-13.0885,16.38807-8.70214,12.37715-17.68121,25.14688-31.43583,23.18696Z" fill="#c8c1df" stroke="#282566" stroke-miterlimit="10" stroke-width="2"/><path d="M136.11125,120.45995l.02161.30924c.88678,12.68908-10.87827,22.49316-27.3807,31.21484-39.01112-13.00197-100.73575-16.50734-103.15384-44.79761l-.02161-.30924c-.88747-12.69901,10.87828-22.4931,27.38071-31.21478,39.01111,13.00191,100.73575,16.50734,103.15384,44.79755Z" fill="#4d4b7e" stroke="#282566" stroke-miterlimit="10" stroke-width="3"/><path d="M150.12395,284.10123l.02161.30924c.88747,12.69901-10.87877,22.49314-27.38071,31.21478-39.01112-13.00197-100.73575-16.50734-103.15433-44.79757l-.02161-.30924c-.88678-12.68902,10.87877-22.49314,27.38071-31.21478,39.01112,13.00197,100.73575,16.50734,103.15433,44.79757Z" fill="#4d4b7e" stroke="#282566" stroke-miterlimit="10" stroke-width="3"/><path d="M164.12592,447.7432l.02161.30924c.88748,12.69907-10.86735,22.50237-27.36025,31.21341-39.01091-12.99195-100.74598-16.50662-103.16407-44.79689l-.02161-.30924c-.88678-12.68908,10.86854-22.49242,27.36094-31.20343,39.01091,12.99195,100.74529,16.4967,103.16337,44.78691Z" fill="#4d4b7e" stroke="#282566" stroke-miterlimit="10" stroke-width="3"/><path d="M106.22911,574.87758c-10.97438-2.52732-21.78374-5.12375-31.25387-8.28-16.4929,8.71098-28.25795,18.51506-27.37048,31.21407l.02161.30924c1.6582,19.37796,31.13992,27.12897,62.08881,34.26674-1.28174-20.14068-2.78678-44.39408-3.48607-57.51005Z" fill="#4d4b7e" stroke="#282566" stroke-miterlimit="10" stroke-width="3"/><path d="M136.13287,120.76919l4.00584,57.32022c2.40275,28.07077-56.84934,42.0155-93.16908,61.21425-16.50194,8.72164-28.26748,18.52576-27.38071,31.21478l-4.00583-57.32016c-2.40275-28.07083,56.84934-42.0155,93.16908-61.21425,16.50243-8.72168,28.26748-18.52576,27.3807-31.21484Z" fill="#c8c1df" stroke="#282566" stroke-miterlimit="10" stroke-width="3"/><path d="M150.14556,284.41048l4.00584,57.32022c2.40226,28.07081-56.85957,42.01616-93.18885,61.2256-16.49241,8.71101-28.24772,18.51434-27.36094,31.20343l-4.00584-57.32022c-2.41228-28.06007,56.83911-42.01479,93.16908-61.21425,16.50194-8.72164,28.26818-18.51577,27.38071-31.21478Z" fill="#c8c1df" stroke="#282566" stroke-miterlimit="10" stroke-width="3"/><path d="M164.14753,448.05245l4.00584,57.32022c2.40323,28.07074-56.84885,42.01547-93.17813,61.22491-16.4929,8.71098-28.25795,18.51506-27.37048,31.21407l-4.00584-57.32022c-2.40275-28.07077,56.85908-42.01612,93.18836-61.22557,16.49289-8.71104,28.24772-18.51434,27.36025-31.21341Z" fill="#c8c1df" stroke="#282566" stroke-miterlimit="10" stroke-width="3"/><path d="M68.62888,58.81382c-.43059-5.19478-.86117-10.3895-1.29175-15.58428-1.11325-13.67435-2.13549-27.35628-3.12462-41.04071C32.43396,15.48155-.22539,28.57456,1.57087,49.55696l4.00584,57.32022c-.88747-12.69901,10.87828-22.4931,27.38071-31.21478,10.65059-5.62882,23.26898-10.80756,35.72823-16.02234-.01682-.27568-.0414-.55039-.05676-.82624Z" fill="#c8c1df" stroke="#282566" stroke-miterlimit="10" stroke-width="3"/><path d="M439.09205,140.56989l-.06625.30284c-2.71844,12.42615-16.7663,18.52486-35.05576,22.25226-33.77843-23.45071-92.0246-44.17756-86.38704-72.00569l.06625-.30284c2.72057-12.43587,16.76629-18.5248,35.05575-22.2522,33.77845,23.45065,92.0246,44.17756,86.38706,72.00563Z" fill="#4d4b7e" stroke="#282566" stroke-miterlimit="10" stroke-width="3"/><path d="M406.50692,301.54516l-.06625.30284c-2.72057,12.43587-16.76676,18.52469-35.05575,22.2522-33.77843-23.45071-92.0246-44.17756-86.38752-72.00579l.06625-.30284c2.71843-12.42609,16.76676-18.52469,35.05575-22.2522,33.77843,23.45071,92.0246,44.17756,86.38752,72.00579Z" fill="#4d4b7e" stroke="#282566" stroke-miterlimit="10" stroke-width="3"/><path d="M373.91131,462.51806l-.06625.30284c-2.72058,12.43593-16.75841,18.53677-35.03573,22.25664-33.78105-23.44104-92.03462-44.17976-86.39706-72.00788l.06625-.30284c2.71844-12.42615,16.75675-18.52689,35.03359-22.24686,33.78105,23.44104,92.03674,44.17004,86.3992,71.9981Z" fill="#4d4b7e" stroke="#282566" stroke-miterlimit="10" stroke-width="3"/><path d="M282.58968,568.23253c-9.82031-5.51234-19.46282-11.04458-27.6627-16.73731-18.27731,3.71981-32.32516,9.81852-35.04573,22.25439l-.06625.30284c-3.85975,19.06193,22.25117,34.79311,49.94252,50.34853,4.43555-19.68796,9.81372-43.38538,12.83217-56.16845Z" fill="#4d4b7e" stroke="#282566" stroke-miterlimit="10" stroke-width="3"/><path d="M439.0258,140.87273l-12.27999,56.13249c-5.59053,27.61318-66.37267,24.32732-106.62641,32.53415-18.28898,3.7275-32.33732,9.8261-35.05575,22.2522l12.27998-56.13243c5.59055-27.61323,66.37267-24.32732,106.62641-32.53415,18.28946-3.7274,32.33732-9.8261,35.05576-22.25226Z" fill="#c8c1df" stroke="#282566" stroke-miterlimit="10" stroke-width="3"/><path d="M406.44067,301.84799l-12.27999,56.13249c-5.59101,27.61307-66.38267,24.32507-106.64857,32.53948-18.27684,3.71997-32.31514,9.82071-35.03359,22.24686l12.27999-56.13249c5.57838-27.60559,66.36265-24.32951,106.62641-32.53415,18.28898-3.7275,32.33518-9.81632,35.05575-22.2522Z" fill="#c8c1df" stroke="#282566" stroke-miterlimit="10" stroke-width="3"/><path d="M373.84506,462.8209l-12.27999,56.13249c-5.59005,27.61328-66.37219,24.32742-106.63809,32.54184-18.27731,3.71981-32.32516,9.81852-35.04573,22.25439l12.27999-56.13249c5.59053-27.61318,66.38219-24.32517,106.64809-32.53959,18.27732-3.71987,32.31514-9.82071,35.03573-22.25664Z" fill="#c8c1df" stroke="#282566" stroke-miterlimit="10" stroke-width="3"/><path d="M391.67553,62.43035c1.04808-5.10614,2.09615-10.21222,3.14424-15.31836,2.77828-13.43534,5.64601-26.85236,8.54622-40.26246-34.23456,3.81671-69.25818,7.19401-73.43676,27.83444l-12.27999,56.13249c2.72057-12.43587,16.76629-18.5248,35.05575-22.2522,11.8039-2.40554,25.36954-3.82563,38.79259-5.32508.06141-.26928.1151-.53982.17795-.80884Z" fill="#c8c1df" stroke="#282566" stroke-miterlimit="10" stroke-width="3"/></svg>