<?xml version="1.0" encoding="UTF-8"?><svg id="Layer_1" xmlns="http://www.w3.org/2000/svg" width="83.68569" height="754.820334" xmlns:xlink="http://www.w3.org/1999/xlink" viewBox="0 0 83.68569 754.820334"><defs><linearGradient id="linear-gradient" x1=".5" y1="377.410167" x2="83.18569" y2="377.410167" gradientUnits="userSpaceOnUse"><stop offset="0" stop-color="#b29ac6"/><stop offset=".521149" stop-color="#d6cedc"/><stop offset=".649537" stop-color="#d0c5d8"/><stop offset=".852848" stop-color="#c0aece"/><stop offset="1" stop-color="#b29ac6"/></linearGradient></defs><path d="M73.086951,737.688721c1.178131,2.20459,2.2258,4.971191,1.627502,8.273193-.102509.565918-.972473,4.979248-4.812836,7.179443-3.948639,2.262207-8.442047.697266-10.444458,0-6.795532-2.366455-7.382629-7.009277-11.785278-6.979736-4.079163.027344-4.705444,4.020264-9.103607,4.09082-4.754425.076172-5.973053-4.558594-10.08725-4.145752-4.009674.402344-4.072021,4.927246-9.023865,6.368164-3.984238,1.159424-9.461975-.164062-11.333328-3.777832-1.328491-2.56543-.367325-5.373291-.222214-5.777832,1.740479-4.852783,7.465958-5.947021,10.941406-7.943115,3.7276-2.140869,8.725525-7.26709,10.327545-36.988525.697113-12.933105-.30011-25.913818.415588-38.845703.68399-12.358643,4.609894-25.73291-.738525-36.895264-6.279358-13.105225-16.057129-21.771729-21.973801-37.240234-5.251465-13.729492-3.894165-29.696289-.600586-43.515381,4.703903-19.736328,13.774063-38.072998,17.590317-58.01001,3.93927-20.579346,3.914703-41.988037-2.765869-62.010742-2.205322-6.609619-3.949051-13.366943-4.94162-20.263672-.616089-4.280762-1.131531-8.686279-1.131531-11.444092l-2.646942-109.929443c-.270157-5.415527,3.599319-10.157715,8.958832-10.979736l16.666595-2.556152c.638977,0,1.205994-.260986,1.619995-.675049.546478-.534668.807587-1.340332.608398-2.182861-.248779-1.052002-1.27063-1.741211-2.351837-1.741211H4.334006c-2.117462,0-3.834-1.716553-3.834-3.833984v-.071777c0-2.301514,1.865677-4.167236,4.167114-4.167236h30.716705c.874237,0,1.698181-.561279,1.894409-1.413086.153931-.668457-.062073-1.291016-.490234-1.71875-.332977-.333252-.791992-.540283-1.29599-.540283H3.655051c-1.43779,0-2.770859-.943848-3.08139-2.347656-.239471-1.082764.123718-2.106445.817383-2.800293.548996-.549072,1.304962-.881836,2.142014-.881836l34.442502-.071285c1.125,0,2.124054-.936035,1.998047-2.042969-.054016-.432129-.243011-.810059-.531036-1.089111-.332977-.332764-.791992-.539795-1.29599-.539795l-34.172543.071285c-1.899033,0-3.582031-1.566162-3.465027-3.465088.045044-.819092.395996-1.557129.953995-2.106201.59404-.59375,1.41301-.953857,2.313004-.953857l37.062475.103c1.125,0,2.123962-.936035,1.997955-2.042969-.053986-.431885-.243011-.810059-.531006-1.089111-.333008-.333008-.791962-.539795-1.304962-.539795l-37.616492-.103c-1.324585,0-2.545486-.879883-2.820602-2.175537-.211578-.996582.123306-1.926514.755661-2.558594.503998-.503906,1.197006-.810059,1.970993-.810059h39.833803c.913544,0,1.776703-.599609,1.948578-1.496826.126282-.65918-.105682-1.23999-.497101-1.644287-.333008-.332764-.792023-.530762-1.305023-.530762H3.46125c-1.635452,0-2.961243-1.325928-2.961243-2.961182v-.044922c0-1.683105,1.359009-3.033203,3.024033-3.033203,9.07196,0,35.483649.116933,42.877568-.016714.611115-.011046.963013-.207031,1.296021-.540039.332977-.332764.539978-.782715.539978-1.295898,0-1.01709-.828003-1.835938-1.845001-1.835938l-42.859547.016958c-1.674042,0-3.033051-1.350098-3.033051-3.015137,0-.836914.341995-1.593018.891037-2.141846.548996-.540283,1.304962-.88208,2.142014-.88208h45.746765c.874664,0,1.699005-.561768,1.894714-1.414307.153351-.667969-.062653-1.289795-.49054-1.718018-.332977-.332764-.791992-.539795-1.304932-.539795l-43.785034.009033c-2.807999,0-5.094025-2.286133-5.094025-5.094238V5.936035C.500007,2.946289,2.94622.5,5.936042.5h58.328979c2.988007,0,5.436005,2.438965,5.436005,5.436035-.017181,13.953369-.034332,27.906494-.051483,41.859619-.04068,33.067627-.081329,66.135254-.122009,99.202637-.048004,39.048096-.096039,78.096191-.144043,117.144287-.039215,31.894531-.07843,63.789062-.117676,95.683594-.014435,11.751709.152313,23.519531-.043884,35.269531-.379333,22.720459-11.219452,44.467285-11.765381,67.436279-.395966,16.6604,4.348389,33.554443,11.14502,48.81543,7.370789,16.550293,15.5224,30.942871,14.496246,49.733887-.658997,12.067871-4.222931,23.865723-9.453156,34.760986-4.100647,8.54248-9.279572,16.73291-11.333038,25.983398-1.715851,7.729492-1.126373,15.678955-1.240326,23.529053-.435242,29.979248-8.683716,60.422852,8.942291,87.384033,1.036011,1.584717,2.159729,3.240234,3.073364,4.949951Z" fill="url(#linear-gradient)" stroke="#4f2b81" stroke-miterlimit="10"/><rect x="8.647392" y="5.699917" width="54" height="6.4" rx="3.199997" ry="3.199997" fill="#f5e4ef" stroke="#231f20" stroke-miterlimit="10" stroke-width=".45"/><rect x="8.647392" y="15.299917" width="54" height="6.4" rx="3.199997" ry="3.199997" fill="#f5e4ef" stroke="#231f20" stroke-miterlimit="10" stroke-width=".45"/><rect x="8.647392" y="24.899917" width="54" height="6.4" rx="3.199997" ry="3.199997" fill="#f5e4ef" stroke="#231f20" stroke-miterlimit="10" stroke-width=".45"/><rect x="8.647392" y="34.499917" width="54" height="6.4" rx="3.199997" ry="3.199997" fill="#f5e4ef" stroke="#231f20" stroke-miterlimit="10" stroke-width=".45"/><rect x="8.647392" y="44.099917" width="54" height="6.4" rx="3.199997" ry="3.199997" fill="#f5e4ef" stroke="#231f20" stroke-miterlimit="10" stroke-width=".45"/><rect x="8.647392" y="53.699917" width="54" height="6.4" rx="3.199997" ry="3.199997" fill="#f5e4ef" stroke="#231f20" stroke-miterlimit="10" stroke-width=".45"/><rect x="8.647392" y="63.299917" width="54" height="6.4" rx="3.199997" ry="3.199997" fill="#f5e4ef" stroke="#231f20" stroke-miterlimit="10" stroke-width=".45"/><rect x="8.647392" y="72.899917" width="54" height="6.4" rx="3.199997" ry="3.199997" fill="#f5e4ef" stroke="#231f20" stroke-miterlimit="10" stroke-width=".45"/><rect x="8.647392" y="82.499917" width="54" height="6.4" rx="3.199997" ry="3.199997" fill="#f5e4ef" stroke="#231f20" stroke-miterlimit="10" stroke-width=".45"/><rect x="8.647392" y="92.099917" width="54" height="6.4" rx="3.199997" ry="3.199997" fill="#f5e4ef" stroke="#231f20" stroke-miterlimit="10" stroke-width=".45"/><rect x="8.647392" y="101.699917" width="54" height="6.4" rx="3.199997" ry="3.199997" fill="#f5e4ef" stroke="#231f20" stroke-miterlimit="10" stroke-width=".45"/><rect x="8.647392" y="111.299917" width="54" height="6.4" rx="3.199997" ry="3.199997" fill="#f5e4ef" stroke="#231f20" stroke-miterlimit="10" stroke-width=".45"/><rect x="8.647392" y="120.899917" width="54" height="6.4" rx="3.199997" ry="3.199997" fill="#f5e4ef" stroke="#231f20" stroke-miterlimit="10" stroke-width=".45"/><rect x="8.647392" y="130.499917" width="54" height="6.4" rx="3.199997" ry="3.199997" fill="#f5e4ef" stroke="#231f20" stroke-miterlimit="10" stroke-width=".45"/><rect x="8.647392" y="140.099917" width="54" height="6.4" rx="3.199997" ry="3.199997" fill="#f5e4ef" stroke="#231f20" stroke-miterlimit="10" stroke-width=".45"/><rect x="8.647392" y="149.699917" width="54" height="6.4" rx="3.199997" ry="3.199997" fill="#f5e4ef" stroke="#231f20" stroke-miterlimit="10" stroke-width=".45"/><rect x="8.647392" y="159.299917" width="54" height="6.4" rx="3.199997" ry="3.199997" fill="#f5e4ef" stroke="#231f20" stroke-miterlimit="10" stroke-width=".45"/><rect x="8.647392" y="168.899917" width="54" height="6.4" rx="3.199997" ry="3.199997" fill="#f5e4ef" stroke="#231f20" stroke-miterlimit="10" stroke-width=".45"/><rect x="8.647392" y="178.499917" width="54" height="6.4" rx="3.199997" ry="3.199997" fill="#f5e4ef" stroke="#231f20" stroke-miterlimit="10" stroke-width=".45"/><rect x="8.647392" y="188.099917" width="54" height="6.4" rx="3.199997" ry="3.199997" fill="#f5e4ef" stroke="#231f20" stroke-miterlimit="10" stroke-width=".45"/><ellipse cx="45.317766" cy="558.886091" rx="16.880142" ry="32.033125" fill="#6a4d92"/></svg>