<?xml version="1.0" encoding="UTF-8"?><svg id="Layer_1" xmlns="http://www.w3.org/2000/svg" width="551.333333" height="435.546029" viewBox="0 0 551.333333 435.546029"><path d="M157.320468,240.319165c-.363199-.599986-.760743-1.187707-.998364-1.847599-.402494-1.117775-.157711-2.064469.735346-2.867495,1.532482-1.37799,3.380011-2.478603,3.202929-4.885226-.091475-1.243183-.756485-2.432508-1.767703-3.161417" fill="none" stroke="#2b8741" stroke-miterlimit="10" stroke-width=".28125"/><line x1="155.803274" y1="273.291735" x2="151.739212" y2="273.291735" fill="none" stroke="#2b8741" stroke-linecap="round" stroke-miterlimit="10" stroke-width="1.476562"/><line x1="69.686283" y1="381.954054" x2="72.560009" y2="384.82778" fill="none" stroke="#834029" stroke-linecap="round" stroke-miterlimit="10" stroke-width="1.476562"/><line x1="51.579786" y1="384.619049" x2="54.817589" y2="382.162785" fill="none" stroke="#834029" stroke-linecap="round" stroke-miterlimit="10" stroke-width="1.476562"/><line x1="60.037866" y1="391.750792" x2="64.101929" y2="391.750792" fill="none" stroke="#834029" stroke-linecap="round" stroke-miterlimit="10" stroke-width="1.476562"/><line x1="60.037866" y1="394.232158" x2="64.101929" y2="394.232158" fill="none" stroke="#834029" stroke-linecap="round" stroke-miterlimit="10" stroke-width="1.476562"/><path d="M58.780248,424.805416c-1.067645,0-1.933034-.8853-1.933034-1.976894v-28.814438c0-4.04866-1.463798-7.930741-4.12145-10.931383l-14.278776-16.119626c-.716797-.809181-.65639-2.05908.134838-2.792142.790958-.733613,2.013397-.671283,2.730194.137897l14.278776,16.119626c3.303255,3.729291,5.122485,8.554036,5.122485,13.585628v28.814438c0,1.091594-.865389,1.976894-1.933034,1.976894Z" fill="#d297c1" stroke="#5c1449" stroke-miterlimit="10" stroke-width=".28125"/><path d="M51.335654,388.658796c-.49422-.02561-.978619-.244015-1.336575-.649172l-15.069176-17.056496c-.71567-.809748-.653713-2.06025.138594-2.791855.792335-.732156,2.014796-.668257,2.730198.141478l15.069176,17.056496c.71567.809748.653713,2.06025-.138594,2.791855-.395898.366092-.899672.53329-1.393623.507694Z" fill="#d297c1" stroke="#5c1449" stroke-miterlimit="10" stroke-width=".28125"/><path d="M64.916713,424.805416c-1.067645,0-1.933034-.8853-1.933034-1.976894v-31.249702c0-3.461219,1.251294-6.779576,3.52331-9.345014l15.877951-17.924975c.716258-.809181,1.939506-.87151,2.730194-.137897.791228.733061.851635,1.982961.134838,2.792142l-15.877682,17.924975c-1.626682,1.83679-2.522544,4.213034-2.522544,6.69077v31.249702c0,1.091594-.865389,1.976894-1.933034,1.976894Z" fill="#d297c1" stroke="#5c1449" stroke-miterlimit="10" stroke-width=".28125"/><path d="M72.503486,388.762569c-.493559.032553-.999537-.127533-1.400329-.488013-.802087-.720374-.880883-1.969884-.176187-2.789638l14.837998-17.267173c.70493-.820322,1.926449-.900887,2.728033-.179927.802087.720374.880883,1.969884.176187,2.789638l-14.837998,17.267173c-.352465.410161-.834144.635387-1.327704.66794Z" fill="#d297c1" stroke="#5c1449" stroke-miterlimit="10" stroke-width=".28125"/><line x1="115.930637" y1="341.225302" x2="113.056911" y2="338.351576" fill="none" stroke="#834029" stroke-linecap="round" stroke-miterlimit="10" stroke-width="1.476562"/><line x1="134.037133" y1="338.560307" x2="130.79933" y2="341.016571" fill="none" stroke="#834029" stroke-linecap="round" stroke-miterlimit="10" stroke-width="1.476562"/><line x1="146.243262" y1="281.330731" x2="143.369536" y2="278.457005" fill="none" stroke="#2b8741" stroke-linecap="round" stroke-miterlimit="10" stroke-width="1.476562"/><line x1="164.349759" y1="278.665736" x2="161.111956" y2="281.122" fill="none" stroke="#2b8741" stroke-linecap="round" stroke-miterlimit="10" stroke-width="1.476562"/><line x1="155.803274" y1="271.337516" x2="151.739212" y2="271.337516" fill="none" stroke="#2b8741" stroke-linecap="round" stroke-miterlimit="10" stroke-width="1.476562"/><path d="M157.060893,239.495624c1.067645,0,1.933034.8853,1.933034,1.976894v28.814438c0,4.04866,1.463798,7.930741,4.12145,10.931383l14.278776,16.119626c.716797.809181.65639,2.05908-.134838,2.792142-.790958.733613-2.013397.671283-2.730194-.137897l-14.278776-16.119626c-3.303255-3.729291-5.122485-8.554036-5.122485-13.585628v-28.814438c0-1.091594.865389-1.976894,1.933034-1.976894Z" fill="#b2dbb6" stroke="#2b8741" stroke-miterlimit="10" stroke-width=".28125"/><path d="M164.505486,275.642244c.49422.02561.978619.244015,1.336575.649172l15.069176,17.056496c.71567.809748.653713,2.06025-.138594,2.791855-.792335.732156-2.014796.668257-2.730198-.141478l-15.069176-17.056496c-.71567-.809748-.653713-2.06025.138594-2.791855.395898-.366092.899672-.53329,1.393623-.507694Z" fill="#b2dbb6" stroke="#2b8741" stroke-miterlimit="10" stroke-width=".28125"/><path d="M150.924428,239.495624c1.067645,0,1.933034.8853,1.933034,1.976894v31.249702c0,3.461219-1.251294,6.779576-3.52331,9.345014l-15.877951,17.924975c-.716258.809181-1.939506.87151-2.730194.137897-.791228-.733061-.851635-1.982961-.134838-2.792142l15.877682-17.924975c1.626682-1.83679,2.522544-4.213034,2.522544-6.69077v-31.249702c0-1.091594.865389-1.976894,1.933034-1.976894Z" fill="#b2dbb6" stroke="#2b8741" stroke-miterlimit="10" stroke-width=".28125"/><path d="M143.337655,275.538471c.493559-.032553.999537.127533,1.400329.488013.802087.720374.880883,1.969884.176187,2.789638l-14.837998,17.267173c-.70493.820322-1.926449.900887-2.728033.179927-.802087-.720374-.880883-1.969884-.176187-2.789638l14.837998-17.267173c.352465-.410161.834144-.635387,1.327704-.66794Z" fill="#b2dbb6" stroke="#2b8741" stroke-miterlimit="10" stroke-width=".28125"/><circle cx="158.203311" cy="221.075161" r="7.017601" fill="#f3cf99" stroke="#8a6834" stroke-miterlimit="10" stroke-width=".28125"/><circle cx="92.848888" cy="361.433325" r="7.017601" fill="#a4dff9" stroke="#2e2f82" stroke-miterlimit="10" stroke-width=".28125"/><line x1="125.579053" y1="330.345231" x2="121.514991" y2="330.345231" fill="none" stroke="#834029" stroke-linecap="round" stroke-miterlimit="10" stroke-width="1.476562"/><line x1="125.579053" y1="328.094572" x2="121.514991" y2="328.094572" fill="none" stroke="#834029" stroke-linecap="round" stroke-miterlimit="10" stroke-width="1.476562"/><path d="M126.836672,298.37394c1.067645,0,1.933034.8853,1.933034,1.976894v28.814438c0,4.04866,1.463798,7.930741,4.12145,10.931383l14.278776,16.119626c.716797.809181.65639,2.05908-.134838,2.792142-.790958.733613-2.013397.671283-2.730194-.137897l-14.278776-16.119626c-3.303255-3.729291-5.122485-8.554036-5.122485-13.585628v-28.814438c0-1.091594.865389-1.976894,1.933034-1.976894Z" fill="#fbc7b5" stroke="#6b4133" stroke-miterlimit="10" stroke-width=".28125"/><path d="M134.281265,334.52056c.49422.02561.978619.244015,1.336575.649172l15.069176,17.056496c.71567.809748.653713,2.06025-.138594,2.791855-.792335.732156-2.014796.668257-2.730198-.141478l-15.069176-17.056496c-.71567-.809748-.653713-2.06025.138594-2.791855.395898-.366092.899672-.53329,1.393623-.507694Z" fill="#fbc7b5" stroke="#6b4133" stroke-miterlimit="10" stroke-width=".28125"/><path d="M120.700207,298.37394c1.067645,0,1.933034.8853,1.933034,1.976894v31.249702c0,3.461219-1.251294,6.779576-3.52331,9.345014l-15.877951,17.924975c-.716258.809181-1.939506.87151-2.730194.137897-.791228-.733061-.851635-1.982961-.134838-2.792142l15.877682-17.924975c1.626682-1.83679,2.522544-4.213034,2.522544-6.69077v-31.249702c0-1.091594.865389-1.976894,1.933034-1.976894Z" fill="#fbc7b5" stroke="#6b4133" stroke-miterlimit="10" stroke-width=".28125"/><path d="M113.113434,334.416787c.493559-.032553.999537.127533,1.400329.488013.802087.720374.880883,1.969884.176187,2.789638l-14.837998,17.267173c-.70493.820322-1.926449.900887-2.728033.179927-.802087-.720374-.880883-1.969884-.176187-2.789638l14.837998-17.267173c.352465-.410161.834144-.635387,1.327704-.66794Z" fill="#fbc7b5" stroke="#6b4133" stroke-miterlimit="10" stroke-width=".28125"/><path d="M324.911113,246.168597c-.363199-.599986-.760743-1.187707-.998364-1.847599-.402494-1.117775-.157711-2.064469.735346-2.867495,1.532482-1.37799,3.380011-2.478603,3.202929-4.885226-.091475-1.243183-.756485-2.432508-1.767703-3.161417" fill="none" stroke="#2b8741" stroke-miterlimit="10" stroke-width=".28125"/><line x1="323.39392" y1="279.141167" x2="319.329857" y2="279.141167" fill="none" stroke="#2b8741" stroke-linecap="round" stroke-miterlimit="10" stroke-width="1.476562"/><line x1="237.276928" y1="387.803486" x2="240.150654" y2="390.677212" fill="none" stroke="#834029" stroke-linecap="round" stroke-miterlimit="10" stroke-width="1.476562"/><line x1="219.170432" y1="390.468481" x2="222.408235" y2="388.012217" fill="none" stroke="#834029" stroke-linecap="round" stroke-miterlimit="10" stroke-width="1.476562"/><line x1="227.628512" y1="397.600224" x2="231.692574" y2="397.600224" fill="none" stroke="#834029" stroke-linecap="round" stroke-miterlimit="10" stroke-width="1.476562"/><line x1="227.628512" y1="400.08159" x2="231.692574" y2="400.08159" fill="none" stroke="#834029" stroke-linecap="round" stroke-miterlimit="10" stroke-width="1.476562"/><path d="M226.370893,430.654848c-1.067645,0-1.933034-.8853-1.933034-1.976894v-28.814438c0-4.04866-1.463798-7.930741-4.12145-10.931383l-14.278776-16.119626c-.716797-.809181-.65639-2.05908.134838-2.792142.790958-.733613,2.013397-.671283,2.730194.137897l14.278776,16.119626c3.303255,3.729291,5.122485,8.554036,5.122485,13.585628v28.814438c0,1.091594-.865389,1.976894-1.933034,1.976894Z" fill="#d297c1" stroke="#5c1449" stroke-miterlimit="10" stroke-width=".28125"/><path d="M218.9263,394.508228c-.49422-.02561-.978619-.244015-1.336575-.649172l-15.069176-17.056496c-.71567-.809748-.653713-2.06025.138594-2.791855.792335-.732156,2.014796-.668257,2.730198.141478l15.069176,17.056496c.71567.809748.653713,2.06025-.138594,2.791855-.395898.366092-.899672.53329-1.393623.507694Z" fill="#d297c1" stroke="#5c1449" stroke-miterlimit="10" stroke-width=".28125"/><path d="M232.507358,430.654848c-1.067645,0-1.933034-.8853-1.933034-1.976894v-31.249702c0-3.461219,1.251294-6.779576,3.52331-9.345014l15.877951-17.924975c.716258-.809181,1.939506-.87151,2.730194-.137897.791228.733061.851635,1.982961.134838,2.792142l-15.877682,17.924975c-1.626682,1.83679-2.522544,4.213034-2.522544,6.69077v31.249702c0,1.091594-.865389,1.976894-1.933034,1.976894Z" fill="#d297c1" stroke="#5c1449" stroke-miterlimit="10" stroke-width=".28125"/><path d="M240.094131,394.612001c-.493559.032553-.999537-.127533-1.400329-.488013-.802087-.720374-.880883-1.969884-.176187-2.789638l14.837998-17.267173c.70493-.820322,1.926449-.900887,2.728033-.179927.802087.720374.880883,1.969884.176187,2.789638l-14.837998,17.267173c-.352465.410161-.834144.635387-1.327704.66794Z" fill="#d297c1" stroke="#5c1449" stroke-miterlimit="10" stroke-width=".28125"/><line x1="283.521282" y1="347.074734" x2="280.647556" y2="344.201008" fill="none" stroke="#834029" stroke-linecap="round" stroke-miterlimit="10" stroke-width="1.476562"/><line x1="301.627779" y1="344.409739" x2="298.389975" y2="346.866003" fill="none" stroke="#834029" stroke-linecap="round" stroke-miterlimit="10" stroke-width="1.476562"/><line x1="313.833908" y1="287.180163" x2="310.960182" y2="284.306437" fill="none" stroke="#2b8741" stroke-linecap="round" stroke-miterlimit="10" stroke-width="1.476562"/><line x1="331.940404" y1="284.515168" x2="328.702601" y2="286.971432" fill="none" stroke="#2b8741" stroke-linecap="round" stroke-miterlimit="10" stroke-width="1.476562"/><line x1="323.39392" y1="277.186948" x2="319.329857" y2="277.186948" fill="none" stroke="#2b8741" stroke-linecap="round" stroke-miterlimit="10" stroke-width="1.476562"/><path d="M324.651538,245.345056c1.067645,0,1.933034.8853,1.933034,1.976894v28.814438c0,4.04866,1.463798,7.930741,4.12145,10.931383l14.278776,16.119626c.716797.809181.65639,2.05908-.134838,2.792142-.790958.733613-2.013397.671283-2.730194-.137897l-14.278776-16.119626c-3.303255-3.729291-5.122485-8.554036-5.122485-13.585628v-28.814438c0-1.091594.865389-1.976894,1.933034-1.976894Z" fill="#b2dbb6" stroke="#2b8741" stroke-miterlimit="10" stroke-width=".28125"/><path d="M332.096132,281.491676c.49422.02561.978619.244015,1.336575.649172l15.069176,17.056496c.71567.809748.653713,2.06025-.138594,2.791855-.792335.732156-2.014796.668257-2.730198-.141478l-15.069176-17.056496c-.71567-.809748-.653713-2.06025.138594-2.791855.395898-.366092.899672-.53329,1.393623-.507694Z" fill="#b2dbb6" stroke="#2b8741" stroke-miterlimit="10" stroke-width=".28125"/><path d="M318.515073,245.345056c1.067645,0,1.933034.8853,1.933034,1.976894v31.249702c0,3.461219-1.251294,6.779576-3.52331,9.345014l-15.877951,17.924975c-.716258.809181-1.939506.87151-2.730194.137897-.791228-.733061-.851635-1.982961-.134838-2.792142l15.877682-17.924975c1.626682-1.83679,2.522544-4.213034,2.522544-6.69077v-31.249702c0-1.091594.865389-1.976894,1.933034-1.976894Z" fill="#b2dbb6" stroke="#2b8741" stroke-miterlimit="10" stroke-width=".28125"/><path d="M310.9283,281.387903c.493559-.032553.999537.127533,1.400329.488013.802087.720374.880883,1.969884.176187,2.789638l-14.837998,17.267173c-.70493.820322-1.926449.900887-2.728033.179927-.802087-.720374-.880883-1.969884-.176187-2.789638l14.837998-17.267173c.352465-.410161.834144-.635387,1.327704-.66794Z" fill="#b2dbb6" stroke="#2b8741" stroke-miterlimit="10" stroke-width=".28125"/><circle cx="325.793956" cy="226.924593" r="7.017601" fill="#f3cf99" stroke="#8a6834" stroke-miterlimit="10" stroke-width=".28125"/><circle cx="260.439533" cy="367.282757" r="7.017601" fill="#a4dff9" stroke="#2e2f82" stroke-miterlimit="10" stroke-width=".28125"/><line x1="293.169699" y1="336.194663" x2="289.105636" y2="336.194663" fill="none" stroke="#834029" stroke-linecap="round" stroke-miterlimit="10" stroke-width="1.476562"/><line x1="293.169699" y1="333.944004" x2="289.105636" y2="333.944004" fill="none" stroke="#834029" stroke-linecap="round" stroke-miterlimit="10" stroke-width="1.476562"/><path d="M294.427317,304.223372c1.067645,0,1.933034.8853,1.933034,1.976894v28.814438c0,4.04866,1.463798,7.930741,4.12145,10.931383l14.278776,16.119626c.716797.809181.65639,2.05908-.134838,2.792142-.790958.733613-2.013397.671283-2.730194-.137897l-14.278776-16.119626c-3.303255-3.729291-5.122485-8.554036-5.122485-13.585628v-28.814438c0-1.091594.865389-1.976894,1.933034-1.976894Z" fill="#fbc7b5" stroke="#6b4133" stroke-miterlimit="10" stroke-width=".28125"/><path d="M301.87191,340.369992c.49422.02561.978619.244015,1.336575.649172l15.069176,17.056496c.71567.809748.653713,2.06025-.138594,2.791855-.792335.732156-2.014796.668257-2.730198-.141478l-15.069176-17.056496c-.71567-.809748-.653713-2.06025.138594-2.791855.395898-.366092.899672-.53329,1.393623-.507694Z" fill="#fbc7b5" stroke="#6b4133" stroke-miterlimit="10" stroke-width=".28125"/><path d="M288.290852,304.223372c1.067645,0,1.933034.8853,1.933034,1.976894v31.249702c0,3.461219-1.251294,6.779576-3.52331,9.345014l-15.877951,17.924975c-.716258.809181-1.939506.87151-2.730194.137897-.791228-.733061-.851635-1.982961-.134838-2.792142l15.877682-17.924975c1.626682-1.83679,2.522544-4.213034,2.522544-6.69077v-31.249702c0-1.091594.865389-1.976894,1.933034-1.976894Z" fill="#fbc7b5" stroke="#6b4133" stroke-miterlimit="10" stroke-width=".28125"/><path d="M280.704079,340.266219c.493559-.032553.999537.127533,1.400329.488013.802087.720374.880883,1.969884.176187,2.789638l-14.837998,17.267173c-.70493.820322-1.926449.900887-2.728033.179927-.802087-.720374-.880883-1.969884-.176187-2.789638l14.837998-17.267173c.352465-.410161.834144-.635387,1.327704-.66794Z" fill="#fbc7b5" stroke="#6b4133" stroke-miterlimit="10" stroke-width=".28125"/><path d="M492.501758,248.982249c-.363199-.599986-.760743-1.187707-.998364-1.847599-.402494-1.117775-.157711-2.064469.735346-2.867495,1.532482-1.37799,3.380011-2.478603,3.202929-4.885226-.091475-1.243183-.756485-2.432508-1.767703-3.161417" fill="none" stroke="#2b8741" stroke-miterlimit="10" stroke-width=".28125"/><line x1="490.984565" y1="281.954819" x2="486.920502" y2="281.954819" fill="none" stroke="#2b8741" stroke-linecap="round" stroke-miterlimit="10" stroke-width="1.476562"/><line x1="404.867573" y1="390.617138" x2="407.741299" y2="393.490864" fill="none" stroke="#834029" stroke-linecap="round" stroke-miterlimit="10" stroke-width="1.476562"/><line x1="386.761077" y1="393.282133" x2="389.99888" y2="390.825869" fill="none" stroke="#834029" stroke-linecap="round" stroke-miterlimit="10" stroke-width="1.476562"/><line x1="395.219157" y1="400.413876" x2="399.283219" y2="400.413876" fill="none" stroke="#834029" stroke-linecap="round" stroke-miterlimit="10" stroke-width="1.476562"/><line x1="395.219157" y1="402.895242" x2="399.283219" y2="402.895242" fill="none" stroke="#834029" stroke-linecap="round" stroke-miterlimit="10" stroke-width="1.476562"/><path d="M393.961538,433.4685c-1.067645,0-1.933034-.8853-1.933034-1.976894v-28.814438c0-4.04866-1.463798-7.930741-4.12145-10.931383l-14.278776-16.119626c-.716797-.809181-.65639-2.05908.134838-2.792142.790958-.733613,2.013397-.671283,2.730194.137897l14.278776,16.119626c3.303255,3.729291,5.122485,8.554036,5.122485,13.585628v28.814438c0,1.091594-.865389,1.976894-1.933034,1.976894Z" fill="#d297c1" stroke="#5c1449" stroke-miterlimit="10" stroke-width=".28125"/><path d="M386.516945,397.32188c-.49422-.02561-.978619-.244015-1.336575-.649172l-15.069176-17.056496c-.71567-.809748-.653713-2.06025.138594-2.791855.792335-.732156,2.014796-.668257,2.730198.141478l15.069176,17.056496c.71567.809748.653713,2.06025-.138594,2.791855-.395898.366092-.899672.53329-1.393623.507694Z" fill="#d297c1" stroke="#5c1449" stroke-miterlimit="10" stroke-width=".28125"/><path d="M400.098003,433.4685c-1.067645,0-1.933034-.8853-1.933034-1.976894v-31.249702c0-3.461219,1.251294-6.779576,3.52331-9.345014l15.877951-17.924975c.716258-.809181,1.939506-.87151,2.730194-.137897.791228.733061.851635,1.982961.134838,2.792142l-15.877682,17.924975c-1.626682,1.83679-2.522544,4.213034-2.522544,6.69077v31.249702c0,1.091594-.865389,1.976894-1.933034,1.976894Z" fill="#d297c1" stroke="#5c1449" stroke-miterlimit="10" stroke-width=".28125"/><path d="M407.684776,397.425653c-.493559.032553-.999537-.127533-1.400329-.488013-.802087-.720374-.880883-1.969884-.176187-2.789638l14.837998-17.267173c.70493-.820322,1.926449-.900887,2.728033-.179927.802087.720374.880883,1.969884.176187,2.789638l-14.837998,17.267173c-.352465.410161-.834144.635387-1.327704.66794Z" fill="#d297c1" stroke="#5c1449" stroke-miterlimit="10" stroke-width=".28125"/><line x1="451.111927" y1="349.888386" x2="448.238201" y2="347.01466" fill="none" stroke="#834029" stroke-linecap="round" stroke-miterlimit="10" stroke-width="1.476562"/><line x1="469.218424" y1="347.223391" x2="465.980621" y2="349.679655" fill="none" stroke="#834029" stroke-linecap="round" stroke-miterlimit="10" stroke-width="1.476562"/><line x1="481.424553" y1="289.993815" x2="478.550827" y2="287.120089" fill="none" stroke="#2b8741" stroke-linecap="round" stroke-miterlimit="10" stroke-width="1.476562"/><line x1="499.531049" y1="287.32882" x2="496.293246" y2="289.785084" fill="none" stroke="#2b8741" stroke-linecap="round" stroke-miterlimit="10" stroke-width="1.476562"/><line x1="490.984565" y1="280.0006" x2="486.920502" y2="280.0006" fill="none" stroke="#2b8741" stroke-linecap="round" stroke-miterlimit="10" stroke-width="1.476562"/><path d="M492.242183,248.158708c1.067645,0,1.933034.8853,1.933034,1.976894v28.814438c0,4.04866,1.463798,7.930741,4.12145,10.931383l14.278776,16.119626c.716797.809181.65639,2.05908-.134838,2.792142-.790958.733613-2.013397.671283-2.730194-.137897l-14.278776-16.119626c-3.303255-3.729291-5.122485-8.554036-5.122485-13.585628v-28.814438c0-1.091594.865389-1.976894,1.933034-1.976894Z" fill="#b2dbb6" stroke="#2b8741" stroke-miterlimit="10" stroke-width=".28125"/><path d="M499.686777,284.305328c.49422.02561.978619.244015,1.336575.649172l15.069176,17.056496c.71567.809748.653713,2.06025-.138594,2.791855-.792335.732156-2.014796.668257-2.730198-.141478l-15.069176-17.056496c-.71567-.809748-.653713-2.06025.138594-2.791855.395898-.366092.899672-.53329,1.393623-.507694Z" fill="#b2dbb6" stroke="#2b8741" stroke-miterlimit="10" stroke-width=".28125"/><path d="M486.105718,248.158708c1.067645,0,1.933034.8853,1.933034,1.976894v31.249702c0,3.461219-1.251294,6.779576-3.52331,9.345014l-15.877951,17.924975c-.716258.809181-1.939506.87151-2.730194.137897-.791228-.733061-.851635-1.982961-.134838-2.792142l15.877682-17.924975c1.626682-1.83679,2.522544-4.213034,2.522544-6.69077v-31.249702c0-1.091594.865389-1.976894,1.933034-1.976894Z" fill="#b2dbb6" stroke="#2b8741" stroke-miterlimit="10" stroke-width=".28125"/><path d="M478.518945,284.201555c.493559-.032553.999537.127533,1.400329.488013.802087.720374.880883,1.969884.176187,2.789638l-14.837998,17.267173c-.70493.820322-1.926449.900887-2.728033.179927-.802087-.720374-.880883-1.969884-.176187-2.789638l14.837998-17.267173c.352465-.410161.834144-.635387,1.327704-.66794Z" fill="#b2dbb6" stroke="#2b8741" stroke-miterlimit="10" stroke-width=".28125"/><circle cx="493.384601" cy="229.738245" r="7.017601" fill="#f3cf99" stroke="#8a6834" stroke-miterlimit="10" stroke-width=".28125"/><circle cx="428.030178" cy="370.096409" r="7.017601" fill="#a4dff9" stroke="#2e2f82" stroke-miterlimit="10" stroke-width=".28125"/><line x1="460.760344" y1="339.008315" x2="456.696281" y2="339.008315" fill="none" stroke="#834029" stroke-linecap="round" stroke-miterlimit="10" stroke-width="1.476562"/><line x1="460.760344" y1="336.757656" x2="456.696281" y2="336.757656" fill="none" stroke="#834029" stroke-linecap="round" stroke-miterlimit="10" stroke-width="1.476562"/><path d="M462.017962,307.037024c1.067645,0,1.933034.8853,1.933034,1.976894v28.814438c0,4.04866,1.463798,7.930741,4.12145,10.931383l14.278776,16.119626c.716797.809181.65639,2.05908-.134838,2.792142-.790958.733613-2.013397.671283-2.730194-.137897l-14.278776-16.119626c-3.303255-3.729291-5.122485-8.554036-5.122485-13.585628v-28.814438c0-1.091594.865389-1.976894,1.933034-1.976894Z" fill="#fbc7b5" stroke="#6b4133" stroke-miterlimit="10" stroke-width=".28125"/><path d="M469.462556,343.183644c.49422.02561.978619.244015,1.336575.649172l15.069176,17.056496c.71567.809748.653713,2.06025-.138594,2.791855-.792335.732156-2.014796.668257-2.730198-.141478l-15.069176-17.056496c-.71567-.809748-.653713-2.06025.138594-2.791855.395898-.366092.899672-.53329,1.393623-.507694Z" fill="#fbc7b5" stroke="#6b4133" stroke-miterlimit="10" stroke-width=".28125"/><path d="M455.881497,307.037024c1.067645,0,1.933034.8853,1.933034,1.976894v31.249702c0,3.461219-1.251294,6.779576-3.52331,9.345014l-15.877951,17.924975c-.716258.809181-1.939506.87151-2.730194.137897-.791228-.733061-.851635-1.982961-.134838-2.792142l15.877682-17.924975c1.626682-1.83679,2.522544-4.213034,2.522544-6.69077v-31.249702c0-1.091594.865389-1.976894,1.933034-1.976894Z" fill="#fbc7b5" stroke="#6b4133" stroke-miterlimit="10" stroke-width=".28125"/><path d="M448.294724,343.079871c.493559-.032553.999537.127533,1.400329.488013.802087.720374.880883,1.969884.176187,2.789638l-14.837998,17.267173c-.70493.820322-1.926449.900887-2.728033.179927-.802087-.720374-.880883-1.969884-.176187-2.789638l14.837998-17.267173c.352465-.410161.834144-.635387,1.327704-.66794Z" fill="#fbc7b5" stroke="#6b4133" stroke-miterlimit="10" stroke-width=".28125"/><path d="M548.333333,3v336.102828c0,51.607255-45.928185,93.443201-102.583472,93.443201H105.583472c-56.655287,0-102.583472-41.835946-102.583472-93.443201V3" fill="none" stroke="#231f20" stroke-linecap="round" stroke-miterlimit="10" stroke-width="6"/></svg>