<?xml version="1.0" encoding="UTF-8"?><svg id="Layer_1" xmlns="http://www.w3.org/2000/svg" width="407.665206" height="455.463375" viewBox="0 0 407.665206 455.463375"><line x1="190.797777" y1="217.335279" x2="221.02" y2="217.335279" fill="none" stroke="#298638" stroke-linecap="round" stroke-miterlimit="10" stroke-width="7"/><line x1="261.890386" y1="143.983443" x2="283.260724" y2="165.353781" fill="none" stroke="#298638" stroke-linecap="round" stroke-miterlimit="10" stroke-width="7"/><line x1="127.242222" y1="163.801563" x2="151.320002" y2="145.535661" fill="none" stroke="#298638" stroke-linecap="round" stroke-miterlimit="10" stroke-width="7"/><line x1="190.797777" y1="227.731688" x2="221.02" y2="227.731688" fill="none" stroke="#298638" stroke-linecap="round" stroke-miterlimit="10" stroke-width="7"/><path d="M181.445553,455.088375c-7.939496,0-14.37492-6.583493-14.37492-14.701082v-214.277301c0-30.107686-10.885472-58.976608-30.648982-81.290751L30.238162,24.946352c-5.330432-6.017435-4.881216-15.31226,1.002715-20.763638,5.881925-5.45548,14.972538-4.991969,20.30297,1.025466l106.18349,119.872889c24.564508,27.732706,38.093137,63.611715,38.093137,101.028923v214.277301c0,8.11759-6.435424,14.701082-14.37492,14.701082Z" fill="#afe1b7" stroke="#298638" stroke-miterlimit="10" stroke-width=".75"/><path d="M126.084161,186.285628c-3.675248-.19045-7.277455-1.814609-9.939381-4.827537L4.083512,54.618206c-5.322052-6.021657-4.861311-15.320959,1.030652-20.761511,5.892166-5.444648,14.982945-4.969461,20.302994,1.052092l112.061268,126.839885c5.322052,6.021657,4.861311,15.320959-1.030652,20.761511-2.94408,2.722428-6.690368,3.965791-10.363613,3.775445Z" fill="#afe1b7" stroke="#298638" stroke-miterlimit="10" stroke-width=".75"/><path d="M227.079105,455.088375c-7.939496,0-14.37492-6.583493-14.37492-14.701082v-232.387033c0-25.7392,9.305194-50.416017,26.200939-69.493789L356.980812,5.20818c5.326421-6.017435,14.42305-6.480946,20.30297-1.025466,5.883931,5.451378,6.333147,14.746203,1.002715,20.763638l-118.073683,133.298291c-12.096752,13.659209-18.758789,31.330041-18.758789,49.755617v232.387033c0,8.11759-6.435424,14.701082-14.37492,14.701082Z" fill="#afe1b7" stroke="#298638" stroke-miterlimit="10" stroke-width=".75"/><path d="M283.497809,187.05733c-3.670333.242077-7.433013-.948391-10.413485-3.629084-5.964687-5.357029-6.550644-14.648958-1.310208-20.745021l110.34212-128.406574c5.242179-6.100288,14.325953-6.699408,20.286896-1.338022,5.964687,5.357029,6.550644,14.648958,1.310208,20.745021l-110.34212,128.406574c-2.621089,3.050144-6.203078,4.725029-9.873411,4.967106Z" fill="#afe1b7" stroke="#298638" stroke-miterlimit="10" stroke-width=".75"/></svg>