<?xml version="1.0" encoding="UTF-8"?><svg id="Layer_1" xmlns="http://www.w3.org/2000/svg" width="561.84863" height="462.97754" viewBox="0 0 561.84863 462.97754"><line x1="44.44626" y1="270.50938" x2="44.44624" y2="186.88155" fill="none" stroke="#231f20" stroke-linecap="round" stroke-miterlimit="10" stroke-width="4"/><text transform="translate(25.61068 177.72781) scale(.98383 1)" fill="#231f20" font-family="TimesNewRomanPS-BoldMT, &apos;Times New Roman&apos;" font-size="40.5" font-weight="700"><tspan x="0" y="0">H</tspan></text><text transform="translate(.00033 303.09207) scale(.98383 1)" fill="#231f20" font-family="TimesNewRomanPS-BoldMT, &apos;Times New Roman&apos;" font-size="40.5" font-weight="700"><tspan x="0" y="0">HO</tspan></text><line x1="397.91293" y1="414.50939" x2="397.91291" y2="330.88155" fill="none" stroke="#231f20" stroke-linecap="round" stroke-miterlimit="10" stroke-width="4"/><text transform="translate(379.0765 321.72781) scale(.98383 1)" fill="#231f20" font-family="TimesNewRomanPS-BoldMT, &apos;Times New Roman&apos;" font-size="40.5" font-weight="700"><tspan x="0" y="0">H</tspan></text><text transform="translate(379.91341 447.69949) scale(.98383 1)" fill="#231f20" font-family="TimesNewRomanPS-BoldMT, &apos;Times New Roman&apos;" font-size="40.5" font-weight="700"><tspan x="0" y="0">OH</tspan></text><line x1="517.86295" y1="270.50937" x2="517.86293" y2="186.88153" fill="none" stroke="#231f20" stroke-linecap="round" stroke-miterlimit="10" stroke-width="4"/><text transform="translate(499.0267 177.72781) scale(.98383 1)" fill="#231f20" font-family="TimesNewRomanPS-BoldMT, &apos;Times New Roman&apos;" font-size="40.5" font-weight="700"><tspan x="0" y="0">H</tspan></text><text transform="translate(499.86361 303.69949) scale(.98383 1)" fill="#231f20" font-family="TimesNewRomanPS-BoldMT, &apos;Times New Roman&apos;" font-size="40.5" font-weight="700"><tspan x="0" y="0">OH</tspan></text><line x1="163.7796" y1="417.12633" x2="163.77958" y2="333.49849" fill="none" stroke="#231f20" stroke-linecap="round" stroke-miterlimit="10" stroke-width="4"/><text transform="translate(144.94369 324.345) scale(.98383 1)" fill="#231f20" font-family="TimesNewRomanPS-BoldMT, &apos;Times New Roman&apos;" font-size="40.5" font-weight="700"><tspan x="0" y="0">OH</tspan></text><text transform="translate(145.7806 449.70828) scale(.98383 1)" fill="#231f20" font-family="TimesNewRomanPS-BoldMT, &apos;Times New Roman&apos;" font-size="40.5" font-weight="700"><tspan x="0" y="0">H</tspan></text><line x1="163.77954" y1="126.43997" x2="163.77952" y2="42.81213" fill="none" stroke="#231f20" stroke-linecap="round" stroke-miterlimit="10" stroke-width="4"/><text transform="translate(144.94369 33.65847) scale(.98383 1)" fill="#231f20" font-family="TimesNewRomanPS-BoldMT, &apos;Times New Roman&apos;" font-size="40.5" font-weight="700"><tspan x="0" y="0">CH</tspan></text><text transform="translate(204.71127 47.1448) scale(.57357)" fill="#231f20" font-family="TimesNewRomanPS-BoldMT, &apos;Times New Roman&apos;" font-size="40.5" font-weight="700"><tspan x="0" y="0">2</tspan></text><text transform="translate(216.3265 33.65847) scale(.98383 1)" fill="#231f20" font-family="TimesNewRomanPS-BoldMT, &apos;Times New Roman&apos;" font-size="40.5" font-weight="700" letter-spacing="-.00002em"><tspan x="0" y="0">OH</tspan></text><text transform="translate(145.7806 159.02176) scale(.98383 1)" fill="#231f20" font-family="TimesNewRomanPS-BoldMT, &apos;Times New Roman&apos;" font-size="40.5" font-weight="700"><tspan x="0" y="0">H</tspan></text><text transform="translate(377.91341 95.73269) scale(.98383 1)" fill="#231f20" font-family="TimesNewRomanPS-BoldMT, &apos;Times New Roman&apos;" font-size="40.5" font-weight="700"><tspan x="0" y="0">O</tspan></text><polyline points="374.44629 77.78277 163.66148 77.78277 46.37766 225.47951 163.66148 373.17625 398.22911 373.17625 515.51292 225.47951 409.15387 91.54044" fill="none" stroke="#231f20" stroke-linecap="round" stroke-miterlimit="10" stroke-width="6"/></svg>