<?xml version="1.0" encoding="UTF-8"?><svg id="Dimensions" xmlns="http://www.w3.org/2000/svg" width="251.999939" height="188.910034" viewBox="0 0 251.999939 188.910034"><g opacity=".5"><path d="M125.999984,122.459815c-42.244629,0-81.447754-10.165039-104.867676-27.190918l-1.112305-.808594,1.111816-.809082c23.414551-17.032715,62.617676-27.201172,104.868164-27.201172s81.453613,10.168457,104.868652,27.201172l1.111816.809082-1.112305.808594c-23.42041,17.025879-62.623535,27.190918-104.868164,27.190918ZM23.439925,94.459326c23.212891,16.299316,61.398926,26.000488,102.560059,26.000488,41.160645,0,79.347168-9.701172,102.560547-26.000488-23.208008-16.304688-61.394531-26.009277-102.560547-26.009277-41.166504,0-79.352539,9.70459-102.560059,26.009277Z" fill="#67757d"/></g><path d="M231.999923,93.460059c-22.380005,16.27002-60.72998,27-104.280029,27s-81.899963-10.72998-104.279968-27c22.380005-16.279968,60.72998-27.01001,104.279968-27.01001s81.900024,10.730042,104.280029,27.01001Z" fill="rgba(228,245,253,.6)"/><path d="M250.999969,62.229834c0,12.280029-7.630005,23.699951-20.719971,33.22998-22.380005-16.280029-60.730042-27.01001-104.280029-27.01001s-81.899963,10.72998-104.279968,27.01001C8.629974,85.929785.999969,74.509863.999969,62.229834.999969,28.969824,56.970001,1.999854,125.999969,1.999854c69.040039,0,125,26.969971,125,60.22998Z" fill="rgba(228,245,253,.3)"/><g opacity=".3"><path d="M251.000198,61.729926v66.450012c0,33.259949-55.9599,60.22998-124.999939,60.22998-69.029968,0-125-26.970032-125-60.22998V61.729926c0,12.279968,7.630005,23.700012,20.720032,33.22998,22.380005,16.27002,60.72998,27,104.279968,27s81.900024-10.72998,104.280029-27c13.090027-9.529968,20.71991-20.950012,20.71991-33.22998Z" fill="#d4e4ec"/></g><path d="M125.999984,122.459815c-42.244629,0-81.447754-10.165039-104.867676-27.190918C7.307113,85.203955-.000016,73.433936-.000016,61.229834-.000016,27.467627,56.523422-.000146,125.999984-.000146s126,27.467773,126,61.22998c0,12.203613-7.307129,23.974121-21.131348,34.038574-23.420898,17.026367-62.624023,27.191406-104.868652,27.191406ZM125.999984,1.999854C57.625961,1.999854,1.999984,28.570166,1.999984,61.229834c0,11.538086,7.022461,22.749023,20.308594,32.421387,23.090332,16.786621,61.853516,26.808594,103.691406,26.808594,41.837402,0,80.601074-10.021973,103.692383-26.809082,13.285156-9.671875,20.307617-20.882812,20.307617-32.420898C249.999984,28.570166,194.374007,1.999854,125.999984,1.999854Z" fill="#67757d"/><path d="M1.999984,61.229834c0,11.538086,7.022461,22.749023,20.308594,32.421387,23.090332,16.786621,61.853516,26.808594,103.691406,26.808594,41.837402,0,80.601074-10.021973,103.692383-26.808594,13.285156-9.672363,20.307617-20.883301,20.307617-32.421387h2v66.450195c0,33.762207-56.523438,61.22998-126,61.22998S-.000016,161.442236-.000016,127.680029V61.229834M1.999984,72.193701v55.486328c0,32.659668,55.625977,59.22998,124,59.22998s124-26.570312,124-59.22998v-55.486328c-3.039551,8.232422-9.505371,16.066895-19.131348,23.074707-23.420898,17.026367-62.624023,27.191406-104.868652,27.191406s-81.447754-10.165039-104.867676-27.191406c-9.626465-7.007812-16.092285-14.842285-19.132324-23.074707Z" fill="#67757d"/></svg>