<?xml version="1.0" encoding="UTF-8"?><svg id="Layer_1" xmlns="http://www.w3.org/2000/svg" width="566.43784" height="468.73213" viewBox="0 0 566.43784 468.73213"><path d="M411.87133,460.53411c12.44519-.11935,24.97952-46.9232,40.67342-100.99856,15.6939-54.07536,17.32097-99.48894,5.93601-102.79312" fill="none" stroke="#785b3a" stroke-linecap="round" stroke-miterlimit="10" stroke-width="5"/><circle cx="459.56598" cy="366.73232" r="45.54531" fill="#fabe78" stroke="#785b3a" stroke-miterlimit="10" stroke-width="2.4"/><path d="M378.8058,208.70342c-10.55648-1.54812-12.49254-47.95568-4.32431-103.6542,8.16823-55.69852,23.29429-98.79719,33.90409-98.04798" fill="none" stroke="#785b3a" stroke-linecap="round" stroke-miterlimit="10" stroke-width="5"/><path d="M149.96524,3.66825c-11.38496,3.30417-7.89187,49.81948,7.80203,103.89484,15.1334,52.1441,31.58567,89.73098,47.28898,92.34925,1.34864.22486,2.68579.46421,3.98708.88381,9.40102,3.0313,46.06747,14.27002,66.75233,12.16837,6.63767-.67441,13.00019-2.9434,19.543-4.24924,5.73942-1.1455,11.45752-1.15851,16.58971-.86124,9.66979.56011,18.06257-6.66945,18.83043-16.32496,1.39731-17.57072-.22868-47.14755-.22868-82.5292,0-56.29427,8.64925-101.9298,19.31865-101.9298" fill="none" stroke="#785b3a" stroke-linecap="round" stroke-miterlimit="10" stroke-width="5"/><path d="M145.58654,207.52649c-12.44519-.11935-24.97952-46.9232-40.67342-100.99856-15.6939-54.07536-19.18699-100.59066-7.80203-103.89484" fill="none" stroke="#785b3a" stroke-linecap="round" stroke-miterlimit="10" stroke-width="5"/><circle cx="147.19768" cy="59.16242" r="45.54531" fill="#f2737d" stroke="#631c25" stroke-miterlimit="10" stroke-width="3.5"/><circle cx="99.23867" cy="79.40764" r="45.54531" fill="#a8ddf3" stroke="#34444a" stroke-miterlimit="10" stroke-width="3.5"/><circle cx="196.40597" cy="110.16916" r="45.54531" fill="#fabe78" stroke="#785b3a" stroke-miterlimit="10" stroke-width="3.5"/><circle cx="194.18589" cy="77.42385" r="45.54531" fill="#5cbd84" stroke="#145d3b" stroke-miterlimit="10" stroke-width="3.5"/><circle cx="105.31535" cy="153.09896" r="45.54531" fill="#5cbd84" stroke="#145d3b" stroke-miterlimit="10" stroke-width="3.5"/><circle cx="192.74299" cy="145.6323" r="45.54531" fill="#a8ddf3" stroke="#34444a" stroke-miterlimit="10" stroke-width="3.5"/><circle cx="148.64058" cy="150.25304" r="45.54531" fill="#f2737d" stroke="#631c25" stroke-miterlimit="10" stroke-width="3.5"/><circle cx="148.64058" cy="88.31798" r="45.54531" fill="#fabe78" stroke="#785b3a" stroke-miterlimit="10" stroke-width="3.5"/><circle cx="388.38287" cy="58.63628" r="45.54531" fill="#f2737d" stroke="#631c25" stroke-miterlimit="10" stroke-width="3.5"/><circle cx="340.42385" cy="78.88149" r="45.54531" fill="#a8ddf3" stroke="#34444a" stroke-miterlimit="10" stroke-width="3.5"/><circle cx="437.59115" cy="109.64301" r="45.54531" fill="#fabe78" stroke="#785b3a" stroke-miterlimit="10" stroke-width="3.5"/><circle cx="435.37108" cy="76.8977" r="45.54531" fill="#5cbd84" stroke="#145d3b" stroke-miterlimit="10" stroke-width="3.5"/><circle cx="346.50053" cy="152.57282" r="45.54531" fill="#5cbd84" stroke="#145d3b" stroke-miterlimit="10" stroke-width="3.5"/><circle cx="433.92818" cy="145.10615" r="45.54531" fill="#a8ddf3" stroke="#34444a" stroke-miterlimit="10" stroke-width="3.5"/><circle cx="389.82577" cy="149.7269" r="45.54531" fill="#f2737d" stroke="#631c25" stroke-miterlimit="10" stroke-width="3.5"/><circle cx="389.82577" cy="87.79184" r="45.54531" fill="#fabe78" stroke="#785b3a" stroke-miterlimit="10" stroke-width="3.5"/><path d="M150.50473,3.68126c11.85129.28594,20.35769,46.15004,18.99956,102.44035-1.35812,56.29031-12.06646,101.69082-23.91775,101.40488" fill="none" stroke="#785b3a" stroke-linecap="round" stroke-miterlimit="10" stroke-width="5"/><path d="M9.4971,207.39436c3.79528.4671,7.51119,1.5192,10.96997,3.18791,6.80629,3.28373,12.76571,8.71426,20.21523,9.98436,9.09409,1.55048,17.86285-3.4513,25.88931-7.99909,5.76718-3.26768,12.19993-6.46102,18.62931-6.97456.6119-.04888,1.96315.06556,3.35358.21891,3.7653.41526,7.55391-.83745,10.23722-3.51135.3228-.32167.57668-.60914.73013-.83563,8.90041-13.13682,16.02135-51.31909,17.11203-96.52456,1.35812-56.29031-7.14827-102.15441-18.99956-102.44035" fill="none" stroke="#785b3a" stroke-linecap="round" stroke-miterlimit="10" stroke-width="5"/><path d="M349.68455,7.04156c10.55649-1.54804,25.73557,42.34964,33.90342,98.04821,8.16785,55.69858,6.23147,102.10613-4.32502,103.65417" fill="none" stroke="#785b3a" stroke-linecap="round" stroke-miterlimit="10" stroke-width="5"/><path d="M178.65207,461.71103c10.55648-1.54812,12.49254-47.95568,4.32431-103.6542-8.16823-55.69852-23.29429-98.79719-33.90409-98.04798" fill="none" stroke="#785b3a" stroke-linecap="round" stroke-miterlimit="10" stroke-width="5"/><path d="M407.49263,256.67586c11.38496,3.30417,7.89187,49.81948-7.80203,103.89484-15.1334,52.1441-31.58567,89.73098-47.28898,92.34925-1.34864.22486-2.68579.46421-3.98708.88381-9.40102,3.0313-46.06747,14.27002-66.75233,12.16837-6.63767-.67441-13.00019-2.9434-19.543-4.24924-5.73942-1.1455-11.45752-1.15851-16.58971-.86124-9.66979.56011-18.06257-6.66945-18.83043-16.32496-1.39731-17.57072.22868-47.14755.22868-82.5292,0-56.29427-8.64925-101.9298-19.31865-101.9298" fill="none" stroke="#785b3a" stroke-linecap="round" stroke-miterlimit="10" stroke-width="5"/><circle cx="410.26019" cy="312.17004" r="45.54531" fill="#f2737d" stroke="#631c25" stroke-miterlimit="10" stroke-width="3.5"/><circle cx="458.2192" cy="332.41525" r="45.54531" fill="#a8ddf3" stroke="#34444a" stroke-miterlimit="10" stroke-width="3.5"/><circle cx="363.27198" cy="330.43146" r="45.54531" fill="#5cbd84" stroke="#145d3b" stroke-miterlimit="10" stroke-width="3.5"/><circle cx="452.14252" cy="406.10658" r="45.54531" fill="#5cbd84" stroke="#145d3b" stroke-miterlimit="10" stroke-width="3.5"/><circle cx="364.71488" cy="398.63991" r="45.54531" fill="#a8ddf3" stroke="#34444a" stroke-miterlimit="10" stroke-width="3.5"/><circle cx="408.81729" cy="403.26065" r="45.54531" fill="#f2737d" stroke="#631c25" stroke-miterlimit="10" stroke-width="3.5"/><circle cx="408.81729" cy="341.32559" r="45.54531" fill="#fabe78" stroke="#785b3a" stroke-miterlimit="10" stroke-width="3.5"/><circle cx="169.075" cy="311.64389" r="45.54531" fill="#f2737d" stroke="#631c25" stroke-miterlimit="10" stroke-width="3.5"/><circle cx="217.03402" cy="331.8891" r="45.54531" fill="#a8ddf3" stroke="#34444a" stroke-miterlimit="10" stroke-width="3.5"/><circle cx="119.86672" cy="362.65062" r="45.54531" fill="#fabe78" stroke="#785b3a" stroke-miterlimit="10" stroke-width="3.5"/><circle cx="122.08679" cy="329.90531" r="45.54531" fill="#5cbd84" stroke="#145d3b" stroke-miterlimit="10" stroke-width="3.5"/><circle cx="210.95734" cy="405.58043" r="45.54531" fill="#5cbd84" stroke="#145d3b" stroke-miterlimit="10" stroke-width="3.5"/><circle cx="123.52969" cy="398.11377" r="45.54531" fill="#a8ddf3" stroke="#34444a" stroke-miterlimit="10" stroke-width="3.5"/><circle cx="167.6321" cy="402.73451" r="45.54531" fill="#f2737d" stroke="#631c25" stroke-miterlimit="10" stroke-width="3.5"/><circle cx="167.6321" cy="340.79945" r="45.54531" fill="#fabe78" stroke="#785b3a" stroke-miterlimit="10" stroke-width="3.5"/><path d="M406.95314,256.68888c-11.85129.28594-20.35769,46.15004-18.99956,102.44035s12.06646,101.69082,23.91775,101.40488" fill="none" stroke="#785b3a" stroke-linecap="round" stroke-miterlimit="10" stroke-width="5"/><path d="M207.77332,260.04917c-10.55649-1.54804-25.73557,42.34964-33.90342,98.04821-8.16785,55.69858-6.23147,102.10613,4.32502,103.65417" fill="none" stroke="#785b3a" stroke-linecap="round" stroke-miterlimit="10" stroke-width="5"/><path d="M2.5,445.82219c5.04141-1.6337,10.14793-2.6443,15.37675-1.93079,9.40073,1.28279,17.75887,6.69143,25.59026,12.04761,29.86187,20.42362,67.34681-13.41606,67.79653-40.46632.27434-16.50147,1.91852-36.27148,5.01326-57.37531,8.16785-55.69858,23.34692-99.59625,33.90342-98.04821" fill="none" stroke="#785b3a" stroke-linecap="round" stroke-miterlimit="10" stroke-width="5"/><path d="M407.27776,7.0415c10.55615-1.5481,25.73535,42.34961,33.90332,98.04834,3.78711,25.82593-4.77441,39.17578,5.01318,57.37524,14.51221,26.98511,54.96631,17.3728,74.65479,43.47827,2.92236,3.87476,4.57178,7.52881,5.33936,11.11401,6.84375,31.96484-5.19189,47.78833-4.00586,74.11377,1.85303,41.13184,45.09326,48.71167,41.54883,86.5918-.83252,8.89575-5.95996,18.3999-16.21533,37.4082-13.94141,25.84058-21.70508,40.23022-37.3335,46.6665-7.27484,2.99595-14.75017,3.64931-21.77,3.02842-.73691-.06518-2.13555-.37636-3.9437-.85224-16.40401-4.3173-29.67275-16.46968-35.15919-32.52053-.15844-.46354-.26837-.81454-.31965-1.02871-4.40431-18.39436-7.4796-44.06443-8.16586-72.51659-1.3584-56.29028,5.28193-101.05282,17.13349-101.33871" fill="none" stroke="#785b3a" stroke-linecap="round" stroke-miterlimit="10" stroke-width="5"/></svg>