<?xml version="1.0" encoding="UTF-8"?><svg id="Layer_1" xmlns="http://www.w3.org/2000/svg" width="251.071476" height="268.69061" xmlns:xlink="http://www.w3.org/1999/xlink" viewBox="0 0 251.071476 268.69061"><defs><linearGradient id="linear-gradient" x1="122.574075" y1="265.676636" x2="122.574075" y2="3.96063" gradientUnits="userSpaceOnUse"><stop offset="0" stop-color="#5c4863"/><stop offset=".18469" stop-color="#785f82"/><stop offset=".353538" stop-color="#9575a1"/><stop offset=".529797" stop-color="#aa87ba"/><stop offset=".967015" stop-color="#dbaded"/></linearGradient></defs><path d="M240.21409,39.94061l-3.129883,43.52002h-48.880127l-5.47998,138.73999-.409912,10.200012-4.117115,27.015284c-6.379883-.929993-12.482982.924719-23.822826-5.11532-8.930176-4.75-19.450195-8.649963-31.610107-7.849976-2.540039.169983-4.860107.450012-7,.849976-.060059,0-.110107.01001-.159912.030029-.02002,0-.040039,0-.060059.01001h-.01001c-5.969971,1.109985-10.530029,3.029968-14.52002,5.359985-.909912.529968-1.780029,1.079956-2.639893,1.659973-.580078.380005-1.150146.77002-1.720215,1.169983-4.529785,3.200012-8.659912,6.810059-13.929932,10.090027-1.050049.650024-12.77002-4.570007-12.77002-4.570007l-.189941-4.349976-1.610107-36.630005-.029785-.73999-5.980225-135.869995L5.744119,67.21063v-.01001l-.810059-10.02002v-.029968S22.46409,24.540586,26.144022,22.930601c.73999-.330017,1.480225-.650024,2.230225-.969971h.009766c.380127-.160034.77002-.309998,1.150146-.470032.389893-.159973.780029-.320007,1.169922-.47998h.01001c1.26001-.5,2.540039-.98999,3.820068-1.470032C67.484109,7.320615,108.044168,3.96063,130.234109,3.96063c41.280029,0,69.560059,11.279968,96.090088,27.190002.550049.329956,1.099854.659973,1.649902.98999,1.280029.789978,2.560059,1.579956,3.840088,2.389954,1.049805.660034,2.099854,1.320007,3.159912,2,1.75,1.120056,3.48999,2.25,5.23999,3.410034Z" fill="url(#linear-gradient)" stroke="#3d184a" stroke-miterlimit="10"/><path d="M214.193969,24.921436c-5.17502.25734-10.636603.970983-15.757543,3.802557l-.204728.111782c-9.515219,5.272574-15.434477,13.207439-22.67825,19.464517-1.349049,1.165165-3.026855,4.041862-4.307676,5.250156.806722-.877682-.502459-2.727957,2.602864-9.66447,1.955782-4.368727,5.228739-9.371245,16.848792-15.630312,7.355443-3.961962,16.608952-4.901778,21.080004-4.583833,2.59227.184341,2.302237,1.171448,2.416537,1.249603Z" fill="#866991" opacity=".54"/><path d="M123.551429,193.943176v-.440002c-.01001-.389954-.019775-.789978-.030029-1.179993,0-.219971,0-.440002-.009766-.669983-.030029-1.299988-.070068-2.570007-.120117-3.809998-.02002-.429993-.040039-.859985-.050049-1.280029-.01001-.069946-.02002-.139954-.01001-.209961-.030029-.559998-.060059-1.119995-.089844-1.669983-.030029-.610046-.070068-1.210022-.100098-1.790039-.02002-.390015-.050049-.779968-.070068-1.159973-.22998-3.679993-.52002-6.869995-.77002-9.350037-.449951-4.339966-.73999-8.699951-.969971-13.059998-.02002-.289978-.030029-.589966-.049805-.880005-.070068-1.389954-.150146-2.789978-.230225-4.179993-.019775-.26001-.039795-.519958-.050049-.779968-.049805-.75-.099854-1.48999-.159912-2.23999-.090088-1.220032-.179932-2.440002-.280029-3.660034-.089844-1.089966-.179932-2.169983-.290039-3.25-.059814-.659973-.129883-1.320007-.189941-1.969971-.069824-.660034-.139893-1.320007-.209961-1.970032-.070068-.659973-.149902-1.309998-.219971-1.959961-3.830078-33.170044-13.860107-64.210022-38.689941-89.620056-7.870117-8.069946-17.25-15.569946-28.390137-22.389954-.070068-.040039-.149902-.090027-.219971-.130005-2.51001-1.530029-5.069824-2.730042-7.659912-3.590027-.100098-.029968-.199951-.070007-.300049-.099976-5.570068-1.809998-11.209961-2.119995-16.530029-1.059998-.02002,0-.040039,0-.070068.01001h-.009766c-5.340088,1.079956-10.350098,3.539978-14.610107,7.22998-4.170166,3.609985-7.610107,8.409973-9.929932,14.25-.01001,0,0,.01001,0,.01001-.22998.559998-.450195,1.140015-.650146,1.719971C.941566,49.513183.061439,54.433227.011634,59.413208c-.010254.48999-.02002.969971,0,1.459961,0,.310059.009766.610046.029785.920044.370117,9.219971,3.570068,18.529968,9.840088,27,.179932.25.369873.51001.560059.76001,21.159912,28.649963,37.02002,76.809998,37.849854,110.469971.02002.530029.030029,1.059998.030029,1.590027.02002,1.089966.02002,2.169983-.01001,3.23999-.01001.690002-.029785,1.369995-.060059,2.039978l-1.539795,36.350037c.01001.039978.01001.089966.01001.129944v.02002c.02002.119995.02002.23999.029785.350037.900146,11.059998,10.800049,18.839966,22.840088,21.949951,1.909912.5,3.880127.869995,5.880127,1.130005,1.109863.140015,2.22998.23999,3.359863.299988h.01001c10.780029.610046,21.880127-2.399963,29.090088-9.889954,2.790039-2.890015,5.100098-6.390015,7.01001-10.299988h.01001c6.599854-13.450012,8.47998-31.860046,8.619873-47.660034.02002-1.820007.01001-3.599976-.02002-5.330017Z" fill="#ddaef0"/><path d="M247.114138,44.971288c-2.830078-6.899902-7.219971-12.26001-12.52002-15.870117-6.070068-4.159912-13.320068-6.029785-20.75-5.349854-5.160156.469971-10.410156,2.189941-15.410156,5.22998l-.199951.119873c-9.289795,5.660156-17.349854,11.800049-24.329834,18.350098-34.790039,32.590088-42.920166,75.320068-44.360107,120.100098-.01001.27002-3.449951,27.26001-1.01001,50.22998.23999,2.290039.540039,4.580078.899902,6.839844.940186,6.010254,2.310059,11.860107,4.27002,17.200195,2.280029,6.259766,5.360107,11.799805,9.459961,16.040039,17.75,18.339844,59.050049,9.639893,60.930176-13.370117.01001-.169922.02002-.340088.030029-.5l-1.530029-36.050049c-.280029-6.459961.119873-13.629883,1.100098-21.22998,4.079834-31.649902,18.329834-70.570068,36.5-95.079834.179932-.25.369873-.5.559814-.75,5.26001-7.080078,8.340088-14.730225,9.400146-22.430176,1.089844-7.969971.029785-15.98999-3.040039-23.47998Z" fill="#ddaef0"/><path d="M129.284776,223.504968c.439941,3.069824.98999,6.099854,1.669922,9.059814,1.360107,6,3.25,11.670166,5.810059,16.630127,1.809814,3.540039,3.97998,6.709961,6.539795,9.369873,6.280273,6.52002,15.52002,9.650146,24.930176,9.949951.02002.010254.040039.010254.060059,0,2.669922.090088,5.359863-.059814,7.98999-.419922-.48999-.069824-.980225-.149902-1.469971-.23999-4.170166-.73999-8.170166-2.099854-11.75-4.130127-2.470215-1.389893-4.740234-3.109863-6.720215-5.159912-6.75-7.01001-10.73999-17.579834-13-29.050049-.549805-2.77002-.98999-5.589844-1.349854-8.429932-3.040039-24.070068.139893-49.26001.609863-52.77002.040039-.280029.060059-.550049.070068-.829834,1.27002-39.380127,7.640137-77.190186,32.399902-108.040039,9.350098-11.650146,34.209017-33.209091,39.757286-35.203602-1.599854-.330078-9.908774.959909-15.368857,4.289987-.069946.040039-21.432987,14.488419-29.513065,22.938371-30.829834,32.22998-38.925169,73.035303-40.315306,116.015284,0,.279785-.030029.549805-.060059.829834-.489746,3.630127-3.869873,30.409912-.289795,55.190186Z" fill="#866991" opacity=".54"/><path d="M247.114138,44.971288c-2.830078-6.899902-7.219971-12.26001-12.52002-15.870117-6.070068-4.159912-13.320068-6.029785-20.75-5.349854-5.160156.469971-10.410156,2.189941-15.410156,5.22998l-.199951.119873c-9.289795,5.660156-17.349854,11.800049-24.329834,18.350098-34.790039,32.590088-42.920166,75.320068-44.360107,120.100098-.01001.27002-3.449951,27.26001-1.01001,50.22998.23999,2.290039.540039,4.580078.899902,6.839844.940186,6.010254,2.310059,11.860107,4.27002,17.200195,2.280029,6.259766,5.360107,11.799805,9.459961,16.040039,17.75,18.339844,59.050049,9.639893,60.930176-13.370117.01001-.169922.02002-.340088.030029-.5l-1.530029-36.050049c-.280029-6.459961.119873-13.629883,1.100098-21.22998,4.079834-31.649902,18.329834-70.570068,36.5-95.079834.179932-.25.369873-.5.559814-.75,5.26001-7.080078,8.340088-14.730225,9.400146-22.430176,1.089844-7.969971.029785-15.98999-3.040039-23.47998Z" fill="none"/><path d="M123.551429,193.943176v-.440002c-.01001-.389954-.019775-.789978-.030029-1.179993,0-.219971,0-.440002-.009766-.669983-.030029-1.299988-.070068-2.570007-.120117-3.809998-.02002-.429993-.040039-.859985-.050049-1.280029-.01001-.069946-.02002-.139954-.01001-.209961-.030029-.559998-.060059-1.119995-.089844-1.669983-.030029-.610046-.070068-1.210022-.100098-1.790039-.02002-.390015-.050049-.779968-.070068-1.159973-.22998-3.679993-.52002-6.869995-.77002-9.350037-.449951-4.339966-.73999-8.699951-.969971-13.059998-.02002-.289978-.030029-.589966-.049805-.880005-.070068-1.389954-.150146-2.789978-.230225-4.179993-.019775-.26001-.039795-.519958-.050049-.779968-.049805-.75-.099854-1.48999-.159912-2.23999-.090088-1.220032-.179932-2.440002-.280029-3.660034-.089844-1.089966-.179932-2.169983-.290039-3.25-.059814-.659973-.129883-1.320007-.189941-1.969971-.069824-.660034-.139893-1.320007-.209961-1.970032-.070068-.659973-.149902-1.309998-.219971-1.959961-3.830078-33.170044-13.860107-64.210022-38.689941-89.620056-7.870117-8.069946-17.25-15.569946-28.390137-22.389954-.070068-.040039-.149902-.090027-.219971-.130005-2.51001-1.530029-5.069824-2.730042-7.659912-3.590027-.100098-.029968-.199951-.070007-.300049-.099976-5.570068-1.809998-11.209961-2.119995-16.530029-1.059998-.02002,0-.040039,0-.070068.01001h-.009766c-5.340088,1.079956-10.350098,3.539978-14.610107,7.22998-4.170166,3.609985-7.610107,8.409973-9.929932,14.25-.01001,0,0,.01001,0,.01001-.22998.559998-.450195,1.140015-.650146,1.719971C.941566,49.513183.061439,54.433227.011634,59.413208c-.010254.48999-.02002.969971,0,1.459961,0,.310059.009766.610046.029785.920044.370117,9.219971,3.570068,18.529968,9.840088,27,.179932.25.369873.51001.560059.76001,21.159912,28.649963,37.02002,76.809998,37.849854,110.469971.02002.530029.030029,1.059998.030029,1.590027.02002,1.089966.02002,2.169983-.01001,3.23999-.01001.690002-.029785,1.369995-.060059,2.039978l-1.539795,36.350037c.01001.039978.01001.089966.01001.129944v.02002c.02002.119995.02002.23999.029785.350037.900146,11.059998,10.800049,18.839966,22.840088,21.949951,1.909912.5,3.880127.869995,5.880127,1.130005,1.109863.140015,2.22998.23999,3.359863.299988h.01001c10.780029.610046,21.880127-2.399963,29.090088-9.889954,2.790039-2.890015,5.100098-6.390015,7.01001-10.299988h.01001c6.599854-13.450012,8.47998-31.860046,8.619873-47.660034.02002-1.820007.01001-3.599976-.02002-5.330017Z" fill="none"/><path d="M121.958631,222.308453c-.439941,3.069824-.98999,6.099854-1.669922,9.059814-1.360107,6-3.25,11.670166-5.810059,16.630127-1.809814,3.540039-3.97998,6.709961-6.539795,9.369873-6.280273,6.52002-15.52002,9.650146-24.930176,9.949951-.02002.010254-.040039.010254-.060059,0-2.669922.090088-5.359863-.059814-7.98999-.419922.48999-.069824.980225-.149902,1.469971-.23999,4.170166-.73999,8.170166-2.099854,11.75-4.130127,2.470215-1.389893,4.740234-3.109863,6.720215-5.159912,6.75-7.01001,10.73999-17.579834,13-29.050049.549805-2.77002.98999-5.589844,1.349854-8.429932,3.040039-24.070068-.139893-49.26001-.609863-52.77002-.040039-.280029-.060059-.550049-.070068-.829834-1.27002-39.380127-7.640137-77.190186-32.399902-108.040039-8.963997-11.169068-20.335966-21.427995-34.759355-30.512818-1.271235-.80071-2.602581-1.499034-3.97282-2.115168-3.127227-1.406171-8.658414-3.88023-8.672819-3.88023.030029-.01001,15.111746-1.067776,23.59108,5.12286.899099.656418,21.503855,14.645365,29.583933,23.095317,30.829834,32.22998,38.279785,73.350098,39.669922,116.330078,0,.279785.030029.549805.060059.829834.489746,3.630127,3.869873,30.409912.289795,55.190186Z" fill="#866991" opacity=".54"/><path d="M6.232487,67.979434c2.491395.919131,2.247402-8.178099,5.962988-18.249556,3.715587-10.071457,9.983735-17.303286,7.492341-18.222417-2.491395-.919131-9.279922,5.168592-12.995509,15.240049s-2.951215,20.312792-.45982,21.231924Z" fill="#f8effc" opacity=".32"/><path d="M82.515581,50.457698c-8.140137-8.579834-28.252606-22.846645-28.322674-22.886684-7.669922-4.689941-16.381848-6.526556-23.981946-5.26679.219971-.139893,1.820167-1.2731,2.040137-1.392973,2.849976-1.619873,10.646479-1.662724,13.666667-1.314815.610934.070376,1.302472.18568,2.045051.333677,10.145652,2.022044,19.167476,7.709067,25.703652,15.727877,6.074163,7.451995,8.849112,14.799709,8.849112,14.799709Z" fill="#866991" opacity=".54"/><path d="M241.612558,62.490851c-2.230529,1.441037-3.979157-7.489888-9.804547-16.506798-5.82539-9.01691-13.521586-14.705284-11.291057-16.146321s10.184684,3.017203,16.010074,12.034113c5.82539,9.01691,7.316059,19.177969,5.085529,20.619006Z" fill="#f8effc" opacity=".32"/><path d="M198.148869,241.384661c-1.549935-2.156281-4.927028,4.430853-11.721434,9.314678-6.794405,4.883824-14.43322,6.214934-12.883285,8.371215,1.549935,2.156281,9.139458,1.949539,15.933864-2.934285,6.794405-4.883824,10.22079-12.595326,8.670854-14.751608Z" fill="#f8effc" opacity=".32"/><path d="M52.941695,236.057226c2.113635-1.607605,3.412792,5.67987,8.478326,12.339903,5.065535,6.660033,11.979233,10.170606,9.865597,11.778211-2.113635,1.607605-9.309599-.813491-14.375134-7.473525-5.065535-6.660033-6.082425-15.036984-3.96879-16.644589Z" fill="#f8effc" opacity=".32"/><path d="M151.307484,11.211039c.122326,2.697286-15.560923,1.705758-34.609703,2.569666-19.04878.863908-35.281408,4.683176-35.403734,1.985889s16.062944-7.560776,35.111725-8.424685c19.04878-.863908,34.779386,1.171843,34.901712,3.869129Z" fill="#f8effc" opacity=".32"/><path d="M123.551429,193.943176c-.149902-8.72998-.75-16.259949-1.25-21.119995-.069824-.700012-.139893-1.409973-.199951-2.109985v-.01001c-.27002-2.809998-.469971-5.609985-.639893-8.429993,0-.169983-.01001-.349976-.02002-.529968-.060059-.950012-.110107-1.910034-.159912-2.870056-2.060059-40.47998-10.490234-78.899963-40.010254-109.309998-1.329834-1.389954-2.719971-2.759949-4.159912-4.099976-5.829834-5.51001-12.399902-10.719971-19.820068-15.609985-1.529785-1.01001-3.109863-2.01001-4.719971-3-.070068-.040039-.149902-.080017-.219971-.130005-7.5-4.580017-15.52002-6.119995-22.97998-5.01001-.169922.02002-.339844.049988-.51001.070007-1.060059.179993-2.099854.409973-3.129883.690002-.060059.01001-.120117.029968-.180176.049988-3.789795,1.049988-7.369873,2.820007-10.589844,5.23999-.25.190002-.5.380005-.73999.580017-4.620117,3.679993-8.439941,8.76001-10.950195,15.049988-.239746.590027-.469971,1.190002-.679932,1.799988C.991615,49.803222.111488,54.583191.011634,59.413208c-.010254.48999-.02002.969971,0,1.459961.099854,9.670044,3.289795,19.460022,9.869873,28.350037.179932.26001.369873.51001.560059.76001,21.399902,28.97998,37.379883,77.919983,37.879883,111.630005.02002,1.089966.02002,2.169983-.01001,3.23999,0,.839966-.02002,1.659973-.060059,2.469971l-1.529785,36.070007-.01001.280029c.02002.169983.030029.339966.039795.51001.900146,11.069946,10.810059,18.849976,22.860107,21.949951,2.73999.720032,5.600098,1.179993,8.47998,1.390015,11.01001.780029,22.459961-2.200012,29.840088-9.859985,2.899902-3.01001,5.290039-6.660034,7.23999-10.77002,5.5-11.47998,7.639893-26.450012,8.219971-40.320007.040039-.880005.070068-1.75.100098-2.609985,0-.090027.009766-.169983.009766-.25.040039-1.349976.060059-2.679993.070068-4v-.440002c.02002-1.820007.01001-3.599976-.02002-5.330017Z" fill="none" stroke="#3d184a" stroke-miterlimit="10"/><path d="M247.114773,45.403512c-2.830078-6.899902-7.219971-12.26001-12.52002-15.870117-6.070068-4.159912-13.320068-6.029785-20.75-5.349854-5.160156.469971-10.410156,2.189941-15.410156,5.22998l-.199951.119873c-9.289795,5.660156-17.349854,11.800049-24.329834,18.350098-34.790039,32.590088-42.920166,75.320068-44.360107,120.100098-.01001.27002-3.449951,27.26001-1.01001,50.22998.23999,2.290039.540039,4.580078.899902,6.839844.940186,6.010254,2.310059,11.860107,4.27002,17.200195,2.280029,6.259766,5.360107,11.799805,9.459961,16.040039,17.75,18.339844,59.050049,9.639893,60.930176-13.370117.01001-.169922.02002-.340088.030029-.5l-1.530029-36.050049c-.280029-6.459961.119873-13.629883,1.100098-21.22998,4.079834-31.649902,18.329834-70.570068,36.5-95.079834.179932-.25.369873-.5.559814-.75,5.26001-7.080078,8.340088-14.730225,9.400146-22.430176,1.089844-7.969971.029785-15.98999-3.040039-23.47998Z" fill="none" stroke="#3d184a" stroke-miterlimit="10"/></svg>