<?xml version="1.0" encoding="UTF-8"?><svg id="Layer_1" xmlns="http://www.w3.org/2000/svg" width="485.641636" height="285.735764" xmlns:xlink="http://www.w3.org/1999/xlink" viewBox="0 0 485.641636 285.735764"><defs><radialGradient id="radial-gradient" cx="242.85671" cy="540.307792" fx="242.85671" fy="540.307792" r="190.286204" gradientTransform="translate(-22.246864 -355.049094) scale(1.091457 .921543)" gradientUnits="userSpaceOnUse"><stop offset="0" stop-color="#fff6ed"/><stop offset=".557291" stop-color="#ffedda"/><stop offset="1" stop-color="#ffe5c9"/></radialGradient></defs><path d="M454.250859,258.185403C377.040654,124.143411,205.279912,96.968606,89.731572,176.657083c-5.443237,3.748535-11.752808,4.42627-14.276001,1.182129-2.740356-3.518066.005737-10.236816,6.36731-14.578125,114.324219-78.131348,279.922852-58.129395,367.994385,60.006348,17.244873,25.975098,42.077393,14.377441,21.536865-15.562012-5.093262-13.510742-50.865723-47.512695-43.802002-56.338867,4.132324-5.888672,17.433105,2.445312,24.481445,10.648438,23.991943,26.186035,47.307861,10.577637,19.381104-19.020996-5.714708-6.326443-15.343262-17.004395-42.554199-35.569336-26.833496-19.051758-66.199707-38.072266-107.499512-48.540527-41.187256-10.957031-84.312256-13.362305-116.13623-10.377441-31.981934,2.49707-49.6081,8.021973-52.604004,8.790527-24.045288,6.428223-26.994837-11.07411-2.224609-17.960449,3.822365-.669217,28.081299-8.600098,61.287109-9.719727,33.335449-1.519043,74.82959,2.581543,113.740723,13.143066,39.040039,10.15918,75.497559,26.77832,101.736084,41.058594,26.367432,13.879883,33.873264,23.441442,43.924072,16.167969,7.208451-6.8006-6.949219-23.368164-40.743408-45.196777-33.217773-22.470703-85.73584-42.80957-140.886719-49.77832-55.090332-7.708984-112.822754-2.050781-155.17749,10.402344-42.818481,11.612305-64.573278,23.118177-75.456665,28.418457-38.675415,18.835178-22.766602,44.335449,11.452393,24.955078,17.454834-8.635254,23.039307,9.499512,6.381836,16.969727-8.942383,5.415527-28.552734,14.974121-43.804077,27.043457-15.36853,11.756836-24.261122,22.607657-20.818848,33.644043,5.446615,14.445095,22.963135-6.021973,56.942505-24.595215,33.252808-19.276855,82.678589-38.709473,134.280396-44.549805,51.412109-6.643555,105.010254.303711,142.315674,15.265137,37.658447,14.05127,58.574707,32.324978,54.091797,38.799316-4.183757,4.636773-8.46167,2.545898-14.468994-.955078C266.068486,60.819681,105.208135,81.259134,10.603154,191.730325c-22.028198,27.077637.435669,42.665527,19.720459,17.839844,12.11792-18.401367,31.053223-13.291992,16.613525,4.588379-1.459391,2.21271-29.903836,41.027525-31.970825,44.022949-14.302734,26.030762,9.121582,36.459473,21.273315,12.931152,3.460341-6.667318,14.079224-31.256836,49.67981-60.143555,34.122192-29.440918,91.442505-55.325684,148.731812-53.820801,57.281006-1.503418,114.559326,24.382324,148.661133,53.822754,35.583008,28.887207,49.116127,58.992367,49.665771,60.145996,12.351445,22.513473,35.648682,13.398438,21.272705-12.931641Z" fill="url(#radial-gradient)" stroke="#9a8479" stroke-miterlimit="10" stroke-width="3"/></svg>