<?xml version="1.0" encoding="UTF-8"?><svg id="Layer_1" xmlns="http://www.w3.org/2000/svg" width="390.167796" height="298.901645" xmlns:xlink="http://www.w3.org/1999/xlink" viewBox="0 0 390.167796 298.901645"><defs><radialGradient id="radial-gradient" cx="195.266075" cy="149.502217" fx="195.266075" fy="43.36478" r="178.364569" gradientUnits="userSpaceOnUse"><stop offset="0" stop-color="#f6f6d3"/><stop offset=".128189" stop-color="#f3f3c4"/><stop offset=".374737" stop-color="#ecee9c"/><stop offset=".711073" stop-color="#e0e65e"/><stop offset="1" stop-color="#d6de23"/></radialGradient></defs><path d="M382.055229,222.819741c-2.588379-.411377-5.24292-.212524-7.827087.178223-2.603394.417358-5.067017,1.001709-7.566711,1.298828-2.477417.304688-4.966797.365112-7.214478-.280762-2.260803-.614624-4.138367-2.056274-5.621521-3.983276-1.500854-1.915039-2.643066-4.204956-3.874512-6.476562-1.208557-2.296265-2.680542-4.591553-4.60498-6.440552-.965881-.924072-2.058228-1.745605-3.29303-2.339355-1.229126-.595337-2.612854-.937866-3.990051-.919312-.046265.000366-4.327271-6.409546-7.248169-8.990112-3.786804-3.435547-7.922974-6.187378-11.104614-9.303101-3.221497-3.056763-5.46582-6.559204-6.113892-9.734619-.321933-1.552689-.322142-2.995992-.14188-4.245471l.006128-.04061c.368659-2.443002,3.063784-3.795396,5.225339-2.598798,1.344109.744074,2.644214,1.597142,3.921155,2.56298,1.376892,1.009277,6.534485,6.339844,7.909668,7.463623,1.356079,1.148438,2.872925,2.070068,4.042603,2.680908,1.168762.617065,1.983582.94873,1.983582.94873,1.740484.715779,3.580929,1.291056,5.469151,1.820053.874776.245074,1.4738,1.027475,1.543921,1.933222.023999.309993.069342.606477.148671.819845.24115.693115.67572,1.298218,1.022522,1.692383.352173.397705.611755.628296.611755.628296.974487.846191,2.100464,1.52771,3.030334,2.405151.46344.437012.875549.922119,1.159363,1.465088.265747.549683.436462,1.149414.492676,1.786621.106873,1.280273-.120056,2.629883-.187195,3.987549-.08606,1.342651.060303,2.781616.743713,3.841187-.491394-1.658691-.072754-3.340332.203979-5.09436.140076-.881592.262329-1.802246.200989-2.763672-.049805-.953247-.365601-1.965088-.94989-2.768066-1.173889-1.619995-2.901611-2.435181-4.161255-3.569702-.63623-.565674-1.053967-1.259121-1.440552-1.95813-.33393-.6038.721625-2.076023,1.812927-1.266113,1.393702,1.034336,3.366638.912354,5.022949,1.478149,1.661377.561523,4.792358,2.710205,4.700317,3.046021-.186462.664429-.317688,1.574707-.313599,2.47644-.000793.9021.111389,1.789185.22522,2.443604.115601.655151.216858,1.078979.216858,1.078979.416504,1.569092.947815,3.166138,1.260254,4.814575.311523,1.641602.348999,3.367798.217285,5.089844-.27124,3.450317-1.193237,6.86377-1.60199,10.037476.898193-1.999023,1.708679-4.121216,2.269897-6.383545.559753-2.255615.846313-4.670898.618042-7.084106-.195374-2.443726-1.090637-4.685303-1.642456-6.855591-.30728-1.166237-.504022-2.369405-.4871-3.525737.015325-1.047204,1.365052-1.509646,2.01305-.686865.282608.358835.530816.739836.73644,1.143632.374207.71814.573242,1.510864.69928,2.320557.096252.818604.090454,1.658936.038635,2.501709-.121033,1.690308-.427368,3.386597-.499084,5.091797-.100342,1.691162.137939,3.437134.924133,4.838867-.813416-2.085815-.463501-4.334351-.044922-6.5177.399048-2.19165,1.011353-4.506226.544861-6.964233-.232849-1.215698-.792969-2.384644-1.569153-3.357056-.779175-.974976-1.741211-1.770142-2.76886-2.424316-2.067566-1.315186-4.364075-2.087769-6.623535-2.776978-4.542114-1.356445-9.185181-2.152466-13.377808-3.915039-2.082336-.887695-4.066467-1.989868-5.754639-3.407227-.695618-.58252,1.017212-.313721,2.633545.196289,4.281372,1.36145,8.700867.618164,12.937744.198242,4.187681-.491083,8.40396-.033483,12.37393,1.218757,1.7928.5655,3.232079,1.898655,3.979686,3.623476.146077.337017.28869.639522.410727.852957.483215.857544,1.036316,1.661011,1.46167,2.249023.432556.580078.720947.966797.720947.966797,1.135864,1.37854,2.35498,2.779541,3.374634,4.350952,1.024109,1.560425,1.855774,3.302979,2.095825,5.119507.286255,1.805298-.327942,3.633667-.626526,5.595947-.1474.978882-.171021,2.003906.05072,2.957886.211304.951416.697144,1.847656,1.412537,2.391846-.752808-.985718-.911865-2.231323-.8172-3.413696.089111-1.194458.481384-2.358398.818848-3.603271.352417-1.227295.603149-2.621216.44635-4.011353-.154785-1.38147-.622803-2.699341-1.24585-3.896973-1.246948-2.411499-3.068909-4.365479-4.659058-6.316406-.604518-.738998-1.18292-1.49658-1.694004-2.276902-.564129-.86131.458558-1.883537,1.336023-1.34488,4.595643,2.821171,8.492857,6.8105,11.084055,11.670366-5.111328-11.519531-17.969971-19.302734-30.676208-18.566772-4.186646.150269-8.283752.5354-11.722961-.837158-3.484802-1.351074-6.402771-4.129028-9.6297-6.837036-1.97425-1.801381-4.146398-3.280797-6.457864-4.491027-1.329729-.696215-.912012-2.720095.584806-2.831593.335078-.02496.673919-.039309,1.014415-.041759,2.265259-.072144,4.544922.335938,6.211609.740479.833923.214966,1.520935.421875,1.997681.581787.478943.152344.75293.258545.75293.258545,4.125488,1.302002,8.27417,3.536133,12.852234,5.398926,4.57019,1.926636,9.773376,2.971558,14.875916,2.953979,5.12207.022461,10.158752-.857422,14.863342-2.146729,4.716187-1.288208,9.120544-2.991699,13.185181-4.797607-5.981567,1.274048-12.112549,2.800293-18.384094,3.692749-6.251465.892334-12.718994,1.088989-18.836182-.475098-6.117615-1.500488-11.793091-4.953247-18.096619-6.960083-3.166199-1.00708-6.482666-1.550415-9.783569-1.375732-1.377701.069827-2.762772.287887-4.09822.669597-2.829957.808885-5.782497,1.015446-8.672317.456975-6.32032-1.221431-12.92049-1.335487-18.956574-1.088974-48.67334,2.259521-20.758789-11.966187-40.253906-30.401978-3.706482-3.340942-7.776489-5.586426-11.630676-7.561035,0,0-6.433573-3.157604-12.544775-6.148558-6.508723-3.185509-10.404941-10.029356-9.82297-17.252392l.000119-.00148c.383956-4.765409,3.379486-8.898973,7.755257-10.824895,16.689552-7.345626,28.083865-24.505942,26.866372-44.173915-1.419206-22.92655-20.284121-41.321331-43.237496-42.206437-25.727148-.992066-46.895719,19.570197-46.895719,45.07655,0,18.810701,11.516516,34.922872,27.881671,41.689989,5.605555,2.31794,9.415946,7.609001,9.903241,13.655293l.00312.038718c.372994,4.628051-2.764176,8.807126-7.312526,9.740129-6.327749,1.298012-12.897015,2.645647-12.897015,2.645647-7.737488,1.588623-17.171753,4.727051-22.052856,11.925049-3.086914,4.096802-3.880859,9.866699-6.686218,13.578247-4.603638,5.079346-13.235779,2.632202-19.234924,1.390625-10.602336-2.73133-22.163895-7.083354-33.47288-7.197622-1.113437-.01125-2.192954-.381584-3.040118-1.104206l-.059451-.050711c-1.468018-1.268677-3.747131-2.559814-6.174805-3.275391-2.417603-.77417-4.929504-1.029541-6.798401-1.106812-.936646-.026001-3.113281.051636-3.113281.051636-4.570435.398071-9.200623,1.503296-13.915405,2.055908-4.699524.609253-9.511353.229614-14.196655-.990479-9.393555-2.433716-17.952393-7.574341-25.977234-11.376221,4.845337,3.718628,10.058533,7.366943,15.913086,10.258057,5.820374,2.877563,12.411804,4.949463,19.224915,4.937622,6.839905.021484,13.177917-2.094604,19.420349-2.55542,3.092041-.24231,6.210449-.015991,9.082703.851074,1.01626.304119,1.998969.700617,2.919178,1.187438.744.3936.545352,1.504745-.284444,1.645795-3.218872.547147-6.395253,1.545603-9.50003,3.144673-3.807617,1.80249-7.334106,3.750732-11.047485,4.175049-3.674683.456543-7.540649-.953857-11.552673-2.159668-12.108093-3.930542-26.513184.34082-34.378967,10.190186,4.45874-4.825439,15.768311-8.033447,15.13739-7.426514-.658447.641357-1.379944,1.228638-1.93396,1.657593-.562378.422363-.937256.704102-.937256.704102-1.365601,1.084839-2.939392,2.141479-4.421997,3.449585-1.474731,1.292725-2.905823,2.870605-3.710876,4.850464-.409607.978638-.594727,2.062622-.63855,3.072998-.048706,1.015869.001709,1.987183-.013855,2.916748-.020325,1.813843-.374451,3.676147-1.746521,4.838135,1.128296-.499146,1.918518-1.670654,2.316345-2.89502.422852-1.245361.470703-2.577148.557068-3.828125.070068-1.266724.230286-2.453857.687195-3.560303.459717-1.106812,1.152039-2.12793,1.976746-3.056396,1.651489-1.875,3.76947-3.338989,5.80304-4.921997,1.372718-1.071597,2.722771-2.23956,3.812759-3.596197.926703-1.153407,2.294884-1.89115,3.7707-1.996457,4.378121-.3124,8.816548.296209,12.95658,1.915529,3.990051,1.479858,8.079956,3.318237,12.565979,3.085693,1.629639-.080811,3.242859.107422,2.386902.482178-1.517944.69751-3.142639,1.154785-4.375305,1.415649-1.232971.267456-2.072083.363403-2.072083.363403-3.093323.497681-6.470947.446777-9.951782.430786-1.743835-.00354-3.521362-.004883-5.318115.111206-1.787903.110474-3.630676.315308-5.414795.860229-1.770691.539185-3.536804,1.45166-4.797852,2.930786-.633484.731201-1.078735,1.596802-1.416016,2.466431-.309814.882324-.492249,1.777344-.617676,2.659302-.230652,1.763184-.23761,3.473999-.429382,5.109131-.167114,1.635864-.587463,3.212158-1.494324,4.530396,1.545227-1.612549,2.062988-3.983032,2.382935-6.196533.341309-2.227173.511963-4.546387,1.539551-6.458008.414434-.795684.993644-1.470741,1.682103-2.0336.909709-.743745,2.237588.177385,1.903511,1.303937l-.007001.023608c-.458496,1.561279-1.323792,3.005737-1.323792,3.005737-.696289,1.390747-1.632202,2.803101-2.427856,4.4021-.798157,1.606201-1.354675,3.380737-1.673767,5.175415-.631348,3.609497-.362122,7.220825.244873,10.345459.4375-4.353516.368042-9.053345,1.875122-13.324097.709534-2.128296,2.006104-4.050293,3.072876-6.140625.681619-1.326361,1.253503-2.769276,1.483473-4.253772.22082-1.425427,1.257278-2.600906,2.682184-2.82506,1.418986-.223223,2.883233-.312753,4.348137-.377833.921647-.037233,1.847785-.054676,2.776794-.064379.009624-.000101.019249-.0002.028874-.000299,1.164597-.011963,1.81412,1.342918,1.083987,2.250296-.004172.005185-.008336.010359-.01249.015521-.534232.663855-1.225156,1.180227-2.012099,1.507073-.718602.298462-1.490085.589634-2.255325.987712-.619934.32605-1.24054.732422-1.760315,1.284424-.505249.563843-.897705,1.228516-1.143677,1.924683-.933044,2.815063-.366699,5.571167-1.628662,7.742676,2.572815-2.563965,1.247009-7.236694,3.868713-9.38208,1.265076-1.088745,3.06311-1.527832,4.687988-2.416382.806091-.443726,1.594177-1.036377,2.116882-1.83606l.012166-.01836c.861011-1.299323,2.293085-2.095118,3.849983-2.170291,1.483924-.071649,2.965415-.200094,4.438266-.435861,2.317627-.38562,4.597351-1.008545,6.688232-2.026855,1.35911-.660125,2.641411-1.485313,3.763329-2.475858.440293-.388736.933064-.712266,1.48134-.922903,1.403265-.539106,2.783511-1.117727,4.147787-1.657148,1.761612-.727001,3.514353-1.291132,5.29401-1.689482,1.82183-.40779,3.587071.918712,3.608537,2.7855.012819,1.114802-.154604,2.257926-.491413,3.355277-.783936,2.78125-2.684326,5.154175-5.049927,7.11084-2.381104,1.943848-5.199768,3.453003-8.144287,4.792236-2.952332,1.351318-6.055115,2.580811-9.074341,4.164185-1.87677.957644-4.955054,3.332255-7.044276,5.000057-1.349571,1.077347-3.053443,1.560773-4.776505,1.446426-.057535-.003818-.104427-.005565-.138264-.004833-.813782.028809-1.746033.182861-2.697083.467163-.944519.298096-1.894531.730835-2.788452,1.237183-1.789856,1.01709-3.321899,2.340088-4.397827,3.385742-.538818.532227-.954651.973633-1.246277,1.282593-.288452.309326-.453247.486084-.453247.486084-2.318481,2.672852-4.728455,5.590454-7.954224,6.93457-1.591003.658325-3.34967.880981-5.135986.664307-1.787964-.182861-3.586548-.771606-5.353088-1.481689-1.769531-.720825-3.515137-1.590332-5.280823-2.457886-1.788879-.878418-3.641907-1.69165-5.557922-2.270508-1.912354-.578369-3.904114-.943481-5.867798-.850952-1.957336.050537-3.851074.684204-5.322571,1.689941,2.329346-.846924,4.807373-.755493,7.140808-.163452,2.348816.584351,4.599792,1.632324,6.820007,2.794434.886358.47282,1.786243.975128,2.7066,1.474758,1.100159.597239,1.235375,2.121882.248613,2.892172l-.025037.019545c-.673279.526489-1.33075,1.081909-1.809082,1.519409-.477722.438477-.782471.749023-.782471.749023-1.091187,1.180664-2.165161,2.560547-2.94928,4.159058-.797363,1.586792-1.341125,3.341919-1.620361,5.11731-.581421,3.565063-.257202,7.121582.407593,10.186646.352722-4.293945.230164-8.923584,1.663696-13.136108.719238-2.092041,1.881226-3.993896,3.419434-5.583618,1.493103-1.58606,3.22229-2.921631,4.926086-4.17688.256287.116455.506531.241577.766907.351685,2.46167,1.046387,5.189087,1.887573,8.095398,1.798096,1.440552-.047485,2.904175-.337158,4.24353-.901123,1.342163-.555176,2.551025-1.334351,3.62793-2.203979,2.159424-1.750488,3.824402-3.820435,5.506287-5.726685,1.645264-1.921265,3.398865-3.611938,5.445068-4.816162,1.268759-.751822,2.655148-1.257955,4.020631-1.380356.682212-.061153,1.090812.728562.67473,1.272647-1.088991,1.424006-2.083723,2.910879-2.981738,4.442425-3.410095,5.855103-5.686096,12.163086-7.853027,18.402832-.061279.176636-6.027251,15.022827-5.138362,17.689494.666667,2,7.025203-16.814006,7.090633-16.989299,0,0,.434875-1.154907,1.196045-3.175903.776978-2.010254,1.88562-4.881958,3.434326-8.201538.285095-.609863.592468-1.239258.911499-1.876099.190369.950195.369141,2.108643.451904,3.289185.23175,2.771851-.178955,5.516724-.178955,5.516724-.205994,2.568481-.960876,5.173462-2.111084,7.795776-1.120789,2.633911-2.539001,5.323486-3.515198,8.308716-.484741,1.489014-.847046,3.055298-.96759,4.652588-.136047,1.598633.009338,3.183716.30249,4.676025.600708,2.999634,1.802002,5.629639,3.092102,8.008423-.569885-3.666382-1.410339-7.422729-1.168274-11.069702.215759-3.626953,1.735657-7.108643,3.320984-10.70752.783936-1.807617,1.590515-3.651611,2.204407-5.603149.629944-1.949463,1.020142-3.969971,1.207825-5.977051.299226-3.382137.002465-6.739246-.774685-9.887386-.278913-1.129843-.088709-2.319668.518125-3.312688.906057-1.482665,1.920256-2.971478,3.068755-4.417602,1.767584-2.267108,3.897653-4.336734,6.327284-6.077642.793935-.56888,1.92038-.006344,1.918506.970361-.000393.204849-.007798.41209-.023256.618999-.066833.965088-.31012,1.906982-.571716,2.57605-.260193.671631-.511597,1.079346-.511597,1.079346-.804504,1.594238-2.28009,2.960327-3.696411,4.531006-.701904.795288-1.409912,1.657349-1.921753,2.687256-.527954,1.020752-.806335,2.190552-.858154,3.318115-.108276,2.271973.451782,4.384766.678589,6.371216.227966,1.985107.183716,3.98584-.808044,5.641357.937073-.928589,1.467041-2.284058,1.66156-3.654785.204346-1.378052.113708-2.801758-.029907-4.171997-.138672-1.37146-.298462-2.726929-.224487-4.039429.062622-1.318115.441895-2.53186,1.15033-3.637573,1.401306-2.224243,3.796021-3.96875,5.152039-6.606567.907124-1.812529,1.217166-3.84175.983562-5.767173-.126982-1.04662.481749-2.046117,1.431594-2.503646l.068791-.033136c.005297-.002629.010595-.005258.015894-.007885.8752-.433986,1.936942-.142091,2.4968.658457,1.067553,1.526509,2.738145,3.968649,3.056947,5.768251.5,2.698975.070618,5.64978-.752014,8.518921-.821777,2.891602-2.048401,5.755005-3.141968,8.771851-1.084106,3.005127-2.059082,6.221436-2.185974,9.615723-.034973.813966-.023544,1.622377.026039,2.424021.097464,1.575776-.24186,3.151911-1.073472,4.493922-.038403.061973-.073906.119487-.105759.171368-.593317.966381-1.233112,2.039719-1.844428,3.132857-1.011963,1.810669-1.921509,3.6875-2.518982,5.135986-.603271,1.446167-.921936,2.446533-.921936,2.446533-1.217773,3.710449-1.662842,7.864136-1.658386,12.04834-.015869,4.195068.339844,8.460083.375183,12.690918.049744,4.214478-.387512,8.432007-1.625732,12.310791-1.217834,3.864136-3.360107,7.371094-6.411865,9.671753,2.239197-1.345581,4.190735-3.324219,5.577759-5.689697,1.43396-2.344116,2.338257-5.018188,2.935242-7.747192,1.221741-5.507324.756836-11.249634.518005-16.808838-.262085-5.566406-.270813-11.193726,1.493225-16.355835,1.073369-3.267775,2.62557-6.311946,4.32844-9.221932.507992-.868093,1.815806-.688348,2.078472.282552.069785.25795.141633.514623.21528.769946.895264,3.102295,2.043579,6.057373,3.062805,8.998779,1.012939,2.924316,1.863403,5.88916,2.226135,8.888672.364563,2.987549.202148,6.030029-.863464,8.772339-.055603.153931.321411.459961.845215.685059.526062.226196,1.010132.264282,1.080627.084717,0,0,.114624-.293091.329468-.842773.183167-.560181.441833-1.385742.661926-2.461426.415771-2.147583.559814-5.30603-.098633-8.908081-.312561-1.80127-.787842-3.712524-1.380249-5.690063-.594666-1.983887-1.301575-4.000366-1.97821-6.091187-1.345886-4.151855-2.610535-8.637695-2.31134-13.033325.2677-4.383423,2.195068-8.613892,3.861694-12.73291.036012-.086989.071848-.174041.107504-.261151.69033-1.686549,2.870088-2.127194,4.144871-.824914l.028326.028937c1.064819,1.068359,1.943481,2.30127,2.579285,3.352661-.020325.050903-.029114.097168-.009094.12793,0,0,.441956.604614.927002,1.615723.487305,1.00708.984985,2.433472,1.226746,3.923584.257751,1.48584.319092,3.006348.287292,4.144897-.035034,1.139404-.114075,1.897705-.114075,1.897705-.351257,5.657959-2.879883,11.821777-2.99292,18.465454-.138184,6.5979,1.468811,12.968018,3.198669,18.434204-.578735-3.920166-1.306885-7.955078-1.689514-12.070557-.391724-4.11853-.356323-8.300049.4552-12.41687.752014-4.126709,1.92157-8.26123,2.220459-12.516968.055176-.841797.064453-1.68457.044373-2.524658.222656,1.005859.41748,2.03418.586548,3.08374.60022,3.586426.996521,7.383667,1.924866,11.164795.875061,3.772217,2.546875,7.547119,5.070923,10.470581,1.266479,1.459839,2.754883,2.710938,4.393433,3.597046,1.63385.889526,3.417847,1.390503,5.123718,1.433716-1.115173-.366455-2.170288-.850708-3.151306-1.452393-.967834-.62854-1.857483-1.356323-2.674927-2.161743-1.612793-1.640991-2.911438-3.584961-3.944275-5.678345-2.086914-4.18335-2.82251-9.002686-3.624084-13.88916-.398376-2.447388-.80426-4.933716-1.408875-7.396973-.58783-2.46228-1.435242-4.918823-2.597473-7.178955-1.159912-2.264404-2.640076-4.376831-4.496094-6.114258l-.028604-.025877c-2.035222-1.841232-2.985576-4.560326-2.670846-7.286717.08738-.756941.132477-1.50588.127672-2.243802-.000977-3.970459-1.369934-7.193604-2.817444-9.136353l-.014625-.020169c-.60695-.837008-.275402-2.023514.679893-2.418968,2.08444-.862874,4.158402-1.754644,6.127457-2.812817,4.263611-2.234131,8.004089-5.359009,9.977905-9.116577,1.219198-2.319127,1.735476-4.642579,1.817028-6.666465l.001338-.036955c.077449-2.138392,1.971029-3.740995,4.09621-3.491345,12.364019,1.452428,23.733802,7.921089,35.959325,10.650331,1.991453.496519,4.134666.851969,6.307612.976101,2.161863.123499,3.644256,2.222094,3.01482,4.293981l-.02024.066624c-.325394,1.071084-1.356146,1.761926-2.470188,1.652337-.077478-.007622-.156697-.014976-.237582-.022002-1.40332-.125488-3.293823-.109497-5.147339.183838-1.856018.276367-3.663513.801758-4.976685,1.296509-1.316528.491333-2.157288.90271-2.157288.90271-1.419026.696176-3.48756,2.086344-5.148858,3.259907-1.507713,1.065069-3.405243,1.297218-5.183031.800189-.06353-.017762-.120082-.030673-.168019-.037859-.714164-.107048-1.498946-.097667-2.259125.061015-1.388672.281616-2.572876.973999-3.406677,1.507446-.830688.545532-1.343262.936646-1.343262.936646-.949585.737793-1.884766,1.49353-2.916016,2.103394-1.025574.605347-2.150574,1.067017-3.315002,1.112793-2.367676.113281-4.728271-1.3396-7.313599-2.14917-5.117798-1.739502-10.640503-2.231201-15.334167-1.421875,3.267273.100098,6.605957.465576,9.912964,1.216187,1.652344.374512,3.299866.826416,4.91687,1.389038,1.625183.532715,3.16571,1.288086,4.931702,1.820435.876038.258911,1.817932.426514,2.780273.396973.967651-.029175,1.906738-.291626,2.753723-.666016,1.703064-.758545,3.075439-1.928345,4.420959-2.956421,1.337585-1.02771,2.739868-1.962891,4.265442-2.271484.505494-.09878,1.032406-.126231,1.543378-.076932,1.114389.107517,1.532954,1.522953.728796,2.301897-2.301089,2.22894-4.388752,4.704991-7.030047,6.330699-1.540161.949585-3.267029,1.593384-5.01355,1.619629-1.74939.040405-3.614685-.537354-5.599304-.364136-.975464.081543-1.985229.365234-2.803833.97229-.806946.618042-1.343262,1.435547-1.763062,2.232666-.844116,1.571411-1.400635,3.294312-2.934814,4.122803,1.114685-.395874,1.908081-1.404785,2.53949-2.395874.642456-.998657,1.209412-2.062256,2.031006-2.835815.799988-.79187,1.910583-1.10437,3.053345-1.127441,1.146667-.036255,2.310303.216919,3.542114.406372,1.218445.206543,2.582458.273071,3.868713-.012451,1.288818-.266479,2.505005-.786987,3.620178-1.444214,2.248108-1.326538,4.035034-3.193115,5.766296-4.973999,2.557739-2.682983,7.550032-6.621837,8.023282-6.879139.303634-.08561.706412-.599499-.600808,2.516594-.122256.29143-.330462.547765-.519459.812374-.669067.954712-1.491699,1.822266-2.122925,2.470581-.641846.649414-1.069763,1.082397-1.069763,1.082397-3.12146,3.339722-6.368713,7.340454-8.946594,11.769897-2.595215,4.409058-4.489319,9.231812-5.290649,13.697021,2.339966-5.765503,5.248901-11.696777,9.017517-17.114502,1.875916-2.707886,3.942871-5.285767,6.176575-7.646362,1.117798-1.186157,2.283325-2.37793,3.20105-3.776245.581185-.888058,1.063272-1.865973,1.339095-2.898355.334733-1.252878,1.130501-2.331581,2.299748-2.892484l.068311-.03277c3.316555-1.596843,6.97088-2.467388,10.509989-2.36725,1.260324.03566,2.01478,1.445632,1.317418,2.496048-1.066439,1.606345-2.292002,2.996517-3.354323,4.068224-1.506775,1.515869-2.621582,2.438599-2.621582,2.438599-3.942261,3.615845-8.887512,6.807007-13.135803,11.281616-2.108215,2.228882-4.026245,4.820801-5.273376,7.818115-.612732,1.497559-1.063904,3.064087-1.342163,4.651855-.265442,1.589355-.375549,3.190674-.376831,4.776733.001342,1.100957.054761,2.190177.144764,3.26888.066167.79303-.238056,1.57043-.84277,2.087727l-.008258.007064c-.231758.198698-.484139.426218-.745457.685035-1.158691,1.102417-2.443298,2.81189-3.421265,4.658691-.99292,1.843262-1.693359,3.799194-2.13501,5.277222-.438293,1.480225-.654175,2.481812-.654175,2.481812-.723572,3.715454-1.101318,7.626343-1.88855,11.479492-.301372,1.497774-.686641,2.968188-1.170508,4.414849-.223024.666795-.666812,1.239258-1.239434,1.647254l-.00998.007111c-.991943.709229-2.2677,1.724365-3.444092,2.85022-2.39209,2.224243-4.23938,4.934082-4.23938,4.934082-1.692871,2.500854-3.082642,5.455566-4.157104,8.50647-1.116272,3.013916-2.302856,6.109375-4.620422,8.290894-2.286987,2.223877-5.273071,3.709473-7.986023,5.492676-1.360352.889771-2.676575,1.857178-3.782776,3.004639-1.108643,1.139771-1.972473,2.479492-2.444275,3.888184.94989-1.819946,2.442932-3.268921,4.124207-4.449951,1.699646-1.174072,3.573547-2.13916,5.450012-3.188232,1.875183-1.043457,3.776672-2.195557,5.435181-3.737915,1.694519-1.529419,2.869446-3.570923,3.73645-5.603638.877869-2.047363,1.51593-4.137329,2.327759-6.111328.814087-1.967285,1.81842-3.850098,3.006775-5.591675,1.865662-2.760864,4.175171-5.165161,6.733887-7.109253-.561096,1.307251-1.159668,2.607666-1.813843,3.896606-1.855957,3.609253-3.942505,7.19458-5.539307,10.956177-.798401,1.877563-1.435608,3.811768-1.873291,5.741089-.428772,1.936279-.559631,3.885376-.479614,5.731201.942505-5.031982,3.411926-9.56604,6.086548-14.112183,1.625931-2.7843,3.362734-5.623486,4.851003-8.648411.890849-1.81066,1.692649-3.687871,2.328318-5.659694.165405.957764.045411,4.770871-.087997,5.514843s-.297043,1.433765-.457047,2.018849c-.331055,1.169678-.615417,1.932007-.615417,1.932007-1.821411,5.775879-6.397461,11.245239-8.476868,18.045166-.499939,1.693481-.805176,3.463989-.856445,5.223877-.06427,1.760254.128601,3.49585.437012,5.165771.63324,3.346802,1.787598,6.415039,2.947571,9.253296-.992554-4.096558-2.164185-8.350586-2.22998-12.71228-.0448-2.17627.264099-4.3396.897888-6.441162.63208-2.102295,1.544739-4.137573,2.560364-6.134521,2.014282-3.991211,4.49884-7.881104,5.902832-12.219727.714539-2.149536,1.17572-4.384033,1.242126-6.628418.021301-1.122803-.069702-2.241699-.268311-3.337769l-.010576-.048046c-.237209-1.077673-.265336-2.195815-.037604-3.27553.208032-.986318.383036-1.97196.539057-2.954093.17988-1.132324.334528-2.259983.485389-3.378645.097175-.720571,1.134059-.739754,1.259076-.023489.253824,1.454235.460395,2.820668.479448,3.112759.082452,1.264005.084701,2.462421.028007,3.433744-.070068,1.417358-.213257,2.352539-.213257,2.352539-.190552,1.743652-.586609,3.545288-.851624,5.446289-.262024,1.891357-.38031,3.937378.106628,5.953857.991577,4.004517,3.700073,7.231812,4.109558,11.059082.512451,3.83313-.460632,7.783813-.566223,11.742188-.059326,1.974609.123352,3.981567.765442,5.806763.618164,1.821533,1.715881,3.460938,3.169983,4.51709-1.800964-1.713013-2.690979-4.154297-2.949951-6.599731-.264099-2.469238.089294-4.989868.449341-7.543213.359497-2.552368.734558-5.211914.423096-7.933228-.14502-1.356445-.528198-2.710815-1.039612-3.96167-.512268-1.254028-1.120483-2.437744-1.686279-3.611572-.562317-1.173828-1.085266-2.346436-1.407227-3.554565-.334106-1.200928-.426086-2.450195-.37207-3.716919.106262-2.538086.771484-5.081299,1.047852-7.710205.495944-4.608943-.08411-9.223604-1.515752-13.4095-.236687-.692035-.314703-1.43135-.161015-2.146411.51626-2.401991,1.259199-4.732501,2.349009-6.836789.463594-.899504.996398-1.754508,1.595568-2.543229.672064-.884675,2.087546-.50872,2.279611.585551.512964,2.922559,1.106098,5.772697,1.477665,8.566442.394958,2.887451.578552,5.749512.351257,8.533081-.125183,1.388184-.342407,2.757324-.701599,4.083008-.374023,1.31958-.878784,2.590942-1.506042,3.801636,2.334656-2.960083,3.487366-6.871948,3.787048-10.784912.318848-3.936401-.10144-7.935547-.674133-11.849121-.558899-3.906982-1.175598-7.802734-1.168274-11.660156-.010803-3.850586.710632-7.637573,2.614197-10.908813.079265-.139153.160264-.277351.242905-.414638.7238-1.202415,2.482098-1.179543,3.189717.032465l.036616.062715c.442932.758057.824585,1.541382,1.07251,2.140991.248962.599976.370544,1.010742.370544,1.010742.527649,1.491943.75238,3.2323.353088,4.883301-.192688.830322-.56488,1.58374-1.068604,2.324463-.49408.743896-1.083923,1.489624-1.529907,2.37915-.932434,1.83252-.727722,3.987061-.036621,5.699097.698669,1.74585,1.811768,3.145386,2.881836,4.400391-1.081177-1.987427-2.317627-4.062256-2.54248-6.345947-.117493-1.129883.026489-2.273438.530884-3.265503.497253-1.011108,1.31073-1.92688,1.938416-3.052612.643433-1.136108.932495-2.452637.936279-3.722778.006409-1.276978-.246033-2.525513-.662231-3.69165-.506205-1.401507-1.216243-2.666064-1.981461-3.856786-.793754-1.235125-.666916-2.861109.346132-3.9238,1.110036-1.164432,2.302985-2.270055,3.53102-3.333306,1.333794-1.152537,2.719235-2.265718,4.110217-3.38786l.289144-.233343c1.379843-1.113552,3.445821-.535129,4.046855,1.133021v.000004c.315322.884422.593608,1.86336.781994,2.862201.361694,1.805298.408508,3.653442.314453,5.018799-.103333,1.367554-.29834,2.258667-.29834,2.258667-.477234,3.35791-2.271606,6.748657-3.474365,10.674561-.490845,1.637207-.805237,3.384644-.823364,5.186768-.552429.722168-1.141357,1.597412-1.644958,2.522217-.68927,1.239746-1.21814,2.554688-1.570496,3.550903-.180908.497559-.312317.917725-.39801,1.213623-.0896.294922-.140747.463501-.140747.463501-.64801,2.530396-1.056824,5.268433-1.225342,8.079712-.181885,2.806641-.192993,5.669067-.412842,8.484619-.208374,2.815796-.665588,5.582275-1.625061,8.119629-.944641,2.532715-2.381775,4.810303-4.312622,6.490479,3.062073-1.799683,5.17627-5.202881,6.210754-8.807129.985291-3.343506,1.138733-6.859009,1.24231-10.300171.203552.095703.459656.225586.733276.451416.648376.476685,1.291199,1.428589,1.635437,2.502075.364624,1.078003.403625,2.220703.311218,3.073242-.088501.862671-.230347,1.4375-.230347,1.4375-.381104,2.151001-1.357849,4.402588-1.745789,6.942261-.429749,2.513306-.36969,5.110596-.247986,7.651489.136719,2.543335.361938,5.046265.3797,7.470337.001465,2.419312-.235413,4.763184-.890686,6.93689,1.49292-2.753052,1.981567-6.131836,1.94928-9.418579.010498-3.307373-.349731-6.622437-.199829-9.880493.075195-1.630859.263306-3.230225.691528-4.796021.406067-1.576172.950012-3.161255,1.249146-4.831909.325439-1.650635.307922-3.468018-.299561-5.071533-.556213-1.525146-1.6875-2.978394-3.303833-3.527222.087097-3.70813.323669-7.380371,1.276733-10.861206.584473-2.206177,1.458374-4.324341,2.638672-6.18811.229858,2.023926,1.014038,4.128662,2.483826,5.713867.773193.841309,1.591492,1.49646,2.292664,2.137207.709595.636108,1.257751,1.262695,1.744202,2.010254.18103.283081.334167.585205.486694.887573-.199158.232544-.491211.59375-.828796,1.092407-.593384.867432-1.204956,2.140259-1.589539,3.476929-.396851,1.334229-.585938,2.71228-.660034,3.743652-.076477,1.032715-.061462,1.721924-.061462,1.721924.064392,5.15271,2.013062,10.552612,2.451477,16.047974.225891,2.736816-.071411,5.496094-1.042297,7.972046-.950989,2.460693-2.609924,4.61145-4.835388,5.780396.797974-.311768,1.5755-.72522,2.280029-1.265381.691711-.551636,1.327759-1.193848,1.872375-1.917969,1.079895-1.456299,1.827637-3.174194,2.265564-4.973877.914856-3.639526.350708-7.478516-.383118-11.072876-.736145-3.619629-1.703857-7.176758-1.728394-10.75-.05249-3.276489.681946-6.62793,2.612976-9.072266.4422,1.078247.7453,2.232666.902649,3.412109.478882,3.653076-.300354,7.441772-.793579,11.020874.95575-2.293701,1.884338-4.663818,2.388916-7.249512.51123-2.567505.526917-5.401123-.400208-8.097412-.459045-1.343872-1.179871-2.646484-2.162659-3.755859-.977234-1.096069-2.039734-1.908325-2.820557-2.775146-1.546997-1.643555-2.105286-4.00415-1.984863-6.429688.156738-4.884277,3.267944-9.565186,4.107788-15.071899.593837-4.057954-.011594-8.149319-1.542576-11.757488-.078492-.184986-.159416-.368703-.242737-.551078-.706539-1.546485-.37402-3.366611.83591-4.561133l.014994-.014803c2.382238-2.357592,4.534405-5.017232,5.938254-8.088275.89062-1.902445,1.519768-3.971564,1.757242-6.074015.142388-1.260619,1.053788-2.327217,2.275762-2.668118,2.761486-.770388,5.309488-2.151863,7.347855-4.373101,5.687561-6.001709,5.325684-14.533203,13.577759-17.638428,1.307406-.597054,3.142468-1.13837,5.306424-1.633403,1.15833-.264983,2.255605.643507,2.198888,1.830405l-.001284.026875c-.00946.386475-.036255.797974-.071411,1.220703-.081177.02417-.150085.043457-.236633.069458-.954163.300903-2.197083.806641-3.352844,1.478027-1.159729.663452-2.229858,1.474976-2.973083,2.148193-.742371.675293-1.186951,1.177124-1.186951,1.177124-1.652283,1.845947-3.013306,4.191284-3.754272,6.780762-.782532,2.574707-1.113464,5.286377-1.662781,7.899658-.514954,2.620605-1.365173,5.138184-2.906311,7.193481-1.471985,2.061279-3.635254,3.614014-6.067078,3.807007,1.65509.094482,3.392456-.484131,4.777161-1.558838,1.412292-1.048096,2.521851-2.490845,3.372437-4.06189.85907-1.582275,1.367676-3.341553,1.74408-5.079468.384338-1.747192.646057-3.506226.990051-5.231934.348755-1.720947.766541-3.424194,1.473206-4.992798.687378-1.575317,1.649658-3.022583,2.798279-4.283203,1.896851-2.098267,4.323486-3.65686,6.905151-4.51355-.254395,2.21582-.807434,4.796631-1.562378,7.35791-.989441,3.409912-2.247314,6.790649-3.121643,9.417236-.880066,2.617798-1.376648,4.424805-1.376648,4.424805-.387182,1.542575-.740639,3.135589-1.010366,4.774739-.250651,1.52322-.976089,2.929361-2.088412,3.999763l-.049088.047238c-.770614.755767-1.563584,1.676565-2.249412,2.667029-1.039673,1.474854-1.852234,3.077271-2.378418,4.303589-.529724,1.226929-.802856,2.071411-.802856,2.071411-.238537.772054-.444523,1.559022-.626986,2.356764-.270126,1.181007-1.036367,2.188299-2.094419,2.778446l-.010385.005792c-.602436.338237-1.246117.761414-1.84603,1.239124-1.904175,1.473511-3.294861,3.424805-3.294861,3.424805-2.578308,3.617798-4.124207,8.287109-5.682922,12.761475-1.554504,4.480713-3.414612,8.800781-6.303345,11.974731,2.409851-1.710205,4.277405-4.313599,5.653748-7.114014,1.39801-2.813721,2.344788-5.845093,3.392029-8.779297,1.045471-2.932129,2.209412-5.821289,3.97699-8.266479,1.084146-1.519862,2.40318-2.872701,3.896396-3.882457.661985-.447653,1.531519.099906,1.426241.892076-.570551,4.293145-.8053,8.74236-1.432196,13.020776-.971558,6.752441-3.458618,13.315918-8.49646,17.256714,1.004578-.409424,1.99646-.930298,2.916687-1.589722.90802-.669556,1.773132-1.436401,2.540833-2.305298,1.538269-1.737305,2.750916-3.796387,3.656738-5.983887.160706-.383545.298218-.77417.438904-1.163818-.010315.258789-.02179.52002-.036316.781982-.139954,2.365967-.459717,4.712158-.459717,4.712158-.248291,2.182983-.6651,4.478638-1.239807,6.802124-.597961,2.317993-1.345337,4.660522-2.199585,6.961914-.874023,2.2948-1.863159,4.539429-2.880859,6.703613-1.028931,2.160156-2.122742,4.215088-3.141296,6.19043,3.925232-4.682007,6.961487-10.688477,8.767334-17.026123,1.794922-6.217896,2.418091-12.716064,2.238037-18.747192.671387-3.000854.95874-6.083008,1.192871-9.069702.325031-4.147763.559092-8.252274,1.569292-12.085303.116797-.443167.640974-2.084741.779036-2.464868.147949.449463.422638,2.313306.429195,2.69703.019673,1.15118-.131527,2.089347-.131527,2.089347-.125366,1.551636-.509277,3.201294-.765076,4.963013-.250427,1.761353-.369263,3.594971-.277649,5.421387.150574,3.650879,1.153809,7.268188,2.850098,10.015747-1.143188-4.26001-1.818237-8.845459-1.514648-13.449951.124573-2.290894.670288-4.55957.890686-6.934692.111255-1.205332.100863-2.456949-.116917-3.659157-.417747-2.306093.088542-4.681898,1.496604-6.55538l.041535-.055264c.474931-.629173,1.47502-.322759,1.506854.4649.02097.518844.048762,1.019605.08426,1.35464.101692.95978.25811,1.922428.47802,2.879583.429565,1.924927,1.140198,3.762573,1.904419,5.491943,1.539124,3.45105,3.316406,6.659546,3.995056,9.938354.683777,3.234863-.00354,6.55542-1.469482,9.789307-1.440674,3.243408-3.486877,6.380493-5.289124,9.772095-1.831299,3.404175-3.246338,7.120605-3.860413,10.935547-.145935.884521-.242188,1.776611-.296814,2.669067-.055725-.017822-.096985-.018677-.116882.002808,0,0-.54895.553223-1.27356,1.462158-.723206.908325-1.597107,2.184448-2.344727,3.5177-.754761,1.330322-1.399902,2.702148-1.859253,3.733032-.444397,1.033936-.740662,1.723267-.740662,1.723267-.946838,2.606567-1.882507,5.35022-3.082092,7.997559-1.201172,2.646118-2.668335,5.235229-4.559692,7.38269-.947266,1.068848-2.000916,2.016846-3.153931,2.797363-1.128235.794189-2.445129,1.38147-3.795837,2.069946-1.337402.678101-2.734253,1.481567-3.811646,2.604736-1.075134,1.096558-1.841797,2.542847-1.857239,3.955566.68335-1.813721,2.236023-2.966187,3.863953-3.760254,1.657043-.793579,3.532959-1.255371,5.447205-2.11084,1.934692-.868042,3.692017-2.197266,5.140442-3.76123.8686-.946964,1.632903-1.973386,2.322821-3.039273l.001474.000179c.178223.907357.225195,2.19375.053513,3.463532-.153992,1.218628-.489746,2.412231-.797607,3.286011-.306091.875488-.56543,1.440063-.56543,1.440063-1.713989,4.308228-5.406128,8.202637-7.91687,12.923462-1.253174,2.355225-2.084534,5.014282-2.110901,7.643433-.055176,2.613647.772095,5.234253,2.42041,6.938232-1.890442-2.678711-2.073242-6.200317-1.305115-9.390137.742065-3.24292,2.568481-6.168579,4.483154-9.010254,1.913086-2.844604,4.00769-5.683105,5.309265-8.909912,1.210999-2.941162,1.783569-6.255371.992859-9.280518.245911-.416016.48291-.835938.7052-1.260986,1.970886-3.696899,3.114807-7.637329,4.47937-11.290283,1.07959-2.929688,2.344727-5.743164,4.064697-8.099854.110168,1.823853.432922,3.612915.972717,5.311035-.090332.085449-.175659.158569-.270264.257568-.742065.767456-1.514526,1.981689-1.97113,3.30957-.475464,1.321045-.673035,2.716309-.709961,3.759766-.036621,1.045898.022888,1.732544.022888,1.732544.207092,2.560303.907959,5.152588,1.446838,7.799438.539917,2.641602.801514,5.405762.768494,8.162842-.04718,5.52478-1.526489,10.960693-4.055237,15.258545,2.124329-2.697388,3.62384-6.064331,4.381348-9.644775.771606-3.585327.810669-7.367798.320068-11.053223-.45343-3.714233-1.745239-7.213379-1.989258-10.754517-.133118-1.760864.046143-3.521851.619873-5.139404.381836-1.072388.970886-2.055298,1.718018-2.865112,1.179077,3.284668,3.194824,6.167969,5.737061,8.124268-3.029175-3.553833-4.512756-8.150635-4.603943-12.701416-.070829-3.579407.69628-7.142688,2.007366-10.531795l.000122-.000025c.714229.904566,1.728452,2.184745,2.630391,3.51827.832153,1.229736,1.603455,2.486816,2.081787,3.468384.259827.482422.443604.896484.568054,1.187744.128418.289551.201782.454956.201782.454956,1.166626,2.419189,1.807861,5.230469,1.833496,8.176025.027771.734009-.027832,1.480591-.055847,2.226685-.075134.754639-.122253,1.484009-.226013,2.276978-.182678,1.559937-.372742,3.140991-.508179,4.741455-.090454,1.010986-.152405,2.034912-.180664,3.06189-.18573.082275-.364746.160156-.572754.256714-1.270386.61499-2.772766,1.798218-3.935181,3.256226-1.18158,1.44519-2.04187,3.108765-2.555786,4.394653-.522217,1.286499-.751465,2.18396-.751465,2.18396-.936279,3.323608-.939026,6.993286-.737488,10.643799.197815,3.664917.602173,7.395264.429871,11.094727-.319702,7.411255-3.588806,14.457275-8.017578,19.42981,3.375549-3.120483,6.074341-7.281738,7.599182-11.953491.763428-2.334351,1.228699-4.794189,1.372192-7.283569.139038-2.487549.004883-4.976196-.174805-7.438477-.175781-2.463135-.395386-4.911865-.404846-7.34375-.025452-2.433105.175415-4.841553.847351-7.130859.646423-2.284546,1.677612-4.463257,3.146423-6.252686,1.02594-1.276367,2.310608-2.318481,3.739624-3.013794-.012024,1.932373.120239,3.86792.496582,5.746094.623413,3.151367,1.997009,6.030396,3.798096,8.25354-1.386292-3.688721-2.037415-7.569946-1.95575-11.534668.047546-3.789673.61261-7.636108.990967-11.640137.396057,1.078003.766174,2.395386,1.077637,3.737427.737915,3.315186.858887,6.731567.858887,6.731567.211914,3.154907.120544,6.521606-.061951,9.981079-.186279,3.457764-.43396,7.031372-.39801,10.617554.040649,3.581909.355286,7.190552,1.229126,10.588379.433472,1.697754,1.0354,3.325317,1.748718,4.852173.724792,1.525269,1.634155,2.908447,2.605042,4.161621-2.376587-3.688354-3.668579-8.077881-4.212463-12.594116-.556763-4.529419-.450989-9.199097-.221191-13.862427.233154-4.670654.498047-9.380127.182739-14.017578-.272339-4.147461-1.069763-8.258789-2.684509-11.930176.08136-1.784058.01355-3.588623-.279419-5.366943-.349609-2.158691-1.028442-4.257812-1.95282-6.189331-1.766253-3.680599-4.260199-6.726-6.664272-9.578357l-.000788-.005684c2.004058-4.444789,5.210531-8.525833,7.565451-13.487859,1.089233-2.359497,1.998108-4.961304,2.177734-7.763672.037546-.419728.054048-.83978.051946-1.258909-.005097-1.016341,1.248719-1.485154,1.894576-.700398l.022167.026934c1.293579,1.557617,2.425232,3.218994,3.150146,4.520264.73822,1.296143,1.103699,2.210327,1.103699,2.210327.712158,1.492798,1.240906,3.1073,1.530273,4.807861-.042419.024292-.077332.042969-.123047.069824-.504517.304443-1.19989.791016-1.916077,1.5-1.44873,1.397949-2.869995,3.765747-3.473938,6.363892-.640747,2.586548-.626831,5.249268-.515625,7.200928.052795.980103.146912,1.789185.203979,2.356934.059448.567505.093384.891724.093384.891724.628601,4.802979,1.872742,9.772827,3.254761,14.818359,1.373901,5.047729,2.878174,10.201538,3.834839,15.44751.941956,5.235107,1.263245,10.602417.572449,15.719849-.670166,5.108765-2.486084,9.943726-5.402344,13.741089,2.164673-2.472046,3.846375-5.464233,4.92865-8.707275,1.052734-3.25293,1.613281-6.715088,1.696533-10.209473.088074-3.495728-.192139-7.027832-.81134-10.51062-.605835-3.486328-1.481567-6.92041-2.414978-10.327637-1.86792-6.806763-3.968445-13.55481-4.818604-20.409912-.419983-3.410034-.605408-6.872681.231384-10.10376.718201-2.846191,2.38678-5.506836,4.786377-7.025879.233948,1.820801.228699,3.731445.113281,5.691895-.158264,2.098389-.318726,4.22522-.480164,6.365845-.146118,2.177734-.115295,4.448853.127869,6.669434.490723,4.452759,1.88916,8.782471,3.962524,12.570312,2.056274,3.802002,4.88147,7.001709,7.962463,9.348877-3.363159-4.130127-6.013184-8.906982-7.673889-14.07312-.811707-2.561401-1.380188-5.211426-1.670471-7.898315.051514.030151.099365.058228.158875.093018.194153.113281.429932.250854.700378.408691.250244.18811.532593.400269.840576.631714,1.232056.919312,2.698059,2.401978,3.798157,4.15686,1.130188,1.731689,1.968384,3.642822,2.528259,5.098022.255737.738525.468811,1.354004.617981,1.784912.13031.437988.204773.688354.204773.688354,2.314941,7.411377,3.038696,16.290771,6.162598,24.599121.551819,1.467041,1.203735,2.89917,1.942383,4.280151-.477051,1.198975-1.007446,2.373535-1.577271,3.519653-1.879333,3.781738-4.018494,7.363892-5.436462,11.003418,2.235413-4.51062,5.328796-8.727417,7.524353-13.611694.147034.255859.288879.515137.442383.766724,1.155762,1.880981,2.514648,3.601196,3.939575,5.194458,2.85437,3.191406,5.899292,5.968994,8.425537,8.93689-3.102417-4.387695-7.28241-8.186279-10.452393-12.796753-.698792-1.006836-1.318726-2.063232-1.891541-3.147339,2.200195-5.295898,2.680359-11.202393,2.636353-16.921631.016296-5.771606-.572327-11.532227-.243103-17.135376.168457-2.796753.606201-5.565674,1.569336-8.114502.880371-2.370972,2.263123-4.507812,4.052124-6.183594.496094,4.060547.292358,8.188477-.40979,12.130615-.702271,4.030396-2.012207,7.837036-3.586975,11.371338,3.287659-4.179688,5.563354-9.508911,6.38739-15.195435.405518-2.84375.461609-5.773071.149048-8.683838-.28418-2.916992-1.077393-5.800049-1.962036-8.507935-.55179-1.711605-1.127866-3.389509-1.613145-5.060372-.061481-.211686-.140504-.523441-.227433-.88841-.356809-1.498055,1.369773-2.617948,2.598287-1.689382.393137.297151.721981.572776.915954.785864.789484.86728,1.517742,1.89783,2.07359,3.031499,1.146423,2.252563,1.719299,4.762817,2.042786,6.646973.165833.944458.255066,1.742554.326233,2.298828.068909.556763.108215.875.108215.875.560791,4.735107.505554,9.816772.316956,15.033203-.179199,5.218384-.478516,10.602417-.176697,16.001831.314148,5.389404,1.317322,10.787964,3.355896,15.658081,2.007141,4.864014,5.208008,9.126343,9.170044,11.830933-2.555359-2.075928-4.717041-4.673462-6.38031-7.594849-1.635437-2.939087-2.865784-6.142944-3.676575-9.481079-1.694885-6.685303-1.772522-13.753906-1.538269-20.783325.207642-7.032104.611755-14.140869-.233459-21.095703-.424561-3.449951-1.086853-6.946533-2.744202-10.02478-.964919-1.809875-2.334947-3.442397-3.999423-4.624649-2.180663-1.548893-3.289678-4.199517-2.780212-6.825313l.010348-.053333c.71106-3.765503,4.815369-6.21875,5.623718-4.2854.805176,1.94458,1.9198,3.692505,3.136597,5.27478,2.449158,3.165771,5.27417,5.745117,7.762146,8.401245.281413.296163.556801.595882.826726.898772,1.195741,1.341772,1.490161,3.260336.70291,4.876004l-.008155.016736c-.357846.735692-.735486,1.546416-1.083126,2.377433-.605408,1.446289-1.151306,2.935425-1.455444,4.096558-.173157.572632-.282959,1.06189-.355164,1.406128-.07605.343018-.119568.539062-.119568.539062-.47168,2.947754-.452698,6.182251.215149,9.345337l.006633.035984c.283459,1.537837.351917,3.105823.202712,4.662431-.105303,1.098595-.198373,2.303159-.201837,3.098826.015747,3.487427.666504,6.902832.666504,6.902832.598572,3.159668,1.473694,6.441528,2.44043,9.781006.971436,3.339966,2.002869,6.740723,2.79895,10.191772.790405,3.44873,1.356995,6.943481,1.439331,10.366577.044006,1.711182-.064209,3.396362-.273926,5.037109-.221619,1.641479-.625244,3.215454-1.098633,4.730469,1.85791-3.974487,2.384399-8.680664,1.989197-13.295776-.378906-4.639771-1.559326-9.233887-2.893921-13.728027-1.337158-4.490112-2.748108-8.95105-3.572388-13.4552-.450641-2.427281-.708599-4.879657-.690339-7.286733.005504-.725542,1.026465-.889739,1.262908-.203783.297953.864409.593104,1.719393.786929,2.280067,1.008118,2.961426,1.868591,5.901489,2.337158,8.827637.469604,2.926392.48407,5.84082.240295,8.693604,1.609131-3.570923,2.091614-7.901245,1.399658-12.076294l-.003904-.025196c-.169643-1.094791.950209-1.945631,1.953436-1.475651.774025.362606,1.565996.788562,2.100029,1.214591,1.385925,1.078247,2.537537,2.438843,3.288025,3.527222.758789,1.086548,1.163513,1.875854,1.163513,1.875854,1.661316,2.844727,2.495789,6.304321,3.124817,9.879639.636475,3.578125,1.078247,7.338013,2.141907,10.998535,1.061523,3.662598,2.877991,7.096802,5.193115,9.971802,2.310303,2.882446,5.118958,5.206177,8.056091,6.802979-3.78241-2.617798-7.084778-6.140137-9.468445-10.288452-1.19104-2.074463-2.141235-4.29834-2.817261-6.620117-.672668-2.326416-1.113281-4.736084-1.520691-7.163208-.411865-2.426392-.794128-4.877563-1.391052-7.28833-.577515-2.403931-1.401489-4.79834-2.662415-6.929565-1.235535-2.135498-2.827637-4.072632-4.785461-5.53125-.638839-.486022-1.325593-.910249-2.045107-1.261707-1.892415-.924379-3.394228-2.491813-4.047829-4.49394-.57936-1.774711-1.215379-3.517885-1.812642-5.232756-1.326355-3.779907-1.861877-7.766235-1.164368-11.628296.366382-2.137195,1.033581-4.211164,1.855972-6.21643.569393-1.38837,2.519745-1.488443,3.232499-.167928.085633.158652.169511.318162.251495.478595,1.580566,3.086426,2.573547,6.404297,2.761353,9.782104.201111,3.371704-.393555,6.769165-1.856812,9.800659,1.431583-1.84236,2.446985-4.037347,3.04147-6.391746.346418-1.371952,2.12599-1.706075,2.917469-.533122.065864.097609.12996.196926.192001.297793.694885,1.094238,1.16095,2.326538,1.406311,3.268555.246399.94458.335327,1.600708.335327,1.600708.437317,2.409668.359375,5.054932.42981,7.795776.070862,2.751831.434692,5.581543,1.134094,8.329224.711792,2.743408,1.772339,5.407227,3.213989,7.76123,1.415405,2.366577,3.246765,4.379761,5.213196,5.90979-4.853516-4.903198-7.674133-11.943848-8.417236-19.152832-.438416-3.591553-.062866-7.309204-.733398-10.963013-.325439-1.818481-.975098-3.595093-1.991516-5.118896-.265534-.398046-.560136-.779083-.88117-1.135771-1.269301-1.410266-2.088943-3.146146-2.256517-5.036092-.008713-.098265-.018153-.196499-.028328-.294691-.06134-.614502,1.480774-.225586,2.363892.804443.931091,1.074951,1.78772,2.230469,2.414368,3.114746.617065.895752,1.028503,1.492798,1.028503,1.492798,1.620972,2.165405,3.156616,4.639893,4.985657,7.094116.09569.127802.192185.255612.289523.383349,1.564616,2.05325,2.625299,4.430709,3.21737,6.943339.066682.282984.138143.537238.213565.741671.441528,1.229614,1.060242,2.378784,1.573853,3.202393.512451.825806.903748,1.340942.903748,1.340942,2.536804,3.391724,6.247437,6.152954,9.427551,9.387573.023376.825928.088501,1.644287.215515,2.446533.239197,1.412109.644226,2.764282,1.187927,4.017822-.472677-1.813076-.616735-3.668138-.519816-5.52003l.007006-.002562c1.906283,2.034357,3.438098,4.405175,4.23864,6.978158.095154.300781.178955.604492.252197.90979-.10498,1.262695-.179626,2.534302-.327759,3.800049-.214539,1.834229-.606384,3.671021-1.494141,5.291748-.890442,1.631592-2.205383,3.073608-3.50946,4.590576-1.304382,1.499756-2.620972,3.193237-3.389709,5.157837-1.575378,3.911499-1.546875,8.038818-2.25,11.779541-.340698,1.879761-.865906,3.687866-1.754272,5.291382-.871399,1.604492-2.106995,2.99292-3.660095,3.876831,2.298218-.927856,4.078796-3.007446,5.151794-5.342896,1.096497-2.36145,1.538452-4.972656,1.934387-7.523682.392944-2.553467.765686-5.11853,1.710938-7.45874.895508-2.354614,2.641235-4.244629,4.365051-6.269043.853516-1.018188,1.702026-2.086304,2.374451-3.296753.686707-1.206543,1.123657-2.546997,1.389709-3.87207.534424-2.666138.483826-5.305664.832214-7.820435.441634-3.313496,1.463151-6.508903,2.941366-9.405341.257478-.504507,1.032283-.270945.973987.292459-.217179,2.098922-.480277,4.271998-.638559,6.517545-.062683.861572-.094543,1.739502-.103516,2.623291-.115784.175171-.237305.361084-.373352.5625-.673889,1.108765-1.366882,2.714233-1.727966,4.393433-.381897,1.675049-.49231,3.38501-.500061,4.658081.003418,1.274414.074585,2.118652.074585,2.118652.502686,6.304443,3.333191,12.802246,3.593018,19.547607.144836,3.354492-.617432,6.650513-1.886841,9.692383-1.243774,3.051636-2.858154,5.879761-4.271057,8.605347,2.476624-3.399414,5.019043-7.055542,6.443298-11.401855.71875-2.157959,1.05249-4.490967.998352-6.802124-.049927-2.313843-.429688-4.598755-.927002-6.826294-.986633-4.458618-2.462952-8.74353-2.788452-13.116333-.182617-2.177246-.101746-4.357544.349487-6.427368.236755-1.031616.576782-2.025757,1.008606-2.96814.010315-.020508.023193-.039185.03363-.05957.023743.561523.058716,1.123779.110229,1.685669.207031,2.108276.568726,4.194458,1.018494,6.240356.922913,4.083984,2.135132,8.006226,3.061157,11.833008.465332,1.914673.824402,3.80896,1.085632,5.689697.249023,1.882812.303955,3.744019.262451,5.596802.743591-2.428345,1.009277-5.077271.913879-7.731689-.09082-2.65979-.518311-5.325073-1.053772-7.953491-.82843-4.072266-1.920654-8.097168-2.499146-12.126343.655029.855225,1.393982,1.909302,2.054932,3.027832,1.641296,2.688843,2.64563,5.675171,2.64563,5.675171,1.040771,2.733643,1.598083,5.75708,1.837158,8.974976.148682,1.607056.298035,3.264282.640381,4.928223.332825,1.660278.93103,3.333252,1.838928,4.815063,1.818176,2.975952,4.435791,5.148682,6.689392,7.389771,2.272705,2.211182,4.303284,4.608887,4.993896,7.526367-.16449-2.03479-1.069336-4.02832-2.300537-5.761475-1.245728-1.733521-2.75531-3.27124-4.222778-4.818115-1.471863-1.54187-2.906006-3.120972-3.995422-4.897705-1.114624-1.75769-1.667114-3.791382-1.99646-5.89917-.330627-2.109253-.448853-4.292114-.779724-6.477783-.337585-2.187744-.895996-4.332764-1.668579-6.373291-1.231989-3.295001-2.997618-6.316406-5.106149-8.952404-.604203-.755349-.939164-1.689973-.989612-2.655928l-.000858-.016424c-.272766-5.204712.772156-10.564575.906067-16.022339.062744-2.736938-.131592-5.486694-.783447-8.140015-.455644-1.866274-1.162986-3.688096-2.155058-5.329821-.688198-1.138862-.785391-2.533943-.358615-3.794294.227533-.67195.439622-1.352965.632142-2.044465.552368-1.99585.933533-4.077515,1.014709-6.204102.098938-2.124634-.183472-4.289185-.73175-6.340942-1.135376-4.118408-3.320312-7.735229-5.670715-11.038086-2.36908-3.30957-4.940125-6.341675-7.115051-9.552979-1.794009-2.645781-3.338033-5.423919-4.20518-8.365919-.24559-.833223.492854-1.630997,1.346852-1.47206l.023428.00436c1.311096.241943,3.033936.736206,4.657959,1.477905,1.630371.72644,3.156921,1.670898,4.237183,2.461792,1.083435.78772,1.753601,1.383057,1.753601,1.383057l.066093.054632c.856547.708018,1.338306,1.771783,1.305469,2.882586l-.002971.100502c-.035706.984497.16272,2.282104.590881,3.487549.417847,1.208252,1.000671,2.320557,1.437073,3.134399.440308.805298.733826,1.342163.733826,1.342163,2.271606,3.872925,4.175476,8.560059,5.52655,13.383789,1.374817,4.826172,2.193115,9.765015,2.858093,14.240967.354248-6.220093-.763977-12.99353-3.134277-19.288818-1.175415-3.151367-2.639526-6.196777-4.299988-9.050415-.823486-1.418945-1.644836-2.795288-2.158875-4.249756-.123973-.349676-.228158-.705213-.309806-1.063107-.204692-.897247.935284-1.48205,1.518293-.769975.957022,1.168887,1.858949,2.420315,2.700814,3.73213,2.018311,3.012573,3.435059,6.647583,6.19458,9.556396,1.362366,1.42334,3.076782,2.627808,5.05426,3.13501,1.96521.494629,3.855896.346802,5.500488.862305.822144.245117,1.576233.639648,2.124817,1.230835.540833.601685.899414,1.38916,1.172058,2.217163.28125.824951.505127,1.690063.850403,2.51001.326843.820923.853271,1.588135,1.558838,2.06897-.893494-.794312-1.237854-1.953613-1.487427-3.085449-.256165-1.140137-.419128-2.352661-1.010803-3.495239-.572632-1.176636-1.764099-1.989502-2.964111-2.391724-1.21637-.433472-2.486816-.541382-3.673889-.715576-1.200928-.15918-2.305359-.435181-3.328003-.988892-1.023499-.539551-1.950439-1.282959-2.775269-2.13562-1.657043-1.708618-2.864563-3.861206-4.09906-6.023804-.389421-.695836-.795694-1.385691-1.217696-2.067661-.566226-.915041.190744-2.07005,1.254069-1.904965l.016309.002532c.533342.08789,1.093342.264282,1.609549.536622,1.033203.530396,1.906433,1.418091,2.51239,2.109741.606689.703125.98877,1.213867.98877,1.213867.746155.906738,1.501648,1.908569,2.423645,2.835571.916748.917969,2.033813,1.796509,3.406921,2.235474,1.365356.448975,2.800354.422485,4.140076.302002,1.354431-.13208,2.634277-.322754,3.941589-.401611,5.229187-.377808,10.454529.26001,15.092529,1.251831-3.004211-1.279175-6.348267-2.136841-9.816162-2.447876-1.733215-.156738-3.49646-.197388-5.260986-.091553-1.769897.077393-3.533997.417358-5.186401.484009-.831055.032227-1.641724-.03064-2.398743-.240356-.753601-.208984-1.455322-.595703-2.10144-1.08667-1.301025-.991577-2.326721-2.359375-3.422119-3.704468-1.096069-1.335815-2.319397-2.698364-3.983704-3.488647-.827332-.371704-1.718872-.602173-2.632019-.598389-.058223-.000085-.116567.000879-.174977.002903-1.437154.049805-2.795699-.583611-3.694795-1.705895-1.457636-1.819475-3.07045-3.504512-4.868083-4.970348-3.163953-2.596547-6.904245-4.471502-10.791762-5.213092-1.508274-.287721-2.622229-1.641621-2.606057-3.177007.000842-.079933.002261-.159798.004263-.239582.0441-1.757667,1.715429-3.032655,3.429967-2.643172,13.909858,3.159836,31.810114-2.855197,46.42629-.07997,1.261679.23956,2.012203,1.553677,1.594174,2.767957l-.007742.022488c-.593872,1.823975-.827515,3.717407-.708984,5.573853.09436,1.851196.538025,3.704712,1.259338,5.390747.700317,1.682739,1.655762,3.221069,2.717712,4.633545,2.153442,2.8125,4.764893,5.09314,7.413086,7.155273l.000004.000003c1.533386,1.194309,1.700911,3.451256.360657,4.858865l-.034306.03603c-1.249878,1.324707-2.211914,2.8479-2.918091,4.462158-.728515,1.671417-1.14606,3.393914-1.361613,5.113878-.29795,2.37744-1.772545,4.494643-3.927225,5.542662-.255098.124078-.508188.256036-.757427.395828-1.713318.93689-3.221558,2.163452-4.258606,3.157227-1.044495.991333-1.654968,1.726196-1.654968,1.726196-4.610535,5.524902-6.887817,13.05603-10.352905,19.507202-1.708435,3.256958-3.874695,6.129639-6.541931,8.41333-2.655518,2.244873-5.80542,3.805054-9.206787,4.042725,1.140259.215088,2.340271.277954,3.552063.15918,1.204651-.147095,2.407654-.45813,3.571777-.909668,2.316467-.936401,4.428284-2.421143,6.24585-4.208862,1.818481-1.78772,3.335083-3.928589,4.565186-6.143799,1.245361-2.21936,2.273682-4.528809,3.257874-6.812622.859131-1.992554,1.334701-2.566976,1.334701-2.566976.333333-.925926.540116,11.128011-.972335,17.295614-1.466064,6.191772-4.371948,11.969727-6.536133,17.302124,2.063171-3.378906,4.106934-6.952271,5.731506-10.839233.806763-1.942993,1.503174-3.962524,2.022583-6.046387.526245-2.081665.823425-4.241089.968506-6.377686.295837-4.274536.124573-8.521484.807617-12.570801.347961-2.017822.903015-3.984619,1.746887-5.787231.85498-1.790039,2.000122-3.421875,3.463196-4.650269.046936-.042725,2.222534-2.21106,3.483154-2.928833l.075054-.041131c1.534377-.840859,3.440186.127821,3.653428,1.864451.203786,1.659618.437686,3.288065.621127,4.891157.351257,3.056641.515381,6.072388-.054199,8.932617-.548462,2.874023-1.778198,5.645264-3.28125,8.307983-1.503906,2.670532-3.275757,5.248779-4.980469,7.928833-1.708679,2.692261-3.306885,5.518433-4.440735,8.593506-1.130371,3.055908-1.763123,6.435303-1.298218,9.778809.022705.190308.781926,2.124783,1.345769,2.040921.566345-.084229.72729-2.133694.712215-2.297757,0,0-.025818-.273682-.074219-.787109-.017273-.516357-.0354-1.273682.038513-2.239136.175476-1.925537.814453-4.682739,2.337341-7.757568.746643-1.539307,1.680298-3.160034,2.75531-4.834351,1.071655-1.669556,2.30896-3.416138,3.552551-5.261841.955172-1.424672,1.938578-2.933394,2.850705-4.535212.47326-.83111,1.706681-.687409,1.962237.234225.210583.759443.420857,1.55359.61699,2.354576.484436,1.980713.85083,3.980713,1.034851,5.487671.189941,1.506714.228455,2.515137.228455,2.515137.306091,3.737427-.296875,7.713135-1.371399,11.68811-1.056274,3.984863-2.523926,7.998901-3.644653,12.154663-1.134644,4.151978-1.750854,8.523071-1.336304,12.740356.38092,4.19397,1.994263,8.265991,4.766785,10.92627-1.613098-2.069214-2.737671-4.510254-3.283997-7.109009-.593018-2.588379-.647644-5.306885-.442566-8.004517.394714-5.432861,2.284607-10.704712,3.91803-16.080933.820374-2.688599,1.589172-5.419678,2.083069-8.21106.50415-2.784546.698975-5.646362.468933-8.443604-.324584-4.213672-1.382475-8.215501-2.554768-12.057939-.362661-1.188698-.319633-2.457582.099479-3.627569.336129-.938334.623481-1.905477.842191-2.906411.55127-2.478638.61969-5.006714.498169-7.400391-.120605-2.400757-.413208-4.700928-.642944-6.877563-.497437-4.339233-.557312-8.291626.353271-11.346924.872253-3.025757,2.601135-5.095703,3.938477-6.104614.322386-.253393.800349-.525633,1.221557-.744833.684253-.35609,1.498476-.434971,2.202622-.120041.147313.065886.279242.141611.376907.226813.117918.100691.234352.202529.349555.30531.659291.588205.869065,1.534166.520208,2.345922-.263409.612926-.536378,1.320167-.643933,1.828016-.232178,1.064941-.266724,2.167236-.193237,2.985474.070801.82019.216736,1.354492.216736,1.354492.525452,1.991211,1.663879,3.753662,2.560791,5.568726.443054.908691.84314,1.838379,1.025452,2.79541.197571.952881.169617,1.925903-.033325,2.907104-.401001,1.970215-1.388855,3.863403-1.991211,5.918701-.292786,1.02356-.490234,2.0802-.468262,3.126221.007141,1.04187.277283,2.06604.776917,2.88562-.403809-1.265137-.310486-2.595337.006409-3.857178.319092-1.27356.856445-2.486084,1.430298-3.733276.567505-1.249512,1.154419-2.554077,1.484558-3.998047.350586-1.432861.284973-3.055786-.200195-4.469849-.962524-2.832397-2.861755-5.005615-3.477051-7.544556-.318756-1.294514-.317197-2.655156-.037016-3.940264.246543-1.130822,1.708822-1.495086,2.442484-.599942.852733,1.040423,1.635532,2.137166,2.343433,3.296798,1.646179,2.700684,2.899475,5.66333,3.840332,8.741943l.014866.049343c.353042,1.171801.210222,2.437104-.395141,3.500726l-.01444.02537c-.553528.982422-1.22229,2.334473-1.760132,3.742554-1.117493,2.809326-1.563477,5.820679-1.563477,5.820679-.332336,2.779907-.266846,5.810181.143616,8.762817.379333,2.956299.956177,5.886108,1.13385,8.746948.208435,2.87146-.133667,5.590576-1.064026,8.238892-.890259,2.648193-2.153503,5.193359-3.15155,7.718872,2.429199-2.772949,4.879333-5.872192,6.092712-9.848145.592896-1.978516.790771-4.102051.691345-6.143188-.0802-2.053467-.401489-4.047607-.729675-5.994507-.325684-1.94458-.681458-3.851562-.842468-5.730591-.177002-1.873657-.138672-3.750732.083801-5.602539.260888-2.083429.777617-4.121036,1.521878-6.038589.298379-.768759,1.421045-.667984,1.550208.146472.620725,3.914069.852585,7.927091,1.575436,11.868924.174735.952858.532728,1.594523,1.100661,1.545451.570557-.049194.902424-.836692.965196-1.72819,0,0-.101196-1.237915-.278259-3.404175-.196411-2.16748-.47467-5.272827-1.06665-8.992432-.431405-2.685173-1.037596-5.709559-2.035711-8.859076-.188932-.596168-.604679-1.705687-.999157-2.724024-.339813-.87722.539644-1.738816,1.40924-1.379941.362778.149716.679775.296751.867082.41763.667786.449463,1.333008,1.021973,1.949463,1.657227,1.235901,1.275024,2.236145,2.81311,2.905823,4.000977.328491.592773.596313,1.11792.783264,1.485352.185547.370361.291565.581909.291565.581909.845825,1.545898,1.686523,3.20459,2.711243,4.861084,1.03772,1.641113,2.271851,3.321533,3.975647,4.641113,1.68457,1.328613,3.786194,2.204712,5.905396,2.522339,2.126465.358398,4.250244.238647,6.288208-.02417.325195-.043823.645752-.098755.967468-.150879.243347.309448,1.119446,1.432129,1.940186,2.586304.48175.677979.934692,1.369629,1.251953,1.898438.316345.529175.50708.890259.50708.890259.780823,1.302002,1.404236,2.787476,1.700317,4.394897.311768,1.60498.344788,3.305664.180359,4.997314-.305481,3.391846-1.264954,6.738892-1.720215,9.857666.927429-1.949585,1.764099-4.026733,2.348083-6.248047.583191-2.214111.903198-4.590332.697083-6.975952-.199036-2.384521-1.018616-4.726685-2.233032-6.700562-1.066711-1.794434-2.334656-3.372803-3.549133-4.89624,1.305603-.246826,2.586243-.540039,3.839783-.846313,1.889832-.462158,3.744812-.874512,5.589539-1.122681,3.659546-.515991,7.363831-.35083,10.381775,1.619751-1.626709-1.839966-4.127075-2.961792-6.69873-3.345337ZM218.211113,161.914468c-.337278,1.761684-.798759,3.58404-1.167001,5.496743-.209486,1.088102-.654112,2.117988-1.275625,3.03536h-.000001c-.888855,1.312746-2.025085,3.110597-3.013916,5.011354-.997375,1.894775-1.823303,3.900391-2.30603,5.461792-.497131,1.557007-.688049,2.644287-.688049,2.644287-.342468,2.004883-.469238,4.140137-.247986,6.279785.207886,2.137573.708252,4.243774,1.30011,6.302368.612976,2.01416,1.234253,4.05542,1.859558,6.110107.531799,1.795166.923096,3.588745,1.196045,5.413818-.054871.051636-.231384.217529-.516907.485718-.172241.162231-.381409.359253-.621338.585327-.212769.251587-.45282.535522-.714722.845337-1.048157,1.233765-2.201965,3.104736-2.910278,5.1427-.74469,2.023926-1.144958,4.139648-1.371094,5.725342-.08606.795898-.157837,1.459106-.208069,1.923462-.029724.464966-.046753.730591-.046753.730591-.240479,3.951782.028137,8.116211.120667,12.36499.086792,4.257568.167236,8.631714-.391174,12.928955-.26593,2.148071-.715698,4.265747-1.345398,6.311401-.125549.402954-.265747.800171-.407227,1.196899-1.749023-3.598877-2.928345-7.524902-3.861023-11.483521-.658936-2.791382-1.256775-5.600708-1.838074-8.407471-.589844-2.807617-1.218506-5.612183-2.086914-8.333984-.861267-2.718018-1.984558-5.366333-3.588806-7.694214-1.579468-2.320557-3.671082-4.284912-6.102173-5.558105-.207886-2.437378-.128235-4.88501.050781-7.412842.187988-2.809692.445007-5.701294.264282-8.650024-.160706-2.943481-.904785-5.932373-2.203735-8.546509-1.605917-3.289623-3.800131-6.080118-6.184053-8.575805-2.436216-2.550433-4.437195-5.484615-5.969778-8.661256-1.274157-2.640991-2.428068-5.153637-2.82798-7.817992-.785034-4.483765-.037537-9.233398,1.165222-13.824219,1.208618-4.605347,2.937622-9.151001,4.173157-13.873413.638745-2.426956,1.158258-4.927555,1.406942-7.453279.314137-3.190485,2.812275-5.733639,5.983829-6.201744,4.350759-.642149,9.171771-1.288594,12.90522-1.776489,3.509458-.458623,6.907501,1.434494,8.34062,4.670665.583986,1.318717,1.246827,2.658081,1.955857,3.95799,1.767883,3.273193,3.74469,6.362427,5.107727,8.672363,1.375183,2.312256,2.188171,3.875366,2.188171,3.875366,1.620483,2.845215,3.039368,5.889282,3.816956,9.113159.389038,1.608521.612671,3.25647.617737,4.909546.016907,1.647949-.218689,3.329712-.558777,5.075439ZM265.769218,240.215615c-.009216.178589-.010498.356323-.01593.534424-.522339-.507446-1.052307-1.003784-1.583862-1.48584-2.562622-2.327148-5.245056-4.500366-7.234131-7.19165-1.278035-1.698299-2.296897-3.624679-2.781654-5.61632-.160324-.658696.625561-1.151836,1.141322-.711864.463028.394987.944715.773572,1.451733,1.128355,1.340149.93042,2.824097,1.699097,4.394104,2.198364.757159.252328,2.207671.49879,3.596182.702216,1.743527.255439,2.870517,1.973199,2.41396,3.675166-.599363,2.234326-1.282689,5.095332-1.381725,6.767149ZM276.328727,227.413369c.393677,1.84436.510559,3.75769.518799,5.192749.001535.451856-.006736.897115-.019026,1.301529-.031924,1.050533-.354158,2.070693-.922416,2.954843l-.009791.015234c-.807373,1.233521-1.751831,2.96521-2.514038,4.780029-.756287,1.817017-1.326843,3.708618-1.63855,5.15332-.234436,1.042603-.359558,1.837524-.41156,2.201782-.178833-.564087-.379761-1.122559-.624939-1.664673-.938049-2.112427-2.37085-3.939575-3.964783-5.602905.161072-1.447754.454163-2.887207.846436-4.295532.520096-1.877254,1.205265-3.714054,1.974818-5.536662.27957-.662134,1.083991-.928759,1.707625-.571462.701352.401823,1.331727.920436,1.824881,1.602508-.235365-.821297-.713388-1.554429-1.334276-2.184628-.727543-.738454-.859316-1.878413-.415986-2.815478.187935-.397238.378113-.79457.570575-1.192154.427884-.892847.858055-1.793369,1.280585-2.704343.393958-.849374,1.604068-.825514,1.970856.035941.473091,1.111124.972507,2.416362,1.160791,3.3299ZM260.269096,180.80021c1.108765,1.994263,1.963196,3.230103,1.963196,3.230103,3.16803,4.590454,7.066284,8.902344,9.790649,13.994629l.001332.002489c.503255.939961.288107,2.098943-.510706,2.805122-.358126.316596-.745352.668816-1.12588,1.033087-.656494.626953-1.271118,1.308228-1.700562,1.848511-.430298.539673-.681213.932129-.681213.932129-.907288,1.453613-1.63855,3.201782-1.703369,5.130615-.043274.955444.150085,1.956665.457947,2.84729.298584.897583.652771,1.739014.83075,2.582031.37146,1.666138-.194336,3.427856-1.104858,4.882812-.917664,1.473755-2.165955,2.714111-3.272522,3.945068,1.816223-1.321289,3.786438-2.830811,4.834656-5.166016.51416-1.13916.754456-2.485474.498779-3.782959-.244263-1.283447-.808655-2.392578-1.095825-3.503662-.603027-2.20459.106628-4.621338,1.355896-6.545166.630675-.972132,1.387863-1.843624,2.202276-2.654317,1.006785-1.002186,2.741138-.605111,3.138478.758749.28284.970839.496832,1.957745.625249,2.956848.171448,1.407227.197021,2.837524.071228,4.272217-.138916,1.434326-.412598,2.867432-.780457,4.28833-.955908,3.705323-2.549376,7.257385-4.086583,10.862184-.765203,1.794425-2.718642,2.767512-4.614215,2.306754-.725882-.176441-1.437634-.346099-2.116829-.548088-3.54718-1.017944-6.569946-3.422485-9.153503-6.298096-2.612732-2.865234-4.759094-6.234253-7.133789-9.468018-1.591297-2.176202-4.871848-5.30566-6.873763-7.071803-1.084606-.956869-1.891956-2.167017-2.417685-3.514451-.991754-2.541845-2.351121-4.96137-3.962702-7.174244-3.007935-4.140015-6.762878-7.428711-9.603882-11.13562-1.401123-1.850098-2.58844-3.790039-3.209839-5.858643-.680481-2.049561-.702942-4.229858-.437073-6.528442.286255-2.301758.865234-4.671021,1.338196-7.174561.48645-2.477417.799011-5.198608.544983-7.872192-.047408-.539363-.113979-1.072375-.197095-1.599577-.167461-1.062191,1.103992-1.728674,1.882424-.986828l.024571.023417c.068685.064513.136781.129587.204261.195135,1.326236,1.288263,1.99242,3.084172,2.016995,4.932933.001388.104407.005508.203282.012936.294172.062256.911133.255432,1.796997.435425,2.446655.18042.647827.330872,1.064697.330872,1.064697.591187,1.537964,1.34613,3.068604,1.949707,4.664429.600464,1.597168,1.075439,3.28894,1.403442,5.007935.68219,3.442993.794739,6.939575.800964,10.151855,1.269409-4.241333,1.09552-9.248169-.393616-13.81665-.720093-2.310547-1.893494-4.408813-2.687256-6.508179-.557068-1.451294-.887817-3.004639-.789124-4.465332.442627.668945,3.57666,6.682617,4.656921,9.911621,1.0849,3.226562,2.048889,6.654785,3.412781,10.008301.283936.702393.595764,1.39978.925842,2.090088.158142.776611.533813,2.546509,1.012878,4.293701.646973,2.327759,1.470825,4.601807,1.470825,4.601807.841431,2.079834,1.789246,4.258057,2.886536,6.440552,1.118042,2.170654,2.377441,4.344727,3.780212,6.424316,1.419495,2.067505,2.988953,4.029419,4.65155,5.806152,1.671692,1.769653,3.46582,3.320801,5.259949,4.626221-4.126648-4.490723-8.126282-9.576538-11.348633-15.18103-2.515137-4.348633-4.530457-9.007324-5.852966-13.661377.867432,1.349121,1.843445,2.619629,2.955811,3.74585,2.489685,2.571289,5.73291,4.396606,8.932068,4.712402-4.063293-1.708984-7.095581-5.008301-9.353943-8.751343-2.288025-3.752441-3.699524-8.069092-5.175903-12.462769-.557004-1.653044-1.126896-3.331142-1.759586-4.995069-.428678-1.127389.729318-2.199516,1.810199-1.664291l.030686.015195c2.007568.961548,3.675659,2.482178,3.675659,2.482178,1.60968,1.310303,3.050415,3.015991,4.37616,4.891479,1.328186,1.876343,2.549133,3.922607,3.859863,5.935669,1.309937,2.010986,2.731018,3.99646,4.402832,5.67981,1.658752,1.684814,3.5802,3.06311,5.591064,3.821655-2.469238-1.61853-4.497742-3.847168-6.29126-6.298218-1.801758-2.451172-3.365417-5.154541-5.11499-7.79187-1.743774-2.627686-3.7005-5.223633-6.174011-7.235474-1.533767-1.260936-3.268338-2.297963-5.107806-2.953829-1.672396-.596296-3.1052-1.713882-3.981925-3.257847-.299193-.526898-.613945-1.04594-.947196-1.555169-1.295776-1.9823-2.809509-3.819458-4.579163-5.369995-.565283-.491699-1.158418-.950293-1.775365-1.371-2.006513-1.368276-3.531481-3.327651-4.596449-5.510338-.553655-1.134734-1.14491-2.238081-1.75227-3.310313-1.521174-2.664378-5.094081-8.822799-7.806918-13.849859-1.257048-2.32939,1.121291-4.937795,3.556435-3.900345,9.018057,3.841982,24.084316,10.253134,28.063044,13.506673,1.906677,1.523682,3.362427,3.141846,4.331604,5.257812,1.133545,2.511475,1.281006,4.916748,1.929871,8.022705.719482,4.881104,3.512878,10.69043,8.254395,13.259033l.019749.011063c1.17014.655512,1.845284,1.938405,1.710962,3.272902-.199084,1.977915-.363778,4.797158.014529,6.630463.576172,3.059448,1.883789,5.904297,2.983093,7.885132Z" fill="url(#radial-gradient)" stroke="#797e36" stroke-miterlimit="10" stroke-width=".5"/><circle cx="202.156571" cy="43.499944" r="22.444444" fill="#979b42"/></svg>