<?xml version="1.0" encoding="UTF-8"?><svg id="Layer_1" xmlns="http://www.w3.org/2000/svg" width="261.92803" height="314.26049" xmlns:xlink="http://www.w3.org/1999/xlink" viewBox="0 0 261.92803 314.26049"><defs><radialGradient id="radial-gradient" cx="132.98494" cy="216.15113" fx="132.98494" fy="216.15113" r="31.91722" gradientUnits="userSpaceOnUse"><stop offset="0" stop-color="#f1f7eb"/><stop offset=".19763" stop-color="#edf5e7"/><stop offset=".36977" stop-color="#e2f1dc"/><stop offset=".53249" stop-color="#d0e9ca"/><stop offset=".68935" stop-color="#b7deb1"/><stop offset=".84204" stop-color="#97d091"/><stop offset=".98967" stop-color="#70c06a"/><stop offset="1" stop-color="#6dbf67"/></radialGradient></defs><path d="M112.75197,6.49597h.00003c5.64684-1.25027,11.39884-1.99651,17.18552-2.22958l16.7858-.67609c14.36777-.5787,27.63706,7.5735,33.38086,20.50805l3.89597,8.77339-25.55768,96.49077-45.23818-18.70514-16.68132-79.47759c-2.35078-11.20019,4.85928-22.16645,16.22901-24.68381Z" fill="#cfecf8" stroke="#05415a" stroke-miterlimit="10" stroke-width="2.85864"/><path d="M249.35487,31.48109l-39.51489,99.02979-66.60225,166.93018-7.50406-156.05005-2.59468-54.04136c-.96279-20.05276,2.60215-40.03861,10.27994-57.63157l5.87854-13.47015c3.86037-8.84569,11.24784-14.30513,19.24331-14.24748.03326.00024.06601.00046.09823.00066,34.02935.15991,62.86609,12.44971,80.70793,29.47998h.00792Z" fill="#cfecf8" stroke="#05415a" stroke-miterlimit="10" stroke-width="4"/><path d="M9.35493,38.50212l43.00911,99.02979,65.18782,150.11104c2.01401,4.63776,8.01662,3.20295,8.28795-1.98108l7.18363-137.24983,2.94659-56.38489c.96793-18.52193-2.61604-36.98206-10.33481-53.23198l-9.36028-19.70571c-2.97324-6.2594-8.65661-10.13161-14.81469-10.09357l-4.25191.02626c-37.0385.15991-68.42522,12.44971-87.84479,29.47998h-.00862Z" fill="#cfecf8" stroke="#05415a" stroke-miterlimit="10" stroke-width="4"/><path d="M130.96857,299.71786c-.34539,8.58078-8.76023,14.54347-16.93647,11.91703-32.39866-10.40737-88.1638-45.33616-98.9264-103.79565-6.84443-37.17703,10.68708-41.52952,2.76144-87.9591C9.52196,70.99284-3.55089,59.70095,4.54583,42.82451c5.92114-12.34175,20.0286-19.4851,31.05677-20.65125,12.57768-1.33001,14.56824,5.81076,33.51929,10.04278,25.86123,5.77516,35.91928-4.44867,49.44847,5.3848.77455.56296,10.70254,8.07585,13.07259,20.71203,1.70027,9.06517-1.25898,17.1376-2.65453,20.94443-2.97796,8.12346-6.30832,10.20815-8.52579,19.51295-.71929,3.01815-1.56044,6.54771-1.3582,11.2123.5192,11.97474,7.16845,14.22078,6.11528,23.97993-.61531,5.70227-2.55297,11.4286-2.55301,11.42868-.74749,2.20915-1.63619,4.34801-1.93509,7.57466-.2865,3.09263.12722,5.38859.2497,6.17129,1.5641,9.994-2.79163,19.86074-10.71138,26.15558-8.52048,6.78018-14.15556,17.08393-14.64572,28.8137-.16824,4.02645.27926,7.92854,1.26584,11.62298,2.86249,10.77891,11.06282,18.12769,13.75606,20.74242.9196.88336,1.85563,1.69035,2.80463,2.42579,11.96751,9.27435,18.60372,23.84305,17.99477,38.9713l-.47695,11.84898Z" fill="#cfecf8" stroke="#05415a" stroke-miterlimit="10" stroke-width="4"/><circle cx="132.98494" cy="216.15113" r="31.91722" fill="url(#radial-gradient)" stroke="#134d26" stroke-miterlimit="10" stroke-width="1.7"/><path d="M238.14788,135.23669c-.03357-45.33325,30.47473-59.8689,19.33185-91.31909-4.52509-12.77173-15.9751-28.54517-29.48846-29.72632-9.78058-.85498-13.1781,6.58643-29.87903,7.98047-13.12976,1.0957-14.70477-3.19702-25.29926-.9231-12.55713,2.69482-20.66547,10.99756-25.09821,15.38989-5.0387,4.99292-11.21808,11.11597-12.98676,20.76587-1.66284,9.07202,1.32977,17.13232,2.74103,20.93335,3.01154,8.11108,6.35052,10.18213,8.60638,19.47754.11965.49299.24262.99963.36382,1.52268.00189.00817.0038.01645.00574.02485.40698,1.7696,1.44409,3.32467,2.93067,4.36735,2.08488,1.46232,4.23445,3.07146,6.42103,4.84098.05697.04609.11382.09219.17057.13828,5.8388,4.74273,7.47363,12.92709,4.1136,19.65727-3.37417,6.7585-2.15894,7.4146-1.98211,11.29893.22056,4.84415,2.48449,8.94851,5.09788,12.16916,1.649,2.03217,2.08262,4.77434,1.04821,7.17828-.62424,1.45072-1.17382,3.22621-1.40848,5.29026-.23146,2.03594-.10203,3.87349.17895,5.43333.46547,2.58406-1.35334,5.02188-3.95639,5.36563h-.00002c-4.50128.59443-6.07753,6.30624-2.5182,9.12511l.08508.06738c7.06238,7.01514,8.10211,12.35254,7.85632,15.82275-.5,7.06055-6.51434,9.11108-6.24823,16.08398.2644,6.93164,6.30365,7.41895,6.11169,14.38159-.19934,7.23047-6.91278,13.97656-7.84308,14.89185-.71173.69995-1.34027,1.23999-1.7771,1.59937-1.3927,1.14331-2.49841,1.79761-3.7019,2.72754-1.85327,1.43212-3.86253,3.26207-5.90608,5.64862-8.20962,9.58756-11.6828,22.35865-9.91734,34.85675l1.20032,8.49731c.38025,8.56592,8.80396,14.51001,16.95728,11.85596,28.05231-9.13086,60.17621-31.66138,69.10785-42.8103,10.42554-13.01367,26.22034-32.729,29.41693-61.40259,3.66083-32.83716-13.70923-36.98462-13.73456-71.21094Z" fill="#cfecf8" stroke="#05415a" stroke-miterlimit="10" stroke-width="4"/></svg>