<?xml version="1.0" encoding="UTF-8"?><svg id="a" xmlns="http://www.w3.org/2000/svg" width="456.194711" height="382.062822" viewBox="0 0 456.194711 382.062822"><path d="M287.39954,289.082383c0-17.952759-26.063049-32.506348-58.213379-32.506348s-58.213318,14.553589-58.213318,32.506348c0,13.356618,26.833681,25.381159,43.868849,30.66317,1.788071.554418,2.972545,2.366595,2.548441,4.189975-.141095.606621-.149931,1.264848.006091,1.945068.349744,1.524796,1.585129,2.765262,3.109823,3.115451,2.769322.636053,5.228087-1.450388,5.228087-4.111052,0-.163473-.009662-.324456-.028362-.48256-.115568-.977128.596696-1.844781,1.580322-1.819973.059129.001491.116343.00224.171611.00224l.042472-.000062c1.061921-.001543,1.802265.856299,1.703895,1.913655-.045773.492011-.005275,1.009809.138677,1.54083.396995,1.464468,1.614693,2.63262,3.09556,2.963228,2.758029.615738,5.200242-1.465623,5.200242-4.117359,0-.158332-.008769-.314553-.025842-.468229-.211025-1.899529,1.134769-3.631688,2.981878-4.122532,18.661958-4.959169,46.80495-17.370492,46.80495-31.211851Z" fill="#e6c9a8" stroke="#b28859" stroke-miterlimit="10" stroke-width="2"/><path d="M449.539311,164.221392c-2.412109-1.761719-8.936523-5.344727-17.801758-.986328-.240815.111738-.479361.224849-.715786.339172-1.612518.779732-3.522765-.164428-3.886409-1.918269l-.008972-.043271c-.070048-.335896.121562-.660286.450579-.757653.694872-.205636,1.40138-.455206,2.118596-.754745,11.193359-4.664062,17.398438-19.201172,13.549805-31.741211-3.357422-10.944336-12.911133-14.958984-28.745117-21.613281-6.336951-2.662827-10.958625-4.143931-14.3351-5.000652-2.533712-.642885-3.723419-3.53224-2.366745-5.766616,2.57441-4.23993,3.989852-9.200996,3.987001-14.231755l-.000977-.151367c-.208008-19.038086-15.799805-31.224609-30.323242-36.28125l-1.041016-.362305-1.083008-.203125c-6.962467-1.300105-13.163196-.107842-18.514319,2.169877-.171705.073086-.353027-.065957-.316732-.249005.491014-2.476381,2.707158-15.225106-1.96387-23.001927l-.496094-.825195-.598633-.751953c-4.912109-6.168945-12.942383-9.249023-22.041016-8.463867-1.481962.131142-2.936301.394377-4.357656.785629-1.576483.433953-3.21598-.312619-3.989846-1.753016-7.412943-13.797719-27.525823-14.280113-40.42502-10.932026-16.507916,3.101592-37.743243,22.931146-44.333283,29.893538-1.435164,1.516254-3.422073,2.374585-5.509828,2.374516h-.000007c-1.967269-.000065-3.836542-.962414-4.895264-2.620501-6.36559-9.969286-24.32033-23.508363-42.334922-26.893036-13.120965-3.405648-33.705784-2.847974-40.795863,11.655382-.533799,1.091931-1.810633,1.571306-2.973253,1.21695-1.625642-.495481-3.296165-.821846-5.003345-.972918-9.098633-.785156-17.128906,2.294922-22.041016,8.463867l-.598633.751953-.496094.825195c-4.59235,7.64583-2.527587,20.097482-1.990122,22.868096.046345.238909-.190568.424712-.414827.330194-5.322777-2.243378-11.481378-3.407281-18.389973-2.117235l-1.083008.203125-1.041016.362305c-14.523438,5.056641-30.115234,17.243164-30.323242,36.28125l-.000977.151367c-.003115,5.497373,1.687363,10.911527,4.732984,15.392426,1.096293,1.612932.23743,3.828154-1.664796,4.258202-3.465928.783564-8.487862,2.282918-15.783032,5.348395-15.833984,6.654297-25.387695,10.668945-28.745117,21.613281-3.848633,12.540039,2.356445,27.077148,13.549805,31.741211.376792.157364.75063.300937,1.121365.431548.870875.306814,1.406557,1.175761,1.263409,2.087938l-.006843.043604c-.200631,1.278476-1.586945,1.975214-2.740599,1.388839-.54832-.278698-1.107421-.551801-1.679324-.817164-8.865234-4.358398-15.389648-.775391-17.801758.986328-8.327148,6.079102-6.726562,15.853516-6.124023,19.533203.045898.279297.091797.544922.125.788086l.074219.480469c.229492,1.335938.472656,2.669922.71582,4.001953.948242,5.189453,1.84375,10.09082,1.62207,14.262695l-.008789.197266c-.046875,1.183594-.112305,2.375-.177734,3.570312-.477539,8.763672-1.069336,19.620117,4.685547,30.192383,1.788086,4.018555,4.06543,8.850586,8.490234,12.515625,2.724125,2.256574,6.72059,4.462231,12.108034,4.788291,1.271845.076975,1.737329,1.681124.695934,2.415297-2.39591,1.689089-4.5925,3.850526-6.352795,6.662623-2.389648,3.817383-4.782227,10.286133-2.610352,19.420898l.068359.275391c3.03125,11.733398,9.760742,20.149414,18.43457,23.844727-1.550781,3.209961-1.982422,6.833008-1.208008,10.432617l.525391,2.438477,1.302734,2.126953c3.049805,4.974609,6.96875,9.233398,10.758789,13.352539,1.896484,2.060547,3.69043,4.009766,5.181641,5.849609,6.719727,8.655273,14.088867,10.822266,19.101562,11.111328.799805.045898,1.584961.051758,2.351562.017578.111328,1.729492.46582,3.213867.857422,4.379883,3.359375,9.985352,12.666992,11.836914,19.461914,13.188477.724609.143555,1.496094.296875,2.31543.46582,4.75.980469,9.599609,2.1875,14.414062,3.589844l.00029.000084c2.363873.688022,4.863165.768272,7.266307.233315h.000005c.448242-.09961.884766-.211915,1.307617-.334962.273438.257812.555664.509766.849609.755859l.504883.421875.540039.375977c4.121094,2.862305,8.625977,3.732422,12.871094,3.732422,3.931641,0,7.640625-.745117,10.618164-1.34375,1.228516-.24707,2.387695-.479492,3.177734-.584961l1.166992-.203125c1.234375-.267578,2.643555-.489258,4.135742-.723633,4.010742-.630859,8.556641-1.345703,13.25-3.40332l1.071289-.523438c10.730469-5.791016,11.460938-18.158203,10.392578-29.09082l9.362305-9.635742c-.452148-.444336-1.46582-2.075195-2.136719-3.15332-1.662109-2.672852-3.717773-5.978516-6.897461-8.973633-8.476562-8.475586-16.242188-7.485352-20.138672-6.125-6.178711,2.15625-10.302734,7.664062-11.032227,14.733398l-.134766,1.30957.100586,1.313477c.056641.737305.144531,1.525391.253906,2.367188-5.912109-5.327148-13.243164-4.200195-15.761719-3.810547-.022461.00293-.044922.006836-.067383.009766l-.363281-.013672-1.15918.141602c-2.56543.3125-6.074219.740234-9.614258,1.966797,2.961914-6.212891,1.755859-13.805664-3.34375-18.806641-4.980469-4.883789-11.250977-7.676758-17.657227-7.866211-1.282227-.036133-2.585938.029297-3.881836.192383,1.151367-4.236328.688477-8.751953-1.326172-12.960938,3.983398,3.666016,8.802734,6.640625,15.005859,7.291992,4.384766.458008,11.085938-.189453,18.083008-5.905273l1.803711-1.472656,1.255859-1.959961c5.460938-8.514648,6.176758-18.084961,2.013672-26.947266-2.632812-5.605469-6.648438-9.929688-10.355469-13.731445,3.538086-3.06543,7.404297-7.152344,8.740234-13.240234l.506836-2.311523-.24707-2.353516c-.667969-6.34082-3.212891-10.458984-4.974609-12.939453.139648-.483398.338867-1.103516.625-1.880859l.15332-.439453c1.410156-4.248047,2.629883-6.998047,4.333984-9.768555.214844-.334961.448242-.689453.69043-1.057617,3.385742-5.15332,10.429688-15.875,4.852539-27.239258l-.342773-.698242-.415039-.658203c-3.152344-5-8.222656-8.079102-13.912109-8.447266-8.879883-.580078-15.449219,5.499023-18.675781,9.331055-1.064453,1.201172-2.165039,2.43457-3.276367,3.678711-2.994141,3.354492-6.089844,6.822266-8.8125,10.046875-3.911133,4.526367-6.538086,9.463867-8.857422,13.823242-.657242,1.234405-1.298859,2.440488-1.933606,3.565517l-.000205.00009c-2.4693-.599455-5.540689-1.376677-8.902127-1.546076-2.635742-.282227-5.110352-.15332-7.422852.25293.587891-.556641,1.15625-1.102539,1.704102-1.630859,1.173828-1.130859,2.283203-2.198242,3.296875-3.087891l.383789-.348633c1.736328-1.635742,3.55957-3.186523,5.490234-4.829102,7.005859-5.959961,14.947266-12.714844,19.207031-24.40625l.216797-.640625c1.009766-3.226562,1.063477-6.491211.234375-9.485352,1.680664-1.764648,3.004883-3.87793,3.860352-6.243164,2.173828-6.010742,1.087891-12.981445-2.835938-18.189453l-.15625-.204102c-4.852539-6.212891-11.326172-7.275391-15.194336-7.910156l-1.071289-.178711c-4.464844-.767578-9.733398-1.658203-14.982422-2.450195-.563477-.084961-1.079102-.166992-1.552734-.246094.333008-.050781.603516-.083008.825195-.110352l.275391-.033203c2.229492-.273438,4.749023-.205078,8.176758.229492l.12793.015625c.879883.103516,1.795898.24707,2.717773.388672,3.521484.541016,7.496094,1.151367,11.688477.672852,12.100586-1.023438,17.49707-10.864258,19.820312-15.101562.243164-.444336.482422-.883789.727539-1.306641,4.087891-6.419922,5.80957-15.930664,3.967773-24.288086,1.737305,1.480469,3.532227,2.980469,5.334961,4.444336l5.467583,4.367063c3.019336,2.411602,6.686014,3.873668,10.536323,4.201296l1.388672.118164,1.386719-.146484c5.381836-.569336,9.983398-3.556641,12.623047-8.196289,3.1875-5.599609,2.448242-11.604492,1.142578-15.989258.154297.033203.30957.06543.466797.09668,5.62207,1.086914,11.288086-.5,15.558594-4.359375l.250977-.233398c.677734-.641602,1.28418-1.316406,1.825195-2.016602-4.392578,14.52832-2.069336,29.879883,2.567383,37.337891,3.90918,6.289062,9.34082,7.830078,12.229492,8.189453l3.605469-29.027344c5.485352.681641,8.671875,4.364258,9.355469,6.041992-.514648-1.263611-1.105591-4.962585-.698303-9.18811.973083.242188,2.089988,5.236794,3.135276,5.236794l53.851852-.37037c2.165161,0,4.081903-5.034087,5.868158-6.003936.143494,3.527283-.358704,6.472107-.806335,7.571106.683594-1.677734,3.870117-5.360352,9.355469-6.041992l3.605469,29.027344c2.888672-.359375,8.320312-1.900391,12.229492-8.189453,4.636719-7.458008,6.959961-22.80957,2.567383-37.337891.541016.700195,1.147461,1.375,1.825195,2.016602l.250977.233398c4.270508,3.859375,9.936523,5.446289,15.558594,4.359375.157227-.03125.3125-.063477.466797-.09668-1.305664,4.384766-2.044922,10.389648,1.142578,15.989258,2.639648,4.639648,7.241211,7.626953,12.623108,8.196289l1.386719.146484,1.388672-.118164c3.850308-.327628,7.516986-1.789694,10.536323-4.201296l5.467583-4.367063c1.802734-1.463867,3.597656-2.963867,5.334961-4.444336-1.841797,8.357422-.120117,17.868164,3.967773,24.288086.245117.422852.484375.862305.727539,1.306641,2.323242,4.237305,7.719727,14.078125,19.820312,15.101562,4.192383.478516,8.166992-.131836,11.688477-.672852.921875-.141602,1.837891-.285156,2.717773-.388672l.12793-.015625c3.427734-.43457,5.947266-.50293,8.176758-.229492l.275391.033203c.22168.027344.492188.05957.825195.110352-.473633.079102-.989258.161133-1.552734.246094-5.249023.791992-10.517578,1.682617-14.982422,2.450195l-1.071289.178711c-3.868164.634766-10.341797,1.697266-15.194336,7.910156l-.15625.204102c-3.923828,5.208008-5.009766,12.178711-2.835938,18.189453.855469,2.365234,2.179688,4.478516,3.860352,6.243164-.829102,2.994141-.775391,6.258789.234375,9.485352l.216797.640625c4.259766,11.691406,12.201172,18.446289,19.207031,24.40625,1.930664,1.642578,3.753906,3.193359,5.490234,4.829102l.383789.348633c1.013672.889648,2.123047,1.957031,3.296875,3.087891.547852.52832,1.116211,1.074219,1.704102,1.630859-2.3125-.40625-4.787109-.535156-7.422852-.25293-3.361431.169398-6.432814.946618-8.902112,1.546071l-.000226-.000099c-.634745-1.125026-1.276359-2.331104-1.933599-3.565504-2.319336-4.359375-4.946289-9.296875-8.857422-13.823242-2.722656-3.224609-5.818359-6.692383-8.8125-10.046875-1.111328-1.244141-2.211914-2.477539-3.276367-3.678711-3.226562-3.832031-9.795898-9.911133-18.675781-9.331055-5.689453.368164-10.759766,3.447266-13.91217,8.447266l-.415039.658203-.342773.698242c-5.577148,11.364258,1.466858,22.085938,4.8526,27.239258.242188.368164.475586.722656.69043,1.057617,1.704102,2.770508,2.923828,5.520508,4.333984,9.768555l.15332.439453c.286133.777344.485352,1.397461.625,1.880859-1.761719,2.480469-4.306641,6.598633-4.974609,12.939453l-.24707,2.353516.506836,2.311523c1.335938,6.087891,5.202148,10.174805,8.740234,13.240234-3.707031,3.801758-7.722656,8.125977-10.355469,13.731445-4.163147,8.862305-3.447266,18.432617,2.013672,26.947266l1.255859,1.959961,1.803711,1.472656c6.99707,5.71582,13.698242,6.363281,18.083008,5.905273,6.203125-.651367,11.022461-3.625977,15.005859-7.291992-2.014648,4.208984-2.477539,8.724609-1.326172,12.960938-1.295898-.163086-2.599609-.228516-3.881836-.192383-6.40625.189453-12.676758,2.982422-17.657227,7.866211-5.099609,5.000977-6.305664,12.59375-3.34375,18.806641-3.540039-1.226562-7.048828-1.654297-9.614258-1.966797l-1.15918-.141602-.363281.013672c-.022461-.00293-.044922-.006836-.067383-.009766-2.518555-.389648-9.84967-1.516602-15.76178,3.810547.109375-.841797.197266-1.629883.253906-2.367188l.100586-1.313477-.134766-1.30957c-.729492-7.069336-4.853516-12.577148-11.032227-14.733398-3.896484-1.360352-11.662109-2.350586-20.138672,6.125-3.179688,2.995117-5.235352,6.300781-6.897461,8.973633-.670898,1.078125-1.68457,2.708984-2.136719,3.15332l9.362305,9.635742c-1.068359,10.932617-.337891,23.299805,10.392578,29.09082l1.071289.523438c4.693359,2.057617,9.239258,2.772461,13.25,3.40332,1.492188.234375,2.901367.456055,4.135742.723633l1.166992.203125c.790039.105469,1.949219.337891,3.177734.584961,2.977539.598633,6.686523,1.34375,10.618225,1.34375,4.245117,0,8.75-.870117,12.871094-3.732422l.540039-.375977.504883-.421875c.293945-.246094.576172-.498047.849609-.755859.422852.123047.859375.235352,1.307617.334961l1.487564.331143c1.427238.317714,2.911579.270053,4.315494-.138567l1.463543-.425974c4.814453-1.402344,9.664062-2.609375,14.414062-3.589844.819336-.168945,1.59082-.322266,2.31543-.46582,6.794922-1.351562,16.102539-3.203125,19.461914-13.188477.391602-1.166016.746094-2.650391.857422-4.379883.766602.03418,1.551758.02832,2.351562-.017578,5.012695-.289062,12.381836-2.456055,19.101562-11.111328,1.491211-1.839844,3.285156-3.789062,5.181641-5.849609,3.790039-4.119141,7.708984-8.37793,10.758789-13.352539l1.302734-2.126953.525391-2.438477c.612855-2.848653.470381-5.711985-.384361-8.373632-.386557-1.203731.203922-2.489769,1.317669-3.08807,7.635781-4.101912,13.516349-12.06676,16.293255-22.815642l.068359-.275391c2.171875-9.134766-.220703-15.603516-2.610352-19.420898-2.691861-4.300287-6.403988-7.079014-10.288974-8.973887l.086214-.270584c7.741107.998202,13.212705-1.771143,16.653932-4.62174,4.424805-3.665039,6.702148-8.49707,8.490234-12.515625,5.754883-10.572266,5.163086-21.428711,4.685547-30.192383-.06543-1.195312-.130859-2.386719-.177734-3.570312l-.008789-.197266c-.22168-4.171875.673828-9.073242,1.62207-14.262695.243164-1.332031.486328-2.666016.71582-4.001953l.074219-.480469c.033203-.243164.079102-.508789.125-.788086.602539-3.679688,2.203125-13.454102-6.124023-19.533203ZM33.704228,226.801103l-.349609-.610352c-1.067383-1.861328-1.44043-4.366211-1.501953-7.303711,1.513672,1.616211,5.040039,4.629883,10.588867,5.128906-2.587891,1.019531-5.481445,1.894531-8.737305,2.785156ZM66.167119,270.52376c.032227-.084961.063477-.169922.094727-.253906,2.921875,6,8.554688,9.905273,16.749023,11.608398l.575195.120117c1.380859,1.107422,3.792969,4.09668,5.350586,6.036133-8.970703-5.916016-21.079102-5.586914-30.395508-5.333008-2.647461.072266-5.385742.147461-6.916992.018555l-1.458008-.12207-.265625.03125c-.037109-.056641-.075195-.116211-.114258-.178711.652344-.152344,1.292969-.294922,1.853516-.418945l1.28418-.302734c8.708984-2.374023,12.035156-8.039062,13.243164-11.205078ZM92.46497,76.428057c.132812-.057617.266602-.114258.401367-.170898.142578.021484.292969.054688.449219.099609-.286133.018555-.569336.041992-.850586.071289ZM182.441533,49.607744c-.323242.875-.643555,1.745117-.943359,2.610352-1.392578,4.006836-2.558594,5.647461-4.324219,8.130859-1.140625,1.605469-2.433594,3.423828-3.724609,5.753906.859375-5.229492.004883-10.337891-.694336-13.257812-1.266602-6.22168-2.980469-13.541016-4.847656-20.703125,1.614258.121094,3.255859.360352,4.578125.724609l.703125.193359.717773.123047c3.745117.641602,5.370117,1.717773,10.009766,11.931641-.208008,1.066406-.956055,3.091797-1.474609,4.493164ZM283.439641,50.090532c-.699219,2.919922-1.553711,8.02832-.694336,13.257812-1.291016-2.330078-2.583984-4.148438-3.724609-5.753906-1.765625-2.483398-2.931641-4.124023-4.324219-8.130859-.299805-.865234-.620117-1.735352-.943359-2.610352-.518555-1.401367-1.266602-3.426758-1.474609-4.493164,4.639648-10.213867,6.264648-11.290039,10.009766-11.931641l.717773-.123047.703125-.193359c1.322266-.364258,2.963867-.603516,4.578125-.724609-1.867188,7.162109-3.581055,14.481445-4.847656,20.703125ZM362.879155,73.602251c.15625-.044922.306641-.078125.449219-.099609.134766.056641.268555.113281.401367.170898-.28125-.029297-.564453-.052734-.850586-.071289ZM406.294194,279.874712l-.265625-.03125-1.458008.12207c-1.53125.128906-4.269531.053711-6.916992-.018555-9.316406-.253906-21.424805-.583008-30.395508,5.333008,1.557617-1.939453,3.969727-4.928711,5.350586-6.036133l.575195-.120117c8.194336-1.703125,13.827148-5.608398,16.749023-11.608398.03125.083984.0625.168945.094727.253906,1.208008,3.166016,4.53418,8.831055,13.243164,11.205078l1.28418.302734c.560547.124023,1.201172.266602,1.853516.418945-.039062.0625-.077148.12207-.114258.178711ZM422.840092,223.436235l-.349609.610352c-3.255859-.890625-6.149414-1.765625-8.737305-2.785156,5.548828-.499023,9.075195-3.512695,10.588867-5.128906-.061523,2.9375-.43457,5.442383-1.501953,7.303711Z" fill="#8f632e"/><path d="M434.4925,195.858156c-1.839966.890015-3.780029,1.690063-5.819946,2.25-1.390137.420044-2.810059.660034-4.170044.800049-.900024.099976-1.440063,1.050049-1.040039,1.859985l.02002.039917q0,.01001.01001.02002c5,8.710083,3.140015,13.820068.690063,16.570068-1.820068,2.040039-6.02002,4.98999-13.710083,1.699951l-.170044-.069946c-5.329956-2.420044-9.52002-6.460083-13.219971-10.02002-1.22998-1.180054-2.389893-2.299927-3.530029-3.299927l-.199951-.180054c-1.859985-1.76001-3.840088-3.440063-5.75-5.059937-6.679932-5.680054-13.590088-11.560059-17.23999-21.580078l-.109985-.339966c-3.829956-13.380005-3.530029-12.569946-4.190063-16.01001-.780029-4.059937-.689941-8.420044,1.880127-11.829956l.079834-.120117c3.230103-4.129883,7.530029-4.829956,10.980103-5.399902.559937-.090088,1.160034-.190063,1.819946-.310059,4.860107-.890015,8.900024-1.560059,12.719971-2.099976,6.390137-.900024,8.420044-1.579956,9.630127-1.98999,1.699951-.579956,3.22998-1.02002,6.069946-1.040039h.219971c5.589966,0,9.829956,1.559937,12.980103,3.059937.449951.220093,1.22998.610107,1.939941.980103.889893.459961,1.969971-.099976,2.099976-1.089966v-.27002c0-.850098-.440063-1.640015-1.160034-2.090088-.22998-.149902-.48999-.309937-.77002-.469971-3.01001-1.72998-8.619873-4.089966-14.099976-6.389893-9.440063-3.970093-13.170044-4.420166-14.959961-4.630127l-.27002-.040039c-2.799927-.339844-5.839966-.269897-9.839966.230103-1.02002.130005-2.02002.279907-3.02002.430054-3.130005.47998-6.660034,1.029907-10,.629883-8.560059-.669922-12.310059-7.52002-14.570068-11.629883-.289917-.540039-.589966-1.070068-.889893-1.580078-1.910034-2.959961-3.170044-6.900024-3.540039-11.130005-.530029-5.910034,2.050049-11.48999,6.890015-14.940063,4.880005-3.469971,11.039917-4.079956,16.48999-1.639893l.459961.199951c1.559937.709961,4.099976,1.850098,5.200073,1.929932l.059937-.059937.25-.269897c.730103-.76001,1.23999-2.090088,1.23999-3.230103-.069946-6.349976-6.190063-10.72998-9.829956-12.769897-4.02002-2.26001-8.820068-2.240112-12.530029.059937-2.839966,1.769897-5.719971,4.339966-8.199951,6.609985-3.959961,3.580078-9.860107,8.849976-15.800049,13.679932l-1.040039.830078c-4.139893,3.310059-7.409912,5.919922-11.280029,6.25l-.75.060059-.75-.080078c-3.189941-.330078-5.909912-2.089966-7.459961-4.820068-2.179932-3.829956-1.800049-8.659912,1.199951-15.199951,1.900146-4.030029,4.630127-7.189941,7.040039-9.969971,1.02002-1.179932,1.97998-2.290039,2.790039-3.359985l.219971-.280029c2.530029-3.039917,3.300049-7.599976,4.199951-12.880005l.25-1.439941c.060059-.360107.100098-.73999.150146-1.110107.23999-1.889893.639893-3.679932,1.02002-5.399902.289917-1.330078.569946-2.570068.73999-3.709961.129883-.860107-.320068-1.440063-.51001-1.660156-.370117-.389893-.800049-.569946-1.320068-.529907h-.040039c-1.530029.160034-4.219971,2.650024-6.47998,7.109985-1.189941,2.349976-1.869995,5.109985-2.589966,8.030029-.869995,3.48999-1.849976,7.449951-3.859985,11.290039-2.040039,4.129883-6.140015,8.879883-11.580078,9.929932-3.51001.679932-7.059937-.320068-9.73999-2.73999l-.129883-.119995c-5.370117-5.079956-3.910156-14.130005-2.970093-17.98999,1.26001-6.23999,3-13.650024,4.890015-20.869995.25-1,.540039-2.060059.840088-3.130005,0-.01001.01001-.02002.01001-.040039.659912-2.389954-1.050049-4.789978-3.540039-4.919983-3.160034-.159973-7.110107.119995-10.320068,1.01001l-.77002.169983c-7.719971,1.330017-10.550049,5.930054-15.149902,16.099976l-.110107.219971c-.98999,2.030029-.059937,4.780029,1.540039,9.100098.300049.829956.609985,1.659912.890015,2.48999,1.710083,4.909912,3.329956,7.189941,5.200073,9.819946,1.939941,2.730103,4.139893,5.829956,5.98999,11.130005,4.339844,12.47998,2.719971,27.140015-1.27002,33.560059-2.310059,3.709961-5.26001,4.800049-7.330078,5.059937-8.72998,1.089966-12.419922-9.48999-14.639893-15.809937l-.130127-.430054c-.839966-2.930054-2.709961-5.25-4.540039-5.630005-1.339844-.280029-3.449951.600098-5.679932,1.550049l-.48999.199951c-.380005.160034-.649902.290039-.849976.390015-.119995.059937-.200073.180054-.220093.309937-.029907.26001-.069946.650146-.079834,1.210083-.212036,5.723083-.507385,15.351135-.779175,24.060547h-37.987183c-.27179-8.709167-.567078-18.336609-.779114-24.059387-.009888-.559937-.049927-.950073-.079834-1.210083-.02002-.129883-.100098-.25-.220093-.309937-.200073-.099976-.469971-.22998-.849976-.390015l-.48999-.199951c-2.22998-.949951-4.340088-1.830078-5.679932-1.550049-1.830078.380005-3.700073,2.699951-4.540039,5.630005l-.130127.430054c-2.219971,6.319946-5.909912,16.899902-14.639893,15.809937-2.070068-.259888-5.02002-1.349976-7.330078-5.059937-3.98999-6.420044-5.609863-21.080078-1.27002-33.560059,1.850098-5.300049,4.050049-8.399902,5.98999-11.130005,1.870117-2.630005,3.48999-4.910034,5.200073-9.819946.280029-.830078.589966-1.660034.890015-2.48999,1.599976-4.320068,2.530029-7.070068,1.540039-9.100098l-.110107-.219971c-4.599854-10.169922-7.429932-14.769958-15.149902-16.099976l-.77002-.169983c-3.209961-.890015-7.160034-1.169983-10.320068-1.01001-2.48999.130005-4.199951,2.530029-3.540039,4.919983,0,.02002.01001.030029.01001.040039.300049,1.069946.590088,2.130005.840088,3.130005,1.890015,7.219971,3.630005,14.630005,4.890015,20.869995.940063,3.859985,2.400024,12.910034-2.970093,17.98999l-.129883.119995c-2.680054,2.419922-6.22998,3.419922-9.73999,2.73999-5.440063-1.050049-9.540039-5.800049-11.580078-9.929932-2.01001-3.840088-2.98999-7.800049-3.859985-11.290039-.719971-2.920044-1.400024-5.680054-2.589966-8.030029-2.26001-4.459961-4.949951-6.949951-6.47998-7.109985h-.040039c-.52002-.040039-.949951.140015-1.320068.529907-.189941.220093-.639893.800049-.51001,1.660156.170044,1.139893.450073,2.379883.73999,3.709961.380127,1.719971.780029,3.51001,1.02002,5.399902.050049.370117.090088.75.150146,1.110107l.25,1.439941c.899902,5.280029,1.669922,9.840088,4.199951,12.880005l.219971.280029c.810059,1.069946,1.77002,2.180054,2.790039,3.359985,2.409912,2.780029,5.139893,5.939941,7.040039,9.969971,3,6.540039,3.379883,11.369995,1.199951,15.199951-1.550049,2.730103-4.27002,4.48999-7.459961,4.820068l-.75.080078-.75-.060059c-3.870117-.330078-7.140137-2.939941-11.280029-6.25l-1.040039-.830078c-5.939941-4.829956-11.840088-10.099854-15.800049-13.679932-2.47998-2.27002-5.359985-4.840088-8.199951-6.609985-3.709961-2.300049-8.51001-2.319946-12.530029-.059937-3.639893,2.039917-9.76001,6.419922-9.829956,12.769897,0,1.140015.509888,2.470093,1.23999,3.230103l.25.269897.059937.059937c1.100098-.079834,3.640137-1.219971,5.200073-1.929932l.459961-.199951c5.450073-2.440063,11.609985-1.830078,16.48999,1.639893,4.839966,3.450073,7.420044,9.030029,6.890015,14.940063-.369995,4.22998-1.630005,8.170044-3.540039,11.130005-.299927.51001-.599976,1.040039-.889893,1.580078-2.26001,4.109863-6.01001,10.959961-14.570068,11.629883-3.339966.400024-6.869995-.149902-10-.629883-1-.150146-2-.300049-3.02002-.430054-4-.5-7.040039-.569946-9.839966-.230103l-.27002.040039c-1.789917.209961-5.519897.660034-14.959961,4.630127-5.480103,2.299927-11.089966,4.659912-14.099976,6.389893-.280029.160034-.540039.320068-.77002.469971-.719971.450073-1.160034,1.23999-1.160034,2.090088v.27002c.130005.98999,1.210083,1.549927,2.099976,1.089966.709961-.369995,1.48999-.76001,1.939941-.980103,3.150146-1.5,7.390137-3.059937,12.980103-3.059937h.219971c2.839966.02002,4.369995.460083,6.069946,1.040039,1.210083.410034,3.23999,1.089966,9.630127,1.98999,3.819946.539917,7.859863,1.209961,12.719971,2.099976.659912.119995,1.26001.219971,1.819946.310059,3.450073.569946,7.75,1.27002,10.980103,5.399902l.079834.120117c2.570068,3.409912,2.660156,7.77002,1.880127,11.829956-.660034,3.440063-.360107,2.630005-4.190063,16.01001l-.109985.339966c-3.649902,10.02002-10.560059,15.900024-17.23999,21.580078-1.909912,1.619873-3.890015,3.299927-5.75,5.059937l-.199951.180054c-1.140137,1-2.300049,2.119873-3.530029,3.299927-3.699951,3.559937-7.890015,7.599976-13.219971,10.02002l-.170044.069946c-7.690063,3.290039-11.890015.340088-13.710083-1.699951-2.449951-2.75-4.309937-7.859985.690063-16.570068q.01001-.01001.01001-.02002l.02002-.039917c.400024-.809937-.140015-1.76001-1.040039-1.859985-1.359985-.140015-2.779907-.380005-4.170044-.800049-2.039917-.559937-3.97998-1.359985-5.819946-2.25-.880005-.419922-1.869995.290039-1.719971,1.26001.670044,4.300049,1.130005,8.709961.890015,13.290039-.050049,1.280029-.120117,2.570068-.189941,3.859985-.360107,6.670044-.710083,12.969971,1.809937,17.890015l.099976.189941c.359985.700073.719971,1.410034,1.030029,2.120117.689941,1.529907,1.25,2.639893,1.659912,3.309937.090088.150024.27002.219971.440063.180054.279907-.070068.640015-.170044,1.099976-.330078l.590088-.169922c8.679932-2.280029,15.25-4.200073,20.859863-8.150146l.380127-.25c.530029-.319946,1.049927-.659912,1.589966-1,4.640015-2.949951,10.959961-6.97998,18.72998-6.069946,2.650024.099976,5.22998.730103,7.52002,1.290039,1.48999.359985,3.829956.920044,5.039917.930054.130127,0,.23999-.060059.320068-.170044,1.560059-2.200073,2.969971-4.849976,4.459961-7.640015,2.26001-4.25,4.600098-8.650024,8.02002-12.599976,2.669922-3.160034,5.73999-6.599976,8.709961-9.930054,1.140137-1.280029,2.27002-2.540039,3.360107-3.77002,2.369873-2.839966,7.179932-7.399902,13.129883-7.01001,3.560059.22998,6.620117,2.120117,8.640137,5.310059l.409912.72998c3.880005,7.910034-1.330078,15.830078-4.439941,20.560059-.27002.409912-.530029.799927-.76001,1.179932-2,3.22998-3.449951,6.47998-5.030029,11.22998l-.080078.22998c-1.909912,5.200073-1.389893,5.920044-.669922,6.920044,5.399902,7.440063,4.130005,17.859985-2.869995,23.720093-.450073.379883-.910034.76001-1.369995,1.129883-.840088.680054-2.050049,1.670044-2.910034,2.51001-.160034.140015-.170044.380005-.029907.540039,1.099854,1.27002,2.419922,2.609985,3.799927,4.02002,6.23999,6.369995,14.779907,15.099976,11.219971,27.179932-1.599976,5.440063-5.619995,9.75-10.73999,11.530029-11.619995,4.030029-19.390015-5.640015-25.049927-12.699951-2.680054-3.320068-6.719971-8.350098-8.969971-8.540039l-.480103-.040039-.47998-.099976c-2.289917-.469971-9.22998-1.910034-12.140015-8.130005-1.98999-4.23999-1.109985-8.439941.410034-12.109985.180054-.420044.359985-.839966.549927-1.25.560059-1.209961-.27002-2.599976-1.599976-2.670044-1.029907-.049927-2.109985-.109863-2.779907-.139893-2.23999-.090088-4.420044-.130127-6.410156-.040039h-.049927c-1.809937.22998-3.829956,1.060059-5.269897,1.909912-.780029.460083-.900146,1.350098-.26001,1.98999,1.549927,2.390137,3.709961,5.710083,3.709961,9.580078,0,1.189941-.199951,2.429932-.690063,3.709961-.920044,2.410034-3.170044,5.590088-8.709961,7.100098l-.970093.22998c-1.699951.379883-4.629883,1.030029-6.619873,1.76001-1.330078.48999-2.120117,1.889893-1.800049,3.27002,0,.02002.01001.029907.01001.049927,1.419922,5.380005,4.199951,7.98999,9.560059,8.930054.02002.01001.039917.01001.059937.01001,1.880005.139893,4.529907.059937,7.339966-.02002,9.680054-.26001,21.72998-.590088,28.880005,6.129883,1.349976,1.27002,2.420044,2.720093,3.170044,4.320068,1.679932,3.550049,1.560059,7.369995-.340088,10.47998-4.119873,6.75-14.039917,7.080078-24.529907,7.430054-.440063.01001-.900024.029907-1.380005.039917-1.110107.040039-1.679932,1.360107-.939941,2.180054.879883.98999,1.809937,1.98999,2.73999,3.01001,2.099854,2.280029,4.27002,4.630005,6.23999,7.079956l.109863.140015c.160156.210083.320068.410034.470093.589966,1.209961,1.440063,3.339966,1.650146,4.809937.48999,2.160034-1.699951,4.850098-4.469971,6.130127-5.779907.649902-.670044,1.299927-1.339966,1.97998-2.030029,2.22998-2.219971,5.329956-4.930054,9.569946-6.26001,2-.630005,4.140015-.930054,6.190063-.869995,1.909912.050049,3.809937.429932,5.639893,1.100098,4,1.469971,7.070068,4.809937,8.22998,8.929932,1.160034,4.159912.26001,8.659912-2.419922,12.030029-1.600098,2.01001-3.26001,4.049927-4.939941,6.059937-1.030029,1.220093-2.070068,2.450073-3.130127,3.670044-.119873.149902-.25.290039-.369873.429932-.950073,1.110107-.360107,2.830078,1.069946,3.120117.039917.01001.079956.019897.119995.029907,1.139893.26001,2.280029.51001,3.419922.790039,3,.709961,6.040039-.48999,7.390137-2.930054.799927-1.439941,1.76001-2.679932,2.869873-3.699951,3.450073-3.340088,8.660034-4.23999,13.300049-4.820068.419922-.049927.849976-.079956,1.27002-.099976h.159912c.26001-.019897.540039-.079956.830078-.119995l.290039-.040039c3.209961-.48999,6.530029.540039,8.689941,2.960083,3.189941,3.559937,3.300049,8.529907.810059,12.079956-.200073.290039-1.25,1.340088-2.02002,2.100098-.25.25-.030029.669922.319946.599854,1.190063-.22998,3.01001-.579956,3.950073-.709961,1.75-.369995,3.449951-.639893,5.099976-.899902,2.049927-.320068,4.009888-.630127,5.699951-1.090088.160034-.040039.280029-.169922.300049-.329956.469971-3.710083-.730103-11.670044-1.220093-14.910034-.329956-2.169922-.609863-4.040039-.719971-5.5l-.050049-.709961.070068-.709961c.650024-6.340088,4.790039-8.440063,6.540039-9.050049,4.26001-1.48999,8.709961.060059,13.219971,4.599976,2.580078,2.410034,4.320068,5.210083,5.859985,7.690063,1.099976,1.76001,2.130005,3.419922,3.099976,4.359863.890137.850098,4.72998.360107,7.560059-1.719971.02002-.01001.040039-.030029.060059-.039917,4.48999-4.069946,7.119873-9.390015,8.01001-16.280029l.039917-.25c.650024-4.01001,1.359985-7.950073,2.849976-11.930054,1.310059-3.609863,3.350098-7.22998,5.890015-10.469971.98999-1.319946,1.930054-2.419922,2.76001-3.380005.430054-.509888.970093-1.130005,1.349976-1.640015.100098-.119873.110107-.290039.050049-.429932-.160034-.410034-.310059-.709961-.429932-.910034-1.640137.26001-5.01001,1.930054-7.110107,2.970093-3.72998,1.839844-7.579956,3.73999-11.709961,4.419922-4.459961.919922-12.570068.530029-17.600098-4.23999-3.019897-2.880005-4.329834-6.890015-3.609863-11l.280029-1.570068c.019897-.059937.039917-.119873.069824-.159912l.900146-1.330078c2.631958-3.871033,6.194763-5.760925,9.260559-7.025024v8.657593h105.980225l.254395,1.426331c.719971,4.109985-.589966,8.119995-3.609863,11-5.030029,4.77002-13.140137,5.159912-17.600098,4.23999-4.130005-.679932-7.97998-2.580078-11.709961-4.419922-2.100098-1.040039-5.469971-2.710083-7.110107-2.970093-.119873.200073-.269897.5-.429932.910034-.060059.139893-.050049.310059.050049.429932.379883.51001.919922,1.130127,1.349976,1.640015.829956.960083,1.77002,2.060059,2.76001,3.380005,2.539917,3.23999,4.579956,6.860107,5.890015,10.469971,1.48999,3.97998,2.199951,7.920044,2.849976,11.930054l.039917.25c.890137,6.890015,3.52002,12.210083,8.01001,16.280029.02002.009888.040039.029907.060059.039917,2.830078,2.080078,6.669922,2.570068,7.560059,1.719971.969971-.939941,2-2.599854,3.099976-4.359863,1.539917-2.47998,3.279907-5.280029,5.859985-7.690063,4.51001-4.539917,8.959961-6.089966,13.219971-4.599976,1.75.609985,5.890015,2.709961,6.540039,9.050049l.070068.709961-.050049.709961c-.110107,1.459961-.390015,3.330078-.719971,5.5-.48999,3.23999-1.690063,11.199951-1.220093,14.910034.02002.160034.140015.289917.300049.329956,1.690063.459961,3.650024.77002,5.699951,1.090088,1.650024.26001,3.349976.529907,5.099976.899902.940063.130005,2.76001.47998,3.950073.709961.349976.070068.569946-.349854.319946-.599854-.77002-.76001-1.819946-1.810059-2.02002-2.100098-2.48999-3.550049-2.379883-8.52002.810059-12.079956,2.159912-2.420044,5.47998-3.450073,8.689941-2.960083l.290039.040039c.290039.040039.570068.100098.830078.119995h.159912c.420044.02002.850098.050049,1.27002.099976,4.640015.580078,9.849976,1.47998,13.300049,4.820068,1.109863,1.02002,2.069946,2.26001,2.869873,3.699951,1.350098,2.440063,4.390137,3.640015,7.390137,2.930054,1.139893-.280029,2.280029-.530029,3.419922-.790039.040039-.01001.080078-.019897.119995-.029907,1.430054-.290039,2.02002-2.01001,1.069946-3.120117-.119873-.139893-.25-.280029-.369873-.429932-1.060059-1.219971-2.100098-2.449951-3.130127-3.670044-1.679932-2.01001-3.339844-4.049927-4.939941-6.059937-2.679932-3.370117-3.579956-7.870117-2.419922-12.030029,1.159912-4.119995,4.22998-7.459961,8.22998-8.929932,1.829956-.670166,3.72998-1.050049,5.639893-1.100098,2.050049-.060059,4.190063.23999,6.190063.869995,4.23999,1.329956,7.339966,4.040039,9.569946,6.26001.680054.690063,1.330078,1.359985,1.97998,2.030029,1.280029,1.309937,3.970093,4.079956,6.130127,5.779907,1.469971,1.160156,3.599976.950073,4.809937-.48999.150024-.179932.309937-.379883.470093-.589966l.109863-.140015c1.969971-2.449951,4.140137-4.799927,6.23999-7.079956.930054-1.02002,1.860107-2.02002,2.73999-3.01001.73999-.819946.170166-2.140015-.939941-2.180054-.47998-.01001-.939941-.029907-1.380005-.039917-10.48999-.349976-20.410034-.680054-24.529907-7.430054-1.900146-3.109985-2.02002-6.929932-.340088-10.47998.75-1.599976,1.820068-3.050049,3.170044-4.320068,7.150024-6.719971,19.199951-6.389893,28.880005-6.129883,2.810059.079956,5.459961.159912,7.339966.02002.02002,0,.039917,0,.059937-.01001,5.360107-.940063,8.140137-3.550049,9.560059-8.930054,0-.02002.01001-.029907.01001-.049927.320068-1.380127-.469971-2.780029-1.800049-3.27002-1.98999-.72998-4.919922-1.380127-6.619873-1.76001l-.970093-.22998c-5.539917-1.51001-7.789917-4.690063-8.709961-7.100098-.490112-1.280029-.690063-2.52002-.690063-3.709961,0-3.869995,2.160034-7.189941,3.709961-9.580078.640137-.639893.52002-1.529907-.26001-1.98999-1.439941-.849854-3.459961-1.679932-5.269897-1.909912h-.049927c-1.990112-.090088-4.170166-.050049-6.410156.040039-.669922.030029-1.75.089966-2.779907.139893-1.329956.070068-2.160034,1.460083-1.599976,2.670044.189941.410034.369873.829956.549927,1.25,1.52002,3.670044,2.400024,7.869995.410034,12.109985-2.910034,6.219971-9.850098,7.660034-12.140015,8.130005l-.47998.099976-.480103.040039c-2.25.189941-6.289917,5.219971-8.969971,8.540039-5.659912,7.059937-13.429932,16.72998-25.049927,12.699951-5.119995-1.780029-9.140015-6.089966-10.73999-11.530029-3.559937-12.079956,4.97998-20.809937,11.219971-27.179932,1.380005-1.410034,2.700073-2.75,3.799927-4.02002.140137-.160034.130127-.400024-.029907-.540039-.859985-.839966-2.069946-1.829956-2.910034-2.51001-.459961-.369873-.919922-.75-1.369995-1.129883-7-5.860107-8.269897-16.280029-2.869995-23.720093.719971-1,1.23999-1.719971-.669922-6.920044l-.080078-.22998c-1.580078-4.75-3.030029-8-5.030029-11.22998-.22998-.380005-.48999-.77002-.76001-1.179932-3.109863-4.72998-8.319946-12.650024-4.439941-20.560059l.409912-.72998c2.02002-3.189941,5.080078-5.080078,8.640137-5.310059,5.949951-.389893,10.76001,4.170044,13.129883,7.01001,1.090088,1.22998,2.219971,2.48999,3.360107,3.77002,2.969971,3.330078,6.040039,6.77002,8.709961,9.930054,3.419922,3.949951,5.76001,8.349976,8.02002,12.599976,1.48999,2.790039,2.899902,5.439941,4.459961,7.640015.080078.109985.189941.170044.320068.170044,1.209961-.01001,3.549927-.570068,5.039917-.930054,2.290039-.559937,4.869995-1.190063,7.52002-1.290039,7.77002-.910034,14.089966,3.119995,18.72998,6.069946.540039.340088,1.059937.680054,1.589966,1l.380127.25c5.609863,3.950073,12.179932,5.870117,20.859863,8.150146l.590088.169922c.459961.160034.820068.26001,1.099976.330078.170044.039917.349976-.030029.440063-.180054.409912-.670044.969971-1.780029,1.659912-3.309937.310059-.710083.670044-1.420044,1.030029-2.120117l.099976-.189941c2.52002-4.920044,2.170044-11.219971,1.809937-17.890015-.069824-1.289917-.139893-2.579956-.189941-3.859985-.23999-4.580078.219971-8.98999.890015-13.290039.150024-.969971-.839966-1.679932-1.719971-1.26001Z" fill="#e6c9a8" stroke="#e6caa8" stroke-miterlimit="10" stroke-width="8"/><path d="M266.29018,158.384007c-4.561974,4.885619-11.562798,14.43437-7.406537,18.315302s16.148148.801084,21.185185-5.124842c6.008822-7.069202,6.67478-12.415364,2.518519-16.296296s-11.735193-1.779782-16.297167,3.105836Z" fill="#c18e5b"/><path d="M259.766006,126.494951c-.253113-.085516-.536499.027116-.632935.25157-1.004822,2.319065-3.054321,4.116534-5.446838,5.115777-3.63562,1.550933-7.748901,1.327778-11.318054-.069225-1.49353-.522624-3.043762-.925147-4.489807-1.278633-1.028417-.267012-2.996151-.581393-3.862935-.902379-.9028-.334323-4.829237-3.448561-4.374968-6.73207,1.008486-7.289438.528516-15.166763.718311-19.894753.071613-2.36756.493754-4.433539,1.297211-6.23591.956689-2.146111-.754409-4.476332-3.356774-4.476332h-.370872c-2.602372,0-4.313466,2.33023-3.356769,4.476343.803462,1.802368,1.225602,3.868344,1.297214,6.235899.175197,4.365654.420046,11.373924.659015,18.201497.062818,1.794766-.402066,3.579547-1.397973,5.142987-.053365.083776-.091927.139574-.110713.15868-1.778687,2.049201-3.402588,3.797525-5.462158,5.150796-6.3078,4.559325-16.909973,4.286268-20.34967-3.131309-.21228-.489013-1.047241-.275926-.939697.237876,1.283081,5.763862,8.00885,9.525232,14.497437,9.604957,4.209595.115279,8.460546-.989525,12.304714-2.669093,1.43651-.62763,3.078635-.763644,4.605766-.336177.900487.25206,1.843174.489479,2.406171.558742,3.188837.428275,5.675202.109417,8.527234.3204.644445.047674,1.289679.081184,1.936044.063194,4.467212-.124333,9.002593-.210439,12.472574-2.505321,2.56427-1.682509,4.468384-4.127359,5.055237-6.797907.04425-.203507-.080872-.413293-.306763-.489609Z" fill="#8f632e"/><path d="M188.267051,159.59713c4.561974,4.885619,11.562798,14.43437,7.406537,18.315302s-16.148148.801084-21.185185-5.124842c-6.008822-7.069202-6.67478-12.415364-2.518519-16.296296s11.735193-1.779782,16.297167,3.105836Z" fill="#c18e5b"/><path d="M262.561197,226.722031c-1.538829,6.50995-3.547415,12.38612-5.858588,17.643985-10.562942,24.030449-27.44643,35.145489-34.691055,34.822401-5.747689-.256329-20.42011-19.333435-30.358658-40.599515-6.015133-12.870923-10.296218-26.543681-9.815136-37.330995.825442-18.508921,21.902798-25.594601,28.468744-18.50723,2.394459,3.319598,5.087156,7.135805,7.751066,8.678148,2.976621,1.713088,5.437935,4.656943,7.160282,8.234018.321145.65427.621769,1.320698.911234,2.012695l.209405.466501c-.770753,2.917295-1.454928,8.607253-1.746738,15.150516-.427257,9.580403,2.127301-.533266,1.620641,4.793109-.107006,1.124927,1.249525,4.989126,1.676782-4.591276.292392-6.55631-1.042098-12.391073-1.550685-15.352349-.119004-.697548.088428-1.793976.376663-2.42107l.976156-2.713563c1.76935-3.760859,5.503687-3.388445,8.764582-4.457629,2.40717-.780747,5.019668-3.47226,7.465258-6.236503,21.452921-29.314861,23.392319,20.304484,18.640049,40.408757Z" fill="#c18e5b"/><path d="M227.487635,258.834559c2.187237,8.168672,3.416504,16.912085-3.753319,17.059303-8.563955.175843-3.980159-13.110039-3.911381-16.848795.158149-8.596948,1.231097-11.861999,3.320983-11.904911s2.184565,3.630624,4.343716,11.694403Z" fill="#fff"/><path d="M268.512401,172.390077c-7.619995,4.309998-12.72998,6.209961-19.380005,8.289978-1.73999.539978-4.190002,3.179993-6.869995,5.73999-2.320007,2.200012-4.809998,4.350037-7.179993,5.030029-3.210022.929993-5.919983,3.089966-7.52002,6.029968l-.039978.070007c-.26001.48999-.299988,1.059998-.150024,1.590027.640015,2.25,1.070007,6.630005,1.070007,11.659973,0,7.350037-.344996,13.309998-2.049988,13.309998-1.875,0-2.059998-5.959961-2.059998-13.309998,0-3.505932.409732-7.972798.656884-10.348312.115979-1.114741-.155626-2.244453-.806363-3.156944-.003496-.004902-.006994-.009803-.010493-.014703-1.880005-2.680054-4.470032-4.850037-7.52002-6.060059-2.72998-1.089966-5.590027-3.919983-8.130005-6.379944-2.030029-1.980042-3.849976-3.720032-5.22998-4.160034-6.640015-2.080017-11.76001-3.97998-19.380005-8.289978-8.330017-4.710022-11.780029-15.220032-10.670044-17.179993,2.52002-4.450012,26.040039-3.410034,41.860046,8.449951,6.769958,5.080017,9.5,10.440002,10.070007,15.140015.409973,3.390015-.300049,6.440002-1.420044,8.790039-.01001.019958-.019958.029968-.019958.049988-1.040039,2.149963-.860046,4.709961.639954,6.570007.540039.679993,1.059998,1.369995,1.550049,2.079956.73999-1.329956,1.559998-2.630005,2.429993-3.880005.97998-1.389954,1.119995-3.179993.380005-4.709961-.02002-.030029-.040039-.070007-.059998-.109985-1.110046-2.309998-1.809998-5.300049-1.440002-8.630005.529968-4.740051,3.23999-10.160034,10.089966-15.300049,15.820007-11.859985,39.340027-12.899963,41.859985-8.449951,1.110046,1.959961-2.339966,12.469971-10.669983,17.179993Z" fill="#fff"/><path d="M324.714711,251.957328c-.77526,6.659882-4.977508,12.146916-10.698686,14.8931-2.930631,1.406713-6.320282-.975823-5.953218-4.205793.707907-6.229216.333938-12.92602-1.292503-19.702955-2.843254-11.847059-8.989598-21.74154-16.692338-28.245019-2.436322-2.057005-1.702842-5.994012,1.316556-7.018791,2.744613-.931517,6.157945-.603728,10.509352,1.995271,10.910471,6.509806,25.736964,17.164578,22.810838,42.284186Z" fill="#c18e5b"/><path d="M304.319113,242.537931c1.880178,7.834186,2.086612,15.561289.88284,22.582741v.000003c-.320586,1.866231-1.944845,3.226187-3.838371,3.213782l-.863287-.005656-10.833876-.072486-24.692821-.159352c-6.646514-.047702-10.757275-7.269663-7.394683-12.999483l15.863194-27.061724,7.608608-12.984767.000002-.000004c1.348615-2.30746,4.120898-2.784588,6.183757-1.085252,7.886108,6.496397,14.193278,16.524692,17.084638,28.572197Z" fill="#c18e5b"/><path d="M128.481096,254.321739c.89705,6.644574,5.199044,12.053759,10.969536,14.694747,2.955892,1.352827,6.301359-1.091363,5.875227-4.314072-.821825-6.215213-.570514-12.91774.931591-19.723315,2.625897-11.897124,8.590076-21.902466,16.172469-28.545867,2.398257-2.101261,1.592826-6.024181-1.444826-6.993513-2.761206-.881116-6.167965-.490896-10.471064,2.187328-10.78947,6.708449-25.418425,17.632859-22.032933,42.69469Z" fill="#c18e5b"/><path d="M148.700839,244.530546c-1.736445,7.867293-1.801387,15.59688-.469278,22.595118v.000003c.354697,1.86005,2.00358,3.190043,3.896562,3.142975l.863039-.021459,10.830734-.270806,24.685765-.611368c6.644527-.16937,10.622389-7.465375,7.155467-13.132676l-16.355945-26.766787-7.84504-12.843303-.000002-.000004c-1.390631-2.282384-4.171184-2.708682-6.202588-.971866-7.76586,6.639677-13.888387,16.781754-16.558714,28.880172Z" fill="#c18e5b"/><circle cx="221.215324" cy="324.416903" r="2.662407" fill="#c18e5b"/><circle cx="233.659769" cy="324.416903" r="2.662407" fill="#c18e5b"/><path d="M447.377121,175.154475c-1.76001-1.290039-5.51001-3.02002-10.900024-.350037-2.300049,1.059998-4.469971,2.330017-6.579956,3.559998-2.980103,1.73999-5.799927,3.390015-8.319946,4.070007l-.180054.059998c-.679871.199951-1.75943.299927-2.879089.359955-.123932.020386-.247101.040649-.371063.061035-.542328.149109-1.0961.265411-1.649872.34903-1.339966.219971-2.76001.5-3.939941,1.299988-.410034.26001-.790039.549988-1.160034.830017-.599976.450012-1.210083.909973-1.900024,1.26001-.890015.5-1.890015.690002-2.859985.880005l-.720093.23999c-1.429932.47998-2.649902,1.539978-3.169922,2.959961-.089966.220032-.159912.450012-.22998.679993-.140015.490051-.209961.980042-.209961,1.490051-.01001,1.159973-.050049,3.589966-.27002,4.889954-.27002,1.690002-.130005,3.190002,1.5,4.059998,2.369995,1.200012,5.599976,2.910034,6.290039,5.910034.25.97998.219971,2.070007-.210083,2.97998-.049927.100037-.170044.150024-.269897.100037-.090088-.040039-.140137-.140015-.110107-.240051.580078-2.779968-1.560059-5.069946-3.869995-6.22998-1.690063-.900024-4.180054-1.47998-4.849976-3.609985-.560059-1.400024-.320068-2.850037-.100098-4.27002.330078-2.080017-.449951-4.200012-2.039917-5.589966-1.150024-1.01001-2.289917-1.990051-3.410034-2.940002-.26001-.220032-.52002-.440002-.780029-.660034-4.209961-2.209961-3.149902-5.200012,1.320068-7.830017.109985-.069946.219971.100037.109985.170044-4.180054,2.909973-5.209961,5.719971.480103,7.419983.019897.01001.039917.02002.059937.030029.349976.059998.699951.119995,1.049927.169983,2.709961.419983,5.469971.159973,8.140137-.47998.359863-.080017.72998-.160034,1.099854-.230042.930054-.179993,1.820068-.359985,2.580078-.779968.630005-.320007,1.179932-.73999,1.77002-1.179993.389893-.300049.790039-.600037,1.209961-.860046.27002-.179993.540039-.329956.810059-.469971,2.369873-1.220032,4.379883-3.119995,5.449951-5.559998.540039-1.23999.959961-2.570007,1.209961-3.970032.910034-5.039978-.389893-9.929993-3.359985-13.649963v-.01001c-4.140015-3.900024-10.019897-5.27002-15.690063-5.97998-3.379883-.540039-6.769897-1.100037-10.179932-1.090027-3.380005.01001-6.869995.669983-9.77002,2.559998,5.790039-4.130005,13.420044-3.200012,20.080078-2.469971,5.339966.369995,10.939941,1.419983,15.359863,4.48999,2.050049,1.419983,4.350098,2.48999,6.830078,2.719971,1.900024.179993,3.969971-.039978,6.169922-.950012,7.990112-3.329956,12.52002-14.329956,9.700073-23.529968-2.430054-7.929993-9.940063-11.080017-24.910034-17.369995-11.459961-4.820007-16.669922-5.450012-19.169922-5.75l-.22998-.030029c-4.150024-.51001-8.390137-.440002-13.670044.230042-1.140015.130005-2.319946.309998-3.51001.5-2.059937.309998-4.619995.699951-5.779907.549988l-.380127-.049988c-.599976-.590027-1.599976-2.400024-2.209961-3.51001-.409912-.76001-.820068-1.5-1.23999-2.210022l-.22998-.349976c-.310059-.470032-.890015-1.840027-1.080078-3.980042-.02002-.130005-.040039-.440002.340088-.709961.429932-.309998.790039-.150024.909912-.100037l.440063.200012c5.019897,2.26001,15.450073,6.940002,23.430054-1.969971,3.469971-3.670044,5.529907-8.900024,5.529907-14.119995-.119995-10.480042-6.630005-20.110046-17.869995-26.420059-9.030029-5.059998-19.959961-4.899963-28.540039.420044l-.039917.019958c-2.220093,1.369995-3.990112,3.340027-5.220093,5.64003-2.279907,4.27002-5.559937,8.070007-9.079956,11.26001-3.299927,3.159973-6.579956,5.72998-10.609985,8.049988-.339966.190002-.72998-.159973-.599976-.529968,2.170044-5.850037,7.849976-9.320007,11.930054-13.670044,2.309937-2.359985,3.569946-5.399963,5.359863-8.039993,1.160156-1.720032,1.900146-3.690002,2.23999-5.73999l.02002-.119995.23999-1.420044c.100098-.599976.180054-1.209961.26001-1.859985.140137-1.109985.440063-2.469971.76001-3.899963.290039-1.290039.590088-2.620056.820068-4.02002.780029-4.539978-.02002-9.280029-2.570068-13.130005-3.629883-5.470032-9.679932-8.369995-15.969971-7.869995l-.159912.01001c-3.930054.349976-7.26001,1.940002-10.020081,4.070007-1.869995,1.449951-3.219971,3.459961-4.01001,5.690002-.119995.359985-.23999.690002-.389954,1.039978-.77002,2.089966-2.470032,3.539978-3.400024,5.349976-.960022,1.820007-1.51001,3.880005-2.210022,5.850037l-2.019958,5.97998,1.779968-6.049988c.630005-2,1.090027-4.059998,2.01001-6.01001.929993-1.969971,2.52002-3.440002,3.140015-5.390015.622131-1.946716.992554-3.984024,1.606384-5.940216.004517-.019974.009033-.039948.01358-.059906.320038-2.259964.290009-4.499908-.379974-6.669861l-.119995-.349976c-5-13.780029-26.25-11.530029-33.890015-9.540039-12.190002,2.210022-18.52002,9.73999-22.690002,17.280029-2.089966,3.76001-6.070007,6.070007-10.380005,6.059998h-.070007c-6.449951,0-14.269958,2.309998-17.630005,7.469971-2.009949,3.100037-.589966,7.950012-1.069946,11.940002-.650024,5.400024-.850037,9.930008,2.23999,13.40004,3.419983,3.820007,11.039978,6,16.459961,6,2.820007,0,5.480042-.650024,7.869995-1.799988,2.740051-1.340027,6.030029-.570007,7.800049,1.909973l.039978.049988c1.169983,1.650024,2.109985,2.970032,2.950012,4.73999.159973.330017.47998,1.170044.789978,2.050049.23999.649963-.529968,1.190002-1.070007.73999-.690002-.570007-1.409973-1.100037-2.159973-1.580017-1.960022-1.23999-4.090027-2.130005-6.340027-2.609985-6.149963-1.299988-11.299988.859985-15.049988,2.440002l-.469971.190002c-2.51001,1.049988-4.540039,2.329956-6.140015,3.869995-3.049988,2.940002-4.530029,6.859985-4.669983,12.080017-.040039,1.029968-.080017,2.189941-.120056,3.459961.090027.460022.130005.940002.120056,1.429993-.190002,4.730042.289978,12.600037-.720032,19.890015-.450012,3.289978,3.470032,6.400024,4.380005,6.72998.859985.320007,2.830017.640015,3.859985.910034,1.450012.349976,3,.75,4.48999,1.269958,3.570007,1.400024,7.680054,1.630005,11.320007.070007,2.390015-1,4.440002-2.789978,5.440002-5.109985.100037-.22998.380005-.339966.640015-.25.219971.070007.349976.280029.299988.48999-.580017,2.670044-2.48999,5.110046-5.049988,6.790039-3.469971,2.299988-8.01001,2.389954-12.469971,2.509949-.650024.02002-1.300049-.019958-1.940002-.059998-2.850037-.209961-5.340027.100037-8.530029-.319946-.559998-.070007-1.5-.309998-2.400024-.559998-1.529968-.430054-3.169983-.290039-4.609985.329956-3.839966,1.679993-8.089966,2.790039-12.299988,2.670044-6.48999-.080017-13.219971-3.840027-14.5-9.600037-.109985-.52002.72998-.72998.940002-.23999,3.440002,7.419983,14.039978,7.690002,20.349976,3.130005,2.059998-1.350037,3.679993-3.100037,5.460022-5.150024.02002-.019958.059998-.070007.109985-.159973,1-1.559998,1.460022-3.350037,1.400024-5.140015-.23999-6.830017-.47998-13.839966-.660034-18.200012-.019958-.529968.030029-1.029968.110046-1.51001-.040039-1.22998-.080017-2.369995-.110046-3.379944-.139954-5.220032-1.619995-9.140015-4.669983-12.080017-1.599976-1.540039-3.640015-2.820007-6.140015-3.869995l-.469971-.190002c-3.75-1.580017-8.900024-3.73999-15.049988-2.440002-2.25.47998-4.380005,1.369995-6.340027,2.609985-.75.47998-1.469971,1.01001-2.159973,1.580017-.540039.450012-1.309998-.090027-1.070007-.73999.309998-.880005.630005-1.720032.789978-2.050049.840027-1.769958,1.780029-3.089966,2.950012-4.73999l.029968-.049988c2.120056-2.97998,5.900024-4.27002,9.410034-3.25,1.529968.450012,3.150024.690002,4.820007.690002,5.359985,0,12.929993-1.190002,16.269958-5.109985,2.940002-3.440018,2.560059-9.430008,2.560059-14.440018,0-3.200012-.160034-6.130005-1.450012-8.780029-3.02002-6.269958-10.299988-10.48999-17.380005-10.48999h-.109985c-4.100037.030029-7.880005-2.029968-10.02002-5.529968-4.179993-6.860046-10.419983-13.330017-21.559998-15.350037-7.640015-1.98999-28.890015-4.23999-33.890015,9.540039l-.119995.349976c-.679993,2.179962-.710022,4.419922-.389969,6.669891.004547.020065.009109.0401.013657.060165.613846,1.956116.974106,3.993317,1.616302,5.939926.619995,1.950012,2.210022,3.420044,3.140015,5.390015.919983,1.950012,1.380005,4.01001,2.01001,6.01001l1.779968,6.049988-2.019958-5.97998c-.700012-1.970032-1.25-4.030029-2.210022-5.850037-.929993-1.809998-2.630005-3.26001-3.400024-5.349976-.149963-.349976-.269958-.679993-.389954-1.039978-.790039-2.230042-2.140015-4.240051-4.01001-5.690002-2.76001-2.130005-6.090027-3.720032-10.02002-4.070007l-.159973-.01001c-6.290039-.5-12.340027,2.399963-15.970032,7.869995-2.549988,3.849976-3.349976,8.590027-2.570007,13.130005.230042,1.399963.530029,2.72998.820007,4.02002.320007,1.429993.619995,2.789978.76001,3.899963.080017.650024.159973,1.26001.26001,1.859985l.23999,1.420044.02002.119995c.339966,2.049988,1.079956,4.019958,2.23999,5.73999,1.789978,2.64003,3.049988,5.680008,5.359985,8.039993,4.080017,4.350037,9.76001,7.820007,11.929993,13.670044.130005.369995-.26001.719971-.599976.529968-4.030029-2.320007-7.309998-4.890015-10.609985-8.049988-3.52002-3.190002-6.800049-6.98999-9.080017-11.26001-1.22998-2.300003-3-4.270035-5.220032-5.64003l-.039978-.019958c-8.580017-5.320007-19.51001-5.480042-28.539978-.420044-11.240051,6.310013-17.75,15.940018-17.869995,26.420059,0,5.219971,2.059998,10.449951,5.529968,14.119995,7.97998,8.909973,18.410034,4.22998,23.429993,1.969971l.440002-.200012c.119995-.049988.47998-.209961.910034.100037.380005.269958.359985.579956.339966.709961-.190002,2.140015-.77002,3.51001-1.080017,3.980042l-.22998.349976c-.419983.710022-.830017,1.450012-1.23999,2.210022-.609985,1.109985-1.609985,2.919983-2.210022,3.51001l-.380005.049988c-1.159973.149963-3.719971-.23999-5.779968-.549988-1.190002-.190002-2.369995-.369995-3.51001-.5-5.279968-.670044-9.52002-.740051-13.669983-.230042l-.230042.030029c-2.5.299988-7.709961.929993-19.169983,5.75-14.969971,6.289978-22.47998,9.440002-24.909973,17.369995-2.820007,9.200012,1.709961,20.200012,9.700012,23.529968,2.199951.910034,4.269958,1.130005,6.169983.950012,2.47998-.22998,4.779968-1.299988,6.830017-2.719971,4.419983-3.070007,10.019958-4.119995,15.359985-4.48999,6.659973-.730042,14.289978-1.660034,20.079956,2.469971-2.899963-1.890015-6.389954-2.549988-9.769958-2.559998-3.410034-.01001-6.799988.549988-10.179993,1.090027-5.670044.709961-11.550049,2.079956-15.690002,5.97998v.01001c-2.970032,3.719971-4.27002,8.609985-3.360046,13.649963.25,1.400024.670044,2.730042,1.210022,3.970032,1.070007,2.440002,3.080017,4.339966,5.450012,5.559998.27002.140015.539978.289978.809998.469971.419983.26001.820007.559998,1.210022.860046.589966.440002,1.139954.859985,1.769958,1.179993.76001.419983,1.650024.599976,2.580017.779968.369995.070007.73999.150024,1.099976.230042,2.670044.639954,5.430054.899963,8.140015.47998,1.350037-.200012,2.690002-.47998,4.01001-.809998-.570007.5-1.159973,1-1.77002,1.51001-1.719971,1.469971-3.47998,2.969971-5.279968,4.599976-.179993.169983-.359985.330017-.540039.5-.209961.200012-.429993.400024-.639954.599976-.119995.110046-4.690002,4.430054-5.559998,7.309998-.119995.390015-.25.940002-.52002,1.380005-1.23999,2.02002-3.5,3.070007-5.049988,4.740051-.600037.629944-1.040039,1.379944-.970032,2.159973.059998.469971-.690002.539978-.72998.059998.02002-4.059998,5.789978-4.890015,6.440002-8.580017.791199-2.69693,2.35688-5.147766,4.456863-7.013824.755295-.671173,1.049255-1.726837.722382-2.682892-.034798-.101776-.071205-.202881-.109238-.303284-.52002-1.419983-1.73999-2.47998-3.169983-2.959961l-.720032-.23999c-.969971-.190002-1.969971-.380005-2.859985-.880005-.690002-.350037-1.299988-.809998-1.900024-1.26001-.369995-.280029-.75-.570007-1.159973-.830017-1.179993-.799988-2.600037-1.080017-3.940002-1.299988-.579391-.079926-1.118828-.209747-1.678192-.349609-.117958-.017731-.311897-.046936-.429855-.064667-1.091972-.060455-2.137573-.1604-2.791977-.355743l-.179993-.059998c-2.52002-.679993-5.339966-2.330017-8.320007-4.070007-2.109985-1.22998-4.279968-2.5-6.580017-3.559998-5.389954-2.669983-9.139954-.940002-10.899963.350037-4.97998,3.630005-3.97998,9.719971-3.450012,12.98999.059998.339966.109985.669983.150024.959961l.039978.26001c.22998,1.309998.470032,2.630005.710022,3.929993,1.019958,5.590027,1.97998,10.869995,1.719971,15.830017l-.01001.109985c-.039978,1.220032-.109985,2.440002-.179993,3.670044-.440002,8.069946-.929993,17.219971,3.52002,25.919983l.099976.200012c.23999.459961.470032.909973.679993,1.380005,2.26001,5.019958,7.5,16.709961,22.430054,11.709961.399963-.099976.809998-.209961,1.219971-.320007,1.719971-.449951,3.359985-1.190002,4.849976-2.169983.070007-.039978.119995-.080017.170044-.109985,2.029968-1.23999,4.190002-2.190002,6.219971-3.320007,2.52002-1.380005,4.840027-3.200012,7.590027-4.390015,2.73999-1.159973,5.619995-1.700012,8.349976-2.649963h.02002c1.179993-.51001,3.630005-1.210022,3.630005-1.240051,1.099976-.5,5.719971-.579956,6.5-.429993.01001,0,.019958,0,.029968.01001,1.460022.059998,2.910034.22998,4.359985.470032,3.980042.009949,7.980042.269958,11.930054.539978,1.48999-.400024,2.98999-.950012,4.069946-1.679993,1.320007-.900024,2.52002-2.070007,3.570007-3.47998,2.160034-2.910034,3.869995-6.02002,5.490051-9.059998,0,0,1.679993-1.720032,3.069946-10.52002-.009949-.290039-.099976-.619995-.25-.940002-.799988-1.460022-1.380005-3.150024-1.399963-4.820007.219971,1.700012.929993,3.159973,1.890015,4.549988.079956.130005.149963.26001.219971.400024,1.789978-3.169983,3.900024-6.109985,5.919983-9.140015,1.460022-2.119995,2.890015-4.27002,4.52002-6.26001-3.039978,4.140015-5.659973,8.600037-8.22998,13.040039-1.030029,1.809998-2.050049,3.669983-2.350037,5.609985-.070007.450012-.079956,1.47998-.079956,1.539978.369995-.119995.759949-.140015,1.149963-.130005.47998,0,.97998.049988,1.460022-.01001,1.089966-.079956,2.179993-.349976,3.200012-.799988-.960022.559998-2.030029.960022-3.150024,1.169983l-.030029.01001c-1.419983.330017-2.529968,1.470032-2.769958,2.910034-.200012,1.279968-.609985,2.529968-1.309998,3.609985-.119995.179993-.200012.390015-.230042.599976-.599976,5.580017.980042,9.350037,3.540039,12.880005.559998.77002.459961,1.830017-.230042,2.410034-.409973.329956-.819946.669983-1.22998,1.01001-2.580017,2.109985-5.51001,4.509949-7.450012,7.709961-3,4.970032-2.75,10.630005.690002,15.51001l.179993.23999c1.840027,2.420044,4.030029,4.660034,6.150024,6.820007,5.030029,5.130005,8.25,8.720032,7.369995,11.710022-.169983.599976-.539978,1.01001-.789978,1.099976-.070007.02002-.100037.030029-.100037.030029-1.559998-.290039-5.429993-5.119995-7.509949-7.710022-4.51001-5.609985-9.540039-11.869995-16.780029-13.830017-1.039978-.269958-1.52002-1.469971-1.02002-2.419983l.090027-.159973c1.76001-3.300049,3.75-7.050049,4.059998-11.26001l.090714-1.250397c-.030533-.238922-.060181-.470703-.090714-.709625l-.410034-1.210022-.029968-.079956c0-.01001-.01001-.030029-.01001-.040039-.75-2.079956-2.75-3.449951-4.950012-3.579956-8.159973-.5-13.849976-.540039-24.019958,1.699951-2.75.610046-5.710022,2.75-6.650024,3.160034-4.900024,2.169983-9.690002,4.669983-14.289978,7.450012-1.920044,1.169983-2.840027,3.5-2.110046,5.619995.180054.539978.400024,1.070007.630005,1.570007.51001,1.099976-.079956,2.409973-1.23999,2.779968-4.48999,1.450012-8.869995,3.730042-11.640015,8.140015-2.47998,3.960022-3.069946,8.77002-1.759949,14.279968l.029968.150024c2.26001,8.710022,7.220032,14.910034,14.539978,18.27002,3.960022,1.820007,8.430054,2.089966,12.700012,1.26001,6.77002-1.320007,13.920044-1.350037,20.660034-1.850037-6.890015.730042-14.230042.960022-21.100037,2.590027-3.73999.890015-7.019958,3.339966-8.639954,6.829956-.720032,1.550049-1.130005,3.230042-1.130005,4.990051,0,.799988.079956,1.619995.259949,2.449951.190002.870056.52002,1.700012.980042,2.450012l.01001.01001c2.699951,4.410034,6.389954,8.429993,9.969971,12.309998,1.98999,2.160034,3.869995,4.200012,5.5,6.22998,4.160034,5.380005,8.940002,8.26001,14.200012,8.559998,2.139389.129944,4.12886-.1698,6.008362-.779419.659149-.398621,1.291687-.781128,1.950836-1.179749.340195-.3302.710617-.710571.920807-1.020813,1.149963-1.809998,2.73999-3.159973,4.039978-4.690002,1.410034-1.559998,1.660034-3.279968,2.950012-5.099976,2.099976-2.630005,5.289978-3.580017,8.090027-5.049988.009949,0,.019958-.01001.029968-.01001,1.450012-.640015,2.970032-1.160034,4.580017-1.400024.419983-.070007.659973.47998.320007.75-2.820007,2.22998-6.110046,3.580017-9.050049,5.530029-.769958.51001-1.399963,1.059998-1.799988,1.699951-.899963,1.540039-1.559998,3.920044-2.859985,5.390015-1.76001,2.059998-3.190002,3.630005-4.630005,5.920044-.02002.049988-.049988.099976-.080017.159973-.359985.900024-2.069946,6.320007-1.25,8.77002,2.110046,6.279968,8.070007,7.459961,14.380005,8.719971.73999.140015,1.530029.299988,2.360046.470032,1.839966.380005,3.609985.769958,5.399963,1.199951,3.840027.910034,10.540039-.48999,14.179993-1.319946,1.630005-.370056,2.970032-1.490051,3.640015-3.02002,3.130005-7.130005,5.049988-12.440002,15.450012-12.76001-10.72998.640015-12.119995,6.330017-15.26001,13.950012-.280029.669983-.320007,1.779968-.080017,2.469971v.01001c.650024,1.950012,1.780029,3.72998,3.480042,5.150024l.559998.429993c2.759949,1.919983,5.889954,2.539978,9.019958,2.539978,3.210022,0,6.429993-.649963,9.290039-1.219971,1.339966-.27002,2.609985-.530029,3.619995-.660034l.630005-.109985c1.419983-.309998,2.919983-.549988,4.51001-.799988,3.609985-.559998,7.699951-1.210022,11.589966-2.910034l.580017-.289978c3.320007-1.789978,5.089966-7.169983,6.070007-11.330017.690002-2.889954.23999-5.940002-1.25-8.519958-.73999-1.280029-1.380005-2.619995-1.900024-4.02002-.01001-.01001-.01001-.02002-.02002-.030029-.599976-1.909973-.819946-3.899963-1-5.889954l-.029968-.420044c-.049988-.259949.089966-.329956-.380005-.399963l1-.090027c-.460022.150024-.299988.200012-.299988.460022l.039978.419983c.190002,1.950012.429993,3.950012,1.039978,5.809998.580017,1.540039,1.340027,3.049988,2.240051,4.480042,1.289978,2.049988,3.329956,3.519958,5.690002,4.079956,6.569946,1.540039,18.269958,2.780029,24.429993-2.01001l.369995-.309998c7.48999-6.599976,12-15.389954,13.419983-26.130005.539978-3.279968,1.070007-6.209961,2.059998-8.869995.77002-2.119995,2.030029-4.329956,3.570007-6.269958l.140015-.190002c.679993-.920044,1.390015-1.73999,2.130005-2.610046,2.529968-2.959961,5.679993-6.629944,5.570007-12.509949l-.02002-.940002-.23999-.910034c-1.76001-6.72998-5.02002-11.219971-9.670044-13.339966-5.259949-2.400024-15.779968.570007-16.109985.399963-.919983-.47998-2.709961-3.209961-3.659973-4.859985-1.720032-3-10.48999-1.23999-14.320007.200012-3.400024,1.289978-8.070007,3.049988-11.320007,7.830017l-.719971,1.049988c-.085526.208801-.218506.533447-.304031.742279l-.225998,1.267731c-.719971,4.109985.590027,8.119995,3.609985,11,5.030029,4.769958,13.140015,5.159973,17.600037,4.23999,4.130005-.679993,7.97998-2.580017,11.709961-4.420044,2.100037-1.039978,5.470032-2.709961,7.110046-2.969971.119995.200012.259949.5.429993.900024.059998.149963.039978.329956-.050049.449951-.389954.51001-.919983,1.119995-1.349976,1.630005-.830017.960022-1.77002,2.059998-2.76001,3.380005-2.539978,3.23999-4.580017,6.859985-5.890015,10.470032-1.48999,3.97998-2.199951,7.919983-2.849976,11.929993l-.039978.25c-.880005,6.849976-3.48999,12.149963-7.940002,16.209961-.059998.050049-.130005.110046-.200012.170044-2.840027,2.039978-6.609985,2.5-7.48999,1.659973-.970032-.940002-2-2.599976-3.100037-4.359985-1.539978-2.47998-3.279968-5.280029-5.859985-7.690002-4.51001-4.539978-8.960022-6.090027-13.219971-4.599976-1.75.609985-5.890015,2.709961-6.540039,9.049988l-.070007.709961.050049.710022c.109985,1.460022.389954,3.330017.719971,5.5.48999,3.25,1.690002,11.210022,1.220032,14.919983-.030029.160034-.140015.280029-.300049.320007-1.690002.460022-3.649963.780029-5.699951,1.090027-1.650024.26001-3.350037.529968-5.100037.899963-.940002.130005-2.76001.480042-3.950012.710022-.349976.070007-.570007-.349976-.320007-.599976.77002-.76001,1.820007-1.809998,2.02002-2.100037,2.48999-3.549988,2.380005-8.519958-.809998-12.079956-2.159973-2.420044-5.47998-3.450012-8.690002-2.960022l-.289978.039978c-.290039.040039-.570007.100037-.830017.119995h-.159973c-.420044.02002-.850037.050049-1.27002.100037-4.640015.579956-9.849976,1.47998-13.299988,4.820007-1.109985,1.019958-2.070007,2.259949-2.869995,3.699951-1.350037,2.440002-4.390015,3.640015-7.390015,2.930054-1.140015-.280029-2.280029-.530029-3.419983-.790039-.040039-.01001-.080017-.01001-.119995-.02002-1.430054-.299988-2.02002-2.019958-1.070007-3.129944.119995-.140015.23999-.280029.369995-.430054,1.059998-1.219971,2.099976-2.449951,3.130005-3.669983,1.679993-2.01001,3.339966-4.049988,4.940002-6.059998,2.679993-3.369995,3.579956-7.869995,2.419983-12.029968-1.160034-4.119995-4.22998-7.460022-8.22998-8.930054-1.830017-.669983-3.730042-1.049988-5.640015-1.099976-2.049988-.059998-4.190002.23999-6.190002.869995-4.23999,1.330017-7.340027,4.040039-9.570007,6.26001-.679993.690002-1.330017,1.359985-1.97998,2.030029-1.280029,1.309998-3.970032,4.079956-6.130005,5.779968-1.470032,1.159973-3.600037.950012-4.809998-.48999-.150024-.179993-.309998-.380005-.470032-.590027l-.109985-.139954c-1.969971-2.450012-4.140015-4.800049-6.23999-7.080017-.929993-1.02002-1.859985-2.02002-2.73999-3.01001-.73999-.820007-.170044-2.140015.940002-2.179993.47998-.01001.940002-.030029,1.380005-.039978,10.48999-.350037,20.409973-.680054,24.529968-7.430054,1.900024-3.109985,2.02002-6.929993.340027-10.47998-.75-1.599976-1.820007-3.049988-3.170044-4.320007-7.149963-6.719971-19.199951-6.390015-28.880005-6.130005-2.809998.080017-5.459961.160034-7.349976.02002h-.049988c-5.359985-.950012-8.140015-3.559998-9.559998-8.940002,0-.02002-.01001-.030029-.01001-.049988-.320007-1.380005.469971-2.780029,1.799988-3.27002,1.98999-.72998,4.919983-1.380005,6.619995-1.76001l.970032-.22998c5.539978-1.51001,7.789978-4.690002,8.709961-7.099976.490051-1.280029.690002-2.52002.690002-3.710022,0-3.869995-2.159973-7.190002-3.709961-9.580017-.640015-.640015-.52002-1.529968.26001-1.98999,1.439941-.840027,3.459961-1.679993,5.269958-1.900024.01001-.009949.030029-.009949.040039-.009949,2-.090027,4.179993-.050049,6.419983.039978.669983.029968,1.75.090027,2.779968.140015,1.330017.070007,2.160034,1.459961,1.600037,2.669983-.190002.409973-.369995.830017-.549988,1.25-1.52002,3.669983-2.400024,7.869995-.410034,12.109985,2.910034,6.220032,9.850037,7.660034,12.140015,8.130005l.47998.100037.480042.039978c2.25.190002,6.289978,5.219971,8.969971,8.539978,5.659973,7.059998,13.429993,16.730042,25.049988,12.700012,5.119995-1.779968,9.140015-6.089966,10.73999-11.529968,3.559998-12.080017-4.97998-20.809998-11.219971-27.180054-1.040375-1.050385-2.040726-2.070709-2.931-3.041077-.643433-.701294-.574524-1.790009.140366-2.418335.660156-.5802,1.370468-1.160431,1.930649-1.610535.459961-.370056.919983-.75,1.369995-1.130005,7-5.860046,8.269958-16.280029,2.869995-23.720032-.720032-1-1.23999-1.719971.669983-6.919983l.080017-.22998c1.580017-4.75,3.029968-8,5.029968-11.230042.230042-.380005.48999-.769958.76001-1.179993,3.109985-4.72998,8.320007-12.649963,4.440002-20.559998l-.409973-.72998c-2.02002-3.190002-5.080017-5.080017-8.640015-5.309998-5.950012-.390015-10.76001,4.169983-13.130005,7.01001-1.090027,1.22998-2.219971,2.48999-3.359985,3.769958-2.970032,3.330017-6.040039,6.77002-8.710022,9.929993-3.419983,3.950012-5.76001,8.350037-8.02002,12.600037-1.369995,2.549988-2.649963,4.969971-4.059998,7.059998-.339966.5-.940002.769958-1.539978.700012-1.27002-.170044-3.02002-.590027-4.219971-.880005-2.290039-.559998-4.870056-1.190002-7.52002-1.290039-7.77002-.909973-14.090027,3.119995-18.72998,6.070007-.540039.340027-1.059998.679993-1.590027,1l-.380005.25c-5.609985,3.950012-12.179993,5.869995-20.859985,8.150024l-.590027.169983c-.219971.109985-.450012.160034-.679993.160034-.529968,0-1.039978-.280029-1.309998-.790039-.339966-.649963-.73999-1.48999-1.210022-2.529968-.309998-.710022-.669983-1.420044-1.029968-2.119995l-.099976-.190002c-2.52002-4.920044-2.170044-11.220032-1.809998-17.890015.069946-1.290039.139954-2.580017.189941-3.859985.240051-4.580017-.219971-8.990051-.889954-13.290039-.150024-.969971.839966-1.679993,1.719971-1.26001,1.840027.890015,3.780029,1.690002,5.820007,2.25,1.390015.420044,2.809998.660034,4.169983.809998.900024.090027,1.440002,1.040039,1.040039,1.850037l-.02002.049988s0,.01001-.01001.01001c-5,8.719971-3.140015,13.820007-.690002,16.570007,1.820007,2.039978,6.02002,4.98999,13.710022,1.700012l.169983-.070007c5.330017-2.420044,9.52002-6.460022,13.220032-10.02002,1.22998-1.179993,2.389954-2.299988,3.529968-3.299988l.200012-.179993c1.859985-1.76001,3.840027-3.440002,5.75-5.059998,6.679993-5.679993,13.590027-11.559998,17.23999-21.580017l.109985-.340027c3.820007-13.380005,3.530029-12.570007,4.190002-16.009949.780029-4.060059.690002-8.420044-1.880005-11.830017l-.079956-.119995c-3.230042-4.130005-7.530029-4.830017-10.980042-5.400024-.559998-.089966-1.159973-.190002-1.820007-.309998-4.859985-.890015-8.899963-1.559998-12.719971-2.099976-6.390015-.900024-8.419983-1.580017-9.630005-1.98999-1.700012-.580017-3.22998-1.02002-6.070007-1.040039h-.219971c-5.590027,0-9.830017,1.559998-12.980042,3.059998-.449951.220032-1.22998.609985-1.940002.980042-.889954.459961-1.969971-.100037-2.099976-1.090027v-.27002c0-.849976.440002-1.639954,1.159973-2.089966.230042-.150024.490051-.309998.77002-.470032,3.01001-1.72998,8.619995-4.089966,14.100037-6.390015,9.440002-3.969971,13.169983-4.419983,14.959961-4.629944l.27002-.040039c2.799988-.339966,5.839966-.269958,9.839966.230042,1.02002.129944,2.02002.279968,3.02002.429993,3.130005.47998,6.660034,1.029968,10,.630005,8.559998-.670044,12.309998-7.52002,14.570007-11.630005.289978-.540039.590027-1.070007.890015-1.580017,1.909973-2.960022,3.169983-6.900024,3.539978-11.130005.530029-5.909973-2.049988-11.48999-6.890015-14.940002-4.880005-3.469971-11.039978-4.080017-16.48999-1.640015l-.459961.200012c-1.559998.710022-4.100037,1.849976-5.200012,1.929993l-.059998-.059998-.25-.27002c-.730042-.759949-1.23999-2.089966-1.23999-3.22998.069946-6.349976,6.190002-10.72998,9.829956-12.77002,4.02002-2.259949,8.820007-2.23999,12.530029.060059,2.839966,1.769958,5.719971,4.339966,8.200012,6.609985,3.959961,3.579956,9.859985,8.849976,15.799988,13.679993l1.039978.830017c4.140015,3.309998,7.410034,5.919983,11.280029,6.25l.75.059998.75-.080017c3.190002-.330017,5.909973-2.090027,7.459961-4.820007,2.179993-3.830017,1.800049-8.659973-1.199951-15.200012-1.900024-4.029968-4.630005-7.190002-7.040039-9.969971-1.02002-1.179993-1.97998-2.290039-2.789978-3.359985l-.220032-.280029c-2.529968-3.039993-3.299988-7.599991-4.199951-12.88002l-.25-1.440002c-.060059-.359985-.100037-.73999-.150024-1.109985-.23999-1.890015-.640015-3.679993-1.02002-5.400024-.289978-1.329956-.570007-2.570007-.73999-3.709961-.130005-.860046.320007-1.440002.51001-1.660034.369995-.390015.799988-.570007,1.320007-.529968h.039978c1.530029.159973,4.220032,2.649963,6.47998,7.109985,1.190002,2.349976,1.870056,5.109985,2.590027,8.029968.869995,3.490051,1.849976,7.450012,3.859985,11.290054,2.040039,4.130005,6.140015,8.880005,11.580017,9.929993,3.51001.679993,7.059998-.320007,9.73999-2.73999l.130005-.119995c5.369995-5.080017,3.910034-14.13002,2.970032-17.990005-1.26001-6.240051-3-13.650024-4.890015-20.870056-.25-1-.540039-2.059998-.840027-3.129944,0-.01001-.01001-.02002-.01001-.040039-.659973-2.390015,1.050049-4.789978,3.540039-4.919983,3.159973-.160034,7.109985.119995,10.320007,1.01001l.769958.169983c7.720032,1.330017,10.550049,5.929993,15.150024,16.099976l.109985.220032c.98999,2.029968.059998,4.779968-1.539978,9.099976-.299988.830017-.609985,1.660034-.890015,2.48999-1.710022,4.910034-3.330017,7.190002-5.200012,9.820023-1.940002,2.730042-4.140015,5.830017-5.98999,11.130005-4.339966,12.480042-2.719971,27.140015,1.27002,33.559998,2.309998,3.710022,5.26001,4.799988,7.329956,5.059998.230042.030029.470032.050049.690002.059998,8.240051.460022,11.790039-9.719971,13.950012-15.869995l.130005-.429993c.840027-2.929993,2.710022-5.25,4.540039-5.630005,1.339966-.279968,3.449951.600037,5.679993,1.549988l.48999.200012c.039978.02002.070007.030029.109985.049988.599976.26001.98999.840027,1.030029,1.490051,0,.109985.009949.23999.009949.369995.220032,5.940002.530029,16.089966.809998,25.049988.040039,1.309998.080017,2.589966.110046,3.809998.049988,1.450012-1.48999,2.409973-2.780029,1.73999-6.669983-3.450012-10.549988-7.559998-10.609985-7.619995-1.859985-2.039978-5.030029-2.179993-7.059998-.320007-2.039978,1.869995-2.179993,5.030029-.320007,7.070007.419983.460022,7.880005,8.469971,20.419983,12.809998,4.710022,1.630005,10.130005,2.73999,16.160034,2.73999,6.529968,0,12.149963-1.099976,16.889954-2.73999,13.300049-4.590027,19.720032-13.380005,20.070007-13.880005,1.600037-2.25,1.080017-5.369995-1.169983-6.97998-2.25-1.600037-5.369995-1.070007-6.969971,1.179993-.050049.070007-2.830017,3.869995-8.660034,7.23999-.820007.47998-1.859985-.130005-1.830017-1.089966.040039-1.27002.080017-2.600037.120056-3.960022.279968-8.960022.589966-19.109985.809998-25.049988,0-.140015.009949-.280029.019958-.400024.030029-.650024.440002-1.219971,1.040039-1.469971l.089966-.040039.48999-.200012c2.230042-.949951,4.340027-1.829956,5.679993-1.549988,1.830017.380005,3.700012,2.700012,4.540039,5.630005l.130005.429993c1.880005,5.350037,4.820007,13.76001,10.969971,15.540039,1.109985.329956,2.330017.440002,3.669983.269958,2.070007-.26001,5.02002-1.349976,7.330017-5.059998,3.98999-6.419983,5.609985-21.079956,1.27002-33.559998-1.850037-5.299988-4.049988-8.399963-5.98999-11.130005-1.869995-2.63002-3.48999-4.909988-5.200012-9.820023-.280029-.829956-.590027-1.659973-.890015-2.48999-1.599976-4.320007-2.529968-7.070007-1.539978-9.099976l.109985-.220032c4.599976-10.169983,7.429993-14.769958,15.150024-16.099976l.769958-.169983c3.210022-.890015,7.160034-1.170044,10.320007-1.01001,2.48999.130005,4.200012,2.529968,3.540039,4.919983,0,.02002-.01001.030029-.01001.040039-.299988,1.069946-.590027,2.129944-.840027,3.129944-1.890015,7.220032-3.630005,14.630005-4.890015,20.870056-.940002,3.859985-2.399963,12.909988,2.970032,17.990005l.130005.119995c2.679993,2.419983,6.22998,3.419983,9.73999,2.73999,5.440002-1.049988,9.539978-5.799988,11.580017-9.929993,2.01001-3.840042,2.98999-7.800003,3.859985-11.290054.719971-2.919983,1.400024-5.679993,2.589966-8.029968,2.26001-4.460022,4.949951-6.950012,6.47998-7.109985h.040039c.52002-.040039.949951.139954,1.320068.529968.189941.220032.639893.799988.51001,1.660034-.170044,1.139954-.450073,2.380005-.73999,3.709961-.380127,1.720032-.780029,3.51001-1.02002,5.400024-.050049.369995-.090088.75-.150146,1.109985l-.25,1.440002c-.899902,5.280029-1.669922,9.840027-4.199951,12.88002l-.219971.280029c-.810059,1.069946-1.77002,2.179993-2.790039,3.359985-2.409912,2.779968-5.139954,5.940002-7.039978,9.969971-3,6.540039-3.379944,11.369995-1.199951,15.200012,1.549988,2.72998,4.269958,4.48999,7.4599,4.820007l.75.080017.75-.059998c3.870117-.330017,7.140137-2.940002,11.280029-6.25l1.040039-.830017c5.939941-4.830017,11.840088-10.100037,15.800049-13.679993,2.47998-2.27002,5.359985-4.840027,8.199951-6.609985,3.709961-2.300049,8.51001-2.320007,12.530029-.060059,3.639893,2.040039,9.76001,6.420044,9.829956,12.77002,0,1.140015-.509888,2.470032-1.23999,3.22998l-.25.27002-.059937.059998c-1.100098-.080017-3.640137-1.219971-5.200073-1.929993l-.459961-.200012c-5.450073-2.440002-11.609985-1.829956-16.48999,1.640015-4.839966,3.450012-7.420044,9.030029-6.890015,14.940002.369995,4.22998,1.630005,8.169983,3.540039,11.130005.299927.51001.599976,1.039978.889893,1.580017,2.26001,4.109985,6.01001,10.959961,14.570068,11.630005,3.339966.399963,6.869995-.150024,10-.630005,1-.150024,2-.300049,3.02002-.429993,4-.5,7.040039-.570007,9.839966-.230042l.27002.040039c1.789917.209961,5.519897.659973,14.959961,4.629944,5.480103,2.300049,11.089966,4.660034,14.099976,6.390015.280029.160034.540039.320007.77002.470032.719971.450012,1.160034,1.23999,1.160034,2.089966v.27002c-.130005.98999-1.210083,1.549988-2.099976,1.090027-.709961-.370056-1.48999-.76001-1.939941-.980042-3.150146-1.5-7.390137-3.059998-12.980103-3.059998h-.219971c-2.839966.02002-4.369995.460022-6.069946,1.040039-1.210083.409973-3.23999,1.089966-9.630127,1.98999-3.819946.539978-7.859863,1.209961-12.719971,2.099976-.659912.119995-1.26001.220032-1.819946.309998-3.450073.570007-7.75,1.27002-10.980103,5.400024l-.079834.119995c-2.570068,3.409973-2.660156,7.769958-1.880127,11.830017.660034,3.439941.370117,2.629944,4.190063,16.009949l.109985.340027c3.649902,10.02002,10.560059,15.900024,17.23999,21.580017,1.909912,1.619995,3.890015,3.299988,5.75,5.059998l.199951.179993c1.140137,1,2.300049,2.119995,3.530029,3.299988,3.699951,3.559998,7.890015,7.599976,13.219971,10.02002l.170044.070007c7.690063,3.289978,11.890015.339966,13.710083-1.700012,2.449951-2.75,4.309937-7.850037-.690063-16.570007-.01001,0-.01001-.01001-.01001-.01001l-.02002-.049988c-.400024-.809998.140015-1.76001,1.040039-1.850037,1.359985-.149963,2.779907-.389954,4.170044-.809998,2.039917-.559998,3.97998-1.359985,5.819946-2.25.880005-.419983,1.869995.290039,1.719971,1.26001-.670044,4.299988-1.130005,8.710022-.890015,13.290039.050049,1.279968.120117,2.569946.189941,3.859985.360107,6.669983.710083,12.969971-1.809937,17.890015l-.099976.190002c-.359985.699951-.719971,1.409973-1.030029,2.119995-.429932.949951-.800049,1.72998-1.119995,2.349976-.390015.75-1.269897,1.090027-2.059937.820007l-.02002-.01001-.590088-.169983c-8.679932-2.280029-15.25-4.200012-20.859863-8.150024l-.380127-.25c-.530029-.320007-1.049927-.659973-1.589966-1-4.640015-2.950012-10.959961-6.97998-18.72998-6.070007-2.650024.100037-5.22998.730042-7.52002,1.290039-1.209961.289978-2.959961.709961-4.23999.869995-.589966.070007-1.190063-.200012-1.529907-.700012-1.410156-2.090027-2.690063-4.52002-4.050049-7.049988-2.26001-4.25-4.600098-8.650024-8.02002-12.600037-2.669922-3.159973-5.73999-6.599976-8.709961-9.929993-1.140137-1.279968-2.27002-2.539978-3.360107-3.769958-2.369873-2.840027-7.179932-7.400024-13.129883-7.01001-3.560059.22998-6.620117,2.119995-8.640137,5.309998l-.409912.72998c-3.880005,7.910034,1.330078,15.830017,4.439941,20.559998.27002.410034.530029.799988.76001,1.179993,2,3.230042,3.449951,6.480042,5.030029,11.230042l.080078.22998c1.909912,5.200012,1.389893,5.919983.669922,6.919983-5.399902,7.440002-4.130005,17.859985,2.869995,23.720032.450073.380005.910034.759949,1.369995,1.130005.550049.449951,1.26001,1.029968,1.929932,1.609985.710083.630005.780029,1.719971.130127,2.419983-.890015.97998-1.890015,1.98999-2.920044,3.039978-6.23999,6.370056-14.779907,15.100037-11.219971,27.180054,1.599976,5.440002,5.619995,9.75,10.73999,11.529968,11.619995,4.030029,19.390015-5.640015,25.049927-12.700012,2.680054-3.320007,6.719971-8.349976,8.969971-8.539978l.480103-.039978.47998-.100037c2.289917-.469971,9.22998-1.909973,12.140015-8.130005,1.98999-4.23999,1.109985-8.440002-.410034-12.109985-.180054-.419983-.359985-.840027-.549927-1.25-.560059-1.210022.27002-2.599976,1.599976-2.669983,1.029907-.049988,2.109985-.110046,2.779907-.140015,2.23999-.090027,4.420044-.130005,6.420044-.039978.01001,0,.030029,0,.040039.009949,1.809937.220032,3.829956,1.059998,5.269897,1.900024.780029.460022.900146,1.349976.26001,1.98999-1.549927,2.390015-3.709961,5.710022-3.709961,9.580017,0,1.190002.199951,2.429993.690063,3.710022.920044,2.409973,3.170044,5.589966,8.709961,7.099976l.970093.22998c1.699951.380005,4.629883,1.030029,6.619873,1.76001,1.330078.48999,2.120117,1.890015,1.800049,3.27002,0,.019958-.01001.029968-.01001.049988-1.419922,5.380005-4.199951,7.98999-9.560059,8.940002h-.049927c-1.890015.140015-4.539917.059998-7.349976-.02002-9.680054-.26001-21.72998-.589966-28.880005,6.130005-1.349976,1.27002-2.420044,2.720032-3.170044,4.320007-1.679932,3.549988-1.560059,7.369995.340088,10.47998,4.119873,6.75,14.039917,7.080017,24.529907,7.430054.440063.009949.900024.029968,1.380005.039978,1.110107.039978,1.679932,1.359985.939941,2.179993-.879883.98999-1.809937,1.98999-2.73999,3.01001-2.099854,2.279968-4.27002,4.630005-6.23999,7.080017l-.109863.139954c-.160156.210022-.320068.410034-.470093.590027-1.209961,1.440002-3.339966,1.649963-4.809937.48999-2.160034-1.700012-4.850098-4.469971-6.130127-5.779968-.649902-.670044-1.299927-1.340027-1.97998-2.030029-2.22998-2.219971-5.329956-4.929993-9.569946-6.26001-2-.630005-4.140015-.929993-6.190063-.869995-1.909912.049988-3.809937.429993-5.639893,1.099976-4,1.470032-7.070068,4.810059-8.22998,8.930054-1.160034,4.159973-.26001,8.659973,2.419922,12.029968,1.600098,2.01001,3.26001,4.049988,4.939941,6.059998,1.030029,1.220032,2.070068,2.450012,3.130127,3.669983.129883.150024.25.290039.369873.430054.950073,1.109985.360107,2.829956-1.069946,3.129944-.039917.01001-.079956.01001-.119995.02002-1.139893.26001-2.280029.51001-3.419922.790039-3,.709961-6.040039-.490051-7.390137-2.930054-.799927-1.440002-1.76001-2.679993-2.869873-3.699951-3.450073-3.340027-8.660034-4.240051-13.300049-4.820007-.419922-.049988-.849976-.080017-1.27002-.100037h-.159912c-.26001-.019958-.540039-.079956-.830078-.119995l-.290039-.039978c-3.209961-.48999-6.529968.539978-8.689941,2.960022-3.190002,3.559998-3.299988,8.529968-.809998,12.079956.200012.290039,1.25,1.340027,2.019958,2.100037.25.25.030029.669983-.319946.599976-1.190002-.22998-3.01001-.580017-3.950012-.710022-1.75-.369995-3.450012-.639954-5.100037-.899963-2.049988-.309998-4.009949-.630005-5.699951-1.090027-.160034-.039978-.27002-.159973-.300049-.320007-.469971-3.709961.730042-11.669983,1.220032-14.919983.330017-2.169983.609985-4.039978.719971-5.5l.050049-.710022-.070007-.709961c-.650024-6.340027-4.790039-8.440002-6.540039-9.049988-4.26001-1.490051-8.709961.059998-13.219971,4.599976-2.580017,2.409973-4.320007,5.210022-5.859985,7.690002-1.100037,1.76001-2.130005,3.419983-3.100037,4.359985-.899963.850037-4.73999.359985-7.580017-1.72998-.009949-.01001-.019958-.02002-.029968-.02002-4.5-4.080017-7.140015-9.390015-8.02002-16.289978l-.039978-.25c-.650024-4.01001-1.359985-7.950012-2.849976-11.929993-1.310059-3.610046-3.350037-7.230042-5.890015-10.470032-.98999-1.320007-1.929993-2.419983-2.76001-3.380005-.429993-.51001-.960022-1.119995-1.349976-1.630005-.090027-.119995-.110046-.299988-.050049-.449951.170044-.400024.309998-.700012.429993-.900024,1.640015.26001,5.01001,1.929993,7.110046,2.969971,3.72998,1.840027,7.579956,3.740051,11.709961,4.420044,4.460022.919983,12.570007.529968,17.600037-4.23999,3.019958-2.880005,4.329956-6.890015,3.609985-11l-.220032-1.220032c-.084503-.209625-.21637-.536743-.300903-.746338l-.729065-1.093628c-3.25-4.780029-7.919983-6.540039-11.320007-7.830017-.219971-.080017-.419983-.160034-.619995-.25-4.280029-1.830017-9.22998-1.640015-13.080017.97998-1.589966,1.080017-3.070007,2.350037-4.380005,3.790039l-.049988.059998c.150024.339966-10.700012-2.720032-15.959961-.320007-4.650024,2.119995-7.910034,6.609985-9.670044,13.339966l-.23999.910034-.02002.940002c-.109985,5.880005,3.040039,9.549988,5.570007,12.509949.73999.870056,1.450012,1.690002,2.130005,2.610046l.140015.190002c1.539978,1.940002,2.799988,4.149963,3.570007,6.269958.98999,2.660034,1.52002,5.590027,2.059998,8.869995,1.419983,10.740051,5.929993,19.530029,13.419983,26.130005l.369995.309998c6.160034,4.790039,17.859985,3.550049,24.429993,2.01001,2.360046-.559998,4.400024-2.029968,5.690002-4.079956.900024-1.430054,1.660034-2.940002,2.23999-4.480042.610046-1.859985.850037-3.859985,1.040039-5.809998l.039978-.419983c0-.26001.160034-.309998-.299988-.460022l1,.090027c-.469971.070007-.330017.140015-.380005.399963l-.029968.420044c-.180054,1.98999-.400024,3.97998-1,5.889954-.01001.01001-.01001.02002-.02002.030029-.52002,1.400024-1.160034,2.73999-1.900024,4.02002-1.48999,2.579956-1.940002,5.630005-1.25,8.519958.980042,4.160034,2.75,9.540039,6.070007,11.330017l.580017.289978c3.890015,1.700012,7.97998,2.350037,11.589966,2.910034,1.590027.25,3.090027.48999,4.51001.799988l.630005.109985c1.01001.130005,2.280029.390015,3.619995.660034,2.860046.570007,6.080017,1.219971,9.289978,1.219971,3.130127,0,6.26001-.619995,9.02002-2.539978l.560059-.429993c1.699951-1.420044,2.829956-3.200012,3.47998-5.150024v-.01001c.23999-.690002.199951-1.799988-.080078-2.469971-3.139893-7.619995-4.530029-13.309998-15.26001-13.950012,10.400146.320007,12.320068,5.630005,15.450073,12.76001.670044,1.529968,2.01001,2.649963,3.640015,3.02002,3.639893.829956,10.339966,2.22998,14.179932,1.319946,1.790039-.429993,3.560059-.819946,5.400024-1.199951.829956-.170044,1.619995-.330017,2.359985-.470032,6.310059-1.26001,12.27002-2.440002,14.380127-8.719971.819824-2.440002-.880127-7.820007-1.25-8.75-.030029-.080017-.070068-.150024-.110107-.210022-1.419922-2.26001-2.849976-3.840027-4.599976-5.890015-1.299927-1.469971-1.960083-3.849976-2.859985-5.390015-.400024-.639954-1.030029-1.189941-1.800049-1.699951-2.939941-1.950012-6.22998-3.300049-9.050049-5.530029-.339844-.27002-.099854-.820007.320068-.75,1.609985.23999,3.130005.76001,4.580078,1.400024.01001,0,.02002.01001.029907.01001,2.800049,1.469971,5.990112,2.419983,8.089966,5.049988,1.290039,1.820007,1.540039,3.539978,2.950073,5.099976,1.299927,1.530029,2.890015,2.880005,4.039917,4.690002.199677.309387.568573.688477.908081,1.018005.6586.399048,1.290802.782104,1.949402,1.181152,1.880646.610535,3.87149.910889,6.022644.780823,5.26001-.299988,10.039917-3.179993,14.199951-8.559998,1.630005-2.029968,3.51001-4.069946,5.5-6.22998,3.580078-3.880005,7.27002-7.899963,9.969971-12.309998l.01001-.01001c.459961-.75.790039-1.579956.97998-2.450012.180054-.829956.26001-1.649963.26001-2.449951,0-1.76001-.409912-3.440002-1.130005-4.990051-1.619995-3.48999-4.900024-5.939941-8.640015-6.829956-6.869873-1.630005-14.209961-1.859985-21.099976-2.590027,6.73999.5,13.890015.530029,20.660034,1.850037,4.27002.829956,8.73999.559998,12.699951-1.26001,7.320068-3.359985,12.280029-9.559998,14.540039-18.27002l.030029-.150024c1.309937-5.509949.719971-10.319946-1.76001-14.279968-2.77002-4.409973-7.150024-6.690002-11.640015-8.140015-1.160034-.369995-1.75-1.679993-1.23999-2.779968.769897-1.670044,1.329956-3.540039,1.359985-5.619995,0-.200012,0-.400024-.01001-.590027v-.02002c0-1.169983-.709961-2.199951-1.76001-2.709961-.080078-.049988-.159912-.090027-.23999-.130005-1.909912-1.040039-3.800049-2.119995-5.659912-3.190002-7.5-4.309998-15.26001-8.77002-23.570068-9.559998-5.540039-.530029-12.76001,1.039978-17.810059,2.450012-1.72998.47998-3.109985,1.769958-3.699951,3.459961l-.01001.030029-.030029.079956-.412262,1.217377c-.029541.229797-.058197.45282-.087738.682648l.090088,1.27002c.309937,4.209961,2.299927,7.959961,4.059937,11.26001l.089966.159973c.5.950012.02002,2.150024-1.02002,2.419983-7.23999,1.960022-12.27002,8.220032-16.780029,13.830017-2.079834,2.590027-5.949951,7.419983-7.509888,7.710022,0,0-.030029-.01001-.099976-.030029-.25-.089966-.620117-.5-.790039-1.099976-.880005-2.98999,2.339966-6.580017,7.369995-11.710022,2.119995-2.159973,4.309937-4.399963,6.150024-6.820007l.179932-.23999c3.440063-4.880005,3.690063-10.539978.690063-15.51001-1.940063-3.200012-4.869995-5.599976-7.450073-7.709961-.409912-.340027-.819946-.680054-1.22998-1.01001-.689941-.580017-.790039-1.640015-.22998-2.410034,2.560059-3.529968,4.130005-7.299988,3.540039-12.869995-.030029-.219971-.110107-.440002-.22998-.619995-.700073-1.080017-1.110107-2.330017-1.310059-3.599976-.23999-1.440002-1.349976-2.580017-2.77002-2.910034l-.030029-.01001c-1.119873-.209961-2.189941-.609985-3.149902-1.169983,1.02002.450012,2.109985.720032,3.199951.799988.47998.059998.97998.01001,1.459961.01001.390137-.01001.780029.01001,1.150024.130005,0-.059998-.009888-1.089966-.079956-1.539978-.300049-1.940002-1.320068-3.799988-2.350098-5.609985-2.569946-4.440002-5.189941-8.900024-8.22998-13.040039,1.630127,1.98999,3.060059,4.140015,4.52002,6.26001,2.02002,3.030029,4.130127,5.970032,5.920044,9.140015.069946-.140015.140015-.27002.219971-.400024.960083-1.390015,1.670044-2.849976,1.890015-4.549988-.02002,1.669983-.599976,3.359985-1.399902,4.820007-.150146.320007-.240112.649963-.25.940002,1.389893,8.789978,3.069824,10.52002,3.069824,10.52002,1.620117,3.039978,3.330078,6.149963,5.490112,9.059998,1.049927,1.409973,2.25,2.579956,3.569946,3.47998,1.52002,1.029968,3.860107,1.690002,5.820068,2.089966,2.059937.420044,4.189941.340027,6.23999-.139954,2.72998-.650024,5.5-1.160034,8.300049-1.280029.01001-.01001.019897-.01001.029907-.01001.780029-.149963,5.400024-.070007,6.5.429993,0,.030029,2.089966.630005,3.339966,1.120056.01001.009949.030029.009949.050049.019958.090088.030029.169922.070007.23999.100037h.02002c.890015.309998,1.790039.569946,2.699951.829956,1.890015.540039,3.800049,1.040039,5.650024,1.820007,2.75,1.190002,5.069946,3.01001,7.589966,4.390015,2.030029,1.130005,4.190063,2.080017,6.219971,3.320007.050049.029968.100098.070007.170166.109985,1.48999.97998,3.129883,1.720032,4.849854,2.169983.410034.110046.820068.220032,1.219971.320007,14.930176,5,20.170166-6.690002,22.430176-11.709961.209961-.470032.439941-.920044.679932-1.380005l.099976-.200012c4.450073-8.700012,3.960083-17.850037,3.52002-25.919983-.069946-1.230042-.140015-2.450012-.180054-3.670044l-.01001-.109985c-.26001-4.960022.700073-10.23999,1.719971-15.830017.23999-1.299988.480103-2.619995.710083-3.929993l.039917-.26001c.040039-.289978.090088-.619995.150146-.959961.529907-3.27002,1.529907-9.359985-3.450073-12.98999ZM67.32713,168.614426c-5.030029,1.75-10.220032,3.540039-14.100037,3.27002-.339966-.030029-.839966-.059998-1-.950012-.179993-1.01001.410034-1.279968.690002-1.409973,4.620056-2.110046,10.710022-3.25,13.110046-3.640015.289978-.049988.619995-.049988.97998-.02002,1.51001.130005,1.75,2.26001.320007,2.75ZM388.877118,168.614426c-1.430054-.48999-1.190063-2.619995.319946-2.75.360107-.029968.690063-.029968.97998.02002,2.400146.390015,8.48999,1.529968,13.110107,3.640015.280029.130005.869995.399963.689941,1.409973-.159912.890015-.659912.919983-1,.950012-3.879883.27002-9.069946-1.52002-14.099976-3.27002Z" fill="#ba9266"/><ellipse cx="189.559776" cy="278.245645" rx="5.879742" ry="13.716319" transform="translate(-130.213198 383.596454) rotate(-73.969385)" fill="#c18e5b"/><ellipse cx="267.287349" cy="278.245645" rx="13.716319" ry="5.879742" transform="translate(-66.909009 85.434959) rotate(-16.168469)" fill="#c18e5b"/></svg>