<?xml version="1.0" encoding="UTF-8"?><svg id="Layer_1" xmlns="http://www.w3.org/2000/svg" width="243.772702" height="720.907881" xmlns:xlink="http://www.w3.org/1999/xlink" viewBox="0 0 243.772702 720.907881"><defs><radialGradient id="radial-gradient" cx="72.045412" cy="360.453941" fx="72.045412" fy="360.453941" r="281.856013" gradientUnits="userSpaceOnUse"><stop offset="0" stop-color="#efffe1"/><stop offset=".156142" stop-color="#e7fad5"/><stop offset=".430864" stop-color="#d1edb8"/><stop offset=".789296" stop-color="#afd989"/><stop offset="1" stop-color="#99cc6a"/></radialGradient><radialGradient id="radial-gradient-2" cx="76.464923" cy="90.192687" fx="76.464923" fy="90.192687" r="16.215103" gradientTransform="translate(4.52775 218.636914) scale(1.216598 1.101583)" gradientUnits="userSpaceOnUse"><stop offset="0" stop-color="#ecf6e0"/><stop offset=".110281" stop-color="#e2edd4"/><stop offset=".304404" stop-color="#c8d5b7"/><stop offset=".55956" stop-color="#9eb087"/><stop offset=".862577" stop-color="#657c46"/><stop offset="1" stop-color="#496326"/></radialGradient></defs><path d="M134.867464,217.787663c-12.918399,3.714648-27.866754,3.317611-32.444421-9.448891-4.868204-13.576769-17.461864-44.265378,9.065273-49.355843,12.767528-4.203815,28.011738-3.370118,32.443924,9.447596,4.392121,12.701848,17.429158,41.738885-9.064776,49.357137Z" fill="none" stroke="#231f20" stroke-miterlimit="10" stroke-width=".75"/><path d="M158.616703,449.457764c-12.247779,5.538552-25.551601,8.785721-33.680993-2.740938-8.312776-11.78668-25.995474-39.856941-1.031002-50.170862,11.663226-6.682141,25.552732-8.117559,33.680246,2.73977,8.369037,11.179974,26.813482,38.513307,1.031749,50.17203Z" fill="none" stroke="#231f20" stroke-miterlimit="10" stroke-width=".75"/><path d="M147.301765,527.941554c-13.129526-2.880833-26.087647-10.343945-24.038128-23.750588,2.179598-14.257539,5.708183-47.241476,31.461338-39.094278,13.22963,2.378811,26.240149,10.366763,24.038307,23.749213-2.181938,13.261478-4.53459,45.003861-31.461517,39.095653Z" fill="none" stroke="#231f20" stroke-miterlimit="10" stroke-width=".75"/><path d="M120.110104,609.593392c-13.01554-3.395674-25.448244-11.905107-22.178062-26.845596,3.477735-15.888737,9.992934-52.667014,35.299372-43.219134,13.161607,2.836535,25.600373,11.932665,22.178366,26.844064-3.391074,14.776607-8.60652,50.184746-35.299676,43.220667Z" fill="none" stroke="#231f20" stroke-miterlimit="10" stroke-width=".75"/><path d="M126.108563,152.004512c-13.325961-1.575968-27.804918-8.031933-26.323576-19.365743,1.445947-11.063001.506752-40.324093,26.829459-34.271254,13.325989,1.574794,27.803559,8.030617,26.323603,19.364569-1.437508,11.008873-.506752,40.324093-26.829486,34.272428Z" fill="none" stroke="#231f20" stroke-miterlimit="10" stroke-width=".75"/><path d="M110.234092,75.066085c-2.066208-.137523-4.186035-.192749-5.675293-.234375l-.138184-.003906c-2.096654-.058506-4.022521-.858693-5.484454-2.164608-.892884-.797595-1.612711-1.783838-2.092694-2.904972-2.067627-4.829834-4.923828-9.38916-8.412598-13.391113-.689453-.791504-1.405273-1.563965-2.121094-2.335449-1.21582-1.311768-2.365234-2.550659-3.402344-3.894165-.004883-.005981-.009277-.011841-.013672-.0177-.846191-1.098145-.997559-2.538574-.478516-3.805054.846191-2.063354,2.280762-5.220459,3.791016-7.095093,1.108398-1.376221,2.254883-2.800049,3.186523-4.308105,3.356445-5.433716,3.784424-11.59021,3.408203-18.395752-.09082-1.641602.613037-3.21228,1.869873-4.35022,2.298584-2.081177,3.336914-5.319214,2.407471-8.499756-1.33252-4.559692-5.012207-3.202881-9.685059-1.986328-4.672852,1.216553-8.569336,1.832153-7.236816,6.391724.867432,2.969482,3.234863,5.148926,6.071289,5.972778,2.159668.627197,3.606201,2.576538,3.662598,4.708618.14502,5.498535-.449951,10.460205-3.089355,14.73291-.838867,1.358398-1.928711,2.711548-2.983398,4.020508l-.05127.063721c-2.056885,2.558594-6.327393,1.518799-6.875-1.651123-.544434-3.15332-.665039-6.142334-.594238-8.681519.013672-.489014.03418-.978882.054688-1.46936.065918-1.584961-.997559-6.411621-1.598145-9.007812-.240234-1.037598-.10791-2.095703.246582-3.103638,1.516602-4.313721-.665527-9.304565-5.365234-11.694702-5.222168-2.655884-6.916992,1.27356-9.531738,5.854492-2.614746,4.580811-5.15918,8.078369.062988,10.734131,3.478027,1.768799,7.453125,1.661987,10.494385.041992.973877-.518921,2.19751-.049927,2.429688.982666l.004639.020508c.431641,1.927002.347656,3.935181.259766,6.060791-.021484.503418-.041992,1.005737-.055664,1.506836-.189453,6.754395.904297,16.512695,7.18457,24.642578,1.115234,1.445312,2.362305,2.790283,3.568359,4.09082.696289.750488,1.391602,1.500244,2.0625,2.27002,1.982422,2.274048,3.745605,4.739258,5.260498,7.336182,1.342202,2.300634.689016,4.855859-1.01636,6.43619-1.236875,1.146182-3.027234,1.779539-5.011228,1.430998l-.100098-.017578c-11.607422-2.048706-20.610352-7.433472-24.697266-14.773315-.416992-.748413-.787109-1.5177-1.179688-2.332153-.771484-1.604004-1.570312-3.262695-2.75293-4.755127-2.780273-3.506104-7.419922-5.807373-14.185547-7.035156-1.369141-.248535-2.762695-.455444-4.111328-.655518l-.058594-.008545c-3.509277-.520996-6.785889-3.666992-7.3396-6.979004-.864746-5.17334-2.483643-9.060059-10.066162-6.502808-2.45752.828857-4.215088,2.928955-4.378662,5.387573-.504883,7.589844-4.072266,14.284912,3.456787,15.37146,3.253174.46936,6.389404-.426147,8.76416-2.231567,2.446289-1.859741,5.541504-2.779053,8.643799-2.315918.171143.025391.341797.050781.512451.076172,1.323242.196289,2.691406.399536,4.010742.63916,1.780455.323185,3.378232.726905,4.813509,1.207232.933471.312393.846306,1.671809-.113599,1.889844-4.018.912658-8.111087,1.496026-12.235067,1.743744l-.421875.025391c-2.203125.132324-4.701172.282104-6.821289,1.520508-1.12207.656372-1.973633,1.515869-2.796875,2.346924-.616211.622681-1.198242,1.210327-1.844727,1.658813-.173096.119995-.351318.230591-.534424.332397-1.937256,1.077881-4.380615.161621-5.374268-1.742676-1.828369-3.503662-5.633789-5.920654-10.045654-5.944336-3.640625-.019409-6.307129,2.987549-5.960938,6.408447.773193,7.641357-1.781494,14.882324,5.895752,14.882324,4.729492,0,8.774902-2.749268,10.448242-6.646484.723389-1.685059,2.140869-3.036133,3.999023-3.515381,1.177002-.303467,2.316895-.776123,3.348633-1.492432.871094-.604248,1.578125-1.317139,2.260742-2.006714.720703-.728149,1.401367-1.415405,2.183594-1.873169,1.481445-.86499,3.400391-.980225,5.432617-1.101929l.428711-.026245c4.180664-.258545,8.368164-.847656,12.446289-1.749634.91748-.202881,1.710205-.493286,2.363037-.855591,1.585205-.879395,3.746582-.525757,4.85376.859863l.024414.030273c.988281,1.246338,1.685547,2.695312,2.423828,4.229248.392578.81543.797852,1.658325,1.254883,2.47876,4.517578,8.111328,14.287109,14.030273,26.802734,16.23938,6.549805,1.155884,13.272461,1.343994,19.773438,1.526001,3.910156.109741,7.944668.371229,11.889648.547119,2.431448.108408,4.760742,2.765869,5.355469,4.126953,0,0,3.486328,6.670898,5.57373,8.751831.817383.814575,1.120117,1.963501.73877,3.026001-4.01123,11.184937-24.669922,72.147949-9.6875,101.490112,1.993164,3.901978,4.350586,7.567505,6.629883,11.112793,3.867188,6.012939,7.519531,11.692627,9.015625,17.833252.720516,2.957296.905131,5.931532.654516,8.874158-1.28356,15.0711-15.895264,25.070329-30.68126,21.882866-1.842917-.397283-3.695059-.698003-5.552602-.892156-42.813721-4.474854-67.630127,10.068604-66.667236,60.970703.916898,48.471818,39.998849,61.325228,57.901232,64.674973,6.436248,1.204297,12.318831,4.418048,16.756624,9.232777,10.92866,11.856915,25.589828,30.224909,30.447124,40.853968,5.973633,13.072998,8.87207,28.282715,9.399414,49.315918.206055,8.255127.146484,19.043945-2.161133,29.282959-2.507812,11.125732-7.482422,21.527832-12.75,32.540527-1.681641,3.516846-3.421875,7.153076-5.056641,10.785156-11.470947,25.468262-18.610352,52.199951-21.286865,79.636963-.389404,3.991455-2.611084,7.568115-6.005371,9.977051-4.842529,3.436523-8.140869,8.517578-11.364014,13.500732-.856445,1.324707-1.714844,2.6521-2.583008,3.922119-2.282227,3.161865-4.675781,5.491699-7.323242,7.127441-3.337891,2.087402-7.235352,3.235596-11.361328,4.451172-2.568359.756104-5.222656,1.53833-7.682617,2.550537-14.13208,5.274902-23.190918,16.029053-24.251709,28.783936-.060059.72168.417725,1.445312,1.167236,1.598389.107178.021973.214355.032959.321777.032959.777344,0,1.43457-.566406,1.494141-1.309814.774902-9.744629,6.712891-18.238037,16.265625-23.634521,2.209961-1.248535,4.975586.184326,5.264648,2.600342.07666.640869.346191,1.562744.685547,2.540771,1.047852,3.020996.354004,6.33667-1.797852,8.782227-2.02832,2.305176-4.236328,5.065918-4.798828,6.652588-.996094,2.80835-1.714844,4.837646-5.240234,6.226807-2.761918,1.05551-6.284053,2.621336-9.073665,5.399963-.495617.493665-.609675,1.318032-.174003,1.865326.306617.385174.758342.575531,1.208606.575531.399414,0,.797852-.149902,1.092773-.446533,2.400391-2.410645,5.574219-3.814941,8.086914-4.775146,4.796875-1.890381,5.888672-4.969238,6.944336-7.947266.391113-1.102539,1.327881-2.282227,2.07959-3.422119.909424-1.37915,2.88916-1.889893,4.325684-.995361,2.435059,1.516113.028809,3.828369-.868164,6.299805-.364258.972168-.751953,1.937256-1.138672,2.902344-.803223,2.001221-1.633545,4.069824-2.25,6.200439-.231445.799561.278809,1.704346,1.141357,1.858398.09375.016846.186768.024902.279541.024902.661133,0,1.266602-.415771,1.447266-1.047119.581055-2.029785,1.397461-4.065186,2.1875-6.033691.394531-.984863.790039-1.969727,1.166016-2.974609,3.137695-8.644775.979492-13.459717-.753906-17.328613-.892578-1.992188-1.648682-3.680176-1.646973-5.627441.002686-3.063477,2.26123-5.722168,5.359375-6.634521l.052246-.015381c4.144531-1.220947,8.430664-2.483398,12.117188-4.788818,1.168701-.722168,2.289551-1.559082,3.372803-2.521484,1.470703-1.306641,3.883545-.309814,3.866455,1.596436-.012939,1.458984-.039307,2.878418-.088867,3.827637-.079102,2.319824-1.577148,4.30542-4.625977,6.097412-2.644531,1.68042-4.519531,3.661865-5.581055,5.904053-1.324219,2.887695-1.628906,6.114746-1.923828,9.236084-.208984,2.205322-.424316,4.484375-1.007324,6.53833-.228271.804932.276855,1.701172,1.144043,1.856934.09375.016602.187012.024902.279297.024902.65918,0,1.263672-.413818,1.446289-1.042969.671875-2.321045.902344-4.763428,1.125977-7.125488.286133-3.031006.556641-5.894043,1.682617-8.3479.820312-1.73584,2.337891-3.315186,4.464844-4.666992,3.865234-2.271484,5.881836-5.092041,5.992188-8.359375.142578-2.730957.119141-5.506592.09668-8.190186-.004883-.570312-.017578-1.412842-.038574-2.27002-.056641-2.305908.637451-4.567383,1.992432-6.486572,2.515137-3.562256,6.694092-9.068115,9.849609-11.141113,1.145264-.752686,2.705322.052246,2.639404,1.368164l-.001465.029297c-.018511.412838.006716.817901.072284,1.211066.236678,1.41918.067453,2.882103-.334758,4.26352-1.168317,4.012651-1.45662,8.296643-.801002,12.683129,3.161133,15.698242-4.803711,20.796631-12.505859,25.727539-7.0625,4.520996-14.366211,9.196289-10.836914,21.514893.180664.630859.786133,1.046631,1.447266,1.046631.129883,0,.261719-.016113.392578-.049805.799805-.203613,1.272461-.981201,1.056641-1.736084-2.970703-10.369141,2.586914-13.927246,9.624023-18.432129.773926-.495361,1.557373-.99707,2.339111-1.514404,2.275146-1.506104,5.393311.102295,5.238281,2.721191-.032715.550293-.069336,1.104492-.106689,1.66333l-.094727,1.462402c-.080078,2.435059.521484,4.774902,1.103516,7.037598.430664,1.670898.836914,3.249023.982422,4.86377.408203,3.757812-.100586,7.653809-.592773,11.433105-.101562.775879.483398,1.477295,1.305664,1.572754.061523.007324.123047.010498.183594.010498.74707,0,1.395508-.530518,1.489258-1.248047.511719-3.924072,1.041016-7.981934.600586-12.032715-.163086-1.807617-.615234-3.566895-1.052734-5.267822-.560547-2.175293-1.088867-4.229492-1.023438-6.242676l.092773-1.409912c.172852-2.585693.343262-5.231689.097168-7.893555-.178467-1.927734.147461-3.888672,1.161377-5.570312,2.548096-4.225342,3.716797-9.883545,2.057861-18.118164-.459961-3.082764-.228027-6.09668.149414-9.034424.380859-2.964844,6.455078-3.244385,7.166992.073486,1.837402,8.558594,3.721191,16.062744,15.114258,18.678955l.020996.005859c.955078.259521,1.387207,1.308594.861328,2.104736-2.303711,3.488037-2.241211,7.583252-2.172363,11.574219.057617,3.313721.111328,6.445068-1.163086,9.119385-1.398438,2.287354-3.410156,4.169434-5.539062,6.161377-.934394.873849-1.899507,1.776789-2.804462,2.714829-.551804.571978-.5765,1.527935.020365,2.05272.290915.255783.65862.38211,1.025308.38211.408203,0,.81543-.156738,1.111328-.465088.870117-.90625,1.830078-1.804443,2.758789-2.67334,1.20752-1.12915,2.94043-3.114502,4.255371-4.672852.852539-1.01001,2.568359-.700439,2.945801.540771.00293.009766.005859.019043.008789.02832.623047,2.12793.813477,4.40625,1.014648,6.818115.387695,4.64624.788086,9.450684,4.447266,13.337646.295898.315186.708008.475586,1.12207.475586.485658,0,.977403-.223017,1.281075-.677581.367965-.550804.201509-1.286361-.246949-1.773874-2.910438-3.163908-3.251804-7.255173-3.613227-11.583945-.203125-2.438721-.414062-4.960693-1.115234-7.359131-.25-.831055-.521484-1.656738-.792969-2.481934-.274753-.835737-.884209-2.608888-1.348519-3.691004-.288464-.672291-.440664-1.397414-.399609-2.127826.078101-1.389487.056176-2.789192.032307-4.170916-.045166-2.590332-.086914-5.100342.540039-7.349365.689453-2.4729,4.270752-2.753418,5.389893-.424805.384766.800537.655762,1.657471.801514,2.560059.387695,1.84082.492188,3.731445.602539,5.733154.079102,1.434326.161133,2.91748.352539,4.33667.961914,9.415283,7.722656,17.049072,14.563477,24.061279.295898.303223.699219.456787,1.103516.456787.448931,0,.899554-.189509,1.207763-.572882.443773-.551995.312896-1.374734-.181564-1.881827-6.736061-6.908167-12.837314-13.819803-13.711746-22.377811l-.003418-.026123c-.193848-1.478027,1.214844-2.691895,2.760254-2.391357,4.024902.783447,5.731689,3.486572,7.892578,6.939453,1.217773,1.946289,2.597656,4.151855,4.616211,6.180664,1.783203,1.631592,3.939453,2.60083,6.024414,3.53833.537109.241943,1.074219.48291,1.62793.748047,3.241211,1.473145,5.744141,4.031494,7.765625,6.340088.296875.338867.725586.513916,1.157227.513916.357525,0,.718367-.120565,1.008369-.367876.594861-.507294.597484-1.436908.081652-2.024381-2.217572-2.525564-4.984778-5.319334-8.683771-7.000321-.548828-.262695-1.107422-.513916-1.666992-.765625-1.952148-.87793-3.796875-1.70752-5.176758-2.967773-1.741211-1.752441-2.976562-3.726318-4.170898-5.63501-2.182129-3.487305-4.426025-7.057861-9.523438-8.187744-2.378906-.5271-4.172119-2.312012-4.58252-4.585938-.033691-.185303-.070312-.369629-.108887-.553223-.822266-5.098145-4.772461-9.081543-10.625977-10.670898-7.19043-1.651611-10.07373-10.311035-11.260254-16.993896-.794189-4.474365,3.190186-8.453369,7.947021-7.804688,3.186279.43457,6.539795,1.30957,8.752686,2.973145,1.223633.959961,2.357422,1.924805,3.455078,2.857666,2.292969,1.949707,4.521973,3.841797,7.16333,5.299805,2.221436,1.226318,3.993164,3.027588,5.253418,5.145508,3.186279,5.354248,8.455322,7.947266,13.588135,10.461182,5.488281,2.6875,10.671875,5.226074,13.632812,11.005371,1.616211,3.051514,2.379883,6.395752,3.189453,9.937012,1.050781,4.604492,2.138672,9.365479,5.261719,13.44165.293945.382568.751953.585938,1.216797.585938.304688,0,.612305-.087158.87793-.268799.671875-.458008.822266-1.343506.336914-1.977295-2.754883-3.593994-3.729492-7.861084-4.760742-12.378418l-.015137-.06543c-.68457-3.015137,2.788086-5.337402,5.583008-3.740967,3.780518,2.159912,5.473633,4.783447,7.127441,7.352295,2.12793,3.304932,4.327148,6.722168,10.730469,8.037598l.163086.024414c4.313477.425293,7.197266,1.628418,9.350586,3.900635.296875.3125.707031.471436,1.119141.471436.367974,0,.73804-.127409,1.02895-.386878.608713-.542925.543479-1.505141-.024452-2.090593-2.626115-2.707135-6.152445-4.204012-11.076764-4.702461-2.039551-.42749-3.896973-1.736084-5.197998-2.96167-.954834-.89917-.259277-2.441895,1.0896-2.438721,3.051025.006592,6.101318.012939,9.141602-.004639.142578.008301.283203.012451.420898.012451,3.491211-.000488,5.447266-2.61792,6.760742-4.375732.477539-.639404.316406-1.522949-.361328-1.973145-.677734-.451172-1.613281-.298828-2.089844.340576-1.674805,2.241455-2.791992,3.286377-4.579102,3.167236l-.057617-.003906-.057617.000244c-3.195312.018555-6.397461.010254-9.601562.003662h-.052246c-3.008545-.006592-5.860107-1.313477-7.673584-3.57959-2.400879-3.000488-6.016357-6.155762-13.366943-8.430908-1.129883-.349609-11.052734-8.632812-16.734375-11.414795-2.691895-1.318359-5.314941-2.605957-7.592773-4.266602-2.637207-1.922363-.942871-5.927734,2.379395-5.6875.525391.038086.99707.068848,1.381348.089355,1.481445.079346,2.961914.158203,4.451172.275879,13.008789.884766,25.84082,4.350342,38.136719,10.300537.219727.105957.453125.15625.683594.15625.663086,0,1.297119-.41626,1.468994-1.11792.157959-.645752-.25415-1.303223-.87915-1.604736-12.62915-6.096436-25.815674-9.648438-39.177734-10.557373-1.498047-.118408-3.005859-.198975-4.514648-.279785-2.439453-.130371-4.961914-.265381-7.443359-.575684-6.422852-.554199-9.886719-3.5-14.272461-7.229492-1.119141-.951416-2.275391-1.935547-3.569336-2.949951-4.512939-3.393066-9.739258-4.531006-14.40918-4.66748-2.626953-.07666-4.636475-2.234131-4.426025-4.707275l.00293-.034424c.223633-2.630127,2.00293-4.977783,4.644531-5.840088,5.932861-1.937012,13.18042-.809326,17.702393.284668,1.337891.324219,2.686523.675293,4.040039,1.027832,5.212891,1.358887,10.549805,2.749512,15.869141,2.749512,2.310547,0,4.618164-.262695,6.910156-.904297.366227-.102544.72806-.214121,1.085989-.333025,3.058788-1.016124,6.35343-1.142964,9.421089-.153945,5.455438,1.758843,9.635,3.751773,13.42847,5.563142,8.896484,4.248291,16.577148,7.914551,34.803711,6.169678,6.868164-.138184,11.760742.943604,15.352539,3.402344.266602.182129.574219.269775.879883.269775.53125,0,1.054932-.266113,1.331299-.762451.352051-.631836.093506-1.432373-.520752-1.848633-4.152344-2.812988-9.595215-4.047119-17.168945-3.890869l-.119141.006836c-17.396484,1.679443-24.369141-1.654541-33.204102-5.873291-2.773682-1.324463-5.749512-2.743408-9.269043-4.106201-2.167725-.839111-1.970459-3.812744.294922-4.37793,7.858887-1.960449,16.253662-2.575439,25.355957-3.056396.833496-.044189,1.576904-.668457,1.55542-1.456055-.021729-.801514-.717041-1.426758-1.582764-1.378906-12.65918.666992-24.003906,1.57251-34.660156,5.919678-.78418.330566-1.561523.68042-2.337891,1.030762-1.867188.842041-3.630859,1.637451-5.5,2.160645-6.744141,1.88916-14.056641-.016602-21.12793-1.859863-1.371094-.357422-2.737305-.713379-4.09375-1.041504-4.82666-1.16748-10.665527-1.969971-16.037354-1.08252-3.098877.511963-5.869629-1.895996-5.446533-4.838379,3.214355-22.361084,9.567627-44.168945,18.986816-65.083252,1.580078-3.50708,3.289062-7.080811,4.942383-10.536865,5.318359-11.120117,10.818359-22.618652,13.616211-35.035645,2.588867-11.485352,2.665039-23.201904,2.442383-32.126953-.568359-22.68042-3.792969-39.299561-10.458008-53.88623-6.468308-14.151369-16.360847-26.288231-26.173554-37.952774-1.549121-1.841468-2.302087-4.282709-1.826721-6.641693.281117-1.395027.95019-2.495275,2.210433-2.92346,51.069177-17.35145,52.747391-68.851984,29.908186-95.917968-8.647345-10.247681-11.553087-24.335665-7.411199-37.088559,2.512172-7.734988,2.970609-15.558044,1.166878-22.962729-1.96582-8.067993-6.341797-14.870972-10.572266-21.450317-2.217773-3.447998-4.3125-6.7052-6.032227-10.073486-14.259766-27.927002,7.237793-90.729004,12.422852-94.085205,5.254395-3.400879,15.160645-4.623291,19.821289-3.612549,1.270508.275635,2.551758.574219,3.839844.873779,7.805664,1.819214,15.878906,3.699707,23.549805,1.075806,7.420898-2.538696,12.170898-8.665894,14.848633-13.358765,2.189453-3.834717,3.788086-7.949707,5.333984-11.929077.71582-1.841797,1.456055-3.745728,2.240234-5.582886,1.413086-3.311157,3.251953-7.091919,6.165039-10.026001.950684-.95813,1.981934-1.774902,3.061035-2.438599,2.676025-1.646362,6.217773-.969238,8.246338,1.359863,1.829834,2.101074,4.747559,3.341064,7.904053,3.069702,4.990234-.429077,4.228027-4.088013,3.788574-8.644653-.439941-4.556763-.390625-8.285645-5.380859-7.856689-3.087646.265503-5.673584,1.914795-7.093262,4.212891-1.032715,1.671631-2.651611,2.988525-4.620605,3.527832-2.915527.798584-5.731201,2.452637-8.094727,4.833008-.260986.262695-.513672.530762-.758301.803223-1.476562,1.643799-4.340088.298706-3.699219-1.769775.141602-.457275.324707-.901611.555176-1.331055.759766-1.41687,2.006836-2.602295,3.327148-3.857422,1.481445-1.407959,3.012695-2.864502,3.977539-4.778076,1.25-2.480225,1.286133-5.215576,1.317383-7.629395.065918-5.16626.126953-10.470093-.496826-15.733276-.243896-2.058838.461182-4.095581,1.940674-5.625854,2.013184-2.082031,2.876953-5.119507,2.003906-8.107056-1.33252-4.559692-5.012207-3.202881-9.685059-1.986328-4.672852,1.216553-8.569336,1.832153-7.236816,6.391724.844482,2.890625,3.110107,5.032471,5.846191,5.904297,2.394287.762939,4.075684,2.813965,4.300781,5.189941.438477,4.63501.385498,9.338745.327148,13.932129-.027344,2.122314-.058594,4.527832-1.026367,6.447021-.745117,1.478027-2.033203,2.702637-3.397461,3.999756-1.425781,1.355957-2.900391,2.757568-3.874023,4.572998-1.062988,1.981323-1.035645,5.306641-.725098,8.160889.434082,3.990112-.177734,8.026855-1.651855,11.788818-.026855.068604-.052734.134644-.077148.197754-1.509766,3.88623-3.071289,7.904785-5.158203,11.561279-2.430664,4.259033-6.699219,9.805176-13.229492,12.039551-6.820312,2.330811-14.44043.554077-21.80957-1.162842-1.303711-.303223-2.600586-.605591-3.886719-.884521-6.379883-1.383667-15.016602-.806885-20.238281-.438354-1.713867.120972-2.511719-2.018677-1.063477-2.891846.01416-.008423.027832-.016724.041992-.025024,2.895508-1.730713,6.629883-2.678833,11.098633-2.818848,1.428711-.043457,2.923828-.010742,4.367188.021973,3.826172.088135,7.783203.176514,11.543945-1.106934,8.881836-3.033691,12.907227-12.072998,15.983398-20.307861l6.15625-16.485596c.528564-1.415039,1.733398-2.455566,3.196289-3.041992,1.374268-.550903,2.495117-1.664795,2.962891-3.142334.825684-2.607666-1.429199-3.012817-4.127441-3.77417-2.69873-.761353-4.819336-1.590576-5.64502,1.01709-.445801,1.408691-.202637,2.847412.539307,3.994385.686279,1.061035.864014,2.344971.42627,3.517334l-6.338623,16.973633c-1.322998,3.542725-2.829102,7.238403-4.829102,10.442871-1.071777,1.716797-3.865234.579712-3.27002-1.332031.700684-2.250244,1.616455-4.438721,2.733887-6.517822.307617-.572388.630859-1.138916.953125-1.705322.833984-1.461426,1.695312-2.972778,2.311523-4.613159,1.231445-3.282593,1.369141-6.77063,1.40918-10.354126.065918-5.949463-.052979-11.955811-.338379-17.922363-.074463-1.554688.799316-2.957397,2.180176-3.807861,1.358643-.836914,2.268799-2.099854,2.388672-3.568359.230469-2.820801-2.743164-2.806396-6.387695-3.071533-3.644531-.265015-6.580566-.709229-6.811035,2.111694-.147705,1.812378.941895,3.49231,2.706543,4.532349,1.820312,1.072754,2.887695,3.002441,2.977295,5.026489.246094,5.553589.345703,11.136597.284424,16.670044-.038086,3.462402-.158203,6.562256-1.237305,9.437988-.539062,1.435181-1.308594,2.786499-2.125,4.217163-.333984.586304-.668945,1.173462-.987305,1.766235-1.663086,3.094727-3.391602,8.162842-4.496094,11.678711-.811035,2.582031-2.937012,4.605225-5.668457,5.383057-2.172363.618652-4.678711,1.19043-6.419434,1.151611-1.485352-.034058-3.022461-.068115-4.539062-.02124-5.010742.156738-9.250977,1.252319-12.604492,3.256836-1.59871.955784-8.937852,1.829101-12.773125.390443-1.007198-.377812-2.23318-1.970401-2.322175-2.327285-1.006853-4.037672-4.642643-6.864976-8.803831-6.897581-2.154065-.016878-4.367065-.063867-5.968546-.170459Z" fill="url(#radial-gradient)" stroke="#345417" stroke-miterlimit="10"/><path d="M117.547788,317.991841c.378706,23.487831-40.367941,23.488027-39.985895-.001617-.378815-23.486214,40.367832-23.48641,39.985895.001617Z" fill="url(#radial-gradient-2)"/></svg>