<?xml version="1.0" encoding="UTF-8"?><svg id="Layer_1" xmlns="http://www.w3.org/2000/svg" width="564.31817" height="115.08962" viewBox="0 0 564.31817 115.08962"><path d="M215.14444,90.12166c-3.43257-.45925-6.37552-7.35856-7.66765-14.25263-1.39009-7.4159-1.38955-17.65287.33162-28.77479,1.70545-11.02128,4.76886-20.76628,8.31013-27.51087,3.35455-6.38881,7.11159-8.90929,10.74142-8.71884" fill="none" stroke="#631c25" stroke-linecap="round" stroke-miterlimit="10" stroke-width="2.5"/><path d="M193.08244,78.77151c-3.42961-.48089-2.536,2.45755-3.78463-4.44452-1.34331-7.42451-1.27822-17.66128.51302-28.77212,1.7749-11.01031,4.89969-20.7358,8.48341-27.45793,3.39476-6.36754,7.16762-8.86427,10.79618-8.65095" fill="none" stroke="#631c25" stroke-linecap="round" stroke-miterlimit="10" stroke-width="2.5"/><path d="M67.55171,15.38819c-4.45341-.48974-2.07326,5.8861-5.3034,16.04643-1.95417,6.14751,2.58223,14.83828,1.87287,23.03437-.7302,8.43743-.53364,16.34981.3973,22.92123,1.46857,10.36265,13.23804,18.6032,17.61207,19.08432" fill="none" stroke="#631c25" stroke-miterlimit="10" stroke-width="2.5"/><path d="M216.84238,21.33839c1.83474,7.43457,2.49114,17.68191,1.52462,28.84755-.9752,11.26764-14.52668,20.05647-17.64212,26.95824-2.89607,6.41615-11.44358,28.47185-20.83754,29.82052-8.84267,1.26952-20.58285.18647-31.16048-1.28018-4.12599-.57209-8.31443-.4404-12.39705.38626h0c-10.21596.79627-20.42741-1.68688-29.10546-7.13585-10.51576-6.60287-22.39365-15.76168-23.25295-21.8314-.92513-6.53718-12.31888-12.94967-11.58152-21.34479.71633-8.15499,2.20511-15.63763,4.1643-21.75555,3.23843-10.11141,7.83354-16.48503,12.28588-16.00163" fill="none" stroke="#631c25" stroke-linecap="round" stroke-miterlimit="10" stroke-width="2.5"/><path d="M55.34716,15.99874l52.83153,5.17858c3.48683.34178,6.26129,4.6913,7.94101,11.48195l-62.54625-6.34237,1.77371-10.31817Z" fill="#a8ddf3" stroke="#34444a" stroke-miterlimit="10" stroke-width=".42989"/><path d="M53.57278,26.31518l62.54646,6.34239c1.75438,7.08756,2.3235,16.83623,1.2822,27.45945-1.05723,10.78576-3.56386,20.36244-6.72689,26.98528l-61.94237-6.07163,4.84061-54.71549Z" fill="#f2737d" stroke="#631c25" stroke-miterlimit="10" stroke-width=".42989"/><path d="M48.73217,81.03067l61.94237,6.07163c-2.94036,6.15641-6.45159,9.76452-9.88285,9.42818l-52.97053-5.1922.91061-10.30343.00041-.00418Z" fill="#fabe78" stroke="#785b3a" stroke-miterlimit="10" stroke-width=".42989"/><line x1="116.23528" y1="32.67063" x2="116.11977" y2="32.65931" fill="none" stroke="#2e3191" stroke-miterlimit="10" stroke-width=".42989"/><path d="M39.17586,74.35046c1.39006,9.90064,4.62967,16.5968,8.99473,17.02466,3.43669.33687,6.94328-3.27338,9.88297-9.43155l-8.25371-28.13268-10.62399,20.53957Z" fill="#d9a568" stroke="#634b30" stroke-miterlimit="10" stroke-width=".42989"/><path d="M55.55727,16.01667c-4.44424-.43563-9.00588,5.72933-12.30696,15.47111l6.54954,22.32311,13.67004-26.42936c-1.68382-6.72294-4.4425-11.02472-7.91262-11.36486Z" fill="#8dbacc" stroke="#263136" stroke-miterlimit="10" stroke-width=".42989"/><path d="M43.25032,31.48778c-1.9972,5.89432-3.53321,13.09762-4.30214,20.94221-.79156,8.07542-.65373,15.6419.22769,21.92047l10.62399-20.53957-6.54954-22.32311Z" fill="#2aba78" stroke="#10472e" stroke-miterlimit="10" stroke-width=".42989"/><path d="M58.05356,81.94357c3.16255-6.62437,5.66923-16.19725,6.72632-26.98154,1.04752-10.68674.46768-20.48306-1.30999-27.5805l-13.67004,26.42936,8.25371,28.13268Z" fill="#d1636c" stroke="#4d161d" stroke-miterlimit="10" stroke-width=".42989"/><path d="M1.25,110.74785s35.32213,5.9731,46.41812,1.31479c10.88529-4.56986,19.81602-21.33254,22.71209-27.74869,3.11544-6.90176,5.55144-16.89139,6.52664-28.15902.96651-11.16565.31011-21.41299-1.52462-28.84755-1.73804-7.04242-4.53358-11.56156-8.01075-11.94395" fill="none" stroke="#631c25" stroke-linecap="round" stroke-miterlimit="10" stroke-width="2.5"/><path d="M116.1921,32.65002l-24.16237-2.43375c-.00718-.04221-.01854-.08393-.03011-.12561-1.53824-6.14404-3.97909-10.26374-7.03964-11.18207l23.28324,2.26503c3.48552.34011,6.26563,4.68548,7.94888,11.4764Z" fill="#f9bd77" stroke="#785b3a" stroke-miterlimit="10" stroke-width=".42989"/><path d="M117.48269,60.05707c-1.04664,10.78745-3.55065,20.36672-6.70548,26.99106l-24.19454-2.31483c.01264-.02834.01883-.09472.03147-.12306,3.15848-6.62922,5.65885-16.20361,6.71032-26.98763,1.03108-10.62362.46982-20.32392-1.28937-27.40726l24.15035,2.38517c1.75919,7.08334,2.33247,16.83222,1.29725,27.45654Z" fill="#32db8d" stroke="#145c3b" stroke-miterlimit="10" stroke-width=".42989"/><path d="M110.7772,87.04814c-2.93746,6.16002-6.4482,9.77074-9.88046,9.43455l-22.50352-2.19246c2.86699-.88477,5.71481-4.46984,8.14705-9.54974l24.23693,2.30765Z" fill="#a9dcf2" stroke="#34454b" stroke-miterlimit="10" stroke-width=".42989"/><path d="M82.08877,96.47025c3.44293.3738,6.72884-3.49388,9.63002-9.87987,3.12093-6.86933,5.5652-16.81021,6.54998-28.02135.976-11.10966.32854-21.30428-1.49952-28.69943-1.73171-7.00508-4.52294-11.49881-7.99928-11.87626" fill="none" stroke="#631c25" stroke-miterlimit="10" stroke-width="2.5"/><path d="M196.8073,10.02976l52.83153,5.17858c3.48683.34178,6.26129,4.6913,7.94101,11.48195l-62.54625-6.34237,1.77371-10.31817Z" fill="#a8ddf3" stroke="#34444a" stroke-miterlimit="10" stroke-width=".42989"/><path d="M195.03292,20.34619l62.54646,6.34239c1.75438,7.08756,2.3235,16.83623,1.2822,27.45945-1.05723,10.78576-3.56386,20.36244-6.72689,26.98528l-61.94237-6.07163,4.84061-54.71549Z" fill="#f2737d" stroke="#631c25" stroke-miterlimit="10" stroke-width=".42989"/><path d="M190.19232,75.06168l61.94237,6.07163c-2.94036,6.15641-6.45159,9.76452-9.88285,9.42818l-52.97053-5.1922.91061-10.30343.00041-.00418Z" fill="#fabe78" stroke="#785b3a" stroke-miterlimit="10" stroke-width=".42989"/><line x1="257.69543" y1="26.70165" x2="257.57992" y2="26.69032" fill="none" stroke="#2e3191" stroke-miterlimit="10" stroke-width=".42989"/><path d="M180.63601,68.38147c1.39006,9.90064,4.62967,16.5968,8.99473,17.02466,3.43669.33687,6.94328-3.27338,9.88297-9.43155l-8.25371-28.13268-10.62399,20.53957Z" fill="#d9a568" stroke="#634b30" stroke-miterlimit="10" stroke-width=".42989"/><path d="M197.01742,10.04769c-4.44424-.43563-9.00588,5.72933-12.30696,15.47111l6.54954,22.32311,13.67004-26.42936c-1.68382-6.72294-4.4425-11.02472-7.91262-11.36486Z" fill="#8dbacc" stroke="#263136" stroke-miterlimit="10" stroke-width=".42989"/><path d="M184.71046,25.51879c-1.9972,5.89432-3.53321,13.09762-4.30214,20.94221-.79156,8.07542-.65373,15.6419.22769,21.92047l10.62399-20.53957-6.54954-22.32311Z" fill="#2aba78" stroke="#10472e" stroke-miterlimit="10" stroke-width=".42989"/><path d="M199.51371,75.97459c3.16255-6.62437,5.66923-16.19725,6.72632-26.98154,1.04752-10.68674.46768-20.48306-1.30999-27.5805l-13.67004,26.42936,8.25371,28.13268Z" fill="#d1636c" stroke="#4d161d" stroke-miterlimit="10" stroke-width=".42989"/><path d="M257.65225,26.68103l-24.16237-2.43375c-.00718-.04221-.01854-.08393-.03011-.12561-1.53824-6.14404-3.97909-10.26374-7.03964-11.18207l23.28324,2.26503c3.48552.34011,6.26563,4.68548,7.94888,11.4764Z" fill="#f9bd77" stroke="#785b3a" stroke-miterlimit="10" stroke-width=".42989"/><path d="M258.94283,54.08809c-1.04664,10.78745-3.55065,20.36672-6.70548,26.99106l-24.19454-2.31483c.01264-.02834.01883-.09472.03147-.12306,3.15848-6.62922,5.65885-16.20361,6.71032-26.98763,1.03108-10.62362.46982-20.32392-1.28937-27.40726l24.15035,2.38517c1.75919,7.08334,2.33247,16.83222,1.29725,27.45654Z" fill="#32db8d" stroke="#145c3b" stroke-miterlimit="10" stroke-width=".42989"/><path d="M252.23735,81.07915c-2.93746,6.16002-6.4482,9.77074-9.88046,9.43455l-22.50352-2.19246c2.86699-.88477,5.71481-4.46984,8.14705-9.54974l24.23693,2.30765Z" fill="#a9dcf2" stroke="#34454b" stroke-miterlimit="10" stroke-width=".42989"/><path d="M215.17518,90.12166c3.45438-.24652,6.81754-6.95104,8.53269-13.75222,1.84515-7.31596,2.47642-17.53345,1.44498-28.7404-1.02197-11.10553-3.47809-21.02102-6.59633-27.97131-2.95384-6.58367-6.49262-10.22935-10.12728-10.2633" fill="none" stroke="#631c25" stroke-linecap="round" stroke-miterlimit="10" stroke-width="2.5"/><path d="M492.30443,81.97722c-3.43257-.45925-6.37552-7.35856-7.66765-14.25263-1.39009-7.4159-1.38955-17.65287.33162-28.77479,1.70545-11.02128,4.76886-20.76628,8.31013-27.51087,3.35455-6.38881,7.11159-8.90929,10.74142-8.71884" fill="none" stroke="#631c25" stroke-linecap="round" stroke-miterlimit="10" stroke-width="2.5"/><path d="M470.24242,70.62707c-3.42961-.48089-2.536,2.45755-3.78463-4.44452-1.34331-7.42451-1.27822-17.66128.51302-28.77212,1.7749-11.01031,4.89969-20.7358,8.48341-27.45793,3.39476-6.36754,7.16762-8.86427,10.79618-8.65095" fill="none" stroke="#631c25" stroke-linecap="round" stroke-miterlimit="10" stroke-width="2.5"/><path d="M344.7117,7.24376c-4.45341-.48974-2.07326,5.8861-5.3034,16.04643-1.95417,6.14751,2.58223,14.83828,1.87287,23.03437-.7302,8.43743-.53364,16.34981.3973,22.92123,1.46857,10.36265,13.23804,18.6032,17.61207,19.08432" fill="none" stroke="#631c25" stroke-miterlimit="10" stroke-width="2.5"/><path d="M494.00236,13.19395c1.83474,7.43457,2.49114,17.68191,1.52462,28.84755-.9752,11.26764-14.52668,20.05647-17.64212,26.95824-2.89607,6.41615-11.44358,28.47185-20.83754,29.82052-8.84267,1.26952-20.58285.18647-31.16048-1.28018-4.12599-.57209-8.31443-.4404-12.39705.38626h0c-10.21596.79627-20.42741-1.68688-29.10546-7.13585-10.51576-6.60287-22.39365-15.76168-23.25295-21.8314-.92513-6.53718-12.31888-12.94967-11.58152-21.34479.71633-8.15499,2.20511-15.63763,4.1643-21.75555,3.23843-10.11141,7.83354-16.48503,12.28588-16.00163" fill="none" stroke="#631c25" stroke-linecap="round" stroke-miterlimit="10" stroke-width="2.5"/><path d="M332.50714,7.85431l52.83153,5.17858c3.48683.34178,6.26129,4.6913,7.94101,11.48195l-62.54625-6.34237,1.77371-10.31817Z" fill="#a8ddf3" stroke="#34444a" stroke-miterlimit="10" stroke-width=".42989"/><path d="M330.73276,18.17074l62.54646,6.34239c1.75438,7.08756,2.3235,16.83623,1.2822,27.45945-1.05723,10.78576-3.56386,20.36244-6.72689,26.98528l-61.94237-6.07163,4.84061-54.71549Z" fill="#f2737d" stroke="#631c25" stroke-miterlimit="10" stroke-width=".42989"/><path d="M325.89216,72.88624l61.94237,6.07163c-2.94036,6.15641-6.45159,9.76452-9.88285,9.42818l-52.97053-5.1922.91061-10.30343.00041-.00418Z" fill="#fabe78" stroke="#785b3a" stroke-miterlimit="10" stroke-width=".42989"/><line x1="393.39527" y1="24.5262" x2="393.27975" y2="24.51488" fill="none" stroke="#2e3191" stroke-miterlimit="10" stroke-width=".42989"/><path d="M316.33585,66.20602c1.39006,9.90064,4.62967,16.5968,8.99473,17.02466,3.43669.33687,6.94328-3.27338,9.88297-9.43155l-8.25371-28.13268-10.62399,20.53957Z" fill="#d9a568" stroke="#634b30" stroke-miterlimit="10" stroke-width=".42989"/><path d="M332.71726,7.87224c-4.44424-.43563-9.00588,5.72933-12.30696,15.47111l6.54954,22.32311,13.67004-26.42936c-1.68382-6.72294-4.4425-11.02472-7.91262-11.36486Z" fill="#8dbacc" stroke="#263136" stroke-miterlimit="10" stroke-width=".42989"/><path d="M320.4103,23.34335c-1.9972,5.89432-3.53321,13.09762-4.30214,20.94221-.79156,8.07542-.65373,15.6419.22769,21.92047l10.62399-20.53957-6.54954-22.32311Z" fill="#2aba78" stroke="#10472e" stroke-miterlimit="10" stroke-width=".42989"/><path d="M335.21355,73.79914c3.16255-6.62437,5.66923-16.19725,6.72632-26.98154,1.04752-10.68674.46768-20.48306-1.30999-27.5805l-13.67004,26.42936,8.25371,28.13268Z" fill="#d1636c" stroke="#4d161d" stroke-miterlimit="10" stroke-width=".42989"/><path d="M344.53127,7.21899c3.47754.38239,6.27295,4.90152,8.01074,11.94394,1.83496,7.43457,2.49121,17.68192,1.5249,28.84756-.9751,11.26764-3.41113,21.25726-6.52686,28.15903-2.896,6.41614-11.82666,23.17883-22.71191,27.74869-10.26553,4.30971-53.91907-1.88472-53.91907-1.88472-12.99238-.98716-24.53662-9.44561-28.47997-21.8644-.20449-.64399-.31213-1.50955-.39291-3.10378-.38183-7.5353,2.71822-16.75922,1.68648-27.96616-1.02197-11.10553-3.47803-21.02103-6.59619-27.97131-2.9541-6.58368-6.49268-10.22937-10.12744-10.26331" fill="none" stroke="#631c25" stroke-linecap="round" stroke-miterlimit="10" stroke-width="2.5"/><path d="M393.35209,24.50559l-24.16237-2.43375c-.00718-.04221-.01854-.08393-.03011-.12561-1.53824-6.14404-3.97909-10.26374-7.03964-11.18207l23.28324,2.26503c3.48552.34011,6.26563,4.68548,7.94888,11.4764Z" fill="#f9bd77" stroke="#785b3a" stroke-miterlimit="10" stroke-width=".42989"/><path d="M394.64267,51.91264c-1.04664,10.78745-3.55065,20.36672-6.70548,26.99106l-24.19454-2.31483c.01264-.02834.01883-.09472.03147-.12306,3.15848-6.62922,5.65885-16.20361,6.71032-26.98763,1.03108-10.62362.46982-20.32392-1.28937-27.40726l24.15035,2.38517c1.75919,7.08334,2.33247,16.83222,1.29725,27.45654Z" fill="#32db8d" stroke="#145c3b" stroke-miterlimit="10" stroke-width=".42989"/><path d="M387.93719,78.9037c-2.93746,6.16002-6.4482,9.77074-9.88046,9.43455l-22.50352-2.19246c2.86699-.88477,5.71481-4.46984,8.14705-9.54974l24.23693,2.30765Z" fill="#a9dcf2" stroke="#34454b" stroke-miterlimit="10" stroke-width=".42989"/><path d="M359.24876,88.32582c3.44293.3738,6.72884-3.49388,9.63002-9.87987,3.12093-6.86933,5.5652-16.81021,6.54998-28.02135.976-11.10966.32854-21.30428-1.49952-28.69943-1.73171-7.00508-4.52294-11.49881-7.99928-11.87626" fill="none" stroke="#631c25" stroke-miterlimit="10" stroke-width="2.5"/><path d="M473.96729,1.88532l52.83153,5.17858c3.48683.34178,6.26129,4.6913,7.94101,11.48195l-62.54625-6.34237,1.77371-10.31817Z" fill="#a8ddf3" stroke="#34444a" stroke-miterlimit="10" stroke-width=".42989"/><path d="M472.19291,12.20176l62.54646,6.34239c1.75438,7.08756,2.3235,16.83623,1.2822,27.45945-1.05723,10.78576-3.56386,20.36244-6.72689,26.98528l-61.94237-6.07163,4.84061-54.71549Z" fill="#f2737d" stroke="#631c25" stroke-miterlimit="10" stroke-width=".42989"/><path d="M467.3523,66.91725l61.94237,6.07163c-2.94036,6.15641-6.45159,9.76452-9.88285,9.42818l-52.97053-5.1922.91061-10.30343.00041-.00418Z" fill="#fabe78" stroke="#785b3a" stroke-miterlimit="10" stroke-width=".42989"/><line x1="534.85542" y1="18.55721" x2="534.7399" y2="18.54589" fill="none" stroke="#2e3191" stroke-miterlimit="10" stroke-width=".42989"/><path d="M457.79599,60.23704c1.39006,9.90064,4.62967,16.5968,8.99473,17.02466,3.43669.33687,6.94328-3.27338,9.88297-9.43155l-8.25371-28.13268-10.62399,20.53957Z" fill="#d9a568" stroke="#634b30" stroke-miterlimit="10" stroke-width=".42989"/><path d="M474.17741,1.90325c-4.44424-.43563-9.00588,5.72933-12.30696,15.47111l6.54954,22.32311,13.67004-26.42936c-1.68382-6.72294-4.4425-11.02472-7.91262-11.36486Z" fill="#8dbacc" stroke="#263136" stroke-miterlimit="10" stroke-width=".42989"/><path d="M461.87045,17.37436c-1.9972,5.89432-3.53321,13.09762-4.30214,20.94221-.79156,8.07542-.65373,15.6419.22769,21.92047l10.62399-20.53957-6.54954-22.32311Z" fill="#2aba78" stroke="#10472e" stroke-miterlimit="10" stroke-width=".42989"/><path d="M476.6737,67.83015c3.16255-6.62437,5.66923-16.19725,6.72632-26.98154,1.04752-10.68674.46768-20.48306-1.30999-27.5805l-13.67004,26.42936,8.25371,28.13268Z" fill="#d1636c" stroke="#4d161d" stroke-miterlimit="10" stroke-width=".42989"/><path d="M534.81223,18.5366l-24.16237-2.43375c-.00718-.04221-.01854-.08393-.03011-.12561-1.53824-6.14404-3.97909-10.26374-7.03964-11.18207l23.28324,2.26503c3.48552.34011,6.26563,4.68548,7.94888,11.4764Z" fill="#f9bd77" stroke="#785b3a" stroke-miterlimit="10" stroke-width=".42989"/><path d="M536.10282,45.94365c-1.04664,10.78745-3.55065,20.36672-6.70548,26.99106l-24.19454-2.31483c.01264-.02834.01883-.09472.03147-.12306,3.15848-6.62922,5.65885-16.20361,6.71032-26.98763,1.03108-10.62362.46982-20.32392-1.28937-27.40726l24.15035,2.38517c1.75919,7.08334,2.33247,16.83222,1.29725,27.45654Z" fill="#32db8d" stroke="#145c3b" stroke-miterlimit="10" stroke-width=".42989"/><path d="M529.39734,72.93472c-2.93746,6.16002-6.4482,9.77074-9.88046,9.43455l-22.50352-2.19246c2.86699-.88477,5.71481-4.46984,8.14705-9.54974l24.23693,2.30765Z" fill="#a9dcf2" stroke="#34454b" stroke-miterlimit="10" stroke-width=".42989"/><path d="M492.33517,81.97722c3.45438-.24652,6.81754-6.95104,8.53269-13.75222,1.84515-7.31596,2.47642-17.53345,1.44498-28.7404-1.02197-11.10553-3.47809-21.02102-6.59633-27.97131-2.95384-6.58367-6.49262-10.22935-10.12728-10.2633" fill="none" stroke="#631c25" stroke-linecap="round" stroke-miterlimit="10" stroke-width="2.5"/><path d="M563.06817,94.89703l-18.88062-1.38411c-2.2821-.1673-4.52387-.68148-6.63618-1.56133-6.12712-2.55217-17.48179-9.04226-18.11352-22.2565-.36029-7.5364,2.4764-17.53345,1.44489-28.74039-1.02187-11.10552-3.47802-21.02102-6.59623-27.97131-2.95399-6.58368-6.49276-10.22935-10.12735-10.2633" fill="none" stroke="#631c25" stroke-linecap="round" stroke-miterlimit="10" stroke-width="2.5"/></svg>