<?xml version="1.0" encoding="UTF-8"?><svg id="Layer_1" xmlns="http://www.w3.org/2000/svg" width="474.965649" height="665.474609" xmlns:xlink="http://www.w3.org/1999/xlink" viewBox="0 0 474.965649 665.474609"><defs><radialGradient id="radial-gradient" cx="237.482825" cy="332.737305" fx="237.482825" fy="332.737305" r="288.07444" gradientUnits="userSpaceOnUse"><stop offset=".005587" stop-color="#fee5c4" stop-opacity=".8"/><stop offset=".346692" stop-color="#fee2bd" stop-opacity=".8"/><stop offset=".750194" stop-color="#fedaab" stop-opacity=".8"/><stop offset="1" stop-color="#ffd39c" stop-opacity=".8"/></radialGradient><radialGradient id="radial-gradient-2" cx="214.813862" cy="178.482017" fx="214.813862" fy="178.482017" r="25.333333" gradientTransform="translate(-30.078543 98.072839) scale(1.172515 1.332342)" gradientUnits="userSpaceOnUse"><stop offset="0" stop-color="#ffe5cf"/><stop offset=".352941" stop-color="#f6d1b2"/><stop offset="1" stop-color="#e5a874"/></radialGradient></defs><path d="M435.810473,547.067871l-41.691566-.000009c-10.555997-.000002-20.470379-5.660837-25.319284-15.037254-9.750012-18.853776,8.272547-35.128701-5.191314-55.89418-6.073227-7.460158-15.240219-9.06465-23.32811-10.47969-15.221736-1.331479-20.326246-8.178371-23.236324-22.633828-3.94565-13.944023-9.779004-27.592375-17.387231-40.077001-6.195734-10.166812-7.152272-22.708541-2.414108-33.63104,8.123827-18.72719,8.580047-41.302177,1.68189-60.671841-5.258758-14.766316-2.049915-31.414649,8.419785-43.080155,12.929352-14.406088,18.650701-33.753783,18.481507-61.246467-.067567-8.068302,1.595748-22.743391,3.951491-39.027351,3.15993-21.84287,22.065552-37.888652,44.133121-37.544335,29.714955.463638,60.219568-3.208866,61.028059-38.293338,3.130293-25.031223-10.333911-49.594619-37.710517-49.78402.001301-.000371-99.244793-.000371-99.244793-.000371-27.339958.193687-40.865696,24.746384-37.708562,49.785575,1.275254,24.738193,15.813637,34.078529,34.134475,37.009974,15.720215,2.51533,26.432355,17.268646,24.092817,33.015982-2.742802,18.461691-4.753945,35.598301-4.675713,44.938957.04077,4.368217-.07581,8.468657-.355631,12.32672-2.304953,31.77981-33.621071,53.702671-63.9956,44.076813-18.801984-5.958454-40.283839-4.896917-58.354624,2.877169-14.756946,6.348466-31.897571,2.970847-43.107439-8.536078-3.081137-3.162785-6.26283-6.237982-9.543152-9.222163-9.53932-8.67637-20.734221-17.367637-24.969689-28.564483-7.184901-23.692958,7.667185-47.186228,12.111102-75.830288,3.317257-21.381975,21.915515-36.977906,43.544397-36.357825,32.765271.939352,66.692229-2.257779,67.32457-38.476322,1.596525-30.04232.807618-63.705896-37.711327-65.710845.001728-.000178-159.297344-.000178-159.297344-.000178C18.644457,1,1.760912,17.883789,1.760912,38.710449c-6.530164,70.529578,29.859671,67.615575,75.040168,65.757562,22.930942-.943017,40.450755,20.134324,35.513829,42.547359-5.675813,25.76749-18.42112,49.00386-10.01105,74.684381,5.526421,14.240698,17.365937,23.371588,28.090591,33.117145,3.066641,2.78967,6.042336,5.663305,8.925171,8.617888,11.53059,11.817566,15.339527,29.276833,9.605887,44.760202-12.869127,34.752347,1.376754,78.724528,33.556212,97.233404,5.180452,2.979676,7.273211,9.630589,4.324417,14.828681-1.627462,2.868867-4.485831,4.81079-9.781607,5.894176-24.623109,4.736076-63.138878,12.988508-65.958168,41.917586-2.319618,27.918643,26.017181,48.562903-11.561122,64.482606-11.61944,5.092458-20.419492,12.552452-24.233459,22.461417-4.777314,12.411812-16.474529,20.765138-29.696987,22.194268-24.27902,2.624161-40.122434,13.855092-38.021551,49.558203-.000096,20.825492,16.883205,37.709281,37.710109,37.709281h99.246094c27.338024-.193185,40.866723-24.747098,37.70856-49.786063-.716543-38.850022-38.349003-39.046751-70.250678-38.010351-18.140305.58933-24.863355-23.593844-8.99132-32.397052,10.051939-5.575171,21.519385-10.860553,26.381579-22.557926,10.074768-29.638502-28.306683-55.646872,14.428204-74.619897,15.560611-7.304801,42.8206-5.326492,52.98323-19.942279,4.940086-7.104779,13.243682-11.065222,21.881742-10.549231,14.053685.839491,28.461169-2.149745,40.981798-8.256776,13.365184-6.518969,29.506935-.984737,36.076815,12.355496,4.045175,8.213783,7.330606,16.797802,9.773013,25.53212,2.230004,7.993399,4.196712,16.783132,11.269465,23.084023,10.083661,9.97172,28.709,5.497205,37.546397,14.383866,5.782058,11.552459-.707212,23.072456-.731965,36.386548-.025809,13.88172-10.157772,25.513661-23.765423,28.25859-20.279072,4.090685-32.842169,16.516052-30.946592,48.498497-.000096,20.826001,16.883449,37.709302,37.710109,37.709302h99.246094c20.826904,0,37.710449-16.883301,37.710449-37.710449,3.128594-25.034313-10.334453-49.594124-37.710449-49.785156Z" fill="url(#radial-gradient)" stroke="#8a5d3b" stroke-miterlimit="10" stroke-width="2"/><ellipse cx="221.793851" cy="335.871931" rx="29.703704" ry="30.56174" fill="url(#radial-gradient-2)"/></svg>