<?xml version="1.0" encoding="UTF-8"?><svg id="Layer_1" xmlns="http://www.w3.org/2000/svg" width="322.63371" height="308.24886" xmlns:xlink="http://www.w3.org/1999/xlink" viewBox="0 0 322.63371 308.24886"><defs><radialGradient id="radial-gradient" cx="170.14152" cy="48.25238" fx="170.14152" fy="48.25238" r="39.54833" gradientTransform="translate(9.05482) scale(.92347 1)" gradientUnits="userSpaceOnUse"><stop offset="0" stop-color="#1e3c48"/><stop offset=".48812" stop-color="#2e5f71"/><stop offset="1" stop-color="#4289a2"/></radialGradient><radialGradient id="radial-gradient-2" cx="153.71352" cy="206.35161" fx="153.71352" fy="206.35161" r="31.91722" gradientUnits="userSpaceOnUse"><stop offset="0" stop-color="#f1f7eb"/><stop offset=".19763" stop-color="#edf5e7"/><stop offset=".36977" stop-color="#e2f1dc"/><stop offset=".53249" stop-color="#d0e9ca"/><stop offset=".68935" stop-color="#b7deb1"/><stop offset=".84204" stop-color="#97d091"/><stop offset=".98967" stop-color="#70c06a"/><stop offset="1" stop-color="#6dbf67"/></radialGradient><radialGradient id="radial-gradient-3" cx="180.64307" cy="138.08174" fx="180.64307" fy="138.08174" r="33.24229" gradientUnits="userSpaceOnUse"><stop offset="0" stop-color="#ffecd2"/><stop offset=".20984" stop-color="#fee8c9"/><stop offset=".543" stop-color="#fedeb2"/><stop offset=".95579" stop-color="#fdce8d"/><stop offset="1" stop-color="#fdcd89"/></radialGradient></defs><path d="M139.58404,8.61103h.00003c5.64684-1.25027,11.39884-1.99651,17.18552-2.22958l16.7858-.67609c14.36777-.5787,27.63706,7.5735,33.38086,20.50805l3.89597,8.77339-25.55768,96.49077-45.23818-18.70514-16.68132-79.47759c-2.35078-11.20019,4.85928-22.16645,16.22901-24.68381Z" fill="#cfecf8" stroke="#05415a" stroke-miterlimit="10" stroke-width="4"/><path d="M306.82958,31.48109l-49.91998,99.02979-84.14001,166.93018-9.48004-156.05005-3.27791-54.04136c-1.21631-20.05276,3.28736-40.03861,12.98686-57.63157l7.42648-13.47015c4.87689-8.84569,14.20964-14.30513,24.31048-14.24748.04202.00024.08339.00046.12409.00066,42.98999.15991,79.42004,12.44971,101.96002,29.47998h.01001Z" fill="#cfecf8" stroke="#05415a" stroke-miterlimit="10" stroke-width="4"/><path d="M15.81701,40.61714l49.91998,99.02979,75.66244,150.11104c2.33763,4.63776,9.30476,3.20295,9.61969-1.98108l8.33793-137.24983,3.42006-56.38489c1.12346-18.52193-3.0364-36.98206-11.99545-53.23198l-10.86433-19.70571c-3.45099-6.2594-10.04758-10.13161-17.19517-10.09357l-4.93513.02626c-42.98999.15991-79.42004,12.44971-101.96002,29.47998h-.01001Z" fill="#cfecf8" stroke="#05415a" stroke-miterlimit="10" stroke-width="4"/><path d="M215.15283,45.85849c0,11.12751-21.92817,20.14815-48.97795,20.14815s-48.97795-9.02063-48.97795-20.14815,21.92817-15.36037,48.97795-15.36037,48.97795,4.23285,48.97795,15.36037Z" fill="url(#radial-gradient)"/><path d="M166.09723,291.79112c.92309,8.53797-6.52101,15.6758-14.99506,14.28313-33.57876-5.5185-93.88299-31.84662-113.14435-88.08136-12.24917-35.76221,4.44935-42.65112-10.23295-87.40547C12.26536,83.46403-2.32902,74.22226,3.19187,56.33677c4.03743-13.07967,16.93797-22.22429,27.67381-25.00314,12.24428-3.1693,15.26558,3.6001,34.63341,4.99271,26.42999,1.90042,34.87131-9.6942,49.70208-1.96219.84906.44265,11.77595,6.41021,15.98255,18.55906,3.01781,8.71557,1.28067,17.13599.46145,21.10694-1.74813,8.47366-4.73485,11.02645-5.55668,20.55645-.26659,3.0912-.57833,6.70619.30921,11.29003,2.27848,11.76744,9.18615,13.00891,9.58288,22.81671.23186,5.73068-.84063,11.68006-.84066,11.68015-.41372,2.29519-.97747,4.54168-.79754,7.77715.17245,3.10108.92005,5.31098,1.15655,6.06708,3.02003,9.65432.16612,20.05529-6.73935,27.44866-7.4281,7.96195-11.48298,18.98373-10.23894,30.65764.42706,4.00727,1.4448,7.80079,2.96512,11.30947,4.41992,10.23929,13.61382,16.29917,16.66304,18.48838,1.03975.73817,2.0845,1.39839,3.13154,1.98593,13.20375,7.40917,21.91475,20.84066,23.5422,35.89344l1.27468,11.78987Z" fill="#cfecf8" stroke="#05415a" stroke-miterlimit="10" stroke-width="4"/><path d="M288.53987,140.99333c5.90167-44.94751,38.05035-55.36401,31.12073-88.0022-2.81409-13.25439-12.10052-30.39087-25.34296-33.33105-9.58447-2.12817-13.927,4.80444-30.66663,4-13.16022-.63257-14.15973-5.09448-24.96069-4.22729-12.80191,1.02783-21.9274,8.19751-26.89694,11.97168-5.64899,4.29028-12.5769,9.55176-15.59369,18.88696-2.83618,8.77637-.9245,17.15894-.02301,21.11206,1.92371,8.43555,4.96283,10.92578,5.98236,20.43652.13855,1.29224.28693,2.67627.35434,4.18652l.008.19604c.17172,4.22046,3.64316,7.55347,7.8671,7.55347,5.67932,0,10.28333,4.604,10.28333,10.2832v45.81885c0,5.67944-4.604,10.28345-10.28333,10.28345h-5.47891c-4.5408,0-6.8501,5.45801-3.68817,8.71704l.07553.07788c6.08313,7.87939,6.41519,13.30688,5.71722,16.71509-1.42007,6.93433-7.65103,8.17993-8.30017,15.12769-.64529,6.90649,5.27817,8.18042,4.17636,15.05786-1.1442,7.14209-8.68307,12.95142-9.72513,13.73682-.7973.60083-1.49115,1.05396-1.97122,1.35303-1.5304.95117-2.71228,1.45508-4.02719,2.21948-2.02454,1.177-4.25577,2.72803-6.59384,4.82593-9.39502,8.43018-14.51031,20.63745-14.39621,33.25977l.07758,8.58081c-.74445,8.54199,6.82855,15.5376,15.25916,13.97388,29.00623-5.37964,63.80331-23.51074,74.11765-33.39453,12.03955-11.53662,30.27942-29.01465,37.20239-57.02271,7.92834-32.07544-8.74933-38.46118-4.29364-72.39624Z" fill="#cfecf8" stroke="#05415a" stroke-miterlimit="10" stroke-width="4"/><circle cx="153.71352" cy="206.35161" r="31.91722" fill="url(#radial-gradient-2)" stroke="#134d26" stroke-miterlimit="10" stroke-width="1.7"/><rect x="143.18662" y="109.67199" width="74.9129" height="56.81949" rx="10.63689" ry="10.63689" fill="url(#radial-gradient-3)" stroke="#93703e" stroke-miterlimit="10" stroke-width="1.77281"/></svg>