<?xml version="1.0" encoding="UTF-8"?><svg id="Layer_1" xmlns="http://www.w3.org/2000/svg" width="261.93362" height="300.27832" xmlns:xlink="http://www.w3.org/1999/xlink" viewBox="0 0 261.93362 300.27832"><defs><linearGradient id="linear-gradient" x1="132.17425" y1="286.4907" x2="132.17425" y2="39.80697" gradientUnits="userSpaceOnUse"><stop offset="0" stop-color="#1d3b47"/><stop offset=".10969" stop-color="#1f3f4c"/><stop offset=".25148" stop-color="#264d5c"/><stop offset=".35984" stop-color="#2e5c6e"/><stop offset=".59928" stop-color="#448ea8"/><stop offset=".64954" stop-color="#4897b3"/><stop offset=".74461" stop-color="#4ea4c3"/><stop offset=".85256" stop-color="#51accd"/><stop offset="1" stop-color="#53afd0"/></linearGradient><radialGradient id="radial-gradient" cx="133.7596" cy="200.69853" fx="133.7596" fy="200.69853" r="31.91722" gradientUnits="userSpaceOnUse"><stop offset="0" stop-color="#f1f7eb"/><stop offset=".19763" stop-color="#edf5e7"/><stop offset=".36977" stop-color="#e2f1dc"/><stop offset=".53249" stop-color="#d0e9ca"/><stop offset=".68935" stop-color="#b7deb1"/><stop offset=".84204" stop-color="#97d091"/><stop offset=".98967" stop-color="#70c06a"/><stop offset="1" stop-color="#6dbf67"/></radialGradient></defs><path d="M230.21217,150.17739c-3.90281,57.82872-24.39527,118.34879-56.32919,135.29331-7.25926,3.85185-9.47334-8.45246-37.63372-8.48471-27.22804-.03118-25.99923,13.10963-36.75896,8.53913-33.17942-14.09389-61.51263-58.71758-65.72024-136.40435-4.98462-92.03299,71.79404-109.3758,105.57179-109.31365,60.74064.11177,96.60122,25.45431,90.87032,110.37026Z" fill="url(#linear-gradient)"/><path d="M131.42404,285.05039c-.3295,8.5814-8.73329,14.55967-16.91437,11.94837-32.41788-10.34736-88.24761-45.17282-99.11845-103.61228-6.91326-37.16429,10.61015-41.54924,2.59855-87.96406C9.55407,56.55066-3.53967,45.283,4.52579,28.39159c5.89828-12.35269,19.99248-19.52215,31.01847-20.70873,12.5752-1.3533,14.57897,5.78377,33.53783,9.98069,25.87188,5.72726,35.91098-4.51518,49.45836,5.29322.77559.56153,10.71748,8.05602,13.11092,20.68778,1.71705,9.06201-1.22724,17.1399-2.61574,20.94931-2.96291,8.12896-6.28941,10.21982-8.48964,19.52871-.71369,3.01948-1.54831,6.55059-1.33743,11.2148.54138,11.97376,7.19477,14.20748,6.15968,23.96856-.60475,5.7034-2.5318,11.43331-2.53184,11.43339-.7434,2.21053-1.62813,4.35103-1.92106,7.57823-.28077,3.09316.1372,5.38834.26112,6.17081,1.58261,9.99109-2.75484,19.86588-10.66293,26.17537-8.50791,6.79594-14.1239,17.11011-14.59234,28.84077-.16078,4.02675.29395,7.92801,1.28737,11.62062,2.88245,10.77359,11.09637,18.10717,13.79445,20.71691.92123.88165,1.85876,1.68691,2.80912,2.42059,11.98466,9.25217,18.64784,23.80856,18.06691,38.93791l-.455,11.84984Z" fill="#cfecf8" stroke="#05415a" stroke-miterlimit="10" stroke-width="4"/><path d="M133.65622,285.63582c.28243,8.56972,8.63773,14.60952,16.82081,12.04893,28.1547-8.80995,60.53373-30.97253,69.59204-42.01861,10.57347-12.89373,26.59226-32.4277,30.11606-61.06273,4.03551-32.79336-13.28612-37.13861-12.92069-71.36311.48401-45.33075,31.15629-59.5171,20.37318-91.09243-4.37898-12.82264-15.64816-28.72566-29.14715-30.06111-9.77021-.96657-13.2525,6.43567-29.96821,7.63872-13.14139.94582-14.66732-3.3645-25.28706-1.21183-12.58712,2.55145-20.7897,10.76095-25.27222,15.10239-5.09535,4.93499-11.34435,10.98728-13.22305,20.61627-1.76626,9.05256,1.13414,17.14633,2.50191,20.96321,2.9187,8.14492,6.23383,10.25383,8.38348,19.57451.69728,3.02333,1.5127,6.55889,1.27648,11.22192-.60638,11.97065-7.27181,14.16819-6.28978,23.93474.57381,5.70662,2.4697,11.44689,2.46974,11.44698.73139,2.21453,1.60447,4.3598,1.8799,7.58855.26395,3.09465-.16647,5.38752-.29466,6.16933-1.63684,9.98232,2.64694,19.88051,10.52062,26.23287,8.47086,6.84207,14.0308,17.18658,14.43551,28.91959.13891,4.02758-.33701,7.92629-1.35045,11.61344-2.94091,10.75783-11.19454,18.04667-13.90674,20.64172-2.35065,2.24913-3.84207,2.99193-5.52812,4.26425-1.86912,1.41047-3.89861,3.217-5.96881,5.57925-8.31977,9.49345-11.93873,22.22524-10.3159,34.74365l1.10313,8.5095Z" fill="#cfecf8" stroke="#05415a" stroke-miterlimit="10" stroke-width="4"/><circle cx="133.7596" cy="200.69853" r="31.91722" fill="url(#radial-gradient)" stroke="#134d26" stroke-miterlimit="10" stroke-width="1.7"/></svg>