<?xml version="1.0" encoding="UTF-8"?><svg id="Layer_1" xmlns="http://www.w3.org/2000/svg" width="392.150024" height="219.109985" viewBox="0 0 392.150024 219.109985"><path d="M390.150024,73.700012c0,13.059998-9.450012,25.309998-25.960022,35.849976-33.559998-21.429993-96.279968-35.849976-168.119995-35.849976-71.829956,0-134.549988,14.419983-168.109985,35.849976C11.450012,99.01001,2,86.76001,2,73.700012,2,34.099976,88.890015,2,196.070007,2c107.190002,0,194.080017,32.099976,194.080017,71.700012Z" fill="rgba(227,244,247,.2)"/><path d="M364.190002,109.549988c-33.559998,21.429993-96.280029,35.849976-168.119995,35.849976-71.830017,0-134.549988-14.419983-168.109985-35.849976,33.559998-21.429993,96.279968-35.849976,168.109985-35.849976,71.839966,0,134.559998,14.419983,168.119995,35.849976Z" fill="rgba(226,243,247,.2)" stroke="#78b1cc" stroke-miterlimit="10" stroke-width="4"/><path d="M390.150024,73.700012c0,13.059998-9.450012,25.309998-25.960022,35.849976-33.559998,21.429993-96.280029,35.849976-168.119995,35.849976-71.830017,0-134.549988-14.419983-168.109985-35.849976C11.450012,99.01001,2,86.76001,2,73.700012,2,34.099976,88.890015,2,196.070007,2c107.190002,0,194.080017,32.099976,194.080017,71.700012Z" fill="none" stroke="#77b1cc" stroke-miterlimit="10" stroke-width="4"/><path d="M390.150024,73.700012v71.699951c0,39.600037-86.890015,71.710022-194.080017,71.710022C88.890015,217.109985,2,185,2,145.399963v-71.699951c0,13.059998,9.450012,25.309998,25.960022,35.849976,33.559998,21.429993,96.279968,35.849976,168.109985,35.849976,71.839966,0,134.559998-14.419983,168.119995-35.849976,16.51001-10.539978,25.960022-22.789978,25.960022-35.849976Z" fill="rgba(226,243,247,.2)" stroke="#78b1cc" stroke-miterlimit="10" stroke-width="4"/></svg>