<?xml version="1.0" encoding="UTF-8"?><svg id="Layer_1" xmlns="http://www.w3.org/2000/svg" width="572.638631" height="264.498053" viewBox="0 0 572.638631 264.498053"><path d="M351.338377,70.307363c-1.730103.97998-3.51001,1.879883-5.319946,2.709961-7.730103,3.530029-16.52002,7.609985-22.480103,11.699951-.75.52002-1.190063,1.330078-1.259888,2.170044-1.830078-1.200073-4.110107-1.660034-6.360107-1.150024-10.079956,2.290039-22.889893,5.080078-32.01001,7.919922-.819946-1.089844-4.833774-2.233106-5.503818-2.993116-2.379883-2.639893-6.29367-3.492084-7.703704-6.772113-7.030029-23.529907,32.41841-44.235741,50.498366-31.695824.720093.410034,1.369995.990112,1.97998,1.630005,2.630005,2.780029,6.01001,4.719971,9.76001,5.430054.599976.119995,1.160034.279907,1.650024.539917,3.109985,1.530029,6.540039,4.180054,10.119995,2.690063.869995-.390015,1.5-1.079956,2-1.920044-.089966.630005-.079956,1.280029.079956,1.969971.870117,2.560059,3.10918,6.571161,4.549243,7.771234Z" fill="#e9b684"/><path d="M344.531579,212.502309c-.119995.079834-.23999.149902-.359985.22998-2.47998,1.590088-5.02002,3.26001-7.52002,4.919922-8.359985,5.560059-17.699951,9.429932-27.540039,11.380127-14.589966,2.899902-32.69729,7.943346-46.657373,10.323229-6.369873,1.080078-13.063418,3.1744-18.75336,6.234459-14,7.509766-32.139316,8.532156-46.679233,2.552176-10.450073-2.47998-22.470093-13.51001-29.319946-23.550049-2.77002-4.059814-6.310059-7.539795-10.420044-10.25-1.950073-1.280029-3.950073-2.589844-6-3.909912.549927.109863,1.109985.169922,1.719971.169922,6.609985.23999,11.76001-3.779785,13.930054-9.929932,2.02002-4.159912-2.921747-4.242117-6.341913-4.582205-8.23999-.330078-16.248175-6.857737-17.468146-15.617746-.969971-7.47998-1.380005-15.910034-7.320068-21.26001-1.949951-1.77002-4.97998-3.01001-6.759888-4.719971-2.26001-2.790039,4.449951-2.02002,5.839966-1.600098,6.290039,1.090088,12.02002,3.360107,18.290039,3.469971,5.790039-.72998,6.099976-2.829956,4.349976-5.169922,2.5,1.560059,5.180054,2.079956,7.400024,1.109985,2.419922-1.059937,3.399902-3.51001,3.75-4.380005.800049-1.969971,1.52002-5.52002-.949951-11.219971-5.25-12.150024-16-13.290039-16.880127-19.560059-.27002-1.929932.450073-3.880005,1.76001-5.77002-.790039,1.75-.959961,3.590088-.159912,5.550049,1.619873,3.51001,6.609863,5.619995,11.030029,10.320068,2.319946,2.769897,6.859863,4.829956,6.939941-.48999.219971-4.130127,1.679932-7.720093,3.790039-11.030029,1.030029-1.620117,2.309937-3.060059,3.789917-4.27002,2.01001-1.650024,4.420044-3.390015,6.030029-4.709961,2.069946-1.650146,4.029907-2.23999,6.349976-3.350098,6.290039-2.899902,14.429932-7.089966,20.709961-10.630005,2.930054-1.640015,5.060059-3.069946,8.060059-4.079956,5.040039-1.699951,11.890039-4.912519,16.909937-7.552411-.190063.949951-.365325,1.658018.504548,2.237974,2.330078,1.540039,4.560415,2.907661,6.700308,4.277778,2.040039,1.589966,5.288791,3.321072,6.888889,5.611111,2.599976,4.119995,3.303052,11.186686,1.372998,15.416667-1.659912,3.090088-2.034158,6.00788-.984109,9.277778.570068,1.650024.291423,3.564034,1.411296,5.024117.420166.559937.516201,1.507036,1.106045,1.227006l18.730103,41.909912c.119995,16.360107-5.940063,20.97998-20.530029,26.159912-.859985-.149902-1.950073-.349854-3.160034-.559814-6.540039-1.150146-12.629883,3.629883-13.079956,10.25-.099976,1.590088-.180054,3.219971-.219971,4.820068-.230103,7.949951,4.543974,15.138272,11.724028,18.548428,1.409912.669922,2.718592,2.361862,4.518519,5.851852,2.290039,4.429932,6.767341,6.879505,11.657478,5.909534,14.280029-2.820068,30.349976-5.679932,44.25-8.609863,13.319946-1.670166,25.299927-9.650146,37.589966-15.97998Z" fill="#b0e2f9"/><path d="M367.207137,205.287123c-21.153541,2.368611-38.135484,22.727657-59.408688,25.384778-13.700213,2.892683-29.737846,5.66134-43.880364,8.440108-5.165723,1.014978-10.310117-1.671105-12.530385-6.444498-2.098823-4.512296-3.62612-6.213446-5.152939-7.038759-7.092298-3.833699-11.689917-11.040624-11.463386-19.099571.045085-1.603934.1159-3.233491.223551-4.831309.446593-6.628623,6.546781-11.404973,13.090205-10.255327.047801.008398.095419.016766.142845.025103,1.997471.351104,4.054913.172187,5.947783-.555967,9.114435-3.506162,14.362325-7.154558,16.479637-14.810621,1.450171-5.243726.845258-10.840415-1.374267-15.807645-5.129814-11.480368-16.442426-36.796218-16.442426-36.796218,3.041393-3.956659,11.270767-11.968243,14.870292-15.53019,1.825243-2.301243,6.059142-8.364701,9.3127-12.02357,1.376964-1.548499,3.144358-2.685184,5.11756-3.317919,9.163451-2.938389,22.471268-5.838307,32.875653-8.199846,3.830695-.869473,7.718613,1.061915,9.397194,4.613334,9.316191,19.71052,40.790112,49.301048,32.013319,60.979432-1.896655,2.408813-.476611,4.228759,1.693311,5.738769,9.69207,10.061488,3.232805,35.139759,9.088407,49.529918Z" fill="#eb8e94"/><path d="M123.078093,194.335844c-10.662014-2.880169-18.282964,6.604944-32.819874,8.02367-1.486584.169944-3.018836.263127-4.496676.294161-6.493888.082169-11.95183-.753371-18.431155-1.587367-7.255472-1.065756-17.671591-2.94888-23.837063-6.387142-5.053679-2.806178-6.707222-8.32553-10.404165-12.468669-3.618888-4.277155-8.482008-7.833817-13.218241-11.272635-63.713054-46.259901,61.916576-126.41009,79.844041-78.019188,9.331794,8.392342,13.847211,18.937327,19.62887,26.577471,2.379856,3.246755,4.91887,5.962231,8.174894,8.407591,7.87033,5.461742,15.283405,11.713316,22.997455,17.404079,4.619212,2.964759,16.521513,10.562364,4.393772,12.07933-6.266009-.101094-12.002935-2.374307-18.287689-3.460296-1.390013-.426812-8.103068-1.192965-5.841097,1.597282,1.780238,1.704608,4.807439,2.94709,6.757253,4.71495,5.943496,5.353508,6.349406,13.787488,7.321585,21.267477,1.220938,8.751772,9.952753,13.817938,18.188041,14.143885,3.418667.338066,7.645882,1.892782,5.618572,6.056385-2.168805,6.145113-7.318257,10.162382-13.924951,9.921716-2.900525-.019946-4.914896-1.238827-8.421226-3.419129-7.269418-4.231995-15.938869-10.376564-23.125347-13.830344l-.116997-.043227Z" fill="#eae48a"/><path d="M95.83161,88.496414c-1.692405-2.009742-2.397031-4.701033-1.822777-7.264923,2.155862-9.625347,12.604561-21.416248,18.962532-26.727626,21.038574-17.465088,53.292236-23.915283,79.415405-27.772034,5.587769-.785767,10.080566-1.51593,15.44812-3.156555,20.876465-6.157715,42.13562-17.991638,62.746948-20.416748,23.967651-3.461487,136.757048-9.223671,136.983434,29.856192.039255,6.776369-11.407407,13.037037-21.164342,15.578378-10.909009,2.841417-19.703247,10.74939-27.916382,18.602905-5.705933,5.754761-9.401489,2.109375-11.491577-4.079041-.599365-2.621033.898804-4.570923,2.236694-7.796692,2.087646-4.937866,3.731567-14.319092-.904053-17.450073-1.571167-1.020264-4.30249-.928711-6.573242-.712097-5.64563.711548-11.77063.565857-17.484985.587769-23.206665-.386169-39.932617,8.364685-59.663208,18.570496-29.740356,15.383484-53.906616,20.377563-94.094604,41.056885-4.415283,2.271973-20.670044,10.812256-19.534668,18.861084.884033,6.267517,11.631836,7.410339,16.888916,19.555603,2.468872,5.703735,1.745239,9.255981.946533,11.22583-.350098.863647-1.468717,4.224946-3.888761,5.286469-2.799001,1.227731-5.2125.913279-8.130811-1.653073-.206445-.181547-.421979-.357104-.645925-.516562-5.787628-4.120981-11.961939-10.662045-17.730797-14.126138-2.473022-1.440674-5.382393-3.857396-7.771553-5.423924-3.034668-1.98291-7.166889-4.144837-9.299457-7.197449-2.644653-3.852905-4.567425-7.721027-7.576214-11.315266-3.27124-3.907837-7.042868-8.789999-11.818625-16.05715-2.022042-3.076984-4.264872-5.317318-6.116602-7.51626Z" fill="#b0d8a9"/><path d="M322.634068,83.404946c-1.30371.895718-1.662529,2.654131-.806171,3.984026,8.284701,12.865864,40.555312,53.022291,32.398985,64.03483-1.878412,2.385972-.513293,4.19582,1.615464,5.690224,3.393127,2.382001,5.20321,6.413556,4.512991,10.501445-1.700266,10.069988-1.308053,22.041881.345465,32.085665.574324,3.488552,9.968952,7.790499,13.488414,7.454008,2.32471-.222262,4.938517-1.888501,7.442391-2.127868,4.490122-.429249,7.64368-4.615833,6.820081-9.050598l-1.362364-7.335808c-.60514-3.258447.296965-6.615708,2.453794-9.132007l47.379935-55.276536c1.614103-1.883118,2.770323-4.105801,3.383138-6.509115,2.05658-8.06541,6.007613-20.308621,9.945365-27.313768,1.256372-2.235049,2.165325-4.636099,2.723752-7.138513,1.526086-6.838675,2.830685-14.492958,3.173564-21.680403.222259-4.659002-1.954089-9.736302-6.528044-10.649884-8.593237-1.716375-21.348616-2.795968-26.103513.512961-6.423793,2.764083-9.104902.715326-12.645889-2.148166-2.025815-1.638217-4.608481-2.394684-7.208677-2.231409-2.680334.168307-3.223566-1.453282-4.970387-2.103272-2.480561-.923014-6.249417-.261083-8.721611.684114-9.859616,3.76964-20.691507,9.778835-29.224706,16.439203-4.841773,3.779121-10.049037,7.058701-15.636576,9.608982-7.725137,3.525929-16.514535,7.606457-22.475401,11.701888Z" fill="#cfd7ed"/><path d="M292.552212,88.420711c3.68755-2.778184,7.044452-4.494536,9.506395-5.559,2.804803-1.212676,4.775874-2.064906,7.621408-2.39602,4.406936-.512795,7.796458.586736,7.938887,0,.114781-.473027-2.023142-1.455418-2.838556-1.830108-2.49151-1.144846-5.4363-1.994114-9.47613-2.743258-4.269304-.791685-9.045178-.369801-12.322798,2.683606" fill="none" stroke="#453728" stroke-linecap="round" stroke-miterlimit="10" stroke-width="3"/><path d="M321.252569,65.967948c-.128662-.808716-.407349-2.210327-1.093262-3.796875-.542969-1.270752-1.350342-2.664795-2.545333-3.952833-8.29587-9.009992-23.376552-3.21338-30.383886,4.274544-6.493418,6.938761-7.670496,29.212264,6.292622,19.748479" fill="none" stroke="#453728" stroke-linecap="round" stroke-miterlimit="10" stroke-width="3"/><path d="M437.040724,124.230143l-7.159912,8.359863c-3.180054,3.710083-2.670166,9.320068,1.149902,12.370117,24.330078,19.459961,39.793818,27.462003,70.01604,33.980522,14.145671,3.051027,36.148148,10.074074,48.554028,3.4394,2.895177-1.548343,4.72998-4.540039,3.839966-7.699951-.040039-.150024,1.2016-.672129,1.161561-.832041.630005,1.969971,1.529166,3.373162,2.518519,5.203704,11.5,21.277778,24.459935,38.52824,2.959935,56.238323-3.880005,3.200073-7.610107,6.599976-10.840088,10.450073-23,27.349854-73.379883,14.830078-104.559937,15.299805-11.140015-1.879883-27.170044-4.75-37.450073-12.209961-4.22998-3.069824-8.839844-5.560059-13.619873-7.689941-4-1.780029-7.800049-4.48999-9.960083-7.380005-10.97998-15.369995-9.420044-23.170044-10.279907-26.349976,2.829956-.859985,6.48999-2.209961,8.26001-2.380005,4.48999-.430054,7.639893-4.619995,6.819946-9.049927l-1.359985-7.340088c-.610107-3.26001.290039-6.619995,2.449951-9.130005l47.380005-55.279907" fill="#f17fa5"/><path d="M554.251399,174.534178c-.239556,3.272147-2.201977,6.604344-5.240449,7.84209-12.570694,5.120776-27.642919,5.248634-41.565956,1.324869-29.805235-8.399657-52.672514-19.277156-77.006337-38.737789-3.812185-3.048741-4.322507-8.6652-1.145972-12.371573l7.163606-8.358479c1.609985-1.879883,2.77002-4.099854,3.380005-6.51001,2.060059-8.059937,6-20.289917,9.939941-27.299927,1.26001-2.23999,2.170044-4.650024,2.72998-7.160034,1.530029-6.829956,2.830078-14.469971,3.170166-21.649902.22998-4.670044-1.298923-9.484965-5.888889-10.395-5.380005-1.079956-13.67117-1.594991-19.021267-1.515035.27002-.390015,1.263208-.076432,1.543237-.466447.810059-.140015.961715-.192193,1.851852-.222222,3.30122.849644,8.843291,2.308754,11.329882,1.185185,1.675414-.757037.888433-3.952826,1.162313-4.506882.784201-1.586429,7.558738,1.475614,9.301332.233864,16.277096,3.013759,23.491726,7.04969,33.97154,12.806409,12.322517,6.768944,25.529907,11.77002,34.419922,22.660156,7.890015,9.649902,16.070068,20.23999,17.050049,32.079834,2.169922,6.530029,5.76001,18.950073,5.689941,27.5-.01001,2.610107.390015,5.190063,1.27002,7.640137,1.959961,5.449951,2.281396,12.917473,4.79378,18.467491,1.00908,2.229123,1.257284,5.322694,1.101304,7.453263Z" fill="#cbdf87"/><path d="M449.967829,136.130249c8.322655-3.537608-.213711-29.314708,8.854252-33.312323,5.130339-1.441538,7.750593,6.61327,7.367246,10.530344-.156013,1.59415.123515,3.225428,1.05945,4.525306,3.427582,4.760412,5.976522-5.270607,5.049334-9.987371.13433-12.982484-17.467387-19.639767-14.471334-32.702989,8.829027-16.272339,26.298134-13.248318,27.281676,5.745373l-.052979-.427246c.397384,2.246735,1.12201,3.443209,2.763058,5.231971,9.457181,9.21418,2.266586,22.403734,5.464981,32.953799,5.904825,15.293588,22.399257-21.088292,4.14995-35.534248-1.539064-1.693076-3.491154-3.202605-4.505828-5.43755-2.587087-5.655832,4.645968-9.887202,9.26907-7.131861,15.599551,6.209907,22.821803,23.122346,30.670907,36.639646,4.20354,12.806454-15.935688,14.249929-14.147465,25.39128,34.264485-8.053206,34.779331,31.827161,6.064255,20.433124-1.91405-.728658-2.081084.233845-.526536-.870624-.033917.126362-.298628.248513-.348062.362166-.138352.04126-.644445.768537-.298469.383013,2.616463,8.331293,14.880025,4.988091,20.497309,11.142909,6.505074,4.392317,4.982824,15.979973-3.012135,17.971713-13.608416,2.230106-27.519736-6.832957-34.4382-18.118746-.895309-1.39777-2.046528-3.630438-2.770933-4.722573.529248.498527,1.724476,1.068857,2.8733.891097l.03464-.002472c1.150091-.082077,2.049433.969674,1.791447,2.093458-1.3739,5.984703-4.165191,13.411053-11.149847,8.898296-5.590396-3.47614-9.11949-20.803253-1.205613-17.071689,1.596368.752722,2.852162,2.073519,3.660975,3.642214,1.136687,2.204608,2.663296,5.173093,3.255597,5.836054-3.938329-2.490575-5.679303,3.110685-4.65219-.825602.332172-5.644525,3.292045-15.417913,10.860332-11.666186,5.275696,4.168332,6.741958,11.049347,12.380291,14.796842,4.371138,3.898584,13.171549,10.865928,15.297473,6.434055,2.32998-4.857267-9.346564-4.105974-14.157601-6.404916-6.410061-3.257367-11.01818-13.858496-4.561129-19.202245,5.621451-7.505397,21.405216,11.132538,19.66776-2.999625-8.070643-5.58069-20.208927,6.126478-27.754569-3.029584-7.738412-10.48481,3.840005-24.756717,13.524832-29.347595.504481-.24117.402948-.934917.058299-1.332308-6.933194-10.797762-13.551969-24.571186-25.950696-29.729334,3.448751.715344,6.323618-4.432302,4.423153-6.940534,28.331322,22.361642-.04736,85.74967-19.271609,47.794407-4.382644-10.627511,4.579695-22.794536-5.00155-31.621332-3.206962-2.789111-2.457518-18.868288-7.05507-14.614813-.655837.386373-1.4717.957709-2.2145,1.57554-1.286088,1.069717-1.546339,2.951848-.587922,4.32289,4.316581,6.174992,10.124583,12.056466,11.977123,19.784362,7.066694,15.683259-11.271804,41.031571-20.57092,17.01182l.401733.959839c-1.946964-2.78622-2.764191-6.041909-3.291203-9.23861,1.406847,2.123577,5.145963,2.301675,6.529972-.137001-9.508655,10.292374,1.522148,23.185464-4.258394,34.583871-4.271156,10.671821-18.725056-1.49331-8.973662-7.52601Z" fill="#4c622d"/><path d="M107.917221,196.528797c-8.457771,4.244765-18.500766,5.913807-27.750181,4.865885-.995912-.112833-1.986503-.224757-2.986732-.288891-8.235029-.52802-35.557451-4.030285-37.828088-11.293749-3.840704-12.780462-19.767962-18.833099-28.445006-27.750031C-.196947,149.563353-.519157,142.606235,2.949175,132.843695c5.137155-14.459886,14.119999-27.315156,25.954203-37.083998,18.399039-15.187951,42.405278-23.738227,64.374546-12.509563,9.388105-42.267131,66.12624-52.518981,102.518608-57.485732,13.987794-1.111268,47.778446-17.693617,62.815733-20.736771,23.684936-4.799988,146.350044-12.049824,148.66757,23.917839.337887,5.243951-2.441105,10.163144-6.79105,13.111224-4.004729,2.714117-2.086306,3.209002,1.758968,3.78541,3.731334.559329,7.171775,2.330405,9.857685,4.980233,3.560706,3.512871,6.577135,2.972559,9.992085,1.507341,6.631591-2.84535,14.290344-4.6564,21.055233-2.144371,9.282401,3.446865-5.553178-7.250153,11.227331-4.726142,22.407407,3.37037,26.053655,8.879864,31.740741,11.259259,22.475232,9.403315,34.641199,16.636742,48.009377,37.004614,3.272568,4.986113,5.917475,10.213694,7.125713,15.715084.716693,3.263265,1.449444,6.520157,2.379444,9.729156,1.366325,4.714551,2.78561,10.429981,3.483633,15.657948.86226,6.458041,1.811885,12.910494,3.299349,19.253777.102108.435438.200328.875371.294536,1.318741,3.073067,14.462742,8.528942,28.284136,15.449448,41.350171,7.172331,13.541485,9.27946,25.887806-6.078885,38.545422-3.881461,3.198916-7.608443,6.597153-10.845444,10.446933-21.015547,24.993877-64.898643,16.691637-96.095976,15.432215-9.122607-.368275-18.208373-1.571297-27.008062-4.005031-6.85621-1.896225-13.632885-4.513105-18.899417-8.333164-4.23628-3.07277-8.844413-5.566381-13.624721-7.696319-3.996002-1.780479-7.800556-4.485632-9.960545-7.374237-16.67475-23.366347-4.426984-29.241202-15.655692-27.967557-7.878482.893637-15.418834,3.675759-22.089143,7.962487-2.48182,1.594961-5.027898,3.270875-7.53317,4.936784-8.343589,5.548161-17.680923,9.41798-27.509351,11.367226-11.013308,2.18424-24.53992,4.940921-36.519233,7.184413-11.428146,2.140268-22.556738,5.620648-33.193996,10.314416-12.913551,5.698199-28.30983,6.961552-41.263662,2.052244-.754067-.28578-1.522011-.528375-2.295807-.755373-10.169551-2.983314-21.557004-13.571039-28.152665-23.239039-2.770901-4.06162-6.30678-7.53518-10.413559-10.2387-8.906641-5.863303-19.121711-12.376481-28.656467-18.121058-6.852115-4.128317-15.299582-4.319069-22.449313-.730781Z" fill="none" stroke="#231f20" stroke-miterlimit="10" stroke-width="2"/><path d="M349.297394,55.464487c-1.327059,2.620809-1.771497,6.414729-4.386956,7.595538-3.578919,1.488993-7.013553-1.156866-10.11436-2.686054-.492385-.260003-1.056148-.424648-1.65191-.537553-3.754717-.711566-7.132754-2.656034-9.762813-5.42858-.610485-.643558-1.255666-1.219823-1.975303-1.634067-18.081446-12.53906-55.274586,7.051654-48.247281,30.574674,1.411097,3.281548,4.920231,3.405307,7.299659,6.046525,1.68592,1.898901,5.700728,5.877462,2.686814,6.617704-4.195325.852594-6.039424,1.811215-7.666667,4.35513-1.619343,2.531565-4.857043,4.130272-6.709461,6.496629l-.072233.092228c-2.845721,3.63346-1.884973,8.522254-7.662751,11.300032-.790143.379876-1.431105,1.405101-2.049384,1.837867-2.40255,1.43243-6.598344-2.934353-6.504897-6.265708-.007011-.94547-.002161-1.973455-.003507-2.936928-.071333-3.49518.135002-4.871885,1.653584-7.412572,2.607447-4.789676,6.413387-11.602891,8.979118-16.021716.728168-1.279039,1.234934-2.578891,1.506626-4.024476.680258-4.246414,1.902748-10.694338,2.983701-15.382071.641084-2.481135.143467-3.304076-2.541452-2.072855-15.314049,6.58537-31.048684,18.447095-46.807621,23.731842-3.003607,1.009042-5.128159,2.440639-8.059211,4.084185-6.278393,3.534127-14.419272,7.726096-20.713759,10.623949-2.324228,1.113398-4.281384,1.703723-6.349259,3.353379-1.610134,1.325457-4.015822,3.058688-6.032458,4.708604-1.481351,1.211971-1.958564,2.792204-2.987407,4.40613-2.113852,3.31596-3.593652,6.98631-3.821328,11.116447-.073412,5.322663-5.391602,3.035837-7.713867.264917-4.415804-4.691402-9.404855-6.806989-11.020727-10.311079-1.775684-4.361124,1.227419-8.105103,5.164646-11.676758,3.759671-3.289352,8.515668-6.071018,11.575332-7.738282,36.862332-19.602109,65.361329-26.587859,94.863202-41.544903,20.535543-11.116792,40.340644-20.250051,64.240108-19.592493,1.545538.042523,3.105433.141439,4.639472-.051491,16.665754-2.095987,24.452284-1.182923,17.333084,17.936326l-.070737.175481Z" fill="#a8acb2"/><path d="M235.615045,81.364541c5.100441-2.761484,23.941173-12.185977,30.415412-15.47916.757309-.385213,1.651924.149281,1.68008.998465.025861.779987.023704,1.614263.024051,2.018029.001763,2.050847-.170622,4.151762-.754201,6.038409-.370851,1.19892-.65945,2.421731-.736369,3.674338l-.019692.320674c-.178116,2.900567-1.01589,5.720449-2.45974,8.242414-1.005771,1.756774-2.169821,3.549333-3.32752,5.35144-2.999496,4.669103-5.317441,9.758309-6.709155,15.130518-.677253,2.614292-1.1285,5.271071-.546028,7.729861.436875,1.84418,2.185809,3.028275,4.081011,3.019758.162994-.000732.326032.00402.488122.018275,2.055729-.088337,1.485243.261304.357337,1.399084-1.120326,1.177243-2.15374,2.689641-2.970874,4.106647-.001816.003149-.003684.006381-.005604.009695-.509654.879895-1.769672.99839-2.399125.199798-1.138141-1.443968-1.872665-3.351598-2.475435-4.991535-1.092839-3.258211-1.059577-7.034332.549764-10.154584,1.866504-4.256935,1.039198-9.858339-1.628545-13.931406-1.631085-2.265635-3.609282-4.317233-5.675684-5.874764-2.160171-1.339732-5.001379-2.573295-7.351101-4.075318-1.242094-.793989-1.508369-2.459697-.629755-3.643443l.030807-.041506.062244-.065688Z" fill="#fff"/></svg>