<?xml version="1.0" encoding="UTF-8"?><svg id="Layer_1" xmlns="http://www.w3.org/2000/svg" width="493.281114" height="417.139255" xmlns:xlink="http://www.w3.org/1999/xlink" viewBox="0 0 493.281114 417.139255"><defs><linearGradient id="linear-gradient" x1="1.333333" y1="247.493482" x2="83.480272" y2="247.493482" gradientUnits="userSpaceOnUse"><stop offset="0" stop-color="#fff"/><stop offset="1" stop-color="#e6e7e8"/></linearGradient><linearGradient id="linear-gradient-2" x1="410.263447" y1="168.606909" x2="492.410386" y2="168.606909" gradientUnits="userSpaceOnUse"><stop offset="0" stop-color="#fff"/><stop offset="1" stop-color="#e6e7e8" stop-opacity=".5"/></linearGradient><linearGradient id="linear-gradient-3" x1="60.847294" y1="361.831167" x2="492.473705" y2="361.831167" gradientUnits="userSpaceOnUse"><stop offset="0" stop-color="#fff"/><stop offset="1" stop-color="#e6e7e8"/></linearGradient><linearGradient id="linear-gradient-4" x1="1.689882" y1="55.17184" x2="433.316293" y2="55.17184" xlink:href="#linear-gradient-2"/><linearGradient id="linear-gradient-5" x1="118.945992" y1="398.925142" x2="536.943977" y2="398.925142" gradientTransform="translate(-140.351261 -136.000121) rotate(-10.975936)" gradientUnits="userSpaceOnUse"><stop offset="0" stop-color="#fff"/><stop offset="1" stop-color="#e6e7e8"/></linearGradient></defs><polygon points="1.333333 109.776605 61.594708 416.100392 83.480272 385.210359 23.218897 78.886573 1.333333 109.776605" fill="url(#linear-gradient)"/><polygon points="410.263447 30.890033 470.524822 337.213819 492.410386 306.323786 432.149012 0 410.263447 30.890033" fill="url(#linear-gradient-2)"/><polygon points="82.732858 385.558156 492.473705 307.214146 470.588141 338.104178 60.847294 416.448189 82.732858 385.558156" fill="url(#linear-gradient-3)"/><polygon points="23.575446 78.898829 433.316293 .554819 411.430729 31.444851 1.689882 109.788861 23.575446 78.898829" fill="url(#linear-gradient-4)"/><polygon points="492.549845 307.177823 82.808997 385.521833 22.547623 79.198047 432.28847 .854037 492.549845 307.177823" fill="url(#linear-gradient-5)" stroke="#231f20" stroke-miterlimit="10" stroke-width="1.24445"/><path d="M164.15091,97.687864c.201099,9.083524-3.793931,17.994934-11.443045,23.398632-11.425597,8.075249-26.898673,5.429368-35.762916-5.670916-.568188-.698134-1.101481-1.439191-1.60847-2.206338-.00875-.017253-.017501-.02567-.026251-.042923-.192295-9.083734,3.811431-17.977891,11.451848-23.372962,12.142382-8.575178,28.883035-5.050213,37.371386,7.868418.008697.008837.008697.017253.017447.026091Z" fill="#fff" opacity=".5" stroke="#231f20" stroke-miterlimit="10" stroke-width=".824587"/><path d="M164.15091,97.687864c.201099,9.083524-3.793931,17.994934-11.443045,23.398632-11.425597,8.075249-26.898673,5.429368-35.762916-5.670916-.568188-.698134-1.101481-1.439191-1.60847-2.206338-.00875-.017253-.017501-.02567-.026251-.042923-.122399-.180951-.244744-.370739-.358392-.568943-.349695-.551479-.681889-1.129049-.987833-1.706409-3.129595-11.315742.708087-23.786624,10.385316-30.61226,12.151132-8.583805,28.883035-5.050213,37.371386,7.868628.489541.749684.944081,1.508205,1.363726,2.283768v.008627c.305943,1.094542.54199,2.197712.716838,3.309507.209796,1.30979.323444,2.628627.349642,3.938627Z" fill="#3ab4e7" opacity=".54"/><path d="M145.155793,87.00902c.261363.756874-5.139867,2.70343-13.790239,9.237745-7.996574,6.040515-11.346723,10.394276-12.048944,9.926948-.812975-.541017,2.290847-7.299109,8.279358-12.313276,7.535694-6.309554,17.220929-7.83276,17.559824-6.851417Z" fill="#ccecfc"/><path d="M77.384175,139.500709c-10.207366,1.951687-20.729555-2.072718-27.459908-10.502632-.578382-.716484-1.150229-1.502631-1.694004-2.32876-.139127-.209589-.275906-.426142-.413754-.650228-.441847-.700646-.866401-1.447764-1.252085-2.205165-6.929028-13.443953-3.191309-29.920649,8.698173-38.319841,3.209051-2.265692,6.766064-3.78306,10.572977-4.510957,11.189846-2.139541,22.636789,2.892257,29.162332,12.819602,1.364871,2.081387,2.474643,4.306432,3.299691,6.614831.257398.718403.464542,1.368227.632195,1.985287.344958,1.215985.615169,2.457258.798298,3.671607,1.770802,11.25021-2.847366,22.602554-11.767332,28.910537-3.210578,2.268428-6.768477,3.787594-10.576583,4.515718Z" fill="none" stroke="#231f20" stroke-miterlimit="10" stroke-width=".673966"/><path d="M120.740485,359.891786c-10.207366,1.951687-20.729555-2.072718-27.459908-10.502632-.57941-.717509-1.151179-1.503264-1.693927-2.328368-.139756-.21069-.276061-.426927-.413831-.65062-.44177-.700253-.865849-1.447055-1.252008-2.204773-6.929028-13.443953-3.191387-29.921041,8.698096-38.320233,3.209051-2.265692,6.766064-3.78306,10.572977-4.510957,11.189846-2.139541,22.636789,2.892257,29.162332,12.819602,1.364871,2.081387,2.474643,4.306432,3.299691,6.614831.257398.718403.464619,1.368619.63235,1.986072.344803,1.2152.615015,2.456473.798144,3.670822,1.770802,11.25021-2.847366,22.602554-11.767332,28.910537-3.210578,2.268428-6.768477,3.787594-10.576583,4.515718Z" fill="#fff" stroke="#231f20" stroke-miterlimit="10" stroke-width=".673966"/><path d="M470.322956,267.716101c.201099,9.083524-3.793931,17.994934-11.443045,23.398632-11.425597,8.075249-26.898673,5.429368-35.762916-5.670916-.568188-.698134-1.101481-1.439191-1.60847-2.206338-.00875-.017253-.017501-.02567-.026251-.042923-.192295-9.083734,3.811431-17.977891,11.451848-23.372962,12.142382-8.575178,28.883035-5.050213,37.371386,7.868418.008697.008837.008697.017253.017447.026091Z" fill="#fff" opacity=".5" stroke="#231f20" stroke-miterlimit="10" stroke-width=".824587"/><path d="M470.322956,267.716101c.201099,9.083524-3.793931,17.994934-11.443045,23.398632-11.425597,8.075249-26.898673,5.429368-35.762916-5.670916-.568188-.698134-1.101481-1.439191-1.60847-2.206338-.00875-.017253-.017501-.02567-.026251-.042923-.122399-.180951-.244744-.370739-.358392-.568943-.349695-.551479-.681889-1.129049-.987833-1.706409-3.129595-11.315742.708087-23.786624,10.385316-30.61226,12.151132-8.583805,28.883035-5.050213,37.371386,7.868628.489541.749684.944081,1.508205,1.363726,2.283768v.008627c.305943,1.094542.54199,2.197712.716838,3.309507.209796,1.30979.323444,2.628627.349642,3.938627Z" fill="#3ab4e7" opacity=".54"/><path d="M141.441524,326.706346c1.633311,10.377745-2.344125,21.152262-11.09248,27.339067-11.42279,8.071366-26.900168,5.43217-35.76333-5.668903-.566361-.701582-1.099353-1.437655-1.605409-2.207074-.133045-.19996-.259617-.401073-.387526-.608978-.428013-.678777-.827776-1.384017-1.187504-2.089862-6.472723-12.55816-3.136495-28.259291,8.180833-36.254185,12.146747-8.575998,28.882659-5.050701,37.373898,7.867942,1.309582,1.996116,2.352491,4.099527,3.127163,6.268238.222241.61952.423799,1.23586.594468,1.86524.327746,1.155624.583175,2.318026.759886,3.488516Z" fill="#fff" stroke="#231f20" stroke-miterlimit="10" stroke-width=".824587"/><path d="M451.327839,257.037257c.261363.756874-5.139867,2.70343-13.790239,9.237745-7.996574,6.040515-11.346723,10.394276-12.048944,9.926948-.812975-.541017,2.290847-7.299109,8.279358-12.313276,7.535694-6.309554,17.220929-7.83276,17.559824-6.851417Z" fill="#ccecfc"/><path d="M404.609521,280.283708c.201099,9.083524-3.793931,17.994934-11.443045,23.398632-11.425597,8.075249-26.898673,5.429368-35.762916-5.670916-.568188-.698134-1.101481-1.439191-1.60847-2.206338-.00875-.017253-.017501-.02567-.026251-.042923-.192295-9.083734,3.811431-17.977891,11.451848-23.372962,12.142382-8.575178,28.883035-5.050213,37.371386,7.868418.008697.008837.008697.017253.017447.026091Z" fill="#fff" opacity=".5" stroke="#231f20" stroke-miterlimit="10" stroke-width=".824587"/><path d="M404.609521,280.283708c.201099,9.083524-3.793931,17.994934-11.443045,23.398632-11.425597,8.075249-26.898673,5.429368-35.762916-5.670916-.568188-.698134-1.101481-1.439191-1.60847-2.206338-.00875-.017253-.017501-.02567-.026251-.042923-.122399-.180951-.244744-.370739-.358392-.568943-.349695-.551479-.681889-1.129049-.987833-1.706409-3.129595-11.315742.708087-23.786624,10.385316-30.61226,12.151132-8.583805,28.883035-5.050213,37.371386,7.868628.489541.749684.944081,1.508205,1.363726,2.283768v.008627c.305943,1.094542.54199,2.197712.716838,3.309507.209796,1.30979.323444,2.628627.349642,3.938627Z" fill="#3ab4e7" opacity=".54"/><path d="M385.614404,269.604864c.261363.756874-5.139867,2.70343-13.790239,9.237745-7.996574,6.040515-11.346723,10.394276-12.048944,9.926948-.812975-.541017,2.290847-7.299109,8.279358-12.313276,7.535694-6.309554,17.220929-7.83276,17.559824-6.851417Z" fill="#ccecfc"/><path d="M338.896086,292.851316c.201099,9.083524-3.793931,17.994934-11.443045,23.398632-11.425597,8.075249-26.898673,5.429368-35.762916-5.670916-.568188-.698134-1.101481-1.439191-1.60847-2.206338-.00875-.017253-.017501-.02567-.026251-.042923-.192295-9.083734,3.811431-17.977891,11.451848-23.372962,12.142382-8.575178,28.883035-5.050213,37.371386,7.868418.008697.008837.008697.017253.017447.026091Z" fill="#fff" opacity=".5" stroke="#231f20" stroke-miterlimit="10" stroke-width=".824587"/><path d="M338.896086,292.851316c.201099,9.083524-3.793931,17.994934-11.443045,23.398632-11.425597,8.075249-26.898673,5.429368-35.762916-5.670916-.568188-.698134-1.101481-1.439191-1.60847-2.206338-.00875-.017253-.017501-.02567-.026251-.042923-.122399-.180951-.244744-.370739-.358392-.568943-.349695-.551479-.681889-1.129049-.987833-1.706409-3.129595-11.315742.708087-23.786624,10.385316-30.61226,12.151132-8.583805,28.883035-5.050213,37.371386,7.868628.489541.749684.944081,1.508205,1.363726,2.283768v.008627c.305943,1.094542.54199,2.197712.716838,3.309507.209796,1.30979.323444,2.628627.349642,3.938627Z" fill="#3ab4e7" opacity=".54"/><path d="M319.900969,282.172471c.261363.756874-5.139867,2.70343-13.790239,9.237745-7.996574,6.040515-11.346723,10.394276-12.048944,9.926948-.812975-.541017,2.290847-7.299109,8.279358-12.313276,7.535694-6.309554,17.220929-7.83276,17.559824-6.851417Z" fill="#ccecfc"/><path d="M273.182651,305.418923c.201099,9.083524-3.793931,17.994934-11.443045,23.398632-11.425597,8.075249-26.898673,5.429368-35.762916-5.670916-.568188-.698134-1.101481-1.439191-1.60847-2.206338-.00875-.017253-.017501-.02567-.026251-.042923-.192295-9.083734,3.811431-17.977891,11.451848-23.372962,12.142382-8.575178,28.883035-5.050213,37.371386,7.868418.008697.008837.008697.017253.017447.026091Z" fill="#fff" opacity=".5" stroke="#231f20" stroke-miterlimit="10" stroke-width=".824587"/><path d="M273.182651,305.418923c.201099,9.083524-3.793931,17.994934-11.443045,23.398632-11.425597,8.075249-26.898673,5.429368-35.762916-5.670916-.568188-.698134-1.101481-1.439191-1.60847-2.206338-.00875-.017253-.017501-.02567-.026251-.042923-.122399-.180951-.244744-.370739-.358392-.568943-.349695-.551479-.681889-1.129049-.987833-1.706409-3.129595-11.315742.708087-23.786624,10.385316-30.61226,12.151132-8.583805,28.883035-5.050213,37.371386,7.868628.489541.749684.944081,1.508205,1.363726,2.283768v.008627c.305943,1.094542.54199,2.197712.716838,3.309507.209796,1.30979.323444,2.628627.349642,3.938627Z" fill="#3ab4e7" opacity=".54"/><path d="M254.187534,294.740079c.261363.756874-5.139867,2.70343-13.790239,9.237745-7.996574,6.040515-11.346723,10.394276-12.048944,9.926948-.812975-.541017,2.290847-7.299109,8.279358-12.313276,7.535694-6.309554,17.220929-7.83276,17.559824-6.851417Z" fill="#ccecfc"/><path d="M207.469216,317.98653c.201099,9.083524-3.793931,17.994934-11.443045,23.398632-11.425597,8.075249-26.898673,5.429368-35.762916-5.670916-.568188-.698134-1.101481-1.439191-1.60847-2.206338-.00875-.017253-.017501-.02567-.026251-.042923-.192295-9.083734,3.811431-17.977891,11.451848-23.372962,12.142382-8.575178,28.883035-5.050213,37.371386,7.868418.008697.008837.008697.017253.017447.026091Z" fill="#fff" opacity=".5" stroke="#231f20" stroke-miterlimit="10" stroke-width=".824587"/><path d="M207.469216,317.98653c.201099,9.083524-3.793931,17.994934-11.443045,23.398632-11.425597,8.075249-26.898673,5.429368-35.762916-5.670916-.568188-.698134-1.101481-1.439191-1.60847-2.206338-.00875-.017253-.017501-.02567-.026251-.042923-.122399-.180951-.244744-.370739-.358392-.568943-.349695-.551479-.681889-1.129049-.987833-1.706409-3.129595-11.315742.708087-23.786624,10.385316-30.61226,12.151132-8.583805,28.883035-5.050213,37.371386,7.868628.489541.749684.944081,1.508205,1.363726,2.283768v.008627c.305943,1.094542.54199,2.197712.716838,3.309507.209796,1.30979.323444,2.628627.349642,3.938627Z" fill="#3ab4e7" opacity=".54"/><path d="M188.474099,307.307686c.261363.756874-5.139867,2.70343-13.790239,9.237745-7.996574,6.040515-11.346723,10.394276-12.048944,9.926948-.812975-.541017,2.290847-7.299109,8.279358-12.313276,7.535694-6.309554,17.220929-7.83276,17.559824-6.851417Z" fill="#ccecfc"/><path d="M141.755781,330.554138c.201099,9.083524-3.793931,17.994934-11.443045,23.398632-11.425597,8.075249-26.898673,5.429368-35.762916-5.670916-.568188-.698134-1.101481-1.439191-1.60847-2.206338-.00875-.017253-.017501-.02567-.026251-.042923-.192295-9.083734,3.811431-17.977891,11.451848-23.372962,12.142382-8.575178,28.883035-5.050213,37.371386,7.868418.008697.008837.008697.017253.017447.026091Z" fill="#fff" opacity=".5" stroke="#231f20" stroke-miterlimit="10" stroke-width=".824587"/><path d="M141.755781,330.554138c.201099,9.083524-3.793931,17.994934-11.443045,23.398632-11.425597,8.075249-26.898673,5.429368-35.762916-5.670916-.568188-.698134-1.101481-1.439191-1.60847-2.206338-.00875-.017253-.017501-.02567-.026251-.042923-.122399-.180951-.244744-.370739-.358392-.568943-.349695-.551479-.681889-1.129049-.987833-1.706409-3.129595-11.315742.708087-23.786624,10.385316-30.61226,12.151132-8.583805,28.883035-5.050213,37.371386,7.868628.489541.749684.944081,1.508205,1.363726,2.283768v.008627c.305943,1.094542.54199,2.197712.716838,3.309507.209796,1.30979.323444,2.628627.349642,3.938627Z" fill="#3ab4e7" opacity=".54"/><path d="M122.760664,319.875294c.261363.756874-5.139867,2.70343-13.790239,9.237745-7.996574,6.040515-11.346723,10.394276-12.048944,9.926948-.812975-.541017,2.290847-7.299109,8.279358-12.313276,7.535694-6.309554,17.220929-7.83276,17.559824-6.851417Z" fill="#ccecfc"/><path d="M455.947478,194.268933c.201099,9.083524-3.793931,17.994934-11.443045,23.398632-11.425597,8.075249-26.898673,5.429368-35.762916-5.670916-.568188-.698134-1.101481-1.439191-1.60847-2.206338-.00875-.017253-.017501-.02567-.026251-.042923-.192295-9.083734,3.811431-17.977891,11.451848-23.372962,12.142382-8.575178,28.883035-5.050213,37.371386,7.868418.008697.008837.008697.017253.017447.026091Z" fill="#fff" opacity=".5" stroke="#231f20" stroke-miterlimit="10" stroke-width=".824587"/><path d="M455.947478,194.268933c.201099,9.083524-3.793931,17.994934-11.443045,23.398632-11.425597,8.075249-26.898673,5.429368-35.762916-5.670916-.568188-.698134-1.101481-1.439191-1.60847-2.206338-.00875-.017253-.017501-.02567-.026251-.042923-.122399-.180951-.244744-.370739-.358392-.568943-.349695-.551479-.681889-1.129049-.987833-1.706409-3.129595-11.315742.708087-23.786624,10.385316-30.61226,12.151132-8.583805,28.883035-5.050213,37.371386,7.868628.489541.749684.944081,1.508205,1.363726,2.283768v.008627c.305943,1.094542.54199,2.197712.716838,3.309507.209796,1.30979.323444,2.628627.349642,3.938627Z" fill="#3ab4e7" opacity=".54"/><path d="M436.952361,183.590089c.261363.756874-5.139867,2.70343-13.790239,9.237745-7.996574,6.040515-11.346723,10.394276-12.048944,9.926948-.812975-.541017,2.290847-7.299109,8.279358-12.313276,7.535694-6.309554,17.220929-7.83276,17.559824-6.851417Z" fill="#ccecfc"/><path d="M390.234043,206.836541c.201099,9.083524-3.793931,17.994934-11.443045,23.398632-11.425597,8.075249-26.898673,5.429368-35.762916-5.670916-.568188-.698134-1.101481-1.439191-1.60847-2.206338-.00875-.017253-.017501-.02567-.026251-.042923-.192295-9.083734,3.811431-17.977891,11.451848-23.372962,12.142382-8.575178,28.883035-5.050213,37.371386,7.868418.008697.008837.008697.017253.017447.026091Z" fill="#fff" opacity=".5" stroke="#231f20" stroke-miterlimit="10" stroke-width=".824587"/><path d="M390.234043,206.836541c.201099,9.083524-3.793931,17.994934-11.443045,23.398632-11.425597,8.075249-26.898673,5.429368-35.762916-5.670916-.568188-.698134-1.101481-1.439191-1.60847-2.206338-.00875-.017253-.017501-.02567-.026251-.042923-.122399-.180951-.244744-.370739-.358392-.568943-.349695-.551479-.681889-1.129049-.987833-1.706409-3.129595-11.315742.708087-23.786624,10.385316-30.61226,12.151132-8.583805,28.883035-5.050213,37.371386,7.868628.489541.749684.944081,1.508205,1.363726,2.283768v.008627c.305943,1.094542.54199,2.197712.716838,3.309507.209796,1.30979.323444,2.628627.349642,3.938627Z" fill="#3ab4e7" opacity=".54"/><path d="M371.238926,196.157697c.261363.756874-5.139867,2.70343-13.790239,9.237745-7.996574,6.040515-11.346723,10.394276-12.048944,9.926948-.812975-.541017,2.290847-7.299109,8.279358-12.313276,7.535694-6.309554,17.220929-7.83276,17.559824-6.851417Z" fill="#ccecfc"/><path d="M324.520608,219.404148c.201099,9.083524-3.793931,17.994934-11.443045,23.398632-11.425597,8.075249-26.898673,5.429368-35.762916-5.670916-.568188-.698134-1.101481-1.439191-1.60847-2.206338-.00875-.017253-.017501-.02567-.026251-.042923-.192295-9.083734,3.811431-17.977891,11.451848-23.372962,12.142382-8.575178,28.883035-5.050213,37.371386,7.868418.008697.008837.008697.017253.017447.026091Z" fill="#fff" opacity=".5" stroke="#231f20" stroke-miterlimit="10" stroke-width=".824587"/><path d="M324.520608,219.404148c.201099,9.083524-3.793931,17.994934-11.443045,23.398632-11.425597,8.075249-26.898673,5.429368-35.762916-5.670916-.568188-.698134-1.101481-1.439191-1.60847-2.206338-.00875-.017253-.017501-.02567-.026251-.042923-.122399-.180951-.244744-.370739-.358392-.568943-.349695-.551479-.681889-1.129049-.987833-1.706409-3.129595-11.315742.708087-23.786624,10.385316-30.61226,12.151132-8.583805,28.883035-5.050213,37.371386,7.868628.489541.749684.944081,1.508205,1.363726,2.283768v.008627c.305943,1.094542.54199,2.197712.716838,3.309507.209796,1.30979.323444,2.628627.349642,3.938627Z" fill="#3ab4e7" opacity=".54"/><path d="M305.525491,208.725304c.261363.756874-5.139867,2.70343-13.790239,9.237745-7.996574,6.040515-11.346723,10.394276-12.048944,9.926948-.812975-.541017,2.290847-7.299109,8.279358-12.313276,7.535694-6.309554,17.220929-7.83276,17.559824-6.851417Z" fill="#ccecfc"/><path d="M258.807173,231.971756c.201099,9.083524-3.793931,17.994934-11.443045,23.398632-11.425597,8.075249-26.898673,5.429368-35.762916-5.670916-.568188-.698134-1.101481-1.439191-1.60847-2.206338-.00875-.017253-.017501-.02567-.026251-.042923-.192295-9.083734,3.811431-17.977891,11.451848-23.372962,12.142382-8.575178,28.883035-5.050213,37.371386,7.868418.008697.008837.008697.017253.017447.026091Z" fill="#fff" opacity=".5" stroke="#231f20" stroke-miterlimit="10" stroke-width=".824587"/><path d="M258.807173,231.971756c.201099,9.083524-3.793931,17.994934-11.443045,23.398632-11.425597,8.075249-26.898673,5.429368-35.762916-5.670916-.568188-.698134-1.101481-1.439191-1.60847-2.206338-.00875-.017253-.017501-.02567-.026251-.042923-.122399-.180951-.244744-.370739-.358392-.568943-.349695-.551479-.681889-1.129049-.987833-1.706409-3.129595-11.315742.708087-23.786624,10.385316-30.61226,12.151132-8.583805,28.883035-5.050213,37.371386,7.868628.489541.749684.944081,1.508205,1.363726,2.283768v.008627c.305943,1.094542.54199,2.197712.716838,3.309507.209796,1.30979.323444,2.628627.349642,3.938627Z" fill="#3ab4e7" opacity=".54"/><path d="M239.812057,221.292912c.261363.756874-5.139867,2.70343-13.790239,9.237745-7.996574,6.040515-11.346723,10.394276-12.048944,9.926948-.812975-.541017,2.290847-7.299109,8.279358-12.313276,7.535694-6.309554,17.220929-7.83276,17.559824-6.851417Z" fill="#ccecfc"/><path d="M193.093738,244.539363c.201099,9.083524-3.793931,17.994934-11.443045,23.398632-11.425597,8.075249-26.898673,5.429368-35.762916-5.670916-.568188-.698134-1.101481-1.439191-1.60847-2.206338-.00875-.017253-.017501-.02567-.026251-.042923-.192295-9.083734,3.811431-17.977891,11.451848-23.372962,12.142382-8.575178,28.883035-5.050213,37.371386,7.868418.008697.008837.008697.017253.017447.026091Z" fill="#fff" opacity=".5" stroke="#231f20" stroke-miterlimit="10" stroke-width=".824587"/><path d="M193.093738,244.539363c.201099,9.083524-3.793931,17.994934-11.443045,23.398632-11.425597,8.075249-26.898673,5.429368-35.762916-5.670916-.568188-.698134-1.101481-1.439191-1.60847-2.206338-.00875-.017253-.017501-.02567-.026251-.042923-.122399-.180951-.244744-.370739-.358392-.568943-.349695-.551479-.681889-1.129049-.987833-1.706409-3.129595-11.315742.708087-23.786624,10.385316-30.61226,12.151132-8.583805,28.883035-5.050213,37.371386,7.868628.489541.749684.944081,1.508205,1.363726,2.283768v.008627c.305943,1.094542.54199,2.197712.716838,3.309507.209796,1.30979.323444,2.628627.349642,3.938627Z" fill="#3ab4e7" opacity=".54"/><path d="M174.098622,233.860519c.261363.756874-5.139867,2.70343-13.790239,9.237745-7.996574,6.040515-11.346723,10.394276-12.048944,9.926948-.812975-.541017,2.290847-7.299109,8.279358-12.313276,7.535694-6.309554,17.220929-7.83276,17.559824-6.851417Z" fill="#ccecfc"/><path d="M127.380303,257.106971c.201099,9.083524-3.793931,17.994934-11.443045,23.398632-11.425597,8.075249-26.898673,5.429368-35.762916-5.670916-.568188-.698134-1.101481-1.439191-1.60847-2.206338-.00875-.017253-.017501-.02567-.026251-.042923-.192295-9.083734,3.811431-17.977891,11.451848-23.372962,12.142382-8.575178,28.883035-5.050213,37.371386,7.868418.008697.008837.008697.017253.017447.026091Z" fill="#fff" opacity=".5" stroke="#231f20" stroke-miterlimit="10" stroke-width=".824587"/><path d="M127.380303,257.106971c.201099,9.083524-3.793931,17.994934-11.443045,23.398632-11.425597,8.075249-26.898673,5.429368-35.762916-5.670916-.568188-.698134-1.101481-1.439191-1.60847-2.206338-.00875-.017253-.017501-.02567-.026251-.042923-.122399-.180951-.244744-.370739-.358392-.568943-.349695-.551479-.681889-1.129049-.987833-1.706409-3.129595-11.315742.708087-23.786624,10.385316-30.61226,12.151132-8.583805,28.883035-5.050213,37.371386,7.868628.489541.749684.944081,1.508205,1.363726,2.283768v.008627c.305943,1.094542.54199,2.197712.716838,3.309507.209796,1.30979.323444,2.628627.349642,3.938627Z" fill="#3ab4e7" opacity=".54"/><path d="M108.385187,246.428126c.261363.756874-5.139867,2.70343-13.790239,9.237745-7.996574,6.040515-11.346723,10.394276-12.048944,9.926948-.812975-.541017,2.290847-7.299109,8.279358-12.313276,7.535694-6.309554,17.220929-7.83276,17.559824-6.851417Z" fill="#ccecfc"/><path d="M441.422649,120.790595c.201099,9.083524-3.793931,17.994934-11.443045,23.398632-11.425597,8.075249-26.898673,5.429368-35.762916-5.670916-.568188-.698134-1.101481-1.439191-1.60847-2.206338-.00875-.017253-.017501-.02567-.026251-.042923-.192295-9.083734,3.811431-17.977891,11.451848-23.372962,12.142382-8.575178,28.883035-5.050213,37.371386,7.868418.008697.008837.008697.017253.017447.026091Z" fill="#fff" opacity=".5" stroke="#231f20" stroke-miterlimit="10" stroke-width=".824587"/><path d="M441.422649,120.790595c.201099,9.083524-3.793931,17.994934-11.443045,23.398632-11.425597,8.075249-26.898673,5.429368-35.762916-5.670916-.568188-.698134-1.101481-1.439191-1.60847-2.206338-.00875-.017253-.017501-.02567-.026251-.042923-.122399-.180951-.244744-.370739-.358392-.568943-.349695-.551479-.681889-1.129049-.987833-1.706409-3.129595-11.315742.708087-23.786624,10.385316-30.61226,12.151132-8.583805,28.883035-5.050213,37.371386,7.868628.489541.749684.944081,1.508205,1.363726,2.283768v.008627c.305943,1.094542.54199,2.197712.716838,3.309507.209796,1.30979.323444,2.628627.349642,3.938627Z" fill="#3ab4e7" opacity=".54"/><path d="M422.427532,110.111751c.261363.756874-5.139867,2.70343-13.790239,9.237745-7.996574,6.040515-11.346723,10.394276-12.048944,9.926948-.812975-.541017,2.290847-7.299109,8.279358-12.313276,7.535694-6.309554,17.220929-7.83276,17.559824-6.851417Z" fill="#ccecfc"/><path d="M375.709214,133.358203c.201099,9.083524-3.793931,17.994934-11.443045,23.398632-11.425597,8.075249-26.898673,5.429368-35.762916-5.670916-.568188-.698134-1.101481-1.439191-1.60847-2.206338-.00875-.017253-.017501-.02567-.026251-.042923-.192295-9.083734,3.811431-17.977891,11.451848-23.372962,12.142382-8.575178,28.883035-5.050213,37.371386,7.868418.008697.008837.008697.017253.017447.026091Z" fill="#fff" opacity=".5" stroke="#231f20" stroke-miterlimit="10" stroke-width=".824587"/><path d="M375.709214,133.358203c.201099,9.083524-3.793931,17.994934-11.443045,23.398632-11.425597,8.075249-26.898673,5.429368-35.762916-5.670916-.568188-.698134-1.101481-1.439191-1.60847-2.206338-.00875-.017253-.017501-.02567-.026251-.042923-.122399-.180951-.244744-.370739-.358392-.568943-.349695-.551479-.681889-1.129049-.987833-1.706409-3.129595-11.315742.708087-23.786624,10.385316-30.61226,12.151132-8.583805,28.883035-5.050213,37.371386,7.868628.489541.749684.944081,1.508205,1.363726,2.283768v.008627c.305943,1.094542.54199,2.197712.716838,3.309507.209796,1.30979.323444,2.628627.349642,3.938627Z" fill="#3ab4e7" opacity=".54"/><path d="M356.714097,122.679359c.261363.756874-5.139867,2.70343-13.790239,9.237745-7.996574,6.040515-11.346723,10.394276-12.048944,9.926948-.812975-.541017,2.290847-7.299109,8.279358-12.313276,7.535694-6.309554,17.220929-7.83276,17.559824-6.851417Z" fill="#ccecfc"/><path d="M309.995779,145.92581c.201099,9.083524-3.793931,17.994934-11.443045,23.398632-11.425597,8.075249-26.898673,5.429368-35.762916-5.670916-.568188-.698134-1.101481-1.439191-1.60847-2.206338-.00875-.017253-.017501-.02567-.026251-.042923-.192295-9.083734,3.811431-17.977891,11.451848-23.372962,12.142382-8.575178,28.883035-5.050213,37.371386,7.868418.008697.008837.008697.017253.017447.026091Z" fill="#fff" opacity=".5" stroke="#231f20" stroke-miterlimit="10" stroke-width=".824587"/><path d="M309.995779,145.92581c.201099,9.083524-3.793931,17.994934-11.443045,23.398632-11.425597,8.075249-26.898673,5.429368-35.762916-5.670916-.568188-.698134-1.101481-1.439191-1.60847-2.206338-.00875-.017253-.017501-.02567-.026251-.042923-.122399-.180951-.244744-.370739-.358392-.568943-.349695-.551479-.681889-1.129049-.987833-1.706409-3.129595-11.315742.708087-23.786624,10.385316-30.61226,12.151132-8.583805,28.883035-5.050213,37.371386,7.868628.489541.749684.944081,1.508205,1.363726,2.283768v.008627c.305943,1.094542.54199,2.197712.716838,3.309507.209796,1.30979.323444,2.628627.349642,3.938627Z" fill="#3ab4e7" opacity=".54"/><path d="M291.000662,135.246966c.261363.756874-5.139867,2.70343-13.790239,9.237745-7.996574,6.040515-11.346723,10.394276-12.048944,9.926948-.812975-.541017,2.290847-7.299109,8.279358-12.313276,7.535694-6.309554,17.220929-7.83276,17.559824-6.851417Z" fill="#ccecfc"/><path d="M244.282344,158.493417c.201099,9.083524-3.793931,17.994934-11.443045,23.398632-11.425597,8.075249-26.898673,5.429368-35.762916-5.670916-.568188-.698134-1.101481-1.439191-1.60847-2.206338-.00875-.017253-.017501-.02567-.026251-.042923-.192295-9.083734,3.811431-17.977891,11.451848-23.372962,12.142382-8.575178,28.883035-5.050213,37.371386,7.868418.008697.008837.008697.017253.017447.026091Z" fill="#fff" opacity=".5" stroke="#231f20" stroke-miterlimit="10" stroke-width=".824587"/><path d="M244.282344,158.493417c.201099,9.083524-3.793931,17.994934-11.443045,23.398632-11.425597,8.075249-26.898673,5.429368-35.762916-5.670916-.568188-.698134-1.101481-1.439191-1.60847-2.206338-.00875-.017253-.017501-.02567-.026251-.042923-.122399-.180951-.244744-.370739-.358392-.568943-.349695-.551479-.681889-1.129049-.987833-1.706409-3.129595-11.315742.708087-23.786624,10.385316-30.61226,12.151132-8.583805,28.883035-5.050213,37.371386,7.868628.489541.749684.944081,1.508205,1.363726,2.283768v.008627c.305943,1.094542.54199,2.197712.716838,3.309507.209796,1.30979.323444,2.628627.349642,3.938627Z" fill="#3ab4e7" opacity=".54"/><path d="M225.287227,147.814573c.261363.756874-5.139867,2.70343-13.790239,9.237745-7.996574,6.040515-11.346723,10.394276-12.048944,9.926948-.812975-.541017,2.290847-7.299109,8.279358-12.313276,7.535694-6.309554,17.220929-7.83276,17.559824-6.851417Z" fill="#ccecfc"/><path d="M178.568909,171.061025c.201099,9.083524-3.793931,17.994934-11.443045,23.398632-11.425597,8.075249-26.898673,5.429368-35.762916-5.670916-.568188-.698134-1.101481-1.439191-1.60847-2.206338-.00875-.017253-.017501-.02567-.026251-.042923-.192295-9.083734,3.811431-17.977891,11.451848-23.372962,12.142382-8.575178,28.883035-5.050213,37.371386,7.868418.008697.008837.008697.017253.017447.026091Z" fill="#fff" opacity=".5" stroke="#231f20" stroke-miterlimit="10" stroke-width=".824587"/><path d="M178.568909,171.061025c.201099,9.083524-3.793931,17.994934-11.443045,23.398632-11.425597,8.075249-26.898673,5.429368-35.762916-5.670916-.568188-.698134-1.101481-1.439191-1.60847-2.206338-.00875-.017253-.017501-.02567-.026251-.042923-.122399-.180951-.244744-.370739-.358392-.568943-.349695-.551479-.681889-1.129049-.987833-1.706409-3.129595-11.315742.708087-23.786624,10.385316-30.61226,12.151132-8.583805,28.883035-5.050213,37.371386,7.868628.489541.749684.944081,1.508205,1.363726,2.283768v.008627c.305943,1.094542.54199,2.197712.716838,3.309507.209796,1.30979.323444,2.628627.349642,3.938627Z" fill="#3ab4e7" opacity=".54"/><path d="M159.573792,160.382181c.261363.756874-5.139867,2.70343-13.790239,9.237745-7.996574,6.040515-11.346723,10.394276-12.048944,9.926948-.812975-.541017,2.290847-7.299109,8.279358-12.313276,7.535694-6.309554,17.220929-7.83276,17.559824-6.851417Z" fill="#ccecfc"/><path d="M112.855474,183.628632c.201099,9.083524-3.793931,17.994934-11.443045,23.398632-11.425597,8.075249-26.898673,5.429368-35.762916-5.670916-.568188-.698134-1.101481-1.439191-1.60847-2.206338-.00875-.017253-.017501-.02567-.026251-.042923-.192295-9.083734,3.811431-17.977891,11.451848-23.372962,12.142382-8.575178,28.883035-5.050213,37.371386,7.868418.008697.008837.008697.017253.017447.026091Z" fill="#fff" opacity=".5" stroke="#231f20" stroke-miterlimit="10" stroke-width=".824587"/><path d="M112.855474,183.628632c.201099,9.083524-3.793931,17.994934-11.443045,23.398632-11.425597,8.075249-26.898673,5.429368-35.762916-5.670916-.568188-.698134-1.101481-1.439191-1.60847-2.206338-.00875-.017253-.017501-.02567-.026251-.042923-.122399-.180951-.244744-.370739-.358392-.568943-.349695-.551479-.681889-1.129049-.987833-1.706409-3.129595-11.315742.708087-23.786624,10.385316-30.61226,12.151132-8.583805,28.883035-5.050213,37.371386,7.868628.489541.749684.944081,1.508205,1.363726,2.283768v.008627c.305943,1.094542.54199,2.197712.716838,3.309507.209796,1.30979.323444,2.628627.349642,3.938627Z" fill="#3ab4e7" opacity=".54"/><path d="M93.860358,172.949788c.261363.756874-5.139867,2.70343-13.790239,9.237745-7.996574,6.040515-11.346723,10.394276-12.048944,9.926948-.812975-.541017,2.290847-7.299109,8.279358-12.313276,7.535694-6.309554,17.220929-7.83276,17.559824-6.851417Z" fill="#ccecfc"/><path d="M427.00465,47.417435c.201099,9.083524-3.793931,17.994934-11.443045,23.398632-11.425597,8.075249-26.898673,5.429368-35.762916-5.670916-.568188-.698134-1.101481-1.439191-1.60847-2.206338-.00875-.017253-.017501-.02567-.026251-.042923-.192295-9.083734,3.811431-17.977891,11.451848-23.372962,12.142382-8.575178,28.883035-5.050213,37.371386,7.868418.008697.008837.008697.017253.017447.026091Z" fill="#fff" opacity=".5" stroke="#231f20" stroke-miterlimit="10" stroke-width=".824587"/><path d="M427.00465,47.417435c.201099,9.083524-3.793931,17.994934-11.443045,23.398632-11.425597,8.075249-26.898673,5.429368-35.762916-5.670916-.568188-.698134-1.101481-1.439191-1.60847-2.206338-.00875-.017253-.017501-.02567-.026251-.042923-.122399-.180951-.244744-.370739-.358392-.568943-.349695-.551479-.681889-1.129049-.987833-1.706409-3.129595-11.315742.708087-23.786624,10.385316-30.61226,12.151132-8.583805,28.883035-5.050213,37.371386,7.868628.489541.749684.944081,1.508205,1.363726,2.283768v.008627c.305943,1.094542.54199,2.197712.716838,3.309507.209796,1.30979.323444,2.628627.349642,3.938627Z" fill="#3ab4e7" opacity=".54"/><path d="M408.009533,36.73859c.261363.756874-5.139867,2.70343-13.790239,9.237745-7.996574,6.040515-11.346723,10.394276-12.048944,9.926948-.812975-.541017,2.290847-7.299109,8.279358-12.313276,7.535694-6.309554,17.220929-7.83276,17.559824-6.851417Z" fill="#ccecfc"/><path d="M361.291215,59.985042c.201099,9.083524-3.793931,17.994934-11.443045,23.398632-11.425597,8.075249-26.898673,5.429368-35.762916-5.670916-.568188-.698134-1.101481-1.439191-1.60847-2.206338-.00875-.017253-.017501-.02567-.026251-.042923-.192295-9.083734,3.811431-17.977891,11.451848-23.372962,12.142382-8.575178,28.883035-5.050213,37.371386,7.868418.008697.008837.008697.017253.017447.026091Z" fill="#fff" opacity=".5" stroke="#231f20" stroke-miterlimit="10" stroke-width=".824587"/><path d="M361.291215,59.985042c.201099,9.083524-3.793931,17.994934-11.443045,23.398632-11.425597,8.075249-26.898673,5.429368-35.762916-5.670916-.568188-.698134-1.101481-1.439191-1.60847-2.206338-.00875-.017253-.017501-.02567-.026251-.042923-.122399-.180951-.244744-.370739-.358392-.568943-.349695-.551479-.681889-1.129049-.987833-1.706409-3.129595-11.315742.708087-23.786624,10.385316-30.61226,12.151132-8.583805,28.883035-5.050213,37.371386,7.868628.489541.749684.944081,1.508205,1.363726,2.283768v.008627c.305943,1.094542.54199,2.197712.716838,3.309507.209796,1.30979.323444,2.628627.349642,3.938627Z" fill="#3ab4e7" opacity=".54"/><path d="M342.296098,49.306198c.261363.756874-5.139867,2.70343-13.790239,9.237745-7.996574,6.040515-11.346723,10.394276-12.048944,9.926948-.812975-.541017,2.290847-7.299109,8.279358-12.313276,7.535694-6.309554,17.220929-7.83276,17.559824-6.851417Z" fill="#ccecfc"/><path d="M295.57778,72.552649c.201099,9.083524-3.793931,17.994934-11.443045,23.398632-11.425597,8.075249-26.898673,5.429368-35.762916-5.670916-.568188-.698134-1.101481-1.439191-1.60847-2.206338-.00875-.017253-.017501-.02567-.026251-.042923-.192295-9.083734,3.811431-17.977891,11.451848-23.372962,12.142382-8.575178,28.883035-5.050213,37.371386,7.868418.008697.008837.008697.017253.017447.026091Z" fill="#fff" opacity=".5" stroke="#231f20" stroke-miterlimit="10" stroke-width=".824587"/><path d="M295.57778,72.552649c.201099,9.083524-3.793931,17.994934-11.443045,23.398632-11.425597,8.075249-26.898673,5.429368-35.762916-5.670916-.568188-.698134-1.101481-1.439191-1.60847-2.206338-.00875-.017253-.017501-.02567-.026251-.042923-.122399-.180951-.244744-.370739-.358392-.568943-.349695-.551479-.681889-1.129049-.987833-1.706409-3.129595-11.315742.708087-23.786624,10.385316-30.61226,12.151132-8.583805,28.883035-5.050213,37.371386,7.868628.489541.749684.944081,1.508205,1.363726,2.283768v.008627c.305943,1.094542.54199,2.197712.716838,3.309507.209796,1.30979.323444,2.628627.349642,3.938627Z" fill="#3ab4e7" opacity=".54"/><path d="M276.582663,61.873805c.261363.756874-5.139867,2.70343-13.790239,9.237745-7.996574,6.040515-11.346723,10.394276-12.048944,9.926948-.812975-.541017,2.290847-7.299109,8.279358-12.313276,7.535694-6.309554,17.220929-7.83276,17.559824-6.851417Z" fill="#ccecfc"/><path d="M229.864345,85.120257c.201099,9.083524-3.793931,17.994934-11.443045,23.398632-11.425597,8.075249-26.898673,5.429368-35.762916-5.670916-.568188-.698134-1.101481-1.439191-1.60847-2.206338-.00875-.017253-.017501-.02567-.026251-.042923-.192295-9.083734,3.811431-17.977891,11.451848-23.372962,12.142382-8.575178,28.883035-5.050213,37.371386,7.868418.008697.008837.008697.017253.017447.026091Z" fill="#fff" opacity=".5" stroke="#231f20" stroke-miterlimit="10" stroke-width=".824587"/><path d="M229.864345,85.120257c.201099,9.083524-3.793931,17.994934-11.443045,23.398632-11.425597,8.075249-26.898673,5.429368-35.762916-5.670916-.568188-.698134-1.101481-1.439191-1.60847-2.206338-.00875-.017253-.017501-.02567-.026251-.042923-.122399-.180951-.244744-.370739-.358392-.568943-.349695-.551479-.681889-1.129049-.987833-1.706409-3.129595-11.315742.708087-23.786624,10.385316-30.61226,12.151132-8.583805,28.883035-5.050213,37.371386,7.868628.489541.749684.944081,1.508205,1.363726,2.283768v.008627c.305943,1.094542.54199,2.197712.716838,3.309507.209796,1.30979.323444,2.628627.349642,3.938627Z" fill="#3ab4e7" opacity=".54"/><path d="M210.869228,74.441413c.261363.756874-5.139867,2.70343-13.790239,9.237745-7.996574,6.040515-11.346723,10.394276-12.048944,9.926948-.812975-.541017,2.290847-7.299109,8.279358-12.313276,7.535694-6.309554,17.220929-7.83276,17.559824-6.851417Z" fill="#ccecfc"/><path d="M98.437475,110.255472c.201099,9.083524-3.793931,17.994934-11.443045,23.398632-11.425597,8.075249-26.898673,5.429368-35.762916-5.670916-.568188-.698134-1.101481-1.439191-1.60847-2.206338-.00875-.017253-.017501-.02567-.026251-.042923-.192295-9.083734,3.811431-17.977891,11.451848-23.372962,12.142382-8.575178,28.883035-5.050213,37.371386,7.868418.008697.008837.008697.017253.017447.026091Z" fill="#fff" opacity=".5" stroke="#231f20" stroke-miterlimit="10" stroke-width=".824587"/><path d="M98.437475,110.255472c.201099,9.083524-3.793931,17.994934-11.443045,23.398632-11.425597,8.075249-26.898673,5.429368-35.762916-5.670916-.568188-.698134-1.101481-1.439191-1.60847-2.206338-.00875-.017253-.017501-.02567-.026251-.042923-.122399-.180951-.244744-.370739-.358392-.568943-.349695-.551479-.681889-1.129049-.987833-1.706409-3.129595-11.315742.708087-23.786624,10.385316-30.61226,12.151132-8.583805,28.883035-5.050213,37.371386,7.868628.489541.749684.944081,1.508205,1.363726,2.283768v.008627c.305943,1.094542.54199,2.197712.716838,3.309507.209796,1.30979.323444,2.628627.349642,3.938627Z" fill="#3ab4e7" opacity=".54"/><path d="M79.442358,99.576627c.261363.756874-5.139867,2.70343-13.790239,9.237745-7.996574,6.040515-11.346723,10.394276-12.048944,9.926948-.812975-.541017,2.290847-7.299109,8.279358-12.313276,7.535694-6.309554,17.220929-7.83276,17.559824-6.851417Z" fill="#ccecfc"/><polyline points="22.547623 79.198047 .662059 110.08808 60.923433 416.411866 470.66428 338.067856" fill="none" stroke="#231f20" stroke-miterlimit="10" stroke-width="1.24445"/><line x1="82.808997" y1="385.521833" x2="60.923433" y2="416.411866" fill="none" stroke="#231f20" stroke-miterlimit="10" stroke-width="1.24445"/><line x1="492.549845" y1="307.177823" x2="470.66428" y2="338.067856" fill="none" stroke="#231f20" stroke-miterlimit="10" stroke-width="1.24445"/><path d="M406.013111,76.665605c-10.207366,1.951687-20.729555-2.072718-27.460306-10.502556-.576802-.71475-1.148571-1.500505-1.693606-2.328836-.138972-.208804-.276459-.42685-.415014-.65243-.439881-.69695-.86396-1.443751-1.250671-2.202178-6.929503-13.444269-3.191862-29.921358,8.697621-38.32055,3.209051-2.265692,6.766064-3.78306,10.572977-4.510957,11.190244-2.139617,22.637188,2.89218,29.162332,12.819602,1.365269,2.08131,2.475439,4.30628,3.299691,6.614831.25912.72296.466419,1.373569.632427,1.986464.344726,1.214808.614938,2.45608.798067,3.67043,1.770802,11.25021-2.847366,22.602554-11.766934,28.910461-3.210578,2.268428-6.768875,3.78767-10.576583,4.515718Z" fill="none" stroke="#231f20" stroke-miterlimit="10" stroke-width=".673966"/><path d="M426.713922,43.480156c1.633311,10.377745-2.344125,21.152262-11.09248,27.339067-11.42279,8.071366-26.900168,5.43217-35.76333-5.668903-.566361-.701582-1.099353-1.437655-1.605409-2.207074-.133045-.19996-.259617-.401073-.387526-.608978-.428013-.678777-.827776-1.384017-1.187504-2.089862-6.472723-12.55816-3.136495-28.259291,8.180833-36.254185,12.146747-8.575998,28.882659-5.050701,37.373898,7.867942,1.309582,1.996116,2.352491,4.099527,3.127163,6.268238.222241.61952.423799,1.23586.594468,1.86524.327746,1.155624.583175,2.318026.759886,3.488516Z" fill="none" stroke="#231f20" stroke-miterlimit="10" stroke-width=".824587"/><path d="M98.437475,110.255472c.201099,9.083524-3.793931,17.994934-11.443045,23.398632-11.425597,8.075249-26.898673,5.429368-35.762916-5.670916-.568188-.698134-1.101481-1.439191-1.60847-2.206338-.00875-.017253-.017501-.02567-.026251-.042923-.122399-.180951-.244744-.370739-.358392-.568943-.349695-.551479-.681889-1.129049-.987833-1.706409-.06995-.129191-.139899-.249965-.201045-.379155-6.468986-12.556939-3.138346-28.259478,8.182354-36.257296,12.142435-8.575178,28.883035-5.050423,37.371386,7.868628,1.311277,1.999297,2.351558,4.102114,3.129542,6.273946.218546.612077.419645,1.23257.594492,1.86169.017447.060177.034948.111937.043699.172324v.008627c.305943,1.094542.54199,2.197712.716838,3.309507.209796,1.30979.323444,2.628627.349642,3.938627Z" fill="none" stroke="#231f20" stroke-miterlimit="10" stroke-width=".824587"/><path d="M340.287244,89.232641c-10.207366,1.951687-20.729555-2.072718-27.459908-10.502632-.578459-.716876-1.150229-1.502631-1.694004-2.32876-.138818-.208019-.275354-.425433-.413754-.650228-.441925-.701038-.866401-1.447764-1.252085-2.205165-6.929349-13.443484-3.191708-29.920573,8.697775-38.319765,3.209051-2.265692,6.766064-3.78306,10.572977-4.510957,11.190244-2.139617,22.637188,2.89218,29.162332,12.819602,1.365115,2.080526,2.474887,4.305571,3.300089,6.614755.257398.718403.464542,1.368227.632195,1.985287.343942,1.212922.614076,2.453802.798221,3.671215,1.770559,11.251071-2.847686,22.603023-11.767255,28.910929-3.210578,2.268428-6.768477,3.787594-10.576583,4.515718Z" fill="none" stroke="#231f20" stroke-miterlimit="10" stroke-width=".673966"/><path d="M360.988179,56.047169c1.633311,10.377745-2.344125,21.152262-11.09248,27.339067-11.42279,8.071366-26.900168,5.43217-35.76333-5.668903-.566361-.701582-1.099353-1.437655-1.605409-2.207074-.133045-.19996-.259617-.401073-.387526-.608978-.428013-.678777-.827776-1.384017-1.187504-2.089862-6.472723-12.55816-3.136495-28.259291,8.180833-36.254185,12.146747-8.575998,28.882659-5.050701,37.373898,7.867942,1.309582,1.996116,2.352491,4.099527,3.127163,6.268238.222241.61952.423799,1.23586.594468,1.86524.327746,1.155624.583175,2.318026.759886,3.488516Z" fill="none" stroke="#231f20" stroke-miterlimit="10" stroke-width=".824587"/><path d="M274.561377,101.799677c-10.207366,1.951687-20.729555-2.072718-27.459908-10.502632-.579487-.717902-1.151334-1.504049-1.694159-2.329545-.138265-.20731-.275199-.424648-.4136-.649443-.439483-.697026-.86396-1.443751-1.251532-2.204456-6.929581-13.444662-3.191862-29.921358,8.697621-38.32055,3.209051-2.265692,6.766064-3.78306,10.572977-4.510957,11.189846-2.139541,22.636789,2.892257,29.162332,12.819602,1.364871,2.081387,2.474643,4.306432,3.299691,6.614831.257398.718403.464542,1.368227.632195,1.985287.344958,1.215985.615169,2.457258.798298,3.671607,1.770802,11.25021-2.847366,22.602554-11.767332,28.910537-3.210578,2.268428-6.768477,3.787594-10.576583,4.515718Z" fill="none" stroke="#231f20" stroke-miterlimit="10" stroke-width=".673966"/><path d="M295.262435,68.614181c1.633311,10.377745-2.344125,21.152262-11.09248,27.339067-11.42279,8.071366-26.900168,5.43217-35.76333-5.668903-.566361-.701582-1.099353-1.437655-1.605409-2.207074-.133045-.19996-.259617-.401073-.387526-.608978-.428013-.678777-.827776-1.384017-1.187504-2.089862-6.472723-12.55816-3.136495-28.259291,8.180833-36.254185,12.146747-8.575998,28.882659-5.050701,37.373898,7.867942,1.309582,1.996116,2.352491,4.099527,3.127163,6.268238.222241.61952.423799,1.23586.594468,1.86524.327746,1.155624.583175,2.318026.759886,3.488516Z" fill="none" stroke="#231f20" stroke-miterlimit="10" stroke-width=".824587"/><path d="M208.835908,114.366637c-10.207366,1.951687-20.729555-2.072718-27.460306-10.502556-.576802-.71475-1.148571-1.500505-1.693606-2.328836-.138972-.208804-.276459-.42685-.415014-.65243-.439881-.69695-.86396-1.443751-1.250671-2.202178-6.929503-13.444269-3.191862-29.921358,8.697621-38.32055,3.209051-2.265692,6.766064-3.78306,10.572977-4.510957,11.190244-2.139617,22.637188,2.89218,29.162332,12.819602,1.365269,2.08131,2.475439,4.30628,3.299691,6.614831.25912.72296.466419,1.373569.632427,1.986464.344726,1.214808.614938,2.45608.798067,3.67043,1.770802,11.25021-2.847366,22.602554-11.766934,28.910461-3.210578,2.268428-6.768875,3.78767-10.576583,4.515718Z" fill="none" stroke="#231f20" stroke-miterlimit="10" stroke-width=".673966"/><path d="M229.536691,81.181193c1.633311,10.377745-2.344125,21.152262-11.09248,27.339067-11.42279,8.071366-26.900168,5.43217-35.76333-5.668903-.566361-.701582-1.099353-1.437655-1.605409-2.207074-.133045-.19996-.259617-.401073-.387526-.608978-.428013-.678777-.827776-1.384017-1.187504-2.089862-6.472723-12.55816-3.136495-28.259291,8.180833-36.254185,12.146747-8.575998,28.882659-5.050701,37.373898,7.867942,1.309582,1.996116,2.352491,4.099527,3.127163,6.268238.222241.61952.423799,1.23586.594468,1.86524.327746,1.155624.583175,2.318026.759886,3.488516Z" fill="none" stroke="#231f20" stroke-miterlimit="10" stroke-width=".824587"/><path d="M143.110042,126.933673c-10.207366,1.951687-20.729555-2.072718-27.459908-10.502632-.578459-.716876-1.150229-1.502631-1.694004-2.32876-.138818-.208019-.275354-.425433-.413754-.650228-.441141-.699152-.865219-1.445954-1.25193-2.20438-6.929503-13.444269-3.191862-29.921358,8.697621-38.32055,3.209051-2.265692,6.766064-3.78306,10.572977-4.510957,11.190244-2.139617,22.637188,2.89218,29.162332,12.819602,1.365115,2.080526,2.474887,4.305571,3.300089,6.614755.258105.719896.464928,1.370189.632029,1.98654.3438,1.210098.614011,2.451371.798387,3.669961,1.770559,11.251071-2.847686,22.603023-11.767255,28.910929-3.210578,2.268428-6.768477,3.787594-10.576583,4.515718Z" fill="none" stroke="#231f20" stroke-miterlimit="10" stroke-width=".673966"/><path d="M163.810948,93.748206c1.633311,10.377745-2.344125,21.152262-11.09248,27.339067-11.42279,8.071366-26.900168,5.43217-35.76333-5.668903-.566361-.701582-1.099353-1.437655-1.605409-2.207074-.133045-.19996-.259617-.401073-.387526-.608978-.428013-.678777-.827776-1.384017-1.187504-2.089862-6.472723-12.55816-3.136495-28.259291,8.180833-36.254185,12.146747-8.575998,28.882659-5.050701,37.373898,7.867942,1.309582,1.996116,2.352491,4.099527,3.127163,6.268238.222241.61952.423799,1.23586.594468,1.86524.327746,1.155624.583175,2.318026.759886,3.488516Z" fill="none" stroke="#231f20" stroke-miterlimit="10" stroke-width=".824587"/><path d="M91.835906,212.964608c-10.207366,1.951687-20.729157-2.072794-27.45951-10.502708-.578382-.716484-1.150229-1.502631-1.694004-2.32876-.139127-.209589-.275508-.426218-.413202-.649519-.44177-.700253-.866324-1.447372-1.252637-2.205874-6.929028-13.443953-3.191309-29.920649,8.698173-38.319841,3.209051-2.265692,6.766385-3.783529,10.573297-4.511425,11.189846-2.139541,22.636469,2.892725,29.162011,12.82007,1.364794,2.080994,2.474566,4.30604,3.299691,6.614831.257166.717225.464387,1.367442.632195,1.985287.344958,1.215985.615092,2.456865.798298,3.671607,1.770802,11.25021-2.847443,22.602162-11.767409,28.910144-3.210501,2.26882-6.768798,3.788062-10.576904,4.516187Z" fill="none" stroke="#231f20" stroke-miterlimit="10" stroke-width=".673966"/><path d="M112.537311,179.778927c1.633311,10.377745-2.344125,21.152262-11.09248,27.339067-11.42279,8.071366-26.900168,5.43217-35.76333-5.668903-.566361-.701582-1.099353-1.437655-1.605409-2.207074-.133045-.19996-.259617-.401073-.387526-.608978-.428013-.678777-.827776-1.384017-1.187504-2.089862-6.472723-12.55816-3.136495-28.259291,8.180833-36.254185,12.146747-8.575998,28.882659-5.050701,37.373898,7.867942,1.309582,1.996116,2.352491,4.099527,3.127163,6.268238.222241.61952.423799,1.23586.594468,1.86524.327746,1.155624.583175,2.318026.759886,3.488516Z" fill="none" stroke="#231f20" stroke-miterlimit="10" stroke-width=".824587"/><path d="M106.288356,286.427963c-10.207366,1.951687-20.729555-2.072718-27.459908-10.502632-.578228-.715699-1.149997-1.501454-1.693927-2.328368-.139756-.21069-.276061-.426927-.413831-.65062-.441063-.69876-.865142-1.445562-1.252008-2.204773-6.929028-13.443953-3.191387-29.921041,8.698096-38.320233,3.209051-2.265692,6.766064-3.78306,10.572977-4.510957,11.189846-2.139541,22.636789,2.892257,29.162409,12.819994,1.364716,2.080602,2.474488,4.305647,3.299613,6.614439.257398.718403.464619,1.368619.632273,1.985679.344958,1.215985.615092,2.456865.798221,3.671215,1.770802,11.25021-2.847366,22.602554-11.767332,28.910537-3.210578,2.268428-6.768477,3.787594-10.576583,4.515718Z" fill="none" stroke="#231f20" stroke-miterlimit="10" stroke-width=".673966"/><path d="M126.989417,253.242636c1.633311,10.377745-2.344125,21.152262-11.09248,27.339067-11.42279,8.071366-26.900168,5.43217-35.76333-5.668903-.566361-.701582-1.099353-1.437655-1.605409-2.207074-.133045-.19996-.259617-.401073-.387526-.608978-.428013-.678777-.827776-1.384017-1.187504-2.089862-6.472723-12.55816-3.136495-28.259291,8.180833-36.254185,12.146747-8.575998,28.882659-5.050701,37.373898,7.867942,1.309582,1.996116,2.352491,4.099527,3.127163,6.268238.222241.61952.423799,1.23586.594468,1.86524.327746,1.155624.583175,2.318026.759886,3.488516Z" fill="none" stroke="#231f20" stroke-miterlimit="10" stroke-width=".824587"/><path d="M420.464842,150.129504c-10.207366,1.951687-20.729157-2.072794-27.459908-10.502632-.576802-.71475-1.148571-1.500505-1.693606-2.328836-.138972-.208804-.276459-.42685-.414461-.651721-.439804-.696557-.863882-1.443359-1.251223-2.202886-6.929503-13.444269-3.191862-29.921358,8.697621-38.32055,3.209051-2.265692,6.766385-3.783529,10.573297-4.511425,11.190244-2.139617,22.636867,2.892649,29.162011,12.82007,1.365192,2.080918,2.475362,4.305888,3.299691,6.614831.258966.722175.466187,1.372392.632427,1.986464.344726,1.214808.61486,2.455688.798067,3.67043,1.770802,11.25021-2.847443,22.602162-11.767011,28.910068-3.210501,2.26882-6.768798,3.788062-10.576904,4.516187Z" fill="none" stroke="#231f20" stroke-miterlimit="10" stroke-width=".673966"/><path d="M441.166029,116.943865c1.633311,10.377745-2.344125,21.152262-11.09248,27.339067-11.42279,8.071366-26.900168,5.43217-35.76333-5.668903-.566361-.701582-1.099353-1.437655-1.605409-2.207074-.133045-.19996-.259617-.401073-.387526-.608978-.428013-.678777-.827776-1.384017-1.187504-2.089862-6.472723-12.55816-3.136495-28.259291,8.180833-36.254185,12.146747-8.575998,28.882659-5.050701,37.373898,7.867942,1.309582,1.996116,2.352491,4.099527,3.127163,6.268238.222241.61952.423799,1.23586.594468,1.86524.327746,1.155624.583175,2.318026.759886,3.488516Z" fill="none" stroke="#231f20" stroke-miterlimit="10" stroke-width=".824587"/><path d="M434.917292,223.592859c-10.207366,1.951687-20.729555-2.072718-27.460306-10.502556-.57657-.713573-1.148417-1.49972-1.693529-2.328444-.139602-.209905-.277011-.427559-.415091-.652823-.438699-.695139-.863175-1.441865-1.250594-2.201785-6.929581-13.444662-3.191939-29.92175,8.697544-38.320942,3.209051-2.265692,6.766064-3.78306,10.572977-4.510957,11.190244-2.139617,22.637265,2.892573,29.162409,12.819994,1.365115,2.080526,2.474964,4.305964,3.299613,6.614439.25912.72296.466419,1.373569.632504,1.986857.344726,1.214808.61486,2.455688.797989,3.670037,1.770802,11.25021-2.847366,22.602554-11.766934,28.910461-3.210578,2.268428-6.768875,3.78767-10.576583,4.515718Z" fill="none" stroke="#231f20" stroke-miterlimit="10" stroke-width=".673966"/><path d="M455.618136,190.407574c1.633311,10.377745-2.344125,21.152262-11.09248,27.339067-11.42279,8.071366-26.900168,5.43217-35.76333-5.668903-.566361-.701582-1.099353-1.437655-1.605409-2.207074-.133045-.19996-.259617-.401073-.387526-.608978-.428013-.678777-.827776-1.384017-1.187504-2.089862-6.472723-12.55816-3.136495-28.259291,8.180833-36.254185,12.146747-8.575998,28.882659-5.050701,37.373898,7.867942,1.309582,1.996116,2.352491,4.099527,3.127163,6.268238.222241.61952.423799,1.23586.594468,1.86524.327746,1.155624.583175,2.318026.759886,3.488516Z" fill="none" stroke="#231f20" stroke-miterlimit="10" stroke-width=".824587"/><path d="M449.369421,297.056682c-10.207366,1.951687-20.729555-2.072718-27.460306-10.502556-.577752-.715383-1.149124-1.501214-1.693529-2.328444-.139602-.209905-.277011-.427559-.415091-.652823-.439406-.696633-.863882-1.443359-1.250594-2.201785-6.929581-13.444662-3.191939-29.92175,8.697544-38.320942,3.209051-2.265692,6.766064-3.78306,10.572977-4.510957,11.190244-2.139617,22.637188,2.89218,29.162332,12.819602,1.365269,2.08131,2.475439,4.30628,3.299691,6.614831.25912.72296.466419,1.373569.632504,1.986857.344649,1.214416.61486,2.455688.797989,3.670037,1.770802,11.25021-2.847366,22.602554-11.766934,28.910461-3.210578,2.268428-6.768875,3.78767-10.576583,4.515718Z" fill="none" stroke="#231f20" stroke-miterlimit="10" stroke-width=".673966"/><path d="M470.070243,263.871283c1.633311,10.377745-2.344125,21.152262-11.09248,27.339067-11.42279,8.071366-26.900168,5.43217-35.76333-5.668903-.566361-.701582-1.099353-1.437655-1.605409-2.207074-.133045-.19996-.259617-.401073-.387526-.608978-.428013-.678777-.827776-1.384017-1.187504-2.089862-6.472723-12.55816-3.136495-28.259291,8.180833-36.254185,12.146747-8.575998,28.882659-5.050701,37.373898,7.867942,1.309582,1.996116,2.352491,4.099527,3.127163,6.268238.222241.61952.423799,1.23586.594468,1.86524.327746,1.155624.583175,2.318026.759886,3.488516Z" fill="none" stroke="#231f20" stroke-miterlimit="10" stroke-width=".824587"/><path d="M354.738975,162.69654c-10.207366,1.951687-20.729157-2.072794-27.45951-10.502708-.578459-.716876-1.150229-1.502631-1.694004-2.32876-.13842-.208095-.274955-.425509-.413202-.649519-.44177-.700253-.866324-1.447372-1.252637-2.205874-6.929349-13.443484-3.191708-29.920573,8.697775-38.319765,3.209051-2.265692,6.766385-3.783529,10.573297-4.511425,11.190244-2.139617,22.636867,2.892649,29.162011,12.82007,1.364639,2.080209,2.474809,4.305179,3.300089,6.614755.257166.717225.464387,1.367442.632195,1.985287.343865,1.212529.613999,2.453409.798144,3.670822,1.770559,11.251071-2.847686,22.603023-11.767255,28.910929-3.210501,2.26882-6.768798,3.788062-10.576904,4.516187Z" fill="none" stroke="#231f20" stroke-miterlimit="10" stroke-width=".673966"/><path d="M375.440285,129.510878c1.633311,10.377745-2.344125,21.152262-11.09248,27.339067-11.42279,8.071366-26.900168,5.43217-35.76333-5.668903-.566361-.701582-1.099353-1.437655-1.605409-2.207074-.133045-.19996-.259617-.401073-.387526-.608978-.428013-.678777-.827776-1.384017-1.187504-2.089862-6.472723-12.55816-3.136495-28.259291,8.180833-36.254185,12.146747-8.575998,28.882659-5.050701,37.373898,7.867942,1.309582,1.996116,2.352491,4.099527,3.127163,6.268238.222241.61952.423799,1.23586.594468,1.86524.327746,1.155624.583175,2.318026.759886,3.488516Z" fill="none" stroke="#231f20" stroke-miterlimit="10" stroke-width=".824587"/><path d="M369.191425,236.159895c-10.207366,1.951687-20.729555-2.072718-27.459908-10.502632-.578228-.715699-1.149997-1.501454-1.693927-2.328368-.13905-.209196-.275508-.426218-.413831-.65062-.441063-.69876-.865142-1.445562-1.252008-2.204773-6.929426-13.443877-3.191785-29.920965,8.697698-38.320157,3.209051-2.265692,6.766064-3.78306,10.572977-4.510957,11.190244-2.139617,22.637265,2.892573,29.162409,12.819994,1.364639,2.080209,2.474809,4.305179,3.300012,6.614363.257796.718327.464619,1.368619.63235,1.986072.343788,1.212137.613922,2.453017.798067,3.67043,1.770559,11.251071-2.847686,22.603023-11.767255,28.910929-3.210578,2.268428-6.768477,3.787594-10.576583,4.515718Z" fill="none" stroke="#231f20" stroke-miterlimit="10" stroke-width=".673966"/><path d="M389.892392,202.974587c1.633311,10.377745-2.344125,21.152262-11.09248,27.339067-11.42279,8.071366-26.900168,5.43217-35.76333-5.668903-.566361-.701582-1.099353-1.437655-1.605409-2.207074-.133045-.19996-.259617-.401073-.387526-.608978-.428013-.678777-.827776-1.384017-1.187504-2.089862-6.472723-12.55816-3.136495-28.259291,8.180833-36.254185,12.146747-8.575998,28.882659-5.050701,37.373898,7.867942,1.309582,1.996116,2.352491,4.099527,3.127163,6.268238.222241.61952.423799,1.23586.594468,1.86524.327746,1.155624.583175,2.318026.759886,3.488516Z" fill="none" stroke="#231f20" stroke-miterlimit="10" stroke-width=".824587"/><path d="M383.643554,309.623718c-10.207366,1.951687-20.729555-2.072718-27.459908-10.502632-.57941-.717509-1.151179-1.503264-1.693927-2.328368-.13905-.209196-.275508-.426218-.413831-.65062-.44177-.700253-.865849-1.447055-1.252008-2.204773-6.929426-13.443877-3.191785-29.920965,8.697698-38.320157,3.209051-2.265692,6.766064-3.78306,10.572977-4.510957,11.190244-2.139617,22.637188,2.89218,29.162332,12.819602,1.365115,2.080526,2.474887,4.305571,3.300089,6.614755.257796.718327.464619,1.368619.63235,1.986072.343788,1.212137.613922,2.453017.798067,3.67043,1.770559,11.251071-2.847686,22.603023-11.767255,28.910929-3.210578,2.268428-6.768477,3.787594-10.576583,4.515718Z" fill="none" stroke="#231f20" stroke-miterlimit="10" stroke-width=".673966"/><path d="M404.344499,276.438296c1.633311,10.377745-2.344125,21.152262-11.09248,27.339067-11.42279,8.071366-26.900168,5.43217-35.76333-5.668903-.566361-.701582-1.099353-1.437655-1.605409-2.207074-.133045-.19996-.259617-.401073-.387526-.608978-.428013-.678777-.827776-1.384017-1.187504-2.089862-6.472723-12.55816-3.136495-28.259291,8.180833-36.254185,12.146747-8.575998,28.882659-5.050701,37.373898,7.867942,1.309582,1.996116,2.352491,4.099527,3.127163,6.268238.222241.61952.423799,1.23586.594468,1.86524.327746,1.155624.583175,2.318026.759886,3.488516Z" fill="none" stroke="#231f20" stroke-miterlimit="10" stroke-width=".824587"/><path d="M289.013108,175.263576c-10.207366,1.951687-20.729157-2.072794-27.45951-10.502708-.579487-.717902-1.151334-1.504049-1.694159-2.329545-.137867-.207386-.274801-.424724-.413047-.648734-.439406-.696633-.863407-1.443043-1.252085-2.205165-6.929581-13.444662-3.191862-29.921358,8.697621-38.32055,3.209051-2.265692,6.766385-3.783529,10.573297-4.511425,11.189846-2.139541,22.636469,2.892725,29.162011,12.82007,1.364794,2.080994,2.474566,4.30604,3.299691,6.614831.257166.717225.464387,1.367442.632195,1.985287.344958,1.215985.615092,2.456865.798298,3.671607,1.770802,11.25021-2.847443,22.602162-11.767409,28.910144-3.210501,2.26882-6.768798,3.788062-10.576904,4.516187Z" fill="none" stroke="#231f20" stroke-miterlimit="10" stroke-width=".673966"/><path d="M309.714542,142.07789c1.633311,10.377745-2.344125,21.152262-11.09248,27.339067-11.42279,8.071366-26.900168,5.43217-35.76333-5.668903-.566361-.701582-1.099353-1.437655-1.605409-2.207074-.133045-.19996-.259617-.401073-.387526-.608978-.428013-.678777-.827776-1.384017-1.187504-2.089862-6.472723-12.55816-3.136495-28.259291,8.180833-36.254185,12.146747-8.575998,28.882659-5.050701,37.373898,7.867942,1.309582,1.996116,2.352491,4.099527,3.127163,6.268238.222241.61952.423799,1.23586.594468,1.86524.327746,1.155624.583175,2.318026.759886,3.488516Z" fill="none" stroke="#231f20" stroke-miterlimit="10" stroke-width=".824587"/><path d="M303.465558,248.726931c-10.207366,1.951687-20.729555-2.072718-27.459908-10.502632-.578857-.7168-1.150704-1.502948-1.694081-2.329153-.138497-.208487-.275354-.425433-.413677-.649835-.438622-.694747-.8627-1.441549-1.251455-2.204064-6.929581-13.444662-3.191939-29.92175,8.697544-38.320942,3.209051-2.265692,6.766064-3.78306,10.572977-4.510957,11.189846-2.139541,22.636789,2.892257,29.162409,12.819994,1.364716,2.080602,2.474488,4.305647,3.299613,6.614439.257398.718403.464619,1.368619.632273,1.985679.344958,1.215985.615092,2.456865.798221,3.671215,1.770802,11.25021-2.847366,22.602554-11.767332,28.910537-3.210578,2.268428-6.768477,3.787594-10.576583,4.515718Z" fill="none" stroke="#231f20" stroke-miterlimit="10" stroke-width=".673966"/><path d="M324.166648,215.541599c1.633311,10.377745-2.344125,21.152262-11.09248,27.339067-11.42279,8.071366-26.900168,5.43217-35.76333-5.668903-.566361-.701582-1.099353-1.437655-1.605409-2.207074-.133045-.19996-.259617-.401073-.387526-.608978-.428013-.678777-.827776-1.384017-1.187504-2.089862-6.472723-12.55816-3.136495-28.259291,8.180833-36.254185,12.146747-8.575998,28.882659-5.050701,37.373898,7.867942,1.309582,1.996116,2.352491,4.099527,3.127163,6.268238.222241.61952.423799,1.23586.594468,1.86524.327746,1.155624.583175,2.318026.759886,3.488516Z" fill="none" stroke="#231f20" stroke-miterlimit="10" stroke-width=".824587"/><path d="M317.917687,322.190754c-10.207366,1.951687-20.729555-2.072718-27.459908-10.502632-.58004-.71861-1.151886-1.504758-1.694081-2.329153-.138497-.208487-.275354-.425433-.413677-.649835-.439406-.696633-.863407-1.443043-1.251455-2.204064-6.929581-13.444662-3.191939-29.92175,8.697544-38.320942,3.209051-2.265692,6.766064-3.78306,10.572977-4.510957,11.189846-2.139541,22.636789,2.892257,29.162332,12.819602,1.364871,2.081387,2.474643,4.306432,3.299691,6.614831.257398.718403.464619,1.368619.63235,1.986072.344803,1.2152.615015,2.456473.798144,3.670822,1.770802,11.25021-2.847366,22.602554-11.767332,28.910537-3.210578,2.268428-6.768477,3.787594-10.576583,4.515718Z" fill="none" stroke="#231f20" stroke-miterlimit="10" stroke-width=".673966"/><path d="M338.618755,289.005308c1.633311,10.377745-2.344125,21.152262-11.09248,27.339067-11.42279,8.071366-26.900168,5.43217-35.76333-5.668903-.566361-.701582-1.099353-1.437655-1.605409-2.207074-.133045-.19996-.259617-.401073-.387526-.608978-.428013-.678777-.827776-1.384017-1.187504-2.089862-6.472723-12.55816-3.136495-28.259291,8.180833-36.254185,12.146747-8.575998,28.882659-5.050701,37.373898,7.867942,1.309582,1.996116,2.352491,4.099527,3.127163,6.268238.222241.61952.423799,1.23586.594468,1.86524.327746,1.155624.583175,2.318026.759886,3.488516Z" fill="none" stroke="#231f20" stroke-miterlimit="10" stroke-width=".824587"/><path d="M223.28764,187.830536c-10.207366,1.951687-20.729157-2.072794-27.459908-10.502632-.576802-.71475-1.148571-1.500505-1.693606-2.328836-.138972-.208804-.276459-.42685-.414461-.651721-.439804-.696557-.863882-1.443359-1.251223-2.202886-6.929503-13.444269-3.191862-29.921358,8.697621-38.32055,3.209051-2.265692,6.766385-3.783529,10.573297-4.511425,11.190244-2.139617,22.636867,2.892649,29.162011,12.82007,1.365192,2.080918,2.475362,4.305888,3.299691,6.614831.258966.722175.466187,1.372392.632427,1.986464.344726,1.214808.61486,2.455688.798067,3.67043,1.770802,11.25021-2.847443,22.602162-11.767011,28.910068-3.210501,2.26882-6.768798,3.788062-10.576904,4.516187Z" fill="none" stroke="#231f20" stroke-miterlimit="10" stroke-width=".673966"/><path d="M243.988798,154.644902c1.633311,10.377745-2.344125,21.152262-11.09248,27.339067-11.42279,8.071366-26.900168,5.43217-35.76333-5.668903-.566361-.701582-1.099353-1.437655-1.605409-2.207074-.133045-.19996-.259617-.401073-.387526-.608978-.428013-.678777-.827776-1.384017-1.187504-2.089862-6.472723-12.55816-3.136495-28.259291,8.180833-36.254185,12.146747-8.575998,28.882659-5.050701,37.373898,7.867942,1.309582,1.996116,2.352491,4.099527,3.127163,6.268238.222241.61952.423799,1.23586.594468,1.86524.327746,1.155624.583175,2.318026.759886,3.488516Z" fill="none" stroke="#231f20" stroke-miterlimit="10" stroke-width=".824587"/><path d="M237.74009,261.293891c-10.207366,1.951687-20.729555-2.072718-27.460306-10.502556-.57657-.713573-1.148417-1.49972-1.693529-2.328444-.139602-.209905-.277011-.427559-.415091-.652823-.438699-.695139-.863175-1.441865-1.250594-2.201785-6.929581-13.444662-3.191939-29.92175,8.697544-38.320942,3.209051-2.265692,6.766064-3.78306,10.572977-4.510957,11.190244-2.139617,22.637265,2.892573,29.162409,12.819994,1.365115,2.080526,2.474964,4.305964,3.299613,6.614439.25912.72296.466419,1.373569.632504,1.986857.344726,1.214808.61486,2.455688.797989,3.670037,1.770802,11.25021-2.847366,22.602554-11.766934,28.910461-3.210578,2.268428-6.768875,3.78767-10.576583,4.515718Z" fill="none" stroke="#231f20" stroke-miterlimit="10" stroke-width=".673966"/><path d="M258.440905,228.108612c1.633311,10.377745-2.344125,21.152262-11.09248,27.339067-11.42279,8.071366-26.900168,5.43217-35.76333-5.668903-.566361-.701582-1.099353-1.437655-1.605409-2.207074-.133045-.19996-.259617-.401073-.387526-.608978-.428013-.678777-.827776-1.384017-1.187504-2.089862-6.472723-12.55816-3.136495-28.259291,8.180833-36.254185,12.146747-8.575998,28.882659-5.050701,37.373898,7.867942,1.309582,1.996116,2.352491,4.099527,3.127163,6.268238.222241.61952.423799,1.23586.594468,1.86524.327746,1.155624.583175,2.318026.759886,3.488516Z" fill="none" stroke="#231f20" stroke-miterlimit="10" stroke-width=".824587"/><path d="M252.192219,334.757714c-10.207366,1.951687-20.729555-2.072718-27.460306-10.502556-.577752-.715383-1.149124-1.501214-1.693529-2.328444-.139602-.209905-.277011-.427559-.415091-.652823-.439406-.696633-.863882-1.443359-1.250594-2.201785-6.929581-13.444662-3.191939-29.92175,8.697544-38.320942,3.209051-2.265692,6.766064-3.78306,10.572977-4.510957,11.190244-2.139617,22.637188,2.89218,29.162332,12.819602,1.365269,2.08131,2.475439,4.30628,3.299691,6.614831.25912.72296.466419,1.373569.632504,1.986857.344649,1.214416.61486,2.455688.797989,3.670037,1.770802,11.25021-2.847366,22.602554-11.766934,28.910461-3.210578,2.268428-6.768875,3.78767-10.576583,4.515718Z" fill="none" stroke="#231f20" stroke-miterlimit="10" stroke-width=".673966"/><path d="M272.893012,301.572321c1.633311,10.377745-2.344125,21.152262-11.09248,27.339067-11.42279,8.071366-26.900168,5.43217-35.76333-5.668903-.566361-.701582-1.099353-1.437655-1.605409-2.207074-.133045-.19996-.259617-.401073-.387526-.608978-.428013-.678777-.827776-1.384017-1.187504-2.089862-6.472723-12.55816-3.136495-28.259291,8.180833-36.254185,12.146747-8.575998,28.882659-5.050701,37.373898,7.867942,1.309582,1.996116,2.352491,4.099527,3.127163,6.268238.222241.61952.423799,1.23586.594468,1.86524.327746,1.155624.583175,2.318026.759886,3.488516Z" fill="none" stroke="#231f20" stroke-miterlimit="10" stroke-width=".824587"/><path d="M157.561773,200.397572c-10.207366,1.951687-20.729157-2.072794-27.45951-10.502708-.578459-.716876-1.150229-1.502631-1.694004-2.32876-.13842-.208095-.274955-.425509-.413202-.649519-.441063-.69876-.865142-1.445562-1.252483-2.205089-6.929503-13.444269-3.191862-29.921358,8.697621-38.32055,3.209051-2.265692,6.766385-3.783529,10.573297-4.511425,11.190244-2.139617,22.636867,2.892649,29.162011,12.82007,1.364639,2.080209,2.474809,4.305179,3.300089,6.614755.257873.718719.464773,1.369404.632029,1.98654.3438,1.210098.613934,2.450978.79831,3.669569,1.770559,11.251071-2.847686,22.603023-11.767255,28.910929-3.210501,2.26882-6.768798,3.788062-10.576904,4.516187Z" fill="none" stroke="#231f20" stroke-miterlimit="10" stroke-width=".673966"/><path d="M178.263054,167.211915c1.633311,10.377745-2.344125,21.152262-11.09248,27.339067-11.42279,8.071366-26.900168,5.43217-35.76333-5.668903-.566361-.701582-1.099353-1.437655-1.605409-2.207074-.133045-.19996-.259617-.401073-.387526-.608978-.428013-.678777-.827776-1.384017-1.187504-2.089862-6.472723-12.55816-3.136495-28.259291,8.180833-36.254185,12.146747-8.575998,28.882659-5.050701,37.373898,7.867942,1.309582,1.996116,2.352491,4.099527,3.127163,6.268238.222241.61952.423799,1.23586.594468,1.86524.327746,1.155624.583175,2.318026.759886,3.488516Z" fill="none" stroke="#231f20" stroke-miterlimit="10" stroke-width=".824587"/><path d="M172.014223,273.860927c-10.207366,1.951687-20.729555-2.072718-27.459908-10.502632-.578228-.715699-1.149997-1.501454-1.693927-2.328368-.13905-.209196-.275508-.426218-.413831-.65062-.439958-.697342-.864435-1.444068-1.251853-2.203988-6.929581-13.444662-3.191939-29.92175,8.697544-38.320942,3.209051-2.265692,6.766064-3.78306,10.572977-4.510957,11.190244-2.139617,22.637265,2.892573,29.162409,12.819994,1.364639,2.080209,2.474809,4.305179,3.300012,6.614363.258105.719896.465005,1.370582.632106,1.986933.3438,1.210098.613934,2.450978.79831,3.669569,1.770559,11.251071-2.847686,22.603023-11.767255,28.910929-3.210578,2.268428-6.768477,3.787594-10.576583,4.515718Z" fill="none" stroke="#231f20" stroke-miterlimit="10" stroke-width=".673966"/><path d="M192.715161,240.675624c1.633311,10.377745-2.344125,21.152262-11.09248,27.339067-11.42279,8.071366-26.900168,5.43217-35.76333-5.668903-.566361-.701582-1.099353-1.437655-1.605409-2.207074-.133045-.19996-.259617-.401073-.387526-.608978-.428013-.678777-.827776-1.384017-1.187504-2.089862-6.472723-12.55816-3.136495-28.259291,8.180833-36.254185,12.146747-8.575998,28.882659-5.050701,37.373898,7.867942,1.309582,1.996116,2.352491,4.099527,3.127163,6.268238.222241.61952.423799,1.23586.594468,1.86524.327746,1.155624.583175,2.318026.759886,3.488516Z" fill="none" stroke="#231f20" stroke-miterlimit="10" stroke-width=".824587"/><path d="M186.466352,347.32475c-10.207366,1.951687-20.729555-2.072718-27.459908-10.502632-.57941-.717509-1.151179-1.503264-1.693927-2.328368-.13905-.209196-.275508-.426218-.413831-.65062-.440665-.698836-.865142-1.445562-1.251853-2.203988-6.929581-13.444662-3.191939-29.92175,8.697544-38.320942,3.209051-2.265692,6.766064-3.78306,10.572977-4.510957,11.190244-2.139617,22.637188,2.89218,29.162332,12.819602,1.365115,2.080526,2.474887,4.305571,3.300089,6.614755.258105.719896.465005,1.370582.632106,1.986933.343722,1.209706.613857,2.450586.79831,3.669569,1.770559,11.251071-2.847686,22.603023-11.767255,28.910929-3.210578,2.268428-6.768477,3.787594-10.576583,4.515718Z" fill="none" stroke="#231f20" stroke-miterlimit="10" stroke-width=".673966"/><path d="M207.167268,314.139333c1.633311,10.377745-2.344125,21.152262-11.09248,27.339067-11.42279,8.071366-26.900168,5.43217-35.76333-5.668903-.566361-.701582-1.099353-1.437655-1.605409-2.207074-.133045-.19996-.259617-.401073-.387526-.608978-.428013-.678777-.827776-1.384017-1.187504-2.089862-6.472723-12.55816-3.136495-28.259291,8.180833-36.254185,12.146747-8.575998,28.882659-5.050701,37.373898,7.867942,1.309582,1.996116,2.352491,4.099527,3.127163,6.268238.222241.61952.423799,1.23586.594468,1.86524.327746,1.155624.583175,2.318026.759886,3.488516Z" fill="none" stroke="#231f20" stroke-miterlimit="10" stroke-width=".824587"/></svg>