<?xml version="1.0" encoding="UTF-8"?><svg id="Layer_1" xmlns="http://www.w3.org/2000/svg" width="551.333333" height="435.546029" viewBox="0 0 551.333333 435.546029"><path d="M198.51805,204.843872c-.645686-1.066641-1.352432-2.111479-1.774869-3.28462-.715545-1.987155-.280376-3.670166,1.307281-5.09777,2.724412-2.44976,6.008909-4.406405,5.694095-8.684846-.162622-2.210103-1.344862-4.324458-3.142582-5.620297" fill="none" stroke="#2b8741" stroke-miterlimit="10" stroke-width=".75"/><line x1="195.820817" y1="260.217649" x2="188.595817" y2="260.217649" fill="none" stroke="#2b8741" stroke-linecap="round" stroke-miterlimit="10" stroke-width="1.96875"/><line x1="124.936129" y1="384.23256" x2="119.827282" y2="379.123713" fill="none" stroke="#834029" stroke-linecap="round" stroke-miterlimit="10" stroke-width="1.96875"/><line x1="157.125455" y1="379.49479" x2="151.369361" y2="383.861483" fill="none" stroke="#834029" stroke-linecap="round" stroke-miterlimit="10" stroke-width="1.96875"/><line x1="178.825241" y1="277.753322" x2="173.716394" y2="272.644476" fill="none" stroke="#2b8741" stroke-linecap="round" stroke-miterlimit="10" stroke-width="1.96875"/><line x1="211.014567" y1="273.015553" x2="205.258473" y2="277.382245" fill="none" stroke="#2b8741" stroke-linecap="round" stroke-miterlimit="10" stroke-width="1.96875"/><line x1="195.820817" y1="257.732257" x2="188.595817" y2="257.732257" fill="none" stroke="#2b8741" stroke-linecap="round" stroke-miterlimit="10" stroke-width="1.96875"/><path d="M198.056584,203.379799c1.898036,0,3.436504,1.573866,3.436504,3.514478v51.225667c0,7.197619,2.602308,14.099095,7.327022,19.43357l25.384491,28.657112c1.274306,1.438543,1.166916,3.660587-.239712,4.963807-1.406148,1.304201-3.579372,1.193393-4.853679-.24515l-25.384491-28.657112c-5.872453-6.62985-9.10664-15.207176-9.10664-24.152227v-51.225667c0-1.940611,1.538469-3.514478,3.436504-3.514478Z" fill="#b2dbb6" stroke="#2b8741" stroke-miterlimit="10" stroke-width=".375"/><path d="M211.291417,267.640456c.878614.045529,1.739767.433805,2.376133,1.154083l26.789647,30.32266c1.272303,1.439552,1.162157,3.662667-.24639,4.963299-1.408596,1.301611-3.58186,1.188012-4.853684-.251516l-26.789647-30.32266c-1.272303-1.439552-1.162157-3.662667.24639-4.963299.703819-.65083,1.599416-.948072,2.477551-.902567Z" fill="#b2dbb6" stroke="#2b8741" stroke-miterlimit="10" stroke-width=".375"/><path d="M187.147313,203.379799c1.898036,0,3.436504,1.573866,3.436504,3.514478v55.555025c0,6.153277-2.224523,12.052579-6.263662,16.613359l-28.227469,31.866623c-1.273348,1.438543-3.44801,1.549351-4.853679.24515-1.406627-1.30322-1.514018-3.525264-.239712-4.963807l28.22699-31.866623c2.89188-3.265405,4.484523-7.489838,4.484523-11.894702v-55.555025c0-1.940611,1.538469-3.514478,3.436504-3.514478Z" fill="#b2dbb6" stroke="#2b8741" stroke-miterlimit="10" stroke-width=".375"/><path d="M173.659716,267.455971c.877439-.057871,1.776955.226725,2.489474.867578,1.425933,1.280665,1.566013,3.502017.313222,4.959357l-26.378663,30.697196c-1.253208,1.45835-3.424798,1.601577-4.849836.319871-1.425933-1.280665-1.566013-3.502017-.313222-4.959357l26.378663-30.697196c.626604-.729175,1.482923-1.129577,2.360362-1.187449Z" fill="#b2dbb6" stroke="#2b8741" stroke-miterlimit="10" stroke-width=".375"/><circle cx="200.087549" cy="170.632308" r="12.475734" fill="#f3cf99" stroke="#8a6834" stroke-miterlimit="10" stroke-width=".375"/><circle cx="83.901908" cy="420.157934" r="12.475734" fill="#a4dff9" stroke="#2e2f82" stroke-miterlimit="10" stroke-width=".375"/><line x1="142.088869" y1="365.583473" x2="134.863869" y2="365.583473" fill="none" stroke="#834029" stroke-linecap="round" stroke-miterlimit="10" stroke-width="1.96875"/><line x1="142.088869" y1="362.404819" x2="134.863869" y2="362.404819" fill="none" stroke="#834029" stroke-linecap="round" stroke-miterlimit="10" stroke-width="1.96875"/><path d="M144.324635,308.052361c1.898036,0,3.436504,1.573866,3.436504,3.514478v51.225667c0,7.197619,2.602308,14.099095,7.327022,19.43357l25.384491,28.657112c1.274306,1.438543,1.166916,3.660587-.239712,4.963807-1.406148,1.304201-3.579372,1.193393-4.853679-.24515l-25.384491-28.657112c-5.872453-6.62985-9.10664-15.207176-9.10664-24.152227v-51.225667c0-1.940611,1.538469-3.514478,3.436504-3.514478Z" fill="#fbc7b5" stroke="#6b4133" stroke-miterlimit="10" stroke-width=".375"/><path d="M157.559468,372.313018c.878614.045529,1.739767.433805,2.376133,1.154083l26.789647,30.32266c1.272303,1.439552,1.162157,3.662667-.24639,4.963299-1.408596,1.301611-3.58186,1.188012-4.853684-.251516l-26.789647-30.32266c-1.272303-1.439552-1.162157-3.662667.24639-4.963299.703819-.65083,1.599416-.948072,2.477551-.902567Z" fill="#fbc7b5" stroke="#6b4133" stroke-miterlimit="10" stroke-width=".375"/><path d="M133.415364,308.052361c1.898036,0,3.436504,1.573866,3.436504,3.514478v55.555025c0,6.153277-2.224523,12.052579-6.263662,16.613359l-28.227469,31.866623c-1.273348,1.438543-3.44801,1.549351-4.853679.24515-1.406627-1.30322-1.514018-3.525264-.239712-4.963807l28.22699-31.866623c2.89188-3.265405,4.484523-7.489838,4.484523-11.894702v-55.555025c0-1.940611,1.538469-3.514478,3.436504-3.514478Z" fill="#fbc7b5" stroke="#6b4133" stroke-miterlimit="10" stroke-width=".375"/><path d="M119.927768,372.128533c.877439-.057871,1.776955.226725,2.489474.867578,1.425933,1.280665,1.566013,3.502017.313222,4.959357l-26.378663,30.697196c-1.253208,1.45835-3.424798,1.601577-4.849836.319871-1.425933-1.280665-1.566013-3.502017-.313222-4.959357l26.378663-30.697196c.626604-.729175,1.482923-1.129577,2.360362-1.187449Z" fill="#fbc7b5" stroke="#6b4133" stroke-miterlimit="10" stroke-width=".375"/><line x1="283.189476" y1="379.49479" x2="277.433382" y2="383.861483" fill="none" stroke="#834029" stroke-linecap="round" stroke-miterlimit="10" stroke-width="1.96875"/><path d="M283.623489,372.313018c.878614.045529,1.739767.433805,2.376133,1.154083l26.789647,30.32266c1.272303,1.439552,1.162157,3.662667-.24639,4.963299-1.408596,1.301611-3.58186,1.188012-4.853684-.251516l-26.789647-30.32266c-1.272303-1.439552-1.162157-3.662667.24639-4.963299.703819-.65083,1.599416-.948072,2.477551-.902567Z" fill="#fbc7b5" stroke="#6b4133" stroke-miterlimit="10" stroke-width=".375"/><path d="M324.582071,204.843872c-.645686-1.066641-1.352432-2.111479-1.774869-3.28462-.715545-1.987155-.280376-3.670166,1.307281-5.09777,2.724412-2.44976,6.008909-4.406405,5.694095-8.684846-.162622-2.210103-1.344862-4.324458-3.142582-5.620297" fill="none" stroke="#2b8741" stroke-miterlimit="10" stroke-width=".75"/><line x1="321.884838" y1="260.217649" x2="314.659838" y2="260.217649" fill="none" stroke="#2b8741" stroke-linecap="round" stroke-miterlimit="10" stroke-width="1.96875"/><line x1="251.00015" y1="384.23256" x2="245.891303" y2="379.123713" fill="none" stroke="#834029" stroke-linecap="round" stroke-miterlimit="10" stroke-width="1.96875"/><line x1="304.889262" y1="277.753322" x2="299.780415" y2="272.644476" fill="none" stroke="#2b8741" stroke-linecap="round" stroke-miterlimit="10" stroke-width="1.96875"/><line x1="337.078588" y1="273.015553" x2="331.322494" y2="277.382245" fill="none" stroke="#2b8741" stroke-linecap="round" stroke-miterlimit="10" stroke-width="1.96875"/><line x1="321.884838" y1="257.732257" x2="314.659838" y2="257.732257" fill="none" stroke="#2b8741" stroke-linecap="round" stroke-miterlimit="10" stroke-width="1.96875"/><path d="M324.120604,203.379799c1.898036,0,3.436504,1.573866,3.436504,3.514478v51.225667c0,7.197619,2.602308,14.099095,7.327022,19.43357l25.384491,28.657112c1.274306,1.438543,1.166916,3.660587-.239712,4.963807-1.406148,1.304201-3.579372,1.193393-4.853679-.24515l-25.384491-28.657112c-5.872453-6.62985-9.10664-15.207176-9.10664-24.152227v-51.225667c0-1.940611,1.538469-3.514478,3.436504-3.514478Z" fill="#b2dbb6" stroke="#2b8741" stroke-miterlimit="10" stroke-width=".375"/><path d="M337.355437,267.640456c.878614.045529,1.739767.433805,2.376133,1.154083l26.789647,30.32266c1.272303,1.439552,1.162157,3.662667-.24639,4.963299-1.408596,1.301611-3.58186,1.188012-4.853684-.251516l-26.789647-30.32266c-1.272303-1.439552-1.162157-3.662667.24639-4.963299.703819-.65083,1.599416-.948072,2.477551-.902567Z" fill="#b2dbb6" stroke="#2b8741" stroke-miterlimit="10" stroke-width=".375"/><path d="M313.211333,203.379799c1.898036,0,3.436504,1.573866,3.436504,3.514478v55.555025c0,6.153277-2.224523,12.052579-6.263662,16.613359l-28.227469,31.866623c-1.273348,1.438543-3.44801,1.549351-4.853679.24515-1.406627-1.30322-1.514018-3.525264-.239712-4.963807l28.22699-31.866623c2.89188-3.265405,4.484523-7.489838,4.484523-11.894702v-55.555025c0-1.940611,1.538469-3.514478,3.436504-3.514478Z" fill="#b2dbb6" stroke="#2b8741" stroke-miterlimit="10" stroke-width=".375"/><path d="M299.723737,267.455971c.877439-.057871,1.776955.226725,2.489474.867578,1.425933,1.280665,1.566013,3.502017.313222,4.959357l-26.378663,30.697196c-1.253208,1.45835-3.424798,1.601577-4.849836.319871-1.425933-1.280665-1.566013-3.502017-.313222-4.959357l26.378663-30.697196c.626604-.729175,1.482923-1.129577,2.360362-1.187449Z" fill="#b2dbb6" stroke="#2b8741" stroke-miterlimit="10" stroke-width=".375"/><circle cx="326.151569" cy="170.632308" r="12.475734" fill="#f3cf99" stroke="#8a6834" stroke-miterlimit="10" stroke-width=".375"/><circle cx="209.965929" cy="420.157934" r="12.475734" fill="#a4dff9" stroke="#2e2f82" stroke-miterlimit="10" stroke-width=".375"/><line x1="268.15289" y1="365.583473" x2="260.92789" y2="365.583473" fill="none" stroke="#834029" stroke-linecap="round" stroke-miterlimit="10" stroke-width="1.96875"/><line x1="268.15289" y1="362.404819" x2="260.92789" y2="362.404819" fill="none" stroke="#834029" stroke-linecap="round" stroke-miterlimit="10" stroke-width="1.96875"/><path d="M270.388656,308.052361c1.898036,0,3.436504,1.573866,3.436504,3.514478v51.225667c0,7.197619,2.602308,14.099095,7.327022,19.43357l25.384491,28.657112c1.274306,1.438543,1.166916,3.660587-.239712,4.963807-1.406148,1.304201-3.579372,1.193393-4.853679-.24515l-25.384491-28.657112c-5.872453-6.62985-9.10664-15.207176-9.10664-24.152227v-51.225667c0-1.940611,1.538469-3.514478,3.436504-3.514478Z" fill="#fbc7b5" stroke="#6b4133" stroke-miterlimit="10" stroke-width=".375"/><path d="M259.479385,308.052361c1.898036,0,3.436504,1.573866,3.436504,3.514478v55.555025c0,6.153277-2.224523,12.052579-6.263662,16.613359l-28.227469,31.866623c-1.273348,1.438543-3.44801,1.549351-4.853679.24515-1.406627-1.30322-1.514018-3.525264-.239712-4.963807l28.22699-31.866623c2.89188-3.265405,4.484523-7.489838,4.484523-11.894702v-55.555025c0-1.940611,1.538469-3.514478,3.436504-3.514478Z" fill="#fbc7b5" stroke="#6b4133" stroke-miterlimit="10" stroke-width=".375"/><path d="M245.991788,372.128533c.877439-.057871,1.776955.226725,2.489474.867578,1.425933,1.280665,1.566013,3.502017.313222,4.959357l-26.378663,30.697196c-1.253208,1.45835-3.424798,1.601577-4.849836.319871-1.425933-1.280665-1.566013-3.502017-.313222-4.959357l26.378663-30.697196c.626604-.729175,1.482923-1.129577,2.360362-1.187449Z" fill="#fbc7b5" stroke="#6b4133" stroke-miterlimit="10" stroke-width=".375"/><path d="M468.01309,204.843872c-.645686-1.066641-1.352432-2.111479-1.774869-3.28462-.715545-1.987155-.280376-3.670166,1.307281-5.09777,2.724412-2.44976,6.008909-4.406405,5.694095-8.684846-.162622-2.210103-1.344862-4.324458-3.142582-5.620297" fill="none" stroke="#2b8741" stroke-miterlimit="10" stroke-width=".75"/><line x1="465.315857" y1="260.217649" x2="458.090857" y2="260.217649" fill="none" stroke="#2b8741" stroke-linecap="round" stroke-miterlimit="10" stroke-width="1.96875"/><line x1="394.431169" y1="384.23256" x2="389.322322" y2="379.123713" fill="none" stroke="#834029" stroke-linecap="round" stroke-miterlimit="10" stroke-width="1.96875"/><line x1="426.620495" y1="379.49479" x2="420.864401" y2="383.861483" fill="none" stroke="#834029" stroke-linecap="round" stroke-miterlimit="10" stroke-width="1.96875"/><line x1="448.320281" y1="277.753322" x2="443.211434" y2="272.644476" fill="none" stroke="#2b8741" stroke-linecap="round" stroke-miterlimit="10" stroke-width="1.96875"/><line x1="480.509607" y1="273.015553" x2="474.753513" y2="277.382245" fill="none" stroke="#2b8741" stroke-linecap="round" stroke-miterlimit="10" stroke-width="1.96875"/><line x1="465.315857" y1="257.732257" x2="458.090857" y2="257.732257" fill="none" stroke="#2b8741" stroke-linecap="round" stroke-miterlimit="10" stroke-width="1.96875"/><path d="M467.551624,203.379799c1.898036,0,3.436504,1.573866,3.436504,3.514478v51.225667c0,7.197619,2.602308,14.099095,7.327022,19.43357l25.384491,28.657112c1.274306,1.438543,1.166916,3.660587-.239712,4.963807-1.406148,1.304201-3.579372,1.193393-4.853679-.24515l-25.384491-28.657112c-5.872453-6.62985-9.10664-15.207176-9.10664-24.152227v-51.225667c0-1.940611,1.538469-3.514478,3.436504-3.514478Z" fill="#b2dbb6" stroke="#2b8741" stroke-miterlimit="10" stroke-width=".375"/><path d="M480.786456,267.640456c.878614.045529,1.739767.433805,2.376133,1.154083l26.789647,30.32266c1.272303,1.439552,1.162157,3.662667-.24639,4.963299-1.408596,1.301611-3.58186,1.188012-4.853684-.251516l-26.789647-30.32266c-1.272303-1.439552-1.162157-3.662667.24639-4.963299.703819-.65083,1.599416-.948072,2.477551-.902567Z" fill="#b2dbb6" stroke="#2b8741" stroke-miterlimit="10" stroke-width=".375"/><path d="M456.642352,203.379799c1.898036,0,3.436504,1.573866,3.436504,3.514478v55.555025c0,6.153277-2.224523,12.052579-6.263662,16.613359l-28.227469,31.866623c-1.273348,1.438543-3.44801,1.549351-4.853679.24515-1.406627-1.30322-1.514018-3.525264-.239712-4.963807l28.22699-31.866623c2.89188-3.265405,4.484523-7.489838,4.484523-11.894702v-55.555025c0-1.940611,1.538469-3.514478,3.436504-3.514478Z" fill="#b2dbb6" stroke="#2b8741" stroke-miterlimit="10" stroke-width=".375"/><path d="M443.154756,267.455971c.877439-.057871,1.776955.226725,2.489474.867578,1.425933,1.280665,1.566013,3.502017.313222,4.959357l-26.378663,30.697196c-1.253208,1.45835-3.424798,1.601577-4.849836.319871-1.425933-1.280665-1.566013-3.502017-.313222-4.959357l26.378663-30.697196c.626604-.729175,1.482923-1.129577,2.360362-1.187449Z" fill="#b2dbb6" stroke="#2b8741" stroke-miterlimit="10" stroke-width=".375"/><circle cx="469.582588" cy="170.632308" r="12.475734" fill="#f3cf99" stroke="#8a6834" stroke-miterlimit="10" stroke-width=".375"/><circle cx="353.396948" cy="420.157934" r="12.475734" fill="#a4dff9" stroke="#2e2f82" stroke-miterlimit="10" stroke-width=".375"/><line x1="411.583909" y1="365.583473" x2="404.358909" y2="365.583473" fill="none" stroke="#834029" stroke-linecap="round" stroke-miterlimit="10" stroke-width="1.96875"/><line x1="411.583909" y1="362.404819" x2="404.358909" y2="362.404819" fill="none" stroke="#834029" stroke-linecap="round" stroke-miterlimit="10" stroke-width="1.96875"/><path d="M413.819675,308.052361c1.898036,0,3.436504,1.573866,3.436504,3.514478v51.225667c0,7.197619,2.602308,14.099095,7.327022,19.43357l25.384491,28.657112c1.274306,1.438543,1.166916,3.660587-.239712,4.963807-1.406148,1.304201-3.579372,1.193393-4.853679-.24515l-25.384491-28.657112c-5.872453-6.62985-9.10664-15.207176-9.10664-24.152227v-51.225667c0-1.940611,1.538469-3.514478,3.436504-3.514478Z" fill="#fbc7b5" stroke="#6b4133" stroke-miterlimit="10" stroke-width=".375"/><path d="M427.054508,372.313018c.878614.045529,1.739767.433805,2.376133,1.154083l26.789647,30.32266c1.272303,1.439552,1.162157,3.662667-.24639,4.963299-1.408596,1.301611-3.58186,1.188012-4.853684-.251516l-26.789647-30.32266c-1.272303-1.439552-1.162157-3.662667.24639-4.963299.703819-.65083,1.599416-.948072,2.477551-.902567Z" fill="#fbc7b5" stroke="#6b4133" stroke-miterlimit="10" stroke-width=".375"/><path d="M402.910404,308.052361c1.898036,0,3.436504,1.573866,3.436504,3.514478v55.555025c0,6.153277-2.224523,12.052579-6.263662,16.613359l-28.227469,31.866623c-1.273348,1.438543-3.44801,1.549351-4.853679.24515-1.406627-1.30322-1.514018-3.525264-.239712-4.963807l28.22699-31.866623c2.89188-3.265405,4.484523-7.489838,4.484523-11.894702v-55.555025c0-1.940611,1.538469-3.514478,3.436504-3.514478Z" fill="#fbc7b5" stroke="#6b4133" stroke-miterlimit="10" stroke-width=".375"/><path d="M389.422807,372.128533c.877439-.057871,1.776955.226725,2.489474.867578,1.425933,1.280665,1.566013,3.502017.313222,4.959357l-26.378663,30.697196c-1.253208,1.45835-3.424798,1.601577-4.849836.319871-1.425933-1.280665-1.566013-3.502017-.313222-4.959357l26.378663-30.697196c.626604-.729175,1.482923-1.129577,2.360362-1.187449Z" fill="#fbc7b5" stroke="#6b4133" stroke-miterlimit="10" stroke-width=".375"/><path d="M548.333333,3v336.102828c0,51.607255-45.928185,93.443201-102.583472,93.443201H105.583472c-56.655287,0-102.583472-41.835946-102.583472-93.443201V3" fill="none" stroke="#231f20" stroke-linecap="round" stroke-miterlimit="10" stroke-width="6"/></svg>