<?xml version="1.0" encoding="UTF-8"?><svg id="Layer_1" xmlns="http://www.w3.org/2000/svg" width="278.391449" height="270.553067" xmlns:xlink="http://www.w3.org/1999/xlink" viewBox="0 0 278.391449 270.553067"><defs><linearGradient id="linear-gradient" x1="135.055316" y1="267.97998" x2="135.055316" y2=".5" gradientUnits="userSpaceOnUse"><stop offset="0" stop-color="#5c4863"/><stop offset=".18469" stop-color="#785f82"/><stop offset=".353538" stop-color="#9575a1"/><stop offset=".529797" stop-color="#aa87ba"/><stop offset=".967015" stop-color="#dbaded"/></linearGradient><mask id="mask" x="219.176454" y="8.451662" width="73.965838" height="67.824461" maskUnits="userSpaceOnUse"><line x1="292.649453" y1="55.124815" x2="239.75871" y2="9.017002" fill="#ddaef0" stroke="#ddaef0" stroke-miterlimit="10" stroke-width="1.5"/><line x1="292.543735" y1="55.260249" x2="239.626543" y2="9.129379" fill="#ddaef0" stroke="#dcadef" stroke-miterlimit="10" stroke-width="1.5"/><line x1="292.438016" y1="55.395683" x2="239.494376" y2="9.241757" fill="#ddaef0" stroke="#dbadee" stroke-miterlimit="10" stroke-width="1.5"/><line x1="292.332298" y1="55.531117" x2="239.362209" y2="9.354134" fill="#ddaef0" stroke="#daaced" stroke-miterlimit="10" stroke-width="1.5"/><line x1="292.226579" y1="55.666551" x2="239.230041" y2="9.466511" fill="#ddaef0" stroke="#d9abec" stroke-miterlimit="10" stroke-width="1.5"/><line x1="292.120861" y1="55.801985" x2="239.097874" y2="9.578888" fill="#ddaef0" stroke="#d8aaeb" stroke-miterlimit="10" stroke-width="1.5"/><line x1="292.015142" y1="55.937419" x2="238.965707" y2="9.691265" fill="#ddaef0" stroke="#d7aaea" stroke-miterlimit="10" stroke-width="1.5"/><line x1="291.909424" y1="56.072853" x2="238.83354" y2="9.803643" fill="#ddaef0" stroke="#d7a9e9" stroke-miterlimit="10" stroke-width="1.5"/><line x1="291.803705" y1="56.208287" x2="238.701373" y2="9.91602" fill="#ddaef0" stroke="#d6a8e8" stroke-miterlimit="10" stroke-width="1.5"/><line x1="291.697987" y1="56.343721" x2="238.569205" y2="10.028397" fill="#ddaef0" stroke="#d5a7e7" stroke-miterlimit="10" stroke-width="1.5"/><line x1="291.592268" y1="56.479155" x2="238.437038" y2="10.140774" fill="#ddaef0" stroke="#d4a7e6" stroke-miterlimit="10" stroke-width="1.5"/><line x1="291.486549" y1="56.614589" x2="238.304871" y2="10.253152" fill="#ddaef0" stroke="#d3a6e5" stroke-miterlimit="10" stroke-width="1.5"/><line x1="291.380831" y1="56.750023" x2="238.172704" y2="10.365529" fill="#ddaef0" stroke="#d2a5e4" stroke-miterlimit="10" stroke-width="1.5"/><line x1="291.275112" y1="56.885457" x2="238.040536" y2="10.477906" fill="#ddaef0" stroke="#d1a5e3" stroke-miterlimit="10" stroke-width="1.5"/><line x1="291.169394" y1="57.020891" x2="237.908369" y2="10.590283" fill="#ddaef0" stroke="#d0a4e2" stroke-miterlimit="10" stroke-width="1.5"/><line x1="291.063675" y1="57.156325" x2="237.776202" y2="10.70266" fill="#ddaef0" stroke="#cfa3e1" stroke-miterlimit="10" stroke-width="1.5"/><line x1="290.957957" y1="57.291759" x2="237.644035" y2="10.815038" fill="#ddaef0" stroke="#cea2e0" stroke-miterlimit="10" stroke-width="1.5"/><line x1="290.852238" y1="57.427193" x2="237.511868" y2="10.927415" fill="#ddaef0" stroke="#cda2df" stroke-miterlimit="10" stroke-width="1.5"/><line x1="290.74652" y1="57.562627" x2="237.3797" y2="11.039792" fill="#ddaef0" stroke="#cca1de" stroke-miterlimit="10" stroke-width="1.5"/><line x1="290.640801" y1="57.698061" x2="237.247533" y2="11.152169" fill="#ddaef0" stroke="#cba0dd" stroke-miterlimit="10" stroke-width="1.5"/><line x1="290.535083" y1="57.833495" x2="237.115366" y2="11.264546" fill="#ddaef0" stroke="#cba0dc" stroke-miterlimit="10" stroke-width="1.5"/><line x1="290.429364" y1="57.968929" x2="236.983199" y2="11.376924" fill="#ddaef0" stroke="#ca9fdb" stroke-miterlimit="10" stroke-width="1.5"/><line x1="290.323645" y1="58.104363" x2="236.851031" y2="11.489301" fill="#ddaef0" stroke="#c99eda" stroke-miterlimit="10" stroke-width="1.5"/><line x1="290.217927" y1="58.239797" x2="236.718864" y2="11.601678" fill="#ddaef0" stroke="#c89dd9" stroke-miterlimit="10" stroke-width="1.5"/><line x1="290.112208" y1="58.375231" x2="236.586697" y2="11.714055" fill="#ddaef0" stroke="#c79dd8" stroke-miterlimit="10" stroke-width="1.5"/><line x1="290.00649" y1="58.510665" x2="236.45453" y2="11.826432" fill="#ddaef0" stroke="#c69cd7" stroke-miterlimit="10" stroke-width="1.5"/><line x1="289.900771" y1="58.646099" x2="236.322363" y2="11.93881" fill="#ddaef0" stroke="#c59bd6" stroke-miterlimit="10" stroke-width="1.5"/><line x1="289.795053" y1="58.781533" x2="236.190195" y2="12.051187" fill="#ddaef0" stroke="#c49ad5" stroke-miterlimit="10" stroke-width="1.5"/><line x1="289.689334" y1="58.916967" x2="236.058028" y2="12.163564" fill="#ddaef0" stroke="#c39ad4" stroke-miterlimit="10" stroke-width="1.5"/><line x1="289.583616" y1="59.052401" x2="235.925861" y2="12.275941" fill="#ddaef0" stroke="#c299d3" stroke-miterlimit="10" stroke-width="1.5"/><line x1="289.477897" y1="59.187835" x2="235.793694" y2="12.388318" fill="#ddaef0" stroke="#c198d2" stroke-miterlimit="10" stroke-width="1.5"/><line x1="289.372179" y1="59.323269" x2="235.661526" y2="12.500696" fill="#ddaef0" stroke="#c098d1" stroke-miterlimit="10" stroke-width="1.5"/><line x1="289.26646" y1="59.458703" x2="235.529359" y2="12.613073" fill="#ddaef0" stroke="#c097d0" stroke-miterlimit="10" stroke-width="1.5"/><line x1="289.160742" y1="59.594137" x2="235.397192" y2="12.72545" fill="#ddaef0" stroke="#bf96cf" stroke-miterlimit="10" stroke-width="1.5"/><line x1="289.055023" y1="59.729571" x2="235.265025" y2="12.837827" fill="#ddaef0" stroke="#be95ce" stroke-miterlimit="10" stroke-width="1.5"/><line x1="288.949304" y1="59.865005" x2="235.132858" y2="12.950205" fill="#ddaef0" stroke="#bd95cd" stroke-miterlimit="10" stroke-width="1.5"/><line x1="288.843586" y1="60.000439" x2="235.00069" y2="13.062582" fill="#ddaef0" stroke="#bc94cc" stroke-miterlimit="10" stroke-width="1.5"/><line x1="288.737867" y1="60.135873" x2="234.868523" y2="13.174959" fill="#ddaef0" stroke="#bb93cb" stroke-miterlimit="10" stroke-width="1.5"/><line x1="288.632149" y1="60.271307" x2="234.736356" y2="13.287336" fill="#ddaef0" stroke="#ba92ca" stroke-miterlimit="10" stroke-width="1.5"/><line x1="288.52643" y1="60.406741" x2="234.604189" y2="13.399713" fill="#ddaef0" stroke="#b992c9" stroke-miterlimit="10" stroke-width="1.5"/><line x1="288.420712" y1="60.542175" x2="234.472021" y2="13.512091" fill="#ddaef0" stroke="#b891c8" stroke-miterlimit="10" stroke-width="1.5"/><line x1="288.314993" y1="60.677609" x2="234.339854" y2="13.624468" fill="#ddaef0" stroke="#b790c7" stroke-miterlimit="10" stroke-width="1.5"/><line x1="288.209275" y1="60.813043" x2="234.207687" y2="13.736845" fill="#ddaef0" stroke="#b690c6" stroke-miterlimit="10" stroke-width="1.5"/><line x1="288.103556" y1="60.948477" x2="234.07552" y2="13.849222" fill="#ddaef0" stroke="#b58fc5" stroke-miterlimit="10" stroke-width="1.5"/><line x1="287.997838" y1="61.083911" x2="233.943353" y2="13.961599" fill="#ddaef0" stroke="#b48ec4" stroke-miterlimit="10" stroke-width="1.5"/><line x1="287.892119" y1="61.219345" x2="233.811185" y2="14.073977" fill="#ddaef0" stroke="#b48dc3" stroke-miterlimit="10" stroke-width="1.5"/><line x1="287.7864" y1="61.354779" x2="233.679018" y2="14.186354" fill="#ddaef0" stroke="#b38dc2" stroke-miterlimit="10" stroke-width="1.5"/><line x1="287.680682" y1="61.490213" x2="233.546851" y2="14.298731" fill="#ddaef0" stroke="#b28cc1" stroke-miterlimit="10" stroke-width="1.5"/><line x1="287.574963" y1="61.625647" x2="233.414684" y2="14.411108" fill="#ddaef0" stroke="#b18bc0" stroke-miterlimit="10" stroke-width="1.5"/><line x1="287.469245" y1="61.761081" x2="233.282516" y2="14.523485" fill="#ddaef0" stroke="#b08bbf" stroke-miterlimit="10" stroke-width="1.5"/><line x1="287.363526" y1="61.896515" x2="233.150349" y2="14.635863" fill="#ddaef0" stroke="#af8abe" stroke-miterlimit="10" stroke-width="1.5"/><line x1="287.257808" y1="62.031949" x2="233.018182" y2="14.74824" fill="#ddaef0" stroke="#ae89bd" stroke-miterlimit="10" stroke-width="1.5"/><line x1="287.152089" y1="62.167383" x2="232.886015" y2="14.860617" fill="#ddaef0" stroke="#ad88bc" stroke-miterlimit="10" stroke-width="1.5"/><line x1="287.046371" y1="62.302817" x2="232.753848" y2="14.972994" fill="#ddaef0" stroke="#ac88bb" stroke-miterlimit="10" stroke-width="1.5"/><line x1="286.940652" y1="62.438251" x2="232.62168" y2="15.085371" fill="#ddaef0" stroke="#ab87ba" stroke-miterlimit="10" stroke-width="1.5"/><line x1="286.834934" y1="62.573685" x2="232.489513" y2="15.197749" fill="#ddaef0" stroke="#aa86b9" stroke-miterlimit="10" stroke-width="1.5"/><line x1="286.729215" y1="62.709119" x2="232.357346" y2="15.310126" fill="#ddaef0" stroke="#a985b8" stroke-miterlimit="10" stroke-width="1.5"/><line x1="286.623496" y1="62.844553" x2="232.225179" y2="15.422503" fill="#ddaef0" stroke="#a885b7" stroke-miterlimit="10" stroke-width="1.5"/><line x1="286.517778" y1="62.979987" x2="232.093011" y2="15.53488" fill="#ddaef0" stroke="#a884b6" stroke-miterlimit="10" stroke-width="1.5"/><line x1="286.412059" y1="63.115421" x2="231.960844" y2="15.647258" fill="#ddaef0" stroke="#a783b5" stroke-miterlimit="10" stroke-width="1.5"/><line x1="286.306341" y1="63.250855" x2="231.828677" y2="15.759635" fill="#ddaef0" stroke="#a683b4" stroke-miterlimit="10" stroke-width="1.5"/><line x1="286.200622" y1="63.386289" x2="231.69651" y2="15.872012" fill="#ddaef0" stroke="#a582b3" stroke-miterlimit="10" stroke-width="1.5"/><line x1="286.094904" y1="63.521723" x2="231.564343" y2="15.984389" fill="#ddaef0" stroke="#a481b2" stroke-miterlimit="10" stroke-width="1.5"/><line x1="285.989185" y1="63.657157" x2="231.432175" y2="16.096766" fill="#ddaef0" stroke="#a380b1" stroke-miterlimit="10" stroke-width="1.5"/><line x1="285.883467" y1="63.792591" x2="231.300008" y2="16.209144" fill="#ddaef0" stroke="#a280b0" stroke-miterlimit="10" stroke-width="1.5"/><line x1="285.777748" y1="63.928025" x2="231.167841" y2="16.321521" fill="#ddaef0" stroke="#a17faf" stroke-miterlimit="10" stroke-width="1.5"/><line x1="285.67203" y1="64.063459" x2="231.035674" y2="16.433898" fill="#ddaef0" stroke="#a07eae" stroke-miterlimit="10" stroke-width="1.5"/><line x1="285.566311" y1="64.198893" x2="230.903506" y2="16.546275" fill="#ddaef0" stroke="#9f7ead" stroke-miterlimit="10" stroke-width="1.5"/><line x1="285.460592" y1="64.334327" x2="230.771339" y2="16.658652" fill="#ddaef0" stroke="#9e7dac" stroke-miterlimit="10" stroke-width="1.5"/><line x1="285.354874" y1="64.469761" x2="230.639172" y2="16.77103" fill="#ddaef0" stroke="#9d7cab" stroke-miterlimit="10" stroke-width="1.5"/><line x1="285.249155" y1="64.605195" x2="230.507005" y2="16.883407" fill="#ddaef0" stroke="#9d7baa" stroke-miterlimit="10" stroke-width="1.5"/><line x1="285.143437" y1="64.740629" x2="230.374838" y2="16.995784" fill="#ddaef0" stroke="#9c7ba9" stroke-miterlimit="10" stroke-width="1.5"/><line x1="285.037718" y1="64.876063" x2="230.24267" y2="17.108161" fill="#ddaef0" stroke="#9b7aa8" stroke-miterlimit="10" stroke-width="1.5"/><line x1="284.932" y1="65.011497" x2="230.110503" y2="17.220538" fill="#ddaef0" stroke="#9a79a7" stroke-miterlimit="10" stroke-width="1.5"/><line x1="284.826281" y1="65.146931" x2="229.978336" y2="17.332916" fill="#ddaef0" stroke="#9978a6" stroke-miterlimit="10" stroke-width="1.5"/><line x1="284.720563" y1="65.282365" x2="229.846169" y2="17.445293" fill="#ddaef0" stroke="#9878a5" stroke-miterlimit="10" stroke-width="1.5"/><line x1="284.614844" y1="65.417799" x2="229.714001" y2="17.55767" fill="#ddaef0" stroke="#9777a4" stroke-miterlimit="10" stroke-width="1.5"/><line x1="284.509126" y1="65.553233" x2="229.581834" y2="17.670047" fill="#ddaef0" stroke="#9676a3" stroke-miterlimit="10" stroke-width="1.5"/><line x1="284.403407" y1="65.688667" x2="229.449667" y2="17.782424" fill="#ddaef0" stroke="#9576a2" stroke-miterlimit="10" stroke-width="1.5"/><line x1="284.297688" y1="65.824101" x2="229.3175" y2="17.894802" fill="#ddaef0" stroke="#9475a1" stroke-miterlimit="10" stroke-width="1.5"/><line x1="284.19197" y1="65.959535" x2="229.185333" y2="18.007179" fill="#ddaef0" stroke="#9374a0" stroke-miterlimit="10" stroke-width="1.5"/><line x1="284.086251" y1="66.094969" x2="229.053165" y2="18.119556" fill="#ddaef0" stroke="#92739f" stroke-miterlimit="10" stroke-width="1.5"/><line x1="283.980533" y1="66.230403" x2="228.920998" y2="18.231933" fill="#ddaef0" stroke="#91739e" stroke-miterlimit="10" stroke-width="1.5"/><line x1="283.874814" y1="66.365837" x2="228.788831" y2="18.344311" fill="#ddaef0" stroke="#91729d" stroke-miterlimit="10" stroke-width="1.5"/><line x1="283.769096" y1="66.501271" x2="228.656664" y2="18.456688" fill="#ddaef0" stroke="#90719c" stroke-miterlimit="10" stroke-width="1.5"/><line x1="283.663377" y1="66.636705" x2="228.524497" y2="18.569065" fill="#ddaef0" stroke="#8f709b" stroke-miterlimit="10" stroke-width="1.5"/><line x1="283.557659" y1="66.772139" x2="228.392329" y2="18.681442" fill="#ddaef0" stroke="#8e709a" stroke-miterlimit="10" stroke-width="1.5"/><line x1="283.45194" y1="66.907573" x2="228.260162" y2="18.793819" fill="#ddaef0" stroke="#8d6f99" stroke-miterlimit="10" stroke-width="1.5"/><line x1="283.346222" y1="67.043007" x2="228.127995" y2="18.906197" fill="#ddaef0" stroke="#8c6e98" stroke-miterlimit="10" stroke-width="1.5"/><line x1="283.240503" y1="67.178441" x2="227.995828" y2="19.018574" fill="#ddaef0" stroke="#8b6e97" stroke-miterlimit="10" stroke-width="1.5"/><line x1="283.134785" y1="67.313875" x2="227.86366" y2="19.130951" fill="#ddaef0" stroke="#8a6d96" stroke-miterlimit="10" stroke-width="1.5"/><line x1="283.029066" y1="67.449309" x2="227.731493" y2="19.243328" fill="#ddaef0" stroke="#896c95" stroke-miterlimit="10" stroke-width="1.5"/><line x1="282.923347" y1="67.584743" x2="227.599326" y2="19.355705" fill="#ddaef0" stroke="#886b94" stroke-miterlimit="10" stroke-width="1.5"/><line x1="282.817629" y1="67.720177" x2="227.467159" y2="19.468083" fill="#ddaef0" stroke="#876b93" stroke-miterlimit="10" stroke-width="1.5"/><line x1="282.71191" y1="67.855611" x2="227.334992" y2="19.58046" fill="#ddaef0" stroke="#866a92" stroke-miterlimit="10" stroke-width="1.5"/><line x1="282.606192" y1="67.991045" x2="227.202824" y2="19.692837" fill="#ddaef0" stroke="#866991" stroke-miterlimit="10" stroke-width="1.5"/><line x1="282.500473" y1="68.126479" x2="227.070657" y2="19.805214" fill="#ddaef0" stroke="#856990" stroke-miterlimit="10" stroke-width="1.5"/><line x1="282.394755" y1="68.261913" x2="226.93849" y2="19.917591" fill="#ddaef0" stroke="#84688f" stroke-miterlimit="10" stroke-width="1.5"/><line x1="282.289036" y1="68.397347" x2="226.806323" y2="20.029969" fill="#ddaef0" stroke="#83678e" stroke-miterlimit="10" stroke-width="1.5"/><line x1="282.183318" y1="68.532781" x2="226.674155" y2="20.142346" fill="#ddaef0" stroke="#82668d" stroke-miterlimit="10" stroke-width="1.5"/><line x1="282.077599" y1="68.668215" x2="226.541988" y2="20.254723" fill="#ddaef0" stroke="#81668c" stroke-miterlimit="10" stroke-width="1.5"/><line x1="281.971881" y1="68.803649" x2="226.409821" y2="20.3671" fill="#ddaef0" stroke="#80658b" stroke-miterlimit="10" stroke-width="1.5"/><line x1="281.866162" y1="68.939083" x2="226.277654" y2="20.479477" fill="#ddaef0" stroke="#7f648a" stroke-miterlimit="10" stroke-width="1.5"/><line x1="281.760443" y1="69.074517" x2="226.145487" y2="20.591855" fill="#ddaef0" stroke="#7e6389" stroke-miterlimit="10" stroke-width="1.5"/><line x1="281.654725" y1="69.209951" x2="226.013319" y2="20.704232" fill="#ddaef0" stroke="#7d6388" stroke-miterlimit="10" stroke-width="1.5"/><line x1="281.549006" y1="69.345385" x2="225.881152" y2="20.816609" fill="#ddaef0" stroke="#7c6287" stroke-miterlimit="10" stroke-width="1.5"/><line x1="281.443288" y1="69.480819" x2="225.748985" y2="20.928986" fill="#ddaef0" stroke="#7b6186" stroke-miterlimit="10" stroke-width="1.5"/><line x1="281.337569" y1="69.616253" x2="225.616818" y2="21.041363" fill="#ddaef0" stroke="#7a6185" stroke-miterlimit="10" stroke-width="1.5"/><line x1="281.231851" y1="69.751687" x2="225.48465" y2="21.153741" fill="#ddaef0" stroke="#7a6084" stroke-miterlimit="10" stroke-width="1.5"/><line x1="281.126132" y1="69.887121" x2="225.352483" y2="21.266118" fill="#ddaef0" stroke="#795f83" stroke-miterlimit="10" stroke-width="1.5"/><line x1="281.020414" y1="70.022555" x2="225.220316" y2="21.378495" fill="#ddaef0" stroke="#785e82" stroke-miterlimit="10" stroke-width="1.5"/><line x1="280.914695" y1="70.157989" x2="225.088149" y2="21.490872" fill="#ddaef0" stroke="#775e81" stroke-miterlimit="10" stroke-width="1.5"/><line x1="280.808977" y1="70.293423" x2="224.955982" y2="21.60325" fill="#ddaef0" stroke="#765d80" stroke-miterlimit="10" stroke-width="1.5"/><line x1="280.703258" y1="70.428857" x2="224.823814" y2="21.715627" fill="#ddaef0" stroke="#755c7f" stroke-miterlimit="10" stroke-width="1.5"/><line x1="280.597539" y1="70.564291" x2="224.691647" y2="21.828004" fill="#ddaef0" stroke="#745c7e" stroke-miterlimit="10" stroke-width="1.5"/><line x1="280.491821" y1="70.699725" x2="224.55948" y2="21.940381" fill="#ddaef0" stroke="#735b7d" stroke-miterlimit="10" stroke-width="1.5"/><line x1="280.386102" y1="70.835159" x2="224.427313" y2="22.052758" fill="#ddaef0" stroke="#725a7c" stroke-miterlimit="10" stroke-width="1.5"/><line x1="280.280384" y1="70.970593" x2="224.295145" y2="22.165136" fill="#ddaef0" stroke="#71597b" stroke-miterlimit="10" stroke-width="1.5"/><line x1="280.174665" y1="71.106027" x2="224.162978" y2="22.277513" fill="#ddaef0" stroke="#70597a" stroke-miterlimit="10" stroke-width="1.5"/><line x1="280.068947" y1="71.241461" x2="224.030811" y2="22.38989" fill="#ddaef0" stroke="#6f5879" stroke-miterlimit="10" stroke-width="1.5"/><line x1="279.963228" y1="71.376895" x2="223.898644" y2="22.502267" fill="#ddaef0" stroke="#6e5778" stroke-miterlimit="10" stroke-width="1.5"/><line x1="279.85751" y1="71.512329" x2="223.766477" y2="22.614644" fill="#ddaef0" stroke="#6e5677" stroke-miterlimit="10" stroke-width="1.5"/><line x1="279.751791" y1="71.647763" x2="223.634309" y2="22.727022" fill="#ddaef0" stroke="#6d5676" stroke-miterlimit="10" stroke-width="1.5"/><line x1="279.646073" y1="71.783197" x2="223.502142" y2="22.839399" fill="#ddaef0" stroke="#6c5575" stroke-miterlimit="10" stroke-width="1.5"/><line x1="279.540354" y1="71.918631" x2="223.369975" y2="22.951776" fill="#ddaef0" stroke="#6b5474" stroke-miterlimit="10" stroke-width="1.5"/><line x1="279.434635" y1="72.054065" x2="223.237808" y2="23.064153" fill="#ddaef0" stroke="#6a5473" stroke-miterlimit="10" stroke-width="1.5"/><line x1="279.328917" y1="72.189499" x2="223.10564" y2="23.17653" fill="#ddaef0" stroke="#695372" stroke-miterlimit="10" stroke-width="1.5"/><line x1="279.223198" y1="72.324933" x2="222.973473" y2="23.288908" fill="#ddaef0" stroke="#685271" stroke-miterlimit="10" stroke-width="1.5"/><line x1="279.11748" y1="72.460367" x2="222.841306" y2="23.401285" fill="#ddaef0" stroke="#675170" stroke-miterlimit="10" stroke-width="1.5"/><line x1="279.011761" y1="72.595801" x2="222.709139" y2="23.513662" fill="#ddaef0" stroke="#66516f" stroke-miterlimit="10" stroke-width="1.5"/><line x1="278.906043" y1="72.731235" x2="222.576972" y2="23.626039" fill="#ddaef0" stroke="#65506e" stroke-miterlimit="10" stroke-width="1.5"/><line x1="278.800324" y1="72.866669" x2="222.444804" y2="23.738416" fill="#ddaef0" stroke="#644f6d" stroke-miterlimit="10" stroke-width="1.5"/><line x1="278.694606" y1="73.002103" x2="222.312637" y2="23.850794" fill="#ddaef0" stroke="#634e6c" stroke-miterlimit="10" stroke-width="1.5"/><line x1="278.588887" y1="73.137537" x2="222.18047" y2="23.963171" fill="#ddaef0" stroke="#634e6b" stroke-miterlimit="10" stroke-width="1.5"/><line x1="278.483169" y1="73.272971" x2="222.048303" y2="24.075548" fill="#ddaef0" stroke="#624d6a" stroke-miterlimit="10" stroke-width="1.5"/><line x1="278.37745" y1="73.408405" x2="221.916135" y2="24.187925" fill="#ddaef0" stroke="#614c69" stroke-miterlimit="10" stroke-width="1.5"/><line x1="278.271732" y1="73.543839" x2="221.783968" y2="24.300303" fill="#ddaef0" stroke="#604c68" stroke-miterlimit="10" stroke-width="1.5"/><line x1="278.166013" y1="73.679273" x2="221.651801" y2="24.41268" fill="#ddaef0" stroke="#5f4b67" stroke-miterlimit="10" stroke-width="1.5"/><line x1="278.060294" y1="73.814707" x2="221.519634" y2="24.525057" fill="#ddaef0" stroke="#5e4a66" stroke-miterlimit="10" stroke-width="1.5"/><line x1="277.954576" y1="73.950141" x2="221.387467" y2="24.637434" fill="#ddaef0" stroke="#5d4965" stroke-miterlimit="10" stroke-width="1.5"/><line x1="277.848857" y1="74.085575" x2="221.255299" y2="24.749811" fill="#ddaef0" stroke="#5c4964" stroke-miterlimit="10" stroke-width="1.5"/><line x1="277.743139" y1="74.221009" x2="221.123132" y2="24.862189" fill="#ddaef0" stroke="#5b4863" stroke-miterlimit="10" stroke-width="1.5"/><line x1="277.63742" y1="74.356443" x2="220.990965" y2="24.974566" fill="#ddaef0" stroke="#5a4762" stroke-miterlimit="10" stroke-width="1.5"/><line x1="277.531702" y1="74.491877" x2="220.858798" y2="25.086943" fill="#ddaef0" stroke="#594761" stroke-miterlimit="10" stroke-width="1.5"/><line x1="277.425983" y1="74.627311" x2="220.72663" y2="25.19932" fill="#ddaef0" stroke="#584660" stroke-miterlimit="10" stroke-width="1.5"/><line x1="277.320265" y1="74.762745" x2="220.594463" y2="25.311697" fill="#ddaef0" stroke="#57455f" stroke-miterlimit="10" stroke-width="1.5"/><line x1="277.214546" y1="74.898179" x2="220.462296" y2="25.424075" fill="#ddaef0" stroke="#57445e" stroke-miterlimit="10" stroke-width="1.5"/><line x1="277.108828" y1="75.033613" x2="220.330129" y2="25.536452" fill="#ddaef0" stroke="#56445d" stroke-miterlimit="10" stroke-width="1.5"/><line x1="277.003109" y1="75.169047" x2="220.197962" y2="25.648829" fill="#ddaef0" stroke="#55435c" stroke-miterlimit="10" stroke-width="1.5"/><line x1="276.89739" y1="75.304481" x2="220.065794" y2="25.761206" fill="#ddaef0" stroke="#54425b" stroke-miterlimit="10" stroke-width="1.5"/><line x1="276.791672" y1="75.439915" x2="219.933627" y2="25.873583" fill="#ddaef0" stroke="#53415a" stroke-miterlimit="10" stroke-width="1.5"/><line x1="276.685953" y1="75.575349" x2="219.80146" y2="25.985961" fill="#ddaef0" stroke="#524159" stroke-miterlimit="10" stroke-width="1.5"/><line x1="276.580235" y1="75.710783" x2="219.669293" y2="26.098338" fill="none" stroke="#514058" stroke-miterlimit="10" stroke-width="1.5"/></mask><mask id="mask-1" x="-13.950152" y="7.907502" width="71.008091" height="70.899495" maskUnits="userSpaceOnUse"><line x1="-13.406234" y1="59.310452" x2="34.904412" y2="8.423887" fill="#ddaef0" stroke="#ddaef0" stroke-miterlimit="10" stroke-width="1.5"/><line x1="-13.288224" y1="59.435322" x2="35.046581" y2="8.52331" fill="#ddaef0" stroke="#dcadef" stroke-miterlimit="10" stroke-width="1.5"/><line x1="-13.170214" y1="59.560191" x2="35.188749" y2="8.622733" fill="#ddaef0" stroke="#dbadee" stroke-miterlimit="10" stroke-width="1.5"/><line x1="-13.052204" y1="59.685061" x2="35.330918" y2="8.722156" fill="#ddaef0" stroke="#daaced" stroke-miterlimit="10" stroke-width="1.5"/><line x1="-12.934194" y1="59.80993" x2="35.473086" y2="8.821579" fill="#ddaef0" stroke="#d9abec" stroke-miterlimit="10" stroke-width="1.5"/><line x1="-12.816183" y1="59.9348" x2="35.615255" y2="8.921002" fill="#ddaef0" stroke="#d8aaeb" stroke-miterlimit="10" stroke-width="1.5"/><line x1="-12.698173" y1="60.059669" x2="35.757423" y2="9.020425" fill="#ddaef0" stroke="#d7aaea" stroke-miterlimit="10" stroke-width="1.5"/><line x1="-12.580163" y1="60.184539" x2="35.899592" y2="9.119848" fill="#ddaef0" stroke="#d7a9e9" stroke-miterlimit="10" stroke-width="1.5"/><line x1="-12.462153" y1="60.309408" x2="36.04176" y2="9.219271" fill="#ddaef0" stroke="#d6a8e8" stroke-miterlimit="10" stroke-width="1.5"/><line x1="-12.344143" y1="60.434278" x2="36.183929" y2="9.318694" fill="#ddaef0" stroke="#d5a7e7" stroke-miterlimit="10" stroke-width="1.5"/><line x1="-12.226133" y1="60.559147" x2="36.326097" y2="9.418117" fill="#ddaef0" stroke="#d4a7e6" stroke-miterlimit="10" stroke-width="1.5"/><line x1="-12.108123" y1="60.684017" x2="36.468266" y2="9.51754" fill="#ddaef0" stroke="#d3a6e5" stroke-miterlimit="10" stroke-width="1.5"/><line x1="-11.990113" y1="60.808886" x2="36.610434" y2="9.616963" fill="#ddaef0" stroke="#d2a5e4" stroke-miterlimit="10" stroke-width="1.5"/><line x1="-11.872102" y1="60.933756" x2="36.752603" y2="9.716386" fill="#ddaef0" stroke="#d1a5e3" stroke-miterlimit="10" stroke-width="1.5"/><line x1="-11.754092" y1="61.058625" x2="36.894771" y2="9.815809" fill="#ddaef0" stroke="#d0a4e2" stroke-miterlimit="10" stroke-width="1.5"/><line x1="-11.636082" y1="61.183494" x2="37.036939" y2="9.915232" fill="#ddaef0" stroke="#cfa3e1" stroke-miterlimit="10" stroke-width="1.5"/><line x1="-11.518072" y1="61.308364" x2="37.179108" y2="10.014655" fill="#ddaef0" stroke="#cea2e0" stroke-miterlimit="10" stroke-width="1.5"/><line x1="-11.400062" y1="61.433233" x2="37.321276" y2="10.114078" fill="#ddaef0" stroke="#cda2df" stroke-miterlimit="10" stroke-width="1.5"/><line x1="-11.282052" y1="61.558103" x2="37.463445" y2="10.213501" fill="#ddaef0" stroke="#cca1de" stroke-miterlimit="10" stroke-width="1.5"/><line x1="-11.164042" y1="61.682972" x2="37.605613" y2="10.312924" fill="#ddaef0" stroke="#cba0dd" stroke-miterlimit="10" stroke-width="1.5"/><line x1="-11.046031" y1="61.807842" x2="37.747782" y2="10.412347" fill="#ddaef0" stroke="#cba0dc" stroke-miterlimit="10" stroke-width="1.5"/><line x1="-10.928021" y1="61.932711" x2="37.88995" y2="10.51177" fill="#ddaef0" stroke="#ca9fdb" stroke-miterlimit="10" stroke-width="1.5"/><line x1="-10.810011" y1="62.057581" x2="38.032119" y2="10.611193" fill="#ddaef0" stroke="#c99eda" stroke-miterlimit="10" stroke-width="1.5"/><line x1="-10.692001" y1="62.18245" x2="38.174287" y2="10.710616" fill="#ddaef0" stroke="#c89dd9" stroke-miterlimit="10" stroke-width="1.5"/><line x1="-10.573991" y1="62.30732" x2="38.316456" y2="10.810039" fill="#ddaef0" stroke="#c79dd8" stroke-miterlimit="10" stroke-width="1.5"/><line x1="-10.455981" y1="62.432189" x2="38.458624" y2="10.909462" fill="#ddaef0" stroke="#c69cd7" stroke-miterlimit="10" stroke-width="1.5"/><line x1="-10.337971" y1="62.557059" x2="38.600793" y2="11.008885" fill="#ddaef0" stroke="#c59bd6" stroke-miterlimit="10" stroke-width="1.5"/><line x1="-10.219961" y1="62.681928" x2="38.742961" y2="11.108308" fill="#ddaef0" stroke="#c49ad5" stroke-miterlimit="10" stroke-width="1.5"/><line x1="-10.10195" y1="62.806798" x2="38.88513" y2="11.207731" fill="#ddaef0" stroke="#c39ad4" stroke-miterlimit="10" stroke-width="1.5"/><line x1="-9.98394" y1="62.931667" x2="39.027298" y2="11.307154" fill="#ddaef0" stroke="#c299d3" stroke-miterlimit="10" stroke-width="1.5"/><line x1="-9.86593" y1="63.056537" x2="39.169467" y2="11.406577" fill="#ddaef0" stroke="#c198d2" stroke-miterlimit="10" stroke-width="1.5"/><line x1="-9.74792" y1="63.181406" x2="39.311635" y2="11.506" fill="#ddaef0" stroke="#c098d1" stroke-miterlimit="10" stroke-width="1.5"/><line x1="-9.62991" y1="63.306276" x2="39.453804" y2="11.605423" fill="#ddaef0" stroke="#c097d0" stroke-miterlimit="10" stroke-width="1.5"/><line x1="-9.5119" y1="63.431145" x2="39.595972" y2="11.704846" fill="#ddaef0" stroke="#bf96cf" stroke-miterlimit="10" stroke-width="1.5"/><line x1="-9.39389" y1="63.556015" x2="39.738141" y2="11.804269" fill="#ddaef0" stroke="#be95ce" stroke-miterlimit="10" stroke-width="1.5"/><line x1="-9.275879" y1="63.680884" x2="39.880309" y2="11.903692" fill="#ddaef0" stroke="#bd95cd" stroke-miterlimit="10" stroke-width="1.5"/><line x1="-9.157869" y1="63.805754" x2="40.022477" y2="12.003115" fill="#ddaef0" stroke="#bc94cc" stroke-miterlimit="10" stroke-width="1.5"/><line x1="-9.039859" y1="63.930623" x2="40.164646" y2="12.102538" fill="#ddaef0" stroke="#bb93cb" stroke-miterlimit="10" stroke-width="1.5"/><line x1="-8.921849" y1="64.055492" x2="40.306814" y2="12.201961" fill="#ddaef0" stroke="#ba92ca" stroke-miterlimit="10" stroke-width="1.5"/><line x1="-8.803839" y1="64.180362" x2="40.448983" y2="12.301384" fill="#ddaef0" stroke="#b992c9" stroke-miterlimit="10" stroke-width="1.5"/><line x1="-8.685829" y1="64.305231" x2="40.591151" y2="12.400807" fill="#ddaef0" stroke="#b891c8" stroke-miterlimit="10" stroke-width="1.5"/><line x1="-8.567819" y1="64.430101" x2="40.73332" y2="12.50023" fill="#ddaef0" stroke="#b790c7" stroke-miterlimit="10" stroke-width="1.5"/><line x1="-8.449809" y1="64.55497" x2="40.875488" y2="12.599653" fill="#ddaef0" stroke="#b690c6" stroke-miterlimit="10" stroke-width="1.5"/><line x1="-8.331798" y1="64.67984" x2="41.017657" y2="12.699076" fill="#ddaef0" stroke="#b58fc5" stroke-miterlimit="10" stroke-width="1.5"/><line x1="-8.213788" y1="64.804709" x2="41.159825" y2="12.798499" fill="#ddaef0" stroke="#b48ec4" stroke-miterlimit="10" stroke-width="1.5"/><line x1="-8.095778" y1="64.929579" x2="41.301994" y2="12.897922" fill="#ddaef0" stroke="#b48dc3" stroke-miterlimit="10" stroke-width="1.5"/><line x1="-7.977768" y1="65.054448" x2="41.444162" y2="12.997345" fill="#ddaef0" stroke="#b38dc2" stroke-miterlimit="10" stroke-width="1.5"/><line x1="-7.859758" y1="65.179318" x2="41.586331" y2="13.096768" fill="#ddaef0" stroke="#b28cc1" stroke-miterlimit="10" stroke-width="1.5"/><line x1="-7.741748" y1="65.304187" x2="41.728499" y2="13.196191" fill="#ddaef0" stroke="#b18bc0" stroke-miterlimit="10" stroke-width="1.5"/><line x1="-7.623738" y1="65.429057" x2="41.870668" y2="13.295614" fill="#ddaef0" stroke="#b08bbf" stroke-miterlimit="10" stroke-width="1.5"/><line x1="-7.505727" y1="65.553926" x2="42.012836" y2="13.395038" fill="#ddaef0" stroke="#af8abe" stroke-miterlimit="10" stroke-width="1.5"/><line x1="-7.387717" y1="65.678796" x2="42.155005" y2="13.494461" fill="#ddaef0" stroke="#ae89bd" stroke-miterlimit="10" stroke-width="1.5"/><line x1="-7.269707" y1="65.803665" x2="42.297173" y2="13.593884" fill="#ddaef0" stroke="#ad88bc" stroke-miterlimit="10" stroke-width="1.5"/><line x1="-7.151697" y1="65.928535" x2="42.439342" y2="13.693307" fill="#ddaef0" stroke="#ac88bb" stroke-miterlimit="10" stroke-width="1.5"/><line x1="-7.033687" y1="66.053404" x2="42.58151" y2="13.79273" fill="#ddaef0" stroke="#ab87ba" stroke-miterlimit="10" stroke-width="1.5"/><line x1="-6.915677" y1="66.178274" x2="42.723679" y2="13.892153" fill="#ddaef0" stroke="#aa86b9" stroke-miterlimit="10" stroke-width="1.5"/><line x1="-6.797667" y1="66.303143" x2="42.865847" y2="13.991576" fill="#ddaef0" stroke="#a985b8" stroke-miterlimit="10" stroke-width="1.5"/><line x1="-6.679657" y1="66.428013" x2="43.008015" y2="14.090999" fill="#ddaef0" stroke="#a885b7" stroke-miterlimit="10" stroke-width="1.5"/><line x1="-6.561646" y1="66.552882" x2="43.150184" y2="14.190422" fill="#ddaef0" stroke="#a884b6" stroke-miterlimit="10" stroke-width="1.5"/><line x1="-6.443636" y1="66.677752" x2="43.292352" y2="14.289845" fill="#ddaef0" stroke="#a783b5" stroke-miterlimit="10" stroke-width="1.5"/><line x1="-6.325626" y1="66.802621" x2="43.434521" y2="14.389268" fill="#ddaef0" stroke="#a683b4" stroke-miterlimit="10" stroke-width="1.5"/><line x1="-6.207616" y1="66.92749" x2="43.576689" y2="14.488691" fill="#ddaef0" stroke="#a582b3" stroke-miterlimit="10" stroke-width="1.5"/><line x1="-6.089606" y1="67.05236" x2="43.718858" y2="14.588114" fill="#ddaef0" stroke="#a481b2" stroke-miterlimit="10" stroke-width="1.5"/><line x1="-5.971596" y1="67.177229" x2="43.861026" y2="14.687537" fill="#ddaef0" stroke="#a380b1" stroke-miterlimit="10" stroke-width="1.5"/><line x1="-5.853586" y1="67.302099" x2="44.003195" y2="14.78696" fill="#ddaef0" stroke="#a280b0" stroke-miterlimit="10" stroke-width="1.5"/><line x1="-5.735575" y1="67.426968" x2="44.145363" y2="14.886383" fill="#ddaef0" stroke="#a17faf" stroke-miterlimit="10" stroke-width="1.5"/><line x1="-5.617565" y1="67.551838" x2="44.287532" y2="14.985806" fill="#ddaef0" stroke="#a07eae" stroke-miterlimit="10" stroke-width="1.5"/><line x1="-5.499555" y1="67.676707" x2="44.4297" y2="15.085229" fill="#ddaef0" stroke="#9f7ead" stroke-miterlimit="10" stroke-width="1.5"/><line x1="-5.381545" y1="67.801577" x2="44.571869" y2="15.184652" fill="#ddaef0" stroke="#9e7dac" stroke-miterlimit="10" stroke-width="1.5"/><line x1="-5.263535" y1="67.926446" x2="44.714037" y2="15.284075" fill="#ddaef0" stroke="#9d7cab" stroke-miterlimit="10" stroke-width="1.5"/><line x1="-5.145525" y1="68.051316" x2="44.856206" y2="15.383498" fill="#ddaef0" stroke="#9d7baa" stroke-miterlimit="10" stroke-width="1.5"/><line x1="-5.027515" y1="68.176185" x2="44.998374" y2="15.482921" fill="#ddaef0" stroke="#9c7ba9" stroke-miterlimit="10" stroke-width="1.5"/><line x1="-4.909505" y1="68.301055" x2="45.140543" y2="15.582344" fill="#ddaef0" stroke="#9b7aa8" stroke-miterlimit="10" stroke-width="1.5"/><line x1="-4.791494" y1="68.425924" x2="45.282711" y2="15.681767" fill="#ddaef0" stroke="#9a79a7" stroke-miterlimit="10" stroke-width="1.5"/><line x1="-4.673484" y1="68.550794" x2="45.42488" y2="15.78119" fill="#ddaef0" stroke="#9978a6" stroke-miterlimit="10" stroke-width="1.5"/><line x1="-4.555474" y1="68.675663" x2="45.567048" y2="15.880613" fill="#ddaef0" stroke="#9878a5" stroke-miterlimit="10" stroke-width="1.5"/><line x1="-4.437464" y1="68.800533" x2="45.709217" y2="15.980036" fill="#ddaef0" stroke="#9777a4" stroke-miterlimit="10" stroke-width="1.5"/><line x1="-4.319454" y1="68.925402" x2="45.851385" y2="16.079459" fill="#ddaef0" stroke="#9676a3" stroke-miterlimit="10" stroke-width="1.5"/><line x1="-4.201444" y1="69.050272" x2="45.993553" y2="16.178882" fill="#ddaef0" stroke="#9576a2" stroke-miterlimit="10" stroke-width="1.5"/><line x1="-4.083434" y1="69.175141" x2="46.135722" y2="16.278305" fill="#ddaef0" stroke="#9475a1" stroke-miterlimit="10" stroke-width="1.5"/><line x1="-3.965423" y1="69.300011" x2="46.27789" y2="16.377728" fill="#ddaef0" stroke="#9374a0" stroke-miterlimit="10" stroke-width="1.5"/><line x1="-3.847413" y1="69.42488" x2="46.420059" y2="16.477151" fill="#ddaef0" stroke="#92739f" stroke-miterlimit="10" stroke-width="1.5"/><line x1="-3.729403" y1="69.549749" x2="46.562227" y2="16.576574" fill="#ddaef0" stroke="#91739e" stroke-miterlimit="10" stroke-width="1.5"/><line x1="-3.611393" y1="69.674619" x2="46.704396" y2="16.675997" fill="#ddaef0" stroke="#91729d" stroke-miterlimit="10" stroke-width="1.5"/><line x1="-3.493383" y1="69.799488" x2="46.846564" y2="16.77542" fill="#ddaef0" stroke="#90719c" stroke-miterlimit="10" stroke-width="1.5"/><line x1="-3.375373" y1="69.924358" x2="46.988733" y2="16.874843" fill="#ddaef0" stroke="#8f709b" stroke-miterlimit="10" stroke-width="1.5"/><line x1="-3.257363" y1="70.049227" x2="47.130901" y2="16.974266" fill="#ddaef0" stroke="#8e709a" stroke-miterlimit="10" stroke-width="1.5"/><line x1="-3.139353" y1="70.174097" x2="47.27307" y2="17.073689" fill="#ddaef0" stroke="#8d6f99" stroke-miterlimit="10" stroke-width="1.5"/><line x1="-3.021342" y1="70.298966" x2="47.415238" y2="17.173112" fill="#ddaef0" stroke="#8c6e98" stroke-miterlimit="10" stroke-width="1.5"/><line x1="-2.903332" y1="70.423836" x2="47.557407" y2="17.272535" fill="#ddaef0" stroke="#8b6e97" stroke-miterlimit="10" stroke-width="1.5"/><line x1="-2.785322" y1="70.548705" x2="47.699575" y2="17.371958" fill="#ddaef0" stroke="#8a6d96" stroke-miterlimit="10" stroke-width="1.5"/><line x1="-2.667312" y1="70.673575" x2="47.841744" y2="17.471381" fill="#ddaef0" stroke="#896c95" stroke-miterlimit="10" stroke-width="1.5"/><line x1="-2.549302" y1="70.798444" x2="47.983912" y2="17.570804" fill="#ddaef0" stroke="#886b94" stroke-miterlimit="10" stroke-width="1.5"/><line x1="-2.431292" y1="70.923314" x2="48.126081" y2="17.670227" fill="#ddaef0" stroke="#876b93" stroke-miterlimit="10" stroke-width="1.5"/><line x1="-2.313282" y1="71.048183" x2="48.268249" y2="17.76965" fill="#ddaef0" stroke="#866a92" stroke-miterlimit="10" stroke-width="1.5"/><line x1="-2.195271" y1="71.173053" x2="48.410418" y2="17.869073" fill="#ddaef0" stroke="#866991" stroke-miterlimit="10" stroke-width="1.5"/><line x1="-2.077261" y1="71.297922" x2="48.552586" y2="17.968496" fill="#ddaef0" stroke="#856990" stroke-miterlimit="10" stroke-width="1.5"/><line x1="-1.959251" y1="71.422792" x2="48.694755" y2="18.067919" fill="#ddaef0" stroke="#84688f" stroke-miterlimit="10" stroke-width="1.5"/><line x1="-1.841241" y1="71.547661" x2="48.836923" y2="18.167342" fill="#ddaef0" stroke="#83678e" stroke-miterlimit="10" stroke-width="1.5"/><line x1="-1.723231" y1="71.672531" x2="48.979091" y2="18.266765" fill="#ddaef0" stroke="#82668d" stroke-miterlimit="10" stroke-width="1.5"/><line x1="-1.605221" y1="71.7974" x2="49.12126" y2="18.366188" fill="#ddaef0" stroke="#81668c" stroke-miterlimit="10" stroke-width="1.5"/><line x1="-1.487211" y1="71.92227" x2="49.263428" y2="18.465611" fill="#ddaef0" stroke="#80658b" stroke-miterlimit="10" stroke-width="1.5"/><line x1="-1.369201" y1="72.047139" x2="49.405597" y2="18.565034" fill="#ddaef0" stroke="#7f648a" stroke-miterlimit="10" stroke-width="1.5"/><line x1="-1.25119" y1="72.172009" x2="49.547765" y2="18.664457" fill="#ddaef0" stroke="#7e6389" stroke-miterlimit="10" stroke-width="1.5"/><line x1="-1.13318" y1="72.296878" x2="49.689934" y2="18.76388" fill="#ddaef0" stroke="#7d6388" stroke-miterlimit="10" stroke-width="1.5"/><line x1="-1.01517" y1="72.421747" x2="49.832102" y2="18.863303" fill="#ddaef0" stroke="#7c6287" stroke-miterlimit="10" stroke-width="1.5"/><line x1="-.89716" y1="72.546617" x2="49.974271" y2="18.962726" fill="#ddaef0" stroke="#7b6186" stroke-miterlimit="10" stroke-width="1.5"/><line x1="-.77915" y1="72.671486" x2="50.116439" y2="19.062149" fill="#ddaef0" stroke="#7a6185" stroke-miterlimit="10" stroke-width="1.5"/><line x1="-.66114" y1="72.796356" x2="50.258608" y2="19.161572" fill="#ddaef0" stroke="#7a6084" stroke-miterlimit="10" stroke-width="1.5"/><line x1="-.54313" y1="72.921225" x2="50.400776" y2="19.260995" fill="#ddaef0" stroke="#795f83" stroke-miterlimit="10" stroke-width="1.5"/><line x1="-.425119" y1="73.046095" x2="50.542945" y2="19.360418" fill="#ddaef0" stroke="#785e82" stroke-miterlimit="10" stroke-width="1.5"/><line x1="-.307109" y1="73.170964" x2="50.685113" y2="19.459841" fill="#ddaef0" stroke="#775e81" stroke-miterlimit="10" stroke-width="1.5"/><line x1="-.189099" y1="73.295834" x2="50.827282" y2="19.559264" fill="#ddaef0" stroke="#765d80" stroke-miterlimit="10" stroke-width="1.5"/><line x1="-.071089" y1="73.420703" x2="50.96945" y2="19.658687" fill="#ddaef0" stroke="#755c7f" stroke-miterlimit="10" stroke-width="1.5"/><line x1=".046921" y1="73.545573" x2="51.111619" y2="19.75811" fill="#ddaef0" stroke="#745c7e" stroke-miterlimit="10" stroke-width="1.5"/><line x1=".164931" y1="73.670442" x2="51.253787" y2="19.857533" fill="#ddaef0" stroke="#735b7d" stroke-miterlimit="10" stroke-width="1.5"/><line x1=".282941" y1="73.795312" x2="51.395956" y2="19.956956" fill="#ddaef0" stroke="#725a7c" stroke-miterlimit="10" stroke-width="1.5"/><line x1=".400951" y1="73.920181" x2="51.538124" y2="20.056379" fill="#ddaef0" stroke="#71597b" stroke-miterlimit="10" stroke-width="1.5"/><line x1=".518962" y1="74.045051" x2="51.680293" y2="20.155802" fill="#ddaef0" stroke="#70597a" stroke-miterlimit="10" stroke-width="1.5"/><line x1=".636972" y1="74.16992" x2="51.822461" y2="20.255225" fill="#ddaef0" stroke="#6f5879" stroke-miterlimit="10" stroke-width="1.5"/><line x1=".754982" y1="74.29479" x2="51.964629" y2="20.354648" fill="#ddaef0" stroke="#6e5778" stroke-miterlimit="10" stroke-width="1.5"/><line x1=".872992" y1="74.419659" x2="52.106798" y2="20.454072" fill="#ddaef0" stroke="#6e5677" stroke-miterlimit="10" stroke-width="1.5"/><line x1=".991002" y1="74.544529" x2="52.248966" y2="20.553495" fill="#ddaef0" stroke="#6d5676" stroke-miterlimit="10" stroke-width="1.5"/><line x1="1.109012" y1="74.669398" x2="52.391135" y2="20.652918" fill="#ddaef0" stroke="#6c5575" stroke-miterlimit="10" stroke-width="1.5"/><line x1="1.227022" y1="74.794268" x2="52.533303" y2="20.752341" fill="#ddaef0" stroke="#6b5474" stroke-miterlimit="10" stroke-width="1.5"/><line x1="1.345033" y1="74.919137" x2="52.675472" y2="20.851764" fill="#ddaef0" stroke="#6a5473" stroke-miterlimit="10" stroke-width="1.5"/><line x1="1.463043" y1="75.044007" x2="52.81764" y2="20.951187" fill="#ddaef0" stroke="#695372" stroke-miterlimit="10" stroke-width="1.5"/><line x1="1.581053" y1="75.168876" x2="52.959809" y2="21.05061" fill="#ddaef0" stroke="#685271" stroke-miterlimit="10" stroke-width="1.5"/><line x1="1.699063" y1="75.293745" x2="53.101977" y2="21.150033" fill="#ddaef0" stroke="#675170" stroke-miterlimit="10" stroke-width="1.5"/><line x1="1.817073" y1="75.418615" x2="53.244146" y2="21.249456" fill="#ddaef0" stroke="#66516f" stroke-miterlimit="10" stroke-width="1.5"/><line x1="1.935083" y1="75.543484" x2="53.386314" y2="21.348879" fill="#ddaef0" stroke="#65506e" stroke-miterlimit="10" stroke-width="1.5"/><line x1="2.053093" y1="75.668354" x2="53.528483" y2="21.448302" fill="#ddaef0" stroke="#644f6d" stroke-miterlimit="10" stroke-width="1.5"/><line x1="2.171103" y1="75.793223" x2="53.670651" y2="21.547725" fill="#ddaef0" stroke="#634e6c" stroke-miterlimit="10" stroke-width="1.5"/><line x1="2.289114" y1="75.918093" x2="53.81282" y2="21.647148" fill="#ddaef0" stroke="#634e6b" stroke-miterlimit="10" stroke-width="1.5"/><line x1="2.407124" y1="76.042962" x2="53.954988" y2="21.746571" fill="#ddaef0" stroke="#624d6a" stroke-miterlimit="10" stroke-width="1.5"/><line x1="2.525134" y1="76.167832" x2="54.097157" y2="21.845994" fill="#ddaef0" stroke="#614c69" stroke-miterlimit="10" stroke-width="1.5"/><line x1="2.643144" y1="76.292701" x2="54.239325" y2="21.945417" fill="#ddaef0" stroke="#604c68" stroke-miterlimit="10" stroke-width="1.5"/><line x1="2.761154" y1="76.417571" x2="54.381494" y2="22.04484" fill="#ddaef0" stroke="#5f4b67" stroke-miterlimit="10" stroke-width="1.5"/><line x1="2.879164" y1="76.54244" x2="54.523662" y2="22.144263" fill="#ddaef0" stroke="#5e4a66" stroke-miterlimit="10" stroke-width="1.5"/><line x1="2.997174" y1="76.66731" x2="54.66583" y2="22.243686" fill="#ddaef0" stroke="#5d4965" stroke-miterlimit="10" stroke-width="1.5"/><line x1="3.115184" y1="76.792179" x2="54.807999" y2="22.343109" fill="#ddaef0" stroke="#5c4964" stroke-miterlimit="10" stroke-width="1.5"/><line x1="3.233195" y1="76.917049" x2="54.950167" y2="22.442532" fill="#ddaef0" stroke="#5b4863" stroke-miterlimit="10" stroke-width="1.5"/><line x1="3.351205" y1="77.041918" x2="55.092336" y2="22.541955" fill="#ddaef0" stroke="#5a4762" stroke-miterlimit="10" stroke-width="1.5"/><line x1="3.469215" y1="77.166788" x2="55.234504" y2="22.641378" fill="#ddaef0" stroke="#594761" stroke-miterlimit="10" stroke-width="1.5"/><line x1="3.587225" y1="77.291657" x2="55.376673" y2="22.740801" fill="#ddaef0" stroke="#584660" stroke-miterlimit="10" stroke-width="1.5"/><line x1="3.705235" y1="77.416527" x2="55.518841" y2="22.840224" fill="#ddaef0" stroke="#57455f" stroke-miterlimit="10" stroke-width="1.5"/><line x1="3.823245" y1="77.541396" x2="55.66101" y2="22.939647" fill="#ddaef0" stroke="#57445e" stroke-miterlimit="10" stroke-width="1.5"/><line x1="3.941255" y1="77.666266" x2="55.803178" y2="23.03907" fill="#ddaef0" stroke="#56445d" stroke-miterlimit="10" stroke-width="1.5"/><line x1="4.059266" y1="77.791135" x2="55.945347" y2="23.138493" fill="#ddaef0" stroke="#55435c" stroke-miterlimit="10" stroke-width="1.5"/><line x1="4.177276" y1="77.916004" x2="56.087515" y2="23.237916" fill="#ddaef0" stroke="#54425b" stroke-miterlimit="10" stroke-width="1.5"/><line x1="4.295286" y1="78.040874" x2="56.229684" y2="23.337339" fill="#ddaef0" stroke="#53415a" stroke-miterlimit="10" stroke-width="1.5"/><line x1="4.413296" y1="78.165743" x2="56.371852" y2="23.436762" fill="#ddaef0" stroke="#524159" stroke-miterlimit="10" stroke-width="1.5"/><line x1="4.531306" y1="78.290613" x2="56.514021" y2="23.536185" fill="none" stroke="#514058" stroke-miterlimit="10" stroke-width="1.5"/></mask></defs><path d="M251.073861,36.47998l-3.065228,43.52002h-47.866419l-5.36636,138.73999-.401413,10.199951-1.400523,36.290039c-6.247604-.929932-14.855392-8.349854-25.960358-14.389893-8.744781-4.75-19.046681-8.650146-30.954472-7.850098-9.538044.640137-15.952285,3.060059-21.299041,6.25-1.488504.890137-2.89859,1.840088-4.269706,2.830078-7.354299,5.310059-13.611705,11.72998-25.695937,15.909912l-.058813-1.380127-2.154338-49.989746-.029407-.740234-5.855993-135.869873H22.748229l-3.574465-45.389893-.136992-1.75c.900848-.72998,1.821421-1.450195,2.77128-2.140137,1.987939-1.48999,4.073781-2.889893,6.247723-4.219971.499435-.320068,1.008673-.630127,1.517911-.919922.21541-.140137.440622-.27002.656032-.390137C64.102623,5.449951,117.002605.5,143.374178.5c44.605625,0,73.70939,13.72998,102.117913,32.27002,1.86051,1.219971,3.72126,2.449951,5.58177,3.709961Z" fill="url(#linear-gradient)" stroke="#3d184a" stroke-miterlimit="10"/><path d="M171.160979,6.375733c.122326,2.697286-15.560923,1.705758-34.609703,2.569666s-35.281408,4.683176-35.403734,1.985889c-.122326-2.697286,16.062944-7.560776,35.111725-8.424685s34.779386,1.171843,34.901712,3.869129Z" fill="#f8effc" opacity=".32"/><path d="M47.253987,246.590627c-.01001-.169983-.030029-.330017-.040039-.5l.01001-.279968c0-.050049,0-.100037-.01001-.150024l1.540039-36.359985c.040039-1.02002.069824-2.070007.080078-3.140015.179932-33.73999-16.030029-84.160034-37.890137-113.76001-.189941-.26001-.379883-.51001-.560059-.76001-.810059-1.089966-1.569824-2.200012-2.279785-3.320007.679932,1.100037,1.419922,2.179993,2.209961,3.25.189941.25.379883.5.559814.75,18.170166,24.660034,32.420166,63.820007,36.5,95.660034.980225,7.649963,1.380127,14.859985,1.100098,21.359985l-1.530029,36.27002c.01001.159973.02002.329956.030029.51001.26001,3.149963,1.23999,6.029968,2.810059,8.619995-1.400146-2.460022-2.290039-5.190002-2.530029-8.150024ZM4.973469,82.585806c-.061768-.131714-.123047-.26355-.18335-.395447.060059.132019.12207.263672.18335.395447ZM.503987,62.370657c-.030029,2.199951.109863,4.419983.409912,6.629944.608154,4.446655,1.900635,8.872192,3.876221,13.189758-2.73584-6.006775-4.132324-12.237366-4.266113-18.429749-.02002-.469971-.02002-.929993-.02002-1.389954ZM6.960042,86.408865c-.161133-.281189-.322021-.562439-.477051-.84491.155762.282288.314941.563782.477051.84491ZM8.104085,88.320608c-.401367-.633057-.775391-1.271912-1.144043-1.911743.367188.64032.744385,1.278503,1.144043,1.911743ZM5.891438,84.44689c-.31958-.617859-.627441-1.237976-.917969-1.861084.291748.622864.596924,1.243225.917969,1.861084ZM6.482991,85.563955c-.20459-.371033-.397705-.74408-.591553-1.117065.193115.37323.387939.745972.591553,1.117065Z" fill="#ddaef0" stroke="#3d184a" stroke-miterlimit="10"/><path d="M132.61385,146.680654c-7.029785,7.569946-10.839844,17.579956-9.839844,27.869995.01001.079956.02002.169983.030029.25.089844.869995.179932,1.820007.269775,2.849976.52002,5.789978,1.050049,14.01001,1.010254,23.160034-.060059,20.629944-3.02002,46.159973-15.650146,59.269958-15.459961,16.040039-48.77002,11.559998-58.51001-5.099976-.050049-.080017-.100098-.160034-.139893-.23999-1.400146-2.460022-2.290039-5.190002-2.530029-8.150024-.01001-.169983-.030029-.330017-.040039-.5l.01001-.279968c0-.050049,0-.100037-.01001-.150024l1.540039-36.359985c.040039-1.02002.069824-2.070007.080078-3.140015.179932-33.73999-16.030029-84.160034-37.890137-113.76001-.189941-.26001-.379883-.51001-.560059-.76001-.810059-1.089966-1.569824-2.200012-2.279785-3.320007-4.940186-7.829956-7.400146-16.22998-7.580078-24.559998-.02002-.469971-.02002-.929993-.02002-1.389954v-.030029c.040039-3.849976.569824-7.679993,1.580078-11.419983.209961-.780029.439941-1.559998.689941-2.330017.359863-1.080017.75-2.150024,1.179932-3.219971,2.830078-6.940002,7.219971-12.330017,12.52002-15.960022,3.810059-2.630005,9.98999-5.332583,14.050049-5.799988,7.281171-.838228,15.040039.659973,22.330078,5.099976.069824.039978.139893.080017.219727.130005,30.960205,18.950012,48.27002,43.150024,57.850098,70.200012,1.26001,3.559998,2.380127,7.169983,3.390137,10.820007,1.189941,4.309998,4.589844,7.599976,8.889893,8.820007.02002.009949.050049.019958.070068.019958,8.060059,2.380005,13.859863,9.02002,13.859863,16.840027,0,4.219971-1.699951,8.089966-4.52002,11.140015Z" fill="#ddaef0"/><path d="M57.83989,238.937957c2.113635-1.607605,3.412792,5.67987,8.478326,12.339903s11.979233,10.170606,9.865597,11.778211c-2.113635,1.607605-9.309599-.813491-14.375134-7.473525-5.065535-6.660033-6.082425-15.036984-3.96879-16.644589Z" fill="#f8effc" opacity=".32"/><path d="M131.646408,146.65871c-7.030029,7.579956-10.839844,17.590027-9.839844,27.879944.01001.079956.02002.170044.030029.25.089844.869995.179932,1.819946.27002,2.849976.52002,5.790039,1.049805,14.01001,1.009766,23.150024-.059814,20.640015-3.02002,46.170044-15.649902,59.27002-5.52002,5.72998-13.330078,8.849976-21.52002,9.720093-4.199951.449951-8.51001.309937-12.669922-.380127,9.189941-.379883,18.179932-3.51001,24.339844-9.909912,4.100098-4.27002,7.180176-9.840088,9.460205-16.140015,1.959961-5.369995,3.329834-11.26001,4.269775-17.300049.360107-2.279907.660156-4.579956.900146-6.890015,2.439941-23.109985-1-50.26001-1.01001-50.530029-1.439941-45.059937-9.570068-88.049927-44.359863-120.839966-6.980225-6.589966-15.040039-12.769958-24.330078-18.459961l-.200195-.119995c-4.889893-2.98999-8.748777-4.552621-13.798825-5.072641,3.629883-.73999,6.148923-.997367,9.968991-.407401,4.48999.680054,9.02002,2.309998,13.369873,4.960022.070068.049988.140137.090027.220215.130005,30.959961,18.960022,48.27002,43.159973,57.849854,70.210022,1.26001,3.559998,2.380127,7.169983,3.389893,10.820007,1.190186,4.309998,4.590088,7.589966,8.890137,8.819946.02002.01001.040039.01001.070068.02002,8.059814,2.380005,13.859863,9.02002,13.859863,16.840027,0,4.219971-1.699951,8.089966-4.52002,11.130005Z" fill="#866991" opacity=".54"/><path d="M2.084065,50.920645c-1.010254,3.73999-1.540039,7.570007-1.580078,11.419983,0-3.609985.429932-7.190002,1.280029-10.710022.059814-.259949.169922-.5.300049-.709961Z" fill="#ddaef0" stroke="#3d184a" stroke-miterlimit="10"/><path d="M145.781586,146.680654c7.029785,7.569946,10.839844,17.579956,9.839844,27.869995-.01001.079956-.02002.169983-.030029.25-.089844.869995-.179932,1.820007-.269775,2.849976-.52002,5.789978-1.050049,14.01001-1.010254,23.160034.060059,20.629944,3.02002,46.159973,15.650146,59.269958,15.459961,16.040039,48.77002,11.559998,58.51001-5.099976.050049-.080017.100098-.160034.139893-.23999,1.400146-2.460022,2.290039-5.190002,2.530029-8.150024.01001-.169983.030029-.330017.040039-.5l-.01001-.279968c0-.050049,0-.100037.01001-.150024l-1.540039-36.359985c-.040039-1.02002-.069824-2.070007-.080078-3.140015-.179932-33.73999,16.030029-84.160034,37.890137-113.76001.189941-.26001.379883-.51001.560059-.76001.810059-1.089966,1.569824-2.200012,2.279785-3.320007,4.940186-7.829956,7.400146-16.22998,7.580078-24.559998.02002-.469971.02002-.929993.02002-1.389954v-.030029c-.040039-3.849976-.569824-7.679993-1.580078-11.419983-.209961-.780029-.439941-1.559998-.689941-2.330017-.359863-1.080017-.75-2.150024-1.179932-3.219971-2.830078-6.940002-7.219971-12.330017-12.52002-15.960022-3.810059-2.630005-9.98999-5.332583-14.050049-5.799988-7.281171-.838228-15.040039.659973-22.330078,5.099976-.069824.039978-.139893.080017-.219727.130005-30.960205,18.950012-48.27002,43.150024-57.850098,70.200012-1.26001,3.559998-2.380127,7.169983-3.390137,10.820007-1.189941,4.309998-4.589844,7.599976-8.889893,8.820007-.02002.009949-.050049.019958-.070068.019958-8.060059,2.380005-13.859863,9.02002-13.859863,16.840027,0,4.219971,1.699951,8.089966,4.52002,11.140015Z" fill="#ddaef0"/><g mask="url(#mask)"><path d="M251.670658,25.138111c-9.767279-1.912808-15.095508,4.144639-11.910725,13.522897,3.184783,9.378258,13.6759,18.52401,23.443179,20.436818,9.777877,1.914884,15.109646-4.13214,11.924863-13.510398-3.184783-9.378258-13.67944-18.534434-23.457317-20.449317Z" fill="#514058"/></g><path d="M224.949328,238.937957c-2.113635-1.607605-3.412792,5.67987-8.478326,12.339903-5.065535,6.660033-11.979233,10.170606-9.865597,11.778211,2.113635,1.607605,9.309599-.813491,14.375134-7.473525,5.065535-6.660033,6.082425-15.036984,3.96879-16.644589Z" fill="#f8effc" opacity=".32"/><path d="M145.337141,146.65871c7.030029,7.579956,10.839844,17.590027,9.839844,27.879944-.01001.079956-.02002.170044-.030029.25-.089844.869995-.179932,1.819946-.27002,2.849976-.52002,5.790039-1.049805,14.01001-1.009766,23.150024.059814,20.640015,3.02002,46.170044,15.649902,59.27002,5.52002,5.72998,13.330078,8.849976,21.52002,9.720093,4.199951.449951,8.51001.309937,12.669922-.380127-9.189941-.379883-18.179932-3.51001-24.339844-9.909912-4.100098-4.27002-7.180176-9.840088-9.460205-16.140015-1.959961-5.369995-3.329834-11.26001-4.269775-17.300049-.360107-2.279907-.660156-4.579956-.900146-6.890015-2.439941-23.109985,1-50.26001,1.01001-50.530029,1.439941-45.059937,9.570068-88.049927,44.359863-120.839966,6.980225-6.589966,15.040039-12.769958,24.330078-18.459961l.200195-.119995c4.889893-2.98999,8.748777-4.552621,13.798825-5.072641-3.629883-.73999-6.148923-.997367-9.968991-.407401-4.48999.680054-9.02002,2.309998-13.369873,4.960022-.070068.049988-.140137.090027-.220215.130005-30.959961,18.960022-48.27002,43.159973-57.849854,70.210022-1.26001,3.559998-2.380127,7.169983-3.389893,10.820007-1.190186,4.309998-4.590088,7.589966-8.890137,8.819946-.02002.01001-.040039.01001-.070068.02002-8.059814,2.380005-13.859863,9.02002-13.859863,16.840027,0,4.219971,1.699951,8.089966,4.52002,11.130005Z" fill="#866991" opacity=".54"/><g mask="url(#mask-1)"><path d="M24.564566,25.595731c9.543574-2.824671,15.41889,2.703742,13.131995,12.340374-2.286896,9.636631-11.869524,19.730271-21.413098,22.554942-9.553929,2.827736-15.431787-2.689967-13.144892-12.326598,2.286896-9.636631,11.872066-19.740981,21.425995-22.568718Z" fill="#514058"/></g><path d="M145.781586,146.680654c7.029785,7.569946,10.839844,17.579956,9.839844,27.869995-.01001.079956-.02002.169983-.030029.25-.089844.869995-.179932,1.820007-.269775,2.849976-.52002,5.789978-1.050049,14.01001-1.010254,23.160034.060059,20.629944,3.02002,46.159973,15.650146,59.269958,15.459961,16.040039,48.77002,11.559998,58.51001-5.099976.050049-.080017.100098-.160034.139893-.23999,1.400146-2.460022,2.290039-5.190002,2.530029-8.150024.01001-.169983.030029-.330017.040039-.5l-.01001-.279968c0-.050049,0-.100037.01001-.150024l-1.540039-36.359985c-.040039-1.02002-.069824-2.070007-.080078-3.140015-.179932-33.73999,16.030029-84.160034,37.890137-113.76001.189941-.26001.379883-.51001.560059-.76001.810059-1.089966,1.569824-2.200012,2.279785-3.320007,4.940186-7.829956,7.400146-16.22998,7.580078-24.559998.02002-.469971.02002-.929993.02002-1.389954v-.030029c-.040039-3.849976-.569824-7.679993-1.580078-11.419983-.209961-.780029-.439941-1.559998-.689941-2.330017-.359863-1.080017-.75-2.150024-1.179932-3.219971-2.830078-6.940002-7.219971-12.330017-12.52002-15.960022-3.810059-2.630005-9.98999-5.332583-14.050049-5.799988-7.281171-.838228-15.040039.659973-22.330078,5.099976-.069824.039978-.139893.080017-.219727.130005-30.960205,18.950012-48.27002,43.150024-57.850098,70.200012-1.26001,3.559998-2.380127,7.169983-3.390137,10.820007-1.189941,4.309998-4.589844,7.599976-8.889893,8.820007-.02002.009949-.050049.019958-.070068.019958-8.060059,2.380005-13.859863,9.02002-13.859863,16.840027,0,4.219971,1.699951,8.089966,4.52002,11.140015Z" fill="none" stroke="#3d184a" stroke-miterlimit="10"/><path d="M132.61385,146.680654c-7.029785,7.569946-10.839844,17.579956-9.839844,27.869995.01001.079956.02002.169983.030029.25.089844.869995.179932,1.820007.269775,2.849976.52002,5.789978,1.050049,14.01001,1.010254,23.160034-.060059,20.629944-3.02002,46.159973-15.650146,59.269958-15.459961,16.040039-48.77002,11.559998-58.51001-5.099976-.050049-.080017-.100098-.160034-.139893-.23999-1.400146-2.460022-2.290039-5.190002-2.530029-8.150024-.01001-.169983-.030029-.330017-.040039-.5l.01001-.279968c0-.050049,0-.100037-.01001-.150024l1.540039-36.359985c.040039-1.02002.069824-2.070007.080078-3.140015.179932-33.73999-16.030029-84.160034-37.890137-113.76001-.189941-.26001-.379883-.51001-.560059-.76001-.810059-1.089966-1.569824-2.200012-2.279785-3.320007-4.940186-7.829956-7.400146-16.22998-7.580078-24.559998-.02002-.469971-.02002-.929993-.02002-1.389954v-.030029c.040039-3.849976.569824-7.679993,1.580078-11.419983.209961-.780029.439941-1.559998.689941-2.330017.359863-1.080017.75-2.150024,1.179932-3.219971,2.830078-6.940002,7.219971-12.330017,12.52002-15.960022,3.810059-2.630005,9.98999-5.332583,14.050049-5.799988,7.281171-.838228,15.040039.659973,22.330078,5.099976.069824.039978.139893.080017.219727.130005,30.960205,18.950012,48.27002,43.150024,57.850098,70.200012,1.26001,3.559998,2.380127,7.169983,3.390137,10.820007,1.189941,4.309998,4.589844,7.599976,8.889893,8.820007.02002.009949.050049.019958.070068.019958,8.060059,2.380005,13.859863,9.02002,13.859863,16.840027,0,4.219971-1.699951,8.089966-4.52002,11.140015Z" fill="none" stroke="#3d184a" stroke-miterlimit="10"/></svg>