<?xml version="1.0" encoding="UTF-8"?><svg xmlns="http://www.w3.org/2000/svg" width="239.7871" height="584.3184" viewBox="0 0 239.7871 584.3184"><g id="a"><line x1="75.3521" y1="175.8367" x2="158.9799" y2="175.8366" fill="none" stroke="#231f20" stroke-linecap="round" stroke-miterlimit="10" stroke-width="4"/><text transform="translate(36.8989 190.4706) scale(.9838 1)" fill="#231f20" font-family="TimesNewRomanPS-BoldMT, &apos;Times New Roman&apos;" font-size="40.5" font-weight="700"><tspan x="0" y="0">H</tspan></text><text transform="translate(35.8622 31.4511) scale(.9838 1)" fill="#231f20" font-family="TimesNewRomanPS-BoldMT, &apos;Times New Roman&apos;" font-size="40.5" font-weight="700"><tspan x="0" y="0">H</tspan></text><text transform="translate(166.837 190.4709) scale(.9838 1)" fill="#231f20" font-family="TimesNewRomanPS-BoldMT, &apos;Times New Roman&apos;" font-size="40.5" font-weight="700"><tspan x="0" y="0">OH</tspan></text><text transform="translate(184.3993 34.2655) scale(.9838 1)" fill="#231f20" font-family="TimesNewRomanPS-BoldMT, &apos;Times New Roman&apos;" font-size="40.5" font-weight="700"><tspan x="0" y="0">O</tspan></text><line x1="67.4951" y1="274.487" x2="151.1229" y2="274.4869" fill="none" stroke="#231f20" stroke-linecap="round" stroke-miterlimit="10" stroke-width="4"/><text transform="translate(.0004 289.7283) scale(.9838 1)" fill="#231f20" font-family="TimesNewRomanPS-BoldMT, &apos;Times New Roman&apos;" font-size="40.5" font-weight="700"><tspan x="0" y="0">HO</tspan></text><text transform="translate(158.98 289.1212) scale(.9838 1)" fill="#231f20" font-family="TimesNewRomanPS-BoldMT, &apos;Times New Roman&apos;" font-size="40.5" font-weight="700"><tspan x="0" y="0">H</tspan></text><line x1="68.3319" y1="373.1371" x2="151.9597" y2="373.1371" fill="none" stroke="#231f20" stroke-linecap="round" stroke-miterlimit="10" stroke-width="4"/><text transform="translate(29.8787 387.7711) scale(.9838 1)" fill="#231f20" font-family="TimesNewRomanPS-BoldMT, &apos;Times New Roman&apos;" font-size="40.5" font-weight="700"><tspan x="0" y="0">H</tspan></text><text transform="translate(159.8169 387.7713) scale(.9838 1)" fill="#231f20" font-family="TimesNewRomanPS-BoldMT, &apos;Times New Roman&apos;" font-size="40.5" font-weight="700"><tspan x="0" y="0">OH</tspan></text><line x1="76.1888" y1="471.7869" x2="159.8166" y2="471.7869" fill="none" stroke="#231f20" stroke-linecap="round" stroke-miterlimit="10" stroke-width="4"/><text transform="translate(37.7356 486.4209) scale(.9838 1)" fill="#231f20" font-family="TimesNewRomanPS-BoldMT, &apos;Times New Roman&apos;" font-size="40.5" font-weight="700"><tspan x="0" y="0">H</tspan></text><text transform="translate(167.6738 486.4211) scale(.9838 1)" fill="#231f20" font-family="TimesNewRomanPS-BoldMT, &apos;Times New Roman&apos;" font-size="40.5" font-weight="700"><tspan x="0" y="0">OH</tspan></text><line x1="117.166" y1="98.1008" x2="181.0012" y2="34.2656" fill="none" stroke="#231f20" stroke-linecap="round" stroke-miterlimit="10" stroke-width="4"/><line x1="58.0322" y1="37.5531" x2="117.166" y2="96.6868" fill="none" stroke="#231f20" stroke-linecap="round" stroke-miterlimit="10" stroke-width="4"/><line x1="176.2998" y1="30.4062" x2="117.166" y2="89.54" fill="none" stroke="#231f20" stroke-linecap="round" stroke-miterlimit="10" stroke-width="4"/><text transform="translate(106.4189 557.5624) scale(.9838 1)" fill="#231f20" font-family="TimesNewRomanPS-BoldMT, &apos;Times New Roman&apos;" font-size="40.5" font-weight="700"><tspan x="0" y="0">CH</tspan></text><text transform="translate(166.1864 571.0487) scale(.5736)" fill="#231f20" font-family="TimesNewRomanPS-BoldMT, &apos;Times New Roman&apos;" font-size="40.5" font-weight="700"><tspan x="0" y="0">2</tspan></text><text transform="translate(177.8017 557.5624) scale(.9838 1)" fill="#231f20" font-family="TimesNewRomanPS-BoldMT, &apos;Times New Roman&apos;" font-size="40.5" font-weight="700" letter-spacing="0em"><tspan x="0" y="0">OH</tspan></text></g><g id="b"><line x1="117.166" y1="98.1008" x2="117.166" y2="518.9639" fill="none" stroke="#231f20" stroke-linecap="round" stroke-miterlimit="10" stroke-width="4"/></g></svg>