<?xml version="1.0" encoding="UTF-8"?><svg id="a" xmlns="http://www.w3.org/2000/svg" width="264.1526" height="335.9443" xmlns:xlink="http://www.w3.org/1999/xlink" viewBox="0 0 264.1526 335.9443"><defs><linearGradient id="b" x1="132.6715" y1="286.1665" x2="132.6715" y2="41.7934" gradientUnits="userSpaceOnUse"><stop offset="0" stop-color="#1d3b47"/><stop offset=".1097" stop-color="#1f3f4c"/><stop offset=".2515" stop-color="#264d5c"/><stop offset=".3598" stop-color="#2e5c6e"/><stop offset=".5993" stop-color="#448ea8"/><stop offset=".6495" stop-color="#4897b3"/><stop offset=".7446" stop-color="#4ea4c3"/><stop offset=".8526" stop-color="#51accd"/><stop offset="1" stop-color="#53afd0"/></linearGradient><radialGradient id="c" cx="1045.2405" cy="376.2971" fx="1045.2405" fy="376.2971" r="31.5955" gradientTransform="translate(-799.6487 -218.2447) scale(.8948 .9609)" gradientUnits="userSpaceOnUse"><stop offset="0" stop-color="#ffecd2"/><stop offset=".2098" stop-color="#fee8c9"/><stop offset=".543" stop-color="#fedeb2"/><stop offset=".9558" stop-color="#fdce8d"/><stop offset="1" stop-color="#fdcd89"/></radialGradient></defs><path d="M111.2728,7.8837h0c5.6468-1.2503,11.3988-1.9965,17.1855-2.2296l16.7858-.6761c14.3678-.5787,27.6371,7.5735,33.3809,20.508l3.896,8.7734-25.5577,96.4908-45.2382-18.7051-16.6813-79.4776c-2.3508-11.2002,4.8593-22.1665,16.229-24.6838Z" fill="#cfecf8" stroke="#05415a" stroke-miterlimit="10" stroke-width="2.8586"/><path d="M250.4432,30.7537l-40.3867,99.0298-68.0717,166.9302-7.6696-156.05-2.6519-54.0414c-.984-20.0528,2.6596-40.0386,10.5068-57.6316l6.0082-13.4701c3.9455-8.8457,11.496-14.3051,19.6679-14.2475.034.0002.0675.0005.1004.0007,34.7802.1599,64.2531,12.4497,82.4886,29.48h.0081Z" fill="#cfecf8" stroke="#05415a" stroke-miterlimit="10" stroke-width="2.5452"/><path d="M4.5174,39.8898l44.1485,99.0298,66.9147,150.111c2.0674,4.6378,8.229,3.203,8.5075-1.9811l7.3739-137.2498,3.0246-56.3849c.9936-18.5219-2.6853-36.9821-10.6086-53.232l-9.6082-19.7057c-3.052-6.2594-8.8859-10.1316-15.2071-10.0936l-4.3646.0263c-38.0197.1599-70.2379,12.4497-90.1719,29.48h-.0089Z" fill="#cfecf8" stroke="#05415a" stroke-miterlimit="10" stroke-width="3"/><path d="M234.2176,129.0597c-9.5538,92.2117-73.1002,157.5635-106.9002,157.1026-.0286.0095-.0666,0-.0952,0h-.0285c-33.7715-1.7328-92.9406-71.0482-96.49-163.6746-1.7414-45.3133,30.8882-83.1324,51.1664-80.5701,1.2561-.6634,4.7674,1.4011,9.7061,4.5075,6.2613-1.7974,18.9459,6.4799,36.4739,6.4799,20.8301,0,43.2968-9.5953,52.2892-2.8575,3.3781-2.0463,5.5001-3.6962,5.9188-4.3968,20.4018-4.2399,52.8126,36.6948,47.9595,83.4089Z" fill="url(#b)"/><rect x="104.7098" y="116.1353" width="61.8897" height="54.3753" rx="9.465" ry="9.465" transform="translate(-14.5006 15.272) rotate(-6.1173)" fill="url(#c)" stroke="#93703e" stroke-miterlimit="10" stroke-width="1.7728"/><path d="M135.407,295.4742c-.1724,8.5859-8.4653,14.717-16.6928,12.2559-32.6019-9.7522-89.0597-43.5498-100.9984-101.7805-7.5924-37.0315,9.8478-41.7366.988-87.9971C9.375,69.2434-3.9229,58.2174,3.8321,41.1811c5.6712-12.4586,19.6318-19.8849,30.6342-21.2731,12.5483-1.5833,14.6824,5.516,33.7149,9.3652,25.9724,5.2527,35.8223-5.1719,49.5469,4.387.7858.5472,10.8632,7.8585,13.4874,20.4443,1.8826,9.0291-.9133,17.1595-2.2318,20.9937-2.8137,8.1819-6.1013,10.3333-8.1308,19.6809-.6583,3.032-1.4281,6.5779-1.1319,11.2373.7604,11.9619,7.4536,14.0735,6.5974,23.8518-.5002,5.7136-2.3221,11.4778-2.3221,11.4778-.7029,2.2239-1.5482,4.3801-1.782,7.6123-.2241,3.0977.2358,5.3848.374,6.1648.6742,3.8047-7.5637,16.7314-10.1821,26.3662-2.629,9.6746,1.5311,12.0857-2.5388,18.8992-2.6884,4.5007-5.8829,5.7581-6.8442,10.5474-.1082.5393-.1328.9417-.1414,1.0581-.4678,6.2896,6.2227,7.823,8.5985,14.4688,1.9809,5.541.9679,14.6514,2.5352,16.1858.5369.5256,1.1404,1.0405,1.1405,1.0405.7837.6665,1.3993,1.0955,1.7124,1.3281,12.1521,9.0312,19.0806,23.4634,18.7767,38.6008l-.238,11.8562Z" fill="#cfecf8" stroke="#05415a" stroke-miterlimit="10" stroke-width="3"/><path d="M238.9603,134.4489c1.0783-45.3205,31.9339-59.1036,21.5657-90.8174-4.2105-12.879-15.2702-28.9283-28.7505-30.4406-9.7567-1.0947-13.3357,6.2612-30.0657,7.2452-13.1527.7734-14.622-3.5566-25.269-1.5433-12.6195,2.3862-20.929,10.4875-25.468,14.7698-5.1596,4.8678-11.4874,10.8376-13.4922,20.4411-1.8848,9.0286.9093,17.1597,2.2269,20.9943,2.8117,8.1825,6.0989,10.3347,8.1261,19.6827.2755,1.2701.5705,2.6305.7985,4.1249l.0288.1941c.6205,4.1781,4.4273,7.1222,8.6272,6.6721,5.647-.6052,10.7154,3.482,11.3206,9.1288l4.8826,45.5579c.6052,5.6471-3.4819,10.7155-9.1289,11.3207l-5.4477.5839c-4.5149.4839-6.2295,6.1569-2.7382,9.0604l.0834.0694c6.8882,7.1863,7.7967,12.5475,7.4659,16.0107-.673,7.0462-6.7358,8.9487-6.6408,15.926.0944,6.9359,6.1199,7.5714,5.7572,14.5271-.3766,7.2234-7.2535,13.803-8.2059,14.6949-.7287.6824-1.3703,1.2069-1.8158,1.5554-1.4203,1.1088-2.5418,1.7358-3.7677,2.636-1.8876,1.386-3.9408,3.166-6.042,5.5011-8.4432,9.3833-12.2285,22.0662-10.7699,34.6045l.9915,8.5237c.1701,8.5727,8.4454,14.7214,16.6614,12.2682,28.2678-8.44,60.9346-30.176,70.137-41.1027,10.7416-12.7539,27.0151-32.0761,30.914-60.6624,4.4651-32.7377-12.7981-37.3098-11.984-71.5265Z" fill="#cfecf8" stroke="#05415a" stroke-miterlimit="10" stroke-width="3"/></svg>