<?xml version="1.0" encoding="UTF-8"?><svg xmlns="http://www.w3.org/2000/svg" width="553.307688" height="423.886456" xmlns:xlink="http://www.w3.org/1999/xlink" viewBox="0 0 553.307688 423.886456"><defs><linearGradient id="b" x1=".832117" y1="211.943228" x2="552.475571" y2="211.943228" gradientUnits="userSpaceOnUse"><stop offset="0" stop-color="#fff"/><stop offset="1" stop-color="#e6e7e8" stop-opacity=".5"/></linearGradient></defs><g isolation="isolate"><g id="a"><rect x=".832117" y=".832117" width="551.643454" height="422.222222" rx="33.15506" ry="33.15506" fill="url(#b)" stroke="#231f20" stroke-miterlimit="10" stroke-width="1.664234"/><path d="M45.216131,400.217859c-10.905762,0-19.777832-8.87207-19.777832-19.77832,0-10.905273,8.87207-19.777344,19.777832-19.777344s19.777832,8.87207,19.777832,19.777344c0,10.90625-8.87207,19.77832-19.777832,19.77832Z" fill="none" stroke="#231f20" stroke-miterlimit="10"/><circle cx="45.216312" cy="380.4398" r="17.777778" fill="#fff" stroke="#231f20" stroke-miterlimit="10"/><path d="M86.993963,400.217859c-10.905762,0-19.777832-8.87207-19.777832-19.77832,0-10.905273,8.87207-19.777344,19.777832-19.777344s19.777832,8.87207,19.777832,19.777344c0,10.90625-8.87207,19.77832-19.777832,19.77832Z" fill="none" stroke="#231f20" stroke-miterlimit="10"/><circle cx="86.99409" cy="380.4398" r="17.777778" fill="#fff" stroke="#231f20" stroke-miterlimit="10"/><path d="M128.771795,400.217859c-10.905762,0-19.777832-8.87207-19.777832-19.77832,0-10.905273,8.87207-19.777344,19.777832-19.777344s19.777832,8.87207,19.777832,19.777344c0,10.90625-8.87207,19.77832-19.777832,19.77832Z" fill="none" stroke="#231f20" stroke-miterlimit="10"/><circle cx="128.771867" cy="380.4398" r="17.777778" fill="#fff" stroke="#231f20" stroke-miterlimit="10"/><path d="M170.549627,400.217859c-10.905762,0-19.777832-8.87207-19.777832-19.77832,0-10.905273,8.87207-19.777344,19.777832-19.777344s19.777832,8.87207,19.777832,19.777344c0,10.90625-8.87207,19.77832-19.777832,19.77832Z" fill="none" stroke="#231f20" stroke-miterlimit="10"/><circle cx="170.549645" cy="380.4398" r="17.777778" fill="#fff" stroke="#231f20" stroke-miterlimit="10"/><path d="M212.327459,400.217859c-10.905762,0-19.777832-8.87207-19.777832-19.77832,0-10.905273,8.87207-19.777344,19.777832-19.777344s19.777832,8.87207,19.777832,19.777344c0,10.90625-8.87207,19.77832-19.777832,19.77832Z" fill="none" stroke="#231f20" stroke-miterlimit="10"/><circle cx="212.327423" cy="380.4398" r="17.777778" fill="#fff" stroke="#231f20" stroke-miterlimit="10"/><path d="M254.105291,400.217859c-10.905762,0-19.777832-8.87207-19.777832-19.77832,0-10.905273,8.87207-19.777344,19.777832-19.777344s19.777832,8.87207,19.777832,19.777344c0,10.90625-8.87207,19.77832-19.777832,19.77832Z" fill="none" stroke="#231f20" stroke-miterlimit="10"/><circle cx="254.105201" cy="380.4398" r="17.777778" fill="#fff" stroke="#231f20" stroke-miterlimit="10"/><path d="M295.883123,400.217859c-10.905762,0-19.777832-8.87207-19.777832-19.77832,0-10.905273,8.87207-19.777344,19.777832-19.777344s19.777832,8.87207,19.777832,19.777344c0,10.90625-8.87207,19.77832-19.777832,19.77832Z" fill="none" stroke="#231f20" stroke-miterlimit="10"/><circle cx="295.882979" cy="380.4398" r="17.777778" fill="#fff" stroke="#231f20" stroke-miterlimit="10"/><path d="M337.660955,400.217859c-10.905762,0-19.777832-8.87207-19.777832-19.77832,0-10.905273,8.87207-19.777344,19.777832-19.777344,10.905273,0,19.777344,8.87207,19.777344,19.777344,0,10.90625-8.87207,19.77832-19.777344,19.77832Z" fill="none" stroke="#231f20" stroke-miterlimit="10"/><circle cx="337.660756" cy="380.4398" r="17.777778" fill="#fff" stroke="#231f20" stroke-miterlimit="10"/><path d="M379.438299,400.217859c-10.905273,0-19.777344-8.87207-19.777344-19.77832,0-10.905273,8.87207-19.777344,19.777344-19.777344,10.905762,0,19.777832,8.87207,19.777832,19.777344,0,10.90625-8.87207,19.77832-19.777832,19.77832Z" fill="none" stroke="#231f20" stroke-miterlimit="10"/><circle cx="379.438534" cy="380.4398" r="17.777778" fill="#fff" stroke="#231f20" stroke-miterlimit="10"/><path d="M421.216131,400.217859c-10.905762,0-19.777832-8.87207-19.777832-19.77832,0-10.905273,8.87207-19.777344,19.777832-19.777344s19.777832,8.87207,19.777832,19.777344c0,10.90625-8.87207,19.77832-19.777832,19.77832Z" fill="none" stroke="#231f20" stroke-miterlimit="10"/><circle cx="421.216312" cy="380.4398" r="17.777778" fill="#fff" stroke="#231f20" stroke-miterlimit="10"/><path d="M462.993963,400.217859c-10.905762,0-19.777832-8.87207-19.777832-19.77832,0-10.905273,8.87207-19.777344,19.777832-19.777344s19.777832,8.87207,19.777832,19.777344c0,10.90625-8.87207,19.77832-19.777832,19.77832Z" fill="none" stroke="#231f20" stroke-miterlimit="10"/><circle cx="462.99409" cy="380.4398" r="17.777778" fill="#fff" stroke="#231f20" stroke-miterlimit="10"/><path d="M504.771795,400.217859c-10.905762,0-19.777832-8.87207-19.777832-19.77832,0-10.905273,8.87207-19.777344,19.777832-19.777344s19.777832,8.87207,19.777832,19.777344c0,10.90625-8.87207,19.77832-19.777832,19.77832Z" fill="none" stroke="#231f20" stroke-miterlimit="10"/><circle cx="504.771867" cy="380.4398" r="17.777778" fill="#fff" stroke="#231f20" stroke-miterlimit="10"/><path d="M45.216131,352.760828c-10.905762,0-19.777832-8.87207-19.777832-19.77832,0-10.905273,8.87207-19.777344,19.777832-19.777344s19.777832,8.87207,19.777832,19.777344c0,10.90625-8.87207,19.77832-19.777832,19.77832Z" fill="none" stroke="#231f20" stroke-miterlimit="10"/><circle cx="45.216312" cy="332.982618" r="17.777778" fill="#fff" stroke="#231f20" stroke-miterlimit="10"/><path d="M86.993963,352.760828c-10.905762,0-19.777832-8.87207-19.777832-19.77832,0-10.905273,8.87207-19.777344,19.777832-19.777344s19.777832,8.87207,19.777832,19.777344c0,10.90625-8.87207,19.77832-19.777832,19.77832Z" fill="none" stroke="#231f20" stroke-miterlimit="10"/><circle cx="86.99409" cy="332.982618" r="17.777778" fill="#fff" stroke="#231f20" stroke-miterlimit="10"/><path d="M128.771795,352.760828c-10.905762,0-19.777832-8.87207-19.777832-19.77832,0-10.905273,8.87207-19.777344,19.777832-19.777344s19.777832,8.87207,19.777832,19.777344c0,10.90625-8.87207,19.77832-19.777832,19.77832Z" fill="none" stroke="#231f20" stroke-miterlimit="10"/><circle cx="128.771867" cy="332.982618" r="17.777778" fill="#fff" stroke="#231f20" stroke-miterlimit="10"/><path d="M170.549627,352.760828c-10.905762,0-19.777832-8.87207-19.777832-19.77832,0-10.905273,8.87207-19.777344,19.777832-19.777344s19.777832,8.87207,19.777832,19.777344c0,10.90625-8.87207,19.77832-19.777832,19.77832Z" fill="none" stroke="#231f20" stroke-miterlimit="10"/><circle cx="170.549645" cy="332.982618" r="17.777778" fill="#fff" stroke="#231f20" stroke-miterlimit="10"/><path d="M212.327459,352.760828c-10.905762,0-19.777832-8.87207-19.777832-19.77832,0-10.905273,8.87207-19.777344,19.777832-19.777344s19.777832,8.87207,19.777832,19.777344c0,10.90625-8.87207,19.77832-19.777832,19.77832Z" fill="none" stroke="#231f20" stroke-miterlimit="10"/><circle cx="212.327423" cy="332.982618" r="17.777778" fill="#fff" stroke="#231f20" stroke-miterlimit="10"/><path d="M254.105291,352.760828c-10.905762,0-19.777832-8.87207-19.777832-19.77832,0-10.905273,8.87207-19.777344,19.777832-19.777344s19.777832,8.87207,19.777832,19.777344c0,10.90625-8.87207,19.77832-19.777832,19.77832Z" fill="none" stroke="#231f20" stroke-miterlimit="10"/><circle cx="254.105201" cy="332.982618" r="17.777778" fill="#fff" stroke="#231f20" stroke-miterlimit="10"/><path d="M295.883123,352.760828c-10.905762,0-19.777832-8.87207-19.777832-19.77832,0-10.905273,8.87207-19.777344,19.777832-19.777344s19.777832,8.87207,19.777832,19.777344c0,10.90625-8.87207,19.77832-19.777832,19.77832Z" fill="none" stroke="#231f20" stroke-miterlimit="10"/><circle cx="295.882979" cy="332.982618" r="17.777778" fill="#fff" stroke="#231f20" stroke-miterlimit="10"/><path d="M337.660955,352.760828c-10.905762,0-19.777832-8.87207-19.777832-19.77832,0-10.905273,8.87207-19.777344,19.777832-19.777344,10.905273,0,19.777344,8.87207,19.777344,19.777344,0,10.90625-8.87207,19.77832-19.777344,19.77832Z" fill="none" stroke="#231f20" stroke-miterlimit="10"/><circle cx="337.660756" cy="332.982618" r="17.777778" fill="#fff" stroke="#231f20" stroke-miterlimit="10"/><path d="M379.438299,352.760828c-10.905273,0-19.777344-8.87207-19.777344-19.77832,0-10.905273,8.87207-19.777344,19.777344-19.777344,10.905762,0,19.777832,8.87207,19.777832,19.777344,0,10.90625-8.87207,19.77832-19.777832,19.77832Z" fill="none" stroke="#231f20" stroke-miterlimit="10"/><circle cx="379.438534" cy="332.982618" r="17.777778" fill="#fff" stroke="#231f20" stroke-miterlimit="10"/><path d="M421.216131,352.760828c-10.905762,0-19.777832-8.87207-19.777832-19.77832,0-10.905273,8.87207-19.777344,19.777832-19.777344s19.777832,8.87207,19.777832,19.777344c0,10.90625-8.87207,19.77832-19.777832,19.77832Z" fill="none" stroke="#231f20" stroke-miterlimit="10"/><circle cx="421.216312" cy="332.982618" r="17.777778" fill="#fff" stroke="#231f20" stroke-miterlimit="10"/><path d="M462.993963,352.760828c-10.905762,0-19.777832-8.87207-19.777832-19.77832,0-10.905273,8.87207-19.777344,19.777832-19.777344s19.777832,8.87207,19.777832,19.777344c0,10.90625-8.87207,19.77832-19.777832,19.77832Z" fill="none" stroke="#231f20" stroke-miterlimit="10"/><circle cx="462.99409" cy="332.982618" r="17.777778" fill="#fff" stroke="#231f20" stroke-miterlimit="10"/><path d="M504.771795,352.760828c-10.905762,0-19.777832-8.87207-19.777832-19.77832,0-10.905273,8.87207-19.777344,19.777832-19.777344s19.777832,8.87207,19.777832,19.777344c0,10.90625-8.87207,19.77832-19.777832,19.77832Z" fill="none" stroke="#231f20" stroke-miterlimit="10"/><circle cx="504.771867" cy="332.982618" r="17.777778" fill="#fff" stroke="#231f20" stroke-miterlimit="10"/><path d="M45.216131,305.30282c-10.905762,0-19.777832-8.87207-19.777832-19.777344s8.87207-19.777344,19.777832-19.777344,19.777832,8.87207,19.777832,19.777344-8.87207,19.777344-19.777832,19.777344Z" fill="none" stroke="#231f20" stroke-miterlimit="10"/><circle cx="45.216312" cy="285.525435" r="17.777778" fill="#fff" stroke="#231f20" stroke-miterlimit="10"/><path d="M86.993963,305.30282c-10.905762,0-19.777832-8.87207-19.777832-19.777344s8.87207-19.777344,19.777832-19.777344,19.777832,8.87207,19.777832,19.777344-8.87207,19.777344-19.777832,19.777344Z" fill="none" stroke="#231f20" stroke-miterlimit="10"/><circle cx="86.99409" cy="285.525435" r="17.777778" fill="#fff" stroke="#231f20" stroke-miterlimit="10"/><path d="M128.771795,305.30282c-10.905762,0-19.777832-8.87207-19.777832-19.777344s8.87207-19.777344,19.777832-19.777344,19.777832,8.87207,19.777832,19.777344-8.87207,19.777344-19.777832,19.777344Z" fill="none" stroke="#231f20" stroke-miterlimit="10"/><circle cx="128.771867" cy="285.525435" r="17.777778" fill="#fff" stroke="#231f20" stroke-miterlimit="10"/><path d="M170.549627,305.30282c-10.905762,0-19.777832-8.87207-19.777832-19.777344s8.87207-19.777344,19.777832-19.777344,19.777832,8.87207,19.777832,19.777344-8.87207,19.777344-19.777832,19.777344Z" fill="none" stroke="#231f20" stroke-miterlimit="10"/><circle cx="170.549645" cy="285.525435" r="17.777778" fill="#fff" stroke="#231f20" stroke-miterlimit="10"/><path d="M212.327459,305.30282c-10.905762,0-19.777832-8.87207-19.777832-19.777344s8.87207-19.777344,19.777832-19.777344,19.777832,8.87207,19.777832,19.777344-8.87207,19.777344-19.777832,19.777344Z" fill="none" stroke="#231f20" stroke-miterlimit="10"/><circle cx="212.327423" cy="285.525435" r="17.777778" fill="#fff" stroke="#231f20" stroke-miterlimit="10"/><path d="M254.105291,305.30282c-10.905762,0-19.777832-8.87207-19.777832-19.777344s8.87207-19.777344,19.777832-19.777344,19.777832,8.87207,19.777832,19.777344-8.87207,19.777344-19.777832,19.777344Z" fill="none" stroke="#231f20" stroke-miterlimit="10"/><circle cx="254.105201" cy="285.525435" r="17.777778" fill="#fff" stroke="#231f20" stroke-miterlimit="10"/><path d="M295.883123,305.30282c-10.905762,0-19.777832-8.87207-19.777832-19.777344s8.87207-19.777344,19.777832-19.777344,19.777832,8.87207,19.777832,19.777344-8.87207,19.777344-19.777832,19.777344Z" fill="none" stroke="#231f20" stroke-miterlimit="10"/><circle cx="295.882979" cy="285.525435" r="17.777778" fill="#fff" stroke="#231f20" stroke-miterlimit="10"/><path d="M337.660955,305.30282c-10.905762,0-19.777832-8.87207-19.777832-19.777344s8.87207-19.777344,19.777832-19.777344c10.905273,0,19.777344,8.87207,19.777344,19.777344s-8.87207,19.777344-19.777344,19.777344Z" fill="none" stroke="#231f20" stroke-miterlimit="10"/><circle cx="337.660756" cy="285.525435" r="17.777778" fill="#fff" stroke="#231f20" stroke-miterlimit="10"/><path d="M379.438299,305.30282c-10.905273,0-19.777344-8.87207-19.777344-19.777344s8.87207-19.777344,19.777344-19.777344c10.905762,0,19.777832,8.87207,19.777832,19.777344s-8.87207,19.777344-19.777832,19.777344Z" fill="none" stroke="#231f20" stroke-miterlimit="10"/><circle cx="379.438534" cy="285.525435" r="17.777778" fill="#fff" stroke="#231f20" stroke-miterlimit="10"/><path d="M421.216131,305.30282c-10.905762,0-19.777832-8.87207-19.777832-19.777344s8.87207-19.777344,19.777832-19.777344,19.777832,8.87207,19.777832,19.777344-8.87207,19.777344-19.777832,19.777344Z" fill="none" stroke="#231f20" stroke-miterlimit="10"/><circle cx="421.216312" cy="285.525435" r="17.777778" fill="#fff" stroke="#231f20" stroke-miterlimit="10"/><path d="M462.993963,305.30282c-10.905762,0-19.777832-8.87207-19.777832-19.777344s8.87207-19.777344,19.777832-19.777344,19.777832,8.87207,19.777832,19.777344-8.87207,19.777344-19.777832,19.777344Z" fill="none" stroke="#231f20" stroke-miterlimit="10"/><circle cx="462.99409" cy="285.525435" r="17.777778" fill="#fff" stroke="#231f20" stroke-miterlimit="10"/><path d="M504.771795,305.30282c-10.905762,0-19.777832-8.87207-19.777832-19.777344s8.87207-19.777344,19.777832-19.777344,19.777832,8.87207,19.777832,19.777344-8.87207,19.777344-19.777832,19.777344Z" fill="none" stroke="#231f20" stroke-miterlimit="10"/><circle cx="504.771867" cy="285.525435" r="17.777778" fill="#fff" stroke="#231f20" stroke-miterlimit="10"/><path d="M45.216131,257.845789c-10.905762,0-19.777832-8.87207-19.777832-19.777344,0-10.90625,8.87207-19.77832,19.777832-19.77832s19.777832,8.87207,19.777832,19.77832c0,10.905273-8.87207,19.777344-19.777832,19.777344Z" fill="none" stroke="#231f20" stroke-miterlimit="10"/><circle cx="45.216312" cy="238.068253" r="17.777778" fill="#fff" stroke="#231f20" stroke-miterlimit="10"/><path d="M86.993963,257.845789c-10.905762,0-19.777832-8.87207-19.777832-19.777344,0-10.90625,8.87207-19.77832,19.777832-19.77832s19.777832,8.87207,19.777832,19.77832c0,10.905273-8.87207,19.777344-19.777832,19.777344Z" fill="none" stroke="#231f20" stroke-miterlimit="10"/><circle cx="86.99409" cy="238.068253" r="17.777778" fill="#fff" stroke="#231f20" stroke-miterlimit="10"/><path d="M128.771795,257.845789c-10.905762,0-19.777832-8.87207-19.777832-19.777344,0-10.90625,8.87207-19.77832,19.777832-19.77832s19.777832,8.87207,19.777832,19.77832c0,10.905273-8.87207,19.777344-19.777832,19.777344Z" fill="none" stroke="#231f20" stroke-miterlimit="10"/><circle cx="128.771867" cy="238.068253" r="17.777778" fill="#fff" stroke="#231f20" stroke-miterlimit="10"/><path d="M170.549627,257.845789c-10.905762,0-19.777832-8.87207-19.777832-19.777344,0-10.90625,8.87207-19.77832,19.777832-19.77832s19.777832,8.87207,19.777832,19.77832c0,10.905273-8.87207,19.777344-19.777832,19.777344Z" fill="none" stroke="#231f20" stroke-miterlimit="10"/><circle cx="170.549645" cy="238.068253" r="17.777778" fill="#fff" stroke="#231f20" stroke-miterlimit="10"/><path d="M212.327459,257.845789c-10.905762,0-19.777832-8.87207-19.777832-19.777344,0-10.90625,8.87207-19.77832,19.777832-19.77832s19.777832,8.87207,19.777832,19.77832c0,10.905273-8.87207,19.777344-19.777832,19.777344Z" fill="none" stroke="#231f20" stroke-miterlimit="10"/><circle cx="212.327423" cy="238.068253" r="17.777778" fill="#fff" stroke="#231f20" stroke-miterlimit="10"/><path d="M254.105291,257.845789c-10.905762,0-19.777832-8.87207-19.777832-19.777344,0-10.90625,8.87207-19.77832,19.777832-19.77832s19.777832,8.87207,19.777832,19.77832c0,10.905273-8.87207,19.777344-19.777832,19.777344Z" fill="none" stroke="#231f20" stroke-miterlimit="10"/><circle cx="254.105201" cy="238.068253" r="17.777778" fill="#fff" stroke="#231f20" stroke-miterlimit="10"/><path d="M295.883123,257.845789c-10.905762,0-19.777832-8.87207-19.777832-19.777344,0-10.90625,8.87207-19.77832,19.777832-19.77832s19.777832,8.87207,19.777832,19.77832c0,10.905273-8.87207,19.777344-19.777832,19.777344Z" fill="none" stroke="#231f20" stroke-miterlimit="10"/><circle cx="295.882979" cy="238.068253" r="17.777778" fill="#fff" stroke="#231f20" stroke-miterlimit="10"/><path d="M337.660955,257.845789c-10.905762,0-19.777832-8.87207-19.777832-19.777344,0-10.90625,8.87207-19.77832,19.777832-19.77832,10.905273,0,19.777344,8.87207,19.777344,19.77832,0,10.905273-8.87207,19.777344-19.777344,19.777344Z" fill="none" stroke="#231f20" stroke-miterlimit="10"/><circle cx="337.660756" cy="238.068253" r="17.777778" fill="#fff" stroke="#231f20" stroke-miterlimit="10"/><path d="M379.438299,257.845789c-10.905273,0-19.777344-8.87207-19.777344-19.777344,0-10.90625,8.87207-19.77832,19.777344-19.77832,10.905762,0,19.777832,8.87207,19.777832,19.77832,0,10.905273-8.87207,19.777344-19.777832,19.777344Z" fill="none" stroke="#231f20" stroke-miterlimit="10"/><circle cx="379.438534" cy="238.068253" r="17.777778" fill="#fff" stroke="#231f20" stroke-miterlimit="10"/><path d="M421.216131,257.845789c-10.905762,0-19.777832-8.87207-19.777832-19.777344,0-10.90625,8.87207-19.77832,19.777832-19.77832s19.777832,8.87207,19.777832,19.77832c0,10.905273-8.87207,19.777344-19.777832,19.777344Z" fill="none" stroke="#231f20" stroke-miterlimit="10"/><circle cx="421.216312" cy="238.068253" r="17.777778" fill="#fff" stroke="#231f20" stroke-miterlimit="10"/><path d="M462.993963,257.845789c-10.905762,0-19.777832-8.87207-19.777832-19.777344,0-10.90625,8.87207-19.77832,19.777832-19.77832s19.777832,8.87207,19.777832,19.77832c0,10.905273-8.87207,19.777344-19.777832,19.777344Z" fill="none" stroke="#231f20" stroke-miterlimit="10"/><circle cx="462.99409" cy="238.068253" r="17.777778" fill="#fff" stroke="#231f20" stroke-miterlimit="10"/><path d="M504.771795,257.845789c-10.905762,0-19.777832-8.87207-19.777832-19.777344,0-10.90625,8.87207-19.77832,19.777832-19.77832s19.777832,8.87207,19.777832,19.77832c0,10.905273-8.87207,19.777344-19.777832,19.777344Z" fill="none" stroke="#231f20" stroke-miterlimit="10"/><circle cx="504.771867" cy="238.068253" r="17.777778" fill="#fff" stroke="#231f20" stroke-miterlimit="10"/><path d="M45.216131,210.388758c-10.905762,0-19.777832-8.87207-19.777832-19.777344,0-10.90625,8.87207-19.77832,19.777832-19.77832s19.777832,8.87207,19.777832,19.77832c0,10.905273-8.87207,19.777344-19.777832,19.777344Z" fill="none" stroke="#231f20" stroke-miterlimit="10"/><circle cx="45.216312" cy="190.611071" r="17.777778" fill="#fff" stroke="#231f20" stroke-miterlimit="10"/><path d="M86.993963,210.388758c-10.905762,0-19.777832-8.87207-19.777832-19.777344,0-10.90625,8.87207-19.77832,19.777832-19.77832s19.777832,8.87207,19.777832,19.77832c0,10.905273-8.87207,19.777344-19.777832,19.777344Z" fill="none" stroke="#231f20" stroke-miterlimit="10"/><circle cx="86.99409" cy="190.611071" r="17.777778" fill="#fff" stroke="#231f20" stroke-miterlimit="10"/><path d="M128.771795,210.388758c-10.905762,0-19.777832-8.87207-19.777832-19.777344,0-10.90625,8.87207-19.77832,19.777832-19.77832s19.777832,8.87207,19.777832,19.77832c0,10.905273-8.87207,19.777344-19.777832,19.777344Z" fill="none" stroke="#231f20" stroke-miterlimit="10"/><circle cx="128.771867" cy="190.611071" r="17.777778" fill="#fff" stroke="#231f20" stroke-miterlimit="10"/><path d="M170.549627,210.388758c-10.905762,0-19.777832-8.87207-19.777832-19.777344,0-10.90625,8.87207-19.77832,19.777832-19.77832s19.777832,8.87207,19.777832,19.77832c0,10.905273-8.87207,19.777344-19.777832,19.777344Z" fill="none" stroke="#231f20" stroke-miterlimit="10"/><circle cx="170.549645" cy="190.611071" r="17.777778" fill="#fff" stroke="#231f20" stroke-miterlimit="10"/><path d="M212.327459,210.388758c-10.905762,0-19.777832-8.87207-19.777832-19.777344,0-10.90625,8.87207-19.77832,19.777832-19.77832s19.777832,8.87207,19.777832,19.77832c0,10.905273-8.87207,19.777344-19.777832,19.777344Z" fill="none" stroke="#231f20" stroke-miterlimit="10"/><circle cx="212.327423" cy="190.611071" r="17.777778" fill="#fff" stroke="#231f20" stroke-miterlimit="10"/><path d="M254.105291,210.388758c-10.905762,0-19.777832-8.87207-19.777832-19.777344,0-10.90625,8.87207-19.77832,19.777832-19.77832s19.777832,8.87207,19.777832,19.77832c0,10.905273-8.87207,19.777344-19.777832,19.777344Z" fill="none" stroke="#231f20" stroke-miterlimit="10"/><circle cx="254.105201" cy="190.611071" r="17.777778" fill="#fff" stroke="#231f20" stroke-miterlimit="10"/><path d="M295.883123,210.388758c-10.905762,0-19.777832-8.87207-19.777832-19.777344,0-10.90625,8.87207-19.77832,19.777832-19.77832s19.777832,8.87207,19.777832,19.77832c0,10.905273-8.87207,19.777344-19.777832,19.777344Z" fill="none" stroke="#231f20" stroke-miterlimit="10"/><circle cx="295.882979" cy="190.611071" r="17.777778" fill="#fff" stroke="#231f20" stroke-miterlimit="10"/><path d="M337.660955,210.388758c-10.905762,0-19.777832-8.87207-19.777832-19.777344,0-10.90625,8.87207-19.77832,19.777832-19.77832,10.905273,0,19.777344,8.87207,19.777344,19.77832,0,10.905273-8.87207,19.777344-19.777344,19.777344Z" fill="none" stroke="#231f20" stroke-miterlimit="10"/><circle cx="337.660756" cy="190.611071" r="17.777778" fill="#fff" stroke="#231f20" stroke-miterlimit="10"/><path d="M379.438299,210.388758c-10.905273,0-19.777344-8.87207-19.777344-19.777344,0-10.90625,8.87207-19.77832,19.777344-19.77832,10.905762,0,19.777832,8.87207,19.777832,19.77832,0,10.905273-8.87207,19.777344-19.777832,19.777344Z" fill="none" stroke="#231f20" stroke-miterlimit="10"/><circle cx="379.438534" cy="190.611071" r="17.777778" fill="#fff" stroke="#231f20" stroke-miterlimit="10"/><path d="M421.216131,210.388758c-10.905762,0-19.777832-8.87207-19.777832-19.777344,0-10.90625,8.87207-19.77832,19.777832-19.77832s19.777832,8.87207,19.777832,19.77832c0,10.905273-8.87207,19.777344-19.777832,19.777344Z" fill="none" stroke="#231f20" stroke-miterlimit="10"/><circle cx="421.216312" cy="190.611071" r="17.777778" fill="#fff" stroke="#231f20" stroke-miterlimit="10"/><path d="M462.993963,210.388758c-10.905762,0-19.777832-8.87207-19.777832-19.777344,0-10.90625,8.87207-19.77832,19.777832-19.77832s19.777832,8.87207,19.777832,19.77832c0,10.905273-8.87207,19.777344-19.777832,19.777344Z" fill="none" stroke="#231f20" stroke-miterlimit="10"/><circle cx="462.99409" cy="190.611071" r="17.777778" fill="#fff" stroke="#231f20" stroke-miterlimit="10"/><path d="M504.771795,210.388758c-10.905762,0-19.777832-8.87207-19.777832-19.777344,0-10.90625,8.87207-19.77832,19.777832-19.77832s19.777832,8.87207,19.777832,19.77832c0,10.905273-8.87207,19.777344-19.777832,19.777344Z" fill="none" stroke="#231f20" stroke-miterlimit="10"/><circle cx="504.771867" cy="190.611071" r="17.777778" fill="#fff" stroke="#231f20" stroke-miterlimit="10"/><path d="M45.216131,162.931726c-10.905762,0-19.777832-8.87207-19.777832-19.77832,0-10.905273,8.87207-19.777344,19.777832-19.777344s19.777832,8.87207,19.777832,19.777344c0,10.90625-8.87207,19.77832-19.777832,19.77832Z" fill="none" stroke="#231f20" stroke-miterlimit="10"/><circle cx="45.216312" cy="143.153889" r="17.777778" fill="#fff" stroke="#231f20" stroke-miterlimit="10"/><path d="M86.993963,162.931726c-10.905762,0-19.777832-8.87207-19.777832-19.77832,0-10.905273,8.87207-19.777344,19.777832-19.777344s19.777832,8.87207,19.777832,19.777344c0,10.90625-8.87207,19.77832-19.777832,19.77832Z" fill="none" stroke="#231f20" stroke-miterlimit="10"/><circle cx="86.99409" cy="143.153889" r="17.777778" fill="#fff" stroke="#231f20" stroke-miterlimit="10"/><path d="M128.771795,162.931726c-10.905762,0-19.777832-8.87207-19.777832-19.77832,0-10.905273,8.87207-19.777344,19.777832-19.777344s19.777832,8.87207,19.777832,19.777344c0,10.90625-8.87207,19.77832-19.777832,19.77832Z" fill="none" stroke="#231f20" stroke-miterlimit="10"/><circle cx="128.771867" cy="143.153889" r="17.777778" fill="#fff" stroke="#231f20" stroke-miterlimit="10"/><path d="M170.549627,162.931726c-10.905762,0-19.777832-8.87207-19.777832-19.77832,0-10.905273,8.87207-19.777344,19.777832-19.777344s19.777832,8.87207,19.777832,19.777344c0,10.90625-8.87207,19.77832-19.777832,19.77832Z" fill="none" stroke="#231f20" stroke-miterlimit="10"/><circle cx="170.549645" cy="143.153889" r="17.777778" fill="#fff" stroke="#231f20" stroke-miterlimit="10"/><path d="M212.327459,162.931726c-10.905762,0-19.777832-8.87207-19.777832-19.77832,0-10.905273,8.87207-19.777344,19.777832-19.777344s19.777832,8.87207,19.777832,19.777344c0,10.90625-8.87207,19.77832-19.777832,19.77832Z" fill="none" stroke="#231f20" stroke-miterlimit="10"/><circle cx="212.327423" cy="143.153889" r="17.777778" fill="#fff" stroke="#231f20" stroke-miterlimit="10"/><path d="M254.105291,162.931726c-10.905762,0-19.777832-8.87207-19.777832-19.77832,0-10.905273,8.87207-19.777344,19.777832-19.777344s19.777832,8.87207,19.777832,19.777344c0,10.90625-8.87207,19.77832-19.777832,19.77832Z" fill="none" stroke="#231f20" stroke-miterlimit="10"/><circle cx="254.105201" cy="143.153889" r="17.777778" fill="#fff" stroke="#231f20" stroke-miterlimit="10"/><path d="M295.883123,162.931726c-10.905762,0-19.777832-8.87207-19.777832-19.77832,0-10.905273,8.87207-19.777344,19.777832-19.777344s19.777832,8.87207,19.777832,19.777344c0,10.90625-8.87207,19.77832-19.777832,19.77832Z" fill="none" stroke="#231f20" stroke-miterlimit="10"/><circle cx="295.882979" cy="143.153889" r="17.777778" fill="#fff" stroke="#231f20" stroke-miterlimit="10"/><path d="M337.660955,162.931726c-10.905762,0-19.777832-8.87207-19.777832-19.77832,0-10.905273,8.87207-19.777344,19.777832-19.777344,10.905273,0,19.777344,8.87207,19.777344,19.777344,0,10.90625-8.87207,19.77832-19.777344,19.77832Z" fill="none" stroke="#231f20" stroke-miterlimit="10"/><circle cx="337.660756" cy="143.153889" r="17.777778" fill="#fff" stroke="#231f20" stroke-miterlimit="10"/><path d="M379.438299,162.931726c-10.905273,0-19.777344-8.87207-19.777344-19.77832,0-10.905273,8.87207-19.777344,19.777344-19.777344,10.905762,0,19.777832,8.87207,19.777832,19.777344,0,10.90625-8.87207,19.77832-19.777832,19.77832Z" fill="none" stroke="#231f20" stroke-miterlimit="10"/><circle cx="379.438534" cy="143.153889" r="17.777778" fill="#fff" stroke="#231f20" stroke-miterlimit="10"/><path d="M421.216131,162.931726c-10.905762,0-19.777832-8.87207-19.777832-19.77832,0-10.905273,8.87207-19.777344,19.777832-19.777344s19.777832,8.87207,19.777832,19.777344c0,10.90625-8.87207,19.77832-19.777832,19.77832Z" fill="none" stroke="#231f20" stroke-miterlimit="10"/><circle cx="421.216312" cy="143.153889" r="17.777778" fill="#fff" stroke="#231f20" stroke-miterlimit="10"/><path d="M462.993963,162.931726c-10.905762,0-19.777832-8.87207-19.777832-19.77832,0-10.905273,8.87207-19.777344,19.777832-19.777344s19.777832,8.87207,19.777832,19.777344c0,10.90625-8.87207,19.77832-19.777832,19.77832Z" fill="none" stroke="#231f20" stroke-miterlimit="10"/><circle cx="462.99409" cy="143.153889" r="17.777778" fill="#fff" stroke="#231f20" stroke-miterlimit="10"/><path d="M504.771795,162.931726c-10.905762,0-19.777832-8.87207-19.777832-19.77832,0-10.905273,8.87207-19.777344,19.777832-19.777344s19.777832,8.87207,19.777832,19.777344c0,10.90625-8.87207,19.77832-19.777832,19.77832Z" fill="none" stroke="#231f20" stroke-miterlimit="10"/><circle cx="504.771867" cy="143.153889" r="17.777778" fill="#fff" stroke="#231f20" stroke-miterlimit="10"/><path d="M45.216131,115.474695c-10.905762,0-19.777832-8.87207-19.777832-19.77832,0-10.905273,8.87207-19.777344,19.777832-19.777344s19.777832,8.87207,19.777832,19.777344c0,10.90625-8.87207,19.77832-19.777832,19.77832Z" fill="none" stroke="#231f20" stroke-miterlimit="10"/><circle cx="45.216312" cy="95.696707" r="17.777778" fill="#fff" stroke="#231f20" stroke-miterlimit="10"/><path d="M86.993963,115.474695c-10.905762,0-19.777832-8.87207-19.777832-19.77832,0-10.905273,8.87207-19.777344,19.777832-19.777344s19.777832,8.87207,19.777832,19.777344c0,10.90625-8.87207,19.77832-19.777832,19.77832Z" fill="none" stroke="#231f20" stroke-miterlimit="10"/><circle cx="86.99409" cy="95.696707" r="17.777778" fill="#fff" stroke="#231f20" stroke-miterlimit="10"/><path d="M128.771795,115.474695c-10.905762,0-19.777832-8.87207-19.777832-19.77832,0-10.905273,8.87207-19.777344,19.777832-19.777344s19.777832,8.87207,19.777832,19.777344c0,10.90625-8.87207,19.77832-19.777832,19.77832Z" fill="none" stroke="#231f20" stroke-miterlimit="10"/><circle cx="128.771867" cy="95.696707" r="17.777778" fill="#fff" stroke="#231f20" stroke-miterlimit="10"/><path d="M170.549627,115.474695c-10.905762,0-19.777832-8.87207-19.777832-19.77832,0-10.905273,8.87207-19.777344,19.777832-19.777344s19.777832,8.87207,19.777832,19.777344c0,10.90625-8.87207,19.77832-19.777832,19.77832Z" fill="none" stroke="#231f20" stroke-miterlimit="10"/><circle cx="170.549645" cy="95.696707" r="17.777778" fill="#fff" stroke="#231f20" stroke-miterlimit="10"/><path d="M212.327459,115.474695c-10.905762,0-19.777832-8.87207-19.777832-19.77832,0-10.905273,8.87207-19.777344,19.777832-19.777344s19.777832,8.87207,19.777832,19.777344c0,10.90625-8.87207,19.77832-19.777832,19.77832Z" fill="none" stroke="#231f20" stroke-miterlimit="10"/><circle cx="212.327423" cy="95.696707" r="17.777778" fill="#fff" stroke="#231f20" stroke-miterlimit="10"/><path d="M254.105291,115.474695c-10.905762,0-19.777832-8.87207-19.777832-19.77832,0-10.905273,8.87207-19.777344,19.777832-19.777344s19.777832,8.87207,19.777832,19.777344c0,10.90625-8.87207,19.77832-19.777832,19.77832Z" fill="none" stroke="#231f20" stroke-miterlimit="10"/><circle cx="254.105201" cy="95.696707" r="17.777778" fill="#fff" stroke="#231f20" stroke-miterlimit="10"/><path d="M295.883123,115.474695c-10.905762,0-19.777832-8.87207-19.777832-19.77832,0-10.905273,8.87207-19.777344,19.777832-19.777344s19.777832,8.87207,19.777832,19.777344c0,10.90625-8.87207,19.77832-19.777832,19.77832Z" fill="none" stroke="#231f20" stroke-miterlimit="10"/><circle cx="295.882979" cy="95.696707" r="17.777778" fill="#fff" stroke="#231f20" stroke-miterlimit="10"/><path d="M337.660955,115.474695c-10.905762,0-19.777832-8.87207-19.777832-19.77832,0-10.905273,8.87207-19.777344,19.777832-19.777344,10.905273,0,19.777344,8.87207,19.777344,19.777344,0,10.90625-8.87207,19.77832-19.777344,19.77832Z" fill="none" stroke="#231f20" stroke-miterlimit="10"/><circle cx="337.660756" cy="95.696707" r="17.777778" fill="#fff" stroke="#231f20" stroke-miterlimit="10"/><path d="M379.438299,115.474695c-10.905273,0-19.777344-8.87207-19.777344-19.77832,0-10.905273,8.87207-19.777344,19.777344-19.777344,10.905762,0,19.777832,8.87207,19.777832,19.777344,0,10.90625-8.87207,19.77832-19.777832,19.77832Z" fill="none" stroke="#231f20" stroke-miterlimit="10"/><circle cx="379.438534" cy="95.696707" r="17.777778" fill="#fff" stroke="#231f20" stroke-miterlimit="10"/><path d="M421.216131,115.474695c-10.905762,0-19.777832-8.87207-19.777832-19.77832,0-10.905273,8.87207-19.777344,19.777832-19.777344s19.777832,8.87207,19.777832,19.777344c0,10.90625-8.87207,19.77832-19.777832,19.77832Z" fill="none" stroke="#231f20" stroke-miterlimit="10"/><circle cx="421.216312" cy="95.696707" r="17.777778" fill="#fff" stroke="#231f20" stroke-miterlimit="10"/><path d="M462.993963,115.474695c-10.905762,0-19.777832-8.87207-19.777832-19.77832,0-10.905273,8.87207-19.777344,19.777832-19.777344s19.777832,8.87207,19.777832,19.777344c0,10.90625-8.87207,19.77832-19.777832,19.77832Z" fill="none" stroke="#231f20" stroke-miterlimit="10"/><circle cx="462.99409" cy="95.696707" r="17.777778" fill="#fff" stroke="#231f20" stroke-miterlimit="10"/><path d="M504.771795,115.474695c-10.905762,0-19.777832-8.87207-19.777832-19.77832,0-10.905273,8.87207-19.777344,19.777832-19.777344s19.777832,8.87207,19.777832,19.777344c0,10.90625-8.87207,19.77832-19.777832,19.77832Z" fill="none" stroke="#231f20" stroke-miterlimit="10"/><circle cx="504.771867" cy="95.696707" r="17.777778" fill="#fff" stroke="#231f20" stroke-miterlimit="10"/><path d="M45.216131,68.017664c-10.905762,0-19.777832-8.87207-19.777832-19.77832,0-10.905273,8.87207-19.777344,19.777832-19.777344s19.777832,8.87207,19.777832,19.777344c0,10.90625-8.87207,19.77832-19.777832,19.77832Z" fill="none" stroke="#231f20" stroke-miterlimit="10"/><circle cx="45.216312" cy="48.239524" r="17.777778" fill="#fff" stroke="#231f20" stroke-miterlimit="10"/><path d="M86.993963,68.017664c-10.905762,0-19.777832-8.87207-19.777832-19.77832,0-10.905273,8.87207-19.777344,19.777832-19.777344s19.777832,8.87207,19.777832,19.777344c0,10.90625-8.87207,19.77832-19.777832,19.77832Z" fill="none" stroke="#231f20" stroke-miterlimit="10"/><circle cx="86.99409" cy="48.239524" r="17.777778" fill="#fff" stroke="#231f20" stroke-miterlimit="10"/><path d="M128.771795,68.017664c-10.905762,0-19.777832-8.87207-19.777832-19.77832,0-10.905273,8.87207-19.777344,19.777832-19.777344s19.777832,8.87207,19.777832,19.777344c0,10.90625-8.87207,19.77832-19.777832,19.77832Z" fill="none" stroke="#231f20" stroke-miterlimit="10"/><circle cx="128.771867" cy="48.239524" r="17.777778" fill="#fff" stroke="#231f20" stroke-miterlimit="10"/><path d="M170.549627,68.017664c-10.905762,0-19.777832-8.87207-19.777832-19.77832,0-10.905273,8.87207-19.777344,19.777832-19.777344s19.777832,8.87207,19.777832,19.777344c0,10.90625-8.87207,19.77832-19.777832,19.77832Z" fill="none" stroke="#231f20" stroke-miterlimit="10"/><circle cx="170.549645" cy="48.239524" r="17.777778" fill="#fff" stroke="#231f20" stroke-miterlimit="10"/><path d="M212.327459,68.017664c-10.905762,0-19.777832-8.87207-19.777832-19.77832,0-10.905273,8.87207-19.777344,19.777832-19.777344s19.777832,8.87207,19.777832,19.777344c0,10.90625-8.87207,19.77832-19.777832,19.77832Z" fill="none" stroke="#231f20" stroke-miterlimit="10"/><circle cx="212.327423" cy="48.239524" r="17.777778" fill="#fff" stroke="#231f20" stroke-miterlimit="10"/><path d="M254.105291,68.017664c-10.905762,0-19.777832-8.87207-19.777832-19.77832,0-10.905273,8.87207-19.777344,19.777832-19.777344s19.777832,8.87207,19.777832,19.777344c0,10.90625-8.87207,19.77832-19.777832,19.77832Z" fill="none" stroke="#231f20" stroke-miterlimit="10"/><circle cx="254.105201" cy="48.239524" r="17.777778" fill="#fff" stroke="#231f20" stroke-miterlimit="10"/><path d="M295.883123,68.017664c-10.905762,0-19.777832-8.87207-19.777832-19.77832,0-10.905273,8.87207-19.777344,19.777832-19.777344s19.777832,8.87207,19.777832,19.777344c0,10.90625-8.87207,19.77832-19.777832,19.77832Z" fill="none" stroke="#231f20" stroke-miterlimit="10"/><circle cx="295.882979" cy="48.239524" r="17.777778" fill="#fff" stroke="#231f20" stroke-miterlimit="10"/><path d="M337.660955,68.017664c-10.905762,0-19.777832-8.87207-19.777832-19.77832,0-10.905273,8.87207-19.777344,19.777832-19.777344,10.905273,0,19.777344,8.87207,19.777344,19.777344,0,10.90625-8.87207,19.77832-19.777344,19.77832Z" fill="none" stroke="#231f20" stroke-miterlimit="10"/><circle cx="337.660756" cy="48.239524" r="17.777778" fill="#fff" stroke="#231f20" stroke-miterlimit="10"/><path d="M379.438299,68.017664c-10.905273,0-19.777344-8.87207-19.777344-19.77832,0-10.905273,8.87207-19.777344,19.777344-19.777344,10.905762,0,19.777832,8.87207,19.777832,19.777344,0,10.90625-8.87207,19.77832-19.777832,19.77832Z" fill="none" stroke="#231f20" stroke-miterlimit="10"/><circle cx="379.438534" cy="48.239524" r="17.777778" fill="#fff" stroke="#231f20" stroke-miterlimit="10"/><path d="M421.216131,68.017664c-10.905762,0-19.777832-8.87207-19.777832-19.77832,0-10.905273,8.87207-19.777344,19.777832-19.777344s19.777832,8.87207,19.777832,19.777344c0,10.90625-8.87207,19.77832-19.777832,19.77832Z" fill="none" stroke="#231f20" stroke-miterlimit="10"/><circle cx="421.216312" cy="48.239524" r="17.777778" fill="#fff" stroke="#231f20" stroke-miterlimit="10"/><path d="M462.993963,68.017664c-10.905762,0-19.777832-8.87207-19.777832-19.77832,0-10.905273,8.87207-19.777344,19.777832-19.777344s19.777832,8.87207,19.777832,19.777344c0,10.90625-8.87207,19.77832-19.777832,19.77832Z" fill="none" stroke="#231f20" stroke-miterlimit="10"/><circle cx="462.99409" cy="48.239524" r="17.777778" fill="#fff" stroke="#231f20" stroke-miterlimit="10"/><path d="M504.771795,68.017664c-10.905762,0-19.777832-8.87207-19.777832-19.77832,0-10.905273,8.87207-19.777344,19.777832-19.777344s19.777832,8.87207,19.777832,19.777344c0,10.90625-8.87207,19.77832-19.777832,19.77832Z" fill="none" stroke="#231f20" stroke-miterlimit="10"/><circle cx="504.771867" cy="48.239524" r="17.777778" fill="#fff" stroke="#231f20" stroke-miterlimit="10"/><path d="M200.36408,283.3995c-.538574,0-1.05127-.196289-1.443848-.551758-.506836-.460938-.760254-1.135742-.696777-1.854492.162109-1.832031,3.182617-5.664062,6.98291-8.051758,3.811523-2.394531,8.14209-3.244141,10.692383-3.244141.750977,0,3.036621,0,3.398438,1.936523.338867,1.811523-1.271484,2.469727-2.977051,3.165039-1.556641.635742-3.909668,1.59668-7.033691,3.34668-2.695801,1.510742-4.620117,2.861328-5.893555,3.755859-1.509277,1.05957-2.133789,1.498047-3.028809,1.498047Z" fill="none" mix-blend-mode="screen" opacity=".68"/><path d="M493.580877,235.877039c-.538574,0-1.05127-.196289-1.443848-.551758-.505859-.458984-.760254-1.133789-.696777-1.852539.160645-1.832031,3.181152-5.665039,6.98291-8.053711,3.811035-2.394531,8.141113-3.244141,10.690918-3.244141.751465,0,3.038574,0,3.400391,1.9375.338867,1.811523-1.270508,2.467773-2.975098,3.164062-1.557129.634766-3.910645,1.595703-7.036133,3.34668-2.695801,1.510742-4.620117,2.861328-5.893555,3.755859-1.509277,1.05957-2.133789,1.498047-3.028809,1.498047Z" fill="none" mix-blend-mode="screen" opacity=".68"/><path d="M493.347479,188.354578c-.538574,0-1.05127-.196289-1.443848-.551758-.506348-.458984-.760254-1.134766-.696777-1.853516.161621-1.832031,3.182129-5.665039,6.98291-8.052734,3.811035-2.394531,8.141113-3.244141,10.690918-3.244141.751465,0,3.038574,0,3.400391,1.9375.338867,1.810547-1.270508,2.467773-2.974121,3.163086-1.557129.635742-3.910645,1.59668-7.037109,3.348633-2.696777,1.509766-4.621094,2.861328-5.894043,3.754883-1.509277,1.05957-2.133789,1.498047-3.02832,1.498047Z" fill="#fff" mix-blend-mode="screen" opacity=".68"/><path d="M451.426092,188.354578c-.538574,0-1.05127-.196289-1.443848-.551758-.505859-.458984-.760254-1.133789-.696777-1.852539.160645-1.832031,3.181152-5.665039,6.98291-8.053711,3.811035-2.394531,8.141113-3.244141,10.690918-3.244141.751465,0,3.038574,0,3.400391,1.9375.338867,1.810547-1.270508,2.467773-2.974121,3.163086-1.557129.635742-3.910645,1.59668-7.037109,3.348633-2.696777,1.509766-4.621094,2.861328-5.894043,3.754883-1.509277,1.05957-2.133789,1.498047-3.02832,1.498047Z" fill="none" mix-blend-mode="screen" opacity=".68"/><path d="M409.504705,188.354578c-.538574,0-1.05127-.196289-1.443848-.551758-.505859-.458984-.760254-1.133789-.696777-1.852539.160645-1.832031,3.181152-5.665039,6.98291-8.053711,3.811035-2.394531,8.140625-3.244141,10.690918-3.244141.750977,0,3.037109,0,3.399902,1.936523.339355,1.811523-1.27002,2.46875-2.973633,3.164062-1.557129.635742-3.910645,1.59668-7.037109,3.348633-2.696777,1.509766-4.621094,2.861328-5.894043,3.754883-1.509277,1.05957-2.133789,1.498047-3.02832,1.498047Z" fill="#fff" mix-blend-mode="screen" opacity=".68"/><path d="M367.583319,188.354578c-.539062,0-1.052246-.196289-1.444824-.552734-.504883-.458008-.759277-1.132812-.695801-1.851562.160645-1.832031,3.181152-5.665039,6.98291-8.053711,3.811035-2.394531,8.140625-3.244141,10.690918-3.244141.750977,0,3.037109,0,3.399902,1.936523.339355,1.811523-1.27002,2.46875-2.973633,3.164062-1.557129.635742-3.910645,1.59668-7.037109,3.348633-2.696777,1.510742-4.621094,2.861328-5.894531,3.755859-1.508789,1.058594-2.133301,1.49707-3.027832,1.49707Z" fill="none" mix-blend-mode="screen" opacity=".68"/><path d="M325.661932,188.354578c-.539062,0-1.052246-.196289-1.444824-.552734-.504883-.458008-.759277-1.132812-.695801-1.851562.160645-1.832031,3.181152-5.665039,6.98291-8.053711,3.810547-2.394531,8.140625-3.244141,10.69043-3.244141.751465,0,3.037598,0,3.400391,1.936523.339355,1.811523-1.27002,2.46875-2.973633,3.164062-1.557129.635742-3.910645,1.59668-7.037109,3.348633-2.696777,1.510742-4.621094,2.861328-5.894531,3.755859-1.508789,1.058594-2.133301,1.49707-3.027832,1.49707Z" fill="none" mix-blend-mode="screen" opacity=".68"/><path d="M283.740545,188.354578c-.539062,0-1.052246-.196289-1.444824-.552734-.504883-.458008-.759277-1.132812-.695801-1.851562.160645-1.832031,3.181152-5.665039,6.98291-8.053711,3.810547-2.394531,8.140625-3.244141,10.69043-3.244141.751465,0,3.037598,0,3.400391,1.936523.339355,1.811523-1.269531,2.46875-2.973633,3.164062-1.557129.635742-3.910645,1.59668-7.037109,3.348633-2.696777,1.510742-4.621094,2.861328-5.894531,3.755859-1.508789,1.058594-2.133301,1.49707-3.027832,1.49707Z" fill="none" mix-blend-mode="screen" opacity=".68"/><path d="M241.81867,188.354578c-.538574,0-1.05127-.196289-1.443848-.551758-.506348-.458984-.760254-1.134766-.696777-1.853516.161621-1.831055,3.182129-5.665039,6.983398-8.052734,3.810547-2.394531,8.140625-3.244141,10.69043-3.244141.751465,0,3.037598,0,3.400391,1.936523.337891,1.8125-1.270508,2.46875-2.973633,3.164062-1.557129.635742-3.911133,1.59668-7.037598,3.348633-2.695801,1.509766-4.620117,2.860352-5.893555,3.754883-1.509277,1.05957-2.134277,1.498047-3.028809,1.498047Z" fill="none" mix-blend-mode="screen" opacity=".68"/><path d="M199.897283,188.354578c-.538574,0-1.05127-.196289-1.443848-.551758-.506348-.458984-.760254-1.134766-.696777-1.853516.161621-1.832031,3.182129-5.665039,6.983398-8.052734,3.810547-2.394531,8.140625-3.244141,10.69043-3.244141.751465,0,3.038574,0,3.400391,1.9375.338867,1.810547-1.270508,2.467773-2.974121,3.163086-1.557129.635742-3.910645,1.59668-7.037109,3.348633-2.696777,1.509766-4.621094,2.861328-5.894043,3.754883-1.509277,1.05957-2.133789,1.498047-3.02832,1.498047Z" fill="none" mix-blend-mode="screen" opacity=".68"/><path d="M492.88117,93.309656c-.539062,0-1.052246-.196289-1.444824-.552734-.504883-.458008-.759277-1.132812-.695801-1.851562.160645-1.832031,3.181152-5.665039,6.98291-8.053711,3.811035-2.394531,8.141602-3.243164,10.691895-3.243164.750977,0,3.035645,0,3.398926,1.93457.339355,1.8125-1.269531,2.469727-2.973633,3.165039-1.557129.635742-3.910645,1.59668-7.037109,3.348633-2.696777,1.510742-4.621094,2.861328-5.89502,3.755859-1.508301,1.058594-2.132812,1.49707-3.027344,1.49707Z" fill="none" mix-blend-mode="screen" opacity=".68"/><path d="M450.959295,93.309656c-.538574,0-1.05127-.196289-1.443848-.551758-.506348-.458984-.760254-1.134766-.696777-1.853516.161621-1.831055,3.182129-5.665039,6.983398-8.052734,3.811035-2.394531,8.141602-3.243164,10.691895-3.243164.750977,0,3.035645,0,3.398926,1.93457.337891,1.813477-1.270508,2.469727-2.973633,3.165039-1.557129.635742-3.911133,1.59668-7.037598,3.348633-2.696777,1.509766-4.621094,2.861328-5.894043,3.754883-1.509277,1.05957-2.133789,1.498047-3.02832,1.498047Z" fill="none" mix-blend-mode="screen" opacity=".68"/><path d="M409.037908,93.309656c-.538574,0-1.05127-.196289-1.443848-.551758-.506348-.458984-.760254-1.134766-.696777-1.853516.161621-1.832031,3.182129-5.665039,6.983398-8.052734,3.811035-2.394531,8.141602-3.243164,10.691895-3.243164.750977,0,3.036621,0,3.398438,1.936523.339355,1.810547-1.27002,2.467773-2.973633,3.163086-1.557129.635742-3.910645,1.59668-7.037109,3.348633-2.696777,1.509766-4.621094,2.861328-5.894043,3.754883-1.509277,1.05957-2.133789,1.498047-3.02832,1.498047Z" fill="none" mix-blend-mode="screen" opacity=".68"/><path d="M367.116522,93.309656c-.538574,0-1.05127-.196289-1.443848-.551758-.506348-.458984-.760254-1.134766-.696777-1.853516.161621-1.832031,3.182129-5.665039,6.983398-8.052734,3.811035-2.394531,8.141602-3.243164,10.691895-3.243164.750977,0,3.036621,0,3.398438,1.936523.339355,1.810547-1.27002,2.467773-2.973633,3.163086-1.557129.635742-3.910645,1.59668-7.037109,3.348633-2.696777,1.509766-4.621094,2.861328-5.894043,3.754883-1.509277,1.05957-2.133789,1.498047-3.02832,1.498047Z" fill="none" mix-blend-mode="screen" opacity=".68"/><path d="M492.647772,45.788172c-.539062,0-1.052246-.196289-1.444824-.552734-.505859-.459961-.759277-1.134766-.695801-1.853516.162109-1.832031,3.182617-5.665039,6.98291-8.052734,3.811523-2.394531,8.141602-3.243164,10.691895-3.243164.750977,0,3.035645,0,3.398926,1.93457.338867,1.813477-1.270996,2.470703-2.975098,3.166016-1.557129.635742-3.910645,1.59668-7.035645,3.347656-2.696289,1.510742-4.620605,2.861328-5.894043,3.755859-1.509277,1.05957-2.133789,1.498047-3.02832,1.498047Z" fill="none" mix-blend-mode="screen" opacity=".68"/><path d="M450.726385,45.788172c-.539062,0-1.052246-.196289-1.444824-.552734-.505859-.459961-.759277-1.134766-.695801-1.853516.162109-1.832031,3.182617-5.665039,6.98291-8.052734,3.811035-2.394531,8.141602-3.243164,10.691895-3.243164.750977,0,3.035645,0,3.398926,1.93457.338867,1.813477-1.270996,2.470703-2.975098,3.166016-1.557129.635742-3.910645,1.59668-7.035645,3.347656-2.696289,1.510742-4.620605,2.861328-5.894043,3.755859-1.509277,1.05957-2.133789,1.498047-3.02832,1.498047Z" fill="none" mix-blend-mode="screen" opacity=".68"/><path d="M408.804998,45.788172c-.539062,0-1.052246-.196289-1.444824-.552734-.505859-.459961-.759277-1.134766-.695801-1.853516.162109-1.832031,3.182617-5.665039,6.98291-8.052734,3.811035-2.394531,8.141602-3.243164,10.691895-3.243164.750977,0,3.035645,0,3.398926,1.93457.338867,1.813477-1.270996,2.470703-2.975098,3.166016-1.557129.635742-3.910645,1.59668-7.035645,3.347656-2.696289,1.510742-4.620605,2.861328-5.894043,3.755859-1.509277,1.05957-2.133789,1.498047-3.02832,1.498047Z" fill="none" mix-blend-mode="screen" opacity=".68"/><path d="M366.883123,45.788172c-.538574,0-1.05127-.196289-1.443848-.551758-.507324-.461914-.760254-1.136719-.696777-1.855469.162598-1.832031,3.183594-5.664062,6.983398-8.051758,3.811035-2.394531,8.141602-3.243164,10.691895-3.243164.750977,0,3.036621,0,3.398438,1.936523.338867,1.811523-1.270996,2.46875-2.975098,3.164062-1.557129.635742-3.910645,1.59668-7.035645,3.347656-2.695801,1.510742-4.620117,2.861328-5.893555,3.755859-1.509277,1.05957-2.133789,1.498047-3.028809,1.498047Z" fill="none" mix-blend-mode="screen" opacity=".68"/><path d="M324.961736,45.788172c-.538574,0-1.05127-.196289-1.443848-.551758-.507324-.461914-.760254-1.136719-.696777-1.855469.162598-1.832031,3.184082-5.665039,6.983398-8.051758,3.811035-2.394531,8.141602-3.243164,10.691895-3.243164.750977,0,3.036621,0,3.398438,1.936523.338867,1.811523-1.270996,2.46875-2.975098,3.164062-1.557129.635742-3.910645,1.59668-7.035645,3.347656-2.695801,1.510742-4.620117,2.861328-5.893555,3.755859-1.509277,1.05957-2.133789,1.498047-3.028809,1.498047Z" fill="none" mix-blend-mode="screen" opacity=".68"/><path d="M283.04035,45.788172c-.538574,0-1.05127-.196289-1.443848-.551758-.507324-.461914-.760254-1.136719-.696777-1.855469.162598-1.832031,3.183594-5.665039,6.98291-8.051758,3.811523-2.394531,8.14209-3.243164,10.692383-3.243164.750977,0,3.036621,0,3.398438,1.936523.338867,1.811523-1.270996,2.46875-2.975098,3.164062-1.557129.635742-3.910645,1.59668-7.035645,3.347656-2.695801,1.510742-4.620117,2.861328-5.893555,3.755859-1.509277,1.05957-2.133789,1.498047-3.028809,1.498047Z" fill="none" mix-blend-mode="screen" opacity=".68"/><path d="M241.118963,45.788172c-.538574,0-1.05127-.196289-1.443848-.551758-.506836-.460938-.760254-1.135742-.696777-1.854492.162109-1.832031,3.182617-5.665039,6.98291-8.052734,3.811523-2.394531,8.14209-3.243164,10.692383-3.243164.750977,0,3.036621,0,3.398438,1.936523.338867,1.811523-1.270996,2.46875-2.975098,3.164062-1.557129.635742-3.910645,1.59668-7.035645,3.347656-2.695801,1.510742-4.620117,2.861328-5.893555,3.755859-1.509277,1.05957-2.133789,1.498047-3.028809,1.498047Z" fill="none" mix-blend-mode="screen" opacity=".68"/><path d="M199.197576,45.788172c-.538574,0-1.05127-.196289-1.443848-.551758-.506836-.460938-.760254-1.135742-.696777-1.854492.162109-1.832031,3.182617-5.665039,6.98291-8.052734,3.811523-2.394531,8.14209-3.243164,10.692383-3.243164.750977,0,3.036621,0,3.398438,1.936523.338867,1.811523-1.270996,2.46875-2.975098,3.164062-1.557129.635742-3.910645,1.59668-7.035645,3.347656-2.695801,1.510742-4.620117,2.861328-5.893555,3.755859-1.509277,1.05957-2.133789,1.498047-3.028809,1.498047Z" fill="none" mix-blend-mode="screen" opacity=".68"/></g></g></svg>