<?xml version="1.0" encoding="UTF-8"?><svg id="a" xmlns="http://www.w3.org/2000/svg" width="322.63371" height="308.248864" xmlns:xlink="http://www.w3.org/1999/xlink" viewBox="0 0 322.63371 308.248864"><defs><radialGradient id="b" cx="170.141525" cy="48.252379" fx="170.141525" fy="48.252379" r="39.548331" gradientTransform="translate(9.05482) scale(.923467 1)" gradientUnits="userSpaceOnUse"><stop offset="0" stop-color="#1e3c48"/><stop offset=".488123" stop-color="#2e5f71"/><stop offset="1" stop-color="#4289a2"/></radialGradient><linearGradient id="c" x1="166.174883" y1="299.051133" x2="166.174883" y2="33.931831" gradientUnits="userSpaceOnUse"><stop offset="0" stop-color="#1d3b47"/><stop offset=".109691" stop-color="#1f3f4c"/><stop offset=".251479" stop-color="#264d5c"/><stop offset=".359835" stop-color="#2e5c6e"/><stop offset=".599277" stop-color="#448ea8"/><stop offset=".649539" stop-color="#4897b3"/><stop offset=".744611" stop-color="#4ea4c3"/><stop offset=".852561" stop-color="#51accd"/><stop offset="1" stop-color="#53afd0"/></linearGradient><radialGradient id="d" cx="153.713523" cy="206.351614" fx="153.713523" fy="206.351614" r="31.917217" gradientUnits="userSpaceOnUse"><stop offset="0" stop-color="#f1f7eb"/><stop offset=".197635" stop-color="#edf5e7"/><stop offset=".36977" stop-color="#e2f1dc"/><stop offset=".532485" stop-color="#d0e9ca"/><stop offset=".689345" stop-color="#b7deb1"/><stop offset=".842036" stop-color="#97d091"/><stop offset=".989674" stop-color="#70c06a"/><stop offset="1" stop-color="#6dbf67"/></radialGradient><radialGradient id="e" cx="180.643074" cy="138.081738" fx="180.643074" fy="138.081738" r="33.242288" gradientUnits="userSpaceOnUse"><stop offset="0" stop-color="#ffecd2"/><stop offset=".209836" stop-color="#fee8c9"/><stop offset=".543004" stop-color="#fedeb2"/><stop offset=".955789" stop-color="#fdce8d"/><stop offset="1" stop-color="#fdcd89"/></radialGradient></defs><path d="M139.58404,8.611034l.000029-.000006c5.646837-1.250261,11.398836-1.9965,17.185519-2.229572l16.785801-.676087c14.367765-.578695,27.637057,7.573501,33.380856,20.50805l3.89597,8.773393-25.557684,96.490772-45.238181-18.705143-16.681319-79.477592c-2.350775-11.20019,4.859276-22.166452,16.22901-24.683814Z" fill="#cfecf8" stroke="#05415a" stroke-miterlimit="10" stroke-width="4"/><path d="M306.829577,31.481093l-49.919983,99.029785-84.140015,166.930176-9.480042-156.050049-3.27791-54.041356c-1.216312-20.052764,3.287357-40.038613,12.986865-57.631574l7.426481-13.470146c4.876887-8.845694,14.209636-14.30513,24.310477-14.247477.042024.00024.083394.00046.124094.00066,42.98999.159912,79.420044,12.449707,101.960022,29.47998h.01001Z" fill="#cfecf8" stroke="#05415a" stroke-miterlimit="10" stroke-width="4"/><path d="M15.817014,40.617141l49.919983,99.029785,75.662442,150.111036c2.337634,4.637765,9.304756,3.202954,9.619686-1.98108l8.337928-137.249829,3.420059-56.384892c1.123459-18.521934-3.0364-36.982062-11.995447-53.231976l-10.864327-19.705708c-3.450988-6.2594-10.047582-10.131605-17.195167-10.093575l-4.935126.026259c-42.98999.159912-79.420044,12.449707-101.960022,29.47998h-.01001Z" fill="#cfecf8" stroke="#05415a" stroke-miterlimit="10" stroke-width="4"/><path d="M215.15283,45.85849c0,11.127515-21.928174,20.148148-48.977947,20.148148s-48.977947-9.020633-48.977947-20.148148,21.928174-15.36037,48.977947-15.36037,48.977947,4.232855,48.977947,15.36037Z" fill="url(#b)"/><path d="M272.888327,128.606635c-10.039978,100.040039-76.820007,170.939941-112.339966,170.439941-.030029.010254-.070007,0-.100037,0h-.029968c-35.48999-1.879883-97.670044-77.079834-101.400024-177.569824-1.830017-49.160156,32.460022-90.189941,53.77002-87.410156,1.320007-.719727,5.01001,1.52002,10.200012,4.890137,6.579956-1.949951,19.909973,7.030029,38.329956,7.030029,21.890015,0,45.5-10.409912,54.950012-3.100098,3.549988-2.219971,5.780029-4.01001,6.220032-4.77002,21.440002-4.599854,55.5,39.810059,50.399963,90.48999Z" fill="url(#c)"/><path d="M166.097226,291.791116c.923093,8.537969-6.521008,15.6758-14.995056,14.283134-33.578758-5.518495-93.88299-31.846621-113.144353-88.08136-12.249174-35.762209,4.449353-42.651123-10.232947-87.405469C12.265364,83.464034-2.329016,74.222262,3.19187,56.336771c4.037435-13.07967,16.937965-22.224295,27.673812-25.003144,12.244285-3.169304,15.265577,3.600097,34.633413,4.992712,26.429987,1.900417,34.871308-9.694202,49.702082-1.962187.849062.442654,11.775948,6.410209,15.98255,18.559062,3.017805,8.715565,1.280669,17.135989.461449,21.10694-1.748126,8.473657-4.734852,11.026446-5.556678,20.556452-.266587,3.091202-.578332,6.706189.309209,11.290031,2.27848,11.767438,9.186148,13.008912,9.582882,22.816707.231859,5.73068-.840632,11.680062-.840662,11.680153-.41372,2.295191-.977469,4.541682-.797536,7.777148.172453,3.101083.920051,5.310983,1.15655,6.067084,3.020029,9.654322.166123,20.055292-6.739348,27.448662-7.428096,7.961954-11.482977,18.983728-10.238938,30.657637.427055,4.007272,1.444796,7.800789,2.965123,11.309469,4.419924,10.23929,13.613823,16.299169,16.663036,18.488382,1.039752.738171,2.084504,1.398391,3.131539,1.985926,13.203747,7.409175,21.914748,20.84066,23.542197,35.893441l1.274676,11.789868Z" fill="#cfecf8" stroke="#05415a" stroke-miterlimit="10" stroke-width="4"/><path d="M288.539873,140.993327c5.901672-44.94751,38.050354-55.364014,31.120728-88.002197-2.814087-13.254395-12.100525-30.390869-25.342957-33.331055-9.584473-2.128174-13.927002,4.804443-30.666626,4-13.160217-.632568-14.159729-5.094482-24.960693-4.227295-12.80191,1.027832-21.927399,8.19751-26.896942,11.97168-5.648987,4.290283-12.576904,9.551758-15.593689,18.886963-2.836182,8.776367-.9245,17.158936-.02301,21.112061,1.923706,8.435547,4.96283,10.925781,5.982361,20.436523.13855,1.292236.286926,2.67627.35434,4.186523l.007996.196045c.171722,4.220459,3.643158,7.553467,7.867096,7.553467,5.679321,0,10.283325,4.604004,10.283325,10.283203v45.818848c0,5.679443-4.604004,10.283447-10.283325,10.283447h-5.478912c-4.540802,0-6.850098,5.458008-3.688171,8.717041l.075531.077881c6.08313,7.879395,6.415192,13.306885,5.717224,16.715088-1.420074,6.934326-7.651031,8.179932-8.300171,15.127686-.645294,6.906494,5.278168,8.18042,4.176361,15.057861-1.144196,7.14209-8.683075,12.951416-9.725128,13.736816-.797302.60083-1.49115,1.053955-1.971222,1.353027-1.530396.951172-2.71228,1.455078-4.027191,2.219482-2.024536,1.177002-4.255768,2.728027-6.593842,4.825928-9.39502,8.430176-14.510315,20.637451-14.39621,33.259766l.077576,8.580811c-.744446,8.541992,6.828552,15.537598,15.259155,13.973877,29.006226-5.379639,63.803314-23.510742,74.117645-33.394531,12.039551-11.536621,30.279419-29.014648,37.202393-57.022705,7.928345-32.075439-8.749329-38.461182-4.29364-72.39624Z" fill="#cfecf8" stroke="#05415a" stroke-miterlimit="10" stroke-width="4"/><circle cx="153.713523" cy="206.351614" r="31.917217" fill="url(#d)" stroke="#134d26" stroke-miterlimit="10" stroke-width="1.7"/><rect x="143.186622" y="109.671994" width="74.912905" height="56.819488" rx="10.636889" ry="10.636889" fill="url(#e)" stroke="#93703e" stroke-miterlimit="10" stroke-width="1.772815"/></svg>