<?xml version="1.0" encoding="UTF-8"?><svg id="Layer_1" xmlns="http://www.w3.org/2000/svg" width="504.083835" height="382.621449" xmlns:xlink="http://www.w3.org/1999/xlink" viewBox="0 0 504.083835 382.621449"><defs><linearGradient id="linear-gradient" x1=".754591" y1="191.310724" x2="503.329244" y2="191.310724" gradientUnits="userSpaceOnUse"><stop offset="0" stop-color="#fff"/><stop offset="1" stop-color="#e6e7e8"/></linearGradient></defs><rect x=".754591" y=".754591" width="502.574654" height="381.112268" rx="25.24464" ry="25.24464" fill="url(#linear-gradient)" stroke="#231f20" stroke-miterlimit="10" stroke-width="1.509181"/><path d="M454.639194,85.632271c-12.52002,0-24.022461-7.237793-30.018555-18.888672-.515625-.989258-1.008789-2.0625-1.460449-3.180664-.115723-.282227-.227539-.575195-.338867-.877441-.35791-.936523-.685547-1.929199-.966309-2.927246-5.064941-17.708984,3.185059-36.608887,19.192871-43.954102,4.320312-1.980957,8.87793-2.984863,13.547363-2.984863,13.725586,0,26.086914,8.657715,31.491699,22.057129,1.129883,2.808594,1.924805,5.730957,2.362305,8.687988.138184.92627.231934,1.753906.285645,2.526855.125,1.535645.155762,3.085938.089844,4.583984-.522949,13.895508-8.62207,26.44873-20.632812,31.967285-4.322754,1.983887-8.882324,2.989746-13.552734,2.989746Z" fill="#fff" stroke="#231f20" stroke-miterlimit="10" stroke-width=".817338"/><path d="M486.826913,50.587275c-.482588,12.817861-7.689925,24.825135-19.470114,30.237737-15.379898,7.059131-33.062012.346231-40.957642-14.996466-.506346-.971075-.965224-1.975856-1.384507-3.014445-.110772-.270264-.213625-.540425-.316478-.819039-.348107-.912013-.656665-1.849279-.917757-2.778093-4.731043-16.541775,2.863996-34.603297,18.101445-41.594914,16.353041-7.498233,35.316809.565679,42.350117,18.002459,1.083867,2.693674,1.827547,5.454863,2.238959,8.232853.118643.793785.213577,1.579015.268963,2.3728.118691,1.460787.15032,2.913122.087015,4.357108Z" fill="#a4dff9" stroke="#231f20" stroke-miterlimit="10"/><path d="M374.022007,85.632271c-12.52002,0-24.022461-7.237793-30.018066-18.888672-.51709-.992188-1.010254-2.06543-1.460938-3.180664-.115723-.28125-.226562-.573242-.337891-.874512-.359375-.941895-.6875-1.93457-.967285-2.931152-5.064941-17.708008,3.185059-36.60791,19.192871-43.953125,4.320312-1.980957,8.87793-2.984863,13.547363-2.984863,13.725586,0,26.086914,8.657715,31.491699,22.057129,1.129883,2.807617,1.924316,5.72998,2.362793,8.687988.137207.92041.230957,1.74707.285645,2.525391.124512,1.533203.155273,3.083008.089844,4.584961-.523438,13.896484-8.622559,26.449219-20.633301,31.967773-4.322754,1.983887-8.881836,2.989746-13.552734,2.989746Z" fill="#fff" stroke="#231f20" stroke-miterlimit="10" stroke-width=".817338"/><path d="M406.209876,50.587275c-.482588,12.817861-7.689925,24.825135-19.470114,30.237737-15.379898,7.059131-33.062012.346231-40.957642-14.996466-.506346-.971075-.965224-1.975856-1.384507-3.014445-.110772-.270264-.213625-.540425-.316478-.819039-.348107-.912013-.656665-1.849279-.917757-2.778093-4.731043-16.541775,2.863996-34.603297,18.101445-41.594914,16.353041-7.498233,35.316809.565679,42.350117,18.002459,1.083867,2.693674,1.827547,5.454863,2.238959,8.232853.118643.793785.213577,1.579015.268963,2.3728.118691,1.460787.15032,2.913122.087015,4.357108Z" fill="#a4dff9" stroke="#231f20" stroke-miterlimit="10"/><path d="M293.404819,85.632271c-12.52002,0-24.022461-7.237793-30.018066-18.888672-.518066-.993652-1.01123-2.067383-1.460938-3.181641-.115234-.280273-.226562-.572266-.337891-.873535-.357422-.936523-.685547-1.929199-.966797-2.930176-5.064941-17.709473,3.185059-36.608887,19.192871-43.954102,4.320312-1.980957,8.87793-2.984863,13.547363-2.984863,13.725098,0,26.086426,8.657715,31.491699,22.057129,1.129395,2.808594,1.923828,5.730957,2.362305,8.687988.137207.92041.230957,1.74707.285645,2.525391.125,1.537109.155762,3.087402.089844,4.585449-.522949,13.895508-8.62207,26.44873-20.633301,31.967285-4.322754,1.983887-8.881836,2.989746-13.552734,2.989746Z" fill="#fff" stroke="#231f20" stroke-miterlimit="10" stroke-width=".817338"/><path d="M325.59284,50.587275c-.482588,12.817861-7.689925,24.825135-19.470114,30.237737-15.379898,7.059131-33.062012.346231-40.957642-14.996466-.506346-.971075-.965224-1.975856-1.384507-3.014445-.110772-.270264-.213625-.540425-.316478-.819039-.348107-.912013-.656665-1.849279-.917757-2.778093-4.731043-16.541775,2.863996-34.603297,18.101445-41.594914,16.353041-7.498233,35.316809.565679,42.350117,18.002459,1.083867,2.693674,1.827547,5.454863,2.238959,8.232853.118643.793785.213577,1.579015.268963,2.3728.118691,1.460787.15032,2.913122.087015,4.357108Z" fill="#a4dff9" stroke="#231f20" stroke-miterlimit="10"/><path d="M212.78812,85.632271c-12.52002,0-24.022461-7.237793-30.018555-18.888672-.515625-.989258-1.008789-2.0625-1.460449-3.180664-.115723-.282227-.227539-.575195-.338867-.877441-.35791-.936523-.685547-1.929199-.966309-2.927246-5.064941-17.708984,3.185059-36.608887,19.192871-43.954102,4.320312-1.980957,8.87793-2.984863,13.547363-2.984863,13.725586,0,26.086914,8.657715,31.491699,22.057129,1.129883,2.808594,1.924805,5.730957,2.362305,8.687988.138184.92627.231934,1.753906.285645,2.526855.125,1.535645.155762,3.085938.089844,4.583984-.522949,13.895508-8.62207,26.44873-20.632812,31.967285-4.322754,1.983887-8.882324,2.989746-13.552734,2.989746Z" fill="#fff" stroke="#231f20" stroke-miterlimit="10" stroke-width=".817338"/><path d="M244.975803,50.587275c-.482588,12.817861-7.689925,24.825135-19.470114,30.237737-15.379898,7.059131-33.062012.346231-40.957642-14.996466-.506346-.971075-.965224-1.975856-1.384507-3.014445-.110772-.270264-.213625-.540425-.316478-.819039-.348107-.912013-.656665-1.849279-.917757-2.778093-4.731043-16.541775,2.863996-34.603297,18.101445-41.594914,16.353041-7.498233,35.316809.565679,42.350117,18.002459,1.083867,2.693674,1.827547,5.454863,2.238959,8.232853.118643.793785.213577,1.579015.268963,2.3728.118691,1.460787.15032,2.913122.087015,4.357108Z" fill="#a4dff9" stroke="#231f20" stroke-miterlimit="10"/><path d="M132.170933,85.632271c-12.52002,0-24.022461-7.237793-30.018066-18.888672-.51709-.992188-1.010254-2.06543-1.460938-3.180664-.115723-.28125-.226562-.573242-.337891-.874512-.358887-.939453-.686523-1.932129-.967285-2.930176-5.064941-17.708984,3.185059-36.608887,19.192871-43.954102,4.320312-1.980957,8.87793-2.984863,13.547363-2.984863,13.725586,0,26.086914,8.657715,31.491699,22.057129,1.129883,2.807617,1.924316,5.72998,2.362793,8.687988.137695.922363.230957,1.749512.285156,2.526855.125,1.529785.155762,3.080078.090332,4.583496-.523438,13.896484-8.622559,26.449219-20.633301,31.967773-4.322754,1.983887-8.881836,2.989746-13.552734,2.989746Z" fill="#fff" stroke="#231f20" stroke-miterlimit="10" stroke-width=".817338"/><path d="M164.358767,50.587275c-.482588,12.817861-7.689925,24.825135-19.470114,30.237737-15.379898,7.059131-33.062012.346231-40.957642-14.996466-.506346-.971075-.965224-1.975856-1.384507-3.014445-.110772-.270264-.213625-.540425-.316478-.819039-.348107-.912013-.656665-1.849279-.917757-2.778093-4.731043-16.541775,2.863996-34.603297,18.101445-41.594914,16.353041-7.498233,35.316809.565679,42.350117,18.002459,1.083867,2.693674,1.827547,5.454863,2.238959,8.232853.118643.793785.213577,1.579015.268963,2.3728.118691,1.460787.15032,2.913122.087015,4.357108Z" fill="#a4dff9" stroke="#231f20" stroke-miterlimit="10"/><path d="M51.553745,85.632271c-12.52002,0-24.022461-7.237793-30.018066-18.888672-.51709-.991699-1.010254-2.06543-1.460938-3.180664-.115723-.283203-.227051-.574219-.337891-.874512-.359375-.941406-.6875-1.93457-.967285-2.931152-5.064453-17.708496,3.185547-36.60791,19.193359-43.953125,4.320312-1.980957,8.87793-2.984863,13.547363-2.984863,13.725098,0,26.086426,8.657715,31.491699,22.057129,1.129395,2.808594,1.923828,5.730957,2.362305,8.687988.137207.92041.230957,1.74707.285645,2.525391.125,1.537109.155762,3.087402.089844,4.585449-.522949,13.895508-8.62207,26.44873-20.633301,31.967285-4.322754,1.983887-8.881836,2.989746-13.552734,2.989746Z" fill="#fff" stroke="#231f20" stroke-miterlimit="10" stroke-width=".817338"/><path d="M83.74173,50.587275c-.482588,12.817861-7.689925,24.825135-19.470114,30.237737-15.379898,7.059131-33.062012.346231-40.957642-14.996466-.506346-.971075-.965224-1.975856-1.384507-3.014445-.110772-.270264-.213625-.540425-.316478-.819039-.348107-.912013-.656665-1.849279-.917757-2.778093-4.731043-16.541775,2.863996-34.603297,18.101445-41.594914,16.353041-7.498233,35.316809.565679,42.350117,18.002459,1.083867,2.693674,1.827547,5.454863,2.238959,8.232853.118643.793785.213577,1.579015.268963,2.3728.118691,1.460787.15032,2.913122.087015,4.357108Z" fill="#a4dff9" stroke="#231f20" stroke-miterlimit="10"/><path d="M51.553257,177.032173c-12.52002,0-24.021973-7.237793-30.017578-18.888672-.51709-.991699-1.010254-2.06543-1.460938-3.180664-.115723-.283203-.226562-.574219-.337402-.873535-.359375-.940918-.6875-1.934082-.967773-2.932129-5.064453-17.708496,3.185547-36.60791,19.193359-43.953125,4.320312-1.980957,8.878418-2.985352,13.547852-2.985352,13.725098,0,26.085938,8.658203,31.491211,22.057617,1.129395,2.808105,1.923828,5.730469,2.362305,8.687988.137207.918945.230957,1.746094.285645,2.525391.125,1.537109.155762,3.086914.089844,4.585449-.522949,13.895508-8.62207,26.448242-20.633301,31.966797-4.322754,1.984375-8.882324,2.990234-13.553223,2.990234Z" fill="#fff" stroke="#231f20" stroke-miterlimit="10" stroke-width=".817338"/><path d="M83.74173,141.987036c-.482588,12.817861-7.689925,24.825135-19.470114,30.237737-15.379898,7.059131-33.062012.346231-40.957642-14.996466-.506346-.971075-.965224-1.975856-1.384507-3.014445-.110772-.270264-.213625-.540425-.316478-.819039-.348107-.912013-.656665-1.849279-.917757-2.778093-4.731043-16.541775,2.863996-34.603297,18.101445-41.594914,16.353041-7.498233,35.316809.565679,42.350117,18.002459,1.083867,2.693674,1.827547,5.454863,2.238959,8.232853.118643.793785.213577,1.579015.268963,2.3728.118691,1.460787.15032,2.913122.087015,4.357108Z" fill="#a4dff9" stroke="#231f20" stroke-miterlimit="10"/><path d="M51.553745,268.431587c-12.52002,0-24.022461-7.237793-30.018066-18.888672-.51709-.990723-1.010254-2.063965-1.460938-3.180176-.116211-.284668-.227051-.575195-.337891-.875-.358887-.938965-.686523-1.931641-.967285-2.930664-5.064453-17.708496,3.185547-36.608398,19.193359-43.953613,4.320312-1.980957,8.87793-2.984863,13.547363-2.984863,13.725098,0,26.086426,8.657715,31.491699,22.057617,1.129395,2.807617,1.923828,5.72998,2.362305,8.6875.137207.92041.230957,1.747559.285645,2.525879.125,1.537109.155762,3.086914.089844,4.584961-.522949,13.895508-8.62207,26.44873-20.633301,31.967285-4.322754,1.983887-8.881836,2.989746-13.552734,2.989746Z" fill="#fff" stroke="#231f20" stroke-miterlimit="10" stroke-width=".817338"/><path d="M83.74173,233.386796c-.482588,12.817861-7.689925,24.825135-19.470114,30.237737-15.379898,7.059131-33.062012.346231-40.957642-14.996466-.506346-.971075-.965224-1.975856-1.384507-3.014445-.110772-.270264-.213625-.540425-.316478-.819039-.348107-.912013-.656665-1.849279-.917757-2.778093-4.731043-16.541775,2.863996-34.603297,18.101445-41.594914,16.353041-7.498233,35.316809.565679,42.350117,18.002459,1.083867,2.693674,1.827547,5.454863,2.238959,8.232853.118643.793785.213577,1.579015.268963,2.3728.118691,1.460787.15032,2.913122.087015,4.357108Z" fill="#a4dff9" stroke="#231f20" stroke-miterlimit="10"/><path d="M51.553745,359.831489c-12.52002,0-24.022461-7.237793-30.018066-18.888672-.518066-.993164-1.01123-2.066406-1.460938-3.180176-.116211-.284668-.227051-.575195-.337891-.875-.359375-.940918-.687012-1.933594-.967285-2.930664-5.064453-17.708496,3.185547-36.608398,19.193359-43.953613,4.320312-1.980957,8.87793-2.984863,13.547363-2.984863,13.725098,0,26.086426,8.657715,31.491699,22.057129,1.129395,2.808594,1.923828,5.730957,2.362305,8.687988.137207.92041.230957,1.747559.285645,2.526367.125,1.536133.155762,3.086426.089844,4.584473-.522949,13.895508-8.62207,26.44873-20.633301,31.967285-4.322754,1.983887-8.881836,2.989746-13.552734,2.989746Z" fill="#fff" stroke="#231f20" stroke-miterlimit="10" stroke-width=".817338"/><path d="M83.74173,324.786557c-.482588,12.817861-7.689925,24.825135-19.470114,30.237737-15.379898,7.059131-33.062012.346231-40.957642-14.996466-.506346-.971075-.965224-1.975856-1.384507-3.014445-.110772-.270264-.213625-.540425-.316478-.819039-.348107-.912013-.656665-1.849279-.917757-2.778093-4.731043-16.541775,2.863996-34.603297,18.101445-41.594914,16.353041-7.498233,35.316809.565679,42.350117,18.002459,1.083867,2.693674,1.827547,5.454863,2.238959,8.232853.118643.793785.213577,1.579015.268963,2.3728.118691,1.460787.15032,2.913122.087015,4.357108Z" fill="#a4dff9" stroke="#231f20" stroke-miterlimit="10"/><path d="M454.638706,177.032173c-12.52002,0-24.021973-7.237793-30.018066-18.888672-.515625-.989258-1.008789-2.0625-1.460449-3.180664-.115723-.282227-.227539-.575195-.338379-.876465-.35791-.936035-.685547-1.928711-.966797-2.928223-5.064941-17.708984,3.185059-36.608887,19.192871-43.954102,4.320312-1.980957,8.878418-2.985352,13.547852-2.985352,13.725586,0,26.086426,8.658203,31.491211,22.057617,1.129883,2.808105,1.924805,5.730469,2.362305,8.687988.138184.925293.231934,1.752441.285645,2.526855.125,1.535645.155762,3.085449.089844,4.583984-.522949,13.895508-8.62207,26.448242-20.632812,31.966797-4.322754,1.984375-8.882324,2.990234-13.553223,2.990234Z" fill="#fff" stroke="#231f20" stroke-miterlimit="10" stroke-width=".817338"/><path d="M486.826913,141.987036c-.482588,12.817861-7.689925,24.825135-19.470114,30.237737-15.379898,7.059131-33.062012.346231-40.957642-14.996466-.506346-.971075-.965224-1.975856-1.384507-3.014445-.110772-.270264-.213625-.540425-.316478-.819039-.348107-.912013-.656665-1.849279-.917757-2.778093-4.731043-16.541775,2.863996-34.603297,18.101445-41.594914,16.353041-7.498233,35.316809.565679,42.350117,18.002459,1.083867,2.693674,1.827547,5.454863,2.238959,8.232853.118643.793785.213577,1.579015.268963,2.3728.118691,1.460787.15032,2.913122.087015,4.357108Z" fill="#a4dff9" stroke="#231f20" stroke-miterlimit="10"/><path d="M454.639194,268.431587c-12.52002,0-24.022461-7.237793-30.018555-18.888672-.515625-.987793-1.008789-2.061523-1.460449-3.180176-.116211-.283691-.228027-.576172-.338867-.87793-.356934-.934082-.685059-1.926758-.966309-2.926758-5.064941-17.709473,3.185059-36.609375,19.192871-43.95459,4.320312-1.980957,8.87793-2.984863,13.547363-2.984863,13.725586,0,26.086914,8.658203,31.491699,22.057617,1.129883,2.807617,1.924316,5.730469,2.362305,8.6875.138184.92627.231934,1.753906.285645,2.527344.125,1.535645.155762,3.085449.089844,4.583496-.522949,13.895508-8.62207,26.44873-20.632812,31.967285-4.322754,1.983887-8.882324,2.989746-13.552734,2.989746Z" fill="#fff" stroke="#231f20" stroke-miterlimit="10" stroke-width=".817338"/><path d="M486.826913,233.386796c-.482588,12.817861-7.689925,24.825135-19.470114,30.237737-15.379898,7.059131-33.062012.346231-40.957642-14.996466-.506346-.971075-.965224-1.975856-1.384507-3.014445-.110772-.270264-.213625-.540425-.316478-.819039-.348107-.912013-.656665-1.849279-.917757-2.778093-4.731043-16.541775,2.863996-34.603297,18.101445-41.594914,16.353041-7.498233,35.316809.565679,42.350117,18.002459,1.083867,2.693674,1.827547,5.454863,2.238959,8.232853.118643.793785.213577,1.579015.268963,2.3728.118691,1.460787.15032,2.913122.087015,4.357108Z" fill="#a4dff9" stroke="#231f20" stroke-miterlimit="10"/><path d="M454.639194,359.831489c-12.52002,0-24.022461-7.237793-30.018555-18.888672-.516602-.990234-1.009277-2.063477-1.460449-3.180176-.116211-.283691-.228027-.576172-.338867-.87793-.357422-.936035-.685547-1.928711-.966309-2.926758-5.064941-17.709473,3.185059-36.609375,19.192871-43.95459,4.320312-1.980957,8.87793-2.984863,13.547363-2.984863,13.725586,0,26.086914,8.657715,31.491699,22.057129,1.129883,2.808594,1.924805,5.730957,2.362305,8.687988.138184.92627.231934,1.753906.285645,2.527344.125,1.535156.155762,3.085449.089844,4.583496-.522949,13.895508-8.62207,26.44873-20.632812,31.967285-4.322754,1.983887-8.882324,2.989746-13.552734,2.989746Z" fill="#fff" stroke="#231f20" stroke-miterlimit="10" stroke-width=".817338"/><path d="M486.826913,324.786557c-.482588,12.817861-7.689925,24.825135-19.470114,30.237737-15.379898,7.059131-33.062012.346231-40.957642-14.996466-.506346-.971075-.965224-1.975856-1.384507-3.014445-.110772-.270264-.213625-.540425-.316478-.819039-.348107-.912013-.656665-1.849279-.917757-2.778093-4.731043-16.541775,2.863996-34.603297,18.101445-41.594914,16.353041-7.498233,35.316809.565679,42.350117,18.002459,1.083867,2.693674,1.827547,5.454863,2.238959,8.232853.118643.793785.213577,1.579015.268963,2.3728.118691,1.460787.15032,2.913122.087015,4.357108Z" fill="#a4dff9" stroke="#231f20" stroke-miterlimit="10"/><path d="M374.021518,177.032173c-12.52002,0-24.021973-7.237793-30.017578-18.888672-.51709-.992188-1.010254-2.06543-1.460938-3.180664-.115234-.28125-.226074-.573242-.337402-.873535-.359375-.940918-.6875-1.934082-.967773-2.932129-5.064941-17.708008,3.185059-36.60791,19.192871-43.953125,4.320312-1.980957,8.878418-2.985352,13.547852-2.985352,13.725586,0,26.086426,8.658203,31.491211,22.057617,1.129395,2.807129,1.924316,5.729492,2.362793,8.687988.137207.918945.230957,1.746094.285645,2.525391.124512,1.532715.155273,3.08252.089844,4.584473-.523438,13.896484-8.622559,26.449219-20.633301,31.967773-4.322754,1.984375-8.882324,2.990234-13.553223,2.990234Z" fill="#fff" stroke="#231f20" stroke-miterlimit="10" stroke-width=".817338"/><path d="M406.209876,141.987036c-.482588,12.817861-7.689925,24.825135-19.470114,30.237737-15.379898,7.059131-33.062012.346231-40.957642-14.996466-.506346-.971075-.965224-1.975856-1.384507-3.014445-.110772-.270264-.213625-.540425-.316478-.819039-.348107-.912013-.656665-1.849279-.917757-2.778093-4.731043-16.541775,2.863996-34.603297,18.101445-41.594914,16.353041-7.498233,35.316809.565679,42.350117,18.002459,1.083867,2.693674,1.827547,5.454863,2.238959,8.232853.118643.793785.213577,1.579015.268963,2.3728.118691,1.460787.15032,2.913122.087015,4.357108Z" fill="#a4dff9" stroke="#231f20" stroke-miterlimit="10"/><path d="M374.022007,268.431587c-12.52002,0-24.022461-7.237793-30.018066-18.888672-.51709-.990723-1.010254-2.063965-1.460938-3.180176-.115723-.282715-.226562-.574219-.337891-.875-.358887-.938965-.686523-1.931641-.967285-2.930664-5.064941-17.708496,3.185059-36.608398,19.192871-43.953613,4.320312-1.980957,8.87793-2.984863,13.547363-2.984863,13.725586,0,26.086914,8.658203,31.491699,22.057617,1.129395,2.807129,1.924316,5.729492,2.362793,8.6875.137695.92041.230957,1.747559.285645,2.526367.124512,1.532227.155273,3.082031.089844,4.583984-.523438,13.896484-8.622559,26.449219-20.633301,31.967773-4.322754,1.983887-8.881836,2.989746-13.552734,2.989746Z" fill="#fff" stroke="#231f20" stroke-miterlimit="10" stroke-width=".817338"/><path d="M406.209876,233.386796c-.482588,12.817861-7.689925,24.825135-19.470114,30.237737-15.379898,7.059131-33.062012.346231-40.957642-14.996466-.506346-.971075-.965224-1.975856-1.384507-3.014445-.110772-.270264-.213625-.540425-.316478-.819039-.348107-.912013-.656665-1.849279-.917757-2.778093-4.731043-16.541775,2.863996-34.603297,18.101445-41.594914,16.353041-7.498233,35.316809.565679,42.350117,18.002459,1.083867,2.693674,1.827547,5.454863,2.238959,8.232853.118643.793785.213577,1.579015.268963,2.3728.118691,1.460787.15032,2.913122.087015,4.357108Z" fill="#a4dff9" stroke="#231f20" stroke-miterlimit="10"/><path d="M374.022007,359.831489c-12.52002,0-24.022461-7.237793-30.018066-18.888672-.518066-.993164-1.01123-2.066406-1.460938-3.180176-.115723-.282715-.226562-.574219-.337891-.875-.359375-.940918-.687012-1.933594-.967285-2.930664-5.064941-17.708496,3.185059-36.608398,19.192871-43.953613,4.320312-1.980957,8.87793-2.984863,13.547363-2.984863,13.725586,0,26.086914,8.657715,31.491699,22.057129,1.129883,2.807617,1.924316,5.72998,2.362793,8.687988.137695.92041.230957,1.747559.285645,2.526367.124512,1.532227.155273,3.082031.089844,4.583984-.523438,13.896484-8.622559,26.449219-20.633301,31.967773-4.322754,1.983887-8.881836,2.989746-13.552734,2.989746Z" fill="#fff" stroke="#231f20" stroke-miterlimit="10" stroke-width=".817338"/><path d="M406.209876,324.786557c-.482588,12.817861-7.689925,24.825135-19.470114,30.237737-15.379898,7.059131-33.062012.346231-40.957642-14.996466-.506346-.971075-.965224-1.975856-1.384507-3.014445-.110772-.270264-.213625-.540425-.316478-.819039-.348107-.912013-.656665-1.849279-.917757-2.778093-4.731043-16.541775,2.863996-34.603297,18.101445-41.594914,16.353041-7.498233,35.316809.565679,42.350117,18.002459,1.083867,2.693674,1.827547,5.454863,2.238959,8.232853.118643.793785.213577,1.579015.268963,2.3728.118691,1.460787.15032,2.913122.087015,4.357108Z" fill="#a4dff9" stroke="#231f20" stroke-miterlimit="10"/><path d="M293.404331,177.032173c-12.52002,0-24.021973-7.237793-30.017578-18.888672-.518066-.993652-1.01123-2.067383-1.460938-3.181641-.114746-.280273-.226074-.572266-.337402-.872559-.357422-.936035-.685059-1.928223-.967285-2.931152-5.064941-17.709473,3.185059-36.608887,19.192871-43.954102,4.320312-1.980957,8.878418-2.985352,13.547852-2.985352,13.725098,0,26.085938,8.658203,31.491211,22.057617,1.129395,2.808105,1.923828,5.730469,2.362305,8.687988.137207.918945.230957,1.746094.285645,2.525391.125,1.537109.155762,3.086914.089844,4.585449-.522949,13.895508-8.62207,26.448242-20.633301,31.966797-4.322754,1.984375-8.882324,2.990234-13.553223,2.990234Z" fill="#fff" stroke="#231f20" stroke-miterlimit="10" stroke-width=".817338"/><path d="M325.59284,141.987036c-.482588,12.817861-7.689925,24.825135-19.470114,30.237737-15.379898,7.059131-33.062012.346231-40.957642-14.996466-.506346-.971075-.965224-1.975856-1.384507-3.014445-.110772-.270264-.213625-.540425-.316478-.819039-.348107-.912013-.656665-1.849279-.917757-2.778093-4.731043-16.541775,2.863996-34.603297,18.101445-41.594914,16.353041-7.498233,35.316809.565679,42.350117,18.002459,1.083867,2.693674,1.827547,5.454863,2.238959,8.232853.118643.793785.213577,1.579015.268963,2.3728.118691,1.460787.15032,2.913122.087015,4.357108Z" fill="#a4dff9" stroke="#231f20" stroke-miterlimit="10"/><path d="M293.404819,268.431587c-12.52002,0-24.022461-7.237793-30.018066-18.888672-.517578-.992188-1.010742-2.065918-1.460938-3.181152-.115234-.281738-.226562-.573242-.337891-.874023-.356934-.933594-.68457-1.92627-.966797-2.929688-5.064941-17.709473,3.185059-36.609375,19.192871-43.95459,4.320312-1.980957,8.87793-2.984863,13.547363-2.984863,13.725098,0,26.086426,8.657715,31.491699,22.057617,1.129395,2.807617,1.923828,5.72998,2.362305,8.6875.137207.92041.230957,1.747559.285645,2.525879.125,1.537109.155762,3.086914.089844,4.584961-.522949,13.895508-8.62207,26.44873-20.633301,31.967285-4.322754,1.983887-8.881836,2.989746-13.552734,2.989746Z" fill="#fff" stroke="#231f20" stroke-miterlimit="10" stroke-width=".817338"/><path d="M325.59284,233.386796c-.482588,12.817861-7.689925,24.825135-19.470114,30.237737-15.379898,7.059131-33.062012.346231-40.957642-14.996466-.506346-.971075-.965224-1.975856-1.384507-3.014445-.110772-.270264-.213625-.540425-.316478-.819039-.348107-.912013-.656665-1.849279-.917757-2.778093-4.731043-16.541775,2.863996-34.603297,18.101445-41.594914,16.353041-7.498233,35.316809.565679,42.350117,18.002459,1.083867,2.693674,1.827547,5.454863,2.238959,8.232853.118643.793785.213577,1.579015.268963,2.3728.118691,1.460787.15032,2.913122.087015,4.357108Z" fill="#a4dff9" stroke="#231f20" stroke-miterlimit="10"/><path d="M293.404819,359.831489c-12.52002,0-24.022461-7.237793-30.018066-18.888672-.518555-.994629-1.011719-2.068359-1.460938-3.181152-.115234-.281738-.226562-.573242-.337891-.874023-.357422-.936035-.685059-1.928223-.966797-2.929688-5.064941-17.709473,3.185059-36.609375,19.192871-43.95459,4.320312-1.980957,8.87793-2.984863,13.547363-2.984863,13.725098,0,26.086426,8.657715,31.491699,22.057129,1.129395,2.808594,1.923828,5.730957,2.362305,8.687988.137207.92041.230957,1.747559.285645,2.526367.125,1.536133.155762,3.086426.089844,4.584473-.522949,13.895508-8.62207,26.44873-20.633301,31.967285-4.322754,1.983887-8.881836,2.989746-13.552734,2.989746Z" fill="#fff" stroke="#231f20" stroke-miterlimit="10" stroke-width=".817338"/><path d="M325.59284,324.786557c-.482588,12.817861-7.689925,24.825135-19.470114,30.237737-15.379898,7.059131-33.062012.346231-40.957642-14.996466-.506346-.971075-.965224-1.975856-1.384507-3.014445-.110772-.270264-.213625-.540425-.316478-.819039-.348107-.912013-.656665-1.849279-.917757-2.778093-4.731043-16.541775,2.863996-34.603297,18.101445-41.594914,16.353041-7.498233,35.316809.565679,42.350117,18.002459,1.083867,2.693674,1.827547,5.454863,2.238959,8.232853.118643.793785.213577,1.579015.268963,2.3728.118691,1.460787.15032,2.913122.087015,4.357108Z" fill="#a4dff9" stroke="#231f20" stroke-miterlimit="10"/><path d="M212.787632,177.032173c-12.52002,0-24.021973-7.237793-30.018066-18.888672-.515625-.989258-1.008789-2.0625-1.460449-3.180664-.115723-.282227-.227539-.575195-.338379-.876465-.35791-.936035-.685547-1.928711-.966797-2.928223-5.064941-17.708984,3.185059-36.608887,19.192871-43.954102,4.320312-1.980957,8.878418-2.985352,13.547852-2.985352,13.725586,0,26.086426,8.658203,31.491211,22.057617,1.129883,2.808105,1.924805,5.730469,2.362305,8.687988.138184.925293.231934,1.752441.285645,2.526855.125,1.535645.155762,3.085449.089844,4.583984-.522949,13.895508-8.62207,26.448242-20.632812,31.966797-4.322754,1.984375-8.882324,2.990234-13.553223,2.990234Z" fill="#fff" stroke="#231f20" stroke-miterlimit="10" stroke-width=".817338"/><path d="M244.975803,141.987036c-.482588,12.817861-7.689925,24.825135-19.470114,30.237737-15.379898,7.059131-33.062012.346231-40.957642-14.996466-.506346-.971075-.965224-1.975856-1.384507-3.014445-.110772-.270264-.213625-.540425-.316478-.819039-.348107-.912013-.656665-1.849279-.917757-2.778093-4.731043-16.541775,2.863996-34.603297,18.101445-41.594914,16.353041-7.498233,35.316809.565679,42.350117,18.002459,1.083867,2.693674,1.827547,5.454863,2.238959,8.232853.118643.793785.213577,1.579015.268963,2.3728.118691,1.460787.15032,2.913122.087015,4.357108Z" fill="#a4dff9" stroke="#231f20" stroke-miterlimit="10"/><path d="M212.78812,268.431587c-12.52002,0-24.022461-7.237793-30.018555-18.888672-.515625-.987793-1.008789-2.061523-1.460449-3.180176-.116211-.283691-.228027-.576172-.338867-.87793-.356934-.934082-.685059-1.926758-.966309-2.926758-5.064941-17.709473,3.185059-36.609375,19.192871-43.95459,4.320312-1.980957,8.87793-2.984863,13.547363-2.984863,13.725586,0,26.086914,8.658203,31.491699,22.057617,1.129883,2.807617,1.924316,5.730469,2.362305,8.6875.138184.92627.231934,1.753906.285645,2.527344.125,1.535645.155762,3.085449.089844,4.583496-.522949,13.895508-8.62207,26.44873-20.632812,31.967285-4.322754,1.983887-8.882324,2.989746-13.552734,2.989746Z" fill="#fff" stroke="#231f20" stroke-miterlimit="10" stroke-width=".817338"/><path d="M244.975803,233.386796c-.482588,12.817861-7.689925,24.825135-19.470114,30.237737-15.379898,7.059131-33.062012.346231-40.957642-14.996466-.506346-.971075-.965224-1.975856-1.384507-3.014445-.110772-.270264-.213625-.540425-.316478-.819039-.348107-.912013-.656665-1.849279-.917757-2.778093-4.731043-16.541775,2.863996-34.603297,18.101445-41.594914,16.353041-7.498233,35.316809.565679,42.350117,18.002459,1.083867,2.693674,1.827547,5.454863,2.238959,8.232853.118643.793785.213577,1.579015.268963,2.3728.118691,1.460787.15032,2.913122.087015,4.357108Z" fill="#a4dff9" stroke="#231f20" stroke-miterlimit="10"/><path d="M212.78812,359.831489c-12.52002,0-24.022461-7.237793-30.018555-18.888672-.516602-.990234-1.009277-2.063477-1.460449-3.180176-.116211-.283691-.228027-.576172-.338867-.87793-.357422-.936035-.685547-1.928711-.966309-2.926758-5.064941-17.709473,3.185059-36.609375,19.192871-43.95459,4.320312-1.980957,8.87793-2.984863,13.547363-2.984863,13.725586,0,26.086914,8.657715,31.491699,22.057129,1.129883,2.808594,1.924805,5.730957,2.362305,8.687988.138184.92627.231934,1.753906.285645,2.527344.125,1.535156.155762,3.085449.089844,4.583496-.522949,13.895508-8.62207,26.44873-20.632812,31.967285-4.322754,1.983887-8.882324,2.989746-13.552734,2.989746Z" fill="#fff" stroke="#231f20" stroke-miterlimit="10" stroke-width=".817338"/><path d="M244.975803,324.786557c-.482588,12.817861-7.689925,24.825135-19.470114,30.237737-15.379898,7.059131-33.062012.346231-40.957642-14.996466-.506346-.971075-.965224-1.975856-1.384507-3.014445-.110772-.270264-.213625-.540425-.316478-.819039-.348107-.912013-.656665-1.849279-.917757-2.778093-4.731043-16.541775,2.863996-34.603297,18.101445-41.594914,16.353041-7.498233,35.316809.565679,42.350117,18.002459,1.083867,2.693674,1.827547,5.454863,2.238959,8.232853.118643.793785.213577,1.579015.268963,2.3728.118691,1.460787.15032,2.913122.087015,4.357108Z" fill="#a4dff9" stroke="#231f20" stroke-miterlimit="10"/><path d="M132.170444,177.032173c-12.52002,0-24.021973-7.237793-30.017578-18.888672-.51709-.992188-1.010254-2.06543-1.460938-3.180664-.115234-.28125-.226074-.573242-.337402-.873535-.358887-.938965-.686523-1.931641-.967773-2.931152-5.064941-17.708984,3.185059-36.608887,19.192871-43.954102,4.320312-1.980957,8.878418-2.985352,13.547852-2.985352,13.725586,0,26.086426,8.658203,31.491211,22.057617,1.129395,2.807129,1.924316,5.729492,2.362793,8.687988.137695.920898.230957,1.748535.285156,2.526855.125,1.529785.155762,3.07959.090332,4.583008-.523438,13.896484-8.622559,26.449219-20.633301,31.967773-4.322754,1.984375-8.882324,2.990234-13.553223,2.990234Z" fill="#fff" stroke="#231f20" stroke-miterlimit="10" stroke-width=".817338"/><path d="M164.358767,141.987036c-.482588,12.817861-7.689925,24.825135-19.470114,30.237737-15.379898,7.059131-33.062012.346231-40.957642-14.996466-.506346-.971075-.965224-1.975856-1.384507-3.014445-.110772-.270264-.213625-.540425-.316478-.819039-.348107-.912013-.656665-1.849279-.917757-2.778093-4.731043-16.541775,2.863996-34.603297,18.101445-41.594914,16.353041-7.498233,35.316809.565679,42.350117,18.002459,1.083867,2.693674,1.827547,5.454863,2.238959,8.232853.118643.793785.213577,1.579015.268963,2.3728.118691,1.460787.15032,2.913122.087015,4.357108Z" fill="#a4dff9" stroke="#231f20" stroke-miterlimit="10"/><path d="M132.170933,268.431587c-12.52002,0-24.022461-7.237793-30.018066-18.888672-.51709-.990723-1.010254-2.063965-1.460938-3.180176-.115723-.282715-.226562-.574219-.337891-.875-.35791-.937012-.686035-1.929688-.967285-2.929688-5.064941-17.709473,3.185059-36.609375,19.192871-43.95459,4.320312-1.980957,8.87793-2.984863,13.547363-2.984863,13.725586,0,26.086914,8.658203,31.491699,22.057617,1.129395,2.807129,1.924316,5.729492,2.362793,8.6875.137695.922363.230957,1.75.285156,2.527344.125,1.529785.155762,3.07959.090332,4.583008-.523438,13.896484-8.622559,26.449219-20.633301,31.967773-4.322754,1.983887-8.881836,2.989746-13.552734,2.989746Z" fill="#fff" stroke="#231f20" stroke-miterlimit="10" stroke-width=".817338"/><path d="M164.358767,233.386796c-.482588,12.817861-7.689925,24.825135-19.470114,30.237737-15.379898,7.059131-33.062012.346231-40.957642-14.996466-.506346-.971075-.965224-1.975856-1.384507-3.014445-.110772-.270264-.213625-.540425-.316478-.819039-.348107-.912013-.656665-1.849279-.917757-2.778093-4.731043-16.541775,2.863996-34.603297,18.101445-41.594914,16.353041-7.498233,35.316809.565679,42.350117,18.002459,1.083867,2.693674,1.827547,5.454863,2.238959,8.232853.118643.793785.213577,1.579015.268963,2.3728.118691,1.460787.15032,2.913122.087015,4.357108Z" fill="#a4dff9" stroke="#231f20" stroke-miterlimit="10"/><path d="M132.170933,359.831489c-12.52002,0-24.022461-7.237793-30.018066-18.888672-.518066-.993164-1.01123-2.066406-1.460938-3.180176-.115723-.282715-.226562-.574219-.337891-.875-.358398-.938965-.686523-1.931641-.967285-2.929688-5.064941-17.709473,3.185059-36.609375,19.192871-43.95459,4.320312-1.980957,8.87793-2.984863,13.547363-2.984863,13.725586,0,26.086914,8.657715,31.491699,22.057129,1.129883,2.807617,1.924316,5.72998,2.362793,8.687988.137695.922363.230957,1.75.285156,2.527344.125,1.529297.155762,3.079102.090332,4.583008-.523438,13.896484-8.622559,26.449219-20.633301,31.967773-4.322754,1.983887-8.881836,2.989746-13.552734,2.989746Z" fill="#fff" stroke="#231f20" stroke-miterlimit="10" stroke-width=".817338"/><path d="M164.358767,324.786557c-.482588,12.817861-7.689925,24.825135-19.470114,30.237737-15.379898,7.059131-33.062012.346231-40.957642-14.996466-.506346-.971075-.965224-1.975856-1.384507-3.014445-.110772-.270264-.213625-.540425-.316478-.819039-.348107-.912013-.656665-1.849279-.917757-2.778093-4.731043-16.541775,2.863996-34.603297,18.101445-41.594914,16.353041-7.498233,35.316809.565679,42.350117,18.002459,1.083867,2.693674,1.827547,5.454863,2.238959,8.232853.118643.793785.213577,1.579015.268963,2.3728.118691,1.460787.15032,2.913122.087015,4.357108Z" fill="#a4dff9" stroke="#231f20" stroke-miterlimit="10"/><g opacity=".9"><path d="M59.460451,202.078893c.179616.959879-6.596817,2.38524-18.045006,8.798588-10.582943,5.928706-15.334308,10.616463-16.089796,9.930885-.874646-.793687,4.00208-8.430349,12.012952-13.46325,10.080538-6.333115,21.888942-6.51078,22.12185-5.266222Z" fill="#ccecfc"/></g><g opacity=".9"><path d="M59.460451,112.078893c.179616.959879-6.596817,2.38524-18.045006,8.798588-10.582943,5.928706-15.334308,10.616463-16.089796,9.930885-.874646-.793687,4.00208-8.430349,12.012952-13.46325,10.080538-6.333115,21.888942-6.51078,22.12185-5.266222Z" fill="#ccecfc"/></g><g opacity=".9"><path d="M139.276534,201.699278c.179616.959879-6.596817,2.38524-18.045006,8.798588-10.582943,5.928706-15.334308,10.616463-16.089796,9.930885-.874646-.793687,4.00208-8.430349,12.012952-13.46325,10.080538-6.333115,21.888942-6.51078,22.12185-5.266222Z" fill="#ccecfc"/></g><g opacity=".9"><path d="M142.127118,112.078893c.179616.959879-6.596817,2.38524-18.045006,8.798588-10.582943,5.928706-15.334308,10.616463-16.089796,9.930885-.874646-.793687,4.00208-8.430349,12.012952-13.46325,10.080538-6.333115,21.888942-6.51078,22.12185-5.266222Z" fill="#ccecfc"/></g><g opacity=".9"><path d="M220.417289,201.699278c.179616.959879-6.596817,2.38524-18.045006,8.798588-10.582943,5.928706-15.334308,10.616463-16.089796,9.930885-.874646-.793687,4.00208-8.430349,12.012952-13.46325,10.080538-6.333115,21.888942-6.51078,22.12185-5.266222Z" fill="#ccecfc"/></g><g opacity=".9"><path d="M223.663779,110.656429c.179616.959879-6.596817,2.38524-18.045006,8.798588-10.582943,5.928706-15.334308,10.616463-16.089796,9.930885-.874646-.793687,4.00208-8.430349,12.012952-13.46325,10.080538-6.333115,21.888942-6.51078,22.12185-5.266222Z" fill="#ccecfc"/></g><g opacity=".9"><path d="M300.558043,201.699278c.179616.959879-6.596817,2.38524-18.045006,8.798588-10.582943,5.928706-15.334308,10.616463-16.089796,9.930885-.874646-.793687,4.00208-8.430349,12.012952-13.46325,10.080538-6.333115,21.888942-6.51078,22.12185-5.266222Z" fill="#ccecfc"/></g><g opacity=".9"><path d="M300.558043,112.078893c.179616.959879-6.596817,2.38524-18.045006,8.798588-10.582943,5.928706-15.334308,10.616463-16.089796,9.930885-.874646-.793687,4.00208-8.430349,12.012952-13.46325,10.080538-6.333115,21.888942-6.51078,22.12185-5.266222Z" fill="#ccecfc"/></g><g opacity=".9"><path d="M382.529654,202.078893c.179616.959879-6.596817,2.38524-18.045006,8.798588-10.582943,5.928706-15.334308,10.616463-16.089796,9.930885-.874646-.793687,4.00208-8.430349,12.012952-13.46325,10.080538-6.333115,21.888942-6.51078,22.12185-5.266222Z" fill="#ccecfc"/></g><g opacity=".9"><path d="M461.624376,202.078893c.179616.959879-6.596817,2.38524-18.045006,8.798588-10.582943,5.928706-15.334308,10.616463-16.089796,9.930885-.874646-.793687,4.00208-8.430349,12.012952-13.46325,10.080538-6.333115,21.888942-6.51078,22.12185-5.266222Z" fill="#ccecfc"/></g><g opacity=".9"><path d="M61.250407,294.390939c.179616.959879-6.596817,2.38524-18.045006,8.798588-10.582943,5.928706-15.334308,10.616463-16.089796,9.930885-.874646-.793687,4.00208-8.430349,12.012952-13.46325,10.080538-6.333115,21.888942-6.51078,22.12185-5.266222Z" fill="#ccecfc"/></g><g opacity=".9"><path d="M139.276534,294.390939c.179616.959879-6.596817,2.38524-18.045006,8.798588-10.582943,5.928706-15.334308,10.616463-16.089796,9.930885-.874646-.793687,4.00208-8.430349,12.012952-13.46325,10.080538-6.333115,21.888942-6.51078,22.12185-5.266222Z" fill="#ccecfc"/></g><g opacity=".9"><path d="M220.417289,295.024118c.179616.959879-6.596817,2.38524-18.045006,8.798588-10.582943,5.928706-15.334308,10.616463-16.089796,9.930885-.874646-.793687,4.00208-8.430349,12.012952-13.46325,10.080538-6.333115,21.888942-6.51078,22.12185-5.266222Z" fill="#ccecfc"/></g><g opacity=".9"><path d="M300.558043,295.024118c.179616.959879-6.596817,2.38524-18.045006,8.798588-10.582943,5.928706-15.334308,10.616463-16.089796,9.930885-.874646-.793687,4.00208-8.430349,12.012952-13.46325,10.080538-6.333115,21.888942-6.51078,22.12185-5.266222Z" fill="#ccecfc"/></g><g opacity=".9"><path d="M382.529654,295.403733c.179616.959879-6.596817,2.38524-18.045006,8.798588-10.582943,5.928706-15.334308,10.616463-16.089796,9.930885-.874646-.793687,4.00208-8.430349,12.012952-13.46325,10.080538-6.333115,21.888942-6.51078,22.12185-5.266222Z" fill="#ccecfc"/></g><g opacity=".9"><path d="M461.624376,295.403733c.179616.959879-6.596817,2.38524-18.045006,8.798588-10.582943,5.928706-15.334308,10.616463-16.089796,9.930885-.874646-.793687,4.00208-8.430349,12.012952-13.46325,10.080538-6.333115,21.888942-6.51078,22.12185-5.266222Z" fill="#ccecfc"/></g><g opacity=".9"><path d="M460.624376,112.078893c.179616.959879-6.596817,2.38524-18.045006,8.798588-10.582943,5.928706-15.334308,10.616463-16.089796,9.930885-.874646-.793687,4.00208-8.430349,12.012952-13.46325,10.080538-6.333115,21.888942-6.51078,22.12185-5.266222Z" fill="#ccecfc"/></g><path d="M463.107126,19.61358c.179616.959879-6.596817,2.38524-18.045006,8.798588-10.582943,5.928706-15.334308,10.616463-16.089796,9.930885-.874646-.793687,4.00208-8.430349,12.012952-13.46325,10.080538-6.333115,21.888942-6.51078,22.12185-5.266222Z" fill="#ccecfc" opacity=".9"/><path d="M381.861942,19.61358c.179616.959879-6.596817,2.38524-18.045006,8.798588-10.582943,5.928706-15.334308,10.616463-16.089796,9.930885-.874646-.793687,4.00208-8.430349,12.012952-13.46325,10.080538-6.333115,21.888942-6.51078,22.12185-5.266222Z" fill="#ccecfc" opacity=".9"/><path d="M301.067352,19.61358c.179616.959879-6.596817,2.38524-18.045006,8.798588-10.582943,5.928706-15.334308,10.616463-16.089796,9.930885-.874646-.793687,4.00208-8.430349,12.012952-13.46325,10.080538-6.333115,21.888942-6.51078,22.12185-5.266222Z" fill="#ccecfc" opacity=".9"/><path d="M218.987137,19.61358c.179616.959879-6.596817,2.38524-18.045006,8.798588-10.582943,5.928706-15.334308,10.616463-16.089796,9.930885-.874646-.793687,4.00208-8.430349,12.012952-13.46325,10.080538-6.333115,21.888942-6.51078,22.12185-5.266222Z" fill="#ccecfc" opacity=".9"/><path d="M139.276534,19.61358c.179616.959879-6.596817,2.38524-18.045006,8.798588-10.582943,5.928706-15.334308,10.616463-16.089796,9.930885-.874646-.793687,4.00208-8.430349,12.012952-13.46325,10.080538-6.333115,21.888942-6.51078,22.12185-5.266222Z" fill="#ccecfc" opacity=".9"/><path d="M57.943201,19.61358c.179616.959879-6.596817,2.38524-18.045006,8.798588-10.582943,5.928706-15.334308,10.616463-16.089796,9.930885-.874646-.793687,4.00208-8.430349,12.012952-13.46325,10.080538-6.333115,21.888942-6.51078,22.12185-5.266222Z" fill="#ccecfc" opacity=".9"/><g opacity=".9"><path d="M381.529654,112.078893c.179616.959879-6.596817,2.38524-18.045006,8.798588-10.582943,5.928706-15.334308,10.616463-16.089796,9.930885-.874646-.793687,4.00208-8.430349,12.012952-13.46325,10.080538-6.333115,21.888942-6.51078,22.12185-5.266222Z" fill="#ccecfc"/></g></svg>