<?xml version="1.0" encoding="UTF-8"?><svg id="Dimensions" xmlns="http://www.w3.org/2000/svg" width="251.999939" height="188.910034" viewBox="0 0 251.999939 188.910034"><path d="M1,127.680054c0,12.279968,7.630005,23.700012,20.720032,33.22998,22.380005,16.27002,60.72998,27,104.279968,27s81.900024-10.72998,104.280029-27c13.090027-9.529968,20.71991-20.950012,20.71991-33.22998v-35.501321c0,12.279968-7.629883,23.700012-20.71991,33.22998-22.380005,16.27002-60.72998,27-104.280029,27s-81.899963-10.72998-104.279968-27C8.630005,115.878745,1,104.458701,1,92.178733v35.501321Z" fill="#efa8ca"/><path d="M250.999939,92.178763c0,12.279968-7.629883,23.700012-20.71991,33.22998-22.380005,16.27002-60.72998,27-104.280029,27s-81.899963-10.72998-104.279968-27C8.630005,115.878776,1,104.458732,1,92.178763,1,58.918754,56.970032,31.948722,126,31.948722c69.040039,0,124.999939,26.970032,124.999939,60.230042Z" fill="#efa8ca"/><g opacity=".5"><path d="M250.999969,61.475632v30.950073c0,12.280029-7.630005,23.699951-20.719971,33.22998-22.380005,16.27002-60.72998,27-104.280029,27s-81.899902-10.72998-104.280029-27C8.629974,116.125657.999969,104.705735.999969,92.425706v-30.950073c0,5.350037,1.449951,10.530029,4.169922,15.480103,3.52002,6.389893,9.160156,12.369873,16.550049,17.75,22.380127,16.269897,60.72998,27,104.280029,27s81.900024-10.730103,104.280029-27c7.389893-5.380127,13.030029-11.360107,16.550049-17.75,2.719971-4.950073,4.169922-10.130066,4.169922-15.480103Z" fill="#fff"/></g><path d="M251.003387,92.180054v-30.950073c0-12.280029-7.630005-23.699951-20.719971-33.22998C207.903412,11.72998,169.553436,1,126.003387,1S44.103485,11.72998,21.723358,28C8.633392,37.530029,1.003387,48.949951,1.003387,61.22998v30.950073c0-5.350037,1.449951-10.530029,4.169922-15.480103,3.52002-6.389893,9.160156-12.369873,16.550049-17.75,22.380127-16.269897,60.72998-27,104.280029-27s81.900024,10.730103,104.280029,27c7.389893,5.380127,13.030029,11.360107,16.550049,17.75,2.719971,4.950073,4.169922,10.130066,4.169922,15.480103Z" fill="#fceaf2" opacity=".8"/><path d="M250.999939,61.230042v66.450012c0,33.259949-55.9599,60.22998-124.999939,60.22998C56.970032,187.910034,1,160.940002,1,127.680054V61.230042c0,12.279968,7.630005,23.700012,20.720032,33.22998,22.380005,16.27002,60.72998,27,104.279968,27s81.900024-10.72998,104.280029-27c13.090027-9.529968,20.71991-20.950012,20.71991-33.22998Z" fill="none" stroke="#f4c4db" stroke-miterlimit="10" stroke-width="2"/><path d="M250.999939,61.230042c0,12.279968-7.629883,23.700012-20.71991,33.22998-22.380005,16.27002-60.72998,27-104.280029,27s-81.899963-10.72998-104.279968-27C8.630005,84.930054,1,73.51001,1,61.230042,1,27.970032,56.970032,1,126,1c69.040039,0,124.999939,26.970032,124.999939,60.230042Z" fill="none" stroke="#f4c4db" stroke-miterlimit="10" stroke-width="2"/><path d="M230.280029,94.460022c-22.380005,16.27002-60.72998,27-104.280029,27s-81.899963-10.72998-104.279968-27c22.380005-16.279968,60.72998-27.01001,104.279968-27.01001s81.900024,10.730042,104.280029,27.01001Z" fill="none" opacity=".2" stroke="#f4c4db" stroke-miterlimit="10" stroke-width="2"/></svg>