<?xml version="1.0" encoding="UTF-8"?><svg id="Layer_1" xmlns="http://www.w3.org/2000/svg" width="415.687137" height="401.627197" xmlns:xlink="http://www.w3.org/1999/xlink" viewBox="0 0 415.687137 401.627197"><defs><radialGradient id="radial-gradient" cx="207.854096" cy="200.813965" fx="207.854096" fy="200.813965" r="202.854331" gradientUnits="userSpaceOnUse"><stop offset="0" stop-color="#d4eef9"/><stop offset=".295013" stop-color="#cfecf8"/><stop offset=".60732" stop-color="#c3e7f6"/><stop offset=".926605" stop-color="#addff3"/><stop offset="1" stop-color="#a8ddf3"/></radialGradient><radialGradient id="radial-gradient-2" cx="204.042912" cy="201.305167" fx="204.042912" fy="201.305167" r="55.748877" gradientUnits="userSpaceOnUse"><stop offset="0" stop-color="#cddee4"/><stop offset=".23886" stop-color="#cadce2" stop-opacity=".993737"/><stop offset=".407007" stop-color="#c3d6de" stop-opacity=".973564"/><stop offset=".553485" stop-color="#b7cdd7" stop-opacity=".939333"/><stop offset=".687476" stop-color="#a6c0cd" stop-opacity=".891016"/><stop offset=".813074" stop-color="#8fafbf" stop-opacity=".828495"/><stop offset=".930771" stop-color="#749bb0" stop-opacity=".752868"/><stop offset="1" stop-color="#628da5" stop-opacity=".7"/></radialGradient></defs><path d="M224.680399,400.12793c-3.5,0-5.467773-12.121094-7.204102-22.814453-2.738281-16.861328-5.84082-35.973633-16.875977-37.328125-3.126953-.382812-6.460449-.896484-9.989746-1.439453-5.756348-.885742-12.28125-1.889648-19.26709-2.519531-1.252441-.112305-2.523438-.169922-3.778809-.169922-13.727051,0-26.569824,6.716797-34.353516,17.966797-3.205566,4.633789-4.81543,5.133789-5.358398,5.133789-.097656,0-.188477-.015625-.277344-.047852-1.308105-.473633-3.067871-4.869141-1.370117-18.335938,1.084961-8.606445-3.41748-17.15918-11.204102-21.282227-3.200195-1.694336-6.36084-3.498047-9.394043-5.362305-3.999512-2.456055-8.661621-3.753906-13.481934-3.753906-8.464844,0-16.368164,3.942383-21.141113,10.544922-8.815918,12.196289-11.673828,13.512695-12.493652,13.512695-.044922,0-.067871,0-.152344-.099609-1.117676-1.317383-.460938-11.581055,13.981934-27.662109,5.118164-5.699219,5.06543-14.253906-.12207-19.899414l-.188477-.207031c-2.999023-3.275391-6.828125-4.933594-11.386719-4.933594-3.790039,0-8.104492,1.163086-12.822754,3.457031-6.641602,3.227539-12.869629,7.584961-18.364746,11.429688-7.484863,5.236328-13.94873,9.758789-18.815918,9.758789-2.181152,0-5.387207-.807617-8.035645-7.791016-4.825684-12.724609,7.529297-32.318359,21.744629-43.173828,13.181641-10.066406,13.333984-53.370117,13.333984-53.806641.000488-.953125-.374023-1.845703-1.053711-2.513672-.666016-.654297-1.543457-1.014648-2.470703-1.014648-.285645,0-.571777.035156-.851562.104492-8.046387,1.990234-15.212402,3.042969-20.723145,3.042969-5.716309,0-9.420898-1.200195-9.910156-3.210938-.738281-3.036133,1.82666-4.182617,9.953613-6.939453,3.587891-1.217773,8.053223-2.732422,12.939453-4.939453,8.348633-3.770508,14.755859-11.120117,17.578613-20.165039l.077637-.25c2.174805-6.918945-.594238-14.324219-6.73584-18.001953-15.505371-9.283203-19.425781-14.683594-18.89502-15.84375.118164-.258789.96875-.74707,3.342773-.74707,3.714844,0,9.540527,1.162109,16.847168,3.360352,1.479004.444336,2.994141.669922,4.504883.669922,4.943359,0,9.64502-2.420898,12.57666-6.475586,2.824707-3.90625,3.578613-8.770508,2.069336-13.34668-.335938-1.019531.581055-2.256836,2.018555-4.02832,1.535156-1.891602,3.275879-4.036133,2.857422-6.65625-1.415039-8.857422-5.490723-17.254883-9.086426-24.664062-5.627441-11.594727-8.547363-18.326172-3.133789-21.841797.379883-.246094.788086-.366211,1.249023-.366211,3.210938,0,8.35791,5.455078,12.899414,10.268555,4.246582,4.500977,8.637695,9.155273,12.686035,11.083008,7.742188,3.686523,16.28418,5.635742,24.702637,5.634766,7.405273,0,14.27002-1.484375,20.403809-4.411133l.207031-.098633c7.439453-3.532227,11.9375-11.391602,11.202148-19.561523-.339844-3.772461-.707031-7.456055-1.062988-11.021484-1.98584-19.916992-3.700684-37.117188,2.486816-43.952148,2.104004-2.324219,5.109375-3.454102,9.1875-3.454102,1.594727,0,3.37793.176758,5.300293.526367,18.129395,3.296875,27.115723,17.394531,28.280762,44.366211.375977,8.709961,7.460449,15.532227,16.12793,15.532227.22998,0,.461426-.004883.693848-.014648,2.737305-.116211,5.505859-.174805,8.22998-.174805,3.379395,0,6.239746-2.267578,7.001465-5.515625,1.036133-4.421875,1.985352-8.732422,2.902344-12.900391,5.202148-23.624023,9.311523-42.28418,20.987305-42.28418,2.766602,0,6.037109,1.010742,9.72168,3.004883,15.789062,8.544922,20.128906,24.06543,13.657227,48.84375-2.210938,8.46582,2.311523,17.089844,10.519531,20.05957l.166992.060547c.492188.177734,1.005859.268555,1.527344.268555,1.898438,0,3.612305-1.196289,4.263672-2.975586,8.271484-22.59668,12.819336-25.037109,14.390625-25.037109.537109,0,1.073242.291992,1.637695.892578,5.09668,5.417969,7.444336,14.231445,6.977539,26.196289-.322266,8.285156,3.625977,16.113281,10.560547,20.941406l.231445.161133c3.71875,2.587891,8.078125,3.956055,12.606445,3.956055,4.667969,0,9.128906-1.445312,12.901367-4.178711,18.045898-13.075195,29.947266-19.704102,35.373047-19.704102,1.908203,0,2.40625.847656,2.56543,2.120117,1.197266,9.553711-4.672852,20.942383-17.448242,33.851562-7.181641,7.254883-8.717773,20.291992-3.423828,29.060547.738281,1.222656,1.515625,2.526367,2.194336,3.832031,4.827148,9.287109,13.943359,15.355469,24.384766,16.234375,30.707031,2.580078,37.083984,6.645508,38.152344,8.838867.210938.433594.361328,1.071289-.354492,2.164062-4.947266,7.540039-15.668945,12.292969-31.870117,14.125-8.629883.975586-15.133789,8.258789-15.126953,16.941406l.000977.157227c0,5.125977-.337891,10.311523-1.00293,15.402344-1.455078,11.133789,3.717773,22.362305,13.179688,28.607422,13.555664,8.947266,22.688477,16.412109,23.201172,23.762695.276367,3.958008-1.945312,7.959961-6.791992,12.233398-6.074219,5.355469-12.606445,7.958984-19.970703,7.958984-4.279297,0-8.892578-.922852-13.709961-2.743164-3.954102-1.494141-8.101562-2.250977-12.327148-2.250977-9.114258,0-17.832031,3.489258-24.549805,9.827148-3.577148,3.374023-7.389648,6.636719-11.333984,9.698242-11.629883,9.026367-16.571289,24.069336-12.588867,38.323242,5.452148,19.517578,4.789062,24.360352,3.272461,24.986328-.123047.050781-.260742.075195-.422852.075195-3.119141,0-10.831055-7.87207-21.027344-25.458984-3.751953-6.47168-10.766602-10.492188-18.307617-10.492188-2.125977,0-4.241211.316406-6.286133.94043l-.170898.051758c-9.851562,2.995117-13.126953,12.25-15.866211,22.283203-2.707031,9.917969-4.472656,17.78125-5.891602,24.098633-3.573242,15.915039-4.765625,20.131836-11.007812,21.466797-.133789.02832-.258789.042969-.379883.042969Z" fill="url(#radial-gradient)"/><path d="M233.052225,3c2.515747.000488,5.546753.950684,9.008789,2.823975,15.08313,8.162354,19.188599,23.143311,12.920044,47.145996-2.408081,9.219971,2.518921,18.613037,11.460938,21.849121l.166382.060059c.655762.237549,1.341431.35791,2.03772.35791,2.526367,0,4.806152-1.591309,5.672974-3.959717,8.703613-23.779785,12.810791-24.052246,12.981567-24.052246.023315,0,.223145.077637.545654.42041,4.810303,5.113525,7.021118,13.561523,6.571289,25.109375-.342896,8.79834,3.844727,17.109131,11.201782,22.231201l.231445.161133c3.970337,2.76416,8.62561,4.225098,13.462402,4.225098,4.985474,0,9.751465-1.543945,13.782959-4.4646,22.152466-16.049805,30.984375-19.418945,34.492432-19.418945.976074,0,.991577.123291,1.077271.807129,1.137085,9.073242-4.591309,20.044434-17.026001,32.608887-7.634277,7.713867-9.268188,21.571777-3.642212,30.891357.755615,1.251709,1.488647,2.480469,2.147827,3.748779,5.06604,9.74707,14.63269,16.116211,25.59082,17.037354,11.199219.941406,20.05481,2.144775,26.320801,3.577393,9.245117,2.113525,10.495483,4.193848,10.607666,4.424072.072388.148682-.157837.527588-.260132.683594-4.690796,7.150146-15.047974,11.678223-30.783936,13.457764-9.390625,1.062012-16.466187,8.986572-16.458496,18.43335l.000122.146729c0,5.076904-.332886,10.196777-.98938,15.217285-1.529907,11.697998,3.90271,23.494873,13.840088,30.053711,13.184204,8.70166,22.061279,15.877686,22.531128,22.614502.241333,3.461426-1.815308,7.061035-6.28772,11.004639-5.787598,5.103516-11.995239,7.584229-18.977783,7.584229-4.098145,0-8.532715-.890381-13.180298-2.646484-4.124146-1.558105-8.450195-2.348145-12.85791-2.348145-9.497925,0-18.581787,3.635254-25.578491,10.236084-3.540771,3.340332-7.317261,6.571533-11.224243,9.604004-12.113892,9.4021-17.261597,25.068848-13.114746,39.912598,2.052246,7.345703,3.281738,12.59668,3.869263,16.525391.643555,4.303223.335815,6.005615.141357,6.588135-1.876099-.513184-8.40564-5.625488-19.445557-24.66748-4.019653-6.932861-11.532227-11.239746-19.606079-11.239746-2.27417,0-4.536133.338135-6.729736,1.007324l-.147949.045166c-11.475586,3.489014-14.734863,15.428467-16.891724,23.328857-2.716553,9.951172-4.486206,17.832764-5.908325,24.165527-3.476685,15.483643-4.501343,19.182129-9.85791,20.327148-.025757.005371-.043457.007568-.047119.01001-.127441-.064941-1.34375-.809326-2.770508-6.053955-1.129028-4.150635-2.02417-9.663818-2.971802-15.500488-2.82251-17.383057-6.021484-37.085205-18.173706-38.576172-3.103149-.380859-6.424683-.89209-9.941162-1.433105-5.779297-.889404-12.329712-1.897461-19.364258-2.531006-1.297363-.116943-2.61438-.17627-3.914185-.17627-14.218994,0-27.522217,6.958008-35.586182,18.612793-2.174072,3.142334-3.427612,4.094238-3.934204,4.377197-.69519-1.114258-1.742676-5.534668-.349609-16.586426,1.162354-9.222168-3.656494-18.382812-11.990967-22.79541-3.160767-1.67334-6.293457-3.461426-9.311035-5.314453-4.235352-2.60083-9.168457-3.975586-14.266235-3.975586-8.94458,0-17.302246,4.174316-22.356567,11.166016-5.706543,7.893799-8.741943,10.965576-10.239014,12.160156.188477-3.292725,2.500732-11.829346,13.906128-24.52832,5.637329-6.2771,5.580078-15.699219-.133545-21.916992l-.192139-.209717c-3.289062-3.59375-7.490479-5.415771-12.487549-5.415771-4.019165,0-8.553955,1.213623-13.478516,3.607178-6.748291,3.280029-13.028076,7.673584-18.568604,11.550049-6.974243,4.879639-13.561646,9.488525-17.956421,9.488525-1.883545,0-4.3396-.775391-6.632935-6.82251-4.580933-12.079834,7.464722-30.921143,21.252441-41.450195,13.765381-10.511963,13.923706-53.186768,13.923706-54.997559.000366-1.359619-.533325-2.632812-1.502686-3.584961-.948242-.931396-2.199097-1.444336-3.522095-1.444336-.406494,0-.813965.049805-1.210938.148193-7.93042,1.961914-14.971924,2.999023-20.362915,2.999023-5.792236,0-8.258911-1.266846-8.453125-2.065674-.18811-.772949-.222656-1.147217.931519-1.914795,1.593994-1.060303,4.441284-2.026367,8.046265-3.249268,3.618652-1.227783,8.122192-2.755859,13.075317-4.992676,8.739014-3.946777,15.442871-11.632324,18.3927-21.086426l.075073-.239746c2.385864-7.590576-.654907-15.710205-7.394531-19.745605-12.134644-7.264893-16.622681-11.80957-17.835327-13.708496.355103-.053223.846924-.095459,1.512695-.095459,3.520386,0,9.349976,1.170898,16.415161,3.296875,1.618774.487061,3.279907.733887,4.937256.733887,5.422852,0,10.578613-2.652344,13.791504-7.095459,3.110229-4.300781,3.940918-9.657471,2.282104-14.670898.011963-.490479,1.145996-1.887939,1.755249-2.638672,1.647461-2.030029,3.697876-4.556396,3.173584-7.838623-1.449707-9.076172-5.57666-17.57959-9.217896-25.082275-5.724121-11.794189-7.800781-17.243652-3.66626-19.928467.137817-.0896.258911-.124512.431763-.124512,2.564087.000244,7.907227,5.66333,11.808594,9.79834,4.341431,4.601074,8.830566,9.359131,13.132324,11.407471,7.941895,3.781982,16.706665,5.780762,25.346924,5.780762,7.630371,0,14.712891-1.533447,21.04834-4.556885l.13562-.064453.080444-.038086c7.994751-3.795898,12.834473-12.253418,12.042969-21.045898-.340454-3.78125-.70813-7.46875-1.063721-11.034424-1.950562-19.5625-3.635132-36.457031,2.106323-42.799316,1.803589-1.992432,4.44519-2.960938,8.075562-2.960938,1.504517,0,3.197388.169189,5.031494.502686,17.325317,3.150635,25.920654,16.799805,27.050171,42.955078.410889,9.514404,8.153076,16.967285,17.62561,16.967285.251221,0,.504761-.005371.758179-.016113,2.710571-.114746,5.458374-.172852,8.21167-.172852,4.034912,0,7.495972-2.743896,8.416626-6.672852,1.038696-4.433105,1.989014-8.749023,2.908081-12.922852,5.056763-22.966064,9.050903-41.106201,19.520264-41.104492M233.052714,0c-15.059937-.002441-18.202271,25.839355-25.349731,56.343018-.597656,2.550537-2.875977,4.357178-5.495728,4.357178h-.044922c-2.781372,0-5.546509.059326-8.293579.175537-.21106.009033-.422241.013428-.631348.013428-7.835327,0-14.286987-6.191162-14.628418-14.09668-.967163-22.395264-7.514771-41.777344-29.51062-45.777344-2.040039-.371094-3.891113-.551025-5.568237-.551025-20.340576-.000244-15.129395,26.48584-12.106079,60.063721.683472,7.592041-3.455688,14.797363-10.341675,18.06665-.073364.034912-.146362.06958-.219238.104248-6.119263,2.920166-12.907837,4.265381-19.758545,4.265381-8.282471,0-16.65625-1.965088-24.057129-5.489258-8.449829-4.023926-19.227539-21.496826-26.230591-21.497314-.732178,0-1.422974.190918-2.065674.608398-11.407349,7.407471,8.148071,26.666748,11.555542,48,.638306,3.996338-6.031616,7.241211-4.818726,10.918457,3.017944,9.149658-4.28772,17.852051-13.221313,17.852051-1.331299,0-2.697876-.192871-4.072876-.606689-7.360596-2.214844-13.382324-3.424072-17.279541-3.424072-2.560181,0-4.203491.521973-4.707031,1.623291-1.411011,3.086182,6.474609,9.963135,19.488647,17.754639,5.573242,3.336914,8.021362,10.075195,6.073608,16.272217-.025757.081787-.051392.163818-.076904.245605-2.651733,8.498535-8.650024,15.581543-16.763672,19.24585-14.937378,6.74585-25.394409,6.771973-23.733398,13.600098.715698,2.942139,4.900879,4.356445,11.368164,4.356445,5.581787,0,12.863403-1.053223,21.083374-3.086914.165039-.040771.329346-.060303.490479-.060303,1.086304,0,2.025024.882324,2.02478,2.028564,0,1.905762-.459229,43.232422-12.744507,52.614014-14.631714,11.173584-27.438477,31.181641-22.236694,44.898193,2.400879,6.330811,5.579834,8.758789,9.437988,8.758789,9.186035,0,22.229004-13.754395,37.836426-21.340332,4.022827-1.955322,8.22644-3.30542,12.167114-3.30542,3.802612,0,7.360352,1.257324,10.274536,4.441162.06543.071533.130859.143066.196411.214355,4.651489,5.062012,4.703857,12.767578.110229,17.882324-14.964844,16.662354-15.802368,27.528564-14.008301,29.63623.327759.38501.742554.627441,1.294922.627441,1.991089,0,5.770142-3.150635,13.709595-14.133301,4.658325-6.444092,12.263794-9.923584,19.925293-9.923584,4.39563,0,8.80896,1.144775,12.696411,3.531982,3.081055,1.89209,6.241821,3.696533,9.477173,5.409424,7.231201,3.828369,11.441406,11.651123,10.418213,19.768799-1.44043,11.42749-.722412,18.821777,2.346313,19.934326.254761.092285.517822.137939.788818.137939,1.828003,0,4.024414-2.06958,6.592163-5.780762,7.562378-10.929932,19.979858-17.319824,33.119141-17.319824,1.210449,0,2.425659.054199,3.645142.164062,11.141479,1.003662,20.858276,2.929199,29.209106,3.953857,17.74292,2.177002,13.434082,60.152344,24.262451,60.152344.224731,0,.4552-.024902.693237-.075684,10.470337-2.237793,8.710938-12.487793,18.033203-46.63623,2.546997-9.330078,5.617065-18.435303,14.870239-21.248779.052368-.015869.104736-.031738.157104-.047852,1.934814-.590088,3.904419-.874756,5.8479-.874756,6.871826,0,13.423218,3.557129,17.010742,9.744629,9.392456,16.200195,17.809326,26.207275,22.325562,26.207275.356323,0,.688232-.062256.994507-.188721,3.641235-1.502686,1.872925-11.480713-2.400391-26.776611-3.786255-13.552734.948486-28.107666,12.064697-36.735596,3.999756-3.104248,7.819214-6.372559,11.443604-9.791748,6.482178-6.115479,14.929321-9.418457,23.519897-9.418457,3.961548,0,7.953003.702148,11.797363,2.154785,4.776978,1.804932,9.5448,2.840088,14.240723,2.840088,7.2323,0,14.294556-2.454834,20.961914-8.333984,15.881348-14.003662,3.908203-24.854004-16.574951-38.373291-9.005005-5.943359-13.917114-16.462402-12.518066-27.160889.670044-5.123779,1.014771-10.330811,1.014771-15.606201l-.000122-.14917c-.00647-7.910645,5.935181-14.561035,13.795654-15.449951,14.880127-1.682861,27.163574-5.964844,32.9552-14.793213,4.762573-7.26001-12.970215-11.138428-38.925537-13.320068-9.85791-.828613-18.606079-6.630859-23.180176-15.431396-.69397-1.335205-1.463745-2.627441-2.241455-3.915771-4.925293-8.158936-3.499146-20.455078,3.206299-27.230469,11.575684-11.696533,19.282227-23.82666,17.870361-35.092285-.295898-2.361572-1.7146-3.434082-4.053955-3.434082-6.46582,0-19.967163,8.19043-36.252563,19.989502-3.582275,2.595459-7.801025,3.894043-12.022827,3.894043-4.106812,0-8.216553-1.228516-11.748291-3.687256l-.231445-.161133c-6.406738-4.460449-10.222168-11.851318-9.918213-19.6521.442627-11.361328-1.519653-21.048096-7.383911-27.281982-.869751-.924561-1.782104-1.364502-2.730225-1.364746-4.605957-.000977-10.073608,10.377686-15.799316,26.02124-.447632,1.223145-1.618286,1.990723-2.855713,1.990723-.338379,0-.681885-.057373-1.016846-.178711l-.166626-.060303c-7.440308-2.692627-11.578491-10.614258-9.578979-18.27002,5.429565-20.789795,4.616211-40.254639-14.394897-50.54248C239.464823,1.008057,236.025614.000488,233.052714,0h0Z" fill="#328cb2"/><ellipse cx="204.042912" cy="201.305167" rx="58" ry="53.402946" fill="url(#radial-gradient-2)"/></svg>