<?xml version="1.0" encoding="UTF-8"?><svg id="Layer_1" xmlns="http://www.w3.org/2000/svg" width="557.92363" height="688.37197" viewBox="0 0 557.92363 688.37197"><path d="M444.17249,121.58504c-1.71875,0-3.39062-.88672-4.32129-2.47656-1.39355-2.38379-.5918-5.44629,1.79199-6.84082,6.35352-3.71582,7.5918-13.25977,6-21.07031-.80566-3.95801-2.13086-7.83301-3.53418-11.93652-1.83594-5.36914-3.73438-10.9209-4.47949-16.88867-.52637-4.22363-.43945-8.37598-.35449-12.39258.08691-4.12793.16895-8.02734-.39648-11.77637-1.52539-10.12305-8.45996-19.56055-17.66699-24.04102-9.20508-4.47949-20.91016-4.11621-29.82031.92871-8.36621,4.7373-14.22363,12.85547-20.42383,21.4502-2.44336,3.38672-4.9707,6.88965-7.67676,10.19141-27.19043,33.16699-75.83691,45.70605-115.6748,29.81934-2.56445-1.02344-3.81445-3.93164-2.79199-6.49707,1.02246-2.56445,3.92969-3.81641,6.49707-2.79199,35.32129,14.08691,80.12988,2.53516,104.23633-26.87012,2.51074-3.06348,4.94531-6.43848,7.30078-9.70215,6.55664-9.08887,13.33691-18.48633,23.60547-24.30078,11.87012-6.72266,26.86035-7.1875,39.125-1.21973,12.26465,5.96973,21.14551,18.05664,23.17871,31.54297.69238,4.59473.59766,9.11035.50586,13.47754-.08105,3.82617-.15723,7.44141.28027,10.94336.61719,4.94531,2.26855,9.77637,4.01758,14.8916,1.44336,4.22168,2.93652,8.58789,3.87109,13.17578,2.13379,10.47363.59961,25.06055-10.75,31.69922-.79395.46387-1.66211.68457-2.51953.68457Z" fill="#c8c1df" stroke="#282566" stroke-miterlimit="10" stroke-width="2"/><path d="M250.58265,687.39266c-23.1875.00094-43.09375-5.8779-58.23047-10.3472-18.6377-5.50234-28.1709-11.55444-32.90332-20.88828-3.22168-6.35274-3.7041-13.0951-4.1709-19.61548-.2793-3.90924-.54395-7.60306-1.37305-11.08616-2.80176-11.76611-11.28418-22.06086-25.21094-30.59862-.31445-.19293-.5791-.35496-.78711-.48702-8.0918-5.1146-13.96973-6.24223-19.65527-7.33333-5.58398-1.07143-11.3584-2.17939-17.69141-6.91562-13.11621-9.81055-19.23242-28.34992-18.17969-55.10299.10156-2.58493,2.31836-4.61447,4.99316-4.61447.06348,0,.12695.00094.19141.00375,2.75977.09928,4.91211,2.3255,4.80762,4.97224-.92383,23.49849,3.89941,39.37145,14.33691,47.17868,4.4668,3.3398,8.25781,4.06752,13.50391,5.07433,6.00391,1.15198,13.47656,2.58586,23.19629,8.72975.17578.11145.40234.25006.6709.41396,16.21582,9.94167,26.16602,22.23694,29.57227,36.54395,1.00391,4.21456,1.30762,8.45908,1.60156,12.565.41992,5.86385.81641,11.40272,3.1875,16.07807,3.38281,6.67305,11.16309,11.28471,26.85254,15.91698,24.59473,7.26121,58.27344,17.20663,98.27832,2.03516,40.05371-15.1902,63.05566-36.91296,68.36914-64.5642,5.9043-30.72599-13.61816-54.88289-13.81641-55.12359-19.44922-23.62774-48.70703-25.7472-54.37402-25.93264-2.75977-.08991-4.9209-2.30864-4.82715-4.95538.09375-2.64768,2.42188-4.7203,5.16699-4.62946,9.0498.29596,40.25586,3.3014,61.88379,29.57495.92285,1.12107,22.51758,27.85354,15.80078,62.80439-3.8457,20.0154-15.9375,37.44212-35.93945,51.7969-15.70215,11.26879-31.73828,17.34992-38.58594,19.94703-16.58203,6.28906-32.25977,8.5593-46.66797,8.5593Z" fill="#c8c1df" stroke="#282566" stroke-miterlimit="10" stroke-width="1.95862"/><path d="M57.11097,56.2911c-5.32129-11.21191-12.98633-19.95312-22.78125-25.98145-6.46796-3.98145-16.25174-8.09879-29.40456-8.59288-2.13792-.08031-3.9266,1.6073-3.92516,3.74672.00002.02526.00003.05052.00005.07578.00137,2.03184,1.62441,3.66743,3.65504,3.73765,9.49681.3284,18.10038,2.83272,25.69123,7.50441,8.52344,5.24609,15.21875,12.90674,19.89941,22.76904,12.41016,26.14453-.65039,53.48242-3.39453,58.69775-.97754,1.85693-.26465,4.1543,1.59277,5.13184.2041.10791.41406.19482.62695.26172,1.71973.54492,3.63477-.20166,4.50488-1.85498,3.04004-5.77637,17.49707-36.08203,3.53516-65.49561Z" fill="#c8c1df" stroke="#282566" stroke-miterlimit="10" stroke-width="2"/><path d="M518.38799,628.6927c.04357,1.07646-.34548,2.16652-1.16678,2.98947-3.18386,3.18761-7.64969,4.91492-12.57534,4.86328-5.90656-.06198-11.85014-2.62295-15.89945-6.85172-5.69925-5.95174-8.71167-14.81452-8.95041-26.27752-.06834-3.29212.05801-6.58429.18013-9.7684.20322-5.29536.3949-10.29627-.24048-15.23477-1.50257-11.66362-8.06213-22.77933-17.54569-29.73512-1.78244-1.30712-2.16603-3.81084-.86038-5.59087,1.30637-1.78163,3.81003-2.16678,5.59087-.86038,11.21603,8.22583,18.97271,21.37135,20.74913,35.16471.72306,5.598.50689,11.17223.30053,16.5639-.11746,3.06742-.23931,6.239-.17589,9.29362.19934,9.42699,2.46112,16.45378,6.73003,20.91136,2.55287,2.66613,6.4631,4.34689,10.20522,4.38544,1.94933.02119,4.7166-.39965,6.83113-2.51736,1.56152-1.56286,4.09399-1.56449,5.6576-.00379.74069.74018,1.13055,1.69864,1.16979,2.66816Z" fill="#c8c1df" stroke="#282566" stroke-miterlimit="10" stroke-width="1.6"/><path d="M69.21838,420.34467c-2.28-34.2-13.68-66.12-29.64-96.52-9.95782-20.50139-19.91564-61.76984-23.95828-79.61549-1.53924-6.79474-2.68072-13.67095-3.34475-20.60613-4.54062-47.42287,5.22466-93.45281,22.74303-136.89837,20.52.76,40.33559-.38993,60.8-.76-28.88,58.52-34.2,126.92-10.64,188.48,7.6,19.76,17.48,38.76,25.84,58.52,2.84793,7.40462,5.26898,14.80923,7.58308,22.53378,1.61914,5.40474,2.99508,10.88671,4.11528,16.41644,2.14765,10.60158,3.82153,20.92879,5.02164,31.72978,12.92-4.56,26.6-6.08,40.28-9.12-6.08,19.76-13.68,38-22.04,56.24-9.88,20.52-21.28,38.76-35.72,57.76-5.32,6.08-9.12,12.16-14.44,18.24-4.31729,4.31729-8.02903,8.93736-12.09075,13.28688-2.96422,3.17425-8.2789,1.52892-8.95726-2.76087-3.84785-24.33309-12.6659-46.80197-25.6228-68.65362-1.82043-3.07013-3.85265-6.00695-6.01241-8.84861-2.81242-3.70037-6.81603-9.24303-7.35679-9.78378-.76-.76-10.64-12.92-15.2-18.24,16.72-3.04,32.68-6.08,48.64-11.4h0Z" fill="#c8c1df" stroke="#282566" stroke-miterlimit="10" stroke-width="5.6"/><path d="M455.03174,428.52994c-2.28-34.2-13.68-66.12-29.64-96.52-9.95782-20.50139-19.91564-61.76984-23.95828-79.61549-1.53924-6.79474-2.68072-13.67095-3.34475-20.60613-4.54062-47.42287,5.22466-93.45281,22.74303-136.89837,20.52.76,40.33559-.38993,60.8-.76-28.88,58.52-34.2,126.92-10.64,188.48,7.6,19.76,17.48,38.76,25.84,58.52,2.84793,7.40462,5.26898,14.80923,7.58308,22.53378,1.61914,5.40474,2.99508,10.88671,4.11528,16.41644,2.14765,10.60158,3.82153,20.92879,5.02164,31.72978,12.92-4.56,26.6-6.08,40.28-9.12-6.08,19.76-13.68,38-22.04,56.24-9.88,20.52-21.28,38.76-35.72,57.76-5.32,6.08-9.12,12.16-14.44,18.24-4.31729,4.31729-8.02903,8.93736-12.09075,13.28688-2.96422,3.17425-8.2789,1.52892-8.95726-2.76087-3.84785-24.33309-12.6659-46.80197-25.6228-68.65362-1.82043-3.07013-3.85265-6.00695-6.01241-8.84861-2.81242-3.70037-6.81603-9.24303-7.35679-9.78378-.76-.76-10.64-12.92-15.2-18.24,16.72-3.04,32.68-6.08,48.64-11.4h0Z" fill="#c8c1df" stroke="#282566" stroke-miterlimit="10" stroke-width="5.6"/><path d="M315.92861,141.4773l.03819.24504c1.56712,10.05463-7.14641,18.66728-19.70958,26.7383-31.97809-7.71943-81.41782-6.32907-85.26324-28.71594l-.03819-.24504c-1.56834-10.0625,7.14642-18.66724,19.70959-26.73825,31.97808,7.71938,81.41782,6.32907,85.26324,28.71589Z" fill="#4d4b7e" stroke="#282566" stroke-miterlimit="10" stroke-width="2.4"/><path d="M338.19237,270.96943l.03819.24504c1.56834,10.0625-7.1468,18.6673-19.70959,26.73825-31.97809-7.71943-81.41782-6.32907-85.26363-28.71588l-.03819-.24504c-1.56711-10.05458,7.1468-18.6673,19.70959-26.73825,31.97809,7.71943,81.41782,6.32907,85.26363,28.71588Z" fill="#4d4b7e" stroke="#282566" stroke-miterlimit="10" stroke-width="2.4"/><path d="M360.44763,400.46285l.03819.24504c1.56835,10.06254-7.13708,18.67389-19.69337,26.73577-31.97724-7.71146-81.42592-6.32781-85.27135-28.71468l-.03819-.24504c-1.56712-10.05463,7.1387-18.66603,19.69461-26.72786,31.97724,7.71146,81.4247,6.31994,85.27012,28.70677Z" fill="#4d4b7e" stroke="#282566" stroke-miterlimit="10" stroke-width="2.4"/><path d="M322.91576,505.72955c-8.91926-1.27059-17.71167-2.60745-25.47449-4.48134-12.5563,8.06184-21.26983,16.67449-19.70149,26.73699l.03819.24504c2.6355,15.33419,26.66151,19.514,51.81546,23.10552-2.38713-15.96769-5.23107-35.19858-6.67767-45.60621Z" fill="#4d4b7e" stroke="#282566" stroke-miterlimit="10" stroke-width="2.4"/><path d="M315.9668,141.72234l7.07912,45.41965c3.81832,22.21295-42.46747,37.34555-70.11718,55.11156-12.56279,8.07095-21.2767,16.68367-19.70959,26.73825l-7.07911-45.4196c-3.81833-22.21299,42.46747-37.34555,70.11718-55.11156,12.56318-8.07101,21.2767-16.68367,19.70958-26.7383Z" fill="#c8c1df" stroke="#282566" stroke-miterlimit="10" stroke-width="2.4"/><path d="M338.23056,271.21447l7.07912,45.41965c3.81793,22.21301-42.47558,37.34676-70.13217,55.12196-12.55591,8.06183-21.26173,16.67323-19.69461,26.72786l-7.07912-45.41965c-3.82519-22.20377,42.45936-37.34428,70.11718-55.11156,12.56279-8.07095,21.27794-16.67575,19.70959-26.73825Z" fill="#c8c1df" stroke="#282566" stroke-miterlimit="10" stroke-width="2.4"/><path d="M360.48582,400.70789l7.07912,45.41965c3.8187,22.21289-42.46708,37.34549-70.12367,55.12068-12.5563,8.06184-21.26983,16.67449-19.70149,26.73699l-7.07912-45.41965c-3.81832-22.21295,42.47519-37.3467,70.13178-55.12189,12.5563-8.06189,21.26173-16.67323,19.69337-26.73577Z" fill="#c8c1df" stroke="#282566" stroke-miterlimit="10" stroke-width="2.4"/><path d="M257.95766,96.91271c-.69541-4.11168-1.3908-8.22332-2.08621-12.335-1.81443-10.82466-3.55684-21.66153-5.27303-32.50264-24.43022,12.75032-49.57609,25.40116-46.72176,42.00493l7.07912,45.41965c-1.56834-10.0625,7.14642-18.66724,19.70959-26.73825,8.10822-5.20891,17.81554-10.19245,27.39355-15.19393-.0321-.21861-.07032-.43592-.10126-.65477Z" fill="#c8c1df" stroke="#282566" stroke-miterlimit="10" stroke-width="2.4"/></svg>