<?xml version="1.0" encoding="UTF-8"?><svg id="Layer_1" xmlns="http://www.w3.org/2000/svg" width="377.75" height="646.655543" viewBox="0 0 377.75 646.655543"><ellipse cx="188.875" cy="323.327772" rx="185.5" ry="319.952772" fill="#e3b5a9" stroke="#633936" stroke-miterlimit="10" stroke-width="6.75"/><path d="M255.53125,513.808281c-65.704662,0-121.9375-3.609375-118.96875-20.25,5.385996-30.189927,53.264088-20.25,118.96875-20.25,3.073656,0,6.119385.020096,9.133333.059458,17.326345.22628,32.659375-11.240017,37.296309-27.935893,9.148008-32.938577,14.320357-70.374431,14.320357-110.07669l-.000164-.378494c-.005216-12.030878-9.537234-21.940141-21.562276-22.314845-55.409983-1.726595-72.84381,5.990214-84.12506-19.462911-9.162522-20.672781,9.871101-14.276237,44.474683-17.816067,31.698126-3.242612,52.230082-35.133489,42.251106-65.394119-22.444635-68.061972-62.616127-113.414814-108.444539-113.414814-33.120296,0-63.284997,23.691338-85.941023,62.519928-8.223413,14.093537,1.465543,32.010905,17.760548,32.86243,48.744845,2.547252,85.900191-4.771179,84.211725,19.367641-1.809333,25.866766-53.264088,20.25-118.96875,20.25h-.000012c-6.989704-.000617-13.107979,4.808471-14.632089,11.629985-6.335355,28.355364-9.836649,59.486497-9.836649,92.151265,0,2.090455.014346,4.174624.04286,6.252185.180737,13.168886,11.014972,23.703237,24.185098,23.700981l.240792-.000041c65.704662,0,122.566011-8.871247,102.9375,18.890625-28.28125,40-37.232838,21.609375-102.9375,21.609375l-.192658-.000027c-9.868583-.001368-17.153549,9.123739-15.078398,18.771676,18.857885,87.675379,64.675593,149.556476,118.208556,149.556476,27.784759,0,53.487986-16.677619,74.425171-44.973363,4.698368-6.349652.130005-15.355771-7.768903-15.354762h-.000018Z" fill="#fad7cf" stroke="#91534f" stroke-miterlimit="10" stroke-width="6.606531"/></svg>