<?xml version="1.0" encoding="UTF-8"?><svg id="Layer_1" xmlns="http://www.w3.org/2000/svg" width="454.214884" height="454.448611" xmlns:xlink="http://www.w3.org/1999/xlink" viewBox="0 0 454.214884 454.448611"><defs><radialGradient id="radial-gradient" cx="227.107442" cy="227.224304" fx="199.514519" fy="227.224304" r="226.165881" gradientUnits="userSpaceOnUse"><stop offset=".005587" stop-color="#fee5c4" stop-opacity=".8"/><stop offset=".346692" stop-color="#fee2bd" stop-opacity=".8"/><stop offset=".750194" stop-color="#fedaab" stop-opacity=".8"/><stop offset="1" stop-color="#ffd39c" stop-opacity=".8"/></radialGradient><radialGradient id="radial-gradient-2" cx="201.584956" cy="227.224304" fx="201.584956" fy="227.224304" r="16.888889" gradientTransform="translate(0 -23.724288) scale(1 1.104409)" gradientUnits="userSpaceOnUse"><stop offset="0" stop-color="#ffe5cf"/><stop offset=".352941" stop-color="#f6d1b2"/><stop offset="1" stop-color="#e5a874"/></radialGradient></defs><path d="M437.955423,171.856333c-7.828849.36871-13.851875,7.112573-13.851873,14.9501l.000003,9.1964c.000002,6.045837-5.845343,10.371147-11.628785,8.609344-2.062196-.628204-4.017355-1.219396-5.488399-1.652339-26.34375-6.436035-25.868408,13.852051-39.981689,15.953857-10.392525,2.208729-19.786037-.679902-28.777694-4.982843-9.309534-4.455061-10.517119-17.223376-2.338161-23.517789,18.496611-14.234736,40.113859-10.723933,58.151744-29.256204,14.939344-18.900302,6.851742-40.079156,17.444036-55.393151,5.365028-7.756584,16.16396-9.325381,23.68651-3.63685,3.056737,2.311496,6.941458,3.164712,11.142404,1.268527,5.820312-2.540527,8.47876-9.318359,5.937988-15.138672l-9.549316-21.875488c-6.077637-13.754883-27.032715-4.606934-21.076904,9.201172l.001465.003418c2.54176,5.930901.308327,12.760424-5.147441,16.205816-18.063794,11.407532-16.456194,24.809789-19.52336,42.657912-1.109061,6.45373-9.637367,8.252552-13.115093,2.704033-7.755542-12.373536-9.834842-25.199713-1.420893-39.458629,4.87915-12.45752,14.736572-27.862793,15.325684-41.780762.160889-4.523682-7.001709-4.684326-6.998535-.142578-7.661465,39.365929-35.477688,53.50008-10.850873,88.326466,5.617516,7.944096,2.530466,19.137038-6.458915,22.859426-8.037016,3.328026-17.098702,5.342247-25.318964,8.469904-4.502119,1.712972-9.015323-2.508738-7.675198-7.135552,3.386474-11.691887,7.188721-23.530013,15.984614-30.946269,1.475586-1.249023,1.658203-3.458008.40918-4.932617-10.909912-6.05957-21.942383,28.4729-23.915771,36.691406-13.188463,53.100775-38.052683,33.261271-69.356832,40.906714-7.436192,1.816148-15.233468-1.29594-19.0758-7.916501-4.483578-7.725466-10.98614-14.131639-18.787024-18.498345-8.179367-4.578569-9.658122-15.738774-2.741717-22.065597,15.11895-13.830151,42.465068-18.16461,54.547741-47.289001,1.365435-3.29128,2.971517-6.497038,5.108706-9.348241,2.465575-3.2893,3.170921-8.086155,13.212641-10.683804,10.966064-3.772705,25.832764,3.606934,35.011963-6.188965,8.244141-7.41626,15.757812-15.705322,22.332031-24.635986,4.001221-5.445068,7.95874-11.462646,13.431641-14.404297,3.996826-2.096191.62207-8.392334-3.349854-6.146484-14.418213,7.376465-30.162598,44.754395-47.233887,43.441895-5.905278-.354981-12.528818-.565186-18.760754.510502-7.232132,1.248331-13.834553-4.400503-13.956289-11.738571-.121095-7.299469-.163327-14.632142,1.265482-21.311696,1.407926-6.581927,7.480648-11.109085,14.203758-10.786897l11.421875.547365c15.846924.691895,17.027832-23.42334,1.161377-24.25293.000732,0-48.23584-2.312012-48.23584-2.312012-15.8479-.69043-17.027832,23.422607-1.161621,24.25293-.000244,0,2.282227.109619,5.275146.25293,6.787842.325439,11.658203,6.577881,10.432861,13.262207-5.426514,29.604492,7.666992,55.914307-27.796387,82.068359-13.388183,8.592529-32.033446,15.229248-40.022161,29.511507-3.532375,6.315195-9.912812,10.459256-17.035984,11.731966-7.055451,1.26061-13.728603,4.047848-19.52629,8.00893-9.571518,6.53943-22.440421,3.901596-28.66252-5.87918-2.765627-4.347404-5.296388-8.849839-7.659176-13.444558-2.803005-5.450772-4.265527-11.484309-4.405953-17.611954-.257318-11.22833-9.667379-24.183799-12.757496-34.58966-4.892334-23.126709,14.454346-42.817139,14.550293-65.743164.14917-4.513672-6.976562-4.69165-6.997559-.130615-.30735,11.678064-5.578053,22.423409-9.812787,33.442295-2.641311,6.872759-10.688251,9.961578-17.215992,6.555708-28.411291-14.823686-14.789969-21.963466-26.247995-40.632638-4.037441-6.578418-2.805827-15.060931,2.696967-20.473487,7.143019-7.025884,13.266586-15.257099,5.447482-22.95755-4.741211-4.740723-12.427979-4.740723-17.168945,0L30.904582,38.703491c-4.740967,4.741211-4.740967,12.427734,0,17.168945,7.363768,7.411375,14.94775,2.310794,21.393576-3.977982,5.240045-5.112372,13.913417-3.677297,17.26616,2.830662,9.584539,18.604403-4.847055,24.069582,31.77367,42.048233,5.742644,2.819305,9.769858,8.264765,10.706959,14.593136.829298,5.600364,3.146414,10.945898,5.651481,16.213182,2.340932,4.922167-2.020389,10.420595-7.331182,9.19456-10.436625-2.40937-21.861006-.902812-30.489877-10.023577-4.026222-4.25574-5.239547-10.340183-3.719348-15.99799,3.439272-12.800123-12.656214-22.556021-21.311009-8.85874-3.265137,9.453857-20.131348,29.786621-4.956543,36.858398,7.478422,3.332152,12.176208-.482312,15.527201-5.890282,2.157313-3.481561,6.995001-3.980197,9.912404-1.105475,7.081416,6.977814,16.947629,11.028957,27.005951,10.986968,15.477295-1.182129,22.023926,12.772217,27.851074,26.039307,4.732354,9.952276,10.794154,19.409397,17.884096,27.966288,4.512029,5.445593,6.191141,12.663902,4.730864,19.583475-2.263511,10.725731-.87875,22.544183,3.762387,32.326538,2.231738,4.703944,2.591801,10.012562,1.273783,15.049483-1.62452,6.208249-.75367,13.156491-1.012948,19.378172-.810547,16.270508-12.050781,31.576172-27.332031,37.22168-4.271484,1.516602-8.489258,4.737305-12.625977,5.026367-10.867188.76001-18.074219-.296143-29.072021-3.013184-10.596191-3.00415-20.832764-1.124512-31.496338-1.621338-6.374664.01563-12.60056.212273-18.339005,1.635577-4.111907,1.019874-8.333039-1.216306-9.86867-5.164693-3.60369-9.265745-8.463066-19.681602-19.636319-15.146421-6.436523,2.383301-9.01416,10.774658-6.505859,15.899658.469482,1.104492,18.641113,44.561035,18.744629,44.779297,6.626709,14.580322,28.390625,4.44873,22.289062-9.626709-.091314-.218031-2.46685-5.89451-4.772163-11.402401-2.482128-5.930343,1.23015-12.602479,7.572245-13.654982,13.009227-2.158948,29.838472-1.848968,39.677213.900889,6.83262,1.909872,12.363292,4.503553,17.611243,6.44492,3.587155,1.326991,5.49487,5.238191,4.277195,8.863913-3.169923,9.438694-6.31616,19.629883-14.426524,22.826177-8.128906,1.948486-21.397949,4.629883-19.401123,15.924561.969971,4.446045,7.880127,2.871338,6.827637-1.542236-.33667-3.877441,5.563965-5.612793,9.020752-6.182129,23.711182-2.40625,20.272949-32.928467,33.80127-44.831543,4.468845-2.170944,9.452604-3.779121,14.079628-6.006508,4.100286-1.973822,8.604058,1.91619,7.097601,6.210245-3.910177,11.1457-13.0843,20.680721-7.42453,35.074359,1.392143,3.540427-.042871,7.677732-3.500786,9.263766-6.209618,2.848152-7.567808,10.8878-10.800253,17.67054-7.148682,7.426025-23.208252,1.807617-30.186279,11.549316-1.892822,2.498047-5.667969,9.20459-.590332,10.82373,1.821289.489258,3.789062-.616699,4.271729-2.501953,3.794922-13.544434,24.531006-4.26123,32.042236-15.59375,5.64771-9.359117,3.383001-14.745656,10.52062-15.847714,6.626791-1.023186,11.564017,6.052454,8.39191,11.959992-3.375627,6.286562-9.340371,14.233218-9.182074,26.594826.058248,4.548659-2.928125,8.675499-7.369401,9.659752-14.662068,3.249333-14.143825,22.680037,1.60745,24.167812.000244-.000977,19.082275-.000977,19.082275-.000977,16.882058-1.953123,15.233647-21.697215,1.308848-24.311303-4.384127-.823028-7.666992-4.509045-7.643273-8.969694.125459-23.594006,22.562446-27.521501,4.665968-47.365976-19.176752-19.130854,6.70897-35.610098,3.362811-53.950705-.652957-3.578916.108278-7.298814,2.242959-10.244681,8.4808-11.70353,8.054325-20.607,8.41622-30.369672.25223-6.804304,7.564984-10.967399,13.548911-7.718586,9.969781,5.412825,22.171604,7.372673,33.482833,5.430556,8.984084-1.542551,17.676098,3.958849,19.779371,12.82843,5.156967,21.747127,16.0822,25.265657,35.752528,34.9535,7.26415,3.57767,12.029644,10.833912,12.315439,18.926249.009379.265579.020916.502556.030814.70448,0,0,1.921631,46.708496.798828,49.107178-1.594727,3.406738-5.143311,5.56665-8.885986,5.19165-15.10498-1.512939-20.332031,17.519531-5.112305,22.628662,9.950928,1.010742,33.609375,12.764893,37.012939-3.627197,1.751465-9.208984-4.736816-12.672852-11.908936-14.515625-3.532715-.907715-4.444336-4.844727-4.142578-8.127197.321533-3.500977-.769775-51.001221-.769775-51.001221l-.000732-.16333c-.013949-3.113231,4.097361-4.259153,5.690338-1.584302,5.457647,9.16422,4.982916,22.73558,7.940032,33.47566.631592,2.294434-.767334,4.65918-3.063477,5.284668-4.482178,1.380127-7.191162,6.920654-5.690674,12.851562,1.528564,6.04248,7.706787,9.631348,13.694092,8l17.057618-4.647704c5.90298-1.60839,9.708326-7.606365,8.207915-13.53771-1.52847-6.042266-7.706568-9.63096-13.693755-7.999645l-2.697264.73487c-4.000391,1.089907-8.065719-1.474104-8.833767-5.548553-.769544-4.082386-1.091315-8.391588-1.53372-12.628267-.512858-4.911377,4.493491-8.505372,8.978323-6.438748,11.217918,5.169249,18.689702,16.773333,28.652544,23.360382,5.134656,3.394838,6.823491,10.138332,3.745652,15.469047l-1.573975,2.726074c-7.873047,13.771484,13.02417,25.864502,21.027832,12.139893-.000244.000732,24.145752-41.821533,24.145752-41.821533,7.871582-13.771729-13.023193-25.864258-21.028076-12.139648.000244-.000244-2.867062,4.965912-5.811672,10.066031-4.563257,7.903646-15.219876,9.564632-22.028142,3.486932-8.326661-7.433162-16.987857-18.237096-30.096988-21.764492-5.763711-1.550895-10.974679-4.815084-14.920427-9.293556-14.461438-16.413906-45.270574-18.194634-54.433786-38.036907-2.173891-5.247955-2.47072-11.516478-3.095288-17.635288-.758166-7.427667,1.101969-14.933547,5.495704-20.970115,4.996038-6.864075,8.309786-15.118006,9.298208-23.807015.878225-7.72028,6.41036-14.128612,13.978249-15.889592,15.302472-3.560748,31.516154.223812,45.459655-4.003563,4.532916-1.374284,9.447691-.93671,13.60523,1.332839,4.423164,2.41455,8.731324,5.326954,13.269716,7.439043,14.781006,6.468506,37.029297,9.39502,47.067139-6.341553,10.510754-10.622398,18.689424-5.713443,27.965201-2.304015,7.091396,2.606532,11.862189,9.283591,11.862189,16.838847l-.000002,14.775699c0,7.83756,6.023034,14.581489,13.851916,14.950197,8.35875.393663,15.259417-6.266887,15.259417-14.539049v-58.458252c0-8.272428-6.900691-14.932721-15.259461-14.539053Z" fill="url(#radial-gradient)" stroke="#8a5d3b" stroke-miterlimit="10" stroke-width="2"/><circle cx="201.584956" cy="227.224304" r="16.888889" fill="url(#radial-gradient-2)"/></svg>