<?xml version="1.0" encoding="UTF-8"?><svg id="Layer_1" xmlns="http://www.w3.org/2000/svg" width="464.555542" height="525.409225" xmlns:xlink="http://www.w3.org/1999/xlink" viewBox="0 0 464.555542 525.409225"><defs><radialGradient id="radial-gradient" cx="308.485441" cy="388.927574" fx="308.485441" fy="388.927574" r="122.609419" gradientUnits="userSpaceOnUse"><stop offset="0" stop-color="#eaf4ec"/><stop offset=".213957" stop-color="#e2f0e5"/><stop offset=".545515" stop-color="#cce7d4"/><stop offset=".951364" stop-color="#a8d8b7"/><stop offset="1" stop-color="#a4d6b4"/></radialGradient><radialGradient id="radial-gradient-2" cx="434.526106" cy="392.72364" fx="434.526106" fy="392.72364" r="95.351459" xlink:href="#radial-gradient"/><radialGradient id="radial-gradient-3" cx="211.5" cy="310.260284" fx="211.5" fy="310.260284" r="169.685609" gradientUnits="userSpaceOnUse"><stop offset="0" stop-color="#efebe4"/><stop offset=".460607" stop-color="#ece8e0"/><stop offset=".849708" stop-color="#e6e0d6"/><stop offset="1" stop-color="#e3dcd0"/></radialGradient></defs><polyline points="385.111111 4.149166 365.111111 17.988716 385.111111 31.826183 365.111111 45.663912 385.111111 59.503235 365.111111 73.344721 385.111111 87.183864 365.111111 101.024412 385.111111 114.865334 365.111111 128.701772 385.111111 142.541788 365.111111 156.386612 385.111111 170.227049 365.111111 184.076996 385.111111 197.926944" fill="none" stroke="#231f20" stroke-miterlimit="10" stroke-width="6"/><polyline points="436.444859 270.724776 456.596808 254.129264 436.750401 237.171126 456.902333 220.577409 437.055901 203.621993 457.207813 187.030483 437.361402 170.072817 457.513356 153.476753 437.666943 136.519305 457.818886 119.924378 437.972492 102.964775 458.124458 86.36739 438.278041 69.410372 458.430017 52.811749 438.583661 35.848074 458.735666 19.246316 438.889331 2.280332" fill="none" stroke="#231f20" stroke-miterlimit="10" stroke-width="6"/><path d="M426.518566,286.898007c-.000006-13.245233-10.83702-24.082243-24.082254-24.082243h-156.872624c-13.245233,0-24.082243,10.837009-24.082243,24.082243v48.000032c0,4.372839-3.544886,7.917725-7.917725,7.917725h-.000032c-13.245233,0-24.082243,10.837009-24.082243,24.082243v45.251134c0,15.644451,12.800005,28.444456,28.444456,28.444456h18.074099c1.774564,0,3.503881-.197588,5.16879-.570758,10.647721-2.386563,21.421579-4.16995,32.333482-4.169951l92.316172-.000011c14.310134-.000002,25.242069,12.773654,23.03186,26.912073l-1.498115,9.583245c-.841546,5.383263-10.018855,39.800971-.685522,42.467637,10.3387,2.953914,19.127664-24.161165,21.601363-34.390011.52763-2.181771,1.064616-4.348829,1.668829-6.510645,2.988613-10.692959,13.058456-45.877782,16.285364-96.432678,2.666667-41.777778.296343-90.584492.296343-90.584492Z" fill="url(#radial-gradient)" stroke="#5b9a59" stroke-miterlimit="10" stroke-width="2"/><path d="M450.444458,261.038055h-3.555542c-7.211182,0-13.111084,5.900024-13.111084,13.111084v129.22583c-.284668.655518-.540771,1.329102-.732178,2.038452l-27.036743,100.230835c-2.132568,7.90625,2.591187,16.119995,10.497559,18.252686,7.90625,2.13269,16.119995-2.591187,18.252686-10.497559l24.692017-91.53833c2.519531-2.393066,4.10437-147.711914,4.10437-147.711914,0-7.21106-5.900024-13.111084-13.111084-13.111084Z" fill="url(#radial-gradient-2)" stroke="#5b9a59" stroke-miterlimit="10" stroke-width="2"/><path d="M397.448853,195.038055h-123.448853c-11.217285,0-20.677979,7.805054-23.267524,18.250306-.664139,2.678888-2.890634,4.653542-5.644969,4.830063-13.73019.879947-26.451851,4.489481-36.856359,15.778329-3.546211,3.847624-5.773863,8.631266-7.586808,13.539734-1.304034,3.530612-4.814707,5.613043-8.574393,5.601691-.023315-.000122-.046631-.000122-.069946-.000122H52.551147c-13.503131,0-24.551147,11.048016-24.551147,24.551147v35.448853c0,.37842.009066.75499.026743,1.129026.29575,6.25798-3.61965,11.811716-9.387684,14.257032-2.705991,1.147185-5.416221,2.74096-7.88613,4.94695-6.47168,5.779297-9.75293,14.339844-9.75293,25.444336,0,7.47168,2.545898,13.533203,7.566406,18.016602,3.736755,3.335952,10.353807,5.385478,16.480672,6.623582,6.393731,1.292032,10.972032,6.930867,10.953291,13.45381l-.00037.128662v3.893188c0,13.503198,11.048071,24.55127,24.55127,24.55127h97.564087c13.503198,0,24.55127-11.048071,24.55127-24.55127v-3.342041c0-11.16893-7.563012-20.639803-17.818785-23.581-2.930735-.84049-6.095527-.091015-8.436492,1.86232-1.770995,1.477744-3.96241,2.352713-6.337252,2.352713-2.911914,0-5.548828-1.314844-7.47268-3.443719-.95716-1.059164-2.259476-1.741459-3.687056-1.741456h-.379892c-2.686787.000008-5.311195.892413-7.388472,2.596451-1.756069,1.440544-3.916445,2.292459-6.257081,2.292459-3.463989,0-6.533287-1.865868-8.481519-4.744147-.060907-.089983-.160871-.144769-.269529-.144769h-.000007c-3.588716,0-7.198654.898605-10.107955,2.99976-1.654433,1.194864-3.620604,1.889156-5.733642,1.889156-1.948461,0-3.772006-.590352-5.341392-1.619177-3.260608-2.13752-7.076296-3.269726-10.975085-3.269733h-.000011c-2.160717-.000004-4.047313,1.462879-4.585366,3.555532v.000004h-24.492433v-.000003c-.402259-1.56451-2.080929-2.484253-3.587004-1.900093-.595039.230798-1.178465.48534-1.748323.764598-5.471558,2.681274-11.458374,4.182251-17.526978,3.634033-6.591309-.595581-14.4646-2.260742-19.477173-6.735718-3.743164-3.342773-5.5625-7.771484-5.5625-13.541016,0-9.301758,2.595703-16.347656,7.71582-20.939453,1.672852-1.500366,3.515381-2.649536,5.393799-3.527832,6.741821-3.1521,14.554932-2.965698,21.432861-.122681,3.348633,1.384277,7.485229,2.812622,10.45752,2.812622h6.354248l5.02293-6.657914c1.996079-2.64581,5.987798-2.589706,7.908728.111159l4.656233,6.546755,11.269478-.000068c2.618989-.000016,5.237577-.852889,7.122162-2.671527,1.861958-1.796803,4.279188-2.883948,6.925498-2.883948,2.272197,0,4.375583.801541,6.103579,2.165641,2.608079,2.058847,5.712992,3.389869,9.035781,3.389863h.280377c1.455671-.000003,2.800868-.637133,3.867322-1.627917,1.84404-1.713199,4.208616-2.742405,6.787037-2.742405,2.188272,0,4.22256.741361,5.915346,2.013021,2.172758,1.632226,4.895803,2.357307,7.613346,2.357301h.41806c1.505839-.000004,2.890247-.679585,3.967191-1.732079,1.868689-1.826263,4.30462-2.93463,6.974851-2.93463,1.907305,0,3.695108.565491,5.24203,1.554177,3.48932,2.230132,7.674213,3.112527,11.815329,3.11253l22.169326.000019c13.503131.000012,24.551147-11.047995,24.551147-24.551126v-35.448853c0-3.980394-.986033-7.737324-2.724012-11.045668-5.314635-10.11672-3.916899-22.700986,4.673554-30.237397,1.466602-1.286651,3.047029-2.444471,4.731122-3.44838,7.758179-4.623413,21.098389-9.52002,26.744751-6.376587,4.185669,2.3302,11.622681,25.108032,25.125732,25.108032h122.897583c13.503198,0,24.55127-11.048071,24.55127-24.55127v-6.897583c0-13.503131-11.048016-24.551147-24.551147-24.551147Z" fill="url(#radial-gradient-3)" stroke="#807e77" stroke-miterlimit="10" stroke-width="2"/></svg>