<?xml version="1.0" encoding="UTF-8"?><svg id="Layer_1" xmlns="http://www.w3.org/2000/svg" width="500.758937" height="492.114736" xmlns:xlink="http://www.w3.org/1999/xlink" viewBox="0 0 500.758937 492.114736"><defs><radialGradient id="radial-gradient" cx="237.336405" cy="260.937847" fx="237.336405" fy="260.937847" r="178.057348" gradientUnits="userSpaceOnUse"><stop offset="0" stop-color="#d4eef9"/><stop offset=".295013" stop-color="#cfecf8"/><stop offset=".60732" stop-color="#c3e7f6"/><stop offset=".926605" stop-color="#addff3"/><stop offset="1" stop-color="#a8ddf3"/></radialGradient><radialGradient id="radial-gradient-2" cx="251.762021" cy="271.120828" fx="251.762021" fy="271.120828" r="148.663673" gradientUnits="userSpaceOnUse"><stop offset="0" stop-color="#cddee4"/><stop offset=".23886" stop-color="#cadce2" stop-opacity=".993737"/><stop offset=".407007" stop-color="#c3d6de" stop-opacity=".973564"/><stop offset=".553485" stop-color="#b7cdd7" stop-opacity=".939333"/><stop offset=".687476" stop-color="#a6c0cd" stop-opacity=".891016"/><stop offset=".813074" stop-color="#8fafbf" stop-opacity=".828495"/><stop offset=".930771" stop-color="#749bb0" stop-opacity=".752868"/><stop offset="1" stop-color="#628da5" stop-opacity=".7"/></radialGradient></defs><path d="M228.14004,97.806406c-1.739795,0-3.15-1.410645-3.15-3.15v-45.913184c0-6.451172-2.385352-12.636914-6.716162-17.418164l-23.268164-25.685156c-1.168066-1.289355-1.069629-3.280957.219727-4.449023,1.288916-1.168945,3.280957-1.069629,4.449023.219727l23.268164,25.685156c5.382861,5.942285,8.347412,13.630078,8.347412,21.647461v45.913184c0,1.739355-1.410205,3.15-3.15,3.15Z" fill="#afe1b7" stroke="#298638" stroke-miterlimit="10" stroke-width=".75"/><path d="M216.008606,40.210058c-.805363-.040808-1.594721-.388816-2.178033-1.034396l-24.556171-27.177974c-1.16623-1.29026-1.065267-3.282821.225848-4.448568,1.29116-1.166624,3.283238-1.064806,4.449029.225432l24.556171,27.177974c1.16623,1.29026,1.065267,3.282821-.225848,4.448568-.645141.583334-1.466071.84975-2.270996.808964Z" fill="#afe1b7" stroke="#298638" stroke-miterlimit="10" stroke-width=".75"/><path d="M238.139796,97.806406c-1.739795,0-3.15-1.410645-3.15-3.15v-49.793555c0-5.515137,2.039062-10.802637,5.741455-14.89043l25.874121-28.561816c1.167188-1.289355,3.160547-1.388672,4.449023-.219727,1.289355,1.168066,1.387793,3.159668.219727,4.449023l-25.873682,28.561816c-2.650781,2.926758-4.110645,6.713086-4.110645,10.661133v49.793555c0,1.739355-1.410205,3.15-3.15,3.15Z" fill="#afe1b7" stroke="#298638" stroke-miterlimit="10" stroke-width=".75"/><path d="M250.50292,40.375411c-.804286.05187-1.628809-.203212-2.281924-.777604-1.307052-1.14785-1.435453-3.138831-.287108-4.445034l24.179452-27.513668c1.148727-1.307108,3.13927-1.435482,4.445501-.286698,1.307052,1.14785,1.435453,3.138831.287108,4.445034l-24.179452,27.513668c-.574364.653554-1.359291,1.012432-2.163577,1.064301Z" fill="#afe1b7" stroke="#298638" stroke-miterlimit="10" stroke-width=".75"/><path d="M116.627457,127.109449c-1.286352,1.171403-3.278801,1.077906-4.449908-.208121l-30.913326-33.946822c-4.343571-4.769802-10.272085-7.737297-16.69337-8.356476l-34.497582-3.324385c-1.731755-.166852-2.999918-1.70566-2.833066-3.437415.165935-1.732109,1.70566-2.999918,3.437415-2.833066l34.497582,3.324385c7.980863.769268,15.34895,4.457359,20.74705,10.38517l30.913326,33.946822c1.171107,1.286027,1.078231,3.278505-.208121,4.449908Z" fill="#afe1b7" stroke="#298638" stroke-miterlimit="10" stroke-width=".75"/><path d="M68.903342,92.570214c-.619831.515834-1.4361.794939-2.302548.715596l-36.475864-3.340534c-1.731995-.158293-3.008228-1.691825-2.848978-3.424045.158687-1.732895,1.692444-3.008171,3.424102-2.849597l36.475864,3.340534c1.731995.158293,3.008228,1.691825,2.848978,3.424045-.079006.866166-.502061,1.618448-1.121554,2.134001Z" fill="#afe1b7" stroke="#298638" stroke-miterlimit="10" stroke-width=".75"/><path d="M124.020975,120.376618c-1.286352,1.171403-3.278801,1.077906-4.449908-.208121l-33.525978-36.815851c-3.713339-4.077726-5.765789-9.360043-5.780661-14.875253l-.100114-38.538779c-.005139-1.739177,1.401821-3.154737,3.141532-3.157985,1.739769-.004489,3.153495,1.401763,3.157985,3.141532l.100439,38.538483c.010677,3.948726,1.480631,7.731148,4.138849,10.650215l33.525978,36.815851c1.171107,1.286027,1.078231,3.278505-.208121,4.449908Z" fill="#afe1b7" stroke="#298638" stroke-miterlimit="10" stroke-width=".75"/><path d="M94.056536,69.640293c-.571962.567826-1.360963.917655-2.230719.914188-1.739515-.005691-3.145147-1.421562-3.138525-3.160763l.132611-36.628271c.006315-1.740134,1.421874-3.145457,3.161385-3.138523,1.739515.005691,3.145147,1.421562,3.138525,3.160763l-.132611,36.628271c-.003157.870067-.358704,1.656509-.930666,2.224334Z" fill="#afe1b7" stroke="#298638" stroke-miterlimit="10" stroke-width=".75"/><path d="M97.806406,249.100854c0,1.739795-1.410645,3.15-3.15,3.15h-45.913184c-6.451172,0-12.636914,2.385352-17.418164,6.716162l-25.685156,23.268164c-1.289355,1.168066-3.280957,1.069629-4.449023-.219727-1.168945-1.288916-1.069629-3.280957.219727-4.449023l25.685156-23.268164c5.942285-5.382861,13.630078-8.347412,21.647461-8.347412h45.913184c1.739355,0,3.15,1.410205,3.15,3.15Z" fill="#afe1b7" stroke="#298638" stroke-miterlimit="10" stroke-width=".75"/><path d="M40.324998,261.392614c-.048495.804937-.404024,1.590936-1.055144,2.168058l-27.411183,24.295573c-1.301336,1.153858-3.292842,1.033876-4.446209-.26831-1.154244-1.302239-1.033411-3.293254.267898-4.446674l27.411183-24.295573c1.301336-1.153858,3.292842-1.033876,4.446209.26831.577148.650681.835714,1.474117.787245,2.278616Z" fill="#afe1b7" stroke="#298638" stroke-miterlimit="10" stroke-width=".75"/><path d="M97.806406,239.101098c0,1.739795-1.410645,3.15-3.15,3.15h-49.793555c-5.515137,0-10.802637-2.039062-14.89043-5.741455L1.410605,210.635522c-1.289355-1.167188-1.388672-3.160547-.219727-4.449023,1.168066-1.289355,3.159668-1.387793,4.449023-.219727l28.561816,25.873682c2.926758,2.650781,6.713086,4.110645,10.661133,4.110645h49.793555c1.739355,0,3.15,1.410205,3.15,3.15Z" fill="#afe1b7" stroke="#298638" stroke-miterlimit="10" stroke-width=".75"/><path d="M40.271861,226.883851c.044904.804705-.217306,1.626988-.797331,2.275106-1.159124,1.297065-3.151142,1.408224-4.447353.248613l-27.303293-24.416757c-1.297114-1.160001-1.408248-3.151581-.248198-4.447817,1.159124-1.297065,3.151142-1.408224,4.447353-.248613l27.303293,24.416757c.648557.580001,1.000625,1.368005,1.045529,2.172711Z" fill="#afe1b7" stroke="#298638" stroke-miterlimit="10" stroke-width=".75"/><path d="M372.959874,356.478213c1.38944-1.047064,3.364633-.769197,4.411432.619892l27.632009,36.667322c3.88252,5.152054,9.510292,8.656549,15.846484,9.868546l34.040631,6.509236c1.70882.326729,2.828814,1.976511,2.502085,3.685331-.32585,1.709257-1.976511,2.828814-3.685331,2.502085l-34.040631-6.509236c-7.875132-1.506069-14.869448-5.861556-19.694563-12.264422l-27.632009-36.667322c-1.046799-1.389089-.769548-3.364368.619892-4.411432Z" fill="#afe1b7" stroke="#298638" stroke-miterlimit="10" stroke-width=".75"/><path d="M417.352556,395.043308c.670741-.44764,1.511879-.639167,2.36514-.468953l35.920692,7.166009c1.705668.339941,2.81318,1.999432,2.472264,3.705222-.340428,1.706521-2.000041,2.813058-3.705344,2.472873l-35.920692-7.166009c-1.705668-.339941-2.81318-1.999432-2.472264-3.705222.169848-.853017.669828-1.556525,1.340204-2.003921Z" fill="#afe1b7" stroke="#298638" stroke-miterlimit="10" stroke-width=".75"/><path d="M364.973839,362.496383c1.38944-1.047064,3.364633-.769197,4.411432.619892l29.96734,39.766275c3.319184,4.404515,4.872927,9.854406,4.376275,15.347228l-3.47426,38.381988c-.156168,1.732159-1.688339,3.011143-3.420854,2.853042-1.732688-.15687-3.009912-1.688166-2.853042-3.420854l3.473909-38.381724c.355559-3.9327-.757293-7.835141-3.133353-10.988141l-29.96734-39.766275c-1.046799-1.389089-.769548-3.364368.619892-4.411432Z" fill="#afe1b7" stroke="#298638" stroke-miterlimit="10" stroke-width=".75"/><path d="M390.287531,415.791562c.62668-.506792,1.447135-.77467,2.312039-.682876,1.72994.182352,2.984486,1.733676,2.80124,3.463209l-3.852418,36.425358c-.183035,1.730493-1.734018,2.984762-3.463827,2.801174-1.72994-.182352-2.984486-1.733676-2.80124-3.463209l3.852418-36.425358c.091518-.865246.525107-1.611506,1.151788-2.118298Z" fill="#afe1b7" stroke="#298638" stroke-miterlimit="10" stroke-width=".75"/><path d="M232.596341,394.30833c-1.739795,0-3.15,1.410645-3.15,3.15v45.913184c0,6.451172-2.385352,12.636914-6.716162,17.418164l-23.268164,25.685156c-1.168066,1.289355-1.069629,3.280957.219727,4.449023,1.288916,1.168945,3.280957,1.069629,4.449023-.219727l23.268164-25.685156c5.382861-5.942285,8.347412-13.630078,8.347412-21.647461v-45.913184c0-1.739355-1.410205-3.15-3.15-3.15Z" fill="#afe1b7" stroke="#298638" stroke-miterlimit="10" stroke-width=".75"/><path d="M220.660758,452.048267c-.805787.031339-1.59918.370046-2.19004,1.008726l-24.873903,26.887483c-1.181314,1.276464-1.103777,3.270074.173548,4.450915,1.277359,1.181719,3.270496,1.103321,4.451371-.173126l24.873903-26.887483c1.181314-1.276464,1.103777-3.270074-.173548-4.450915-.638241-.590877-1.455983-.866922-2.261331-.8356Z" fill="#afe1b7" stroke="#298638" stroke-miterlimit="10" stroke-width=".75"/><path d="M242.596097,394.30833c-1.739795,0-3.15,1.410645-3.15,3.15v49.793555c0,5.515137,2.039062,10.802637,5.741455,14.89043l25.874121,28.561816c1.167188,1.289355,3.160547,1.388672,4.449023.219727,1.289355-1.168066,1.387793-3.159668.219727-4.449023l-25.873682-28.561816c-2.650781-2.926758-4.110645-6.713086-4.110645-10.661133v-49.793555c0-1.739355-1.410205-3.15-3.15-3.15Z" fill="#afe1b7" stroke="#298638" stroke-miterlimit="10" stroke-width=".75"/><path d="M254.859953,451.809584c-.804578-.047135-1.627584.212795-2.277308.791021-1.300273,1.155524-1.416954,3.147226-.26094,4.446647l24.340976,27.370873c1.156401,1.300324,3.147665,1.416979,4.447112.260527,1.300273-1.155524,1.416954-3.147226.26094-4.446647l-24.340976-27.370873c-.5782-.650162-1.365226-1.004413-2.169804-1.051548Z" fill="#afe1b7" stroke="#298638" stroke-miterlimit="10" stroke-width=".75"/><path d="M350.252797,119.880683c-1.126547-1.325812-.964696-3.313877.360782-4.440139l34.988187-29.729568c4.916122-4.177244,8.085417-10.000376,8.9247-16.396616l4.506867-34.363103c.226212-1.725006,1.807654-2.939587,3.532659-2.713376,1.725391.225308,2.939587,1.807654,2.713376,3.532659l-4.506867,34.363103c-1.04283,7.949746-4.981723,15.186861-11.091378,20.378253l-34.988187,29.729568c-1.325478,1.126262-3.313592.96503-4.440139-.360782Z" fill="#afe1b7" stroke="#298638" stroke-miterlimit="10" stroke-width=".75"/><path d="M386.31384,73.347391c-.491186-.63954-.738138-1.466105-.624951-2.328785l4.765238-36.317218c.225943-1.724475,1.808239-2.939725,3.5329-2.712817,1.725359.226372,2.939644,1.808855,2.713433,3.532981l-4.765238,36.317218c-.225943,1.724475-1.808239,2.939725-3.5329,2.712817-.862412-.112838-1.597564-.565005-2.088482-1.204196Z" fill="#afe1b7" stroke="#298638" stroke-miterlimit="10" stroke-width=".75"/><path d="M356.727809,127.501007c-1.126547-1.325812-.964696-3.313877.360782-4.440139l37.945228-32.242174c4.202815-3.571145,9.552488-5.441021,15.064957-5.266525l38.519494,1.223138c1.738328.054577,3.104747,1.509309,3.048261,3.248106-.055247,1.738897-1.509209,3.103508-3.248106,3.048261l-38.51921-1.222803c-3.946765-.124905-7.777426,1.214317-10.786039,3.770744l-37.945228,32.242174c-1.325478,1.126262-3.313592.96503-4.440139-.360782Z" fill="#afe1b7" stroke="#298638" stroke-miterlimit="10" stroke-width=".75"/><path d="M408.485621,99.588604c-.556188-.583286-.890051-1.379174-.869062-2.248683.040735-1.739047,1.484637-3.115869,3.223351-3.07421l36.618165.870507c1.739654.041371,3.116173,1.484955,3.074195,3.223972-.040735,1.739047-1.484637,3.115869-3.223351,3.07421l-36.618165-.870507c-.869827-.020685-1.648946-.392004-2.205134-.975289Z" fill="#afe1b7" stroke="#298638" stroke-miterlimit="10" stroke-width=".75"/><path d="M120.03256,350.325027c-1.368947-1.073718-3.34914-.834072-4.422587.534529l-28.335419,36.126506c-3.981354,5.076065-9.675798,8.471153-16.034228,9.560482l-34.160061,5.85021c-1.714814.293647-2.866481,1.921477-2.572834,3.636291.292759,1.715235,1.921477,2.866481,3.636291,2.572834l34.160061-5.85021c7.902765-1.353606,14.979942-5.57312,19.927887-11.881548l28.335419-36.126506c1.073447-1.368601.834418-3.348869-.534529-4.422587Z" fill="#afe1b7" stroke="#298638" stroke-miterlimit="10" stroke-width=".75"/><path d="M74.867446,387.905565c-.664732-.456516-1.50325-.659206-2.358698-.500349l-36.01277,6.687916c-1.710036.317239-2.839508,1.961862-2.521295,3.672034.317715,1.710896,1.962473,2.839394,3.672147,2.521906l36.01277-6.687916c1.710036-.317239,2.839508-1.961862,2.521295-3.672034-.158495-.855199-.64908-1.565291-1.31345-2.021558Z" fill="#afe1b7" stroke="#298638" stroke-miterlimit="10" stroke-width=".75"/><path d="M127.900806,356.496398c-1.368947-1.073718-3.34914-.834072-4.422587.534529l-30.730198,39.179752c-3.403678,4.339551-5.062446,9.7584-4.672032,15.259794l2.731907,38.441959c.122666,1.734854,1.629835,3.043206,3.365082,2.918615,1.735396-.123357,3.041972-1.629686,2.918615-3.365082l-2.731561-38.441687c-.279496-3.938837.90856-7.819043,3.345105-10.92554l30.730198-39.179752c1.073447-1.368601.834418-3.348869-.534529-4.422587Z" fill="#afe1b7" stroke="#298638" stroke-miterlimit="10" stroke-width=".75"/><path d="M101.941597,409.304287c-.607129-.530058-1.416901-.828676-2.284651-.769554-1.735585.117004-3.047723,1.619929-2.929811,3.355141l2.476451,36.544699c.117666,1.736163,1.62026,3.048012,3.355761,2.929769,1.735585-.117004,3.047723-1.619929,2.929811-3.355141l-2.476451-36.544699c-.058833-.868081-.463981-1.630157-1.07111-2.160215Z" fill="#afe1b7" stroke="#298638" stroke-miterlimit="10" stroke-width=".75"/><path d="M402.952503,219.761467c-.000001-1.739795,1.410642-3.150001,3.149998-3.150002l45.913184-.000032c6.451172-.000004,12.636912-2.38536,17.418159-6.716174l25.68514-23.268182c1.289355-1.168067,3.280956-1.069631,4.449024.219723,1.168946,1.288915,1.069631,3.280956-.219723,4.449024l-25.68514,23.268182c-5.942281,5.382865-13.630072,8.347422-21.647455,8.347427l-45.913184.000032c-1.739355.000001-3.150001-1.410203-3.150002-3.149998Z" fill="#afe1b7" stroke="#298638" stroke-miterlimit="10" stroke-width=".75"/><path d="M460.373646,207.384307c.052564-.804681.412063-1.588873,1.066092-2.162695l27.533676-24.156666c1.307153-1.147264,3.298027-1.017214,4.444795.290788,1.147645,1.308059,1.016747,3.298437-.290378,4.445262l-27.533676,24.156666c-1.307153,1.147264-3.298027,1.017214-4.444795-.290788-.573851-.653591-.82825-1.478324-.775714-2.282567Z" fill="#afe1b7" stroke="#298638" stroke-miterlimit="10" stroke-width=".75"/><path d="M402.95251,229.761223c-.000001-1.739795,1.410642-3.150001,3.149998-3.150002l49.793555-.000034c5.515137-.000004,10.802638,2.039055,14.890434,5.741445l28.561834,25.874101c1.289356,1.167187,1.388674,3.160546.21973,4.449023-1.168066,1.289356-3.159667,1.387795-4.449023.21973l-28.561834-25.873662c-2.92676-2.650779-6.713089-4.11064-10.661136-4.110637l-49.793555.000034c-1.739355.000001-3.150001-1.410203-3.150002-3.149998Z" fill="#afe1b7" stroke="#298638" stroke-miterlimit="10" stroke-width=".75"/><path d="M460.578194,241.852229c-.038841-.805021.229556-1.625305.814447-2.269035,1.168862-1.288296,3.161661-1.384446,4.4491-.215103l27.118585,24.621742c1.288339,1.16974,1.384467,3.1621.214685,4.44956-1.168862,1.288296-3.161661,1.384446-4.4491.215103l-27.118585-24.621742c-.644169-.58487-.990291-1.375504-1.029133-2.180525Z" fill="#afe1b7" stroke="#298638" stroke-miterlimit="10" stroke-width=".75"/><path d="M419.060618,259.006268c.378051,25.898751,3.308617,51.446507-4.424156,71.589694-8.860846,23.081714-26.038714,42.994916-42.692473,58.519234-17.208333,16.041281-38.814252,30.129184-61.031123,38.10127-21.950828,7.876622-47.39718,6.321906-70.970854,6.321341-23.574045-.000566-49.751674,3.589671-71.701707-4.288421-22.216303-7.973659-40.76628-26.592671-57.972567-42.636228-16.651174-15.525956-35.20364-33.312486-44.060892-56.396121-7.729206-20.143738-11.808225-45.328122-11.426864-71.227117-.378174-25.897906,11.660591-48.027127,19.393817-68.169449,8.861206-23.080311,18.044446-45.437411,34.698758-60.960568,17.208362-16.039575,41.415751-21.321556,63.632412-29.292705,21.950239-7.875559,43.88776-12.495834,67.460713-12.495229,23.573295.000605,48.236247-2.973205,70.185701,4.903882,22.216052,7.972762,46.836053,17.485431,64.042408,33.527265,16.651759,15.524774,29.606443,38.596605,38.464202,61.678755,7.729805,20.142851,6.783889,44.926285,6.402625,70.824396Z" fill="url(#radial-gradient)"/><path d="M419.060618,259.006268c.378051,25.898751,3.308617,51.446507-4.424156,71.589694-8.860846,23.081714-26.038714,42.994916-42.692473,58.519234-17.208333,16.041281-38.814252,30.129184-61.031123,38.10127-21.950828,7.876622-47.39718,6.321906-70.970854,6.321341-23.574045-.000566-49.751674,3.589671-71.701707-4.288421-22.216303-7.973659-40.76628-26.592671-57.972567-42.636228-16.651174-15.525956-35.20364-33.312486-44.060892-56.396121-7.729206-20.143738-11.808225-45.328122-11.426864-71.227117-.378174-25.897906,11.660591-48.027127,19.393817-68.169449,8.861206-23.080311,18.044446-45.437411,34.698758-60.960568,17.208362-16.039575,41.415751-21.321556,63.632412-29.292705,21.950239-7.875559,43.88776-12.495834,67.460713-12.495229,23.573295.000605,48.236247-2.973205,70.185701,4.903882,22.216052,7.972762,46.836053,17.485431,64.042408,33.527265,16.651759,15.524774,29.606443,38.596605,38.464202,61.678755,7.729805,20.142851,6.783889,44.926285,6.402625,70.824396Z" fill="none" stroke="#08506f" stroke-miterlimit="10" stroke-width="3"/><ellipse cx="251.762021" cy="271.120828" rx="154.666667" ry="142.407857" fill="url(#radial-gradient-2)"/></svg>