<?xml version="1.0" encoding="UTF-8"?><svg id="Layer_1" xmlns="http://www.w3.org/2000/svg" width="510.32878" height="783.95557" xmlns:xlink="http://www.w3.org/1999/xlink" viewBox="0 0 510.32878 783.95557"><defs><radialGradient id="radial-gradient" cx="432.93819" cy="196.15039" fx="432.93819" fy="196.15039" r="11.20179" gradientTransform="translate(-155.67803 213.55757) rotate(-31.58263)" gradientUnits="userSpaceOnUse"><stop offset="0" stop-color="#f1f7eb"/><stop offset=".19763" stop-color="#edf5e7"/><stop offset=".36977" stop-color="#e2f1dc"/><stop offset=".53249" stop-color="#d0e9ca"/><stop offset=".68935" stop-color="#b7deb1"/><stop offset=".84204" stop-color="#97d091"/><stop offset=".98967" stop-color="#70c06a"/><stop offset="1" stop-color="#6dbf67"/></radialGradient><radialGradient id="radial-gradient-2" cx="123.32027" cy="372.00717" fx="123.32027" fy="372.00717" r="11.20179" gradientTransform="translate(-162.50201 747.12998) rotate(-103.22544)" xlink:href="#radial-gradient"/></defs><line x1="360.47613" y1="219.37965" x2="363.13304" y2="191.86233" fill="none" stroke="#282566" stroke-linecap="round" stroke-miterlimit="10" stroke-width="3.1654"/><line x1="360.39389" y1="219.49144" x2="334.91598" y2="230.2217" fill="none" stroke="#282566" stroke-linecap="round" stroke-miterlimit="10" stroke-width="3.1654"/><path d="M407.93078,491.50846c-6.85703,3.36464-15.4989,2.42568-22.29075,1.68737-.66559-.07182-1.32061-.14314-1.96072-.20938l-23.43136-2.71012c-2.08558-.24061-3.58017-2.12643-3.33916-4.21118.24122-2.08433,2.12538-3.57914,4.21097-3.33854l23.38348,2.70519c.60924.06227,1.27731.13493,1.9572.20852,8.18751.88907,17.46614,1.89797,21.81209-4.04475,1.76539-2.44252,2.50086-5.69524,3.28009-9.13891.42623-1.88627.86746-3.83674,1.50282-5.7538,1.05667-3.34365,2.65811-6.54794,4.74352-9.47556,2.91719-4.12417,6.6037-7.68075,10.1688-11.12042,2.33424-2.25194,4.54017-4.37996,6.51174-6.62758l.09184-.10137c7.42356-7.87373,8.97722-17.81024,4.26275-27.2617-5.08534-10.80768-14.7622-17.46855-25.00598-24.52039-10.73373-7.38912-21.8336-15.02953-27.68862-27.84203-3.10535-6.63289-4.00562-13.57568-2.59012-20.04669l.02764-.11638c1.28783-5.11149,3.40465-9.50848,5.27319-13.38788,4.08232-8.47896,7.03183-14.60565,1.3897-24.92005-5.80599-10.26295-16.56423-15.36611-27.95418-20.76904-12.9771-6.15675-26.39677-12.52263-32.83606-27.16845-3.91921-9.18905-2.71985-18.63449-1.55997-27.76864.26886-2.11856.52335-4.11899.71519-6.12071.61186-6.22812.3194-11.07686-.91966-15.26639-4.10822-12.79062-14.53452-21.19602-27.18362-21.85236-13.09889-.68006-24.72669,6.8346-30.34482,19.60996-.847,1.92169-3.08827,2.79393-5.00872,1.94839-1.92108-.84472-2.7929-3.08723-1.9486-5.0081,6.81826-15.50014,21.61497-24.97457,37.6965-24.14008,15.88017.82426,28.92799,11.24721,34.05148,27.20251,1.55183,5.2441,1.93236,11.01376,1.22168,18.24107-.2022,2.10911-.47609,4.26166-.73969,6.3425-1.08024,8.50451-2.09987,16.53647.99374,23.79205,5.28308,12.01323,16.86176,17.50596,29.1197,23.32162,11.95717,5.67233,24.32095,11.53734,31.33831,23.9408,7.54276,13.78823,3.1066,23.0014-1.18352,31.91196-1.78678,3.71115-3.63467,7.54838-4.7362,11.88955-1.03703,4.80967-.32021,10.05577,2.07545,15.1747,4.99685,10.93273,14.76162,17.65484,25.10014,24.77129,10.626,7.31487,21.61359,14.87808,27.53565,27.46705,6.07985,12.18603,4.02803,25.5704-5.52389,35.7387-2.16969,2.46727-4.57603,4.7892-6.90463,7.03579-3.46416,3.34209-6.7369,6.49934-9.24835,10.04985-1.63147,2.29002-2.87672,4.78169-3.71043,7.41712-.53392,1.61411-.91591,3.30198-1.32044,5.08925-.87046,3.84958-1.85682,8.21278-4.54525,11.93123-1.82534,2.49725-4.04457,4.24429-6.48892,5.44402Z" fill="#c8c1df" stroke="#282566" stroke-miterlimit="10" stroke-width="1.9"/><line x1="255.6312" y1="197.72532" x2="253.55405" y2="184.4337" fill="none" stroke="#282566" stroke-linecap="round" stroke-miterlimit="10" stroke-width="3.1654"/><line x1="253.53149" y1="184.43105" x2="260.05688" y2="175.06801" fill="none" stroke="#282566" stroke-linecap="round" stroke-miterlimit="10" stroke-width="3.1654"/><polygon points="260.06276 175.03234 250.5928 160.38398 261.59784 146.85092 277.86929 153.13539 276.92056 170.55246 260.06276 175.03234" fill="none" stroke="#282566" stroke-linecap="round" stroke-miterlimit="10" stroke-width="3.1654"/><line x1="233.25792" y1="583.97973" x2="230.77101" y2="556.44652" fill="none" stroke="#282566" stroke-linecap="round" stroke-miterlimit="10" stroke-width="3.1654"/><line x1="233.33946" y1="584.09203" x2="258.75061" y2="594.97945" fill="none" stroke="#282566" stroke-linecap="round" stroke-miterlimit="10" stroke-width="3.1654"/><circle cx="315.86523" cy="153.91359" r="11.20179" fill="url(#radial-gradient)" stroke="#134d26" stroke-miterlimit="10" stroke-width="1.5827"/><text transform="translate(349.91321 193.78085) rotate(-28.99027)" fill="#282566" font-family="TimesNewRomanPS-BoldMT, &apos;Times New Roman&apos;" font-size="14.2443" font-weight="700"><tspan x="0" y="0">SH</tspan></text><line x1="233.76058" y1="102.33654" x2="225.25475" y2="76.00219" fill="none" stroke="#282566" stroke-linecap="round" stroke-miterlimit="10" stroke-width="3.37418"/><line x1="233.87353" y1="102.42361" x2="264.00875" y2="105.8762" fill="none" stroke="#282566" stroke-linecap="round" stroke-miterlimit="10" stroke-width="3.37418"/><line x1="332.35314" y1="81.96341" x2="336.64129" y2="109.2741" fill="none" stroke="#282566" stroke-linecap="round" stroke-miterlimit="10" stroke-width="3.1654"/><line x1="332.40491" y1="81.83463" x2="354.40265" y2="65.09064" fill="none" stroke="#282566" stroke-linecap="round" stroke-miterlimit="10" stroke-width="3.1654"/><text transform="translate(265.22912 118.5381) rotate(-26.09742)" fill="#282566" font-family="TimesNewRomanPS-BoldMT, &apos;Times New Roman&apos;" font-size="14.2443" font-weight="700"><tspan x="0" y="0">SH</tspan></text><text transform="translate(336.67076 123.10661) rotate(-26.13329)" fill="#282566" font-family="TimesNewRomanPS-BoldMT, &apos;Times New Roman&apos;" font-size="14.2443" font-weight="700"><tspan x="0" y="0">SH</tspan></text><line x1="305.35523" y1="143.76948" x2="304.00806" y2="142.32062" fill="none" stroke="#231f20" stroke-linecap="round" stroke-miterlimit="10" stroke-width="1.5827"/><line x1="301.80933" y1="139.95563" x2="298.5105" y2="136.40803" fill="none" stroke="#231f20" stroke-dasharray="3.22939 3.22939" stroke-linecap="round" stroke-miterlimit="10" stroke-width="1.5827"/><line x1="297.41138" y1="135.22553" x2="280.9187" y2="117.48774" fill="none" stroke="#231f20" stroke-dasharray="3.22939 3.22939 3.22939 3.22939" stroke-linecap="round" stroke-miterlimit="10" stroke-width="1.5827"/><line x1="279.81909" y1="116.30524" x2="278.47193" y2="114.85627" fill="none" stroke="#231f20" stroke-linecap="round" stroke-miterlimit="10" stroke-width="1.5827"/><line x1="348.15405" y1="177.79706" x2="346.72388" y2="176.42975" fill="none" stroke="#231f20" stroke-linecap="round" stroke-miterlimit="10" stroke-width="1.5827"/><line x1="344.44263" y1="174.24787" x2="341.02027" y2="170.97504" fill="none" stroke="#231f20" stroke-dasharray="3.15695 3.15695" stroke-linecap="round" stroke-miterlimit="10" stroke-width="1.5827"/><line x1="339.87915" y1="169.8841" x2="331.8938" y2="162.2475" fill="none" stroke="#231f20" stroke-dasharray="3.15695 3.15695 3.15695 3.15695" stroke-linecap="round" stroke-miterlimit="10" stroke-width="1.5827"/><line x1="330.75318" y1="161.15656" x2="329.323" y2="159.78913" fill="none" stroke="#231f20" stroke-linecap="round" stroke-miterlimit="10" stroke-width="1.5827"/><line x1="301.10376" y1="156.67219" x2="299.17456" y2="157.11139" fill="none" stroke="#231f20" stroke-linecap="round" stroke-miterlimit="10" stroke-width="1.5827"/><line x1="296.91577" y1="157.62555" x2="293.5271" y2="158.39692" fill="none" stroke="#231f20" stroke-dasharray="2.31692 2.31692" stroke-linecap="round" stroke-miterlimit="10" stroke-width="1.5827"/><line x1="292.39722" y1="158.65412" x2="284.49048" y2="160.45392" fill="none" stroke="#231f20" stroke-dasharray="2.31692 2.31692 2.31692 2.31692" stroke-linecap="round" stroke-miterlimit="10" stroke-width="1.5827"/><line x1="283.3606" y1="160.71113" x2="281.43189" y2="161.15021" fill="none" stroke="#231f20" stroke-linecap="round" stroke-miterlimit="10" stroke-width="1.5827"/><line x1="338.08814" y1="124.41828" x2="337.17114" y2="126.17145" fill="none" stroke="#231f20" stroke-linecap="round" stroke-miterlimit="10" stroke-width="1.5827"/><line x1="335.88062" y1="128.6391" x2="333.94458" y2="132.34052" fill="none" stroke="#231f20" stroke-dasharray="2.78482 2.78482" stroke-linecap="round" stroke-miterlimit="10" stroke-width="1.5827"/><line x1="333.29907" y1="133.57441" x2="328.78198" y2="142.21125" fill="none" stroke="#231f20" stroke-dasharray="2.78482 2.78482 2.78482 2.78482" stroke-linecap="round" stroke-miterlimit="10" stroke-width="1.5827"/><line x1="328.13648" y1="143.44513" x2="327.21948" y2="145.19819" fill="none" stroke="#231f20" stroke-linecap="round" stroke-miterlimit="10" stroke-width="1.5827"/><line x1="191.40174" y1="626.23529" x2="164.94801" y2="618.20644" fill="none" stroke="#282566" stroke-linecap="round" stroke-miterlimit="10" stroke-width="3.1654"/><line x1="191.49514" y1="626.33795" x2="196.99281" y2="653.43108" fill="none" stroke="#282566" stroke-linecap="round" stroke-miterlimit="10" stroke-width="3.1654"/><text transform="translate(159.23448 616.52447) rotate(-26.77773)" fill="#282566" font-family="TimesNewRomanPS-BoldMT, &apos;Times New Roman&apos;" font-size="14.2443" font-weight="700"><tspan x="0" y="0">SH</tspan></text><line x1="185.79954" y1="433.43455" x2="159.99874" y2="423.50576" fill="none" stroke="#282566" stroke-linecap="round" stroke-miterlimit="10" stroke-width="3.1654"/><line x1="185.88523" y1="433.54373" x2="189.4008" y2="460.96458" fill="none" stroke="#282566" stroke-linecap="round" stroke-miterlimit="10" stroke-width="3.1654"/><text transform="translate(190.01159 475.2157) rotate(-26.77773)" fill="#282566" font-family="TimesNewRomanPS-BoldMT, &apos;Times New Roman&apos;" font-size="14.2443" font-weight="700"><tspan x="0" y="0">SH</tspan></text><text transform="translate(96.77208 508.34397) rotate(-26.77773)" fill="#282566" font-family="TimesNewRomanPS-BoldMT, &apos;Times New Roman&apos;" font-size="14.2443" font-weight="700"><tspan x="0" y="0">SH</tspan></text><line x1="72.82826" y1="476.50793" x2="74.32132" y2="448.90299" fill="none" stroke="#282566" stroke-linecap="round" stroke-miterlimit="10" stroke-width="3.1654"/><line x1="72.89283" y1="476.63078" x2="96.47695" y2="491.05476" fill="none" stroke="#282566" stroke-linecap="round" stroke-miterlimit="10" stroke-width="3.1654"/><text transform="translate(218.10665 556.5642) rotate(-26.13329)" fill="#282566" font-family="TimesNewRomanPS-BoldMT, &apos;Times New Roman&apos;" font-size="14.2443" font-weight="700"><tspan x="0" y="0">HS</tspan></text><circle cx="171.42499" cy="541.97155" r="11.20179" fill="url(#radial-gradient-2)" stroke="#134d26" stroke-miterlimit="10" stroke-width="1.5827"/><line x1="160.08032" y1="531.6037" x2="158.2898" y2="530.76288" fill="none" stroke="#231f20" stroke-linecap="round" stroke-miterlimit="10" stroke-width="1.5827"/><line x1="155.17798" y1="529.3017" x2="150.5105" y2="527.11005" fill="none" stroke="#231f20" stroke-dasharray="3.43765 3.43765" stroke-linecap="round" stroke-miterlimit="10" stroke-width="1.5827"/><line x1="148.95435" y1="526.37934" x2="113.17066" y2="509.57612" fill="none" stroke="#231f20" stroke-dasharray="3.43765 3.43765 3.43765 3.43765" stroke-linecap="round" stroke-miterlimit="10" stroke-width="1.5827"/><line x1="111.6145" y1="508.84565" x2="109.82398" y2="508.00458" fill="none" stroke="#231f20" stroke-linecap="round" stroke-miterlimit="10" stroke-width="1.5827"/><line x1="163.61206" y1="598.09296" x2="164.08228" y2="596.17133" fill="none" stroke="#231f20" stroke-linecap="round" stroke-miterlimit="10" stroke-width="1.5827"/><line x1="164.90845" y1="592.79609" x2="166.14722" y2="587.73334" fill="none" stroke="#231f20" stroke-dasharray="3.47475 3.47475" stroke-linecap="round" stroke-miterlimit="10" stroke-width="1.5827"/><line x1="166.5603" y1="586.04584" x2="172.75513" y2="560.73237" fill="none" stroke="#231f20" stroke-dasharray="3.47475 3.47475 3.47475 3.47475" stroke-linecap="round" stroke-miterlimit="10" stroke-width="1.5827"/><line x1="173.16821" y1="559.04462" x2="173.63843" y2="557.12299" fill="none" stroke="#231f20" stroke-linecap="round" stroke-miterlimit="10" stroke-width="1.5827"/><line x1="216.90357" y1="542.47553" x2="214.9397" y2="542.23823" fill="none" stroke="#231f20" stroke-linecap="round" stroke-miterlimit="10" stroke-width="1.5827"/><line x1="211.21558" y1="541.78827" x2="205.62964" y2="541.11323" fill="none" stroke="#231f20" stroke-dasharray="3.75114 3.75114" stroke-linecap="round" stroke-miterlimit="10" stroke-width="1.5827"/><line x1="203.76734" y1="540.88813" x2="190.73316" y2="539.31293" fill="none" stroke="#231f20" stroke-dasharray="3.75114 3.75114 3.75114 3.75114" stroke-linecap="round" stroke-miterlimit="10" stroke-width="1.5827"/><line x1="188.87134" y1="539.08784" x2="186.90698" y2="538.85053" fill="none" stroke="#231f20" stroke-linecap="round" stroke-miterlimit="10" stroke-width="1.5827"/><line x1="189.98023" y1="475.28852" x2="189.48853" y2="477.20478" fill="none" stroke="#231f20" stroke-linecap="round" stroke-miterlimit="10" stroke-width="1.5827"/><line x1="188.42017" y1="481.36738" x2="186.81812" y2="487.61127" fill="none" stroke="#231f20" stroke-dasharray="4.29748 4.29748" stroke-linecap="round" stroke-miterlimit="10" stroke-width="1.5827"/><line x1="186.28394" y1="489.69257" x2="178.27173" y2="520.91205" fill="none" stroke="#231f20" stroke-dasharray="4.29748 4.29748 4.29748 4.29748" stroke-linecap="round" stroke-miterlimit="10" stroke-width="1.5827"/><line x1="177.73755" y1="522.99335" x2="177.24585" y2="524.90961" fill="none" stroke="#231f20" stroke-linecap="round" stroke-miterlimit="10" stroke-width="1.5827"/><path d="M508.8254,113.31872c-.55996.80322-1.41718,1.40109-2.45266,1.6128-11.74545,2.4024-22.66238-4.37264-29.75255-10.47894-7.06848-6.08741-13.04863-13.25218-18.83194-20.18175-3.2116-3.84704-6.53184-7.8254-9.95763-11.51182-11.44539-12.31348-22.4298-18.95187-33.58111-20.29353-12.89384-1.55221-25.83117,4.14834-38.34247,9.66073-1.99317.87802-3.97855,1.75299-5.95621,2.5966-21.31086,9.09238-37.75784,9.8667-50.2802,2.36622-9.02467-5.405-14.39249-14.28796-19.58418-22.87762-1.47247-2.43773-2.99576-4.95799-4.55174-7.29755-7.61629-11.45282-17.189-19.90403-27.68347-24.43919-11.81115-5.10452-24.9191-5.0368-35.06327.1814-10.87975,5.59565-17.74313,17.29603-16.69012,28.45215.55978,5.92863,3.12449,11.53194,5.84026,17.46383,2.54869,5.56954,5.18467,11.32805,6.23971,17.67259,2.89055,17.39239-8.38794,36.00159-25.14415,41.48355-4.46686,1.46156-9.03288,2.02214-13.44832,2.56335-4.33626.53235-8.43244,1.03518-12.24549,2.32983-4.28125,1.45341-8.2866,4.8448-9.97299,8.44351-.99748,2.1308-1.13647,4.1639-.41257,6.04303.78479,2.03839-.23037,4.32832-2.27018,5.11447-2.03937.78552-4.32874-.23113-5.11447-2.27018-1.50645-3.91125-1.28825-8.14443.63086-12.24317,2.61785-5.59089,8.21145-10.4139,14.59533-12.58141,4.5845-1.55665,9.28236-2.13272,13.8256-2.69035,4.226-.51878,8.21717-1.00814,11.9511-2.22983,13.19443-4.31736,22.07548-18.97005,19.79918-32.66526-.88242-5.30569-3.18824-10.34323-5.6293-15.67663-2.87007-6.26933-5.83742-12.75249-6.52277-20.01312-1.3497-14.29465,7.26295-29.19475,20.94889-36.23398,12.22624-6.2886,27.86075-6.44139,41.82212-.4078,11.9022,5.1435,22.6677,14.59112,31.1336,27.32111,1.65034,2.48259,3.21903,5.0769,4.73513,7.5865,4.90703,8.11896,9.54173,15.78805,16.87741,20.18139,10.19359,6.10591,24.2948,5.17152,43.10833-2.85545,1.94976-.83197,3.90636-1.69403,5.87119-2.55978,13.48678-5.94209,27.43281-12.08686,42.47882-10.27592,13.08749,1.5751,25.65868,9.02107,38.43171,22.76317,3.56986,3.84056,6.95902,7.90182,10.23681,11.82891,5.83477,6.99088,11.34585,13.59407,17.92014,19.25594,5.74754,4.94985,14.40341,10.48116,23.00343,8.7225,2.14083-.43782,4.2314.94235,4.669,3.0835.22643,1.10557-.03244,2.19783-.63084,3.0562Z" fill="#c8c1df" stroke="#282566" stroke-miterlimit="10" stroke-width="1.5827"/><path d="M28.74536,276.19928c-4.54415.71638-8.43455,3.87678-11.4788,7.14457-3.81773,4.09807-6.93607,8.72468-9.51508,13.69068-2.61197,5.02947-4.8314,10.28301-6.02649,15.84186-1.00674,4.68277-1.61529,9.8662.40698,14.38319,3.48252,7.7786,10.15912,13.84248,16.87088,18.83107,6.35458,4.72311,13.23411,8.71169,19.37337,13.72754.68475.55945,1.36058,1.12989,2.02489,1.71349.156.13705.31147.27473.46624.41318.02839.0254.78009.72018.29952.26879-.41147-.38648.07717.07566.1773.17017.22537.21272.44911.42712.67113.64334,1.28271,1.24918,2.50884,2.5578,3.65114,3.93697.57916.69925,1.13661,1.41655,1.66842,2.15247.23472.3248.46435.65334.68831.98566.11168.16572.21987.33361.33101.49965.50386.75274-.33206-.571.08734.14538.90293,1.5423,1.71645,3.12356,2.35758,4.79417.14216.37044.26943.74554.40226,1.11929.32536.91548-.14355-.56206.009.03062.04967.19299.10986.38356.16151.57614.24783.92415.44574,1.8616.59041,2.80745.11775.76986.18193,1.54168.24958,2.31687.05094.58375-.01547-.96566-.00377-.05619.00234.18187.00953.36368.01193.54558.006.45477.00117.90969-.01251,1.36428-.04951,1.64616-.22407,3.28719-.47876,4.91367-.1144.73061-.24542,1.45859-.38901,2.18402-.01205.0609-.18745.96525-.06155.31714.10901-.5612-.0098.04189-.04047.18059-.10078.45569-.20576.91041-.31405,1.36437-1.59617,6.69157-3.91953,13.2647-4.64265,20.13854-.80525,7.65444.96631,15.13522,5.66965,21.29931,4.7871,6.27386,11.86411,10.47168,18.97441,13.61093,7.68271,3.39196,15.89775,5.74502,24.04598,7.7169,8.69612,2.10446,17.52842,3.65346,26.43167,4.54864,7.88542.79284,16.03345,1.30612,23.84841-.348,7.46539-1.58013,14.9088-5.4192,18.68836-12.34729,3.88968-7.12994,3.71412-15.24096,1.10624-22.77787-5.83825-16.87284-23.34052-24.52176-36.21206-35.10091-.77666-.63834-1.54189-1.2907-2.29234-1.95968-.16648-.14841-.33178-.2981-.49725-.44763.1082.09778.60371.56701.04568.03741-.40305-.38252-.8052-.76568-1.19959-1.15718-1.40779-1.39745-2.74302-2.86957-3.96943-4.42922-.57365-.72952-1.12249-1.47862-1.64297-2.24698-.12211-.18027-.2381-.36492-.36161-.54414-.36859-.53483.46989.80866-.06139-.09894-.27487-.46956-.55288-.93582-.81233-1.41432-.41539-.76609-.8004-1.54886-1.15099-2.34672-.1982-.45106-.38507-.90698-.56085-1.36723-.09809-.25684-.19314-.51476-.28389-.77429-.03994-.11421-.27681-.95136-.1242-.35644.16143.62929-.06462-.25712-.08008-.31484-.04786-.17874-.09337-.35822-.13684-.53806-.0872-.36074-.16522-.72379-.23432-1.08843-.16497-.87063-.28019-1.75026-.34718-2.6338-.02194-.2894-.20283-.81827-.00534.02978-.03634-.15603-.01154-.41282-.01349-.56175-.0049-.37469-.00108-.74958.01139-1.1241.02958-.88868.10641-1.77548.23097-2.65588.04751-.33577.04746-.94788.20798-1.24169-.0388.07102-.21234.89393-.03929.18488.04401-.18033.08556-.36096.13157-.54085.20557-.80372.45341-1.59693.74492-2.37366.14445-.38491.29991-.76555.46594-1.14164.09179-.20793.19175-.41199.28488-.61924.24139-.53723-.15237.0688-.11832.21677-.08812-.38296,1.03953-1.74456,1.26413-2.06346.23023-.3269.47126-.64615.72298-.9568.1115-.1376.22724-.27154.34039-.4077.54054-.65046-.05248.12921-.09384.09602-.0154-.01236,1.41305-1.30593,1.56081-1.42361.31023-.24708.65187-.45704.95988-.7048.4423-.35578-.85841.4753-.08154.04963.15627-.08562.3084-.17803.46521-.26297.71786-.38885,1.46499-.70847,2.23403-.98096,1.95741-.69355,2.8487-3.4733,1.93151-5.25273-1.05855-2.05368-3.16362-2.67172-5.25273-1.93151-6.79274,2.4068-11.50878,8.92475-13.05327,15.79525-1.71991,7.65085-.42263,15.31092,3.64768,22.02636,4.29776,7.09072,10.49894,12.63547,17.13985,17.49516,3.47184,2.54062,7.06246,4.91385,10.5647,7.41172,1.83425,1.30823,3.64713,2.6478,5.40556,4.05678.7772.62275,1.54408,1.25859,2.2964,1.91121.18767.1628.3746.32651.56049.49134-.03517-.03118.86862.78771.43751.3903-.3582-.3302.2109.20048.28961.2751.22487.21315.44826.42784.66958.64467,1.59521,1.56292,3.09547,3.22477,4.45259,4.99923.4917.6429.94796,1.30657,1.40186,1.9761.54242.80009-.30374-.52741.0031.00419.09839.17046.2035.33721.30294.50714.24929.42602.48886.85751.7187,1.29434.80843,1.53651,1.47475,3.13141,2.04369,4.77056.25295.72876.01327-.06676-.0326-.11946.07339.08433.12927.43554.16649.56727.12025.42561.23122.85376.33265,1.28424.20153.85527.36482,1.71931.48604,2.58962.06013.43174.11014.86479.14921,1.29894.01729.19219.03039.38459.0452.57699.0475.61722-.05401-.13353-.00648-.14648-.04571.01245-.03669,2.34432-.05452,2.57498-.06223.80485-.19075,1.59311-.31688,2.38909-.09325.58847.2498-.93686.0053-.0369-.04932.18155-.09098.36517-.14022.54681-.12308.454-.26295.90375-.41905,1.34747-.21195.60248-.43934,1.61762-.88003,2.08854.4585-.48995.27145-.49377.08705-.18504-.12281.20562-.2373.416-.36194.62067-.22771.37392-.46867.73954-.72255,1.09623-.25762.36195-.52826.71439-.81056,1.0574-.1241.15079-.25572.29555-.37926.44663-.38889.47556.7167-.69894.02685-.03408-.62393.60132-1.24502,1.19295-1.92694,1.72985-.30035.23647-.60765.46429-.92085.68344-.15683.10974-.31627.21483-.47425.32276-.60362.41237.07216-.01951.13986-.08626-.57416.5661-1.702.9504-2.42599,1.28329-.75433.34684-1.52504.65708-2.3073.9351-.18581.06604-.37281.12834-.55934.19233-.7266.24924.06013.01424.11594-.03349-.28606.24469-1.07458.30708-1.44175.40061-1.72313.43896-3.47779.74889-5.24243.96352-.86998.10582-1.74272.18835-2.61689.25048-.25879.01839-1.40473.07491-.53817.0397-.51677.021-1.03352.03968-1.55064.05016-8.1704.16553-16.449-.87251-24.50031-2.17245-2.12378-.3429-4.24169-.72212-6.35248-1.1376-.48246-.09497-.96457-.19178-1.44627-.29056-.24085-.04939-.4815-.09971-.72227-.14953-1.15803-.2396.43425.09946-.25904-.05523-1.0799-.24095-2.16057-.47715-3.2378-.73003-4.24852-.99735-8.46237-2.14234-12.63115-3.43308-3.78301-1.17129-7.54887-2.42818-11.20538-3.95414-.78513-.32766-1.56515-.66773-2.33892-1.02138-.43578-.19917-.8695-.40277-1.3011-.61084-.19175-.09244-.38306-.18577-.57391-.28005-.10598-.05235-1.04549-.53331-.52459-.26088.49156.25708-.11539-.06333-.23391-.12645-.18721-.09972-.37388-.20041-.56001-.30215-.41777-.22836-.83277-.46173-1.24461-.70062-.81823-.47462-1.62399-.97112-2.41393-1.49151-1.50994-.9947-2.96336-2.07751-4.32737-3.26515-.1825-.1589-.74577-.62439-.01348.0036-.15259-.13086-.29813-.27888-.44252-.41759-.29135-.27989-.57742-.5654-.85777-.85631-.62615-.64973-1.22455-1.3269-1.78732-2.03232-.52963-.66388-1.0112-1.35712-1.48854-2.05875-.34576-.50823.46743.83365-.00508-.02023-.09648-.17435-.20116-.34454-.29855-.51842-.24429-.43614-.47471-.88033-.69069-1.33116-.349-.72847-.66073-1.47532-.93099-2.23654-.06841-.19269-.13162-.38666-.1976-.5801.26808.78592.07909.2548.03414.07933-.11337-.44252-.23408-.88148-.3318-1.32797-.17328-.7917-.30523-1.59246-.39847-2.39748-.04116-.35534-.0747-.71162-.10112-1.06835-.01265-.17078-.04416-.36676-.03419-.53479-.06164,1.03942.01595.16373.01237-.06005-.02512-1.57136.07826-3.14289.26926-4.70218.09398-.76718.20935-1.53159.34119-2.29315.06249-.361.129-.72132.19864-1.081.03495-.18048.07213-.36049.10731-.54092.18389-.94323-.19449.86105.01572-.07917.35577-1.59127.75179-3.17218,1.17116-4.74783,1.73777-6.52906,3.87008-13.14504,4.02257-19.95578.17311-7.73218-2.43525-14.86543-7.03651-21.03006-4.48626-6.01055-10.51109-10.84029-16.63722-15.08671-3.28794-2.27909-6.65152-4.44694-9.92698-6.74448-1.66506-1.16795-3.31019-2.36544-4.91177-3.61937-.77192-.60436-1.53391-1.22139-2.28268-1.85423-.39438-.33332-.78527-.67075-1.17176-1.01318-.17132-.15178-.34104-.30529-.51143-.45811.53559.48033.00633.00332-.22231-.21392-1.39598-1.32634-2.72485-2.72593-3.94841-4.21348-.64461-.78369-1.26092-1.59081-1.84219-2.42264-.25876-.3703-.50867-.74633-.75509-1.12491.08311.12768.39324.65487.00848.00342-.17325-.29334-.34707-.58573-.51418-.88266-.3791-.6736-.75106-1.35923-1.06377-2.06658-.08323-.18827-.15016-.38242-.22914-.5722-.24515-.58911.2776,1.10797.04868.15497-.21165-.88114-.33208-1.7484-.42056-2.64933-.05668-.57709.01491,1.06881.01364.18317-.00037-.25645-.00563-.51253-.00155-.76906.0085-.53445.03687-1.06841.08087-1.60108.09207-1.11438.25327-2.22254.46183-3.32086.02498-.13155.05285-.26271.0771-.3944.11293-.61319-.08231.38171-.08873.40695.07618-.29948.13475-.60454.20679-.9052.14795-.6175.30931-1.2317.48198-1.84273.34985-1.23808.74715-2.46266,1.18213-3.67339.91328-2.54207,1.99143-5.02503,3.20095-7.43985.52045-1.03909-.33323.61807.10349-.20635.16487-.31123.32887-.62285.4968-.93245.33472-.61711.67849-1.22932,1.03141-1.83621.67649-1.16329,1.38647-2.30721,2.13216-3.42743,1.40866-2.11616,2.95697-4.11261,4.63111-6.02402.35173-.40158-.76152.80369-.23648.2581.09279-.09642.18336-.19509.27581-.29184.18242-.19093.36679-.38.55338-.56686.4067-.40729.8234-.80469,1.2516-1.18934.79431-.71353,1.62831-1.386,2.51226-1.98572.33733-.22886.95926-.43491-.17214.09728.19084-.08977.37022-.2226.55463-.32589.38105-.21345.7711-.41122,1.17086-.5873.20254-.08921.40719-.17361.61448-.2512.08969-.03357.18327-.06153.27165-.09771.49262-.20169-.59669.17874-.55985.17281.40257-.06483.79565-.20606,1.20198-.27012,2.04855-.32295,3.65878-2.53273,3.20011-4.59032-.47429-2.12767-2.40473-3.54466-4.59032-3.20011h0Z" fill="#c8c1df" stroke="#282566" stroke-miterlimit="10" stroke-width="1.5827"/><path d="M228.47938,232.18521c-12.80238,12.43139-28.337,20.80221-45.10531,26.99578-10.99687,4.4576-29.23223,16.94641-37.01585,22.43874-2.96362,2.09121-5.80181,4.35256-8.47591,6.80314-18.28554,16.7571-30.55307,37.96192-38.92146,60.86969,8.20057,6.85847,15.463,14.21003,23.24817,21.48616,9.22882-32.69765,31.0127-61.00418,61.58116-76.59917,9.82661-4.99272,20.27006-8.89681,30.39059-13.62463,3.6823-1.87091,7.19952-3.89061,10.78689-6.07132,2.51002-1.5258,4.95291-3.16624,7.31355-4.91429,4.52581-3.35135,8.77276-6.76173,13.00163-10.52047,3.40711,6.26683,8.16774,11.62291,12.39857,17.56682,4.53617-9.76097,7.95471-19.46392,11.07934-29.43178,3.33151-11.3794,5.28048-22.40687,6.3187-34.78786.06183-4.20563.71149-7.88145.77332-12.08708-.1648-3.17444.01013-6.2549-.0446-9.35272-.03994-2.26077-2.66877-3.47694-4.42634-2.0544-9.96953,8.0691-21.2114,13.68485-33.83873,17.61929-1.77412.55278-3.58369.98019-5.40941,1.32634-2.37743.45075-5.85767,1.19877-6.25528,1.21941-.55882.02901-8.61814,1.28789-12.23594,1.75586,5.40648,7.00352,10.51905,13.74214,14.83691,21.36249h0Z" fill="#c8c1df" stroke="#282566" stroke-miterlimit="10" stroke-width="2.76972"/><path d="M372.88893,558.99941l-.1216.15109c-4.98964,6.19949-14.62966,5.63649-26.01008,2.54036-12.59117-22.7345-39.77853-50.88027-28.85907-64.89163l.1216-.15109c4.99354-6.20434,14.62964-5.63646,26.01005-2.54033,12.59119,22.73447,39.77853,50.88027,28.85909,64.8916Z" fill="#4d4b7e" stroke="#282566" stroke-miterlimit="10" stroke-width="1.88803"/><path d="M309.73863,640.05724l-.1216.15109c-4.99354,6.20434-14.62988,5.63627-26.01005,2.54033-12.59117-22.7345-39.77853-50.88027-28.85931-64.89183l.1216-.15109c4.98961-6.19946,14.62988-5.63627,26.01005-2.54033,12.59117,22.7345,39.77853,50.88027,28.85931,64.89183Z" fill="#4d4b7e" stroke="#282566" stroke-miterlimit="10" stroke-width="1.88803"/><path d="M246.58305,721.11078l-.1216.15109c-4.99356,6.20437-14.62851,5.64541-25.99996,2.5485-12.59533-22.72982-39.78359-50.88434-28.86412-64.8957l.1216-.15109c4.98964-6.19949,14.62482-5.64034,25.99604-2.54362,12.59533,22.72982,39.78749,50.87949,28.86805,64.89082Z" fill="#4d4b7e" stroke="#282566" stroke-miterlimit="10" stroke-width="1.88803"/><path d="M165.56166,754.51194c-4.02324-5.87726-7.94039-11.71526-10.99698-17.23415-11.37143-3.09694-21.01146-3.65994-26.005,2.5444l-.1216.15109c-7.47862,9.59815,2.92013,25.82782,14.26164,42.4071,7.97822-9.78602,17.60345-21.55382,22.86193-27.86844Z" fill="#4d4b7e" stroke="#282566" stroke-miterlimit="10" stroke-width="1.88803"/><path d="M372.76733,559.1505l-22.53962,28.00487c-10.83316,13.90412-44.30009-5.17733-69.3484-11.98995-11.38017-3.09594-21.02044-3.65913-26.01005,2.54033l22.53959-28.00484c10.83318-13.90415,44.30009,5.17733,69.3484,11.98995,11.38042,3.09613,21.02044,3.65913,26.01008-2.54036Z" fill="#c8c1df" stroke="#282566" stroke-miterlimit="10" stroke-width="1.88803"/><path d="M309.61702,640.20833l-22.53962,28.00487c-10.8334,13.90393-44.30512-5.18143-69.36241-11.99324-11.37121-3.09672-21.0064-3.65587-25.99604,2.54362l22.53962-28.00487c10.82417-13.90331,44.29503,5.17326,69.3484,11.98995,11.38017,3.09594,21.01651,3.66401,26.01005-2.54033Z" fill="#c8c1df" stroke="#282566" stroke-miterlimit="10" stroke-width="1.88803"/><path d="M246.46144,721.26187l-22.53962,28.00487c-10.83292,13.90431-44.29984-5.17714-69.35714-11.98895-11.37143-3.09694-21.01146-3.65994-26.005,2.5444l22.53962-28.00487c10.83316-13.90412,44.30488,5.18124,69.36217,11.99305,11.37146,3.09691,21.0064,3.65587,25.99996-2.5485Z" fill="#c8c1df" stroke="#282566" stroke-miterlimit="10" stroke-width="1.88803"/><path d="M367.77648,501.7193c2.01132-2.56705,4.02262-5.13407,6.03394-7.70112,5.30383-6.74863,10.65318-13.4616,16.01897-20.16149-20.42413-7.56818-41.17251-15.60662-49.26999-5.21343l-22.53962,28.00487c4.99354-6.20434,14.62964-5.63646,26.01005-2.54033,7.34482,1.99828,15.41236,5.04899,23.42129,8.01475.10954-.13364.21506-.27017.32535-.40325Z" fill="#c8c1df" stroke="#282566" stroke-miterlimit="10" stroke-width="1.88803"/></svg>