<?xml version="1.0" encoding="UTF-8"?><svg xmlns="http://www.w3.org/2000/svg" width="443.872513" height="305.716136" viewBox="0 0 443.872513 305.716136"><g isolation="isolate"><g id="Layer_1"><path d="M213.111087,240.706126c-.049927,5.960205-.75,11.699951-2.019897,17.110107-2.970093,12.699951-9.080078,23.679932-17.220093,31.839844-.670044.670166-1.339966,1.310059-2.029907,1.940186-.700073.629883-1.400146,1.23999-2.120117,1.829834-1.069946.880127-2.169922,1.720215-3.300049,2.51001-.75.530029-1.509888,1.030029-2.289917,1.52002-3.099976,1.940186-6.369995,3.540039-9.779907,4.77002-.430176.150146-.860107.300049-1.290039.440186-5.920044,1.939941-12.25,2.739746-18.77002,2.219727-.030029-.009766-.050049-.009766-.080078-.009766-.049927,0-.099976-.010254-.149902-.010254-3.340088-.269775-6.700073-.199707-10.050049.100098-.23999.02002-.48999.040039-.72998.060059-.679932.060059-1.360107.109863-2.040039.159912-.419922.030029-.839966.060059-1.25.090088-.929932.060059-1.849976.109863-2.76001.149902-.119995.01001-.22998.01001-.339966.01001-.890015.050049-1.77002.080078-2.650024.100098-.399902.01001-.800049.02002-1.199951.030029-.969971.02002-1.930054.030029-2.890015.030029h-.02002c-.880005,0-1.76001-.01001-2.630005-.030029-.280029,0-.560059-.01001-.830078-.01001-.799927-.02002-1.589844-.050049-2.369873-.080078-.360107-.02002-.709961-.030029-1.060059-.050049-.75-.029785-1.5-.079834-2.23999-.129883-.98999-.060059-1.97998-.140137-2.959961-.22998-.969971-.080078-1.939941-.180176-2.900024-.290039-.72998-.080078-1.460083-.169922-2.170044-.26001-.349976-.050049-.709961-.099854-1.059937-.139893-.940063-.140137-1.880005-.280029-2.800049-.430176-.599976-.099854-1.199951-.199951-1.789917-.310059-.110107-.02002-.210083-.039795-.320068-.059814-.320068-.060059-.630005-.110107-.939941-.179932-.390137-.070068-.790039-.150146-1.180054-.22998-.609985-.120117-1.210083-.25-1.809937-.390137-.590088-.120117-1.180054-.26001-1.76001-.399902-.880127-.209961-1.73999-.420166-2.600098-.650146-.02002-.01001-.040039-.01001-.049927-.02002-.720093-.189941-1.430054-.379883-2.130005-.590088-.98999-.289795-1.969971-.589844-2.929932-.899902-.710083-.22998-1.410156-.459961-2.100098-.709961-.780029-.27002-1.540039-.550049-2.300049-.830078-.280029-.109863-.549927-.209961-.819946-.319824-.069946-.030029-.140015-.050049-.210083-.080078-.619873-.23999-1.22998-.48999-1.839844-.75-.720093-.290039-1.420044-.600098-2.120117-.910156-.109863-.049805-.209961-.099854-.309937-.139893-.730103-.329834-1.450073-.669922-2.160034-1.02002-.560059-.27002-1.109985-.539795-1.659912-.829834-.300049-.150146-.600098-.300049-.890137-.459961-.01001,0-.029907-.010254-.039917-.02002-.559937-.290039-1.119995-.600098-1.670044-.910156-.659912-.359863-1.310059-.73999-1.949951-1.120117-.280029-.159912-.560059-.329834-.830078-.5-.599854-.359863-1.189941-.72998-1.77002-1.109863-.519897-.330078-1.039917-.669922-1.539917-1.02002-.589966-.389893-1.170044-.800049-1.73999-1.209961-.26001-.179932-.52002-.370117-.77002-.560059-.619995-.449951-1.22998-.919922-1.829956-1.389893-.5-.390137-1-.790039-1.48999-1.190186-1.920044-1.579834-3.75-3.239746-5.48999-4.97998-.5-.5-1-1.02002-1.48999-1.540039-.450073-.459961-.880127-.939941-1.310059-1.419922-.209961-.219971-.410034-.449951-.600098-.679932-.399902-.449951-.799927-.909912-1.179932-1.369873q-.01001-.010254-.02002-.02002c-.069946-.080078-.139893-.170166-.209961-.25-4.48999-5.360107-9.409912-10.320068-14.689941-14.910156-.050049-.040039-.090088-.080078-.140137-.119873-1.609863-1.390137-3.169922-2.820068-4.679932-4.27002-.159912-.150146-.310059-.300049-.459961-.449951-.630005-.620117-1.26001-1.240234-1.880005-1.870117-.609985-.629883-1.210083-1.26001-1.809937-1.899902-.140137-.150146-.290039-.300049-.430176-.459961-.649902-.700195-1.279907-1.410156-1.909912-2.120117-.060059-.070068-.119995-.140137-.169922-.199951-1.350098-1.540039-2.640137-3.100098-3.890137-4.690186-.119873-.149902-.23999-.299805-.349854-.449951-.550049-.699951-1.080078-1.419922-1.610107-2.129883-.619995-.830078-1.219971-1.679932-1.810059-2.52002-.539917-.77002-1.059937-1.540039-1.569946-2.320068-.119995-.169922-.22998-.339844-.329956-.51001-.51001-.77002-1-1.550049-1.48999-2.340088,0,0-.01001-.009766-.02002-.019775-.51001-.830078-1.01001-1.670166-1.51001-2.52002-.070068-.130127-.150024-.27002-.22998-.400146-.439941-.77002-.869995-1.540039-1.290039-2.319824-.02002-.030029-.040039-.060059-.050049-.100098-.459961-.839844-.909912-1.679932-1.349854-2.540039-.170166-.330078-.340088-.659912-.5-1-.300049-.600098-.600098-1.199951-.890137-1.810059-.030029-.059814-.059937-.119873-.079956-.189941-.410034-.850098-.799927-1.709961-1.190063-2.580078-.01001-.02002-.01001-.029785-.019897-.049805-.359985-.810059-.710083-1.630127-1.050049-2.450195-.459961-1.099854-.900024-2.219727-1.319946-3.329834-.25-.659912-.5-1.320068-.72998-1.97998-.110107-.300049-.219971-.600098-.320068-.900146-.320068-.899902-.619995-1.810059-.909912-2.719971-.290039-.919922-.580078-1.840088-.850098-2.76001-.050049-.169922-.099976-.339844-.139893-.51001-.25-.849854-.48999-1.709961-.710083-2.570068-.219971-.839844-.440063-1.679932-.640015-2.529785-.070068-.290039-.139893-.590088-.209961-.900146-.160034-.699951-.320068-1.399902-.459961-2.099854-.320068-1.48999-.610107-2.98999-.860107-4.5-.109863-.630127-.209961-1.26001-.309937-1.880127-.150024-.949951-.280029-1.899902-.400024-2.849854-.25-1.870117-.449951-3.76001-.599976-5.660156-.030029-.349854-.059937-.709961-.079956-1.069824-.01001-.090088-.02002-.180176-.02002-.27002-.060059-.77002-.100098-1.540039-.140015-2.310059-.01001,0-.01001-.01001,0-.030029-.050049-.909912-.089966-1.820068-.109985-2.72998-.01001-.189941-.02002-.380127-.01001-.570068-.030029-.939941-.040039-1.869873-.040039-2.810059v-.049805c0-.860107.01001-1.72998.030029-2.590088.01001-.669922.030029-1.349854.060059-2.02002,0-.050049,0-.099854.01001-.149902,0,.119873,0,.22998.009888.349854.02002.560059.050049,1.120117.079956,1.669922.030029.570068.060059,1.140137.110107,1.710205.040039.570068.079956,1.129883.129883,1.689941.040039.560059.090088,1.119873.150146,1.679932l.179932,1.680176c.099976.889893.209961,1.779785.330078,2.659912.059937.540039.139893,1.070068.22998,1.599854.109863.810059.23999,1.620117.389893,2.420166.090088.550049.190063,1.099854.290039,1.659912.100098.560059.199951,1.110107.320068,1.649902.109863.52002.209961,1.050293.319946,1.570068.130005.570068.26001,1.150146.390015,1.719971.109985.459961.219971.930176.329956,1.400146.329956,1.329834.670044,2.649902,1.050049,3.959961.099976.380127.209961.76001.319946,1.139893.050049.180176.100098.360107.160034.540039.170044.570068.339966,1.140137.52002,1.709961.099976.320068.209961.640137.309937.959961.219971.690186.449951,1.370117.690063,2.050293.130005.379883.259888.759766.400024,1.129883.219971.629883.449951,1.25.679932,1.870117.790039,2.079834,1.640015,4.139893,2.550049,6.179932.319946.72998.659912,1.459961,1,2.189941.099976.209961.199951.419922.300049.630127.339844.699707.679932,1.389893,1.019897,2.069824.579956,1.129883,1.170044,2.25,1.77002,3.360107.380005.689941.76001,1.369873,1.150024,2.050049.130005.219727.26001.429932.380005.649902.449951.76001.900024,1.52002,1.359985,2.27002l.01001.01001c.540039.879883,1.099976,1.75,1.659912,2.609863.47998.730225.970093,1.449951,1.470093,2.170166.199951.299805.410034.599854.619995.899902.469971.660156.939941,1.320068,1.419922,1.969971.02002.030029.040039.060059.060059.080078,1.199951,1.629883,2.439941,3.219971,3.73999,4.790039.030029.030029.050049.059814.080078.089844.649902.790039,1.319946,1.570068,2,2.350098.059937.070068.119873.139893.169922.199951.580078.660156,1.160034,1.310059,1.75,1.949951.109985.120117.219971.230225.320068.350098.629883.659912,1.25,1.320068,1.889893,1.97998.120117.119873.22998.23999.350098.360107.689941.699951,1.399902,1.399902,2.119873,2.099854,1.530029,1.47998,3.120117,2.929932,4.75,4.340088.040039.030029.070068.060059.110107.100098,5.300049,4.579834,10.219971,9.559814,14.719971,14.919922.070068.080078.140015.169922.209961.25,1,1.189941,2.030029,2.359863,3.110107,3.48999.359863.389893.719971.76001,1.099854,1.139893.200073.209961.410156.419922.620117.630127.52002.519775,1.059937,1.030029,1.599976,1.539795.569946.530273,1.150024,1.060059,1.73999,1.580078.559937.48999,1.130005.969971,1.700073,1.450195.069946.059814.139893.109863.209961.169922.540039.439941,1.079956.879883,1.629883,1.299805.160156.130127.310059.25.470093.370117.48999.370117.97998.73999,1.47998,1.109863.049927.040039.109985.080078.170044.120117.609985.439941,1.22998.879883,1.859985,1.310059.660034.449951,1.329956.889893,2.009888,1.330078,0,0,.01001,0,.01001.009766.680054.430176,1.360107.850098,2.050049,1.27002.699951.420166,1.410034.820068,2.120117,1.220215.709961.399902,1.439941.790039,2.169922,1.179932.689941.360107,1.399902.709961,2.109985,1.059814.030029.02002.069946.040039.109985.050293.689941.339844,1.390015.669922,2.100098.989746.109863.050049.22998.100098.349854.160156.700073.310059,1.420044.619873,2.140137.919922.75.320068,1.51001.620117,2.27002.919922.069824.02002.139893.050049.209961.080078.76001.290039,1.530029.580078,2.309937.850098.75.27002,1.48999.52002,2.25.76001.160034.059814.309937.109863.470093.159912.75.23999,1.51001.469971,2.279907.699951.849976.25,1.700073.48999,2.569946.719971.860107.22998,1.73999.450195,2.620117.660156.72998.179932,1.459961.349854,2.199951.5.320068.069824.650024.139893.969971.209961.650024.139893,1.300049.26001,1.949951.389893.180054.030029.370117.070068.550049.100098.76001.139893,1.530029.27002,2.300049.399902.27002.040039.550049.090088.829956.130127.650024.100098,1.300049.199951,1.950073.290039.409912.049805.819946.109863,1.22998.159912.609985.080078,1.22998.150146,1.849976.219971.960083.110107,1.930054.209961,2.900024.290039.97998.089844,1.969971.169922,2.959961.22998.72998.050049,1.47998.090088,2.219971.129883.330078.02002.670044.030273,1.01001.050049.800049.030029,1.610107.060059,2.420044.080078.26001,0,.529907.01001.799927.01001.890137.02002,1.780029.030029,2.680054.030029h.039917c.940063,0,1.890137-.01001,2.850098-.030029.409912-.01001.820068-.02002,1.23999-.040039.830078-.01001,1.659912-.040039,2.5-.080078,1.050049-.040039,2.119995-.099854,3.189941-.169922.450073-.030029.900146-.060059,1.360107-.100098.609863-.039795,1.219971-.079834,1.839966-.139893.279907-.02002.569946-.040039.859985-.070068,3.320068-.290039,6.650024-.359863,9.97998-.099854.070068.01001.150024.01001.219971.02002.330078.030029.670044.050049,1,.070068,15.170044.939941,29.200073-5.310059,39.640137-16.310059.649902-.680176,1.289917-1.380127,1.909912-2.100098,2.48999-2.890137,4.73999-6.050049,6.72998-9.469971.5-.850098.97998-1.719971,1.439941-2.600098.460083-.889893.910156-1.780029,1.340088-2.699951.640015-1.370117,1.23999-2.77002,1.800049-4.199951.73999-1.909912,1.409912-3.869873,2-5.880127.289917-1,.569946-2.02002.819946-3.049805.77002-3.130127,1.359985-6.380127,1.72998-9.709961.140015-1.220215.25-2.460205.319946-3.710205.190063,2.300049.350098,4.130127.170044,5.02002Z" fill="#865924"/><path d="M442.861087,159.156077c-.009888.450195-.019897.890137-.029907,1.340088-.030029,1.070068-.080078,2.139893-.130127,3.199951-.02002.550049-.059937,1.090088-.099854,1.630127-.01001.199951-.02002.399902-.040039.599854-.040039.660156-.090088,1.330078-.150024,1.990234-.050049.629883-.109985,1.259766-.170044,1.899902-.030029.22998-.050049.469971-.079956.709961-.050049.530029-.109985,1.060059-.170044,1.589844-.079956.650146-.169922,1.300293-.25,1.950195-.050049.399902-.099976.790039-.169922,1.189941-.140137,1.040039-.300049,2.070068-.47998,3.100098-.030029.189941-.060059.379883-.090088.560059-.140015.799805-.280029,1.609863-.439941,2.409912-.130127.679932-.27002,1.359863-.410034,2.030029,0,.040039-.01001.069824-.02002.109863,0,.01001,0,.02002-.01001.030029-.119995.560059-.23999,1.110107-.359985,1.670166-.119995.519775-.23999,1.039795-.359985,1.559814-.099976.449951-.210083.889893-.329956,1.340088-.150146.619873-.310059,1.23999-.469971,1.859863-.150146.570068-.300049,1.130127-.460083,1.700195-.26001.909912-.530029,1.829834-.799927,2.739746-.380127,1.240234-.77002,2.480225-1.190063,3.710205-.470093,1.399902-.970093,2.800049-1.48999,4.189941-.26001.689941-.530029,1.389893-.800049,2.080078-.269897.689941-.549927,1.379883-.839966,2.070068-.27002.659912-.550049,1.319824-.840088,1.97998-.019897.049805-.049927.099854-.059937.149902-.289917.659912-.589966,1.310059-.890015,1.969971-.310059.679932-.619995,1.349854-.949951,2.030029-1.610107,3.370117-3.380005,6.689941-5.310059,9.949951-.319946.540039-.639893,1.070068-.969971,1.610107-.060059.109863-.130005.219971-.199951.329834-2.52002,4.100098-6.040039,11.120117-7.830078,15.590088-.280029.689941-.569946,1.390137-.859985,2.070068-.269897.619873-.539917,1.23999-.819946,1.859863-.280029.630127-.570068,1.25-.860107,1.880127-.279907.589844-.569946,1.179932-.859863,1.77002-.040039.099854-.090088.189941-.140137.290039l-.75,1.469727c-.359863.700195-.72998,1.390137-1.109863,2.070068-.320068.570068-.630127,1.140137-.960083,1.699951v.02002c-.349976.590088-.690063,1.180176-1.049927,1.760254-.390137.659912-.800049,1.319824-1.209961,1.969727-.25.390137-.5.780273-.76001,1.170166-.440063.689941-.900146,1.369873-1.370117,2.040039-.379883.559814-.780029,1.119873-1.179932,1.679932-.050049.080078-.110107.159912-.170044.23999-.75,1.030029-1.51001,2.040039-2.299927,3.040039-1.200073,1.530029-2.450073,3.02002-3.73999,4.47998-.420044.48999-.860107.959961-1.300049,1.439941-.25.280029-.51001.550049-.77002.820068-.310059.339844-.619995.659912-.939941.98999l-.080078.079834c-.459961.480225-.929932.950195-1.409912,1.420166-.430054.429932-.870117.860107-1.320068,1.290039-.130005.119873-.26001.23999-.390015.369873-.420044.390137-.849976.780029-1.279907,1.180176-1.580078,1.429932-3.220093,2.819824-4.910156,4.169922-.369873.300049-.75.600098-1.139893.899902-.310059.22998-.620117.470215-.930054.700195-.949951.719727-1.920044,1.429932-2.910034,2.119873-2.789917,1.949951-5.699951,3.780029-8.73999,5.47998-.530029.300049-1.059937.590088-1.599976.880127-.089966.049805-.180054.099854-.269897.149902-.580078.300049-1.170166.609863-1.76001.909912-.610107.310059-1.220093.620117-1.840088.920166-.01001,0-.02002.009766-.030029.02002-.599976.279785-1.199951.569824-1.809937.849854-.040039.02002-.079956.040039-.119995.060059-.48999.22998-.97998.449951-1.47998.669922-.880127.390137-1.780029.780029-2.680054,1.150146-.47998.199951-.959961.389893-1.440063.579834-1.459961.590088-2.949951,1.140137-4.449951,1.660156-.599976.219971-1.199951.419922-1.810059.619873-2.079834.700195-4.199951,1.340088-6.359863,1.930176-1.430054.389893-2.880127.75-4.350098,1.099854-.679932.159912-1.369873.320068-2.059937.459961-.440063.110107-.880005.199951-1.319946.280029-.48999.110107-.98999.209961-1.5.310059-1.100098.219971-2.210083.419922-3.340088.600098-.459961.089844-.909912.159912-1.369995.22998-.709961.119873-1.420044.22998-2.130005.319824-.649902.100098-1.310059.189941-1.969971.27002-.060059.02002-.119995.02002-.189941.02002-.620117.090088-1.25.160156-1.880127.22998-.23999.040039-.47998.060059-.719971.080078-.679932.080078-1.379883.149902-2.069946.219971h-.030029c-.809937.080078-1.609985.150146-2.430054.209961-.599854.050049-1.199951.090088-1.799927.130127s-1.200073.079834-1.809937.109863c-.450073.030029-.900146.050049-1.360107.070068-2.51001.119873-5.079956.179932-7.679932.179932-.790039,0-1.580078-.01001-2.380127-.02002-.769897-.01001-1.559937-.02002-2.339844-.049805-1.660156-.040039-3.330078-.110107-5.01001-.200195-3.560059-.199951-7.120117-.199951-10.670044.090088-15.040039,1.22998-29.01001-4.610107-39.559937-15.159912-.660156-.660156-1.310059-1.340088-1.950073-2.040039-2.859985-3.150146-5.440063-6.660156-7.670044-10.48999-.48999-.850098-.97998-1.719971-1.439941-2.600098-.22998-.439941-.459961-.880127-.679932-1.329834-.890137-1.790039-1.720093-3.640137-2.460083-5.540039-.369995-.950195-.720093-1.910156-1.059937-2.890137-.340088-.97998-.650146-1.969971-.950073-2.969971-.440063-1.5-.839966-3.030029-1.190063-4.580078-.23999-1.039795-.449951-2.089844-.639893-3.149902-.290039-1.590088-.530029-3.199951-.719971-4.830078-.320068-2.72998-.5-5.51001-.530029-8.349854,0-.170166-.030029-.320068-.050049-.47998-.149902-.950195,0-2.760254.189941-5.010254.320068,5.350098,1.180054,10.490234,2.51001,15.350098.27002,1.02002.570068,2.02002.880127,3.01001,1.419922,4.449951,3.23999,8.650146,5.399902,12.540039.47998.869873.97998,1.719971,1.48999,2.550049.52002.839844,1.050049,1.659912,1.590088,2.459961.27002.399902.549927.800049.829956,1.189941.569946.790039,1.140015,1.560059,1.72998,2.310059.299927.379883.599976.75.900024,1.120117.909912,1.099854,1.849976,2.159912,2.830078,3.179932.329834.340088.649902.679932.98999,1.01001,10.549927,10.560059,24.519897,16.389893,39.559937,15.159912,3.539917-.290039,7.109985-.290039,10.660034-.090088,1.339966.070068,2.669922.130127,3.97998.170166.649902.02002,1.300049.039795,1.949951.059814.640015.010254,1.290039.02002,1.929932.030273,3.430176.039795,6.790039-.02002,10.070068-.190186,1.780029-.079834,3.540039-.199951,5.280029-.349854.869995-.080078,1.72998-.160156,2.589966-.240234,1.720093-.169922,3.420044-.369873,5.089966-.609863.630127-.090088,1.26001-.169922,1.880127-.27002.939941-.140137,1.859863-.290039,2.789917-.449951,2.76001-.469971,5.470093-1.030029,8.109985-1.659912.590088-.140137,1.180054-.280273,1.76001-.430176.580078-.139893,1.160034-.290039,1.73999-.449951,1.150024-.310059,2.290039-.639893,3.420044-.969971.559937-.169922,1.119995-.340088,1.680054-.52002.75-.22998,1.47998-.47998,2.219971-.719971,1.099976-.370117,2.189941-.76001,3.26001-1.150146,1.079956-.389893,2.149902-.809814,3.199951-1.239746,1.400024-.570068,2.780029-1.160156,4.140015-1.77002.680054-.310059,1.359985-.620117,2.029907-.940186.670166-.320068,1.330078-.639893,1.98999-.969971.640137-.330078,1.280029-.659912,1.920166-.98999.659912-.340088,1.309937-.699951,1.959961-1.060059.639893-.359863,1.27002-.719971,1.899902-1.079834,1.25-.72998,2.47998-1.47998,3.680054-2.25.589966-.370117,1.170044-.75,1.73999-1.130127.059937-.040039.119995-.079834.180054-.129883.550049-.360107,1.099976-.73999,1.639893-1.120117.620117-.419922,1.22998-.860107,1.840088-1.309814.530029-.400146,1.060059-.790039,1.579956-1.190186.559937-.429932,1.119995-.860107,1.660034-1.300049.550049-.439941,1.089966-.879883,1.630005-1.329834.440063-.370117.880005-.73999,1.319946-1.110107.630127-.540039,1.25-1.089844,1.860107-1.649902.48999-.450195.98999-.910156,1.469971-1.360107,1.030029-.97998,2.040039-1.969971,3.01001-2.97998.449951-.459961.889893-.929932,1.329956-1.399902,1.599976-1.710205,3.130005-3.469971,4.579956-5.280029.680054-.830078,1.340088-1.680176,2-2.540039.380127-.52002.77002-1.030029,1.140015-1.550049.25-.349854.5-.689941.740112-1.040039,1.48999-2.109863,2.889893-4.269775,4.209961-6.48999.27002-.439941.530029-.889893.780029-1.330078q.01001-.009766.01001-.019775c.329834-.560059.649902-1.130127.959961-1.699951.199951-.350098.389893-.700195.579956-1.060059.25-.47998.5-.959961.76001-1.439941,1.47998-2.890137,2.839966-5.870117,4.059937-8.910156.02002-.040039.030029-.080078.050049-.120117,1.810059-4.459961,5.280029-11.409912,7.790039-15.469727.179932-.300049.359985-.590088.540039-.890137,1.429932-2.359863,2.779907-4.77002,4.039917-7.199951.390015-.73999.77002-1.48999,1.140015-2.23999.780029-1.570068,1.52002-3.140137,2.22998-4.73999.26001-.600098.52002-1.190186.780029-1.790039.399902-.920166.780029-1.850098,1.149902-2.790039.280029-.699951.560059-1.399902.820068-2.110107.25-.659912.5-1.329834.73999-2,.640015-1.75,1.22998-3.52002,1.780029-5.289795.219971-.699951.429932-1.400146.630005-2.100098.180054-.570068.339966-1.139893.48999-1.719971.140015-.459961.26001-.919922.380005-1.379883.149902-.550049.290039-1.110107.429932-1.660156.180054-.699951.350098-1.389893.51001-2.089844.130127-.52002.25-1.050049.360107-1.570068.119873-.530029.22998-1.050049.339966-1.580078.140015-.649902.269897-1.300049.390015-1.959961.159912-.810059.300049-1.610107.439941-2.420166.100098-.589844.199951-1.179932.290039-1.769775.139893-.810059.26001-1.610107.359985-2.420166.01001-.040039.02002-.089844.02002-.129883.009888-.040039.019897-.070068.019897-.110107.02002-.139893.040039-.280029.050049-.419922.100098-.689941.189941-1.380127.26001-2.070068.050049-.389893.100098-.790039.130005-1.179932.119995-1.02002.220093-2.040039.299927-3.070068.050049-.540039.090088-1.089844.120117-1.629883.109985-1.469971.189941-2.939941.23999-4.410156.02002.410156.030029.810059.040039,1.220215.02002.329834.030029.659912.030029.989746.029907,1.600098.029907,3.200195.009888,4.790039Z" fill="#865924"/><path d="M229.131106,224.036204c-.579956-5.179932-2.5-9.72998-7.630005-10.72998-.359985-.070068-.73999-.060059-1.089966.01001-5.140015,1.080078-7.059937,5.609863-7.640015,10.72998-.340088-4.719971-.530029-10.640137,1.320068-14.899902,1.159912-2.670166,3.109863-4.700195,6.309937-5.370117.359985-.070068.73999-.070068,1.099976,0,8.25,1.600098,8.199951,12.409912,7.630005,20.26001Z" fill="#865924"/><path d="M442.851199,149.636058c-.01001.400146-.01001.790039-.030029,1.190186-.01001.419922-.02002.859863-.040039,1.280029v.049805c-.050049,1.470215-.130005,2.940186-.23999,4.410156-.030029.540039-.070068,1.089844-.120117,1.629883-.079834,1.030029-.179932,2.050049-.299927,3.070068-.029907.389893-.079956.790039-.130005,1.179932-.070068.689941-.159912,1.380127-.26001,2.070068-.01001.139893-.030029.280029-.050049.419922,0,.040039-.01001.070068-.019897.110107,0,.040039-.01001.089844-.02002.129883-.099976.810059-.220093,1.610107-.359985,2.420166-.090088.589844-.189941,1.179932-.290039,1.769775-.139893.810059-.280029,1.610107-.439941,2.420166-.120117.659912-.25,1.310059-.390015,1.959961-.109985.530029-.220093,1.050049-.339966,1.580078-.110107.52002-.22998,1.050049-.360107,1.570068-.159912.699951-.329956,1.389893-.51001,2.089844-.139893.550049-.280029,1.110107-.429932,1.660156-.119995.459961-.23999.919922-.380005,1.379883-.150024.580078-.309937,1.149902-.48999,1.719971-.200073.699951-.410034,1.400146-.630005,2.100098-.550049,1.769775-1.140015,3.539795-1.780029,5.289795-.23999.670166-.48999,1.340088-.73999,2-.26001.710205-.540039,1.410156-.820068,2.110107-.369873.939941-.75,1.869873-1.149902,2.790039-.26001.599854-.52002,1.189941-.780029,1.790039-.709961,1.599854-1.449951,3.169922-2.22998,4.73999-.369995.75-.75,1.5-1.140015,2.23999-1.26001,2.429932-2.609985,4.840088-4.039917,7.199951-.180054.300049-.360107.590088-.540039.890137-1.469971,2.389893-3.030029,4.75-4.670044,7.049805-.170044.23999-.299927.5-.390015.780029-.820068,2.590088-1.72998,5.139893-2.72998,7.639893-.02002.040039-.030029.080078-.050049.120117-1.219971,3.040039-2.579956,6.02002-4.059937,8.910156-.26001.47998-.51001.959961-.76001,1.439941-.190063.359863-.380005.709961-.579956,1.060059-.310059.569824-.630127,1.139893-.959961,1.699951q0,.01001-.01001.019775c-.25.440186-.51001.890137-.780029,1.330078-1.320068,2.220215-2.719971,4.380127-4.209961,6.48999-.240112.350098-.490112.690186-.740112,1.040039-.369995.52002-.759888,1.030029-1.140015,1.550049-.659912.859863-1.319946,1.709961-2,2.540039-1.449951,1.810059-2.97998,3.569824-4.579956,5.280029-.440063.469971-.880005.939941-1.329956,1.399902-.969971,1.01001-1.97998,2-3.01001,2.97998-.47998.449951-.97998.909912-1.469971,1.360107-.610107.560059-1.22998,1.109863-1.860107,1.649902-.439941.370117-.879883.73999-1.319946,1.110107-.540039.449951-1.079956.889893-1.630005,1.329834-.540039.439941-1.100098.870117-1.660034,1.300049-.519897.400146-1.049927.790039-1.579956,1.190186-.610107.449707-1.219971.889893-1.840088,1.309814-.539917.380127-1.089844.76001-1.639893,1.120117-.060059.050049-.120117.089844-.180054.129883-.569946.380127-1.150024.76001-1.73999,1.130127-1.200073.77002-2.430054,1.52002-3.680054,2.25-.629883.359863-1.26001.719971-1.899902,1.079834-.650024.360107-1.300049.719971-1.959961,1.060059-.640137.330078-1.280029.659912-1.920166.98999-.659912.330078-1.319824.649902-1.98999.969971-.669922.320068-1.349854.630127-2.029907.940186-1.359985.609863-2.73999,1.199951-4.140015,1.77002-1.050049.429932-2.119995.849854-3.199951,1.239746-1.070068.390137-2.160034.780029-3.26001,1.150146-.73999.23999-1.469971.48999-2.219971.719971-.560059.179932-1.120117.350098-1.680054.52002-1.130005.330078-2.27002.659912-3.420044.969971-.579956.159912-1.159912.310059-1.73999.449951-.579956.149902-1.169922.290039-1.76001.430176-1.97998.469727-4,.899902-6.050049,1.289795-.679932.130127-1.369873.25-2.059937.370117-.930054.159912-1.849976.309814-2.789917.449951-.620117.100098-1.25.179932-1.880127.27002-1.669922.22998-3.369873.429932-5.089966.609863-.859985.080078-1.719971.160156-2.589966.240234-1.73999.139893-3.5.259766-5.280029.349854-3.280029.170166-6.639893.22998-10.070068.190186-.639893-.010254-1.289917-.02002-1.929932-.030273-.649902-.02002-1.300049-.039795-1.949951-.059814-1.310059-.040039-2.640015-.100098-3.97998-.170166-1.969971-.109863-3.959961-.25-5.97998-.429932-.22998-.02002-.460083-.01001-.690063.030029-1.339966.219971-2.670044.379883-3.98999.48999-15.040039,1.22998-29.01001-4.599854-39.559937-15.159912-.340088-.330078-.660156-.669922-.98999-1.01001-.980103-1.02002-1.920166-2.080078-2.830078-3.179932-.300049-.370117-.600098-.740234-.900024-1.120117-.589966-.75-1.160034-1.52002-1.72998-2.310059-.280029-.389893-.559937-.790039-.829956-1.189941-.540039-.800049-1.070068-1.620117-1.590088-2.459961-.51001-.830078-1.01001-1.680176-1.48999-2.550049-2.159912-3.889893-3.97998-8.090088-5.399902-12.540039-.310059-.98999-.610107-1.98999-.880127-3.01001-1.329956-4.859863-2.189941-10-2.51001-15.350098-.089844-1.339844-.139893-2.689941-.149902-4.049805,0-.160156-.02002-.320068-.050049-.47998-.199951-1.290039.140015-4.140137.390015-7.550049.569946-7.850098.619995-18.659912-7.630005-20.26001-.359985-.070068-.73999-.070068-1.099976,0-3.200073.669922-5.150024,2.699951-6.309937,5.370117-1.850098,4.259766-1.660156,10.179932-1.320068,14.899902.23999,3.280029.570068,5.97998.339966,7.129883-.009888,1.52002-.069946,3.02002-.170044,4.51001-.069946,1.25-.179932,2.48999-.319946,3.710205-.369995,3.329834-.959961,6.579834-1.72998,9.709961-.25,1.029785-.530029,2.049805-.819946,3.049805-.590088,2.010254-1.26001,3.970215-2,5.880127-.560059,1.429932-1.160034,2.829834-1.800049,4.199951-.429932.919922-.880005,1.810059-1.340088,2.699951-.459961.880127-.939941,1.75-1.439941,2.600098-1.98999,3.419922-4.23999,6.579834-6.72998,9.469971-.619995.719971-1.26001,1.419922-1.909912,2.100098-10.440063,11-24.470093,17.25-39.640137,16.310059-.329956-.02002-.669922-.040039-1-.070068-.069946-.01001-.149902-.01001-.219971-.02002-1.219971-.110107-2.439941-.26001-3.669922-.460205-.26001-.039795-.530029-.049805-.790039-.019775-2.150024.26001-4.280029.47998-6.380005.649902-.619995.060059-1.230103.100098-1.839966.139893-.459961.040039-.910034.070068-1.360107.100098-1.069946.070068-2.139893.129883-3.189941.169922-.840088.040039-1.669922.070068-2.5.080078-.419922.02002-.830078.030029-1.23999.040039-.959961.02002-1.910034.030029-2.850098.030029h-.039917c-.900024,0-1.789917-.01001-2.680054-.030029-.27002,0-.539917-.01001-.799927-.01001-.809937-.02002-1.619995-.050049-2.420044-.080078-.339966-.019775-.679932-.030029-1.01001-.050049-.73999-.039795-1.48999-.079834-2.219971-.129883-.98999-.060059-1.97998-.140137-2.959961-.22998-.969971-.080078-1.939941-.179932-2.900024-.290039-.619995-.069824-1.23999-.139893-1.849976-.219971-.410034-.050049-.820068-.110107-1.22998-.159912-.650024-.090088-1.300049-.189941-1.950073-.290039-.279907-.040039-.559937-.090088-.829956-.130127-.77002-.129883-1.540039-.26001-2.300049-.399902-.179932-.030029-.369995-.070068-.550049-.100098-.649902-.129883-1.299927-.25-1.949951-.389893-.319946-.070068-.649902-.140137-.969971-.209961-.73999-.150146-1.469971-.320068-2.199951-.5-.880127-.209961-1.76001-.430176-2.620117-.660156-.869873-.22998-1.719971-.469971-2.569946-.719971-.769897-.22998-1.529907-.459961-2.279907-.699951-.160156-.050049-.310059-.100098-.470093-.159912-.76001-.23999-1.5-.48999-2.25-.76001-.779907-.27002-1.549927-.560059-2.309937-.850098-.070068-.030029-.140137-.060059-.209961-.080078-.76001-.299805-1.52002-.599854-2.27002-.919922-.720093-.300049-1.440063-.609863-2.140137-.919922-.119873-.060059-.23999-.110107-.349854-.160156-.710083-.319824-1.410156-.649902-2.100098-.989746-.040039-.010254-.079956-.030273-.109985-.050293-.710083-.349854-1.420044-.699707-2.109985-1.059814-.72998-.389893-1.459961-.780029-2.169922-1.179932-.710083-.400146-1.420166-.800049-2.120117-1.220215-.689941-.419922-1.369995-.839844-2.050049-1.27002,0-.009766-.01001-.009766-.01001-.009766-.679932-.440186-1.349854-.880127-2.009888-1.330078-.630005-.430176-1.25-.870117-1.859985-1.310059-.060059-.040039-.120117-.080078-.170044-.120117-.5-.369873-.98999-.739746-1.47998-1.109863-.160034-.120117-.309937-.23999-.470093-.370117-.549927-.419922-1.089844-.859863-1.629883-1.299805-.070068-.060059-.140015-.110107-.209961-.169922-.570068-.480225-1.140137-.960205-1.700073-1.450195-.589966-.52002-1.170044-1.049805-1.73999-1.580078-.540039-.509766-1.079956-1.02002-1.599976-1.539795-.209961-.210205-.420044-.420166-.620117-.630127-.379883-.379883-.73999-.75-1.099854-1.139893-1.080078-1.130127-2.110107-2.300049-3.110107-3.48999-.069946-.080078-.139893-.169922-.209961-.25-1.959961-2.370117-3.77002-4.850098-5.439941-7.450195-.200073-.299805-.450073-.569824-.75-.779785-2.97998-2.130127-5.820068-4.360107-8.530029-6.689941-.040039-.040039-.070068-.070068-.110107-.100098-1.629883-1.410156-3.219971-2.860107-4.75-4.340088-.719971-.699951-1.429932-1.399902-2.119873-2.099854-.120117-.120117-.22998-.240234-.350098-.360107-.639893-.659912-1.26001-1.320068-1.889893-1.97998-.100098-.119873-.210083-.22998-.320068-.350098-.589966-.639893-1.169922-1.289795-1.75-1.949951-.050049-.060059-.109985-.129883-.169922-.199951-.680054-.780029-1.350098-1.560059-2-2.350098-.030029-.030029-.050049-.059814-.080078-.089844-1.300049-1.570068-2.540039-3.160156-3.73999-4.790039-.02002-.02002-.040039-.050049-.060059-.080078-.47998-.649902-.949951-1.309814-1.419922-1.969971-.209961-.300049-.420044-.600098-.619995-.899902-.5-.720215-.990112-1.439941-1.470093-2.170166-.559937-.859863-1.119873-1.72998-1.659912-2.609863l-.01001-.01001c-.459961-.75-.910034-1.51001-1.359985-2.27002-.119995-.219971-.25-.430176-.380005-.649902-.390015-.680176-.77002-1.360107-1.150024-2.050049-.599976-1.110107-1.190063-2.230225-1.77002-3.360107-.339966-.679932-.680054-1.370117-1.019897-2.069824-.100098-.210205-.200073-.420166-.300049-.630127-.340088-.72998-.680054-1.459961-1-2.189941-.910034-2.040039-1.76001-4.100098-2.550049-6.179932-.22998-.620117-.459961-1.240234-.679932-1.870117-.140137-.370117-.27002-.75-.400024-1.129883-.240112-.680176-.470093-1.360107-.690063-2.050293-.099976-.319824-.209961-.639893-.309937-.959961-.180054-.569824-.349976-1.139893-.52002-1.709961-.059937-.179932-.109985-.359863-.160034-.540039-.109985-.379883-.219971-.759766-.319946-1.139893-.380005-1.310059-.720093-2.630127-1.050049-3.959961-.109985-.469971-.219971-.940186-.329956-1.400146-.130005-.569824-.26001-1.149902-.390015-1.719971-.109985-.519775-.210083-1.050049-.319946-1.570068-.120117-.539795-.219971-1.089844-.320068-1.649902-.099976-.560059-.199951-1.109863-.290039-1.659912-.149902-.800049-.280029-1.610107-.389893-2.420166-.090088-.529785-.170044-1.059814-.22998-1.599854-.120117-.880127-.230103-1.77002-.330078-2.659912l-.179932-1.680176c-.060059-.560059-.110107-1.119873-.150146-1.679932-.049927-.560059-.089844-1.119873-.129883-1.689941-.050049-.570068-.080078-1.140137-.110107-1.710205-.029907-.549805-.059937-1.109863-.079956-1.669922-.009888-.119873-.009888-.22998-.009888-.349854-.050049-.940186-.070068-1.890137-.090088-2.830078,0-.179932-.01001-.349854,0-.52002-.030029-2.209961,0-4.429932.099976-6.639893.040039-.870117.089966-1.740234.140015-2.600098v-.070068c.060059-.869873.130005-1.72998.199951-2.599854.070068-.780029.140137-1.560059.219971-2.340088.01001-.139893.030029-.280029.050049-.419922.110107-1.02002.22998-2.040039.370117-3.060059.099854-.76001.209961-1.530029.329834-2.290039.110107-.77002.240112-1.530029.370117-2.300049.129883-.799805.27002-1.599854.429932-2.389893.140015-.75.290039-1.5.449951-2.25.040039-.179932.080078-.369873.120117-.560059.030029-.179932.069946-.349854.109985-.530029.170044-.73999.339966-1.48999.51001-2.22998,0-.01001.009888-.030029.019897-.040039.180054-.790039.380127-1.579834.580078-2.369873.030029-.120117.060059-.23999.090088-.360107.199951-.73999.399902-1.47998.609863-2.22998.030029-.119873.060059-.23999.100098-.359863.23999-.830078.47998-1.660156.73999-2.490234.530029-1.72998,1.089966-3.449707,1.699951-5.169922.090088-.26001.140015-.529785.160034-.799805.079956-1.670166.190063-3.340088.329956-5,0-.100098.01001-.210205.030029-.310059.01001-.189941.02002-.370117.040039-.560059.079956-.949951.179932-1.899902.280029-2.850098,0-.060059.01001-.109863.019897-.169922.099976-.899902.210083-1.790039.329956-2.669922.01001-.150146.030029-.300049.060059-.450195.109985-.829834.22998-1.659912.359985-2.489746,0-.060059.01001-.130127.030029-.190186.119995-.829834.26001-1.659912.410034-2.48999.030029-.23999.069946-.469971.129883-.709961.140137-.800049.290039-1.600098.450073-2.390137.059937-.309814.119995-.619873.190063-.919922,0-.049805.01001-.089844.030029-.129883.099854-.51001.199951-1.01001.309937-1.51001.059937-.280029.119995-.550049.190063-.820068.129883-.600098.269897-1.189941.419922-1.780029.060059-.309814.140015-.629883.22998-.939941.169922-.699951.350098-1.389893.530029-2.080078.040039-.189941.089966-.369873.149902-.550049.170166-.639893.350098-1.27002.540039-1.899902.090088-.370117.199951-.73999.320068-1.109863.169922-.580078.349976-1.160156.530029-1.740234.069946-.259766.149902-.52002.23999-.77002.22998-.709961.459961-1.409912.699951-2.119873.060059-.179932.119995-.349854.179932-.52002.23999-.699951.48999-1.409912.76001-2.110107.060059-.199707.130127-.399902.210083-.589844.299927-.800049.599976-1.600098.920044-2.390137-.01001-.02002,0-.029785.02002-.049805.259888-.669922.529907-1.330078.799927-1.98999.140015-.360107.289917-.710205.450073-1.060059.269897-.650146.559937-1.300049.839844-1.939941.040039-.100098.090088-.199951.140137-.300049.379883-.850098.77002-1.689941,1.169922-2.52002.359985-.75.719971-1.5,1.100098-2.23999.069824-.159912.149902-.310059.22998-.459961.379883-.73999.77002-1.47998,1.159912-2.219971.030029-.070068.070068-.140137.110107-.200195.259888-.47998.519897-.959961.789917-1.429932.23999-.459961.5-.909912.76001-1.360107.410034-.72998.839966-1.449707,1.269897-2.159912.470093-.780029.960083-1.570068,1.450073-2.340088.400024-.619873.799927-1.25,1.210083-1.859863.629883-.969971,1.279907-1.919922,1.949951-2.859863.530029-.75,1.070068-1.490234,1.619995-2.22998.579956-.790039,1.170044-1.560059,1.779907-2.330078.580078-.75,1.180054-1.48999,1.780029-2.220215,2.410034-2.939941,4.98999-5.759766,7.719971-8.459961.48999-.489746.98999-.969971,1.48999-1.439941.190063-.189941.380127-.379883.580078-.560059.600098-.559814,1.199951-1.109863,1.810059-1.659912.109863-.099854.219971-.199951.329956-.300049.5-.449951,1.02002-.899902,1.539917-1.349854.26001-.219971.52002-.449951.780029-.660156.540039-.469971,1.090088-.919922,1.650024-1.369873.530029-.430176,1.059937-.860107,1.609985-1.290039,1.76001-1.390137,3.580078-2.72998,5.449951-4.02002.720093-.5,1.440063-.98999,2.180176-1.469971.669922-.449951,1.349854-.880127,2.039917-1.320068.160034-.100098.319946-.199951.47998-.299805.690063-.430176,1.380005-.850098,2.079956-1.27002.140137-.080078.290039-.170166.440063-.260254.719971-.419922,1.440063-.839844,2.180054-1.25.959961-.539795,1.919922-1.059814,2.909912-1.569824.820068-.439941,1.650024-.860107,2.48999-1.280029.050049-.02002.090088-.040039.130127-.060059.879883-.429932,1.759888-.860107,2.649902-1.27002.02002-.01001.040039-.02002.070068-.030029.909912-.419922,1.829956-.839844,2.76001-1.23999.01001,0,.01001-.01001.02002-.01001.919922-.399902,1.859863-.790039,2.799927-1.169922.029907-.01001.059937-.030029.089966-.040039.920044-.369873,1.840088-.72998,2.780029-1.080078.060059-.029785.119995-.049805.179932-.069824.72998-.280029,1.460083-.540039,2.210083-.810059.289917-.109863.589966-.209961.890015-.310059.76001-.26001,1.52002-.52002,2.290039-.77002.22998-.079834.449951-.149902.679932-.219971.880005-.280029,1.780029-.559814,2.669922-.820068.97998-.289795,1.970093-.579834,2.960083-.849854.069946-.02002.130005-.030029.190063-.050049,1.019897-.27002,2.039917-.540039,3.069946-.790039.75-.189941,1.509888-.369873,2.269897-.540039.420166-.099854.830078-.189941,1.25-.279785.960083-.209961,1.920166-.410156,2.900146-.600098.839844-.169922,1.679932-.330078,2.529907-.47998.079956-.02002.170044-.030029.25-.040039.329956-.070068.660034-.120117.990112-.179932.949951-.159912,1.899902-.310059,2.859863-.460205,1.120117-.169922,2.25-.329834,3.390137-.469727,1.129883-.150146,2.269897-.280273,3.419922-.410156.030029,0,.060059-.01001.089966-.01001,1.140015-.119873,2.280029-.219971,3.430054-.320068,1.069946-.089844,2.149902-.169922,3.22998-.239746.179932-.02002.349976-.030273.52002-.030273,1.060059-.069824,2.109985-.119873,3.179932-.169922.170044-.01001.330078-.02002.5-.02002,1.080078-.040039,2.160034-.080078,3.25-.099854h.110107c1.219971-.030029,2.449951-.040039,3.689941-.040039h.01001c1.109985,0,2.22998.01001,3.349976.030029.819946.01001,1.640015.029785,2.470093.060059.47998.009766.969971.029785,1.459961.049805,2.109863.090088,4.23999.209961,6.399902.360107.219971.01001.430054,0,.650024-.030029,1.800049-.280029,3.630005-.550049,5.460083-.790039.169922-.02002.329956-.040039.5-.060059.689941-.089844,1.379883-.169922,2.079956-.25,1.069946-.129883,2.150024-.23999,3.219971-.349854.950073-.090088,1.890015-.170166,2.839966-.23999.350098-.030029.690063-.050049,1.030029-.070068.410034-.030029.830078-.060059,1.23999-.080078.5-.030029,1-.059814,1.48999-.079834.170044-.01001.330078-.02002.48999-.02002.380127-.02002.76001-.030029,1.140137-.040039,7.409912-.219971,14.619873.319824,21.069824,2.169922.430176.120117.850098.23999,1.26001.380127,1.390137.439941,2.730103.939941,4.030029,1.519775.47998.200195.959961.420166,1.420044.650146.450073.219971.900024.449951,1.339966.699951,1.699951.919922,3.310059,1.98999,4.820068,3.209961.469971.380127.929932.780029,1.379883,1.189941,0,0,.01001,0,.01001.010254.220093.199951.450073.409912.670166.629883,5.939941,5.780029,9.869873,14.419922,10.649902,27.01001-.089966,0-.089966,89.619873-.01001,100.97998.01001.52002.429932.909912.949951.909912h.080078c.51001.010254.939941-.389893.949951-.899902v-8.120117c-.02002-19.199951-.02002-63.089844,0-82.619873-.01001-5.310059,0-8.810059,0-9.540039.290039-3.919922.860107-7.449951,1.680054-10.639893q0-.01001.01001-.02002c.920044-3.580078,2.170044-6.719971,3.699951-9.469971.280029-.5.559937-.980225.849976-1.440186.530029-.849854,1.090088-1.659912,1.680054-2.439941.299927-.399902.609985-.790039.930054-1.159912.299927-.360107.609863-.709961.919922-1.050049.209961-.22998.429932-.459961.650024-.679932,4.450073-4.540039,10.069946-7.390137,16.390015-9.050049.469971-.129883.939941-.25,1.419922-.359863.450073-.110107.910034-.210205,1.380127-.300293.52002-.109863,1.049927-.209961,1.579956-.299805.119995-.030029.23999-.050049.369995-.060059.530029-.100098,1.070068-.179932,1.619995-.26001.099976-.02002.209961-.030029.319946-.040039.540039-.079834,1.080078-.149902,1.630127-.199951,3.119873-.359863,6.349854-.51001,9.639893-.51001.790039,0,1.580078.01001,2.369995.030029.800049.01001,1.609985.040039,2.410034.070068.679932.030029,1.349976.059814,2.030029.099854.280029.01001.559937.030029.839966.050049.670044.040039,1.329956.080078,2,.130127.779907.059814,1.559937.119873,2.339966.189941.040039,0,.070068.01001.110107.01001.819946.070068,1.639893.149902,2.449951.22998.300049.030029.599976.059814.899902.090088,1.340088.139893,2.680054.289795,4.01001.449951.160034.019775.310059.039795.469971.050049,2.540039.309814,5.070068.649902,7.570068,1,.219971.029785.439941.039795.660034.02002,2.529907-.230225,5.029907-.400146,7.48999-.52002.059937,0,.130005-.010254.190063-.010254,5.359863-.259766,10.549927-.259766,15.579956-.02002.640015.02002,1.279907.060059,1.920044.100098.709961.040039,1.419922.090088,2.119873.140137,3.850098.290039,7.590088.719971,11.219971,1.279785.640137.100098,1.280029.200195,1.910156.310059.869873.150146,1.73999.310059,2.589844.470215.660156.129883,1.310059.25,1.950073.389893.839966.179932,1.680054.360107,2.51001.550049,1.079956.23999,2.150024.5,3.200073.779785.369873.090088.72998.190186,1.099854.290039,1.600098.430176,3.170166.890137,4.720093,1.370117.5.159912.98999.319824,1.47998.47998.599976.189941,1.190063.390137,1.77002.600098.559937.189941,1.109985.389893,1.650024.589844.709961.26001,1.409912.52002,2.109985.790039.47998.189941.949951.379883,1.420044.570068.569946.22998,1.129883.459961,1.689941.699951.550049.23999,1.099976.47998,1.659912.719971.550049.25,1.090088.48999,1.630127.75.540039.25,1.079956.51001,1.619873.77002,1.01001.48999,2,.98999,2.980103,1.52002,1.299927.689941,2.569946,1.399902,3.819946,2.130127.469971.279785.930054.559814,1.390015.839844.380005.22998.76001.469971,1.130005.699951.459961.290039.900024.570068,1.350098.870117.47998.309814.949951.619873,1.419922.939941.01001.01001.01001.02002.02002.02002.469971.320068.939941.639893,1.399902.969971.5.350098.98999.709961,1.47998,1.070068.430176.309814.850098.629883,1.27002.949951.910156.689941,1.810059,1.399902,2.690063,2.120117.430054.359863.849976.709961,1.26001,1.069824.869995.73999,1.719971,1.48999,2.559937,2.25.810059.75,1.600098,1.51001,2.380127,2.280029.329956.320068.649902.650146.969971.97998,2.059937,2.100098,4.02002,4.290039,5.859985,6.570068l.900024,1.139893c.449951.570068.889893,1.150146,1.319946,1.73999.22998.300049.450073.600098.670044.910156.959961,1.319824,1.889893,2.669922,2.77002,4.049805.319946.47998.619873.960205.919922,1.450195.02002.029785.040039.069824.060059.099854.48999.780029.959961,1.570068,1.419922,2.370117.630127,1.090088,1.22998,2.189941,1.820068,3.300049,1.189941,2.27002,2.300049,4.589844,3.310059,6.969971.119873.289795.289917.550049.5.780029,2.019897,2.23999,3.939941,4.529785,5.759888,6.879883.569946.719971,1.130005,1.449951,1.670044,2.189941.189941.25.369995.490234.540039.740234.369873.489746.72998.989746,1.079956,1.489746.170044.22998.339966.459961.48999.700195.469971.649902.920044,1.310059,1.359985,1.969971.050049.070068.100098.139893.150024.219971.410034.609863.809937,1.219971,1.200073,1.839844.25.370117.47998.740234.709961,1.120117.459961.709961.899902,1.429932,1.329956,2.149902.359985.600098.710083,1.200195,1.049927,1.800049,1.97998,3.400146,3.77002,6.870117,5.390137,10.409912.25.540039.5,1.090088.72998,1.640137.52002,1.140137,1.01001,2.290039,1.469971,3.449951.219971.530029.439941,1.070068.639893,1.610107.130127.319824.26001.639893.380127.969971.149902.380127.290039.76001.429932,1.149902.27002.719971.530029,1.440186.780029,2.160156.01001.019775.02002.050049.02002.079834.23999.650146.459961,1.310059.669922,1.959961.150146.440186.290039.890137.430054,1.340088.119995.340088.220093.690186.319946,1.040039.160034.48999.310059.97998.460083,1.47998.769897,2.590088,1.449951,5.209961,2.039917,7.840088.190063.849854.380127,1.699951.550049,2.549805.119995.600098.23999,1.200195.350098,1.800049.299927,1.48999.549927,2.98999.779907,4.5.130005.810059.23999,1.610107.349976,2.420166,0,.02002.01001.040039,0,.060059.120117.849854.22998,1.699707.320068,2.549805.02002.169922.040039.340088.059937.51001.069946.600098.130005,1.190186.180054,1.780029.060059.570068.109985,1.149902.149902,1.719971.01001.070068.02002.139893.02002.209961.070068.820068.120117,1.650146.170044,2.469971.049927.690186.079956,1.390137.109985,2.080078.030029.660156.060059,1.330078.070068,1.98999.02002.380127.030029.75.030029,1.120117.039917,1.589844.039917,3.189941.01001,4.789795Z" fill="#e5c8a7"/><path d="M442.851199,149.636058c-.01001.400146-.01001.790039-.030029,1.190186-.01001.419922-.02002.859863-.040039,1.280029v.049805c-.050049,1.470215-.130005,2.940186-.23999,4.410156-.030029.540039-.070068,1.089844-.120117,1.629883-.079834,1.030029-.179932,2.050049-.299927,3.070068-.029907.389893-.079956.790039-.130005,1.179932-.070068.689941-.159912,1.380127-.26001,2.070068-.01001.139893-.030029.280029-.050049.419922,0,.040039-.01001.070068-.019897.110107,0,.040039-.01001.089844-.02002.129883-.099976.810059-.220093,1.610107-.359985,2.420166-.090088.589844-.189941,1.179932-.290039,1.769775-.139893.810059-.280029,1.610107-.439941,2.420166-.120117.659912-.25,1.310059-.390015,1.959961-.109985.530029-.220093,1.050049-.339966,1.580078-.110107.52002-.22998,1.050049-.360107,1.570068-.159912.699951-.329956,1.389893-.51001,2.089844-.139893.550049-.280029,1.110107-.429932,1.660156-.119995.459961-.23999.919922-.380005,1.379883-.150024.580078-.309937,1.149902-.48999,1.719971-.200073.699951-.410034,1.400146-.630005,2.100098-.550049,1.769775-1.140015,3.539795-1.780029,5.289795-.23999.670166-.48999,1.340088-.73999,2-.26001.710205-.540039,1.410156-.820068,2.110107-.369873.939941-.75,1.869873-1.149902,2.790039-.26001.599854-.52002,1.189941-.780029,1.790039-.709961,1.599854-1.449951,3.169922-2.22998,4.73999-.369995.75-.75,1.5-1.140015,2.23999-1.26001,2.429932-2.609985,4.840088-4.039917,7.199951-.180054.300049-.360107.590088-.540039.890137-2.51001,4.059814-5.97998,11.009766-7.790039,15.469727-.02002.040039-.030029.080078-.050049.120117-1.219971,3.040039-2.579956,6.02002-4.059937,8.910156-.26001.47998-.51001.959961-.76001,1.439941-.190063.359863-.380005.709961-.579956,1.060059-.310059.569824-.630127,1.139893-.959961,1.699951q0,.01001-.01001.019775c-.25.440186-.51001.890137-.780029,1.330078-1.320068,2.220215-2.719971,4.380127-4.209961,6.48999-.240112.350098-.490112.690186-.740112,1.040039-.369995.52002-.759888,1.030029-1.140015,1.550049-.659912.859863-1.319946,1.709961-2,2.540039-1.449951,1.810059-2.97998,3.569824-4.579956,5.280029-.440063.469971-.880005.939941-1.329956,1.399902-.969971,1.01001-1.97998,2-3.01001,2.97998-.47998.449951-.97998.909912-1.469971,1.360107-.610107.560059-1.22998,1.109863-1.860107,1.649902-.439941.370117-.879883.73999-1.319946,1.110107-.540039.449951-1.079956.889893-1.630005,1.329834-.540039.439941-1.100098.870117-1.660034,1.300049-.519897.400146-1.049927.790039-1.579956,1.190186-.610107.449707-1.219971.889893-1.840088,1.309814-.539917.380127-1.089844.76001-1.639893,1.120117-.060059.050049-.120117.089844-.180054.129883-.569946.380127-1.150024.76001-1.73999,1.130127-1.200073.77002-2.430054,1.52002-3.680054,2.25-.629883.359863-1.26001.719971-1.899902,1.079834-.650024.360107-1.300049.719971-1.959961,1.060059-.640137.330078-1.280029.659912-1.920166.98999-.659912.330078-1.319824.649902-1.98999.969971-.669922.320068-1.349854.630127-2.029907.940186-1.359985.609863-2.73999,1.199951-4.140015,1.77002-1.050049.429932-2.119995.849854-3.199951,1.239746-1.070068.390137-2.160034.780029-3.26001,1.150146-.73999.23999-1.469971.48999-2.219971.719971-.560059.179932-1.120117.350098-1.680054.52002-1.130005.330078-2.27002.659912-3.420044.969971-.579956.159912-1.159912.310059-1.73999.449951-.579956.149902-1.169922.290039-1.76001.430176-1.97998.469727-4,.909912-6.050049,1.289795-.679932.130127-1.369873.25-2.059937.370117-.930054.159912-1.849976.309814-2.789917.449951-.620117.100098-1.25.179932-1.880127.27002-1.669922.23999-3.369873.439941-5.089966.609863-.859985.080078-1.719971.160156-2.589966.240234-1.73999.149902-3.5.27002-5.280029.349854-3.280029.170166-6.639893.22998-10.070068.190186-.639893-.010254-1.289917-.02002-1.929932-.030273-.649902-.02002-1.300049-.039795-1.949951-.059814-1.310059-.040039-2.640015-.100098-3.97998-.170166-3.550049-.199951-7.120117-.199951-10.660034.090088-15.040039,1.22998-29.01001-4.599854-39.559937-15.159912-.340088-.330078-.660156-.669922-.98999-1.01001-.980103-1.02002-1.920166-2.080078-2.830078-3.179932-.300049-.370117-.600098-.740234-.900024-1.120117-.589966-.75-1.160034-1.52002-1.72998-2.310059-.280029-.389893-.559937-.790039-.829956-1.189941-.540039-.800049-1.070068-1.620117-1.590088-2.459961-.51001-.830078-1.01001-1.680176-1.48999-2.550049-2.159912-3.889893-3.97998-8.090088-5.399902-12.540039-.310059-.98999-.610107-1.98999-.880127-3.01001-1.329956-4.859863-2.189941-10-2.51001-15.350098-.089844-1.339844-.139893-2.689941-.149902-4.049805,0-.160156-.02002-.320068-.050049-.47998-.199951-1.290039.140015-4.140137.390015-7.550049.569946-7.850098.619995-18.659912-7.630005-20.26001-.359985-.070068-.73999-.070068-1.099976,0-3.200073.669922-5.150024,2.699951-6.309937,5.370117-1.850098,4.259766-1.660156,10.179932-1.320068,14.899902.23999,3.280029.570068,5.97998.339966,7.129883-.009888,1.52002-.069946,3.02002-.170044,4.51001-.069946,1.25-.179932,2.48999-.319946,3.710205-.369995,3.329834-.959961,6.579834-1.72998,9.709961-.25,1.029785-.530029,2.049805-.819946,3.049805-.590088,2.010254-1.26001,3.970215-2,5.880127-.560059,1.429932-1.160034,2.829834-1.800049,4.199951-.429932.919922-.880005,1.810059-1.340088,2.699951-.459961.880127-.939941,1.75-1.439941,2.600098-1.98999,3.419922-4.23999,6.579834-6.72998,9.469971-.619995.719971-1.26001,1.419922-1.909912,2.100098-10.440063,11-24.470093,17.25-39.640137,16.310059-.329956-.02002-.669922-.040039-1-.070068-.069946-.01001-.149902-.01001-.219971-.02002-3.329956-.26001-6.659912-.190186-9.97998.099854-.290039.030029-.580078.050049-.859985.070068-.619995.060059-1.230103.100098-1.839966.139893-.459961.040039-.910034.070068-1.360107.100098-1.069946.070068-2.139893.129883-3.189941.169922-.840088.040039-1.669922.070068-2.5.080078-.419922.02002-.830078.030029-1.23999.040039-.959961.02002-1.910034.030029-2.850098.030029h-.039917c-.900024,0-1.789917-.01001-2.680054-.030029-.27002,0-.539917-.01001-.799927-.01001-.809937-.02002-1.619995-.050049-2.420044-.080078-.339966-.019775-.679932-.030029-1.01001-.050049-.73999-.039795-1.48999-.079834-2.219971-.129883-.98999-.060059-1.97998-.140137-2.959961-.22998-.969971-.080078-1.939941-.179932-2.900024-.290039-.619995-.069824-1.23999-.139893-1.849976-.219971-.410034-.050049-.820068-.110107-1.22998-.159912-.650024-.090088-1.300049-.189941-1.950073-.290039-.279907-.040039-.559937-.090088-.829956-.130127-.77002-.129883-1.540039-.26001-2.300049-.399902-.179932-.030029-.369995-.070068-.550049-.100098-.649902-.129883-1.299927-.25-1.949951-.389893-.319946-.070068-.649902-.140137-.969971-.209961-.73999-.150146-1.469971-.320068-2.199951-.5-.880127-.209961-1.76001-.430176-2.620117-.660156-.869873-.22998-1.719971-.469971-2.569946-.719971-.769897-.22998-1.529907-.459961-2.279907-.699951-.160156-.050049-.310059-.100098-.470093-.159912-.76001-.23999-1.5-.48999-2.25-.76001-.779907-.27002-1.549927-.560059-2.309937-.850098-.070068-.030029-.140137-.060059-.209961-.080078-.76001-.299805-1.52002-.599854-2.27002-.919922-.720093-.300049-1.440063-.609863-2.140137-.919922-.119873-.060059-.23999-.110107-.349854-.160156-.710083-.319824-1.410156-.649902-2.100098-.989746-.040039-.010254-.079956-.030273-.109985-.050293-.710083-.349854-1.420044-.699707-2.109985-1.059814-.72998-.389893-1.459961-.780029-2.169922-1.179932-.710083-.400146-1.420166-.800049-2.120117-1.220215-.689941-.419922-1.369995-.839844-2.050049-1.27002,0-.009766-.01001-.009766-.01001-.009766-.679932-.440186-1.349854-.880127-2.009888-1.330078-.630005-.430176-1.25-.870117-1.859985-1.310059-.060059-.040039-.120117-.080078-.170044-.120117-.5-.369873-.98999-.739746-1.47998-1.109863-.160034-.120117-.309937-.23999-.470093-.370117-.549927-.419922-1.089844-.859863-1.629883-1.299805-.070068-.060059-.140015-.110107-.209961-.169922-.570068-.480225-1.140137-.960205-1.700073-1.450195-.589966-.52002-1.170044-1.049805-1.73999-1.580078-.540039-.509766-1.079956-1.02002-1.599976-1.539795-.209961-.210205-.420044-.420166-.620117-.630127-.379883-.379883-.73999-.75-1.099854-1.139893-1.080078-1.130127-2.110107-2.300049-3.110107-3.48999-.069946-.080078-.139893-.169922-.209961-.25-4.5-5.360107-9.419922-10.340088-14.719971-14.919922-.040039-.040039-.070068-.070068-.110107-.100098-1.629883-1.410156-3.219971-2.860107-4.75-4.340088-.719971-.699951-1.429932-1.399902-2.119873-2.099854-.120117-.120117-.22998-.240234-.350098-.360107-.639893-.659912-1.26001-1.320068-1.889893-1.97998-.100098-.119873-.210083-.22998-.320068-.350098-.589966-.639893-1.169922-1.289795-1.75-1.949951-.050049-.060059-.109985-.129883-.169922-.199951-.680054-.780029-1.350098-1.560059-2-2.350098-.030029-.030029-.050049-.059814-.080078-.089844-1.290039-1.570068-2.540039-3.170166-3.73999-4.790039-.02002-.02002-.040039-.050049-.060059-.080078-.47998-.649902-.949951-1.309814-1.419922-1.969971-.209961-.300049-.420044-.600098-.619995-.899902-.5-.720215-.990112-1.439941-1.470093-2.170166-.559937-.859863-1.119873-1.72998-1.659912-2.609863l-.01001-.01001c-.459961-.75-.910034-1.51001-1.359985-2.27002-.119995-.219971-.25-.430176-.380005-.649902-.390015-.680176-.77002-1.360107-1.150024-2.050049-.599976-1.110107-1.190063-2.230225-1.77002-3.360107-.339966-.679932-.680054-1.370117-1.019897-2.069824-.100098-.210205-.200073-.420166-.300049-.630127-.340088-.72998-.680054-1.459961-1-2.189941-.910034-2.040039-1.76001-4.100098-2.550049-6.179932-.22998-.620117-.459961-1.240234-.679932-1.870117-.140137-.370117-.27002-.75-.400024-1.129883-.240112-.680176-.470093-1.360107-.690063-2.050293-.099976-.319824-.209961-.639893-.309937-.959961-.180054-.569824-.349976-1.139893-.52002-1.709961-.059937-.179932-.109985-.359863-.160034-.540039-.109985-.379883-.219971-.759766-.319946-1.139893-.380005-1.310059-.720093-2.630127-1.050049-3.959961-.109985-.469971-.219971-.940186-.329956-1.400146-.130005-.569824-.26001-1.149902-.390015-1.719971-.109985-.519775-.210083-1.050049-.319946-1.570068-.120117-.539795-.219971-1.089844-.320068-1.649902-.099976-.560059-.199951-1.109863-.290039-1.659912-.149902-.800049-.280029-1.610107-.389893-2.420166-.090088-.529785-.170044-1.059814-.22998-1.599854-.120117-.880127-.230103-1.77002-.330078-2.659912l-.179932-1.680176c-.060059-.560059-.110107-1.119873-.150146-1.679932-.049927-.560059-.089844-1.119873-.129883-1.689941-.050049-.570068-.080078-1.140137-.110107-1.710205-.029907-.549805-.059937-1.109863-.079956-1.669922-.009888-.119873-.009888-.22998-.009888-.349854-.050049-.940186-.070068-1.890137-.090088-2.830078,0-.179932-.01001-.349854,0-.52002-.030029-2.209961,0-4.429932.099976-6.639893.040039-.870117.089966-1.740234.140015-2.600098v-.070068c.060059-.869873.130005-1.72998.199951-2.599854.070068-.780029.140137-1.560059.219971-2.340088.01001-.139893.030029-.280029.050049-.419922.110107-1.02002.22998-2.040039.370117-3.060059.099854-.76001.209961-1.530029.329834-2.290039.110107-.77002.240112-1.530029.370117-2.300049.129883-.799805.27002-1.599854.429932-2.389893.140015-.75.290039-1.5.449951-2.25,0-.030029,0-.050049.01001-.080078.01001-.02002.01001-.039795.01001-.050049.030029-.149902.060059-.290039.100098-.429932.030029-.179932.069946-.349854.109985-.530029.170044-.73999.339966-1.48999.51001-2.22998,0-.01001.009888-.030029.019897-.040039.180054-.790039.380127-1.579834.580078-2.369873.030029-.120117.060059-.23999.090088-.360107.199951-.73999.399902-1.47998.609863-2.22998.030029-.119873.060059-.23999.100098-.359863.23999-.830078.47998-1.660156.73999-2.490234.02002-.069824.040039-.149902.059937-.219727,1.079956-3.470215,1.790039-7.050049,2.109985-10.680176.01001-.069824.01001-.139893.02002-.209961,0-.040039.01001-.080078.01001-.120117.02002-.199951.040039-.409912.060059-.609863.079956-.949951.179932-1.899902.280029-2.850098,0-.060059.01001-.109863.019897-.169922.099976-.899902.210083-1.790039.329956-2.669922.01001-.150146.030029-.300049.060059-.450195.109985-.829834.22998-1.659912.359985-2.489746,0-.060059.01001-.130127.030029-.190186.119995-.829834.26001-1.659912.410034-2.48999.030029-.23999.069946-.469971.129883-.709961.140137-.800049.290039-1.600098.450073-2.390137.059937-.369873.140015-.72998.220093-1.089844,0-.050049.009888-.090088.019897-.129883.089966-.450195.190063-.900146.290039-1.340088.059937-.280029.119995-.550049.190063-.820068.129883-.600098.269897-1.189941.419922-1.780029.060059-.309814.140015-.629883.22998-.939941.169922-.699951.350098-1.389893.530029-2.080078.040039-.189941.089966-.369873.149902-.550049.170166-.639893.350098-1.27002.540039-1.899902.090088-.370117.199951-.73999.320068-1.109863.169922-.580078.349976-1.160156.530029-1.740234.069946-.259766.149902-.52002.23999-.77002.22998-.709961.459961-1.409912.699951-2.119873.060059-.179932.119995-.349854.179932-.52002.23999-.699951.48999-1.409912.76001-2.110107.060059-.199707.130127-.399902.210083-.589844.299927-.800049.599976-1.600098.920044-2.390137-.01001-.02002,0-.029785.02002-.049805.259888-.669922.529907-1.330078.799927-1.98999.140015-.360107.289917-.710205.450073-1.060059.269897-.650146.559937-1.300049.839844-1.939941.040039-.100098.090088-.199951.140137-.300049.379883-.850098.77002-1.689941,1.169922-2.52002.359985-.75.719971-1.5,1.100098-2.23999.069824-.159912.149902-.310059.22998-.459961.379883-.73999.77002-1.47998,1.159912-2.219971.030029-.070068.070068-.140137.110107-.200195.259888-.47998.519897-.959961.789917-1.429932.23999-.459961.5-.909912.76001-1.360107.410034-.72998.839966-1.449707,1.269897-2.159912.470093-.780029.960083-1.570068,1.450073-2.340088.400024-.619873.799927-1.25,1.210083-1.859863.629883-.969971,1.279907-1.919922,1.949951-2.859863.530029-.75,1.070068-1.490234,1.619995-2.22998.579956-.790039,1.170044-1.560059,1.779907-2.330078.580078-.75,1.180054-1.48999,1.780029-2.220215,2.410034-2.939941,4.98999-5.759766,7.719971-8.459961.48999-.489746.98999-.969971,1.48999-1.439941.190063-.189941.380127-.379883.580078-.560059.600098-.559814,1.199951-1.109863,1.810059-1.659912.109863-.099854.219971-.199951.329956-.300049.5-.449951,1.02002-.899902,1.539917-1.349854.26001-.219971.52002-.449951.780029-.660156.540039-.469971,1.090088-.919922,1.650024-1.369873.530029-.430176,1.059937-.860107,1.609985-1.290039,1.76001-1.390137,3.580078-2.72998,5.449951-4.02002.720093-.5,1.440063-.98999,2.180176-1.469971.669922-.449951,1.349854-.880127,2.039917-1.320068.160034-.100098.319946-.199951.47998-.299805.690063-.430176,1.380005-.850098,2.079956-1.27002.140137-.080078.290039-.170166.440063-.260254.719971-.419922,1.440063-.839844,2.180054-1.25.959961-.539795,1.919922-1.059814,2.909912-1.569824.820068-.439941,1.650024-.860107,2.48999-1.280029.050049-.02002.090088-.040039.130127-.060059.879883-.429932,1.759888-.860107,2.649902-1.27002.02002-.01001.040039-.02002.070068-.030029.909912-.419922,1.829956-.839844,2.76001-1.23999.01001,0,.01001-.01001.02002-.01001.919922-.399902,1.859863-.790039,2.799927-1.169922.029907-.01001.059937-.030029.089966-.040039.920044-.369873,1.840088-.72998,2.780029-1.080078.060059-.029785.119995-.049805.179932-.069824.72998-.280029,1.460083-.540039,2.210083-.810059.289917-.109863.589966-.209961.890015-.310059.76001-.26001,1.52002-.52002,2.290039-.77002.22998-.079834.449951-.149902.679932-.219971.880005-.280029,1.780029-.559814,2.669922-.820068.97998-.289795,1.970093-.579834,2.960083-.849854.069946-.02002.130005-.030029.190063-.050049,1.019897-.27002,2.039917-.540039,3.069946-.790039.75-.189941,1.509888-.369873,2.269897-.540039.420166-.099854.830078-.189941,1.25-.279785.960083-.209961,1.920166-.410156,2.900146-.600098.839844-.169922,1.679932-.330078,2.529907-.47998.079956-.02002.170044-.030029.25-.040039.329956-.070068.660034-.120117.990112-.179932.949951-.159912,1.899902-.310059,2.859863-.460205,1.120117-.169922,2.25-.329834,3.390137-.469727,1.129883-.150146,2.269897-.280273,3.419922-.410156.030029,0,.060059-.01001.089966-.01001,1.140015-.119873,2.280029-.219971,3.430054-.320068,1.069946-.089844,2.149902-.169922,3.22998-.239746.179932-.02002.349976-.030273.52002-.030273,1.060059-.069824,2.109985-.119873,3.179932-.169922.170044-.01001.330078-.02002.5-.02002,1.080078-.040039,2.160034-.080078,3.25-.099854h.110107c1.219971-.030029,2.449951-.040039,3.689941-.040039h.01001c1.109985,0,2.22998.01001,3.349976.030029.819946.01001,1.640015.029785,2.470093.060059.47998.009766.969971.029785,1.459961.049805,4.169922.160156,8.349976.040039,12.51001-.459961.169922-.02002.329956-.040039.5-.060059.689941-.089844,1.379883-.169922,2.079956-.25,1.069946-.129883,2.150024-.23999,3.219971-.349854.950073-.090088,1.890015-.170166,2.839966-.23999.350098-.030029.690063-.050049,1.030029-.070068.410034-.030029.830078-.060059,1.23999-.080078.5-.030029,1-.059814,1.48999-.079834.170044-.01001.330078-.02002.48999-.02002.380127-.02002.76001-.030029,1.140137-.040039,7.409912-.219971,14.619873.319824,21.069824,2.169922.430176.120117.850098.23999,1.26001.380127,1.390137.439941,2.730103.939941,4.030029,1.519775.47998.200195.959961.420166,1.420044.650146.450073.219971.900024.449951,1.339966.699951,1.699951.919922,3.310059,1.98999,4.820068,3.209961.469971.380127.929932.780029,1.379883,1.189941,0,0,.01001,0,.01001.010254.220093.199951.450073.409912.670166.629883,5.939941,5.780029,9.869873,14.419922,10.649902,27.01001-.089966,0-.089966,89.619873-.01001,100.97998.01001.52002.429932.909912.949951.909912h.080078c.51001.010254.939941-.389893.949951-.899902v-8.120117c-.02002-19.199951-.02002-63.089844,0-82.619873-.01001-5.310059,0-8.810059,0-9.540039.290039-3.919922.860107-7.449951,1.680054-10.639893q0-.01001.01001-.02002c.920044-3.580078,2.170044-6.719971,3.699951-9.469971.280029-.5.559937-.980225.849976-1.440186.530029-.849854,1.090088-1.659912,1.680054-2.439941.299927-.399902.609985-.790039.930054-1.159912.299927-.360107.609863-.709961.919922-1.050049.209961-.22998.429932-.459961.650024-.679932,4.450073-4.540039,10.069946-7.390137,16.390015-9.050049.469971-.129883.939941-.25,1.419922-.359863.450073-.110107.910034-.210205,1.380127-.300293.52002-.109863,1.049927-.209961,1.579956-.299805.119995-.030029.23999-.050049.369995-.060059.530029-.100098,1.070068-.179932,1.619995-.26001.099976-.02002.209961-.030029.319946-.040039.540039-.079834,1.080078-.149902,1.630127-.199951,3.119873-.359863,6.349854-.51001,9.639893-.51001.790039,0,1.580078.01001,2.369995.030029.800049.01001,1.609985.040039,2.410034.070068.679932.030029,1.349976.059814,2.030029.099854.280029.01001.559937.030029.839966.050049.670044.040039,1.329956.080078,2,.130127.779907.059814,1.559937.119873,2.339966.189941.040039,0,.070068.01001.110107.01001.819946.070068,1.639893.149902,2.449951.22998.300049.030029.599976.059814.899902.090088,1.340088.139893,2.680054.289795,4.01001.449951.160034.019775.310059.039795.469971.050049,5.210083.599854,10.480103.739746,15.720093.5.059937,0,.130005-.010254.190063-.010254,5.359863-.259766,10.549927-.259766,15.579956-.02002.640015.02002,1.279907.060059,1.920044.100098.709961.040039,1.419922.090088,2.119873.140137,3.850098.290039,7.590088.719971,11.219971,1.279785.640137.100098,1.280029.200195,1.910156.310059.869873.150146,1.73999.310059,2.589844.470215.660156.129883,1.310059.25,1.950073.389893.839966.179932,1.680054.360107,2.51001.550049,1.079956.25,2.140015.5,3.200073.779785.369873.090088.72998.190186,1.099854.290039,1.600098.430176,3.170166.890137,4.720093,1.370117.5.159912.98999.319824,1.47998.47998.599976.189941,1.190063.390137,1.77002.600098.559937.189941,1.109985.389893,1.650024.589844.709961.26001,1.409912.52002,2.109985.790039.47998.189941.949951.379883,1.420044.570068.569946.22998,1.129883.459961,1.689941.699951.550049.23999,1.099976.47998,1.659912.719971.550049.25,1.090088.48999,1.630127.75.540039.25,1.079956.51001,1.619873.77002,1.01001.48999,2,1,2.980103,1.52002,1.299927.689941,2.569946,1.399902,3.819946,2.130127.469971.279785.930054.559814,1.390015.839844.380005.22998.76001.469971,1.130005.699951.459961.290039.900024.570068,1.350098.870117.47998.309814.949951.619873,1.419922.939941.01001.01001.01001.02002.02002.02002.469971.320068.939941.639893,1.399902.969971.5.350098.98999.709961,1.47998,1.070068.430176.309814.850098.629883,1.27002.949951.910156.689941,1.810059,1.399902,2.690063,2.120117.430054.359863.849976.709961,1.26001,1.069824.869995.73999,1.719971,1.48999,2.559937,2.25.810059.76001,1.600098,1.51001,2.380127,2.280029.329956.320068.649902.650146.969971.97998,2.059937,2.100098,4.02002,4.290039,5.859985,6.570068l.900024,1.139893c.449951.570068.889893,1.150146,1.319946,1.73999.22998.300049.450073.600098.670044.910156.959961,1.319824,1.889893,2.669922,2.77002,4.049805.319946.47998.619873.960205.919922,1.450195.02002.029785.040039.069824.060059.099854.48999.780029.959961,1.570068,1.419922,2.370117.630127,1.090088,1.22998,2.189941,1.820068,3.300049,2.639893,5.029785,5.780029,9.790039,9.290039,14.259766.099854.120117.189941.240234.279907.370117.569946.719971,1.130005,1.449951,1.670044,2.189941.189941.25.369995.490234.540039.740234.369873.489746.72998.989746,1.079956,1.489746.170044.22998.339966.459961.48999.700195.469971.649902.920044,1.310059,1.359985,1.969971.050049.070068.100098.139893.150024.219971.410034.609863.809937,1.219971,1.200073,1.839844.25.370117.47998.740234.709961,1.120117.459961.709961.899902,1.429932,1.329956,2.149902.359985.600098.710083,1.200195,1.049927,1.800049,1.97998,3.400146,3.77002,6.870117,5.390137,10.409912.25.540039.5,1.090088.72998,1.640137.52002,1.140137,1.01001,2.290039,1.469971,3.449951.219971.530029.439941,1.070068.639893,1.610107.130127.319824.26001.639893.380127.969971.149902.380127.290039.76001.429932,1.149902.27002.719971.530029,1.440186.780029,2.160156.01001.019775.02002.050049.02002.079834.23999.650146.459961,1.310059.669922,1.959961.150146.440186.290039.890137.430054,1.340088.119995.340088.220093.690186.319946,1.040039.160034.48999.310059.97998.460083,1.47998.769897,2.590088,1.449951,5.209961,2.039917,7.840088.190063.849854.380127,1.699951.550049,2.549805.119995.600098.23999,1.200195.350098,1.800049.299927,1.48999.549927,2.98999.779907,4.5.130005.810059.23999,1.610107.349976,2.420166,0,.02002.01001.040039,0,.060059.120117.849854.22998,1.699707.320068,2.549805.02002.169922.040039.340088.059937.51001.069946.600098.130005,1.190186.180054,1.780029.060059.570068.109985,1.149902.149902,1.719971.01001.070068.02002.139893.02002.209961.070068.820068.120117,1.650146.170044,2.469971.049927.690186.079956,1.390137.109985,2.080078.030029.660156.060059,1.330078.070068,1.98999.02002.380127.030029.75.030029,1.120117.039917,1.589844.039917,3.189941.01001,4.789795Z" fill="none" stroke="#80705e" stroke-miterlimit="10" stroke-width="2"/><path d="M348.835185,7.359528c-5.72522,3.679688-14.169167,10.724284-20.767433,20.298503-6.352051,9.216797-5.585938,12.80957-12.195557,24.590332-10.40686,18.548584-15.592041,15.183105-21.925903,29.407471-7.186523,16.139404-3.605469,27.420654-11.649414,31.898438-1.688843.940186-8.289185,4.164551-12.148193,10.370117-1.602295,2.57666-1.891235,4.202637-3.851807,14.222656-3.52832,18.032227-4.314453,21.565918-7.413818,25.672852-2.561035,3.394043-5.481934,5.563477-7.925659,7.378418-3.402588,2.526855-7.407349,5.436523-13.282349,6.630859-2.083252.423584-3.990234.547852-5.616211.529053-1.876953-.021484-3.686157-.542969-5.431274-1.234375-2.41272-.955811-9.296509-.859619-11.887329.158203-1.773804.696533-3.645142,1.099854-5.550659,1.075928-1.475708-.018555-3.153564-.1604-4.9646-.528809-5.875-1.194336-9.879761-4.104004-13.282349-6.630859-2.443726-1.814941-5.364624-3.984375-7.925659-7.378418-3.099365-4.106934-3.885498-7.640625-7.413818-25.672852-1.563721-7.991943-2.064087-10.643799-3.015503-12.69751-.336548-.726562-.665039-1.233154-.836304-1.525146-3.752075-6.395264-9.362915-10.296387-10.323608-11.009277-6.998291-5.193604-4.127808-17.019043-10-31.555664-5.725586-14.173828-11.528931-10.609131-24.888794-32.296143-6.260132-10.162109-6.436157-13.363281-12.706665-21.405273-6.893188-8.840576-14.683702-16.431939-20.015611-20.104058l-8.527778,2.888889c1.356201,2.775879,4.703301,9.962484,6.754937,15.137044,2.792114,7.041992,2.546143,7.768066,3.976562,10.446289,1.143555,2.141113,2.37793,3.4646,3.196899,4.430908,1.929565,2.276855,1.456909,2.517822,3.914185,5.939453,1.796631,2.501709,3.269653,4.07251,3.851807,4.740723,4.813232,5.524902,5.057983,14.018555,8.592651,21.629639,3.769897,8.117188,7.921509,8.10083,11.273071,11.9375,1.407837,1.611572,2.03772,3.138184,2.542847,4.249268,3.576904,7.86792,1.762939,18.299316,3.813721,27.294678,2.8927,12.688232,12.057983,16.303467,9.629639,21.111084-1.597046,3.161865-5.685425,1.779541-15.037598,5.571289-6.874878,2.787354-6.254761,4.117188-15.987549,9.428711-12.693115,6.927002-16.561523,6.200439-19.54895,11.084473-3.393433,5.547852-1.86792,12.151855-.981445,15.989746,2.722534,11.786621,12.833252,23.390381,24.296265,24.888916,6.236084.815186,8.25647-1.963623,14.814819,0,2.225952.666504,9.763306,3.312988,13.036987,10.073975,3.668335,7.576172-2.02478,12.041016,1.185181,19.555664,2.738525,6.411133,10.091309,10.714111,17.185181,11.259277,10.03772.771484,17.915527-6.104492,21.320679-12.232666,3.807861-6.852783-.849121-8.917725,2.975708-18.582275,4.720093-11.927002,14.956421-22.163818,24.128906-24.426758.452881-.111816,1.001709-.228027,1.143921-.258545,6.311279-1.35791,12.853882-1.35791,19.165161,0,.000122,0,.568604.12085,1.144165.258545,19.832764,4.746582,29.677124,18.500732,29.677124,18.500732,5.510742,7.699463,7.327026,15.895996,7.807983,22.066406.629272,8.071777,7.11499,14.558594,15.210205,14.689941.419434.006836.845581.001953,1.278076-.015381,8.730591-.350342,16.085083-5.672607,19.555542-11.852051,3.231812-5.754395.669067-7.931396,3.555542-12.444336,5.042603-7.884277,14.705811-4.120117,26.074097-10.666748,9.662109-5.564209,16.074829-15.99585,17.77771-26.073975,1.316528-7.79126.764771-20.974609-7.150146-26.861816-2.893311-2.1521-4.55249-1.689941-8.498779-2.599609-.000122,0-3.047607-.411377-6.874023-2.353516-4.580933-2.325195-3.796997-4.914062-7.699219-7.888916-6.840088-5.2146-14.949585-1.606689-18.536987-7.683594-.145386-.246338-.314331-.5354-.480469-.957275-.231812-.588623,6.183838-13.05957,7.758179-16.840576,3.88147-9.322266-1.666626-13.862061,3.407471-23.185059.838623-1.541016,1.706177-2.732422,3.555542-6.222168,3.731445-7.04126,2.877563-7.243896,4.950073-10.206543,3.202515-4.577881,5.509888-4.478027,8.235107-9.571289.187622-.350586.750366-1.7146,1.868408-4.428223,4.434937-10.764648,4.247437-10.533936,4.724121-11.349609,2.139404-3.661621,3.065674-3.432861,7.20166-9.729004.778687-1.185547,1.496948-2.278809,2.205811-3.530273,3.086426-5.44873,3.855835-10.116943,4.814819-14.296387.83313-3.631104,4.53408-9.07959,7.092552-15.444336-2.871216-.981201-7.388889-2.87037-10.351852-3.666667Z" fill="#b89065"/><ellipse cx="219.653942" cy="183.034772" rx="5.518519" ry="4.999931" fill="#fff" stroke="#80705e" stroke-miterlimit="10" stroke-width=".470878"/><path d="M161.720842,6.470872l56.142627,133.045441c.130607.30951.591825.223711.592183-.112228.018088-16.979338.017452-96.021805-.001909-99.832555-.210083-2.924716-.570068-5.636203-1.080078-8.154791-.149902-.751758-.320068-1.493103-.5-2.214116-.040039-.182733-.089966-.375631-.139893-.558364-.240112-.954822-.5-1.868734-.800049-2.762563-.75-2.346021-1.660034-4.478565-2.699951-6.428376-.330078-.619605-.670166-1.208714-1.02002-1.787409-.360107-.578943-.720093-1.137555-1.100098-1.675836l-.01001-.010166c-.559937-.812256-1.159912-1.573932-1.780029-2.305359-.209961-.253892-.429932-.49737-.639893-.731179-.219971-.233561-.430054-.467122-.650024-.690517-.910034-.944409-1.869995-1.80774-2.859985-2.610079-.449951-.3553-.920044-.710848-1.380005-1.046065h-.01001c-.470093-.334969-.950073-.649854-1.430054-.96474-.48999-.30472-.97998-.599274-1.47998-.883415-.349976-.203312-.699951-.386045-1.050049-.568777-.449951-.233561-.909912-.456956-1.369873-.670433-.5-.243478-1.01001-.467122-1.530029-.680351-.75-.304472-1.52002-.589109-2.300049-.863084-2.099976-.721261-4.290039-1.289791-6.550049-1.726416-.25-.050828-.51001-.101656-.77002-.142318-.129883-.030497-.269897-.050828-.409912-.071159-.48999-.091242-.98999-.172567-1.5-.243726-.179932-.030249-.369995-.060994-.560059-.081325-.5-.070911-1-.131905-1.51001-.182733-3.119873-.365466-6.349854-.51795-9.639893-.51795-.467227,0-5.047519.245064-8.838701.457947-2.495036.140102-4.095736,2.710269-3.124179,5.01264Z" fill="#b89065" mix-blend-mode="darken" opacity=".23"/><path d="M275.390217,12.137852l-53.751265,127.378464c-.130609.309513-.591831.223713-.592189-.112229-.018088-16.97929-.017452-96.021805.001909-99.832556.210083-2.924716.570068-5.636203,1.080078-8.154791.149902-.751758.320068-1.493103.5-2.214116.040039-.182733.089966-.375631.139893-.558364.240112-.954822.5-1.868734.800049-2.762563.75-2.346021,1.660034-4.478565,2.699951-6.428376.330078-.619605.670166-1.208714,1.02002-1.787409.360107-.578943.720093-1.137555,1.100098-1.675836l.01001-.010166c.559937-.812256,1.159912-1.573932,1.780029-2.305359.209961-.253892.429932-.49737.639893-.731179.219971-.233561.430054-.467122.650024-.690517.910034-.944409,1.869995-1.80774,2.859985-2.610079.449951-.3553.920044-.710848,1.380005-1.046065h.01001c.470093-.334969.950073-.649854,1.430054-.96474.48999-.30472.97998-.599274,1.47998-.883415.349976-.203312.699951-.386045,1.050049-.568777.449951-.233561.909912-.456956,1.369873-.670433.5-.243478,1.01001-.467122,1.530029-.680351.75-.304472,1.52002-.589109,2.300049-.863084,2.099976-.721261,4.290039-1.289791,6.550049-1.726416.25-.050828.51001-.101656.77002-.142318.129883-.030497.269897-.050828.409912-.071159.48999-.091242.98999-.172567,1.5-.243726.179932-.030249.369995-.060994.560059-.081325.5-.070911,1-.131905,1.51001-.182733,3.119873-.365466,6.349854-.51795,9.639893-.51795.209236,0,1.243341.049147,2.662046.122542,5.497588.28441,9.049706,5.943163,6.909478,11.015025Z" fill="#b89065" mix-blend-mode="darken" opacity=".23"/></g></g></svg>