<?xml version="1.0" encoding="UTF-8"?><svg id="Layer_1" xmlns="http://www.w3.org/2000/svg" width="537.33188" height="87.50024" viewBox="0 0 537.33188 87.50024"><line x1="4.29431" y1="4.64001" x2="3.98853" y2="79.8645" fill="none" stroke="#515ba7" stroke-miterlimit="10" stroke-width="6"/><line x1="56.99744" y1="23.38135" x2="56.7135" y2="81.08325" fill="none" stroke="#515ba7" stroke-miterlimit="10" stroke-width="6"/><line x1="70.26526" y1="7.30566" x2="70.26526" y2="82.43774" fill="none" stroke="#515ba7" stroke-miterlimit="10" stroke-width="6"/><line x1="83.66992" y1="6.12048" x2="83.66992" y2="74.04639" fill="none" stroke="#515ba7" stroke-miterlimit="10" stroke-width="6"/><line x1="96.6521" y1="10.28528" x2="97.6333" y2="49.68896" fill="none" stroke="#515ba7" stroke-miterlimit="10" stroke-width="6"/><line x1="123.63123" y1="6.12048" x2="124.06714" y2="62.7146" fill="none" stroke="#515ba7" stroke-miterlimit="10" stroke-width="6"/><line x1="110.46094" y1="20.87817" x2="110.46094" y2="34.93604" fill="none" stroke="#515ba7" stroke-miterlimit="10" stroke-width="6"/><line x1="29.79492" y1="35.93726" x2="30.25488" y2="75.31104" fill="none" stroke="#515ba7" stroke-miterlimit="10" stroke-width="6"/><line x1="43.45618" y1="53.60205" x2="43.45618" y2="66.82446" fill="none" stroke="#515ba7" stroke-miterlimit="10" stroke-width="6"/><line x1="16.64685" y1="12.82422" x2="16.64697" y2="81.0835" fill="none" stroke="#515ba7" stroke-miterlimit="10" stroke-width="6"/><path d="M45.10706,42.23584c-8.13147,19.42065-15.81213,37.7644-30.24243,37.7644C8.86121,80.00024,4.18506,76.81519.00012,71.70728c.00024.58838-.00012,7.47119,0,10.3252,4.24548,3.42505,8.99353,5.46777,14.8645,5.46777,19.06616,0,28.0564-21.47119,36.75061-42.2356,8.13147-19.4209,15.81238-37.76465,30.24268-37.76465V0c-19.06641.00024-28.05664,21.47144-36.75085,42.23584Z" fill="#e2a78a"/><path d="M134.32471,7.50159c.01086-3.02466.00818-5.54492,0-7.49792-.06348-.00049-.27759-.00342-.34131-.00342C114.91699.00024,105.92676,21.47144,97.23279,42.23584c-8.13171,19.42065-15.81238,37.7644-30.24268,37.7644-14.42957,0-22.10974-18.34375-30.24109-37.7644C28.0553,21.47144,19.06555.00024,0,.00024v7.5c14.42944,0,22.10962,18.34351,30.24084,37.76416,8.69385,20.7644,17.68372,42.23584,36.74927,42.23584s28.05664-21.47119,36.75061-42.2356c8.13171-19.42065,15.81238-37.7644,30.24268-37.7644.01123,0,.33008.00134.34131.00134Z" fill="#c7873a"/><path d="M134.32471,72.17847c-6.06055-7.15308-10.86426-18.35474-15.71619-29.94287C109.91431,21.47119,100.92407,0,81.85791,0v7.5c14.4303,0,22.11096,18.34351,30.24243,37.76416,6.12268,14.6228,12.39246,29.59546,22.22437,37.17383,0-3.05908-.00647-6.51709,0-10.25952Z" fill="#e2a78a"/><line x1="138.62769" y1="4.64001" x2="138.32178" y2="79.8645" fill="none" stroke="#515ba7" stroke-miterlimit="10" stroke-width="6"/><line x1="191.33069" y1="23.38135" x2="191.04688" y2="81.08325" fill="none" stroke="#515ba7" stroke-miterlimit="10" stroke-width="6"/><line x1="204.59863" y1="7.30566" x2="204.59863" y2="82.43774" fill="none" stroke="#515ba7" stroke-miterlimit="10" stroke-width="6"/><line x1="218.00317" y1="6.12048" x2="218.00317" y2="74.04639" fill="none" stroke="#515ba7" stroke-miterlimit="10" stroke-width="6"/><line x1="230.98547" y1="10.28528" x2="231.96667" y2="49.68896" fill="none" stroke="#515ba7" stroke-miterlimit="10" stroke-width="6"/><line x1="257.96448" y1="6.12048" x2="258.40051" y2="62.7146" fill="none" stroke="#515ba7" stroke-miterlimit="10" stroke-width="6"/><line x1="244.79419" y1="20.87817" x2="244.79419" y2="34.93604" fill="none" stroke="#515ba7" stroke-miterlimit="10" stroke-width="6"/><line x1="164.1283" y1="35.93726" x2="164.58826" y2="75.31104" fill="none" stroke="#515ba7" stroke-miterlimit="10" stroke-width="6"/><line x1="177.78955" y1="53.60205" x2="177.78955" y2="66.82446" fill="none" stroke="#515ba7" stroke-miterlimit="10" stroke-width="6"/><line x1="150.98022" y1="12.82422" x2="150.98022" y2="81.0835" fill="none" stroke="#515ba7" stroke-miterlimit="10" stroke-width="6"/><path d="M179.44043,42.23584c-8.13159,19.42065-15.81213,37.7644-30.24255,37.7644-6.0033,0-10.67944-3.18506-14.8645-8.29297.00037.58838,0,7.47119,0,10.3252,4.24561,3.42505,8.99353,5.46777,14.8645,5.46777,19.06628,0,28.0564-21.47119,36.75061-42.2356,8.13159-19.4209,15.81238-37.76465,30.2428-37.76465V0c-19.06653.00024-28.05664,21.47144-36.75085,42.23584Z" fill="#e2a78a"/><path d="M268.65808,7.50159c.01086-3.02466.00818-5.54492,0-7.49792-.06348-.00049-.27759-.00342-.34131-.00342C249.25037.00024,240.26013,21.47144,231.56616,42.23584c-8.13171,19.42065-15.81238,37.7644-30.24268,37.7644s-22.10986-18.34375-30.24109-37.7644C162.38867,21.47144,153.39893.00024,134.33337.00024v7.5c14.42944,0,22.10962,18.34351,30.24084,37.76416,8.69373,20.7644,17.68372,42.23584,36.74927,42.23584s28.05664-21.47119,36.75061-42.2356c8.13171-19.42065,15.81238-37.7644,30.24268-37.7644.01123,0,.32996.00134.34131.00134Z" fill="#c7873a"/><path d="M268.65808,72.17847c-6.06067-7.15308-10.86426-18.35474-15.71619-29.94287C244.24768,21.47119,235.25745,0,216.19128,0v7.5c14.4303,0,22.11084,18.34351,30.24243,37.76416,6.12268,14.6228,12.39246,29.59546,22.22437,37.17383,0-3.05908-.00647-6.51709,0-10.25952Z" fill="#e2a78a"/><line x1="272.96094" y1="4.64001" x2="272.65515" y2="79.8645" fill="none" stroke="#515ba7" stroke-miterlimit="10" stroke-width="6"/><line x1="325.66406" y1="23.38135" x2="325.38025" y2="81.08325" fill="none" stroke="#515ba7" stroke-miterlimit="10" stroke-width="6"/><line x1="338.93201" y1="7.30566" x2="338.93201" y2="82.43774" fill="none" stroke="#515ba7" stroke-miterlimit="10" stroke-width="6"/><line x1="352.33655" y1="6.12048" x2="352.33655" y2="74.04639" fill="none" stroke="#515ba7" stroke-miterlimit="10" stroke-width="6"/><line x1="365.31873" y1="10.28528" x2="366.29993" y2="49.68896" fill="none" stroke="#515ba7" stroke-miterlimit="10" stroke-width="6"/><line x1="392.29785" y1="6.12048" x2="392.73389" y2="62.7146" fill="none" stroke="#515ba7" stroke-miterlimit="10" stroke-width="6"/><line x1="379.12756" y1="20.87817" x2="379.12756" y2="34.93604" fill="none" stroke="#515ba7" stroke-miterlimit="10" stroke-width="6"/><line x1="298.46155" y1="35.93726" x2="298.92151" y2="75.31104" fill="none" stroke="#515ba7" stroke-miterlimit="10" stroke-width="6"/><line x1="312.12292" y1="53.60205" x2="312.12292" y2="66.82446" fill="none" stroke="#515ba7" stroke-miterlimit="10" stroke-width="6"/><line x1="285.3136" y1="12.82422" x2="285.3136" y2="81.0835" fill="none" stroke="#515ba7" stroke-miterlimit="10" stroke-width="6"/><path d="M313.77368,42.23584c-8.13147,19.42065-15.81213,37.7644-30.24243,37.7644-6.0033,0-10.67944-3.18506-14.8645-8.29297.00037.58838,0,7.47119,0,10.3252,4.24548,3.42505,8.99353,5.46777,14.8645,5.46777,19.06616,0,28.0564-21.47119,36.75061-42.2356,8.13147-19.4209,15.81238-37.76465,30.24268-37.76465V0c-19.06641.00024-28.05664,21.47144-36.75085,42.23584Z" fill="#e2a78a"/><path d="M402.99146,7.50159c.01074-3.02466.00818-5.54492,0-7.49792-.06348-.00049-.27771-.00342-.34131-.00342-19.06653,0-28.05664,21.47119-36.75061,42.2356-8.13184,19.42065-15.81238,37.7644-30.2428,37.7644-14.42957,0-22.10974-18.34375-30.24097-37.7644C296.72192,21.47144,287.7323.00024,268.66675.00024v7.5c14.42932,0,22.1095,18.34351,30.24084,37.76416,8.69373,20.7644,17.68372,42.23584,36.74915,42.23584,19.06653,0,28.05664-21.47119,36.75073-42.2356,8.13171-19.42065,15.81226-37.7644,30.24268-37.7644.01123,0,.32996.00134.34131.00134Z" fill="#c7873a"/><path d="M402.99146,72.17847c-6.06067-7.15308-10.86438-18.35474-15.71631-29.94287-8.69421-20.7644-17.68433-42.2356-36.75061-42.2356v7.5c14.4303,0,22.11096,18.34351,30.24243,37.76416,6.12268,14.6228,12.39258,29.59546,22.22437,37.17383.00012-3.05908-.00647-6.51709.00012-10.25952Z" fill="#e2a78a"/><line x1="407.29431" y1="4.64001" x2="406.98853" y2="79.8645" fill="none" stroke="#515ba7" stroke-miterlimit="10" stroke-width="6"/><line x1="459.99744" y1="23.38135" x2="459.7135" y2="81.08325" fill="none" stroke="#515ba7" stroke-miterlimit="10" stroke-width="6"/><line x1="473.26526" y1="7.30566" x2="473.26526" y2="82.43774" fill="none" stroke="#515ba7" stroke-miterlimit="10" stroke-width="6"/><line x1="486.66992" y1="6.12048" x2="486.66992" y2="74.04639" fill="none" stroke="#515ba7" stroke-miterlimit="10" stroke-width="6"/><line x1="499.6521" y1="10.28528" x2="500.6333" y2="49.68896" fill="none" stroke="#515ba7" stroke-miterlimit="10" stroke-width="6"/><line x1="526.63123" y1="6.12048" x2="527.06714" y2="62.7146" fill="none" stroke="#515ba7" stroke-miterlimit="10" stroke-width="6"/><line x1="513.46094" y1="20.87817" x2="513.46094" y2="34.93604" fill="none" stroke="#515ba7" stroke-miterlimit="10" stroke-width="6"/><line x1="432.79492" y1="35.93726" x2="433.25488" y2="75.31104" fill="none" stroke="#515ba7" stroke-miterlimit="10" stroke-width="6"/><line x1="446.45618" y1="53.60205" x2="446.45618" y2="66.82446" fill="none" stroke="#515ba7" stroke-miterlimit="10" stroke-width="6"/><line x1="419.64685" y1="12.82422" x2="419.64697" y2="81.0835" fill="none" stroke="#515ba7" stroke-miterlimit="10" stroke-width="6"/><path d="M448.10706,42.23584c-8.13147,19.42065-15.81213,37.7644-30.24243,37.7644-6.00342,0-10.67957-3.18506-14.8645-8.29297.00024.58838-.00012,7.47119,0,10.3252,4.24548,3.42505,8.99353,5.46777,14.8645,5.46777,19.06616,0,28.0564-21.47119,36.75061-42.2356,8.13147-19.4209,15.81238-37.76465,30.24268-37.76465V0c-19.06641.00024-28.05664,21.47144-36.75085,42.23584Z" fill="#e2a78a"/><path d="M537.32471,7.50159c.01086-3.02466.00818-5.54492,0-7.49792-.06348-.00049-.27759-.00342-.34131-.00342-19.06641,0-28.05664,21.47119-36.75061,42.2356-8.13171,19.42065-15.81238,37.7644-30.24268,37.7644-14.42957,0-22.10974-18.34375-30.24109-37.7644C431.0553,21.47144,422.06555.00024,403,.00024v7.5c14.42944,0,22.10962,18.34351,30.24084,37.76416,8.69385,20.7644,17.68372,42.23584,36.74927,42.23584s28.05664-21.47119,36.75061-42.2356c8.13171-19.42065,15.81238-37.7644,30.24268-37.7644.01123,0,.33008.00134.34131.00134Z" fill="#c7873a"/><path d="M537.32471,72.17847c-6.06055-7.15308-10.86426-18.35474-15.71619-29.94287-8.69421-20.7644-17.68445-42.2356-36.75061-42.2356v7.5c14.4303,0,22.11096,18.34351,30.24243,37.76416,6.12268,14.6228,12.39246,29.59546,22.22437,37.17383,0-3.05908-.00647-6.51709,0-10.25952Z" fill="#e2a78a"/></svg>