<?xml version="1.0" encoding="UTF-8"?><svg id="Layer_1" xmlns="http://www.w3.org/2000/svg" width="278.49081" height="323.32967" xmlns:xlink="http://www.w3.org/1999/xlink" viewBox="0 0 278.49081 323.32967"><defs><linearGradient id="linear-gradient" x1="114.27407" y1="32.55823" x2="114.17409" y2="32.55823" gradientUnits="userSpaceOnUse"><stop offset="0" stop-color="#13272e"/><stop offset=".0162" stop-color="#162c34"/><stop offset=".15255" stop-color="#2e5767"/><stop offset=".29164" stop-color="#437c92"/><stop offset=".43112" stop-color="#549ab6"/><stop offset=".5712" stop-color="#61b2d1"/><stop offset=".71207" stop-color="#6bc2e5"/><stop offset=".85428" stop-color="#71ccf1"/><stop offset="1" stop-color="#73d0f5"/></linearGradient><radialGradient id="radial-gradient" cx="128.76027" cy="226.14111" fx="128.76027" fy="226.14111" r="37.54967" gradientUnits="userSpaceOnUse"><stop offset="0" stop-color="#f1f7eb"/><stop offset=".19763" stop-color="#edf5e7"/><stop offset=".36977" stop-color="#e2f1dc"/><stop offset=".53249" stop-color="#d0e9ca"/><stop offset=".68935" stop-color="#b7deb1"/><stop offset=".84204" stop-color="#97d091"/><stop offset=".98967" stop-color="#70c06a"/><stop offset="1" stop-color="#6dbf67"/></radialGradient></defs><path d="M114.27407,32.55323v.01001h-.09998c.02997,0,.07001,0,.09998-.01001Z" fill="url(#linear-gradient)"/><path d="M115.54158,8.61103h.00003c5.64684-1.25027,11.39884-1.99651,17.18552-2.22958l16.7858-.67609c14.36777-.5787,27.63706,7.5735,33.38086,20.50805l3.89597,8.77339-25.55768,96.49077-45.23818-18.70514-16.68132-79.47759c-2.35078-11.20019,4.85928-22.16645,16.22901-24.68381Z" fill="#cfecf8" stroke="#05415a" stroke-miterlimit="10" stroke-width="4"/><path d="M251.14519,31.48109l-39.17556,99.02979-66.5989,155.00398-6.87104-144.12386-2.5724-54.04136c-.95452-20.05276,2.57981-40.03861,10.19167-57.63157l5.82806-13.47015c3.82722-8.84569,11.15126-14.30513,19.07806-14.24748.03298.00024.06545.00046.09739.00066,33.73713.15991,62.32624,12.44971,80.01488,29.47998h.00786Z" fill="#cfecf8" stroke="#05415a" stroke-miterlimit="10" stroke-width="4"/><path d="M12.62735,40.61716l42.84534,99.02979,64.93959,150.11104c2.00635,4.63776,7.98609,3.20295,8.25639-1.98108l7.15628-137.24983,2.93537-56.38489c.96424-18.52193-2.60608-36.98206-10.29546-53.23198l-9.32464-19.70571c-2.96192-6.2594-8.62364-10.13161-14.75827-10.09357l-4.23572.02626c-36.89746.15991-68.16466,12.44971-87.51029,29.47998h-.00859Z" fill="#cfecf8" stroke="#05415a" stroke-miterlimit="10" stroke-width="4"/><path d="M104.24056,306.92064c-1.52182,8.45181-10.67651,13.201-18.41402,9.47541-30.66019-14.76278-81.09372-57.02658-83.717-116.41063-1.66827-37.76499,16.29515-39.66589,14.828-86.74422-1.54482-49.57039-12.9411-62.55234-2.60106-78.15537,7.56168-11.4105,22.51726-16.5465,33.60104-16.18541,12.6411.41182,13.63103,7.75845,31.8203,14.55571,24.82168,9.27577,36.18982.53182,48.23861,12.13193.68979.6641,9.49063,9.47057,10.10093,22.3126.43782,9.21285-3.60313,16.80178-5.5088,20.3806-4.06651,7.6369-7.65186,9.24394-11.12751,18.15552-1.1274,2.8906-2.44581,6.271-2.88679,10.91911-1.13204,11.93242,5.14528,15.07127,2.76041,24.59296-1.39343,5.56352-4.09995,10.96909-4.1,10.96917-1.04411,2.0854-2.21843,4.08178-2.9581,7.23669-.70896,3.02388-.61482,5.35491-.60112,6.14701.17526,10.11414-5.49561,19.28835-14.20559,24.43459-9.37172,5.54438-16.36988,14.97557-18.46801,26.52657-.7202,3.96509-.81342,7.89165-.34412,11.68664,1.3534,11.0701,8.46554,19.47649,10.77373,22.43666.78942,1.0014,1.60562,1.92942,2.4445,2.78834,10.57882,10.8316,15.14907,26.17432,12.46605,41.0752l-2.10144,11.67089Z" fill="#cfecf8" stroke="#05415a" stroke-miterlimit="10" stroke-width="4"/><path d="M252.81667,134.34869c-6.10541-44.92029,22.18103-63.41138,6.92603-93.08557-6.19507-12.05066-19.6546-26.14819-33.20441-25.50867-9.80701.46265-12.17719,8.29211-28.54089,11.91052-12.86469,2.8446-15.00049-1.19849-25.19495,2.47388-12.08301,4.35266-19.00616,13.66663-22.81061,18.61304-4.32452,5.6228-9.62811,12.51843-10.08832,22.31824-.43268,9.21313,3.61261,16.7998,5.52026,20.37756,4.0708,7.63464,7.6571,9.23975,11.1377,18.14917l.01434.03687c1.01765,2.61559,2.93409,4.77632,5.40983,6.0983,1.83729.98107,3.72512,2.05205,5.65017,3.22176.12569.07637.25096.15281.37582.22934,6.38537,3.91373,8.91759,11.76984,6.50549,18.86012-1.23807,3.63925-1.43599,7.60259-.43508,11.41652,1.78351,6.79602,7.99878,7.34558,11.40564,13.11072,1.71012,2.89385,2.94145,7.37661,1.33447,14.56648-.794,3.55248-3.53221,6.35645-7.04467,7.31204h-.00002c-4.38154,1.19204-5.17711,7.06489-1.27061,9.37966l.09332.0553c7.93835,6.00598,9.68365,11.15601,9.90491,14.62781.4502,7.06396-5.23523,9.90173-4.0376,16.77612,1.19049,6.83374,7.2406,6.50781,7.98297,13.43335.77094,7.19189-4.97839,14.77661-5.77771,15.80811-.61157.78906-1.16211,1.40845-1.54688,1.823-1.22699,1.31958-2.23511,2.11609-3.30322,3.19897-1.64454,1.66707-3.39035,3.74957-5.09568,6.3878-6.85228,10.60079-8.58347,23.72265-5.15969,35.87207l2.3277,8.25991c1.52417,8.43774,10.66809,13.19983,18.39246,9.47766,26.57654-12.80591,55.39313-39.43628,62.75092-51.68115,8.5885-14.29272,21.60022-35.94617,20.92737-64.78931-.77051-33.03174-18.53955-34.81519-23.14905-68.72961Z" fill="#cfecf8" stroke="#05415a" stroke-miterlimit="10" stroke-width="5"/><circle cx="128.76027" cy="226.14111" r="37.54967" fill="url(#radial-gradient)" stroke="#134d26" stroke-miterlimit="10" stroke-width="2"/></svg>