<?xml version="1.0" encoding="UTF-8"?><svg id="a" xmlns="http://www.w3.org/2000/svg" width="277.990823" height="322.083088" xmlns:xlink="http://www.w3.org/1999/xlink" viewBox="0 0 277.990823 322.083088"><defs><linearGradient id="b" x1="114.274066" y1="31.811622" x2="114.17409" y2="31.811622" gradientUnits="userSpaceOnUse"><stop offset="0" stop-color="#13272e"/><stop offset=".016204" stop-color="#162c34"/><stop offset=".152553" stop-color="#2e5767"/><stop offset=".291637" stop-color="#437c92"/><stop offset=".431121" stop-color="#549ab6"/><stop offset=".571196" stop-color="#61b2d1"/><stop offset=".712067" stop-color="#6bc2e5"/><stop offset=".854284" stop-color="#71ccf1"/><stop offset="1" stop-color="#73d0f5"/></linearGradient><linearGradient id="c" x1="138.914596" y1="311.838834" x2="138.914596" y2="49.1859" gradientUnits="userSpaceOnUse"><stop offset="0" stop-color="#1d3b47"/><stop offset=".109691" stop-color="#1f3f4c"/><stop offset=".251479" stop-color="#264d5c"/><stop offset=".359835" stop-color="#2e5c6e"/><stop offset=".599277" stop-color="#448ea8"/><stop offset=".649539" stop-color="#4897b3"/><stop offset=".744611" stop-color="#4ea4c3"/><stop offset=".852561" stop-color="#51accd"/><stop offset="1" stop-color="#53afd0"/></linearGradient><radialGradient id="d" cx="122.680202" cy="218.078076" fx="122.680202" fy="218.078076" r="31.917217" gradientUnits="userSpaceOnUse"><stop offset="0" stop-color="#f1f7eb"/><stop offset=".197635" stop-color="#edf5e7"/><stop offset=".36977" stop-color="#e2f1dc"/><stop offset=".532485" stop-color="#d0e9ca"/><stop offset=".689345" stop-color="#b7deb1"/><stop offset=".842036" stop-color="#97d091"/><stop offset=".989674" stop-color="#70c06a"/><stop offset="1" stop-color="#6dbf67"/></radialGradient><radialGradient id="e" cx="152.121398" cy="313.78283" fx="152.121398" fy="313.78283" r="31.595445" gradientTransform="translate(25.123312 -138.092929) scale(.851124 .924644)" gradientUnits="userSpaceOnUse"><stop offset="0" stop-color="#ffecd2"/><stop offset=".209836" stop-color="#fee8c9"/><stop offset=".543004" stop-color="#fedeb2"/><stop offset=".955789" stop-color="#fdce8d"/><stop offset="1" stop-color="#fdcd89"/></radialGradient></defs><path d="M114.274066,31.806617v.01001h-.099976c.029968,0,.070007,0,.099976-.01001Z" fill="url(#b)"/><path d="M115.54158,7.864424l.000029-.000006c5.646837-1.250261,11.398836-1.9965,17.185519-2.229572l16.785801-.676087c14.367765-.578695,27.637057,7.573501,33.380856,20.50805l3.89597,8.773393-25.557684,96.490772-45.238181-18.705143-16.681319-79.477592c-2.350775-11.20019,4.859276-22.166452,16.22901-24.683814Z" fill="#cfecf8" stroke="#05415a" stroke-miterlimit="10" stroke-width="4"/><path d="M211.969623,114.348094l-66.030321,146.905219-7.439625-137.330273-2.572396-47.558551c-.954522-17.647233,2.57981-35.235578,10.191665-50.718086l5.828058-11.854266c3.82722-7.784563,11.151256-12.589085,19.078064-12.538348.032979.000211.065445.000405.097385.000581,28.416608.118535,53.180898,7.810405,70.85535,19.189597,3.309239,2.13056-30.00818,93.904127-30.00818,93.904127Z" fill="#cfecf8" stroke="#05415a" stroke-miterlimit="10" stroke-width="4"/><path d="M55.472687,138.900332l64.939589,150.111036c2.006345,4.637765,7.986089,3.202954,8.256387-1.98108l7.15628-137.249829,2.935369-56.384892c.964243-18.521934-2.606082-36.982062-10.295456-53.231976l-9.324638-19.705708c-2.961915-6.2594-8.623643-10.131605-14.758274-10.093575l-4.235722.026259c-28.257911.122469-53.213526,7.359425-72.040848,18.391619-5.756253,3.372976,27.367313,110.118146,27.367313,110.118146Z" fill="#cfecf8" stroke="#05415a" stroke-miterlimit="10" stroke-width="4"/><path d="M245.62804,143.860704c-6.931965,69.071269-35.231413,136.029868-66.584995,167.888649-1.333307,1.35479-18.528233-13.107052-39.344116-14.12499-10.948812-.535419-40.577104,13.50924-41.030369,13.043607-31.338754-32.193939-64.184808-100.503398-66.910516-173.937148-1.830017-49.160156,32.460022-90.189941,53.77002-87.410156,1.083168-.590591,3.762167.81157,7.556293,3.195845,1.402221.881173,3.014914,1.433637,4.670944,1.417654,7.096845-.068493,19.609622,7.306667,36.302731,7.306667,19.611085,0,40.602657-8.355226,51.556041-4.838706,2.620062.841155,5.494897.494651,7.668658-1.192664.151474-.117577.29496-.231405.430284-.341262,1.523411-1.236713,3.455168-1.896654,5.415427-1.809333,21.407816.953624,51.299903,43.100385,46.499598,90.801839Z" fill="url(#c)"/><path d="M104.240555,306.174032c-1.521815,8.45181-10.676514,13.200996-18.414022,9.475412-30.660188-14.762779-81.093722-57.026585-83.717004-116.410626-1.668268-37.764994,16.295155-39.665892,14.828004-86.744219-1.544821-49.570389-12.941104-62.552338-2.601064-78.155368,7.561685-11.410503,22.517264-16.546504,33.601036-16.185408,12.6411.411818,13.631029,7.758453,31.820304,14.555711,24.821681,9.275771,36.189816.531824,48.238608,12.131934.689794.664102,9.49063,9.470569,10.100928,22.312596.437823,9.212846-3.603133,16.801776-5.508801,20.380602-4.066511,7.636904-7.651855,9.243941-11.127511,18.15552-1.127396,2.890602-2.44581,6.271001-2.88679,10.919105-1.13204,11.932416,5.145279,15.071271,2.76041,24.592964-1.39343,5.563524-4.09995,10.969089-4.100005,10.969168-1.044108,2.085403-2.218425,4.081778-2.958098,7.236695-.708957,3.023878-.61482,5.354907-.601115,6.147014.175256,10.114138-5.495611,19.288354-14.205589,24.434588-9.371721,5.544382-16.369879,14.975572-18.468013,26.526573-.720204,3.965086-.813419,7.891647-.344125,11.686643,1.353403,11.070098,8.465539,19.476492,10.773732,22.436661.78942,1.001398,1.605617,1.929417,2.444499,2.788344,10.578815,10.831596,15.149074,26.174316,12.466052,41.075196l-2.101437,11.670894Z" fill="#cfecf8" stroke="#05415a" stroke-miterlimit="10" stroke-width="4"/><path d="M252.063292,130.833198c-5.827211-43.898026,22.523656-62.152203,7.470596-91.084039-6.113022-11.749254-19.466507-25.45695-32.998139-24.750618-9.793827.511075-12.206927,8.18289-28.565607,11.81959-12.860765,2.858941-14.968988-1.082588-25.168805,2.570022-12.089398,4.329272-19.056922,13.480104-22.884681,18.340701-4.35107,5.525242-9.687255,12.301278-10.20523,21.888719-.48696,9.013501,3.506462,16.409522,5.389678,19.897413,4.018605,7.44278,7.589477,8.991173,11.011238,17.684353.464943,1.181147.962899,2.446203,1.415087,3.851437l.057969.182611c1.247575,3.931352,5.451632,6.160296,9.527412,5.051391,5.480115-1.490985,11.102823,1.638135,12.558633,6.988966l11.745237,43.169626c1.455873,5.351061-1.806448,10.897547-7.286563,12.388531l-5.286735,1.438371c-4.38153,1.192091-5.210715,6.940776-1.324273,9.181277l.092846.053549c7.889569,5.826816,9.60127,10.853316,9.801446,14.247695.407286,6.906197-5.285816,9.715587-4.131194,16.432043,1.147756,6.676572,7.190007,6.321762,7.889815,13.090809.726747,7.029522-5.058534,14.482128-5.862706,15.495686-.615319.775405-1.168675,1.384486-1.555244,1.792298-1.232892,1.297948-2.244149,2.082998-3.31699,3.148406-1.65181,1.640447-3.407189,3.687555-5.125475,6.277967-6.904484,10.409209-8.711135,23.253578-5.365418,35.116121l2.274466,8.064307c1.471327,8.243537,10.571954,12.846531,18.306002,9.159949,26.609788-12.683556,55.538601-38.901561,62.957531-50.921682,8.659948-14.030307,21.779708-35.286252,21.280247-63.492376-.57199-32.302272-18.301606-33.940427-22.701142-67.083124Z" fill="#cfecf8" stroke="#05415a" stroke-miterlimit="10" stroke-width="3.952578"/><circle cx="122.680202" cy="218.078076" r="31.917217" fill="url(#d)" stroke="#134d26" stroke-miterlimit="10" stroke-width="1.7"/><rect x="125.163748" y="125.881369" width="58.867342" height="52.326017" rx="9.055374" ry="9.055374" transform="translate(-33.194434 43.637392) rotate(-14.526339)" fill="url(#e)" stroke="#93703e" stroke-miterlimit="10" stroke-width="1.772815"/></svg>