<?xml version="1.0" encoding="UTF-8"?><svg id="Layer_1" xmlns="http://www.w3.org/2000/svg" width="357" height="237.222259" xmlns:xlink="http://www.w3.org/1999/xlink" viewBox="0 0 357 237.222259"><defs><linearGradient id="linear-gradient" x1=".5" y1="118.61113" x2="356.5" y2="118.61113" gradientUnits="userSpaceOnUse"><stop offset="0" stop-color="#fff"/><stop offset="1" stop-color="#e6e7e8" stop-opacity=".5"/></linearGradient></defs><rect x=".5" y=".5" width="356" height="236.222259" fill="url(#linear-gradient)" stroke="#231f20" stroke-miterlimit="10"/><path d="M115.502671,65.675591c-.609985,15.179932-9.719971,29.399902-24.609985,35.809937-19.440002,8.359985-41.789978.410034-51.769958-17.76001-.640015-1.150024-1.220032-2.339966-1.75-3.569946-.140015-.320068-.27002-.640015-.400024-.969971-.440002-1.080078-.830017-2.190063-1.160034-3.290039-5.97998-19.590088,3.620056-40.97998,22.880005-49.26001,20.670044-8.880005,44.640015.669922,53.530029,21.319946,1.369995,3.190063,2.309998,6.460083,2.830017,9.75.149963.940063.269958,1.869995.339966,2.810059.150024,1.72998.190002,3.449951.109985,5.160034Z" fill="#efa8ca" stroke="#231f20" stroke-miterlimit="10"/><circle cx="74.794988" cy="64.062973" r="43.059491" fill="none" stroke="#231f20" stroke-miterlimit="10" stroke-width="1.056915"/><path d="M86.785499,31.20921c.230024,1.473907-8.611011,1.933135-23.564495,8.675157-13.82331,6.232574-20.03825,12.048607-21.020261,10.841884-1.136898-1.397015,5.254243-11.574851,15.720304-17.104633,13.170042-6.958333,28.56618-4.323449,28.864452-2.412409Z" fill="#f2c8de"/><path d="M113.578305,173.54209c-.609985,15.179932-9.719971,29.399902-24.609985,35.809937-19.440002,8.359985-41.789978.410034-51.769958-17.76001-.640015-1.150024-1.220032-2.339966-1.75-3.569946-.140015-.320068-.27002-.640015-.400024-.969971-.440002-1.080078-.830017-2.190063-1.160034-3.290039-5.97998-19.590088,3.620056-40.97998,22.880005-49.26001,20.670044-8.880005,44.640015.669922,53.530029,21.319946,1.369995,3.190063,2.309998,6.460083,2.830017,9.75.149963.940063.269958,1.869995.339966,2.810059.150024,1.72998.190002,3.449951.109985,5.160034Z" fill="#efa8ca" stroke="#231f20" stroke-miterlimit="10"/><circle cx="72.870622" cy="171.929472" r="43.059491" fill="none" stroke="#231f20" stroke-miterlimit="10" stroke-width="1.056915"/><path d="M83.95704,137.748856c.230024,1.473907-8.611011,1.933135-23.564495,8.675157-13.82331,6.232574-20.03825,12.048607-21.020261,10.841884-1.136898-1.397015,5.254243-11.574851,15.720304-17.104633,13.170042-6.958333,28.56618-4.323449,28.864452-2.412409Z" fill="#f2c8de"/><path d="M219.907683,173.54209c-.609985,15.179932-9.719971,29.399902-24.609985,35.809937-19.440002,8.359985-41.789978.410034-51.769958-17.76001-.640015-1.150024-1.220032-2.339966-1.75-3.569946-.140015-.320068-.27002-.640015-.400024-.969971-.440002-1.080078-.830017-2.190063-1.160034-3.290039-5.97998-19.590088,3.620056-40.97998,22.880005-49.26001,20.670044-8.880005,44.640015.669922,53.530029,21.319946,1.369995,3.190063,2.309998,6.460083,2.830017,9.75.149963.940063.269958,1.869995.339966,2.810059.150024,1.72998.190002,3.449951.109985,5.160034Z" fill="#efa8ca" stroke="#231f20" stroke-miterlimit="10"/><circle cx="179.2" cy="171.929472" r="43.059491" fill="none" stroke="#231f20" stroke-miterlimit="10" stroke-width="1.056915"/><path d="M191.172791,137.041497c.230024,1.473907-8.611011,1.933135-23.564495,8.675157-13.82331,6.232574-20.03825,12.048607-21.020261,10.841884-1.136898-1.397015,5.254243-11.574851,15.720304-17.104633,13.170042-6.958333,28.56618-4.323449,28.864452-2.412409Z" fill="#f2c8de"/><path d="M326.237062,173.54209c-.609985,15.179932-9.719971,29.399902-24.609985,35.809937-19.440002,8.359985-41.789978.410034-51.769958-17.76001-.640015-1.150024-1.220032-2.339966-1.75-3.569946-.140015-.320068-.27002-.640015-.400024-.969971-.440002-1.080078-.830017-2.190063-1.160034-3.290039-5.97998-19.590088,3.620056-40.97998,22.880005-49.26001,20.670044-8.880005,44.640015.669922,53.530029,21.319946,1.369995,3.190063,2.309998,6.460083,2.830017,9.75.149963.940063.269958,1.869995.339966,2.810059.150024,1.72998.190002,3.449951.109985,5.160034Z" fill="#efa8ca" stroke="#231f20" stroke-miterlimit="10"/><circle cx="285.529378" cy="171.929472" r="43.059491" fill="none" stroke="#231f20" stroke-miterlimit="10" stroke-width="1.056915"/><path d="M298.388542,137.748856c.230024,1.473907-8.611011,1.933135-23.564495,8.675157-13.82331,6.232574-20.03825,12.048607-21.020261,10.841884-1.136898-1.397015,5.254243-11.574851,15.720304-17.104633,13.170042-6.958333,28.56618-4.323449,28.864452-2.412409Z" fill="#f2c8de"/><path d="M328.559489,65.675591c-.609985,15.179932-9.719971,29.399902-24.609985,35.809937-19.440002,8.359985-41.789978.410034-51.769958-17.76001-.640015-1.150024-1.220032-2.339966-1.75-3.569946-.140015-.320068-.27002-.640015-.400024-.969971-.440002-1.080078-.830017-2.190063-1.160034-3.290039-5.97998-19.590088,3.620056-40.97998,22.880005-49.26001,20.670044-8.880005,44.640015.669922,53.530029,21.319946,1.369995,3.190063,2.309998,6.460083,2.830017,9.75.149963.940063.269958,1.869995.339966,2.810059.150024,1.72998.190002,3.449951.109985,5.160034Z" fill="#efa8ca" stroke="#231f20" stroke-miterlimit="10"/><circle cx="287.851805" cy="64.062973" r="43.059491" fill="none" stroke="#231f20" stroke-miterlimit="10" stroke-width="1.056915"/><path d="M299.660743,29.581821c.230024,1.473907-8.611011,1.933135-23.564495,8.675157-13.82331,6.232574-20.03825,12.048607-21.020261,10.841884-1.136898-1.397015,5.254243-11.574851,15.720304-17.104633,13.170042-6.958333,28.56618-4.323449,28.864452-2.412409Z" fill="#f2c8de"/><path d="M222.03108,65.675591c-.609985,15.179932-9.719971,29.399902-24.609985,35.809937-19.440002,8.359985-41.789978.410034-51.769958-17.76001-.640015-1.150024-1.220032-2.339966-1.75-3.569946-.140015-.320068-.27002-.640015-.400024-.969971-.440002-1.080078-.830017-2.190063-1.160034-3.290039-5.97998-19.590088,3.620056-40.97998,22.880005-49.26001,20.670044-8.880005,44.640015.669922,53.530029,21.319946,1.369995,3.190063,2.309998,6.460083,2.830017,9.75.149963.940063.269958,1.869995.339966,2.810059.150024,1.72998.190002,3.449951.109985,5.160034Z" fill="#efa8ca" stroke="#231f20" stroke-miterlimit="10"/><circle cx="181.323397" cy="64.062973" r="43.059491" fill="none" stroke="#231f20" stroke-miterlimit="10" stroke-width="1.056915"/><path d="M192.401484,28.745154c.230024,1.473907-8.611011,1.933135-23.564495,8.675157-13.82331,6.232574-20.03825,12.048607-21.020261,10.841884-1.136898-1.397015,5.254243-11.574851,15.720304-17.104633,13.170042-6.958333,28.56618-4.323449,28.864452-2.412409Z" fill="#f2c8de"/></svg>