<?xml version="1.0" encoding="UTF-8"?><svg id="Layer_1" xmlns="http://www.w3.org/2000/svg" width="552.49894" height="457.91894" viewBox="0 0 552.49894 457.91894"><path d="M576.6138,359.72936c-.83301,0-1.61035-.52539-1.89355-1.35742-2.13281-6.27734-8.13477-10.26562-15.17676-14.46777-7.11816-4.24902-14.2666-9.05371-16.65332-16.90137-1.56543-5.14062-.6748-10.4834.11035-15.19824l2.90723-17.4375c.18164-1.08984,1.21191-1.82617,2.30176-1.64355,1.08984.18164,1.8252,1.21191,1.64355,2.30176l-2.90723,17.4375c-.71289,4.28027-1.52148,9.13184-.22949,13.375,1.97266,6.48438,8.43066,10.7832,14.87695,14.63184,5.96484,3.55859,14.13477,8.43359,16.91406,16.61523.35547,1.0459-.2041,2.18164-1.25,2.53711-.21387.07227-.43066.10742-.64355.10742Z" fill="#c8c1df" stroke="#282566" stroke-miterlimit="10"/><path d="M22.86682,417.25186c-.53502-6.59004-.54405-13.20845-1.10829-19.79686-.46855-5.47108-1.55624-10.8663-1.98676-16.34201-.06538-.83168.04192-1.65924.05792-2.48903.80861,6.06131,2.07718,12.05617,2.60294,18.15802.54791,8.77954.18932,17.59024.94191,26.36247l-.50774-5.89259" fill="#c8c1df"/><path d="M22.6576,414.8237l.20921,2.42816-.00331-.03859c-.53305-6.57726-.54182-13.18271-1.10497-19.75827-.46855-5.47108-1.45422-10.87871-1.98676-16.34201.03501.47199.08168,1.10131.11668,1.5733l.00922.1068c.45212,5.1832,1.27222,10.32538,1.71887,15.5092.47383,5.49916.57448,11.02179,1.04105,16.52142M23.37456,423.14445l.19782,2.2958-.00153-.01764c-.80128-10.17712-.08791-20.399-.91389-30.57539-.48892-6.0237-1.95145-11.89427-2.80646-17.86044-.04622,6.71704,2.01033,13.15878,2.58214,19.79521.54791,8.77954.1877,17.5903.94191,26.36247" fill="#282466"/><path d="M550.18299,386.81248c.18548.06847.43278.15977.61826.22824,3.44048-2.3533-12.21516-26.3936-30.91797-30.06659q-2.30432-.45248-29.99937,2.72156l.00063.00725-.52673.05698c-.00344-.00058-.00689-.00117-.01034-.00175-30.89771,2.88847-63.44518-21.39414-50.47218-37.65563.65317-.8186,1.32147-1.46939,1.85847-1.99232-3.44739-.68834-5.54082-1.08507-8.95996-1.69806-19.56978,22.39326,26.39256,48.66409,58.58746,46.55257.57018-.0374,1.32922-.10443,1.8983-.15596q28.7755-3.0631,33.2191-1.37517c7.83461,2.9762,16.03673,10.55615,23.09549,21.3436.88208,1.34802,1.11914,1.71031,1.60883,2.03529" fill="#c8c1df"/><path d="M550.32499,388.46042c3.00734,1.52322,2.17781-3.17252,1.67518-4.63673-.06367-.18547-9.16557-19.69086-26.70761-26.86272q-6.03606-2.4677-36.40848,1.05855c.00347.00057.00692.00116.01038.00174l-.52936.05742-.00063-.00725c-28.86668,2.79015-59.31952-20.39502-46.54932-35.44019.66679-.78552,1.35158-1.40891,1.90182-1.90981-.99385-.20641-1.98827-.41023-2.98322-.61124-17.6945,17.22911,16.12674,39.67267,42.91098,39.90768,2.67375.02332,4.64413-.1608,5.70271-.25972.00346.00057.00691.00115.01036.00174l.52672-.05697-.00063-.00725q30.21558-3.46291,36.49142-.69157c13.17993,5.82025,26.38173,23.957,24.90056,27.8022-.192.06438-.448.15021-.64.21458q-.85146-.439-2.06174-2.24371c-7.46552-11.13225-15.23595-18.31325-23.09549-21.3436q-4.77921-1.84262-32.60822,1.31512c-35.38583,3.31136-79.50883-24.3009-61.73381-45.60748.18608-.22305.44601-.51035.63716-.72908-1.00337-.17743-2.00728-.35188-3.01167-.5235-20.28233,24.23561,29.26477,51.49553,63.47354,48.69408.29709-.02433.69269-.06264.98956-.08948.00358.00063.00715.00127.01072.0019q28.0169-3.09065,32.25343-1.46074c10.20425,3.92615,18.50595,14.64946,22.54631,20.69208.94153,1.40813,1.46016,2.18378,2.28929,2.73393" fill="#282466"/><path d="M499.63402,62.715c.5677-1.6053,1.04754-2.41666,2.98825-2.91994-4.37891-14.19992-3.70929-29.7751-11.72878-42.98157-3.56468-5.87029-10.51254-13.20602-23.36879-14.81697-1.9586-.20537-5.60429-.58762-11.09494.10454-14.44853,1.82167-27.18202,9.8302-41.6624,11.53687-17.32416,2.04184-34.87318-3.35394-52.10962,1.58026-7.69228,2.20206-19.75681,9.1937-16.18199,21.4306q.68945.36942,9.90517,1.41815c1.24953-4.20654-1.21074-9.02946,2.14314-12.88602,4.17242-4.79778,10.5276-6.15768,14.94495-6.76324,14.33386-1.96497,28.62874,1.65306,42.95872.28107,16.66563-1.59561,31.11722-12.1563,48.23891-11.90379,10.56676.15584,18.23335,4.63185,22.78685,13.30376,7.01581,13.3613,4.66716,29.39722,12.18053,42.6163" fill="#c8c1df"/><path d="M502.7673,59.7755c.25795-.00534.60191-.01247.85987-.01782.5415-2.24756-5.20226-33.48584-11.21577-43.28682-5.72089-9.32399-14.21918-14.76106-25.25885-16.16025-2.22427-.23149-5.94702-.61891-11.76622.11899-14.45038,1.83261-27.18073,9.84987-41.66071,11.5759-17.55345,2.09238-35.35515-3.23549-52.81023,1.77827-18.08044,5.19342-20.17618,17.98705-17.96411,22.20227q.34966.66628,3.20755.96231,2.5479-12.94429,2.70445-13.1505c2.80328-3.69209,7.96007-6.89943,13.79446-8.57968,17.53889-5.05098,35.42151.65161,53.04688-1.69803,14.11485-1.88165,26.58264-9.63602,40.72514-11.4191,5.49052-.69209,9.13629-.30989,11.09494-.10454,10.36685,1.40575,18.22923,6.39088,23.36879,14.81697,8.04619,13.19144,5.32889,29.35567,11.87379,42.96202M499.01619,64.37384s-8.38449-35.8076-8.38449-35.8076c-.20743-.82278-.98964-3.74179-2.3463-6.75879-3.87865-8.62524-10.0489-12.1757-14.54214-13.63538-19.5083-6.33736-35.26566,7.23828-53.06146,9.99348-15.33916,2.37486-30.69261-1.65344-46.03326.11304-3.0062.34616-6.5423.90829-9.9761,2.45308-2.98869,1.34453-12.37268,6.57355-7.64531,17.40938,1.16356.13411,2.32684.26949,3.4901.4061-5.20596-10.70238,3.82455-16.21342,9.98125-17.78255.82326-.20981,2.56416-.60028,4.97401-.85818,13.20869-1.41338,26.34947,1.48848,39.54955.62274,12.02483-.78868,20.96762-4.10252,28.85771-7.02628,7.70746-2.85608,19.35503-7.17221,29.68036-3.76628,12.40186,4.09099,15.56618,16.69333,17.02589,28.48152.97273,7.85551,2.50658,17.00288,8.43021,26.15573" fill="#282466"/><path d="M133.00302,382.6199c9.69191-2.47076,16.00966-5.74967,19.60294-8.06527,10.53911-6.79172,10.97133-13.01387,11.38933-19.03117.46602-6.70869.86847-12.5025,16.25571-18.51344,18.94818-7.40196,39.74603-9.91467,57.06677-21.61362,6.83247-4.6149,10.07762-9.07288,11.46336-10.97652-3.63071-.4039-7.22998.72652-10.86278.21904-2.18625,2.651-4.25124,5.15497-9.47055,8.84203-18.07858,12.77113-41.07527,12.82368-60.0659,23.23724-12.77014,7.00256-13.2321,14.07817-13.63969,20.32086-.43019,6.58849-.91776,14.05602-18.91701,19.7209-20.86143,6.5657-58.59743-1.31827-60.43593-20.96837-1.30869-13.98752,8.53444-25.01173,10.15611-38.22058-2.599.46111-3.98236.71667-6.43573,1.18907-9.02346,18.25356-11.90419,32.5732-9.88143,42.17454,6.87347,32.62591,63.02133,21.87373,63.77478,21.68529" fill="#c8c1df"/><path d="M132.55084,377.67476c21.23993-5.53489,21.77702-14.06038,22.1692-20.28543.37361-5.93025.75993-12.06239,9.87532-18.35179,19.35089-13.35165,44.52388-12.14912,63.85243-25.55659,5.54439-3.84595,8.05792-7.10271,9.40829-8.85237-1.33995-.25636-1.59242-.33717-2.65509-.67735-3.0641,2.8166-5.71561,6.07561-9.13243,8.51385-18.85138,13.45232-43.46185,12.51221-62.66414,25.08804-10.88756,7.13045-11.32108,13.97107-11.70358,20.00645-.41747,6.58701-.81175,12.8087-16.34529,17.6412-20.51656,6.38272-58.25552-2.53387-57.86685-22.18512.25476-12.88072,8.77611-23.36282,10.39366-35.84843-.52678.09012-1.22904.21094-1.75565.30205-.19377.31065-17.50421,33.57367-7.16776,47.42374,7.70181,10.31978,34.59702,17.04373,52.32341,13.08116.38158-.0853.88913-.20463,1.26846-.29941M67.05829,358.88365c2.74191,25.14176,42.82649,30.27124,63.54572,25.97066,1.64705-.41586,3.30902-.82871,4.9857-1.23848l1.50654-.43189c5.39951-1.69354,12.45074-4.22653,19.10597-8.82027,12.37715-8.5432,7.57596-28.28105,22.79337-34.97314,15.7317-6.91826,33.1904-8.65523,48.69534-16.2529,6.18419-3.03038,19.05251-9.33607,25.58595-20.14616-.73611.04585-1.70411.29084-2.39861.53909-.54476.19473-1.35503.23557-1.85516.52634-1.1954.69498-1.96637,2.55793-2.8091,3.65419-2.19324,2.85306-11.4438,12.78862-38.3947,20.85307q-27.33942,8.18063-32.12122,10.4129c-.99456.46427-2.27607,1.17659-3.22206,1.7332-7.76932,4.57137-8.11488,9.54622-8.48076,14.81319-.39948,5.75052-.85222,12.26828-11.38933,19.03117-26.46564,16.98601-61.52028,9.10081-73.70862-.08578-6.52441-4.9176-9.84499-10.73692-9.86952-17.29636-.05083-13.60167,8.13161-25.12709,9.66162-38.33028-.66756.13223-1.55732.31012-2.2244.44475-1.46133,13.59711-10.55011,25.38081-9.40675,39.59669" fill="#282466"/><path d="M184.25538,33.03492c-2.23434-18.22189-30.83297-33.88543-53.40212-29.36233-.08706.01847-.17411.03696-.26112.05545-16.11144,3.74002-22.69619,21.48518-38.26418,26.02423-.04401.0121-.08802.02421-.13201.03631.00412-.00113.00823-.00227.01235-.0034-5.687,1.37949-8.96404-.09579-15.62183-4.05489-6.90579-4.10657-21.17454-12.45053-39.11737-3.5576-17.82483,8.83444-22.76793,28.16321-19.03404,40.74438,1.0065,3.21614,2.34849,7.50432,3.355,10.72046,1.13426-.35422,2.54587-.79504,5.08514-1.53722-6.37515-19.29914-3.84261-30.14321,1.74527-37.01237,9.85301-12.11227,30.27864-10.06401,35.78831-7.34107,19.86143,9.81575,20.15553,9.03868,28.14227,7.01246.01192-.00329.02383-.00657.03575-.00985.03987-.01098.07975-.02195.11963-.03292,15.61711-4.53855,22.24827-22.3199,38.40852-26.05789.00921-.00197.01841-.00392.02762-.00588s.0184-.00391.02761-.00586c.03656-.00776.07313-.01553.1097-.02329,15.84741-2.90768,39.71545,9.20669,42.41144,25.57917,1.7196-.545,6.19458.19194,11.13814.65616" fill="#c8c1df"/><path d="M170.43564,35.62501c1.37407-.71751,1.78245-.88522,3.25568-1.42218-2.69598-16.37248-26.56403-28.48685-42.41144-25.57916-.03657.00776-.07314.01552-.1097.02328-.0092.00195-.0184.00391-.02761.00586s-.0184.00391-.0276.00586c-16.09065,3.8406-22.79142,21.51936-38.40854,26.05792-.03988.01096-.07976.02193-.11963.03291-.01192.00328-.02383.00656-.03575.00984-18.21061,4.62009-31.57061-16.12719-50.14856-9.58508-15.49689,5.45717-23.19951,22.55345-19.73323,34.19357,1.26178,3.81975,2.94416,8.91274,4.20593,12.73248.59305-.17206,1.18625-.34361,1.77992-.51349C10.56037,17.75309,58.25303,26.25909,62.99916,28.62141q20.39572,10.15158,29.63406,7.80194l.00003.00041c.0717-.01976.14343-.0395.21518-.05924,15.64415-4.51866,22.35019-22.2194,38.44955-26.06662.0413-.00877.08259-.01754.12389-.0263,14.64528-2.68567,37.70879,10.20857,39.01375,25.3534M188.12472,35.65349c-1.25349-19.91364-32.14498-38.68928-57.41346-33.62884-.09627.02042-.19251.04086-.28871.06131-12.72934,2.93981-18.94487,8.78269-26.33608,16.71617-5.07359,5.44583-7.90154,8.13879-11.90051,9.3022-.02797.00768-.05593.01537-.08389.02306-.0039.00107-.0078.00215-.0117.00322-4.01595.90206-6.47026.20599-13.13068-3.72393-7.46759-4.40619-23.00642-13.57474-41.82095-3.80032-19.27702,10.53401-23.35263,32.1848-20.03737,43.5005.9251,3.01336,2.15856,7.03117,3.08366,10.04453.48119-.15513,1.12312-.36094,1.60503-.51385-3.13982-10.03304-11.48019-36.68419,15.67905-51.46484,17.84169-9.09409,32.21156-.54898,39.11737,3.5576,6.74983,4.01381,9.84532,5.40331,15.62183,4.05489-.00411.00113-.00823.00227-.01235.0034.04399-.01211.08799-.02421.13201-.03631,15.42235-4.75317,22.15274-22.28421,38.26417-26.02421.08702-.01851.17406-.03699.26113-.05547,1.58031-.31671,39.52597-5.49183,53.97618,31.18641,1.41092.21579,1.22002.17944,2.59259.66667" fill="#282466"/><path d="M116.20544,101.52521l-.00074-.00022.00073.00023M114.47575,325.86778c-19.43735-38.40317-3.59565-75.39961,1.16853-85.97175,21.32901-47.33102,71.33333-73.55556,91.44718-119.55088l2.02216-3.78931q9.31918,1.2627,47.57622,4.50493c-3.8441-9.83911-8.12477-17.8876-15.79427-29.69624-22.71265-31.41141-61.96262-52.20471-62.35643-52.41109l-.64486-.4463c-8.20213,11.13068-22.20796,30.11737-44.75,49.22222-5.30689,4.4977-10.63919,9.37274-16.93957,13.79563l.00073.00023-.07458.04871c-4.44659,3.29558-10.80128,7.69857-12.85695,9.3221,13.74207,4.9953,29.9789-.39739,43.88878.84494l-2.45131,3.05583,2.45131-3.05583,3.78502.35681c-12.05636,31.6502-37.87587,54.53019-57.30343,81.63551-10.38531,14.48958-16.92644,31.63365-23.05726,48.74637-4.59875,12.83635-13.7106,47.4222.9648,91.23273,11.79047-3.00215,22.62173-4.98161,42.92393-7.84459" fill="#a7a2bc"/><path d="M467.8905,104.20963l-.00187-.0019.00186.00191M468.24234,320.41938c-17.44481-40.75442-12.32297-76.05482,15.6582-107.9184.00331.00062.00661.00125.00991.00188q34.00668-36.26349,38.4586-58.37912l.59068-3.02878c9.65884,11.5667,11.8158,14.84567,14.22032,18.87138-.13795-3.68318-2.71304-19.28531-5.51071-33.3886.00023.00017.00046.00035.00068.00053-7.94366-37.28223-19.50679-60.43822-25.69243-70.92299l-.37037-.07851c-7.49058,10.09654-11.80048,27.68698-37.7186,38.63095l.00186.00191c-3.0359,1.24326-6.04742,2.54442-9.07065,3.81778,8.80029,9.35411,21.97539,10.63026,32.16298,17.42348l-1.54424,2.08376,1.54424-2.08376,2.44623,1.6881c-5.14832,20.23509-15.1116,33.74223-36.76112,49.83676-70.69362,57.39388-47.53056,114.26297-39.91895,132.95071,17.84952,2.50159,32.2869,5.44351,51.49335,10.49292" fill="#a7a2bc"/><path d="M508.58862,187.46373c-7.67904,9.00508-16.64287,16.75769-24.72197,25.37295-.0033-.00064-.0066-.00127-.0099-.0019-27.98119,31.86362-33.10303,67.16402-15.65822,107.91842-19.20645-5.04941-33.64383-7.99133-51.49335-10.49292-7.65199-18.78685-30.9379-75.95755,39.92482-132.94717,20.96611-15.63409,30.79144-28.60629,36.25215-47.86298l.5031-1.97733-2.44623-1.6881-1.54424,2.08376c.46327-.62513,1.08096-1.45863,1.54424-2.08376-9.79796-6.53339-19.10239-11.29797-33.18585-16.99376,3.33525-1.40157,6.65343-2.84373,10.00281-4.21175l.09071-.03575-.00186-.00191.00186.00191-.00186-.00191.00186.00191c5.94646-2.60231,14.93277-6.53494,24.05354-15.86835,6.36621-6.51465,8.1082-15.81253,13.71721-22.78307l.18408.01855c2.70589,4.31642,16.66785,28.02545,25.82469,71.0015-.00021-.00018-.00044-.00037-.00067-.00055,2.4765,12.48402,4.08627,21.95767,5.74156,33.78943-3.22151-5.49138-5.92242-8.83017-11.84024-16.14561l-2.61093-3.12659c-1.74352,8.94041-4.66159,23.90393-14.32732,36.03497M395.86245,267.13511c.52127,21.62853,8.9828,40.65782,12.16823,47.82155l3.76526.45357c27.73015,3.4724,49.62492,9.10439,69.15466,14.67332l-2.22882-4.85034c-23.43396-53.2243-7.10828-84.47015,11.95233-108.01546-.00265.00169-.00617.00395-.00882.00565,7.67503-8.3766,16.35808-15.81148,23.25993-24.91005l.01968-.02904c7.32283-10.60919,9.89156-18.745,12.31201-30.9454,9.47246,11.07626,11.12901,14.17053,14.52493,21.48767l-.30676-3.5602-.14798-1.25906q-.86861-7.16533-5.92058-39.90454l-.00403-.01065c-1.6989-8.76897-5.23402-27.01576-12.21182-46.06694l-.04472-.11096q-5.89888-14.92729-6.10585-15.40092l-.04939-.1026c-7.5759-15.29636-9.15245-18.47957-13.70061-16.55128-1.30663.554-1.90297.80684-2.80623,3.27307-8.34076,22.77361-29.09126,32.32657-36.90297,35.92287l.00032.00362c-7.53047,3.01042-14.97226,6.23515-22.50809,9.23253l7.64757,2.68811c17.26788,6.41083,25.68236,10.2989,37.51456,17.33441-11.29535,30.89815-35.13541,44.06209-36.14474,44.60736l-.04453.03163c-12.76418,10.14919-54.32222,46.93549-53.18355,94.1821" fill="#282466"/><path d="M323.16295,261.18684l-.0009-.00036.00089.00037M251.51476,316.68c11.14495-13.45824,33.92381-36.78397,71.64817-55.49315l-.00089-.00037c4.77788-2.09982,10.60029-4.50815,15.37111-6.62378-16.72697-3.8396-34.91946-4.99733-51.78868-7.95726l-4.30733-.75635c10.22691-21.79967,27.32419-39.46445,59.01324-60.97203,37.14285-25.20909,75.59499-69.42557,47.8508-136.91335-25.51814-3.27109-40.11708-5.00844-59.16853-6.65634,22.29945,39.35158,13.37918,77.48715-26.51302,113.34744q-70.71066,59.77919-81.88914,80.21536l-2.04703,3.78708c-15.61336-2.0484-18.93599-2.40396-44.68761-2.95462,5.04173,13.70877,18.43425,50.12392,76.22037,80.98172l.29852-.00435" fill="#a7a2bc"/><path d="M323.16295,261.18684l-.0009-.00036.00089.00037M323.16295,261.18684l-.0009-.00036.00089.00037M289.62003,243.85546l-2.87555,2.74997,2.87553-2.74997,6.08389.2975-6.08389-.2975M323.16295,261.18684c-5.58726,2.4928-22.5899,10.07868-40.81759,24.25426-11.5593,8.98964-19.03188,21.96942-30.40813,31.13783l-.42247.10107c-.55052-.22607-55.29738-23.27469-76.51889-80.97737,16.20802.3466,25.99109.5558,37.84439,2.05673l6.84322.89789q12.88046-23.8298,83.92139-83.9939c39.91428-35.8443,48.83952-73.98274,26.5278-113.35599,19.05145,1.6479,33.65039,3.38525,59.16853,6.65634,22.27403,54.18159,4.56071,101.34129-52.64793,140.16919-38.21262,25.93512-49.46147,48.158-53.15796,55.46068l-1.05815,2.25551q12.3261,2.16423,55.37943,8.79936c-4.84514,2.14714-14.65453,6.53802-14.65453,6.53802l.00089.00037.03249.02028-.03249-.02028.03249.02028-.03249-.02028M251.91102,322.45941c8.03219-1.10072,10.83541-3.45867,12.38023-5.38995l.00066.00766c20.03941-28.93945,52.35445-44.70334,66.15359-51.43483,3.26073-1.38637,6.50107-2.81923,9.73854-4.25864.02978-.01324.05957-.02648.08935-.03973.11774-.05235.23547-.10471.3532-.15708.0575-.02558.115-.05115.17249-.07673.1821-.08101.36419-.16203.54628-.24306,3.96895-1.76609,7.93674-3.53484,11.93565-5.23261l7.7399-3.24287c-21.37039-3.70879-42.84521-6.75591-64.21083-10.49385,10.4283-19.10651,26.14505-34.65308,54.2482-53.66083l.08475-.06104c82.28978-59.65202,57.09802-120.09216,47.61438-142.84532l-.87141-2.02502c-30.01324-3.96957-51.46294-6.70242-75.21149-8.45206l-9.72211-.65541c28.41315,42.6053,22.03075,80.11436-20.08578,118.04329.00549-.00038.01098-.00075.01646-.00111-14.86671,12.64395-30.84579,23.87567-45.93617,36.23604l-.04573.0424c-16.60176,14.86232-25.12334,25.21422-35.06961,42.60211q-7.51929-.6889-41.93814-1.79723l-8.92735-.29483c3.19737,10.6945,5.95869,19.93059,17.50479,38.93954l.017.01939c8.86057,13.04475,17.95572,22.35632,33.55803,34.35657l.10211.08255c5.18207,3.32939,9.83936,7.39493,15.03368,10.70712l.11938.07413q18.3382,9.95355,24.60995,9.2514" fill="#282466"/><path d="M173.39848,165.87364c-37.20541,36.56228-93.43058,91.81556-58.92274,159.99416-20.30199,2.86287-31.13324,4.84233-42.92393,7.84459-14.67084-43.79695-5.56203-78.39185-.9648-91.23273,1.45685-4.06921,14.84491-40.45306,36.02937-64.59682,27.41719-31.24716,36.68521-46.91386,43.4287-63.41554l.90262-2.36952-3.78502-.35681-2.45131,3.05583c.73539-.91675,1.71592-2.13908,2.45131-3.05583-13.8685-1.23854-25.43001-1.56317-42.65808-1.19781,2.03764-1.61513,6.80939-5.39742,11.58931-8.94496l.03694-.02426.07458-.04871-.00073-.00023.00073.00023-.00073-.00023.00073.00023c19.58873-14.65422,46.15321-37.35086,61.46419-62.25807.04477-.07283.15132-.12999.21617-.1857l.37599-.11348c.37526.17732,39.39648,20.31505,62.63641,52.39586,7.69456,11.87831,11.97453,19.92699,15.79163,29.69695q-38.12939-3.23138-40.65741-3.56732l-6.91881-.93761c-7.6618,14.35762-16.73068,29.99228-35.71513,49.31779M128.19341,329.98883c-42.51418-69.51703,13.91921-123.29546,55.12513-162.56279l.04259-.04472c16.1165-16.58553,23.67413-26.28526,33.69449-43.24472,15.06546,1.51469,30.20424,2.10484,45.26601,3.66515l10.10597,1.12218c-3.49184-10.8542-6.50748-20.22821-19.29449-40.17224l-.00191-.02216c-10.99995-15.37726-21.96596-25.07513-36.09402-35.73824l-.10626-.08392c-5.27882-3.35306-10.02893-7.45288-15.29646-10.82193l-.11897-.07393c-16.32059-8.79266-27.10257-14.60141-35.01227-2.88745l.00063.00725c-13.71939,23.00433-35.16281,41.95792-56.29187,59.01321-5.44057,4.06815-11.73477,9.27998-17.82176,14.32024l-5.83028,4.91811c19.99113-.78508,33.4648-1.16548,51.97017.16864-8.64397,20.44727-20.7776,36.62369-43.07669,63.05324l-.05345.06158c-17.47624,22.3501-55.37747,82.55902-29.93541,158.74309l.61269,1.79994c14.34018-4.06645,26.53175-6.35161,54.3542-10.18805l7.76198-1.03246" fill="#282466"/><path d="M10.39222,272.47667c-1.9755-23.40459-.5068-42.72879.58538-70.28435,1.76724-44.58709,17.06863-78.05652,4.52159-120.32624,8.44395-2.99277,14.37495-4.63708,30.28223-8.95131,16.99399,52.72076,5.2059,86.12103-18.27916,152.66338-6.33368,18.30537-11.56161,36.457-11.37947,73.31555l.70442.09006c3.68088.10455,4.38014.06703,13.18457-1.39563-1.31874,2.8261-2.32065,5.02316-4.15877,9.62997l-.00061-.00119c-8.28716,22.13219-7.60051,40.17761-6.56113,67.49277l-.00407.03856q-.26501-2.14716-.3856-3.51505l-8.50938-98.75652" fill="#a7a2bc"/><path d="M17.09905,295.73239l-.27183,3.25138.27182-3.25137,1.11658-.71361-1.11658.71361M25.8291,307.27731l.01074.01438-.01074-.01437M25.8291,307.27731l.01074.01438-.01074-.01437M10.39222,272.47667c-2.21953-26.29651-1.46389-41.28472,3.51542-69.7278l-.00063-.00725c7.89963-43.91728,14.13922-78.60582,1.59218-120.87553,8.44395-2.99277,14.37495-4.63708,30.28223-8.95131,16.92445,52.50497,5.16019,85.97768-18.27744,152.66435-8.50273,24.55737-11.05824,40.45215-11.39334,70.86426l.01215,2.45032c3.87717.35771,5.60176.07121,13.88899-1.30557-1.07803,2.31018-2.19275,4.69899-4.14752,9.60231l-.01125.02766-.00061-.00119c-8.94699,23.89433-7.62547,47.98302-6.5636,67.33864l.00247.15413q-.26285-2.03419-.38968-3.47649l-8.50938-98.75652M9.26042,259.34149c3.46356,40.62675,7.00011,81.23991,10.5004,121.86347l.00078.00833.03096-.91135q1.14688-51.82018,8.5118-70.06908c4.51959-10.11206,6.28716-13.08998,10.55756-20.28458l-4.08472.5907q-11.86909,1.82979-15.03969,2.01064c-3.84802-28.31232,11.56349-65.39264,11.72621-65.71539l.02669-.07112c25.35564-65.2926,40.66016-104.70288,19.90089-161.33609l-2.52171.664c-24.00514,6.44148-29.70876,7.97197-39.78603,12.29318l1.22499,3.92595c16.44412,54.69179-2.71938,108.96411-1.89084,163.47528l.00243.05566c.11598,2.89792.27481,6.86673.84027,13.5004" fill="#282466"/><g isolation="isolate"><path d="M543.34471,191.85791c-.0695-.24842-.16707-.57826-.23868-.82608,1.25092,11.3428,2.55096,22.67993,3.74496,34.02899-.00004-.00006-.00009-.00015-.00012-.00021.60164,5.84178,1.12123,10.8869,1.66736,17.19353-1.07653-12.49373-2.5119-29.15204-3.58842-41.64577l-.03696-.40962c-.2084-1.92911-.4938-4.57111-1.54816-8.34082" fill="#c7c1df"/><path d="M543.34471,191.85791c1.17444,4.19897,1.46221,7.38847,1.5851,8.75046,1.07653,12.49373,2.5119,29.15204,3.58842,41.64577-.54613-6.30663-1.06572-11.35175-1.66736-17.19353-1.19365-11.34903-2.49393-22.68605-3.74484-34.02878.0716.24783.16918.57767.23866.8261M540.43604,178.81322l.30745,3.56822.14746,1.25786c1.89735,15.85751,5.06921,39.83417,5.0898,39.98059l.00421.03342c2.49599,19.55991,3.02428,24.95732,3.89291,34.3801-1.82977-21.23593-3.65932-42.46812-5.48909-63.70406l-.00124-.01439c-.65958-6.80865-2.04039-10.45499-3.95152-15.50172" fill="#282466"/></g><path d="M112.63583,402.96556c-1.98818.02237-3.97607.04265-5.96429.06058-.13026.48013-.2654.95897-.40601,1.43619-1.84113,6.24815-4.88869,12.01591-7.18718,18.08229-2.78439,7.34877-2.14265,15.42915-4.8736,22.78935-.66045,1.77995-2.12697,4.22157-5.36298,5.74536-.83792.39456-3.12679,1.24863-6.27582.65939-3.23445-.60529-6.39859-2.28279-10.40456-4.40662-14.13432-7.49355-22.96251-9.07985-26.96689-9.35847-4.40199-.30623-6.75716.58356-9.37865,1.77863-3.12189,1.42319-5.00624,2.28221-7.24243.0491-.00098-.00118-.00198-.00234-.00297-.0035-1.13143-1.45783-4.13683-5.3303-5.70366-22.546l.50774,5.89259c1.25107,13.45808,3.32613,17.84824,5.3822,20.58772.21942.25109.22043.25226.22143.25342.51151.50758,1.36761,1.35709,2.55621,1.61812,1.91446.42039,3.60657-.32503,6.16791-1.4534,3.04005-1.33926,6.4857-2.85719,14.9718-.77884,10.95163,2.68225,19.71423,10.73735,30.98988,12.62416,1.54858.25912,5.57718.65462,9.53049-1.26437,2.2375-1.08615,5.23183-3.21494,6.79037-7.18851,2.8998-7.39322,2.22934-15.58127,5.12134-22.97623,2.45607-6.2803,5.66389-12.25438,7.62852-18.7348.36371-1.19977.57816-2.0903.76736-2.87602-.25987.00296-.60637.00695-.86624.00987" fill="#c8c1df"/><path d="M19.75488,381.1077c-.00053-.01001-.00119-.02338-.0017-.0334.04431.5374.08928,1.07474.13528,1.612-.03829-.4444-.08935-1.03693-.12764-1.48132l-.00038-.00455c-.00224-.03087-.00397-.0618-.00557-.09271M106.33316,403.02914c.11572.26214.1543.67732.07373.9523-2.09946,7.16576-5.7085,13.74036-8.1347,20.77818-2.18118,6.32707-1.79068,13.14255-3.71136,19.51917-.44324,1.47124-.97542,2.43138-1.07761,2.60893-1.34053,2.32878-5.44279,7.35692-14.56079,3.76003-7.52939-2.97023-14.2989-7.60497-22.06161-10.06371-4.15413-1.31577-11.10686-3.51793-16.98238-2.30302-2.76984.57275-5.05554,2.4803-7.89461,2.86211-1.82152.24493-2.77766-.70992-3.41039-1.34177-.00098-.00118-.00198-.00234-.00297-.0035l-.66702-.85945c-3.24159-5.30795-4.43694-14.72687-5.24585-24.1147l.04803.54564c.89995,9.50064,2.81053,21.31506,6.802,23.64592,1.49104.87067,3.47653-.05112,5.07191-.79181,3.45561-1.60434,6.43996-2.98987,14.46107-1.39008,11.81123,2.3558,21.38913,10.29799,32.9904,13.17938.00146.0003.00291.0006.00435.00091.00144.0003.00287.0006.00431.0009.00143.0003.00285.0006.00428.0009.00142.0003.00285.0006.00427.0009s.00285.0006.00427.0009c.00143.0003.00285.0006.00428.0009.00144.0003.00287.0006.00431.0009.00145.0003.0029.00061.00434.00091,6.5346,1.23032,9.18931-4.02017,9.47051-4.62292.26022-.55778.5475-1.33026.72101-1.92079,1.65601-5.63609,1.24156-11.62257,2.92389-17.25421,2.3714-7.93837,6.50858-15.2054,8.7984-23.17474.78465-.00563,1.56926-.01137,2.3539-.01817M115.9143,402.92729q.19189.94883-.49494,3.2508c-.07416.24855-.17658.57888-.2533.82664-2.19145,7.0777-5.89665,13.53325-8.40704,20.48001-2.44341,6.76141-1.75356,14.18251-4.40784,20.89944-1.99039,5.03683-6.13828,7.15335-7.50131,7.84886-1.73323.88438-5.45325,2.24739-10.89401,1.4395-11.99852-1.78168-21.1395-10.78741-32.95584-13.02988-6.71997-1.27525-9.41371-.09932-13.142,1.52824-2.92934,1.27879-4.31073,1.56837-5.91241,1.2394-.27429-.05635-1.05029-.31874-1.69841-.7702-.36392-.25351-.78988-.66999-1.10548-.9816.00101.00115.00201.00231.00302.00347l-.89775-1.1536c-2.95663-4.88646-4.02542-11.5336-4.87244-21.36394l.15437,1.66039c1.32112,12.27293,3.29333,16.34984,5.22783,18.92734.21942.25109.22043.25226.22143.25342.51151.50758,1.36761,1.35709,2.55621,1.61812,1.91446.42039,3.60657-.32503,6.16791-1.4534,3.04005-1.33926,6.4857-2.85719,14.9718-.77884,10.95163,2.68225,19.71423,10.73735,30.98988,12.62416,1.54858.25912,5.57718.65462,9.53049-1.26437,2.2375-1.08615,5.23183-3.21494,6.79037-7.18851,2.8998-7.39322,2.22934-15.58127,5.12134-22.97623,2.45607-6.2803,5.66389-12.25438,7.62852-18.7348.36371-1.19977.57816-2.0903.76736-2.87602.80408-.00923,1.60814-.01875,2.41223-.0284" fill="#282466"/><path d="M20.13025,299.5572q-6.05523-.66221-6.82209-.25327l-.4969-4.01439c-.995-8.3136-1.70976-14.71159-2.41904-22.81285l8.50938,98.75652q-.41631-5.03864,1.30302-43.39514c.00065.00099.00152.00231.00217.0033.38908-13.29958.48936-18.61906.40434-28.23657-.14416-.01529-.33673-.03227-.4809-.04758" fill="#c7c1df"/><path d="M20.13025,299.5572q-5.87677-.64265-6.29124-.53642l-.53085.28314c-1.22838-9.9232-2.09929-17.49408-2.91594-26.82724l8.50938,98.75652q-.41631-5.03864,1.30302-43.39514c.43652-14.59027.48265-19.60954.40651-28.23328-.14416-.01529-.33673-.03227-.4809-.04758M21.32387,293.41796l2.74178.00208.0757,4.71202q.03619,3.91139-.93649,33.73328l-.00215.01886c-.79768,10.80522-2.29948,21.5435-3.06152,32.35208l-.00638.05983c-.26634,2.44112-.32611,3.58765-.49216,9.43701l-.00299.04843c-.09682,2.35329-.04779,4.03583.10686,7.15228-3.5087-40.53204-6.99358-81.05888-10.4861-121.59233l.08325.94931c.87715,9.4917,1.98973,18.50012,3.96823,32.13014,2.7009.08922,5.30551.95241,8.01196.99701" fill="#282466"/><path d="M13.99768,115.84107c-.07884-.2418-.93013-2.78129-1.00824-3.02333-.00187-.001-.00375-.00199-.00563-.00298-.83188-2.32415-2.59504-2.47152-3.04449-4.97428-1.37899-7.67893-.05981-18.13277.11844-24.47222.19761-7.02778,2.53446-11.13733,2.56052-11.22374,2.02598-6.71748,8.29137-7.43404,17.59193-3.86458,17.25217,6.92741,30.03198,21.48378,47.59134,27.88693,17.62848,6.42836,37.40929,2.1662,54.55533,10.98955,13.73763,7.06938,14.39418,19.2094,12.36789,20.05275-.00111.00047-3.19136.28983-8.34308.69734-2.07344-3.40277-.29431-7.70552-2.58325-11.05795-2.85756-4.1852-7.20166-6.59178-10.34276-7.87372-.24726-.10091-.57907-.23021-.82837-.32596-8.8764-3.40924-18.1355-3.03903-27.46453-3.82692-6.44525-.54434-13.00759-1.97367-19.15795-4.22587-17.77802-6.51013-29.60703-23.12454-48.1478-28.33876-6.7383-1.89499-10.56148.15408-12.03181,6.44856-2.68745,11.50504,3.73647,24.08806-1.40318,35.41237" fill="#c8c1df"/><path d="M412.45341,442.73177c-9.54808,1.84121-17.92562,1.86625-24.89997.07446-9.85057-2.53079-11.44507-8.55626-12.72627-13.39781-2.05949-7.78255-3.99736-11.86763-22.53242-12.38171-8.6011-.23857-15.58928.66949-21.31714.49896-24.90539-.74151-25.95055-1.86574-31.24074-3.46296-11.17085-3.37277-17.34369-8.06005-21.24074-11.87037,3.36292-.80112,8.0095-.86823,11.31481-2,10.75845,6.62695,10.71951,7.27114,14.88848,8.6139.61402.19776,1.4401.43792,2.05946.61824,7.85237,2.28618,15.91001,2.22917,23.88539,2.22156,11.73535-.0112,23.42202-.59803,35.07387.95767,15.86919,2.11877,17.53664,8.5325,19.1492,14.73506,1.59944,6.15208,3.41228,13.125,22.05487,11.22923,19.13004-1.94537,43.0668-18.17568,55.27725-34.19019,6.03625-7.91678,8.77814-16.37066,7.5366-21.84209-.87741-3.86669-3.27479-6.57882-5.38808-9.41747-4.38555-5.89082-9.65869-10.89524-12.38497-17.85969,2.8584-1.16985,4.81444-1.98143,7.75177-3.21631,3.87822,10.90025,15.47404,17.11903,17.62817,29.06496l-.00066-.00764c2.715,23.01431-35.76196,55.8632-64.88889,61.63222" fill="#c8c1df"/><path d="M412.05513,437.77502c-23.32954,4.36772-25.72803-4.83233-27.01658-9.77495-1.71761-6.58833-3.20096-12.2782-15.89813-14.83191-20.6205-4.14726-41.84471,1.79794-62.38153-3.7437-.6228-.16806-1.44228-.4306-2.05946-.61824-5.57748-1.69569-11.07235-4.9891-15.16952-8.66967,1.30679-.55571,1.59396-.70723,2.6205-1.30902,5.45079,4.14128,8.07974,6.25825,14.55394,8.40647.58401.19379,1.37198.42321,1.96143.59976,20.13046,6.02965,40.94629-.1008,61.21617,3.46745,14.97174,2.63562,16.72716,9.3831,18.27594,15.33629,1.48343,5.702,3.01735,11.59811,17.80945,10.3286,28.86104-2.47705,63.95821-35.65637,61.43297-52.56166-1.80359-12.07413-14.10539-17.39311-18.06628-28.07922.59259-.2395,1.38246-.55947,1.97466-.79994,2.41399,1.55551,16.65157,22.0433,17.44418,23.97562.82709,2.01639,3.02409,7.37256-1.00607,16.09894-6.91579,14.97438-32.6729,36.99266-54.28612,41.87598-.42051.09501-.98267.2153-1.40553.29921M412.5954,444.37971c-10.42148,2.0096-19.313,2.01795-27.18274.0255-10.90862-2.76192-12.65311-9.35657-14.05486-14.65547-2.00166-7.56671-3.71495-10.91798-23.37154-11.05989q-40.25941-.2906-50.44221-3.43924c-7.16385-2.21516-16.21986-5.74811-22.71588-13.4704q4.31618.3925,6.18623,2.24019c4.89381,4.83539,17.50328,12.97035,46.96881,13.12549q31.12785.16388,35.30869.93848c.50986.09446,1.18232.25936,1.68213.39745,7.13229,1.97055,8.39066,5.43582,9.85313,10.92661,1.47356,5.53246,4.53976,17.04459,30.42331,14.40138,36.93935-3.77225,75.08542-41.162,72.09181-62.71024l.00066.00764c-2.15413-11.94592-13.74995-18.1647-17.62817-29.06496.61472-.25938,1.43403-.60596,2.04836-.86627,20.5065,27.85753,22.6501,30.76956,13.6355,47.85797-6.75952,12.81352-32.1208,39.26912-62.80322,45.34576" fill="#282466"/><path d="M301.05263,102.80642c-.54687-19.81545,27.28429-41.87592,50.45192-46.03652,12.74971-1.929,19.29967.43771,28.57188,4.56483,6.49312,2.89014,10.8812,4.55313,17.05597,3.28024l.14685-.04045c-.00437.00096-.00875.00194-.01313.00291,6.51717-1.6459,9.71441-4.84336,17.18993-13.56153,5.8027-6.76729,19.39157-22.61499,41.4381-28.68675,22.94142-5.84688,31.41841,5.93245,29.58623,19.35118-.58984,4.01859-1.37631,9.37672-1.96616,13.39531-1.72113,1.09111-3.20753,2.03342-6.25803,3.85185,3.62726-22.69289,4.18475-26.18071-3.40085-30.38315-8.73767-4.84065-23.50327-1.56792-36.74234,8.14378-13.79419,10.11891-20.84108,28.32135-39.32611,32.81944-.01337.00297-.02675.00595-.04014.00893-.04502.01002-.09004.02003-.13508.03004-16.20183,3.37688-29.45029-10.34854-45.49941-7.85614-.00516.00087-.01033.00174-.01549.00261-.01006.0017-.02012.0034-.03018.0051-.04514.00762-.09028.01524-.13543.02286-17.5197,3.38633-40.06428,23.06436-40.00104,39.32473-2.89867-.02997-6.45778.15581-10.87752,1.76073" fill="#c8c1df"/><path d="M315.59868,101.45361c-3.05767-.54428-3.27616-.14997-3.90441-.75068.56459-16.00035,23.24185-35.69704,40.23689-38.98196.04516-.00763.09031-.01525.13545-.02287.01006-.0017.02012-.0034.03018-.0051.00517-.00087.01033-.00174.0155-.00262,16.01564-2.29849,29.29757,11.23302,45.4994,7.85614.04504-.01001.09006-.02003.13508-.03005.01338-.00298.02677-.00596.04015-.00893,10.87151-2.64545,15.83875-7.87215,22.72754-16.16587,31.72362-38.1935,62.21533-31.08379,59.28145-10.30159-.76191,4.76622-1.7778,11.12117-2.5397,15.88739-.72021.42511-1.44154.84831-2.16484,1.26814,3.98889-24.27817,4.06509-24.74199-1.18866-28.90857-5.21533-4.13606-16.0789-5.40488-30.92802,3.43808l-.00061-.00725c-16.45732,10.33257-24.22363,31.39651-44.97801,36.42267-.08076.01797-.16155.03595-.24237.05392-16.21484,3.37884-29.48775-10.31341-45.54509-7.84843-.04513.00762-.09027.01524-.13543.02286-14.51666,2.81409-37.57074,21.77854-36.4745,38.0847M487.05578,32.43975q.91258,4.09412-1.54105,21.344c-.5991.38919-1.39931.90594-2.0005,1.29189.58984-4.01859,1.37631-9.37672,1.96616-13.39531,1.95367-16.84779-10.10001-24.58046-29.99402-19.24174-21.92209,6.28751-35.03688,21.58774-42.08263,29.80759-7.20503,8.40569-10.37221,10.82582-16.13762,12.33127.00439-.00098.00877-.00195.01315-.00293l-.14686.04046c-6.15993,1.17157-9.88202-.09344-17.51704-3.4855-10.50885-4.66881-16.33554-6.02927-28.11081-4.35957-25.48657,4.8179-50.68998,28.40013-50.19361,46.38539-1.20459.48415-2.40007,1.82917-3.57823,2.37037-1.41582-21.45171,28.08625-45.60542,53.62984-50.40371.10527-.01776.2105-.03553.31569-.05331,13.04643-1.86023,19.8951-.10051,30.31198,4.54761,7.91917,3.53363,10.58263,4.12727,14.99953,3.34314.03142-.00699.06282-.01397.09422-.02096.00438-.00097.00876-.00195.01314-.00292,4.60395-1.27714,7.19934-3.34381,13.88536-11.05678,7.46381-8.6102,18.74318-21.62202,39.37285-29.47116,1.42851-.46605,2.83947-.93441,4.23263-1.40499l.08125-.02406c1.15086-.32284,2.69869-.70443,3.86028-.98622,21.48776-4.11905,27.09586,6.0307,28.52629,12.44746" fill="#282466"/><path d="M426.26481,358.97691c13.25075-44.2296-.89649-79.61916-42.04875-105.18565-15.79913-9.05336-32.51195-16.29637-48.67805-24.6243-14.29916-8.2585-27.39929-16.58917-42.93153-34.95761l-2.70067-3.22227c-14.60625,5.47427-19.05487,7.01955-45.34514,13.66803,2.02205-10.27342,4.76579-18.912,10.12349-31.87343-.00086.00006-.00173.00012-.0026.00018,16.15345-34.15332,49.29816-62.55722,53.02434-65.68356l.29112-.0654c13.89828,11.17091,37.15976,29.86761,76.4046,37.87964l-.00073.00055c4.5992.96616,9.17827,2.02249,13.76685,3.03677-14.41565,7.64832-29.86021,12.94264-44.72974,19.55266l3.13945,2.04173-3.13945-2.04173-3.92256,1.73643c11.01018,15.66536,26.01636,29.55121,63.46523,46.40143,75.49698,37.96901,65.43207,100.39252,61.64305,123.89233-22.51924,9.81386-35.19922,14.71587-48.35892,19.44421" fill="#c7c1df"/><path d="M335.53802,229.16695c16.16157,8.3256,32.87722,15.55178,48.66323,24.6197,41.17009,25.5428,55.32231,60.9339,42.06355,105.19028,13.1597-4.72835,25.83968-9.63036,48.35892-19.44421,3.43997-21.33492,13.90819-86.25966-61.64937-123.88844-31.08664-14.03198-49.07054-26.90543-62.07352-44.43419l-1.38539-1.97113,3.92256-1.73643,3.13945,2.04173c-.94183-.61252-2.19762-1.42921-3.13945-2.04173,14.95665-6.64876,30.07254-12.92442,45.07053-19.47749-4.65843-1.02882-9.30099-2.12817-13.97528-3.08519l-.13235-.02675c-11.16684-2.44006-49.6302-12.37431-75.73233-37.7605-.05799-.0564-.16901-.08403-.24144-.12004l-.4301.00035c-.33028.22852-36.13802,29.43048-53.31548,65.74896.00088-.00006.00175-.00013.00262-.00019-5.35771,12.96148-8.10145,21.60006-10.1235,31.87343,15.37546-3.88821,26.48447-6.69751,38.62466-11.14917l6.72047-2.51886c16.47771,19.65993,27.3952,27.66692,45.63472,38.17873l-.00252.00116M412.31056,369.79579c18.24028-48.07463,5.96433-84.44736-37.52937-111.19666-16.0423-9.16344-33.02791-16.44962-49.43779-24.88272l-.0515-.03084c-20.04288-11.37083-30.30542-20.50987-39.54817-30.73373-.85486-.94561-2.31993-2.01343-3.55562-2.32652-6.27985-1.59114-10.62592,3.29607-15.99023,4.77245-8.601,2.36719-17.27005,4.46906-25.89235,6.75461l-9.45116,2.48163c1.5658-11.63327,2.80254-20.82191,11.65855-42.40898l.01314-.03845c6.9841-14.79245,14.75105-26.10799,28.65744-41.75047l.08914-.0976c4.67949-4.45972,8.67493-9.56526,13.29817-14.07809l.10666-.1006q20.02705-17.04019,31.66043-14.53357c2.4472.52733,3.03453,1.10301,6.29411,4.29791,8.11189,7.95094,27.67522,22.80698,67.5564,32.97038l.18895.04448c7.18655,1.44142,14.30589,3.1907,21.48296,4.67574l7.17944,1.46837c-18.32655,8.61159-36.99402,16.45247-55.46887,24.73148,12.42621,15.88734,28.9951,27.59311,57.18945,40.40381l.06947.02908c76.36273,38.53838,65.67657,104.87947,61.65369,129.8541l-.36009,2.17662c-25.35814,11.33966-42.55444,18.26387-61.33351,24.6964l-8.47935,2.82121" fill="#282466"/><path d="M80.99616,396.92542c11.1926-46.49482-10.15901-84.76502-31.05075-116.98661-12.04993-18.19783-17.54956-26.5034-24.48857-40.19211-6.88602-14.78429-10.92699-27.20763-15.44231-47.47495l-.85919-3.97903c-2.8383.79764-3.59373.9344-5.83887-.41898-.01039-.10922-1.08398-12.19771-1.65831-28.04744-.25703-10.07173-.79185-31.02939,7.19711-47.65009l.08937.02744.22302.33466-.00061-.00725c2.94662,9.69804,11.91351,39.21036,37.19327,61.87981,4.42851,3.86354,5.22647,4.55971,8.51041,7.27492-7.92865,3.27306-16.53178,2.38019-24.72679,4.01128l1.6132,3.03503-1.6132-3.03503-1.75592.39069c22.92752,74.68849,117.95674,116.08087,97.34712,210.86826q-34.60811.2627-44.73898-.03058" fill="#c7c1df"/><path d="M25.45685,239.7467c6.85178,13.51672,12.01211,21.32289,24.47931,40.18236,20.90076,32.20741,42.26125,70.46552,31.06,116.99637q10.13087.29327,44.73898.03058c20.41431-93.88911-72.8015-135.1123-96.62112-208.50327l-.726-2.36499,1.75592-.39069,1.6132,3.03503c-.48396-.91051-1.12924-2.12452-1.6132-3.03503,6.9286-1.37907,10.77051-1.86079,25.69278-3.22165-3.80609-3.11504-5.21371-4.34392-9.3922-7.99187-17.09573-15.39659-29.28929-35.66141-37.27747-61.95248l.00061.00725-.08539-.20023-.13763-.13443C.80887,127.18651,1.44901,151.7561,1.65938,159.82992c.30872,8.67378.7614,16.52336,1.61459,27.99689.98058.60744,2.32352,1.43933,4.545.84489l1.33636-.37898c4.95909,22.96632,9.07277,35.94994,16.30241,51.45367l-.00092.00031M137.78645,355.69056c3.09321,21.70346-1.55406,40.1147-3.30357,47.04576l-3.37781.03053q-45.39455.38258-59.81229-.43646l1.1637-4.21013c10.59518-41.55054-2.09836-74.27701-27.60434-116.76408.00019.00217.00044.00507.00063.00725-8.07977-13.01112-18.13531-29.20389-22.87769-40.49556l-.02568-.05678c-6.90413-16.23056-10.23091-28.98596-13.64413-45.53355-.96216-.00459-3.89011-.01851-4.69801-1.54425l-1.51929-17.63237-.02249-.26123c-1.19696-14.15022-1.49225-19.34636-1.53931-20.24432l-.00157-.02594c-.88168-16.14072-.62172-22.42903.55246-32.0499l.01317-.0639q1.65834-8.70877,1.90434-9.60922l.02335-.05438q2.41525-6.80751,3.40015-7.83531c1.31982.17546,4.06613.54054,6.56575,6.85805.00188.00098.00376.00197.00564.00296,11.67818,35.56573,30.78011,52.39628,37.05721,57.92698l.00034.00403c10.38316,8.63074,12.06021,9.8261,21.3674,16.46002l-6.36592.65244c-19.95244,1.92944-22.03813,2.13113-29.73213,3.49677,14.81432,38.71474,36.18404,57.53267,38.57198,59.55095l.05673.06137c57.6297,61.13733,61.82515,90.57385,63.84138,104.72031" fill="#282466"/><path d="M204.8469,350.55659l-.00005-.0004.00005.0004M282.54544,396.48718c-15.02583-12.89684-35.60438-30.55965-77.69854-45.93059l-.00005-.0004c-1.44026-.53419-5.67125-2.13109-13.83264-5.41426,14.25699-8.10016,30.8313-7.53963,45.98-12.30881l3.99741-1.28268c-12.8593-19.23106-29.55585-33.46577-66.16786-56.41165-31.89508-21.69307-83.04665-68.71216-67.27011-139.883,15.72231-.2776,29.32672-1.20496,53.91385-3.67514-8.4147,23.15717-13.88356,68.46713,44.03233,111.74162l.00063.00725q8.00647,5.58951,49.62726,30.02138c12.15601,7.8522,25.9339,16.75208,42.56953,36.51941l2.68195,3.23698q6.06509-2.30548,45.72237-15.6102c-2.00061,10.4847-4.84604,19.6778-10.14874,32.78879-16.99182,36.84323-52.81444,65.97748-53.11967,66.14902l-.2877.05229" fill="#c7c1df"/><path d="M204.8469,350.55659l-.00005-.0004.00005.0004M204.8469,350.55659l-.00005-.0004.00005.0004M233.80454,330.44098l3.18967,2.39214-3.18967-2.39214-5.75958.96161,5.75958-.96161M204.8469,350.55659c19.1113,7.16492,54.53267,22.64002,77.0372,45.78096.05682.05842.16676.09139.23822.13055l.42311.01909c.32755-.21512,35.92203-28.36571,53.41003-66.20126,5.3835-13.35371,8.13336-22.24039,10.14609-32.78883-12.99135,4.35854-26.15578,8.19415-38.98135,13.04791l-6.74101,2.56229c-17.4944-21.1149-29.27589-29.44972-45.25313-39.75548q-41.83421-24.58282-49.62561-30.02229l-.00063-.00725c-57.91591-43.27449-52.44704-88.58446-44.03233-111.74162-24.58713,2.47018-38.19154,3.39754-53.91385,3.67514-15.83987,71.45665,35.35213,118.31116,67.27693,139.88068,35.59111,22.35268,51.93105,36.05722,64.75462,54.31065l1.40642,2.10332c-13.23346,4.24623-25.39694,7.91077-51.07127,13.15025,8.62778,3.47916,12.96857,5.13039,14.78818,5.80502l.13834.05048.00005.0004-.02731.02248.02731-.02248-.02731.02248.02731-.02248M283.04309,402.26263c-8.95455.47723-10.97881-1.52219-15.01171-5.50559-21.79102-21.52357-55.09865-35.43608-69.32166-41.377l-.19905-.08092c-5.29646-1.97949-12.71051-5.07939-22.97195-9.36983l-7.7926-3.29732c22.24625-4.12349,38.36217-7.28038,58.86694-13.34959-12.39923-16.8988-27.60045-29.70724-60.24194-50.75941l-.06003-.03839c-32.65112-22.78691-84.88475-72.20042-67.86055-147.1178l.4511-1.92693c19.27545.01788,35.27992-1.0183,68.49921-4.43486l9.0685-.96983c-24.75346,54.42538,7.44835,93.10608,38.82118,115.97137l-.00066-.00766q7.55164,5.14558,49.98442,29.48337l.03415.02019c20.05269,12.57133,29.88544,21.41684,39.25067,31.61417.86142.93795,2.33959,1.98999,3.57898,2.28273l42.1837-13.81686,9.34486-3.43617c-1.47504,11.53571-2.74892,21.49829-11.52029,43.84593l-.01163.04649.00066.00766c-7.03043,15.64224-14.87791,27.41733-28.95459,43.44603l-.10654.10956c-4.64366,4.55916-8.67532,9.69229-13.34271,14.22917l-.10655.10036q-16.4915,13.84308-22.58191,14.33115" fill="#282466"/><path d="M523.46837,267.7989l.00035-.00021-.00035.00021M544.92983,200.60835c1.07651,12.49374,2.51188,29.15205,3.58841,41.64578l.41701,5.0918c2.5743,35.91112.21938,51.41164.19197,51.51788l-.06958.04854c-10.33881-16.7941-11.65709-25.82558-25.39583-31.06755q-.19332-.04597-.19309-.0461l-.06314-.01743c-2.26761-.68172-4.52695-1.38972-6.7971-2.063q14.87517-17.69685,18.85875-25.31462l-.53354-1.86172c-6.54094-19.92677-12.86671-28.5377-29.42867-40.0596-61.63817-42.88068-52.63237-102.63431-49.67296-122.26994,14.87585-6.92386,23.8166-12.02626,36.79469-20.99844-9.77773,72.45953,25.34766,102.77632,25.71419,102.99573,19.77258,22.0892,21.83946,24.39825,26.52943,53.60635l.20926-3.46271c.08124-2.93831.06645-4.21449-.0791-6.82768.0238.27496-.04951-.64208-.07072-.91725" fill="#c7c1df"/><path d="M523.46837,267.7989l.00035-.00021-.00035.00021M523.46837,267.7989l.00035-.00021-.00035.00021M533.22833,240.74134l1.13526,1.77273-1.13527-1.77272-1.82448,2.19769,1.82448-2.19769M523.45756,267.82854l.0108-.02962-.0108.02963M523.46837,267.7989l-.01081.02965.0108-.02963M544.92983,200.60835c.19544,3.03786.25441,3.95468.14981,7.74495l-.20926,3.46271c-4.68994-29.20808-6.75684-31.51714-26.52943-53.60635-17.65019-21.66672-32.98148-49.14026-25.71419-102.99573-12.97804,8.97218-21.91879,14.07458-36.79469,20.99844-2.94708,19.55385-11.91536,79.05861,48.79883,121.62733,16.24101,11.38712,23.26053,19.24814,30.3028,40.70221l.53354,1.86172c-5.6165,10.74034-11.09244,17.14461-19.23264,25.20543,2.39581.70627,4.77405,1.46967,7.17099,2.1722l.06313.01744c-.00011.00006-.00022.00013-.00034.0002q11.9318,4.30307,25.58927,31.11345l.06958-.04854c2.32216-20.81631.116-47.75677-.60898-56.60968-1.07653-12.49373-2.5119-29.15204-3.58842-41.64577M544.38879,194.32934c1.82976,21.23593,3.65931,42.46813,5.48908,63.70406l.02824.32916c.58336,7.46056.673,8.60721.85704,12.23433l.00558.11562c.40819,8.79974.44914,12.62779.45712,16.08067l-.00098.10858c-.21179,14.3961-.40567,15.6557-1.65794,17.82381-.33848.20707-.7898.48315-1.12828.69022-.47308-.4768-1.11472-1.1587-1.34555-1.78946-5.46803-16.52548-12.33775-24.22017-26.25218-29.40475q-11.45148-3.23741-16.82172-4.55289l5.01526-4.19443c10.71051-9.50002,15.59201-14.9693,21.76346-24.384-5.00099-13.04758-10.7021-24.81955-29.8924-36.76154l-.03619-.02203c-68.02974-48.7812-58.03876-102.17355-52.67123-130.85783l2.94344-1.24408c22.94327-10.05829,37.00183-19.73978,48.77647-28.70375l-.78261,5.20862c-6.21857,44.21199.35994,74.31157,22.70647,103.89217-.00187-.00098-.00436-.00229-.00623-.00327,12.355,14.96931,12.59103,15.25529,15.27803,20.32468l.01167.0255c3.27681,7.18715,5.21913,13.29971,7.39478,28.5983.07668-3.00412.06305-3.63965-.05667-6.23537.02551.29444-.05227-.68761-.07468-.9823" fill="#282466"/><path d="M10.34489,108.11335c-.30055-.32353-.71564-.74192-1.03867-1.04301.92972-12.45876-3.74467-25.29517,2.53285-37.39166,2.91873-5.62419,8.94377-6.59975,18.41948-2.98244,17.19588,6.89236,30.10381,21.11867,47.46037,27.73607,18.2384,6.95361,38.79665,2.59993,56.61046,11.62181,2.54915,1.29103,15.21443,8.349,14.20889,20.54539q-.63316.32518-3.01224.53848c-1.0544-7.94653-1.88721-14.22318-13.16914-19.98158-17.42561-8.89417-37.57153-4.45767-55.41371-11.311-17.11932-6.57567-29.75594-20.74855-46.73296-27.56548-9.14801-3.43204-14.50064-2.4097-17.35555,3.31485-5.89761,11.82571,1.01955,24.53009-2.5098,36.51857M13.99768,115.84107s1.15488-32.19071,1.15488-32.19071c.2934-4.39449,1.06308-6.59499,1.49579-7.51558,1.62581-3.45886,5.13344-7.38986,16.77385-1.61926,17.38968,8.62079,30.86534,24.22704,50.73564,28.4193,13.78165,2.90767,28.50647.29163,41.6199,7.11052,2.96684,1.54276,12.46057,7.38043,10.06229,17.72679q-.65915.23051-3.04193.4059c-.16809-8.38718-.26067-13.00723-9.48044-17.31506-.5726-.26746-1.06711-.49841-2.04642-.87917-14.11591-5.48575-29.6183-2.52736-43.86539-7.21558-18.0388-5.93594-29.95772-22.20419-47.87137-28.35149-2.29938-.78905-7.08398-2.43092-10.06927.80797-3.19444,3.4659-3.19235,11.3663-2.76898,18.63747.48482,8.32661.49345,16.75229-2.69856,21.97891" fill="#282466"/><rect x="326.9776" y="260.52566" width="13.64898" height=".66118" fill="#282466"/></svg>