<?xml version="1.0" encoding="UTF-8"?><svg id="Layer_1" xmlns="http://www.w3.org/2000/svg" width="523.71214" height="480.24707" viewBox="0 0 523.71214 480.24707"><path d="M65.72465,458.8048c-.47754,0-.96289-.09863-1.42773-.30566-1.76367-.79004-2.55469-2.86035-1.76562-4.625,2.38867-5.33691,7.55566-9.47363,14.55078-11.64648,3.8916-1.20801,7.85547-1.72266,11.68848-2.21973,1.57812-.20508,3.20996-.41699,4.77539-.67188,6.0625-.9873,10.21387-2.63867,13.06641-5.19727,4.2832-3.8418,6.08105-10.2168,7.43066-15.89062l.27344-1.1543c1.53125-6.48926,3.11426-13.19922,7.57617-18.66699,1.22363-1.49805,3.42871-1.7207,4.9248-.49902,1.49805,1.22266,1.7207,3.42676.49902,4.9248-3.44336,4.21875-4.83789,10.13086-6.1875,15.84961l-.27539,1.16504c-1.59473,6.7041-3.78027,14.29199-9.56738,19.48242-5.11523,4.58887-11.93164,6.13281-16.61426,6.89453-1.67773.27344-3.36719.49316-5.00098.70508-3.70117.48047-7.19824.93457-10.5127,1.96387-4.97363,1.54492-8.7041,4.39453-10.23633,7.82031-.58203,1.2998-1.85938,2.07129-3.19727,2.07129Z" fill="#c8c1df" stroke="#282566" stroke-miterlimit="10"/><path d="M42.58526,302.0047c-3.96185,8.58624,1.63297,17.81961,1.01484,27.01024-.04521,7.03202-3.92649,12.86357-10.35343,15.64659-3.69754,1.75626-7.36991,2.82413-10.40018,4.55338-3.14509,1.70792-5.02009,4.18191-6.0805,7.61406-1.69009,5.68466-2.70117,12.53621-8.30204,15.95735-1.53605,1.38818-8.59861,2.71589-7.91787-.91127.255-.81908,1.10461-1.2888,1.92639-1.08299,3.11886.82952,5.91122-1.89825,7.39549-4.52834,2.71195-5.21913,2.17828-11.48388,5.91323-16.41179,3.68147-5.00966,10.53292-6.79599,15.40663-9.31472,3.20262-1.62698,5.57176-3.76712,6.53904-6.78787,2.20701-6.92706-1.04785-14.156-2.00584-21.50047-.60786-4.25544-.4785-8.89794,1.50831-12.94899,1.83277-3.54884,7.13377-.92803,5.35592,2.70482h0Z" fill="#ada7c1" stroke="#282566" stroke-miterlimit="10"/><path d="M490.39164,429.01573c-6.55371,0-13.57617-1.82031-21.78809-5.61523-5.19629-2.40234-11.69629-5.92676-15.87012-11.91113-4.68262-6.71094-5.51465-15.28418-6.18457-22.17285-1.0957-11.28906-2.33789-24.08496-7.23535-35.26758-5.16113-11.78516-14.21582-20.21875-24.2207-22.56055-3.75391-.87793-7.70215-.97754-11.88281-1.08203-5.96777-.14941-12.13965-.30469-17.91309-2.87891-6.86035-3.06055-12.56934-9.54688-15.66309-17.7959-2.91309-7.7666-3.32227-16.1875-3.35352-22.65625-.00781-1.65723,1.3291-3.00684,2.98535-3.01465h.01465c1.65039,0,2.99219,1.33398,3,2.98535.03027,6.33984.40723,13.74316,2.9707,20.57812,2.53418,6.75586,7.08691,12.01367,12.48926,14.42285,4.67969,2.08691,9.99316,2.21973,15.62012,2.36133,4.2998.10742,8.74512.21875,13.09961,1.23828,11.83594,2.76953,22.43457,12.4873,28.34961,25.99609,5.28125,12.05762,6.57227,25.3584,7.71191,37.09375.63281,6.51465,1.34961,13.89746,5.13281,19.32031,3.35059,4.80371,8.95703,7.8125,13.4668,9.89648,8.67578,4.00977,15.71387,5.56934,22.16992,4.91602,6.41602-.65332,14.02832-4.44141,16.57324-11.43164,2.10547-5.78125.43164-12.19629-1.3418-18.9873-1.79297-6.86719-3.64648-13.96875-1.74902-21.11035.42578-1.60059,2.07324-2.55078,3.66992-2.12891,1.60156.42578,2.55469,2.06836,2.12891,3.66992-1.49219,5.61426.08594,11.65625,1.75586,18.05371,1.92676,7.38281,3.91992,15.01562,1.1748,22.55566-3.02051,8.29492-11.5,14.31934-21.60449,15.34766-1.15625.11816-2.32422.17773-3.50684.17773Z" fill="#c8c1df" stroke="#282566" stroke-miterlimit="10" stroke-width="2"/><path d="M462.13094,78.74078l.3254-.51104c.89128-1.12173,1.50418-1.49115,2.981-1.79675.08661-.17342.20207-.40466.28868-.57808-4.2453-11.6048.82907-24.44543-4.76476-35.87111-2.53693-5.18179-8.00697-11.81979-19.65948-14.01656-2.48299-.39264-5.09537-.7234-9.72789-.4617-12.1873.68866-23.2372,6.69525-35.38753,7.55698-11.71829.83109-23.0667-3.30205-34.77686-2.58076-1.27438.07851-3.42686.31754-5.29922.73291-15.47433,3.43294-17.08344,15.03203-16.25986,17.25917q.21198.57318,7.03107,2.0946c1.77721-2.90201.3587-6.6524,2.50996-9.45511.81883-1.06677,3.31059-4.31308,9.1143-5.68916,1.76369-.41811,3.14952-.54359,4.53076-.64485,9.28581-.68034,18.23694,2.08635,27.40205,2.65269,15.15756.93663,22.52396-2.96968,43.65875-6.92552,5.92302-1.10863,9.05556.55556,14.44444,2.83333,4.94023,2.08814,8.49219,6.82206,9.11111,12.72222,1.32766,12.65659-1.11987,22.7685,4.31264,33.22222" fill="#a6a0b9"/><path d="M465.9358,76.3834c.43486.001,1.01498.0354,1.44708.08436-1.11916-8.93617-.75845-17.98174-2.00783-26.90819-.70755-5.05502-2.0343-8.18388-3.23886-10.57788-2.18794-4.34843-7.81117-12.00909-20.88945-14.45848-17.4034-2.75148-32.9283,7.55217-49.98883,7.18581-8.5341-.29407-16.86105-2.498-25.39969-2.75021-5.01567-.14809-9.54039.39113-13.44852,1.60268-7.46336,2.31384-15.32204,8.21562-14.99568,17.84045q.61983.22934,2.16899.5623c1.58206-3.7585,1.45253-8.18417,4.44154-11.39424,1.94931-2.09348,5.6284-4.89542,12.08572-6.35533,12.51579-2.82962,24.61986,2.03781,36.98875,1.96855,13.32127-.0746,25.30061-6.86621,38.47485-7.67767,4.89995-.30168,7.92216.17618,9.72789.4617,11.66252,2.19864,17.12808,8.8358,19.65948,14.01656,5.66138,11.58664.29773,24.67844,4.97453,36.39961M461.21147,80.12214q.92103-1.35638.4146-2.39387c-1.11919-2.2926-2.5296-6.23039-2.89325-11.9706-.32611-5.1483.40643-10.29904-.04321-15.44699-.00363-.04156-.09091-1.03233-.28282-2.29858-.39037-2.57785-1.31418-6.32126-3.49847-9.51567-5.16367-7.55142-14.66858-10.24516-27.48724-7.78999-8.34911,1.59912-16.25188,4.98431-24.70331,6.17406-6.44691.9075-11.14133.88794-18.60382-.07751-20.09587-2.59996-20.4798-2.64963-26.35339-1.18526-4.32021,1.07718-12.05687,5.60979-10.4157,15.0544.83789.18797,1.67564.37636,2.51334.56525-2.09648-9.83208,6.04297-13.89162,10.63976-14.66452.84129-.14146,2.11264-.35521,4.06905-.3994,11.90994-.26891,23.51399,3.67584,35.48508,2.55931,11.47728-1.07047,22.04405-6.32253,33.5416-7.29991,4.25288-.36151,10.37013-.10973,15.36124,3.14273,7.96362,5.18958,8.411,15.47998,8.05473,22.76886-.35286,7.2193-.31906,14.92471,4.20183,22.77771" fill="#282466"/><path d="M137.03027,350.09363c19.64774-5.26034,22.01659-15.09822,23.43195-20.97616,1.32506-5.50298,2.55867-9.08607,8.50493-12.43694,14.84967-8.36819,32.94051-7.51747,47.49921-16.71263.50967-.3219,1.17564-.77221,1.67804-1.10535,5.21959-3.46104,8.43857-7.51855,9.49637-8.8519-2.43015-.40915-4.93034.19167-7.34-.51169-1.11868,1.34842-3.44644,4.15424-7.79503,7.11639-.4021.27389-.94865.62351-1.35529.89062-14.48131,9.51244-33.01776,7.77303-47.55157,17.13982-7.56197,4.8736-8.84036,10.32404-9.96829,15.13289-1.3237,5.64355-2.82399,12.04007-15.51375,15.701-17.30208,4.99155-40.07962-6.23161-41.30846-20.35385-1.20631-13.86368,9.46622-23.44368,12.85468-35.65059q-1.00597-.2054-4.8815.15913c-.19505.25072-17.86264,28.88766-11.32645,44.08553,4.15764,9.66721,21.57375,19.40103,37.79669,17.46245,2.34146-.27992,4.43472-.74655,5.77846-1.08873" fill="#ada7c1"/><path d="M136.82645,345.83271c1.38717-.37063,5.60851-1.49848,9.25744-3.8715,5.16093-3.35637,6.29398-6.84152,7.54671-12.18253,1.24345-5.30144,2.65279-11.3102,12.26288-16.48203,14.69704-7.90944,32.49435-7.15364,46.61227-16.6813,4.29686-2.89981,6.74823-5.85463,7.79503-7.11639-.88631-.33203-1.07954-.42992-1.76721-.8308-4.28937,4.5502-4.73775,5.02583-7.47012,6.90469-.38423.26421-.90079.6103-1.28935.8681-14.4753,9.60385-33.07002,7.88574-47.60379,17.32896-11.43375,7.429-9.04297,25.90906-24.24367,30.32669-16.45735,4.78284-38.95558-6.92308-39.46413-20.53333-.49461-13.23773,9.62375-22.44502,12.98984-34.2171-3.51845-1.32829-13.26987,26.45157-13.3627,26.73433-1.1248,3.42604-2.3521,8.61212-.03424,14.0712,3.85312,9.07475,22.23787,19.89687,38.77104,15.681M137.09166,351.5113c2.01152-.53779,8.13279-2.17436,13.69833-5.65605,11.66791-7.29918,10.16762-25.17363,24.41631-30.40002,14.8446-5.44498,31.15378-6.72922,44.73064-15.77007,3.06477-2.04083,7.45473-5.54366,10.96399-10.64154-.45098-.00519-1.05605.10551-1.48161.25488-7.55634,2.65224-11.4147,10.26312-18.38129,13.70627-6.68767,3.30519-12.79634,4.85248-16.83859,5.87637q-18.6557,4.7252-22.62828,6.49789c-1.49983.66913-2.49539,1.23872-2.60399,1.30148-6.38849,3.6908-7.25043,7.25407-8.67844,13.15752-1.08737,4.49521-2.57657,10.6516-12.39462,16.0461-23.95418,13.1615-45.81505-.15323-52.10994-8.24777-3.42815-4.40826-4.78044-10.33788-3.71013-16.26846,2.0368-11.28563,9.48178-20.45088,12.31746-31.42337-.41628-.12308-1.00955-.17128-1.44139-.12712-15.20818,31.18941-14.73827,38.45985-10.20782,46.64644,4.31564,7.79836,22.30989,20.65846,44.34938,15.04745" fill="#282466"/><path d="M227.80462,32.6599c1.48276-16.20946-14.96096-28.24053-24.41046-30.36653-1.88737-.42461-4.47221-1.00612-8.55704-.80771-10.54984.51265-17.3889,6.13977-22.88419,10.66125-5.73596,4.71948-10.26656,8.4472-16.12958,8.1635-3.88907-.18823-6.46527-2.43864-10.73338-6.16702-4.0448-3.53333-14.78915-12.91899-32.51454-7.4371-5.0848,1.72958-9.89313,4.2049-13.52895,7.34434-8.57888,7.40764-12.45219,17.80353-11.1296,25.72547.50676,2.99139,1.18244,6.97992,1.68919,9.97131,2.57884-.30278,5.15767-.58337,5.18343-.58618-3.15388-17.89969,1.25434-26.94697,7.69671-32.07141,10.86176-8.63974,26.44444-6.58333,32.27646-2.03432,16.01603,12.49262,16.88425,10.19296,21.95926,9.64097,11.92047-1.2966,19.05064-11.00934,28.6852-16.32306,15.6535-8.63335,35.79581,8.28188,34.59975,24.24382,2.83037-.64453,5.16572.72809,7.5851,1.3337" fill="#a6a0b9"/><path d="M217.42324,33.53584c1.09275-.48085,1.38249-.58386,2.58364-.91861,1.08768-14.51556-14.02818-25.46002-22.62152-26.58205-1.7599-.22972-3.30339-.16032-3.36824-.15724-14.47476.68556-21.43892,15.55174-34.76279,18.41043-16.63358,3.5688-24.93903-16.37854-40.9718-14.50662-7.5528.88185-13.10594,4.51521-16.43448,7.40797-5.2057,4.52417-10.34224,12.18578-9.14667,20.12102.62644,3.55514,1.46168,8.29534,2.08812,11.85048.59219-.06429,1.18445-.12831,1.77673-.19179-3.18892-17.87164-3.85254-21.59077,5.64204-30.37418,7.58533-7.01714,20.08931-10.80644,30.92496-3.45375q16.79546,11.39679,21.53809,11.18286c10.15274-.45811,15.72711-4.77167,26.83276-13.36543,21.39439-16.55536,37.34451,8.95375,35.91914,20.5769M229.85128,33.62064c3.27622-23.05841-27.76866-46.39719-55.50975-25.47541q-17.59404,13.26906-27.36057,4.84793c-4.28664-3.69615-15.67339-13.51434-34.45934-7.70258-18.12216,6.15013-28.15718,23.22522-26.15979,35.31444.4684,2.80365,1.09294,6.54184,1.56134,9.34549.56087-.06844,1.1218-.13654,1.68289-.20311-1.54324-9.10989-5.64259-33.30887,22.96936-43.04112,17.74934-5.48929,28.25639,3.70924,33.30582,8.12984,3.17924,2.78331,5.664,4.7953,8.69676,5.33681,6.26158,1.11795,11.65977-3.32364,17.37492-8.02602,5.48239-4.51088,12.3054-10.12482,22.88419-10.66125,2.70845-.13733,5.36189.08116,7.88664.6494,21.44284,4.82631,23.93043,25.3222,24.79482,31.66586,1.11086.38756,1.34927.50807,2.18985,1.01112" fill="#282466"/><path d="M127.42061,282.91216c-4.67958-20.00788-6.54242-60.03678,33.55845-103.32601,14.38712-14.44279,31.02403-26.39314,45.3261-40.93015,3.68564-3.74617,12.31671-12.51901,22.49609-28.00616l2.04095-3.12325q8.76578,2.68484,31.46165,7.76553c-5.68211-52.18324-39.32301-77.88416-39.65486-78.07065l-.2502-.00328c-7.80412,9.15254-26.07993,30.58607-57.4024,48.49814-3.48506,2.08499-6.57983,4.03799-10.4436,6.51332,10.80014,2.34563,21.89651,2.90073,32.6653,5.43488l-2.38322,2.44601,2.38322-2.44601,2.76828.67758c-9.38043,17.20004-20.76033,30.46683-48.70601,56.78188-21.03116,21.12122-55.09393,66.17567-46.9292,130.61365,9.22572-1.39937,16.95221-2.05951,33.06944-2.82547" fill="#a7a2bc"/><path d="M197.26822,147.42773q-30.60957,26.44287-36.27891,32.15632c-40.12213,43.23817-38.25359,83.29755-33.56871,103.32812-16.11723.76596-23.84372,1.4261-33.06944,2.82547-8.17233-64.49802,25.89546-109.51793,46.93028-130.61322,27.3647-25.77911,38.04597-38.06941,47.62074-54.79433l1.08418-1.98798-2.76828-.67758-2.38322,2.44601c.71497-.7338,1.66826-1.71221,2.38322-2.44601-8.63681-2.03239-16.79308-3.54591-32.92513-5.26801,7.99712-5.12589,10.64775-6.64713,10.67227-6.66106,17.17413-10.31789,41.008-27.0766,57.02258-48.32098.03832-.05084.11442-.09473.16345-.13533l.24753-.06096c1.39864,1.06871,34.31799,26.76344,39.90506,78.07393q-22.27898-4.98714-26.88055-6.36229l-4.5811-1.40324c-6.1783,9.45441-15.515,23.74199-33.57399,39.90114M136.77348,287.72919c-14.30969-46.2307,8.8998-83.3751,30.88996-106.39458q5.3837-5.26938,36.47705-31.70761l.04276-.03819c13.91158-12.7346,21.11055-20.86497,30.81168-34.79805,9.93204,2.56479,20.04326,4.32797,30.00368,6.76694l6.74483,1.70436c-.59642-10.05049-1.0675-17.98897-6.39366-36.24039l-.0121-.01848c-4.18657-12.26152-9.32861-21.79289-18.34001-33.9953l-.06081-.07219c-3.05846-3.45108-5.56633-7.34215-8.62587-10.79236l-.07242-.07045c-9.79181-9.18204-16.26064-15.24803-24.25345-5.88185-15.28943,20.40157-35.41595,34.39488-53.08072,45.90959-4.93768,2.97974-10.84921,6.90704-16.56612,10.70505l-5.46831,3.68854c16.4895,1.49461,27.46365,2.60576,40.79504,5.42802-8.98103,15.13409-19.66202,27.55998-43.95642,51.13737l-.04585.05035c-21.31345,22.06476-55.73065,69.20593-46.76804,137.01826l.22879,1.66029c11.29352-2.00769,19.50919-2.75508,41.86089-3.80815l5.78909-.25117" fill="#282466"/><path d="M388.10709,297.47218c-8.60682-35.25917,2.53261-66.15274,33.10886-91.82263q43.17953-33.53104,51.06459-48.70746l1.30544-2.55211c5.88612,5.49193,12.07565,10.64345,18.02441,16.06508.03839-.20734.98213-28.373-13.04434-65.90175q-8.73061-20.12794-10.2484-22.81541l-.16611-.07439c-6.72089,2.78742-17.81261,23.74362-43.40709,31.35255q-1.3203.42554-9.06648,3.03748c8.39371,6.39803,18.51399,9.8271,27.15544,15.79933l-1.85831,1.72572,1.85831-1.72572,2.13371,1.51189c-8.24648,16.4511-19.70959,27.61563-42.29501,41.19336-45.10637,29.3622-63.97829,67.25226-56.09149,112.61774,13.37216,2.5946,24.23888,5.28896,41.52646,10.29633" fill="#a7a2bc"/><path d="M450.43833,184.65008c-9.55061,7.26033-19.755,13.61136-29.21281,21.00077-38.10789,31.91284-39.04378,67.54727-33.11844,91.82133-17.28758-5.00737-28.1543-7.70172-41.52646-10.29633-7.89389-45.40633,10.9782-83.29613,56.09204-112.61699,21.82809-13.12936,33.06512-23.84338,41.46083-39.53107l.83363-1.66304-2.13371-1.51189-1.85831,1.72572c.55749-.51772,1.30082-1.20801,1.85831-1.72572-8.2319-5.68912-15.98027-10.0735-27.63593-15.6377q8.97618-3.02248,9.51961-3.18999c4.75688-1.59241,14.65517-4.90594,25.26152-12.59546,7.13504-5.17284,11.23819-13.25337,18.00917-18.77541l.16376.00919q1.25365,1.99042,10.416,22.88989c4.27478,11.45561,11.42943,30.62881,13.40764,66.239-5.08633-4.66893-10.48302-8.98647-15.51312-13.71896l-2.87608-2.68346c-3.78246,7.39465-10.11311,19.77104-23.14766,30.2601M398.08799,305.66713c-7.14335-24.7074-11.91827-61.55344,28.90996-96.12833,9.21271-7.26863,19.16943-13.51102,28.46471-20.66594l.03889-.03029c10.31517-8.93246,14.9335-15.53432,20.31236-25.31786,2.99025.28238,17.44373,14.12338,17.5873,14.26297l3.45341,3.50632c-.2834-9.99788-.52814-18.63234-3.24472-37.96761l-.00665-.02187c-2.28877-14.01978-5.12856-24.95-10.12865-38.98454l-.0358-.08902c-1.81339-4.35413-3.25626-8.85313-5.14989-13.17589l-.0439-.09081c-5.94505-11.78197-9.87257-19.56558-15.7811-12.73277-11.20668,17.15944-27.95413,24.96587-41.29245,29.84973-5.18521,1.63097-10.29178,3.49454-15.45956,5.17754l-5.48076,1.78822c13.82941,6.05817,24.55333,10.95044,36.64989,18.76663-8.37257,14.35379-19.18855,24.30513-39.90729,36.71707l-.04779.03407c-47.83424,31.0282-67.48427,70.93645-58.40425,118.61626l.34779,1.7634c15.04396,2.64716,27.3898,5.36913,53.11856,12.90041l6.09991,1.82231" fill="#282466"/><path d="M225.90241,284.99675l.41167-.1941c21.74463-28.67702,54.72511-42.41025,58.41415-43.88179l-.00388-.00334c3.60754-1.49316,7.19316-3.03825,10.79578-4.54311-10.19066-7.0743-22.65579-6.55045-33.88751-10.14845l-2.84804-.92319c11.10962-18.70209,26.2594-33.01581,52.29124-49.40549,70.19888-47.30649,62.24362-94.67181,58.84657-114.89772q-33.52545-7.51682-42.69196-9.34c13.87354,52.43762-25.28258,85.2016-38.14966,95.96817q-57.35291,45.17651-69.57483,63.95769l-2.03238,3.14421c-9.86754-2.81857-12.21207-3.48825-30.90509-6.08821,4.08495,38.56573,23.5139,62.80246,39.09346,76.34351l.24045.01183" fill="#a7a2bc"/><path d="M264.09105,224.01304l-2.45842,2.21291,2.45842-2.21291,4.18971.61827-4.18971-.61827M284.72824,240.92085c-11.09273,4.6816-38.9903,18.32854-58.41448,43.87553l-.16437.13448-.24699.0659c-3.48245-2.68365-34.17244-27.62608-39.33391-76.35533,13.05875,1.81622,18.71419,2.69958,26.35626,4.7888l4.54883,1.29941q14.02713-21.7007,71.59589-67.09482c12.87099-10.76414,52.03894-43.52075,38.16098-95.97525q9.1665,1.82318,42.69196,9.34c3.39229,20.19748,11.33638,67.49626-58.84531,114.89876-25.25471,15.88905-40.07867,29.65337-51.16663,47.50912l-1.12589,1.89532c12.14011,3.93521,17.57964,5.43819,37.59575,10.71358-3.8542,1.60509-7.68666,3.2617-11.54478,4.85753l-.11119.04364.00388.00334M226.15795,289.98622c4.95534-.73637,6.58901-2.11914,8.2098-3.85035,12.97882-16.85678,30.9063-30.26149,54.80693-40.98015,6.12793-2.46883,12.18076-5.11844,18.32819-7.53986l6.27072-2.43877q-41.29601-11.48094-44.33495-12.43794c10.70018-16.19347,24.60583-28.76118,47.99698-43.37898l.04341-.02585c72.85329-48.86023,63.95215-98.75392,60.15118-120.05948l-.32899-1.77888q-42.44743-9.66519-54.33853-11.88882l-6.81201-1.24283c12.97226,38.64935,2.42523,69.63933-34.19795,100.48268-12.25989,9.7876-25.30107,18.53358-37.63399,28.22382l-.05579.0372c-13.59264,11.64987-21.10403,20.02017-30.91235,34.44705q-5.11308-1.18996-29.40129-4.91968l-6.51283-1.00117c.57361,9.98064,1.02666,17.86395,6.1705,35.55858l.01172.01729c4.1656,12.02286,9.01552,20.85767,17.89456,32.5975l.04851.07681c3.03772,3.30328,5.44821,7.11871,8.50214,10.40875l.07166.06837q11.10248,10.15451,16.02238,9.62471" fill="#282466"/><path d="M39.68829,314.22179l.09335-.27948c5.42271-35.65039,16.40244-52.91518,19.63843-57.35747l-.00172-.00237c2.47397-3.70847,2.97498-4.44078,4.87369-7.12344-4.48042-2.26797-9.4519-.90903-14.10381-1.91211l-1.00256-.2538c4.4259-24.15791,11.17645-42.30249,23.30038-62.62811,32.34637-55.90915,45.71892-88.26041,39.45006-132.16783q-28.95258,3.34357-30.03812,3.49615c6.70604,38.5491-6.40956,73.61783-20.41803,106.23332-12.43777,28.45876-18.68077,42.74333-23.04628,79.9203l-.40443,3.55779c-2.01605-.93434-2.34541-.84419-3.9281-.41095-.03333.42532-1.13286,49.08768,5.53323,68.96584l.05391-.03783" fill="#a7a2bc"/><path d="M51.0809,244.75286l-.89267,2.79406.89267-2.79405,1.56792-.38498-1.56792.38498M59.42007,256.58483c-9.7546,15.22772-15.99485,33.45148-19.63849,57.35129l-.03743.16856-.05586.11713c-5.42732-16.63889-5.60419-46.82265-5.73335-68.86189,1.5433-.4783,1.95808-.60684,3.23918-.05959l.83513.40442c4.57747-40.26852,10.49037-53.80638,23.44579-83.46828,14.01192-32.61488,27.13072-67.68387,20.42296-106.24313q1.08554-.15259,30.03812-3.49615c6.25375,43.80132-7.11557,76.1731-39.44904,132.16835-11.77689,19.73131-18.41319,37.25047-22.90602,60.46944l-.39539,2.15816c4.02579.98065,6.56366,1.29929,14.59224,1.38251q.09134,1.28555-4.31508,7.83833l-.04448.06851.00172.00237M39.73882,319.15631c.98048-1.74323,1.31078-2.33046,1.98993-5.58147,4.83025-27.88371,12.6673-42.88948,19.69653-53.89073,3.30785-4.73251,5.30443-7.58904,9.08698-12.36246l3.40826-4.14507q-16.10188-.17342-20.8246-.97952c4.72005-21.14278,11.36359-37.3147,22.93098-55.81927l.02477-.03824c35.18817-58.14262,49.63878-91.87137,42.2457-138.03708l-.27742-1.67131q-35.52171,4.0257-38.679,4.51967l-3.93384.65599c6.91774,33.12312,2.60217,60.74112-17.10245,109.44913-6.27037,15.31537-9.72438,23.75182-13.68504,37.1264l-.01622.04939c-3.95461,14.68501-5.64105,25.75154-7.21768,39.90424q-.59052.46349-3.58812,1.46413l-.29085.07443c.00012,12.21568.01526,21.84294.21045,34.53l.0007.03406c.25966,13.11661.68852,20.80959,1.63893,29.39824l.00778.07054c.41106,2.92999.74059,5.87152,1.24016,8.78902l.00975.05171q1.36513,6.06418,1.89139,7.14043c.36987-.21966.98177-.38294,1.23289-.73221" fill="#282466"/><path d="M49.47133,162.85303c-.05723-.21869-.1336-.51028-.19027-.72913-4.01624-13.80602.52577-33.06493.58185-33.22444,1.70839-4.86044,5.57658-5.53947,11.82567-2.07591.93111.51611,1.59026.93617,2.28812,1.38091,14.71039,9.77872,24.40939,25.82343,41.22691,32.96709,12.01849,5.10515,25.73511,5.65707,36.66486,13.68022,4.33875,3.18494,11.50218,9.8114,10.73039,18.40707-.86493-.01941-1.54808-.03471-7.26582-.47633,1.75029-8.5334-6.00656-14.68661-8.42564-16.36925-.59247-.41219-1.5318-.99602-2.03743-1.2827-9.60388-5.44627-20.85251-6.00658-30.81659-10.38388-10.28108-4.51662-18.01656-12.25795-25.49734-19.74442-8.92934-8.93613-18.69792-17.70361-23.44734-14.9763-3.30275,1.89662-3.56245,9.45119-3.41972,15.82083.14438,6.44383.09207,13.06485-2.21764,17.00626" fill="#c8c1df"/><path d="M47.27128,157.66407c-1.92275-2.74369,1.22103-28.75357,1.27954-28.97815,1.18906-4.56543,3.63188-6.29799,7.68774-5.45245,3.06914.63988,6.37914,2.75314,7.79257,3.65555,14.59746,9.68672,24.40598,25.33748,40.81664,32.76547,12.27406,5.37021,26.20299,6.2626,37.63036,13.92145,3.06941,2.05719,13.04602,9.55852,12.55476,19.71359q-.62737.12439-2.43839.00848c.79733-8.60893-6.37796-15.25238-10.72604-18.44624-11.10785-8.15918-25.14119-8.49756-37.26494-13.94122-16.39352-7.36084-26.08798-23.04141-40.62683-32.70609-2.52242-1.60757-10.19839-6.4996-13.25758-1.10481-5.49927,9.69785.33438,20.67291-3.44783,30.56444M50.01375,164.85077c-.01251-.04505,1.78302-25.93678,1.84732-26.63861.28842-3.14807.82431-4.62714,1.08185-5.33795,1.37529-3.79549,4.49527-4.36746,9.27332-1.70007,16.83046,9.39584,26.46642,28.1109,45.27448,34.94452,9.28427,3.37329,19.42909,4.17889,28.08347,9.42841.62325.37802,1.53439.99608,1.96234,1.31436,9.22368,6.85933,8.57167,14.95638,7.492,15.89722-.60753-.04831-1.21498-.09755-1.82237-.14766-1.1291-2.71745.06351-5.7961-1.31837-8.47423-1.84586-3.57726-4.74283-5.97287-6.84808-7.35263-.79169-.51881-1.56316-.94617-2.07095-1.21333-10.86244-5.7144-23.64948-6.01813-34.33788-12.22154-8.20261-4.7607-14.68668-11.30563-20.95726-17.6351-12.07857-12.19194-20.72008-18.82045-23.63428-11.54189-3.95715,9.88356,2.97639,21.19452-4.02559,30.67853" fill="#282466"/><path d="M369.8492,478.87276c-12.90715.28109-21.02833-1.78205-24.66948-5.22519-3.14625-2.97515-2.51269-7.19068-3.94418-9.29692-2.94471-4.33271-3.92095-8.37117-10.94471-9.44382-16.61537-2.53747-31.21969-3.23849-46.2902-9.03732-.6241-.24014-1.45613-.56157-2.07027-.82614-8.78603-3.78508-12.9357-7.51756-16.11127-10.98724,2.5728-.29025,5.18784.11957,7.7426-.46858q11.36711,7.59517,11.96275,7.85524c.48323.21105,1.12593.49658,1.6147.69446,15.41049,6.239,32.3204,4.07309,48.03944,8.58559,11.36078,3.2614,12.84647,8.19157,14.4194,13.41124,1.40065,4.64796,3.14378,10.4325,18.39267,10.6955,24.10033.41565,58.7348-23.42146,56.14984-38.645-1.83344-10.79762-13.07367-14.99222-17.04779-24.28723,2.56195-.66946,4.50154-1.18507,7.15648-1.90245,3.53685,8.91309,13.04677,13.55696,16.23564,22.71872.90303,2.59447,1.71535,8.03682-2.99004,15.33635-6.43089,9.97626-30.69589,29.92255-57.64561,30.82281" fill="#c8c1df"/><path d="M370.18131,474.80193c-17.23714.40698-19.20058-6.09273-20.49983-10.39374-1.64439-5.44345-3.06451-10.14458-13.59068-13.41327-15.95583-4.95473-33.31395-2.14481-48.95164-8.85768-5.9516-2.55493-9.53165-4.90028-13.2092-8.65364.49223-.16921,1.1398-.42151,1.61559-.63258,4.05997,2.13434,7.21828,5.64571,11.45963,7.50301.46116.20194,1.0718.48131,1.53804.67123,15.73663,6.4102,33.07916,3.87756,49.07828,8.82863,11.58292,3.58446,13.1991,8.97777,14.62505,13.73621,1.49529,4.98988,2.90764,9.70303,16.06664,9.88412,22.38043.30801,58.39015-23.10735,53.03767-38.61653-3.157-9.14764-12.71198-13.4938-16.58733-22.10236q.66286-.42474,2.17825-.81866c5.09189,7.46413,12.66666,13.03706,16.39935,21.53619,1.64612,3.7482,1.14555,8.07339-1.44759,12.50804-6.42763,10.99208-30.33086,28.09338-51.71222,28.82104M369.74697,480.22531c-26.31075.56979-29.59619-10.19534-31.17509-15.3688-1.48853-4.87732-2.68021-7.73178-9.85695-9.68234-15.18025-4.12576-31.37233-2.57277-46.27258-8.26593-.66122-.25264-1.54214-.59288-2.1902-.87758-5.67081-2.49124-12.85963-6.23143-18.15929-13.09865q3.36948.7274,4.90091,2.40759c3.94853,4.33212,13.85393,12.0312,35.83023,14.92133q26.55301,3.4919,28.71651,4.16312c.41596.12903.96651.31575,1.37129.47644,5.34688,2.12267,6.83295,4.52435,8.32375,9.45016,1.49384,4.93587,4.60223,15.20659,28.61365,14.52211,28.82024-.82159,72.07217-29.51321,58.41733-50.67789-4.16586-6.45697-11.07971-10.79704-14.01732-18.2.5276-.14299,1.23097-.33401,1.75842-.47755.25111.15501,23.61203,18.58707,15.3367,35.62639-6.63063,13.65274-29.01694,28.97098-48.88445,33.45004-1.5558.35075-6.29024,1.41809-12.71292,1.63158" fill="#282466"/><path d="M270.27166,192.11332c-1.34669-15.02373,16.10077-25.77859,24.76122-28.63317,2.5602-.84387,4.99998-1.4407,7.25165-1.77397,14.63779-2.16629,23.72581,2.7419,30.36163,6.32571,6.52316,3.52298,13.2684,7.16589,21.1628,4.48524,3.86263-1.31161,6.90097-3.91623,11.50009-7.85883,5.44525-4.66792,18.19702-15.59932,42.44418-17.86047,21.75101-1.63855,35.5648,6.29007,32.84613,18.85248-.73823,3.12011-1.72254,7.28025-2.46077,10.40036-2.68044.91458-4.39873,1.48337-7.07155,2.34081,4.30199-17.54378,5.19724-21.19469-5.46909-25.39323-11.81187-4.6494-30.14835-2.09303-43.60008,6.07849-9.56371,5.80966-16.37099,15.99039-28.39388,17.89894-10.71986,1.70166-13.06859.54982-31.34891-8.4151-23.29492-11.42415-43.86194,11.62743-43.7664,21.61284.00524.54798-.19879,1.30679-.51927,1.75131-1.19954-.16876-4.38591-.61703-7.69777.1886" fill="#c8c1df"/><path d="M281.40698,192.81108c-1.08753-.36769-1.38371-.45633-2.66744-.74657-2.23866-8.1105,9.17281-22.2101,24.36131-26.07138,18.66249-4.74443,32.2012,14.06897,50.50314,10.98254,8.10834-1.3674,12.76123-5.41803,17.68733-9.7065,5.78958-5.04018,15.47955-13.47589,32.49799-15.94611,1.62798-.23619,2.70244-.33934,2.74739-.34363,11.71069-1.11308,18.46577,1.49139,21.45013,3.14297,2.91716,1.61441,7.58876,5.3139,6.10059,11.95221-.90612,3.69505-2.11427,8.62179-3.02039,12.31685-.80389.25563-1.60822.50999-2.41362.7608,4.75485-19.16617,5.14323-20.73174-4.63358-24.95189-8.88135-3.83359-26.29379-2.76454-40.05954,5.66019-9.64952,5.90558-16.67836,15.93008-28.63303,18.21133-14.1284,2.69601-22.96973-2.09718-31.51997-6.73259-27.11536-14.70016-43.57071,11.83977-42.40033,21.47177M267.66031,193.12267c-2.42742-17.17346,17.94245-28.15279,25.26963-30.64499,3.72319-1.26639,6.83789-1.83481,8.36316-2.06094,16.40875-2.43259,26.65262,3.06839,33.43121,6.70851,6.46516,3.4718,10.35931,5.40782,15.21201,4.82774,3.95053-.47227,6.83614-2.61252,12.04341-7.04568,5.99916-5.10735,18.48242-15.73488,40.92212-18.88875,2.24805-.31606,2.89912-.38681,4.94562-.57771,23.43655-1.78822,37.7787,6.45805,34.87752,20.05347-.68407,2.92757-1.59617,6.83099-2.28024,9.75856-.76819.26743-1.5368.53371-2.30615.79781,3.02568-12.78835,7.5981-32.11421-30.38536-29.25284-1.34319.12526-2.61188.24356-4.61307.53972-21.34024,3.15831-32.71526,12.92723-38.82632,18.17545-5.87622,5.04654-9.26923,7.46643-14.97606,7.85361-5.63123.382-10.04144-1.74332-16.12698-5.02933-7.47646-4.03709-19.98975-10.79393-38.17792-4.85713-5.49246,1.79282-25.79892,11.83429-24.80426,28.20752-.74017.68585-1.71439.9528-2.56831,1.43501" fill="#282466"/><path d="M383.45711,412.64535c16.24516-49.59007-26.26709-79.00042-40.23704-88.66496-20.21337-13.08914-35.29747-19.93874-44.92923-26.50821-19.77535-13.48803-21.36198-19.5174-30.7592-31.96486l-2.1926-2.93175c-11.20753,2.8609-14.27524,3.5538-34.22714,6.06006,4.0797-28.6275,19.03041-52.92427,44.43689-72.21547l.27702-.00842c12.02058,5.79138,28.81244,28.53027,64.23083,39.97028,3.90671,1.26759,7.79951,2.57765,11.70644,3.8446-11.46175,7.15797-25.01125,6.97726-37.46112,10.6642l2.67319,2.02089-2.67319-2.02089-3.1581.94244c11.72229,17.15147,28.64211,30.48643,56.57568,44.58885,72.71158,39.34241,64.41402,83.59787,60.42641,104.86595-19.76175,5.49629-30.62071,8.256-44.68886,11.35728" fill="#d6cee6"/><path d="M302.07267,298.69471c13.50379,8.76768,27.64037,16.50349,41.13526,25.28569,13.97784,9.64963,56.51411,39.0146,40.24918,88.66496,14.06857-3.10129,24.92754-5.86099,44.68886-11.35728,3.99185-21.29071,12.29825-65.59326-60.42778-104.86525-27.29059-13.78644-43.33414-26.19702-55.37619-42.83655l-1.19812-1.75301,3.1581-.94244,2.67319,2.02089c-.80196-.60626-1.87123-1.41462-2.67319-2.02089q9.40045-2.78351,38.39857-10.36201c-4.20914-1.35796-8.39894-2.77512-12.60765-4.13445-4.70758-1.54292-19.03333-6.23819-35.84862-16.73053-10.40495-6.49245-18.10695-16.2632-28.14543-23.20024l-.27303-.05185c-.3735.20549-37.89836,24.39867-44.71391,72.22389,13.30664-1.6716,20.10564-2.57269,29.17961-4.77156l5.04753-1.2885c6.36372,8.50902,17.01463,22.75052,36.73361,36.11914M371.2221,420.06173c14.76479-36.81582,3.69585-65.56637-35.89021-93.22154-13.46191-8.8663-27.5672-16.69833-41.03409-25.55664l-.04736-.03307c-16.6329-11.88004-25.0278-21.15042-31.62206-29.39876-.68067-.85141-1.80751-1.88362-2.81694-2.29504-4.46179-1.81856-8.03125,1.49356-12.07158,2.09892-6.52252.97726-13.07443,1.72968-19.60504,2.6472l-7.1906.98233c.79414-9.38271,1.4214-16.79373,7.37785-33.44196l.01321-.01634c4.6217-11.06934,10.30582-19.70486,20.27338-30.80011l.06711-.06544c3.37056-3.12218,6.19695-6.77057,9.56705-9.89319l.08029-.06491c10.69402-8.34027,18.42059-14.36624,26.86624-5.82941,14.24538,15.75742,33.7923,27.87109,59.75777,37.03326,6.66856,2.08665,13.28287,4.34203,19.98135,6.3343l6.82109,1.99791c-16.27199,4.57611-32.68188,8.63982-48.8997,13.41339,11.65193,15.09192,26.71414,26.37787,51.989,38.9548l.058.03394c74.28046,39.68729,65.12767,86.8125,60.72905,109.4597l-.34183,1.69827c-30.66328,8.86795-45.28746,12.11772-56.588,14.4677l-7.474,1.49467" fill="#282466"/><path d="M104.28161,409.87563c9.71814-36.70354-8.7128-71.7379-26.75122-101.69507-19.41377-31.49664-27.44937-44.53351-34.21259-80.42964l-.6326-3.50276c-15.94992,14.21423-3.52095-48.99633-2.92121-51.075,3.61485-10.04596,4.49845-9.9561,6.14199-12.42576l.09146.06596c1.15677,4.3628,4.06139,9.88735,6.3221,16.30424,4.37756,12.42544,10.2135,27.87205,23.4125,42.43312,3.13661,3.40543,7.8105,6.93842,10.33657,9.54129-6.97263,1.67365-17.29772-2.80797-24.22152-2.83638l1.32965,2.81976-1.32965-2.81976-1.54123.00406c6.36575,23.21423,15.88976,41.21349,32.87321,62.1265,45.26991,57.42537,57.30019,88.12048,49.50922,126.32227-22.73482-2.60883-28.13661-3.22867-38.40669-4.83281" fill="#d6cee6"/><path d="M56.0437,270.47746c5.89408,12.32352,10.45648,19.75203,21.47906,37.6991,18.04955,29.93109,36.49113,64.94212,26.75885,101.69908,10.27084,1.60451,16.23097,2.28836,38.40669,4.83281,7.79936-38.24294-4.23103-68.93794-49.5097-126.32182-16.41313-20.2162-25.76938-37.60434-32.2942-60.0172l-.57852-2.10974,1.54123-.00406,1.32965,2.81976c-.39889-.84593-.93076-1.97383-1.32965-2.81976,6.09395.0663,8.15172.24332,21.54022,1.39507-2.90384-2.96405-4.32179-4.48506-7.63373-8.07619-15.27962-16.98289-16.9176-21.72536-29.66621-58.63638l-.08994-.12477q-1.48795,2.21919-5.35052,12.44838c-2.92888,10.17647-4.63301,20.95128-5.25009,48.69881,2.23532,1.51559,3.4626,2.08806,5.89934,2.28123l1.38904.00638c1.78905,9.90627,5.11913,28.34555,13.35849,46.22931M95.51559,413.2424c9.92929-30.81396,4.02182-58.1957-22.57499-104.63743-10.05826-17.2473-14.6489-25.11905-20.22723-37.77116l-.02454-.05673c-6.06709-14.97264-8.82249-26.76015-11.30177-40.92598-2.66037-.57452-3.69511-1.10387-6.39688-2.90306l-.79741-.6162c.09248-9.30055.17982-18.0853.87531-31.81039l.00179-.01312c.69411-11.33379,1.64491-18.39186,3.50821-26.04192l.01462-.04884c.77103-2.50133,1.33128-5.06578,2.25836-7.52023l.0204-.0452q2.47321-5.20294,3.56013-5.7867c.85159.48912,3.44304,1.97755,4.84494,7.05426,5.72484,21.53226,15.05249,38.93639,29.35472,54.77184,4.88525,5.07567,8.11263,8.42883,12.6964,12.67514l4.65613,4.21707c-9.49568-.60631-18.9623-1.63379-28.48146-1.8853-.23203,4.8264,6.59305,26.89784,30.61665,55.29955l.04095.05307c48.63721,59.31271,61.33978,91.2836,52.27596,131.57257l-.36324,1.56039c-28.04388-3.07541-37.47754-4.14499-49.26794-6.17311l-5.28911-.96851" fill="#282466"/><path d="M267.81702,429.3347l-.45038-.17944c-21.59074-24.71498-57.88083-42.93028-61.94775-44.92593l.00409-.00262c-.99973-.5038-4.04196-2.03691-11.70108-6.1503,12.04225-2.142,24.3044-2.74416,36.29959-5.21387l3.05928-.65541c-10.83362-17.18227-23.8866-30.13478-53.71808-53.30466-25.56348-21.15733-66.77296-65.35011-55.54932-123.61148,12.14218,1.7778,22.54378,2.69281,41.22122,3.62617-5.79955,18.28041-8.66112,55.21021,37.33423,97.15268,15.82988,13.51991,33.65417,24.45508,49.36703,38.12651,4.36403,3.79707,13.44485,11.69815,24.37787,26.0374l2.20235,2.89865q8.55876-2.33479,34.85686-7.92612c-5.94223,41.19678-33.51279,65.55498-45.0907,74.11537l-.26521.01305" fill="#d6cee6"/><path d="M227.43644,370.58644l2.58504,2.27609-2.58505-2.27608-4.4624.21001,4.4624-.21001M205.41889,384.22931c12.21918,6.19268,42.71606,22.96634,61.9482,44.92006l.17885.12524.27107.06009c1.56371-1.02834,38.37648-25.74095,45.35591-74.12842q-26.34151,5.60045-29.77423,6.53954l-5.08263,1.38658c-9.21944-12.13428-15.99376-19.60094-24.995-27.54942-16.14008-14.25235-34.58813-25.52643-50.9406-39.50488-46.00969-41.93645-43.14723-78.87486-37.34589-97.16093-18.67755-.93336-29.07915-1.84837-41.22122-3.62617-11.20964,58.18863,29.99104,102.42339,55.54802,123.61221,28.63847,22.2308,41.89769,35.21165,52.54584,51.4427l1.17354,1.86122c-9.76476,2.09193-19.48828,3.96564-39.65126,5.71193,6.133,3.29625,10.15721,5.39082,11.87828,6.25192l.11519.05573-.00409.00262M267.45222,434.02552c-2.01302-.24024-6.20175-.74011-8.94913-3.64392-12.78349-14.7424-30.60165-27.9397-57.77409-42.79129-4.2513-2.15436-8.18347-4.31889-18.69247-10.10381l-6.30402-3.51041c17.47906-1.14589,30.12704-2.11755,46.04491-5.06595-10.19691-14.98662-22.53084-27.11102-48.87891-48.04861l-.0432-.0334c-26.26642-22.26437-68.48334-68.75237-56.10907-129.94749l.32381-1.54349c13.25523,2.24739,24.46399,3.54991,52.31175,4.87381l6.86292.28761c-13.84576,34.01289-2.53973,67.62662,33.60402,99.90747q6.50713,5.47404,39.6837,29.50879l.05994.0369c15.35672,12.00555,22.85509,19.24789,33.43025,32.28886,11.02655-2.58167,22.20033-4.45479,33.23642-6.99117l7.46588-1.79219c-.8261,9.47488-1.47858,16.95871-7.6571,34.25861l-.01366.01768c-5.00423,11.92888-10.64813,20.70265-20.82411,32.37222l-.05586.07567c-3.4135,3.26227-6.27362,7.04622-9.70494,10.29169l-.08119.06772q-12.43016,9.95558-17.93584,9.48471" fill="#282466"/><path d="M508.98885,374.98003l-.16586-.05713c-8.85939-20.7513-27.08417-25.67563-30.64761-26.45207l.00258-.00395c-2.36905-.67838-4.72421-1.40376-7.08673-2.10419,5.11816-8.09938,14.68565-10.63753,21.21426-16.97414l1.57298-1.57849c-6.18248-15.6136-15.32834-25.3268-33.74515-35.83842-65.0031-40.48309-55.40517-86.99309-52.25117-102.27673,14.23671-3.38298,25.67374-6.88878,40.79216-12.50404-8.04114,32.53958,1.25069,60.8582,27.61737,84.16925q30.07231,24.81497,35.7014,42.33183l.72804,2.32298c6.71819-11.26537,7.61949-13.23965,8.98383-16.22813.46257,6.19215-1.22046,53.6942-12.61891,85.10844l-.0972.08481" fill="#d8d0e7"/><path d="M490.94859,327.90011l1.3569,1.48845-1.3569-1.48843-2.41391,1.58113,2.41391-1.58113M478.17539,348.47082c19.95039,6.15426,27.04602,18.04064,30.64777,26.44607l.0659.07663.09978-.01347c4.1881-10.6279,11.42851-35.87195,12.86505-85.53049-1.75462,3.90686-2.1895,4.65773-7.51353,13.85022l-1.61923,2.71515q-6.15826-19.64957-36.42233-44.6503c-26.37386-23.30417-35.66808-51.6243-27.62448-84.17377-15.11852,5.61526-26.55556,9.12106-40.79216,12.50404-3.14734,15.25146-12.72504,61.6635,52.24973,102.278,17.90816,10.20912,26.89268,19.51355,33.1499,34.33022l.59669,1.50694c-6.13553,6.15688-11.96257,11.12758-23.5907,18.31554,2.60927.7704,5.20549,1.58511,7.82494,2.32118l.06525.0201-.00258.00395M508.84891,379.76747c-1.49885.45829-2.39834.62949-3.45603-1.179-5.84532-12.54709-14.88425-20.09102-30.22392-25.22508-4.36342-1.20988-8.68059-2.57713-13.04668-3.77779l-4.81239-1.29898c11.22775-6.12531,20.60765-11.51093,30.56445-20.31995-6.48276-13.42241-15.36728-22.02831-32.78088-31.75284l-.03444-.01831c-70.69464-43.12543-59.33238-91.87497-55.59863-107.89456l.3963-1.68219c12.41286-2.66731,27.72537-6.30089,52.43765-15.70932l5.48851-2.1636c-4.47894,16.02594-14.96777,53.55574,23.20067,88.5251,6.8403,5.89972,14.26839,11.10043,20.7356,17.44366l.02606.01982c6.63934,7.58418,9.34608,13.53275,12.28462,22.51544,2.66577-1.67307,8.36661-14.34163,8.41605-14.46449l1.2663-3.48294c-.1416,9.54849-.27534,18.56741-1.35056,35.97931l-.00294.03938c-1.03206,14.3075-2.3513,24.7706-4.70532,37.31845l-.01836.09833c-.93353,4.23828-1.69313,8.51375-2.74539,12.72641l-.02043.07971q-3.77829,13.09082-6.02023,14.22343" fill="#282466"/></svg>