<?xml version="1.0" encoding="UTF-8"?><svg id="Layer_1" xmlns="http://www.w3.org/2000/svg" width="125.263504" height="662.535754" xmlns:xlink="http://www.w3.org/1999/xlink" viewBox="0 0 125.263504 662.535754"><defs><linearGradient id="linear-gradient" x1=".5" y1="331.267877" x2="124.763504" y2="331.267877" gradientUnits="userSpaceOnUse"><stop offset="0" stop-color="#fbbb76"/><stop offset=".159795" stop-color="#fccc98"/><stop offset=".322203" stop-color="#fdd9b3"/><stop offset=".465686" stop-color="#fee2c4"/><stop offset=".574024" stop-color="#ffe5ca"/><stop offset=".735265" stop-color="#fee3c7"/><stop offset=".814124" stop-color="#fee0c0"/><stop offset=".875083" stop-color="#fdd9b3"/><stop offset=".926877" stop-color="#fdd0a0"/><stop offset=".972383" stop-color="#fbc488"/><stop offset="1" stop-color="#fbbb76"/></linearGradient></defs><path d="M94.313731,660.467012c4.142175-.59168,6.463455-5.092383,4.544055-8.810508-1.985647-3.846445-3.971294-7.692891-5.956941-11.538984-2.686685-4.940859-4.094143-10.475859-4.094143-16.099805l.000024-45.318333c.000004-6.644876,3.418289-12.732228,8.895749-16.494116,15.996415-10.986246,27.061028-34.661043,27.061028-62.097161,0-26.366484-10.216802-49.255312-25.21437-60.753516-4.168828-3.189727-6.695991-8.071172-6.688828-13.327383l.108018-60.976758c0-19.497656,6.069595-38.361621,16.581621-54.777656,3.463198-5.414414,5.471982-11.843965,5.471982-18.748828V108.744863L64.009945,6.44c-3.94563-7.92-15.242432-7.92-19.188018,0l-.172793.352793c-.862425,1.760822.419448,3.816034,2.380129,3.816034l11.451043-.000004c.930615,0,1.834242.509244,2.184753,1.371326.384052.944575.119792,1.860912-.478357,2.459129-.410361.403242-.971982.655137-1.583965.655137h-16.447027c-1.005096,0-1.923859.568081-2.372992,1.467246l-.021951.043945c-.876121,1.753997.399402,3.816913,2.360038,3.816912l21.20197-.000008c1.056889,0,2.052149.671347,2.308312,1.696723.206125.825081-.068771,1.603308-.591548,2.133561-.410405.403242-.972026.655313-1.584009.655313h-26.190802c-1.006999,0-1.927711.56851-2.378792,1.468828l-.021489.042891c-.878065,1.75254.396186,3.816209,2.356388,3.816208l31.317894-.000022c.825372,0,1.611014.507362,1.833242,1.302255.189252.676943-.018799,1.362186-.465268,1.793805-.323965.331172-.784775.532793-1.281577.532793h-35.913058c-1.005073,0-1.914788.59507-2.317496,1.515937l-.051504.117773c-.763502,1.745891.515667,3.701426,2.421204,3.701425l40.173647-.000004c.959198,0,1.846257.690484,1.926622,1.64631.047215.561559-.158426,1.079827-.52982,1.442523-.331216.331172-.784775.532793-1.281577.532793H28.321259c-1.001103,0-1.91618.565934-2.363341,1.461621l-.028784.057656c-.875557,1.753788.39985,3.816035,2.360048,3.816035h49.271124c.776139,0,1.526867.442347,1.785875,1.173994.269502.76129.038867,1.450457-.425064,1.921865-.331172.331172-.784775.532793-1.281577.532793H23.847863c-1.000207,0-1.914389.56566-2.360754,1.460742l-.029191.058535c-.874794,1.754198.40099,3.816034,2.361213,3.816033l58.486082-.000023c.705475,0,1.405982.344382,1.724497.973861.38051.751998.191977,1.610469-.33499,2.114816-.331216.331348-.784775.532969-1.281577.532969H19.387406c-1.00139,0-1.916833.565775-2.364668,1.461445l-.028828.057656c-.876611,1.753221.398278,3.816035,2.358439,3.816034l67.362865-.000011c.850394,0,1.651222.537184,1.863919,1.36055.173065.669948-.043176,1.308115-.478016,1.735497-.324009.323965-.777612.532793-1.274414.532793H14.7906c-.968114,0-1.845499.569914-2.239078,1.454414l-.028784.064688c-.798385,1.794234.514895,3.816035,2.478742,3.816035l76.694252-.000003c.735592,0,1.457355.393164,1.737046,1.073509.310253.754688.111224,1.533758-.385264,2.015323-.324009.331172-.777568.532793-1.27437.532793H10.449575c-1.00078,0-1.915479.566007-2.362062,1.461621l-.028048.05625c-.875003,1.754804.401229,3.817265,2.362087,3.817265l85.855733-.000011c.850483,0,1.651187.53754,1.863609,1.361067.172812.669964-.043479,1.307713-.478157,1.73498-.331216.331172-.777612.532793-1.281621.532793H5.977487c-.997596,0-1.909464.563964-2.355037,1.456523l-.027729.055547c-.875477,1.753729.399892,3.815859,2.36,3.815859l94.177612.000002c.863909,0,1.680014.558434,1.865613,1.402171.150324.683377-.066174,1.277184-.490432,1.694038-.331172.331172-.784775.532617-1.281577.532617H3.174389c-1.627573,0-2.877622,1.441835-2.646876,3.052969l.006823.047637c.183662,1.282378,1.2821,2.234707,2.577563,2.234707l101.912903-.000012c.85038,0,1.651203.537161,1.863915,1.360508.173085.669962-.043156,1.308156-.478006,1.735364-.324009.324141-.784775.532969-1.281577.532969l-98.359189.00008c-1.150223,0-1.497477,1.541125-.471374,2.060862,1.42806.723333,3.066197,1.135817,4.834572,1.135817h6.391227c8.05646.000002,15.370765,5.355314,23.412992,4.876643,6.946039-.413426,61.484565.24245,61.484565.24245,1.634129,0,3.048906,1.347126,2.919476,2.976121-.054374.684348-.346599,1.298124-.809881,1.754336-.504009.503965-1.202388.813691-1.965586.813691h-60.264009c-2.170072,0-3.945586,1.775514-3.945586,3.945586v.007207c0,2.179087,1.766499,3.945586,3.945586,3.945586h56.7c1.605586,0,3.002388,1.31748,2.923198,2.908652-.035991.712969-.338423,1.353691-.813604,1.821797-.504009.503965-1.195181.813516-1.958379.813516h-56.851216c-1.087207,0-2.073604.439102-2.786396,1.159102-.678991.672361-1.108249,1.587811-1.154934,2.601727-.104473,2.268989,1.8832,4.130364,4.154594,4.130364l53.073944-.00002c1.605586,0,3.002388,1.317656,2.923198,2.908828-.035991.712793-.338423,1.353516-.813604,1.821621-.504009.503965-1.195225.820723-1.958423.820723h-53.438379c-1.087207,0-2.073604.446484-2.786396,1.159277-.679259.67246-1.108588,1.588514-1.154982,2.602776-.103759,2.268349,1.884184,4.12913,4.154905,4.129129l49.660888-.00002c1.634097,0,3.048829,1.347077,2.919471,2.976046-.054347.684378-.346577,1.298183-.809876,1.754412-.504009.503965-1.195225.813691-1.958423.813691h-50.025586c-2.170072,0-3.945586,1.775514-3.945586,3.945586v.007207c0,2.179087,1.766499,3.945586,3.945586,3.945586h46.461577c1.60563,0,3.002432,1.31748,2.923198,2.908652-.035991.712969-.338379,1.353691-.81356,1.821797-.504009.503965-1.195225.813516-1.958423.813516h-46.612793c-1.087207,0-2.073604.439102-2.786396,1.159102-.678991.672361-1.108249,1.587811-1.154934,2.601727-.104473,2.268989,1.883201,4.130364,4.154594,4.130363l42.835521-.00002c1.60563,0,3.002432,1.317656,2.923198,2.908828-.035991.712793-.338379,1.353516-.813604,1.821621-.503965.503965-1.195181.820723-1.958379.820723h-43.2c-1.087207,0-2.073604.446484-2.786396,1.159277-.679259.67246-1.108588,1.588514-1.154982,2.602776-.103759,2.26835,1.884184,4.12913,4.154905,4.129129l39.422465-.00002c1.634107,0,3.048836,1.347092,2.919469,2.97607-.05435.684368-.346538,1.298164-.809874,1.754388-.504009.503965-1.195181.813691-1.958379.813691l-19.242425,4.34145c-10.807594,2.438395-18.758193,11.644671-19.597061,22.692122l-4.893307,64.442288c0,8.17207,2.815181,15.681621,7.523965,21.621621,10.281621,12.952793,16.279233,28.778379,16.279233,45.309551l.100767,62.726484c.014414,7.66793-3.211172,15.019102-8.985586,20.059102-13.730405,12.002695-22.910405,33.876211-22.910405,58.867383,0,27.640437,11.226825,51.459674,27.411667,62.340301,5.341354,3.590846,8.631511,9.522479,8.631513,15.958645l.000018,47.396602c0,4.456406-1.082109,8.846016-3.153296,12.791602-12.785691,12.726211-12.710566,16.866562-11.779233,18.421875.855769,1.429102,3.582883,2.593477,5.184888,1.82918,1.459512-.696445,1.075715-2.560078,3.081511-4.040156.37749-.278437,2.054333-1.44,3.749106-1.014961,1.372368.34418,1.661836,1.454062,3.664512,3.972656,2.210977,2.780859,3.316487,4.170938,4.799993,4.266562,1.542437.099141,2.858357-1.190391,4.799993-3.093398,2.139741-2.09707,2.047083-2.948555,3.553923-3.584883,1.366589-.577266,3.512307-.750938,4.845081.272812.531189.408164.722878.812109,2.037415,2.028164.313154.289688.682097.605742,1.170813.986836,1.059126.82582,2.856863,1.771172,5.951514,1.82707Z" fill="url(#linear-gradient)" stroke="#5c3722" stroke-miterlimit="10"/><ellipse cx="76.480073" cy="494.681647" rx="19.625551" ry="34.922014" fill="#814a1f"/></svg>