<?xml version="1.0" encoding="UTF-8"?><svg id="Layer_1" xmlns="http://www.w3.org/2000/svg" width="398.46976" height="727.95448" viewBox="0 0 398.46976 727.95448"><path d="M160.01283,703.2577c-8.34257-1.71777-15.82252-5.42651-21.58602-10.915-12.62995-12.02666-15.73905-32.57591-7.23328-47.7998,1.07705-1.92837,3.51408-2.62203,5.4431-1.54087,1.92779,1.07743,2.61849,3.51435,1.54049,5.44252-6.66948,11.93733-4.13651,28.67489,5.76585,38.10445,8.61043,8.19841,22.75338,11.5841,36.91071,8.83741,14.21638-2.75746,26.79052-10.56014,37.21667-17.82848,1.15966-.80912,2.31622-1.62735,3.47297-2.44654,5.93999-4.20586,12.08198-8.55509,18.9622-11.7054,6.89453-3.15684,17.33563-6.25594,27.92479-3.1254,8.14108,2.41061,15.5082,8.23628,22.51957,17.80889,2.11547,2.88733,4.07148,5.89537,5.96322,8.80393,2.96002,4.55281,5.75667,8.85313,9.11547,12.74275,11.04327,12.78873,28.383,20.1633,45.26234,19.24184,2.1963-.12008,4.09074,1.56965,4.21172,3.7761.12012,2.20578-1.57032,4.0916-3.77668,4.2121-19.2904,1.05315-39.12361-7.37772-51.75319-22.00162-3.71279-4.30101-6.79035-9.03356-9.76652-13.60964-1.83184-2.81696-3.72662-5.73014-5.70952-8.43812-5.93911-8.10751-11.93713-12.97029-18.33789-14.86503-8.20597-2.43444-16.67371.14073-22.32327,2.72787-6.19883,2.83846-11.7701,6.78374-17.66922,10.96062-1.173.8303-2.34484,1.65985-3.52075,2.48008-10.46346,7.29456-24.49509,16.0599-40.26825,19.11947-7.72456,1.49834-15.34955,1.46228-22.3645.01787Z" fill="#c8c1df" stroke="#282566" stroke-miterlimit="10" stroke-width="2"/><path d="M131.60073,91.73164c-1.89941,0-3.58398-1.35791-3.93164-3.29346-1.21484-6.7627-6.0918-41.76953,17.2666-66.84912,8.90332-9.56006,19.37305-15.896,31.11816-18.83301,10.60449-2.65186,27.5-3.6123,47.79395,6.86084,15.92773,8.2207,22.54785,18.89355,27.86621,27.46973,4.875,7.85938,8.39648,13.5376,17.16406,15.9624,11.24121,3.11035,26.11523-3.19434,55.74805-15.75439,2.94141-1.24658,5.58008-2.42578,8.13281-3.56641,10.76172-4.80957,18.53711-8.28418,30.44043-8.4248,10.71094-.12988,21.51562,2.56396,32.09668,7.99658,1.96484,1.00928,2.74023,3.42041,1.73145,5.38574-1.00977,1.96582-3.41992,2.73926-5.38574,1.73145-9.40918-4.83203-18.92188-7.2251-28.34863-7.11475-10.24609.12109-17.01855,3.14795-27.27051,7.72949-2.58691,1.15625-5.26172,2.35156-8.27539,3.62842-31.34277,13.28467-47.07715,19.9502-61.00195,16.09961-11.78418-3.25977-16.66309-11.12744-21.8291-19.45654-5.0498-8.14209-10.77344-17.37061-24.7373-24.57715-14.51465-7.49121-28.70801-9.5791-42.18359-6.20947-10.2207,2.55566-19.37402,8.11523-27.20605,16.52441-20.76172,22.29297-16.34375,53.87744-15.24707,59.98291.39062,2.17432-1.05469,4.25342-3.22949,4.64404-.23926.04297-.47754.06348-.71191.06348Z" fill="#c8c1df" stroke="#282566" stroke-miterlimit="10" stroke-width="2"/><path d="M136.78472,507.0955c.88274-45.09125,13.89317-87.74953,32.99093-128.69188,11.82071-27.56124,22.35779-82.41739,26.56812-106.12246,1.60309-9.02572,2.67836-18.13393,3.12244-27.29015,3.03664-62.61029-12.64339-122.50552-38.35386-178.5248-26.92322,2.26726-53.03866,1.9807-79.95866,2.75923,41.57524,75.12988,52.7954,164.70169,25.63472,247.06854-8.76757,26.44106-20.57881,52.02416-30.34527,78.51219-3.28545,9.90819-6.00984,19.79-8.57388,30.0857-1.79402,7.20373-3.26362,14.49393-4.39414,21.8311-2.16744,14.06679-3.72915,27.74369-4.63887,42.01401-17.26309-5.19478-35.33717-6.34699-53.50521-9.497,9.21256,25.59548,20.32895,49.09922,32.44425,72.55598,14.25401,26.3595,30.36489,49.62835,50.51833,73.7082,7.36808,7.66233,12.73838,15.41862,20.10646,23.08095,5.94123,5.40752,11.10527,11.25042,16.71259,16.71609,4.09218,3.98881,10.97577,1.49778,11.6022-4.18237,3.55332-32.21972,13.75438-62.29644,29.43342-91.81775,2.20288-4.1477,4.69238-8.1333,7.35539-12.00169,3.46774-5.03737,8.38724-12.56976,9.06455-13.31392.95192-1.04587,13.18594-17.6389,18.85048-24.91303-22.16362-2.9621-43.32834-5.97118-64.63399-11.97694h0Z" fill="#c8c1df" stroke="#282566" stroke-miterlimit="10" stroke-width="7"/></svg>