<?xml version="1.0" encoding="UTF-8"?><svg id="Dimensions" xmlns="http://www.w3.org/2000/svg" width="251.999939" height="188.910034" viewBox="0 0 251.999939 188.910034"><path d="M250.648929,61.809998v52.150024c0-9.450012-4.52002-18.400024-12.580078-26.360046.26001-.25.51001-.51001.76001-.769958v-.01001c.76001-.77002,1.47998-1.540039,2.160034-2.330017v-.01001c.469971-.519958.910034-1.049988,1.329956-1.579956.219971-.27002.430054-.540039.630005-.810059.630005-.809998,1.210083-1.619995,1.75-2.439941.369995-.550049.720093-1.100037,1.050049-1.650024.329956-.559998.650024-1.119995.949951-1.679993.300049-.559998.579956-1.119995.849976-1.690002.290039-.609985.560059-1.220032.800049-1.830017.25-.609985.47998-1.219971.679932-1.839966.140137-.410034.27002-.820007.390137-1.240051.129883-.419983.23999-.829956.339844-1.25.110107-.419983.200073-.839966.280029-1.259949.180054-.840027.320068-1.680054.410034-2.530029.01001-.02002.01001-.049988.01001-.070007.030029-.25.059937-.5.079956-.75,0-.02002.01001-.049988,0-.080017.060059-.579956.090088-1.179993.100098-1.769958.01001-.070007.01001-.130005.01001-.200012Z" fill="#fefad8" opacity=".7"/><path d="M13.583344,89.022742c-7.77002,7.670044-12.26001,16.26001-12.569946,25.340027l-.01001-51.119995c.01001.22998.02002.460022.030029.690002.009888.48999.049927.97998.099854,1.469971.070068.850037.190063,1.680054.340088,2.52002.050049.309998.109985.619995.189941.929993.070068.410034.170044.830017.290039,1.23999.02002.110046.050049.210022.080078.309998.299927,1.170044.679932,2.340027,1.139893,3.490051.150024.399963.320068.809998.5,1.209961.02002.059998.050049.119995.080078.190002.159912.369995.329956.72998.51001,1.090027.389893.829956.829956,1.649963,1.299927,2.459961.180054.320007.359985.630005.559937.940002.040039.070007.090088.150024.130127.220032.01001.019958.02002.029968.030029.049988.48999.789978,1.019897,1.570007,1.569824,2.340027.25.339966.5.679993.76001,1.019958.52002.679993,1.060059,1.359985,1.630127,2.030029.280029.329956.569946.659973.869873.98999.590088.669983,1.210083,1.320007,1.850098,1.969971.199951.210022.409912.420044.619995.619995Z" fill="#fefad8" opacity=".7"/><path d="M251.003387,62.442786c0,4.600037-1.070068,9.090027-3.100098,13.400024-2.139893,4.539978-5.349976,8.880005-9.48999,12.959961-20.290039-20.049988-63-33.859985-112.409912-33.859985-49.400024,0-92.120117,13.809998-112.410034,33.859985-.210083-.199951-.420044-.409973-.619995-.619995-.640015-.649963-1.26001-1.299988-1.850098-1.969971-.299927-.330017-.589844-.660034-.869873-.98999-.570068-.670044-1.110107-1.350037-1.630127-2.030029-.26001-.339966-.51001-.679993-.76001-1.019958-4.439941-6.190002-6.849854-12.820007-6.849854-19.730042v.580017c-.01001-.190002-.01001-.390015-.01001-.580017C1.003387,29.182777,56.973358,2.212806,126.003387,2.212806c69.040039,0,125,26.969971,125,60.22998Z" fill="#f4ecdd" opacity=".8"/><path d="M250.999939,113.960052c0,12.279968-7.629883,23.700012-20.71991,33.22998-22.380005,16.27002-60.72998,27-104.280029,27s-81.899963-10.72998-104.279968-27C8.630005,137.660065,1,126.240021,1,113.960052c0-33.26001,55.970032-60.230042,125-60.230042,69.040039,0,124.999939,26.970032,124.999939,60.230042Z" fill="#e9d3b8" opacity=".85"/><path d="M251.003387,113.960022v13.720032c0,33.26001-55.959961,60.22998-125,60.22998C56.973358,187.910034,1.003387,160.940063,1.003387,127.680054v-13.720032c0,12.280029,7.630005,23.700012,20.719971,33.230042,22.380005,16.269958,60.72998,27,104.280029,27s81.899902-10.730042,104.280029-27c13.089966-9.530029,20.719971-20.950012,20.719971-33.230042Z" fill="#e9d3b8" opacity=".85"/><path d="M230.280029,94.460022c-22.380005,16.27002-60.72998,27-104.280029,27s-81.899963-10.72998-104.279968-27c22.380005-16.279968,60.72998-27.01001,104.279968-27.01001s81.900024,10.730042,104.280029,27.01001Z" fill="none" opacity=".25" stroke="#bdac97" stroke-miterlimit="10" stroke-width="2"/><path d="M1.003387,61.015578c0,12.279968,7.630127,23.699951,20.719971,33.22998,22.380127,16.27002,60.72998,27,104.280029,27s81.900024-10.72998,104.280029-27c13.090088-9.530029,20.719971-20.950012,20.719971-33.22998v53.309998c-.22998,12.059998-7.829956,23.269958-20.709961,32.649963-22.380005,16.27002-60.72998,27-104.280029,27s-81.899902-10.72998-104.280029-27C8.643402,137.44557,1.013397,126.025526,1.013397,113.745558l-.01001-52.72998Z" fill="#fff" opacity=".5"/><path d="M250.999939,61.230042v66.450012c0,33.259949-55.9599,60.22998-124.999939,60.22998C56.970032,187.910034,1,160.940002,1,127.680054V61.230042c0,12.279968,7.630005,23.700012,20.720032,33.22998,22.380005,16.27002,60.72998,27,104.279968,27s81.900024-10.72998,104.280029-27c13.090027-9.529968,20.71991-20.950012,20.71991-33.22998Z" fill="none" stroke="#bdac97" stroke-miterlimit="10" stroke-width="2"/><path d="M250.999939,61.230042c0,12.279968-7.629883,23.700012-20.71991,33.22998-22.380005,16.27002-60.72998,27-104.280029,27s-81.899963-10.72998-104.279968-27C8.630005,84.930054,1,73.51001,1,61.230042,1,27.970032,56.970032,1,126,1c69.040039,0,124.999939,26.970032,124.999939,60.230042Z" fill="none" stroke="#bdac97" stroke-miterlimit="10" stroke-width="2"/></svg>