<?xml version="1.0" encoding="UTF-8"?><svg id="Layer_1" xmlns="http://www.w3.org/2000/svg" width="486.38096" height="349.82324" viewBox="0 0 486.38096 349.82324"><line x1="319.66512" y1="139.52578" x2="319.66509" y2="46.36754" fill="none" stroke="#231f20" stroke-linecap="round" stroke-miterlimit="10" stroke-width="4"/><polygon points="235.87803 279.37769 240.62339 186.21936 244.62339 186.21936 249.36875 279.37769 235.87803 279.37769 235.87803 279.37769" fill="#231f20"/><line x1="327.36882" y1="139.52578" x2="327.3688" y2="46.36754" fill="none" stroke="#231f20" stroke-linecap="round" stroke-miterlimit="10" stroke-width="4"/><polyline points="404.00145 186.69107 324.00145 138.95786 323.31245 138.95786 243.31245 186.69107 242.62346 186.69107 162.62346 138.95786 162.57821 138.95786 82.57821 186.69107 81.02478 186.69107 1.02478 138.95786 82.06291 187.30575 82.06294 280.46399" fill="none" stroke="#231f20" stroke-linecap="round" stroke-miterlimit="10" stroke-width="4"/><text transform="translate(411.70931 205.05298)" fill="#231f20" font-family="TimesNewRomanPS-BoldMT, &apos;Times New Roman&apos;" font-size="48" font-weight="700"><tspan x="0" y="0">OH</tspan></text><text transform="translate(308.90908 39.89062)" fill="#231f20" font-family="TimesNewRomanPS-BoldMT, &apos;Times New Roman&apos;" font-size="48" font-weight="700"><tspan x="0" y="0">O</tspan></text><text transform="translate(224.90908 318.11292)" fill="#231f20" font-family="TimesNewRomanPS-BoldMT, &apos;Times New Roman&apos;" font-size="48" font-weight="700"><tspan x="0" y="0">NH</tspan></text><text transform="translate(296.90908 334.0968) scale(.583)" fill="#231f20" font-family="TimesNewRomanPS-BoldMT, &apos;Times New Roman&apos;" font-size="48" font-weight="700"><tspan x="0" y="0">2</tspan></text></svg>