<?xml version="1.0" encoding="UTF-8"?><svg xmlns="http://www.w3.org/2000/svg" width="269.090801" height="648.733017" xmlns:xlink="http://www.w3.org/1999/xlink" viewBox="0 0 269.090801 648.733017"><defs><radialGradient id="b" cx="120.636277" cy="361.383676" fx="120.636277" fy="361.383676" r="12.947582" gradientTransform="translate(286.228432 696.505251) rotate(171.654188) skewX(-1.009268)" gradientUnits="userSpaceOnUse"><stop offset="0" stop-color="#f6efe7"/><stop offset="1" stop-color="#d8c8b6"/></radialGradient><radialGradient id="c" cx="131.23493" cy="359.880373" fx="131.23493" fy="359.880373" r="12.900643" gradientTransform="translate(224.894619 -21.189912) rotate(171.654188) scale(1.001295 -.998707) skewX(1.009268)" xlink:href="#b"/><linearGradient id="d" x1="117.241564" y1="563.764484" x2="128.730383" y2="563.764484" gradientUnits="userSpaceOnUse"><stop offset="0" stop-color="#fff0e0"/><stop offset=".297758" stop-color="#f8e7d4" stop-opacity=".949795"/><stop offset=".908684" stop-color="#e8d0b5" stop-opacity=".820699"/><stop offset="1" stop-color="#e6cdb1" stop-opacity=".8"/></linearGradient><linearGradient id="e" x1="-358.519097" y1="560.730206" x2="-347.064907" y2="560.730206" gradientTransform="translate(-215.106207) rotate(-180) scale(1 -1)" gradientUnits="userSpaceOnUse"><stop offset="0" stop-color="#fff0e0"/><stop offset=".3237" stop-color="#f7e6d2" stop-opacity=".943767"/><stop offset="1" stop-color="#e6cdb1" stop-opacity=".8"/></linearGradient><radialGradient id="f" cx="132.113175" cy="442.734644" fx="132.113175" fy="442.734644" r="81.019151" gradientUnits="userSpaceOnUse"><stop offset="0" stop-color="#fff0e0"/><stop offset=".285003" stop-color="#fcecdb"/><stop offset=".586732" stop-color="#f5e3cf"/><stop offset=".895089" stop-color="#ead3b9"/><stop offset="1" stop-color="#e6cdb1"/></radialGradient><radialGradient id="g" cx="131.446933" cy="49.193028" fx="131.446933" fy="49.193028" r="33.813171" xlink:href="#f"/><radialGradient id="h" cx="164.861911" cy="345.853444" fx="164.861911" fy="345.853444" r="12.723756" gradientTransform="translate(-59.557764 51.616885) rotate(-6.977279)" xlink:href="#b"/><radialGradient id="i" cx="1146.003493" cy="330.739125" fx="1146.003493" fy="330.739125" r="12.723744" gradientTransform="translate(1261.736646 47.65832) rotate(-179.920711) scale(1.000001 -1.000001)" xlink:href="#b"/><radialGradient id="j" cx="132.111115" cy="246.139371" fx="132.111115" fy="246.139371" r="147.380463" xlink:href="#f"/></defs><g isolation="isolate"><g id="a"><path d="M269.090801,0c-.000977,0-.000977.000977-.000977.000977,0,0,0-.000977.000977-.000977Z" fill="#835824"/><path d="M184.59175,120.815423c-8.271002-6.363007-18.072015-7.676971-26.73902-5.24696.161993-.278998.306024-.567004.41402-.873029,2.06098-5.688007,3.22196-12.140991,3.22196-18.972015,0-18.125958-8.17196-33.551971-19.583954-39.267004-4.329053-2.168976-9.810022.441046-9.810022,4.68902,0-4.247974-5.481024-6.857996-9.810022-4.68902-11.411993,5.715033-19.592963,21.141046-19.592963,39.267004,0,6.732037,1.125,13.095044,3.131982,18.720044-6.642004-.234009-13.509009,1.718976-19.556982,6.37196-40.626013,31.284009-68.841046,100.125-68.841046,180.027026,0,29.62804,3.879053,57.726013,10.836035,82.95304,5.786993,21.032886,31.301971,29.186938,48.384009,15.623877l-12.321002,9.783105c-12.555011,9.962952-15.3,27.953943-6.236993,41.165991,20.708954,30.177026,47.753998,48.455969,77.336993,48.455969,29.592004,0,56.627985-18.278943,77.336993-48.464978,9.072015-13.211938,6.318018-31.20304-6.227985-41.156982l-12.141046-9.638965c17.082037,13.355859,42.426013,5.175,48.203998-15.768018,6.948029-25.227026,10.827026-53.325,10.827026-82.95304,0-79.902026-28.214978-148.743018-68.831982-180.027026Z" fill="#b2936e"/><path d="M130.637682,363.332792c0,4.891772-.027354,8.857336-9.333333,8.857336-5.154658,0-10.955741-4.156234-10.955741-9.048005s9.622646-23.295482,14.777303-23.295482c7.695546,0,5.511771,18.59438,5.511771,23.486151Z" fill="url(#b)" stroke="#6b6456" stroke-miterlimit="10" stroke-width=".25"/><path d="M130.637682,361.720069c0,4.891772-.334743,9.163608,9.333333,8.857336,5.152073-.163211,10.955741-4.156234,10.955741-9.048005s-6.01028-23.295482-11.164937-23.295482c-10.126227,0-9.124137,18.59438-9.124137,23.486151Z" fill="url(#c)" stroke="#6b6456" stroke-miterlimit="10" stroke-width=".25"/><path d="M130.437575,646.728929l-.180901-167.922223-59.822894,8.150512c5.173883,4.743798,8.413168,9.841522,12.459783,15.577164,15.235923,21.595288,19.18498,45.626585,19.18498,71.958777,0,27.851852-.50737,47.703242.199091,74.229104l28.159941-1.993334Z" fill="url(#d)"/><path d="M130.256653,646.728985v-171.997559l59.822937,9.565796c-5.173889,4.743774-6.457787,7.897274-10.320496,13.758423-17.423272,26.437514-17.672558,43.70009-16.921448,69.659736.755504,26.111513-.727844,49.791192-.103394,76.116021l-32.4776,2.897583Z" fill="url(#e)"/><path d="M70.43378,484.980848c3.786026,3.991089,9.13623,10.174194,14.362381,18.488892,10.543412,16.774194,16.734223,32.957127,17.21898,49.707314.32764,11.321185-.898122,64.870191-.568208,95.545209" fill="none" stroke="#baa389" stroke-miterlimit="10" stroke-width="2"/><path d="M193.792603,481.378155c-3.786072,3.991089-9.13623,10.174194-14.362427,18.488892-8.970276,14.271484-15.772217,27.997192-16.017517,42.295654-.575012,33.515625-.217285,70.51709-.678406,101.668701" fill="none" stroke="#baa389" stroke-miterlimit="10" stroke-width="2"/><path d="M211.116061,411.637501c13.944358,11.067855,17.000813,31.056004,6.928751,45.73579-23.012191,33.539707-53.058406,53.844342-85.93678,53.844342-32.869584,0-62.913544-20.303663-85.925167-53.836819-10.072905-14.678508-7.018074-34.666286,6.924632-45.735295l22.114085-17.556204c33.314221-26.447907,80.460708-26.450464,113.777797-.006169l22.116682,17.554356Z" fill="url(#f)" stroke="#baa389" stroke-miterlimit="10" stroke-width="2"/><path d="M131.446926,67.967855c0,1.854499-1.002811,3.607544-2.72325,4.760595l-15.015598,10.063572c-3.957013,2.652021-9.869274,1.13745-11.346331-2.941552-2.289263-6.321967-3.58148-13.487465-3.58148-21.08113,0-20.14115,9.085493-37.276588,21.768072-43.632368,4.809729-2.41036,10.898587.494271,10.898587,5.216342v47.614541ZM131.446926,20.35331v47.614361c0,1.854603,1.002924,3.607735,2.723526,4.76078l15.015954,10.062798c3.957089,2.651805,9.869146,1.137109,11.34609-2.941834,2.289027-6.321708,3.581105-13.486828,3.581105-21.080075,0-20.141155-9.085498-37.276597-21.768089-43.632373-4.80973-2.410357-10.898585.494272-10.898585,5.216343Z" fill="url(#g)" stroke="#baa389" stroke-miterlimit="10" stroke-width="2"/><path d="M161.403776,371.189857c1.589484,10.630316-6.64445,11.578914-14.867372,12.585252s-15.24308-3.110375-15.766241-5.346601c-.55673-2.379717,6.213732-6.749043,14.011591-8.990873,8.003747-2.301021,14.79751-10.449934,16.622021,1.752222Z" fill="url(#h)" stroke="#6b6456" stroke-miterlimit="10" stroke-width=".275769"/><path d="M99.635056,374.984251c-.301256,10.744269,7.987006,10.697089,16.271269,10.708554s14.759182-4.918585,15.00998-7.201457c.266891-2.429356-6.979327-5.953909-14.989991-7.242973-8.222169-1.323099-15.945457-8.597082-16.291258,3.735877Z" fill="url(#i)" stroke="#6b6456" stroke-miterlimit="10" stroke-width=".275769"/><path d="M132.111084,332.539569c0,10.35537-4.727409,20.144228-12.837824,26.582772l-52.468831,41.65297c-18.980842,15.068155-47.330752,6.003868-53.768607-17.360115-7.724596-28.03377-12.035822-59.256154-12.035822-92.170585,0-88.780638,31.348136-165.277117,76.486458-200.031371,22.306229-17.174683,54.624626-1.230343,54.624626,26.921701v214.404628ZM132.111084,118.134912v214.403631c0,10.355953,4.727939,20.145297,12.839127,26.583806l52.470042,41.649739c18.98119,15.066914,47.330082,6.001969,53.767438-17.361634,7.723785-28.032544,12.034539-59.25325,12.034539-92.165844,0-88.780667-31.348156-165.277167-76.486526-200.031405-22.306239-17.174664-54.624619-1.230333-54.624619,26.921707Z" fill="url(#j)" stroke="#baa389" stroke-miterlimit="10" stroke-width="2"/><path d="M113.724243,206.682134c-.000005,34.118925.255686,61.777777-8.827291,61.777776-9.082976-.000001-7.618897-30.177372-7.618892-64.296297.000005-34.118925-.364766-59.25926,8.71821-59.259259s7.727978,27.658855,7.727972,61.77778Z" fill="#fff0e1" mix-blend-mode="screen" opacity=".35"/><path d="M150.546975,208.863532c.000005,34.118925-.256049,61.777777,8.826927,61.777776s7.619261-30.177372,7.619256-64.296297c-.000005-34.118925,1.464084-59.25926-7.618892-59.259259s-8.827296,27.658855-8.827291,61.77778Z" fill="#fff0e1" mix-blend-mode="soft-light" opacity=".56"/></g></g></svg>