<?xml version="1.0" encoding="UTF-8"?><svg id="Layer_1" xmlns="http://www.w3.org/2000/svg" width="287.290972" height="276.949582" xmlns:xlink="http://www.w3.org/1999/xlink" viewBox="0 0 287.290972 276.949582"><defs><linearGradient id="linear-gradient" x1="140.547859" y1="237.705209" x2="141.373234" y2=".756695" gradientUnits="userSpaceOnUse"><stop offset="0" stop-color="#5c4863"/><stop offset=".18469" stop-color="#785f82"/><stop offset=".353538" stop-color="#9575a1"/><stop offset=".529797" stop-color="#aa87ba"/><stop offset=".967015" stop-color="#dbaded"/></linearGradient></defs><path d="M259.730078,36.47998l-3.130127,43.52002h-48.879883l-5.47998,138.73999-.409912,10.199951-1.430176,36.290039c-6.379883-.929932-15.169922-8.349854-26.51001-14.389893-8.929932-4.75-19.449951-8.650146-31.609863-7.850098-9.73999.640137-16.290039,3.060059-21.75,6.25-1.52002.890137-2.959961,1.840088-4.360107,2.830078-7.51001,5.310059-13.899902,11.72998-26.23999,15.909912l-.060059-1.380127-2.199951-49.989746-.030029-.740234-5.97998-135.869873H26.570166l-3.650146-45.389893-.139893-1.75c.919922-.72998,1.859985-1.450195,2.829956-2.140137,2.030029-1.48999,4.160034-2.889893,6.380005-4.219971.51001-.320068,1.030029-.630127,1.550049-.919922.219971-.140137.449951-.27002.669922-.390137C68.800146,5.449951,122.820166.5,149.750097.5c45.550049,0,75.27002,13.72998,104.280029,32.27002,1.899902,1.219971,3.800049,2.449951,5.699951,3.709961Z" fill="url(#linear-gradient)" stroke="#3d184a" stroke-miterlimit="10"/><path d="M246.784456,32.58533c-5.143608.624782-10.339661,2.501212-15.246223,5.689861l-.196258.126061c-9.116086,5.936026-16.98834,12.315167-23.768707,19.071638-1.262755,1.25817-2.495302,2.525936-3.686934,3.822273.74225-.93284-1.192335.275879,2.549783-6.379402,2.345939-4.172221,4.191562-7.00874,6.111047-9.331509,2.841937-3.439028,6.430248-6.185514,10.401074-8.219244l.205787-.105397c6.956179-3.562732,14.676134-5.332024,22.491137-5.24708l.171656.001713c.325922.190261.641839.380821.967639.571086Z" fill="#866991" opacity=".54"/><path d="M167.221447,14.160439c.122326,2.697286-15.560923,1.705758-34.609703,2.569666-19.04878.863908-35.281408,4.683176-35.403734,1.985889-.122326-2.697286,16.062944-7.560776,35.111725-8.424685,19.04878-.863908,34.779386,1.171843,34.901712,3.869129Z" fill="#f8effc" opacity=".32"/><path d="M4.632273,52.297823c2.830078-6.942167,7.219971-12.335107,12.52002-15.967328,6.070068-4.185393,13.320068-6.06672,20.75-5.382624,5.160156.472849,10.410156,2.203356,15.410156,5.262016l.199951.120607c9.289795,5.694827,17.349854,11.872329,24.329834,18.462499,34.790039,32.789715,42.920166,75.781434,44.360107,120.835759.01001.271674,3.449951,27.426988,1.01001,50.537659-.23999,2.304066-.540039,4.608133-.899902,6.881741-.940186,6.047069-2.310059,11.932755-4.27002,17.305553-2.280029,6.298109-5.360107,11.872083-9.459961,16.138291-17.75,18.452183-59.050049,9.698941-60.930176-13.452015-.01001-.170963-.02002-.342171-.030029-.503063l1.530029-36.27087c.280029-6.499531-.119873-13.713371-1.100098-21.360023-4.079834-31.843771-18.329834-71.002338-36.5-95.662236-.179932-.251531-.369873-.503063-.559814-.754594-5.26001-7.123446-8.340088-14.820453-9.400146-22.56757-1.089844-8.01879-.029785-16.087935,3.040039-23.623805Z" fill="#ddaef0"/><path d="M283.334269,52.812085c-2.830078-6.899902-7.219971-12.26001-12.52002-15.870117-6.070068-4.159912-13.320068-6.029785-20.75-5.349854-5.160156.469971-10.410156,2.189941-15.410156,5.22998l-.199951.119873c-9.289795,5.660156-17.349854,11.800049-24.329834,18.350098-34.790039,32.590088-42.920166,75.320068-44.360107,120.100098-.01001.27002-3.449951,27.26001-1.01001,50.22998.23999,2.290039.540039,4.580078.899902,6.839844.940186,6.010254,2.310059,11.860107,4.27002,17.200195,2.280029,6.259766,5.360107,11.799805,9.459961,16.040039,17.75,18.339844,59.050049,9.639893,60.930176-13.370117.01001-.169922.02002-.340088.030029-.5l-1.530029-36.050049c-.280029-6.459961.119873-13.629883,1.100098-21.22998,4.079834-31.649902,18.329834-70.570068,36.5-95.079834.179932-.25.369873-.5.559814-.75,5.26001-7.080078,8.340088-14.730225,9.400146-22.430176,1.089844-7.969971.029785-15.98999-3.040039-23.47998Z" fill="#ddaef0"/><path d="M78.420426,55.556488c-8.791766-7.910767-29.967277-20.546077-30.040286-20.580462-8.016077-4.070107-16.412959-5.705661-23.889955-3.850122.208246-.156814,1.281233-.920655,1.491059-1.057511,2.71327-1.839706,10.482082-2.497622,13.520305-2.389113.614583.02195,1.313062.082327,2.065004.171268,10.273571,1.215175,19.716012,6.17258,26.864549,13.650635,6.643239,6.949465,9.989323,14.055305,9.989323,14.055305Z" fill="#866991" opacity=".54"/><path d="M165.504907,230.453665c.439941,3.069824.98999,6.099854,1.669922,9.059814,1.360107,6,3.25,11.670166,5.810059,16.630127,1.809814,3.540039,3.97998,6.709961,6.539795,9.369873,6.280273,6.52002,15.52002,9.650146,24.930176,9.949951.02002.010254.040039.010254.060059,0,2.669922.090088,5.359863-.059814,7.98999-.419922-.48999-.069824-.980225-.149902-1.469971-.23999-4.170166-.73999-8.170166-2.099854-11.75-4.130127-2.470215-1.389893-4.740234-3.109863-6.720215-5.159912-6.75-7.01001-10.73999-17.579834-13-29.050049-.549805-2.77002-.98999-5.589844-1.349854-8.429932-3.040039-24.070068.139893-49.26001.609863-52.77002.040039-.280029.060059-.550049.070068-.829834,1.27002-39.380127,7.640137-77.190186,32.399902-108.040039,9.350098-11.650146,34.209017-33.209091,39.757286-35.203602-1.599854-.330078-9.908774.959909-15.368857,4.289987-.069946.040039-21.432987,14.488419-29.513065,22.938371-30.829834,32.22998-38.925169,73.035303-40.315306,116.015284,0,.279785-.030029.549805-.060059.829834-.489746,3.630127-3.869873,30.409912-.289795,55.190186Z" fill="#866991" opacity=".54"/><path d="M122.801929,181.629717c-.474376-4.6379-.77918-9.290202-1.015876-13.946287-2.61192-51.379571-15.502209-99.438526-68.715864-132.016241-.071144-.043558-.142321-.087082-.213532-.130574-19.31871-11.798762-42.130024-3.433282-49.763384,18.466105-4.981035,14.290119-2.913106,30.247062,7.286688,44.034161.186508.252104.37317.504624.559967.757555,22.647995,30.666291,39.231495,83.677211,37.810969,117.339351l-1.534045,36.352196c.012085.167883.024942.33543.038593.502934,1.886673,23.203806,43.364525,31.97091,61.181385,13.48401,19.114784-19.834369,16.076667-68.109477,14.3651-84.84321Z" fill="none"/><path d="M122.461,231.118222c-.439941,3.069824-.98999,6.099854-1.669922,9.059814-1.360107,6-3.25,11.670166-5.810059,16.630127-1.809814,3.540039-3.97998,6.709961-6.539795,9.369873-6.280273,6.52002-15.52002,9.650146-24.930176,9.949951-.02002.010254-.040039.010254-.060059,0-2.669922.090088-5.359863-.059814-7.98999-.419922.48999-.069824.980225-.149902,1.469971-.23999,4.170166-.73999,8.170166-2.099854,11.75-4.130127,2.470215-1.389893,4.740234-3.109863,6.720215-5.159912,6.75-7.01001,10.73999-17.579834,13-29.050049.549805-2.77002.98999-5.589844,1.349854-8.429932,3.040039-24.070068-.139893-49.26001-.609863-52.77002-.040039-.280029-.060059-.550049-.070068-.829834-1.27002-39.380127-7.640137-77.190186-32.399902-108.040039-8.963997-11.169068-20.335966-21.427995-34.759355-30.512818-1.271235-.80071-2.602581-1.499034-3.97282-2.115168-3.127227-1.406171-8.658414-3.88023-8.672819-3.88023.030029-.01001,15.111746-1.067776,23.59108,5.12286.899099.656418,21.503855,14.645365,29.583933,23.095317,30.829834,32.22998,38.279785,73.350098,39.669922,116.330078,0,.279785.030029.549805.060059.829834.489746,3.630127,3.869873,30.409912.289795,55.190186Z" fill="#866991" opacity=".54"/><path d="M283.334269,52.812085c-2.830078-6.899902-7.219971-12.26001-12.52002-15.870117-6.070068-4.159912-13.320068-6.029785-20.75-5.349854-5.160156.469971-10.410156,2.189941-15.410156,5.22998l-.199951.119873c-9.289795,5.660156-17.349854,11.800049-24.329834,18.350098-34.790039,32.590088-42.920166,75.320068-44.360107,120.100098-.01001.27002-3.449951,27.26001-1.01001,50.22998.23999,2.290039.540039,4.580078.899902,6.839844.940186,6.010254,2.310059,11.860107,4.27002,17.200195,2.280029,6.259766,5.360107,11.799805,9.459961,16.040039,17.75,18.339844,59.050049,9.639893,60.930176-13.370117.01001-.169922.02002-.340088.030029-.5l-1.530029-36.050049c-.280029-6.459961.119873-13.629883,1.100098-21.22998,4.079834-31.649902,18.329834-70.570068,36.5-95.079834.179932-.25.369873-.5.559814-.75,5.26001-7.080078,8.340088-14.730225,9.400146-22.430176,1.089844-7.969971.029785-15.98999-3.040039-23.47998Z" fill="none" stroke="#3d184a" stroke-miterlimit="10"/><path d="M122.802564,181.629717c-.474376-4.6379-.77918-9.290202-1.015876-13.946287-2.61192-51.379571-15.502209-99.438526-68.715864-132.016241-.071144-.043558-.142321-.087082-.213532-.130574-19.31871-11.798762-42.130024-3.433282-49.763384,18.466105-4.981035,14.290119-2.913106,30.247062,7.286688,44.034161.186508.252104.37317.504624.559967.757555,22.647995,30.666291,39.231495,83.677211,37.810969,117.339351l-1.534045,36.352196c.012085.167883.024942.33543.038593.502934,1.886673,23.203806,43.364525,31.97091,61.181385,13.48401,19.114784-19.834369,16.076667-68.109477,14.3651-84.84321Z" fill="none" stroke="#3d184a" stroke-miterlimit="10"/><path d="M236.059984,249.677992c-1.549935-2.156281-4.927028,4.430853-11.721434,9.314678-6.794405,4.883824-14.43322,6.214934-12.883285,8.371215,1.549935,2.156281,9.139458,1.949539,15.933864-2.934285,6.794405-4.883824,10.22079-12.595326,8.670854-14.751608Z" fill="#f8effc" opacity=".32"/><path d="M52.492671,244.073987c2.113635-1.607605,3.412792,5.67987,8.478326,12.339903,5.065535,6.660033,11.979233,10.170606,9.865597,11.778211-2.113635,1.607605-9.309599-.813491-14.375134-7.473525-5.065535-6.660033-6.082425-15.036984-3.96879-16.644589Z" fill="#f8effc" opacity=".32"/><path d="M283.104049,53.662484c-2.830078-6.899902-7.219971-12.26001-12.52002-15.870117-6.070068-4.159912-13.320068-6.029785-20.75-5.349854-5.160156.469971-10.410156,2.189941-15.410156,5.22998l-.199951.119873c-9.289795,5.660156-17.349854,11.800049-24.329834,18.350098-34.790039,32.590088-42.920166,75.320068-44.360107,120.100098-.01001.27002-3.449951,27.26001-1.01001,50.22998.23999,2.290039.540039,4.580078.899902,6.839844.940186,6.010254,2.310059,11.860107,4.27002,17.200195,2.280029,6.259766,5.360107,11.799805,9.459961,16.040039,17.75,18.339844,59.050049,9.639893,60.930176-13.370117.01001-.169922.02002-.340088.030029-.5l-1.530029-36.050049c-.280029-6.459961.119873-13.629883,1.100098-21.22998,4.079834-31.649902,18.329834-70.570068,36.5-95.079834.179932-.25.369873-.5.559814-.75,5.26001-7.080078,8.340088-14.730225,9.400146-22.430176,1.089844-7.969971.029785-15.98999-3.040039-23.47998Z" fill="none"/></svg>