<?xml version="1.0" encoding="UTF-8"?><svg id="Layer_1" xmlns="http://www.w3.org/2000/svg" width="527.912677" height="550.314246" xmlns:xlink="http://www.w3.org/1999/xlink" viewBox="0 0 527.912677 550.314246"><defs><radialGradient id="radial-gradient" cx="258.194406" cy="268.834252" fx="258.194406" fy="268.834252" r="178.082876" gradientUnits="userSpaceOnUse"><stop offset="0" stop-color="#fef5e8"/><stop offset=".305485" stop-color="#fdf3e4"/><stop offset=".589217" stop-color="#fdeed9"/><stop offset=".863452" stop-color="#fde7c6"/><stop offset="1" stop-color="#fde2ba"/></radialGradient><radialGradient id="radial-gradient-2" cx="268.633359" cy="285.220441" fx="268.633359" fy="285.220441" r="148.663673" gradientUnits="userSpaceOnUse"><stop offset="0" stop-color="#f5dcc7"/><stop offset=".231524" stop-color="#f4d9c3"/><stop offset=".446625" stop-color="#f2d2b8"/><stop offset=".655212" stop-color="#eec6a5"/><stop offset=".858539" stop-color="#e9b68b"/><stop offset="1" stop-color="#e5a874"/></radialGradient></defs><path d="M284.115676,4.437447c0-2.243415-1.876787-4.049362-4.146392-3.932036-2.11413.109288-3.717693,2.009431-3.729244,4.126353-.091305,16.732225-11.968867,31.682519-26.554967,31.682519-15.259178,0-27.68295-14.199933-27.769655-31.692663-.010475-2.113302-1.620069-4.007997-3.730621-4.116289-2.268933-.116419-4.144865,1.689217-4.144865,3.932121,0,15.621514,8.12354,29.162524,19.906188,35.654615,6.711276,3.697829,10.704467,10.930904,10.704466,18.593485l-.000006,48.470319c0,2.66996,1.949658,5.074175,4.609594,5.305319,3.000003.260695,5.515415-2.097172,5.515415-5.04274v-46.265407c0-8.741612,4.216972-17.097456,11.578824-21.811151,10.583377-6.776395,17.761264-20.478297,17.761264-34.904444Z" fill="#c1b0d9" stroke="#6f6e84" stroke-miterlimit="10"/><path d="M523.47523,293.943133c2.243415,0,4.049362-1.876787,3.932036-4.146392-.109288-2.11413-2.009431-3.717693-4.126353-3.729244-16.732225-.091305-31.682519-11.968867-31.682519-26.554967,0-15.259178,14.199933-27.68295,31.692663-27.769655,2.113302-.010475,4.007997-1.620069,4.116289-3.730621.116419-2.268933-1.689217-4.144865-3.932121-4.144865-15.621514,0-29.162524,8.12354-35.654615,19.906188-3.697829,6.711276-10.930904,10.704467-18.593485,10.704466l-48.470319-.000006c-2.66996,0-5.074175,1.949658-5.305319,4.609594-.260695,3.000003,2.097172,5.515415,5.04274,5.515415h46.265407c8.741612,0,17.097456,4.216972,21.811151,11.578824,6.776395,10.583377,20.478297,17.761264,34.904444,17.761264Z" fill="#c1b0d9" stroke="#6f6e84" stroke-miterlimit="10"/><path d="M291.863288,545.876799c0,2.243415-1.876787,4.049362-4.146392,3.932036-2.11413-.109288-3.717693-2.009431-3.729244-4.126353-.091305-16.732225-11.968867-31.682519-26.554967-31.682519-15.259178,0-27.68295,14.199933-27.769655,31.692663-.010475,2.113302-1.620069,4.007997-3.730621,4.116289-2.268933.116419-4.144865-1.689217-4.144865-3.932121,0-15.621514,8.12354-29.162524,19.906188-35.654615,6.711276-3.697829,10.704467-10.930904,10.704466-18.593485l-.000006-48.470319c0-2.66996,1.949658-5.074175,4.609594-5.305319,3.000003-.260695,5.515415,2.097172,5.515415,5.04274v46.265407c0,8.741612,4.216972,17.097456,11.578824,21.811151,10.583377,6.776395,17.761264,20.478297,17.761264,34.904444Z" fill="#c1b0d9" stroke="#6f6e84" stroke-miterlimit="10"/><path d="M459.688896,73.039838c1.199433-1.895857.578948-4.425435-1.401769-5.539722-1.845031-1.037954-4.216068-.289527-5.357633,1.493256-9.022978,14.091188-27.053537,20.375032-39.379901,12.576631-12.895166-8.158259-15.802261-26.800604-6.523115-41.629648,1.121017-1.791502.773778-4.253226-.951901-5.47314-1.855178-1.311459-4.405859-.788519-5.605019,1.106906-8.351981,13.201368-8.726619,28.98777-2.240355,40.773627,3.694509,6.713104,3.201925,14.960546-.894845,21.43601l-25.91447,40.961104c-1.427484,2.256319-1.065278,5.330441,1.05899,6.947899,2.395851,1.824246,5.78219,1.176525,7.357027-1.312704l24.735618-39.097789c4.673668-7.387327,12.704749-12.194064,21.446232-12.24151,12.566732-.068208,25.95826-7.809729,33.671142-20.000921Z" fill="#c1b0d9" stroke="#6f6e84" stroke-miterlimit="10"/><path d="M72.529819,472.770904c-1.457661,1.705326-1.204442,4.297555.597025,5.683048,1.678061,1.290582,4.131623.88811,5.515876-.713557,10.941181-12.659631,29.683843-16.306602,40.771428-6.829273,11.599223,9.914662,11.816704,28.781059.516698,42.134447-1.365157,1.613227-1.372708,4.09931.16126,5.55296,1.64908,1.562736,4.248278,1.409076,5.705607-.295862,10.150091-11.874652,12.773284-27.446091,8.034977-40.036821-2.698891-7.171551-1.034609-15.264332,3.94416-21.089023l31.493631-36.844579c1.734809-2.029563,1.814922-5.123912-.056836-7.027911-2.111058-2.14742-5.555167-1.989486-7.469052.24958l-30.060984,35.168525c-5.679869,6.644913-14.314605,10.256605-22.973423,9.056339-12.447894-1.725499-26.806966,4.026128-36.180366,14.992125Z" fill="#c1b0d9" stroke="#6f6e84" stroke-miterlimit="10"/><path d="M4.226412,258.984202c-2.240187.1203-3.942896,2.091228-3.704034,4.351276.222499,2.105228,2.205896,3.60459,4.320392,3.502608,16.713047-.80607,32.27875,10.252713,33.06091,24.817826.818254,15.237223-12.69504,28.404574-30.157952,29.429179-2.1097.123783-3.915356,1.832662-3.910317,3.945984.005417,2.271911,1.909049,4.04832,4.148726,3.928047,15.599038-.837683,28.684951-9.675654,34.535872-21.789479,3.332625-6.899911,10.341163-11.275221,17.99272-11.686116l48.400581-2.599152c2.666118-.143173,4.962327-2.218949,5.050502-4.887452.099448-3.009666-2.389911-5.395022-5.331241-5.23707l-46.198842,2.480922c-8.729035.468757-17.298986-3.294075-22.400669-10.392569-7.334165-10.204775-21.401258-16.637587-35.806648-15.864004Z" fill="#c1b0d9" stroke="#6f6e84" stroke-miterlimit="10"/><path d="M75.934289,74.100539c-1.848268-1.271541-4.399862-.748913-5.589587,1.187431-1.108225,1.803698-.451646,4.201793,1.285861,5.411156,13.733322,9.558847,19.318267,27.817986,11.051041,39.834944-8.648719,12.571482-27.389173,14.758626-41.849941,4.91539-1.74701-1.189165-4.220279-.936968-5.505733.74046-1.381917,1.803307-.957576,4.372231.890272,5.643483,12.869998,8.854087,28.630269,9.836279,40.657131,3.808622,6.850377-3.433291,15.072738-2.623517,21.38566,1.719543l39.932932,27.4724c2.199683,1.513302,5.285471,1.269729,6.983522-.790686,1.915142-2.323835,1.398288-5.732602-1.028459-7.402115l-38.116389-26.222678c-7.201896-4.954641-11.695845-13.164842-11.406678-21.90167.415706-12.560039-6.804454-26.239713-18.689632-34.41628Z" fill="#c1b0d9" stroke="#6f6e84" stroke-miterlimit="10"/><path d="M431.731096,485.865106c1.733328,1.424249,4.320147,1.120709,5.670374-.707339,1.257732-1.702821.807661-4.1481-.8206-5.500969-12.869838-10.693128-16.880307-29.361387-7.620209-40.631031,9.687407-11.789684,28.546016-12.373714,42.116452-1.335311,1.639449,1.333553,4.125209,1.292795,5.548778-.269128,1.530398-1.679134,1.326262-4.274855-.406671-5.698781-12.069636-9.917439-27.689106-12.237571-40.185389-7.255509-7.117755,2.837731-15.241347,1.331014-21.16168-3.533636l-37.449573-30.771761c-2.062888-1.695045-5.158211-1.715017-7.02548.193384-2.105995,2.152385-1.881168,5.592776.394663,7.462793l35.745998,29.371952c6.754023,5.54968,10.532815,14.112607,9.501024,22.793113-1.483299,12.479072,4.546251,26.723674,15.692311,35.882225Z" fill="#c1b0d9" stroke="#6f6e84" stroke-miterlimit="10"/><path d="M438.771399,273.106057c.378051,25.898751-.326756,51.14078-8.05953,71.283967-8.860846,23.081714-29.028463,39.239368-45.682222,54.763686-17.208333,16.041281-37.436891,27.478703-59.653762,35.450789-21.950828,7.876622-44.988778,9.555352-68.562452,9.554787-23.574045-.000566-47.812252,1.663932-69.762285-6.21416-22.216303-7.973659-42.137355-21.798426-59.343642-37.841983-16.651174-15.525956-25.108842-36.794368-33.966095-59.878003-7.729206-20.143738-14.910675-41.236149-14.529315-67.135143-.378174-25.897906-4.931563-51.495001,2.801663-71.637322,8.861206-23.080311,28.492123-40.450496,45.146436-55.973653,17.208362-16.039575,39.883192-23.165086,62.099853-31.136235,21.950239-7.875559,44.004243-20.980673,67.577196-20.980068,23.573295.000605,47.197741,8.728816,69.147195,16.605904,22.216052,7.972762,45.235799,17.422343,62.442154,33.464178,16.651759,15.524774,27.763664,37.486234,36.621423,60.568384,7.729805,20.142851,14.104644,43.20676,13.72338,69.104872Z" fill="url(#radial-gradient)"/><path d="M438.771399,273.106057c.378051,25.898751-.326756,51.14078-8.05953,71.283967-8.860846,23.081714-29.028463,39.239368-45.682222,54.763686-17.208333,16.041281-37.436891,27.478703-59.653762,35.450789-21.950828,7.876622-44.988778,9.555352-68.562452,9.554787-23.574045-.000566-47.812252,1.663932-69.762285-6.21416-22.216303-7.973659-42.137355-21.798426-59.343642-37.841983-16.651174-15.525956-25.108842-36.794368-33.966095-59.878003-7.729206-20.143738-14.910675-41.236149-14.529315-67.135143-.378174-25.897906-4.931563-51.495001,2.801663-71.637322,8.861206-23.080311,28.492123-40.450496,45.146436-55.973653,17.208362-16.039575,39.883192-23.165086,62.099853-31.136235,21.950239-7.875559,44.004243-20.980673,67.577196-20.980068,23.573295.000605,47.197741,8.728816,69.147195,16.605904,22.216052,7.972762,45.235799,17.422343,62.442154,33.464178,16.651759,15.524774,27.763664,37.486234,36.621423,60.568384,7.729805,20.142851,14.104644,43.20676,13.72338,69.104872Z" fill="none" stroke="#bd9b69" stroke-miterlimit="10" stroke-width="3"/><ellipse cx="268.633359" cy="285.220441" rx="154.666667" ry="142.407857" fill="url(#radial-gradient-2)" stroke="#73543a" stroke-miterlimit="10"/></svg>