<?xml version="1.0" encoding="UTF-8"?><svg id="Layer_1" xmlns="http://www.w3.org/2000/svg" width="240.063604" height="741.513641" xmlns:xlink="http://www.w3.org/1999/xlink" viewBox="0 0 240.063604 741.513641"><defs><radialGradient id="radial-gradient" cx="120.031802" cy="195.594184" fx="120.031802" fy="195.594184" r="159.757607" gradientUnits="userSpaceOnUse"><stop offset="0" stop-color="#d5d7e9"/><stop offset=".28795" stop-color="#d3d5e7" stop-opacity=".99532"/><stop offset=".466881" stop-color="#cccfe4" stop-opacity=".979896"/><stop offset=".616128" stop-color="#c1c4de" stop-opacity=".953587"/><stop offset=".749006" stop-color="#b1b5d6" stop-opacity=".916352"/><stop offset=".871031" stop-color="#9ca2cb" stop-opacity=".868126"/><stop offset=".983603" stop-color="#848bbe" stop-opacity=".809729"/><stop offset="1" stop-color="#8088bc" stop-opacity=".8"/></radialGradient><radialGradient id="radial-gradient-2" cx="120.031802" cy="572.208332" fx="120.031802" fy="572.208332" r="144.533784" gradientUnits="userSpaceOnUse"><stop offset="0" stop-color="#feefd9"/><stop offset=".292949" stop-color="#fdeed7" stop-opacity=".995071"/><stop offset=".475047" stop-color="#fdebd0" stop-opacity=".978816"/><stop offset=".626858" stop-color="#fde7c6" stop-opacity=".951106"/><stop offset=".762063" stop-color="#fde0b7" stop-opacity=".911877"/><stop offset=".884956" stop-color="#fcd8a3" stop-opacity=".861664"/><stop offset="1" stop-color="#fccf8c" stop-opacity=".8"/></radialGradient></defs><path d="M173.365135,2.25s1.039997,160.897931,0,209.777778c-.888889,41.777778,63.555556,48,63.555556,112,0,40-37.749384,64.707171-124,64.909864-73.777778.173381-109.777778-30.687577-109.777778-64.909864,0-67.111111,63.555556-72,63.555556-112V2.25" fill="url(#radial-gradient)" stroke="#2b388f" stroke-linecap="round" stroke-miterlimit="10" stroke-width="4.5"/><path d="M172.48027,739.263641s1.928886-137.24542.888889-186.125266c-.888889-41.777778,64.444444-65.867799,64.444444-129.111111,0-30.444444-28.085188-15.384754-33.015375-13.446977-47.173834,26.95909-118.473353,34.597015-172.76209,2.551532-12.161195-4.679249-30.222535-16.882333-29.77809,12.562111,1.012883,67.103467,64.444444,87.444444,64.444444,127.444444,0,55.111111-.888889,186.125266-.888889,186.125266" fill="url(#radial-gradient-2)" stroke="#bb8330" stroke-linecap="round" stroke-miterlimit="10" stroke-width="4.5"/></svg>