<?xml version="1.0" encoding="UTF-8"?><svg id="a" xmlns="http://www.w3.org/2000/svg" width="454.113572" height="732.93892" viewBox="0 0 454.113572 732.93892"><path d="M339.411671,124.999463c-1.72183-2.844376-3.606485-5.630612-4.732983-8.758987-1.908119-5.29908-.747669-9.787111,3.486084-13.594053,7.265099-6.532694,16.023757-11.750413,15.184255-23.159589-.43366-5.893607-3.586298-11.531888-8.38022-14.987459" fill="none" stroke="#2b8741" stroke-miterlimit="10" stroke-width="2"/><line x1="332.219051" y1="272.662867" x2="312.952385" y2="272.662867" fill="none" stroke="#2b8741" stroke-linecap="round" stroke-miterlimit="10" stroke-width="5.25"/><line x1="143.193215" y1="603.369296" x2="129.569624" y2="589.745705" fill="none" stroke="#834029" stroke-linecap="round" stroke-miterlimit="10" stroke-width="5.25"/><line x1="229.031419" y1="590.735244" x2="213.681834" y2="602.379757" fill="none" stroke="#834029" stroke-linecap="round" stroke-miterlimit="10" stroke-width="5.25"/><line x1="286.897513" y1="319.424662" x2="273.273923" y2="305.801072" fill="none" stroke="#2b8741" stroke-linecap="round" stroke-miterlimit="10" stroke-width="5.25"/><line x1="372.735718" y1="306.790611" x2="357.386133" y2="318.435124" fill="none" stroke="#2b8741" stroke-linecap="round" stroke-miterlimit="10" stroke-width="5.25"/><line x1="332.219051" y1="266.035156" x2="312.952385" y2="266.035156" fill="none" stroke="#2b8741" stroke-linecap="round" stroke-miterlimit="10" stroke-width="5.25"/><path d="M338.181094,121.095268c5.061429,0,9.164011,4.196977,9.164011,9.37194v136.601779c0,19.19365,6.939489,37.597588,19.538726,51.822854l67.691975,76.418967c3.39815,3.836115,3.111775,9.761566-.639231,13.236819-3.749727,3.477868-9.544993,3.18238-12.943143-.653735l-67.691975-76.418967c-15.659874-17.6796-24.284375-40.552468-24.284375-64.405938v-136.601779c0-5.174964,4.102583-9.37194,9.164011-9.37194Z" fill="#b2dbb6" stroke="#2b8741" stroke-miterlimit="10"/><path d="M373.473982,292.457019c2.342971.121412,4.639377,1.156813,6.336355,3.077555l71.439059,80.860426c3.392808,3.838806,3.099086,9.767111-.65704,13.235463-3.756256,3.470963-9.551628,3.168031-12.943159-.670709l-71.439059-80.860426c-3.392808-3.838806-3.099086-9.767111.65704-13.235463,1.876851-1.735548,4.265109-2.528192,6.606804-2.406846Z" fill="#b2dbb6" stroke="#2b8741" stroke-miterlimit="10"/><path d="M309.089705,121.095268c5.061429,0,9.164011,4.196977,9.164011,9.37194v148.146733c0,16.40874-5.932061,32.140211-16.703098,44.30229l-75.273251,84.977661c-3.395594,3.836115-9.194694,4.131603-12.943143.653735-3.751006-3.475253-4.037381-9.400704-.639231-13.236819l75.271973-84.977661c7.711679-8.707746,11.958728-19.972901,11.958728-31.719206v-148.146733c0-5.174964,4.102583-9.37194,9.164011-9.37194Z" fill="#b2dbb6" stroke="#2b8741" stroke-miterlimit="10"/><path d="M273.122781,291.965059c2.339837-.154324,4.738546.604599,6.638597,2.313541,3.802488,3.415106,4.176036,9.338711.835258,13.224951l-70.343102,81.859191c-3.341889,3.888934-9.132795,4.270873-12.932896.852989-3.802488-3.415106-4.176036-9.338711-.835258-13.224951l70.343102-81.859191c1.670945-1.944467,3.954462-3.012206,6.2943-3.16653Z" fill="#b2dbb6" stroke="#2b8741" stroke-miterlimit="10"/><circle cx="343.597001" cy="33.768625" r="33.268625" fill="#f3cf99" stroke="#8a6834" stroke-miterlimit="10"/><circle cx="33.768625" cy="699.170295" r="33.268625" fill="#a4dff9" stroke="#2e2f82" stroke-miterlimit="10"/><line x1="188.933855" y1="553.638398" x2="169.667188" y2="553.638398" fill="none" stroke="#834029" stroke-linecap="round" stroke-miterlimit="10" stroke-width="5.25"/><line x1="188.933855" y1="545.161989" x2="169.667188" y2="545.161989" fill="none" stroke="#834029" stroke-linecap="round" stroke-miterlimit="10" stroke-width="5.25"/><path d="M194.895898,400.2221c5.061429,0,9.164011,4.196977,9.164011,9.37194v136.601779c0,19.19365,6.939489,37.597588,19.538726,51.822854l67.691975,76.418967c3.39815,3.836115,3.111775,9.761566-.639231,13.236819-3.749727,3.477868-9.544993,3.18238-12.943143-.653735l-67.691975-76.418967c-15.659874-17.6796-24.284375-40.552468-24.284375-64.405938v-136.601779c0-5.174964,4.102583-9.37194,9.164011-9.37194Z" fill="#fbc7b5" stroke="#6b4133" stroke-miterlimit="10"/><path d="M230.188786,571.583852c2.342971.121412,4.639377,1.156813,6.336355,3.077555l71.439059,80.860426c3.392808,3.838806,3.099086,9.767111-.65704,13.235463-3.756256,3.470963-9.551628,3.168031-12.943159-.670709l-71.439059-80.860426c-3.392808-3.838806-3.099086-9.767111.65704-13.235463,1.876851-1.735548,4.265109-2.528192,6.606804-2.406846Z" fill="#fbc7b5" stroke="#6b4133" stroke-miterlimit="10"/><path d="M165.804508,400.2221c5.061429,0,9.164011,4.196977,9.164011,9.37194v148.146733c0,16.40874-5.932061,32.140211-16.703098,44.30229l-75.273251,84.977661c-3.395594,3.836115-9.194694,4.131603-12.943143.653735-3.751006-3.475253-4.037381-9.400704-.639231-13.236819l75.271973-84.977661c7.711679-8.707746,11.958728-19.972901,11.958728-31.719206v-148.146733c0-5.174964,4.102583-9.37194,9.164011-9.37194Z" fill="#fbc7b5" stroke="#6b4133" stroke-miterlimit="10"/><path d="M129.837585,571.091891c2.339837-.154324,4.738546.604599,6.638597,2.313541,3.802488,3.415106,4.176036,9.338711.835258,13.224951l-70.343102,81.859191c-3.341889,3.888934-9.132795,4.270873-12.932896.852989-3.802488-3.415106-4.176036-9.338711-.835258-13.224951l70.343102-81.859191c1.670945-1.944467,3.954462-3.012206,6.2943-3.16653Z" fill="#fbc7b5" stroke="#6b4133" stroke-miterlimit="10"/></svg>