<?xml version="1.0" encoding="UTF-8"?><svg id="Layer_1" xmlns="http://www.w3.org/2000/svg" width="462.983796" height="462.722041" viewBox="0 0 462.983796 462.722041"><circle cx="229.844265" cy="231.65106" r="225" fill="#dbf0de" opacity=".36"/><path d="M220.213288,461.722041c-.091797,0-.183594-.001953-.276367-.006836-6.892578-.339844-13.842773-.996094-20.655273-1.948242-3.008789-.420898-5.106445-3.201172-4.685547-6.208984.420898-3.008789,3.199219-5.108398,6.208984-4.685547,6.489258.907227,13.108398,1.532227,19.674805,1.856445,3.033203.149414,5.371094,2.730469,5.22168,5.764648-.145508,2.941406-2.576172,5.228516-5.488281,5.228516ZM245.519929,461.567744c-2.883789,0-5.305664-2.245117-5.484375-5.162109-.186523-3.032227,2.120117-5.641602,5.151367-5.827148,6.561523-.40332,13.171875-1.109375,19.648438-2.09668,3.006836-.451172,5.808594,1.606445,6.266602,4.608398.457031,3.00293-1.605469,5.808594-4.608398,6.266602-6.801758,1.036133-13.742188,1.777344-20.630859,2.200195-.115234.007812-.229492.010742-.342773.010742ZM175.215241,454.905635c-.454102,0-.915039-.056641-1.375-.174805-6.674805-1.717773-13.350586-3.764648-19.84375-6.082031-2.861328-1.020508-4.352539-4.167969-3.331055-7.02832,1.020508-2.862305,4.168945-4.354492,7.02832-3.331055,6.180664,2.205078,12.536133,4.15332,18.888672,5.789062,2.941406.756836,4.712891,3.755859,3.955078,6.697266-.638672,2.481445-2.873047,4.129883-5.322266,4.129883ZM290.432038,454.198604c-2.422852,0-4.642578-1.613281-5.305664-4.063477-.793945-2.931641.939453-5.952148,3.871094-6.746094,6.333984-1.714844,12.664062-3.741211,18.81543-6.023438,2.850586-1.061523,6.012695.396484,7.069336,3.243164,1.056641,2.847656-.395508,6.012695-3.243164,7.069336-6.461914,2.397461-13.113281,4.526367-19.766602,6.328125-.481445.130859-.964844.192383-1.44043.192383ZM132.50821,439.119502c-.813477,0-1.638672-.180664-2.418945-.563477-6.178711-3.03125-12.303711-6.386719-18.204102-9.974609-2.595703-1.577148-3.419922-4.960938-1.841797-7.556641,1.578125-2.594727,4.961914-3.420898,7.556641-1.841797,5.619141,3.416016,11.451172,6.611328,17.334961,9.498047,2.726562,1.337891,3.852539,4.632812,2.514648,7.360352-.955078,1.947266-2.90918,3.078125-4.941406,3.078125ZM332.931062,437.889033c-2.007812,0-3.943359-1.103516-4.911133-3.018555-1.37207-2.709961-.286133-6.018555,2.424805-7.389648,5.847656-2.958984,11.637695-6.224609,17.208984-9.707031,2.574219-1.608398,5.967773-.828125,7.579102,1.749023,1.609375,2.576172.827148,5.96875-1.749023,7.579102-5.851562,3.657227-11.931641,7.086914-18.074219,10.194336-.795898.402344-1.643555.592773-2.478516.592773ZM93.878327,415.031611c-1.175781,0-2.360352-.375-3.362305-1.150391-5.446289-4.21582-10.771484-8.732422-15.825195-13.423828-2.226562-2.066406-2.356445-5.546875-.290039-7.772461,2.067383-2.228516,5.546875-2.355469,7.772461-.290039,4.81543,4.469727,9.887695,8.771484,15.075195,12.787109,2.402344,1.859375,2.842773,5.314453.983398,7.71582-1.083984,1.400391-2.709961,2.133789-4.353516,2.133789ZM371.249421,413.339229c-1.621094,0-3.225586-.712891-4.311523-2.080078-1.888672-2.379883-1.491211-5.838867.887695-7.727539,5.143555-4.083008,10.162109-8.446289,14.918945-12.969727,2.199219-2.09375,5.681641-2.005859,7.775391.195312,2.09375,2.200195,2.005859,5.681641-.195312,7.775391-4.992188,4.749023-10.260742,9.329102-15.65918,13.614258-1.011719.802734-2.21875,1.192383-3.416016,1.192383ZM60.872468,383.688838c-1.546875,0-3.083984-.648438-4.171875-1.912109-4.499023-5.227539-8.810547-10.71875-12.816406-16.320312-1.767578-2.470703-1.196289-5.90625,1.274414-7.672852,2.473633-1.768555,5.907227-1.196289,7.672852,1.274414,3.81543,5.334961,7.921875,10.564453,12.207031,15.542969,1.981445,2.302734,1.720703,5.775391-.581055,7.756836-1.038086.893555-2.31543,1.331055-3.584961,1.331055ZM403.870515,381.598994c-1.248047,0-2.50293-.422852-3.53418-1.288086-2.326172-1.953125-2.62793-5.422852-.674805-7.749023,4.22168-5.027344,8.266602-10.306641,12.020508-15.692383,1.737305-2.491211,5.164062-3.102539,7.657227-1.366211,2.491211,1.737305,3.103516,5.165039,1.366211,7.657227-3.941406,5.654297-8.1875,11.197266-12.620117,16.475586-1.087891,1.294922-2.645508,1.962891-4.214844,1.962891ZM34.816804,346.378291c-1.929688,0-3.802734-1.017578-4.808594-2.823242-3.359375-6.026367-6.479492-12.272461-9.274414-18.5625-1.233398-2.776367.017578-6.026367,2.792969-7.259766,2.779297-1.230469,6.026367.018555,7.259766,2.792969,2.660156,5.989258,5.630859,11.935547,8.829102,17.673828,1.479492,2.65332.527344,6.00293-2.125977,7.481445-.847656.472656-1.766602.697266-2.672852.697266ZM429.47989,343.960322c-.884766,0-1.78125-.213867-2.613281-.664062-2.671875-1.446289-3.665039-4.78418-2.21875-7.455078,3.125-5.773438,6.023438-11.757812,8.614258-17.790039,1.198242-2.790039,4.428711-4.083008,7.224609-2.882812,2.791016,1.199219,4.081055,4.433594,2.882812,7.224609-2.72168,6.334961-5.765625,12.621094-9.047852,18.68457-.996094,1.838867-2.887695,2.882812-4.841797,2.882812ZM16.807038,304.579463c-2.337891,0-4.505859-1.50293-5.245117-3.851562-2.067383-6.577148-3.858398-13.326172-5.321289-20.05957-.644531-2.96875,1.239258-5.897461,4.207031-6.542969,2.967773-.646484,5.897461,1.239258,6.542969,4.207031,1.392578,6.410156,3.09668,12.834961,5.06543,19.09668.911133,2.897461-.699219,5.985352-3.597656,6.896484-.548828.171875-1.104492.253906-1.651367.253906ZM446.977937,301.922236c-.524414,0-1.058594-.075195-1.586914-.234375-2.90918-.875977-4.557617-3.943359-3.681641-6.851562,1.888672-6.274414,3.512695-12.719727,4.828125-19.15625.608398-2.976562,3.517578-4.897461,6.489258-4.288086,2.976562.607422,4.896484,3.513672,4.288086,6.489258-1.380859,6.762695-3.087891,13.533203-5.072266,20.125-.716797,2.380859-2.900391,3.916016-5.264648,3.916016ZM7.638093,259.999385c-2.788086,0-5.177734-2.111328-5.464844-4.944336-.694336-6.836914-1.087891-13.804688-1.172852-20.709961-.036133-3.038086,2.395508-5.530273,5.432617-5.567383h.068359c3.006836,0,5.461914,2.418945,5.499023,5.432617.080078,6.581055.455078,13.220703,1.116211,19.733398.306641,3.022461-1.894531,5.720703-4.916016,6.027344-.189453.019531-.376953.02832-.5625.02832ZM455.593171,257.232783c-.164062,0-.329102-.006836-.495117-.021484-3.025391-.269531-5.259766-2.941406-4.990234-5.966797.581055-6.522461.875977-13.166016.875977-19.745117v-.50293c0-3.038086,2.462891-5.5,5.5-5.5s5.5,2.461914,5.5,5.5v.50293c0,6.90332-.30957,13.875-.918945,20.72168-.254883,2.859375-2.655273,5.011719-5.47168,5.011719ZM7.602937,214.488643c-.182617,0-.365234-.008789-.550781-.027344-3.022461-.299805-5.229492-2.993164-4.928711-6.016602.680664-6.862305,1.682617-13.770508,2.976562-20.533203.570312-2.983398,3.456055-4.9375,6.435547-4.369141,2.983398.571289,4.939453,3.452148,4.369141,6.435547-1.232422,6.44043-2.186523,13.019531-2.835938,19.554688-.28125,2.837891-2.672852,4.956055-5.46582,4.956055ZM455.016999,211.225947c-2.758789,0-5.137695-2.071289-5.458008-4.87793-.743164-6.524414-1.792969-13.087891-3.120117-19.508789-.615234-2.974609,1.297852-5.884766,4.272461-6.499023,2.969727-.617188,5.883789,1.296875,6.499023,4.272461,1.394531,6.744141,2.49707,13.637695,3.27832,20.489258.34375,3.018555-1.824219,5.744141-4.841797,6.087891-.211914.023438-.421875.036133-.629883.036133ZM16.66446,169.89001c-.542969,0-1.094727-.080078-1.640625-.250977-2.899414-.904297-4.516602-3.989258-3.611328-6.888672,2.054688-6.583008,4.435547-13.150391,7.078125-19.518555,1.164062-2.806641,4.385742-4.137695,7.1875-2.972656,2.805664,1.164062,4.136719,4.381836,2.972656,7.1875-2.515625,6.0625-4.782227,12.314453-6.738281,18.581055-.734375,2.354492-2.905273,3.862305-5.248047,3.862305ZM445.304108,166.766963c-2.3125,0-4.463867-1.469727-5.224609-3.786133-2.045898-6.232422-4.40332-12.445312-7.004883-18.467773-1.205078-2.789062.079102-6.025391,2.867188-7.230469,2.789062-1.208008,6.025391.079102,7.230469,2.867188,2.733398,6.326172,5.208984,12.853516,7.358398,19.399414.947266,2.885742-.624023,5.994141-3.509766,6.941406-.569336.1875-1.148438.276367-1.716797.276367ZM34.578523,128.034541c-.902344,0-1.817383-.222656-2.662109-.691406-2.657227-1.472656-3.616211-4.820312-2.142578-7.477539,3.34375-6.029297,7.00293-11.978516,10.875-17.679688,1.706055-2.511719,5.126953-3.166016,7.639648-1.459961s3.166992,5.126953,1.459961,7.639648c-3.686523,5.428711-7.170898,11.09375-10.355469,16.834961-1.003906,1.811523-2.880859,2.833984-4.814453,2.833984ZM426.794343,125.206416c-1.90625,0-3.758789-.992188-4.775391-2.764648-3.262695-5.686523-6.827148-11.299805-10.59375-16.680664-1.742188-2.489258-1.136719-5.917969,1.351562-7.660156,2.489258-1.741211,5.917969-1.135742,7.660156,1.351562,3.955078,5.651367,7.697266,11.543945,11.123047,17.516602,1.511719,2.634766.600586,5.996094-2.03418,7.506836-.862305.495117-1.803711.730469-2.731445.730469ZM60.569733,90.656611c-1.266602,0-2.539062-.43457-3.576172-1.323242-2.306641-1.976562-2.574219-5.449219-.597656-7.755859,4.482422-5.230469,9.258789-10.323242,14.197266-15.136719,2.173828-2.118164,5.65625-2.077148,7.777344.099609,2.120117,2.174805,2.076172,5.657227-.099609,7.777344-4.703125,4.584961-9.25293,9.435547-13.521484,14.417969-1.087891,1.269531-2.628906,1.920898-4.179688,1.920898ZM400.274812,88.215205c-1.523438,0-3.039062-.628906-4.125977-1.861328-4.344727-4.924805-8.963867-9.709961-13.726562-14.223633-2.205078-2.088867-2.299805-5.569336-.209961-7.774414,2.088867-2.206055,5.569336-2.298828,7.775391-.209961,5,4.737305,9.848633,9.760742,14.40918,14.930664,2.009766,2.277344,1.792969,5.75293-.485352,7.762695-1.045898.922852-2.34375,1.375977-3.636719,1.375977ZM93.521882,59.249385c-1.639648,0-3.262695-.729492-4.34668-2.125-1.864258-2.398438-1.430664-5.853516.967773-7.717773,5.443359-4.230469,11.142578-8.263672,16.9375-11.986328,2.556641-1.640625,5.959961-.900391,7.600586,1.655273,1.641602,2.555664.900391,5.958984-1.655273,7.600586-5.520508,3.544922-10.948242,7.385742-16.132812,11.416016-1.00293.779297-2.191406,1.157227-3.371094,1.157227ZM366.875398,57.281611c-1.154297,0-2.316406-.361328-3.308594-1.109375-5.246094-3.958008-10.729492-7.72168-16.297852-11.186523-2.579102-1.604492-3.369141-4.996094-1.764648-7.575195,1.605469-2.579102,4.99707-3.368164,7.575195-1.764648,5.847656,3.637695,11.604492,7.589844,17.112305,11.745117,2.424805,1.829102,2.907227,5.27832,1.078125,7.703125-1.081055,1.432617-2.728516,2.1875-4.394531,2.1875ZM132.086335,35.091182c-2.02832,0-3.978516-1.125977-4.936523-3.068359-1.34375-2.723633-.224609-6.021484,2.5-7.365234,6.180664-3.048828,12.574219-5.850586,19.003906-8.327148,2.833984-1.094727,6.018555.319336,7.109375,3.154297,1.092773,2.834961-.320312,6.017578-3.154297,7.109375-6.121094,2.359375-12.208984,5.026367-18.09375,7.928711-.782227.385742-1.611328.568359-2.428711.568359ZM327.949616,33.672236c-.791016,0-1.594727-.170898-2.357422-.53418-5.927734-2.817383-12.056641-5.397461-18.216797-7.666992-2.850586-1.050781-4.30957-4.212891-3.259766-7.0625,1.049805-2.848633,4.210938-4.307617,7.0625-3.259766,6.47168,2.384766,12.910156,5.094727,19.136719,8.055664,2.743164,1.303711,3.910156,4.584961,2.605469,7.328125-.941406,1.981445-2.914062,3.139648-4.970703,3.139648ZM174.72989,19.218135c-2.444336,0-4.675781-1.641602-5.319336-4.118164-.763672-2.939453,1-5.942383,3.94043-6.706055,6.667969-1.732422,13.498047-3.180664,20.300781-4.304688,2.998047-.495117,5.827148,1.533203,6.323242,4.530273.495117,2.99707-1.533203,5.828125-4.530273,6.323242-6.476562,1.069336-12.979492,2.448242-19.328125,4.097656-.463867.120117-.928711.177734-1.386719.177734ZM285.056062,18.416377c-.431641,0-.871094-.050781-1.30957-.158203-6.365234-1.555664-12.886719-2.838867-19.384766-3.813477-3.003906-.451172-5.073242-3.251953-4.623047-6.255859.452148-3.003906,3.255859-5.067383,6.255859-4.623047,6.825195,1.025391,13.675781,2.373047,20.363281,4.006836,2.950195.720703,4.757812,3.697266,4.037109,6.648438-.614258,2.511719-2.862305,4.195312-5.338867,4.195312ZM219.710358,12.302119c-2.907227,0-5.335938-2.279297-5.487305-5.216797-.157227-3.033203,2.174805-5.619141,5.208984-5.776367,6.854492-.352539,13.866211-.405273,20.745117-.148438,3.035156.112305,5.404297,2.665039,5.291992,5.700195-.113281,3.036133-2.672852,5.415039-5.700195,5.291992-6.553711-.243164-13.237305-.194336-19.770508.141602-.095703.005859-.192383.007812-.288086.007812Z" fill="#bfe7c5" stroke="#426f49" stroke-miterlimit="10" stroke-width="2"/></svg>