<?xml version="1.0" encoding="UTF-8"?><svg id="Layer_1" xmlns="http://www.w3.org/2000/svg" width="485.01758" height="317.39062" viewBox="0 0 485.01758 317.39062"><line x1="336.20424" y1="126.5909" x2="336.20421" y2="42.06922" fill="none" stroke="#231f20" stroke-linecap="round" stroke-miterlimit="10" stroke-width="3.59971"/><polygon points="261.36475 253.47729 265.63501 168.95557 269.23486 168.95557 273.50537 253.47729 261.36475 253.47729 261.36475 253.47729" fill="#231f20"/><line x1="343.08075" y1="126.5909" x2="343.08072" y2="42.06922" fill="none" stroke="#231f20" stroke-linecap="round" stroke-miterlimit="10" stroke-width="3.59971"/><polyline points="124.57479 169.38355 195.98471 126.07563 196.02509 126.07563 267.43501 169.38355 268.05002 169.38355 339.45993 126.07563 340.07495 126.07563 411.48486 169.38355" fill="none" stroke="#231f20" stroke-linecap="round" stroke-miterlimit="10" stroke-width="3.59971"/><text transform="translate(418.36443 186.04321) scale(.98383 1)" fill="#231f20" font-family="TimesNewRomanPS-BoldMT, &apos;Times New Roman&apos;" font-size="43.54998" font-weight="700"><tspan x="0" y="0">OH</tspan></text><text transform="translate(326.60271 36.19263) scale(.98383 1)" fill="#231f20" font-family="TimesNewRomanPS-BoldMT, &apos;Times New Roman&apos;" font-size="43.54998" font-weight="700"><tspan x="0" y="0">O</tspan></text><text transform="translate(251.62225 288.62036) scale(.98383 1)" fill="#231f20" font-family="TimesNewRomanPS-BoldMT, &apos;Times New Roman&apos;" font-size="43.54998" font-weight="700"><tspan x="0" y="0">NH</tspan></text><text transform="translate(315.8908 303.12231) scale(.57357)" fill="#231f20" font-family="TimesNewRomanPS-BoldMT, &apos;Times New Roman&apos;" font-size="43.54998" font-weight="700"><tspan x="0" y="0">2</tspan></text><text transform="translate(-.00037 265.57068) scale(.98383 1)" fill="#231f20" font-family="TimesNewRomanPS-BoldMT, &apos;Times New Roman&apos;" font-size="43.54998" font-weight="700"><tspan x="0" y="0">HN</tspan></text><text transform="translate(48.55598 158.44629) scale(.98383 1)" fill="#231f20" font-family="TimesNewRomanPS-BoldMT, &apos;Times New Roman&apos;" font-size="43.54998" font-weight="700"><tspan x="0" y="0">N</tspan></text><line x1="61.03633" y1="156.22412" x2="24.92735" y2="199.85464" fill="none" stroke="#231f20" stroke-linecap="round" stroke-miterlimit="10" stroke-width="3.59974"/><line x1="110.00225" y1="232.87895" x2="114.83562" y2="175.11032" fill="none" stroke="#231f20" stroke-linecap="round" stroke-miterlimit="10" stroke-width="3.59974"/><polyline points="46.50465 158.44629 14.91177 195.72851 37.05033 233.17781" fill="none" stroke="#231f20" stroke-linecap="round" stroke-miterlimit="10" stroke-width="3.59974"/><polyline points="65.2888 252.95388 118.574 240.1562 124.57479 169.39038 81.88294 151.08586" fill="none" stroke="#231f20" stroke-linecap="round" stroke-miterlimit="10" stroke-width="3.59974"/></svg>