<?xml version="1.0" encoding="UTF-8"?><svg id="Layer_1" xmlns="http://www.w3.org/2000/svg" width="582.572695" height="341.496046" xmlns:xlink="http://www.w3.org/1999/xlink" viewBox="0 0 582.572695 341.496046"><defs><radialGradient id="radial-gradient" cx="296.915033" cy="177.831993" fx="296.915033" fy="177.831993" r="243.315639" gradientTransform="translate(.027728 .058459) scale(.980949 .959836)" gradientUnits="userSpaceOnUse"><stop offset="0" stop-color="#fff6ed"/><stop offset=".557291" stop-color="#ffedda"/><stop offset="1" stop-color="#ffe5c9"/></radialGradient></defs><path d="M521.668514,315.291194c11.54723,22.706122,31.752968,21.266368,30.007328.887661-.476345-4.273801-2.061766-9.308254-5.135615-14.747169-.012453.01406-2.167381-4.077429-6.425985-11.138879-10.008749-14.97588-30.576116-47.689981-65.157216-75.36213-33.954595-28.264548-81.923883-51.486208-132.25334-61.142215-50.221208-10.241376-102.813123-6.916631-143.628137,4.478142-41.233522,10.819715-70.690024,29.710864-84.268845,37.355808-5.562864,3.582045-8.517208,5.692934-8.522118,5.682155-24.0614,10.741447-21.691171-2.085113,5.801516-22.1081,26.922462-19.473706,78.967743-46.142901,141.022131-50.375929,60.773359-6.836957,131.57271,8.746319,182.946581,37.42564,52.644603,27.649653,85.863726,68.393008,100.752555,88.129169,9.810691,13.595647,13.101757,17.556846,16.888806,20.83238,17.741868,17.252679,32.743497-4.150541,12.864184-31.990474-.307026-2.554251-35.0129-43.830015-45.347834-51.305301-21.025271-18.109876-.280682-21.630525,23.577751-1.781415,38.942445,36.970093,47.425167,1.602383,21.320322-22.348527-2.071106-1.264472-18.447884-19.645708-45.428302-39.033178-26.860674-19.726788-64.324032-40.461684-105.797163-54.293541-41.352669-14.173986-86.714393-21.444932-126.604738-22.092633-39.769882-.989831-74.068624,4.644519-90.523954,8.422937-9.816918,1.853121-27.988191,4.651081-31.537427,4.255523-10.643876-1.425694-6.584287-9.861753,1.431429-15.79699,4.320991-3.320058,20.887684-7.380615,27.760915-8.633838,31.870078-8.755224,122.063776-15.460953,196.712922,6.034126,75.84396,17.32626,136.144088,62.850986,135.820537,62.280146,43.769598,26.700597,44.688759,6.756815,31.22178-12.91795-4.430558-6.411405-23.114578-19.446054-28.703068-22.795638-16.479519-10.01454-46.493313-28.433269-85.937489-42.868304-39.235341-14.773883-87.900585-25.565478-136.835255-28.112699-48.916708-2.878102-98.106913,2.488169-138.030427,12.402882-40.101695,9.590862-70.937657,23.731572-87.250131,30.916752-8.13618,3.762014-21.082748,11.340407-24.370342,14.109309-11.70673,9.562273-16.712063,20.087663-11.947657,25.224755,5.340977,5.701839,20.96911,2.516758,36.991084-5.026485,29.720898-10.345889,20.571198,13.727812,1.296237,22.284788-4.991083,2.465204-30.286693,17.445771-44.285338,28.287513-5.750744,4.085865-18.306225,16.440942-20.792726,20.117658-19.901106,29.407166,9.601377,24.606111,25.466605,15.297388,3.138511-1.924359,13.332625-9.873939,17.379999-12.493804,14.998754-9.456823,40.911529-27.624345,75.976637-42.20045,34.79257-14.876991,78.737713-26.160689,123.511969-28.800238,44.727795-2.969024,90.288775,2.705632,127.27004,14.178204,37.161122,11.118258,65.74181,28.033494,80.669197,39.340157,10.863488,8.692891,1.801201,17.229245-.71799,16.275502-3.628267-1.403198-16.50706-9.522436-23.846937-13.12604-19.124921-9.219676-52.271239-24.342718-93.774067-32.157321-41.29112-8.248123-90.939229-9.188275-138.162266-.036556-47.303267,8.750537-92.188407,27.594819-125.840287,49.657926-34.02752,21.690515-56.82214,46.601261-68.589581,58.915564-5.340379,6.037406-8.222157,9.663037-8.422131,9.927367-23.323413,33.356179,5.029282,44.334304,25.327102,16.785883,7.716954-10.470556,18.560803-17.859606,23.805266-12.904359,5.692308,5.668095-4.937198,17.87226-16.486105,32.971869-11.740259,14.74342-24.400158,32.382283-27.177279,40.676804-14.197063,50.589642,25.001397,21.095304,27.856592,8.272962,5.739847-7.728368,19.241792-34.164166,45.496677-59.264254,25.690049-25.53314,64.133398-49.731507,106.710337-62.950344,42.410973-13.71797,88.962482-16.453128,127.124909-10.554916,38.399762,5.33159,68.410682,19.297954,83.222395,25.925416,7.378435,3.678122,11.461733,6.066464,11.687332,6.208471,9.328838,6.152699,12.553805,16.276908,7.189717,21.643179-5.81816,7.973951-24.659765-2.79421-46.484691-11.548028-21.43384-9.368713-45.851241-16.721207-53.773317-16.123184-26.980179,2.239305-18.163609,18.399983-9.493607,24.454261,2.380048,1.638002,9.397572,2.795616,10.528921,3.047292,1.833053.354783,4.178614.830015,6.956694,1.458501,19.023377,3.391296,59.286847,18.175959,88.064875,42.422131,29.876088,22.623168,48.265536,54.705502,48.900183,55.216821,6.013584,7.902244,15.83601,11.777208,21.921201,6.668236,8.067207-5.623102,2.51488-21.355416-7.445732-35.212581-9.788419-14.206793-23.984883-26.539374-29.218449-33.450381-5.75709-7.073636-5.68668-15.315666.052209-18.900991,7.100627-6.643865,23.13685,3.762482,36.452951,19.853797,13.688507,15.769807,24.656651,37.223643,30.227658,45.269769Z" fill="url(#radial-gradient)" stroke="#9a8479" stroke-miterlimit="10" stroke-width="2.911006"/></svg>