<?xml version="1.0" encoding="UTF-8"?><svg id="Layer_1" xmlns="http://www.w3.org/2000/svg" width="471.750051" height="366.219832" viewBox="0 0 471.750051 366.219832"><path d="M220.169632,3c-6.030876,0-11.149303,4.371597-12.14827,10.319201-3.865162,23.01083-20.398779,40.305799-40.208776,40.305799-20.479271,0-37.457062-18.483347-40.556854-42.657217-.58152-4.535208-4.370979-7.967783-8.943111-7.967783h-.000154c-4.572132,0-8.361591,3.432575-8.943111,7.967783-3.099792,24.17387-20.077583,42.657217-40.556854,42.657217-18.628418,0-34.359741-15.293484-39.383926-36.251999C27.38522,8.849653,19.51755,3,10.752571,3c-4.281681,0-7.752571,3.47089-7.752571,7.752571v185.184946c0,3.006632.884949,5.801451,2.392204,8.159821,10.802307-59.571201,56.999165-104.347321,112.357744-104.347321s101.555592,44.776119,112.357899,104.347321c1.507256-2.35837,2.392204-5.153189,2.392204-8.159821V15.330265c0-6.809841-5.520424-12.330265-12.33042-12.330265Z" fill="#fddeba" stroke="#956834" stroke-miterlimit="10" stroke-width="6"/><ellipse cx="353.994626" cy="238.556623" rx="107.4375" ry="124.663208" fill="#ee8d81" stroke="#991217" stroke-miterlimit="10" stroke-width="6"/><ellipse cx="117.744626" cy="238.556623" rx="107.4375" ry="124.663208" fill="#ee8d81" stroke="#991217" stroke-miterlimit="10" stroke-width="6"/><path d="M456.419632,3c-6.030876,0-11.149303,4.371597-12.14827,10.319201-3.865162,23.01083-20.398779,40.305799-40.208776,40.305799-20.479271,0-37.457062-18.483347-40.556854-42.657217-.58152-4.535208-4.370979-7.967783-8.943111-7.967783h-.000154c-4.572132,0-8.361591,3.432575-8.943111,7.967783-3.099792,24.17387-20.077583,42.657217-40.556854,42.657217-18.628418,0-34.359741-15.293484-39.383926-36.251999-2.043354-8.523348-9.911024-14.373001-18.676003-14.373001-4.281681,0-7.752571,3.47089-7.752571,7.752571v185.184946c0,3.006632.884949,5.801451,2.392204,8.159821,10.802307-59.571201,56.999165-104.347321,112.357744-104.347321s101.555592,44.776119,112.357899,104.347321c1.507256-2.35837,2.392204-5.153189,2.392204-8.159821V15.330265c0-6.809841-5.520424-12.330265-12.33042-12.330265Z" fill="#fddeba" stroke="#956834" stroke-miterlimit="10" stroke-width="6"/></svg>