<?xml version="1.0" encoding="UTF-8"?><svg id="Layer_1" xmlns="http://www.w3.org/2000/svg" width="324.906008" height="605.331055" xmlns:xlink="http://www.w3.org/1999/xlink" viewBox="0 0 324.906008 605.331055"><defs><radialGradient id="radial-gradient" cx="162.45511" cy="302.665527" fx="162.45511" fy="302.665527" r="242.417098" gradientUnits="userSpaceOnUse"><stop offset="0" stop-color="#e5e7f7"/><stop offset=".082959" stop-color="#dfe2f5"/><stop offset=".675863" stop-color="#bec3eb"/><stop offset="1" stop-color="#b2b8e8"/></radialGradient></defs><path d="M.504212,32.068359c.288086,16.189453,5.56543,51.385742,16.469727,90.405273,9.36438,33.511719,26.085083,81.039062,52.557739,117.148438,24.981445,34.075195,38.314453,49.301758,49.02832,61.537109,1.71582,1.959424,3.357353,3.834356,4.969997,5.70038,2.931392,3.391975,3.28247,8.310459.848721,12.075484-.388638.601226-.731039,1.13372-.983791,1.531554-65.797438,103.565779-72.529263,211.323974-72.322232,253.386918.071289,14.316406,11.697266,25.87207,25.99707,25.87207h.130859c14.359375-.071289,25.942383-11.769531,25.87207-26.12793-.16302-32.994916,4.468961-111.399991,45.580081-192.489934,5.145313-10.148913,19.581214-10.235699,24.878524-.165288,43.630861,82.944129,48.468688,164.051526,48.302137,197.76069-.070312,14.358398,11.512695,26.056641,25.87207,26.12793h.130859c14.299805,0,25.925781-11.555664,25.99707-25.87207.210938-42.856445-6.78125-153.910156-76.109375-259.243164l-.052606-.079905c-2.976969-4.52181-2.611043-10.463494.888738-14.593947,2.529108-2.984861,5.064013-5.879781,7.785938-8.988258,10.713867-12.235352,24.046875-27.461914,49.02832-61.537109,26.472656-36.109375,43.193359-83.636719,52.557617-117.148438,10.904297-39.019531,16.181641-74.21582,16.469727-90.405273.255859-14.357422-11.175781-26.203125-25.533203-26.458984-.158203-.00293-.31543-.003906-.472656-.003906-14.143555,0-25.733398,11.337891-25.986328,25.537109-.427734,24.037109-18.983398,123.188477-58.972656,177.734375-23.649414,32.258789-35.636719,45.947266-46.211914,58.025391-1.52417,1.740755-3.007267,3.434908-4.474342,5.125406-1.330494,1.533116-3.7068,1.537325-5.043636.009736l-.025967-.029673c-10.575195-12.078125-22.5625-25.766602-46.211914-58.025391C71.47992,154.331055,52.924256,55.179688,52.496522,31.142578" fill="url(#radial-gradient)" opacity=".99" stroke="#142297" stroke-miterlimit="10"/><path d="M104.177326,536.801791c-26.113736-3.239061-26.688599-3.11424-49.971793-12.628515.173566-1.020066.727349-6.803732.967872-8.333333,23.372691,9.117362,23.832905,9.338448,49.806864,12.944235-.318479,2.796928-.769867,7.893903-.802942,8.017613Z" fill="#7079bf"/><path d="M302.033535,135.371274c-26.179042-2.699882-26.474485-2.663741-50.102142-10.98799.154419-.564491,1.429628-4.332554,1.596174-5.008114,23.75695,8.559688,24.064165,8.546241,50.060652,11.012239-.456645,1.711547-1.391621,4.438456-1.554684,4.983865Z" fill="#7079bf"/><path d="M127.149977,430.183059c-26.724012-3.057259-26.509204-2.87202-49.591363-12.607174.378337-1.07555,1.498989-4.222435,1.798771-5.038802,23.107785,9.047619,23.662823,9.22116,49.607407,12.858415-.587449,1.638342-1.61913,4.252988-1.814815,4.787561Z" fill="#7079bf"/><path d="M109.374711,498.073151q-26.735744-2.952904-49.523902-12.387439c.108622-.629009.909916-4.738748,1.045594-5.440158,23.23125,8.770723,23.544559,8.861255,49.503145,12.397193-.376471,1.861438-.873917,4.540155-1.024837,5.430404Z" fill="#7079bf"/><path d="M112.435986,482.562109c-26.174983-3.351389-26.23705-3.501683-49.440753-12.408325.219771-1.023689,1.748148-7.783147,2.057039-8.972756,23.491705,8.615046,23.857625,8.675551,49.700218,11.213353-.73882,3.030866-2.008407,8.719356-2.316503,10.167729Z" fill="#7079bf"/><path d="M314.141542,90.932943c-26.518519,1.148148-26.695268,1.073666-50.945268-6.34763.289977-1.440082,2.333939-10.430556,2.727458-12.055619,24.467593,7.736175,24.690033,7.722694,50.828922,6.181027-.805556,4.111111-1.824074,8.828704-2.611111,12.222222Z" fill="#7079bf"/><path d="M304.839635,126.269177q-26.217636-1.966271-50.150763-10.578064c.33554-1.37043,2.922886-10.200067,3.452669-11.785948q24,9.333333,50.082843,10.506645c-1.150963,4.028081-2.402946,8.45538-3.384749,11.857367Z" fill="#7079bf"/><path d="M254.684112,234.605307c-25.518519-5.796296-25.689357-5.784346-50.28195-17.821383,2.876324-3.907989,14.72549-19.128758,21.322876-31.239869,22.839216,11.018736,23.091914,10.946187,50.499346,13.781046-6.194444,12.055556-9.138006,18.160333-21.540273,35.280207Z" fill="#7079bf"/><path d="M220.762947,542.648234c26.113736-3.239061,26.72966-3.129992,50.012854-12.644268-.149673-1.017865-.610832-5.75034-.972331-8.317581-23.372691,9.117362-23.831706,9.340987-49.805664,12.946775.372011,2.756248.721569,7.616558.765142,8.015074Z" fill="#7079bf"/><path d="M22.887621,140.642543c26.207997-2.402604,26.518173-2.400592,50.23878-10.456157-.148002-.566207-1.368357-4.353523-1.527226-5.03093-23.852563,8.28952-24.163264,8.303696-50.186064,10.474503.351921,1.70095,1.317647,4.465359,1.47451,5.012584Z" fill="#7079bf"/><path d="M197.897004,435.846018c26.724012-3.057259,26.450981-2.871703,49.53314-12.606857-.378337-1.07555-1.498989-4.222435-1.798771-5.038802-23.107785,9.047619-23.511206,9.199904-49.45579,12.837158.587449,1.638342,1.525736,4.273928,1.721421,4.808501Z" fill="#7079bf"/><path d="M215.560432,503.178854c26.735744-2.952904,26.359831-2.78259,49.47982-12.427556-.108622-.629009-.96274-4.715406-1.098418-5.416816-23.142931,8.957337-23.511269,8.879567-49.469855,12.415505.376471,1.861438.937534,4.538618,1.088453,5.428867Z" fill="#7079bf"/><path d="M212.60957,488.342579c26.407959-2.457327,26.225871-3.526606,49.429575-12.433248-.219771-1.023689-1.74465-7.854754-2.05354-9.044363-23.491705,8.615046-23.836259,8.747838-49.678852,11.285641.708005,3.038692,1.994721,8.743597,2.302817,10.19197Z" fill="#7079bf"/><path d="M11.126401,96.741942c26.518519,1.148148,26.62963,1.111111,50.87963-6.310185-.289977-1.440082-2.203704-10.430556-2.597222-12.055619-24.467593,7.736175-24.652778,7.736175-50.791667,6.194508.805556,4.111111,1.722222,8.777778,2.509259,12.171296Z" fill="#7079bf"/><path d="M19.871728,131.374879c26.217636-1.966271,26.304137-1.98186,50.162081-10.598152-.410941-1.410337-2.822069-10.300757-3.351852-11.886638q-24,9.333333-50.018375,10.56471c1.150963,4.028081,2.226343,8.518094,3.208146,11.92008Z" fill="#7079bf"/><path d="M71.090616,240.982682c25.518519-5.796296,25.555556-6.012703,50.148148-18.04974-5.111111-7.277778-14.698039-18.938562-21.53023-31.341067-22.839216,11.018736-22.921161,11.355881-50.328593,14.19074,6.203729,12.239216,8.451416,16.891068,21.710675,35.200066Z" fill="#7079bf"/><path d="M324.401795,26.962891c-.25293-14.199219-11.838561-26.462891-25.982116-26.462891-.157227,0-.314453.000977-.472656.003906-14.357544.255859-25.789185,12.101562-25.533325,26.458984" fill="#7079bf" stroke="#142297" stroke-miterlimit="10"/><path d="M51.072694,573.853516c.25293,14.199219,11.219321,25.548177,25.362876,25.548177.157227,0,.314453-.000977.472656-.003906,14.357544-.255859,26.420327-11.442708,26.164468-25.80013" fill="#7079bf" stroke="#142297" stroke-miterlimit="10"/><path d="M221.833845,579.282878c.25293,14.199219,11.219321,25.548177,25.362876,25.548177.157227,0,.314453-.000977.472656-.003906,14.357544-.255859,26.419919-11.510742,26.164059-25.868164" fill="#7079bf" stroke="#142297" stroke-miterlimit="10"/><path d="M52.496522,32.272135c-.25293-14.199219-11.842773-26.666667-25.986328-26.666667-.157227,0-.314453.000977-.472656.003906C11.679994,5.865234.248353,17.710938.504212,32.068359" fill="#7079bf" stroke="#142297" stroke-miterlimit="10"/></svg>