<?xml version="1.0" encoding="UTF-8"?><svg id="Layer_1" xmlns="http://www.w3.org/2000/svg" width="343.454483" height="720.90799" xmlns:xlink="http://www.w3.org/1999/xlink" viewBox="0 0 343.454483 720.90799"><defs><radialGradient id="radial-gradient" cx="171.727242" cy="381.836798" fx="171.727242" fy="381.836798" r="295.581226" gradientTransform="translate(0 .028037) scale(1 .943927)" gradientUnits="userSpaceOnUse"><stop offset="0" stop-color="#efffe1"/><stop offset=".156142" stop-color="#e7fad5"/><stop offset=".430864" stop-color="#d1edb8"/><stop offset=".789296" stop-color="#afd989"/><stop offset="1" stop-color="#99cc6a"/></radialGradient><radialGradient id="radial-gradient-2" cx="70.244605" cy="315.365641" fx="70.244605" fy="315.365641" r="16.215103" gradientTransform="translate(-9.521611 -46.987364) scale(1.216598 1.101583)" gradientUnits="userSpaceOnUse"><stop offset="0" stop-color="#ecf6e0"/><stop offset=".110281" stop-color="#e2edd4"/><stop offset=".304404" stop-color="#c8d5b7"/><stop offset=".55956" stop-color="#9eb087"/><stop offset=".862577" stop-color="#657c46"/><stop offset="1" stop-color="#496326"/></radialGradient></defs><path d="M230.443352,83.178733c-3.884195-.860383-7.175249-3.402303-8.970311-6.952653-1.938408-3.833866-4.142747-8.700031-3.879983-10.542352.410156-2.87787,1.509766-5.599495,2.674805-8.481053.387695-.960519.775391-1.920577,1.136719-2.886167.72772-1.945577,1.346993-3.920482,1.859384-5.915915.650912-2.534883,2.32049-4.742955,4.695289-6.076448,1.831078-1.028184,3.757457-2.409411,4.312514-3.859892.393311-1.02591.612793-2.065589.717285-3.111317.285645-2.864274,1.703125-5.55329,3.959961-7.487003.279053-.239266.548584-.448515.79834-.611732l.421875-.275619c3.782262-2.487519,6.41679-5.082817,8.000781-7.87084.471047-.829101,1.26093-1.430001,2.209326-1.719303,1.564599-.477269,2.871233-1.657296,3.386084-3.283476.825684-2.607609-1.428955-3.012857-4.127441-3.774209-2.69873-.761294-4.819092-1.590514-5.644775,1.017152-.448237,1.41549-.198465,2.859171.5535,4.007151.77758,1.187085.891894,2.722757.039685,3.857456-1.401964,1.866687-3.433098,3.66765-6.132004,5.442663l-.414062.270549c-.463135.302697-.938965.615592-1.408936.947383-.901123.636448-2.190674-.224286-1.801514-1.221159l.010254-.026271c.249023-.6236.681641-1.230147,1.139648-1.872183.192383-.27101.385742-.54202.568359-.817179.83025-1.248389,1.464332-2.624845,1.894371-4.051835.197693-.656001.662796-1.192741,1.227013-1.618792,1.171496-.884617,1.93677-2.246361,1.95845-3.795084.037842-2.721394-2.248291-2.528449-5.064697-2.563305-2.816162-.034913-5.096191-.284434-5.134033,2.43696-.021502,1.550213.7012,2.939142,1.847644,3.854394,1.266236,1.010887,1.711744,2.694388.857969,4.036403-.041919.06589-.084496.131368-.127733.196415-.166016.249809-.341797.495469-.516602.741591-.533203.748043-1.084961,1.521437-1.457031,2.453841-.779297,1.950997-.52832,4.002471-.324219,5.670013.341797,2.809657.695312,5.71472-.258789,8.204512-.019287.050354-.039551.100649-.060547.15083-.927979,2.219991-4.480225,1.485429-4.360352-.89847.292521-5.821373-.292372-11.674025-1.742986-17.362577-.341936-1.340893.025352-2.793356,1.077857-3.749992,2.289268-2.080746,3.323141-5.309414,2.395598-8.483314-1.332275-4.559758-5.012207-3.202864-9.685059-1.986314-4.672852,1.216492-8.569336,1.832027-7.236816,6.391785.929015,3.180002,3.578105,5.455224,6.681366,6.128886,1.974142.428551,3.446017,2.003185,3.662835,3.904289,1.188248,10.418817-.620612,24.078933-1.618615,30.148237-.200928,1.222427-2.01709,1.466416-2.505615.318598-.004395-.010197-.008545-.020453-.012939-.03065-.460938-1.101555-.606445-2.3718-.708008-3.476121-.189453-2.070371-.257812-4.202963-.324219-6.265037-.070312-2.196658-.142578-4.46752-.360352-6.713494-.520508-5.37734-1.858398-9.618558-4.089844-12.965626-.303711-.455371-.626953-.899219-.951172-1.342146-.444336-.608851-.865234-1.184057-1.224609-1.783229-.820104-1.36564-1.333168-2.872108-1.693807-4.43422-.191432-.82919-.023016-1.708838.495859-2.401892.815912-1.089803,1.16599-2.494235.830761-3.91903-.624756-2.656868-2.802979-1.973754-5.55249-1.397512-2.749756.576242-5.029297.827434-4.404541,3.484302.420548,1.78765,1.797423,3.123185,3.490711,3.631585,1.215532.364956,2.184467,1.234261,2.516885,2.396673.396502,1.386504.934973,2.752145,1.706271,4.036165.424805.707484.90332,1.361965,1.365234,1.994783.299805.410663.600586.820866.881836,1.242591,1.973633,2.960833,3.165039,6.79277,3.640625,11.7152.209961,2.160246.28125,4.387323.350586,6.541578.067383,2.101251.136719,4.273942.333984,6.422665.119141,1.303891.296875,2.817031.907227,4.273481.184845.441886.403101.863273.645545,1.266569,1.595312,2.653739,1.876683,5.803516,1.146881,8.775953-.176796.720078-.322712,1.449591-.428168,2.18981-.237549,1.663567-.231445,3.273843.000977,4.780357.417725,2.707567-1.810547,5.119812-4.705566,4.97987-2.068115-.099958-4.185791-.192657-5.675293-.234311l-.138184-.00386c-3.377132-.094338-6.311118-2.112739-7.576944-5.06961-2.067642-4.829852-4.923917-9.389147-8.412802-13.391174-.689453-.791368-1.405273-1.56384-2.121094-2.335389-1.21582-1.311726-2.365234-2.55063-3.402344-3.894159-.004639-.005934-.009033-.011811-.013672-.017687-.846191-1.098214-.997559-2.538647-.478271-3.805089.845947-2.063284,2.280518-5.220403,3.790771-7.095063,1.108398-1.376253,2.254883-2.799978,3.186523-4.308048,3.356584-5.43378,3.784442-11.590292,3.408295-18.395773-.090736-1.641653.613043-3.212323,1.869893-4.350249,2.298633-2.081133,3.336858-5.319227,2.407358-8.499774-1.332275-4.559758-5.012207-3.202864-9.685059-1.986314s-8.569336,1.832084-7.236816,6.391785c.867508,2.969464,3.234995,5.148924,6.071396,5.972692,2.159609.627209,3.606151,2.576552,3.662461,4.70871.145211,5.498392-.449881,10.460077-3.089326,14.732892-.838867,1.358277-1.928711,2.711485-2.983398,4.020446l-.05127.063777c-2.056794,2.558563-6.327225,1.5187-6.87476-1.651222-.544674-3.153359-.665034-6.142349-.594478-8.681446.013672-.489017.03418-.978955.054688-1.469355.065962-1.585074-.99732-6.411649-1.598127-9.007847-.240122-1.037611-.107742-2.095633.24665-3.103654,1.516581-4.313706-.665369-9.304568-5.365321-11.694764-5.221924-2.655773-6.916992,1.273644-9.531738,5.854489s-5.158936,8.078455.063232,10.734228c3.477783,1.768778,7.452899,1.661993,10.494162.041916.973966-.518831,2.197484-.04987,2.429702.982771l.004602.020466c.431641,1.92703.347656,3.935179.259766,6.060858-.021484.503305-.041992,1.005688-.055664,1.506688-.189453,6.754515.904297,16.512726,7.18457,24.642571,1.115234,1.445388,2.362305,2.790299,3.568359,4.090964.696289.750348,1.391602,1.500235,2.0625,2.269941,1.982648,2.274068,3.745817,4.739349,5.260697,7.336217.172651.295965.316212.802507.435579,1.4433,1.131767,6.075614,6.362331,10.539793,12.540037,10.712828.039727.001113.079446.002225.119156.003337,3.910156.109695,7.954102.222616,11.889648.54709,1.164062.095868,4.760742,2.765871,5.355469,4.126914l.0625.144262c1.617676,3.695337,3.423828,6.526656,5.511475,8.60757.817139.814586,1.119873,1.963441.73877,3.02605-4.011475,11.184875-24.669922,72.148-9.687744,101.490098,1.993164,3.901994,4.350586,7.567545,6.629883,11.112801,3.867188,6.012924,7.519531,11.692616,9.015625,17.833209,3.680664,15.107437-6.62207,30.661026-17.491211,40.179108-3.261719,2.856208-6.755859,5.501323-10.456055,8.301301-8.333984,6.308362-16.953125,12.831504-22.845703,21.996074-1.29248,2.010108-2.418213,4.101276-3.379883,6.264058-2.612305,5.875287-8.312012,10.099451-15.041992,10.5959-.062988.004667-.126221.009218-.189453.013654-1.828125.128131-3.939453.198188-5.727539-.252574-1.355469-.341989-2.458984-1.010757-2.955078-1.790142-.150391-.237364-.328125-.602399-.517578-.989095-.611328-1.253653-1.449219-2.970051-3.229492-4.338468-2.569336-1.975425-5.640625-2.101251-7.475586-2.175917l-.075439-.003111c-4.631013-.190981-7.093691-3.940733-8.224458-8.184058-3.827924-14.364701-36.477179-56.794576-70.939035-60.51223C23.637293,229.179687-.40671,243.72315.526182,294.625273c1.153127,62.918976,37.925926,65.828722,64.592593,65.828722,28.148438,0,51.48229-15.142802,68.0861-42.531659,2.121135-3.498924,4.826588-6.644424,9.161256-6.162957,1.936361.215079,3.621658,1.357435,4.62683,2.934398l.013184.020683c1.851562,2.913821,5.02832,5.063005,8.945312,6.05164,2.03418.513445,4.039062.671534,5.90918.671534,1.101562,0,2.157227-.054847,3.143555-.123983l.104248-.007375c5.312786-.375826,9.979471,3.279105,10.579343,8.27607,1.582733,13.184239,7.314427,27.296976,17.048831,41.133517,5.394531,7.668022,11.515625,14.928146,17.43457,21.949062,10.359375,12.288562,20.145508,23.89545,26.354492,37.482372,5.973633,13.073016,8.87207,28.282773,9.399414,49.316023.206055,8.255211.146484,19.043998-2.161133,29.28293-2.507812,11.125707-7.482422,21.527798-12.75,32.540583-1.681641,3.51668-3.421875,7.153195-5.056641,10.7851-11.470902,25.468373-18.610111,52.199891-21.286769,79.63699-.389392,3.991461-2.611196,7.568185-6.005371,9.976958-4.842644,3.436721-8.140975,8.51763-11.364111,13.500828-.856445,1.324632-1.714844,2.652029-2.583008,3.922274-2.282227,3.161786-4.675781,5.491644-7.323242,7.127384-3.337891,2.087424-7.235352,3.23553-11.361328,4.450928-2.568359.75634-5.222656,1.53849-7.682617,2.55063-14.132,5.274958-23.190897,16.029184-24.251645,28.784139-.060013.721631.41773,1.445272,1.167245,1.59831.107304.02191.214389.032916.321705.032916.777344,0,1.43457-.566448,1.494141-1.309883.774902-9.744499,6.712891-18.237939,16.265625-23.634522,2.209961-1.248583,4.97583.184361,5.264893,2.60035.07666.640941.345947,1.56263.685303,2.540663,1.047852,3.021211.354248,6.336823-1.797607,8.782309-2.028564,2.3052-4.236572,5.065828-4.799072,6.652655-.996094,2.808274-1.714844,4.837624-5.240234,6.226782-2.762616,1.055742-6.28565,2.622189-9.075594,5.401523-.494851.492969-.60773,1.315764-.173111,1.862575.306853.386063.758973.576763,1.209642.576763.399414,0,.797852-.149793,1.092773-.446614,2.400391-2.410516,5.574219-3.814884,8.086914-4.774942,4.796875-1.890619,5.888672-4.969442,6.944336-7.947328.391156-1.10272,1.327945-2.282408,2.079565-3.422236.909488-1.379234,2.889154-1.889883,4.32586-.995365,2.435033,1.516095.028623,3.828337-.868315,6.299923-.364258.972042-.751953,1.93717-1.138672,2.902298-.803075,2.001149-1.633451,4.069771-2.249936,6.200439-.231341.79955.278723,1.704187,1.141465,1.858376.093745.016754.186792.02494.279369.02494.661133,0,1.266602-.415733,1.447266-1.047169.581055-2.029811,1.397461-4.065153,2.1875-6.033664.394531-.984947.790039-1.969894,1.166016-2.97466,3.137695-8.644673.979492-13.459713-.753906-17.328522-.892465-1.992194-1.648659-3.680334-1.646887-5.627593.002787-3.063422,2.26114-5.722226,5.35929-6.634523l.052245-.015384c4.144531-1.220929,8.430664-2.483338,12.117188-4.788769,1.168749-.722137,2.289598-1.559028,3.372974-2.521523,1.470706-1.306608,3.883406-.309748,3.866456,1.596603-.012971,1.458862-.039332,2.878185-.089039,3.82768-.079102,2.319718-1.577148,4.305283-4.625977,6.097269-2.644531,1.680448-4.519531,3.661864-5.581055,5.904151-1.324219,2.887549-1.628906,6.114783-1.923828,9.23601-.208812,2.205251-.42422,4.484297-1.007117,6.538202-.228448.804963.276697,1.701243,1.144008,1.856911.093766.016829.186808.025101.279125.025101.65918,0,1.263672-.41389,1.446289-1.043021.671875-2.321101.902344-4.763419,1.125977-7.125541.286133-3.03089.556641-5.894011,1.682617-8.347852.820312-1.735756,2.337891-3.315266,4.464844-4.667091,3.865234-2.271324,5.881836-5.092042,5.992188-8.359375.142578-2.730843.119141-5.506393.09668-8.190224-.004882-.570172-.017575-1.412719-.038579-2.269928-.056501-2.305813.637503-4.567319,1.992567-6.486583,2.515041-3.562212,6.694218-9.06795,9.849499-11.141058,1.145468-.752604,2.705401.052262,2.639388,1.368167l-.001468.029267c-.018556.413969.007083.819872.07275,1.213897.235857,1.415231.069152,2.874318-.332391,4.251732-1.170497,4.015157-1.459915,8.302425-.803835,12.692055,3.161133,15.698313-4.803711,20.796807-12.505859,25.727534-7.0625,4.520985-14.366211,9.196372-10.836914,21.514892.180664.630974.786133,1.046708,1.447266,1.046708.129883,0,.261719-.016132.392578-.049777.799805-.203719,1.272461-.98126,1.056641-1.736217-2.970703-10.368906,2.586914-13.927067,9.624023-18.431921.773908-.495434,1.557526-.997112,2.339247-1.514575,2.275256-1.506113,5.393381.102265,5.238181,2.721315-.0326.550129-.069299,1.104371-.106725,1.663295l-.094727,1.462441c-.080078,2.434944.521484,4.774942,1.103516,7.037508.430664,1.670769.836914,3.248896.982422,4.863896.408203,3.757732-.100586,7.653734-.592773,11.433128-.101562.775698.483398,1.47719,1.305664,1.572597.061523.007374.123047.010601.183594.010601.74707,0,1.395508-.530498,1.489258-1.248122.511719-3.924117,1.041016-7.981896.600586-12.032761-.163086-1.807657-.615234-3.566918-1.052734-5.267646-.560547-2.175456-1.088867-4.229695-1.023438-6.242914l.092773-1.409898c.1731-2.585614.343271-5.23161.097126-7.893544-.178241-1.927586.147567-3.888673,1.161574-5.570268,2.547903-4.225355,3.716669-9.883665,2.057707-18.118096-.459717-3.082741-.228027-6.096808.149414-9.034596.381104-2.964693,6.455078-3.244345,7.167236.073571,1.837158,8.558715,3.720947,16.062886,15.114014,18.679137l.020996.005704c.955103.259459,1.387296,1.30863.861468,2.104714-2.303849,3.487943-2.24135,7.58316-2.172504,11.574216.057617,3.313883.111328,6.44525-1.163086,9.119401-1.398438,2.287455-3.410156,4.169317-5.539062,6.161334-.934264.873778-1.899239,1.776544-2.80408,2.714321-.552134.572231-.576904,1.528805.020423,2.053688.290846.255572.658365.381646,1.024868.381646.408203,0,.81543-.156707,1.111328-.46505.870117-.906133,1.830078-1.80443,2.758789-2.67323,1.20752-1.129324,2.94043-3.114716,4.255615-4.672852.852295-1.009951,2.568359-.700455,2.945801.540695.00293.009621.005859.019012.008545.028288.623047,2.127983.813477,4.40622,1.014648,6.818119.387695,4.64635.788086,9.45079,4.447266,13.337574.295898.315257.708008.475651,1.12207.475651.485847,0,.977524-.222998,1.281195-.677372.367918-.550505.201635-1.285796-.246628-1.773115-2.910592-3.164185-3.252108-7.255732-3.613669-11.584892-.203125-2.438631-.414062-4.960685-1.115234-7.359218-.25-.831006-.521484-1.656481-.792969-2.481956-.274516-.835516-.88386-2.607986-1.34822-3.690175-.28852-.672395-.440766-1.397634-.399684-2.128162.078141-1.3895.055963-2.78947.032083-4.171246-.044994-2.590497-.086804-5.100424.54019-7.349475.689389-2.472863,4.270703-2.753338,5.38988-.424716.384733.800498.655728,1.657357.801376,2.560009.387695,1.840841.492188,3.73146.602539,5.733157.079102,1.434326.161133,2.917508.352539,4.336624.961914,9.4153,7.722656,17.049216,14.563477,24.061374.295898.303273.699219.456754,1.103516.456754.449034,0,.89975-.189545,1.207893-.573002.443641-.55207.312633-1.374752-.181802-1.881835-6.735932-6.908246-12.837118-13.81975-13.711638-22.377626l-.003415-.026041c-.193815-1.478047,1.214923-2.692156,2.760218-2.391415,4.024972.78333,5.731745,3.48644,7.892611,6.939363,1.217773,1.946388,2.597656,4.151803,4.616211,6.180692,1.783203,1.631592,3.939453,2.600868,6.024414,3.538343.537109.241973,1.074219.483025,1.62793.748043,3.241211,1.473042,5.744141,4.031507,7.765625,6.340164.296875.338763.725586.513905,1.157227.513905.357573,0,.718465-.120624,1.008486-.367984.59476-.507274.5974-1.436754.081647-2.024176-2.217596-2.525754-4.984831-5.319551-8.683882-7.000556-.548828-.262714-1.107422-.513905-1.666992-.765558-1.952148-.878018-3.796875-1.707641-5.176758-2.967746-1.741211-1.752348-2.976562-3.72639-4.170898-5.634984-2.182139-3.487423-4.425828-7.057991-9.523341-8.187674-2.378877-.527194-4.17202-2.31224-4.582649-4.585983-.033489-.185437-.070152-.369698-.108853-.553317-.822266-5.098034-4.772461-9.081608-10.625977-10.670797-7.1903-1.651689-10.073768-10.311056-11.260092-16.994021-.794275-4.47442,3.190131-8.453382,7.947031-7.804573,3.186175.434573,6.539812,1.309491,8.752514,2.973054,1.223633.960058,2.357422,1.924726,3.455078,2.857591,2.293088,1.949877,4.521988,3.841813,7.16353,5.300036,2.221312,1.226241,3.993001,3.02746,5.253283,5.145212,3.186381,5.35433,8.455451,7.94748,13.58807,10.461254,5.488281,2.687518,10.671875,5.226165,13.632812,11.005411,1.616211,3.05163,2.379883,6.395933,3.189453,9.937041,1.050781,4.604408,2.138672,9.365523,5.261719,13.441738.293945.382548.751953.585806,1.216797.585806.304688,0,.612305-.08711.87793-.268706.671875-.458136.822266-1.343529.336914-1.977268-2.754883-3.594112-3.729492-7.86114-4.760742-12.378438l-.014888-.065564c-.684648-3.015116,2.787989-5.337431,5.58278-3.740836,3.780547,2.159733,5.473636,4.783261,7.12742,7.352117,2.12793,3.305126,4.327148,6.722252,10.730469,8.037665l.163086.024428c4.313477.425412,7.197266,1.628366,9.350586,3.900611.296875.312491.707031.471502,1.119141.471502.368099,0,.738292-.127513,1.029247-.387154.608501-.543013.54328-1.505028-.024597-2.090392-2.626132-2.707003-6.152503-4.203928-11.076915-4.70238-2.039369-.427532-3.896816-1.73617-5.197958-2.961603-.954799-.899242-.259175-2.441806,1.0896-2.438846,3.051056.006695,6.101309.013077,9.141562-.004545.142578.008296.283203.012444.420898.012444,3.491211-.000461,5.447266-2.617922,6.760742-4.375801.477539-.639271.316406-1.522819-.361328-1.97312-.677734-.451223-1.613281-.298664-2.089844.340606-1.674805,2.241365-2.791992,3.286229-4.579102,3.167317l-.057617-.004148-.057617.000461c-3.195312.018436-6.397461.01014-9.601562.003687l-.052002-.000114c-3.008668-.00659-5.860297-1.313527-7.673691-3.579684-2.400865-3.000307-6.016341-6.155782-13.36708-8.430725-1.129883-.349594-11.052734-8.632804-16.734375-11.414807-2.69165-1.318294-5.314941-2.605938-7.592773-4.266625-2.636963-1.922421-.942871-5.927657,2.379395-5.687527.525391.038024.997314.068962,1.381348.089473,1.481445.079275,2.961914.158089,4.451172.275619,13.008789.884931,25.84082,4.350451,38.136719,10.300693.219727.106007.453125.156246.683594.156246.663118,0,1.297224-.416371,1.46904-1.117948.158125-.645673-.253981-1.303058-.879053-1.604795-12.629115-6.096381-25.815736-9.648364-39.177877-10.557218-1.498047-.118452-3.005859-.19911-4.514648-.279767-2.439453-.130435-4.961914-.265479-7.443359-.575666-6.422852-.554465-9.886719-3.500088-14.272461-7.229704-1.119141-.951301-2.275391-1.935326-3.569336-2.949771-4.512772-3.393145-9.739241-4.530955-14.408935-4.667488-2.627204-.076815-4.636587-2.234148-4.426209-4.707266l.002941-.034574c.223716-2.629918,2.003052-4.977671,4.644633-5.840065,5.932671-1.936833,13.180245-.809301,17.702219.284837,1.337891.324014,2.686523.675221,4.040039,1.027811,5.212891,1.358738,10.549805,2.749279,15.869141,2.749279,2.310547,0,4.618164-.262714,6.910156-.904289.366225-.102497.728055-.21404,1.085983-.332901,3.059526-1.016013,6.354843-1.142627,9.423105-.153308,5.454503,1.758729,9.633611,3.75146,13.42646,5.562581,8.896484,4.248131,16.577148,7.914604,34.803711,6.16963,6.868164-.138271,11.760742.943466,15.352539,3.402377.266602.182056.574219.269628.879883.269628.531251,0,1.054961-.266172,1.331427-.762452.351941-.631766.093433-1.432279-.520892-1.848489-4.152136-2.813105-9.595003-4.047314-17.168933-3.890999l-.119141.006914c-17.396484,1.679526-24.369141-1.654637-33.204102-5.873271-2.773618-1.324551-5.749483-2.743419-9.268936-4.106102-2.167697-.839302-1.970376-3.812841.294826-4.377919,7.859012-1.960511,16.253678-2.575493,25.356172-3.05655.833336-.044041,1.576841-.668463,1.555326-1.456042-.021898-.801577-.717163-1.426819-1.582894-1.378912-12.65918.666925-24.003906,1.572597-34.660156,5.919822-.78418.330467-1.561523.680291-2.337891,1.030576-1.867188.842067-3.630859,1.637584-5.5,2.160707-6.744141,1.889236-14.056641-.016592-21.12793-1.859738-1.371094-.35766-2.737305-.713476-4.09375-1.041638-4.826699-1.167537-10.665299-1.969886-16.037264-1.082409-3.098774.511934-5.869578-1.89608-5.44657-4.838589,3.214559-22.360971,9.567773-44.168787,18.986764-65.083216,1.580078-3.507001,3.289062-7.080833,4.942383-10.536674,5.318359-11.120176,10.818359-22.618752,13.616211-35.035905,2.588867-11.48521,2.665039-23.201793,2.442383-32.126694-.568359-22.680513-3.792969-39.299707-10.458008-53.886325-6.896484-15.088079-17.685547-27.886398-28.120117-40.263453-5.748047-6.817658-11.691406-13.868072-16.776367-21.095933-12.576172-17.875151-21.696289-43.689796-9.579102-62.534224,4.702148-7.313128,12.067383-12.887734,19.865234-18.78958,3.716797-2.812883,7.55957-5.721634,11.165039-8.878811,17.530273-15.351715,25.5-34.762591,21.319336-51.925188-1.96582-8.068085-6.341797-14.870994-10.572266-21.450366-2.217773-3.448006-4.3125-6.705198-6.032227-10.073468-14.259766-27.926957,7.237793-90.729022,12.423096-94.085193,5.254395-3.400936,15.1604-4.623363,19.821045-3.612605,1.270508.275619,2.551758.574284,3.839844.87387,7.805664,1.819179,15.878906,3.699658,23.549805,1.075745,7.420898-2.538647,12.170898-8.665874,14.848633-13.358775,2.189453-3.834702,3.788086-7.949633,5.333984-11.929058.71582-1.841763,1.456055-3.745748,2.240234-5.582903,1.413086-3.311118,3.251953-7.091895,6.165039-10.025995.950671-.958027,1.981975-1.774891,3.061028-2.438662,2.676212-1.64625,6.217944-.969204,8.246519,1.359959,1.829832,2.100972,4.7475,3.341059,7.903878,3.069683,4.990234-.428984,4.228271-4.088025,3.788574-8.64473-.439697-4.556705-.390381-8.285515-5.380859-7.856531-3.087507.265443-5.67352,1.914661-7.093247,4.212748-1.032746,1.671688-2.651522,2.988503-4.620402,3.527859-2.915527.798681-5.731315,2.452613-8.094945,4.832964-.26086.262775-.513411.530797-.758143.803259-1.476498,1.643796-4.340182.29873-3.699297-1.769728.1417-.457337.324712-.901598.555096-1.331126.759766-1.416812,2.006836-2.602251,3.327148-3.857287,1.481445-1.408055,3.012695-2.864504,3.977539-4.778168,1.25-2.480112,1.286133-5.215564,1.317383-7.629306.065995-5.166291.126934-10.470181-.496683-15.733317-.243946-2.058833.461028-4.095678,1.94061-5.625801,2.013335-2.082107,2.876869-5.11956,2.003827-8.107136-1.332275-4.559758-5.011963-3.202864-9.685059-1.986314-4.672852,1.21655-8.569336,1.832084-7.236816,6.391785.844509,2.890514,3.110248,5.032482,5.846268,5.904211,2.394368.762875,4.0758,2.814029,4.300674,5.189952.438683,4.634938.385686,9.338739.32718,13.932052-.027344,2.122452-.058594,4.527899-1.026367,6.447093-.745117,1.478112-2.033203,2.702728-3.397461,3.999705-1.425781,1.355973-2.900391,2.757575-3.874023,4.573067-1.062988,1.981301-1.035645,5.306592-.725098,8.160956.434326,3.990026-.17749,8.026834-1.651855,11.788656-.026855.068732-.052734.134756-.077148.197784-1.509766,3.886323-3.071289,7.904925-5.158203,11.561259-2.430664,4.259193-6.699219,9.805223-13.229492,12.039675-6.820312,2.33078-14.44043.554004-21.80957-1.162855-1.303711-.303273-2.600586-.605625-3.886719-.88447-6.379883-1.383742-15.016357-.806924-20.238281-.438433-1.713867.120929-2.511719-2.01875-1.063232-2.89187.013916-.008411.027832-.016765.041748-.025062,2.895508-1.730686,6.629883-2.678761,11.098633-2.818875,1.428711-.043325,2.923828-.010601,4.367188.022123,3.826172.088032,7.783203.176525,11.543945-1.107086,8.881836-3.033655,12.907227-12.07286,15.983398-20.307791l6.156478-16.485569c.528413-1.414962,1.733138-2.455499,3.196097-3.041966,1.374313-.550931,2.495081-1.664879,2.962854-3.142377.825684-2.607609-1.428955-3.012799-4.127441-3.774151-2.69873-.761352-4.819092-1.590514-5.644775,1.017095-.44606,1.408643-.202677,2.847338.539232,3.994401.686256,1.061017.864105,2.34489.426266,3.517308l-6.338789,16.973637c-1.32291,3.542629-2.828844,7.238418-4.829114,10.442898-1.071569,1.716679-3.86502.57967-3.269795-1.331981.700671-2.25031,1.616262-4.438879,2.733675-6.517885.307617-.57244.630859-1.138888.953125-1.705336.833984-1.461519,1.695312-2.972816,2.311523-4.613165,1.231445-3.282542,1.369141-6.770646,1.40918-10.354157.066171-5.949497-.052924-11.955808-.338311-17.922262-.07437-1.554818.799207-2.957504,2.180143-3.807956,1.358797-.836817,2.268845-2.099765,2.388636-3.568275.230469-2.820949-2.74292-2.806546-6.387695-3.071564-3.644531-.265076-6.580566-.70927-6.810791,2.111679-.147871,1.812277.941836,3.492242,2.706365,4.532251,1.820363,1.072918,2.88762,3.0026,2.9773,5.026583.246073,5.553583.345799,11.136512.284353,16.670045-.038086,3.462294-.158203,6.562319-1.237305,9.437885-.539062,1.435248-1.308594,2.786612-2.125,4.217251-.333984.586267-.668945,1.173456-.987305,1.766175-1.663086,3.09484-3.391602,8.162915-4.496094,11.678846-.811035,2.581971-2.937012,4.6051-5.668457,5.383044-2.172119.618588-4.678711,1.190452-6.419434,1.151563-1.485352-.034107-3.022461-.068213-4.539062-.021201-5.010742.156707-9.250977,1.25227-12.604492,3.256732-1.092635.653274-5.496265-.040758-9.340136-.892209Z" fill="url(#radial-gradient)" stroke="#345417" stroke-miterlimit="10"/><path d="M95.930799,300.414243c.378706,23.487831-40.367941,23.488027-39.985895-.001617-.378815-23.486214,40.367832-23.48641,39.985895.001617Z" fill="url(#radial-gradient-2)"/></svg>