<?xml version="1.0" encoding="UTF-8"?><svg id="Layer_1" xmlns="http://www.w3.org/2000/svg" width="264.15263" height="335.94432" xmlns:xlink="http://www.w3.org/1999/xlink" viewBox="0 0 264.15263 335.94432"><defs><radialGradient id="radial-gradient" cx="1045.24052" cy="376.29715" fx="1045.24052" fy="376.29715" r="31.59545" gradientTransform="translate(-799.6487 -218.24472) scale(.89482 .96086)" gradientUnits="userSpaceOnUse"><stop offset="0" stop-color="#ffecd2"/><stop offset=".20984" stop-color="#fee8c9"/><stop offset=".543" stop-color="#fedeb2"/><stop offset=".95579" stop-color="#fdce8d"/><stop offset="1" stop-color="#fdcd89"/></radialGradient></defs><path d="M111.27277,7.88365h.00003c5.64684-1.25027,11.39884-1.99651,17.18552-2.22958l16.7858-.67609c14.36777-.5787,27.63706,7.5735,33.38086,20.50805l3.89597,8.77339-25.55768,96.49077-45.23818-18.70514-16.68132-79.47759c-2.35078-11.20019,4.85928-22.16645,16.22901-24.68381Z" fill="#cfecf8" stroke="#05415a" stroke-miterlimit="10" stroke-width="2.85864"/><path d="M250.44321,30.75371l-40.38672,99.02979-68.07173,166.93018-7.66963-156.05005-2.65192-54.04136c-.98403-20.05276,2.65957-40.03861,10.50675-57.63157l6.00824-13.47015c3.94554-8.84569,11.49601-14.30513,19.66789-14.24748.034.00024.06747.00046.1004.00066,34.78016.15991,64.25314,12.44971,82.48864,29.47998h.0081Z" fill="#cfecf8" stroke="#05415a" stroke-miterlimit="10" stroke-width="2.54524"/><path d="M4.5174,39.88979l44.14849,99.02979,66.91473,150.11104c2.06737,4.63776,8.22899,3.20295,8.50751-1.98108l7.37394-137.24983,3.02465-56.38489c.99357-18.52193-2.68535-36.98206-10.60859-53.23198l-9.60825-19.70571c-3.052-6.2594-8.88593-10.13161-15.20715-10.09357l-4.36455.02626c-38.0197.15991-70.2379,12.44971-90.17192,29.47998h-.00885Z" fill="#cfecf8" stroke="#05415a" stroke-miterlimit="10" stroke-width="3"/><rect x="104.70982" y="116.1353" width="61.88967" height="54.37527" rx="9.46499" ry="9.46499" transform="translate(-14.50059 15.27197) rotate(-6.11727)" fill="url(#radial-gradient)" stroke="#93703e" stroke-miterlimit="10" stroke-width="1.77281"/><path d="M135.40702,295.47423c-.17236,8.58594-8.46533,14.71704-16.69281,12.25586-32.60187-9.7522-89.05969-43.5498-100.99841-101.78052-7.59241-37.03149,9.84784-41.73657.98798-87.99707C9.37498,69.2434-3.92287,58.2174,3.83207,41.18114c5.6712-12.45862,19.63177-19.88489,30.63422-21.27307,12.54834-1.58325,14.68243,5.51599,33.7149,9.36523,25.97241,5.25269,35.82233-5.17188,49.54694,4.38696.78577.54724,10.86316,7.85852,13.48743,20.44434,1.88263,9.02905-.91327,17.15955-2.23181,20.99365-2.81366,8.18188-6.10132,10.33325-8.1308,19.68091-.65833,3.03198-1.4281,6.57788-1.1319,11.2373.76044,11.96191,7.45361,14.07349,6.59735,23.85181-.50024,5.71362-2.32208,11.47778-2.32208,11.47778-.70288,2.22388-1.54822,4.38013-1.78204,7.6123-.22412,3.09766.23578,5.38477.37402,6.16479.67419,3.80469-7.56372,16.73145-10.18207,26.36621-2.62903,9.67456,1.53107,12.08569-2.53882,18.89917-2.68835,4.50073-5.88293,5.75806-6.84424,10.54736-.10822.53931-.13275.94165-.14142,1.05811-.46783,6.28955,6.22272,7.823,8.59851,14.46875,1.9809,5.54102.9679,14.65137,2.53522,16.18579.53693.52563,1.14038,1.04053,1.1405,1.04053.78369.6665,1.39929,1.09546,1.7124,1.32812,12.1521,9.03125,19.08057,23.46338,18.77667,38.60083l-.23804,11.8562Z" fill="#cfecf8" stroke="#05415a" stroke-miterlimit="10" stroke-width="3"/><path d="M238.96032,134.44889c1.07828-45.32048,31.93388-59.10356,21.56565-90.81745-4.2105-12.87904-15.2702-28.92834-28.75054-30.44062-9.75668-1.0947-13.33572,6.2612-30.06575,7.24518-13.15269.77344-14.62199-3.55656-25.26904-1.54331-12.61948,2.3862-20.92898,10.4875-25.46804,14.76976-5.15963,4.86783-11.48742,10.83761-13.49223,20.44114-1.88479,9.02863.90929,17.15975,2.22691,20.9943,2.81168,8.18252,6.09887,10.33471,8.12609,19.68265.27547,1.27011.57049,2.63045.79845,4.12492l.02884.19408c.62049,4.17813,4.42734,7.12223,8.62723,6.67211,5.64698-.60521,10.71539,3.48196,11.32059,9.12882l4.88264,45.55795c.60522,5.6471-3.48194,10.71551-9.12892,11.32072l-5.44771.58385c-4.51495.48389-6.22946,6.1569-2.73825,9.06043l.0834.06939c6.88815,7.18629,7.7967,12.54748,7.4659,16.01066-.67304,7.04617-6.73578,8.94868-6.64084,15.92605.09436,6.93593,6.11985,7.57138,5.75721,14.52707-.37659,7.22335-7.25348,13.80297-8.2059,14.69495-.72874.68237-1.37035,1.20686-1.81581,1.55538-1.42032,1.10884-2.54178,1.73582-3.76774,2.636-1.88758,1.38604-3.94083,3.16601-6.04202,5.50111-8.44317,9.38334-12.22848,22.06622-10.76994,34.6045l.99154,8.52368c.17006,8.57268,8.44542,14.72145,16.66138,12.26823,28.26778-8.44003,60.93461-30.17601,70.13695-41.10265,10.74161-12.75391,27.01509-32.07613,30.91399-60.66245,4.46511-32.73767-12.79809-37.30981-11.98403-71.52646Z" fill="#cfecf8" stroke="#05415a" stroke-miterlimit="10" stroke-width="3"/></svg>