<?xml version="1.0" encoding="UTF-8"?><svg id="Layer_1" xmlns="http://www.w3.org/2000/svg" width="484.091099" height="166.404641" xmlns:xlink="http://www.w3.org/1999/xlink" viewBox="0 0 484.091099 166.404641"><defs><radialGradient id="radial-gradient" cx="238.112383" cy="83.530129" fx="202.937319" fy="83.530129" r="211.799539" gradientTransform="translate(4.12544 58.013834) rotate(-.413911) scale(1 .324707)" gradientUnits="userSpaceOnUse"><stop offset="0" stop-color="#ffefdf"/><stop offset=".285003" stop-color="#fcebda"/><stop offset=".586732" stop-color="#f5e2ce"/><stop offset=".895089" stop-color="#ead3b8"/><stop offset="1" stop-color="#e6cdb0"/></radialGradient><radialGradient id="radial-gradient-2" cx="362.953136" cy="38.826551" fx="362.953136" fy="38.826551" r="35.423932" gradientTransform="translate(-31.106223 -.305543) rotate(.040113) scale(1.107465 1)" gradientUnits="userSpaceOnUse"><stop offset="0" stop-color="#ffefdf"/><stop offset=".285003" stop-color="#fcebda"/><stop offset=".586732" stop-color="#f5e2ce"/><stop offset=".895089" stop-color="#ead3b8"/><stop offset="1" stop-color="#e6cdb0"/></radialGradient></defs><path d="M483.843914,106.202125c-3.440679.877719-7.049977-.104789-10.499325-.967311-3.439468-.852261-7.498395-2.295289-10.289967-.107057-13.917703,10.950221-29.875878,22.518887-47.464297,20.47679-14.028892-1.629938-27.481653-11.919387-41.034513-7.908853-8.591857,2.524016-14.527177,10.219814-21.97061,15.204595-8.574077,5.72398-19.505476,7.816426-29.584026,5.629439-4.829349-1.04342-9.427794-3.056649-13.505925-5.839534,2.286038-1.978278,10.774657-9.209883,12.947799-11.22092,17.331474-16.287921,19.06781-25.366786,17.732374-46.137745,3.20801,2.962451,12.329505.648768,36.855483-7.854086,3.921018-1.355215,7.82271-3.215157,11.468414-5.50111,3.620823-2.270352,7.486569-4.137044,11.602981-5.285961.752416-.210004,1.507501-.410093,2.266657-.595097,5.820939-1.416092,12.740806-1.161248,18.489587.582767,6.898452,2.074898,8.942172,11.11637,14.83929,15.270401,6.296831,4.424575,14.818431,2.17053,22.508461,2.045786,8.960179-.13362,17.918041,3.042573,24.793904,8.787378M101.031345,123.954178c-13.780684.930295-29.449895-.090439-44.74819-2.601149C22.107152,115.729007,3.911333,95.346148,1.331713,80.564553c-2.141302-12.461463,5.48845-26.396311,40.443579-33.781756,16.732468-3.548347,29.883662-5.039141,40.313724-5.221781-13.616992,9.830314-19.464884,21.326223-14.384023,34.159861,1.317744,3.320992,2.845428,6.671915,4.593068,10.043257.009989.030036.019977.060073.039976.090116,6.130798,12.994285,15.801574,26.251058,28.693308,38.099929ZM340.175425,75.331529c-.118798-1.710045-.247543-3.50994-.386235-5.400174-.02984-.27004-.049671-.540074-.069494-.819873-.218038-2.760407-.486063-5.610449-.773971-8.480768-.744792-7.440465-1.589461-15.020892-1.804889-21.511278-.049209-1.199986-.068416-2.359912-.067632-3.480029l.000252-.359863c-.005838-5.959966-.832422-10.950781-2.499432-15.111861-1.627169-4.051189-4.044924-7.322902-7.29311-9.91502-2.448585-1.95191-5.357391-3.53378-8.746659-4.776143-8.67769-3.206026-20.487017-4.254332-35.597059-4.0049-18.690276.296975-42.441887,2.590164-71.563744,5.239945-55.263545,5.031141-104.102081,17.097054-128.67415,34.419702-.210188.149999-.410237.289752-.610286.429749-13.616992,9.830314-19.464884,21.326223-14.384023,34.159861,1.317744,3.320992,2.845428,6.671915,4.593068,10.043257.009989.030036.019977.060073.039976.090116,1.288296,2.490893,2.686448,4.991872,4.204724,7.482926,4.654535,7.683192,10.389176,15.327345,17.154105,22.602101l-.000007.009766c2.518122,2.711724,5.176293,5.373742,7.974407,7.965545,12.302089,11.388741,27.325059,21.479338,44.899974,28.861515,22.833139,9.586054,49.979786,14.595048,81.061631,11.906844.430082-.039738.850024-.069473,1.269974-.109218,7.260484-.674849,14.261294-1.830105,21.00241-3.43525,21.743576-5.114663,40.790323-14.691421,56.988776-26.670075.830383-.609526,1.650892-1.238835,2.471279-1.868388,2.271237-1.738401,4.472563-3.526655,6.623745-5.355228,2.211276-1.87858,4.362773-3.807006,6.453996-5.775513,17.331474-16.287921,19.06781-25.366786,17.732374-46.137745Z" fill="url(#radial-gradient)" stroke="#baa388" stroke-miterlimit="10" stroke-width="2"/><path d="M399.202311,58.812963c-5.351645,3.766274-11.511157,6.731933-17.714426,8.667531-27.161021,8.501006-37.262583,10.814002-40.815565,7.851309-.929687-.780436-1.416237-1.930924-1.625675-3.43107-.385582-2.670192.071034-6.459912.262718-11.269838.146551-3.67983.14954-7.949848-.489503-12.770121-.407452-3.100384-.948062-6.010919-1.510969-8.741294-.286993-1.370074-.574014-2.700354-.861062-3.990594-1.258474-5.790677-2.340452-10.721611-1.98302-14.961352.580852-7.069663,5.180313-12.196327,19.679861-16.096333,3.212284-.867624,6.590467-1.57522,10.046244-2.082811,19.349386-2.856571,28.313524-.050336,36.440343,18.365269,6.744956,15.274745,11.291006,29.498235-1.428946,38.459302Z" fill="url(#radial-gradient-2)" stroke="#baa388" stroke-miterlimit="10" stroke-width="2.059809"/><path d="M282.916678,18.090344c-.81229-8.922387-31.524847-10.1743-70.758905-6.602448-39.234058,3.571853-72.132477,10.614883-71.320186,19.53727s31.805488.042619,71.039546-3.529233c39.234058-3.571853,71.851836-.483202,71.039546-9.405589Z" fill="#fff9f3" opacity=".34"/><path d="M315.989055,127.244787c-2.40272,2.068375-4.572389,3.304357-7.233703,5.132573-.860405.599251-1.730813,1.18873-2.601221,1.778209-16.747924,11.328123-35.405,21.395143-56.988776,26.670075-6.390997,1.575605-13.031808,2.710849-19.962308,3.34589-.349997.030028-.689983.059576-1.040102.08936-.41995.039745-.839893.06948-1.269974.109218-30.961818,2.468317-58.17831-2.510696-81.061631-11.906844-17.934914-7.362654-33.207891-17.443172-45.539894-28.821924-4.617026-4.243223-7.335144-7.065195-7.334486-8.005136l.000007-.009766c.041201-1.660128,8.768155,2.666051,30.84925,15.521598,29.15805,16.970122,71.941813,25.950268,106.224032,22.834129,20.471275-1.855544,39.935004-7.231813,58.031975-17.059235,1.550514-.839003,8.616776-4.478179,15.925777-8.358971,6.615319-3.512474,13.633622-2.724568,12.001055-1.319176Z" fill="#a18f7b" opacity=".25"/><path d="M61.856796,56.300985c.540308,3.847773-9.857773,5.857774-22.017953,7.565319s-21.477645,2.466021-22.017953-1.381752c-.540308-3.847773,8.879459-8.351248,21.039638-10.058793,12.16018-1.707545,22.455959.027453,22.996267,3.875226Z" fill="#fff9f3" opacity=".34"/><ellipse cx="360.362632" cy="11.534509" rx="17.730846" ry="7.035362" transform="translate(3.051481 59.732155) rotate(-9.51555)" fill="#fff9f3" opacity=".34"/><path d="M100.263905,123.606528c-13.780684.930539-29.449895-.090683-44.74819-2.601393-27.146903-4.468955-44.217216-18.250683-51.378242-31.135826,9.103354,9.476345,23.757414,18.016635,44.045002,21.350905,14.48845,2.380016,29.307671,3.420419,42.548148,2.729736,2.94764,3.302113,6.125561,6.524309,9.533282,9.656578Z" fill="#a18f7b" opacity=".25"/><path d="M483.848858,106.202332c-3.450688.877468-7.059865-.10504-10.499325-.967311-3.449477-.852513-7.498395-2.295289-10.299854-.107308-13.917825,10.950221-29.875878,22.519131-47.454409,20.476796-14.038902-1.629945-27.481775-11.919387-41.044523-7.90886-8.591735,2.524016-14.527055,10.219814-21.9606,15.204846-8.583965,5.723973-19.505476,7.816182-29.593914,5.629188-4.829349-1.04342-10.267858-3.547155-14.355876-6.330046,1.210696-1.049202,4.152393-3.557153,6.984179-5.995113,2.109369.88136,5.1489,2.063591,7.378544,2.545132,10.088437,2.186994,21.009949.094541,29.593914-5.629432,7.433545-4.984544,13.368865-12.680586,21.9606-15.204358,13.562747-4.010527,27.005621,6.278671,41.044523,7.908616,17.578531,2.042335,33.536584-9.526575,47.454409-20.476796,2.801459-2.187981,6.850377-.745205,10.299854.107063,3.319364.832402,6.798686,1.774779,10.139284,1.047137l.353195,9.700445Z" fill="#a18f7b" opacity=".25"/><path d="M400.471899,58.249475c-5.481155,3.74789-11.801225,6.687108-18.166165,8.59445-27.889804,8.387752-38.266492,10.660269-41.926598,7.685762-.964962-.782863-1.472931-1.94072-1.696147-3.439056-.334645-2.24249-.073626-5.265456.109665-9.021428.028098.521258.068596,1.012886.14434,1.465638.22288,1.50834.731185,2.656193,1.696147,3.439056,3.659762,2.984755,14.036458.711994,41.926598-7.685762,6.364931-1.907098,12.68501-4.84656,18.166165-8.59445,8.349768-5.702662,2.986363-12.62657,4.67016-21.364726,1.479319,11.916294,5.746569,21.62477-4.924165,28.920516Z" fill="#a18f7b" opacity=".25"/></svg>