<?xml version="1.0" encoding="UTF-8"?><svg id="Layer_1" xmlns="http://www.w3.org/2000/svg" width="433.13142" height="597.63452" viewBox="0 0 433.13142 597.63452"><line x1="52.1446" y1="7.84424" x2="7.29279" y2="2.79462" fill="none" stroke="#515ba7" stroke-miterlimit="10" stroke-width="3.6"/><line x1="38.62092" y1="39.36865" x2="4.02387" y2="38.04651" fill="none" stroke="#515ba7" stroke-miterlimit="10" stroke-width="3.6"/><line x1="48.08686" y1="47.70703" x2="3.01045" y2="47.2002" fill="none" stroke="#515ba7" stroke-miterlimit="10" stroke-width="3.6"/><line x1="48.78694" y1="55.78455" x2="8.03401" y2="56.24988" fill="none" stroke="#515ba7" stroke-miterlimit="10" stroke-width="3.6"/><line x1="46.4781" y1="63.65625" x2="22.8747" y2="65.10791" fill="none" stroke="#515ba7" stroke-miterlimit="10" stroke-width="3.6"/><line x1="49.9333" y1="79.64319" x2="16.1258" y2="82.8584" fill="none" stroke="#515ba7" stroke-miterlimit="10" stroke-width="3.6"/><line x1="40.53059" y1="72.3512" x2="32.11128" y2="72.86084" fill="none" stroke="#515ba7" stroke-miterlimit="10" stroke-width="3.6"/><line x1="32.01045" y1="21.92456" x2="8.42768" y2="20.50085" fill="none" stroke="#515ba7" stroke-miterlimit="10" stroke-width="3.6"/><line x1="20.87483" y1="29.99335" x2="12.95271" y2="29.5697" fill="none" stroke="#515ba7" stroke-miterlimit="10" stroke-width="3.6"/><line x1="46.50092" y1="14.88727" x2="5.7165" y2="11.14661" fill="none" stroke="#515ba7" stroke-miterlimit="10" stroke-width="3.6"/><path d="M27.62385,31.4104C16.28596,25.65601,5.58064,19.67682,6.4781,10.01917c.37073-4.00336,2.62244-6.91479,5.96411-9.32031-.35083-.03979-4.4541-.50568-6.15564-.69885C3.93952,2.59296,2.36335,5.64801,1.99787,9.5976c-.60266,6.41589,2.27368,11.42542,6.79883,15.52301,4.53418,4.10693,10.7135,7.32611,16.82947,10.36859,11.4436,5.7157,22.27112,10.56549,22.32996,19.2121l4.49976-.03748c-.01306-2.83618-.8291-5.29626-2.18567-7.51526-1.38489-2.21436-3.34009-4.18127-5.66809-5.99731-4.69653-3.62781-10.86926-6.64954-16.97827-9.74084Z" fill="#e2a78a"/><path d="M49.72382,86.05249c1.8042-.19617,3.3075-.3595,4.47241-.48621-.00317-.03699-.01416-.16211-.01746-.19922-.573-5.54138-4.10095-9.36804-9.08459-12.52942-2.48352-1.57739-5.349-2.97437-8.38904-4.29724-3.01294-1.32581-6.20508-2.57495-9.37158-3.85071-11.81934-4.74451-22.97717-9.88574-22.83142-19.68677.18787-9.79468,11.5-14.49872,23.43091-18.92297,6.41089-2.37756,12.89575-4.67383,17.96814-7.77728,5.04077-3.10931,8.66089-7.00488,9.29053-12.75012l-4.47131-.50763c-.97522,8.75073-12.30273,12.37762-24.31177,16.75519-6.42676,2.32697-12.9176,4.81622-17.90527,8.38-2.47668,1.78351-4.56384,3.83832-6.07434,6.26221C.96369,38.87317.03999,41.66925.00276,44.92804c-.05554,3.25604.73083,6.09576,2.15674,8.58453,1.39685,2.48584,3.44287,4.62195,5.87488,6.49329,4.8302,3.74316,11.32947,6.43323,17.64514,8.92261,5.97632,2.32715,11.73816,4.45972,16.15723,7.04333,2.21143,1.29187,4.06628,2.6991,5.40869,4.31555,1.37561,1.61047,2.25049,3.42566,2.45935,5.56287.00061.00659.01843.19556.01904.20227Z" fill="#c7873a"/><path d="M11.14509,90.24646c3.85645-4.54077,10.23254-8.3147,16.95081-11.93201,5.97009-3.2395,12.1676-6.38232,16.73206-10.06689,2.3175-1.84839,4.24377-3.83533,5.55908-6.05701,1.35693-2.22974,2.08691-4.69128,2.06885-7.52673l-4.49976.03748c.04895,4.34082-2.6239,7.71289-6.69922,10.78491-4.11438,3.07117-9.60217,5.82239-15.27039,8.79968-8.50085,4.47351-17.13977,9.38965-20.96106,16.62585,1.82458-.19836,3.88721-.42261,6.11963-.66528Z" fill="#e2a78a"/><line x1="51.73029" y1="88.38855" x2="6.88154" y2="93.46936" fill="none" stroke="#515ba7" stroke-miterlimit="10" stroke-width="3.6"/><line x1="46.24287" y1="121.40796" x2="12.57514" y2="129.48218" fill="none" stroke="#515ba7" stroke-miterlimit="10" stroke-width="3.6"/><line x1="57.58576" y1="126.5791" x2="14.21198" y2="138.86121" fill="none" stroke="#515ba7" stroke-miterlimit="10" stroke-width="3.6"/><line x1="60.50715" y1="133.80774" x2="21.72712" y2="146.34277" fill="none" stroke="#515ba7" stroke-miterlimit="10" stroke-width="3.6"/><line x1="60.57978" y1="141.73608" x2="38.59528" y2="150.4314" fill="none" stroke="#515ba7" stroke-miterlimit="10" stroke-width="3.6"/><line x1="68.81318" y1="155.14148" x2="38.08601" y2="169.59741" fill="none" stroke="#515ba7" stroke-miterlimit="10" stroke-width="3.6"/><line x1="57.61994" y1="151.62256" x2="49.82063" y2="154.83435" fill="none" stroke="#515ba7" stroke-miterlimit="10" stroke-width="3.6"/><line x1="35.40351" y1="106.47607" x2="12.18989" y2="110.88452" fill="none" stroke="#515ba7" stroke-miterlimit="10" stroke-width="3.6"/><line x1="26.6518" y1="117.09241" x2="18.88789" y2="118.72314" fill="none" stroke="#515ba7" stroke-miterlimit="10" stroke-width="3.6"/><line x1="47.82124" y1="96.30823" x2="7.29182" y2="102.20129" fill="none" stroke="#515ba7" stroke-miterlimit="10" stroke-width="3.6"/><path d="M33.55354,116.71875c-6.27551-1.30823-12.27124-2.77979-17.03918-5.16675-4.67029-2.39062-8.0835-5.73315-8.75439-10.65894-.30933-2.04602-.06531-3.9314.59692-5.69495.65662-1.76392,1.70129-3.40613,3.06982-4.97644-.35095.03821-4.45642.48462-6.15881.66968-.86121,1.5636-1.47913,3.20544-1.83655,4.96484-.36365,1.75903-.43372,3.63647-.12708,5.66663.2384,1.64807.65674,3.15845,1.24292,4.54053.61353,1.38196,1.38416,2.6355,2.28723,3.77295,1.78625,2.27673,4.17212,4.08386,6.89771,5.54688,5.4021,2.93494,12.28625,4.47632,18.94824,5.79871,6.26184,1.2334,12.37976,2.23621,17.14148,3.91846,4.84448,1.66248,8.30054,3.98962,9.58557,7.95837l4.28882-1.36255c-.40186-1.29138-.97083-2.43652-1.6875-3.46289-.70044-1.03345-1.51636-1.96167-2.48022-2.78528-.95935-.82556-2.04761-1.55444-3.24304-2.20789-1.17822-.66003-2.44812-1.24988-3.81372-1.77856-5.48474-2.10657-12.23303-3.33923-18.91821-4.7428Z" fill="#e2a78a"/><path d="M70.7071,160.99622c1.62219-.81348,2.974-1.49121,4.02148-2.01648-.0155-.03174-.06787-.13879-.0835-.17065-1.2251-2.34766-2.8761-4.11414-5.02356-5.41504-2.17139-1.28601-4.66809-2.19885-7.53015-2.8175-5.74731-1.22534-12.52966-1.49329-19.39026-1.92761-6.34839-.43237-12.55737-1.06299-17.58752-2.82556-4.96167-1.77161-8.79773-4.69385-10.11096-9.56323-.70593-2.42273-.53162-4.76013.15247-6.97803.34839-1.11011.83948-2.19336,1.45154-3.25159.63232-1.06104,1.38818-2.09778,2.24036-3.11279,1.7052-2.03003,3.80347-3.97351,6.12061-5.86267,2.33984-1.89282,4.91675-3.73657,7.52698-5.56189,5.55737-3.89807,11.37048-7.69409,15.51746-11.81091,2.09082-2.0636,3.82019-4.2229,4.89612-6.53503,1.08997-2.31702,1.62476-4.81335,1.29065-7.57605l-4.47363.48633c.24536,2.12842-.20117,4.0802-1.20264,5.94421-.99292,1.86108-2.4707,3.61694-4.35498,5.35034-3.78271,3.46753-8.90942,6.78113-14.22791,10.37732-2.85181,1.92261-5.63269,3.89417-8.24951,6.00049-2.59253,2.10303-5.03479,4.33948-6.92737,6.74939-1.90405,2.41077-3.40845,5.01392-4.17126,7.83606-.71814,2.81555-.86792,5.87427.0708,9.13293.45557,1.63062,1.07678,3.09961,1.83887,4.41809.76758,1.31763,1.73108,2.47571,2.7782,3.50342,2.09937,2.05579,4.67554,3.56458,7.60522,4.6593,2.91431,1.09839,6.07629,1.81104,9.40503,2.27856,3.3429.46313,6.79456.69824,10.19568.87598,6.32483.34961,12.58252.41162,17.51025,1.34863,2.4624.47217,4.71985,1.1001,6.50244,2.10852.89783.50122,1.69092,1.09082,2.36621,1.78967.70117.68396,1.29504,1.47083,1.7561,2.39136.00281.00574.08386.1687.08679.17444Z" fill="#c7873a"/><path d="M36.01765,178.39038c1.89697-5.66943,6.72241-11.49939,11.77234-17.10364,2.29077-2.52429,4.66675-5.03162,6.83655-7.49646,2.17773-2.46887,4.14709-4.89136,5.7981-7.33545,3.23474-4.87036,4.901-9.61914,3.27161-14.75867l-4.28882,1.36255c.59583,2.00879.57874,3.94458-.02661,5.93347-.60571,1.98828-1.74829,4.00452-3.1969,6.05408-2.94141,4.11755-7.35083,8.47607-11.68591,13.11987-3.28564,3.50562-6.58911,7.17468-9.10999,10.98816-2.54895,3.823-4.45325,7.85071-4.87305,11.99524,1.64075-.82263,3.49536-1.75256,5.50269-2.75916Z" fill="#e2a78a"/><line x1="73.33173" y1="162.40125" x2="33.16914" y2="182.99048" fill="none" stroke="#515ba7" stroke-miterlimit="10" stroke-width="3.6"/><line x1="80.27277" y1="194.19971" x2="52.68427" y2="215.1167" fill="none" stroke="#515ba7" stroke-miterlimit="10" stroke-width="3.6"/><line x1="92.63752" y1="194.14197" x2="58.17744" y2="223.20483" fill="none" stroke="#515ba7" stroke-miterlimit="10" stroke-width="3.6"/><line x1="98.1468" y1="199.3042" x2="68.28205" y2="227.03699" fill="none" stroke="#515ba7" stroke-miterlimit="10" stroke-width="3.6"/><line x1="101.43916" y1="206.28223" x2="85.36006" y2="223.61755" fill="none" stroke="#515ba7" stroke-miterlimit="10" stroke-width="3.6"/><line x1="114.41389" y1="214.46008" x2="93.425" y2="241.14954" fill="none" stroke="#515ba7" stroke-miterlimit="10" stroke-width="3.6"/><line x1="102.94502" y1="216.36914" x2="97.35932" y2="222.68921" fill="none" stroke="#515ba7" stroke-miterlimit="10" stroke-width="3.6"/><line x1="64.58076" y1="184.86694" x2="44.77058" y2="197.73462" fill="none" stroke="#515ba7" stroke-miterlimit="10" stroke-width="3.6"/><line x1="60.60786" y1="198.02563" x2="54.09821" y2="202.5603" fill="none" stroke="#515ba7" stroke-miterlimit="10" stroke-width="3.6"/><line x1="72.38679" y1="170.95862" x2="36.81794" y2="191.2616" fill="none" stroke="#515ba7" stroke-miterlimit="10" stroke-width="3.6"/><path d="M66.80964,194.98706c-3.12329.61743-6.25439,1.18774-9.25183,1.53174-2.97168.32715-5.83765.44678-8.4978.21155-2.66736-.23022-5.12122-.82104-7.18018-1.94763-2.06067-1.12292-3.88098-2.70068-5.10803-4.95386-1.02795-1.87097-1.52197-3.76917-1.58801-5.68616-.05774-1.92151.38025-3.89392,1.08936-5.87366-.31567.1582-4.0072,2.0094-5.53796,2.77698-.22864,1.80969-.26404,3.64368.08105,5.46533.35095,1.81885,1.0083,3.65845,2.03455,5.52551,1.68286,3.02478,3.98486,5.17712,6.51172,6.70703,2.59619,1.495,5.5365,2.30933,8.6123,2.67041,3.05652.37524,6.40881.19861,9.73169-.19189,3.34607-.40576,6.70325-1.047,10.04626-1.77832,6.29626-1.40125,12.18726-2.88879,17.24219-3.39026,2.53589-.25708,4.82776-.23828,6.80542.22949.98901.23401,1.89978.58069,2.72546,1.06396.82495.48413,1.63403,1.03235,2.31848,1.77893l3.3175-3.04028c-1.82422-1.84082-3.80359-3.1228-6.20862-3.75952-2.37402-.66467-5.13257-.73584-7.98621-.60645-2.88452.15857-6.00806.65088-9.25842,1.27515-3.18518.64099-6.55603,1.31934-9.89893,1.99194Z" fill="#e2a78a"/><path d="M118.62763,218.79285c1.07825-1.45972,1.97668-2.67615,2.67285-3.61877-.0271-.02148-.11829-.09424-.14539-.11584-2.04077-1.60132-4.30518-2.33936-6.79236-2.48877-2.44141-.1969-5.05139.13916-7.87354.87659-5.67468,1.51453-11.82886,4.22412-18.19604,6.7887-2.95496,1.177-5.97131,2.34473-8.82605,3.19031-2.86133.85266-5.65955,1.47827-8.32178,1.71399-2.65063.22766-5.21301.10059-7.47021-.63379-2.22742-.75525-4.22717-2.05933-5.8894-4.03967-.82556-.99341-1.49072-2.02332-1.95056-3.12195-.44434-1.10974-.72583-2.25842-.86377-3.43689-.26428-2.36609-.0033-4.81396.75928-7.3916.75696-2.57458,1.91833-5.21118,3.31165-7.87024,1.38623-2.65454,3.01501-5.33899,4.75305-8.04626,3.68713-5.77148,7.54492-11.37598,9.9939-16.69202,1.19714-2.64258,1.99695-5.18335,2.26318-7.68201.12012-1.24146.08252-2.45752-.14502-3.651-.22437-1.19568-.57141-2.41089-1.17493-3.59045l-4.02246,2.01709c.46204.91992.74243,1.86389.8667,2.83643.13123.96814.14673,1.94019.00562,2.95801-.26624,2.02502-1.08875,4.19214-2.21643,6.45691-2.19104,4.48694-5.86768,9.53491-9.36353,14.83984-3.72913,5.66467-7.45557,11.71338-9.00647,17.71667-.79138,3.00952-1.13379,6.0708-.61877,8.99548.49634,2.93555,1.64514,5.88049,3.93555,8.52356,1.12183,1.33691,2.32654,2.4552,3.5946,3.37378,1.27075.91663,2.58081,1.65125,4.03271,2.13855,2.85828,1.00891,5.8877,1.31519,8.98755,1.12561,3.073-.16321,6.33423-.92822,9.55518-1.93481,3.22327-1.00818,6.43457-2.28162,9.56421-3.59521,2.93762-1.26538,5.83423-2.51318,8.5332-3.67578,2.7417-1.16187,5.3407-2.18005,7.74756-2.88,1.20361-.34985,2.35925-.62,3.46179-.78772,1.11414-.18103,2.20471-.29309,3.22461-.26318,2.04761.05188,3.87061.59888,5.46289,1.84619.005.00391.14563.11438.15063.11829Z" fill="#c7873a"/><path d="M95.57234,250.00769c-.40881-3.02856-.21985-6.37048.32532-9.85608.55859-3.50293,1.41162-7.07764,2.48877-10.79028.94348-3.29956,1.953-6.5791,2.82275-9.7373.88245-3.17249,1.5647-6.15527,2.03711-9.07361.44409-2.88855.54651-5.56384.07666-7.94922-.25366-1.17285-.5769-2.35498-1.0835-3.45178-.50745-1.09607-1.18799-2.1178-2.07764-3.06348l-3.3175,3.04028c1.38586,1.47449,2.10168,3.2489,2.35046,5.29651.27893,2.01306.14417,4.23987-.31921,6.72705-.45581,2.47827-1.2074,5.17969-2.08667,8.03748-.86499,2.79443-1.79333,5.79333-2.73474,8.83472-1.38281,4.57788-2.71582,9.36914-3.26489,13.94666-.52856,4.54688-.34436,8.98169,1.12585,12.9906,1.09045-1.47644,2.32312-3.14526,3.65723-4.95154Z" fill="#e2a78a"/><line x1="121.61457" y1="218.78601" x2="95.17292" y2="255.36719" fill="none" stroke="#515ba7" stroke-miterlimit="10" stroke-width="3.6"/><line x1="142.34394" y1="244.07263" x2="126.89961" y2="275.06018" fill="none" stroke="#515ba7" stroke-miterlimit="10" stroke-width="3.6"/><line x1="153.64765" y1="238.73657" x2="135.07417" y2="279.81165" fill="none" stroke="#515ba7" stroke-miterlimit="10" stroke-width="3.6"/><line x1="161.23506" y1="241.26099" x2="145.47944" y2="278.84802" fill="none" stroke="#515ba7" stroke-miterlimit="10" stroke-width="3.6"/><line x1="167.55378" y1="246.52075" x2="159.49445" y2="268.7533" fill="none" stroke="#515ba7" stroke-miterlimit="10" stroke-width="3.6"/><line x1="183.97346" y1="249.97437" x2="172.83527" y2="282.05273" fill="none" stroke="#515ba7" stroke-miterlimit="10" stroke-width="3.6"/><line x1="173.24629" y1="255.49561" x2="170.30854" y2="263.4021" fill="none" stroke="#515ba7" stroke-miterlimit="10" stroke-width="3.6"/><line x1="124.01948" y1="242.75085" x2="112.25276" y2="263.23486" fill="none" stroke="#515ba7" stroke-miterlimit="10" stroke-width="3.6"/><line x1="126.44416" y1="256.28613" x2="122.68488" y2="263.27234" fill="none" stroke="#515ba7" stroke-miterlimit="10" stroke-width="3.6"/><line x1="124.62361" y1="226.79797" x2="102.24275" y2="261.09753" fill="none" stroke="#515ba7" stroke-miterlimit="10" stroke-width="3.6"/><path d="M130.60713,250.77087c-2.51062,1.95728-5.05103,3.90918-7.54688,5.55225-2.49646,1.64294-4.98901,3.05518-7.45557,4.06042-4.94861,2.0741-9.7323,2.25928-14.07764-.51343-3.56934-2.39087-5.20691-5.95374-5.78174-10.08643-.20972.28406-2.66321,3.60596-3.68054,4.9834,1.28479,3.40051,3.41577,6.4718,6.98083,8.85706,2.92688,1.86047,5.89929,2.82068,8.86182,2.99426,2.98706.11108,5.94556-.49072,8.84192-1.57922,2.8877-1.06104,5.75537-2.72681,8.54443-4.59729,2.79041-1.87561,5.5127-3.99316,8.16138-6.11853,4.96204-3.99597,9.67688-8.06982,14.02832-10.62317,2.16296-1.26416,4.32666-2.2594,6.38135-2.6582,2.07971-.42395,4.02588-.24292,6.04504.56689l1.75354-4.14441c-5.13782-2.20764-10.15063-.92676-15.27087,1.86597-2.56201,1.40186-5.20056,3.26331-7.81482,5.22253-2.61926,1.96472-5.28101,4.11377-7.97058,6.2179Z" fill="#e2a78a"/><path d="M189.99616,252.97681c.59668-1.71399,1.09375-3.14209,1.479-4.24878-.0376-.01331-.16443-.05847-.20215-.0719-5.60962-1.96655-10.75525-.37781-15.71875,2.8645-4.99524,3.27283-9.80237,8.18408-14.66833,12.97583-4.55286,4.50574-9.05457,8.76355-13.60144,11.43262-4.53943,2.71875-9.125,3.65063-13.66467,1.63293-2.26196-1.0564-3.96338-2.66272-5.21606-4.60889-.62646-.97656-1.14062-2.04529-1.55823-3.19116-.41138-1.17273-.72461-2.42444-.9574-3.73474-.91724-5.26855-.59521-11.39441.04321-17.80945.3302-3.40552.71802-6.8092.97876-10.07495.13403-1.63757.22083-3.22107.28052-4.78882.06555-1.57483.078-3.09888.01343-4.55603-.1217-2.92358-.58301-5.54016-1.49744-7.83704-.87903-2.3385-2.2594-4.29443-4.401-5.78577l-2.67346,3.61987c1.66699,1.16272,2.7312,2.75012,3.3855,4.69543.32935.96948.5448,2.04053.69763,3.16711.16626,1.11035.24878,2.30029.26758,3.55811.08728,5.00671-.8999,11.21277-1.56836,17.49292-.74023,6.72913-1.31372,13.84668-.04077,19.85388.62622,3.01599,1.6803,5.87549,3.35864,8.27429,1.68054,2.36401,3.96899,4.38513,7.00415,5.81213,3.03638,1.35376,6.00586,1.79761,8.87354,1.52905,2.86572-.32947,5.63745-1.34644,8.31775-2.82324,5.35803-2.94446,10.36853-7.86487,15.18628-12.65417,9.04358-9.03955,17.15979-17.77344,25.67896-14.7948.00671.00232.19641.06873.20312.07104Z" fill="#c7873a"/><path d="M177.23908,289.62598c-2.30835-5.34607-3.01282-12.74487-3.57031-20.3158-.98108-13.66797-1.7124-27.52234-12.00537-31.8457l-1.75354,4.14441c2.00085.8269,3.50146,2.19299,4.65295,3.98438,1.16309,1.78088,2.00659,3.95508,2.60571,6.45142,1.19568,4.99695,1.5365,11.17261,1.9679,17.53015.63708,9.6051,1.49902,19.44043,6.0791,25.86475.60327-1.7334,1.2854-3.69275,2.02356-5.8136Z" fill="#e2a78a"/><line x1="193.12226" y1="252.24048" x2="178.17756" y2="294.82959" fill="none" stroke="#515ba7" stroke-miterlimit="10" stroke-width="3.6"/><line x1="221.46174" y1="273.94812" x2="209.602" y2="306.47498" fill="none" stroke="#515ba7" stroke-miterlimit="10" stroke-width="3.6"/><line x1="232.96674" y1="267.88782" x2="217.18208" y2="310.11316" fill="none" stroke="#515ba7" stroke-miterlimit="10" stroke-width="3.6"/><line x1="241.59077" y1="270.43201" x2="226.66584" y2="308.35632" fill="none" stroke="#515ba7" stroke-miterlimit="10" stroke-width="3.6"/><line x1="248.75385" y1="276.02734" x2="240.22798" y2="298.0896" fill="none" stroke="#515ba7" stroke-miterlimit="10" stroke-width="3.6"/><line x1="266.55341" y1="281.23877" x2="252.11787" y2="311.97717" fill="none" stroke="#515ba7" stroke-miterlimit="10" stroke-width="3.6"/><line x1="254.73872" y1="285.53101" x2="251.29902" y2="293.23242" fill="none" stroke="#515ba7" stroke-miterlimit="10" stroke-width="3.6"/><line x1="202.41242" y1="275.27637" x2="195.03047" y2="297.7196" fill="none" stroke="#515ba7" stroke-miterlimit="10" stroke-width="3.6"/><line x1="207.2154" y1="288.14624" x2="204.60566" y2="295.63806" fill="none" stroke="#515ba7" stroke-miterlimit="10" stroke-width="3.6"/><line x1="198.93452" y1="259.43054" x2="185.67805" y2="298.1814" fill="none" stroke="#515ba7" stroke-miterlimit="10" stroke-width="3.6"/><path d="M210.45759,282.05408c-8.77356,9.27161-16.85437,18.15039-25.65259,15.14233-3.63745-1.23755-5.92554-4.06421-7.46765-7.83557-.11609.33337-1.47363,4.23364-2.03662,5.85083,1.9198,2.8335,4.4917,5.03308,8.047,6.24219,11.61487,3.95715,21.01147-6.41956,30.44031-16.31079,4.38879-4.61414,8.71472-9.07959,13.07471-11.9845,4.36438-2.84058,8.78149-4.18872,13.29297-2.40381l1.63696-4.19165c-3.01355-1.21606-5.88867-1.37988-8.67151-.94092-2.78381.44336-5.44568,1.60559-8.02051,3.22583-5.15735,3.21887-9.95874,8.23071-14.64307,13.20605Z" fill="#e2a78a"/><path d="M272.80488,285.22363c.82288-1.61743,1.50842-2.96521,2.03979-4.00977-.03931-.02112-.172-.09241-.21143-.11353-2.98694-1.47302-5.94507-2.00891-8.82507-1.85254-2.88123.15942-5.70898,1.13037-8.44775,2.49854-5.47705,2.73499-10.66504,7.45569-15.64124,12.11914-4.64319,4.34424-9.0708,8.67737-13.35059,11.52161-4.25623,2.81628-8.40137,4.20032-12.55994,2.64917-8.34094-3.06189-9.2749-15.01172-10.40845-27.74158-1.17957-13.58704-2.64282-27.66467-13.91931-31.56677l-1.47925,4.24988c8.55896,2.9707,9.72644,14.96741,10.86646,27.68518,1.22913,13.59937,2.43372,27.59302,13.38086,31.59436,2.71362,1.02563,5.37842,1.13879,7.95227.63965,2.56531-.4928,5.10046-1.64099,7.62537-3.21216,5.03931-3.13794,9.98401-7.87512,15.02209-12.53052,4.69641-4.34009,9.34949-8.40649,14.0094-10.93396,2.33081-1.27588,4.64111-2.0896,6.93518-2.3158,2.2937-.23059,4.57532.10718,6.80286,1.20825.00684.00366.20178.10718.20874.11084Z" fill="#c7873a"/><path d="M255.2093,319.81128c-1.32458-5.43359-1.04944-12.78882-.92908-20.42761.08691-6.78259.03418-13.79932-1.60559-19.72266-1.63525-5.87317-4.8645-10.76794-10.88196-13.0979l-1.63696,4.19165c2.25415.89075,3.99219,2.31812,5.32361,4.15063,1.33142,1.86682,2.25378,4.14917,2.88904,6.69727.63477,2.55261.9856,5.37036,1.17273,8.35791.18005,3.01062.19849,6.17078.18469,9.36072-.03125,4.81934-.09033,9.59778.17883,14.09851.27429,4.49133.95679,8.56726,2.51355,11.87805.83215-1.63586,1.77295-3.48511,2.79114-5.48657Z" fill="#e2a78a"/><line x1="276.23444" y1="285.09106" x2="255.19599" y2="325.02185" fill="none" stroke="#515ba7" stroke-miterlimit="10" stroke-width="3.6"/><line x1="301.26106" y1="313.49646" x2="281.01557" y2="341.58557" fill="none" stroke="#515ba7" stroke-miterlimit="10" stroke-width="3.6"/><line x1="314.33149" y1="311.21631" x2="286.7834" y2="346.8988" fill="none" stroke="#515ba7" stroke-miterlimit="10" stroke-width="3.6"/><line x1="322.11775" y1="316.57825" x2="295.99836" y2="347.86401" fill="none" stroke="#515ba7" stroke-miterlimit="10" stroke-width="3.6"/><line x1="327.3476" y1="324.4281" x2="311.99812" y2="342.42163" fill="none" stroke="#515ba7" stroke-miterlimit="10" stroke-width="3.6"/><line x1="342.66389" y1="335.75586" x2="318.29218" y2="359.41028" fill="none" stroke="#515ba7" stroke-miterlimit="10" stroke-width="3.6"/><line x1="329.94453" y1="335.552" x2="324.06526" y2="341.6001" fill="none" stroke="#515ba7" stroke-miterlimit="10" stroke-width="3.6"/><line x1="282.04438" y1="309.87134" x2="270.02522" y2="330.21667" fill="none" stroke="#515ba7" stroke-miterlimit="10" stroke-width="3.6"/><line x1="283.76447" y1="323.47864" x2="279.40363" y2="330.10596" fill="none" stroke="#515ba7" stroke-miterlimit="10" stroke-width="3.6"/><line x1="281.41377" y1="293.46484" x2="261.38166" y2="329.18701" fill="none" stroke="#515ba7" stroke-miterlimit="10" stroke-width="3.6"/><path d="M288.38825,318.38184c-5.37427,3.36621-10.54456,6.91223-15.14526,8.96069-4.58289,2.01501-8.81848,2.88501-12.44568.75732-3.0863-1.68555-4.63123-4.62012-5.4552-8.53809-.16016.3147-2.03271,3.99536-2.8092,5.52173,1.25635,3.00549,3.11951,5.33289,6.08142,6.95142,2.3634,1.36462,4.81348,1.84265,7.37109,1.69141,2.52197-.10889,5.12036-.80798,7.83582-1.93457,5.44971-2.28589,11.14941-5.9873,16.98303-9.54883,2.72522-1.66309,5.45349-3.27502,8.14783-4.66333,2.66675-1.34924,5.29004-2.45874,7.84229-3.17639,2.55066-.71619,5.026-1.03259,7.37366-.78357,2.33459.26416,4.47217,1.18579,6.43701,2.78528l2.86609-3.46924c-5.2157-4.41907-11.3175-4.76697-17.25549-3.29211-6.00842,1.55005-12.08765,5.14734-17.82739,8.73828Z" fill="#e2a78a"/><path d="M347.12849,341.85571c1.349-1.21399,2.47302-2.22546,3.34412-3.0094-.03027-.03357-.13232-.14734-.16272-.18115-2.30432-2.50342-4.86548-4.1626-7.66602-5.0531-2.8446-.85107-5.84937-1.01294-8.92505-.69543-3.08801.3291-6.19873,1.08472-9.3988,2.18848-3.1969,1.10022-6.38989,2.45044-9.51379,3.82739-5.85339,2.58667-11.3374,5.16992-16.26562,6.63635-4.922,1.44702-9.00024,1.47424-12.37915-.96387-1.67273-1.24597-2.71729-2.92358-3.37219-4.89709-.6825-1.93628-.93396-4.21814-.91846-6.75928.01575-2.54089.29968-5.34106.69763-8.30615.36707-2.92065.85168-6.00781,1.302-9.16443.96277-6.74451,1.77283-13.77551.7406-19.82483-.50732-3.03503-1.43579-5.91663-3.00891-8.37524-1.58264-2.42566-3.78455-4.50098-6.7511-6.06299l-2.04053,4.01074c2.21033,1.16443,3.84607,2.80652,5.0188,4.80029.5863.99792,1.05908,2.07983,1.42981,3.24316.36145,1.18652.62402,2.44519.80432,3.76196.71045,5.28723.15137,11.41748-.67969,17.77673-.90002,6.81384-1.95203,13.55505-1.78601,19.40356.13037,5.91699,1.604,10.68311,5.84705,13.98108,1.07483.81287,2.21533,1.39343,3.38293,1.8241,1.1449.45874,2.34436.73303,3.59485.85461,2.49854.24487,5.21118-.12878,8.06396-.86194,5.61414-1.36096,11.86792-4.25781,18.18408-6.94861,5.88403-2.4939,11.64954-4.67114,16.94287-5.37732,1.31958-.17322,2.60583-.25098,3.84961-.21338,1.25195.02979,2.44324.19226,3.54834.52136,2.23206.63672,4.24976,1.81982,5.9563,3.68713.00525.00586.15552.17139.16077.17725Z" fill="#c7873a"/><path d="M318.28242,367.8136c.38257-2.75879,1.30542-5.83032,2.48645-9.11157.59021-1.63989,1.24756-3.33423,1.93115-5.06287.66333-1.70093,1.34546-3.4502,2.03333-5.21387,2.448-6.32092,4.81909-12.96094,5.22705-19.17529.16846-3.06824-.14111-6.04333-1.13586-8.82629-.50122-1.38672-1.15588-2.74414-2.03601-4.00293-.90247-1.23425-2.00159-2.4021-3.31738-3.48511l-2.86609,3.46924c3.96851,3.17078,5.00256,7.92468,4.56787,13.18372-.22559,2.64392-.7998,5.40808-1.64246,8.30444-.85486,2.90942-1.92285,5.89441-3.04187,8.88599-1.68506,4.505-3.47119,8.98474-4.75977,13.20728-1.34558,4.28003-2.24683,8.3457-2.02222,11.94495,1.36438-1.22778,2.90662-2.6156,4.57581-4.11768Z" fill="#e2a78a"/><line x1="350.4521" y1="342.95044" x2="316.42085" y2="372.60522" fill="none" stroke="#515ba7" stroke-miterlimit="10" stroke-width="3.6"/><line x1="363.36298" y1="378.64929" x2="334.29194" y2="397.45264" fill="none" stroke="#515ba7" stroke-miterlimit="10" stroke-width="3.6"/><line x1="376.38191" y1="381.16589" x2="337.83589" y2="404.54004" fill="none" stroke="#515ba7" stroke-miterlimit="10" stroke-width="3.6"/><line x1="381.68098" y1="388.85754" x2="346.15412" y2="408.82898" fill="none" stroke="#515ba7" stroke-miterlimit="10" stroke-width="3.6"/><line x1="383.73249" y1="397.94299" x2="363.05818" y2="409.44019" fill="none" stroke="#515ba7" stroke-miterlimit="10" stroke-width="3.6"/><line x1="394.04328" y1="413.5741" x2="363.15363" y2="427.68091" fill="none" stroke="#515ba7" stroke-miterlimit="10" stroke-width="3.6"/><line x1="382.3144" y1="409.15198" x2="374.71687" y2="412.81543" fill="none" stroke="#515ba7" stroke-miterlimit="10" stroke-width="3.6"/><line x1="346.85273" y1="368.25366" x2="328.21699" y2="382.78235" fill="none" stroke="#515ba7" stroke-miterlimit="10" stroke-width="3.6"/><line x1="343.48872" y1="381.5332" x2="337.00459" y2="386.10437" fill="none" stroke="#515ba7" stroke-miterlimit="10" stroke-width="3.6"/><line x1="352.24604" y1="352.7373" x2="320.57087" y2="378.69971" fill="none" stroke="#515ba7" stroke-miterlimit="10" stroke-width="3.6"/><path d="M349.69294,378.45715c-6.32947,1.23376-12.37268,2.59229-17.42786,2.8291-2.5343.12292-4.7959-.05701-6.77808-.64514-2.03027-.54846-3.74048-1.53662-5.07141-3.15137-1.10754-1.34363-1.72424-2.84644-1.97864-4.51306-.2782-1.64404-.24915-3.40076.05908-5.34839-.26245.23608-3.33228,2.99841-4.60522,4.14392.05383,1.59656.33557,3.05908.81665,4.48987.46057,1.4502,1.18188,2.81128,2.24182,4.09741.86072,1.04419,1.82117,1.89038,2.87378,2.57129,1.05896.67517,2.20276,1.19153,3.36279,1.62878,2.35815.84033,5.05652,1.12817,7.99072,1.078,2.93372-.05078,6.10229-.44067,9.39026-.97229,3.23645-.49353,6.57019-1.11609,9.91858-1.70044,6.25708-1.08911,12.44519-1.99329,17.77576-1.53833,2.70288.2063,5.00232.85388,7.06238,1.93042,2.03894,1.08704,3.74768,2.65442,5.00488,4.81909l3.91272-2.22253c-1.68713-2.90625-3.85339-5.02283-6.34131-6.50195-1.23389-.74524-2.56836-1.32227-4.02722-1.73157-1.43921-.41956-2.9386-.70459-4.4823-.87891-6.17664-.69836-13.05322.38049-19.69739,1.61609Z" fill="#e2a78a"/><path d="M396.2613,420.63257c1.67346-.70227,3.06775-1.28748,4.14832-1.74097-.01746-.04053-.07666-.17761-.09424-.21838-2.69849-6.08545-7.59998-9.26172-13.53333-10.7229-6.07898-1.41724-13.07825-1.19055-19.87244-.80042-6.37793.37854-12.38647.82068-17.55835.43835-5.11743-.42334-9.11182-1.81226-11.22778-5.46948-2.28479-3.53333-1.76331-7.69177.15247-12.45874,1.96521-4.79358,5.05896-9.96399,8.22559-15.52295,1.68298-2.9635,3.34802-5.99622,4.76624-9.05554,1.40991-3.05347,2.6228-6.16992,3.20813-9.15698.61755-3.00977.74976-5.99585.17761-8.89099-.28589-1.44714-.74756-2.87122-1.40979-4.2605-.68115-1.37366-1.6261-2.6615-2.76538-3.92346l-3.34509,3.01001c.85291.93347,1.52734,1.92773,2.04089,2.97144.51917,1.03931.7998,2.19226.98499,3.34753.34973,2.32812.14087,4.80933-.46326,7.38452-.60388,2.57568-1.60254,5.24597-2.82471,7.96179-1.22754,2.71985-2.76404,5.55164-4.30212,8.34753-3.31287,5.99792-6.81738,11.92126-8.71887,17.37402-2.03577,5.5741-2.53149,10.67712.44434,15.23657,2.73218,4.7439,7.56714,6.57935,13.45703,7.26294,5.74426.76196,12.60437.26306,19.43384-.05823,6.35608-.28979,12.75781-.47876,17.80383.68433,5.1062,1.12976,9.17175,3.50354,11.1781,8.04565.00305.00708.09094.20776.09399.21484Z" fill="#c7873a"/><path d="M360.47871,435.64978c2.47314-4.99841,7.42383-10.42114,12.47595-16.17859,2.25574-2.57483,4.54578-5.22571,6.54529-7.91724,1.95862-2.67419,3.6803-5.41589,4.93054-8.22363,1.25061-2.80701,2.02905-5.68115,2.10815-8.60449.03687-1.46033-.08911-2.93738-.43811-4.41199-.40479-1.45129-1.01599-2.90771-1.85938-4.36035l-3.91272,2.22253c2.60181,4.2981,1.80981,9.07288-.45862,13.83044-2.28772,4.77344-6.18091,9.61157-10.25928,14.43213-6.31006,7.34863-12.97339,14.54883-14.80786,21.59338,1.69238-.71033,3.60547-1.51318,5.67603-2.3822Z" fill="#e2a78a"/><line x1="399.00703" y1="422.69897" x2="357.1667" y2="439.61414" fill="none" stroke="#515ba7" stroke-miterlimit="10" stroke-width="3.6"/><line x1="400.14082" y1="459.95654" x2="366.88642" y2="469.6051" fill="none" stroke="#515ba7" stroke-miterlimit="10" stroke-width="3.6"/><line x1="411.73823" y1="465.89233" x2="368.23237" y2="477.69824" fill="none" stroke="#515ba7" stroke-miterlimit="10" stroke-width="3.6"/><line x1="414.75898" y1="474.48816" x2="375.19673" y2="484.2782" fill="none" stroke="#515ba7" stroke-miterlimit="10" stroke-width="3.6"/><line x1="414.29694" y1="483.58044" x2="391.36701" y2="489.40186" fill="none" stroke="#515ba7" stroke-miterlimit="10" stroke-width="3.6"/><line x1="420.41914" y1="500.82825" x2="387.06867" y2="507.24707" fill="none" stroke="#515ba7" stroke-miterlimit="10" stroke-width="3.6"/><line x1="410.01008" y1="493.90564" x2="401.74592" y2="495.59314" fill="none" stroke="#515ba7" stroke-miterlimit="10" stroke-width="3.6"/><line x1="387.51411" y1="445.28979" x2="365.30537" y2="453.37146" fill="none" stroke="#515ba7" stroke-miterlimit="10" stroke-width="3.6"/><line x1="380.14167" y1="456.98218" x2="372.59174" y2="459.41858" fill="none" stroke="#515ba7" stroke-miterlimit="10" stroke-width="3.6"/><line x1="397.44221" y1="432.37549" x2="359.16291" y2="446.93787" fill="none" stroke="#515ba7" stroke-miterlimit="10" stroke-width="3.6"/><path d="M386.95625,455.89648c-6.349-.71228-12.48157-1.27856-17.3457-2.67151-2.39893-.71216-4.62244-1.56787-6.37622-2.7688-1.7572-1.20044-3.07727-2.73193-3.84192-4.74341-.63635-1.67383-.75574-3.33594-.4762-5.0271.13989-.84546.37952-1.698.70471-2.56165.29565-.84827.6698-1.70447,1.12061-2.57886-.32544.1366-4.13342,1.73462-5.71252,2.39734-.22034.77222-.37964,1.53418-.48914,2.30029-.13635.78101-.21143,1.56006-.21692,2.34106-.01086,1.56213.25647,3.13159.86926,4.7439.99487,2.61755,2.61499,4.60352,4.71057,6.15808,1.06775.76709,2.18433,1.45947,3.39197,2.06714,1.21545.604,2.53235,1.11853,3.92969,1.56433,5.58887,1.78174,12.46655,2.46912,19.27258,3.28821,3.18274.38269,6.33093.79126,9.31055,1.33899,2.92554.56128,5.65833,1.26538,8.09241,2.21643,4.86145,1.89917,8.48792,4.81799,9.74121,9.54114l4.36487-1.09412c-1.67407-6.31213-6.02625-10.12036-11.60266-12.48438-5.65637-2.35864-12.68323-3.26184-19.44714-4.0271Z" fill="#e2a78a"/><path d="M420.77717,508.0437c1.78931-.30273,3.28027-.55493,4.43567-.75037-.00659-.04236-.02905-.18542-.03564-.22791-.52686-3.17883-1.77905-5.79956-3.56201-7.96997-1.79016-2.17114-4.27551-3.88-6.99292-5.27454-5.48181-2.78772-12.28442-4.29138-18.94592-5.64966-3.11523-.6355-6.1814-1.23608-9.05591-1.90991-1.43726-.33704-2.82666-.69238-4.15015-1.07971-1.35559-.37769-2.64832-.78589-3.85779-1.23938-4.84009-1.81763-8.35986-4.33276-9.47656-8.53845-.56726-2.10156-.37061-4.15759.30994-6.17407.63037-1.99548,1.81775-3.98206,3.38184-5.98914,3.12854-4.01306,7.76318-8.10913,12.48645-12.45117,2.52515-2.32104,5.05981-4.69702,7.37573-7.15686,2.25793-2.4425,4.25879-4.96167,5.81836-7.5957,1.55566-2.63245,2.65234-5.37573,3.06189-8.23926.20471-1.43164.23792-2.89282.0719-4.38208-.08301-.74475-.21582-1.49634-.40173-2.25452-.20374-.7533-.49536-1.50366-.82642-2.26465l-4.14941,1.74133c1.05249,2.25317,1.10583,4.57739.69702,6.84485-.4314,2.27478-1.43604,4.52637-2.8396,6.75476-2.8136,4.46045-7.19312,8.81604-11.80176,13.17529-5.03052,4.69922-10.19727,9.33508-13.6864,14.09277-3.51282,4.77856-5.18958,9.57129-3.83423,15.10071,1.4375,5.49194,5.69482,8.69519,11.16418,10.99353,5.37866,2.31909,12.13855,3.62817,18.81079,5.03577,6.24048,1.3158,12.33081,2.70166,17.11768,4.96948,1.1897.5675,2.32727,1.18689,3.31177,1.87854.97632.69238,1.85107,1.45129,2.60535,2.28845,1.50867,1.67395,2.53625,3.66211,2.93127,6.04626.00122.00732.0354.21814.03662.22559Z" fill="#c7873a"/><path d="M382.51472,514.51636c3.60754-4.40015,9.77942-8.57019,16.03516-12.93591,5.53406-3.89746,11.13904-7.98438,15.01086-12.71948,1.93616-2.3667,3.43884-4.89526,4.28491-7.63.4231-1.36719.68213-2.78552.74963-4.25854.04443-1.47046-.18079-2.98767-.58923-4.56445l-4.36487,1.09412c.31299,1.17957.44055,2.33179.40381,3.45728-.03003,1.12476-.31934,2.23535-.69482,3.31433-.77637,2.1615-2.11292,4.22388-3.83765,6.2146-3.44934,3.98267-8.45166,7.67798-13.61877,11.36865-1.94519,1.38965-3.90503,2.77258-5.80115,4.16748-1.89233,1.39404-3.71887,2.79834-5.48071,4.25452-3.48425,2.90308-6.41284,5.93396-8.16675,9.26416,1.80969-.30615,3.85547-.65222,6.06958-1.02673Z" fill="#e2a78a"/><line x1="422.94245" y1="510.61047" x2="378.36616" y2="517.69385" fill="none" stroke="#515ba7" stroke-miterlimit="10" stroke-width="3.6"/><line x1="416.33344" y1="546.6665" x2="381.85737" y2="549.79871" fill="none" stroke="#515ba7" stroke-miterlimit="10" stroke-width="3.6"/><line x1="426.61042" y1="554.52856" x2="381.67976" y2="558.18628" fill="none" stroke="#515ba7" stroke-miterlimit="10" stroke-width="3.6"/><line x1="427.99799" y1="563.35535" x2="387.33296" y2="566.06995" fill="none" stroke="#515ba7" stroke-miterlimit="10" stroke-width="3.6"/><line x1="426.07478" y1="572.0885" x2="402.48798" y2="573.96326" fill="none" stroke="#515ba7" stroke-miterlimit="10" stroke-width="3.6"/><line x1="429.21174" y1="589.80566" x2="395.27741" y2="590.99011" fill="none" stroke="#515ba7" stroke-miterlimit="10" stroke-width="3.6"/><line x1="420.05268" y1="581.44226" x2="411.6247" y2="581.77588" fill="none" stroke="#515ba7" stroke-miterlimit="10" stroke-width="3.6"/><line x1="406.79621" y1="529.93689" x2="383.40046" y2="533.24731" fill="none" stroke="#515ba7" stroke-miterlimit="10" stroke-width="3.6"/><line x1="397.31196" y1="539.88171" x2="389.42829" y2="540.7677" fill="none" stroke="#515ba7" stroke-miterlimit="10" stroke-width="3.6"/><line x1="419.43488" y1="519.51099" x2="378.90864" y2="525.42578" fill="none" stroke="#515ba7" stroke-miterlimit="10" stroke-width="3.6"/><path d="M404.21479,540.17126c-6.10071-1.95007-12.02283-3.75879-16.54773-6.16016-2.26245-1.20117-4.17566-2.55066-5.58789-4.14661-.70618-.7981-1.28711-1.65796-1.724-2.59277-.43958-.93433-.81079-1.92444-.98206-3.01331-.6012-3.61389.82117-6.72205,3.42114-9.78394-.34802.05884-4.41992.74768-6.1084,1.0332-1.60425,2.89441-2.3468,5.91187-1.76392,9.41138.52783,2.82654,1.53455,5.23401,3.20996,7.26501,1.65466,2.03613,3.87024,3.72461,6.45215,5.19385,5.16345,2.93713,11.79163,4.99768,18.31873,7.12244,6.15637,1.98328,11.90588,4.0166,16.35901,6.7478,4.42993,2.73071,7.45471,6.18372,7.81897,10.96301l4.48938-.30859c-.48462-6.36267-4.05603-10.78906-9.10266-14.104-1.26184-.82983-2.61597-1.59192-4.03748-2.30066-1.44043-.70837-2.97461-1.36218-4.53455-1.97766-3.1272-1.23071-6.41919-2.30664-9.68066-3.349Z" fill="#e2a78a"/><path d="M428.63325,596.89429c1.81458-.02991,3.32654-.05481,4.49817-.0741-.0011-.04224-.00476-.18469-.00586-.22705-.44727-12.73193-13.5415-18.22693-26.18103-23.11865-5.86304-2.30457-11.78833-4.45679-16.19336-7.13013-4.42566-2.67603-7.42957-5.85803-7.76721-10.29016-.16882-2.21741.3678-4.23535,1.44165-6.12524,1.10901-1.89612,2.56934-3.62866,4.51123-5.31738,3.83362-3.3667,9.16675-6.47522,14.64124-9.76221,5.85327-3.51367,11.79419-7.18726,16.07458-11.60425,2.17993-2.20923,3.77209-4.59717,4.76489-7.23816.98608-2.6394,1.32507-5.52942.79834-8.70813l-4.43701.75049c.79053,4.77148-1.32397,8.86194-4.97998,12.54968-3.69226,3.69312-9.07141,7.01648-14.51904,10.33826-5.84827,3.55408-11.80908,7.06848-16.13733,11.10181-2.16406,2.01721-3.9198,4.16443-5.04761,6.52185-1.18323,2.36987-1.82556,4.97009-1.59473,7.87439.44189,5.80811,3.98315,9.84216,9.0249,13.09412,1.2605.81177,2.6145,1.57312,4.03723,2.29773,1.40149.72717,2.85254,1.41919,4.3595,2.08557,3.00854,1.33325,6.19568,2.56946,9.35669,3.8147,11.82544,4.64319,23.01099,9.37646,23.34766,18.94128.00024.00745.00684.21814.00708.22559Z" fill="#c7873a"/><path d="M389.83247,597.5332c4.15417-3.84644,10.76477-7.03479,17.60278-10.36438,6.12646-2.98193,12.35474-6.09473,16.99219-10.07239,2.31873-1.9884,4.23962-4.19287,5.55139-6.69666,1.2616-2.50586,1.82336-5.31897,1.59131-8.49719l-4.48938.30859c.18201,2.38818-.34412,4.54272-1.41199,6.51086-1.03735,1.96948-2.78967,3.74817-4.81152,5.40503-4.0907,3.3125-9.6582,6.1228-15.38721,8.94128-8.62695,4.2478-17.46741,8.42773-21.79248,14.56616,1.83521-.03015,3.90967-.06433,6.15491-.10132Z" fill="#e2a78a"/></svg>