<?xml version="1.0" encoding="UTF-8"?><svg id="Layer_1" xmlns="http://www.w3.org/2000/svg" width="498.17343" height="611.1418" xmlns:xlink="http://www.w3.org/1999/xlink" viewBox="0 0 498.17343 611.1418"><defs><radialGradient id="radial-gradient" cx="246.20964" cy="496.08579" fx="246.20964" fy="496.08579" r="14.15529" gradientUnits="userSpaceOnUse"><stop offset="0" stop-color="#f1f7eb"/><stop offset=".19763" stop-color="#edf5e7"/><stop offset=".36977" stop-color="#e2f1dc"/><stop offset=".53249" stop-color="#d0e9ca"/><stop offset=".68935" stop-color="#b7deb1"/><stop offset=".84204" stop-color="#97d091"/><stop offset=".98967" stop-color="#70c06a"/><stop offset="1" stop-color="#6dbf67"/></radialGradient></defs><line x1="330.23925" y1="565.66746" x2="314.42811" y2="559.42183" fill="none" stroke="#282566" stroke-linecap="round" stroke-miterlimit="10" stroke-width="4"/><line x1="314.41079" y1="559.44471" x2="308.38689" y2="546.34138" fill="none" stroke="#282566" stroke-linecap="round" stroke-miterlimit="10" stroke-width="4"/><polygon points="308.35178 546.31214 286.3299 547.25256 278.63038 526.59912 295.89368 512.89417 314.26252 525.07748 308.35178 546.31214" fill="none" stroke="#282566" stroke-linecap="round" stroke-miterlimit="10" stroke-width="4"/><line x1="219.08201" y1="395.59727" x2="219.05968" y2="430.5316" fill="none" stroke="#282566" stroke-linecap="round" stroke-miterlimit="10" stroke-width="4"/><line x1="218.99224" y1="395.4466" x2="188.25955" y2="378.83606" fill="none" stroke="#282566" stroke-linecap="round" stroke-miterlimit="10" stroke-width="4"/><text transform="translate(215.81815 434.90996) rotate(79.10965)" fill="#282566" font-family="TimesNewRomanPS-BoldMT, &apos;Times New Roman&apos;" font-size="18" font-weight="700"><tspan x="0" y="0">SH</tspan></text><line x1="152.40857" y1="540.17872" x2="186.16271" y2="549.18241" fill="none" stroke="#282566" stroke-linecap="round" stroke-miterlimit="10" stroke-width="4"/><line x1="152.23989" y1="540.22674" x2="128.28598" y2="565.65543" fill="none" stroke="#282566" stroke-linecap="round" stroke-miterlimit="10" stroke-width="4"/><text transform="translate(192.70386 548.77268) rotate(-15.88755)" fill="#282566" font-family="TimesNewRomanPS-BoldMT, &apos;Times New Roman&apos;" font-size="18" font-weight="700"><tspan x="0" y="0">SH</tspan></text><line x1="351.19312" y1="432.31127" x2="338.34178" y2="443.43974" fill="none" stroke="#282566" stroke-linecap="round" stroke-miterlimit="10" stroke-width="4"/><line x1="338.35405" y1="443.46568" x2="323.95041" y2="442.74475" fill="none" stroke="#282566" stroke-linecap="round" stroke-miterlimit="10" stroke-width="4"/><polygon points="323.90824 442.76235 314.55478 462.72131 292.6823 459.99329 288.51783 438.34832 307.81653 427.69902 323.90824 442.76235" fill="none" stroke="#282566" stroke-linecap="round" stroke-miterlimit="10" stroke-width="4"/><path d="M435.44741,604.43965c-4.39062,0-9.00586-1.38428-13.18555-4.09229-5.58301-3.6167-9.48828-8.68115-13.26465-13.57861l-.23145-.29932c-3.60742-4.67676-6.93164-8.74609-11.08984-11.18213-5.64648-3.30859-13.1543-3.70361-19.77832-4.05225l-19.26855-1.01416c-2.75781-.14502-4.875-2.49805-4.73047-5.25586.14551-2.75684,2.4541-4.8877,5.25586-4.73047l19.26855,1.01416c7.37891.38818,16.5625.87158,24.30859,5.41064,5.70801,3.34473,9.69531,8.18408,13.95215,13.70166l.23242.30127c3.41309,4.42578,6.63672,8.60596,10.7832,11.29248,4.02441,2.60791,8.65234,3.22168,11.78809,1.56201,2.44141-1.28857,5.4668-.3584,6.75684,2.0835,1.29102,2.44092.3584,5.46631-2.08301,6.75732-2.63867,1.39502-5.62012,2.08203-8.71387,2.08203Z" fill="#c8c1df" stroke="#282566" stroke-miterlimit="10" stroke-width="2"/><path d="M425.94173,125.6208c-2.00391,0-3.89453-1.21338-4.66309-3.19385-.99805-2.57471.28027-5.47119,2.85449-6.46924,3.0498-1.18262,6.10254-2.35498,9.1543-3.52734,6.43652-2.47217,13.09277-5.02832,19.58984-7.63525,9.28613-3.83057,19.8623-8.19336,27.17383-15.34717,4.6875-4.41455,7.19238-10.07178,7.12109-15.99512-.0752-6.35254-2.97949-12.42041-8.17773-17.08496-12.97461-11.55859-30.20703-11.43164-48.43457-11.29688-9.07129.06494-18.44141.13574-27.2793-1.35791-15.64355-2.13428-29.01074-9.64502-41.9375-16.90918-8.375-4.70654-16.28613-9.15186-24.78809-12.26318-24.0459-8.83008-39.48242-.38672-58.00684,17.18652-24.0166,23.21924-52.06152,34.9834-83.3877,34.98486-1.61328,0-3.22949-.03125-4.86035-.09326-2.42188-.02979-4.86035-.09521-7.30566-.16113-10.69141-.28906-21.73926-.58594-31.70801,2.40137l-.13477.03809c-10.58887,2.854-21.82129,12.06689-21.45898,25.55176.0625,5.9209,2.28223,11.8877,4.24121,17.15186.96289,2.58789-.35547,5.4668-2.94336,6.4292-2.58594.96436-5.4668-.35498-6.42969-2.94287-2.13184-5.73242-4.78613-12.8667-4.86621-20.45117-.43262-16.08984,11.40039-30.66113,28.78711-35.37598,11.48633-3.42627,23.3291-3.10645,34.78223-2.79834,2.41699.06494,4.82715.13037,7.22168.15869l.13379.00342c30.49219,1.1748,57.74512-9.62354,81.01172-32.11865,20.29492-19.25146,39.66602-29.89209,68.36621-19.35303,9.25488,3.38672,17.8916,8.24023,26.24512,12.93408,12.68945,7.13086,24.67578,13.86621,38.46191,15.72852l.16992.02588c7.99414,1.35986,16.55664,1.2959,25.61133,1.23096,19.3252-.14941,39.31055-.28906,55.1748,13.8418,7.31836,6.56836,11.40137,15.23633,11.51074,24.42041.10449,8.75439-3.51562,17.03906-10.19531,23.32812-8.62988,8.44482-20.1582,13.2002-30.33008,17.396-6.61133,2.65283-13.30176,5.22266-19.77344,7.70801-3.04199,1.16846-6.08398,2.33691-9.12402,3.51514-.59375.23047-1.20508.33984-1.80664.33984Z" fill="#c8c1df" stroke="#282566" stroke-miterlimit="10" stroke-width="2"/><path d="M86.83724,610.1418c-1.59961,0-3.18164-.15088-4.74707-.45264-15.62598-3.0127-27.11816-19.59229-35.13379-50.68506-1.52051-5.89746-2.68945-11.93652-3.82031-17.77637-2.39062-12.34619-4.64746-24.00732-9.95703-34.56836-3.3457-6.65332-7.82129-12.70117-12.55957-19.104-6.83594-9.23682-13.90527-18.78857-17.32031-30.34863-8.32031-28.16113,7.41504-55.81836,23.62109-79.78223l-4.88574-8.79785c-1.34082-2.41406-.4707-5.45801,1.94336-6.79834,2.41602-1.34277,5.45801-.4707,6.79883,1.94385l7.88086,14.19141-1.74414,2.54932c-15.49023,22.646-31.39941,48.89648-24.02441,73.86084,2.91504,9.86475,9.1582,18.30127,15.76855,27.23291,4.78125,6.46045,9.72461,13.14062,13.45508,20.56055,5.93066,11.7959,8.42676,24.68994,10.84082,37.15967,1.10254,5.69238,2.24219,11.5791,3.68652,17.18066,6.75977,26.22217,16.21484,41.2168,27.34277,43.3623,6.88379,1.3252,14.89355-2.29004,23.81836-10.75,18.10352-17.15918,14.52539-44.07666,13.62402-49.29834-.46973-2.72119,1.35547-5.30811,4.07617-5.77783,2.72461-.4668,5.30859,1.35596,5.77734,4.07666,1.05371,6.10303,5.2041,37.59277-16.59863,58.25732-9.65332,9.15039-18.99609,13.76367-27.84277,13.76416Z" fill="#c8c1df" stroke="#282566" stroke-miterlimit="10" stroke-width="2"/><path d="M216.18696,270.09207c-1.74023,0-3.45117-.82324-4.51953-2.35986-1.73535-2.49365-1.12012-5.92139,1.37402-7.65576,11.84277-8.23779,22.6748-16.60303,25.11133-28.33008,1.65137-7.95068-.96191-16.82715-3.26758-24.65869-.85742-2.91406.80957-5.97168,3.72363-6.82959,2.91504-.85596,5.97266.81006,6.8291,3.72314,2.53809,8.62207,5.69629,19.35254,3.48438,30.00195-3.25684,15.67725-16.4082,25.94775-29.59961,35.12354-.95703.66602-2.05176.98535-3.13574.98535Z" fill="#c8c1df" stroke="#282566" stroke-miterlimit="10" stroke-width="2"/><path d="M154.70599,470.83384c7.46142-21.27974,20.30331-39.50981,35.76861-55.97416,9.91902-11.24504,23.49112-35.65517,29.1931-46.25714,2.17103-4.03671,4.10424-8.19502,5.74515-12.47472,11.22052-29.26461,13.1269-60.16269,9.66367-90.78626-13.14217-3.12782-25.50182-7.34252-38.40997-11.17696,8.01414,42.17847-.64535,86.47591-26.40987,121.35699-8.29389,11.18979-17.89947,21.49672-26.67515,32.55282-3.10795,4.19312-5.94528,8.46134-8.77109,12.95119-1.97717,3.14147-3.81376,6.37468-5.49662,9.68316-3.22638,6.34299-6.10416,12.5954-8.76493,19.23148-7.38839-5.1635-15.79333-8.5335-23.9309-12.8671.37844,13.5962,1.98784,26.4962,4.07905,39.52988,2.65373,14.74645,6.67211,28.31489,12.48399,42.89988,2.30305,4.79019,3.64252,9.31301,5.94557,14.1032,1.97747,3.49635,3.51779,7.07813,5.32757,10.54996,1.32077,2.53372,4.97939,2.42556,6.16404-.17458,6.71968-14.7489,16.26225-27.44169,28.32003-39.01515,1.6941-1.62605,3.49902-3.13035,5.36806-4.55188,2.43383-1.85109,5.94688-4.66055,6.38481-4.90824.61549-.34811,9.01786-6.31887,12.84446-8.88931-10.06475-4.86835-19.6477-9.60302-28.82958-15.78307h0Z" fill="#c8c1df" stroke="#282566" stroke-miterlimit="10" stroke-width="3.5"/><path d="M96.56058,171.28382c-8.09893,21.04536-21.48405,38.8804-37.43819,54.8715-10.2532,10.9412-24.55432,34.9315-30.57302,45.35693-2.29162,3.96949-4.3492,8.0677-6.11825,12.29603-12.09681,28.9134-14.93291,59.74004-12.39356,90.45402,13.04201,3.52222,25.26912,8.10724,38.05592,12.32871-6.74019-42.40071,3.24951-86.41725,30.05288-120.50653,8.62713-10.93492,18.53878-20.94788,27.64346-31.73466,3.23282-4.09762,6.19742-8.27844,9.15717-12.68115,2.07089-3.0805,4.00402-6.25693,5.78576-9.51322,3.41595-6.24295,6.48073-12.40584,9.34016-18.95878,7.22953,5.38368,15.52916,9.00529,23.53251,13.582.03122-13.60143-1.18894-26.54405-2.88665-39.6348-2.20839-14.81968-5.81631-28.50299-11.18628-43.25641-2.15774-4.85738-3.36038-9.41849-5.51812-14.27587-1.87127-3.55432-3.30301-7.18087-5.00741-10.70563-1.24386-2.57235-4.90408-2.57443-6.1665-.01114-7.16084,14.53982-17.08136,26.93946-29.48223,38.14452-1.74231,1.57429-3.59171,3.02355-5.50271,4.38814-2.48848,1.77695-6.08455,4.47933-6.52974,4.71371-.62569.32941-9.20408,6.04441-13.10636,8.49843,9.91356,5.16927,19.34957,10.1904,28.34115,16.64419h0Z" fill="#c8c1df" stroke="#282566" stroke-miterlimit="10" stroke-width="3.5"/><path d="M478.73363,193.96293l-.04006.24474c-1.64382,10.04238-12.60718,15.51121-27.05976,19.26586-27.98081-17.29919-75.39249-31.38297-72.07095-53.85355l.04006-.24474c1.64511-10.05023,12.60717-15.51117,27.05976-19.26581,27.98082,17.29914,75.39249,31.38297,72.07095,53.8535Z" fill="#4d4b7e" stroke="#282566" stroke-miterlimit="10" stroke-width="2.4"/><path d="M459.54055,323.94568l-.04006.24474c-1.64511,10.05023-12.60756,15.5111-27.05976,19.26581-27.98081-17.29919-75.39249-31.38297-72.07133-53.85361l.04006-.24474c1.64381-10.04233,12.60756-15.5111,27.05976-19.26581,27.98081,17.29919,75.39249,31.38297,72.07133,53.85361Z" fill="#4d4b7e" stroke="#282566" stroke-miterlimit="10" stroke-width="2.4"/><path d="M440.339,453.92699l-.04006.24474c-1.64512,10.05028-12.60037,15.52039-27.04357,19.26851-27.98249-17.29135-75.40058-31.3843-72.07904-53.85487l.04006-.24474c1.64382-10.04238,12.59946-15.51243,27.04228-19.26061,27.98249,17.29135,75.40187,31.37644,72.08033,53.84697Z" fill="#4d4b7e" stroke="#282566" stroke-miterlimit="10" stroke-width="2.4"/><path d="M371.87554,542.2586c-8.07933-3.98649-16.01746-7.99642-22.80994-12.19584-14.4432,3.74807-25.40655,9.21691-27.05166,19.26714l-.04006.24474c-2.27369,15.39199,19.25384,26.84999,42.03646,38.10044,2.70709-15.91657,5.99688-35.07623,7.86521-45.41647Z" fill="#4d4b7e" stroke="#282566" stroke-miterlimit="10" stroke-width="2.4"/><path d="M478.69357,194.20767l-7.42562,45.36429c-3.2931,22.29686-51.98979,22.25392-83.79873,30.5201-14.4522,3.75471-25.41594,9.22349-27.05976,19.26581l7.42561-45.36424c3.29311-22.29691,51.98979-22.25392,83.79873-30.5201,14.45259-3.75465,25.41594-9.22349,27.05976-19.26586Z" fill="#c8c1df" stroke="#282566" stroke-miterlimit="10" stroke-width="2.4"/><path d="M459.50049,324.19042l-7.42562,45.36429c-3.29349,22.2968-51.99788,22.25254-83.81621,30.52531-14.44282,3.74818-25.39846,9.21823-27.04228,19.26061l7.42562-45.36429c3.28372-22.29028,51.9817-22.25524,83.79873-30.5201,14.4522-3.75471,25.41465-9.21558,27.05976-19.26581Z" fill="#c8c1df" stroke="#282566" stroke-miterlimit="10" stroke-width="2.4"/><path d="M440.29894,454.17173l-7.42562,45.36429c-3.29272,22.29692-51.98941,22.25398-83.80773,30.52674-14.4432,3.74807-25.40655,9.21691-27.05166,19.26714l7.42562-45.36429c3.2931-22.29686,51.9975-22.25261,83.81582-30.52537,14.44321-3.74812,25.39846-9.21823,27.04357-19.26851Z" fill="#c8c1df" stroke="#282566" stroke-miterlimit="10" stroke-width="2.4"/><path d="M437.53456,133.55375c.62037-4.12367,1.24074-8.24729,1.86111-12.37096,1.64875-10.85113,3.36975-21.69142,5.11698-32.52757-27.18687,4.50335-55.02277,8.68919-57.48411,25.35574l-7.42562,45.36429c1.64511-10.05023,12.60717-15.51117,27.05976-19.26581,9.32761-2.42315,20.10448-4.13389,30.76408-5.90197.03762-.21773.06901-.43613.1078-.65372Z" fill="#c8c1df" stroke="#282566" stroke-miterlimit="10" stroke-width="2.4"/><circle cx="246.20964" cy="496.08579" r="14.15529" fill="url(#radial-gradient)" stroke="#134d26" stroke-miterlimit="10" stroke-width="2"/><line x1="214.57392" y1="534.00779" x2="216.07929" y2="532.01188" fill="none" stroke="#231f20" stroke-linecap="round" stroke-miterlimit="10" stroke-width="2"/><line x1="218.21015" y1="529.18686" x2="221.40644" y2="524.94938" fill="none" stroke="#231f20" stroke-dasharray="3.53843 3.53843" stroke-linecap="round" stroke-miterlimit="10" stroke-width="2"/><line x1="222.47138" y1="523.5369" x2="229.92939" y2="513.64951" fill="none" stroke="#231f20" stroke-dasharray="3.53843 3.53843 3.53843 3.53843" stroke-linecap="round" stroke-miterlimit="10" stroke-width="2"/><line x1="230.99433" y1="512.23697" x2="232.4997" y2="510.24106" fill="none" stroke="#231f20" stroke-linecap="round" stroke-miterlimit="10" stroke-width="2"/><line x1="282.87031" y1="517.85959" x2="280.72089" y2="516.58298" fill="none" stroke="#231f20" stroke-linecap="round" stroke-miterlimit="10" stroke-width="2"/><line x1="278.13642" y1="515.04795" x2="274.25947" y2="512.74534" fill="none" stroke="#231f20" stroke-dasharray="3.00607 3.00607" stroke-linecap="round" stroke-miterlimit="10" stroke-width="2"/><line x1="272.96699" y1="511.97782" x2="263.92109" y2="506.60514" fill="none" stroke="#231f20" stroke-dasharray="3.00607 3.00607 3.00607 3.00607" stroke-linecap="round" stroke-miterlimit="10" stroke-width="2"/><line x1="262.62861" y1="505.83762" x2="260.47919" y2="504.56095" fill="none" stroke="#231f20" stroke-linecap="round" stroke-miterlimit="10" stroke-width="2"/><line x1="235.75898" y1="480.37815" x2="234.82001" y2="478.06132" fill="none" stroke="#231f20" stroke-linecap="round" stroke-miterlimit="10" stroke-width="2"/><line x1="233.84394" y1="475.65452" x2="232.38007" y2="472.04423" fill="none" stroke="#231f20" stroke-dasharray="2.59716 2.59716" stroke-linecap="round" stroke-miterlimit="10" stroke-width="2"/><line x1="231.89228" y1="470.8408" x2="228.47675" y2="462.41688" fill="none" stroke="#231f20" stroke-dasharray="2.59716 2.59716 2.59716 2.59716" stroke-linecap="round" stroke-miterlimit="10" stroke-width="2"/><line x1="227.98847" y1="461.21348" x2="227.04902" y2="458.89667" fill="none" stroke="#231f20" stroke-linecap="round" stroke-miterlimit="10" stroke-width="2"/><line x1="260.35175" y1="486.74851" x2="262.26874" y2="485.14377" fill="none" stroke="#231f20" stroke-linecap="round" stroke-miterlimit="10" stroke-width="2"/><line x1="265.80585" y1="482.18284" x2="271.11152" y2="477.74137" fill="none" stroke="#231f20" stroke-dasharray="4.61293 4.61293" stroke-linecap="round" stroke-miterlimit="10" stroke-width="2"/><line x1="272.88056" y1="476.26084" x2="285.26044" y2="465.89744" fill="none" stroke="#231f20" stroke-dasharray="4.61293 4.61293 4.61293 4.61293" stroke-linecap="round" stroke-miterlimit="10" stroke-width="2"/><line x1="287.029" y1="464.41691" x2="288.94599" y2="462.8122" fill="none" stroke="#231f20" stroke-linecap="round" stroke-miterlimit="10" stroke-width="2"/></svg>