<?xml version="1.0" encoding="UTF-8"?><svg id="Layer_1" xmlns="http://www.w3.org/2000/svg" width="558.18464" height="558.18464" viewBox="0 0 558.18464 558.18464"><line x1="278.365393" y1="187.96473" x2="264.663893" y2="211.696425" fill="none" stroke="#231f20" stroke-miterlimit="10" stroke-width="2"/><circle cx="264.663893" cy="211.696425" r="9" fill="#e29fb4" stroke="#57353f" stroke-miterlimit="10" stroke-width="1.140958"/><rect x="264.962393" y="177.001767" width="26.806001" height="21.925926" rx="10.962945" ry="10.962945" transform="translate(-23.599439 335.054063) rotate(-60.000037)" fill="#b0bfe0" stroke="#3f547e" stroke-miterlimit="10"/><line x1="280.559716" y1="221.87872" x2="265.004161" y2="248.821733" fill="none" stroke="#231f20" stroke-miterlimit="10" stroke-width="2"/><circle cx="280.559716" cy="221.87872" r="9" fill="#e29fb4" stroke="#57353f" stroke-miterlimit="10" stroke-width="1.140958"/><rect x="249.761583" y="243.148068" width="27.542335" height="16.444444" rx="5.481476" ry="5.481476" transform="translate(-85.926682 353.911201) rotate(-60)" fill="#f5d49d" stroke="#816a46" stroke-miterlimit="10"/><path d="M251.658425,184.784016l45.05448-84.791748c.896738-1.687644,2.60771-2.786413,4.51544-2.899767l171.840302-10.644628" fill="none" stroke="#231f20" stroke-miterlimit="10" stroke-width="2"/><circle cx="353.626507" cy="93.630433" r="9" fill="#bca3cd" stroke="#574066" stroke-miterlimit="10" stroke-width="1.140958"/><circle cx="374.400131" cy="92.080861" r="9" fill="#bca3cd" stroke="#574066" stroke-miterlimit="10" stroke-width="1.140958"/><circle cx="332.811208" cy="94.582746" r="9" fill="#bca3cd" stroke="#574066" stroke-miterlimit="10" stroke-width="1.140958"/><circle cx="311.341763" cy="95.765105" r="9" fill="#bca3cd" stroke="#574066" stroke-miterlimit="10" stroke-width="1.140958"/><circle cx="436.721003" cy="87.432145" r="9" fill="#bca3cd" stroke="#574066" stroke-miterlimit="10" stroke-width="1.140958"/><circle cx="457.536303" cy="86.479832" r="9" fill="#bca3cd" stroke="#574066" stroke-miterlimit="10" stroke-width="1.140958"/><circle cx="415.947379" cy="88.981717" r="9" fill="#bca3cd" stroke="#574066" stroke-miterlimit="10" stroke-width="1.140958"/><circle cx="395.173755" cy="90.531289" r="9" fill="#bca3cd" stroke="#574066" stroke-miterlimit="10" stroke-width="1.140958"/><rect x="259.085536" y="124.418511" width="36.723113" height="21.925926" rx="10.925016" ry="10.925016" transform="translate(30.818646 321.067881) rotate(-62.986325)" fill="#dae0d2" stroke="#4c5244" stroke-miterlimit="10"/><rect x="244.330242" y="165.423723" width="26.806001" height="21.925926" rx="10.962952" ry="10.962952" transform="translate(-16.472573 325.885376) rotate(-62.986327)" fill="#b0bfe0" stroke="#3f547e" stroke-miterlimit="10"/><circle cx="478.323818" cy="85.129346" r="9" fill="#bca3cd" stroke="#574066" stroke-miterlimit="10" stroke-width="1.140958"/><line x1="324.026578" y1="199.810049" x2="300.294883" y2="213.511549" fill="none" stroke="#231f20" stroke-miterlimit="10" stroke-width="2"/><circle cx="300.294883" cy="213.511549" r="9" fill="#e29fb4" stroke="#57353f" stroke-miterlimit="10" stroke-width="1.140958"/><rect x="310.623577" y="188.847086" width="26.806001" height="21.925926" rx="10.962952" ry="10.962952" transform="translate(-56.493696 188.782823) rotate(-30.00001)" fill="#b0bfe0" stroke="#3f547e" stroke-miterlimit="10"/><line x1="308.969922" y1="230.277587" x2="282.02691" y2="245.833143" fill="none" stroke="#231f20" stroke-miterlimit="10" stroke-width="2"/><circle cx="308.969922" cy="230.277587" r="9" fill="#e29fb4" stroke="#57353f" stroke-miterlimit="10" stroke-width="1.140958"/><rect x="265.707184" y="239.082331" width="27.542335" height="16.444444" rx="5.481476" ry="5.481476" transform="translate(-86.209277 172.871703) rotate(-30)" fill="#f5d49d" stroke="#816a46" stroke-miterlimit="10"/><path d="M302.488022,183.701985l81.414199-50.904568c1.62042-1.013174,3.65155-1.109249,5.36037-.253552l154.140381,76.701633" fill="none" stroke="#231f20" stroke-miterlimit="10" stroke-width="2"/><circle cx="436.371763" cy="155.744708" r="9" fill="#bca3cd" stroke="#574066" stroke-miterlimit="10" stroke-width="1.140958"/><circle cx="455.137035" cy="164.789551" r="9" fill="#bca3cd" stroke="#574066" stroke-miterlimit="10" stroke-width="1.140958"/><circle cx="417.869028" cy="146.161786" r="9" fill="#bca3cd" stroke="#574066" stroke-miterlimit="10" stroke-width="1.140958"/><circle cx="398.684765" cy="136.451016" r="9" fill="#bca3cd" stroke="#574066" stroke-miterlimit="10" stroke-width="1.140958"/><circle cx="511.432851" cy="191.924081" r="9" fill="#bca3cd" stroke="#574066" stroke-miterlimit="10" stroke-width="1.140958"/><circle cx="529.935586" cy="201.507003" r="9" fill="#bca3cd" stroke="#574066" stroke-miterlimit="10" stroke-width="1.140958"/><circle cx="492.667579" cy="182.879238" r="9" fill="#bca3cd" stroke="#574066" stroke-miterlimit="10" stroke-width="1.140958"/><circle cx="473.902307" cy="173.834394" r="9" fill="#bca3cd" stroke="#574066" stroke-miterlimit="10" stroke-width="1.140958"/><rect x="331.161378" y="142.8495" width="36.723113" height="21.925926" rx="10.925016" ry="10.925016" transform="translate(-27.398571 215.08835) rotate(-32.986325)" fill="#dae0d2" stroke="#4c5244" stroke-miterlimit="10"/><rect x="298.544632" y="168.50413" width="26.806001" height="21.925926" rx="10.96295" ry="10.96295" transform="translate(-47.423064 198.766456) rotate(-32.986332)" fill="#b0bfe0" stroke="#3f547e" stroke-miterlimit="10"/><circle cx="548.613346" cy="210.731206" r="9" fill="#bca3cd" stroke="#574066" stroke-miterlimit="10" stroke-width="1.140958"/><line x1="357.647664" y1="232.898988" x2="330.244664" y2="232.898988" fill="none" stroke="#231f20" stroke-miterlimit="10" stroke-width="2"/><circle cx="330.244664" cy="232.898988" r="9" fill="#e29fb4" stroke="#57353f" stroke-miterlimit="10" stroke-width="1.140958"/><rect x="344.244664" y="221.936025" width="26.806001" height="21.925926" rx="10.962952" ry="10.962952" fill="#b0bfe0" stroke="#3f547e" stroke-miterlimit="10"/><line x1="329.374449" y1="251.756322" x2="298.263338" y2="251.756322" fill="none" stroke="#231f20" stroke-miterlimit="10" stroke-width="2"/><circle cx="329.374449" cy="251.756322" r="9" fill="#e29fb4" stroke="#57353f" stroke-miterlimit="10" stroke-width="1.140958"/><rect x="281.549349" y="243.5341" width="27.542335" height="16.444444" rx="5.481476" ry="5.481476" fill="#f5d49d" stroke="#816a46" stroke-miterlimit="10"/><path d="M347.04876,208.179718l95.959048-3.377549c1.909912-.067225,3.71696.865137,4.768992,2.460602l95.138669,143.495753" fill="none" stroke="#231f20" stroke-miterlimit="10" stroke-width="2"/><circle cx="476.974119" cy="250.909876" r="9" fill="#bca3cd" stroke="#574066" stroke-miterlimit="10" stroke-width="1.140958"/><circle cx="488.7029" cy="268.125576" r="9" fill="#bca3cd" stroke="#574066" stroke-miterlimit="10" stroke-width="1.140958"/><circle cx="465.741742" cy="233.359455" r="9" fill="#bca3cd" stroke="#574066" stroke-miterlimit="10" stroke-width="1.140958"/><circle cx="453.983067" cy="215.357549" r="9" fill="#bca3cd" stroke="#574066" stroke-miterlimit="10" stroke-width="1.140958"/><circle cx="523.889242" cy="319.772676" r="9" fill="#bca3cd" stroke="#574066" stroke-miterlimit="10" stroke-width="1.140958"/><circle cx="535.121619" cy="337.323098" r="9" fill="#bca3cd" stroke="#574066" stroke-miterlimit="10" stroke-width="1.140958"/><circle cx="512.160461" cy="302.556976" r="9" fill="#bca3cd" stroke="#574066" stroke-miterlimit="10" stroke-width="1.140958"/><circle cx="500.431681" cy="285.341276" r="9" fill="#bca3cd" stroke="#574066" stroke-miterlimit="10" stroke-width="1.140958"/><rect x="384.365393" y="194.849125" width="36.723113" height="21.925926" rx="10.925016" ry="10.925016" transform="translate(-10.175412 21.260602) rotate(-2.986325)" fill="#dae0d2" stroke="#4c5244" stroke-miterlimit="10"/><rect x="343.955468" y="198.279036" width="26.806001" height="21.925926" rx="10.962953" ry="10.962953" transform="translate(-10.415674 18.901595) rotate(-2.986313)" fill="#b0bfe0" stroke="#3f547e" stroke-miterlimit="10"/><circle cx="546.684932" cy="354.650372" r="9" fill="#bca3cd" stroke="#574066" stroke-miterlimit="10" stroke-width="1.140958"/><line x1="370.21991" y1="278.365393" x2="346.488215" y2="264.663893" fill="none" stroke="#231f20" stroke-miterlimit="10" stroke-width="2"/><circle cx="346.488215" cy="264.663893" r="9" fill="#e29fb4" stroke="#57353f" stroke-miterlimit="10" stroke-width="1.140958"/><rect x="359.256947" y="264.962393" width="21.925926" height="26.806001" rx="10.962952" ry="10.962952" transform="translate(-55.961466 459.802733) rotate(-60.000026)" fill="#b0bfe0" stroke="#3f547e" stroke-miterlimit="10"/><line x1="336.30592" y1="280.559716" x2="309.362907" y2="265.004161" fill="none" stroke="#231f20" stroke-miterlimit="10" stroke-width="2"/><circle cx="336.30592" cy="280.559716" r="9" fill="#e29fb4" stroke="#57353f" stroke-miterlimit="10" stroke-width="1.140958"/><rect x="298.592127" y="249.761583" width="16.444444" height="27.542335" rx="5.481476" ry="5.481476" transform="translate(-74.818882 397.475395) rotate(-60)" fill="#f5d49d" stroke="#816a46" stroke-miterlimit="10"/><path d="M373.400624,251.658425l84.791748,45.05448c1.687644.896738,2.786413,2.60771,2.899767,4.51544l10.644628,171.840302" fill="none" stroke="#231f20" stroke-miterlimit="10" stroke-width="2"/><circle cx="464.554207" cy="353.626507" r="9" fill="#bca3cd" stroke="#574066" stroke-miterlimit="10" stroke-width="1.140958"/><circle cx="466.103779" cy="374.400131" r="9" fill="#bca3cd" stroke="#574066" stroke-miterlimit="10" stroke-width="1.140958"/><circle cx="463.601894" cy="332.811208" r="9" fill="#bca3cd" stroke="#574066" stroke-miterlimit="10" stroke-width="1.140958"/><circle cx="462.419535" cy="311.341763" r="9" fill="#bca3cd" stroke="#574066" stroke-miterlimit="10" stroke-width="1.140958"/><circle cx="470.752495" cy="436.721003" r="9" fill="#bca3cd" stroke="#574066" stroke-miterlimit="10" stroke-width="1.140958"/><circle cx="471.704808" cy="457.536303" r="9" fill="#bca3cd" stroke="#574066" stroke-miterlimit="10" stroke-width="1.140958"/><circle cx="469.202923" cy="415.947379" r="9" fill="#bca3cd" stroke="#574066" stroke-miterlimit="10" stroke-width="1.140958"/><circle cx="467.653351" cy="395.173755" r="9" fill="#bca3cd" stroke="#574066" stroke-miterlimit="10" stroke-width="1.140958"/><rect x="411.840203" y="259.085536" width="21.925926" height="36.723113" rx="10.925016" ry="10.925016" transform="translate(-16.412464 528.104304) rotate(-62.986325)" fill="#dae0d2" stroke="#4c5244" stroke-miterlimit="10"/><rect x="370.834991" y="244.330242" width="21.925926" height="26.806001" rx="10.962952" ry="10.962952" transform="translate(-21.229955 480.813063) rotate(-62.986322)" fill="#b0bfe0" stroke="#3f547e" stroke-miterlimit="10"/><circle cx="473.055294" cy="478.323818" r="9" fill="#bca3cd" stroke="#574066" stroke-miterlimit="10" stroke-width="1.140958"/><line x1="358.374591" y1="324.026578" x2="344.673091" y2="300.294883" fill="none" stroke="#231f20" stroke-miterlimit="10" stroke-width="2"/><circle cx="344.673091" cy="300.294883" r="9" fill="#e29fb4" stroke="#57353f" stroke-miterlimit="10" stroke-width="1.140958"/><rect x="347.411628" y="310.623577" width="21.925926" height="26.806001" rx="10.962949" ry="10.962949" transform="translate(-114.000222 222.598738) rotate(-30.000014)" fill="#b0bfe0" stroke="#3f547e" stroke-miterlimit="10"/><line x1="327.907053" y1="308.969922" x2="312.351497" y2="282.02691" fill="none" stroke="#231f20" stroke-miterlimit="10" stroke-width="2"/><circle cx="327.907053" cy="308.969922" r="9" fill="#e29fb4" stroke="#57353f" stroke-miterlimit="10" stroke-width="1.140958"/><rect x="302.657864" y="265.707184" width="16.444444" height="27.542335" rx="5.481476" ry="5.481476" transform="translate(-98.089142 192.883042) rotate(-30)" fill="#f5d49d" stroke="#816a46" stroke-miterlimit="10"/><path d="M374.482654,302.488022l50.904568,81.414199c1.013174,1.62042,1.109249,3.65155.253552,5.36037l-76.701633,154.140381" fill="none" stroke="#231f20" stroke-miterlimit="10" stroke-width="2"/><circle cx="402.439932" cy="436.371763" r="9" fill="#bca3cd" stroke="#574066" stroke-miterlimit="10" stroke-width="1.140958"/><circle cx="393.395088" cy="455.137035" r="9" fill="#bca3cd" stroke="#574066" stroke-miterlimit="10" stroke-width="1.140958"/><circle cx="412.022854" cy="417.869028" r="9" fill="#bca3cd" stroke="#574066" stroke-miterlimit="10" stroke-width="1.140958"/><circle cx="421.733624" cy="398.684765" r="9" fill="#bca3cd" stroke="#574066" stroke-miterlimit="10" stroke-width="1.140958"/><circle cx="366.260559" cy="511.432851" r="9" fill="#bca3cd" stroke="#574066" stroke-miterlimit="10" stroke-width="1.140958"/><circle cx="356.677636" cy="529.935586" r="9" fill="#bca3cd" stroke="#574066" stroke-miterlimit="10" stroke-width="1.140958"/><circle cx="375.305402" cy="492.667579" r="9" fill="#bca3cd" stroke="#574066" stroke-miterlimit="10" stroke-width="1.140958"/><circle cx="384.350245" cy="473.902307" r="9" fill="#bca3cd" stroke="#574066" stroke-miterlimit="10" stroke-width="1.140958"/><rect x="393.409214" y="331.161378" width="21.925926" height="36.723113" rx="10.925016" ry="10.925016" transform="translate(-125.109286 276.498831) rotate(-32.986325)" fill="#dae0d2" stroke="#4c5244" stroke-miterlimit="10"/><rect x="367.754584" y="298.544632" width="21.925926" height="26.806001" rx="10.962952" ry="10.962952" transform="translate(-108.787337 256.474267) rotate(-32.986317)" fill="#b0bfe0" stroke="#3f547e" stroke-miterlimit="10"/><circle cx="347.453433" cy="548.613346" r="9" fill="#bca3cd" stroke="#574066" stroke-miterlimit="10" stroke-width="1.140958"/><line x1="325.285652" y1="357.647664" x2="325.285652" y2="330.244664" fill="none" stroke="#231f20" stroke-miterlimit="10" stroke-width="2"/><circle cx="325.285652" cy="330.244664" r="9" fill="#e29fb4" stroke="#57353f" stroke-miterlimit="10" stroke-width="1.140958"/><rect x="314.322689" y="344.244664" width="21.925926" height="26.806001" rx="10.962952" ry="10.962952" fill="#b0bfe0" stroke="#3f547e" stroke-miterlimit="10"/><line x1="306.428317" y1="329.374449" x2="306.428317" y2="298.263338" fill="none" stroke="#231f20" stroke-miterlimit="10" stroke-width="2"/><circle cx="306.428317" cy="329.374449" r="9" fill="#e29fb4" stroke="#57353f" stroke-miterlimit="10" stroke-width="1.140958"/><rect x="298.206095" y="281.549349" width="16.444444" height="27.542335" rx="5.481476" ry="5.481476" fill="#f5d49d" stroke="#816a46" stroke-miterlimit="10"/><path d="M350.004922,347.04876l3.377549,95.959048c.067225,1.909912-.865137,3.71696-2.460602,4.768992l-143.495753,95.138669" fill="none" stroke="#231f20" stroke-miterlimit="10" stroke-width="2"/><circle cx="307.274764" cy="476.974119" r="9" fill="#bca3cd" stroke="#574066" stroke-miterlimit="10" stroke-width="1.140958"/><circle cx="290.059064" cy="488.7029" r="9" fill="#bca3cd" stroke="#574066" stroke-miterlimit="10" stroke-width="1.140958"/><circle cx="324.825185" cy="465.741742" r="9" fill="#bca3cd" stroke="#574066" stroke-miterlimit="10" stroke-width="1.140958"/><circle cx="342.82709" cy="453.983067" r="9" fill="#bca3cd" stroke="#574066" stroke-miterlimit="10" stroke-width="1.140958"/><circle cx="238.411963" cy="523.889242" r="9" fill="#bca3cd" stroke="#574066" stroke-miterlimit="10" stroke-width="1.140958"/><circle cx="220.861542" cy="535.121619" r="9" fill="#bca3cd" stroke="#574066" stroke-miterlimit="10" stroke-width="1.140958"/><circle cx="255.627663" cy="512.160461" r="9" fill="#bca3cd" stroke="#574066" stroke-miterlimit="10" stroke-width="1.140958"/><circle cx="272.843363" cy="500.431681" r="9" fill="#bca3cd" stroke="#574066" stroke-miterlimit="10" stroke-width="1.140958"/><rect x="341.409588" y="384.365393" width="21.925926" height="36.723113" rx="10.925016" ry="10.925016" transform="translate(-20.502586 18.904669) rotate(-2.986325)" fill="#dae0d2" stroke="#4c5244" stroke-miterlimit="10"/><rect x="337.979678" y="343.955468" width="21.925926" height="26.806001" rx="10.962952" ry="10.962952" transform="translate(-18.143605 18.664314) rotate(-2.986316)" fill="#b0bfe0" stroke="#3f547e" stroke-miterlimit="10"/><circle cx="203.534268" cy="546.684932" r="9" fill="#bca3cd" stroke="#574066" stroke-miterlimit="10" stroke-width="1.140958"/><line x1="279.819247" y1="370.21991" x2="293.520747" y2="346.488215" fill="none" stroke="#231f20" stroke-miterlimit="10" stroke-width="2"/><circle cx="293.520747" cy="346.488215" r="9" fill="#e29fb4" stroke="#57353f" stroke-miterlimit="10" stroke-width="1.140958"/><rect x="266.416246" y="359.256947" width="26.806001" height="21.925926" rx="10.962948" ry="10.962948" transform="translate(-180.710205 427.440683) rotate(-60.000019)" fill="#b0bfe0" stroke="#3f547e" stroke-miterlimit="10"/><line x1="277.624923" y1="336.30592" x2="293.180479" y2="309.362907" fill="none" stroke="#231f20" stroke-miterlimit="10" stroke-width="2"/><circle cx="277.624923" cy="336.30592" r="9" fill="#e29fb4" stroke="#57353f" stroke-miterlimit="10" stroke-width="1.140958"/><rect x="280.880722" y="298.592127" width="27.542335" height="16.444444" rx="5.481476" ry="5.481476" transform="translate(-118.383076 408.583195) rotate(-60)" fill="#f5d49d" stroke="#816a46" stroke-miterlimit="10"/><path d="M306.526214,373.400624l-45.05448,84.791748c-.896738,1.687644-2.60771,2.786413-4.51544,2.899767l-171.840302,10.644628" fill="none" stroke="#231f20" stroke-miterlimit="10" stroke-width="2"/><circle cx="204.558132" cy="464.554207" r="9" fill="#bca3cd" stroke="#574066" stroke-miterlimit="10" stroke-width="1.140958"/><circle cx="183.784508" cy="466.103779" r="9" fill="#bca3cd" stroke="#574066" stroke-miterlimit="10" stroke-width="1.140958"/><circle cx="225.373432" cy="463.601894" r="9" fill="#bca3cd" stroke="#574066" stroke-miterlimit="10" stroke-width="1.140958"/><circle cx="246.842876" cy="462.419535" r="9" fill="#bca3cd" stroke="#574066" stroke-miterlimit="10" stroke-width="1.140958"/><circle cx="121.463637" cy="470.752495" r="9" fill="#bca3cd" stroke="#574066" stroke-miterlimit="10" stroke-width="1.140958"/><circle cx="100.648337" cy="471.704808" r="9" fill="#bca3cd" stroke="#574066" stroke-miterlimit="10" stroke-width="1.140958"/><circle cx="142.237261" cy="469.202923" r="9" fill="#bca3cd" stroke="#574066" stroke-miterlimit="10" stroke-width="1.140958"/><circle cx="163.010884" cy="467.653351" r="9" fill="#bca3cd" stroke="#574066" stroke-miterlimit="10" stroke-width="1.140958"/><rect x="262.37599" y="411.840203" width="36.723113" height="21.925926" rx="10.925016" ry="10.925016" transform="translate(-223.448886 480.873194) rotate(-62.986325)" fill="#dae0d2" stroke="#4c5244" stroke-miterlimit="10"/><rect x="287.048397" y="370.834991" width="26.806001" height="21.925926" rx="10.962951" ry="10.962951" transform="translate(-176.157661 476.055714) rotate(-62.986325)" fill="#b0bfe0" stroke="#3f547e" stroke-miterlimit="10"/><circle cx="79.860821" cy="473.055294" r="9" fill="#bca3cd" stroke="#574066" stroke-miterlimit="10" stroke-width="1.140958"/><line x1="234.158062" y1="358.374591" x2="257.889757" y2="344.673091" fill="none" stroke="#231f20" stroke-miterlimit="10" stroke-width="2"/><circle cx="257.889757" cy="344.673091" r="9" fill="#e29fb4" stroke="#57353f" stroke-miterlimit="10" stroke-width="1.140958"/><rect x="220.755061" y="347.411628" width="26.806001" height="21.925926" rx="10.962945" ry="10.962945" transform="translate(-147.816183 165.092358) rotate(-30.000035)" fill="#b0bfe0" stroke="#3f547e" stroke-miterlimit="10"/><line x1="249.214717" y1="327.907053" x2="276.15773" y2="312.351497" fill="none" stroke="#231f20" stroke-miterlimit="10" stroke-width="2"/><circle cx="249.214717" cy="327.907053" r="9" fill="#e29fb4" stroke="#57353f" stroke-miterlimit="10" stroke-width="1.140958"/><rect x="264.93512" y="302.657864" width="27.542335" height="16.444444" rx="5.481476" ry="5.481476" transform="translate(-118.100481 181.003177) rotate(-30)" fill="#f5d49d" stroke="#816a46" stroke-miterlimit="10"/><path d="M255.696617,374.482654l-81.414199,50.904568c-1.62042,1.013174-3.65155,1.109249-5.36037.253552L14.781668,348.939141" fill="none" stroke="#231f20" stroke-miterlimit="10" stroke-width="2"/><circle cx="121.812877" cy="402.439932" r="9" fill="#bca3cd" stroke="#574066" stroke-miterlimit="10" stroke-width="1.140958"/><circle cx="103.047604" cy="393.395088" r="9" fill="#bca3cd" stroke="#574066" stroke-miterlimit="10" stroke-width="1.140958"/><circle cx="140.315611" cy="412.022854" r="9" fill="#bca3cd" stroke="#574066" stroke-miterlimit="10" stroke-width="1.140958"/><circle cx="159.499875" cy="421.733624" r="9" fill="#bca3cd" stroke="#574066" stroke-miterlimit="10" stroke-width="1.140958"/><circle cx="46.751788" cy="366.260559" r="9" fill="#bca3cd" stroke="#574066" stroke-miterlimit="10" stroke-width="1.140958"/><circle cx="28.249053" cy="356.677636" r="9" fill="#bca3cd" stroke="#574066" stroke-miterlimit="10" stroke-width="1.140958"/><circle cx="65.51706" cy="375.305402" r="9" fill="#bca3cd" stroke="#574066" stroke-miterlimit="10" stroke-width="1.140958"/><circle cx="84.282332" cy="384.350245" r="9" fill="#bca3cd" stroke="#574066" stroke-miterlimit="10" stroke-width="1.140958"/><rect x="190.300148" y="393.409214" width="36.723113" height="21.925926" rx="10.925016" ry="10.925016" transform="translate(-186.519767 178.788115) rotate(-32.986325)" fill="#dae0d2" stroke="#4c5244" stroke-miterlimit="10"/><rect x="232.834006" y="367.754584" width="26.806001" height="21.925926" rx="10.962952" ry="10.962952" transform="translate(-166.495243 195.109992) rotate(-32.986316)" fill="#b0bfe0" stroke="#3f547e" stroke-miterlimit="10"/><circle cx="9.571294" cy="347.453433" r="9" fill="#bca3cd" stroke="#574066" stroke-miterlimit="10" stroke-width="1.140958"/><line x1="200.536975" y1="325.285652" x2="227.939976" y2="325.285652" fill="none" stroke="#231f20" stroke-miterlimit="10" stroke-width="2"/><path d="M227.939976,316.285652c-4.970563,0-9,4.029437-9,9,0,4.970563,4.029437,9,9,9s9-4.029437,9-9-4.029437-9-9-9Z" fill="#e29fb4" stroke="#57353f" stroke-miterlimit="10" stroke-width="1.140958"/><rect x="187.133975" y="314.322689" width="26.806001" height="21.925926" rx="10.962952" ry="10.962952" fill="#b0bfe0" stroke="#3f547e" stroke-miterlimit="10"/><line x1="228.810191" y1="306.428317" x2="259.921302" y2="306.428317" fill="none" stroke="#231f20" stroke-miterlimit="10" stroke-width="2"/><circle cx="228.810191" cy="306.428317" r="9" fill="#e29fb4" stroke="#57353f" stroke-miterlimit="10" stroke-width="1.140958"/><rect x="249.092955" y="298.206095" width="27.542335" height="16.444444" rx="5.481476" ry="5.481476" fill="#f5d49d" stroke="#816a46" stroke-miterlimit="10"/><path d="M211.13588,350.004922l-95.959048,3.377549c-1.909912.067225-3.71696-.865137-4.768992-2.460602L15.26917,207.426116" fill="none" stroke="#231f20" stroke-miterlimit="10" stroke-width="2"/><circle cx="81.210521" cy="307.274764" r="9" fill="#bca3cd" stroke="#574066" stroke-miterlimit="10" stroke-width="1.140958"/><circle cx="69.48174" cy="290.059064" r="9" fill="#bca3cd" stroke="#574066" stroke-miterlimit="10" stroke-width="1.140958"/><circle cx="92.442898" cy="324.825185" r="9" fill="#bca3cd" stroke="#574066" stroke-miterlimit="10" stroke-width="1.140958"/><circle cx="104.201572" cy="342.82709" r="9" fill="#bca3cd" stroke="#574066" stroke-miterlimit="10" stroke-width="1.140958"/><circle cx="34.295398" cy="238.411963" r="9" fill="#bca3cd" stroke="#574066" stroke-miterlimit="10" stroke-width="1.140958"/><circle cx="23.06302" cy="220.861542" r="9" fill="#bca3cd" stroke="#574066" stroke-miterlimit="10" stroke-width="1.140958"/><circle cx="46.024178" cy="255.627663" r="9" fill="#bca3cd" stroke="#574066" stroke-miterlimit="10" stroke-width="1.140958"/><circle cx="57.752959" cy="272.843363" r="9" fill="#bca3cd" stroke="#574066" stroke-miterlimit="10" stroke-width="1.140958"/><rect x="137.096133" y="341.409588" width="36.723113" height="21.925926" rx="10.925016" ry="10.925016" transform="translate(-18.146653 8.577496) rotate(-2.986325)" fill="#dae0d2" stroke="#4c5244" stroke-miterlimit="10"/><rect x="187.42317" y="337.979677" width="26.806001" height="21.925926" rx="10.962952" ry="10.962952" transform="translate(-17.90631 10.9364) rotate(-2.986318)" fill="#b0bfe0" stroke="#3f547e" stroke-miterlimit="10"/><circle cx="11.499708" cy="203.534268" r="9" fill="#bca3cd" stroke="#574066" stroke-miterlimit="10" stroke-width="1.140958"/><line x1="187.96473" y1="279.819247" x2="211.696425" y2="293.520747" fill="none" stroke="#231f20" stroke-miterlimit="10" stroke-width="2"/><circle cx="211.696425" cy="293.520747" r="9" fill="#e29fb4" stroke="#57353f" stroke-miterlimit="10" stroke-width="1.140958"/><rect x="177.001767" y="266.416246" width="21.925926" height="26.806001" rx="10.962948" ry="10.962948" transform="translate(-148.348202 302.691985) rotate(-60.000022)" fill="#b0bfe0" stroke="#3f547e" stroke-miterlimit="10"/><line x1="221.87872" y1="277.624923" x2="248.821733" y2="293.180479" fill="none" stroke="#231f20" stroke-miterlimit="10" stroke-width="2"/><circle cx="221.87872" cy="277.624923" r="9" fill="#e29fb4" stroke="#57353f" stroke-miterlimit="10" stroke-width="1.140958"/><rect x="243.148068" y="280.880722" width="16.444444" height="27.542335" rx="5.481476" ry="5.481476" transform="translate(-129.490877 365.019001) rotate(-60)" fill="#f5d49d" stroke="#816a46" stroke-miterlimit="10"/><path d="M184.784016,306.526214l-84.791748-45.05448c-1.687644-.896738-2.786413-2.60771-2.899767-4.51544l-10.644628-171.840302" fill="none" stroke="#231f20" stroke-miterlimit="10" stroke-width="2"/><circle cx="93.630433" cy="204.558132" r="9" fill="#bca3cd" stroke="#574066" stroke-miterlimit="10" stroke-width="1.140958"/><circle cx="92.080861" cy="183.784508" r="9" fill="#bca3cd" stroke="#574066" stroke-miterlimit="10" stroke-width="1.140958"/><circle cx="94.582746" cy="225.373432" r="9" fill="#bca3cd" stroke="#574066" stroke-miterlimit="10" stroke-width="1.140958"/><circle cx="95.765105" cy="246.842876" r="9" fill="#bca3cd" stroke="#574066" stroke-miterlimit="10" stroke-width="1.140958"/><circle cx="87.432145" cy="121.463637" r="9" fill="#bca3cd" stroke="#574066" stroke-miterlimit="10" stroke-width="1.140958"/><circle cx="86.479832" cy="100.648337" r="9" fill="#bca3cd" stroke="#574066" stroke-miterlimit="10" stroke-width="1.140958"/><circle cx="88.981717" cy="142.237261" r="9" fill="#bca3cd" stroke="#574066" stroke-miterlimit="10" stroke-width="1.140958"/><circle cx="90.531289" cy="163.010884" r="9" fill="#bca3cd" stroke="#574066" stroke-miterlimit="10" stroke-width="1.140958"/><rect x="124.418511" y="262.37599" width="21.925926" height="36.723113" rx="10.925016" ry="10.925016" transform="translate(-176.217777 273.836771) rotate(-62.986325)" fill="#dae0d2" stroke="#4c5244" stroke-miterlimit="10"/><rect x="165.423723" y="287.048397" width="21.925926" height="26.806001" rx="10.962952" ry="10.962952" transform="translate(-171.400301 321.127871) rotate(-62.986304)" fill="#b0bfe0" stroke="#3f547e" stroke-miterlimit="10"/><circle cx="85.129346" cy="79.860821" r="9" fill="#bca3cd" stroke="#574066" stroke-miterlimit="10" stroke-width="1.140958"/><line x1="199.810049" y1="234.158062" x2="213.511549" y2="257.889757" fill="none" stroke="#231f20" stroke-miterlimit="10" stroke-width="2"/><circle cx="213.511549" cy="257.889757" r="9" fill="#e29fb4" stroke="#57353f" stroke-miterlimit="10" stroke-width="1.140958"/><rect x="188.847086" y="220.755061" width="21.925926" height="26.806001" rx="10.962953" ry="10.962953" transform="translate(-90.309547 131.27622) rotate(-29.999993)" fill="#b0bfe0" stroke="#3f547e" stroke-miterlimit="10"/><line x1="230.277587" y1="249.214717" x2="245.833143" y2="276.15773" fill="none" stroke="#231f20" stroke-miterlimit="10" stroke-width="2"/><circle cx="230.277587" cy="249.214717" r="9" fill="#e29fb4" stroke="#57353f" stroke-miterlimit="10" stroke-width="1.140958"/><rect x="239.082331" y="264.93512" width="16.444444" height="27.542335" rx="5.481476" ry="5.481476" transform="translate(-106.220616 160.991838) rotate(-30)" fill="#f5d49d" stroke="#816a46" stroke-miterlimit="10"/><path d="M183.701985,255.696617l-50.904568-81.414199c-1.013174-1.62042-1.109249-3.65155-.253552-5.36037L209.245498,14.781668" fill="none" stroke="#231f20" stroke-miterlimit="10" stroke-width="2"/><circle cx="155.744708" cy="121.812877" r="9" fill="#bca3cd" stroke="#574066" stroke-miterlimit="10" stroke-width="1.140958"/><circle cx="164.789551" cy="103.047604" r="9" fill="#bca3cd" stroke="#574066" stroke-miterlimit="10" stroke-width="1.140958"/><circle cx="146.161786" cy="140.315611" r="9" fill="#bca3cd" stroke="#574066" stroke-miterlimit="10" stroke-width="1.140958"/><circle cx="136.451016" cy="159.499875" r="9" fill="#bca3cd" stroke="#574066" stroke-miterlimit="10" stroke-width="1.140958"/><circle cx="191.924081" cy="46.751788" r="9" fill="#bca3cd" stroke="#574066" stroke-miterlimit="10" stroke-width="1.140958"/><circle cx="201.507003" cy="28.249053" r="9" fill="#bca3cd" stroke="#574066" stroke-miterlimit="10" stroke-width="1.140958"/><circle cx="182.879238" cy="65.51706" r="9" fill="#bca3cd" stroke="#574066" stroke-miterlimit="10" stroke-width="1.140958"/><circle cx="173.834394" cy="84.282332" r="9" fill="#bca3cd" stroke="#574066" stroke-miterlimit="10" stroke-width="1.140958"/><rect x="142.8495" y="190.300148" width="21.925926" height="36.723113" rx="10.925016" ry="10.925016" transform="translate(-88.809052 117.377634) rotate(-32.986325)" fill="#dae0d2" stroke="#4c5244" stroke-miterlimit="10"/><rect x="168.50413" y="232.834006" width="21.925926" height="26.806001" rx="10.962952" ry="10.962952" transform="translate(-105.130977 137.402088) rotate(-32.986316)" fill="#b0bfe0" stroke="#3f547e" stroke-miterlimit="10"/><circle cx="210.731206" cy="9.571294" r="9" fill="#bca3cd" stroke="#574066" stroke-miterlimit="10" stroke-width="1.140958"/><line x1="232.898988" y1="200.536975" x2="232.898988" y2="227.939976" fill="none" stroke="#231f20" stroke-miterlimit="10" stroke-width="2"/><circle cx="232.898988" cy="227.939976" r="9" fill="#e29fb4" stroke="#57353f" stroke-miterlimit="10" stroke-width="1.140958"/><rect x="221.936025" y="187.133975" width="21.925926" height="26.806001" rx="10.962952" ry="10.962952" fill="#b0bfe0" stroke="#3f547e" stroke-miterlimit="10"/><line x1="251.756322" y1="228.810191" x2="251.756322" y2="259.921302" fill="none" stroke="#231f20" stroke-miterlimit="10" stroke-width="2"/><circle cx="251.756322" cy="228.810191" r="9" fill="#e29fb4" stroke="#57353f" stroke-miterlimit="10" stroke-width="1.140958"/><rect x="243.5341" y="249.092955" width="16.444444" height="27.542335" rx="5.481476" ry="5.481476" fill="#f5d49d" stroke="#816a46" stroke-miterlimit="10"/><path d="M208.179718,211.13588l-3.377549-95.959048c-.067225-1.909912.865137-3.71696,2.460602-4.768992L350.758524,15.26917" fill="none" stroke="#231f20" stroke-miterlimit="10" stroke-width="2"/><circle cx="250.909876" cy="81.210521" r="9" fill="#bca3cd" stroke="#574066" stroke-miterlimit="10" stroke-width="1.140958"/><circle cx="268.125576" cy="69.48174" r="9" fill="#bca3cd" stroke="#574066" stroke-miterlimit="10" stroke-width="1.140958"/><circle cx="233.359455" cy="92.442898" r="9" fill="#bca3cd" stroke="#574066" stroke-miterlimit="10" stroke-width="1.140958"/><circle cx="215.357549" cy="104.201572" r="9" fill="#bca3cd" stroke="#574066" stroke-miterlimit="10" stroke-width="1.140958"/><circle cx="319.772676" cy="34.295398" r="9" fill="#bca3cd" stroke="#574066" stroke-miterlimit="10" stroke-width="1.140958"/><circle cx="337.323098" cy="23.06302" r="9" fill="#bca3cd" stroke="#574066" stroke-miterlimit="10" stroke-width="1.140958"/><circle cx="302.556976" cy="46.024178" r="9" fill="#bca3cd" stroke="#574066" stroke-miterlimit="10" stroke-width="1.140958"/><circle cx="285.341276" cy="57.752959" r="9" fill="#bca3cd" stroke="#574066" stroke-miterlimit="10" stroke-width="1.140958"/><rect x="194.849125" y="137.096133" width="21.925926" height="36.723113" rx="10.925016" ry="10.925016" transform="translate(-7.81948 10.933428) rotate(-2.986325)" fill="#dae0d2" stroke="#4c5244" stroke-miterlimit="10"/><rect x="198.279036" y="187.42317" width="21.925926" height="26.806001" rx="10.962957" ry="10.962957" transform="translate(-10.17831 11.173612) rotate(-2.986294)" fill="#b0bfe0" stroke="#3f547e" stroke-miterlimit="10"/><circle cx="354.650372" cy="11.499708" r="9" fill="#bca3cd" stroke="#574066" stroke-miterlimit="10" stroke-width="1.140958"/></svg>