<?xml version="1.0" encoding="UTF-8"?><svg id="Layer_1" xmlns="http://www.w3.org/2000/svg" width="585.01058" height="637.77332" xmlns:xlink="http://www.w3.org/1999/xlink" viewBox="0 0 585.01058 637.77332"><defs><radialGradient id="radial-gradient" cx="551.62098" cy="188.96486" fx="551.62098" fy="188.96486" r="11.79135" gradientTransform="translate(-113.0898 33.04658) rotate(-5.44963)" gradientUnits="userSpaceOnUse"><stop offset="0" stop-color="#f1f7eb"/><stop offset=".19763" stop-color="#edf5e7"/><stop offset=".36977" stop-color="#e2f1dc"/><stop offset=".53249" stop-color="#d0e9ca"/><stop offset=".68935" stop-color="#b7deb1"/><stop offset=".84204" stop-color="#97d091"/><stop offset=".98967" stop-color="#70c06a"/><stop offset="1" stop-color="#6dbf67"/></radialGradient><radialGradient id="radial-gradient-2" cx="1084.86034" cy="963.47254" fx="1084.86034" fy="963.47254" r="11.79135" gradientTransform="translate(-1029.08316 1143.90941) rotate(-77.09244)" xlink:href="#radial-gradient"/></defs><line x1="405.07111" y1="105.11949" x2="404.44048" y2="75.99585" fill="none" stroke="#282566" stroke-linecap="round" stroke-miterlimit="10" stroke-width="3.55177"/><line x1="405.15874" y1="105.24138" x2="434.50659" y2="117.81719" fill="none" stroke="#282566" stroke-linecap="round" stroke-miterlimit="10" stroke-width="3.55177"/><line x1="474.148" y1="84.95336" x2="473.60222" y2="114.04854" fill="none" stroke="#282566" stroke-linecap="round" stroke-miterlimit="10" stroke-width="3.332"/><line x1="474.22519" y1="84.82932" x2="500.08906" y2="71.49185" fill="none" stroke="#282566" stroke-linecap="round" stroke-miterlimit="10" stroke-width="3.332"/><path d="M580.40723,323.66035c-1.02602.09788-2.08977-.18266-2.9651-.86933-9.92964-7.78824-11.93054-21.16401-11.86099-31.01346.06917-9.81918,1.7443-19.49902,3.36479-28.86067.89901-5.19798,1.82939-10.57261,2.45359-15.83304,2.0833-17.57301-.07323-30.90983-6.59374-40.77205-7.5387-11.40392-20.92687-17.90163-33.87382-24.18566-2.06245-1.00121-4.11714-1.99826-6.14141-3.01046-21.81456-10.90614-33.6408-23.57622-36.15333-38.73445-1.81112-10.92398,1.6599-21.28302,5.01556-31.30092.95296-2.84233,1.93752-5.78164,2.75482-8.6241,4.00134-13.91407,4.26123-27.35312.75079-38.86392-3.95059-12.95524-12.93504-23.42735-24.03326-28.01235-11.90222-4.9181-25.96684-2.45434-34.20149,5.99101-4.37596,4.48821-7.12497,10.36361-10.03474,16.58408-2.73282,5.83954-5.55782,11.87786-9.93012,17.04683-11.98697,14.16845-34.60336,17.79619-50.41783,8.08517-4.21596-2.58863-7.7765-5.87065-11.21891-9.04504-3.38136-3.11688-6.57546-6.06123-10.21207-8.23893-4.08297-2.44524-9.53307-3.3488-13.56969-2.25031-2.38938.65125-4.1155,1.92482-5.1302,3.78589-1.10102,2.01844-3.63013,2.76392-5.65064,1.66269-2.0197-1.10131-2.76359-3.63098-1.66269-5.65064,2.11221-3.87346,5.65771-6.58232,10.25411-7.83473,6.26979-1.70828,13.95071-.50558,20.03916,3.14038,4.37241,2.61824,8.0352,5.99551,11.57785,9.26126,3.29535,3.03765,6.40711,5.90691,9.93127,8.07083,12.45342,7.64635,30.26165,4.7903,39.70036-6.36648,3.65629-4.32272,6.12768-9.60492,8.74435-15.19722,3.07541-6.57417,6.25614-13.37208,11.61539-18.8685,10.55098-10.82161,28.37489-14.0616,43.34728-7.87519,13.3756,5.52648,24.14959,17.96803,28.81956,33.28163,3.98134,13.05486,3.73452,28.12986-.71285,43.5958-.86778,3.01561-1.88083,6.04181-2.86173,8.96811-3.17189,9.4688-6.16832,18.41258-4.69607,27.29205,2.04504,12.33947,12.40161,23.01817,31.65989,32.6462,1.99592.99775,4.02065,1.9805,6.05394,2.96733,13.95632,6.77405,28.38816,13.77853,37.18546,27.08569,7.65225,11.57491,10.24179,26.7352,7.91661,46.34683-.64974,5.48105-1.59968,10.96745-2.51784,16.27308-1.63464,9.44472-3.1787,18.36557-3.24308,27.49828-.05628,7.98422,1.40224,18.69832,8.67242,24.40113,1.80981,1.4196,2.12657,4.03742.70657,5.84727-.73288.93489-1.78571,1.47129-2.88217,1.5759Z" fill="#c8c1df" stroke="#282566" stroke-miterlimit="10" stroke-width="1.666"/><line x1="97.81869" y1="215.23421" x2="111.11626" y2="220.10335" fill="none" stroke="#282566" stroke-linecap="round" stroke-miterlimit="10" stroke-width="3.332"/><line x1="111.13021" y1="220.08393" x2="116.42152" y2="230.86912" fill="none" stroke="#282566" stroke-linecap="round" stroke-miterlimit="10" stroke-width="3.332"/><polygon points="116.45137 230.89273 134.77003 229.64744 141.61515 246.68471 127.527 258.45961 111.97493 248.69963 116.45137 230.89273" fill="none" stroke="#282566" stroke-linecap="round" stroke-miterlimit="10" stroke-width="3.332"/><line x1="182.4124" y1="400.74924" x2="188.46059" y2="372.2844" fill="none" stroke="#282566" stroke-linecap="round" stroke-miterlimit="10" stroke-width="3.332"/><line x1="182.3131" y1="400.8564" x2="154.39077" y2="409.05222" fill="none" stroke="#282566" stroke-linecap="round" stroke-miterlimit="10" stroke-width="3.332"/><line x1="74.59864" y1="372.46482" x2="100.05075" y2="358.35744" fill="none" stroke="#282566" stroke-linecap="round" stroke-miterlimit="10" stroke-width="3.332"/><line x1="74.5252" y1="372.59111" x2="74.85252" y2="401.68958" fill="none" stroke="#282566" stroke-linecap="round" stroke-miterlimit="10" stroke-width="3.332"/><text transform="translate(98.35048 355.13779) rotate(-.64459)" fill="#282566" font-family="TimesNewRomanPS-BoldMT, &apos;Times New Roman&apos;" font-size="14.994" font-weight="700"><tspan x="0" y="0">SH</tspan></text><line x1="349.27106" y1="160.10372" x2="378.20797" y2="157.0243" fill="none" stroke="#282566" stroke-linecap="round" stroke-miterlimit="10" stroke-width="3.332"/><line x1="349.15422" y1="160.19143" x2="338.12159" y2="187.11928" fill="none" stroke="#282566" stroke-linecap="round" stroke-miterlimit="10" stroke-width="3.332"/><text transform="translate(384.48763 161.27841)" fill="#282566" font-family="TimesNewRomanPS-BoldMT, &apos;Times New Roman&apos;" font-size="14.994" font-weight="700"><tspan x="0" y="0">SH</tspan></text><text transform="translate(456.1578 235.77499)" fill="#282566" font-family="TimesNewRomanPS-BoldMT, &apos;Times New Roman&apos;" font-size="14.994" font-weight="700"><tspan x="0" y="0">SH</tspan></text><text transform="translate(85.88077 312.93836) rotate(-.64459)" fill="#282566" font-family="TimesNewRomanPS-BoldMT, &apos;Times New Roman&apos;" font-size="14.994" font-weight="700"><tspan x="0" y="0">SH</tspan></text><line x1="57.20675" y1="295.90549" x2="58.41651" y2="266.83034" fill="none" stroke="#282566" stroke-linecap="round" stroke-miterlimit="10" stroke-width="3.332"/><line x1="57.27633" y1="296.03396" x2="82.28882" y2="310.90685" fill="none" stroke="#282566" stroke-linecap="round" stroke-miterlimit="10" stroke-width="3.332"/><path d="M231.21182,574.19529c-1.94179-1.48676-4.77582-1.00145-6.09144,1.14147-1.12747,1.83645-.55892,4.24774,1.14701,5.56437,3.83077,2.95659,12.39023,10.64732,12.21931,20.18601-.24979,13.91571-19.41816,23.99828-32.95011,26.71361-17.46678,3.50537-32.27779-5.06628-46.60312-13.35322-2.26099-1.30754-4.59806-2.65959-6.87962-3.92191-17.96826-9.93949-31.44518-24.27797-37.93815-40.34963-.1024-.27012-9.60764-28.1159,5.18807-52.86282,6.9825-11.67889,15.65416-16.19082,24.04062-20.55392,8.70133-4.52724,17.69886-9.20832,23.32189-21.26308,10.68143-22.8996,2.45048-56.53973-17.26915-70.57842-10.59338-7.54188-20.35271-6.41594-31.65189-5.10959-10.60391,1.22452-23.79515,2.74859-43.05636-1.88679-16.42457-3.95254-38.91815-9.36646-49.19284-27.04211-4.47364-7.69501-5.06222-15.01558-5.63165-22.09522-.65557-8.15845-1.33362-16.59444-8.57452-23.29199-1.30595-1.20798-2.73588-2.27287-4.28594-3.19757-2.7203-1.6228-6.17167.42844-6.17094,3.59601,0,.0297.00001.0594.00002.08909.00034,1.42947.73418,2.76874,1.95871,3.50625,1.03331.62235,1.98292,1.32735,2.84161,2.1214,4.85502,4.49015,5.32875,10.38331,5.92785,17.84457.61394,7.63304,1.30922,16.2846,6.73319,25.61398,12.06481,20.75442,37.56874,26.89282,54.44599,30.95446,20.69724,4.98135,34.70578,3.36253,45.95999,2.06288,10.76756-1.24582,17.88069-2.06456,25.86568,3.62045,16.46381,11.72076,23.53531,41.01142,14.55166,60.27072-4.42818,9.49231-11.46763,13.15463-19.61771,17.39548-8.97743,4.67055-19.15211,9.96437-27.34573,23.66858-16.90739,28.28003-5.89388,59.93121-5.77186,60.23339,7.21602,17.86251,22.00358,33.68152,41.63852,44.54287,2.21218,1.22404,4.41239,2.49642,6.74133,3.84368,13.68985,7.91896,29.04973,16.80619,47.34051,15.06008,1.66476-.15887,3.35822-.4065,5.07274-.75031,15.74029-3.15844,39.28709-15.01438,39.63928-34.73162.24117-13.43552-10.8312-23.38649-15.60296-27.04116Z" fill="#c8c1df" stroke="#282566" stroke-miterlimit="10" stroke-width="1.666"/><path d="M412.01023,235.62213c-7.36358.98733-14.85056-.02374-21.23919-.88655-2.05125-.27703-3.49019-2.16437-3.21281-4.21607.27652-2.052,2.16092-3.49137,4.21642-3.21327,8.58106,1.15826,18.30589,2.47306,26.3989-1.03283l.0941-.03888c6.69359-2.68554,11.90419-10.14073,9.03704-17.96888l-.02881-.08027c-2.40858-7.0705-9.04656-12.62906-15.07923-17.28425-5.21234-3.92346-9.97893-7.37482-15.16979-9.60097l-.08991-.04007c-6.31649-2.90876-13.14758-2.09416-22.15257,2.64157l-.97921.48334c-4.00918,1.97324-8.15544,4.01369-12.54167,5.42724-5.35386,1.7751-10.98126,2.56257-16.42343,3.32357l-.40603.05688-.02258.00303c-2.04147.27361-3.92342-1.153-4.2095-3.19567-.28711-2.05033,1.14231-3.94497,3.19264-4.23208l.40684-.05699c5.34628-.74774,10.39527-1.45399,15.13306-3.02464,3.89528-1.25541,7.79203-3.17337,11.55945-5.02762l.84621-.41627c6.98305-3.66738,17.53031-7.9249,28.68742-2.81281,5.93308,2.55265,11.29154,6.42738,16.71385,10.50901,7.4287,5.73245,14.67463,12.19566,17.6181,20.78919,3.93571,10.8161-1.87851,22.85524-13.2536,27.44573-2.95007,1.27154-6.01252,2.03533-9.09568,2.44855Z" fill="#c8c1df" stroke="#282566" stroke-miterlimit="10" stroke-width="1.666"/><path d="M122.6404,49.39454c-3.67066-3.15832-8.8571-4.12701-13.55325-4.34356-5.88934-.27157-11.72634.37817-17.46823,1.69189-5.81528,1.33051-11.54294,3.12867-16.81773,5.95679-4.44348,2.38241-9.01743,5.42543-11.26428,10.12547-3.86926,8.09385-4.18652,17.58254-3.61698,26.36687.53923,8.31686,2.02551,16.55453,2.18314,24.89805.01758.9306.02026,1.86154.00454,2.79219-.00369.21855-.00826.43711-.01391.65562-.00104.04009-.04644,1.11661-.01163.42346.0298-.59347-.00814.11347-.01576.25821-.01715.32577-.03677.65137-.05901.97683-.12851,1.88032-.34326,3.75574-.67173,5.61195-.16654.94112-.36234,1.87711-.59056,2.80522-.10073.40963-.20791.81772-.32199,1.22383-.05689.20252-.11791.40371-.17543.60602-.26076.91714.23196-.65546-.05715.16913-.62245,1.77527-1.33707,3.50534-2.24085,5.15795-.2004.36645-.41469.72411-.62411,1.08533-.51295.88477.35323-.49811-.01844.02808-.12102.17133-.23294.34947-.35228.52211-.57273.82847-1.19014,1.62593-1.85056,2.38641-.53754.61898-1.11315,1.19629-1.6891,1.7787-.43372.43858.76434-.67029.04252-.04131-.14435.12578-.28534.25541-.42966.38126-.36083.31464-.72917.62068-1.10326.91941-1.35466,1.08176-2.7904,2.05967-4.26906,2.96339-.66421.40595-1.33762.79677-2.01755,1.17576-.05708.03182-.90225.50719-.29642.16667.5246-.29486-.04029.02068-.17248.09056-.43432.22958-.87073.45513-1.30877.67751-6.45696,3.27797-13.31431,5.89174-19.32275,9.99445-6.69077,4.56862-11.48668,11.08663-13.22868,19.06018-1.77303,8.11555-.32012,16.65424,2.00492,24.49847,2.51221,8.47572,6.22073,16.67082,10.18961,24.55261,4.23575,8.41177,9.01,16.5544,14.35723,24.30852,4.73593,6.86767,9.8751,13.7556,16.52655,18.89967,6.35393,4.91398,14.50552,8.27135,22.63977,6.58427,8.37124-1.73624,14.76018-7.40294,19.03137-14.63029,9.56188-16.17984,3.77578-35.43524,3.4958-52.9711-.01689-1.0581-.01475-2.11659.0108-3.17453.00567-.2347.01317-.46932.02043-.70397-.00475.15344-.04369.87073.0011.06214.03235-.58402.06585-1.16775.11131-1.75095.16227-2.0817.4339-4.15605.84988-6.20271.19458-.95732.42177-1.90807.68374-2.84918.06146-.2208.13061-.43967.19028-.66088.17805-.66014-.32877.92797.03757-.11666.18953-.54046.37427-1.0812.58148-1.61538.33174-.85524.69757-1.69747,1.09895-2.52235.22692-.46634.46545-.92689.71502-1.38151.13926-.25369.28148-.50567.42792-.75531.06444-.10985.57482-.87026.20141-.34249-.39498.55825.1623-.22702.19809-.27875.11082-.16018.22383-.31897.33853-.47638.23007-.31573.46823-.62568.71376-.92954.58624-.72551,1.21358-1.41724,1.87692-2.07293.21727-.21477.51842-.72023-.02754.016.10045-.13546.3234-.2905.44158-.39353.29733-.2592.60075-.51153.90977-.75668.73326-.5817,1.4972-1.1242,2.28852-1.62404.3018-.19063.79295-.60769,1.13807-.67904-.08342.01725-.86198.43862-.17512.09443.17468-.08754.34793-.17726.52363-.26289.78498-.3826,1.59033-.72411,2.41219-1.01937.40727-.14631.81862-.28089,1.23352-.40388.22939-.068.46124-.12681.69098-.19328.59555-.1723-.15901-.07539-.25455.05273.24727-.33161,2.1081-.35437,2.51701-.3914.41917-.03796.83955-.06205,1.26032-.0717.18637-.00427.3727-.00265.55905-.00462.89021-.0094-.13944.04592-.14098-.00989-.00057-.02078,2.01059.24418,2.20569.28258.40962.08061.81085.21171,1.2195.29008.58682.11253-.96621-.36501-.09538-.03162.17517.06706.35297.12618.52795.19414.80108.31112,1.56656.69289,2.30914,1.12436,1.89006,1.09819,4.72784-.08037,5.53085-2.02864.92678-2.24854-.01141-4.35877-2.02864-5.53085-6.55901-3.81103-15.00214-3.15482-21.56748.28652-7.31103,3.83221-12.57391,10.0918-15.18961,17.933-2.76187,8.27939-2.98647,17.03291-2.36176,25.67258.32659,4.51677.86844,9.01483,1.25004,13.52688.19986,2.36312.36002,4.73046.42737,7.10138.02977,1.04791.04201,2.09646.03086,3.14476-.00278.2615-.0068.52303-.01242.78449.00106-.04947-.04032,1.23365-.01513.61697.02093-.51238-.01719.30581-.02344.41981-.01784.32565-.03792.65118-.06114.97649-.16736,2.34483-.4788,4.68086-.97811,6.97875-.18091.83255-.40262,1.6508-.63064,2.47117-.27249.98034.21628-.60304-.00125.00534-.06975.19508-.13195.39303-.20056.58859-.17202.49028-.35504.97648-.54899,1.45851-.68218,1.69549-1.50804,3.31674-2.43574,4.88999-.41245.69946.06261-.03483.07365-.10754-.01767.11635-.26142.40045-.34178.52006-.2596.38645-.52756.76718-.80389,1.14185-.549.74439-1.13109,1.46406-1.74687,2.15426-.30547.34238-.6189.67754-.94066,1.00466-.14244.14481-.2879.2864-.4322.42936-.46292.45861.07035-.13431.11312-.10499-.04114-.0282-1.90615,1.56768-2.1034,1.71052-.68824.49839-1.40832.93229-2.13297,1.37335-.53574.32608.92195-.43781.03322-.02089-.17928.0841-.35501.17578-.53431.26001-.44815.21053-.90434.4047-1.36674.58174-.62785.24038-1.59735.7495-2.27546.7167.70551.03412.58115-.11857.20779-.05621-.24866.04154-.49548.09299-.74462.13241-.45518.07202-.91272.12775-1.3719.16704-.46595.03986-.93314.0628-1.40071.06996-.20555.00315-.41137-.00384-.61676-.00005-.64655.01193,1.04912.09894.04563-.00167-.90759-.091-1.80546-.18632-2.70087-.36774-.39437-.0799-.78653-.17129-1.17577-.2733-.1949-.05108-.38786-.10743-.58209-.16067-.74213-.20342.06482.04461.1645.05346-.84542-.07506-1.92216-.71826-2.68252-1.07242-.79222-.369-1.56623-.77609-2.32226-1.21439-.17958-.10411-.35698-.21172-.5354-.31781-.69502-.41325.02954.05796.10586.07022-.39123-.06284-.97849-.65308-1.30369-.88398-1.52616-1.08365-2.97026-2.2805-4.34469-3.55028-.67761-.62601-1.33841-1.27009-1.98382-1.92923-.19107-.19513-1.01712-1.07617-.3985-.4048-.36892-.40037-.73595-.8023-1.09666-1.21011-5.69911-6.44343-10.50615-13.79364-14.94819-21.1399-1.17172-1.9378-2.3103-3.89564-3.41493-5.87245-.25249-.45184-.50324-.90466-.75215-1.35848-.12446-.22692-.24802-.4543-.37208-.68144-.59667-1.09248.21604.41622-.13216-.24549-.54236-1.0307-1.08906-2.05878-1.62003-3.09547-2.0941-4.08862-4.04611-8.25001-5.85046-12.47452-1.63738-3.83359-3.1944-7.71172-4.46101-11.68542-.27197-.85324-.53048-1.71083-.77386-2.57267-.13706-.48537-.26917-.97212-.39625-1.46019-.05646-.21684-.1119-.43394-.16627-.65131-.03019-.12071-.28432-1.20226-.14805-.59868.1286.56959-.0278-.13574-.05788-.27384-.04753-.21816-.0939-.43655-.13906-.65521-.10137-.49081-.19684-.98281-.28572-1.47603-.17659-.97992-.32712-1.96475-.44771-2.95315-.2305-1.88929-.35179-3.79325-.32806-5.69688.00318-.25469-.00704-1.02382-.01207-.00837.00105-.2116.02067-.42923.03361-.63959.0261-.42447.06031-.84854.10275-1.27168.09478-.94509.2305-1.88661.41315-2.81878.17189-.87728.40009-1.73599.63791-2.59703.17226-.62369-.35051.94302.01277-.01786.07418-.1962.13943-.39615.2126-.59275.18354-.49316.383-.98067.59762-1.46112.34678-.77633.73371-1.53529,1.16042-2.27075.10801-.18617.2206-.36903.33087-.55377-.44801.75054-.15058.23706-.0404.08144.27786-.39245.54786-.78836.83956-1.17096.51723-.67841,1.0699-1.32983,1.65235-1.95309.25709-.27511.52013-.54475.78839-.80898.12843-.1265.26422-.28529.40584-.39178-.87606.65867-.12052.12435.05661-.03098,1.2438-1.09068,2.57527-2.07837,3.95663-2.98741.67963-.44725,1.37162-.87544,2.07254-1.28848.33225-.19579.66669-.3879,1.00276-.57706.16863-.09492.33841-.18771.50716-.2824.88216-.49503-.82344.43054.07423-.04132,1.51926-.79861,3.05763-1.55787,4.60769-2.2948,6.42303-3.05363,13.1846-5.84989,18.75365-10.36752,6.32249-5.12882,10.26944-12.08155,12.08143-19.97357,1.76669-7.69476,1.53767-15.81966.77157-23.62844-.41118-4.19104-.96314-8.36698-1.351-12.56057-.19716-2.13179-.35704-4.26772-.44196-6.40715-.04093-1.03115-.06493-2.06296-.06724-3.09494-.00121-.54354.00325-1.08709.01472-1.63052.00508-.24088.01264-.48165.01918-.72249-.02055.75701.00165.00734.0202-.32413.11325-2.02378.331-4.04361.69109-6.03887.1897-1.05116.41749-2.09558.68897-3.12871.12086-.45991.25234-.91663.38824-1.37228-.04584.15368-.25758.76169.00303.00914.11735-.33887.23356-.67754.35798-1.01393.28225-.7631.57901-1.52869.93357-2.26151.09437-.19505.20457-.38103.30305-.57369.30571-.59806-.69995.97759-.09119.14464.56286-.77013,1.17674-1.45761,1.83939-2.14239.42446-.43863-.84749.74011-.13769.13574.20554-.17501.40743-.35369.61606-.52518.43465-.35729.88244-.6983,1.33986-1.02588.95694-.68532,1.95599-1.31093,2.9794-1.89182.12258-.06958.24681-.13657.36901-.20683.56898-.32713-.36238.194-.387.20604.29221-.1429.57691-.30373.86724-.45075.59629-.30197,1.19908-.59092,1.80703-.86865,1.23182-.56274,2.48514-1.07821,3.753-1.55401,2.66204-.999,5.38896-1.82543,8.15071-2.50003,1.18837-.29028-.72298.15368.23609-.05753.36206-.07974.72385-.16043,1.08669-.23661.72322-.15183,1.44869-.29306,2.17611-.42332,1.39434-.24968,2.79595-.4593,4.20287-.62411,2.65776-.31133,5.3146-.42905,7.98892-.38785.56187.00866-1.16372-.06354-.36822-.01392.14059.00877.28146.01423.42208.0225.27748.01631.55481.03544.83187.05786.6039.04887,1.20667.11251,1.80705.19406,1.1137.15127,2.2215.36236,3.30494.6631.41346.11477,1.00251.47345-.19534-.07186.20205.09198.43084.14543.63936.22303.43088.16035.85531.33861,1.26894.53942.20957.10174.41672.20846.6202.32194.08804.0491.17423.10515.26348.15141.49746.25789-.54994-.35703-.52008-.33151.32628.27887.70741.49807,1.03563.78048,1.65477,1.4238,4.52498,1.21044,5.86358-.5594,1.38419-1.83011,1.20608-4.34452-.5594-5.86358h0Z" fill="#c8c1df" stroke="#282566" stroke-miterlimit="10" stroke-width="1.666"/><line x1="435.58795" y1="281.09747" x2="391.40314" y2="283.80548" fill="none" stroke="#282566" stroke-linecap="round" stroke-miterlimit="10" stroke-width="3.22009"/><line x1="435.58795" y1="281.08883" x2="462.14717" y2="239.87138" fill="none" stroke="#282566" stroke-linecap="round" stroke-miterlimit="10" stroke-width="3.22009"/><text transform="translate(431.78636 130.93299) rotate(-9.43746)" fill="#282566" font-family="TimesNewRomanPS-BoldMT, &apos;Times New Roman&apos;" font-size="14.994" font-weight="700"><tspan x="0" y="0">SH</tspan></text><text transform="translate(466.9087 128.21978) rotate(1.07436)" fill="#282566" font-family="TimesNewRomanPS-BoldMT, &apos;Times New Roman&apos;" font-size="14.994" font-weight="700"><tspan x="0" y="0">SH</tspan></text><path d="M155.59313,56.28357c18.74314,1.23993,36.23932,7.47849,52.90379,16.21648,11.23809,5.45141,33.85707,10.897,43.63808,13.10748,3.72413.84164,7.49279,1.46528,11.29364,1.82724,25.99025,2.4751,51.21313-2.88941,75.01754-12.5021-.42224-11.24529.2024-22.10507.39948-33.32021-32.06241,15.84338-69.54592,18.77802-103.28901,5.88376-10.83113-4.15947-21.24639-9.56865-32.07773-14.14462-4.05872-1.55867-8.11732-2.88339-12.35123-4.14942-2.96239-.88582-5.96704-1.63833-8.99779-2.25069-5.81054-1.174-11.4706-2.08844-17.39016-2.74311,2.49538-7.08178,3.32455-14.5792,4.98672-22.07705-10.8273,3.33753-20.82117,7.50764-30.81483,12.09424-11.24273,5.42024-21.23554,11.67285-31.644,19.59166-3.33051,2.9172-6.66145,5.0014-9.99196,7.9186-2.36478,2.3672-4.89566,4.40262-7.27818,6.62977-1.73874,1.62536-.83557,4.53748,1.51554,4.90804,13.33625,2.10191,25.65225,6.92815,37.63116,14.02275,1.68302.99678,3.29305,2.10967,4.85096,3.29248,2.02869,1.54024,5.06733,3.73278,5.36383,4.02897.41671.41629,7.08348,5.82738,10.00025,8.32489,1.66132-9.16385,3.32285-17.9112,6.23388-26.65919h0Z" fill="#c8c1df" stroke="#282566" stroke-miterlimit="10" stroke-width="2.9155"/><path d="M294.03236,179.68208c-18.69729-1.80386-35.99765-8.56654-52.39139-17.80246-11.06881-5.7874-33.51352-11.91176-43.22352-14.41581-3.69709-.95342-7.44526-1.69028-11.23348-2.16655-25.90392-3.25675-51.27692,1.34568-75.36004,10.23707.08337,11.2529-.86806,22.08895-1.40283,33.29306,32.52503-14.87055,70.07992-16.67494,103.41936-2.77026,10.70094,4.48379,20.94857,10.2042,31.63717,15.10431,4.00994,1.6802,8.0268,3.12656,12.22065,4.51953,2.93437.97463,5.91499,1.8173,8.92593,2.52066,5.77255,1.34847,11.40249,2.43296,17.29965,3.26562-2.70754,7.00341-3.76214,14.47246-5.64937,21.91685,10.9229-3.00992,21.03784-6.87714,31.1651-11.16068,11.40088-5.07918,21.57747-11.02799,32.2197-18.62973,3.41686-2.81557,6.80906-4.79851,10.22591-7.61408,2.435-2.2949,5.02604-4.25318,7.47455-6.40756,1.78691-1.57225.97185-4.51026-1.36703-4.95146-13.26689-2.50262-25.43196-7.69759-37.19175-15.14975-1.65223-1.04702-3.22801-2.20789-4.74959-3.43709-1.98138-1.60064-4.95261-3.8837-5.24005-4.18869-.40399-.42865-6.90476-6.03808-9.74499-8.6223-1.93656,9.10966-3.86079,17.803-7.03397,26.45934h0Z" fill="#c8c1df" stroke="#282566" stroke-miterlimit="10" stroke-width="2.9155"/><path d="M405.3137,308.91627l-.08815.18683c-3.61689,7.66625-13.65002,9.53481-26.08495,9.23124-18.44674-20.26416-53.19191-42.40412-45.38446-59.63961l.08815-.18683c3.61972-7.67224,13.65-9.53477,26.08493-9.2312,18.44676,20.26412,53.19191,42.40412,45.38448,59.63958Z" fill="#4d4b7e" stroke="#282566" stroke-miterlimit="10" stroke-width="1.9992"/><path d="M360.16745,408.62102l-.08815.18683c-3.61972,7.67224-13.65029,9.53463-26.08493,9.2312-18.44674-20.26416-53.19191-42.40412-45.38476-59.63975l.08815-.18683c3.61688-7.66621,13.65029-9.53463,26.08493-9.2312,18.44674,20.26416,53.19191,42.40412,45.38476,59.63975Z" fill="#4d4b7e" stroke="#282566" stroke-miterlimit="10" stroke-width="1.9992"/><path d="M315.01473,508.32268l-.08815.18683c-3.61974,7.67228-13.64666,9.54372-26.07259,9.23707-18.44988-20.25826-53.19809-42.40703-45.39064-59.64253l.08815-.18683c3.61689-7.66625,13.64411-9.53755,26.06974-9.23103,18.44988,20.25826,53.20092,42.40104,45.39349,59.6365Z" fill="#4d4b7e" stroke="#282566" stroke-miterlimit="10" stroke-width="1.9992"/><path d="M239.94946,563.38342c-5.55744-5.04343-10.99643-10.07329-15.47448-14.99248-12.4259-.30669-22.45903,1.56187-26.07875,9.23411l-.08815.18683c-5.34677,11.80639,9.26966,25.91419,24.93881,40.14326,5.81403-12.12724,12.83764-26.71834,16.70256-34.57172Z" fill="#4d4b7e" stroke="#282566" stroke-miterlimit="10" stroke-width="1.9992"/><path d="M405.22556,309.1031l-16.33855,34.63062c-7.74488,17.10288-46.7355,5.91367-74.10432,5.24754-12.43464-.30343-22.46805,1.56499-26.08493,9.2312l16.33853-34.63059c7.7449-17.10292,46.7355-5.91367,74.10432-5.24754,12.43493.30357,22.46805-1.56499,26.08495-9.23124Z" fill="#c8c1df" stroke="#282566" stroke-miterlimit="10" stroke-width="1.9992"/><path d="M360.0793,408.80785l-16.33855,34.63062c-7.74518,17.10274-46.74167,5.91072-74.11951,5.24771-12.42563-.30651-22.45285,1.56479-26.06974,9.23103l16.33855-34.63062c7.73586-17.09977,46.72932-5.91658,74.10432-5.24754,12.43464.30343,22.46521-1.55896,26.08493-9.2312Z" fill="#c8c1df" stroke="#282566" stroke-miterlimit="10" stroke-width="1.9992"/><path d="M314.92659,508.50951l-16.33855,34.63062c-7.74459,17.10302-46.73521,5.91381-74.11306,5.2508-12.4259-.30669-22.45903,1.56187-26.07875,9.23411l16.33855-34.63062c7.74488-17.10288,46.74137-5.91085,74.11922-5.24785,12.42592.30665,22.45285-1.56479,26.07259-9.23707Z" fill="#c8c1df" stroke="#282566" stroke-miterlimit="10" stroke-width="1.9992"/><path d="M386.15575,251.09808c1.44145-3.16048,2.88288-6.32092,4.32432-9.4814,3.8061-8.31283,7.66758-16.60044,11.54912-24.87871-22.80513-2.62096-46.05734-5.64488-51.84635,7.1393l-16.33855,34.63062c3.61972-7.67224,13.65-9.53477,26.08493-9.2312,8.02541.19599,17.04832,1.29451,25.99045,2.32025.08-.16576.15518-.33348.23608-.49886Z" fill="#c8c1df" stroke="#282566" stroke-miterlimit="10" stroke-width="1.9992"/><circle cx="453.98401" cy="168.76955" r="11.79135" fill="url(#radial-gradient)" stroke="#134d26" stroke-miterlimit="10" stroke-width="1.666"/><text transform="translate(182.0793 365.46239) rotate(-3.88878)" fill="#282566" font-family="TimesNewRomanPS-BoldMT, &apos;Times New Roman&apos;" font-size="14.994" font-weight="700"><tspan x="0" y="0">SH</tspan></text><circle cx="152.37888" cy="301.68097" r="11.79135" fill="url(#radial-gradient-2)" stroke="#134d26" stroke-miterlimit="10" stroke-width="1.666"/><line x1="146.46493" y1="286.62326" x2="145.70174" y2="284.68564" fill="none" stroke="#231f20" stroke-linecap="round" stroke-miterlimit="10" stroke-width="1.666"/><line x1="144.29452" y1="281.11288" x2="142.18368" y2="275.75363" fill="none" stroke="#231f20" stroke-dasharray="3.83995 3.83995" stroke-linecap="round" stroke-miterlimit="10" stroke-width="1.666"/><line x1="141.48006" y1="273.96713" x2="136.55526" y2="261.46225" fill="none" stroke="#231f20" stroke-dasharray="3.83995 3.83995 3.83995 3.83995" stroke-linecap="round" stroke-miterlimit="10" stroke-width="1.666"/><line x1="135.85164" y1="259.67587" x2="135.08846" y2="257.73825" fill="none" stroke="#231f20" stroke-linecap="round" stroke-miterlimit="10" stroke-width="1.666"/><line x1="439.54061" y1="165.81979" x2="437.54012" y2="165.24154" fill="none" stroke="#231f20" stroke-linecap="round" stroke-miterlimit="10" stroke-width="1.666"/><line x1="433.37118" y1="164.03683" x2="427.11727" y2="162.22958" fill="none" stroke="#231f20" stroke-dasharray="4.33973 4.33973" stroke-linecap="round" stroke-miterlimit="10" stroke-width="1.666"/><line x1="425.0328" y1="161.62716" x2="410.441" y2="157.41037" fill="none" stroke="#231f20" stroke-dasharray="4.33973 4.33973 4.33973 4.33973" stroke-linecap="round" stroke-miterlimit="10" stroke-width="1.666"/><line x1="408.35604" y1="156.80795" x2="406.35555" y2="156.2297" fill="none" stroke="#231f20" stroke-linecap="round" stroke-miterlimit="10" stroke-width="1.666"/><line x1="451.36629" y1="154.80917" x2="450.67342" y2="152.8453" fill="none" stroke="#231f20" stroke-linecap="round" stroke-miterlimit="10" stroke-width="1.666"/><line x1="449.61727" y1="149.8508" x2="448.03328" y2="145.35922" fill="none" stroke="#231f20" stroke-dasharray="3.17521 3.17521" stroke-linecap="round" stroke-miterlimit="10" stroke-width="1.666"/><line x1="447.50496" y1="143.86191" x2="443.80868" y2="133.38144" fill="none" stroke="#231f20" stroke-dasharray="3.17521 3.17521 3.17521 3.17521" stroke-linecap="round" stroke-miterlimit="10" stroke-width="1.666"/><line x1="443.28084" y1="131.88424" x2="442.58797" y2="129.92026" fill="none" stroke="#231f20" stroke-linecap="round" stroke-miterlimit="10" stroke-width="1.666"/><line x1="463.6993" y1="156.97738" x2="464.5118" y2="155.05978" fill="none" stroke="#231f20" stroke-linecap="round" stroke-miterlimit="10" stroke-width="1.666"/><line x1="465.79207" y1="152.03586" x2="467.71297" y2="147.49997" fill="none" stroke="#231f20" stroke-dasharray="3.28391 3.28391" stroke-linecap="round" stroke-miterlimit="10" stroke-width="1.666"/><line x1="468.3536" y1="145.988" x2="472.83602" y2="135.40439" fill="none" stroke="#231f20" stroke-dasharray="3.28391 3.28391 3.28391 3.28391" stroke-linecap="round" stroke-miterlimit="10" stroke-width="1.666"/><line x1="473.47616" y1="133.89242" x2="474.28817" y2="131.97482" fill="none" stroke="#231f20" stroke-linecap="round" stroke-miterlimit="10" stroke-width="1.666"/><line x1="466.95858" y1="222.92026" x2="466.55477" y2="220.87729" fill="none" stroke="#231f20" stroke-linecap="round" stroke-miterlimit="10" stroke-width="1.666"/><line x1="465.9078" y1="217.60226" x2="464.93709" y2="212.68979" fill="none" stroke="#231f20" stroke-dasharray="3.33834 3.33834" stroke-linecap="round" stroke-miterlimit="10" stroke-width="1.666"/><line x1="464.61336" y1="211.05221" x2="459.75985" y2="186.48971" fill="none" stroke="#231f20" stroke-dasharray="3.33834 3.33834 3.33834 3.33834" stroke-linecap="round" stroke-miterlimit="10" stroke-width="1.666"/><line x1="459.4366" y1="184.85214" x2="459.0328" y2="182.80917" fill="none" stroke="#231f20" stroke-linecap="round" stroke-miterlimit="10" stroke-width="1.666"/><line x1="121.46688" y1="345.07052" x2="122.88192" y2="343.54269" fill="none" stroke="#231f20" stroke-linecap="round" stroke-miterlimit="10" stroke-width="1.666"/><line x1="126.18905" y1="339.97287" x2="131.1495" y2="334.61801" fill="none" stroke="#231f20" stroke-dasharray="4.86621 4.86621" stroke-linecap="round" stroke-miterlimit="10" stroke-width="1.666"/><line x1="132.80282" y1="332.8331" x2="144.37703" y2="320.33847" fill="none" stroke="#231f20" stroke-dasharray="4.86621 4.86621 4.86621 4.86621" stroke-linecap="round" stroke-miterlimit="10" stroke-width="1.666"/><line x1="146.03084" y1="318.55356" x2="147.44588" y2="317.02572" fill="none" stroke="#231f20" stroke-linecap="round" stroke-miterlimit="10" stroke-width="1.666"/><line x1="192.29207" y1="352.40182" x2="191.08358" y2="350.7059" fill="none" stroke="#231f20" stroke-linecap="round" stroke-miterlimit="10" stroke-width="1.666"/><line x1="188.74666" y1="347.4277" x2="185.24178" y2="342.51022" fill="none" stroke="#231f20" stroke-dasharray="4.02572 4.02572" stroke-linecap="round" stroke-miterlimit="10" stroke-width="1.666"/><line x1="184.07381" y1="340.87118" x2="166.54989" y2="316.28415" fill="none" stroke="#231f20" stroke-dasharray="4.02572 4.02572 4.02572 4.02572" stroke-linecap="round" stroke-miterlimit="10" stroke-width="1.666"/><line x1="165.38143" y1="314.64499" x2="164.17293" y2="312.94919" fill="none" stroke="#231f20" stroke-linecap="round" stroke-miterlimit="10" stroke-width="1.666"/><line x1="132.61239" y1="307.28378" x2="130.53084" y2="307.22043" fill="none" stroke="#231f20" stroke-linecap="round" stroke-miterlimit="10" stroke-width="1.666"/><line x1="127.61922" y1="307.1318" x2="123.25203" y2="306.99875" fill="none" stroke="#231f20" stroke-dasharray="2.91277 2.91277" stroke-linecap="round" stroke-miterlimit="10" stroke-width="1.666"/><line x1="121.79647" y1="306.95443" x2="111.60653" y2="306.64401" fill="none" stroke="#231f20" stroke-dasharray="2.91277 2.91277 2.91277 2.91277" stroke-linecap="round" stroke-miterlimit="10" stroke-width="1.666"/><line x1="110.15096" y1="306.5997" x2="108.06942" y2="306.53634" fill="none" stroke="#231f20" stroke-linecap="round" stroke-miterlimit="10" stroke-width="1.666"/></svg>