<?xml version="1.0" encoding="UTF-8"?><svg id="Layer_1" xmlns="http://www.w3.org/2000/svg" width="530.399058" height="582.226426" viewBox="0 0 530.399058 582.226426"><path d="M497.655964,317.445638c-7.256653-1.1672-9.650543-6.521025-9.286992-17.110861.236212-6.878263-.064416-15.204956,1.298263-23.400061,1.308335-7.867794,6.816998-15.339396,7.677843-22.529292,1.19853-10.010274-1.716467-18.375921-4.760234-22.774893-2.592421-6.974223-.717775-14.570288,2.04296-21.900325,2.492067-6.61746,6.983695-12.886708,11.079875-19.277568,4.281282-6.679692,7.039344-13.986926,10.149578-19.872332,4.330962-8.195104,7.841431-15.467659,2.971143-20.824809-4.883158-6.485396-14.97802-3.111109-24.625454,6.920067-5.15991,5.365226-9.203052,13.871963-15.457905,21.734532-7.038069,8.861601-19.843862,8.035487-26.686259-.962453-4.698461-6.040748-8.816309-12.447285-13.024315-18.876625-4.256908-6.504398-11.233857-11.117618-16.059781-16.96312-4.955657-6.002744-7.70632-14.492855-14.413139-18.664752-3.303481-2.059821-7.783358-4.866897-6.110725-8.279188,4.05707-8.276813,8.784879-15.204006,11.069243-21.782987,4.341065-12.502866,5.637338-21.181097,2.018525-23.176312-4.034189-2.224189-12.236871,4.945756-22.867763,17.10611-7.629935,8.609349-15.928711,12.44301-23.909669,13.500473-8.880787,1.176701-18.570937.534907-28.11413-1.268861-8.846901-1.672179-17.545353-4.832218-27.160237-3.509201-9.073692.765307-14.397253-7.349038-11.970503-15.734163,2.57069-8.843074,3.43766-17.680922,4.995078-25.553467,1.893455-9.571327,4.861303-18.22058,5.348525-25.602872.89697-13.591208-3.115115-22.64663-6.500577-24.832339-7.529114-5.027939-11.855351-1.485484-16.303983,6.890139-2.706455,5.095397-6.392606,11.497183-8.690618,19.499417-1.819153,6.334805-2.03211,13.717572-3.906042,21.001528-1.730955,6.728622-2.860996,13.909492-4.864039,20.815308-2.257317,7.819814-9.804805,12.833027-16.410182,17.130338-6.611502,4.301587-13.720795,5.384703-22.168735,4.478305-7.933018-1.603772-15.92554-1.668379-22.814275-.826114-7.729419.944401-13.348757,7.576113-19.854339,10.476299-7.027468,3.133436-15.909343,2.835104-21.625398,6.80843-6.737504,4.683052-11.501064,10.882468-16.599931,14.465777-8.450163,5.938137-16.134487,10.06253-20.807999,4.028907-6.4714-8.496287-7.140646-19.562124-11.907533-25.63185-6.375134-8.117671-15.028011-9.641634-26.736405-5.212259-8.596241,2.711591-4.627128,9.345678.833176,21.494631,3.081943,6.856886,6.7424,15.080018,9.056205,24.514055,4.505416,6.117706,2.559747,14.086686-2.783725,19.554998-4.629102,5.418906-6.847713,12.791222-11.600517,18.112743-4.722539,5.287792-13.032321,7.708652-17.761015,13.102856-4.644359,5.297768-5.405098,13.55938-9.944867,19.152155-6.696988,9.188911-19.181503,12.501916-30.661178,14.769335-8.344034,1.458406-13.723558,6.925293-18.406183,9.622632-8.357289,4.813691-13.070781,11.227355-7.47715,16.221565,3.410889,3.045552,11.2721,4.512509,20.748193,6.180888,10.743985,1.954835,16.342595,7.892972,17.988483,16.078575,1.593768,7.9267.564998,17.434846.775367,25.067964-.119311,7.754732-.197817,15.249136.651735,22.582498.890931,7.6906,1.302794,15.28429,2.92615,22.502689,1.706433,7.587989,5.511258,14.350815,7.640552,21.407697,2.867377,6.166637,2.331012,13.471495,3.834934,20.005821,1.555692,6.759975,5.320863,13.509024,4.105779,20.091331-1.173846,6.359032-5.100064,12.600252-10.083639,18.260959-5.167806,6.289675-12.412172,10.372263-15.608941,15.518965-5.96865,9.609806-5.497595,17.954076-2.628764,20.69417,2.604414,2.487367,7.792031-.585263,16.474566-5.147177,4.69103-2.464564,11.26256-3.789007,17.065647-7.900098,10.45141-6.302026,18.585214-8.221707,25.681994-6.563304,8.357845,1.952935,14.619817,8.729537,21.5245,15.504713,6.17769,6.06165,14.610568,10.056354,22.249425,14.876696,6.750623,5.198958,13.600684,13.772678,21.367626,19.61913,8.002284,6.023171,17.379946,12.219261,14.520038,23.11218-2.123946,8.087743-3.75464,15.174553-3.826191,22.144976-.089411,8.708634-2.927775,17.075232-.975795,23.339729,3.463635,11.116193,11.569382,19.049544,15.820927,19.074246,9.868459.106411,10.273932-8.99224,11.99211-23.665139.831824-7.103437-.787196-16.507071,2.81183-27.089306,1.773344-9.791275,12.499803-17.923198,23.391343-15.820622,7.985745,1.35152,16.266117.198096,24.354268.88977,8.223293.703075,16.216499,5.066894,24.189,5.055967,10.491429-.61044,17.61552,2.125378,23.270144,7.872545,5.999521,6.097754,8.185614,14.936077,11.569552,22.171579,5.123878,10.95515,12.53355,20.895592,20.05626,16.598756,7.113273-5.484463,5.446609-12.758444,4.208161-19.964967-.909965-5.295393-4.17101-11.495283-5.265953-19.722691-1.268138-9.491043,7.164849-18.394448,16.836998-20.883716,7.778943-2.074548,16.184789-3.187117,23.646534-6.307252,7.422947-3.103983,14.108035-8.020285,21.163576-11.821168,5.381696-2.898761,13.672452-3.11871,21.545065.055106,7.053955,2.84413,11.301661,10.012174,15.585835,14.643921,2.969371,3.210394,9.070708,8.627401,12.810736,16.883311,2.9519,6.516274,7.485653,12.81925,10.629898,18.698481,5.093504,9.524297,8.471381,17.034853,13.197168,13.424465,4.268815-3.2617,10.03856-12.070095,9.639226-23.43949-.252253-7.182771-3.498967-15.764091-7.780777-24.454199-3.317627-6.733372-10.992827-11.910953-17.623168-18.836246-6.272169-9.97322-3.760671-20.50985-.379064-29.108748,3.365907-8.558518,8.680576-17.38259,15.884379-24.60954,3.978478-5.115349,8.698825-9.894837,12.455548-15.636303,3.598824-5.499665,7.947195-10.799334,11.079999-16.760273,3.080576-5.861654,6.499707-11.852047,8.883399-18.053362,3.290175-10.382714,12.643821-15.860527,22.681915-17.813461,10.077576-4.099215,12.652029-10.246374,13.750329-16.719419,0,0,.536528-4.01038-.459801-8.132397-1.73568-7.18087-13.364332-16.092827-30.645711-20.74215Z" fill="#d5dff1" stroke="#095170" stroke-miterlimit="10" stroke-width="2.986636"/><path d="M184.196116,292.22053c.164716,10.771621-17.552161,10.771749-17.385993-.000742-.164764-10.770879,17.552113-10.771007,17.385993.000742Z" fill="#595ba3"/><path d="M223.329686,142.267305c.164716,10.771621-17.552161,10.771749-17.385993-.000742-.164764-10.770879,17.552113-10.771007,17.385993.000742Z" fill="#595ba3"/><path d="M335.377545,125.663071c.164716,10.771621-17.552161,10.771749-17.385993-.000742-.164764-10.770879,17.552113-10.771007,17.385993.000742Z" fill="#595ba3"/><path d="M231.166322,358.764837c.164716,10.771621-17.552161,10.771749-17.385993-.000742-.164764-10.770879,17.552113-10.771007,17.385993.000742Z" fill="#595ba3"/><path d="M141.739762,215.82185c.164716,10.771621-17.552161,10.771749-17.385993-.000742-.164764-10.770879,17.552113-10.771007,17.385993.000742Z" fill="#595ba3"/><path d="M184.196116,461.976829c.164716,10.771621-17.552161,10.771749-17.385993-.000742-.164764-10.770879,17.552113-10.771007,17.385993.000742Z" fill="#595ba3"/><path d="M440.07449,406.89513c.16169,11.071613-17.229735,11.071745-17.06662-.000763-.161737-11.07085,17.229689-11.070982,17.06662.000763Z" fill="#595ba3"/><path d="M107.18506,333.858485c.164716,10.771621-17.552161,10.771749-17.385993-.000742-.164764-10.770879,17.552113-10.771007,17.385993.000742Z" fill="#595ba3"/><path d="M274.686383,244.738897c.164716,10.771621-17.552161,10.771749-17.385993-.000742-.164764-10.770879,17.552113-10.771007,17.385993.000742Z" fill="#595ba3"/><path d="M405.246933,224.123967c.164716,10.771621-17.552161,10.771749-17.385993-.000742-.164764-10.770879,17.552113-10.771007,17.385993.000742Z" fill="#595ba3"/><path d="M358.069189,303.537304c31.536518,12.205723,45.44588,53.218619,16.807707,107.525951-18.976373,35.985402-65.402398,74.626309-87.641376,68.029271-28.083839-8.330876-31.533673-50.577499-8.852349-107.313936,18.193139-45.509421,48.1495-80.447009,79.686018-68.241285Z" fill="rgba(183,202,233,.81)" stroke="#61728a" stroke-miterlimit="10" stroke-width="2.986636"/></svg>