<?xml version="1.0" encoding="UTF-8"?><svg xmlns="http://www.w3.org/2000/svg" width="558.718836" height="545.220215" viewBox="0 0 558.718836 545.220215"><g isolation="isolate"><g id="Layer_1"><path d="M434.620352,398.786342c-.885737-.682144-2.165763-.652867-3.188048-.200338s-1.838735,1.261616-2.602335,2.078173c-1.506556,1.611039-2.906883,3.321403-4.18887,5.116303-.965421,1.351678-1.909406,2.795553-3.32989,3.656539-.985755.597487-2.128666.867313-3.212189,1.260607s-2.174453.964731-2.776041,1.947989" fill="none" stroke="#3a4196" stroke-miterlimit="10" stroke-width="3"/><path d="M555.575076,430.689636l-43.048523-25.871409c-11.109163-6.676413-15.889259-20.247594-11.571052-32.468114,10.913414-30.884948,15.144475-62.803837,15.144475-99.739762C516.099976,122.880371,409.649963,1.5,278.329956,1.5c-81.059998,0-152.639954,46.25-195.559998,116.860352-10.639954,17.5-23.079956,33.859863-37.559998,48.339844C18.589966,193.310059,1.5,234.640137,1.5,281.050293c0,49.739746,19.630005,93.629883,49.570007,119.830078,17.829956,15.599609,34.529968,32.47998,49.039978,51.199707,43.570007,56.200195,107.26001,91.640137,178.219971,91.640137,63.637457,0,121.427985-28.501553,164.090712-74.923563,7.226946-7.863758,19.020393-9.495417,28.174902-3.994287l47.074413,28.287967" fill="#9fd0ee" stroke="#3a4196" stroke-miterlimit="10" stroke-width="3"/><path d="M276.542565,509.906848c115.48346,0,209.43585-103.709469,209.43585-231.185212S392.026025,47.536424,276.542565,47.536424c-58.894565,0-96.609007,26.002943-96.982768,26.265068-13.949058,9.841149-30.989168,26.33586-38.265376,33.379739-12.653029,12.245233-26.783627,28.01671-36.409676,39.091949-10.359009,11.918056-17.738607,21.664495-23.668304,29.495705-6.667996,8.806044-11.935116,15.761911-18.306045,21.825214-22.341209,21.259829-35.154421,53.781445-35.154421,89.227568,0,44.220597,27.109333,77.655823,40.137094,93.722907,1.901813,2.345727,3.328416,3.989267,4.770551,5.494092,6.823811,7.121368,12.44479,11.875963,19.302579,17.240905,8.045573,6.291945,13.15882,10.254426,16.563444,12.892891,6.041339,4.682845,6.817501,5.284583,8.980947,7.276347,3.497822,3.222027,4.872486,4.81295,7.368434,7.701103,1.889678,2.186922,4.477367,5.182221,9.262966,10.380705,24.869194,27.010305,38.412453,36.621856,42.863123,39.779787,2.241596,1.590924,4.525908,3.140711,6.788376,4.607269.313571.191332,39.619168,23.989176,92.749073,23.989176Z" fill="#fff"/><path d="M470.781012,294.77082c0,.630371-.570007,1.22998-1.600037,1.790039-1.659973.890137-2.969971,2.280273-3.819946,3.919922-.610046,1.150391-1,2.430176-1.140015,3.760254-11.390015,106.560059-87.450012,187.609863-179.559998,189.390137-26.929993.52002-55.720032-4.370117-84.5-18.560059-21.309998-10.5-42.610046-26.090332-63.160034-48.350098-.019958-.009766-.029968-.030273-.029968-.040039-1.179993-1.47998-2.350037-2.969727-3.51001-4.490234-.27002-.359863-.530029-.719727-.789978-1.07959-4.900024-7.070312-6.01001-16.100098-3.460022-24.310059l2.880005-9.330078c.77002-2.470215,1.839966-5.959961,3.01001-9.790039,2.329956-7.640137,5.039978-16.629883,6.51001-21.569824.639954-2.130371.549988-2.680176.569946-4.810059-1.649963,4.27002-3.449951,8.100098-5.349976,11.439941-.159973.290039-.330017.569824-.5.850098-.159973.279785-.330017.549805-.5.830078-.02002.040039-.039978.069824-.059998.099609-.330017.540039-.669983,1.070312-1.01001,1.580078-.169983.27002-.349976.52002-.529968.780273-.630005.909668-1.27002,1.779785-1.920044,2.589844-.049988-.129883-.089966-.259766-.130005-.390137.610046-.75,1.200012-1.540039,1.780029-2.369629.169983-.260254.349976-.520508.529968-.780273.340027-.509766.680054-1.040039,1.01001-1.580078.02002-.029785.040039-.060059.059998-.100098.170044-.27002.340027-.549805.5-.82959.170044-.280273.340027-.560059.5-.850098,1.900024-3.340332,3.700012-7.169922,5.350037-11.439941.549988-1.419922,1.079956-2.880371,1.599976-4.380371,6.51001-18.97998,10.539978-45.199707,10.539978-74.169922,0-27.819824-3.719971-53.109863-9.779968-71.879883-2.900024-8.959961-6.330017-16.439941-10.150024-22,.01001-.049805.030029-.100098.040039-.140137,3.919983,5.590332,7.429993,13.180176,10.380005,22.310059.320007.669922.630005,1.350098.940002,2.050293-.030029-2.130371-.400024-4.300293-1.140015-6.42041-1.929993-5.679688-5.450012-15.75-8.179993-23.47998-.850037-2.379883-1.610046-4.529785-2.230042-6.27002l-5.259949-14.879883c-.01001-.040039-.030029-.069824-.040039-.109863-2.589966-6.820312-1.929993-14.370117,1.580017-20.609863,18.419983-18,40.409973-34.380371,63.47998-46.950195,30.369995-16.569824,62.600037-26.540039,90.970032-24.939941,99.829956,5.629883,181.039978,97.239746,181.039978,217.179688,0,2.310059-.039978,4.610352-.099976,6.890137-.030029,1.340332.119995,2.669922.469971,3.950195.650024,2.430176,1.97998,4.649902,3.960022,6.25.48999.399902.75.810059.75,1.239746Z" fill="#eac5dd"/><path d="M112.375971,418.926269c-.98999-.77002-2.22998-1.72998-3.839966-2.97998-3.410034-2.640137-8.52002-6.600098-16.570007-12.890137-6.849976-5.370117-12.470032-10.120117-19.299988-17.239746-1.440002-1.510254-2.869995-3.150391-4.77002-5.5-13.029968-16.060059-40.140015-49.5-40.140015-93.720215,0-35.439941,12.820007-67.970215,35.160034-89.22998,2.98999-2.839844,5.72998-5.879883,8.5-9.220215-.980042,2.210449-1.900024,4.439941-2.780029,6.680176-3.779968,9.780273-6.73999,19.839844-8.700012,30.060059-1.969971,10.160156-3.019958,20.459961-3.159973,30.739746-.02002,1.490234,1.059998,2.840332,2.539978,2.980469,1.580017.159668,2.929993-.990234,3.090027-2.510254v-.02002c1.01001-9.930176,2.909973-19.72998,5.659973-29.240234,2.730042-9.529785,6.380005-18.729492,10.720032-27.539551,3.029968-6.040039,9.880005-16.540039,14.109985-22.820312.869995-1.290039,2.890015-.52002,2.690002,1.030273-.869995,6.429688-1.640015,12.52002-2.580017,17.600098-.219971.589844-.440002,1.189941-.649963,1.799805-6.700012,19.049805-10.860046,45.640137-10.860046,75.069824,0,23.419922,2.630005,45.050293,7.090027,62.5,0,.02002.01001.050293.01001.070312.27002,1.060059.549988,2.099609.839966,3.119629,0,.010254.01001.030273.01001.040039,1.23999,6.350098,3.23999,16.080078,5.650024,26.689941.5,2.180176-2.450012,3.390137-3.619995,1.47998l-.059998-.099609c-2.679993-4.350098-5.160034-8.820312-7.549988-13.350098-2.330017-4.560059-4.540039-9.200195-6.590027-13.919922-2.01001-4.720215-3.880005-9.52002-5.580017-14.390137-3.389954-9.740234-6.070007-19.75-8.079956-29.930176v-.02002c0-.759766-.420044-1.47998-1.110046-1.819824-2.440002-1.200195-4.48999.640137-4.279968,2.649902,1.179993,10.570312,3.059998,21.089844,5.72998,31.450195,1.330017,5.179688,2.850037,10.310059,4.530029,15.410156,1.709961,5.07959,3.609985,10.109863,5.649963,15.089844,2.109985,4.949707,4.320007,9.870117,6.75,14.679688,2.429993,4.820312,5.040039,9.560059,7.820007,14.200195,4.539978,7.620117,14.720032,21.25,18.52002,26.149902.73999.959961,1.469971,1.930176,2.159973,2.930176.630005.899902,1.640015,2.27002,2.98999,4.02002Z" fill="#e0f3fc"/><path d="M549.582017,440.77081l-72.281716-44.822538c-5.560513-3.425403-7.725802-10.403331-5.149798-16.404739,13.649239-31.799107,20.854564-66.867697,20.854564-103.162709,0-63.640137-22.140015-123.509766-62.339966-168.589844-40.429993-45.330078-94.26001-70.300293-151.570007-70.300293-34.330017,0-68.450012,9.290039-98.690002,26.880371-29.150024,16.949707-76.98999,75.389648-78.600037,76.889648-.029968.030273-13.579956,16.560059-19.119995,25.560059-5.559998,8.97998-10.219971,18.470215-14.049988,28.22998-3.779968,9.780273-6.73999,19.840332-8.700012,30.060059-1.969971,10.160156-3.019958,20.459961-3.159973,30.740234-.02002,1.489746,1.059998,2.839844,2.539978,2.97998,1.580017.159668,2.929993-.990234,3.090027-2.510254v-.02002c1.01001-9.929688,2.909973-19.72998,5.659973-29.239746,2.730042-9.530273,6.380005-18.72998,10.720032-27.540039,3.029968-6.040039,9.880005-16.540039,14.109985-22.820312.869995-1.289551,2.890015-.519531,2.690002,1.030273-.97998,7.279785-1.840027,14.120117-2.960022,19.569824,6.48999-18.449707,15.360046-29.819824,25.140015-29.819824,10.330017,0,19.650024,12.689941,26.220032,33.009766.319946.67041.629944,1.350098.940002,2.050293-.030029-2.129883-.400024-4.300293-1.140015-6.419922-2.52002-7.42041-7.77002-22.360352-10.410034-29.75l-5.26001-14.880371c-.009949-.040039-.029968-.069824-.039978-.109863-3.080017-8.089844-1.570007-17.219727,3.840027-23.969727,37.329956-46.630371,91.039978-73.92041,147.179993-73.92041,109.130005,0,197.909973,99.990234,197.909973,222.890137s-88.779968,222.890137-197.909973,222.890137c-57.809998,0-108.840027-28.540039-146.190002-77.459961-.27002-.360352-.530029-.720215-.790039-1.080078-4.899963-7.069824-6.009949-16.100098-3.459961-24.310059l2.880005-9.330078c2.309998-7.399902,7.309998-23.939941,9.519958-31.359863.640015-2.129883.550049-2.680176.570007-4.810059-1.649963,4.27002-3.449951,8.100098-5.349976,11.439941-.160034.290039-.330017.570312-.5.850098-.160034.279785-.330017.549805-.5.830078-.02002.040039-.039978.069824-.059998.100098-.330017.540039-.669983,1.069824-1.01001,1.580078-.169983.269531-.349976.519531-.529968.779785-4.790039,6.970215-10.200012,11.040039-15.910034,10.759766-8.119995,0-15.609985-7.82959-21.630005-21.049805-.109985-.25-.22998-.5-.339966-.760254-1.700012-3.799805-3.27002-8.029785-4.700012-12.629883-.780029-2.52002-1.530029-5.149902-2.230042-7.879883,1.140015,6,3.410034,17.22998,6.230042,29.680176.5,2.179688-2.450012,3.389648-3.619995,1.47998l-.059998-.100098c-2.679993-4.350098-5.160034-8.819824-7.550049-13.350098-2.329956-4.560059-4.539978-9.200195-6.589966-13.919922-2.01001-4.720215-3.880005-9.52002-5.580017-14.390137-3.390015-9.739746-6.070007-19.75-8.080017-29.929688v-.02002c0-.764886-.427154-1.479638-1.113251-1.817751-2.439488-1.202197-4.489109.635249-4.276702,2.647829,1.179993,10.569824,3.059998,21.089844,5.72998,31.449707,1.330017,5.180176,2.849976,10.310059,4.530029,15.410156,1.709961,5.080078,3.609985,10.109863,5.649963,15.089844,2.109985,4.950195,4.320007,9.870117,6.75,14.680176,2.429993,4.819824,5.040039,9.560059,7.820007,14.199707,4.540272,7.614078,14.716434,21.251667,18.515659,26.148836.745836.961377,1.470118,1.932301,2.164956,2.931159,5.975063,8.589384,47.280179,59.987567,73.879382,74.899986,29.900024,16.75,62.140015,25.240234,95.830017,25.240234,57.309998,0,111.140015-24.959961,151.570007-70.299805,1.359724-1.523555,2.698315-3.064654,4.015772-4.622574,3.151751-3.727011,8.559436-4.576711,12.715055-2.016443l75.471376,46.315449" fill="#d19885" stroke="#b14c3a" stroke-miterlimit="10"/><path d="M88.577326,334.704392c0,.02002.009949.049805.009949.069824.700012,2.72998,1.450012,5.359863,2.230042,7.879883,1.429993,4.600098,3,8.830078,4.700012,12.629883.109985.260254.22998.510254.339966.760254,6.02002,13.220215,13.51001,21.049805,21.630005,21.049805-13.51001-.669922-28.799988-42.129883-28.909973-42.389648Z" fill="none" stroke="#5c3722" stroke-miterlimit="10"/><path d="M153.491546,272.204392c0,17.32959-1.440002,33.669922-3.98999,48.069824,0,.02002,0,.049805-.01001.069824-.570007,3.210449-1.200012,6.330078-1.869995,9.340332-.210022.889648-.410034,1.77002-.619995,2.639648-1.210022,5.030273-2.559998,9.730469-4.050049,14.050293-.519958,1.5-1.049988,2.959961-1.599976,4.379883-.340027.890137-.690002,1.760254-1.049988,2.600098-.359985.870117-.730042,1.709961-1.100037,2.540039h-.009949c-1.02002,2.259766-2.080017,4.359863-3.190002,6.299805-.160034.290039-.330017.570312-.5.850098-.160034.279785-.330017.560059-.5.830078-.02002.040039-.040039.069824-.059998.100098-.330017.540039-.670044,1.069824-1.01001,1.580078-.179993.259766-.360046.519531-.530029.779785-4.799988,6.890137-10.200012,10.759766-15.909973,10.759766-8.119995,0-15.609985-7.82959-21.630005-21.049805-.109985-.25-.22998-.5-.340027-.760254-1.700012-3.799805-3.269958-8.029785-4.700012-12.629883-.779968-2.52002-1.529968-5.149902-2.22998-7.879883,0-.02002-.01001-.049805-.01001-.069824-4.459961-17.450195-7.089966-39.080078-7.089966-62.5,0-29.430176,4.159973-56.02002,10.859985-75.070312,6.48999-18.449707,15.359985-29.819824,25.140015-29.819824,8.589966,0,16.47998,8.77002,22.669983,23.399902,1.140015,2.689941,2.220032,5.590332,3.23999,8.660156.100037.310059.210022.629883.309998.949707.48999,1.52002.960022,3.070312,1.420044,4.67041,5.219971,18.199707,8.359985,41.629883,8.359985,67.209961Z" fill="#dcdcde" stroke="#231f20" stroke-miterlimit="10"/><path d="M471.277457,282.054996c0,81.346839-46.305792,147.458031-49.959996,148.138492-19.958822,3.716592,29.635569-65.944643,29.635569-147.291482s-49.937481-147.291482-29.635569-147.291482,49.959996,65.097633,49.959996,146.444472Z" fill="#bfa1b4" opacity=".43"/><path d="M44.14911,279.980922c0,19.145871,4.996991,34.666667,0,34.666667s-9.047852-15.520795-9.047852-34.666667,4.050861-34.666667,9.047852-34.666667,0,15.520795,0,34.666667Z" fill="#e0f3fc" mix-blend-mode="screen" opacity=".61"/><path d="M153.491546,272.204392c0,17.32959-1.440002,33.669922-3.98999,48.069824,0,.02002,0,.049805-.01001.069824-.570007,3.210449-1.200012,6.330078-1.869995,9.340332-.210022.889648-.410034,1.77002-.619995,2.639648-1.210022,5.030273-2.559998,9.730469-4.050049,14.050293-.519958,1.5-1.049988,2.959961-1.599976,4.379883-.340027.890137-.690002,1.760254-1.049988,2.600098-.359985.870117-.730042,1.709961-1.100037,2.540039h-.009949c-.890015,0,1.712278,1.443436-.363361-.017445-3.946702-2.777778,4.07889-39.052623,4.07889-79.132701,0-35.459961-8.425551-75.729736-2.745558-86.030029,1.140015,2.689941,2.220032,5.590332,3.23999,8.660156.100037.310059.210022.629883.309998.949707.48999,1.52002.960022,3.070312,1.420044,4.67041,5.219971,18.199707,8.359985,41.629883,8.359985,67.209961Z" fill="#dcdcde" mix-blend-mode="multiply" opacity=".47"/><path d="M542.19463,452.545793l-80.716649-52.050439c-7.394724-4.768516-10.116996-14.233402-6.464759-22.238516,13.897987-30.462146,21.744096-64.97183,21.744096-101.512406,0-122.900391-88.780029-222.890137-197.910034-222.890137-56.139954,0-109.849976,27.290039-147.179993,73.919922-.779968.97998-1.47998,2-2.089966,3.069824,42.679993-41.75,104.579956-74.779785,154.519958-71.959961,99.830017,5.630371,181.040039,97.240234,181.040039,217.180176,0,2.310059-.040039,4.609863-.100037,6.890137-.099976,3.889648,1.410034,7.759766,4.429993,10.199707.490051.400391.75.810059.75,1.240234,0,.629883-.569946,1.22998-1.599976,1.790039-2.830017,1.52002-4.619995,4.469727-4.960022,7.679688-11.389954,106.560059-87.449951,187.610352-179.559998,189.390137-48.099976.930176-102.089966-15.410156-151.440002-71.080078,37.350037,48.919922,88.380005,77.459961,146.190002,77.459961,57.585006,0,109.498137-27.838304,145.702952-72.199917,5.641056-6.911964,15.529135-8.557257,23.004582-3.687508l80.416536,52.385943" fill="#fbf5b5" stroke="#7a6b2b" stroke-miterlimit="10" stroke-width="1.052398"/></g></g></svg>