<?xml version="1.0" encoding="UTF-8"?><svg id="Layer_1" xmlns="http://www.w3.org/2000/svg" width="427.80868" height="233.0885" viewBox="0 0 427.80868 233.0885"><path d="M427.65326,204.32647l-111.42673,8.68501c-23.76426,1.85227-47.51803-3.924-67.70483-16.59934-24.46166-15.35953-52.09188-36.66467-54.09079-50.78398-2.15204-15.20671-28.65606-30.12339-26.94081-49.65204,1.66631-18.97005,5.12951-36.37611,9.68694-50.60754,7.53321-23.52106,18.2223-38.3473,28.57929-37.22282" fill="none" stroke="#631c25" stroke-miterlimit="10" stroke-width="4"/><path d="M156.23562,2.06653c-10.35949-1.13922-4.82279,13.69218-12.33671,37.32704-4.54577,14.30028,6.00676,34.51666,4.35665,53.58232-1.69857,19.62707-1.24135,38.03276.9242,53.31913,3.41618,24.10549,30.79419,43.27458,40.96902,44.39376" fill="none" stroke="#631c25" stroke-miterlimit="10" stroke-width="4.01051"/><path d="M127.8455,3.48679l122.89618,12.04636c8.11103.79505,14.56495,10.91285,18.47229,26.70921l-145.49445-14.75355,4.12599-24.00202Z" fill="#a8ddf3" stroke="#34444a" stroke-miterlimit="10"/><path d="M123.71795,27.48477l145.49494,14.7536c4.08103,16.48701,5.40489,39.16426,2.98264,63.87591-2.45931,25.08972-8.29021,47.3669-15.64803,62.77289l-144.08972-14.12376,11.26017-127.27863Z" fill="#f2737d" stroke="#631c25" stroke-miterlimit="10"/><path d="M112.45778,154.76341l144.08972,14.12376c-6.83984,14.32098-15.00763,22.71412-22.9894,21.93175l-123.21952-12.07805,2.11825-23.96774.00095-.00972Z" fill="#fabe78" stroke="#785b3a" stroke-miterlimit="10"/><line x1="269.48285" y1="42.26877" x2="269.21414" y2="42.24243" fill="none" stroke="#2e3191" stroke-miterlimit="10"/><path d="M90.22799,139.22396c3.23355,23.03076,10.76948,38.6073,20.92345,39.6026,7.9944.78362,16.1514-7.61451,22.98967-21.93957l-19.1997-65.44196-24.71343,47.77893Z" fill="#fabe78" stroke="#785b3a" stroke-miterlimit="10"/><path d="M128.33427,3.5285c-10.33815-1.01335-20.94938,13.32751-28.62832,35.98874l15.23547,51.92779,31.79911-61.47971c-3.91689-15.63883-10.33411-25.64558-18.40626-26.43682Z" fill="#a8ddf3" stroke="#34444a" stroke-miterlimit="10"/><path d="M99.70595,39.51724c-4.64587,13.7113-8.21893,30.46756-10.00761,48.71556-1.84131,18.78497-1.52069,36.38604.52965,50.99117l24.71343-47.77893-15.23547-51.92779Z" fill="#32db8d" stroke="#145c3b" stroke-miterlimit="10"/><path d="M134.14112,156.88699c7.3567-15.40954,13.18771-37.67788,15.64669-62.76419,2.43673-24.85938,1.08792-47.6475-3.04728-64.15748l-31.79911,61.47971,19.1997,65.44196Z" fill="#f2737d" stroke="#631c25" stroke-miterlimit="10"/><path d="M2.00524,223.89122s82.16599,13.89457,107.97737,3.05845c25.32125-10.63035,46.09584-49.62354,52.83264-64.54872,7.24709-16.05482,12.9137-39.29257,15.18221-65.50324,2.2483-25.97342.72138-49.81068-3.54656-67.10489-4.043-16.382-10.54597-26.89438-18.63453-27.78391" fill="none" stroke="#631c25" stroke-linecap="round" stroke-miterlimit="10" stroke-width="4.01047"/><path d="M269.3824,42.22082l-56.20626-5.66136c-.01671-.0982-.04313-.19524-.07003-.2922-3.57824-14.29221-9.25613-23.8754-16.37555-26.01162l54.16125,5.26889c8.10798.79116,14.57506,10.89931,18.4906,26.69629Z" fill="#f9bd77" stroke="#785b3a" stroke-miterlimit="10"/><path d="M272.38455,105.97484c-2.43467,25.09366-8.25948,47.37685-15.59822,62.78634l-56.2811-5.38473c.0294-.06592.0438-.22033.0732-.28626,7.34721-15.42083,13.16355-37.69268,15.60949-62.77835,2.39848-24.71256,1.0929-47.27731-2.99932-63.75449l56.17829,5.54836c4.09221,16.47718,5.42577,39.15493,3.01766,63.86913Z" fill="#5cbd84" stroke="#145d3b" stroke-miterlimit="10"/><path d="M256.78632,168.76118c-6.83309,14.32937-14.99974,22.72859-22.98383,21.94656l-52.34745-5.10008c6.66917-2.05814,13.29373-10.39769,18.95159-22.21451l56.37969,5.36802Z" fill="#a9dcf2" stroke="#34454b" stroke-miterlimit="10"/><path d="M190.05158,190.6788c8.00891.86953,15.65257-8.12743,22.40125-22.98246,7.25988-15.97936,12.94571-39.10375,15.23649-65.18299,2.27037-25.84318.76424-49.55781-3.48816-66.76033-4.02828-16.29514-10.52123-26.74842-18.60784-27.62644" fill="none" stroke="#631c25" stroke-miterlimit="10" stroke-width="4"/></svg>