<?xml version="1.0" encoding="UTF-8"?><svg id="a" xmlns="http://www.w3.org/2000/svg" width="360.023103" height="533.797637" viewBox="0 0 360.023103 533.797637"><path d="M225.386675,146.969956c-2.025683-3.346325-4.242924-6.624249-5.568215-10.30469-2.244846-6.234211-.879611-11.514248,4.101275-15.993003,8.547176-7.685523,18.851479-13.824015,17.863829-27.246576-.510188-6.933655-4.219174-13.566927-9.859082-17.632304" fill="none" stroke="#2b8741" stroke-miterlimit="10" stroke-width="2"/><line x1="216.92477" y1="320.691608" x2="194.258103" y2="320.691608" fill="none" stroke="#2b8741" stroke-linecap="round" stroke-miterlimit="10" stroke-width="5.25"/><line x1="163.605313" y1="375.705485" x2="147.577559" y2="359.677731" fill="none" stroke="#2b8741" stroke-linecap="round" stroke-miterlimit="10" stroke-width="5.25"/><line x1="264.591436" y1="360.841895" x2="246.533101" y2="374.541322" fill="none" stroke="#2b8741" stroke-linecap="round" stroke-miterlimit="10" stroke-width="5.25"/><line x1="216.92477" y1="312.894302" x2="194.258103" y2="312.894302" fill="none" stroke="#2b8741" stroke-linecap="round" stroke-miterlimit="10" stroke-width="5.25"/><path d="M223.938938,142.376786c5.954622,0,10.78119,4.937619,10.78119,11.025812v160.707975c0,22.580764,8.164104,44.232456,22.986736,60.968063l79.637618,89.904667c3.997824,4.513076,3.660912,11.484195-.752036,15.572729-4.411444,4.09161-11.229403,3.743977-15.227227-.7691l-79.637618-89.904667c-18.423381-20.79953-28.569852-47.708786-28.569852-75.771692v-160.707975c0-6.088192,4.826568-11.025812,10.78119-11.025812Z" fill="#b2dbb6" stroke="#2b8741" stroke-miterlimit="10" stroke-width=".5625"/><path d="M265.459982,343.978846c2.756436.142837,5.458091,1.360957,7.454535,3.620653l84.045951,95.129914c3.991539,4.516243,3.645983,11.490719-.772989,15.571133-4.419124,4.083486-11.237209,3.727096-15.227245-.789069l-84.045951-95.129914c-3.991539-4.516243-3.645983-11.490719.772989-15.571133,2.20806-2.041821,5.017776-2.974343,7.77271-2.831584Z" fill="#b2dbb6" stroke="#2b8741" stroke-miterlimit="10" stroke-width=".5625"/><path d="M189.713774,142.376786c5.954622,0,10.78119,4.937619,10.78119,11.025812v174.290274c0,19.3044-6.978895,37.812013-19.650704,52.120342l-88.556766,99.973718c-3.994816,4.513076-10.817288,4.860709-15.227227.7691-4.412948-4.088533-4.74986-11.059652-.752036-15.572729l88.555262-99.973718c9.072564-10.244407,14.069092-23.497531,14.069092-37.316712v-174.290274c0-6.088192,4.826568-11.025812,10.78119-11.025812Z" fill="#b2dbb6" stroke="#2b8741" stroke-miterlimit="10" stroke-width=".5625"/><path d="M147.399746,343.40007c2.75275-.181558,5.57476.711293,7.810114,2.721813,4.473515,4.017772,4.912983,10.986719.982656,15.558766l-82.75659,96.30493c-3.931634,4.575216-10.744465,5.024556-15.215172,1.003516-4.473515-4.017772-4.912983-10.986719-.982656-15.558766l82.75659-96.30493c1.965817-2.287608,4.652309-3.543772,7.405058-3.725329Z" fill="#b2dbb6" stroke="#2b8741" stroke-miterlimit="10" stroke-width=".5625"/><circle cx="230.310593" cy="39.639559" r="39.139559" fill="#f3cf99" stroke="#8a6834" stroke-miterlimit="10"/><circle cx="39.639559" cy="494.158078" r="39.139559" fill="#a4dff9" stroke="#2e2f82" stroke-miterlimit="10"/></svg>