<?xml version="1.0" encoding="UTF-8"?><svg id="Layer_1" xmlns="http://www.w3.org/2000/svg" width="541.03126" height="299.059424" xmlns:xlink="http://www.w3.org/1999/xlink" viewBox="0 0 541.03126 299.059424"><defs><radialGradient id="radial-gradient" cx="270.51563" cy="149.529712" fx="270.51563" fy="149.529712" r="217.120018" gradientUnits="userSpaceOnUse"><stop offset="0" stop-color="#fff6ed"/><stop offset=".557291" stop-color="#ffedda"/><stop offset="1" stop-color="#ffe5c9"/></radialGradient></defs><path d="M522.354602,258.145852c-126.125488-74.19873-276.599609-88.315918-411.646118-42.754395-15.715576,5.436523-22.560059-16.763672-6.153809-21.953613-1.380615,1.564453,24.155762-9.400391,62.594727-16.750488,38.465698-7.824219,89.833862-12.035156,140.733032-7.903809,50.925537,3.656738,101.38208,15.652832,138.638184,29.322754,37.283203,13.193359,61.366211,28.060547,60.161621,26.513184,10.722168,5.498535,23.488281,4.456543,29.369141-3.34668,18.398682-24.380371-41.218018-43.554199-60.677979-52.235352-17.865234-7.31543-6.463379-26.944336,10.647217-19.36377,14.151855,7.391113,32.6875,9.475098,39.518799-1.402344,6.282715-9.54541-1.305176-23.98877-16.382324-30.506836-102.55542-44.347168-214.383545-59.690918-323.428223-45.970703-23.830566,3.228516-25.66748-23.614258-1.433838-26.193359-.563721.03418,71.660889-9.764648,142.378662-1.151367,70.958252,5.675293,140.409424,29.763184,139.854248,29.723145,35.156006,12.968262,50.572998-23.618652,11.989502-37.056641.584229,1.055176-22.895752-8.623535-58.652588-17.019043-35.745117-8.714355-83.76709-16.145996-131.995117-17.961914C239.653675-.001121,191.230823,3.476418,154.954212,9.231789c-36.265137,5.433105-63.614632,13.198905-65.358667,13.858235-31.592761,11.943611-19.459501,46.804689,14.628564,37.346355,6.466309-1.626953,12.589111.774414,13.651489,5.21875,2.477391,6.342855,3.964445,15.805838-5.945875,19.812924-.905447.366103-4.079855,1.077679-5.869799,1.545683-11.197333,2.927686-51.433331,15.334891-51.278198,15.98026-34.814209,12.57959-18.391357,50.177246,13.130005,37.689941,6.814498-2.560456,26.496582-9.124023,62.894653-18.166992,36.370728-9.414551,84.319458-17.084473,131.634644-17.718262,47.288574-1.001953,93.943359,5.032227,127.110107,14.510254,33.139648,9.106934,48.878798,18.555284,46.10102,25.444173-1.987572,4.92918-8.816352,7.221842-15.402045,5.340007-130.521973-37.354492-271.56189-26.152344-395.681885,33.557617-11.739136,5.625-18.057007,17.776367-14.116821,27.274902,16.853149,29.673828,43.037476-10.603516,54.433838,9.908203,8.809204,17.12207-34.899753,26.104456-53.551636,40.887695-22.385154,18.994538-2.400146,45.944824,18.649048,31.966797,8.743575-5.268555,26.475586-18.66748,70.293335-35.778809,43.404297-17.874023,104.644287-31.680664,166.090332-31.989258,61.431396-1.078125,123.075928,11.344727,167.026367,28.255859,44.340332,16.138184,70.986816,36.765137,71.400879,34.239258,21.327148,13.241699,41.82959-15.909668,17.561035-30.269531Z" fill="url(#radial-gradient)" stroke="#9a8479" stroke-miterlimit="10" stroke-width="3"/></svg>