<?xml version="1.0" encoding="UTF-8"?><svg id="Layer_1" xmlns="http://www.w3.org/2000/svg" width="412.573599" height="411.654826" xmlns:xlink="http://www.w3.org/1999/xlink" viewBox="0 0 412.573599 411.654826"><defs><linearGradient id="linear-gradient" x1="93.32527" y1="269.912253" x2="337.1974" y2="269.912253" gradientUnits="userSpaceOnUse"><stop offset=".013966" stop-color="#de9e8e"/><stop offset=".052856" stop-color="#d8897e"/><stop offset=".137274" stop-color="#cf6361"/><stop offset=".221054" stop-color="#c7444a"/><stop offset=".302925" stop-color="#c22f3a"/><stop offset=".382055" stop-color="#bf2230"/><stop offset=".455307" stop-color="#be1e2d"/><stop offset=".532594" stop-color="#bf2431"/><stop offset=".640337" stop-color="#c4363f"/><stop offset=".76603" stop-color="#cb5456"/><stop offset=".904113" stop-color="#d57d75"/><stop offset="1" stop-color="#de9e8e"/></linearGradient></defs><path d="M411.073599,215.231419c-7.049895,258.90174-396.363924,260.894822-406.216396-.008119-20.450271-58.658548,58.660841-96.88077,72.092012-150.790752,10.150966-40.743906,88.155288-15.876926,131.013273-46.534462,60.888889-43.555556,137.333333,7.111111,150.576924,64.897555,10.694514,46.663927,52.534187,81.469224,52.534187,132.435778Z" fill="#b1d5f1" opacity=".58" stroke="#004a79" stroke-linecap="round" stroke-miterlimit="10" stroke-width="3"/><path d="M273.87606,179.542095c-147.900013,33.181069,63.394589,142.318087-61.995331,168.589925-39.216934,5.454627-67.247726-25.867009-36.37504-43.256592,46.990444-26.468193,36.323778-97.843052-21.925926-84.148148-95.823672,22.528801-72.191046,127.210502,34.37037,137.481481,82.589616,28.702695,236.177099-191.158868,85.925926-178.666667Z" fill="url(#linear-gradient)" stroke="#8a181a" stroke-linecap="round" stroke-miterlimit="10" stroke-width="2"/><path d="M144.866505,119.498651c.202088,13.839548-21.537145,13.839696-21.333275-.000953-.202147-13.838594,21.537086-13.838743,21.333275.000953Z" fill="#5959a2"/><path d="M320.718357,346.609763c.202088,13.839548-21.537145,13.839696-21.333275-.000953-.202147-13.838594,21.537086-13.838743,21.333275.000953Z" fill="#5959a2"/><path d="M233.162801,85.128281c.202088,13.839548-21.537145,13.839696-21.333275-.000953-.202147-13.838594,21.537086-13.838743,21.333275.000953Z" fill="#7574b0"/><path d="M302.496134,140.831985c.202088,13.839548-21.537145,13.839696-21.333275-.000953-.202147-13.838594,21.537086-13.838743,21.333275.000953Z" fill="#7574b0"/><path d="M99.236875,207.032376c.202088,13.839548-21.537145,13.839696-21.333275-.000953-.202147-13.838594,21.537086-13.838743,21.333275.000953Z" fill="#7574b0"/><path d="M375.385023,275.773117c.202088,13.839548-21.537145,13.839696-21.333275-.000953-.202147-13.838594,21.537086-13.838743,21.333275.000953Z" fill="#7574b0"/><path d="M206.284769,389.550895c.202088,13.839548-21.537145,13.839696-21.333275-.000953-.202147-13.838594,21.537086-13.838743,21.333275.000953Z" fill="#7574b0"/><path d="M206.284769,389.550895c.202088,13.839548-21.537145,13.839696-21.333275-.000953-.202147-13.838594,21.537086-13.838743,21.333275.000953Z" fill="#7574b0"/><path d="M107.173658,344.217562c.202088,13.839548-21.537145,13.839696-21.333275-.000953-.202147-13.838594,21.537086-13.838743,21.333275.000953Z" fill="#7574b0"/><path d="M68.803287,249.699043c.202088,13.839548-21.537145,13.839696-21.333275-.000953-.202147-13.838594,21.537086-13.838743,21.333275.000953Z" fill="#7574b0"/><path d="M175.469954,53.550895c.202088,13.839548-21.537145,13.839696-21.333275-.000953-.202147-13.838594,21.537086-13.838743,21.333275.000953Z" fill="#7574b0"/><path d="M206.284769,185.699043c.202088,13.839548-21.537145,13.839696-21.333275-.000953-.202147-13.838594,21.537086-13.838743,21.333275.000953Z" fill="#7574b0"/><path d="M313.162801,68.36571c.202088,13.839548-21.537145,13.839696-21.333275-.000953-.202147-13.838594,21.537086-13.838743,21.333275.000953Z" fill="#7574b0"/><path d="M388.42206,180.343879c.202088,13.839548-21.537145,13.839696-21.333275-.000953-.202147-13.838594,21.537086-13.838743,21.333275.000953Z" fill="#7574b0"/><path d="M82.644283,159.010546c.202088,13.839548-21.537145,13.839696-21.333275-.000953-.202147-13.838594,21.537086-13.838743,21.333275.000953Z" fill="#7574b0"/></svg>