<?xml version="1.0" encoding="UTF-8"?><svg id="Layer_1" xmlns="http://www.w3.org/2000/svg" width="530.37502" height="632.959828" xmlns:xlink="http://www.w3.org/1999/xlink" viewBox="0 0 530.37502 632.959828"><defs><radialGradient id="radial-gradient" cx="265.18751" cy="316.479914" fx="256.547537" fy="-49.46408" r="371.533106" gradientUnits="userSpaceOnUse"><stop offset="0" stop-color="#a2d165"/><stop offset=".063991" stop-color="#b1d87e"/><stop offset=".193713" stop-color="#cee7ae"/><stop offset=".258354" stop-color="#daedc1"/><stop offset=".316419" stop-color="#d7ebbc"/><stop offset=".380465" stop-color="#cfe7af"/><stop offset=".447379" stop-color="#c1e099"/><stop offset=".515811" stop-color="#afd77a"/><stop offset=".555866" stop-color="#a2d165"/><stop offset=".801676" stop-color="#daedc1"/><stop offset=".836665" stop-color="#d6ebba"/><stop offset=".884865" stop-color="#cbe5a8"/><stop offset=".940739" stop-color="#b9dc8b"/><stop offset="1" stop-color="#a2d165"/></radialGradient><radialGradient id="radial-gradient-2" cx="351.912612" cy="145.734479" fx="351.912612" fy="145.734479" r="16.215103" gradientUnits="userSpaceOnUse"><stop offset="0" stop-color="#ecf6e0"/><stop offset=".110281" stop-color="#e2edd4"/><stop offset=".304404" stop-color="#c8d5b7"/><stop offset=".55956" stop-color="#9eb087"/><stop offset=".862577" stop-color="#657c46"/><stop offset="1" stop-color="#496326"/></radialGradient></defs><path d="M529.406096,91.735586c-9.775319-.807338-21.656783,3.958631-31.408153-2.159498-12.221837-2.116765-16.128243-6.155015-12.668954-18.731079,11.496291-16.123334,21.421274-10.837347,27.126631-35.968031-.273786-9.085128-6.823474,3.062189-6.614095,6.468975-4.857766,20.615796-29.572173,15.056108-25.633106,43.71974-.043158,2.153209-1.064538,4.147635-2.723738,5.521903-10.277708,11.526155-16.136981,10.607116-28.108544,2.067268-15.630892-11.736272,4.892882-34.210428,16.429751-41.600659.911003-.556934,1.363633-1.709899.894196-2.666899-.525038-1.070347-1.839894-1.436711-2.837109-.832693-18.521925,9.142567-20.001594,28.87242-30.437553,43.062256-5.366657,3.931124-13.302482,3.051641-19.276796,6.336336-8.418236,7.539551-20.334697,10.302625-30.576902,4.433503.000272.000586-16.25814-8.819276-22.924806-14.402609-2.949146-2.46991-14.505927-13.643842-19.512458-16.53642-12.343273-3.80522-6.810597-14.799733-5.428197-24.224998,1.542607-7.712868,15.837082-10.49654,15.655577-20.322616,1.945912-7.89271,5.148948-15.365885,9.525076-22.216451-2.177118-14.135825-14.461163,23.199666-15.048939,26.308671-2.637536,3.366594-10.029257,10.483757-14.111634,5.001047-2.20914-3.813298-30.336688-28.051887-25.804546-17.186502,53.006342,36.231395,1.336674,37.68158,35.425057,57.628703,15.867821,14.577023-13.79983,24.458145-22.825896,30.254024-8.077798,4.796215-15.746062.113688-21.676961-5.591393-16.452375-1.405501-22.234351-1.023003-35.077355-13.385738-4.028751-2.454221-18.039625-9.308047-19.063896-3.501668,4.915473,4.324189,25.11715,3.917478,18.439047,15.574518-4.651517,11.110157-11.64077,8.778434-21.050748,9.871318-4.634928,1.788461-7.561388,6.928839-13.012396,6.09243-1.182657-.103275-2.224895.83747-2.182623,2.069364,1.200722,3.924851,7.53066,1.394286,10.114111.019436,11.403797-10.377433,21.278306,2.315753,29.859068-16.492394,5.163588-5.849158,16.224989,5.883116,24.456669,2.973201,11.816413-1.424824,16.35525,15.262213,16.762079,24.639665-.454514,11.735894,3.52708,32.383623-11.635148,36.566787-12.064694,3.850709-20.046842-7.168498-30.56104-3.232225-6.628848,5.688746-16.512116,7.610708-24.711775,4.414297-7.073239-7.414765-19.159101-14.057407-28.739719-11.533989-3.345278,4.935399,18.245511,4.182231,20.479554,9.426821,8.157428,10.655089,24.929769,9.563411,34.637111,1.32998,6.000086-1.380335,13.196369,1.065056,19.00024,3.070013,10.546717,9.688549-7.740929,18.265602-17.920906,18.642848-12.149786,2.152542-23.937112,5.999012-34.934306,11.616076-1.018385.537273-2.265918.364657-3.082151-.447455-6.161915-6.786726-21.876231-4.124042-25.419534-12.018704-1.18162-6.175883-10.211186-6.110084-14.778081-7.712592-2.533478-.717421-3.672064,3.218208-1.084776,3.852065,3.218463,1.581179,11.600687,1.021676,12.231392,5.537541,1.766335,10.344218,27.865529,6.280503,24.905571,16.127864-4.286086,7.385494-10.875022,9.729791-20.072041,9.721056-9.166286,7.652142,17.967143,2.5695,19.158254-2.094714,9.7599-13.81461,28.257069-17.010373,43.765769-20.640669,17.783704-.245632,30.046224-22.153083,48.224591-18.744068,21.270576,11.77056,31.685603,37.875217,34.911507,58.345938,20.83623,145.321279-203.163189,192.848353-274.663228,318.340482-15.683211,3.161037-29.667098-.446224-44.205103,6.509157-15.492154,6.488389,4.727956,27.228544-7.305547,34.961562-6.121114,9.546489-23.51632,1.832733-23.762502,15.674093-.938505,8.643398,23.769325,6.343697,22.657347,2.10974,1.933229-8.141016-5.701336-7.685533-3.444264-9.443724,19.153713-8.220755,15.547182-17.270327,12.681721-33.927506.53041-4.368294,9.10704-5.887277,12.86369-5.737942,19.86405,5.051602,7.962182,29.568933,14.347671,43.035648,13.560048,9.20024.504301,3.380951,2.439448,14.741058-.793892,7.041245,23.759891,7.749138,23.408679-.777351.383808-11.835763-9.134892-9.055366-15.435652-12.979149-11.753488-8.520675-.1099-30.233923-10.254265-42.395459-2.983242-5.716409,19.38573-2.528914,23.317704-5.230261,11.049214-4.360617,24.859728,7.995998,39.607964,9.062006,6.319026.336776,23.969518-2.285647,22.023032,7.246397,1.941738,7.169111-1.677186,13.772665.777064,21.501292,1.914356,6.235194,6.742071,12.532804,1.89442,18.23058-1.480122,2.80345-3.558064,5.801405-7.190153,5.10333-10.038277-.378521-16.931121,17.919695-.592394,16.127063,9.034253-.41401,14.11107.151753,14.666626-4.221927,1.067487-8.403922-4.720468-9.377659-2.888889-12.333333,15.421128-11.71368-12.829399-33.46554,9.237649-37.76601,12.152842,1.990009,18.205589,17.115975,31.718074,18.055632,14.289775,1.014008,13.990707,7.329606,15.489293,19.017301-3.498151,1.75019-5.926495,5.526069-5.926495,9.91529,0,6.054688,4.387569,5.185196,10.074092,5.185196,5.686401,0,10.518437.869491,10.518437-5.185196,0-5.092407-3.265625-9.361267-7.685425-10.593567l-1.493042-9.490967c-1.073774-19.160182-25.768981-12.042157-35.184673-24.201494-4.250933-4.804682-9.875612-9.856112-16.793338-9.674951-9.314503-.064199-11.686954-13.099769-20.065662-15.002029-12.601475-.854722-29.382731,5.606614-37.078622-6.904989-3.745972-3.185592-9.174977-8.877029-6.333274-13.067025,81.960018-119.694597,292.644616-157.342096,263.131658-307.403631-4.044508-20.5647,10.114189-43.679927,28.311478-54.078179,12.023999-8.682861,20.675891,5.310899,31.988536,6.17811,13.616124-2.977006,23.658403-5.922373,38.160481-2.717692,10.10483,1.287424,26.593083,5.572723,33.655252-2.474765-2.505717-3.841174-15.386251,2.609881-20.740932.415092-7.041774-1.969815-26.297723.422454-21.874348-11.816934,11.621947-11.865905,42.521071,3.589765,49.523471-13.21819-.608239-1.295349-2.199641-1.549912-3.171563-.67612-9.023368,8.724043-27.458838,3.613637-39.715158,5.889874-13.789923.985077-7.698992,13.496432-17.153129,16.125316-8.647032.492041-17.568103,8.351139-25.427722,1.933038-15.274601-9.33603-9.94848-36.046058-10.716726-50.747704-1.105016-22.93476,27.618227-32.854242,45.853673-25.992579,4.295321,2.733233,8.918244,6.01788,14.261127,6.026424,9.230563.364443,13.707229-10.854778,21.614047-12.820639,15.31622,2.532074,25.535131,9.742096,42.646994,4.332315,1.411819-.251534,2.20814-1.93042,1.176109-3.286261Z" fill="url(#radial-gradient)" stroke="#3c611b" stroke-miterlimit="10"/><path d="M368.346097,145.734662c.311283,21.321891-33.180996,21.322069-32.866969-.001468-.311373-21.320423,33.180906-21.320601,32.866969.001468Z" fill="url(#radial-gradient-2)"/></svg>