<?xml version="1.0" encoding="UTF-8"?><svg id="Layer_1" xmlns="http://www.w3.org/2000/svg" width="373.13705" height="561.14592" viewBox="0 0 373.13705 561.14592"><path d="M45.64301,383.97646c-1.34382-18.99256,61.73151-57.06675,151.2-85.38948,89.46848-28.32272,166.83101-36.01276,172.79404-17.17618" fill="none" stroke="#785b3a" stroke-linecap="round" stroke-miterlimit="10" stroke-width="7"/><path d="M29.79613,282.31021c-.30145-20.74074,77.1784-43.50674,166.64688-71.82946,89.46848-28.32272,166.83101-36.01276,172.79404-17.17618" fill="none" stroke="#785b3a" stroke-linecap="round" stroke-miterlimit="10" stroke-width="7"/><circle cx="197.54755" cy="177.29028" r="75.90885" fill="#f2737d" stroke="#631c25" stroke-miterlimit="10" stroke-width="5"/><circle cx="117.61586" cy="211.0323" r="75.90885" fill="#a8ddf3" stroke="#34444a" stroke-miterlimit="10" stroke-width="5"/><circle cx="279.56136" cy="262.3015" r="75.90885" fill="#fabe78" stroke="#785b3a" stroke-miterlimit="10" stroke-width="5"/><circle cx="275.86124" cy="207.72598" r="75.90885" fill="#5cbd84" stroke="#145d3b" stroke-miterlimit="10" stroke-width="5"/><circle cx="127.74366" cy="333.85118" r="75.90885" fill="#5cbd84" stroke="#145d3b" stroke-miterlimit="10" stroke-width="5"/><circle cx="273.4564" cy="321.40673" r="75.90885" fill="#a8ddf3" stroke="#34444a" stroke-miterlimit="10" stroke-width="5"/><circle cx="199.95239" cy="329.10798" r="75.90885" fill="#f2737d" stroke="#631c25" stroke-miterlimit="10" stroke-width="5"/><circle cx="199.95239" cy="225.88287" r="75.90885" fill="#fabe78" stroke="#785b3a" stroke-miterlimit="10" stroke-width="5"/><path d="M369.63705,282.31021c0,19.7579-76.07598,35.77484-169.92046,35.77484s-169.92046-16.01694-169.92046-35.77484" fill="none" stroke="#785b3a" stroke-linecap="round" stroke-miterlimit="10" stroke-width="7"/><path d="M5.38759,3.5c18.81451,17.36291,24.85255,47.14109,14.28725,70.46127-5.19768,11.47253-14.00636,21.62031-15.8231,34.08362-2.2178,15.21474,6.46857,29.62401,14.36869,42.81474,5.67639,9.4778,11.25567,20.06756,12.36978,30.75945.10603,1.01758-.03032,3.27361-.22992,5.59647-.54054,6.29036,1.699,12.55253,6.26208,16.91591.54894.52492,1.03812.93636,1.42167,1.18294,22.24612,14.3016,86.151,24.63145,161.51537,24.63145,93.84448,0,169.92046-16.01694,169.92046-35.77484" fill="none" stroke="#785b3a" stroke-linecap="round" stroke-miterlimit="10" stroke-width="7"/><path d="M45.64299,383.20612c.03287,7.41691-.34549,15.95194,3.47212,21.65033,3.72826,6.48716,9.43389,11.5827,15.49396,15.86721,31.21485,22.52321,79.03946,29.40613,93.925,69.07907,4.44135,11.83709,6.66318,25.82443,3.32154,38.0177-3.34165,12.19327-11.35386,23.04368-22.02389,29.8255" fill="none" stroke="#785b3a" stroke-linecap="round" stroke-miterlimit="10" stroke-width="7"/></svg>