<?xml version="1.0" encoding="UTF-8"?><svg id="a" xmlns="http://www.w3.org/2000/svg" width="595.275574" height="841.889832" viewBox="0 0 595.275574 841.889832"><line x1="108.252602" y1="257.633221" x2="107.607703" y2="408.082098" fill="none" stroke="#515ba7" stroke-miterlimit="10" stroke-width="12"/><line x1="219.378515" y1="295.115961" x2="218.780027" y2="410.519767" fill="none" stroke="#515ba7" stroke-miterlimit="10" stroke-width="12"/><line x1="247.354255" y1="262.964707" x2="247.354304" y2="413.228929" fill="none" stroke="#515ba7" stroke-miterlimit="10" stroke-width="12"/><line x1="275.618218" y1="260.594273" x2="275.618245" y2="396.446134" fill="none" stroke="#515ba7" stroke-miterlimit="10" stroke-width="12"/><line x1="302.991636" y1="268.923816" x2="305.060463" y2="347.73099" fill="none" stroke="#515ba7" stroke-miterlimit="10" stroke-width="12"/><line x1="359.877835" y1="260.594272" x2="360.797143" y2="373.782332" fill="none" stroke="#515ba7" stroke-miterlimit="10" stroke-width="12"/><line x1="332.107822" y1="290.109695" x2="332.107835" y2="318.225293" fill="none" stroke="#515ba7" stroke-miterlimit="10" stroke-width="12"/><line x1="162.021333" y1="320.227756" x2="162.991208" y2="398.975158" fill="none" stroke="#515ba7" stroke-miterlimit="10" stroke-width="12"/><line x1="190.826562" y1="355.557468" x2="190.826587" y2="382.002055" fill="none" stroke="#515ba7" stroke-miterlimit="10" stroke-width="12"/><line x1="134.298333" y1="274.001709" x2="134.298388" y2="410.520335" fill="none" stroke="#515ba7" stroke-miterlimit="10" stroke-width="12"/><path d="M194.307379,332.825046c-17.145508,38.841309-33.340332,75.528809-63.76709,75.528809-12.658203,0-22.518029-6.370117-31.342248-16.586182.000732,1.176758-.000037,14.942388,0,20.650513,8.951782,6.849976,18.963097,10.935669,31.342248,10.935669,40.20166,0,59.157715-42.942383,77.489746-84.471191,17.145508-38.841797,33.34082-75.529297,63.767578-75.529297v-15c-40.202148.000488-59.158203,42.942871-77.490234,84.47168Z" fill="#e2a78a"/><path d="M382.425442,263.3539c.02289-6.049308.017281-11.08719,0-14.993331-.133789-.000977-.585347-.006714-.719625-.006714-40.202148,0-59.158203,42.942383-77.489746,84.471191-17.145996,38.841309-33.34082,75.528809-63.767578,75.528809-30.425293,0-46.619141-36.6875-63.76416-75.528809-18.331055-41.528809-37.286133-84.471191-77.486328-84.471191v15c30.424805,0,46.618652,36.687012,63.763672,75.52832,18.331055,41.528809,37.286621,84.47168,77.486816,84.47168,40.202148,0,59.158203-42.942383,77.489746-84.471191,17.145996-38.841309,33.34082-75.528809,63.767578-75.528809.023682,0,.695821-.000016.719625.000045Z" fill="#c7873a"/><path d="M382.425442,391.7677c-12.778931-14.306152-22.907613-35.767117-33.138082-58.943142-18.332031-41.528809-37.288086-84.471191-77.489746-84.471191v15c30.426758,0,46.621582,36.687012,63.76709,75.52832,12.90979,29.245483,26.129883,58.379775,46.860718,73.536513.00002-6.118003-.013629-13.165364.00002-20.6505Z" fill="#e2a78a"/><line x1="2.379333" y1="538.81427" x2="2.2099" y2="576.426575" fill="none" stroke="#515ba7" stroke-linecap="round" stroke-miterlimit="10" stroke-width="3"/><line x1="31.572693" y1="548.184998" x2="31.415466" y2="577.03595" fill="none" stroke="#515ba7" stroke-linecap="round" stroke-miterlimit="10" stroke-width="3"/><line x1="38.921814" y1="540.147156" x2="38.921814" y2="577.713318" fill="none" stroke="#515ba7" stroke-linecap="round" stroke-miterlimit="10" stroke-width="3"/><line x1="46.347107" y1="539.554626" x2="46.347107" y2="573.517517" fill="none" stroke="#515ba7" stroke-linecap="round" stroke-miterlimit="10" stroke-width="3"/><line x1="53.538025" y1="541.637024" x2="54.081482" y2="561.338806" fill="none" stroke="#515ba7" stroke-linecap="round" stroke-miterlimit="10" stroke-width="3"/><line x1="68.482361" y1="539.554626" x2="68.723572" y2="567.851624" fill="none" stroke="#515ba7" stroke-linecap="round" stroke-miterlimit="10" stroke-width="3"/><line x1="61.186951" y1="546.933411" x2="61.186951" y2="553.962341" fill="none" stroke="#515ba7" stroke-linecap="round" stroke-miterlimit="10" stroke-width="3"/><line x1="16.504822" y1="554.462952" x2="16.759705" y2="574.149841" fill="none" stroke="#515ba7" stroke-linecap="round" stroke-miterlimit="10" stroke-width="3"/><line x1="24.071716" y1="563.295349" x2="24.071716" y2="569.906555" fill="none" stroke="#515ba7" stroke-linecap="round" stroke-miterlimit="10" stroke-width="3"/><line x1="9.221619" y1="542.906433" x2="9.221619" y2="577.036072" fill="none" stroke="#515ba7" stroke-linecap="round" stroke-miterlimit="10" stroke-width="3"/><path d="M24.986267,557.612244c-4.503906,9.710327-8.758301,18.882202-16.751953,18.882202-3.325195,0-5.915527-1.592529-8.233398-4.146484v5.162598c2.351562,1.712524,4.981445,2.733887,8.233398,2.733887,10.561523,0,15.541016-10.735596,20.356934-21.117798,4.504395-9.710449,8.758789-18.882324,16.751953-18.882324v-3.75c-10.561035.000122-15.541016,10.735718-20.356934,21.11792Z" fill="#e2a78a"/><path d="M74.405701,540.244446c.005859-1.512329.004395-2.771729,0-3.748291-.035156-.000244-.153809-.001709-.189453-.001709-10.561035,0-15.541016,10.735596-20.356445,21.117798-4.504395,9.710327-8.758789,18.882202-16.751953,18.882202s-12.24707-9.171875-16.750977-18.882202c-4.815918-10.382202-9.79541-21.117798-20.355957-21.117798v3.75c7.992676,0,12.246582,9.171753,16.750977,18.88208,4.81543,10.382202,9.794922,21.11792,20.355957,21.11792s15.541016-10.735596,20.356445-21.117798c4.504395-9.710327,8.758789-18.882202,16.751953-18.882202h.189453Z" fill="#c7873a"/><path d="M74.405701,572.347961c-3.357422-3.576538-6.018066-8.941772-8.705566-14.73584-4.815918-10.382202-9.795898-21.117798-20.356934-21.117798v3.75c7.993164,0,12.247559,9.171753,16.751953,18.88208,3.391113,7.311401,6.864258,14.594971,12.310547,18.384155,0-1.529541-.003906-3.291382,0-5.162598Z" fill="#e2a78a"/><line x1="76.689001" y1="538.81427" x2="76.519568" y2="576.426575" fill="none" stroke="#515ba7" stroke-linecap="round" stroke-miterlimit="10" stroke-width="3"/><line x1="105.881873" y1="548.184998" x2="105.724646" y2="577.03595" fill="none" stroke="#515ba7" stroke-linecap="round" stroke-miterlimit="10" stroke-width="3"/><line x1="113.231482" y1="540.147156" x2="113.231482" y2="577.713318" fill="none" stroke="#515ba7" stroke-linecap="round" stroke-miterlimit="10" stroke-width="3"/><line x1="120.656287" y1="539.554626" x2="120.656287" y2="573.517517" fill="none" stroke="#515ba7" stroke-linecap="round" stroke-miterlimit="10" stroke-width="3"/><line x1="127.847205" y1="541.637024" x2="128.39115" y2="561.338806" fill="none" stroke="#515ba7" stroke-linecap="round" stroke-miterlimit="10" stroke-width="3"/><line x1="142.791541" y1="539.554626" x2="143.03324" y2="567.851624" fill="none" stroke="#515ba7" stroke-linecap="round" stroke-miterlimit="10" stroke-width="3"/><line x1="135.49613" y1="546.933411" x2="135.49613" y2="553.962341" fill="none" stroke="#515ba7" stroke-linecap="round" stroke-miterlimit="10" stroke-width="3"/><line x1="90.814001" y1="554.462952" x2="91.068884" y2="574.149841" fill="none" stroke="#515ba7" stroke-linecap="round" stroke-miterlimit="10" stroke-width="3"/><line x1="98.381384" y1="563.295349" x2="98.381384" y2="569.906555" fill="none" stroke="#515ba7" stroke-linecap="round" stroke-miterlimit="10" stroke-width="3"/><line x1="83.531287" y1="542.906433" x2="83.531287" y2="577.036072" fill="none" stroke="#515ba7" stroke-linecap="round" stroke-miterlimit="10" stroke-width="3"/><path d="M99.295935,557.612244c-4.504395,9.710327-8.758789,18.882202-16.751953,18.882202-3.325195,0-5.915527-1.592529-8.233887-4.146484.000488.294189,0,3.735596,0,5.162598,2.352051,1.712524,4.981934,2.733887,8.233887,2.733887,10.561035,0,15.541016-10.735596,20.356934-21.117798,4.503906-9.710449,8.758789-18.882324,16.751953-18.882324v-3.75c-10.561523.000122-15.541016,10.735718-20.356934,21.11792Z" fill="#e2a78a"/><path d="M148.71488,540.244446c.005859-1.512329.004395-2.771729,0-3.748291-.035156-.000244-.153809-.001709-.188965-.001709-10.561035,0-15.541016,10.735596-20.356934,21.117798-4.504395,9.710327-8.758789,18.882202-16.751953,18.882202-7.992676,0-12.24707-9.171875-16.750977-18.882202-4.81543-10.382202-9.794922-21.117798-20.355957-21.117798v3.75c7.992676,0,12.24707,9.171753,16.750977,18.88208,4.815918,10.382202,9.79541,21.11792,20.355957,21.11792,10.561523,0,15.541016-10.735596,20.356934-21.117798,4.504395-9.710327,8.758789-18.882202,16.751953-18.882202h.188965Z" fill="#c7873a"/><path d="M148.71488,572.347961c-3.356934-3.576538-6.018066-8.941772-8.705566-14.73584-4.815918-10.382202-9.79541-21.117798-20.356445-21.117798v3.75c7.993164,0,12.247559,9.171753,16.751465,18.88208,3.391602,7.311401,6.864746,14.594971,12.310547,18.384155,0-1.529541-.003418-3.291382,0-5.162598Z" fill="#e2a78a"/><line x1="151.098181" y1="538.81427" x2="150.928748" y2="576.426575" fill="none" stroke="#515ba7" stroke-linecap="round" stroke-miterlimit="10" stroke-width="3"/><line x1="180.291541" y1="548.184998" x2="180.134314" y2="577.03595" fill="none" stroke="#515ba7" stroke-linecap="round" stroke-miterlimit="10" stroke-width="3"/><line x1="187.640662" y1="540.147156" x2="187.640662" y2="577.713318" fill="none" stroke="#515ba7" stroke-linecap="round" stroke-miterlimit="10" stroke-width="3"/><line x1="195.065955" y1="539.554626" x2="195.065955" y2="573.517517" fill="none" stroke="#515ba7" stroke-linecap="round" stroke-miterlimit="10" stroke-width="3"/><line x1="202.256873" y1="541.637024" x2="202.80033" y2="561.338806" fill="none" stroke="#515ba7" stroke-linecap="round" stroke-miterlimit="10" stroke-width="3"/><line x1="217.201208" y1="539.554626" x2="217.442419" y2="567.851624" fill="none" stroke="#515ba7" stroke-linecap="round" stroke-miterlimit="10" stroke-width="3"/><line x1="209.905798" y1="546.933411" x2="209.905798" y2="553.962341" fill="none" stroke="#515ba7" stroke-linecap="round" stroke-miterlimit="10" stroke-width="3"/><line x1="165.223669" y1="554.462952" x2="165.478552" y2="574.149841" fill="none" stroke="#515ba7" stroke-linecap="round" stroke-miterlimit="10" stroke-width="3"/><line x1="172.790564" y1="563.295349" x2="172.790564" y2="569.906555" fill="none" stroke="#515ba7" stroke-linecap="round" stroke-miterlimit="10" stroke-width="3"/><line x1="157.940466" y1="542.906433" x2="157.940466" y2="577.036072" fill="none" stroke="#515ba7" stroke-linecap="round" stroke-miterlimit="10" stroke-width="3"/><path d="M173.705115,557.612244c-4.503906,9.710327-8.758301,18.882202-16.751465,18.882202-3.325684,0-5.916016-1.592529-8.233887-4.146484v5.162598c2.351562,1.712524,4.981445,2.733887,8.233887,2.733887,10.561035,0,15.540527-10.735596,20.356445-21.117798,4.504395-9.710449,8.758789-18.882324,16.751953-18.882324v-3.75c-10.561035.000122-15.541016,10.735718-20.356934,21.11792Z" fill="#e2a78a"/><path d="M223.124548,540.244446c.005859-1.512329.004395-2.771729,0-3.748291-.035156-.000244-.153809-.001709-.189453-.001709-10.561035,0-15.541016,10.735596-20.356445,21.117798-4.504395,9.710327-8.758789,18.882202-16.751953,18.882202-7.992676,0-12.24707-9.171875-16.750977-18.882202-4.815918-10.382202-9.79541-21.117798-20.355957-21.117798v3.75c7.992676,0,12.246582,9.171753,16.750977,18.88208,4.81543,10.382202,9.79541,21.11792,20.355957,21.11792,10.561035,0,15.541016-10.735596,20.356934-21.117798,4.503906-9.710327,8.758301-18.882202,16.751465-18.882202h.189453Z" fill="#c7873a"/><path d="M223.124548,572.347961c-3.357422-3.576538-6.018066-8.941772-8.705566-14.73584-4.815918-10.382202-9.795898-21.117798-20.356934-21.117798v3.75c7.993164,0,12.247559,9.171753,16.751953,18.88208,3.391113,7.311401,6.864258,14.594971,12.310547,18.384155,0-1.529541-.003906-3.291382,0-5.162598Z" fill="#e2a78a"/><line x1="225.507849" y1="538.81427" x2="225.338416" y2="576.426575" fill="none" stroke="#515ba7" stroke-linecap="round" stroke-miterlimit="10" stroke-width="3"/><line x1="254.70072" y1="548.184998" x2="254.543494" y2="577.03595" fill="none" stroke="#515ba7" stroke-linecap="round" stroke-miterlimit="10" stroke-width="3"/><line x1="262.05033" y1="540.147156" x2="262.05033" y2="577.713318" fill="none" stroke="#515ba7" stroke-linecap="round" stroke-miterlimit="10" stroke-width="3"/><line x1="269.475134" y1="539.554626" x2="269.475134" y2="573.517517" fill="none" stroke="#515ba7" stroke-linecap="round" stroke-miterlimit="10" stroke-width="3"/><line x1="276.666541" y1="541.637024" x2="277.209998" y2="561.338806" fill="none" stroke="#515ba7" stroke-linecap="round" stroke-miterlimit="10" stroke-width="3"/><line x1="291.610388" y1="539.554626" x2="291.852087" y2="567.851624" fill="none" stroke="#515ba7" stroke-linecap="round" stroke-miterlimit="10" stroke-width="3"/><line x1="284.315466" y1="546.933411" x2="284.315466" y2="553.962341" fill="none" stroke="#515ba7" stroke-linecap="round" stroke-miterlimit="10" stroke-width="3"/><line x1="239.632849" y1="554.462952" x2="239.887732" y2="574.149841" fill="none" stroke="#515ba7" stroke-linecap="round" stroke-miterlimit="10" stroke-width="3"/><line x1="247.200232" y1="563.295349" x2="247.200232" y2="569.906555" fill="none" stroke="#515ba7" stroke-linecap="round" stroke-miterlimit="10" stroke-width="3"/><line x1="232.350134" y1="542.906433" x2="232.350134" y2="577.036072" fill="none" stroke="#515ba7" stroke-linecap="round" stroke-miterlimit="10" stroke-width="3"/><path d="M248.114783,557.612244c-4.504395,9.710327-8.758789,18.882202-16.751953,18.882202-3.325195,0-5.915527-1.592529-8.233887-4.146484.000488.294189,0,3.735596,0,5.162598,2.352051,1.712524,4.981934,2.733887,8.233887,2.733887,10.561035,0,15.541016-10.735596,20.356934-21.117798,4.503906-9.710449,8.758789-18.882324,16.751953-18.882324v-3.75c-10.561523.000122-15.541016,10.735718-20.356934,21.11792Z" fill="#e2a78a"/><path d="M297.533728,540.244446c.005859-1.512329.004395-2.771729,0-3.748291-.035156-.000244-.153809-.001709-.188965-.001709-10.561035,0-15.541016,10.735596-20.356934,21.117798-4.503906,9.710327-8.758789,18.882202-16.751953,18.882202-7.992676,0-12.246582-9.171875-16.750977-18.882202-4.81543-10.382202-9.794922-21.117798-20.355957-21.117798v3.75c7.992676,0,12.24707,9.171753,16.750977,18.88208,4.815918,10.382202,9.79541,21.11792,20.355957,21.11792,10.561523,0,15.541016-10.735596,20.356934-21.117798,4.504395-9.710327,8.758789-18.882202,16.751953-18.882202h.188965Z" fill="#c7873a"/><path d="M297.533728,572.347961c-3.356934-3.576538-6.017578-8.941772-8.705566-14.73584-4.815918-10.382202-9.79541-21.117798-20.356445-21.117798v3.75c7.993164,0,12.247559,9.171753,16.751465,18.88208,3.391602,7.311401,6.864746,14.594971,12.310547,18.384155,0-1.529541-.003418-3.291382,0-5.162598Z" fill="#e2a78a"/><line x1="299.917517" y1="538.81427" x2="299.748083" y2="576.426575" fill="none" stroke="#515ba7" stroke-linecap="round" stroke-miterlimit="10" stroke-width="3"/><line x1="329.110388" y1="548.184998" x2="328.953162" y2="577.03595" fill="none" stroke="#515ba7" stroke-linecap="round" stroke-miterlimit="10" stroke-width="3"/><line x1="336.459509" y1="540.147156" x2="336.459509" y2="577.713318" fill="none" stroke="#515ba7" stroke-linecap="round" stroke-miterlimit="10" stroke-width="3"/><line x1="343.884802" y1="539.554626" x2="343.884802" y2="573.517517" fill="none" stroke="#515ba7" stroke-linecap="round" stroke-miterlimit="10" stroke-width="3"/><line x1="351.07572" y1="541.637024" x2="351.619177" y2="561.338806" fill="none" stroke="#515ba7" stroke-linecap="round" stroke-miterlimit="10" stroke-width="3"/><line x1="366.020056" y1="539.554626" x2="366.261267" y2="567.851624" fill="none" stroke="#515ba7" stroke-linecap="round" stroke-miterlimit="10" stroke-width="3"/><line x1="358.724646" y1="546.933411" x2="358.724646" y2="553.962341" fill="none" stroke="#515ba7" stroke-linecap="round" stroke-miterlimit="10" stroke-width="3"/><line x1="314.042517" y1="554.462952" x2="314.2974" y2="574.149841" fill="none" stroke="#515ba7" stroke-linecap="round" stroke-miterlimit="10" stroke-width="3"/><line x1="321.6099" y1="563.295349" x2="321.6099" y2="569.906555" fill="none" stroke="#515ba7" stroke-linecap="round" stroke-miterlimit="10" stroke-width="3"/><line x1="306.759802" y1="542.906433" x2="306.759802" y2="577.036072" fill="none" stroke="#515ba7" stroke-linecap="round" stroke-miterlimit="10" stroke-width="3"/><path d="M322.523962,557.612244c-4.503906,9.710327-8.758301,18.882202-16.751465,18.882202-3.325684,0-5.915527-1.592529-8.233887-4.146484v5.162598c2.351562,1.712524,4.981445,2.733887,8.233887,2.733887,10.561035,0,15.540527-10.735596,20.356445-21.117798,4.504395-9.710449,8.758789-18.882324,16.751953-18.882324v-3.75c-10.561035.000122-15.541016,10.735718-20.356934,21.11792Z" fill="#e2a78a"/><path d="M371.943396,540.244446c.005859-1.512329.004395-2.771729,0-3.748291-.035156-.000244-.153809-.001709-.188965-.001709-10.561523,0-15.541016,10.735596-20.356934,21.117798-4.504395,9.710327-8.758789,18.882202-16.751953,18.882202-7.992676,0-12.24707-9.171875-16.750977-18.882202-4.815918-10.382202-9.79541-21.117798-20.355957-21.117798v3.75c7.992676,0,12.24707,9.171753,16.750977,18.88208,4.81543,10.382202,9.79541,21.11792,20.355957,21.11792,10.561035,0,15.541016-10.735596,20.356934-21.117798,4.503906-9.710327,8.758301-18.882202,16.751953-18.882202h.188965Z" fill="#c7873a"/><path d="M371.943396,572.347961c-3.357422-3.576538-6.018066-8.941772-8.705566-14.73584-4.815918-10.382202-9.795898-21.117798-20.356934-21.117798v3.75c7.993164,0,12.247559,9.171753,16.751953,18.88208,3.391602,7.311401,6.864258,14.594971,12.310547,18.384155,0-1.529541-.003906-3.291382,0-5.162598Z" fill="#e2a78a"/><line x1="374.326697" y1="538.81427" x2="374.157263" y2="576.426575" fill="none" stroke="#515ba7" stroke-linecap="round" stroke-miterlimit="10" stroke-width="3"/><line x1="403.520056" y1="548.184998" x2="403.36283" y2="577.03595" fill="none" stroke="#515ba7" stroke-linecap="round" stroke-miterlimit="10" stroke-width="3"/><line x1="410.869177" y1="540.147156" x2="410.869177" y2="577.713318" fill="none" stroke="#515ba7" stroke-linecap="round" stroke-miterlimit="10" stroke-width="3"/><line x1="418.293982" y1="539.554626" x2="418.293982" y2="573.517517" fill="none" stroke="#515ba7" stroke-linecap="round" stroke-miterlimit="10" stroke-width="3"/><line x1="425.485388" y1="541.637024" x2="426.028845" y2="561.338806" fill="none" stroke="#515ba7" stroke-linecap="round" stroke-miterlimit="10" stroke-width="3"/><line x1="440.429236" y1="539.554626" x2="440.670935" y2="567.851624" fill="none" stroke="#515ba7" stroke-linecap="round" stroke-miterlimit="10" stroke-width="3"/><line x1="433.134314" y1="546.933411" x2="433.134314" y2="553.962341" fill="none" stroke="#515ba7" stroke-linecap="round" stroke-miterlimit="10" stroke-width="3"/><line x1="388.451697" y1="554.462952" x2="388.70658" y2="574.149841" fill="none" stroke="#515ba7" stroke-linecap="round" stroke-miterlimit="10" stroke-width="3"/><line x1="396.01908" y1="563.295349" x2="396.01908" y2="569.906555" fill="none" stroke="#515ba7" stroke-linecap="round" stroke-miterlimit="10" stroke-width="3"/><line x1="381.168982" y1="542.906433" x2="381.168982" y2="577.036072" fill="none" stroke="#515ba7" stroke-linecap="round" stroke-miterlimit="10" stroke-width="3"/><path d="M396.93363,557.612244c-4.504395,9.710327-8.758789,18.882202-16.751953,18.882202-3.325195,0-5.915527-1.592529-8.233398-4.146484v5.162598c2.351562,1.712524,4.981445,2.733887,8.233398,2.733887,10.561035,0,15.541016-10.735596,20.356934-21.117798,4.503906-9.710449,8.758789-18.882324,16.751953-18.882324v-3.75c-10.561523.000122-15.541016,10.735718-20.356934,21.11792Z" fill="#e2a78a"/><path d="M446.352576,540.244446c.006348-1.512329.004883-2.771729,0-3.748291-.035156-.000244-.153809-.001709-.188965-.001709-10.561035,0-15.541016,10.735596-20.356934,21.117798-4.503906,9.710327-8.758301,18.882202-16.751953,18.882202-7.992676,0-12.246582-9.171875-16.750977-18.882202-4.81543-10.382202-9.794922-21.117798-20.355469-21.117798v3.75c7.992676,0,12.246582,9.171753,16.750488,18.88208,4.815918,10.382202,9.79541,21.11792,20.355957,21.11792,10.561523,0,15.541504-10.735596,20.356934-21.117798,4.504395-9.710327,8.758789-18.882202,16.751953-18.882202h.188965Z" fill="#c7873a"/><path d="M446.352576,572.347961c-3.356934-3.576538-6.017578-8.941772-8.705566-14.73584-4.81543-10.382202-9.79541-21.117798-20.356445-21.117798v3.75c7.993164,0,12.247559,9.171753,16.751465,18.88208,3.391602,7.311401,6.864746,14.594971,12.310547,18.384155,0-1.529541-.003418-3.291382,0-5.162598Z" fill="#e2a78a"/><line x1="448.736365" y1="538.81427" x2="448.566931" y2="576.426575" fill="none" stroke="#515ba7" stroke-linecap="round" stroke-miterlimit="10" stroke-width="3"/><line x1="477.929236" y1="548.184998" x2="477.772009" y2="577.03595" fill="none" stroke="#515ba7" stroke-linecap="round" stroke-miterlimit="10" stroke-width="3"/><line x1="485.278357" y1="540.147156" x2="485.278357" y2="577.713318" fill="none" stroke="#515ba7" stroke-linecap="round" stroke-miterlimit="10" stroke-width="3"/><line x1="492.70365" y1="539.554626" x2="492.70365" y2="573.517517" fill="none" stroke="#515ba7" stroke-linecap="round" stroke-miterlimit="10" stroke-width="3"/><line x1="499.894568" y1="541.637024" x2="500.438025" y2="561.338806" fill="none" stroke="#515ba7" stroke-linecap="round" stroke-miterlimit="10" stroke-width="3"/><line x1="514.838904" y1="539.554626" x2="515.080115" y2="567.851624" fill="none" stroke="#515ba7" stroke-linecap="round" stroke-miterlimit="10" stroke-width="3"/><line x1="507.543494" y1="546.933411" x2="507.543494" y2="553.962341" fill="none" stroke="#515ba7" stroke-linecap="round" stroke-miterlimit="10" stroke-width="3"/><line x1="462.861365" y1="554.462952" x2="463.116248" y2="574.149841" fill="none" stroke="#515ba7" stroke-linecap="round" stroke-miterlimit="10" stroke-width="3"/><line x1="470.428748" y1="563.295349" x2="470.428748" y2="569.906555" fill="none" stroke="#515ba7" stroke-linecap="round" stroke-miterlimit="10" stroke-width="3"/><line x1="455.57865" y1="542.906433" x2="455.57865" y2="577.036072" fill="none" stroke="#515ba7" stroke-linecap="round" stroke-miterlimit="10" stroke-width="3"/><path d="M471.34281,557.612244c-4.503906,9.710327-8.758301,18.882202-16.751465,18.882202-3.325684,0-5.915527-1.592529-8.233887-4.146484.000488.294189,0,3.735596,0,5.162598,2.351562,1.712524,4.981934,2.733887,8.233887,2.733887,10.561035,0,15.540527-10.735596,20.356445-21.117798,4.504395-9.710449,8.758789-18.882324,16.751953-18.882324v-3.75c-10.561035.000122-15.541016,10.735718-20.356934,21.11792Z" fill="#e2a78a"/><path d="M520.762244,540.244446c.005859-1.512329.004395-2.771729,0-3.748291-.035156-.000244-.153809-.001709-.188965-.001709-10.561523,0-15.541016,10.735596-20.356934,21.117798-4.504395,9.710327-8.758789,18.882202-16.751953,18.882202-7.992676,0-12.24707-9.171875-16.750977-18.882202-4.81543-10.382202-9.79541-21.117798-20.355957-21.117798v3.75c7.992676,0,12.24707,9.171753,16.750977,18.88208,4.81543,10.382202,9.79541,21.11792,20.355957,21.11792,10.561035,0,15.541016-10.735596,20.356934-21.117798,4.504395-9.710327,8.758789-18.882202,16.751953-18.882202h.188965Z" fill="#c7873a"/><path d="M520.762244,572.347961c-3.356934-3.576538-6.018066-8.941772-8.705566-14.73584-4.815918-10.382202-9.795898-21.117798-20.356934-21.117798v3.75c7.993164,0,12.247559,9.171753,16.751953,18.88208,3.391602,7.311401,6.864258,14.594971,12.310547,18.384155,0-1.529541-.003906-3.291382,0-5.162598Z" fill="#e2a78a"/><line x1="523.145544" y1="538.81427" x2="522.976111" y2="576.426575" fill="none" stroke="#515ba7" stroke-linecap="round" stroke-miterlimit="10" stroke-width="3"/><line x1="552.338904" y1="548.184998" x2="552.181677" y2="577.03595" fill="none" stroke="#515ba7" stroke-linecap="round" stroke-miterlimit="10" stroke-width="3"/><line x1="559.688025" y1="540.147156" x2="559.688025" y2="577.713318" fill="none" stroke="#515ba7" stroke-linecap="round" stroke-miterlimit="10" stroke-width="3"/><line x1="567.11283" y1="539.554626" x2="567.11283" y2="573.517517" fill="none" stroke="#515ba7" stroke-linecap="round" stroke-miterlimit="10" stroke-width="3"/><line x1="574.304236" y1="541.637024" x2="574.847693" y2="561.338806" fill="none" stroke="#515ba7" stroke-linecap="round" stroke-miterlimit="10" stroke-width="3"/><line x1="589.248083" y1="539.554626" x2="589.489783" y2="567.851624" fill="none" stroke="#515ba7" stroke-linecap="round" stroke-miterlimit="10" stroke-width="3"/><line x1="581.953162" y1="546.933411" x2="581.953162" y2="553.962341" fill="none" stroke="#515ba7" stroke-linecap="round" stroke-miterlimit="10" stroke-width="3"/><line x1="537.271033" y1="554.462952" x2="537.525427" y2="574.149841" fill="none" stroke="#515ba7" stroke-linecap="round" stroke-miterlimit="10" stroke-width="3"/><line x1="544.837927" y1="563.295349" x2="544.837927" y2="569.906555" fill="none" stroke="#515ba7" stroke-linecap="round" stroke-miterlimit="10" stroke-width="3"/><line x1="529.98783" y1="542.906433" x2="529.98783" y2="577.036072" fill="none" stroke="#515ba7" stroke-linecap="round" stroke-miterlimit="10" stroke-width="3"/><path d="M545.752478,557.612244c-4.504395,9.710327-8.758789,18.882202-16.751953,18.882202-3.325195,0-5.915527-1.592529-8.233398-4.146484v5.162598c2.351562,1.712524,4.981445,2.733887,8.233398,2.733887,10.561035,0,15.541016-10.735596,20.356934-21.117798,4.503906-9.710449,8.758789-18.882324,16.751953-18.882324v-3.75c-10.561035.000122-15.541016,10.735718-20.356934,21.11792Z" fill="#e2a78a"/><path d="M595.171423,540.244446c.006348-1.512329.004883-2.771729,0-3.748291-.035156-.000244-.153809-.001709-.188965-.001709-10.561035,0-15.541016,10.735596-20.356445,21.117798-4.504395,9.710327-8.758789,18.882202-16.751953,18.882202s-12.24707-9.171875-16.751465-18.882202c-4.81543-10.382202-9.794922-21.117798-20.355469-21.117798v3.75c7.992676,0,12.246582,9.171753,16.750488,18.88208,4.815918,10.382202,9.79541,21.11792,20.356445,21.11792s15.541016-10.735596,20.356445-21.117798c4.504395-9.710327,8.758789-18.882202,16.751953-18.882202h.188965Z" fill="#c7873a"/><path d="M595.171423,572.347961c-3.356934-3.576538-6.017578-8.941772-8.705078-14.73584-4.815918-10.382202-9.795898-21.117798-20.356934-21.117798v3.75c7.993164,0,12.247559,9.171753,16.751953,18.88208,3.391113,7.311401,6.864258,14.594971,12.310059,18.384155,0-1.529541-.003418-3.291382,0-5.162598Z" fill="#e2a78a"/></svg>