<?xml version="1.0" encoding="UTF-8"?><svg id="a" xmlns="http://www.w3.org/2000/svg" width="264.152627" height="335.944321" xmlns:xlink="http://www.w3.org/1999/xlink" viewBox="0 0 264.152627 335.944321"><defs><linearGradient id="b" x1="132.671454" y1="286.166543" x2="132.671454" y2="41.793438" gradientUnits="userSpaceOnUse"><stop offset="0" stop-color="#1d3b47"/><stop offset=".109691" stop-color="#1f3f4c"/><stop offset=".251479" stop-color="#264d5c"/><stop offset=".359835" stop-color="#2e5c6e"/><stop offset=".599277" stop-color="#448ea8"/><stop offset=".649539" stop-color="#4897b3"/><stop offset=".744611" stop-color="#4ea4c3"/><stop offset=".852561" stop-color="#51accd"/><stop offset="1" stop-color="#53afd0"/></linearGradient><radialGradient id="c" cx="1045.240523" cy="376.297149" fx="1045.240523" fy="376.297149" r="31.595455" gradientTransform="translate(-799.648702 -218.244722) scale(.894821 .960856)" gradientUnits="userSpaceOnUse"><stop offset="0" stop-color="#ffecd2"/><stop offset=".209836" stop-color="#fee8c9"/><stop offset=".543004" stop-color="#fedeb2"/><stop offset=".955789" stop-color="#fdce8d"/><stop offset="1" stop-color="#fdcd89"/></radialGradient></defs><path d="M111.272774,7.883652l.000029-.000006c5.646837-1.250261,11.398836-1.9965,17.185519-2.229572l16.785801-.676087c14.367765-.578695,27.637057,7.573501,33.380856,20.50805l3.89597,8.773393-25.557684,96.490772-45.238181-18.705143-16.681319-79.477592c-2.350775-11.20019,4.859276-22.166452,16.22901-24.683814Z" fill="#cfecf8" stroke="#05415a" stroke-miterlimit="10" stroke-width="2.858641"/><path d="M240.560902,54.985496l-30.504421,74.798-68.07173,166.930176-7.669631-156.050049-2.651925-54.041356c-.984032-20.052764,2.659568-40.038613,10.506753-57.631574l6.00824-13.470146c3.945544-8.845694,11.496011-14.30513,19.667886-14.247477.033999.00024.067468.00046.100396.00066,29.663981.136389,55.467319,9.096511,73.730674,22.29575,3.149899,2.276486-1.116243,31.416016-1.116243,31.416016Z" fill="#cfecf8" stroke="#05415a" stroke-miterlimit="10" stroke-width="2.545236"/><path d="M48.665883,138.919579l66.914732,150.111036c2.067368,4.637765,8.228987,3.202954,8.507506-1.98108l7.373939-137.249829,3.024649-56.384892c.99357-18.521934-2.685346-36.982062-10.608594-53.231976l-9.608248-19.705708c-3.052002-6.2594-8.885931-10.131605-15.207148-10.093575l-4.364551.026259c-28.912157.121605-54.469375,7.257766-73.820842,18.15892-6.095858,3.433946,27.788557,110.350846,27.788557,110.350846Z" fill="#cfecf8" stroke="#05415a" stroke-miterlimit="10" stroke-width="3"/><path d="M234.217598,129.05972c-9.55382,92.211675-73.100214,157.563496-106.900218,157.102623-.028575.009452-.066617,0-.095193,0h-.028517c-33.771487-1.732778-92.940646-71.048159-96.490012-163.674576-1.741404-45.313261,30.888236-83.13237,51.166357-80.57011,1.25609-.663406,4.767414,1.401074,9.706105,4.507472,6.26134-1.797363,19.264964,12.482155,36.793011,12.482155,20.830052,0,42.977714-15.597554,51.970136-8.859749,3.37809-2.046253,5.500148-3.696217,5.918844-4.396754,20.40183-4.239904,52.812568,36.69483,47.959486,83.40894Z" fill="url(#b)"/><rect x="104.709821" y="116.135296" width="61.889665" height="54.375269" rx="9.464989" ry="9.464989" transform="translate(-14.500593 15.271967) rotate(-6.117268)" fill="url(#c)" stroke="#93703e" stroke-miterlimit="10" stroke-width="1.772815"/><path d="M135.407021,295.474233c-.172363,8.585938-8.465332,14.717041-16.69281,12.255859-32.601868-9.752197-89.059692-43.549805-100.998413-101.780518-7.592407-37.031494,9.847839-41.736572.987976-87.99707C9.374977,69.243398-3.922874,58.217397,3.83207,41.181142c5.671204-12.458618,19.631775-19.884888,30.634216-21.273071,12.54834-1.583252,14.682434,5.515991,33.714905,9.365234,25.972412,5.252686,35.822327-5.171875,49.546936,4.386963.785767.547241,10.863159,7.858521,13.487427,20.444336,1.882629,9.029053-.913269,17.159546-2.231812,20.993652-2.81366,8.181885-6.101318,10.333252-8.130798,19.680908-.658325,3.031982-1.428101,6.577881-1.131897,11.237305.760437,11.961914,7.453613,14.073486,6.597351,23.851807-.500244,5.713623-2.322083,11.477783-2.322083,11.477783-.702881,2.223877-1.548218,4.380127-1.782043,7.612305-.224121,3.097656.235779,5.384766.374023,6.164795.674194,3.804688-7.563721,16.731445-10.182068,26.366211-2.629028,9.674561,1.531067,12.085693-2.538818,18.89917-2.688354,4.500732-5.882935,5.758057-6.844238,10.547363-.108215.539307-.132751.94165-.141418,1.058105-.467834,6.289551,6.222717,7.822998,8.598511,14.46875,1.980896,5.541016.967896,14.651367,2.535217,16.185791.536926.525635,1.140381,1.040527,1.140503,1.040527.783691.666504,1.399292,1.095459,1.712402,1.328125,12.1521,9.03125,19.080566,23.463379,18.776672,38.60083l-.238037,11.856201Z" fill="#cfecf8" stroke="#05415a" stroke-miterlimit="10" stroke-width="3"/><path d="M236.58995,134.448887c1.07828-45.320478,31.933877-59.103561,21.565653-90.817449-4.210505-12.879042-15.270196-28.928338-28.750541-30.440615-9.756684-1.094696-13.335719,6.261203-30.065749,7.245182-13.15269.773439-14.62199-3.556556-25.269041-1.543312-12.619484,2.386202-20.928981,10.487504-25.468036,14.769757-5.159631,4.867832-11.487416,10.837614-13.492225,20.441144-1.884787,9.028628.90929,17.159748,2.226907,20.994297,2.811678,8.182516,6.098866,10.334709,8.126094,19.68265.275467,1.270114.570487,2.630454.798455,4.124925l.028841.194077c.620494,4.178128,4.427341,7.122227,8.627227,6.672107,5.646982-.605211,10.715391,3.481956,11.32059,9.128816l4.882641,45.557948c.605224,5.647104-3.481942,10.715513-9.128925,11.320724l-5.447715.583855c-4.514946.483886-6.229465,6.156903-2.738247,9.060431l.0834.069389c6.888152,7.186285,7.796698,12.547485,7.465896,16.010659-.673039,7.04617-6.735779,8.948679-6.640841,15.926046.094364,6.935933,6.119851,7.571377,5.757206,14.52707-.376591,7.223352-7.253477,13.802972-8.205901,14.694946-.728735.682373-1.370345,1.206857-1.815813,1.555384-1.42032,1.108841-2.541777,1.735824-3.767743,2.635998-1.887582,1.386043-3.940825,3.166005-6.042025,5.501114-8.443169,9.383344-12.228481,22.066216-10.769941,34.604497l.99154,8.523683c.170062,8.572684,8.445418,14.721446,16.66138,12.268231,28.267784-8.440026,60.934609-30.176006,70.136952-41.102652,10.741607-12.753913,27.015086-32.076131,30.913988-60.662445,4.465112-32.737673-12.798087-37.309814-11.984026-71.526457Z" fill="#cfecf8" stroke="#05415a" stroke-miterlimit="10" stroke-width="3"/></svg>