<?xml version="1.0" encoding="UTF-8"?><svg id="Layer_1" xmlns="http://www.w3.org/2000/svg" width="520.608052" height="530.555409" xmlns:xlink="http://www.w3.org/1999/xlink" viewBox="0 0 520.608052 530.555409"><defs><radialGradient id="radial-gradient" cx="244.599498" cy="245.859718" fx="244.599498" fy="245.859718" r="238.439198" gradientTransform="translate(-.057265 -1.553478) scale(1.064439 1.085299)" gradientUnits="userSpaceOnUse"><stop offset=".005587" stop-color="#eff6ff"/><stop offset=".354204" stop-color="#e9f2ff"/><stop offset=".799677" stop-color="#d9e8ff"/><stop offset="1" stop-color="#d0e3ff"/></radialGradient><radialGradient id="radial-gradient-2" cx="-367.954126" cy="-2.479408" fx="-367.954126" fy="-2.479408" r="67.259766" gradientTransform="translate(428.783777 -60.748146) rotate(-36.801877)" gradientUnits="userSpaceOnUse"><stop offset=".005587" stop-color="#fff6f3"/><stop offset=".330416" stop-color="#fff0ec"/><stop offset=".789881" stop-color="#ffe2d9"/><stop offset="1" stop-color="#ffdacf"/></radialGradient><radialGradient id="radial-gradient-3" cx="-266.429497" cy="-519.71608" fx="-266.429497" fy="-519.71608" r="16.258234" gradientTransform="translate(806.445047 487.131776) rotate(-36.801877) scale(1.284184)" gradientUnits="userSpaceOnUse"><stop offset=".005587" stop-color="#ffece6"/><stop offset=".214816" stop-color="#ffe8e1"/><stop offset=".462792" stop-color="#ffddd2"/><stop offset=".730353" stop-color="#ffcaba"/><stop offset="1" stop-color="#ffb29b"/></radialGradient><radialGradient id="radial-gradient-4" cx="-488.105613" cy="2.209182" fx="-488.105613" fy="2.209182" r="67.259766" gradientTransform="translate(259.915358 -221.685845) rotate(-69.517111)" xlink:href="#radial-gradient-2"/><radialGradient id="radial-gradient-5" cx="-359.991994" cy="-516.065054" fx="-359.991994" fy="-516.065054" r="16.258234" gradientTransform="translate(873.776528 35.169965) rotate(-69.517111) scale(1.284184)" xlink:href="#radial-gradient-3"/><radialGradient id="radial-gradient-6" cx="-401.657609" cy="97.16831" fx="-401.657609" fy="97.16831" r="67.259766" gradientTransform="translate(461.852714 -84.891595) rotate(-40.545553)" xlink:href="#radial-gradient-2"/><radialGradient id="radial-gradient-7" cx="-292.674549" cy="-442.11996" fx="-292.674549" fy="-442.11996" gradientTransform="translate(874.480827 437.16059) rotate(-40.545553) scale(1.284184)" xlink:href="#radial-gradient-3"/><radialGradient id="radial-gradient-8" cx="-306.209391" cy="60.248076" fx="-306.209391" fy="60.248076" gradientTransform="translate(20.059713 16.478279) rotate(-92.999248)" xlink:href="#radial-gradient-2"/><radialGradient id="radial-gradient-9" cx="-218.348597" cy="-470.86991" fx="-218.348597" fy="-470.86991" r="16.258234" gradientTransform="translate(685.431142 7.461359) rotate(-92.999248) scale(1.284184)" xlink:href="#radial-gradient-3"/><radialGradient id="radial-gradient-10" cx="684.888138" cy="13.682423" fx="684.888138" fy="13.682423" r="67.259766" gradientTransform="translate(782.796819 -276.288468) rotate(148.199701) scale(1 -1)" xlink:href="#radial-gradient-2"/><radialGradient id="radial-gradient-11" cx="553.423452" cy="-507.13079" fx="553.423452" fy="-507.13079" r="16.258234" gradientTransform="translate(1155.124719 275.229781) rotate(148.199701) scale(1.284184 -1.284184)" xlink:href="#radial-gradient-3"/><radialGradient id="radial-gradient-12" cx="-12.223716" cy="180.249435" fx="-12.223716" fy="180.249435" r="67.259766" gradientTransform="translate(332.008122 -80.816909) rotate(-163.868027) scale(1 -1)" xlink:href="#radial-gradient-2"/><radialGradient id="radial-gradient-13" cx="10.579354" cy="-377.424318" fx="10.579354" fy="-377.424318" gradientTransform="translate(172.0496 565.103918) rotate(-163.868027) scale(1.284184 -1.284184)" xlink:href="#radial-gradient-3"/><radialGradient id="radial-gradient-14" cx="-227.762578" cy="195.698892" fx="-227.762578" fy="195.698892" r="67.259766" gradientTransform="translate(89.715765 201.109366) rotate(-151.515983)" xlink:href="#radial-gradient-2"/><radialGradient id="radial-gradient-15" cx="-157.261715" cy="-365.393757" fx="-157.261715" fy="-365.393757" gradientTransform="translate(429.516095 -371.023643) rotate(-151.515983) scale(1.284184)" xlink:href="#radial-gradient-3"/><radialGradient id="radial-gradient-16" cx="-23.233433" cy="310.619365" fx="-23.233433" fy="310.619365" r="67.259766" gradientTransform="translate(703.266504 76.616942) rotate(-113.290108) scale(1 -1)" xlink:href="#radial-gradient-2"/><radialGradient id="radial-gradient-17" cx="2.006039" cy="-275.904674" fx="2.006039" fy="-275.904674" gradientTransform="translate(102.721652 363.228742) rotate(-113.290108) scale(1.284184 -1.284184)" xlink:href="#radial-gradient-3"/><radialGradient id="radial-gradient-18" cx="-183.116872" cy="125.442313" fx="-183.116872" fy="125.442313" gradientTransform="translate(82.563887 168.701682) rotate(157.925105) scale(1 -1)" xlink:href="#radial-gradient-2"/><radialGradient id="radial-gradient-19" cx="-122.495905" cy="-420.102868" fx="-122.495905" fy="-420.102868" r="16.258234" gradientTransform="translate(356.374946 775.189891) rotate(157.925105) scale(1.284184 -1.284184)" xlink:href="#radial-gradient-3"/><radialGradient id="radial-gradient-20" cx="-288.37041" cy="110.605162" fx="-288.37041" fy="110.605162" r="67.259766" gradientTransform="translate(520.32897 25.416181) rotate(-93.244689) scale(1 -1)" xlink:href="#radial-gradient-2"/><radialGradient id="radial-gradient-21" cx="-204.457304" cy="-431.656623" fx="-204.457304" fy="-431.656623" r="16.258234" gradientTransform="translate(-142.076074 88.819665) rotate(-93.244689) scale(1.284184 -1.284184)" xlink:href="#radial-gradient-3"/><radialGradient id="radial-gradient-22" cx="-337.646345" cy="362.972563" fx="-337.646345" fy="362.972563" r="67.259766" gradientTransform="translate(298.871373 -96.518992) rotate(-52.127743)" xlink:href="#radial-gradient-2"/><radialGradient id="radial-gradient-23" cx="-242.828693" cy="-235.137006" fx="-242.828693" fy="-235.137006" gradientTransform="translate(807.91163 332.058259) rotate(-52.127743) scale(1.284184)" xlink:href="#radial-gradient-3"/><radialGradient id="radial-gradient-24" cx="815.713867" cy="361.253224" fx="815.713867" fy="361.253224" gradientTransform="translate(-589.605271 418.684944) rotate(-22.719545)" xlink:href="#radial-gradient-2"/><radialGradient id="radial-gradient-25" cx="655.298029" cy="-236.475864" fx="655.298029" fy="-236.475864" r="16.258234" gradientTransform="translate(-356.601727 1041.990481) rotate(-22.719545) scale(1.284184)" xlink:href="#radial-gradient-3"/><radialGradient id="radial-gradient-26" cx="2.131027" cy="497.066139" fx="2.131027" fy="497.066139" r="67.259766" gradientTransform="translate(131.740968 922.014482) rotate(9.646591) scale(1 -1)" xlink:href="#radial-gradient-2"/><radialGradient id="radial-gradient-27" cx="21.757456" cy="-130.717743" fx="21.757456" fy="-130.717743" gradientTransform="translate(217.719292 262.159823) rotate(9.646591) scale(1.284184 -1.284184)" xlink:href="#radial-gradient-3"/><radialGradient id="radial-gradient-28" cx="-540.454457" cy="161.159223" fx="-540.454457" fy="161.159223" r="67.259766" gradientTransform="translate(691.655595 532.9131) rotate(30.510284)" xlink:href="#radial-gradient-2"/><radialGradient id="radial-gradient-29" cx="-400.756271" cy="-392.289951" fx="-400.756271" fy="-392.289951" r="16.258234" gradientTransform="translate(331.83845 1092.673822) rotate(30.510284) scale(1.284184)" xlink:href="#radial-gradient-3"/><radialGradient id="radial-gradient-30" cx="-273.166059" cy="185.719027" fx="-273.166059" fy="185.719027" r="67.259766" gradientTransform="translate(205.476929 14.024787) rotate(-58.063717)" xlink:href="#radial-gradient-2"/><radialGradient id="radial-gradient-31" cx="-192.617608" cy="-373.165122" fx="-192.617608" fy="-373.165122" gradientTransform="translate(756.109955 387.660591) rotate(-58.063717) scale(1.284184)" xlink:href="#radial-gradient-3"/><radialGradient id="radial-gradient-32" cx="42.895213" cy="404.808758" fx="42.895213" fy="404.808758" r="67.259766" gradientTransform="translate(677.569697 84.235658) rotate(-128.962491) scale(1 -1)" xlink:href="#radial-gradient-2"/><radialGradient id="radial-gradient-33" cx="53.500709" cy="-202.558976" fx="53.500709" fy="-202.558976" gradientTransform="translate(176.776143 522.420848) rotate(-128.962491) scale(1.284184 -1.284184)" xlink:href="#radial-gradient-3"/></defs><ellipse cx="260.304026" cy="265.277705" rx="253.804026" ry="258.777705" fill="url(#radial-gradient)" stroke="#849cbf" stroke-miterlimit="10" stroke-width="13"/><path d="M177.227484,114.018554c29.330959,39.204825,43.642898,67.953194,4.576009,97.180957-39.066889,29.227763-71.203675,20.209305-100.534635-18.99552-29.330959-39.204825-26.134929-66.770439,12.93196-95.998202,39.066889-29.227763,53.695707-21.39206,83.026666,17.812765Z" fill="url(#radial-gradient-2)" stroke="#c7a398" stroke-miterlimit="10" stroke-width="4"/><circle cx="132.673296" cy="157.689418" r="20.878568" fill="url(#radial-gradient-3)" stroke="#8c523f" stroke-miterlimit="10"/><path d="M105.06712,175.510025c45.866903,17.133322,73.445957,33.586166,56.372917,79.291693-17.073041,45.705528-48.986028,55.486471-94.852931,38.353149-45.866903-17.133322-58.076092-42.053462-41.003051-87.75899,17.073041-45.705528,33.616162-47.019174,79.483065-29.885853Z" fill="url(#radial-gradient-4)" stroke="#c7a398" stroke-miterlimit="10" stroke-width="4"/><circle cx="91.183223" cy="236.333191" r="20.878568" fill="url(#radial-gradient-5)" stroke="#8c523f" stroke-miterlimit="10"/><path d="M261.409569,203.557313c31.828171,37.206061,47.986638,64.958616,10.91148,96.674805-37.075158,31.716189-69.73221,24.815282-101.560382-12.390779-31.828171-37.206061-30.438803-64.921532,6.636355-96.637722,37.075158-31.716189,52.184376-24.852366,84.012547,12.353695Z" fill="url(#radial-gradient-6)" stroke="#c7a398" stroke-miterlimit="10" stroke-width="4"/><circle cx="219.801855" cy="250.044066" r="20.878568" fill="url(#radial-gradient-7)" stroke="#8c523f" stroke-miterlimit="10"/><path d="M84.745311,257.797604c48.895402-2.561856,80.746331,1.539199,83.299174,50.262571,2.552842,48.723372-22.819905,70.410449-71.715307,72.972305-48.895402,2.561856-70.023237-15.429595-72.576079-64.152967-2.552842-48.723372,12.09681-56.520052,60.992212-59.081908Z" fill="url(#radial-gradient-8)" stroke="#c7a398" stroke-miterlimit="10" stroke-width="4"/><circle cx="96.247008" cy="319.115881" r="20.878568" fill="url(#radial-gradient-9)" stroke="#8c523f" stroke-miterlimit="10"/><path d="M151.011539,121.799008c25.801274,41.612711,47.346421,65.426719,88.812724,39.716222,41.466304-25.710497,44.794322-58.922391,18.993047-100.535102s-52.632826-48.694063-94.099129-22.983566c-41.466304,25.710497-39.507917,42.189734-13.706642,83.802445Z" fill="url(#radial-gradient-10)" stroke="#c7a398" stroke-miterlimit="10" stroke-width="4"/><circle cx="207.92737" cy="96.248895" r="20.878568" fill="url(#radial-gradient-11)" stroke="#8c523f" stroke-miterlimit="10"/><path d="M236.56677,70.598576c-13.604259,47.034536-16.847235,78.984238,30.021818,92.540633,46.869053,13.556395,73.753814-6.225294,87.358074-53.25983,13.604259-47.034536.883755-71.697594-45.985299-85.25399-46.869053-13.556395-57.790334-1.061349-71.394593,45.973187Z" fill="url(#radial-gradient-12)" stroke="#c7a398" stroke-miterlimit="10" stroke-width="4"/><circle cx="293.668078" cy="95.731438" r="20.878568" fill="url(#radial-gradient-13)" stroke="#8c523f" stroke-miterlimit="10"/><path d="M324.940649,115.507982c23.350867-43.035572,43.482348-68.05604,86.366507-44.787329,42.884159,23.268711,48.127836,56.232471,24.776969,99.268043-23.350867,43.035572-49.727847,51.65721-92.612006,28.388499-42.884159-23.268711-41.882338-39.833641-18.53147-82.869213Z" fill="url(#radial-gradient-14)" stroke="#c7a398" stroke-miterlimit="10" stroke-width="4"/><circle cx="383.239186" cy="137.722857" r="20.878568" fill="url(#radial-gradient-15)" stroke="#8c523f" stroke-miterlimit="10"/><path d="M410.298173,160.701822c-44.972746,19.35912-71.712918,37.142922-52.421909,81.957439,19.291009,44.814517,51.644727,53.020765,96.617474,33.661645,44.972746-19.35912,55.946805-44.847308,36.655796-89.661826-19.291009-44.814517-35.878615-45.316378-80.851361-25.957258Z" fill="url(#radial-gradient-16)" stroke="#c7a398" stroke-miterlimit="10" stroke-width="4"/><circle cx="427.14426" cy="220.772027" r="20.878568" fill="url(#radial-gradient-17)" stroke="#8c523f" stroke-miterlimit="10"/><path d="M238.986629,231.697917c18.40099,45.373197,35.613689,72.484511,80.827249,54.148261,45.213559-18.336249,54.104115-50.508654,35.703125-95.881851-18.40099-45.373197-43.650709-56.885338-88.864268-38.549088-45.213559,18.336249-46.067095,34.909481-27.666105,80.282678Z" fill="url(#radial-gradient-18)" stroke="#c7a398" stroke-miterlimit="10" stroke-width="4"/><circle cx="299.400593" cy="216.12958" r="20.878568" fill="url(#radial-gradient-19)" stroke="#8c523f" stroke-miterlimit="10"/><path d="M430.987341,257.379118c-48.883979,2.771288-80.099926,10.312175-77.338389,59.024164,2.761537,48.711989,30.342493,67.510833,79.226472,64.739545,48.883979-2.771288,67.9297-22.953909,65.168162-71.665899-2.761537-48.711989-18.172266-54.869098-67.056245-52.09781Z" fill="url(#radial-gradient-20)" stroke="#c7a398" stroke-miterlimit="10" stroke-width="4"/><circle cx="426.222953" cy="319.58459" r="20.878568" fill="url(#radial-gradient-21)" stroke="#8c523f" stroke-miterlimit="10"/><path d="M409.540234,338.948828c38.650065,30.05821,60.051483,54.001468,30.099028,92.515549-29.952455,38.514081-63.330054,38.31036-101.980118,8.25215-38.650065-30.05821-42.853517-57.488279-12.901062-96.00236,29.952455-38.514081,46.132088-34.82355,84.782152-4.76534Z" fill="url(#radial-gradient-22)" stroke="#c7a398" stroke-miterlimit="10" stroke-width="4"/><circle cx="378.113053" cy="392.842727" r="20.878568" fill="url(#radial-gradient-23)" stroke="#8c523f" stroke-miterlimit="10"/><path d="M356.178918,405.343943c18.910321,45.163295,25.797208,76.530015-19.207188,95.373803-45.004396,18.843788-73.981044,2.276969-92.891364-42.886327-18.910321-45.163295-9.103188-71.122838,35.901208-89.966625,45.004396-18.843788,57.287023-7.684146,76.197344,37.479149Z" fill="url(#radial-gradient-24)" stroke="#c7a398" stroke-miterlimit="10" stroke-width="4"/><circle cx="302.337896" cy="436.861628" r="20.878568" fill="url(#radial-gradient-25)" stroke="#8c523f" stroke-miterlimit="10"/><path d="M276.710118,450.856359c8.204664-48.270146,7.818177-80.381685-40.282138-88.557482-48.100315-8.175797-72.578697,14.515929-80.783361,62.786075-8.204664,48.270146,7.220124,71.3386,55.320439,79.514398s57.540395-5.472844,65.74506-53.74299Z" fill="url(#radial-gradient-26)" stroke="#c7a398" stroke-miterlimit="10" stroke-width="4"/><circle cx="217.135469" cy="432.333905" r="20.878568" fill="url(#radial-gradient-27)" stroke="#8c523f" stroke-miterlimit="10"/><path d="M201.690724,421.635238c-24.857904,42.183031-45.861462,66.476052-87.896079,41.705606-42.034617-24.770445-46.109494-57.898998-21.251591-100.082028,24.857904-42.183031,51.523231-49.866649,93.557848-25.096204,42.034617,24.770445,40.447725,41.289595,15.589821,83.472626Z" fill="url(#radial-gradient-28)" stroke="#c7a398" stroke-miterlimit="10" stroke-width="4"/><circle cx="144.214106" cy="397.372953" r="20.878568" fill="url(#radial-gradient-29)" stroke="#8c523f" stroke-miterlimit="10"/><path d="M244.271822,287.229427c41.551358,25.899964,65.314165,47.501569,39.505326,88.906735s-59.028538,44.654351-100.579896,18.754387c-41.551358-25.899964-48.569009-52.748246-22.76017-94.153413,25.808839-41.405166,42.283382-39.407674,83.83474-13.50771Z" fill="url(#radial-gradient-30)" stroke="#c7a398" stroke-miterlimit="10" stroke-width="4"/><circle cx="218.5867" cy="344.084459" r="20.878568" fill="url(#radial-gradient-31)" stroke="#8c523f" stroke-miterlimit="10"/><path d="M303.387562,252.144377c-38.071149,30.788164-59.013124,55.134294-28.333283,93.071496,30.679841,37.937202,64.047521,37.098442,102.118671,6.310278,38.071149-30.788164,41.751928-58.293247,11.072087-96.230449-30.679841-37.937202-46.786325-33.939489-84.857474-3.151325Z" fill="url(#radial-gradient-32)" stroke="#c7a398" stroke-miterlimit="10" stroke-width="4"/><circle cx="335.834495" cy="305.430554" r="20.878568" fill="url(#radial-gradient-33)" stroke="#8c523f" stroke-miterlimit="10"/></svg>