<?xml version="1.0" encoding="UTF-8"?><svg id="Layer_1" xmlns="http://www.w3.org/2000/svg" width="530.229635" height="632.797701" xmlns:xlink="http://www.w3.org/1999/xlink" viewBox="0 0 530.229635 632.797701"><defs><radialGradient id="radial-gradient" cx="265.167637" cy="314.691817" fx="256.576958" fy="-49.164339" r="369.41338" gradientUnits="userSpaceOnUse"><stop offset="0" stop-color="#a2d165"/><stop offset=".063991" stop-color="#b1d87e"/><stop offset=".193713" stop-color="#cee7ae"/><stop offset=".258354" stop-color="#daedc1"/><stop offset=".316419" stop-color="#d7ebbc"/><stop offset=".380465" stop-color="#cfe7af"/><stop offset=".447379" stop-color="#c1e099"/><stop offset=".515811" stop-color="#afd77a"/><stop offset=".555866" stop-color="#a2d165"/><stop offset=".801676" stop-color="#daedc1"/><stop offset=".836665" stop-color="#d6ebba"/><stop offset=".884865" stop-color="#cbe5a8"/><stop offset=".940739" stop-color="#b9dc8b"/><stop offset="1" stop-color="#a2d165"/></radialGradient><radialGradient id="radial-gradient-2" cx="265.837743" cy="316.407098" fx="257.209389" fy="-49.044761" r="371.033455" xlink:href="#radial-gradient"/><radialGradient id="radial-gradient-3" cx="265.519542" cy="288.567678" fx="257.910832" fy="-33.697408" r="327.187085" xlink:href="#radial-gradient"/><radialGradient id="radial-gradient-4" cx="265.414175" cy="312.79108" fx="256.943517" fy="-45.981641" r="364.252306" xlink:href="#radial-gradient"/><radialGradient id="radial-gradient-5" cx="265.064588" cy="296.354932" fx="257.169651" fy="-38.03325" r="339.495338" xlink:href="#radial-gradient"/><radialGradient id="radial-gradient-6" cx="264.592601" cy="316.444047" fx="255.943481" fy="-49.887368" r="371.926444" xlink:href="#radial-gradient"/><radialGradient id="radial-gradient-7" cx="265.252205" cy="315.712481" fx="256.656396" fy="-48.360932" r="369.633955" xlink:href="#radial-gradient"/><radialGradient id="radial-gradient-8" cx="265.03177" cy="321.704933" fx="256.06731" fy="-57.982662" r="385.486615" xlink:href="#radial-gradient"/><radialGradient id="radial-gradient-9" cx="265.010768" cy="314.347573" fx="256.498896" fy="-46.170748" r="366.024567" xlink:href="#radial-gradient"/><radialGradient id="radial-gradient-10" cx="265.367571" cy="314.341266" fx="256.867984" fy="-45.656721" r="365.496285" xlink:href="#radial-gradient"/><radialGradient id="radial-gradient-11" cx="265.373522" cy="306.848855" fx="257.004795" fy="-47.606599" r="359.8691" xlink:href="#radial-gradient"/><radialGradient id="radial-gradient-12" cx="265.657467" cy="316.444047" fx="257.085274" fy="-46.629143" r="368.618455" xlink:href="#radial-gradient"/><radialGradient id="radial-gradient-13" cx="268.378455" cy="316.462559" fx="259.816121" fy="-46.193046" r="368.194494" xlink:href="#radial-gradient"/><radialGradient id="radial-gradient-14" cx="267.733305" cy="315.65355" fx="259.155082" fy="-47.67505" r="368.877768" xlink:href="#radial-gradient"/><radialGradient id="radial-gradient-15" cx="265.062072" cy="311.668689" fx="256.50289" fy="-50.853389" r="368.058926" xlink:href="#radial-gradient"/><radialGradient id="radial-gradient-16" cx="302.309522" cy="316.975099" fx="294.243953" fy="-24.640115" r="346.83275" xlink:href="#radial-gradient"/><radialGradient id="radial-gradient-17" cx="265.389544" cy="316.444047" fx="256.75084" fy="-49.446221" r="371.478559" xlink:href="#radial-gradient"/><radialGradient id="radial-gradient-18" cx="275.079016" cy="316.296993" fx="266.686995" fy="-39.145082" r="360.87079" xlink:href="#radial-gradient"/><radialGradient id="radial-gradient-19" cx="265.370959" cy="312.519372" fx="256.842702" fy="-48.69294" r="366.729156" xlink:href="#radial-gradient"/><radialGradient id="radial-gradient-20" cx="262.904486" cy="313.545166" fx="254.248024" fy="-53.097215" r="372.24216" xlink:href="#radial-gradient"/><radialGradient id="radial-gradient-21" cx="261.745386" cy="312.706192" fx="253.066673" fy="-54.878626" r="373.198991" xlink:href="#radial-gradient"/><radialGradient id="radial-gradient-22" cx="266.07317" cy="317.370706" fx="257.45994" fy="-47.440605" r="370.383123" xlink:href="#radial-gradient"/><radialGradient id="radial-gradient-23" cx="265.370959" cy="316.444047" fx="256.73162" fy="-49.473107" r="371.505856" xlink:href="#radial-gradient"/><radialGradient id="radial-gradient-24" cx="276.773374" cy="316.443009" fx="269.400026" fy="4.146629" r="317.066125" xlink:href="#radial-gradient"/><radialGradient id="radial-gradient-25" cx="265.370959" cy="317.039018" fx="256.887135" fy="-42.291323" r="364.818442" xlink:href="#radial-gradient"/><radialGradient id="radial-gradient-26" cx="264.516885" cy="316.444047" fx="255.903769" fy="-48.362454" r="370.37824" xlink:href="#radial-gradient"/><radialGradient id="radial-gradient-27" cx="265.218323" cy="316.444047" fx="256.580314" fy="-49.416774" r="371.448663" xlink:href="#radial-gradient"/><radialGradient id="radial-gradient-28" cx="265.370959" cy="316.444047" fx="256.73162" fy="-49.473107" r="371.505856" xlink:href="#radial-gradient"/><radialGradient id="radial-gradient-29" cx="265.370959" cy="329.877607" fx="257.140784" fy="-18.709503" r="353.911129" xlink:href="#radial-gradient"/><radialGradient id="radial-gradient-30" cx="257.97091" cy="321.569196" fx="249.558889" fy="-34.719948" r="361.730796" xlink:href="#radial-gradient"/><radialGradient id="radial-gradient-31" cx="267.42429" cy="328.312608" fx="258.962201" fy="-30.097162" r="363.883811" xlink:href="#radial-gradient"/><radialGradient id="radial-gradient-32" cx="262.33893" cy="320.438081" fx="253.885083" fy="-37.622565" r="363.529355" xlink:href="#radial-gradient"/><radialGradient id="radial-gradient-33" cx="266.036587" cy="316.444047" fx="257.387655" fy="-49.879432" r="371.918387" xlink:href="#radial-gradient"/><radialGradient id="radial-gradient-34" cx="265.58152" cy="316.444047" fx="256.939446" fy="-49.588951" r="371.623469" xlink:href="#radial-gradient"/><radialGradient id="radial-gradient-35" cx="268.087971" cy="311.282312" fx="259.303569" fy="-60.778939" r="377.743794" xlink:href="#radial-gradient"/><radialGradient id="radial-gradient-36" cx="261.817355" cy="323.948936" fx="253.389086" fy="-33.028386" r="362.429485" xlink:href="#radial-gradient"/><radialGradient id="radial-gradient-37" cx="265.291794" cy="316.444047" fx="256.653222" fy="-49.440597" r="371.472849" xlink:href="#radial-gradient"/><radialGradient id="radial-gradient-38" cx="265.370959" cy="329.364202" fx="257.120895" fy="-20.065283" r="354.766369" xlink:href="#radial-gradient"/><radialGradient id="radial-gradient-39" cx="265.369519" cy="348.572485" fx="257.702776" fy="23.84939" r="329.682635" xlink:href="#radial-gradient"/><radialGradient id="radial-gradient-40" cx="265.370959" cy="316.444047" fx="256.73162" fy="-49.473107" r="371.505856" xlink:href="#radial-gradient"/><radialGradient id="radial-gradient-41" cx="265.404505" cy="340.194752" fx="257.400965" fy="1.206751" r="344.16541" xlink:href="#radial-gradient"/><radialGradient id="radial-gradient-42" cx="265.057399" cy="318.157042" fx="256.34591" fy="-50.816019" r="374.608436" xlink:href="#radial-gradient"/><radialGradient id="radial-gradient-43" cx="265.586607" cy="316.468015" fx="256.955191" fy="-49.113549" r="371.165141" xlink:href="#radial-gradient"/><radialGradient id="radial-gradient-44" cx="289.886527" cy="316.444047" fx="281.982295" fy="-18.337804" r="339.895019" xlink:href="#radial-gradient"/><radialGradient id="radial-gradient-45" cx="266.985618" cy="314.633391" fx="258.440201" fy="-47.30571" r="367.467047" xlink:href="#radial-gradient"/><radialGradient id="radial-gradient-46" cx="267.202018" cy="313.466539" fx="258.667384" fy="-48.015808" r="367.003317" xlink:href="#radial-gradient"/><radialGradient id="radial-gradient-47" cx="269.96845" cy="316.429358" fx="261.451887" fy="-44.287605" r="366.226242" xlink:href="#radial-gradient"/><radialGradient id="radial-gradient-48" cx="268.552066" cy="298.761816" fx="260.257406" fy="-52.556509" r="356.684057" xlink:href="#radial-gradient"/><radialGradient id="radial-gradient-49" cx="265.218572" cy="307.091306" fx="257.072862" fy="-37.918298" r="350.278982" xlink:href="#radial-gradient"/><radialGradient id="radial-gradient-50" cx="352.091903" cy="145.745763" fx="352.091903" fy="145.745763" r="16.477582" gradientUnits="userSpaceOnUse"><stop offset="0" stop-color="#ecf6e0"/><stop offset=".110281" stop-color="#e2edd4"/><stop offset=".304404" stop-color="#c8d5b7"/><stop offset=".55956" stop-color="#9eb087"/><stop offset=".862577" stop-color="#657c46"/><stop offset="1" stop-color="#496326"/></radialGradient><radialGradient id="radial-gradient-51" cx="351.737599" cy="145.763141" fx="351.737599" fy="145.763141" r="16.278857" xlink:href="#radial-gradient-50"/></defs><path d="M377.481378,226.48383c-4.482076-4.779466-14.471893-4.67854-20.612288-5.5153-18.798167-2.068294-22.388056,17.328437-22.780061,31.767118,40.658486-9.532616,51.039429,12.120616,43.392349-26.251818Z" fill="none" stroke="#231f20" stroke-miterlimit="10" stroke-width=".75"/><path d="M382.18841,257.007756c-16.385664-.096693-32.708695.548081-48.929568,3.137666.000003.000029-1.550473,13.867705-1.550473,13.867705-2.014532,16.079312,13.987174,22.576014,27.470737,22.299886,21.398193,2.752037,23.420149-24.317029,23.009305-39.305257Z" fill="none" stroke="#231f20" stroke-miterlimit="10" stroke-width=".75"/><path d="M343.344843,336.770939c-12.342712-4.337402-24.893616-8.636719-36.780396-14.116699l-12.713074,15.030762c-10.627246,12.232106-.957971,26.541039,10.395639,33.820885,20.332965,17.931681,39.098768-19.075309,50.720633-30.410728-3.836487-1.50415-7.708313-2.94873-11.622803-4.324219Z" fill="none" stroke="#231f20" stroke-miterlimit="10" stroke-width=".75"/><path d="M315.795282,319.207707c12.940063,5.378662,26.332092,9.563721,39.467834,14.421143,16.789232.433182-17.334625-48.425124-37.904387-23.734249-.000093-.002079-6.186189,7.311641-6.186189,7.311641,1.531311.686279,3.071106,1.356445,4.622742,2.001465Z" fill="none" stroke="#231f20" stroke-miterlimit="10" stroke-width=".75"/><path d="M242.000787,395.972844c7.991394,7.601318,16.475098,14.577393,25.232483,21.204834,12.919373-8.522155,38.156363-24.075561,20.654364-40.997523-9.432831-6.914951-18.271649-21.959961-30.8618-11.788178-.000083-.00092-26.938682,19.238094-26.938682,19.238094,3.777832,4.281982,7.760315,8.39209,11.913635,12.342773Z" fill="none" stroke="#231f20" stroke-miterlimit="10" stroke-width=".75"/><path d="M224.637811,387.962101c-10.120413,9.928196-3.509742,23.904872,4.521666,32.92347,7.975605,11.445873,23.008112,9.265911,32.159425.516227-13.223816-10.125244-25.7276-21.017822-36.681091-33.439697Z" fill="none" stroke="#231f20" stroke-miterlimit="10" stroke-width=".75"/><path d="M172.212152,425.098576c-12.967724,7.642887-33.906034,19.139582-22.431357,37.096089,5.732719,12.195916,18.637865,23.689599,32.163489,14.743138,31.458376-18.32182,10.786332-6.764914-9.732132-51.839227Z" fill="none" stroke="#231f20" stroke-miterlimit="10" stroke-width=".75"/><path d="M188.037775,438.939396c5.297485,8.07666,11.16272,15.669434,17.442627,22.901367,11.860501-5.432067,21.089022-18.496572,12.867757-30.961225-5.732824-12.196618-18.638792-23.689196-32.163914-14.743239.00093-.001347-8.027756,5.149043-8.027756,5.149043,2.830933,6.106689,6.165649,11.989014,9.881287,17.654053Z" fill="none" stroke="#231f20" stroke-miterlimit="10" stroke-width=".75"/><path d="M132.151056,484.374699c7.710388,3.424805,15.712402,6.116699,23.784241,8.584717.084436-7.754263-7.970607-14.4472-13.067196-19.520141-7.863364-7.931571-20.814901-7.267112-28.110492,1.083765,5.316237,4.076025,11.508925,7.23789,17.393447,9.85166Z" fill="none" stroke="#231f20" stroke-miterlimit="10" stroke-width=".75"/><path d="M147.260187,511.159611c22.776103-17.879858-18.135342-12.218957-37.678973-31.462212-4.401595,5.447288-23.309585,20.520785-24.345194,27.781147,20.705136.552403,41.434689,1.627354,62.024166,3.681065Z" fill="none" stroke="#231f20" stroke-miterlimit="10" stroke-width=".75"/><path d="M84.589105,514.45966c.01246,7.64108,8.034052,14.267629,13.056002,19.288221,15.496523,16.055297,32.792158-5.348481,43.196988-16.170057-18.6875-1.70166-37.478638-2.625977-56.252991-3.118164Z" fill="none" stroke="#231f20" stroke-miterlimit="10" stroke-width=".75"/><path d="M309.156244,15.271916c-1.367292-1.629451-4.089548-.220351-3.480838,1.776289,1.162052-.588545,2.322147-1.181074,3.480838-1.776289Z" fill="url(#radial-gradient)" stroke="#3c611b" stroke-miterlimit="10"/><path d="M322.425592,30.899357c4.347578,3.470632,9.554218,9.050312,9.327942,15.673828,5.150664-.525482,4.431664-3.942949,9.187487-7.061537,4.901031-2.847358,9.721371-6.967952,10.449406-12.994967-1.200679-4.424278,16.478697-31.262234,6.388177-25.103084-5.998398,8.597291-8.633674,18.847295-11.770181,28.603741-2.67637,3.501396-9.999539,10.38486-14.11062,5.0001-5.442532-5.385674-13.656423-16.978563-21.094465-12.693764,3.75719,3.080381,7.845396,5.570818,11.622253,8.575684Z" fill="url(#radial-gradient-2)" stroke="#3c611b" stroke-miterlimit="10"/><path d="M244.434137,84.753849c3.175334,1.455089,5.286731-.439914,7.808838-2.2854-2.857549-1.386044-13.645279-2.90616-7.808838,2.2854Z" fill="url(#radial-gradient-3)" stroke="#3c611b" stroke-miterlimit="10"/><path d="M281.246454,98.678654c-9.998822.147672-18.319955-17.589872-25.041443-10.572754,12.127995,3.212326,3.427661,17.577307-3.963953,20.001618-6.899004-.210066-13.96585-.296172-19.1195,5.327417-2.227502,2.328033-7.560081-.301641-8.054428,3.406624,3.90841,6.115049,12.321555-2.202655,16.551555-4.395604,10.817854.377935,18.539178-1.042506,23.411926-12.060468,3.97933-7.418648,17.275563,9.144984,16.215843-1.706834Z" fill="url(#radial-gradient-4)" stroke="#3c611b" stroke-miterlimit="10"/><path d="M300.234735,102.811955c-6.210057-8.750131-21.462212.619254-5.065907.860229,10.554549,10.065421,5.815748,15.653823,19.553395,3.549195-5.170288,1.183838-10.717224-.391357-14.487488-4.409424Z" fill="url(#radial-gradient-5)" stroke="#3c611b" stroke-miterlimit="10"/><path d="M337.966608,73.181584c4.853349,2.14118,8.652855,7.285458,7.666504,12.496094,2.713196-1.69165,5.462891-3.34375,8.250488-4.935547-9.047449-10.754367-26.165582-11.686177-19.17865-27.756348-10.705974,1.830761-4.988309,17.923825,3.261658,20.195801Z" fill="url(#radial-gradient-6)" stroke="#3c611b" stroke-miterlimit="10"/><path d="M263.544733,166.517521c2.615554-2.904761,6.656329-1.995512,10.277019-1.484024,1.287923-3.345315.085387-4.395476-3.311051-4.442256-7.848278-.722003-14.367674,5.924592-20.229212,10.340343,4.298366-.158966,9.711026-.991153,13.263245-4.414062Z" fill="url(#radial-gradient-7)" stroke="#3c611b" stroke-miterlimit="10"/><path d="M206.718073,213.225041c-3.164325-.912025-6.379521,3.17204-2.203353,4.124904,3.211664.556676,2.262487-1.793721,2.203353-4.124904Z" fill="url(#radial-gradient-8)" stroke="#3c611b" stroke-miterlimit="10"/><path d="M201.745661,182.674748c-1.282609-1.928762-14.175381-5.970362-15.429855-3.743928-1.929622,5.011583,10.198625,3.874569,12.265553,6.175266,1.402035,2.787609,2.602742,5.667843,5.679317,7.448056-.668579-3.345947-1.495728-6.647217-2.515015-9.879395Z" fill="url(#radial-gradient-9)" stroke="#3c611b" stroke-miterlimit="10"/><path d="M266.80694,186.6684c-13.288951.701116-26.019754,10.083185-38.014861,11.170538-4.836628-4.773773-11.727905-4.773869-17.657869-6.55042-1.470156,8.914516,16.649227,2.776233,13.510581,12.334743-2.770471,3.885097-5.884304,7.854754-10.982848,8.667023,2.482836,12.219518,15.401919-10.869165,22.461331-11.657211,8.87409-6.983279,27.203785-4.615942,31.498363-14.108471-.271729.047852-.545044.096436-.814697.143799Z" fill="url(#radial-gradient-10)" stroke="#3c611b" stroke-miterlimit="10"/><path d="M337.840509,115.729435c4.580782,5.492155,18.891076-7.558731,27.94542-5.877763,10.185658.969807,11.623002-2.123382,11.844344-11.882797-6.148685-3.60019-13.567987-7.949789-18.221086-12.198859-10.689224,5.829536-20.88002,12.408882-30.748062,19.46479,3.134033,3.432861,6.184998,6.94458,9.179382,10.494629Z" fill="url(#radial-gradient-11)" stroke="#3c611b" stroke-miterlimit="10"/><path d="M323.125482,109.26215c-5.863464,4.351562-11.625671,8.851562-17.299805,13.477539-.044251,12.950225,5.292708,36.662659-11.200051,41.809545-4.968712,1.623805-9.386558.598414-13.52639-.819311-1.929761,5.821607,11.006879,3.239862,5.731828,13.113065-1.680855,6.793924-12.211632,5.302089-13.175676,12.498019,27.804748-6.077212,30.179621-31.32346,44.676808-51.176535,10.55432-14.760721,22.796071-12.933047,4.793285-28.902322Z" fill="url(#radial-gradient-12)" stroke="#3c611b" stroke-miterlimit="10"/><path d="M419.505304,95.057805c-11.311966,5.168544-22.477642,14.545643-35.40625,6.532471-5.346342,13.597579,13.064689,8.490152,21.740795,11.954427,2.240139-11.761457,18.106618-13.123424,13.665455-18.486897Z" fill="url(#radial-gradient-13)" stroke="#3c611b" stroke-miterlimit="10"/><path d="M463.698541,99.51215c-33.948955-8.478928-17.741991-34.333703,2.280403-48.435196,1.561788-1.372235.555253-4.955847-1.944673-3.498108-18.535865,9.152192-20.029145,28.931051-30.437268,43.061863-2.95709,2.722255-9.227454,1.435687-5.484903,6.620111,17.140247-9.658634,37.527669,15.127971,35.586441,2.25133Z" fill="url(#radial-gradient-14)" stroke="#3c611b" stroke-miterlimit="10"/><path d="M491.03216,87.767033c-13.069415-4.549591-5.489799-22.951793,4.902118-27.253784,16.996078-14.902707-20.743025,2.228604-15.432675,18.192869,2.654535,14.479783-10.780542,12.485917-9.8525,23.033083,22.563085-21.43868,15.799032-4.207005,30.904663-10.719971-3.399061-1.465481-6.345949-2.676068-10.521606-3.252197Z" fill="url(#radial-gradient-15)" stroke="#3c611b" stroke-miterlimit="10"/><path d="M506.224298,51.615666c1.40336-2.285985,11.044395-24.69207,3.089239-18.949156-1.937055,5.736093-8.22311,14.874946-3.089239,18.949156Z" fill="url(#radial-gradient-16)" stroke="#3c611b" stroke-miterlimit="10"/><path d="M404.213068,120.333683c-7.175537-1.228027-14.534912-2.658936-21.914551-3.39624-1.452881,15.885986-1.747559,31.955322-1.483032,47.879639,6.674303-4.283335,23.488434-3.689597,23.123685-12.361077.067753-1.297921-.066725-32.104969.273898-32.122321Z" fill="url(#radial-gradient-17)" stroke="#3c611b" stroke-miterlimit="10"/><path d="M368.555841,152.833195c1.706299,1.939453,3.449951,3.847412,5.210938,5.740479.061079-14.079216.641174-28.098557,1.809569-42.087891-45.457536,1.787473-27.167084,11.725459-7.020507,36.347412Z" fill="url(#radial-gradient-18)" stroke="#3c611b" stroke-miterlimit="10"/><path d="M361.019464,154.807805c-7.560303-8.783936-14.782593-18.080322-22.204712-27.221191-14.987409,10.88984-23.885138,27.471206-30.604736,44.526611,3.13573-.644815,6.232731-1.01149,7.51233-.249761,15.867192,14.389586,38.427997-.461555,56.910888-4.28271-3.972168-4.16626-7.858887-8.4104-11.61377-12.772949Z" fill="url(#radial-gradient-19)" stroke="#3c611b" stroke-miterlimit="10"/><path d="M493.300226,175.593693c-3.136065-3.79132-13.466616,2.302168-18.927574.513538-2.70673,7.333624,18.312874,3.822081,18.927574-.513538Z" fill="url(#radial-gradient-20)" stroke="#3c611b" stroke-miterlimit="10"/><path d="M467.322687,175.376896c-3.461513-.483067-7.007396-1.435486-10.439812-1.669957-1.53209,5.549813,13.337672,8.431027,10.439812,1.669957Z" fill="url(#radial-gradient-21)" stroke="#3c611b" stroke-miterlimit="10"/><path d="M352.282648,250.528019c21.881171,3.378873,4.859009-20.945341,8.536039-34.184652-4.476933-.226672-8.944173-.346618-13.427031-.343174,3.416146,11.387496,4.824632,23.175532,4.890991,34.527826Z" fill="url(#radial-gradient-22)" stroke="#3c611b" stroke-miterlimit="10"/><path d="M355.695917,300.444767c5.228821-13.27832,8.187073-27.567627,8.289368-43.174072-3.97467.153809-7.946167.380615-11.913208.689453-.809814,13.579102-3.929199,26.175537-8.903015,38.008789,4.194702,1.434082,8.36853,2.931396,12.526855,4.47583Z" fill="url(#radial-gradient-23)" stroke="#3c611b" stroke-miterlimit="10"/><path d="M340.263971,302.358342c-4.658793,13.373968-21.845221,22.216132.298381,26.040561,6.680934-11.9916,20.451214-22.929471-.298381-26.040561Z" fill="url(#radial-gradient-24)" stroke="#3c611b" stroke-miterlimit="10"/><path d="M292.838373,371.231389c9.447912,7.72939,36.274586-29.959993,43.436157-36.943604-4.427124-1.560303-8.858948-3.146729-13.25708-4.812256-10.179626,12.902832-22.535217,24.959473-36.255981,36.5625,2.018799,1.739258,4.040955,3.474609,6.076904,5.193359Z" fill="url(#radial-gradient-25)" stroke="#3c611b" stroke-miterlimit="10"/><path d="M253.647882,406.365666c6.224163-6.509345,42.806518-24.970781,34.243836-30.182664-2.203492-1.859084-4.387452-3.736769-6.567628-5.619582-11.564758,9.44751-23.98877,18.620361-36.827148,27.734619,2.991211,2.764404,6.042847,5.451904,9.15094,8.067627Z" fill="url(#radial-gradient-26)" stroke="#3c611b" stroke-miterlimit="10"/><path d="M188.037775,438.939396c1.852905,2.824951,3.776855,5.589355,5.761414,8.301758,17.910461-12.586914,36.240173-24.666504,53.927856-36.794434-3.073975-2.619629-6.089844-5.298828-9.03186-8.052246-15.732881,12.213531-37.23375,23.468616-50.65741,36.544922Z" fill="url(#radial-gradient-27)" stroke="#3c611b" stroke-miterlimit="10"/><path d="M132.151056,484.374699c3.009277,1.33667,6.065247,2.555908,9.149963,3.700195,14.615601-13.045654,30.504211-25.177979,46.843384-36.830322-2.18634-2.949707-4.296875-5.954102-6.296814-9.026855-18.023071,13.087402-35.492859,26.718262-51.252441,41.454346.520325.238037,1.039551.473389,1.555908.702637Z" fill="url(#radial-gradient-28)" stroke="#3c611b" stroke-miterlimit="10"/><path d="M119.896417,508.971135c4.914673-5.293945,10.06488-10.429932,15.414185-15.42627-13.123889-9.738164-19.57212,6.320278-28.282715,14.729492,4.291504.20166,8.58136.432373,12.86853.696777Z" fill="url(#radial-gradient-29)" stroke="#3c611b" stroke-miterlimit="10"/><path d="M24.459161,590.020695c-.182595,4.899233,6.452784,3.637869,8.561956-.883544,5.00464-8.401719-.337923-16.580209-.427306-24.703379,2.432599-6.799908,8.863454-1.0221,7.96264-12.438712-29.93751,5.063239-2.786926,26.367859-16.09729,38.025635Z" fill="url(#radial-gradient-30)" stroke="#3c611b" stroke-miterlimit="10"/><path d="M19.9107,598.360295c4.116837-5.48116-21.9323-3.195971-19.210899,7.334817-.96533,8.675151,23.785019,6.319495,22.655123,2.109107,1.933279-8.14119-5.701303-7.685623-3.444223-9.443924Z" fill="url(#radial-gradient-31)" stroke="#3c611b" stroke-miterlimit="10"/><path d="M93.822015,554.468205c7.081273,2.278501,21.233972,12.175202,29.911499,2.638916-10.147435.826419-14.565172-2.307506-19.846828-8.38575-15.535588-10.950946,3.377424-23.01838,10.05276-33.089836-14.357549-4.350819-19.164919,8.446049-25.905167,18.680728-6.487791,7.120398,2.956307,13.223887,5.787735,20.155942Z" fill="url(#radial-gradient-32)" stroke="#3c611b" stroke-miterlimit="10"/><path d="M61.524652,557.129826c8.071568-.013179,16.308237-.594044,24.264771-2.540527-1.659302-2.77002-3.358704-5.515625-5.097412-8.236328-4.859907,3.711305-14.406631,3.157202-19.254155,3.778327-8.053834.214657-15.908519-1.691781-14.587512,8.916382,3.826774,1.153924,7.17913,4.05993,8.764091,7.722039,2.769095,7.886196,2.542799,16.297412,2.14209,24.514648.7079-2.952003,4.852017-3.089671,7.193843-4.321508.060439-7.888718-.032286-15.362266-2.911792-22.973467-.769782-2.158478-4.693113-6.055101-.513924-6.859567Z" fill="url(#radial-gradient-33)" stroke="#3c611b" stroke-miterlimit="10"/><path d="M64.35705,604.915715c5.49052,3.299943-5.945532,5.51026-1.588318,13.003418,3.556213-4.464844,7.086975-8.950195,10.59552-13.453613-3.983295-1.700791-8.283808-5.446147-8.571646-9.995413-2.552446,1.335133-6.547423,2.223584-7.066232-1.476267-.2145,4.64919,1.560077,10.430651,6.630676,11.921875Z" fill="url(#radial-gradient-34)" stroke="#3c611b" stroke-miterlimit="10"/><path d="M80.862116,606.135685c-3.991638,5.143066-8.01416,10.26123-12.067139,15.354492,12.994196,2.602998,23.797495-5.179649,12.067139-15.354492Z" fill="url(#radial-gradient-35)" stroke="#3c611b" stroke-miterlimit="10"/><path d="M143.062799,632.237248c19.921522.641853,8.277985-10.555001,8.513469-16.432297,5.759293-5.438396,6.487749-13.699806,2.556975-20.28119-13.901652-2.920523,1.627122,9.002336-8.481254,18.653565-19.212066,6.908735-11.968528,2.640528-2.58919,18.059922Z" fill="url(#radial-gradient-36)" stroke="#3c611b" stroke-miterlimit="10"/><path d="M130.100641,626.638127c-.09022,2.573178.990013,4.536756,4.229431,5.339355-1.353577-1.82373-2.762573-3.609131-4.229431-5.339355Z" fill="url(#radial-gradient-37)" stroke="#3c611b" stroke-miterlimit="10"/><path d="M138.688471,564.841984c9.423937,1.509807,5.298974,6.122308,7.023705,12.094315-.832613,6.745401-3.589938,16.269438,6.126322,10.414038-.211245-5.067679,3.86456-9.415823,8.977231-9.310354,6.353394.739283,9.713231,5.067337,16.18512,1.345703-6.312879-10.285004-20.721371-5.266971-26.42387-15.87655-6.599678-12.435489-16.282521-4.645845-24.961506.515954,4.711575-.395307,8.808014-.228578,13.072998.816895Z" fill="url(#radial-gradient-38)" stroke="#3c611b" stroke-miterlimit="10"/><path d="M195.377619,596.676457c7.847745,1.0392,9.697512,6.218739,15.27348-.129075-4.007899-5.51077-10.723467-5.986728-16.591339-7.281581-6.824573-2.091521-11.937221-5.893256-19.016736-2.05199,5.71243,5.044901,12.811004,8.223888,20.334595,9.462646Z" fill="url(#radial-gradient-39)" stroke="#3c611b" stroke-miterlimit="10"/><path d="M202.133722,624.118107c4.888245-3.048828,9.850281-5.994873,14.857056-8.878174-3.534816-.12111-2.776141-9.669085-3.746582-11.890869-5.7331,4.061373-7.144807,4.548083-5.219703,11.762035-3.256005,1.62859-5.581566,5.010426-5.89077,9.007008Z" fill="url(#radial-gradient-40)" stroke="#3c611b" stroke-miterlimit="10"/><path d="M205.417719,629.989201c5.216885-.227467,17.676988,3.047875,17.270649-4.961324.34966-10.022191-12.256395,3.459665-17.270649,4.961324Z" fill="url(#radial-gradient-41)" stroke="#3c611b" stroke-miterlimit="10"/><path d="M373.914728,174.527287c-13.841218,4.620454-28.015729,8.400453-42.462952,10.563232,12.719747,14.504686,7.364022,27.138909,30.794322,24.220824,2.923479-12.635887,15.260897-20.887535,11.66863-34.784056Z" fill="url(#radial-gradient-42)" stroke="#3c611b" stroke-miterlimit="10"/><path d="M389.592951,174.555851c9.927055-6.749002,18.507165.838888,26.966335,5.455629,1.36303-7.191682-9.176081-9.497708-10.505858-16.849665-6.847805,2.496087-13.690701,4.999749-20.562039,7.415032,1.359619,1.334229,2.727051,2.659912,4.101562,3.979004Z" fill="url(#radial-gradient-43)" stroke="#3c611b" stroke-miterlimit="10"/><path d="M381.100519,176.207463c.044922,1.41333.08374,2.830078.133789,4.240234,2.72442-1.619118,2.025743-2.413202-.133789-4.240234Z" fill="url(#radial-gradient-44)" stroke="#3c611b" stroke-miterlimit="10"/><path d="M447.525568,161.737736c-2.232667,3.852141-1.463372,10.151864-7.357313,10.575029-5.665436.472882-11.139189,3.485009-16.600919,4.316421-1.94124,8.405534,9.395794.357929,13.869009.196303,14.940819.377158,13.877406.938181,10.089223-15.087753Z" fill="url(#radial-gradient-45)" stroke="#3c611b" stroke-miterlimit="10"/><path d="M500.209284,150.976994c-1.777313-3.646333-11.467776,6.639916-21.538818,4.770392-7.629309-1.790817-7.518211,5.485088.029737,4.002078,9.262129-.561512,19.800793-1.668272,21.509081-8.77247Z" fill="url(#radial-gradient-46)" stroke="#3c611b" stroke-miterlimit="10"/><path d="M465.937189,155.487492c-4.352052.606085-15.007939-1.11206-11.45656,5.67331,4.173554-2.916874,13.541822,1.33867,11.45656-5.67331Z" fill="url(#radial-gradient-47)" stroke="#3c611b" stroke-miterlimit="10"/><path d="M529.57757,91.759465c-6.175259-1.458946-13.932063,2.478767-20.84196.974848.1335,1.560056-1.270079,2.885016-2.667805,3.660894,5.022076.407724,25.626861,1.748774,23.509766-4.635742Z" fill="url(#radial-gradient-48)" stroke="#3c611b" stroke-miterlimit="10"/><path d="M211.979791,157.414006c18.109495-1.603934,24.651798,19.122393,32.078918,9.612549-4.603764.011585-7.260093-3.437797-10.318511-6.402396-2.543075-4.393009-29.942974-11.556579-21.760407-3.210152Z" fill="url(#radial-gradient-49)" stroke="#3c611b" stroke-miterlimit="10"/><path d="M367.446954,151.552189c4.682766-11.475934-6.02458-24.465004-18.213074-21.963867,5.987915,7.391113,11.96344,14.79248,18.213074,21.963867Z" fill="url(#radial-gradient-50)"/><path d="M361.019464,154.807805c-6.256958-7.269531-12.282288-14.890625-18.380859-22.483643-12.932482,8.3783-6.26521,30.427408,9.446327,29.867516,4.305464-.068433,14.8533-2.977276,8.934532-7.383873Z" fill="url(#radial-gradient-51)"/></svg>