<?xml version="1.0" encoding="UTF-8"?><svg id="Layer_1" xmlns="http://www.w3.org/2000/svg" width="330.93553" height="330.31599" xmlns:xlink="http://www.w3.org/1999/xlink" viewBox="0 0 330.93553 330.31599"><defs><radialGradient id="radial-gradient" cx="223.58143" cy="52.41015" fx="223.58143" fy="52.41015" r="39.54833" gradientTransform="translate(-38.51115) scale(.92347 1)" gradientUnits="userSpaceOnUse"><stop offset="0" stop-color="#1e3c48"/><stop offset=".48812" stop-color="#2e5f71"/><stop offset="1" stop-color="#4289a2"/></radialGradient><radialGradient id="radial-gradient-2" cx="1104.1525" cy="296.92423" fx="1104.1525" fy="296.92423" r="31.59545" gradientTransform="translate(-797.17386 -147.87421) scale(.89482 .96086)" gradientUnits="userSpaceOnUse"><stop offset="0" stop-color="#ffecd2"/><stop offset=".20984" stop-color="#fee8c9"/><stop offset=".543" stop-color="#fedeb2"/><stop offset=".95579" stop-color="#fdce8d"/><stop offset="1" stop-color="#fdcd89"/></radialGradient></defs><path d="M144.95755,4.3639h.00003c5.64684-1.25027,11.39884-1.99651,17.18552-2.22958l16.7858-.67609c14.36777-.5787,27.63706,7.5735,33.38086,20.50805l3.89597,8.77339-25.55768,96.49077-45.23818-18.70514-16.68132-79.47759c-2.35078-11.20019,4.85928-22.16645,16.22901-24.68381Z" fill="#cfecf8" stroke="#05415a" stroke-miterlimit="10" stroke-width="2.85864"/><path d="M310.10321,31.19352l-49.2056,97.6126-82.93592,164.5413-9.34438-153.81687-3.231-53.26799c-1.19891-19.7658,3.24031-39.46563,12.80101-56.80683l7.3202-13.27738c4.8071-8.71911,14.00629-14.10041,23.96258-14.04359.04142.00024.0822.00045.12232.00065,42.37478.15762,78.28349,12.27154,100.50091,29.0581h.00987Z" fill="#cfecf8" stroke="#05415a" stroke-miterlimit="10" stroke-width="4"/><path d="M23.25522,40.19882l49.2056,97.6126,74.57966,147.96285c2.30418,4.5714,9.1716,3.15712,9.48202-1.95273l8.21861-135.2857,3.37112-55.57799c1.10738-18.25687-2.99295-36.45283-11.82378-52.47019l-10.70885-19.42371c-3.4016-6.16982-9.90379-9.98662-16.94909-9.94913l-4.8645.02588c-42.37478.15762-78.28349,12.27154-100.50091,29.0581h-.00987Z" fill="#cfecf8" stroke="#05415a" stroke-miterlimit="10" stroke-width="4"/><path d="M216.93684,50.01626c0,11.12751-21.92817,20.14815-48.97795,20.14815s-48.97795-9.02063-48.97795-20.14815,21.92817-15.36037,48.97795-15.36037,48.97795,4.23285,48.97795,15.36037Z" fill="url(#radial-gradient)"/><path d="M170.93829,288.75999c1.18141,8.38192-5.92495,15.6511-14.31771,14.54897-33.25675-4.36688-93.50568-28.38341-114.27303-83.17083-13.20692-34.84174,3.02458-42.16062-12.86586-85.7838C12.75018,88.42214-1.9223,79.78245,2.94696,61.98618c3.5609-13.01442,15.9788-22.43447,26.46697-25.51413,11.96181-3.5124,15.15399,3.06043,34.27903,3.81544,26.09871,1.03018,34.04547-10.66154,48.90267-3.51657.85061.40904,11.8056,5.94004,16.33688,17.77474,3.25072,8.4902,1.80764,16.84119,1.12705,20.77928-1.45228,8.40378-4.3134,11.01384-4.81943,20.4288-.16418,3.05382-.35606,6.62523.66432,11.1127,2.61958,11.52046,9.4644,12.52348,10.16768,22.17315.41102,5.63844-.45604,11.53372-.45604,11.53372-.33452,2.27447-.81828,4.50551-.53793,7.68743.26866,3.0495,1.07556,5.20278,1.33265,5.94009,1.25389,3.59634-4.73107,17.46961-5.76501,27.25648-1.03807,9.82727,3.38892,11.51982.4992,18.78941-1.90878,4.80202-4.81981,6.52748-5.00268,11.33893-.02056.54179.01879.93716.02865,1.05185.53305,6.19377,7.28448,6.63464,10.64059,12.7282,2.79825,5.08061,3.24406,14.10492,5.0103,15.35177.60507.42712,1.27319.83333,1.27331.83331.86733.52542,1.53376.8461,1.875,1.0233,13.24412,6.87867,22.25387,19.83366,24.33675,34.61142l1.63137,11.57448Z" fill="#cfecf8" stroke="#05415a" stroke-miterlimit="10" stroke-width="4"/><path d="M294.93515,146.55506c7.15678-44.10771,39.1419-53.4104,33.28923-85.77368-2.37674-13.14275-11.01435-30.30355-23.97348-33.59578-9.37942-2.38297-13.86487,4.31762-30.33334,3.02517-12.94704-1.01622-13.79856-5.44211-24.46596-4.91027-12.64361.63036-21.84848,7.42169-26.85736,10.99174-5.69371,4.05825-12.67647,9.03517-15.92748,18.14247-3.05639,8.56211-1.42325,16.87801-.65312,20.79969,1.6434,8.36846,4.56329,10.91268,5.28376,20.31346.09792,1.2773.20277,2.64533.22409,4.1353l.00202.19339c.04316,4.16328,3.36381,7.55075,7.52539,7.67688,5.59548.1696,9.99403,4.84312,9.82443,10.43847l-1.36825,45.14242c-.1696,5.5956-4.84312,9.99415-10.4386,9.82455l-5.39803-.16361c-4.47377-.1356-6.91196,5.17287-3.89403,8.47821l.07209.07899c5.75803,7.94473,5.92311,13.30201,5.13367,16.63905-1.60618,6.78955-7.78235,7.83069-8.62938,14.65649-.84201,6.78526,4.95596,8.21727,3.66504,14.96028-1.34058,7.00248-8.94164,12.50092-9.99177,13.2436-.80347.56815-1.50061.99387-1.98252,1.27419-1.53621.89143-2.71569,1.3526-4.03402,2.06646-2.0298,1.09917-4.2744,2.56067-6.64061,4.55778-9.50806,8.02516-14.91238,19.89947-15.17689,32.33885l-.17981,8.45645c-.98854,8.39366,6.26375,15.51213,14.61659,14.22325,28.73865-4.43403,63.56346-21.25834,74.02067-30.68821,12.20632-11.00678,30.69884-27.68209,38.35599-55.06993,8.76914-31.36515-7.47163-38.15465-2.06834-71.45566Z" fill="#cfecf8" stroke="#05415a" stroke-miterlimit="10" stroke-width="4"/><rect x="159.90051" y="110.23948" width="61.88967" height="54.37527" rx="13.03949" ry="13.03949" fill="url(#radial-gradient-2)" stroke="#93703e" stroke-miterlimit="10" stroke-width="1.77281"/></svg>