<?xml version="1.0" encoding="UTF-8"?><svg xmlns="http://www.w3.org/2000/svg" width="385.99118" height="335.655899" xmlns:xlink="http://www.w3.org/1999/xlink" viewBox="0 0 385.99118 335.655899"><defs><linearGradient id="b" x1="331.67412" y1="124.643867" x2="384.902448" y2="124.643867" gradientUnits="userSpaceOnUse"><stop offset="0" stop-color="#fff"/><stop offset=".041899" stop-color="#fdfdfd" stop-opacity=".4"/><stop offset="1" stop-color="#e6e7e8" stop-opacity=".5"/></linearGradient><linearGradient id="c" x1="43.549348" y1="261.273377" x2="385.419083" y2="261.273377" xlink:href="#b"/><linearGradient id="d" x1=".489877" y1="50.25159" x2="342.359613" y2="50.25159" xlink:href="#b"/><linearGradient id="e" x1="10.205535" y1="147.323796" x2="385.40118" y2="147.323796" xlink:href="#b"/></defs><g isolation="isolate"><g id="a"><polygon points="375.18679 238.263409 374.596863 238.383768 360.519402 169.535371 338.866365 63.611476 331.67412 28.414102 341.389778 10.903966 348.582023 46.101341 370.23506 152.025235 384.312521 220.873632 384.902448 220.753273 384.531345 220.454507 374.815687 237.964643 379.132489 227.736271 375.18679 238.263409" fill="url(#b)"/><polygon points="375.703425 236.367989 385.419083 218.857853 385.319083 218.765869 345.443974 226.921501 53.636108 286.569516 53.046181 286.689875 53.265006 286.27075 43.549348 303.780885 375.703425 236.367989" fill="url(#c)"/><polygon points="332.643955 25.346202 342.359613 7.836066 342.259613 7.744082 302.384504 15.899714 10.576638 75.547729 9.986711 75.668088 10.205535 75.248963 .489877 92.759098 332.643955 25.346202" fill="url(#d)"/><polyline points="375.685522 235.856879 335.810413 244.012512 44.002547 303.660526 43.41262 303.780885 29.335159 234.932488 7.682122 129.008593 .489877 93.811219" fill="none" stroke="#231f20" stroke-miterlimit="10"/><polygon points="342.478369 8.376843 385.40118 218.346744 345.526071 226.502376 53.718205 286.15039 53.128278 286.27075 39.050817 217.422352 17.39778 111.498458 10.205535 76.301084 342.478369 8.376843" fill="url(#e)" stroke="#231f20" stroke-miterlimit="10"/><path d="M131.854339,256.188156c-20.670044,8.889893-44.630005-.660034-53.52002-21.330078-.140015-.319946-.27002-.639893-.400024-.969971-1.51001-17.050049,7.910034-33.880005,24.480042-41,20.669983-8.889893,44.639954.660034,53.529968,21.320068.140015.339966.280029.669922.410034,1.01001,1.48999,17.030029-7.930054,33.839966-24.5,40.969971Z" fill="#43ade2"/><path d="M307.020285,113.304011c-20.670044,8.889893-44.630005-.660034-53.52002-21.330078-.140015-.319946-.27002-.639893-.400024-.969971-1.51001-17.050049,7.910034-33.880005,24.480042-41,20.669983-8.889893,44.639954.660034,53.529968,21.320068.140015.339966.280029.669922.410034,1.01001,1.48999,17.030029-7.930054,33.839966-24.5,40.969971Z" fill="#43ade2"/><path d="M205.094359,136.756617c-20.670044,8.889893-44.630005-.660034-53.52002-21.330078-.140015-.319946-.27002-.639893-.400024-.969971-1.51001-17.050049,7.910034-33.880005,24.480042-41,20.669983-8.889893,44.639954.660034,53.529968,21.320068.140015.339966.280029.669922.410034,1.01001,1.48999,17.030029-7.930054,33.839966-24.5,40.969971Z" fill="#43ade2"/><path d="M103.168433,160.209224c-20.670044,8.889893-44.630005-.660034-53.52002-21.330078-.140015-.319946-.27002-.639893-.400024-.969971-1.51001-17.050049,7.910034-33.880005,24.480042-41,20.669983-8.889893,44.639954.660034,53.529968,21.320068.140015.339966.280029.669922.410034,1.01001,1.48999,17.030029-7.930054,33.839966-24.5,40.969971Z" fill="#43ade2"/><line x1="10.205535" y1="76.301084" x2=".489877" y2="93.811219" fill="none" stroke="#231f20" stroke-miterlimit="10" stroke-width=".84582"/><line x1="53.347102" y1="285.851624" x2="43.631444" y2="303.36176" fill="none" stroke="#231f20" stroke-miterlimit="10" stroke-width=".84582"/><line x1="385.50118" y1="218.438727" x2="375.785522" y2="235.948863" fill="none" stroke="#231f20" stroke-miterlimit="10" stroke-width=".84582"/><path d="M103.168433,160.209224c-20.670044,8.889893-44.630005-.660034-53.52002-21.330078-.140015-.319946-.27002-.639893-.400024-.969971-.440002-1.079956-.829956-2.189941-1.159973-3.290039-5.980042-19.589966,3.619995-40.97998,22.880005-49.26001,20.669983-8.879883,44.639954.670044,53.529968,21.320068,1.369995,3.189941,2.309998,6.459961,2.830017,9.75.150024.939941.27002,1.869995.340027,2.810059,1.48999,17.030029-7.930054,33.839966-24.5,40.969971Z" fill="none" stroke="#231f20" stroke-miterlimit="10"/><circle cx="87.072448" cy="122.786936" r="43.059491" fill="none" stroke="#231f20" stroke-miterlimit="10" stroke-width="1.056915"/><path d="M102.654622,98.620112c.289047,1.470215-9.001724,2.666748-24.525894,10.718018-14.350861,7.442871-20.707001,13.834473-21.779022,12.696533-1.241104-1.317383,5.161575-12.130859,16.001236-18.585449,13.640167-8.12207,29.928879-6.735352,30.30368-4.829102Z" fill="#b2d6f1" mix-blend-mode="screen" opacity=".43"/><path d="M131.854339,256.188156c-20.670044,8.889893-44.630005-.660034-53.52002-21.330078-.140015-.319946-.27002-.639893-.400024-.969971-.440002-1.079956-.829956-2.189941-1.159973-3.290039-5.980042-19.589966,3.619995-40.97998,22.880005-49.26001,20.669983-8.879883,44.639954.670044,53.529968,21.320068,1.369995,3.189941,2.309998,6.459961,2.830017,9.75.150024.939941.27002,1.869995.340027,2.810059,1.48999,17.030029-7.930054,33.839966-24.5,40.969971Z" fill="none" stroke="#231f20" stroke-miterlimit="10"/><circle cx="115.758354" cy="218.765869" r="43.059491" fill="none" stroke="#231f20" stroke-miterlimit="10" stroke-width="1.056915"/><path d="M131.340528,194.599045c.289047,1.470215-9.001724,2.666748-24.525894,10.718018-14.350861,7.442871-20.707001,13.834473-21.779022,12.696533-1.241104-1.317383,5.161575-12.130859,16.001236-18.585449,13.640167-8.12207,29.928879-6.735352,30.30368-4.829102Z" fill="#b2d6f1" mix-blend-mode="screen" opacity=".43"/><path d="M205.094359,136.756617c-20.670044,8.889893-44.630005-.660034-53.52002-21.330078-.140015-.319946-.27002-.639893-.400024-.969971-.440002-1.079956-.829956-2.189941-1.159973-3.290039-5.980042-19.589966,3.619995-40.97998,22.880005-49.26001,20.669983-8.879883,44.639954.670044,53.529968,21.320068,1.369995,3.189941,2.309998,6.459961,2.830017,9.75.150024.939941.27002,1.869995.340027,2.810059,1.48999,17.030029-7.930054,33.839966-24.5,40.969971Z" fill="none" stroke="#231f20" stroke-miterlimit="10"/><circle cx="188.998374" cy="99.33433" r="43.059491" fill="none" stroke="#231f20" stroke-miterlimit="10" stroke-width="1.056915"/><path d="M204.580548,75.167506c.289047,1.470215-9.001724,2.666748-24.525894,10.718018-14.350861,7.442871-20.707001,13.834473-21.779022,12.696533-1.241104-1.317383,5.161575-12.130859,16.001236-18.585449,13.640167-8.12207,29.928879-6.735352,30.30368-4.829102Z" fill="#b2d6f1" mix-blend-mode="screen" opacity=".43"/><path d="M233.780265,232.73555c-20.670044,8.889893-44.630005-.660034-53.52002-21.330078-.140015-.319946-.27002-.639893-.400024-.969971-1.51001-17.050049,7.910034-33.880005,24.480042-41,20.669983-8.889893,44.639954.660034,53.529968,21.320068.140015.339966.280029.669922.410034,1.01001,1.48999,17.030029-7.930054,33.839966-24.5,40.969971Z" fill="#43ade2"/><circle cx="217.68428" cy="195.313263" r="43.059491" fill="none" stroke="#231f20" stroke-miterlimit="10" stroke-width="1.056915"/><path d="M233.266454,171.146439c.289047,1.470215-9.001724,2.666748-24.525894,10.718018-14.350861,7.442871-20.707001,13.834473-21.779022,12.696533-1.241104-1.317383,5.161575-12.130859,16.001236-18.585449,13.640167-8.12207,29.928879-6.735352,30.30368-4.829102Z" fill="#b2d6f1" mix-blend-mode="screen" opacity=".43"/><path d="M307.020285,113.304011c-20.670044,8.889893-44.630005-.660034-53.52002-21.330078-.140015-.319946-.27002-.639893-.400024-.969971-.440002-1.079956-.829956-2.189941-1.159973-3.290039-5.980042-19.589966,3.619995-40.97998,22.880005-49.26001,20.669983-8.879883,44.639954.670044,53.529968,21.320068,1.369995,3.189941,2.309998,6.459961,2.830017,9.75.150024.939941.27002,1.869995.340027,2.810059,1.48999,17.030029-7.930054,33.839966-24.5,40.969971Z" fill="none" stroke="#231f20" stroke-miterlimit="10"/><circle cx="290.9243" cy="75.881724" r="43.059491" fill="none" stroke="#231f20" stroke-miterlimit="10" stroke-width="1.056915"/><path d="M306.506474,51.7149c.289047,1.470215-9.001724,2.666748-24.525894,10.718018-14.350861,7.442871-20.707001,13.834473-21.779022,12.696533-1.241104-1.317383,5.161575-12.130859,16.001236-18.585449,13.640167-8.12207,29.928879-6.735352,30.30368-4.829102Z" fill="#b2d6f1" mix-blend-mode="screen" opacity=".43"/><path d="M335.706191,209.030106c-20.670044,8.889893-44.630005-.660034-53.52002-21.330078-.140015-.319946-.27002-.639893-.400024-.969971-1.51001-17.050049,7.910034-33.880005,24.480042-41,20.669983-8.889893,44.639954.660034,53.529968,21.320068.140015.339966.280029.669922.410034,1.01001,1.48999,17.030029-7.930054,33.839966-24.5,40.969971Z" fill="#43ade2"/><circle cx="319.610206" cy="171.860656" r="43.059491" fill="none" stroke="#231f20" stroke-miterlimit="10" stroke-width="1.056915"/><path d="M335.19238,147.693832c.289047,1.470215-9.001724,2.666748-24.525894,10.718018-14.350861,7.442871-20.707001,13.834473-21.779022,12.696533-1.241104-1.317383,5.161575-12.130859,16.001236-18.585449,13.640167-8.12207,29.928879-6.735352,30.30368-4.829102Z" fill="#b2d6f1" mix-blend-mode="screen" opacity=".43"/><path d="M233.780265,232.73555c-20.670044,8.889893-44.630005-.660034-53.52002-21.330078-.140015-.319946-.27002-.639893-.400024-.969971-.440002-1.079956-.829956-2.189941-1.159973-3.290039-5.980042-19.589966,3.619995-40.97998,22.880005-49.26001,20.669983-8.879883,44.639954.670044,53.529968,21.320068,1.369995,3.189941,2.309998,6.459961,2.830017,9.75.150024.939941.27002,1.869995.340027,2.810059,1.48999,17.030029-7.930054,33.839966-24.5,40.969971Z" fill="none" stroke="#231f20" stroke-miterlimit="10"/><path d="M335.706191,209.282944c-20.670044,8.889893-44.630005-.660034-53.52002-21.330078-.140015-.319946-.27002-.639893-.400024-.969971-.440002-1.079956-.829956-2.189941-1.159973-3.290039-5.980042-19.589966,3.619995-40.97998,22.880005-49.26001,20.669983-8.879883,44.639954.670044,53.529968,21.320068,1.369995,3.189941,2.309998,6.459961,2.830017,9.75.150024.939941.27002,1.869995.340027,2.810059,1.48999,17.030029-7.930054,33.839966-24.5,40.969971Z" fill="none" stroke="#231f20" stroke-miterlimit="10"/></g></g></svg>