<?xml version="1.0" encoding="UTF-8"?><svg id="Dimensions" xmlns="http://www.w3.org/2000/svg" width="251.999939" height="188.910034" viewBox="0 0 251.999939 188.910034"><path d="M250.648929,61.809998v52.150024c0-9.450012-4.52002-18.400024-12.580078-26.360046.26001-.25.51001-.51001.76001-.769958v-.01001c.76001-.77002,1.47998-1.540039,2.160034-2.330017v-.01001c.469971-.519958.910034-1.049988,1.329956-1.579956.219971-.27002.430054-.540039.630005-.810059.630005-.809998,1.210083-1.619995,1.75-2.439941.369995-.550049.720093-1.100037,1.050049-1.650024.329956-.559998.650024-1.119995.949951-1.679993.300049-.559998.579956-1.119995.849976-1.690002.290039-.609985.560059-1.220032.800049-1.830017.25-.609985.47998-1.219971.679932-1.839966.140137-.410034.27002-.820007.390137-1.240051.129883-.419983.23999-.829956.339844-1.25.110107-.419983.200073-.839966.280029-1.259949.180054-.840027.320068-1.680054.410034-2.530029.01001-.02002.01001-.049988.01001-.070007.030029-.25.059937-.5.079956-.75,0-.02002.01001-.049988,0-.080017.060059-.579956.090088-1.179993.100098-1.769958.01001-.070007.01001-.130005.01001-.200012Z" fill="#f4ecdd" opacity=".8"/><path d="M13.583344,89.022742c-7.77002,7.670044-12.26001,16.26001-12.569946,25.340027l-.01001-51.119995c.01001.22998.02002.460022.030029.690002.009888.48999.049927.97998.099854,1.469971.070068.850037.190063,1.680054.340088,2.52002.050049.309998.109985.619995.189941.929993.070068.410034.170044.830017.290039,1.23999.02002.110046.050049.210022.080078.309998.299927,1.170044.679932,2.340027,1.139893,3.490051.150024.399963.320068.809998.5,1.209961.02002.059998.050049.119995.080078.190002.159912.369995.329956.72998.51001,1.090027.389893.829956.829956,1.649963,1.299927,2.459961.180054.320007.359985.630005.559937.940002.040039.070007.090088.150024.130127.220032.01001.019958.02002.029968.030029.049988.48999.789978,1.019897,1.570007,1.569824,2.340027.25.339966.5.679993.76001,1.019958.52002.679993,1.060059,1.359985,1.630127,2.030029.280029.329956.569946.659973.869873.98999.590088.669983,1.210083,1.320007,1.850098,1.969971.199951.210022.409912.420044.619995.619995Z" fill="#f4ecdd" opacity=".8"/><path d="M251.003387,62.442786c0,4.600037-1.070068,9.090027-3.100098,13.400024-2.139893,4.539978-5.349976,8.880005-9.48999,12.959961-20.290039-20.049988-63-33.859985-112.409912-33.859985-49.400024,0-92.120117,13.809998-112.410034,33.859985-.210083-.199951-.420044-.409973-.619995-.619995-.640015-.649963-1.26001-1.299988-1.850098-1.969971-.299927-.330017-.589844-.660034-.869873-.98999-.570068-.670044-1.110107-1.350037-1.630127-2.030029-.26001-.339966-.51001-.679993-.76001-1.019958-4.439941-6.190002-6.849854-12.820007-6.849854-19.730042v.580017c-.01001-.190002-.01001-.390015-.01001-.580017C1.003387,29.182777,56.973358,2.212806,126.003387,2.212806c69.040039,0,125,26.969971,125,60.22998Z" fill="#f4ecdd" opacity=".8"/><path d="M251.003357,113.960052c0,12.279968-7.629883,23.700012-20.71991,33.22998-22.380005,16.27002-60.72998,27-104.280029,27s-81.899963-10.72998-104.279968-27C8.633423,137.660065,1.003418,126.240021,1.003418,113.960052c0-33.26001,55.970032-60.230042,125-60.230042,69.040039,0,124.999939,26.970032,124.999939,60.230042Z" fill="#e9d3b8" opacity=".85"/><path d="M96.463336,110.122057c0,.491199-.252614.948-.686007,1.329199-.74097.650801-2.010683,1.08-3.452563,1.08s-2.711591-.429199-3.45256-1.08c-.433392-.381199-.686011-.838-.686011-1.329199,0-1.3304,1.853088-2.409202,4.138571-2.409202,2.285817,0,4.138569,1.078801,4.138569,2.409202Z" fill="#dcbf85" opacity=".76"/><path d="M251.003387,113.960022v13.720032c0,33.26001-55.959961,60.22998-125,60.22998C56.973358,187.910034,1.003387,160.940063,1.003387,127.680054v-13.720032c0,12.280029,7.630005,23.700012,20.719971,33.230042,22.380005,16.269958,60.72998,27,104.280029,27s81.899902-10.730042,104.280029-27c13.089966-9.530029,20.719971-20.950012,20.719971-33.230042Z" fill="#e9d3b8" opacity=".85"/><path d="M230.280029,94.460022c-22.380005,16.27002-60.72998,27-104.280029,27s-81.899963-10.72998-104.279968-27c22.380005-16.279968,60.72998-27.01001,104.279968-27.01001s81.900024,10.730042,104.280029,27.01001Z" fill="none" opacity=".25" stroke="#bdac97" stroke-miterlimit="10" stroke-width="2"/><path d="M250.999939,61.230042c0,12.279968-7.629883,23.700012-20.71991,33.22998-22.380005,16.27002-60.72998,27-104.280029,27s-81.899963-10.72998-104.279968-27C8.630005,84.930054,1,73.51001,1,61.230042,1,27.970032,56.970032,1,126,1c69.040039,0,124.999939,26.970032,124.999939,60.230042Z" fill="none" stroke="#bdac97" stroke-miterlimit="10" stroke-width="2"/><path d="M59.573581,86.179374c-1.168217-.742566-2.878014-1.099325-4.776983-.880661-3.482509.404778-6.278556,2.596706-6.2538,4.898924.016265,1.048058.616545,1.938399,1.594208,2.55984,1.16924.743216,2.878337,1.101372,4.771943.883086,3.487564-.401667,6.28936-2.597514,6.253809-4.899021-.013638-1.050073-.611914-1.941084-1.589176-2.562169" fill="#dcbf85" opacity=".74"/><path d="M93.739982,73.619926c-1.374372-.873607-3.385899-1.293323-5.619981-1.036072-4.097069.47621-7.386536,3.054948-7.357412,5.76344.019135,1.23301.725347,2.280469,1.875538,3.011577,1.375576.874372,3.386279,1.295732,5.61405,1.038925,4.103017-.47255,7.399247-3.055899,7.357422-5.763554-.016045-1.23538-.719898-2.283628-1.869618-3.014316" fill="#dcbf85" opacity=".67"/><path d="M84.666793,89.35827c-.687186-.436803-1.692949-.646662-2.80999-.518036-2.048535.238105-3.693268,1.527474-3.678706,2.88172.009568.616505.362674,1.140234.937769,1.505789.687788.437186,1.69314.647866,2.807025.519462,2.051508-.236275,3.699624-1.527949,3.678711-2.881777-.008022-.61769-.359949-1.141814-.934809-1.507158" fill="#dcbf85" opacity=".46"/><path d="M111.777904,80.536983c-.687186-.436803-1.692949-.646662-2.80999-.518036-2.048535.238105-3.693268,1.527474-3.678706,2.88172.009568.616505.362674,1.140234.937769,1.505789.687788.437186,1.69314.647866,2.807025.519462,2.051508-.236275,3.699624-1.527949,3.678711-2.881777-.008022-.61769-.359949-1.141814-.934809-1.507158" fill="#dcbf85" opacity=".72"/><path d="M67.449243,68.24689c-.687186-.436803-1.692949-.646662-2.80999-.518036-2.048535.238105-3.693268,1.527474-3.678706,2.88172.009568.616505.362674,1.140234.937769,1.505789.687788.437186,1.69314.647866,2.807025.519462,2.051508-.236275,3.699624-1.527949,3.678711-2.881777-.008022-.61769-.359949-1.141814-.934809-1.507158" fill="#dcbf85" opacity=".5"/><path d="M209.196721,84.709619c-.687186-.436803-1.692949-.646662-2.80999-.518036-2.048535.238105-3.693268,1.527474-3.678706,2.88172.009568.616505.362674,1.140234.937769,1.505789.687788.437186,1.69314.647866,2.807025.519462,2.051508-.236275,3.699624-1.527949,3.678711-2.881777-.008022-.61769-.359949-1.141814-.934809-1.507158" fill="#dcbf85" opacity=".72"/><path d="M212.90862,88.440508c-.687186-.436803-1.692949-.646662-2.80999-.518036-2.048535.238105-3.693268,1.527474-3.678706,2.88172.009568.616505.362674,1.140234.937769,1.505789.687788.437186,1.69314.647866,2.807025.519462,2.051508-.236275,3.699624-1.527949,3.678711-2.881777-.008022-.61769-.359949-1.141814-.934809-1.507158" fill="#dcbf85" opacity=".72"/><path d="M121.22158,103.842148c-1.14029-.873607-3.039354-1.293323-5.342366-1.036072-4.224669.47621-8.205107,3.054948-8.901721,5.76344-.311248,1.23301.114297,2.280469,1.068589,3.011577,1.141289.874372,3.039089,1.295732,5.335671,1.038925,4.229636-.47255,8.218073-3.055899,8.901762-5.763554.314974-1.23538-.108002-2.283628-1.061935-3.014316" fill="#dcbf85" opacity=".26"/><path d="M128.738941,63.579305c-1.374372-.873607-3.385899-1.293323-5.619981-1.036072-4.097069.47621-7.386536,3.054948-7.357412,5.76344.019135,1.23301.725347,2.280469,1.875538,3.011577,1.375576.874372,3.386279,1.295732,5.61405,1.038925,4.103017-.47255,7.399247-3.055899,7.357422-5.763554-.016045-1.23538-.719898-2.283628-1.869618-3.014316" fill="#dcbf85" opacity=".76"/><path d="M163.012693,84.346294c-.798144-.508077-1.969812-.746661-3.274067-.586272-2.391884.296746-4.321255,1.826503-4.315326,3.419005.006127.724944.413804,1.337977,1.081758,1.763179.798843.508522,1.970024.748076,3.270596.587974,2.395338-.294618,4.328674-1.827114,4.315333-3.419072-.004315-.72635-.410613-1.339857-1.078294-1.764814" fill="#dcbf85" opacity=".74"/><path d="M171.680462,105.414177c-.798144-.508077-1.969812-.746661-3.274067-.586272-2.391884.296746-4.321255,1.826503-4.315326,3.419005.006127.724944.413804,1.337977,1.081758,1.763179.798843.508522,1.970024.748076,3.270596.587974,2.395338-.294618,4.328674-1.827114,4.315333-3.419072-.004315-.72635-.410613-1.339857-1.078294-1.764814" fill="#dcbf85" opacity=".3"/><path d="M190.921607,121.208631c-.798144-.508077-1.969812-.746661-3.274067-.586272-2.391884.296746-4.321255,1.826503-4.315326,3.419005.006127.724944.413804,1.337977,1.081758,1.763179.798843.508522,1.970024.748076,3.270596.587974,2.395338-.294618,4.328674-1.827114,4.315333-3.419072-.004315-.72635-.410613-1.339857-1.078294-1.764814" fill="#dcbf85" opacity=".53"/><path d="M170.495277,133.749384c-.798144-.508077-1.969812-.746661-3.274067-.586272-2.391884.296746-4.321255,1.826503-4.315326,3.419005.006127.724944.413804,1.337977,1.081758,1.763179.798843.508522,1.970024.748076,3.270596.587974,2.395338-.294618,4.328674-1.827114,4.315333-3.419072-.004315-.72635-.410613-1.339857-1.078294-1.764814" fill="#dcbf85" opacity=".3"/><path d="M196.442998,99.634586c-1.099498-.698885-2.708719-1.034658-4.495984-.828857-3.277655.380968-5.909229,2.443958-5.885929,4.610752.015308.986408.580278,1.824375,1.500431,2.409262,1.100461.699497,2.709023,1.036586,4.49124.83114,3.282413-.37804,5.919398-2.444719,5.885937-4.610843-.012836-.988304-.575919-1.826902-1.495695-2.411453" fill="#dcbf85" opacity=".53"/><path d="M149.775978,105.107611c-1.374372-.873607-3.385899-1.293323-5.619981-1.036072-4.097069.47621-7.386536,3.054948-7.357412,5.76344.019135,1.23301.725347,2.280469,1.875538,3.011577,1.375576.874372,3.386279,1.295732,5.61405,1.038925,4.103017-.47255,7.399247-3.055899,7.357422-5.763554-.016045-1.23538-.719898-2.283628-1.869618-3.014316" fill="#dcbf85" opacity=".58"/><path d="M144.444369,134.440944c-1.374372-.873607-3.385899-1.293323-5.619981-1.036072-4.097069.47621-7.386536,3.054948-7.357412,5.76344.019135,1.23301.725347,2.280469,1.875538,3.011577,1.375576.874372,3.386279,1.295732,5.61405,1.038925,4.103017-.47255,7.399247-3.055899,7.357422-5.763554-.016045-1.23538-.719898-2.283628-1.869618-3.014316" fill="#dcbf85" opacity=".5"/><path d="M165.310957,66.311537c-1.374372-.873607-3.385899-1.293323-5.619981-1.036072-4.097069.47621-7.386536,3.054948-7.357412,5.76344.019135,1.23301.725347,2.280469,1.875538,3.011577,1.375576.874372,3.386279,1.295732,5.61405,1.038925,4.103017-.47255,7.399247-3.055899,7.357422-5.763554-.016045-1.23538-.719898-2.283628-1.869618-3.014316" fill="#dcbf85" opacity=".49"/><path d="M196.108566,74.561051c-1.126704-.712609-2.758935-1.081417-4.5576-.923215-3.298474.293611-5.90378,2.253346-5.827263,4.379871.039578.968191.63024,1.804185,1.573162,2.400556,1.12769.713233,2.759289,1.083316,4.552868.925338,3.303347-.290621,5.914024-2.253844,5.827269-4.379961-.037129-.969991-.625903-1.806558-1.568436-2.40259" fill="#dcbf85" opacity=".74"/><path d="M40.666591,120.69933c-1.374372-.873607-3.385899-1.293323-5.619981-1.036072-4.097069.47621-7.386536,3.054948-7.357412,5.76344.019135,1.23301.725347,2.280469,1.875538,3.011577,1.375576.874372,3.386279,1.295732,5.61405,1.038925,4.103017-.47255,7.399247-3.055899,7.357422-5.763554-.016045-1.23538-.719898-2.283628-1.869618-3.014316" fill="#dcbf85" opacity=".63"/><path d="M138.980972,80.617064c-1.374372-.873607-3.385899-1.293323-5.619981-1.036072-4.097069.47621-7.386536,3.054948-7.357412,5.76344.019135,1.23301.725347,2.280469,1.875538,3.011577,1.375576.874372,3.386279,1.295732,5.61405,1.038925,4.103017-.47255,7.399247-3.055899,7.357422-5.763554-.016045-1.23538-.719898-2.283628-1.869618-3.014316" fill="#dcbf85" opacity=".5"/><path d="M228.410017,113.642253c-1.374372-.873607-3.385899-1.293323-5.619981-1.036072-4.097069.47621-7.386536,3.054948-7.357412,5.76344.019135,1.23301.725347,2.280469,1.875538,3.011577,1.375576.874372,3.386279,1.295732,5.61405,1.038925,4.103017-.47255,7.399247-3.055899,7.357422-5.763554-.016045-1.23538-.719898-2.283628-1.869618-3.014316" fill="#dcbf85" opacity=".67"/><path d="M178.312611,152.046024c-1.374372-.873607-3.385899-1.293323-5.619981-1.036072-4.097069.47621-7.386536,3.054948-7.357412,5.76344.019135,1.23301.725347,2.280469,1.875538,3.011577,1.375576.874372,3.386279,1.295732,5.61405,1.038925,4.103017-.47255,7.399247-3.055899,7.357422-5.763554-.016045-1.23538-.719898-2.283628-1.869618-3.014316" fill="#dcbf85" opacity=".96"/><path d="M111.647638,160.512564c-1.374372-.873607-3.385899-1.293323-5.619981-1.036072-4.097069.47621-7.386536,3.054948-7.357412,5.76344.019135,1.23301.725347,2.280469,1.875538,3.011577,1.375576.874372,3.386279,1.295732,5.61405,1.038925,4.103017-.47255,7.399247-3.055899,7.357422-5.763554-.016045-1.23538-.719898-2.283628-1.869618-3.014316" fill="#dcbf85" opacity=".53"/><path d="M73.518468,99.058972c-.824623-.524164-2.031539-.775994-3.371988-.621643-2.458241.285726-4.431922,1.832969-4.414447,3.458064.011481.739806.435208,1.368281,1.125323,1.806946.825346.524623,2.031767.777439,3.36843.623355,2.46181-.28353,4.439548-1.833539,4.414453-3.458132-.009627-.741228-.431939-1.370177-1.121771-1.80859" fill="#dcbf85" opacity=".74"/><path d="M108.587578,132.177356c-1.374372-.873607-3.385899-1.293323-5.619981-1.036072-4.097069.47621-7.386536,3.054948-7.357412,5.76344.019135,1.23301.725347,2.280469,1.875538,3.011577,1.375576.874372,3.386279,1.295732,5.61405,1.038925,4.103017-.47255,7.399247-3.055899,7.357422-5.763554-.016045-1.23538-.719898-2.283628-1.869618-3.014316" fill="#dcbf85" opacity=".25"/><path d="M1.003387,63.108354c0,12.279968,7.630127,23.699951,20.719971,33.22998,22.380127,16.27002,60.72998,27,104.280029,27s81.900024-10.72998,104.280029-27c13.090088-9.530029,20.719971-20.950012,20.719971-33.22998v53.309998c-.22998,12.059998-7.829956,23.269958-20.709961,32.649963-22.380005,16.27002-60.72998,27-104.280029,27s-81.899902-10.72998-104.280029-27c-13.089966-9.529968-20.719971-20.950012-20.719971-33.22998l-.01001-52.72998Z" fill="#fff" opacity=".5"/><path d="M250.999939,61.230042v66.450012c0,33.259949-55.9599,60.22998-124.999939,60.22998C56.970032,187.910034,1,160.940002,1,127.680054V61.230042c0,12.279968,7.630005,23.700012,20.720032,33.22998,22.380005,16.27002,60.72998,27,104.279968,27s81.900024-10.72998,104.280029-27c13.090027-9.529968,20.71991-20.950012,20.71991-33.22998Z" fill="none" stroke="#bdac97" stroke-miterlimit="10" stroke-width="2"/></svg>