<?xml version="1.0" encoding="UTF-8"?><svg id="Layer_1" xmlns="http://www.w3.org/2000/svg" width="283.2457" height="175.00049" viewBox="0 0 283.2457 175.00049"><line x1="8.72243" y1="87.50049" x2="8.41283" y2="159.72873" fill="none" stroke="#26a9e0" stroke-miterlimit="10" stroke-width="12"/><line x1="9.05773" y1="9.27985" x2="8.72243" y2="87.50049" fill="none" stroke="#515ba7" stroke-miterlimit="10" stroke-width="12"/><line x1="119.97237" y1="87.50094" x2="119.58515" y2="162.1664" fill="none" stroke="#26a9e0" stroke-miterlimit="10" stroke-width="12"/><line x1="120.18364" y1="46.76259" x2="119.97237" y2="87.50094" fill="none" stroke="#515ba7" stroke-miterlimit="10" stroke-width="12"/><line x1="148.1594" y1="87.50049" x2="148.15943" y2="164.87556" fill="none" stroke="#26a9e0" stroke-miterlimit="10" stroke-width="12"/><line x1="148.15938" y1="14.61134" x2="148.1594" y2="87.50049" fill="none" stroke="#515ba7" stroke-miterlimit="10" stroke-width="12"/><line x1="176.42336" y1="86.39463" x2="176.42337" y2="148.09277" fill="none" stroke="#26a9e0" stroke-miterlimit="10" stroke-width="12"/><line x1="176.42334" y1="12.24091" x2="176.42336" y2="86.39463" fill="none" stroke="#515ba7" stroke-miterlimit="10" stroke-width="12"/><line x1="261.25309" y1="82.43697" x2="261.60227" y2="125.42897" fill="none" stroke="#26a9e0" stroke-miterlimit="10" stroke-width="12"/><line x1="260.68296" y1="12.24091" x2="261.25309" y2="82.43697" fill="none" stroke="#515ba7" stroke-miterlimit="10" stroke-width="12"/><line x1="232.91295" y1="41.75633" x2="232.91296" y2="69.87193" fill="none" stroke="#515ba7" stroke-miterlimit="10" stroke-width="12"/><line x1="63.02152" y1="87.71225" x2="63.79633" y2="150.62179" fill="none" stroke="#26a9e0" stroke-miterlimit="10" stroke-width="12"/><line x1="62.82646" y1="71.87439" x2="63.02152" y2="87.71225" fill="none" stroke="#515ba7" stroke-miterlimit="10" stroke-width="12"/><line x1="91.63169" y1="107.2041" x2="91.63171" y2="133.64869" fill="none" stroke="#26a9e0" stroke-miterlimit="10" stroke-width="12"/><line x1="35.10348" y1="87.50048" x2="35.10351" y2="162.16697" fill="none" stroke="#26a9e0" stroke-miterlimit="10" stroke-width="12"/><line x1="35.10346" y1="25.64834" x2="35.10348" y2="87.50048" fill="none" stroke="#515ba7" stroke-miterlimit="10" stroke-width="12"/><line x1="205.47397" y1="84.4598" x2="205.86559" y2="99.37762" fill="none" stroke="#26a9e0" stroke-miterlimit="10" stroke-width="12"/><line x1="203.79676" y1="20.57045" x2="205.47397" y2="84.4598" fill="none" stroke="#515ba7" stroke-miterlimit="10" stroke-width="12"/><path d="M95.1125,84.47168c-17.14551,38.84131-33.34033,75.52881-63.76709,75.52881-12.6582,0-22.51803-6.37012-31.34225-16.58618.00073,1.17676-.00004,14.94239,0,20.65051,8.95178,6.84998,18.9631,10.93567,31.34225,10.93567,40.20166,0,59.15771-42.94238,77.48975-84.47119,17.14551-38.8418,33.34082-75.5293,63.76758-75.5293V0c-40.20215.00049-59.1582,42.94287-77.49023,84.47168Z" fill="#e2a78a"/><path d="M62.5258,87.71836c.41325.93524.82685,1.87221,1.24099,2.81045,18.33105,41.52881,37.28662,84.47168,77.48682,84.47168s59.1582-42.94238,77.48975-84.47119c17.146-38.84131,33.34082-75.52881,63.76758-75.52881.02368,0,.69582.00262.71962.00269.02289-6.04931.01728-11.08983,0-14.99597-.13379-.00098-.58535-.00671-.71962-.00671C242.30879.00049,223.35274,42.94287,205.02119,84.47168c-17.146,38.84131-33.34082,75.52881-63.76758,75.52881s-46.61914-36.6875-63.76416-75.52881C59.1584,42.94287,40.20332.00049.00313.00049v15c29.68987,0,45.828,34.93602,62.52268,72.71787" fill="#c7873a"/><path d="M283.23056,144.35669c-12.77893-14.30615-22.90761-36.70947-33.13808-59.8855C231.76045,42.94238,212.8044,0,172.60274,0v15c30.42676,0,46.62158,36.68701,63.76709,75.52832,12.90979,29.24548,26.12988,59.19067,46.86072,74.34741.00002-6.118-.01363-13.03391.00002-20.51904Z" fill="#e2a78a"/></svg>