<?xml version="1.0" encoding="UTF-8"?><svg id="Layer_1" xmlns="http://www.w3.org/2000/svg" width="542.62654" height="606.63923" viewBox="0 0 542.62654 606.63923"><text transform="translate(15.81135 484.15534)" fill="#231f20" font-family="TimesNewRomanPS-BoldMT, &apos;Times New Roman&apos;" font-size="24" font-weight="700"><tspan x="0" y="0">NH</tspan></text><text transform="translate(51.81135 492.14753) scale(.583)" fill="#231f20" font-family="TimesNewRomanPS-BoldMT, &apos;Times New Roman&apos;" font-size="24" font-weight="700"><tspan x="0" y="0">2</tspan></text><text transform="translate(469.2906 598.77594)" fill="#231f20" font-family="TimesNewRomanPS-BoldMT, &apos;Times New Roman&apos;" font-size="24" font-weight="700"><tspan x="0" y="0">HOOC</tspan></text><path d="M24.8199,463.22809c.39111-5.19141,1.21289-10.37939,2.90625-15.31299,1.68555-4.91943,4.26709-9.57764,7.82764-13.396" fill="none" stroke="#2e3191" stroke-linecap="round" stroke-miterlimit="10" stroke-width="4.25"/><path d="M19.48298,442.05671c1.81299-2.87646,4.66504-4.46729,7.27539-4.66504,2.71729-.17871,5.19434.96631,7.12158,2.93896.9707.98682,1.70459,2.05908,2.27588,3.14209.60498,1.1084,1.02246,2.21289,1.22559,3.25098.22021,1.05176.33936,2.12354.14404,3.07861-.14697.99316-.44824,1.99219-1.10059,2.89209-.5752.95605-1.34229,1.7998-2.30908,2.49512-.97998.68945-1.98242,1.32471-3.17578,1.7417-2.34521.84912-5.10791,1.04639-7.6709.01855-1.28174-.51562-2.39062-1.30029-3.29199-2.30713-.90234-1.00635-1.6167-2.22852-1.95264-3.60889-.18359-.68848-.30371-1.41211-.35791-2.15674s-.06006-1.5083.09668-2.2832c.13477-.77344.33887-1.55127.61279-2.31543.2627-.76465.61328-1.51318,1.10693-2.22168Z" fill="#abadd3"/><path d="M19.48298,442.05671c1.81299-2.87646,4.66504-4.46729,7.27539-4.66504,2.71729-.17871,5.19434.96631,7.12158,2.93896.9707.98682,1.70459,2.05908,2.27588,3.14209.60498,1.1084,1.02246,2.21289,1.22559,3.25098.22021,1.05176.33936,2.12354.14404,3.07861-.14697.99316-.44824,1.99219-1.10059,2.89209-.5752.95605-1.34229,1.7998-2.30908,2.49512-.97998.68945-1.98242,1.32471-3.17578,1.7417-2.34521.84912-5.10791,1.04639-7.6709.01855-1.28174-.51562-2.39062-1.30029-3.29199-2.30713-.90234-1.00635-1.6167-2.22852-1.95264-3.60889-.18359-.68848-.30371-1.41211-.35791-2.15674s-.06006-1.5083.09668-2.2832c.13477-.77344.33887-1.55127.61279-2.31543.2627-.76465.61328-1.51318,1.10693-2.22168Z" fill="none" stroke="#2e3191" stroke-linecap="round" stroke-miterlimit="10" stroke-width="2.55"/><path d="M35.55379,434.51911c3.50488-3.87012,7.73584-6.99512,12.11621-9.80225,2.18311-1.42285,4.41113-2.7749,6.62061-4.15576,2.17139-1.43945,4.37012-2.84131,6.42578-4.4458" fill="none" stroke="#2e3191" stroke-linecap="round" stroke-miterlimit="10" stroke-width="4.25"/><path d="M44.42,415.19831c2.68701-.9624,5.39551-.66211,7.63867.46045,2.22266,1.12939,4.18555,3.05908,5.14014,5.66357,1.8877,5.33301-1.21387,11.03613-5.8623,12.67773-1.17432.42383-2.40869.57373-3.58398.51807-1.20361-.06299-2.42773-.34912-3.56592-.79834-2.30322-.9209-4.51807-2.5874-5.76611-5.05225-1.25635-2.45605-1.22363-5.3667-.0498-7.88379.58301-1.30176,1.41016-2.3877,2.45312-3.38916,1.02197-.94385,2.25439-1.71533,3.59619-2.19629Z" fill="#abadd3"/><path d="M44.42,415.19831c2.68701-.9624,5.39551-.66211,7.63867.46045,2.22266,1.12939,4.18555,3.05908,5.14014,5.66357,1.8877,5.33301-1.21387,11.03613-5.8623,12.67773-1.17432.42383-2.40869.57373-3.58398.51807-1.20361-.06299-2.42773-.34912-3.56592-.79834-2.30322-.9209-4.51807-2.5874-5.76611-5.05225-1.25635-2.45605-1.22363-5.3667-.0498-7.88379.58301-1.30176,1.41016-2.3877,2.45312-3.38916,1.02197-.94385,2.25439-1.71533,3.59619-2.19629Z" fill="none" stroke="#2e3191" stroke-linecap="round" stroke-miterlimit="10" stroke-width="2.55"/><path d="M60.71638,416.1153c4.15576-3.13916,8.06738-6.61377,11.5957-10.45166,3.51709-3.8457,6.68799-8.00488,9.47119-12.40918" fill="none" stroke="#2e3191" stroke-linecap="round" stroke-miterlimit="10" stroke-width="4.25"/><path d="M66.48347,397.49714c2.06201-1.35254,4.49805-1.91846,7.03809-1.6123,2.52588.31006,4.99365,1.38135,6.82861,3.49561,1.83984,2.1123,2.4873,4.79297,2.08447,7.54102-.2002,1.36963-.75684,2.67041-1.51221,3.90625-.74463,1.24561-1.81494,2.31396-3.08203,3.17432-1.25635.87158-2.60498,1.43213-3.98926,1.64648-1.36816.23242-2.71582.17725-3.96777-.14307-2.51758-.64795-4.67676-2.41211-5.96924-4.82812-1.27393-2.40234-1.63428-5.12451-1.14404-7.41992.2666-1.1333.63623-2.28223,1.26904-3.24023.31055-.48486.67725-.93311,1.09473-1.34473.39404-.43359.84277-.82666,1.34961-1.17529Z" fill="#abadd3"/><path d="M66.48347,397.49714c2.06201-1.35254,4.49805-1.91846,7.03809-1.6123,2.52588.31006,4.99365,1.38135,6.82861,3.49561,1.83984,2.1123,2.4873,4.79297,2.08447,7.54102-.2002,1.36963-.75684,2.67041-1.51221,3.90625-.74463,1.24561-1.81494,2.31396-3.08203,3.17432-1.25635.87158-2.60498,1.43213-3.98926,1.64648-1.36816.23242-2.71582.17725-3.96777-.14307-2.51758-.64795-4.67676-2.41211-5.96924-4.82812-1.27393-2.40234-1.63428-5.12451-1.14404-7.41992.2666-1.1333.63623-2.28223,1.26904-3.24023.31055-.48486.67725-.93311,1.09473-1.34473.39404-.43359.84277-.82666,1.34961-1.17529Z" fill="none" stroke="#2e3191" stroke-linecap="round" stroke-miterlimit="10" stroke-width="2.55"/><path d="M81.78328,393.25446c2.77881-4.40625,5.19629-9.04492,7.17969-13.86475,1.98096-4.82031,3.57764-9.79541,4.81543-14.85596" fill="none" stroke="#2e3191" stroke-linecap="round" stroke-miterlimit="10" stroke-width="4.25"/><path d="M80.69685,373.70368c1.48389-2.01367,3.61279-3.39795,6.11035-3.9624,2.47852-.56201,5.17578-.34961,7.59766,1.03906,2.43506,1.3877,3.94238,3.68848,4.49219,6.37646.48242,2.65576-.05371,5.67822-1.85303,8.13525-.43896.6167-.92236,1.17236-1.43945,1.6626-.53809.48145-1.11768.89404-1.7124,1.24072-1.19336.69238-2.46973,1.11133-3.75195,1.25098-2.61035.26318-5.22559-.60596-7.2998-2.4165-2.05078-1.80176-3.31006-4.20947-3.67041-6.55811-.1543-1.16455-.1792-2.37451.07861-3.51074.12598-.57031.31445-1.12646.56836-1.66406.22705-.55078.51904-1.0835.87988-1.59326Z" fill="#abadd3"/><path d="M80.69685,373.70368c1.48389-2.01367,3.61279-3.39795,6.11035-3.9624,2.47852-.56201,5.17578-.34961,7.59766,1.03906,2.43506,1.3877,3.94238,3.68848,4.49219,6.37646.48242,2.65576-.05371,5.67822-1.85303,8.13525-.43896.6167-.92236,1.17236-1.43945,1.6626-.53809.48145-1.11768.89404-1.7124,1.24072-1.19336.69238-2.46973,1.11133-3.75195,1.25098-2.61035.26318-5.22559-.60596-7.2998-2.4165-2.05078-1.80176-3.31006-4.20947-3.67041-6.55811-.1543-1.16455-.1792-2.37451.07861-3.51074.12598-.57031.31445-1.12646.56836-1.66406.22705-.55078.51904-1.0835.87988-1.59326Z" fill="none" stroke="#2e3191" stroke-linecap="round" stroke-miterlimit="10" stroke-width="2.55"/><path d="M93.77839,364.53376c2.50098-10.12402,3.48145-20.58789,3.31445-31.00195" fill="none" stroke="#2e3191" stroke-linecap="round" stroke-miterlimit="10" stroke-width="4.25"/><path d="M86.91218,345.99567c.85254-2.40918,2.55664-4.35693,4.79492-5.5835,2.24365-1.21924,4.91113-1.71777,7.60938-1.02148,2.68604.69287,4.78662,2.48877,6.04248,4.8833,1.18945,2.38525,1.52148,5.36475.52393,8.17871-.23975.70264-.53955,1.36133-.89062,1.96875-.37305.60645-.79785,1.16113-1.26172,1.65918-.9292.99707-2.02002,1.7666-3.20117,2.2793-2.40039,1.0249-5.15576,1.00732-7.68457-.08545-2.50977-1.0918-4.42871-3.02441-5.46582-5.2041-.49707-1.08838-.85742-2.2627-.93945-3.4541-.07422-1.19043.08105-2.40771.47266-3.62061Z" fill="#abadd3"/><path d="M86.91218,345.99567c.85254-2.40918,2.55664-4.35693,4.79492-5.5835,2.24365-1.21924,4.91113-1.71777,7.60938-1.02148,2.68604.69287,4.78662,2.48877,6.04248,4.8833,1.18945,2.38525,1.52148,5.36475.52393,8.17871-.23975.70264-.53955,1.36133-.89062,1.96875-.37305.60645-.79785,1.16113-1.26172,1.65918-.9292.99707-2.02002,1.7666-3.20117,2.2793-2.40039,1.0249-5.15576,1.00732-7.68457-.08545-2.50977-1.0918-4.42871-3.02441-5.46582-5.2041-.49707-1.08838-.85742-2.2627-.93945-3.4541-.07422-1.19043.08105-2.40771.47266-3.62061Z" fill="none" stroke="#2e3191" stroke-linecap="round" stroke-miterlimit="10" stroke-width="2.55"/><path d="M97.09285,333.5318c-.13818-10.42578-1.56494-20.81055-3.89795-30.96289" fill="none" stroke="#2e3191" stroke-linecap="round" stroke-miterlimit="10" stroke-width="4.25"/><path d="M85.98396,317.03034c.11572-1.28662.50635-2.50342,1.1084-3.61377.5708-1.10547,1.35986-2.10596,2.30957-2.94922,1.90039-1.68408,4.44189-2.75195,7.20264-2.65381,2.75342.09717,5.24072,1.37207,6.96582,3.4126.84521,1.021,1.50879,2.22705,1.93701,3.54346.42041,1.31689.5498,2.75391.42041,4.21191-.29004,2.92432-1.7666,5.38428-3.82471,6.93359-2.08887,1.56055-4.74951,2.21973-7.47607,1.77295-1.36328-.22266-2.61426-.6958-3.70703-1.34766-1.11133-.65137-2.08203-1.48096-2.84863-2.43457-.76123-.95459-1.33643-2.03223-1.71875-3.18896-.38184-1.15674-.46436-2.40234-.36865-3.68652Z" fill="#abadd3"/><path d="M85.98396,317.03034c.11572-1.28662.50635-2.50342,1.1084-3.61377.5708-1.10547,1.35986-2.10596,2.30957-2.94922,1.90039-1.68408,4.44189-2.75195,7.20264-2.65381,2.75342.09717,5.24072,1.37207,6.96582,3.4126.84521,1.021,1.50879,2.22705,1.93701,3.54346.42041,1.31689.5498,2.75391.42041,4.21191-.29004,2.92432-1.7666,5.38428-3.82471,6.93359-2.08887,1.56055-4.74951,2.21973-7.47607,1.77295-1.36328-.22266-2.61426-.6958-3.70703-1.34766-1.11133-.65137-2.08203-1.48096-2.84863-2.43457-.76123-.95459-1.33643-2.03223-1.71875-3.18896-.38184-1.15674-.46436-2.40234-.36865-3.68652Z" fill="none" stroke="#2e3191" stroke-linecap="round" stroke-miterlimit="10" stroke-width="2.55"/><path d="M93.1949,302.56891c-1.16162-5.08252-2.68457-10.07178-4.30127-15.02441-.82959-2.46973-1.55957-4.97363-2.47168-7.41504-.9082-2.44189-1.77539-4.8999-2.71826-7.32861" fill="none" stroke="#2e3191" stroke-linecap="round" stroke-miterlimit="10" stroke-width="4.25"/><path d="M78.90339,288.41462c-.10889-1.33496.06396-2.64014.46777-3.86328.39502-1.21777.98145-2.33301,1.78076-3.32568,1.58838-1.97705,3.9292-3.41455,6.6792-3.75342,2.7334-.3374,5.4292.5,7.42188,2.17725,1.97852,1.67383,3.34961,4.16016,3.61914,6.98877.23926,2.86084-.64941,5.48389-2.3833,7.45215-1.7124,1.95068-4.17383,3.14941-6.93848,3.27783-5.50098.22656-10.17188-3.62109-10.64697-8.95361Z" fill="#abadd3"/><path d="M78.90339,288.41462c-.10889-1.33496.06396-2.64014.46777-3.86328.39502-1.21777.98145-2.33301,1.78076-3.32568,1.58838-1.97705,3.9292-3.41455,6.6792-3.75342,2.7334-.3374,5.4292.5,7.42188,2.17725,1.97852,1.67383,3.34961,4.16016,3.61914,6.98877.23926,2.86084-.64941,5.48389-2.3833,7.45215-1.7124,1.95068-4.17383,3.14941-6.93848,3.27783-5.50098.22656-10.17188-3.62109-10.64697-8.95361Z" fill="none" stroke="#2e3191" stroke-linecap="round" stroke-miterlimit="10" stroke-width="2.55"/><path d="M83.70369,272.80085c-3.77002-9.71924-8.18848-19.17383-12.87646-28.479" fill="none" stroke="#2e3191" stroke-linecap="round" stroke-miterlimit="10" stroke-width="4.25"/><path d="M67.76863,260.3985c-1.09375-5.23145,2.28711-10.60254,7.6626-11.86914,2.70361-.63232,5.38135-.06787,7.56494,1.35449,2.17871,1.42139,3.86572,3.69434,4.39844,6.50244.5498,2.79688-.03662,5.49609-1.51562,7.62158-1.47998,2.12939-3.77246,3.6416-6.49365,4.11035-2.71582.46533-5.33984-.17871-7.45898-1.55566-2.11865-1.38232-3.59424-3.54053-4.15771-6.16406Z" fill="#abadd3"/><path d="M67.76863,260.3985c-1.09375-5.23145,2.28711-10.60254,7.6626-11.86914,2.70361-.63232,5.38135-.06787,7.56494,1.35449,2.17871,1.42139,3.86572,3.69434,4.39844,6.50244.5498,2.79688-.03662,5.49609-1.51562,7.62158-1.47998,2.12939-3.77246,3.6416-6.49365,4.11035-2.71582.46533-5.33984-.17871-7.45898-1.55566-2.11865-1.38232-3.59424-3.54053-4.15771-6.16406Z" fill="none" stroke="#2e3191" stroke-linecap="round" stroke-miterlimit="10" stroke-width="2.55"/><path d="M70.82722,244.32184c-4.69873-9.30371-9.70898-18.4458-14.79492-27.54248" fill="none" stroke="#2e3191" stroke-linecap="round" stroke-miterlimit="10" stroke-width="4.25"/><path d="M53.88923,233.09674c-1.45264-5.25342,1.60107-10.79346,6.92285-12.33398,5.31396-1.54297,10.89844,1.56885,12.39014,6.979,1.50439,5.40479-1.74023,10.91406-7.0918,12.28906-2.67822.69922-5.37598.26807-7.56592-.98389-2.20459-1.25-3.94189-3.31885-4.65527-5.9502Z" fill="#abadd3"/><path d="M53.88923,233.09674c-1.45264-5.25342,1.60107-10.79346,6.92285-12.33398,5.31396-1.54297,10.89844,1.56885,12.39014,6.979,1.50439,5.40479-1.74023,10.91406-7.0918,12.28906-2.67822.69922-5.37598.26807-7.56592-.98389-2.20459-1.25-3.94189-3.31885-4.65527-5.9502Z" fill="none" stroke="#2e3191" stroke-linecap="round" stroke-miterlimit="10" stroke-width="2.55"/><path d="M56.0323,216.77936c-5.08545-9.09766-10.25098-18.1499-15.26074-27.29004" fill="none" stroke="#2e3191" stroke-linecap="round" stroke-miterlimit="10" stroke-width="4.25"/><path d="M38.71541,205.89997c-1.57324-5.31592,1.50439-10.89111,6.82129-12.41992,5.30566-1.53418,10.85156,1.46436,12.39941,6.74658,1.5625,5.29492-1.47314,10.86035-6.78076,12.43164-5.30811,1.56348-10.87354-1.42822-12.43994-6.7583Z" fill="#abadd3"/><path d="M38.71541,205.89997c-1.57324-5.31592,1.50439-10.89111,6.82129-12.41992,5.30566-1.53418,10.85156,1.46436,12.39941,6.74658,1.5625,5.29492-1.47314,10.86035-6.78076,12.43164-5.30811,1.56348-10.87354-1.42822-12.43994-6.7583Z" fill="none" stroke="#2e3191" stroke-linecap="round" stroke-miterlimit="10" stroke-width="2.55"/><path d="M40.77156,189.48932c-5.01953-9.13379-9.80029-18.39941-14.29883-27.80078" fill="none" stroke="#2e3191" stroke-linecap="round" stroke-miterlimit="10" stroke-width="4.25"/><path d="M23.65681,178.06794c-1.3584-5.47998,1.95508-10.87549,7.35107-12.14795,2.69531-.64209,5.38867-.15625,7.55908,1.13721,2.15967,1.30029,3.82275,3.39893,4.51221,6.01758,1.32129,5.24658-1.78027,10.73584-7.125,12.21094-5.34766,1.49414-10.87891-1.77148-12.29736-7.21777Z" fill="#abadd3"/><path d="M23.65681,178.06794c-1.3584-5.47998,1.95508-10.87549,7.35107-12.14795,2.69531-.64209,5.38867-.15625,7.55908,1.13721,2.15967,1.30029,3.82275,3.39893,4.51221,6.01758,1.32129,5.24658-1.78027,10.73584-7.125,12.21094-5.34766,1.49414-10.87891-1.77148-12.29736-7.21777Z" fill="none" stroke="#2e3191" stroke-linecap="round" stroke-miterlimit="10" stroke-width="2.55"/><path d="M26.47273,161.68854c-4.44385-9.42334-8.34814-19.12256-11.26221-29.13281" fill="none" stroke="#2e3191" stroke-linecap="round" stroke-miterlimit="10" stroke-width="4.25"/><path d="M10.29207,148.61921c-.42383-2.86523.39355-5.59277,1.99463-7.60791,1.6084-2.02588,4.02344-3.35498,6.76953-3.61768,2.73633-.25928,5.34863.54297,7.30469,2.02979,1.98682,1.48535,3.37451,3.65283,3.75244,6.26172.39453,2.60303-.31104,5.18066-1.76221,7.26709-1.46582,2.08545-3.70361,3.68115-6.41992,4.20508-2.70801.521-5.40723-.14014-7.53467-1.69189-2.12695-1.5459-3.68604-3.97998-4.10449-6.84619Z" fill="#abadd3"/><path d="M10.29207,148.61921c-.42383-2.86523.39355-5.59277,1.99463-7.60791,1.6084-2.02588,4.02344-3.35498,6.76953-3.61768,2.73633-.25928,5.34863.54297,7.30469,2.02979,1.98682,1.48535,3.37451,3.65283,3.75244,6.26172.39453,2.60303-.31104,5.18066-1.76221,7.26709-1.46582,2.08545-3.70361,3.68115-6.41992,4.20508-2.70801.521-5.40723-.14014-7.53467-1.69189-2.12695-1.5459-3.68604-3.97998-4.10449-6.84619Z" fill="none" stroke="#2e3191" stroke-linecap="round" stroke-miterlimit="10" stroke-width="2.55"/><path d="M15.21052,132.55573c-2.91162-9.99805-4.81934-20.34082-4.99707-30.77148" fill="none" stroke="#2e3191" stroke-linecap="round" stroke-miterlimit="10" stroke-width="4.25"/><path d="M1.67048,116.46149c.06982-1.48291.49756-2.87793,1.11768-4.08594.61328-1.20752,1.47803-2.24365,2.50732-3.05322,2.04395-1.62207,4.68848-2.31494,7.42871-1.91797,2.75244.40039,5.02051,1.7583,6.63623,3.57471.78223.91162,1.39795,1.94482,1.81104,3.06689.38525,1.12207.57471,2.33252.50488,3.60645-.0957,1.27393-.40771,2.49121-.94434,3.61719-.54297,1.12549-1.2959,2.15918-2.18994,3.04346-1.80664,1.7666-4.2876,2.96094-7.05469,3-2.76318.03955-5.32422-1.11133-7.12256-3.09814-.92041-.9834-1.63135-2.17627-2.09668-3.49756-.48779-1.31299-.68945-2.7666-.59766-4.25586Z" fill="#abadd3"/><path d="M1.67048,116.46149c.06982-1.48291.49756-2.87793,1.11768-4.08594.61328-1.20752,1.47803-2.24365,2.50732-3.05322,2.04395-1.62207,4.68848-2.31494,7.42871-1.91797,2.75244.40039,5.02051,1.7583,6.63623,3.57471.78223.91162,1.39795,1.94482,1.81104,3.06689.38525,1.12207.57471,2.33252.50488,3.60645-.0957,1.27393-.40771,2.49121-.94434,3.61719-.54297,1.12549-1.2959,2.15918-2.18994,3.04346-1.80664,1.7666-4.2876,2.96094-7.05469,3-2.76318.03955-5.32422-1.11133-7.12256-3.09814-.92041-.9834-1.63135-2.17627-2.09668-3.49756-.48779-1.31299-.68945-2.7666-.59766-4.25586Z" fill="none" stroke="#2e3191" stroke-linecap="round" stroke-miterlimit="10" stroke-width="2.55"/><path d="M10.21345,101.78424c-.2002-10.41162,1.3999-20.90186,5.13037-30.64551" fill="none" stroke="#2e3191" stroke-linecap="round" stroke-miterlimit="10" stroke-width="4.25"/><path d="M2.11824,82.06354c1.16797-2.86279,3.43457-4.82178,5.87695-5.63867,2.51123-.81445,5.2373-.49707,7.64502.84668,2.38281,1.34082,4.11279,3.41162,4.97168,5.58594.43506,1.09326.71436,2.24023.70117,3.37402.01025,1.14014-.16211,2.29688-.66553,3.41992-.44629,1.13525-1.12549,2.14551-1.99561,3.01855-.83301.87891-1.8374,1.62207-2.96875,2.19092-2.27148,1.13184-4.9502,1.59229-7.6333.83643-2.65283-.75049-4.75195-2.63623-5.88232-5.15186-1.1167-2.50244-1.24365-5.62842-.04932-8.48193Z" fill="#abadd3"/><path d="M2.11824,82.06354c1.16797-2.86279,3.43457-4.82178,5.87695-5.63867,2.51123-.81445,5.2373-.49707,7.64502.84668,2.38281,1.34082,4.11279,3.41162,4.97168,5.58594.43506,1.09326.71436,2.24023.70117,3.37402.01025,1.14014-.16211,2.29688-.66553,3.41992-.44629,1.13525-1.12549,2.14551-1.99561,3.01855-.83301.87891-1.8374,1.62207-2.96875,2.19092-2.27148,1.13184-4.9502,1.59229-7.6333.83643-2.65283-.75049-4.75195-2.63623-5.88232-5.15186-1.1167-2.50244-1.24365-5.62842-.04932-8.48193Z" fill="none" stroke="#2e3191" stroke-linecap="round" stroke-miterlimit="10" stroke-width="2.55"/><path d="M15.34382,71.13874c1.85352-4.87109,4.21777-9.54541,7.01562-13.94189l2.17578-3.24707c.77002-1.0498,1.58643-2.06641,2.37744-3.10107,1.60791-2.0498,3.12646-4.17383,4.93311-6.05762" fill="none" stroke="#2e3191" stroke-linecap="round" stroke-miterlimit="10" stroke-width="4.25"/><path d="M15.56453,49.78278c.55176-.53906,1.13135-1.01904,1.73926-1.40625.62207-.35596,1.26318-.64404,1.91406-.86426,1.30127-.43994,2.6377-.60449,3.93262-.50293,2.59229.20068,5.00732,1.47949,6.75342,3.63135,1.74414,2.15381,2.51953,4.73682,2.3916,7.12207-.10449,1.19238-.28076,2.35303-.71533,3.40332-.45459,1.03711-1.07666,2.02197-1.94434,2.87988-.89697.84131-1.89795,1.50537-3.0083,1.979-1.11279.47119-2.37109.73535-3.59863.83301-2.4873.17285-5.17578-.44678-7.3418-2.17236-1.08252-.86426-1.92871-1.93213-2.51953-3.14355-.58691-1.2085-.86084-2.52832-.89502-3.91699-.04736-1.39648.24219-2.7998.79688-4.14307.27783-.67188.60547-1.33643,1.02246-1.95801.42969-.61475.92188-1.2002,1.47266-1.74121Z" fill="#abadd3"/><path d="M15.56453,49.78278c.55176-.53906,1.13135-1.01904,1.73926-1.40625.62207-.35596,1.26318-.64404,1.91406-.86426,1.30127-.43994,2.6377-.60449,3.93262-.50293,2.59229.20068,5.00732,1.47949,6.75342,3.63135,1.74414,2.15381,2.51953,4.73682,2.3916,7.12207-.10449,1.19238-.28076,2.35303-.71533,3.40332-.45459,1.03711-1.07666,2.02197-1.94434,2.87988-.89697.84131-1.89795,1.50537-3.0083,1.979-1.11279.47119-2.37109.73535-3.59863.83301-2.4873.17285-5.17578-.44678-7.3418-2.17236-1.08252-.86426-1.92871-1.93213-2.51953-3.14355-.58691-1.2085-.86084-2.52832-.89502-3.91699-.04736-1.39648.24219-2.7998.79688-4.14307.27783-.67188.60547-1.33643,1.02246-1.95801.42969-.61475.92188-1.2002,1.47266-1.74121Z" fill="none" stroke="#2e3191" stroke-linecap="round" stroke-miterlimit="10" stroke-width="2.55"/><path d="M31.84578,44.79108c6.8335-7.85645,14.77637-14.79053,23.6792-20.22119" fill="none" stroke="#2e3191" stroke-linecap="round" stroke-miterlimit="10" stroke-width="4.25"/><path d="M38.5323,24.73981c1.3418-.69141,2.72949-1.08398,4.07471-1.19141,1.32227-.13672,2.72607.16357,3.93359.62109,2.45312.95264,4.39258,2.89014,5.43457,5.44482.52246,1.27686.77734,2.5835.80615,3.84033.01416.62891-.02832,1.24561-.125,1.84131-.09326.60059-.20654,1.23047-.38721,1.80811-.69482,2.35938-2.24463,4.19678-4.47754,5.34668-2.16943,1.22607-4.76514,1.41162-7.24512.77295-2.48438-.65771-4.7998-2.10547-6.30176-4.4375-1.48389-2.31006-1.78564-5.05615-1.02393-7.66504.37793-1.30225,1.01758-2.56445,1.88184-3.69531.91064-1.08447,2.09424-1.98926,3.42969-2.68604Z" fill="#abadd3"/><path d="M38.5323,24.73981c1.3418-.69141,2.72949-1.08398,4.07471-1.19141,1.32227-.13672,2.72607.16357,3.93359.62109,2.45312.95264,4.39258,2.89014,5.43457,5.44482.52246,1.27686.77734,2.5835.80615,3.84033.01416.62891-.02832,1.24561-.125,1.84131-.09326.60059-.20654,1.23047-.38721,1.80811-.69482,2.35938-2.24463,4.19678-4.47754,5.34668-2.16943,1.22607-4.76514,1.41162-7.24512.77295-2.48438-.65771-4.7998-2.10547-6.30176-4.4375-1.48389-2.31006-1.78564-5.05615-1.02393-7.66504.37793-1.30225,1.01758-2.56445,1.88184-3.69531.91064-1.08447,2.09424-1.98926,3.42969-2.68604Z" fill="none" stroke="#2e3191" stroke-linecap="round" stroke-miterlimit="10" stroke-width="2.55"/><path d="M55.52498,24.56989c8.88818-5.44141,18.7207-9.34082,28.93262-11.42871" fill="none" stroke="#2e3191" stroke-linecap="round" stroke-miterlimit="10" stroke-width="4.25"/><path d="M68.32429,7.63971c3.02881-.42773,5.78369.30713,7.79297,2.09961,2,1.71826,3.17578,4.19434,3.30273,6.9502.06494,1.37744-.13086,2.69287-.52051,3.88525-.19531.59619-.43945,1.16162-.72656,1.68945-.28027.55176-.59424,1.09424-.9502,1.58154-.71094.98096-1.57178,1.79443-2.56396,2.38867-.98486.61426-2.1416.90918-3.33154,1.17871-2.41211.43604-4.91357-.24365-7.06689-1.64795-2.1167-1.35596-3.85791-3.41895-4.5708-6.12793-.73486-2.74219-.12891-5.40869,1.45703-7.63965.79004-1.1123,1.8208-2.10547,3.0249-2.90137.59229-.41943,1.26514-.70117,1.96484-.9375s1.43311-.4126,2.18799-.51904Z" fill="#abadd3"/><path d="M68.32429,7.63971c3.02881-.42773,5.78369.30713,7.79297,2.09961,2,1.71826,3.17578,4.19434,3.30273,6.9502.06494,1.37744-.13086,2.69287-.52051,3.88525-.19531.59619-.43945,1.16162-.72656,1.68945-.28027.55176-.59424,1.09424-.9502,1.58154-.71094.98096-1.57178,1.79443-2.56396,2.38867-.98486.61426-2.1416.90918-3.33154,1.17871-2.41211.43604-4.91357-.24365-7.06689-1.64795-2.1167-1.35596-3.85791-3.41895-4.5708-6.12793-.73486-2.74219-.12891-5.40869,1.45703-7.63965.79004-1.1123,1.8208-2.10547,3.0249-2.90137.59229-.41943,1.26514-.70117,1.96484-.9375s1.43311-.4126,2.18799-.51904Z" fill="none" stroke="#2e3191" stroke-linecap="round" stroke-miterlimit="10" stroke-width="2.55"/><path d="M84.45759,13.14118c10.21191-2.10645,20.7627-2.41113,31.1084-1.17578" fill="none" stroke="#2e3191" stroke-linecap="round" stroke-miterlimit="10" stroke-width="4.25"/><path d="M102.1739,1.52057c2.97266.61621,5.31494,2.20215,6.61572,4.55029,1.31738,2.27783,1.63086,5.00342.854,7.64893-.38672,1.32324-1.00342,2.50195-1.76807,3.50049-.38232.50146-.80273.94824-1.25244,1.36328-.44971.44189-.92871.83789-1.43018,1.18164-1.00342.68799-2.09668,1.16797-3.24219,1.39795-1.14307.25781-2.35156.13916-3.56445-.00781-2.42969-.3999-4.56201-1.87988-6.11523-3.92676-1.53662-2.02051-2.47168-4.52881-2.22559-7.32715.23926-2.83301,1.71289-5.1084,3.94873-6.68799,1.11523-.78174,2.41553-1.36963,3.81152-1.71436,1.39551-.34326,2.88525-.25684,4.36816.02148Z" fill="#abadd3"/><path d="M102.1739,1.52057c2.97266.61621,5.31494,2.20215,6.61572,4.55029,1.31738,2.27783,1.63086,5.00342.854,7.64893-.38672,1.32324-1.00342,2.50195-1.76807,3.50049-.38232.50146-.80273.94824-1.25244,1.36328-.44971.44189-.92871.83789-1.43018,1.18164-1.00342.68799-2.09668,1.16797-3.24219,1.39795-1.14307.25781-2.35156.13916-3.56445-.00781-2.42969-.3999-4.56201-1.87988-6.11523-3.92676-1.53662-2.02051-2.47168-4.52881-2.22559-7.32715.23926-2.83301,1.71289-5.1084,3.94873-6.68799,1.11523-.78174,2.41553-1.36963,3.81152-1.71436,1.39551-.34326,2.88525-.25684,4.36816.02148Z" fill="none" stroke="#2e3191" stroke-linecap="round" stroke-miterlimit="10" stroke-width="2.55"/><path d="M115.56599,11.9654c10.36426,1.19678,20.4873,4.06592,30.14648,7.94043" fill="none" stroke="#2e3191" stroke-linecap="round" stroke-miterlimit="10" stroke-width="4.25"/><path d="M135.81941,6.17633c2.61621,1.45264,4.35449,3.72656,4.99951,6.20215.66113,2.45996.20264,5.22998-1.2627,7.54102-1.47314,2.32959-3.69629,3.96436-6.01904,4.66406-2.33643.71191-4.77295.43262-7.04248-.64551-2.25146-1.13623-3.86572-3.27979-4.74365-5.62744-.87109-2.33105-.97119-5.07227.11621-7.63281.54492-1.28027,1.34131-2.39258,2.33203-3.30518.98438-.88867,2.14404-1.5083,3.42334-1.91895,1.27637-.40332,2.66455-.56738,4.06982-.47119,1.40576.09277,2.83252.43066,4.12695,1.19385Z" fill="#abadd3"/><path d="M135.81941,6.17633c2.61621,1.45264,4.35449,3.72656,4.99951,6.20215.66113,2.45996.20264,5.22998-1.2627,7.54102-1.47314,2.32959-3.69629,3.96436-6.01904,4.66406-2.33643.71191-4.77295.43262-7.04248-.64551-2.25146-1.13623-3.86572-3.27979-4.74365-5.62744-.87109-2.33105-.97119-5.07227.11621-7.63281.54492-1.28027,1.34131-2.39258,2.33203-3.30518.98438-.88867,2.14404-1.5083,3.42334-1.91895,1.27637-.40332,2.66455-.56738,4.06982-.47119,1.40576.09277,2.83252.43066,4.12695,1.19385Z" fill="none" stroke="#2e3191" stroke-linecap="round" stroke-miterlimit="10" stroke-width="2.55"/><path d="M145.71248,19.90583c9.60449,4.00684,18.78369,9.22803,26.66113,16.07031" fill="none" stroke="#2e3191" stroke-linecap="round" stroke-miterlimit="10" stroke-width="4.25"/><path d="M166.86677,19.81891c1.11084,1.0083,1.89258,2.27783,2.41113,3.54785.51562,1.27734.74707,2.59814.70068,3.88428-.12695,2.63867-1.36572,5.08838-3.46143,6.87744-1.05322.90283-2.18848,1.53076-3.39307,1.98682-1.20459.45508-2.4375.68848-3.62842.69678-.5957.00439-1.18115-.04785-1.74951-.15869-.58496-.09033-1.16064-.23047-1.70996-.43408-1.11084-.39209-2.0874-1.08105-3.01221-1.92236-1.82568-1.70361-2.81738-4.1333-3.04932-6.61768-.20215-2.5127.43945-5.19434,2.16357-7.35645,1.71191-2.14014,4.2666-3.43018,6.96436-3.50537,1.34814-.04346,2.74219.17578,4.08398.65137,1.32666.5083,2.58008,1.3208,3.68018,2.3501Z" fill="#abadd3"/><path d="M166.86677,19.81891c1.11084,1.0083,1.89258,2.27783,2.41113,3.54785.51562,1.27734.74707,2.59814.70068,3.88428-.12695,2.63867-1.36572,5.08838-3.46143,6.87744-1.05322.90283-2.18848,1.53076-3.39307,1.98682-1.20459.45508-2.4375.68848-3.62842.69678-.5957.00439-1.18115-.04785-1.74951-.15869-.58496-.09033-1.16064-.23047-1.70996-.43408-1.11084-.39209-2.0874-1.08105-3.01221-1.92236-1.82568-1.70361-2.81738-4.1333-3.04932-6.61768-.20215-2.5127.43945-5.19434,2.16357-7.35645,1.71191-2.14014,4.2666-3.43018,6.96436-3.50537,1.34814-.04346,2.74219.17578,4.08398.65137,1.32666.5083,2.58008,1.3208,3.68018,2.3501Z" fill="none" stroke="#2e3191" stroke-linecap="round" stroke-miterlimit="10" stroke-width="2.55"/><path d="M172.37361,35.97614c2.00879,1.66309,3.83105,3.53027,5.67139,5.37305l2.5957,2.92188c.86768.97217,1.61133,2.04688,2.42285,3.06543,3.10547,4.17725,5.78809,8.68701,7.79834,13.5" fill="none" stroke="#2e3191" stroke-linecap="round" stroke-miterlimit="10" stroke-width="4.25"/><path d="M192.44929,43.61872c.60547,1.4668.89941,2.9458.90039,4.33643-.01221,1.40186-.396,2.76904-.97314,3.93652-1.1748,2.3584-3.32764,4.02637-5.99854,4.77344-1.33496.37549-2.66846.49561-3.91992.41602-1.26611-.07324-2.3833-.38135-3.51172-.78467-1.09863-.4209-2.06055-1.01562-2.83691-1.7915-.82373-.74805-1.52441-1.6416-1.97461-2.75195-.42334-1.12939-.76318-2.23926-.79346-3.45654-.05664-1.19727.13818-2.46924.47266-3.66553.67188-2.38477,2.16211-4.69922,4.52588-6.15625,1.18262-.72656,2.48145-1.1665,3.82617-1.31348,1.31299-.11328,2.66943.07227,3.9873.53076.65869.229,1.30713.52539,1.93311.88477.62305.36182,1.17725.83398,1.7207,1.33789,1.05566,1.03516,2.04736,2.229,2.64209,3.7041Z" fill="#abadd3"/><path d="M192.44929,43.61872c.60547,1.4668.89941,2.9458.90039,4.33643-.01221,1.40186-.396,2.76904-.97314,3.93652-1.1748,2.3584-3.32764,4.02637-5.99854,4.77344-1.33496.37549-2.66846.49561-3.91992.41602-1.26611-.07324-2.3833-.38135-3.51172-.78467-1.09863-.4209-2.06055-1.01562-2.83691-1.7915-.82373-.74805-1.52441-1.6416-1.97461-2.75195-.42334-1.12939-.76318-2.23926-.79346-3.45654-.05664-1.19727.13818-2.46924.47266-3.66553.67188-2.38477,2.16211-4.69922,4.52588-6.15625,1.18262-.72656,2.48145-1.1665,3.82617-1.31348,1.31299-.11328,2.66943.07227,3.9873.53076.65869.229,1.30713.52539,1.93311.88477.62305.36182,1.17725.83398,1.7207,1.33789,1.05566,1.03516,2.04736,2.229,2.64209,3.7041Z" fill="none" stroke="#2e3191" stroke-linecap="round" stroke-miterlimit="10" stroke-width="2.55"/><path d="M190.86189,60.83649c.92041,2.43408,1.89404,4.85986,2.50488,7.39648.3457,1.25635.71582,2.50635.92969,3.79395.28223,1.27295.45361,2.56445.61963,3.85693.65088,5.17432.64111,10.40674.40918,15.60889" fill="none" stroke="#2e3191" stroke-linecap="round" stroke-miterlimit="10" stroke-width="4.25"/><path d="M204.88777,77.34137c-.09033.77637-.24951,1.51807-.4707,2.21484-.24512.68506-.55371,1.3252-.91162,1.91602-.71533,1.18262-1.62939,2.16016-2.72607,2.88184-2.16846,1.45752-4.86035,1.94727-7.55957,1.34131-2.69824-.60693-4.87842-2.16113-6.34082-4.0332-1.43115-1.90527-2.18896-4.06152-1.89307-6.33936.09082-1.1123.49414-2.16357,1.01709-3.21924.49512-1.05615,1.21191-2.06055,2.09326-2.95654,1.76562-1.78369,4.17871-3.15869,6.92627-3.33838,2.74023-.18066,5.34668.9375,7.29834,3.04248,1.86816,2.20068,2.95752,5.39453,2.56689,8.49023Z" fill="#abadd3"/><path d="M204.88777,77.34137c-.09033.77637-.24951,1.51807-.4707,2.21484-.24512.68506-.55371,1.3252-.91162,1.91602-.71533,1.18262-1.62939,2.16016-2.72607,2.88184-2.16846,1.45752-4.86035,1.94727-7.55957,1.34131-2.69824-.60693-4.87842-2.16113-6.34082-4.0332-1.43115-1.90527-2.18896-4.06152-1.89307-6.33936.09082-1.1123.49414-2.16357,1.01709-3.21924.49512-1.05615,1.21191-2.06055,2.09326-2.95654,1.76562-1.78369,4.17871-3.15869,6.92627-3.33838,2.74023-.18066,5.34668.9375,7.29834,3.04248,1.86816,2.20068,2.95752,5.39453,2.56689,8.49023Z" fill="none" stroke="#2e3191" stroke-linecap="round" stroke-miterlimit="10" stroke-width="2.55"/><path d="M195.32527,91.49274c-.49023,10.41602-1.91992,20.75342-3.07861,31.1084" fill="none" stroke="#2e3191" stroke-linecap="round" stroke-miterlimit="10" stroke-width="4.25"/><path d="M203.48787,110.47565c-1.84717,5.2749-7.58643,7.94531-12.79883,6.10156-5.21924-1.85986-7.91748-7.5752-6.14453-12.64551.8916-2.54688,2.71533-4.49121,5-5.64062,2.27686-1.14062,4.99072-1.48193,7.63867-.65381,5.2998,1.63037,8.16406,7.55078,6.30469,12.83838Z" fill="#abadd3"/><path d="M203.48787,110.47565c-1.84717,5.2749-7.58643,7.94531-12.79883,6.10156-5.21924-1.85986-7.91748-7.5752-6.14453-12.64551.8916-2.54688,2.71533-4.49121,5-5.64062,2.27686-1.14062,4.99072-1.48193,7.63867-.65381,5.2998,1.63037,8.16406,7.55078,6.30469,12.83838Z" fill="none" stroke="#2e3191" stroke-linecap="round" stroke-miterlimit="10" stroke-width="2.55"/><path d="M192.24666,122.60114c-1.1333,10.35986-2.15576,20.73486-2.80859,31.1377" fill="none" stroke="#2e3191" stroke-linecap="round" stroke-miterlimit="10" stroke-width="4.25"/><path d="M200.18318,141.32721c-1.69434,5.146-7.28271,8.07959-12.57666,6.45752-5.29053-1.62109-8.22949-7.36182-6.47168-12.69092,1.75635-5.33301,7.46875-8.0752,12.7041-6.31592,5.23975,1.79541,8.03271,7.41113,6.34424,12.54932Z" fill="#abadd3"/><path d="M200.18318,141.32721c-1.69434,5.146-7.28271,8.07959-12.57666,6.45752-5.29053-1.62109-8.22949-7.36182-6.47168-12.69092,1.75635-5.33301,7.46875-8.0752,12.7041-6.31592,5.23975,1.79541,8.03271,7.41113,6.34424,12.54932Z" fill="none" stroke="#2e3191" stroke-linecap="round" stroke-miterlimit="10" stroke-width="2.55"/><path d="M189.43806,153.73883c-.33154,5.20068-.57715,10.40674-.71729,15.61621-.10449,5.20996-.10303,10.42236-.00635,15.63232" fill="none" stroke="#2e3191" stroke-linecap="round" stroke-miterlimit="10" stroke-width="4.25"/><path d="M198.43611,171.83698c-1.2583,5.19189-6.65088,8.55615-12.04053,7.35938-2.69482-.60791-4.87939-2.2793-6.23193-4.50879-.67383-1.11523-1.15039-2.36035-1.35938-3.68506-.19482-1.3374-.14014-2.74414.21582-4.10352,1.41504-5.49463,6.99609-8.58789,12.3125-7.07422,5.32275,1.50342,8.43604,6.90674,7.10352,12.01221Z" fill="#abadd3"/><path d="M198.43611,171.83698c-1.2583,5.19189-6.65088,8.55615-12.04053,7.35938-2.69482-.60791-4.87939-2.2793-6.23193-4.50879-.67383-1.11523-1.15039-2.36035-1.35938-3.68506-.19482-1.3374-.14014-2.74414.21582-4.10352,1.41504-5.49463,6.99609-8.58789,12.3125-7.07422,5.32275,1.50342,8.43604,6.90674,7.10352,12.01221Z" fill="none" stroke="#2e3191" stroke-linecap="round" stroke-miterlimit="10" stroke-width="2.55"/><path d="M188.71443,184.98737c.19922,10.41846.82568,20.83789,2.16797,31.17432" fill="none" stroke="#2e3191" stroke-linecap="round" stroke-miterlimit="10" stroke-width="4.25"/><path d="M199.25496,202.19294c-.77588,5.21143-5.81641,9.08887-11.29395,8.44287-2.73877-.33643-5.07324-1.79639-6.63379-3.91016-1.58936-2.11182-2.2959-4.86328-1.84131-7.67529.42432-2.81641,1.99023-5.13525,4.12158-6.59814,2.12109-1.4668,4.79346-2.08105,7.51172-1.56494,2.72119.51709,4.96143,2.05225,6.40967,4.09229,1.49219,2.03418,2.18359,4.57324,1.72607,7.21338Z" fill="#abadd3"/><path d="M199.25496,202.19294c-.77588,5.21143-5.81641,9.08887-11.29395,8.44287-2.73877-.33643-5.07324-1.79639-6.63379-3.91016-1.58936-2.11182-2.2959-4.86328-1.84131-7.67529.42432-2.81641,1.99023-5.13525,4.12158-6.59814,2.12109-1.4668,4.79346-2.08105,7.51172-1.56494,2.72119.51709,4.96143,2.05225,6.40967,4.09229,1.49219,2.03418,2.18359,4.57324,1.72607,7.21338Z" fill="none" stroke="#2e3191" stroke-linecap="round" stroke-miterlimit="10" stroke-width="2.55"/><path d="M190.8824,216.16169c1.34375,10.33105,3.40625,20.5874,6.52393,30.53418" fill="none" stroke="#2e3191" stroke-linecap="round" stroke-miterlimit="10" stroke-width="4.25"/><path d="M203.47761,231.71491c-.03174,2.60156-1.09619,4.99072-2.88672,6.82812-1.78125,1.82666-4.24219,3.07715-6.99756,3.18115-2.75488.10645-5.29199-.98633-7.17334-2.87793-1.92969-1.88135-2.98926-4.57324-2.95215-7.47168.00049-2.89893,1.29932-5.43994,3.21924-7.16748,1.9209-1.73242,4.49951-2.65674,7.26123-2.4751,2.7627.18262,5.18164,1.40967,6.85254,3.21387,1.7373,1.78955,2.77832,4.13965,2.67676,6.76904Z" fill="#abadd3"/><path d="M203.47761,231.71491c-.03174,2.60156-1.09619,4.99072-2.88672,6.82812-1.78125,1.82666-4.24219,3.07715-6.99756,3.18115-2.75488.10645-5.29199-.98633-7.17334-2.87793-1.92969-1.88135-2.98926-4.57324-2.95215-7.47168.00049-2.89893,1.29932-5.43994,3.21924-7.16748,1.9209-1.73242,4.49951-2.65674,7.26123-2.4751,2.7627.18262,5.18164,1.40967,6.85254,3.21387,1.7373,1.78955,2.77832,4.13965,2.67676,6.76904Z" fill="none" stroke="#2e3191" stroke-linecap="round" stroke-miterlimit="10" stroke-width="2.55"/><path d="M197.40632,246.69587c3.11279,9.93945,7.30518,19.56787,12.78516,28.43506" fill="none" stroke="#2e3191" stroke-linecap="round" stroke-miterlimit="10" stroke-width="4.25"/><path d="M212.68562,259.30182c.51807,2.479.00391,5.00293-1.33008,7.19385-1.32666,2.17529-3.42627,3.97803-6.07764,4.71924-2.64941.74316-5.37402.24268-7.65527-1.21973-2.3418-1.43066-3.96875-3.91211-4.55518-6.81543-.64307-2.88916.14551-5.69092,1.69482-7.76758,1.55029-2.08447,3.91211-3.46484,6.65967-3.80762,2.74854-.34082,5.34912.38184,7.31006,1.7832,2.05127,1.36523,3.53564,3.37305,3.95361,5.91406Z" fill="#abadd3"/><path d="M212.68562,259.30182c.51807,2.479.00391,5.00293-1.33008,7.19385-1.32666,2.17529-3.42627,3.97803-6.07764,4.71924-2.64941.74316-5.37402.24268-7.65527-1.21973-2.3418-1.43066-3.96875-3.91211-4.55518-6.81543-.64307-2.88916.14551-5.69092,1.69482-7.76758,1.55029-2.08447,3.91211-3.46484,6.65967-3.80762,2.74854-.34082,5.34912.38184,7.31006,1.7832,2.05127,1.36523,3.53564,3.37305,3.95361,5.91406Z" fill="none" stroke="#2e3191" stroke-linecap="round" stroke-miterlimit="10" stroke-width="2.55"/><path d="M210.19148,275.13092c1.27734,2.27588,2.84863,4.35986,4.33984,6.49609,1.43506,2.18018,3.1543,4.14355,4.80273,6.16113,1.60889,2.05127,3.40771,3.94336,5.33252,5.70117.9292.91455,1.94385,1.73486,2.91211,2.60645,1.02002.80908,2.00146,1.66992,3.05859,2.43164" fill="none" stroke="#2e3191" stroke-linecap="round" stroke-miterlimit="10" stroke-width="4.25"/><path d="M228.05916,283.0318c1.98047,4.06348,1.14014,10.23438-3.38965,13.48975-2.27783,1.6084-5.04004,2.0459-7.74854,1.29785-2.82568-.79785-5.0918-2.81494-6.52051-5.51221-.68799-1.36084-1.16797-2.72217-1.18359-4.11523-.04541-1.38184.18408-2.71582.65771-3.9292.94434-2.43115,2.87354-4.36865,5.43799-5.41309,2.56592-1.04199,5.25244-1.03809,7.47998-.23242,2.32178.7085,4.22412,2.14307,5.2666,4.41455Z" fill="#abadd3"/><path d="M228.05916,283.0318c1.98047,4.06348,1.14014,10.23438-3.38965,13.48975-2.27783,1.6084-5.04004,2.0459-7.74854,1.29785-2.82568-.79785-5.0918-2.81494-6.52051-5.51221-.68799-1.36084-1.16797-2.72217-1.18359-4.11523-.04541-1.38184.18408-2.71582.65771-3.9292.94434-2.43115,2.87354-4.36865,5.43799-5.41309,2.56592-1.04199,5.25244-1.03809,7.47998-.23242,2.32178.7085,4.22412,2.14307,5.2666,4.41455Z" fill="none" stroke="#2e3191" stroke-linecap="round" stroke-miterlimit="10" stroke-width="2.55"/><path d="M230.63728,298.52741c4.1543,3.1416,8.6543,5.85107,13.47754,7.83447,4.79639,2.03906,9.94189,3.24658,15.14209,3.56152" fill="none" stroke="#2e3191" stroke-linecap="round" stroke-miterlimit="10" stroke-width="4.25"/><path d="M249.61384,298.02204c.45801.32324.87402.71191,1.25635,1.13477.38574.39502.73535.84131,1.05127,1.32959.62744,1,1.1333,2.07373,1.48486,3.2627.69092,2.38574.80908,5.15332-.32373,7.67383-.56836,1.25586-1.41016,2.32324-2.48584,3.16553-1.08154.86328-2.37061,1.43408-3.78662,1.72217-2.84521.62598-6.13037-.05664-8.75879-1.93164-2.61572-1.9082-4.00146-4.59717-4.1377-7.21826-.14648-2.63867.89111-5.16211,2.83301-7.13525,1.94336-1.96533,4.35156-3.04639,6.62061-3.3877,1.1333-.15137,2.25781-.17676,3.29492.08887,1.06006.16943,2.02979.68164,2.95166,1.29541Z" fill="#abadd3"/><path d="M249.61384,298.02204c.45801.32324.87402.71191,1.25635,1.13477.38574.39502.73535.84131,1.05127,1.32959.62744,1,1.1333,2.07373,1.48486,3.2627.69092,2.38574.80908,5.15332-.32373,7.67383-.56836,1.25586-1.41016,2.32324-2.48584,3.16553-1.08154.86328-2.37061,1.43408-3.78662,1.72217-2.84521.62598-6.13037-.05664-8.75879-1.93164-2.61572-1.9082-4.00146-4.59717-4.1377-7.21826-.14648-2.63867.89111-5.16211,2.83301-7.13525,1.94336-1.96533,4.35156-3.04639,6.62061-3.3877,1.1333-.15137,2.25781-.17676,3.29492.08887,1.06006.16943,2.02979.68164,2.95166,1.29541Z" fill="none" stroke="#2e3191" stroke-linecap="round" stroke-miterlimit="10" stroke-width="2.55"/><path d="M259.25691,309.9234c2.60205.11035,5.21729.00098,7.78467-.47314,2.56592-.44092,5.104-1.06934,7.55762-1.9502,2.44971-.88916,4.82471-1.97559,7.10889-3.22949,2.27881-1.26514,4.44824-2.71777,6.53613-4.27539" fill="none" stroke="#2e3191" stroke-linecap="round" stroke-miterlimit="10" stroke-width="4.25"/><path d="M273.02009,297.63874c2.17578-.25928,4.53516.39209,6.67822,1.64111,2.13086,1.27637,4.06348,3.26416,4.91406,5.8916.85205,2.62012.39893,5.47119-1.28564,7.83447-1.67578,2.33203-4.58691,4.15332-7.92773,4.51758-1.67676.14209-3.24414.00635-4.63379-.51074-.69189-.24463-1.33203-.55127-1.91162-.9126-.58398-.38184-1.1084-.82324-1.56689-1.30322-1.84424-1.91699-2.5918-4.54834-2.33008-7.30029.26562-2.77783,1.37207-5.104,2.75244-6.82422,1.3999-1.74121,3.12695-2.76807,5.31104-3.03369Z" fill="#abadd3"/><path d="M273.02009,297.63874c2.17578-.25928,4.53516.39209,6.67822,1.64111,2.13086,1.27637,4.06348,3.26416,4.91406,5.8916.85205,2.62012.39893,5.47119-1.28564,7.83447-1.67578,2.33203-4.58691,4.15332-7.92773,4.51758-1.67676.14209-3.24414.00635-4.63379-.51074-.69189-.24463-1.33203-.55127-1.91162-.9126-.58398-.38184-1.1084-.82324-1.56689-1.30322-1.84424-1.91699-2.5918-4.54834-2.33008-7.30029.26562-2.77783,1.37207-5.104,2.75244-6.82422,1.3999-1.74121,3.12695-2.76807,5.31104-3.03369Z" fill="none" stroke="#2e3191" stroke-linecap="round" stroke-miterlimit="10" stroke-width="2.55"/><path d="M288.24421,299.99518c8.33301-6.31006,15.03955-14.46289,21.11182-22.8999" fill="none" stroke="#2e3191" stroke-linecap="round" stroke-miterlimit="10" stroke-width="4.25"/><path d="M293.77009,281.22663c4.10693-2.89941,10.3501-2.3667,13.91211,1.89258,1.76562,2.13672,2.45654,4.83203,2.0498,7.48438-.3877,2.64844-1.9165,5.24268-4.39014,6.98535-2.4624,1.75146-5.39307,2.24658-7.91895,1.64111-2.5498-.60303-4.71631-2.30566-6.06445-4.70898-1.34521-2.40527-1.71436-5.04297-1.30176-7.38623.4292-2.33398,1.63672-4.44727,3.71338-5.9082Z" fill="#abadd3"/><path d="M293.77009,281.22663c4.10693-2.89941,10.3501-2.3667,13.91211,1.89258,1.76562,2.13672,2.45654,4.83203,2.0498,7.48438-.3877,2.64844-1.9165,5.24268-4.39014,6.98535-2.4624,1.75146-5.39307,2.24658-7.91895,1.64111-2.5498-.60303-4.71631-2.30566-6.06445-4.70898-1.34521-2.40527-1.71436-5.04297-1.30176-7.38623.4292-2.33398,1.63672-4.44727,3.71338-5.9082Z" fill="none" stroke="#2e3191" stroke-linecap="round" stroke-miterlimit="10" stroke-width="2.55"/><path d="M309.35603,277.09528c3.04248-4.23145,5.91748-8.58008,8.77588-12.93652,2.90625-4.32666,5.62891-8.77295,8.16504-13.32617" fill="none" stroke="#2e3191" stroke-linecap="round" stroke-miterlimit="10" stroke-width="4.25"/><path d="M311.23298,256.86237c1.00781-.979,2.09912-1.5957,3.29785-2.04492,1.15234-.43506,2.39893-.64893,3.66406-.64111,2.52881.01904,5.13574.9126,7.12891,2.8291,1.9917,1.90576,2.98584,4.54346,2.91553,7.22168-.12402,2.67041-1.09766,5.14062-3.12354,7.09375-4.04346,3.89941-10.44043,3.68848-14.18213-.3916-3.74609-4.06885-3.67676-10.22607.29932-14.06689Z" fill="#abadd3"/><path d="M311.23298,256.86237c1.00781-.979,2.09912-1.5957,3.29785-2.04492,1.15234-.43506,2.39893-.64893,3.66406-.64111,2.52881.01904,5.13574.9126,7.12891,2.8291,1.9917,1.90576,2.98584,4.54346,2.91553,7.22168-.12402,2.67041-1.09766,5.14062-3.12354,7.09375-4.04346,3.89941-10.44043,3.68848-14.18213-.3916-3.74609-4.06885-3.67676-10.22607.29932-14.06689Z" fill="none" stroke="#2e3191" stroke-linecap="round" stroke-miterlimit="10" stroke-width="2.55"/><path d="M326.29695,250.83258c5.08838-9.09717,9.51514-18.55615,13.40039-28.22607" fill="none" stroke="#2e3191" stroke-linecap="round" stroke-miterlimit="10" stroke-width="4.25"/><path d="M325.56892,230.73542c3.26514-4.14014,9.4668-5.12744,13.96924-1.89258,4.48779,3.22021,5.37158,9.76025,1.78174,14.28418-3.5874,4.5332-9.97705,5.01807-14.16113,1.40186-4.17871-3.61768-4.86475-9.65283-1.58984-13.79346Z" fill="#abadd3"/><path d="M325.56892,230.73542c3.26514-4.14014,9.4668-5.12744,13.96924-1.89258,4.48779,3.22021,5.37158,9.76025,1.78174,14.28418-3.5874,4.5332-9.97705,5.01807-14.16113,1.40186-4.17871-3.61768-4.86475-9.65283-1.58984-13.79346Z" fill="none" stroke="#2e3191" stroke-linecap="round" stroke-miterlimit="10" stroke-width="2.55"/><path d="M339.69734,222.60651c3.84521-9.68701,7.15576-19.58594,9.90332-29.64014" fill="none" stroke="#2e3191" stroke-linecap="round" stroke-miterlimit="10" stroke-width="4.25"/><path d="M336.4991,202.70319c2.75732-4.53027,8.81982-6.2207,13.65674-3.52441,4.84277,2.69141,6.4502,9.04102,3.46729,13.93945-2.99609,4.90186-9.27148,6.17969-13.87451,3.12158-4.61719-3.06738-6.00342-9-3.24951-13.53662Z" fill="#abadd3"/><path d="M336.4991,202.70319c2.75732-4.53027,8.81982-6.2207,13.65674-3.52441,4.84277,2.69141,6.4502,9.04102,3.46729,13.93945-2.99609,4.90186-9.27148,6.17969-13.87451,3.12158-4.61719-3.06738-6.00342-9-3.24951-13.53662Z" fill="none" stroke="#2e3191" stroke-linecap="round" stroke-miterlimit="10" stroke-width="2.55"/><path d="M349.60066,192.96637c2.85303-10.02686,5.0752-20.21631,7.39502-30.37549" fill="none" stroke="#2e3191" stroke-linecap="round" stroke-miterlimit="10" stroke-width="4.25"/><path d="M344.51814,173.35358c2.39844-4.89893,8.38428-7.01367,13.37305-4.61133,4.98193,2.39111,7.10889,8.38525,4.60791,13.45996-2.50635,5.08691-8.59082,7.00684-13.48779,4.42432-4.89795-2.58252-6.89404-8.40039-4.49316-13.27295Z" fill="#abadd3"/><path d="M344.51814,173.35358c2.39844-4.89893,8.38428-7.01367,13.37305-4.61133,4.98193,2.39111,7.10889,8.38525,4.60791,13.45996-2.50635,5.08691-8.59082,7.00684-13.48779,4.42432-4.89795-2.58252-6.89404-8.40039-4.49316-13.27295Z" fill="none" stroke="#2e3191" stroke-linecap="round" stroke-miterlimit="10" stroke-width="2.55"/><path d="M356.99568,162.59089c2.31982-10.15576,4.7915-20.30322,8.25146-30.14014" fill="none" stroke="#2e3191" stroke-linecap="round" stroke-miterlimit="10" stroke-width="4.25"/><path d="M351.88191,142.56452c1.31641-2.5332,3.60547-4.26123,6.06055-4.95557,2.47119-.7041,5.22949-.37305,7.60303,1.01416,4.76318,2.81982,6.55176,8.58105,4.06104,13.28662-2.47998,4.73145-8.46191,6.78223-13.43164,4.33594-2.47754-1.22754-4.24463-3.35156-5.01709-5.83594-.3916-1.24023-.54834-2.56592-.44824-3.89746.12598-1.33789.51074-2.68262,1.17236-3.94775Z" fill="#abadd3"/><path d="M351.88191,142.56452c1.31641-2.5332,3.60547-4.26123,6.06055-4.95557,2.47119-.7041,5.22949-.37305,7.60303,1.01416,4.76318,2.81982,6.55176,8.58105,4.06104,13.28662-2.47998,4.73145-8.46191,6.78223-13.43164,4.33594-2.47754-1.22754-4.24463-3.35156-5.01709-5.83594-.3916-1.24023-.54834-2.56592-.44824-3.89746.12598-1.33789.51074-2.68262,1.17236-3.94775Z" fill="none" stroke="#2e3191" stroke-linecap="round" stroke-miterlimit="10" stroke-width="2.55"/><path d="M365.24714,132.45075c1.71289-4.92285,3.77637-9.71729,6.07715-14.3916,1.23193-2.2959,2.4165-4.61914,3.8291-6.81152.68311-1.10889,1.33398-2.23926,2.10596-3.29053l1.11572-1.60449,1.17529-1.56104" fill="none" stroke="#2e3191" stroke-linecap="round" stroke-miterlimit="10" stroke-width="4.25"/><path d="M363.81062,111.39362c1.88672-2.33691,4.64746-3.54639,7.22363-3.61621,2.59668-.0791,5.10059.9834,7.04639,2.97168,1.94336,1.99121,2.99951,4.47656,3.16406,6.81104.08789,1.17773.0166,2.39893-.33447,3.51025-.3501,1.11377-.93604,2.16162-1.7124,3.15283-.79785.97412-1.78809,1.74365-2.90186,2.31738-1.07422.59961-2.27246.99902-3.5249,1.18262-2.50293.36377-5.21826-.11719-7.48096-1.7041-2.25195-1.58154-3.65625-4.02295-3.95654-6.70996-.24414-2.66406.4751-5.61328,2.47705-7.91553Z" fill="#abadd3"/><path d="M363.81062,111.39362c1.88672-2.33691,4.64746-3.54639,7.22363-3.61621,2.59668-.0791,5.10059.9834,7.04639,2.97168,1.94336,1.99121,2.99951,4.47656,3.16406,6.81104.08789,1.17773.0166,2.39893-.33447,3.51025-.3501,1.11377-.93604,2.16162-1.7124,3.15283-.79785.97412-1.78809,1.74365-2.90186,2.31738-1.07422.59961-2.27246.99902-3.5249,1.18262-2.50293.36377-5.21826-.11719-7.48096-1.7041-2.25195-1.58154-3.65625-4.02295-3.95654-6.70996-.24414-2.66406.4751-5.61328,2.47705-7.91553Z" fill="none" stroke="#2e3191" stroke-linecap="round" stroke-miterlimit="10" stroke-width="2.55"/><path d="M379.55037,104.79157c1.55566-2.09131,3.27002-4.05762,5.03027-5.97754,1.82275-1.85986,3.67188-3.7041,5.71484-5.3252,2.02002-1.64307,4.13672-3.17725,6.39258-4.4834,2.24121-1.32422,4.58203-2.49463,7.02637-3.39941" fill="none" stroke="#2e3191" stroke-linecap="round" stroke-miterlimit="10" stroke-width="4.25"/><path d="M386.27009,84.23835c2.91504-1.44043,6.04883-1.36963,8.41406-.23779,2.40381,1.14307,4.07373,3.34082,4.81641,5.98828.73486,2.646.55615,5.26465-.18457,7.38379-.77344,2.09814-2.08887,3.83838-4.19385,4.81934-2.0708,1.03125-4.56445,1.21436-7.01562.65967-2.42725-.55078-4.83545-1.90186-6.42285-4.16992-.79248-1.13574-1.29834-2.40088-1.51514-3.73535-.2002-1.32129-.08203-2.69434.30273-4.05469.81299-2.67725,2.84766-5.25439,5.79883-6.65332Z" fill="#abadd3"/><path d="M386.27009,84.23835c2.91504-1.44043,6.04883-1.36963,8.41406-.23779,2.40381,1.14307,4.07373,3.34082,4.81641,5.98828.73486,2.646.55615,5.26465-.18457,7.38379-.77344,2.09814-2.08887,3.83838-4.19385,4.81934-2.0708,1.03125-4.56445,1.21436-7.01562.65967-2.42725-.55078-4.83545-1.90186-6.42285-4.16992-.79248-1.13574-1.29834-2.40088-1.51514-3.73535-.2002-1.32129-.08203-2.69434.30273-4.05469.81299-2.67725,2.84766-5.25439,5.79883-6.65332Z" fill="none" stroke="#2e3191" stroke-linecap="round" stroke-miterlimit="10" stroke-width="2.55"/><path d="M403.71443,85.60602c2.4375-.91553,4.94678-1.65283,7.51123-2.12158,2.56396-.46484,5.16602-.70898,7.771-.73975,5.21289-.03662,10.41797.79346,15.40234,2.30273" fill="none" stroke="#2e3191" stroke-linecap="round" stroke-miterlimit="10" stroke-width="4.25"/><path d="M421.72029,73.02106c3.2334.73926,5.56641,2.78955,6.67383,5.16113,1.125,2.38672,1.04492,5.15771-.0459,7.67725-.54395,1.26123-1.28174,2.36133-2.11572,3.31152-.83398.93408-1.7627,1.68701-2.72656,2.28662-1.94092,1.16064-3.98096,1.59473-6.10693,1.11328-2.12109-.49023-4.07373-1.87305-5.6792-3.75-1.58203-1.88965-2.81299-4.38379-2.7915-7.14307.01318-2.76074,1.39746-5.32568,3.80908-7.02295,2.3877-1.65869,5.76074-2.38965,8.98291-1.63379Z" fill="#abadd3"/><path d="M421.72029,73.02106c3.2334.73926,5.56641,2.78955,6.67383,5.16113,1.125,2.38672,1.04492,5.15771-.0459,7.67725-.54395,1.26123-1.28174,2.36133-2.11572,3.31152-.83398.93408-1.7627,1.68701-2.72656,2.28662-1.94092,1.16064-3.98096,1.59473-6.10693,1.11328-2.12109-.49023-4.07373-1.87305-5.6792-3.75-1.58203-1.88965-2.81299-4.38379-2.7915-7.14307.01318-2.76074,1.39746-5.32568,3.80908-7.02295,2.3877-1.65869,5.76074-2.38965,8.98291-1.63379Z" fill="none" stroke="#2e3191" stroke-linecap="round" stroke-miterlimit="10" stroke-width="2.55"/><path d="M434.399,85.04743c10.00195,3.01318,19.11523,8.47803,27.19922,15.01855" fill="none" stroke="#2e3191" stroke-linecap="round" stroke-miterlimit="10" stroke-width="4.25"/><path d="M455.75837,84.03522c2.25879,2.07568,3.31836,4.81006,3.24854,7.40234-.07666,2.61914-1.25635,5.08789-3.32373,6.92432-2.06494,1.82568-4.59375,2.72559-6.97314,2.79492-2.39551.07227-4.65381-.66016-6.43896-2.31934-1.79443-1.61914-2.82617-3.94043-3.14355-6.41357-.29639-2.48926.15869-5.21045,1.75439-7.47021,1.58496-2.25146,4.10547-3.6084,6.87988-3.78711,2.75439-.1792,5.75977.77344,7.99658,2.86865Z" fill="#abadd3"/><path d="M455.75837,84.03522c2.25879,2.07568,3.31836,4.81006,3.24854,7.40234-.07666,2.61914-1.25635,5.08789-3.32373,6.92432-2.06494,1.82568-4.59375,2.72559-6.97314,2.79492-2.39551.07227-4.65381-.66016-6.43896-2.31934-1.79443-1.61914-2.82617-3.94043-3.14355-6.41357-.29639-2.48926.15869-5.21045,1.75439-7.47021,1.58496-2.25146,4.10547-3.6084,6.87988-3.78711,2.75439-.1792,5.75977.77344,7.99658,2.86865Z" fill="none" stroke="#2e3191" stroke-linecap="round" stroke-miterlimit="10" stroke-width="2.55"/><path d="M461.59822,100.06598c8.0874,6.57715,15.23584,14.28174,21.37061,22.70312" fill="none" stroke="#2e3191" stroke-linecap="round" stroke-miterlimit="10" stroke-width="4.25"/><path d="M481.84334,105.89167c1.48096,2.5791,1.72656,5.43848.92822,7.91016-.79053,2.47705-2.58154,4.54395-5.07129,5.75635-2.4917,1.21045-5.17236,1.36084-7.52148.72021-2.354-.64648-4.36914-2.10059-5.65283-4.29492-1.26855-2.20752-1.58984-4.77588-1.06592-7.25684.53906-2.48242,1.8999-4.83789,4.18408-6.42822,2.271-1.58105,5.04395-2.02686,7.65869-1.36914,2.62646.63525,5.04297,2.40088,6.54053,4.9624Z" fill="#abadd3"/><path d="M481.84334,105.89167c1.48096,2.5791,1.72656,5.43848.92822,7.91016-.79053,2.47705-2.58154,4.54395-5.07129,5.75635-2.4917,1.21045-5.17236,1.36084-7.52148.72021-2.354-.64648-4.36914-2.10059-5.65283-4.29492-1.26855-2.20752-1.58984-4.77588-1.06592-7.25684.53906-2.48242,1.8999-4.83789,4.18408-6.42822,2.271-1.58105,5.04395-2.02686,7.65869-1.36914,2.62646.63525,5.04297,2.40088,6.54053,4.9624Z" fill="none" stroke="#2e3191" stroke-linecap="round" stroke-miterlimit="10" stroke-width="2.55"/><path d="M482.96882,122.76911c6.11963,8.43066,11.28564,17.58447,15.03516,27.31348" fill="none" stroke="#2e3191" stroke-linecap="round" stroke-miterlimit="10" stroke-width="4.25"/><path d="M501.11775,133.4151c.81982,2.86475.34521,5.72217-1.03711,7.92188-1.36816,2.20361-3.63965,3.75879-6.34277,4.3042-2.72949.55273-5.33984.03467-7.4624-1.14893-2.10693-1.19922-3.71338-3.08545-4.41748-5.53613-.69141-2.4541-.37988-5.03809.73877-7.31494,1.13037-2.27441,3.04883-4.22119,5.65234-5.18994,2.58105-.95654,5.38965-.72314,7.74854.55469,2.37793,1.25391,4.30078,3.54688,5.12012,6.40918Z" fill="#abadd3"/><path d="M501.11775,133.4151c.81982,2.86475.34521,5.72217-1.03711,7.92188-1.36816,2.20361-3.63965,3.75879-6.34277,4.3042-2.72949.55273-5.33984.03467-7.4624-1.14893-2.10693-1.19922-3.71338-3.08545-4.41748-5.53613-.69141-2.4541-.37988-5.03809.73877-7.31494,1.13037-2.27441,3.04883-4.22119,5.65234-5.18994,2.58105-.95654,5.38965-.72314,7.74854.55469,2.37793,1.25391,4.30078,3.54688,5.12012,6.40918Z" fill="none" stroke="#2e3191" stroke-linecap="round" stroke-miterlimit="10" stroke-width="2.55"/><path d="M498.00398,150.08258c3.72412,9.74414,5.85596,20.03662,7.01709,30.38232" fill="none" stroke="#2e3191" stroke-linecap="round" stroke-miterlimit="10" stroke-width="4.25"/><path d="M512.5157,165.32721c.03516,2.96729-1.28076,5.56299-3.1748,7.2915-1.90283,1.73682-4.50977,2.62744-7.26172,2.42139-2.76953-.20557-5.19873-1.41943-6.87354-3.16846-.82373-.88135-1.56152-1.87109-2.0127-2.979-.45947-1.10498-.68359-2.31396-.71729-3.59668-.01074-1.2832.25977-2.52734.74854-3.68652.46924-1.13818,1.16748-2.20654,2.02734-3.13623,1.70068-1.83936,4.0957-3.20361,6.85693-3.41309,5.54346-.45166,10.44141,4.28809,10.40723,10.26709Z" fill="#abadd3"/><path d="M512.5157,165.32721c.03516,2.96729-1.28076,5.56299-3.1748,7.2915-1.90283,1.73682-4.50977,2.62744-7.26172,2.42139-2.76953-.20557-5.19873-1.41943-6.87354-3.16846-.82373-.88135-1.56152-1.87109-2.0127-2.979-.45947-1.10498-.68359-2.31396-.71729-3.59668-.01074-1.2832.25977-2.52734.74854-3.68652.46924-1.13818,1.16748-2.20654,2.02734-3.13623,1.70068-1.83936,4.0957-3.20361,6.85693-3.41309,5.54346-.45166,10.44141,4.28809,10.40723,10.26709Z" fill="none" stroke="#2e3191" stroke-linecap="round" stroke-miterlimit="10" stroke-width="2.55"/><path d="M505.02107,180.46491c.55371,5.18311.80762,10.39209.90234,15.60205.05127,5.21143-.1084,10.42188-.39893,15.625" fill="none" stroke="#2e3191" stroke-linecap="round" stroke-miterlimit="10" stroke-width="4.25"/><path d="M515.69343,198.38678c-.59229,2.83252-2.33643,5.07031-4.53906,6.39551-2.20801,1.32959-4.91211,1.74365-7.59277,1.03613-2.68018-.70947-4.83008-2.38086-6.13867-4.47949-.65918-1.05029-1.15088-2.20361-1.37207-3.41748-.22021-1.21484-.20361-2.48486.05469-3.76074.271-1.27783.81055-2.45215,1.5376-3.48926.70117-1.03223,1.60596-1.93115,2.65137-2.65283,2.09131-1.44092,4.74414-2.18359,7.47314-1.74561,2.72217.43555,5.03174,2.00586,6.5,4.22705,1.41992,2.20898,2.07666,5.06592,1.42578,7.88672Z" fill="#abadd3"/><path d="M515.69343,198.38678c-.59229,2.83252-2.33643,5.07031-4.53906,6.39551-2.20801,1.32959-4.91211,1.74365-7.59277,1.03613-2.68018-.70947-4.83008-2.38086-6.13867-4.47949-.65918-1.05029-1.15088-2.20361-1.37207-3.41748-.22021-1.21484-.20361-2.48486.05469-3.76074.271-1.27783.81055-2.45215,1.5376-3.48926.70117-1.03223,1.60596-1.93115,2.65137-2.65283,2.09131-1.44092,4.74414-2.18359,7.47314-1.74561,2.72217.43555,5.03174,2.00586,6.5,4.22705,1.41992,2.20898,2.07666,5.06592,1.42578,7.88672Z" fill="none" stroke="#2e3191" stroke-linecap="round" stroke-miterlimit="10" stroke-width="2.55"/><path d="M505.52449,211.69196c-.6499,10.40381-1.88379,20.76221-3.41455,31.07031" fill="none" stroke="#2e3191" stroke-linecap="round" stroke-miterlimit="10" stroke-width="4.25"/><path d="M513.58113,230.7237c-1.87598,5.35352-7.70996,7.94873-12.87354,5.99316-5.17773-1.96729-7.80811-7.57324-6.04395-12.61572.90967-2.53369,2.72119-4.48633,5.01123-5.63184,2.28467-1.14062,5.01758-1.46484,7.65039-.62598,2.6333.83789,4.66699,2.69824,5.82275,5.05127,1.12842,2.33984,1.38281,5.16699.43311,7.8291Z" fill="#abadd3"/><path d="M513.58113,230.7237c-1.87598,5.35352-7.70996,7.94873-12.87354,5.99316-5.17773-1.96729-7.80811-7.57324-6.04395-12.61572.90967-2.53369,2.72119-4.48633,5.01123-5.63184,2.28467-1.14062,5.01758-1.46484,7.65039-.62598,2.6333.83789,4.66699,2.69824,5.82275,5.05127,1.12842,2.33984,1.38281,5.16699.43311,7.8291Z" fill="none" stroke="#2e3191" stroke-linecap="round" stroke-miterlimit="10" stroke-width="2.55"/><path d="M502.10994,242.76227c-1.51709,10.31201-3.31396,20.57959-5.05811,30.85498" fill="none" stroke="#2e3191" stroke-linecap="round" stroke-miterlimit="10" stroke-width="4.25"/><path d="M508.91707,262.1153c-2.11963,5.12646-7.98584,7.5293-13.09717,5.40723-5.11133-2.12695-7.53223-7.9624-5.44238-13.021,2.08398-5.04932,7.9043-7.52295,13.04395-5.47754,5.14844,2.04883,7.61279,7.95508,5.49561,13.09131Z" fill="#abadd3"/><path d="M508.91707,262.1153c-2.11963,5.12646-7.98584,7.5293-13.09717,5.40723-5.11133-2.12695-7.53223-7.9624-5.44238-13.021,2.08398-5.04932,7.9043-7.52295,13.04395-5.47754,5.14844,2.04883,7.61279,7.95508,5.49561,13.09131Z" fill="none" stroke="#2e3191" stroke-linecap="round" stroke-miterlimit="10" stroke-width="2.55"/><path d="M497.05183,273.61725c-1.75244,10.27344-3.44922,20.55908-4.80615,30.89355" fill="none" stroke="#2e3191" stroke-linecap="round" stroke-miterlimit="10" stroke-width="4.25"/><path d="M503.79646,292.83258c-2.03076,5.03613-7.80811,7.5835-12.98193,5.61523-5.16748-1.96973-7.71582-7.89111-5.62256-13.07178,2.08496-5.17969,7.95898-7.59521,13.07227-5.49023,5.11816,2.11279,7.55859,7.90527,5.53223,12.94678Z" fill="#abadd3"/><path d="M503.79646,292.83258c-2.03076,5.03613-7.80811,7.5835-12.98193,5.61523-5.16748-1.96973-7.71582-7.89111-5.62256-13.07178,2.08496-5.17969,7.95898-7.59521,13.07227-5.49023,5.11816,2.11279,7.55859,7.90527,5.53223,12.94678Z" fill="none" stroke="#2e3191" stroke-linecap="round" stroke-miterlimit="10" stroke-width="2.55"/><path d="M492.24568,304.51081c-.6543,5.16943-1.24316,10.34814-1.67773,15.54199-.18848,2.59814-.41699,5.19482-.52295,7.79834-.11426,2.60352-.27588,5.2041-.44287,7.8042" fill="none" stroke="#2e3191" stroke-linecap="round" stroke-miterlimit="10" stroke-width="4.25"/><path d="M500.13484,323.09381c-.39941,1.26855-1.05078,2.3999-1.88232,3.37305-.81152.99658-1.80957,1.81934-2.92773,2.43164-2.23535,1.22461-4.95068,1.60938-7.61377.84033-2.6582-.77295-4.78125-2.53906-6.01123-4.82812-1.19775-2.31445-1.55713-5.16553-.66797-7.87158,1.73877-5.45264,7.50781-8.18311,12.71436-6.33545,2.61475.91699,4.61963,2.77002,5.74854,5.00488,1.16602,2.23389,1.42773,4.85352.64014,7.38525Z" fill="#abadd3"/><path d="M500.13484,323.09381c-.39941,1.26855-1.05078,2.3999-1.88232,3.37305-.81152.99658-1.80957,1.81934-2.92773,2.43164-2.23535,1.22461-4.95068,1.60938-7.61377.84033-2.6582-.77295-4.78125-2.53906-6.01123-4.82812-1.19775-2.31445-1.55713-5.16553-.66797-7.87158,1.73877-5.45264,7.50781-8.18311,12.71436-6.33545,2.61475.91699,4.61963,2.77002,5.74854,5.00488,1.16602,2.23389,1.42773,4.85352.64014,7.38525Z" fill="none" stroke="#2e3191" stroke-linecap="round" stroke-miterlimit="10" stroke-width="2.55"/><path d="M489.60212,335.65534c-.32422,5.20117-.68359,10.40039-.84814,15.60986l-.31738,7.81006c-.08838,2.604-.10156,5.21045-.15576,7.81543" fill="none" stroke="#2e3191" stroke-linecap="round" stroke-miterlimit="10" stroke-width="4.25"/><path d="M498.42146,353.96979c-.7251,2.62158-2.46533,4.72021-4.69238,6.00342-2.2041,1.28223-4.89893,1.74805-7.58691,1.05615-5.39502-1.37158-8.50684-6.94043-7.06006-12.35449.36426-1.3501.98193-2.55811,1.78662-3.5835.82422-1.01416,1.83691-1.84912,2.96338-2.47119,2.25488-1.24463,4.97754-1.63281,7.63281-.87549,2.66162.75439,4.72852,2.52148,5.98145,4.73779,1.27441,2.20703,1.70068,4.86475.9751,7.4873Z" fill="#abadd3"/><path d="M498.42146,353.96979c-.7251,2.62158-2.46533,4.72021-4.69238,6.00342-2.2041,1.28223-4.89893,1.74805-7.58691,1.05615-5.39502-1.37158-8.50684-6.94043-7.06006-12.35449.36426-1.3501.98193-2.55811,1.78662-3.5835.82422-1.01416,1.83691-1.84912,2.96338-2.47119,2.25488-1.24463,4.97754-1.63281,7.63281-.87549,2.66162.75439,4.72852,2.52148,5.98145,4.73779,1.27441,2.20703,1.70068,4.86475.9751,7.4873Z" fill="none" stroke="#2e3191" stroke-linecap="round" stroke-miterlimit="10" stroke-width="2.55"/><polyline points="488.28084 366.89069 488.14705 374.70612 488.20857 382.52253 488.28572 390.33893 488.56209 398.15094" fill="none" stroke="#2e3191" stroke-linecap="round" stroke-miterlimit="10" stroke-width="4.25"/><path d="M497.99617,384.72223c-1.23584,5.28809-6.43018,8.77051-11.87695,7.68994-5.4873-1.07959-8.89062-6.49072-7.69775-11.98291,1.15625-5.49561,6.61865-8.82373,11.99561-7.53906,5.32471,1.28955,8.78418,6.54199,7.5791,11.83203Z" fill="#abadd3"/><path d="M497.99617,384.72223c-1.23584,5.28809-6.43018,8.77051-11.87695,7.68994-5.4873-1.07959-8.89062-6.49072-7.69775-11.98291,1.15625-5.49561,6.61865-8.82373,11.99561-7.53906,5.32471,1.28955,8.78418,6.54199,7.5791,11.83203Z" fill="none" stroke="#2e3191" stroke-linecap="round" stroke-miterlimit="10" stroke-width="2.55"/><path d="M488.56209,398.15094c.10352,2.60303.15918,5.20898.30127,7.81055l.50293,7.80078c.18164,2.59863.30273,5.20264.53467,7.79785l.74316,7.78125" fill="none" stroke="#2e3191" stroke-linecap="round" stroke-miterlimit="10" stroke-width="4.25"/><path d="M499.26033,415.38971c-.94727,5.34082-5.87988,9.12061-11.39844,8.36914-2.72754-.38574-5.13135-1.85986-6.61426-3.95557-1.50098-2.09277-2.21045-4.79688-1.76953-7.57129.44092-2.7749,1.94922-5.08447,4.03125-6.56201,2.104-1.48047,4.78809-2.13232,7.50049-1.64697,5.41357.99023,9.15918,6.02686,8.25049,11.3667Z" fill="#abadd3"/><path d="M499.26033,415.38971c-.94727,5.34082-5.87988,9.12061-11.39844,8.36914-2.72754-.38574-5.13135-1.85986-6.61426-3.95557-1.50098-2.09277-2.21045-4.79688-1.76953-7.57129.44092-2.7749,1.94922-5.08447,4.03125-6.56201,2.104-1.48047,4.78809-2.13232,7.50049-1.64697,5.41357.99023,9.15918,6.02686,8.25049,11.3667Z" fill="none" stroke="#2e3191" stroke-linecap="round" stroke-miterlimit="10" stroke-width="2.55"/><path d="M490.64412,429.34137c.2627,2.59229.46143,5.19141.77637,7.77783l.99707,7.75293c.34521,2.58252.63623,5.17285,1.02588,7.74854l1.26465,7.71387" fill="none" stroke="#2e3191" stroke-linecap="round" stroke-miterlimit="10" stroke-width="4.25"/><path d="M502.39461,445.86237c-.61279,5.37988-5.28369,9.47314-10.83838,9.08545-2.74512-.20654-5.25391-1.52051-6.85596-3.52148-1.63086-1.99463-2.51172-4.65381-2.24854-7.45557.26318-2.80225,1.62158-5.20508,3.60596-6.81006,1.99756-1.6084,4.64746-2.42578,7.38037-2.1084,5.47021.6543,9.52441,5.43408,8.95654,10.81006Z" fill="#abadd3"/><path d="M502.39461,445.86237c-.61279,5.37988-5.28369,9.47314-10.83838,9.08545-2.74512-.20654-5.25391-1.52051-6.85596-3.52148-1.63086-1.99463-2.51172-4.65381-2.24854-7.45557.26318-2.80225,1.62158-5.20508,3.60596-6.81006,1.99756-1.6084,4.64746-2.42578,7.38037-2.1084,5.47021.6543,9.52441,5.43408,8.95654,10.81006Z" fill="none" stroke="#2e3191" stroke-linecap="round" stroke-miterlimit="10" stroke-width="2.55"/><path d="M494.70808,460.33454c.42871,2.56982.82617,5.14551,1.28125,7.71094l1.54443,7.6626,1.54443,7.6626,1.83301,7.59912" fill="none" stroke="#2e3191" stroke-linecap="round" stroke-miterlimit="10" stroke-width="4.25"/><path d="M507.55818,475.99909c-.07568,2.69922-1.3042,5.15674-3.11182,6.93506-1.80566,1.77588-4.30518,2.89746-7.08154,2.89062-5.62305.02197-9.94482-4.68066-9.83936-10.32764.06445-2.81787,1.24414-5.30908,3.11768-7.04639,1.91504-1.74707,4.48145-2.7373,7.23633-2.60693,5.45996.29199,9.87646,4.7627,9.67871,10.15527Z" fill="#abadd3"/><path d="M507.55818,475.99909c-.07568,2.69922-1.3042,5.15674-3.11182,6.93506-1.80566,1.77588-4.30518,2.89746-7.08154,2.89062-5.62305.02197-9.94482-4.68066-9.83936-10.32764.06445-2.81787,1.24414-5.30908,3.11768-7.04639,1.91504-1.74707,4.48145-2.7373,7.23633-2.60693,5.45996.29199,9.87646,4.7627,9.67871,10.15527Z" fill="none" stroke="#2e3191" stroke-linecap="round" stroke-miterlimit="10" stroke-width="2.55"/><path d="M500.91121,490.96979l1.83643,7.59766c.64844,2.52344,1.4082,5.01709,2.10645,7.52734l2.13916,7.51807c.3374,1.25928.73486,2.49951,1.1543,3.7334l1.2251,3.71143" fill="none" stroke="#2e3191" stroke-linecap="round" stroke-miterlimit="10" stroke-width="4.25"/><path d="M514.87947,505.6319c.22705,5.37305-3.96387,10.15918-9.46533,10.57568-5.50879.42188-10.24072-3.93213-10.56445-9.57861-.38184-5.63574,4.13672-10.27783,9.63623-10.39893,2.77588-.07568,5.21436.97412,7.14355,2.65234,1.89795,1.68945,3.12646,4.05469,3.25,6.74951Z" fill="#abadd3"/><path d="M514.87947,505.6319c.22705,5.37305-3.96387,10.15918-9.46533,10.57568-5.50879.42188-10.24072-3.93213-10.56445-9.57861-.38184-5.63574,4.13672-10.27783,9.63623-10.39893,2.77588-.07568,5.21436.97412,7.14355,2.65234,1.89795,1.68945,3.12646,4.05469,3.25,6.74951Z" fill="none" stroke="#2e3191" stroke-linecap="round" stroke-miterlimit="10" stroke-width="2.55"/><path d="M509.37263,521.05768c1.66895,4.93604,3.15674,9.93604,5.10059,14.7749l2.76904,7.30957,1.38477,3.65479c.4834,1.20947,1.02197,2.39648,1.53076,3.59619" fill="none" stroke="#2e3191" stroke-linecap="round" stroke-miterlimit="10" stroke-width="4.25"/><path d="M524.44343,534.57428c.69092,5.31445-3.12207,10.42725-8.56738,11.28027-5.44434.85693-10.55078-3.09912-11.34766-8.69922-.43506-2.77832.46533-5.46191,2.08398-7.47363,1.62256-2.01562,4.00879-3.37793,6.75537-3.66455,2.74609-.28564,5.32812.54492,7.27686,2.10352,2.01074,1.53857,3.45459,3.7832,3.79883,6.45361Z" fill="#abadd3"/><path d="M524.44343,534.57428c.69092,5.31445-3.12207,10.42725-8.56738,11.28027-5.44434.85693-10.55078-3.09912-11.34766-8.69922-.43506-2.77832.46533-5.46191,2.08398-7.47363,1.62256-2.01562,4.00879-3.37793,6.75537-3.66455,2.74609-.28564,5.32812.54492,7.27686,2.10352,2.01074,1.53857,3.45459,3.7832,3.79883,6.45361Z" fill="none" stroke="#2e3191" stroke-linecap="round" stroke-miterlimit="10" stroke-width="2.55"/><polyline points="520.15779 550.39313 523.25105 557.57184 524.79744 561.1612 525.57087 562.95563 526.42341 564.71393 533.26423 578.77155" fill="none" stroke="#2e3191" stroke-linecap="round" stroke-miterlimit="10" stroke-width="4.25"/><path d="M536.27595,562.63483c1.16455,5.21582-2.18945,10.61328-7.55518,11.9165-5.35938,1.30518-10.83154-2.1958-12.10791-7.7041-1.07275-5.60498,2.52295-10.84961,7.96631-11.85059,2.71826-.50879,5.36914.10449,7.4502,1.4917,1.04541.69238,1.9292,1.58984,2.64844,2.62939.75098,1.02441,1.30371,2.20752,1.59814,3.51709Z" fill="#abadd3"/><path d="M536.27595,562.63483c1.16455,5.21582-2.18945,10.61328-7.55518,11.9165-5.35938,1.30518-10.83154-2.1958-12.10791-7.7041-1.07275-5.60498,2.52295-10.84961,7.96631-11.85059,2.71826-.50879,5.36914.10449,7.4502,1.4917,1.04541.69238,1.9292,1.58984,2.64844,2.62939.75098,1.02441,1.30371,2.20752,1.59814,3.51709Z" fill="none" stroke="#2e3191" stroke-linecap="round" stroke-miterlimit="10" stroke-width="2.55"/></svg>