<?xml version="1.0" encoding="UTF-8"?><svg id="Layer_1" xmlns="http://www.w3.org/2000/svg" width="445.143786" height="681.868521" xmlns:xlink="http://www.w3.org/1999/xlink" viewBox="0 0 445.143786 681.868521"><defs><radialGradient id="radial-gradient" cx="222.571893" cy="341.109718" fx="222.571893" fy="341.109718" r="286.537557" gradientUnits="userSpaceOnUse"><stop offset=".005587" stop-color="#fff6f3"/><stop offset=".330416" stop-color="#fff0ec"/><stop offset=".789881" stop-color="#ffe2d9"/><stop offset="1" stop-color="#ffdacf"/></radialGradient><radialGradient id="radial-gradient-2" cx="167.24661" cy="289.357497" fx="167.24661" fy="289.357497" r="25.925926" gradientUnits="userSpaceOnUse"><stop offset=".005587" stop-color="#fff6f3"/><stop offset=".256545" stop-color="#fcf2ef"/><stop offset=".489828" stop-color="#f6e8e4"/><stop offset=".716137" stop-color="#ead7d1"/><stop offset=".93689" stop-color="#dbbfb6"/><stop offset="1" stop-color="#d6b7ae"/></radialGradient><radialGradient id="radial-gradient-3" cx="161.539037" cy="289.357437" fx="161.539037" fy="289.357437" r="41.220044" xlink:href="#radial-gradient-2"/></defs><path d="M341.345128,680.719437c21.87207-18.352173,46.450195-32.660828,66.399902-53.144958,32.137207-37.032715,50.143066-87.850342,21.763672-132.629272-25.668945-42.481689-79.994629-50.031616-122.378418-29.315613-6.877441,3.415833-12.224121,7.107422-16.989746,10.795288-3.602783,2.736572-7.266602,5.61676-11.601562,6.99292-9.822266,3.476318-19.278809-5.434753-19.645752-15.267151-.4646-16.961609,16.993164-31.511475,31.423584-38.283203,17.069336-6.666809,34.793457-14.124084,50.853516-24.274353,28.353516-17.748291,53.623047-39.260925,70.413086-67.523132,14.17627-25.906372,18.056152-58.473511,6.80957-86.111023-6.875977-17.224792-22.88916-31.135437-41.218262-34.798828-19.83252-3.541077-35.336426-3.235657-16.804688-26.040039,22.595703-27.436401,42.302246-60.416931,37.472168-99.554504-5.171875-44.113037-43.321777-81.662292-87.09375-88.527344-12.705078-2.12262-25.682617-1.723633-38.456055-.738831-35.537598,1.917419-60.574836,21.382324-85.898323,47.926697-12.313721,11.729614-23.674316,4.993958-38.294922,2.282043-22.666992-4.781372-58.685906-10.011414-79.046502,1.22821C5.674474,88.186905-12.463954,154.830643,11.934239,220.382279c.4408,1.182015.908986,2.38866,1.403633,3.617133,7.475546,18.565795,6.673126,39.346749-1.563166,57.587802-.030343.067202-2.171968,6.411704-2.20219,6.479027l-4.341147,12.410966c-2.663676,10.512721-3.958696,21.405868-3.698643,32.251606.56217,23.445786,8.880104,46.528135,26.103906,62.883325,26.880371,25.524536,70.831741,31.279578,97.777832,16,52.419271-29.723952,36.124573-45.386047,55.085938-59.932693,17.378261-13.332131,55.176487-26.805226,53.358398-69.785081-1.358398-32.112718-27.762695-46.05719-66.929443-58.732056l-65.856609-38.685625c-17.316605-10.172156-21.221583-33.695587-7.873637-48.70125.097103-.109163.194929-.21806.293478-.326687,12.584229-13.934387,28.520996-14.506958,44.906006-8.11438,25.485107,9.006714,54.253662,4.894409,75.911865-10.952271,7.881836-5.766968,13.786133-13.114685,20.943604-19.579468,16.03044-14.478951,44.86681-19.667316,64.415337-13.072461,4.197706,1.41613,8.10352,3.653103,11.140772,6.878201,19.345548,20.542022-14.045728,51.86925-27.590289,65.512802-12.221436,11.94104-23.894287,19.057739-33.912354,31.824768-12.920898,16.079956-16.073242,39.643982-7.791504,58.52179,9.566406,21.984863,29.554688,38.049866,51.786621,46.295837,7.914062,3.102844,16.660156,4.135498,24.70752,6.511108,22.165527,7.866699,2.90332,23.267212-8.678711,31.052673-10.482422,7.317017-21.780273,13.908569-33.558105,18.820435-7.952148,3.33197-14.490723,5.149902-22.79834,9.042053-10.472168,4.891357-21.360352,12.08075-31.055176,20.450012-21.803223,18.754089-38.476562,43.896729-43.153809,71.956909-5.077148,30.245972,3.279785,63.724365,24.712891,86.217407,27.279541,29.340027,73.543213,39.513306,109.836426,21.268005,10.677734-4.932373,17.509766-11.907471,26.482422-17.711914,6.450684-4.296021,18.67627-7.027588,21.095215,2.858887,1.355469,7.845337-3.375488,16.794189-7.815918,23.223877-11.53125,16.098877-31.090332,27.563049-45.967773,39.037964-11.114746,8.155151-22.233398,17.156311-31.905273,27.40741" fill="url(#radial-gradient)" stroke="#a6887f" stroke-miterlimit="10" stroke-width="3"/><path d="M99.564493,258.906507c-4.266751-5.893555-8.723869-10.788354-15.293502-13.636253-13.88422-6.885473-31.45337-6.383169-44.66802,1.846414-8.991319,5.896277-13.174645,16.363953-19.017048,24.981238-3.398171,5.002359-7.383803,9.524482-10.362464,14.458608" fill="none" stroke="#a6887f" stroke-linecap="round" stroke-miterlimit="10"/><circle cx="167.24661" cy="289.357497" r="25.925926" fill="url(#radial-gradient-2)" stroke="#231f20" stroke-miterlimit="10" stroke-width=".75"/><path d="M167.246495,333.332535c-24.248047,0-43.974609-19.727051-43.974609-43.975098s19.726562-43.975098,43.974609-43.975098c11.74707,0,22.790039,4.574219,31.095703,12.879883,1.952148,1.953125,1.952148,5.118652-.000977,7.071289-1.951172,1.952148-5.118164,1.952148-7.071289,0-6.416016-6.416992-14.948242-9.951172-24.023438-9.951172-18.733398,0-33.974609,15.241211-33.974609,33.975098s15.241211,33.975098,33.974609,33.975098c8.349609,0,16.375977-3.056641,22.600586-8.607422,2.063477-1.838379,5.223633-1.656738,7.05957.404297,1.837891,2.061035,1.657227,5.22168-.40332,7.05957-8.05957,7.186035-18.449219,11.143555-29.256836,11.143555Z" fill="url(#radial-gradient-3)" stroke="#231f20" stroke-miterlimit="10" stroke-width=".75"/></svg>