<?xml version="1.0" encoding="UTF-8"?><svg id="Layer_1" xmlns="http://www.w3.org/2000/svg" width="946.727742" height="238.920708" viewBox="0 0 946.727742 238.920708"><path d="M390.150024,73.700012c0,13.059998-9.450012,25.309998-25.960022,35.849976-33.559998-21.429993-96.279968-35.849976-168.119995-35.849976-71.829956,0-134.549988,14.419983-168.109985,35.849976C11.450012,99.01001,2,86.76001,2,73.700012,2,34.099976,88.890015,2,196.070007,2c107.190002,0,194.080017,32.099976,194.080017,71.700012Z" fill="rgba(227,244,247,.2)"/><path d="M364.190002,109.549988c-33.559998,21.429993-96.280029,35.849976-168.119995,35.849976-71.830017,0-134.549988-14.419983-168.109985-35.849976,33.559998-21.429993,96.279968-35.849976,168.109985-35.849976,71.839966,0,134.559998,14.419983,168.119995,35.849976Z" fill="rgba(226,243,247,.2)" stroke="#78b1cc" stroke-miterlimit="10" stroke-width="4"/><path d="M390.150024,73.700012c0,13.059998-9.450012,25.309998-25.960022,35.849976-33.559998,21.429993-96.280029,35.849976-168.119995,35.849976-71.830017,0-134.549988-14.419983-168.109985-35.849976C11.450012,99.01001,2,86.76001,2,73.700012,2,34.099976,88.890015,2,196.070007,2c107.190002,0,194.080017,32.099976,194.080017,71.700012Z" fill="none" stroke="#77b1cc" stroke-miterlimit="10" stroke-width="4"/><path d="M390.150024,73.700012v71.699951c0,39.600037-86.890015,71.710022-194.080017,71.710022C88.890015,217.109985,2,185,2,145.399963v-71.699951c0,13.059998,9.450012,25.309998,25.960022,35.849976,33.559998,21.429993,96.279968,35.849976,168.109985,35.849976,71.839966,0,134.559998-14.419983,168.119995-35.849976,16.51001-10.539978,25.960022-22.789978,25.960022-35.849976Z" fill="rgba(226,243,247,.2)" stroke="#78b1cc" stroke-miterlimit="10" stroke-width="4"/><path d="M944.228075,93.010948c0,13.059998-9.450012,25.309998-25.960022,35.849976-33.559998-21.429993-96.279968-35.849976-168.119995-35.849976-71.829956,0-134.549988,14.419983-168.109985,35.849976-16.51001-10.539978-25.960022-22.789978-25.960022-35.849976,0-39.600037,86.890015-71.700012,194.070007-71.700012,107.190002,0,194.080017,32.099976,194.080017,71.700012Z" fill="rgba(227,244,247,.2)"/><path d="M918.267781,128.860649c-33.559998,21.429993-96.280029,35.849976-168.119995,35.849976-71.830017,0-134.549988-14.419983-168.109985-35.849976,33.559998-21.429993,96.279968-35.849976,168.109985-35.849976,71.839966,0,134.559998,14.419983,168.119995,35.849976Z" fill="rgba(227,244,247,.2)"/><path d="M750.147664,166.710747c-69.424316,0-134.25293-13.857422-169.185547-36.164062l-2.640137-1.685547,2.640137-1.685547c34.932129-22.307617,99.760254-36.165039,169.185547-36.165039,69.431641,0,134.263672,13.857422,169.196289,36.165039l2.639648,1.685547-2.639648,1.685547c-34.932617,22.306641-99.765625,36.164062-169.196289,36.164062ZM585.840047,128.861137c34.91748,20.929688,97.381836,33.849609,164.307617,33.849609,66.932617,0,129.400391-12.919922,164.318359-33.849609-34.916992-20.930664-97.385742-33.850586-164.318359-33.850586-66.926758,0-129.391113,12.919922-164.307617,33.850586Z" fill="#e2f3f7" stroke="#58595b" stroke-miterlimit="10"/><g opacity=".2"><path d="M944.228075,95.00576v71.699951c0,39.600037-86.890015,71.710022-194.080017,71.710022-107.179993,0-194.070007-32.109985-194.070007-71.710022v-71.699951c0,13.059998,9.450012,25.309998,25.960022,35.849976,33.559998,21.429993,96.279968,35.849976,168.109985,35.849976,71.839966,0,134.559998-14.419983,168.119995-35.849976,16.51001-10.539978,25.960022-22.789978,25.960022-35.849976Z" fill="#e2f3f7"/></g><path d="M750.147664,238.420708c-52.066895,0-101.047852-7.503906-137.92041-21.128906-37.498047-13.856445-58.149414-32.529297-58.149414-52.581055v-71.700195h4c0,11.894531,8.657715,23.708984,25.036621,34.165039,34.326172,21.918945,98.329102,35.535156,167.033203,35.535156,68.710938,0,132.717773-13.616211,167.043945-35.535156,16.378906-10.456055,25.036133-22.269531,25.036133-34.165039h4v71.700195c0,20.051758-20.651367,38.725586-58.150391,52.581055-36.874023,13.625-85.858398,21.128906-137.929688,21.128906ZM558.07784,108.029106v56.681641c0,18.254883,19.723145,35.595703,55.535645,48.829102,36.439941,13.464844,84.928711,20.880859,136.53418,20.880859,51.610352,0,100.101562-7.416016,136.542969-20.880859,35.813477-13.233398,55.537109-30.574219,55.537109-48.829102v-56.681641c-4.295898,7.955078-12.00293,15.572266-22.883789,22.517578-34.932617,22.306641-99.765625,36.164062-169.196289,36.164062-69.424316,0-134.25293-13.857422-169.185547-36.164062-10.880859-6.946289-18.588379-14.5625-22.884277-22.517578Z" fill="#e2f3f7" stroke="#58595b" stroke-miterlimit="10"/><path d="M750.147664,166.710747c-69.424316,0-134.25293-13.857422-169.185547-36.164062-17.587891-11.227539-26.884277-24.208008-26.884277-37.536133,0-20.050781,20.651367-38.72168,58.149414-52.576172,36.871094-13.621094,85.852539-21.123535,137.92041-21.123535,52.072266,0,101.056641,7.502441,137.929688,21.123535,37.499023,13.853516,58.150391,32.525391,58.150391,52.576172,0,13.329102-9.295898,26.308594-26.883789,37.536133-34.932617,22.306641-99.765625,36.164062-169.196289,36.164062ZM750.147664,23.311333c-51.606934,0-100.095703,7.413086-136.53418,20.875977-35.8125,13.230469-55.535645,30.569336-55.535645,48.823242,0,11.894531,8.657715,23.708008,25.036621,34.165039,34.326172,21.918945,98.329102,35.535156,167.033203,35.535156,68.710938,0,132.717773-13.616211,167.043945-35.535156,16.378906-10.456055,25.036133-22.270508,25.036133-34.165039,0-18.253906-19.723633-35.592773-55.537109-48.823242-36.439453-13.462891-84.931641-20.875977-136.542969-20.875977Z" fill="#e2f3f7" stroke="#58595b" stroke-miterlimit="10"/></svg>