<?xml version="1.0" encoding="UTF-8"?><svg id="Layer_1" xmlns="http://www.w3.org/2000/svg" width="240.055556" height="737.439571" xmlns:xlink="http://www.w3.org/1999/xlink" viewBox="0 0 240.055556 737.439571"><defs><radialGradient id="radial-gradient" cx="120.263347" cy="196.027811" fx="120.263347" fy="196.027811" r="160.094947" gradientUnits="userSpaceOnUse"><stop offset="0" stop-color="#d5d7e9"/><stop offset=".28795" stop-color="#d3d5e7" stop-opacity=".99532"/><stop offset=".466881" stop-color="#cccfe4" stop-opacity=".979896"/><stop offset=".616128" stop-color="#c1c4de" stop-opacity=".953587"/><stop offset=".749006" stop-color="#b1b5d6" stop-opacity=".916352"/><stop offset=".871031" stop-color="#9ca2cb" stop-opacity=".868126"/><stop offset=".983603" stop-color="#848bbe" stop-opacity=".809729"/><stop offset="1" stop-color="#8088bc" stop-opacity=".8"/></radialGradient><radialGradient id="radial-gradient-2" cx="120.027778" cy="568.134261" fx="120.027778" fy="568.134261" r="144.532144" gradientUnits="userSpaceOnUse"><stop offset="0" stop-color="#feefd9"/><stop offset=".292949" stop-color="#fdeed7" stop-opacity=".995071"/><stop offset=".475047" stop-color="#fdebd0" stop-opacity=".978816"/><stop offset=".626858" stop-color="#fde7c6" stop-opacity=".951106"/><stop offset=".762063" stop-color="#fde0b7" stop-opacity=".911877"/><stop offset=".884956" stop-color="#fcd8a3" stop-opacity=".861664"/><stop offset="1" stop-color="#fccf8c" stop-opacity=".8"/></radialGradient></defs><path d="M67.13492,2.25v209.777771c0,40-63.555664,44.888794-63.555664,112-6.763894,42.184028,71.565154,73.832711,136.429368,63.962041,4.944832-.325344,8.285577-4.684442,7.983509-9.490036,1.126295-25.914438,39.201581-32.50943,49.242104-9.245333,1.633429,3.378863,5.841128,4.62147,9.156594,2.859539,21.11959-11.223535,30.966257-27.660286,30.966257-48.086211,0-64-64.444458-70.22229-63.555542-112,1.039917-48.879761,0-209.777771,0-209.777771" fill="url(#radial-gradient)" stroke="#2b388f" stroke-linecap="round" stroke-miterlimit="10" stroke-width="4.5"/><path d="M172.472223,735.189571s1.928886-137.24542.888889-186.125266c-.888889-41.777778,64.444444-45.066907,64.444444-129.111111,0-30.444444-28.085188-15.384754-33.015375-13.446977-47.17383,26.958732-118.473356,34.597273-172.76209,2.551532-12.161195-4.679248-29.775468-16.885686-29.77809,12.562112-.008048,90.38653,64.444444,87.444444,64.444444,127.444444,0,55.111111-.888889,186.125266-.888889,186.125266" fill="url(#radial-gradient-2)" stroke="#bb8330" stroke-linecap="round" stroke-miterlimit="10" stroke-width="4.5"/><path d="M193.246145,372.032764c.100293,6.864891-10.683309,6.864994-10.582132-.000473-.100322-6.864418,10.68328-6.864521,10.582132.000473Z" fill="#3399a5"/><path d="M179.496297,386.768018c.100293,6.864891-10.683309,6.864994-10.582132-.000473-.100322-6.864418,10.68328-6.864521,10.582132.000473Z" fill="#3399a5"/><path d="M195.369539,393.865688c.100293,6.864891-10.683309,6.864994-10.582132-.000473-.100322-6.864418,10.68328-6.864521,10.582132.000473Z" fill="#3399a5"/><path d="M174.517687,366.741683c.106706,7.304146-11.366874,7.304253-11.259229-.000504-.106736-7.303642,11.366844-7.303749,11.259229.000504Z" fill="#3399a5"/><path d="M125.813015,265.536727c.49145,33.667196-52.392478,33.667409-51.896695-.002317-.491591-33.664879,52.392336-33.665092,51.896695.002317Z" fill="#fff" stroke="#1c7fa8" stroke-linecap="round" stroke-miterlimit="10"/><path d="M97.211428,249.57104c.106706,7.304146-11.366874,7.304253-11.259229-.000504-.106736-7.303642,11.366844-7.303749,11.259229.000504Z" fill="#3399a5"/><path d="M121.433651,270.297239c.106706,7.304146-11.366874,7.304253-11.259229-.000504-.106736-7.303642,11.366844-7.303749,11.259229.000504Z" fill="#3399a5"/><path d="M106.507725,266.94141c.106706,7.304146-11.366874,7.304253-11.259229-.000504-.106736-7.303642,11.366844-7.303749,11.259229.000504Z" fill="#3399a5"/><path d="M114.211428,251.645114c.106706,7.304146-11.366874,7.304253-11.259229-.000504-.106736-7.303642,11.366844-7.303749,11.259229.000504Z" fill="#3399a5"/><path d="M102.841058,281.556498c.106706,7.304146-11.366874,7.304253-11.259229-.000504-.106736-7.303642,11.366844-7.303749,11.259229.000504Z" fill="#3399a5"/><path d="M91.581799,266.94141c.106706,7.304146-11.366874,7.304253-11.259229-.000504-.106736-7.303642,11.366844-7.303749,11.259229.000504Z" fill="#3399a5"/><path d="M208.748904,291.892555c.49145,33.667196-52.392478,33.667409-51.896695-.002317-.491591-33.664879,52.392336-33.665092,51.896695.002317Z" fill="#fff" stroke="#1c7fa8" stroke-linecap="round" stroke-miterlimit="10"/><path d="M180.147317,275.926868c.106706,7.304146-11.366874,7.304253-11.259229-.000504-.106736-7.303642,11.366844-7.303749,11.259229.000504Z" fill="#3399a5"/><path d="M202.776947,295.704646c.106706,7.304146-11.366874,7.304253-11.259229-.000504-.106736-7.303642,11.366844-7.303749,11.259229.000504Z" fill="#3399a5"/><path d="M191.406576,309.784168c.106706,7.304146-11.366874,7.304253-11.259229-.000504-.106736-7.303642,11.366844-7.303749,11.259229.000504Z" fill="#3399a5"/><path d="M198.875775,278.667609c.106706,7.304146-11.366874,7.304253-11.259229-.000504-.106736-7.303642,11.366844-7.303749,11.259229.000504Z" fill="#3399a5"/><path d="M188.906576,292.815757c.106706,7.304146-11.366874,7.304253-11.259229-.000504-.106736-7.303642,11.366844-7.303749,11.259229.000504Z" fill="#3399a5"/><path d="M175.036206,287.186127c.106706,7.304146-11.366874,7.304253-11.259229-.000504-.106736-7.303642,11.366844-7.303749,11.259229.000504Z" fill="#3399a5"/><path d="M174.517687,301.334276c.106706,7.304146-11.366874,7.304253-11.259229-.000504-.106736-7.303642,11.366844-7.303749,11.259229.000504Z" fill="#3399a5"/></svg>