<?xml version="1.0" encoding="UTF-8"?><svg id="Layer_1" xmlns="http://www.w3.org/2000/svg" width="511.81075" height="299.05664" viewBox="0 0 511.81075 299.05664"><line x1="140.44228" y1="219.95887" x2="72.04228" y2="260.77076" fill="none" stroke="#231f20" stroke-linecap="round" stroke-miterlimit="10" stroke-width="4"/><line x1="197.41095" y1="133.78135" x2="148.6958" y2="163.32559" fill="none" stroke="#231f20" stroke-linecap="round" stroke-miterlimit="10" stroke-width="4"/><line x1="242.50021" y1="216.17265" x2="242.09005" y2="159.20021" fill="none" stroke="#231f20" stroke-linecap="round" stroke-miterlimit="10" stroke-width="4"/><line x1="148.38294" y1="210.61959" x2="197.72381" y2="239.10655" fill="none" stroke="#231f20" stroke-linecap="round" stroke-miterlimit="10" stroke-width="4"/><line x1="440.28041" y1="118.1684" x2="440.28039" y2="42.09889" fill="none" stroke="#231f20" stroke-linecap="round" stroke-miterlimit="10" stroke-width="4"/><polygon points="374.70264 232.36621 378.5459 156.29663 381.78564 156.29663 385.62915 232.36621 374.70264 232.36621 374.70264 232.36621" fill="#231f20"/><line x1="450.19261" y1="118.1684" x2="450.19259" y2="42.09889" fill="none" stroke="#231f20" stroke-linecap="round" stroke-miterlimit="10" stroke-width="4"/><polyline points="251.59169 156.68179 315.86062 117.70465 315.89696 117.70465 380.16588 156.68179 380.7194 156.68179 444.98832 117.70465 445.54183 117.70465 509.81075 156.68179" fill="none" stroke="#231f20" stroke-linecap="round" stroke-miterlimit="10" stroke-width="4"/><text transform="translate(.00032 277.04708) scale(.98383 1)" fill="#231f20" font-family="TimesNewRomanPS-BoldMT, &apos;Times New Roman&apos;" font-size="45" font-weight="700"><tspan x="0" y="0">HO</tspan></text><text transform="translate(429.86046 37.39767) scale(.98383 1)" fill="#231f20" font-family="TimesNewRomanPS-BoldMT, &apos;Times New Roman&apos;" font-size="45" font-weight="700"><tspan x="0" y="0">O</tspan></text><text transform="translate(366.50879 269.32855) scale(.98383 1)" fill="#231f20" font-family="TimesNewRomanPS-BoldMT, &apos;Times New Roman&apos;" font-size="45" font-weight="700"><tspan x="0" y="0">NH</tspan></text><text transform="translate(432.91699 284.3139) scale(.57357)" fill="#231f20" font-family="TimesNewRomanPS-BoldMT, &apos;Times New Roman&apos;" font-size="45" font-weight="700"><tspan x="0" y="0">2</tspan></text><polygon points="140.52394 155.62393 140.52394 219.74893 196.05781 251.81143 251.59169 219.74893 251.59169 155.62393 196.05781 123.56143 140.52394 155.62393" fill="none" stroke="#231f20" stroke-linecap="round" stroke-miterlimit="10" stroke-width="4"/></svg>