<?xml version="1.0" encoding="UTF-8"?><svg xmlns="http://www.w3.org/2000/svg" width="239.78711" height="584.31836" viewBox="0 0 239.78711 584.31836"><g id="Layer_1"><line x1="75.35208" y1="175.83667" x2="158.97992" y2="175.83662" fill="none" stroke="#231f20" stroke-linecap="round" stroke-miterlimit="10" stroke-width="4"/><text transform="translate(36.8989 190.47064) scale(.98383 1)" fill="#231f20" font-family="TimesNewRomanPS-BoldMT, &apos;Times New Roman&apos;" font-size="40.5" font-weight="700"><tspan x="0" y="0">H</tspan></text><text transform="translate(179.59286 47.35956) scale(.98383 1)" fill="#231f20" font-family="TimesNewRomanPS-BoldMT, &apos;Times New Roman&apos;" font-size="40.5" font-weight="700"><tspan x="0" y="0">H</tspan></text><text transform="translate(166.83704 190.47089) scale(.98383 1)" fill="#231f20" font-family="TimesNewRomanPS-BoldMT, &apos;Times New Roman&apos;" font-size="40.5" font-weight="700"><tspan x="0" y="0">OH</tspan></text><text transform="translate(34.5787 33.65814) scale(.98383 1)" fill="#231f20" font-family="TimesNewRomanPS-BoldMT, &apos;Times New Roman&apos;" font-size="40.5" font-weight="700"><tspan x="0" y="0">O</tspan></text><line x1="67.49508" y1="274.48699" x2="151.12292" y2="274.48694" fill="none" stroke="#231f20" stroke-linecap="round" stroke-miterlimit="10" stroke-width="4"/><text transform="translate(.00035 289.72827) scale(.98383 1)" fill="#231f20" font-family="TimesNewRomanPS-BoldMT, &apos;Times New Roman&apos;" font-size="40.5" font-weight="700"><tspan x="0" y="0">HO</tspan></text><text transform="translate(158.98004 289.12122) scale(.98383 1)" fill="#231f20" font-family="TimesNewRomanPS-BoldMT, &apos;Times New Roman&apos;" font-size="40.5" font-weight="700"><tspan x="0" y="0">H</tspan></text><line x1="68.3319" y1="373.1371" x2="151.95974" y2="373.13706" fill="none" stroke="#231f20" stroke-linecap="round" stroke-miterlimit="10" stroke-width="4"/><text transform="translate(29.87872 387.77106) scale(.98383 1)" fill="#231f20" font-family="TimesNewRomanPS-BoldMT, &apos;Times New Roman&apos;" font-size="40.5" font-weight="700"><tspan x="0" y="0">H</tspan></text><text transform="translate(159.81686 387.7713) scale(.98383 1)" fill="#231f20" font-family="TimesNewRomanPS-BoldMT, &apos;Times New Roman&apos;" font-size="40.5" font-weight="700"><tspan x="0" y="0">OH</tspan></text><line x1="76.1888" y1="471.78692" x2="159.81664" y2="471.78688" fill="none" stroke="#231f20" stroke-linecap="round" stroke-miterlimit="10" stroke-width="4"/><text transform="translate(37.73563 486.4209) scale(.98383 1)" fill="#231f20" font-family="TimesNewRomanPS-BoldMT, &apos;Times New Roman&apos;" font-size="40.5" font-weight="700"><tspan x="0" y="0">H</tspan></text><text transform="translate(167.67377 486.42114) scale(.98383 1)" fill="#231f20" font-family="TimesNewRomanPS-BoldMT, &apos;Times New Roman&apos;" font-size="40.5" font-weight="700"><tspan x="0" y="0">OH</tspan></text><line x1="117.166" y1="98.10083" x2="176.2998" y2="38.967" fill="none" stroke="#231f20" stroke-linecap="round" stroke-miterlimit="10" stroke-width="4"/><line x1="58.03216" y1="37.55306" x2="117.166" y2="96.68685" fill="none" stroke="#231f20" stroke-linecap="round" stroke-miterlimit="10" stroke-width="4"/><line x1="64.39246" y1="31.19275" x2="123.52629" y2="90.32654" fill="none" stroke="#231f20" stroke-linecap="round" stroke-miterlimit="10" stroke-width="4"/><text transform="translate(106.41885 557.56238) scale(.98383 1)" fill="#231f20" font-family="TimesNewRomanPS-BoldMT, &apos;Times New Roman&apos;" font-size="40.5" font-weight="700"><tspan x="0" y="0">CH</tspan></text><text transform="translate(166.18643 571.04871) scale(.57357)" fill="#231f20" font-family="TimesNewRomanPS-BoldMT, &apos;Times New Roman&apos;" font-size="40.5" font-weight="700"><tspan x="0" y="0">2</tspan></text><text transform="translate(177.80167 557.56238) scale(.98383 1)" fill="#231f20" font-family="TimesNewRomanPS-BoldMT, &apos;Times New Roman&apos;" font-size="40.5" font-weight="700" letter-spacing="-.00002em"><tspan x="0" y="0">OH</tspan></text></g><g id="Dimensions"><line x1="117.166" y1="98.10083" x2="117.166" y2="518.96387" fill="none" stroke="#231f20" stroke-linecap="round" stroke-miterlimit="10" stroke-width="4"/></g></svg>