<?xml version="1.0" encoding="UTF-8"?><svg id="Layer_1" xmlns="http://www.w3.org/2000/svg" width="394.459939" height="453.678615" xmlns:xlink="http://www.w3.org/1999/xlink" viewBox="0 0 394.459939 453.678615"><defs><radialGradient id="radial-gradient" cx="196.740284" cy="226.839308" fx="196.740284" fy="64.205619" r="211.847923" gradientTransform="translate(0 -27.681932) scale(1 1.122033)" gradientUnits="userSpaceOnUse"><stop offset="0" stop-color="#f6f6d3"/><stop offset=".184058" stop-color="#f1f2b7"/><stop offset=".580563" stop-color="#e4e872"/><stop offset="1" stop-color="#d6de23"/></radialGradient></defs><path d="M289.660759,310.20945c17.562498-3.449947,27.490393,4.286108,42.676522-12.72171.87736-.982606,2.219562-1.418334,3.506318-1.13632,14.34184,3.143255,27.087945,13.732784,42.797534,9.646736,5.156982-1.15918,11.273926-.750488,13.669739,4.379639-2.417786-11.202393-19.96167-3.764404-28.651917-6.667725-.487732-.163086-.98053-.3125-1.486877-.402344-8.459989-1.501596-15.769534-5.798558-24.064798-7.743085-1.529896-.358629-2.067932-2.278647-.955634-3.388597,3.193714-3.186971,6.888139-5.91913,10.180117-8.548243.647982-.517505.028216-1.515231-.734978-1.190843-1.676264.712478-3.444009,2.274537-4.78219,2.993814,4.892761-6.845703,15.445679-6.414551,23.34375-5.972412,9.593933.232178,20.689697-.830078,27.582886-8.308105-12.927286,8.961691-22.990348,5.889006-36.788426,6.355575-4.582021.154937-9.060066,1.624171-12.722678,4.381742-13.601569,10.240588-17.39458,27.73622-40.719373,25.447878-1.068897-.104867-1.531269-1.436112-.744152-2.166855,3.322037-3.084108,8.6777-3.634473,12.149128-6.714141,4.681885-3.546143,8.538818-8.59375,9.800537-14.399658.079468-.344238-.449402-.484375-.559448-.160645-5.763447,16.52775-15.507986,14.112186-22.443643,21.257321-1.105925,1.139327-2.600896,1.838982-4.188428,1.868659-3.602623.067347-7.217268.512629-10.491481,1.9913-1.04852.473523-2.254595.492875-3.287113-.014594-9.622056-4.729115-18.382097-11.331773-26.989024-17.941067-1.87969-1.443422-1.148565-4.394643,1.175325-4.859657,15.770252-3.155647,32.468728,6.623313,48.581481,3.222941,14.129693-2.227361,17.309746-13.055656,26.022904-21.61368.902041-.885981,2.266701-1.138226,3.418134-.615882,4.663652,2.115651,6.249303,4.760639,13.245424,3.353586,3.356995-.126709,6.496521,3.999756,9.737366,2.803223-3.84552-1.518555-8.433716-4.821777-13.119385-3.618164-3.553243.778927-6.002412-1.848817-8.869099-3.385871-.765599-.410497-.77358-1.487942-.015238-1.911696,1.355714-.757559,2.803136-1.330323,4.352538-1.632365,1.657028-3.094002-5.709151.294347-9.388798,2.872042-.361143.252991-.80657-.195517-.55331-.556471,3.878876-5.528319,10.570742-8.352122,12.00766-16.638569.106995-.324951-.384094-.520264-.536804-.220703-1.683418,4.884231-5.061126,8.196069-8.716722,11.409691-2.7977,2.459448-5.156699,5.392781-6.858492,8.706376-3.990768,7.7705-9.309602,15.437417-17.692364,18.15493,1.262451-4.575195,5.144897-12.240234-.869629-15.056885-.305176-.094727-.518311.351807-.246643.5271,4.212513,3.278186,2.037065,7.861117.682306,12.262886-.529677,1.720983-1.985093,2.982504-3.762419,3.271386-6.319328,1.027128-13.067628.141706-19.658496-1.050221-.368276-.066601-.346595-.591349.024084-.642921,6.356607-.884385,11.265879-5.803816,13.701646-11.768376.146179-.305664-.31012-.564697-.502625-.292725-4.347458,7.908386-8.947427,10.776384-17.552697,11.632181-.591423.058817-1.191058.034235-1.777253-.063824-8.588782-1.43674-18.71468-3.678323-26.757815.232544-1.200656.583803-2.610345.504566-3.688166-.28328-13.796423-10.084657-29.265711-19.366839-46.375205-20.251494-2.871859-.148491-5.398691-1.996182-6.379791-4.699341-6.9726-19.211139,6.756317-29.833704,16.145906-45.572276.359463-.602522,1.276019-.222915,1.102384.456862-6.027498,23.597513,10.094575,23.011074-6.539568,43.313031.815491,2.540527,6.667786-5.903564,8.88562-11.560791.53186-1.356689,2.354614-1.55835,3.215149-.382324,4.672974,6.386963,11.002747,11.86084,17.054138,16.293457.42334.328857.96582-.31543.555237-.673828-49.580791-40.065791,2.561845-49.500729-31.436759-102.490527-2.127359-3.315675,1.649101-7.324594,5.010486-5.270221,14.130639,8.636205,18.919953,29.573847,29.450565,42.133917,5.063898,6.443341,10.55778,7.794791,13.209375,16.037374.62664,1.947934-.29792,4.022721-2.095181,5.000975-1.194948.650414-2.321745,1.420178-3.258732,2.402989-.587839.616588-1.431211.937742-2.264154.759017-8.713305-1.86962-4.548614,9.857956-20.094055,9.493614-.340454-.011719-.402527.499512-.075928.577148,4.335205.993896,9.028198-.708496,12.27417-3.631836,3.112748-2.642103,3.025918-6.443803,7.203361-5.531079.740819.16186,1.221108.922452,1.049199,1.661004-.398133,1.71045-.079173,3.548609.216678,5.111531,2.201355,9.883789-8.076843,15.208496-15.7901,18.30835-.326843.148682-.117249.646729.211548.54248,4.805748-1.486394,10.026636-3.807282,13.417386-7.670519.495274-.564289,1.417207-.199257,1.365551.549776-.212618,3.083012-1.839627,6.421827.186485,9.238419.164856.250488.589111.084473.53894-.213867-1.525791-3.706425,1.092577-7.471546.140407-11.044202-.190279-.71395-.181426-1.469609.111549-2.147913,3.187763-7.380399-3.149916-13.845915,5.968906-18.033039,1.029119-.472544,2.252024.139601,2.485486,1.247699,1.210846,5.747123,1.744466,11.672259,2.705377,17.136273.155318.883181-.089645,1.765407-.614609,2.492418-5.918485,8.196386,7.191207,21.77906-7.474179,26.341195-.463135,2.237305,6.731689-2.311279,6.904724-3.862793,4.610903-6.248286-2.379188-14.535929.689473-20.794586.303957-.619932,1.2311-.503501,1.395255.167139.670257,2.738275,1.555077,5.439158,2.865804,7.921277,1.033799,1.247392,2.041603,2.463419,3.075401,3.710811.623154.581452,1.074263,1.328135,1.270807,2.182702.457908,1.990965.866568,4.029852,2.054394,5.833409,2.89209,4.211914,8.597229,4.731689,11.445984,8.78125.190613.286865.646118.026123.509216-.281738-2.108032-4.592529-8.467773-5.052734-11.085388-9.075195-2.236498-3.51023-1.674249-9.164639-5.066438-12.022759-.670409-.564859-1.243062-1.246746-1.532673-2.074176-1.987517-5.678418-2.780776-11.624202-3.560057-17.603749-.200576-1.539052,1.792218-2.282455,2.675685-1.006368,7.187689,10.381951-1.763774,17.023907,22.350793,22.737814-26.429062-9.938267-11.990216-13.087524-23.403496-25.554184-1.573931-1.719196-2.656314-3.834829-3.148966-6.113028-.4091-1.891825-.927722-3.788565-1.573545-5.643533-.662059-1.9016,1.191708-3.663039,3.064749-2.924038,6.406906,2.52782,13.293774,3.890111,20.205283,4.43681.794174.062819,1.509034.489669,1.951164,1.152374,2.489276,3.731151,3.412555,8.112126,4.128566,12.512461.200848,1.234339-.137759,2.49328-.914466,3.473413-3.610376,4.555964-.481016,11.686957.04325,16.871638,1.044434,6.821777-7.205078,10.952148-6.097717,17.746582.06311.348633.604797.267334.577087-.074707-.109436-3.198242,1.748901-5.913574,3.492737-8.486084,6.81953-6.656229-.723642-16.529843,2.026605-23.725462.341819-.894318,1.653357-.759933,1.835295.180037,1.369285,7.07431,4.380943,13.932835,9.062252,19.454136.526004.620388.860421,1.37553.950321,2.18391.559547,5.031447.326197,10.167407-2.973654,14.280914-.195496.261475.158752.608643.416809.40625,3.665513-3.260168,4.170703-8.245717,3.76983-13.019432-.048878-.582055.632483-.929294,1.06759-.539603,1.380864,1.236734,3.528576,3.006398,4.715429,3.249575,1.077639.2208,2.079376.704237,3.037855,1.24403,4.048287,2.279899,10.820861,4.388908,12.570613,2.048095-9.740971.295394-18.392127-5.776206-23.759065-13.54073-.470685-.680956.020748-1.605319.848505-1.597361,9.253571.088963,19.497623,2.745193,27.470008-3.933686.281616-.20459-.016418-.654053-.313293-.489014-10.38427,6.554792-17.853917,2.981665-27.822475,3.455086-1.136689.053983-2.215904-.539923-2.772973-1.532219-3.284759-5.851084-4.103618-12.375359-5.314101-19.025946-.13967-.767367.824534-1.209968,1.324112-.610984,12.929554,15.50228,27.821157,3.348838,49.732165,17.113234-19.51086-16.387923-35.871917-.419208-51.408469-20.363961-.444765-.570958-.75705-1.236362-.966878-1.929024-.502517-1.658851-1.119061-3.256803-1.910742-4.743711-.374144-.702704.134149-1.543899.929915-1.520844,4.709787.136455,15.35657.670332,10.557041-3.183182-7.950072-1.197445-16.16934-1.712835-23.984167-3.259269-.643144-.127268-.596048-1.053203.055487-1.126235,3.829692-.429277,8.005078.082049,11.603288-1.448395.466943-.198607.969275-.326981,1.476662-.320656,35.345594.440657,39.29496,18.891798,54.171179,14.042249-11.513306,1.42334-17.762451-7.007812-28.614685-11.09375-7.317651-1.786457-14.756528-3.130004-22.260847-3.710724-.932816-.072186-1.356059-1.155547-.743976-1.863155,1.587644-1.83542,2.70289-4.146286,3.687836-6.464407.472289-1.111555,1.548572-1.84603,2.755377-1.893292,8.008307-.313627,8.25627,3.128437,14.82107,8.303161,6.13501,3.158691,13.173401.040039,19.589355,1.002563.352905.058716.457581-.476196.125671-.568237-6.318359-1.80127-13.279846,1.792725-19.220032-1.35376-4.225193-3.526783-8.825371-9.678579-15.116498-8.416542-.860672.172656-1.569197-.672377-1.194067-1.466004,2.838629-6.005415,9.631074-10.780822,14.272662-3.938988,6.617676,9.692871,16.875854-2.108643,23.046082,9.124634.169312.309204.647766.08374.529846-.240967-2.370667-6.542847-10.003479-7.063232-15.754944-5.495117-4.452683.26919-6.455937-4.197238-9.675684-6.606002-.669692-.501012-.492831-1.538731.313281-1.761629,11.749696-3.248912-4.108305-2.32091-9.583242,1.521771-.658366.462086-1.576825-.077544-1.419868-.866425.888552-4.465938,7.122103-7.894665,6.615574-12.921992-.034424-.322876-.53595-.329712-.580994-.007935-.631716,5.46071-8.05803,9.335596-7.124602,14.863456.119749.709167-.013398,1.4353-.456618,2.001705-1.659888,2.121223-2.664159,4.873905-3.722232,7.40765-.238973.572262-1.069257.51793-1.218364-.084033-.707645-2.856849-2.678367-5.623413-3.382725-8.295345-1.468506-4.137695,4.545959-9.727905-.420044-12.769409-.304199-.137817-.565674.31189-.286072.505615,2.788635,2.415161.303223,6.052979-.382568,8.939941-1.155762,5.88855,5.346924,10.754395,3.290771,16.471924-1.576294,2.986328-4.955383,4.434082-8.204224,4.837646-3.633828.409834-7.873749.077763-11.405922,1.54043-1.067723.442142-2.244639.545932-3.348542.203995-18.697591-5.791632-24.18954-20.623524-32.801153-36.527217-.460312-.850091.287779-1.835609,1.232923-1.632524,8.732922,1.876466,16.325392,9.372501,25.681548,8.679738.717965-.053161,1.415264.225015,1.951668.705192,7.080025,6.337871,14.492661,20.79756,23.955468,17.982534-10.352643-.824393-15.034221-10.483274-21.720431-17.252726-.769461-.779041-.527896-2.091796.45943-2.565253,4.454609-2.136138,7.043803-7.289806,11.992873-8.62831,7.13633-2.388318,15.68049-.152549,23.020554-1.859961.828575-.192739,1.696932-.005621,2.424108.435855,8.565151,5.199991,13.608083,12.837611,24.854532,7.335484.325012-.117065.166504-.631348-.164307-.557129-10.963438,3.849938-14.543188-1.064426-22.287385-6.525812-.938362-.661754-.889727-2.056056.096661-2.64383,1.822351-1.085912,3.694259-2.56665,1.65929-2.699742-4.112042,2.678148-8.464235,3.287963-12.865812,3.367955-.617553.011223-.885172-.811997-.361348-1.139269,2.912655-1.819751,7.073031-.881513,10.321215-2.122851,8.020203-2.498901,13.859436-9.198608,18.484009-15.875732.207642-.290161-.235779-.61731-.458252-.358765-17.008427,21.970991-20.182948,11.429841-29.953304,18.76054-.628196.471335-1.399507.724443-2.184681.707467-2.425228-.052433-4.846607-.11783-7.23294.057236-.78154.057335-1.319123-.800764-.906552-1.467006,3.708077-5.988009,10.47669-8.467043,16.578319-11.567027,7.135681-4.643677,7.086853-14.465576,5.61554-21.888916-.051758-.356445-.609558-.277344-.578064.067993,4.025134,26.703168-13.59472,18.134135-23.010518,33.92843-.465333.780562-1.278847,1.259149-2.174222,1.41444-4.917726.852915-8.723718,6.282533-13.449545,8.876956-1.862649,1.022572-4.041009,1.296074-6.111275.817416-3.036452-.702045-8.836483-1.952967-11.781618-3.398-.789147-.387196-1.270979-1.195361-1.227522-2.073304.423646-8.558785,14.314557-4.11452,18.997071-9.566671,7.947815-7.351929,5.053528-22.456665,16.091248-26.979492-12.124878.496704-8.583679,23.483276-19.665527,28.072144-4.404175,1.859863-9.862122.549561-13.961975,3.635254-1.123272.859693-2.021735,2.116258-2.418615,3.488823-.311013,1.075604-1.5343,1.581196-2.552763,1.116024-3.093516-1.41293-6.256049-2.53807-9.657293-2.661119-.650514-.023534-1.232399-.392698-1.587156-.938473-5.719362-8.798931-14.620188-17.050582-25.021994-18.500388-4.12545-.575006-7.581751-3.38858-8.865188-7.351251-1.899638-5.865219-2.667113-12.146574-2.56531-18.346427.066423-4.045145,4.776452-6.248329,7.966271-3.759822,29.906351,23.331153,18.844067,3.699339,43.696753,19.823529.58477.379393.982212.985562,1.139565,1.664632,1.843349,7.955161,6.286651,10.045291,11.539314,15.937373.2677.394775.923584.080566.785522-.377686-2.075652-5.11097-8.134362-7.488494-9.826447-12.690095-.30232-.929356.710585-1.750476,1.554441-1.257519,4.765902,2.784108,10.800075,5.795265,15.74094,3.836775-6.967285-.740723-14.176147-3.955322-19.979675-8.315063-1.07666-.715698-2.154541-1.42981-3.244934-2.118774,3.302551-.157593,6.589905,1.299805,10.046204,1.107178,1.059021.752686,12.872131-5.774292,10.438538-6.000732-3.017349.09902-5.142422,2.58526-7.755822,3.738661-.914263.403502-1.677941-.815688-.93909-1.488585,2.196272-2.000219,6.137011-3.049418,5.22482-6.225906-.239014-.148926-.545593-.042236-.66571.205078-1.670416,2.957754-5.805429,3.780549-7.177058,6.994353-.295405.692149-1.020117,1.107819-1.766449,1.011265-2.630156-.340265-5.328721-1.198092-8.003169-.827993-.961575.133066-1.933605-.125924-2.770319-.618106-4.882502-2.872049-10.562599-3.233788-16.100673-3.592846-1.072492-.069534-1.515605-1.45375-.651687-2.093061,3.192651-2.362607,7.024379-3.026341,11.06231-3.182205,6.543518,1.345215,7.343018,6.276611,14.46759,2.340576.401123-.120361.396057-.743652-.013367-.855103-4.933694.123258-4.212784,1.921535-7.683437-.235906-.526441-.327249-.279349-1.129065.340469-1.121449,4.208017.051705,8.130084-1.131302,12.013335-1.306024.517047-.023264,1.016111.151087,1.457547.421297,5.393133,3.30122,12.409963.602426,18.398331.846697,1.230929-2.927621-11.258481.163306-16.487547-1.493283-.845702-.267922-1.048929-1.392876-.357599-1.948804,2.241486-1.802474,5.612439-5.860665,3.264946-5.482108-3.211982,5.387529-9.340517,7.015668-15.340152,7.220409-1.002453.034209-1.472159-1.209484-.717101-1.869763,2.116163-1.850532,6.370757-2.015387,7.317187-5.399979.257076-.919347.961046-1.652185,1.898635-1.831665,7.596951-1.454265,10.982564-.973732,15.821655-10.12303.246887-.440186-.40332-.873779-.720642-.491455-4.662646,6.651898-7.948053,8.340738-15.045068,8.905115-1.092445.086875-2.112666-.462493-2.746562-1.35645-2.70874-3.820023-9.026842-2.821875-13.176816-2.999593-1.07373.348633-6.288574-2.550293-5.617676-.532959,3.063599,2.455322,7.516296,2.224854,11.140076,2.157837,4.805481-.716919,9.860901,4.247192,5.215393,7.868286-1.975695,1.207871-5.623856,1.822976-6.489506,4.394907-.256655.762547-1.020137,1.236056-1.824427,1.214401-6.437814-.173336-13.891177.162062-18.603433,4.885654-.813888.815846-2.093283.962325-3.078172.363983-4.763036-2.893652-10.651641-7.572-16.339485-11.895567-1.03174-.784281-1.753288-2.096241-2.252935-3.616621-1.698544-5.168513,1.889889-10.530131,7.279581-11.27162.189987-.026138.369619-.053154.536717-.08105,24.280799-4.053549,42.584834-25.761927,41.268554-51.481608-1.299775-25.39717-22.05918-45.901559-47.469559-46.910677-28.288336-1.123409-51.57476,21.476565-51.57476,49.515385,0,17.498648,9.072834,32.871478,22.769171,41.685622,7.011819,4.512388,10.838692,12.715133,9.718667,20.977868-.013544.099916-.026833.199876-.039872.299905-.374537,2.873279-2.350652,5.260944-5.099581,6.177129-6.925007,2.308022-12.688851,7.640539-16.451972,13.924347-1.466236,2.448378-4.063853,3.976577-6.898649,4.305716-7.697719.893757-14.265453,4.889064-20.53735,9.639564-1.163413.8812-2.629556,1.231556-4.075193,1.03112-2.646557-.366941-5.403474.219218-8.092443.595949-1.627949.22808-3.292487-.27026-4.475384-1.411748-4.15412-4.0087-4.514771-7.899109,2.52245-10.550301,5.390564-3.578369,9.172729-10.60437,7.46991-17.06665-.168335-.623657-1.159546-.499146-1.152832.160278.211914,7.879883-4.438049,14.465454-11.628906,17.322021-3.48673,2.373341-2.696482,6.794894-.415476,9.774374.54327.709627-.112416,1.728301-.985056,1.535394-4.993759-1.103927-9.549962-3.917751-12.228648-8.234867-1.380478-2.224854-1.103246-5.056644.733312-6.922858,2.844355-2.890285,7.107805-4.932875,8.780146-8.76508,2.435242-5.296509-.854187-11.661743,2.015869-16.703613.310669-.538696-.429565-1.15625-.903198-.726562-4.622314,4.217773-.707825,11.678955-3.087891,16.51062-1.741934,3.60604-6.100845,5.68378-8.871596,8.823625-.56074.635437-1.597218.411743-1.832331-.402462-1.732107-5.998345-3.444971-12.766943-9.390128-15.786763-.6203-.30542-1.169678.584229-.59906.997803,7.295138,5.549816,6.845076,15.611157,10.865955,23.213344.423912.801481-.486219,1.664572-1.250767,1.17719-2.155335-1.373976-3.796281-3.814339-6.022658-5.118805-6.033264-3.614014-13.236389-3.497681-19.572937-6.228882-.591553-.257568-1.102356.584351-.605469.994019,5.442871,4.327637,13.295898,3.354004,19.006836,7.064209,3.058318,1.973368,5.62458,6.131993,9.510653,6.260837,1.239881.041109,2.419866.586359,3.339636,1.418837,6.481157,5.866052,15.316773,5.010318,23.587337,4.371698,1.051548-.081196,1.576504,1.244516.756869,1.908252-4.804449,3.890624-9.555367,7.661826-14.817854,10.438339-1.014063.535024-2.187396.652201-3.290687.340235-7.794127-2.203864-16.641828-3.105537-23.262372-8.174073-1.188664-.910014-1.486248-2.532181-.76482-3.843893,2.517754-4.577829.541163-8.591915-5.107466-10.554703-.304199-.116943-.538635.332764-.268372.516357,4.143984,2.310211,6.509731,4.920978,4.91793,8.537557-.631099,1.433859-2.533343,1.773702-3.607395.633241-5.827471-6.18779-9.468594-7.889747-18.421771-8.585189-1.385754-.107639-2.715653-.744421-3.555097-1.852227-2.721428-3.591445-.747952-8.212169-1.487354-12.544852-.477893-2.800314-.012732-5.701835,1.334279-8.202975,1.377134-2.557071,3.136437-4.904841,5.094127-7.087972-1.257346-1.625617-5.664955,5.427673-7.335912,9.336899-.345942.809336-1.39397.994262-2.024234.379877-2.683017-2.615419-8.297867-6.446046-8.680076-4.93516,17.817612,9.658113,6.991771,14.753391,11.794051,22.770826.454672.759077-.164992,1.720724-1.042476,1.606945-4.105312-.532319-7.998589-1.599798-11.171375-4.672082-.271729-.290161-.71759-.368652-1.078613-.161743-1.220365,2.936445,4.130803,5.789724,7.784294,6.984002,1.09223.357036,1.667888,1.51376,1.350628,2.6182-.930472,3.239145-.882525,6.84616-4.011204,8.880342-5.796997,4.424683-18.230042,3.018433-18.732422,12.651611.00769.350708.559753.356567.581726.01416.416587-2.321438,1.488385-3.928903,2.95019-5.118392.869615-.707617,2.15643-.080698,2.144368,1.040375-.042397,3.940458-2.389921,8.196912.144394,11.687026.198364.237061.609009.000977.502136-.291504-1.641861-3.920057.636592-8.00612.379547-11.990294-.082176-1.27372.647246-2.45538,1.862478-2.845672,9.616264-3.08843,12.677351-3.259349,15.343329-13.027504.435341-1.595091,1.947736-2.665679,3.592397-2.495593,3.432299.354957,6.904156.45731,10.163209,1.277141,1.096708.275882,1.428554,1.633693.595333,2.398298-2.649189,2.431029-3.608275,6.740986-7.26222,8.101105-.277344-.230835-.80365-.098145-.815186.352539-14.418659,3.198409-17.08587,5.308736-3.029979,1.86266.923217-.226345,1.69745.774483,1.203118,1.586393-1.135392,1.864812-1.953858,3.934616-1.601178,6.171064-1.503967,6.396362-10.197693,4.754272-13.86676,9.081055-.218994.253662.137756.640259.406372.416504,4.398865-3.528809,13.031555-2.563843,14.505493-9.337646-.543264-3.470273,1.488024-5.376273,2.847913-8.050627.319981-.629273.872025-1.089862,1.507628-1.397076,3.611095-1.745396,4.77246-7.239156,8.097429-8.856445,1.01013-.491334,2.230488-.209537,3.030527.578948,8.686555,8.561105,16.632259,14.467933,28.776988,16.443762.830445.135105.889213,1.325433.072237,1.526538-8.576262,2.111116-17.615688-.106463-25.461506-4.033186-2.520813-1.528076-8.980774-2.269409-9.230408-5.911621.034424-.339355-.477783-.438232-.571655-.108398-.378924,4.263035,6.303449,5.819547,10.771933,7.47633.622526.230814.463092,1.15353-.200805,1.160913-6.935999.077133-15.174549,2.389251-19.352378,6.866908.15802.458618.656372.702026,1.113831.5448,5.962454-2.019514,11.790075-4.519692,17.967174-4.447679.840595.0098,1.226163,1.03659.59104,1.587331-4.203456,3.644989-6.053873,9.676329-9.204194,14.317788-1.130447,1.665521-2.93214,2.766084-4.92265,3.065653-13.530097,2.03626-13.628976,8.867596-29.999485-2.537375-1.107634.683208,3.480583,3.39355,6.200713,4.874877.725638.395168.942346,1.372517.392818,1.989548-1.878177,2.108886-1.258681,6.08131-4.16134,7.378984-6.594116,2.484253-14.02771,2.144775-20.989197,2.7854-.351929.020752-.341614.555176-.00293.581543,5.756836.425781,11.53772-.295166,17.221924-1.176514,2.881165-.356201,6.382507-1.631836,7.141541-4.827148.541626-2.178955,1.583069-6.182983,4.378723-4.568604.275757.272827.629944.130615.774658-.12439,8.143913,2.311018,12.497152-2.591879,18.139868-3.589154.606835-.10725.888466.74313.344661,1.033003-7.933385,4.228848-18.421245,8.228583-19.229462,18.776732.596558,3.215823,3.600651-7.701187,9.328132-11.501081.89624-.59461,2.091345.042425,2.198532,1.112621.5171,5.162898-.832837,11.315789,3.851082,15.14139.240906.224854.625549-.104736.442017-.377197-1.963547-2.870985-3.232032-6.083868-3.274645-9.504917-.00842-.675987.923669-.870975,1.196277-.252336,2.047985,4.647564,3.266407,10.275907,9.439513,11.325124.315857.063232.473145-.410889.181885-.55127-7.391152-2.70214-6.379645-8.440883-9.581114-12.857427-.566267-.781186-.923434-1.68998-.96449-2.653943-.011468-.269257-.03328-.535526-.068397-.797267-.166629-1.24195.452856-2.457219,1.604506-2.951089,9.761068-4.185907,11.068733-5.776601,15.96633-15.340207.470551-.918852,1.858108-.782898,2.090956.22283.632305,2.73108-.255371,5.889971.65312,8.589912.240995.71621.119973,1.511116-.270486,2.158092-2.769502,4.58897,1.767265,11.829816-4.168158,14.987742-.276001.176025-.062195.627441.250488.525879,6.155368-2.042492,3.145597-8.826979,4.283969-13.515068.266968-1.099438,1.705503-1.382359,2.443482-.524791,2.502487,2.908016,4.414872,6.150604,4.104398,10.249819-.010925.344238.507629.400146.578247.069214,1.216248-4.970825-2.180298-9.25647-5.373718-12.589355.500854-.337036.04248-1.121704-.50061-.838013-1.53546-3.243996.111665-7.743794-1.575121-10.98419-.541725-1.040678-.402542-2.32659.287883-3.275163,7.823387-10.748526,19.158017,4.519138,39.882209-10.048021-.331414,1.064139-.507748,1.903351-.639369,2.835392-.099723.706169-.420243,1.351195-.888146,1.889421-1.937536,2.228733-2.154038,6.021124-3.847556,9.323041-1.09466,2.1343-3.209615,3.485015-5.568131,3.921953-.066787.012373-.124099.025979-.17008.04057-9.279663,4.930298-9.709534-.417603-17.977417-1.706909-.333435.005127-.374451.516235-.05127.57959,9.18103,3.324219,8.96582,6.421631,19.183167,2.029541-2.868286,2.106934-6.398804,3.393066-10.246765,3.620728.487305,2.369019,10.061218-1.444458,11.636292-3.359985.403809.241211.901367-.193604.697937-.608887,3.762299-2.720128,4.658229-7.284412,6.118728-11.233473.160034-.432719.805606-.305304.782064.15546-.499707,9.780202-2.574716,10.631996-9.588872,16.796182-.815173.716391-1.841333,1.116012-2.91535,1.27161-3.923479.568416-5.763545,5.794578-9.755213,5.656095-.303284-.074341-.49707.367432-.224609.536133,3.697938,1.522741,5.548107-3.035013,8.537084-4.572351.645488-.331998,1.325437.423673.964854,1.053639-2.21619,3.871857,1.785179.656529,3.591263-1.487392.375793.075684.59552-.232056.581238-.522583,1.016451-.898531,1.983078-1.693564,2.891132-2.443798.663008-.547777,1.664386-.110264,1.711062.748492.21697,3.99188.620932,9.091236,5.239663,9.493647.30658-.012451.37384-.479736.077759-.575073-4.317601-1.557476-3.954168-5.960505-4.30939-9.924626-.100638-1.123069.226781-2.255663,1.000909-3.075504,1.610979-1.706109,2.842691-3.643207,3.582328-6.499511.082825-.319851.542166-.292387.577198.036151.161246,1.512185.284268,2.602375.629485,4.460682-.14447.220215-.118652.544556.146545.696777.686584,2.975708,1.983398,5.748535,4.895386,7.014404.299927.119141.540894-.319092.278931-.509521-1.722215-1.237504-2.791181-2.871875-3.492891-4.706503-.167426-.437736.323189-.838945.7253-.598215,3.134447,1.876483,7.448636,4.674187,10.129285,1.146638.146545-.262939-.201904-.564575-.441711-.375-3.407259,2.474985-6.410034-.251805-9.598889-1.952085-1.080321-.576021-1.816659-1.646024-1.969944-2.860684-.268648-2.128808-.235786-4.391838-.726302-6.292822-.264268-1.024164-.381987-2.739672-.340264-3.796559.115141-2.916631.419484-5.957641,1.872765-8.247753,6.230391-4.295591,11.711257-9.629568,18.003915-14.019281,1.311156-.914653,3.005905.506359,2.335383,1.957607-.560619,1.213377-1.426246,2.354592-2.211495,3.470601-.470367.668494-1.164554,1.116113-1.938286,1.37968-6.395502,2.178587-6.130949,14.070248-14.967776,12.158659-.332581-.045776-.452576.453247-.136353.566528,2.84845,1.036621,6.214722-.148926,8.203735-2.355469,2.019608-2.183519,2.946701-6.033258,5.071579-8.146802.73135-.727449,1.975082-.071392,1.793846.944093-1.06688,5.977859.534894,12.251965-3.174935,17.84016,1.113681,3.004846,4.136879-4.290223,4.787078-7.571624.039894-.201333.33223-.179733.352251.024536.273469,2.790231-.755713,6.019679,1.419204,8.183563.224792.196289.588989-.073242.463318-.347412-1.760205-3.272185.226951-7.623132-1.666463-10.730003-.31462-.516255-.475509-1.118565-.558041-1.717475-1.016852-7.378946,4.686586-10.214522,5.083866-15.447151.164447-2.165955,1.454478-4.109202,3.447541-4.972974,1.460236-.63285,2.953886-1.161737,4.485376-1.559706,2.858818-.742886,5.431552,1.972169,4.63872,4.81754-6.708189,24.074825-8.178283,40.638344-32.660654,55.276364-1.212995.72525-2.573786,1.194589-3.983729,1.29156-9.797924.673862-19.660126,3.909188-27.013938,10.554667-.829475.749578-1.973142,1.048359-3.07489.858497-7.537303-1.298887-6.933643-6.435504-11.132847-11.83836-.260254-.182373-.596191.170166-.400513.421631,2.027945,3.313021,2.68508,7.71406,5.876755,10.134413.396265.300501.14252.941609-.350695.877847-1.745662-.225677-3.368576-.793076-4.627622-2.254447-.201965-.244385-.617493.000244-.500183.297607,1.870667,3.519531,5.706299,3.099854,9.322693,3.184814.261963.163574.642639.308594.845032.034424.654114.0354,1.29248.104736,1.906738.224854-5.425598,5.923584-9.879028-4.66626-18.126343,1.377441-3.928955,2.743408-4.382446,8.570068-8.063232,11.019775-11.840942.985596-21.882141-3.569336-31.61615-9.909668.050537-.582764-.593079-.601074-1.035583-.456299-1.051086-.801758-9.586121-2.494141-8.691589-.621582,1.845482-.131729,3.596757.082171,5.282428.52668.562883.148432.621727.913077.104622,1.180417-1.608426.831545-2.897258,2.124013-3.074122,4.067561-.053955,11.257812-15.960815,6.467773-19.039734,14.906494,5.293274-6.461426,19.748352-3.748535,20.096619-14.71875.22973-2.072823,1.749336-3.160766,3.523375-3.804686.982454-.3566,2.077202-.236093,2.982272.28662,9.018495,5.208526,18.070548,10.6493,29.011931,9.46167-10.24231,1.39209-20.984314-.81543-31.184631-2.526611-3.593946,1.522576,3.742996,3.239522,7.872612,4.105596,1.028477.215695,1.619592,1.347413,1.146379,2.285687-.081349.161297-.155675.323381-.222604.483961-2.19696,8.356445-5.215759,3.837158-10.480652,7.839111-5.569092,4.343506-6.545349,13.713379-14.334534,14.909424-.355469.034912-.330566.564209.014893.581787,6.869529-.142107,8.948247-7.429708,12.605445-12.220603.703257-.92126,2.186638-.552764,2.323519.598128.474792,3.992039-.154453,8.209558,2.010428,11.909096,2.214111,4.755127,4.354248,9.464355,6.952576,14.009521.171875.303467.649048.060059.523865-.253418-2.516724-7.214111-7.846497-13.717773-8.30896-21.505371-.038027-1.527681.100114-3.164506-.101664-4.73194-.254605-1.977796,1.085834-3.806388,3.047548-4.164404,1.618947-.295461,3.254631-.540202,4.507241-1.751849,1.362569-1.33243,1.654942-3.669539,2.449321-5.378505.550914-1.185194,1.85896-1.817242,3.149623-1.611379,33.178253,5.291993,21.333528-9.080323,32.563017-12.414299,1.318981-.391599,2.622916.730543,2.461928,2.096977-.821087,6.969225,3.441108,14.672451-1.852404,20.830399-3.435364,5.151855-9.206909,12.538574-4.417969,18.629883.228455.275391.667053-.081543.457581-.359131-2.672865-4.579509-.850684-8.855415,1.694045-12.945627.565935-.909643,1.954787-.626577,2.091545.435982.906945,7.046624,4.387444,15.782495,8.510553,19.068727-5.27839-10.307312-7.165306-15.003758-5.528318-22.766499,1.38291-6.55788,1.63257-13.385782.143383-19.920348-.200775-.881002-.292562-1.753458-.20098-2.612492.145715-1.366805,1.662782-2.109944,2.910568-1.533387,6.850303,3.165275,10.515599-3.146232,16.037484-6.984501,1.001646-.696246,2.406341-.124329,2.612959,1.077904,1.151613,6.7008.240957,13.511504-3.460631,19.406316-.171753.297119.263245.591309.479309.330811,4.848242-5.870893,5.126347-13.83752,3.814554-21.018472-.180342-.987217.347992-1.954812,1.256981-2.380089,3.132556-1.465589,6.422965-2.599762,9.795282-3.359466.611465-.137749.959348.679636.445383,1.03839-23.858721,16.653669,25.739524-3.025414,38.597773-27.702238-3.281189,6.294678-8.528259,11.690186-11.687073,18.120483-2.124724,4.04474-4.033146,8.276364-5.606203,12.630922-.50507,1.398143-1.313446,2.665087-2.327283,3.752302-4.607502,4.940978-4.788517,13.419657-11.580552,16.311479-.282959-.167969-.692627.014893-.739929.347656-2.420837,1.042725-5.144714,1.443359-7.784607,1.153809-.759084,1.42319,4.224655,1.013507,6.770727.349871.812356-.211741,1.623883.304385,1.799868,1.125229,1.256942,5.862722-4.222673,9.407044-3.417458,13.645017,2.054897-4.006611,5.298512-8.76585,4.424031-13.6853-.208281-1.171701.261298-2.34324,1.244879-3.013189,4.740653-3.229011,5.896395-9.614711,9.012687-14.194839.230844-.339279.755271-.094966.64582.300534-1.859428,6.718975-2.813129,13.656373-2.405603,20.608419,2.114266,3.29865,2.60151-5.427035,3.153208-9.700656.090479-.70088,1.045489-.805264,1.304117-.147593,2.755248,7.006391,1.67953,14.259785,11.560254,16.774274.317444.116699.533142-.363037.241882-.528076-11.167277-4.403887-7.230546-11.000268-11.683257-18.277516-.470711-.769302-.653271-1.690148-.466959-2.572578,1.691027-8.009224,4.597762-15.759688,8.51668-22.94289.39385-.721909,1.487513-.495939,1.541592.324638.703234,10.67065-2.210253,27.636661,8.721033,30.722007-5.802654-3.991686-7.212576-9.765832-7.499853-16.010946-.031149-.677157.794028-1.004184,1.253036-.505362,3.009693,3.270743,2.637397,9.639359,7.56127,10.981396.310059.062012.475525-.396729.195435-.547119-4.485769-2.375544-3.959842-8.881156-7.70414-11.798208-.84521-.658474-1.374482-1.647003-1.363989-2.718384.040147-4.099353.215229-8.261862-.329275-12.144572-.180733-1.288755.109524-2.596806.81377-3.691151,1.223333-1.900968,2.539224-3.696162,3.862125-5.545022.694787-.971021,2.211397-.541529,2.310823.648314.223516,2.67483-.588799,5.509059-.363545,8.200684.539062,7.584717,4.965759,14.278564,9.68512,19.960205.224365.272949.654724-.062256.468018-.345947-4.303101-6.623047-9.673828-13.508057-9.081299-21.831665.219994-2.581939.742665-5.556417-.045471-8.089748-.400076-1.285979-.14811-2.679071.536118-3.839086,3.197389-5.420741,5.418285-11.444687,3.982873-17.383868-.384046-1.589036-.361417-3.249709.010925-4.841529,2.206246-9.432055,3.917923-19.222968,9.284638-27.159554,1.288455-1.905436,4.202626-1.037347,4.248095,1.262378.190765,9.648424-5.97298,19.146019-4.592434,29.094985,1.509033,14.256836,9.621582,26.814453,9.393311,41.153076-.023865,1.051758,1.510498,1.193848,1.733276.207764,2.989685-15.226807-7.910034-29.113037-7.986511-44.018311-.141905-10.149014,6.426801-20.395804,4.132878-30.471704-.576215-2.530984.687044-5.123644,3.004939-6.29209l.096863-.048828c2.477742-1.249024,5.397162.43635,5.608016,3.203082.752634,9.87573,3.492468,19.444633,8.64072,27.999798.647943,1.076726,1.013607,2.298147.987957,3.554535-.067778,3.319892.184416,6.834713-.139763,10.259721-.120477,1.272858-1.054764,2.350274-2.319504,2.537661-3.867415.573006-5.702176,6.739853-10.191916,5.181042-.809814.775269,1.108521,1.696411,1.770691,1.663452,3.118139.397519,4.836981-2.991368,7.068228-4.531829,1.223523-.844724,2.856134.281724,2.547333,1.7361-2.438262,11.483634-5.40281,23.465729-11.184226,33.643142-2.946755,4.085906-8.143963,5.610572-11.429449,9.474544-.700014.823268-1.775642,1.197042-2.85564,1.159703-8.343408-.288461-2.171485,11.78496-11.275579,16.944366-.375366.293945-.022095.926758.427002.762695,9.457533-3.744543,5.40022-14.143405,9.295674-15.952253,1.107159-.514108,2.297667.507058,2.027837,1.697562-.389379,1.717961-.250732,3.501381.761511,5.055961.287964.44458,1.004333.034424.75354-.440674-3.093506-9.174561,9.258362-11.770264,13.514526-17.778564,3.747711-5.426173,5.305429-11.854499,7.287604-18.05693.259855-.813112,1.425535-.777577,1.630073.051181,1.4559,5.899094,3.430005,12.238148,9.481676,14.851453.432739.186768.820129-.423828.465576-.738037-6.041343-3.978331-6.869867-10.278446-9.021112-16.359499-.63257-1.788123-.674644-3.733426-.175439-5.563268,2.002075-7.338633,3.387573-14.843851,3.16488-22.436763-.020706-.705973.895301-.989219,1.267453-.388945,7.50547,12.106185,17.28327,26.322649,13.208792,39.961219-.980247,3.281199-3.48953,5.872609-6.69339,7.081919-21.468977,8.103555-32.742601,30.813534-47.621868,46.835785-1.493348,1.608062-3.477063,2.65402-5.630151,3.078473-31.710026,6.251207-26.452938,31.557735-71.880633,16.883609,37.881446,19.436611,43.922652-7.039098,69.069427-14.455912,1.090847-.321735,1.875828,1.071507,1.036834,1.839328-15.95997,14.606082-35.935074,23.831479-56.596923,29.943732-1.637085.45752-1.132751,3.074219.585938,2.850098,6.385494-.669107,12.666469-2.217911,18.721228-4.383787,1.342542-.480247,2.541185,1.001108,1.762783,2.19574-7.200387,11.050611,10.809211,17.720527-13.957826,40.773008-.711975,1.26416-8.882874,8.816895-5.513184,8.348633,46.014587-41.875-2.225586-35.749023,35.509399-59.446777,9.186346-5.093231,17.73769-11.32805,25.41022-18.513547,1.190972-1.115372,3.178996-.52719,3.538106,1.06451,1.592007,7.056334-2.675943,14.133666-4.691124,21.116762-2.118469,2.381836-2.35614,32.610107,1.197388,29.075928-5.087198-27.535069,9.527489-39.587965,4.878879-52.469013-.568333-1.574819-.268147-3.333124.87559-4.555794,4.726317-5.052492,8.925285-10.601902,13.233625-16.244681.715879-.937611,2.215157-.386408,2.155153.791725-.772021,15.15807-9.073262,31.316632-1.51538,45.66038.349365.602051,1.283691.140137,1.055115-.491699-6.067048-16.067009,3.083076-32.252608,2.539128-48.517059-.060504-1.809104.508581-3.582174,1.644195-4.991747,5.622538-6.97894,11.610947-13.441036,18.814377-17.941327,1.01826-.636151,2.161546.59136,1.445767,1.555311-11.059197,14.89358-15.250645,27.57924-8.543829,45.932504.743351,2.034187.735924,4.258659-.033202,6.283241-5.234827,13.77971,2.272795,31.085996-7.973031,42.845075-.480837.551853-1.226989.827929-1.935194.643019-16.401669-4.28241-27.94451,17.739822-42.978596,5.342596-3.533813.880127,8.702087,6.598389,10.739197,5.463135,10.670186-.843388,18.79618-11.186297,29.970442-9.624541.724265.101226.898968,1.100201.2518,1.440761-4.331821,2.279541-10.35856,1.419575-14.120435,5.2121-5.343506,5.476807-10.993042,14.681641-19.878052,10.998047-28.298096-7.569336-25.895081,17.491211-53.941101,22.782227,25.219826-.04196,25.989612-26.426612,49.201051-22.286652,1.779199.317336,2.312462,2.697739.802189,3.690374-.716084.47065-1.496511.859046-2.251653,1.185633-23.819519,7.159424,9.920288,30.956543-31.87561,33.497314-.518433.044189-.499573.868164.034973.872803,14.597473,1.37915,28.687988-6.492676,23.883118-22.92749-1.607285-9.289087,9.217362-8.011401,13.288427-13.517357.649849-.878895,1.719958-1.348891,2.784676-1.101638,10.99027,2.552211,15.293673-12.821605,24.974865-14.907816.889026-.191577,1.71224.533365,1.730165,1.442621.384792,19.519025-15.800566,23.114756-15.054353,30.147149.10872,1.024593-.459451,1.997124-1.363498,2.491403-14.088835,7.702928-26.058909,28.433046-43.456657,22.355305-.644775-.318359-1.16571.58374-.597107.997803,13.124023,7.81543,25.061462-6.737305,34.766724-13.810547,8.598699-6.693241,17.89705-12.804354,28.180376-16.428751.870207-.306708,1.634658.65859,1.137869,1.436106-.761538,1.19187-1.550203,2.3616-2.371814,3.500411-.814483,1.12893-4.008718,5.384059-4.796792,6.288817-9.727398,11.167667-31.032388,7.577293-34.002544,23.207811-.106506,1.683105,2.303955,2.179199,2.856445.560303,5.687478-11.018802,22.585666-8.654192,31.791651-17.322989.607354-.571914,1.624823-.106255,1.599776.727614-.55689,18.539664-18.739424,26.520031-13.650033,38.585365.458374,1.232422,4.405945,8.937744,4.946716,5.825195-12.417236-18.655364,11.302904-21.05642,10.81694-46.735519-.025038-1.323046.422103-2.624561,1.297387-3.617012,6.239626-7.074873,10.66298-15.908289,15.230125-24.416708.331541-.617649,1.268714-.285713,1.149748.405125-3.268022,18.977507-14.577402,24.486999-3.067929,47.089211,2.369385,11.554688-6.563293,22.485352-3.956299,34.155762.152527.695801,1.230286.5354,1.147583-.192871-.080078-16.380859,10.748108-29.13916.725708-45.405762-5.03029-13.761842,8.911987-26.205836,7.626885-39.843917-.140628-1.492406.137008-2.993148.909765-4.277632,2.684756-4.462624,5.749412-8.83141,9.434802-12.49812,3.783358-3.764182,10.280563-1.496457,10.836264,3.811466.990196,9.458105-.710326,19.082759-2.471528,28.558723-.41451,2.23023-1.260677,4.389704-2.675465,6.162871-3.269785,4.098053-2.649709,9.38083-1.821414,14.471459.56089,3.44718-.096723,6.985302-1.88702,9.98405-.413879.693248-.824607,1.358659-1.188679,1.921383-1.883301,3.357666-3.283936,8.556885-1.68811,11.915771.319824.05835.625732-.152832.684143-.471924.253141-3.707278,1.057962-6.734794,2.531498-9.605706,1.048563-2.042931,4.186133-.912258,3.646681,1.319791-.828972,3.429973-2.448625,6.826331-2.557207,10.429714,1.328613,11.982178,13.133667,15.213379,10.780396,32.17041-.04834.54541.734131.639893.862183.145508,3.942017-16.232178-8.467529-20.749512-10.058105-32.258301.372978-5.717697,4.707266-12.442348,2.306973-18.028487-.368301-.857138-.602442-1.76097-.610413-2.693851-.032419-3.79429-1.358846-7.833931-1.367703-11.595044-.008301-3.513184,2.625977-6.566406,6.122742-6.90625.077912-.007797.155702-.017783.233189-.030687,1.615417-.269012,3.196252.71168,3.752139,2.252111,4.385145,12.151772,4.63949,25.991613,12.912932,36.52657.981701,1.250045,1.365377,2.837734,1.087274,4.402665-.571196,3.214208,1.439242,6.734735,3.148561,9.378394,6.941895,8.908447-9.768555,18.543701-7.629333,33.366943.026367.53833.818909.524414.871338.024658.695312-5.945068,2.035583-11.809326,4.990479-17.037842,5.350464-8.655273,7.944397-10.213867,1.585815-19.757324-.554794-.95376-1.065979-2.110988-1.33524-3.289216-.315667-1.381292,1.35589-2.290912,2.337389-1.269015,1.431409,1.490325,2.95155,2.890032,4.555116,4.181562,1.072457.863768,1.666976,2.157734,1.746869,3.532462.63303,10.892578,10.699153,20.919175,5.413272,31.617156-.263672.435547.362244.892334.701721.517578,7.130518-9.728932-3.26863-20.331185-4.303092-30.662384-.099244-.991151.947139-1.701385,1.821131-1.223505,1.181192.645851,2.605211,1.30329,3.431842,1.517001,1.708771.441773,3.2789,1.319055,4.425784,2.66059,3.39611,3.972506,5.882993,8.742452,13.023688,9.972946.466003.134766.760315-.550049.345764-.800049-10.272361-3.317568-11.021663-13.24751-19.072225-15.088865-1.689274-.386377-3.292999-1.098842-4.634052-2.196345-6.153901-5.036285-11.342836-11.182105-14.919582-18.222371-.801233-1.577102,1.067777-3.203017,2.520413-2.193527,6.87064,4.77466,11.390601,12.737818,18.944678,16.86102,7.11438,3.841797,16.603821,4.412598,21.46875,11.478027.290405.446777.982117.033203.75885-.431396-4.705872-9.206543-17.166809-8.389404-24.372803-14.315918-6.868579-5.149085-11.744772-13.691069-19.911633-17.10592-1.441818-.602874-2.530397-1.848678-2.954989-3.352678-2.024909-7.172677-2.351219-14.998401-5.603166-21.717249-.973058-2.010435-1.007158-4.327919-.064283-6.352684.340102-.730349.665804-1.463245.977207-2.198461.616-1.454363,2.426018-1.941973,3.687649-.991756,20.141379,15.169803,30.039781,30.729093,55.914703,39.372722,3.21671,1.074556,5.609278,3.886961,6.042021,7.250683.531699,4.132904-.045322,8.685699,1.865982,12.520394,2.226978,2.382309,1.762472,4.825357.721407,7.33379-1.904768,4.58951-2.511411,9.617059-1.706184,14.52046.914851,5.570955,1.826016,11.100222.045568,16.800535,3.568604-3.520508,1.871033-13.876709.471191-19.421387-1.838304-4.690202,1.240138-8.447475,2.585159-12.658604.459007-1.437107,2.118316-2.08581,3.40595-1.299705,11.497517,7.019273,21.664241,13.509235,10.340434,28.064511-2.458374,3.736084-8.496887,5.840332-7.87738,11.112793.0495,1.042236,1.661377,6.105713,2.465454,4.067627-4.541887-9.791274,9.133241-11.422614,11.482389-23.531123.157459-.811611,1.297932-.877113,1.517293-.080002.926047,3.365054,1.253776,6.903366,1.051466,10.436321-.048096.689697.985779.864746,1.15033.176514,2.021545-8.704834-1.616089-18.070312-7.790283-24.295166,14.455383,8.803467,6.867371,26.414062,29.337463,26.089844-22.767517-2.184082-14.342041-21.891113-32.41394-28.766602-16.272099-8.524604-12.561371-9.521082-14.966703-21.806573-.396242-2.023848,1.424264-3.769972,3.425058-3.27018,8.052218,2.011416,16.23847,3.321963,24.463093,4.33066,16.731201,9.03125-5.86145,20.937744,15.650879,27.349854,10.152954,3.819824,7.131409,11.451904,27.172302,14.606201.340759.058105.455688-.464111.134705-.56543-6.789178-1.674225-13.476073-4.125219-17.465285-9.842467-.671902-.962955.227744-2.230828,1.344696-1.868677,3.658018,1.186044,9.082015,3.002634,9.149336,1.807824-8.796526-3.839531-27.066912-4.718607-27.850621-16.033549-.096352-1.391094,1.605916-2.158957,2.639666-1.223121,2.204241,1.995462,4.173054,3.672217,7.191449,3.989991,1.845732.194317,3.614251.862558,5.002392,2.094448,2.16265,1.919219,4.586998,3.62949,7.652124,3.501088.341858.01001.39386-.515381.062622-.578125-3.324444-.43074-5.574472-2.414219-7.858984-4.455119-1.061313-.948138-2.428974-1.471679-3.850332-1.543034-4.204135-.211055-5.760829-2.459496-8.922333-5.021878-.962092-.779771-1.489185-1.955979-1.54578-3.193097-.132193-2.889632-1.301922-5.815913-6.008118-8.748054,13.364441,1.235596,16.960388-.989258,23.532043,12.424561-.00708.224854.122803.448242.395813.494385,7.626221,9.298828,20.310791,8.158447,31.379578,12.94458.75269-1.27089-4.999201-2.887336-8.761266-3.834663-.829481-.208872-.869245-1.392538-.05022-1.639246,4.827817-1.454243,9.902454-1.866218,14.956139-1.762175-3.806126-2.625041-12.94486-.264189-18.3166,1.954254-.637138.263128-1.337964.317752-2.009795.163401-4.694579-1.078567-9.520087-2.493271-13.306909-5.449732-.776207-.606003-.242444-1.843088.724444-1.656367,6.090733,1.176212,13.005502,2.881406,17.952318-1.569417-8.03198,2.726689-11.629949,1.633057-20.019285.241032-1.247891-.20706-2.368891-.929332-3.026425-2.009959-1.649936-2.711597-2.990657-5.744416-5.337011-7.899347-.538857-.494896-.285517-1.374458.433806-1.508115,6.682176-1.241613-15.102287-3.532412-22.41534-4.395581-.642465-.075831-.740151-.974939-.128504-1.185654,2.653889-.914276,5.571504-1.175157,8.390831-1.466986,8.102173.491943,15.963196-6.857178,23.655151-2.500488,11.540833,11.520996,13.880676,2.954346,26.73175,10.106201.311584.172852.588684-.291504.310059-.492432-5.379089-4.43335-12.595093-3.616699-18.937988-4.527588-3.65276-2.195927-6.529388-6.282234-10.829927-7.396417-.779436-.201936-.938625-1.215688-.242014-1.61946,2.742315-1.589508,5.330705-3.447451,7.641662-5.589818.506909-.469929,1.166352-.756318,1.857293-.736562,7.738184.22126,15.01446,4.079512,20.124193,9.865939-1.386866-5.707685-11.41956-10.153583-18.555465-10.789751-.667176-.059479-.991832-.839906-.548114-1.341678,1.592112-1.800417,3.985493-4.718809,1.698794-4.219888-2.188966,2.410947-4.510253,4.612516-6.962514,6.580122-.840697.674545-2.092794.156207-2.242544-.9112-.499934-3.563502-4.010207-6.145423-2.970479-8.855445.233643-.234375-.074585-.630371-.359375-.457031-2.923273,2.646075,2.752717,6.379145,2.275808,11.064737-.117353,1.152983-.812317,2.181061-1.796,2.793849-3.785193,2.357997-7.851923,4.178269-12.207545,5.371461-.712736.195249-1.360736-.451827-1.166869-1.164941.742746-2.732078-.512001-6.205918.344435-8.75871,1.211914-3.490479,6.384521-5.699463,5.754883-9.983398-.05719-.323975-.566406-.302002-.58075.036865-.348572,4.098145-4.772034,5.808594-6.199707,9.57959-1.367859,3.792969,1.58075,8.246094-1.811462,11.130371-5.573552,1.091226-12.040218.573321-16.986967,3.780836-.977715.633959-2.177016.846824-3.328375.667376-21.328171-3.324158-40.363295-9.997002-56.718266-24.104581-1.546396-1.333901-.603532-3.86103,1.437928-3.916471,7.983981-.216826,15.476571,5.517678,23.273903,7.143885,10.096507,2.236304,23.704807-1.458831,30.016965-9.906974.583737-.781269-.476818-1.728316-1.21518-1.091172-26.24323,22.645688-35.520524-1.843101-56.036824,2.643443-1.56363.341938-3.199187-.034334-4.384489-1.109935-5.860635-5.318228-11.669301-10.709292-18.120334-15.248165-1.622554-1.14161-2.390429-3.18059-1.823256-5.081713,6.447814-21.612627-4.391881-43.016157-15.624763-61.933916-1.285027-2.164167.566349-4.85466,3.047479-4.431688,26.811531,4.570717,37.622421,14.449217,27.720114,45.123011-.093872.32666.393005.510498.543396.210938,2.65271-5.824951,3.827087-12.28833,3.903015-18.719971,1.450115,8.598066,4.623329,18.63775,13.227848,22.397355,1.106757.483579,2.025093,1.337938,2.549689,2.425853,1.622488,3.364739,1.447627,7.533671-.297496,10.900425-.130554.289307.268494.556885.485901.320312,2.249131-2.784999,2.559386-6.713884,1.40872-10.116205-.303926-.898657.595724-1.740988,1.487409-1.417179,2.203851.800314,4.372158,1.647409,6.363879,2.867036.785027.48071,1.277961,1.336881,1.268948,2.257352-.11161,11.398751,4.396376,15.542024-4.246424,26.869689-.178284.300781.26239.595703.478577.333496,3.445129-4.231689,6.620239-9.446045,6.17395-15.157471-.573127-3.752305-1.66201-6.965393-1.535612-10.54869.031325-.888035,1.097569-1.345425,1.73559-.726945.149994.1454.298062.292646.444206.441739,1.151513,1.174751,2.086683,2.537716,2.825743,4.007347,1.309129,2.603221,3.942909,7.815538,4.374435,11.01527,2.942025,1.8476.038938-7.808775-1.88718-11.498149-.265282-.508132.207477-1.082064.763782-.943872,7.911522,1.965314,16.068339,6.193269,24.619003,3.962773.340576-.065186.26886-.593262-.06958-.576416-7.18512.382568-14.478577-.425537-21.026123-3.56665-1.395889-.696387-3.159828-1.395464-4.807371-1.283999-.7153.048394-1.402225-.281194-1.859301-.833532-1.897299-2.292729-4.266203-4.634375-6.664443-5.82241-7.547203-4.19675-13.76545-3.293375-18.424064-9.75288-.658589-.913181.334146-2.086596,1.35182-1.604954,5.241899,2.480873,12.84663,3.65695,15.825479.881516-20.309825,1.508629-20.692713-7.393355-23.685634-20.300282-.635696-2.741431,2.475599-4.814233,4.754964-3.163763,18.539089,13.424007,36.470183,29.672838,60.076316,31.508502.637552.049577,1.240733.299493,1.723024.719406,4.478758,3.899484,9.477137,7.267907,14.94576,9.746201.940461.426202,1.712399,1.139576,2.211779,2.04331,4.886883,8.84385,12.027804,16.298438,6.817907,27.03232-.134644.321045.33783.556152.518738.265625,5.888826-9.325012-.675283-18.545449-5.726761-26.490398-.3146-.494802.195854-1.094793.735251-.864894,6.632873,2.827024,13.43924,5.427379,19.171571,9.366623,1.356057.931879,2.308917,2.351228,2.651145,3.960629.541667,2.547311.596238,5.313096-.941801,6.86642-.238525.190186-.035706.601318.263733.518799,1.983397-.725034,2.305527-3.39873,1.969434-6.093451-.103466-.829572.905036-1.299384,1.485564-.697817,2.062853,2.137613,3.857021,4.610186,5.282612,7.543954,1.947121.887999.745039-1.799297-.379661-3.858168-.526537-.963876.335253-2.105771,1.408433-1.872141,2.074715.451662,4.050728,1.569672,5.789587,2.780602,5.735657,3.70752,11.215942,6.765381,13.332336,13.733398,1.22273-.251527-.217755-3.162693-1.473418-5.325049-.403433-.694744.267301-1.511736,1.025548-1.246236,5.443664,1.906101,13.194282,3.842255,16.705744,1.62109-7.15741.17334-14.586548-1.285889-20.831787-4.409668-1.162109-.58374-2.295288-1.231689-3.395935-1.943848,2.971802.169922,10.458313,2.064209,10.089417-2.754883-.109741-.269287-.547485-.200195-.561768.095459-.269043,2.390137-3.30011,1.989746-5.148682,1.98584-6.709725,1.031064-11.000326-5.647502-17.224959-5.735051-1.020542-.014354-1.976554-.515468-2.626748-1.302208-3.856977-4.666975-9.231009-7.866482-15.00282-10.57404-.482805-.226484-.311706-.960445.221144-.938862,17.212592.697204,39.012412,14.805471,52.989766,3.578726-10.325928,5.288086-20.760376,2.956543-31.271851.030273,2.559387-3.700439,9.769531-1.310303,11.115417-6.343262.052551-.298584-.380005-.465576-.541138-.204834-2.504333,4.265869-9.158081,1.820801-11.573059,6.267822-13.125277-4.576576-27.20399-3.193507-39.003469-10.229375-.544314-.324567-.390311-1.165788.238768-1.242473,11.474573-1.398753,30.661268,6.110147,35.251274-6.344558-9.002664,11.797407-24.380476,3.092477-36.605013,5.53972-1.137447.227707-2.313515.006262-3.290835-.618623-1.436271-.918332-2.822524-1.922376-4.185508-2.974139-.669477-.51661-.365876-1.595478.475586-1.67931,3.429985-.341718,8.62724-1.349187,6.854564-3.192108-.569975-.59256-1.403308-.847404-2.225038-.819853-8.782378.294447-17.606691-1.247042-25.66164-4.383254-.864038-.336415-.763062-1.609366.14677-1.788092ZM146.76949,179.444446,195.685346,310.629552c-9.838154,8.567114-15.620433,21.472958-21.908786,32.861966-.574777,1.040995-1.554635,1.782288-2.696542,2.114082-5.513181,1.60192-10.793857,3.898487-15.77681,6.715357-1.172336.662721-2.468088-.651252-1.799126-1.820043,3.049516-5.328026,15.956462-11.482337,13.92388-28.118263-.104349-.85406.465416-1.635277,1.30101-1.840432,2.105827-.517022,4.114496-1.426657,5.819708-2.760814.447908-.350443.998941-.499738,1.548091-.64761.255637-.068837.458826-.244804.543939-.469756.253604-.67027.500968-1.342301.954449-1.897216,9.047457-11.071168,3.431087-27.292133,6.781224-40.208189.399919-1.541839,2.487627-1.747441,3.200162-.322836,3.223958,6.445822,7.257831,12.552754,10.905791,18.730925,3.426294,5.802759,2.285029,13.23738-2.79699,17.662829Z" fill="url(#radial-gradient)" stroke="#686b2e" stroke-miterlimit="10" stroke-width=".5"/><circle cx="193.184729" cy="50.842594" r="22.444444" fill="#979b42"/></svg>