<?xml version="1.0" encoding="UTF-8"?><svg id="Layer_1" xmlns="http://www.w3.org/2000/svg" width="287.061275" height="471.874975" xmlns:xlink="http://www.w3.org/1999/xlink" viewBox="0 0 287.061275 471.874975"><defs><linearGradient id="linear-gradient" x1="137.059005" y1="268.411858" x2="137.059005" y2=".931877" gradientUnits="userSpaceOnUse"><stop offset="0" stop-color="#5c4863"/><stop offset=".18469" stop-color="#785f82"/><stop offset=".353538" stop-color="#9575a1"/><stop offset=".529797" stop-color="#aa87ba"/><stop offset=".967015" stop-color="#dbaded"/></linearGradient><radialGradient id="radial-gradient" cx="79.718914" cy="435.819419" fx="79.718914" fy="435.819419" r="35.555556" gradientUnits="userSpaceOnUse"><stop offset="0" stop-color="#f8effc"/><stop offset="1" stop-color="#ebcef6"/></radialGradient></defs><ellipse cx="151.319307" cy="244.799209" rx="23.259259" ry="13.777778" fill="#231f20"/><path d="M68.356826,409.330162c-5.509766-9.39502-10.870117-20.339844-4.713867-31.387207,1.073242-2.171387,2.423828-4.180176,3.730469-6.123535,1.510742-2.246582,2.936523-4.368164,3.878906-6.609375,2.097656-4.71582,1.010742-10.59375-2.882812-15.780273-2.624023-3.494629-5.274414-4.808594-8.342773-6.32959-3.546875-1.758301-7.567383-3.750977-11.833008-9.092773-1.49707-1.875488-6.461914-8.739258-7.458984-18.322266-.266602-2.564453-1.079102-10.369141,6.583984-24.876953,6.5-12.308105,15.729492-23.227539,27.431641-32.455566l3.714844,4.710938c-11.040039,8.706543-19.734375,18.983887-25.841797,30.546387-6.811523,12.896973-6.140625,19.337891-5.920898,21.45459.828125,7.959473,4.939453,13.645508,6.179688,15.19873,3.435547,4.301758,6.53125,5.836426,9.808594,7.460938,3.44043,1.705078,6.99707,3.468262,10.477539,8.103516,5.217773,6.952148,6.560547,15.088379,3.59082,21.76416-1.143555,2.722656-2.802734,5.189453-4.40625,7.575195-1.265625,1.882324-2.460938,3.659668-3.360352,5.492676l-.078125.147949c-4.666992,8.308594-.478516,16.796875,4.618164,25.487305l-5.175781,3.035156Z" fill="#ddaef0" stroke="#3d184a" stroke-miterlimit="10"/><path d="M116.334029,249.671868c-1.52002.890137-2.959961,1.840088-4.360107,2.830078-7.51001,5.310059-13.899902,11.72998-26.23999,15.909912l-.060059-1.380127-2.199951-49.989746-.030029-.740234-5.97998-135.869873H22.374068l-3.650146-45.389893-.139893-1.75c.919922-.72998,1.859985-1.450195,2.829956-2.140137,2.030029-1.48999,4.160034-2.889893,6.380005-4.219971.51001-.320068,1.030029-.630127,1.550049-.919922.219971-.140137.449951-.27002.669922-.390137C64.604049,5.881829,118.624068.931877,145.554.931877c45.550049,0,75.27002,13.72998,104.280029,32.27002,1.899902,1.219971,3.800049,2.449951,5.699951,3.709961l-3.130127,43.52002h-48.879883l-5.47998,138.73999-.409912,10.199951-1.430176,36.290039c-6.379883-.929932-15.169922-8.349854-26.51001-14.389893" fill="url(#linear-gradient)" stroke="#3d184a" stroke-miterlimit="10"/><path d="M249.199083,33.390967c-5.155454.518025-10.389288,2.286341-15.360894,5.372597l-.198829.121965c-9.237176,5.745781-17.239974,11.960366-24.15894,18.574833-1.288565,1.231724-2.547126,2.473668-3.765375,3.745024.761428-.917254-1.197797.251104,2.681475-6.325176,2.431922-4.122695,4.335947-6.920346,6.303168-9.202826,2.912615-3.379378,6.557087-6.050891,10.569218-8.001872l.207927-.101109c7.028537-3.41777,14.783509-5.026653,22.595072-4.779729l.171584.005271c.321908.196976.633807.394044.955593.591021Z" fill="#866991" opacity=".54"/><path d="M167.221447,8.585388c.122326,2.697286-15.560923,1.705758-34.609703,2.569666-19.04878.863908-35.281408,4.683176-35.403734,1.985889s16.062944-7.560776,35.111725-8.424685c19.04878-.863908,34.779386,1.171843,34.901712,3.869129Z" fill="#f8effc" opacity=".32"/><path d="M82.233969,54.373335c-8.140137-8.579834-28.252606-22.846645-28.322674-22.886684-7.669922-4.689941-15.911565-6.98297-23.511663-5.723205.219971-.139893,1.349884-.816686,1.569855-.936559,2.849976-1.619873,10.646479-1.662724,13.666667-1.314815.610934.070376,1.302472.18568,2.045051.333677,10.145652,2.022044,19.167476,7.709067,25.703652,15.727877,6.074163,7.451995,8.849112,14.799709,8.849112,14.799709Z" fill="#866991" opacity=".54"/><path d="M28.702555,26.554253c.219971-.140137,2.147028-1.244194,2.366999-1.364312C65.659642,5.449951,119.679661.5,146.609593.5c45.550049,0,74.674478,14.457477,103.684488,32.997516" fill="none" stroke="#3d184a" stroke-miterlimit="10"/><path d="M205.208196,276.799209l5.59652.78397-3.298941-35.306958-31.853134-40.921456c-9.558001,3.717079-3.785411,48.282483-10.750774,49.489476-16.237108,2.813647-26.101048-.193371-32.721082-4.361613-5.748485-3.619519-13.446293-11.052194-21.500311-8.753518-5.223777,1.490963-8.414219,6.452573-10.96947,10.426208-1.471538,2.28841-5.776323,9.17899-5.928204,19.017682-.163673,10.604977,4.494551,24.849493,14.12679,28.096142,3.479071,1.172676,6.582198.507226,7.775741.324948,30.450506-4.65296,58.856199-19.517103,89.522865-18.79488Z" fill="#ddaef0"/><circle cx="79.718914" cy="435.819419" r="35.555556" fill="url(#radial-gradient)" stroke="#3d184a" stroke-miterlimit="10"/><path d="M283.104049,54.421868c-2.830078-6.899902-7.219971-12.26001-12.52002-15.870117-6.070068-4.159912-13.320068-6.029785-20.75-5.349854-5.160156.469971-10.410156,2.189941-15.410156,5.22998l-.199951.119873c-9.289795,5.660156-17.349854,11.800049-24.329834,18.350098-34.790039,32.590088-42.920166,75.320068-44.360107,120.100098-.01001.27002-3.449951,27.26001-1.01001,50.22998.23999,2.290039.540039,4.580078.899902,6.839844.940186,6.010254,2.310059,11.860107,4.27002,17.200195,2.280029,6.259766,5.360107,11.799805,9.459961,16.040039,17.75,18.339844,59.050049,9.639893,60.930176-13.370117.01001-.169922.02002-.340088.030029-.5l-1.530029-36.050049c-.280029-6.459961.119873-13.629883,1.100098-21.22998,4.079834-31.649902,18.329834-70.570068,36.5-95.079834.179932-.25.369873-.5.559814-.75,5.26001-7.080078,8.340088-14.730225,9.400146-22.430176,1.089844-7.969971.029785-15.98999-3.040039-23.47998Z" fill="#ddaef0"/><path d="M165.180418,250.271431c-.07854.260222-.917884.359114-1.185928.404234-15.976451,2.689292-25.717289-.303739-32.276997-4.43561-5.75-3.620117-13.449951-11.050293-21.5-8.75-5.219971,1.489746-8.409912,6.449707-10.969971,10.419922-1.469971,2.290039-5.780029,9.179932-5.929932,19.02002-.02002,1.23999.030029,2.52002.149902,3.829834.780029-8.399902,4.449951-14.25,5.780029-16.329834,2.560059-3.970215,5.75-8.930176,10.969971-10.420166,8.050049-2.300049,15.75,5.130127,21.5,8.75,5.249236,3.306616,16.289375,5.871887,28.743789,5.457759,6.06184-.201565,11.708038-3.140432,15.504522-7.870469l1.382291-1.722196c2.148155-2.676386,2.990843-6.170645,2.28983-9.530138-.658072-3.153706-1.442689-6.619646-1.653276-8.281628-3.040039-24.070068.139893-49.26001.609863-52.77002.040039-.280029.060059-.550049.070068-.829834,1.27002-39.380127,7.640137-77.190186,32.399902-108.040039,9.350098-11.650146,34.209017-33.209091,39.757286-35.203602-1.599854-.330078-9.908774.959909-15.368857,4.289987-.069946.040039-21.432987,14.488419-29.513065,22.938371-30.829834,32.22998-38.925169,73.035303-40.315306,116.015284,0,.279785-.030029.549805-.060059.829834-.489746,3.630127-3.869873,30.409912-.289795,55.190186.439941,3.069824,2.655731,11.288105,2.211287,14.065883l-2.305556,2.972222Z" fill="#866991" opacity=".54"/><path d="M283.104049,54.421868c-2.830078-6.899902-7.219971-12.26001-12.52002-15.870117-6.070068-4.159912-13.320068-6.029785-20.75-5.349854-5.160156.469971-10.410156,2.189941-15.410156,5.22998l-.199951.119873c-9.289795,5.660156-17.349854,11.800049-24.329834,18.350098-34.790039,32.590088-42.920166,75.320068-44.360107,120.100098-.01001.27002-3.449951,27.26001-1.01001,50.22998.23999,2.290039.540039,4.580078.899902,6.839844.940186,6.010254,2.310059,11.860107,4.27002,17.200195,2.280029,6.259766,5.360107,11.799805,9.459961,16.040039,17.75,18.339844,59.050049,9.639893,60.930176-13.370117.01001-.169922.02002-.340088.030029-.5l-1.530029-36.050049c-.280029-6.459961.119873-13.629883,1.100098-21.22998,4.079834-31.649902,18.329834-70.570068,36.5-95.079834.179932-.25.369873-.5.559814-.75,5.26001-7.080078,8.340088-14.730225,9.400146-22.430176,1.089844-7.969971.029785-15.98999-3.040039-23.47998Z" fill="none"/><path d="M279.08395,70.756245c-2.230529,1.441037-3.979157-7.489888-9.804547-16.506798-5.82539-9.01691-13.521586-14.705284-11.291057-16.146321,2.230529-1.441037,10.184684,3.017203,16.010074,12.034113,5.82539,9.01691,7.316059,19.177969,5.085529,20.619006Z" fill="#f8effc" opacity=".32"/><path d="M236.377646,254.815096c-1.549935-2.156281-4.927028,4.430853-11.721434,9.314678s-14.43322,6.214934-12.883285,8.371215c1.549935,2.156281,9.139458,1.949539,15.933864-2.934285,6.794405-4.883824,10.22079-12.595326,8.670854-14.751608Z" fill="#f8effc" opacity=".32"/><path d="M283.104571,54.854005c-2.830078-6.899902-7.219727-12.26001-12.52002-15.870117-6.069824-4.159912-13.319824-6.029785-20.75-5.349854-5.160156.469971-10.410156,2.189941-15.410156,5.22998l-.199707.119873c-9.290039,5.660156-17.350098,11.800049-24.330078,18.350098-34.790039,32.590088-42.919922,75.320068-44.359863,120.100098-.010254.27002-3.450195,27.26001-1.010254,50.22998.240234,2.290039.540039,4.580078.899902,6.839844.507491,3.243699,1.149289,6.433079,1.939616,9.522271.862461,3.371144-1.37111,6.749107-4.818552,7.221966-14.760084,2.024525-24.138809-.845465-30.364472-4.765478-5.748535-3.619629-13.446289-11.052246-21.500244-8.753662-5.223877,1.490967-8.414307,6.452637-10.969727,10.42627-1.471436,2.288574-5.776123,9.178955-5.928223,19.017578-.163574,10.60498,4.494629,24.849609,14.126953,28.096191,3.479004,1.172852,6.582031.507324,7.775635.324951,21.982623-3.359021,42.905882-11.333819,64.398784-16.389747,7.025752-1.652718,14.266979-2.338021,21.458743-1.728759,18.044204,1.528645,37.612136-7.6671,38.571268-23.5188l.000717-.082668-1.530343-36.050046c-.279785-6.459961.120117-13.629883,1.100098-21.22998,4.080078-31.649902,18.330078-70.570068,36.5-95.079834.180176-.25.370117-.5.560059-.75,5.259766-7.080078,8.339844-14.730225,9.399902-22.430176,1.089844-7.969971.029785-15.98999-3.040039-23.47998Z" fill="none" stroke="#3d184a" stroke-miterlimit="10"/><path d="M122.801929,177.031181c-.474376-4.6379-.77918-9.290202-1.015876-13.946287-2.61192-51.379571-15.502209-99.438526-68.715864-132.016241-.071144-.043558-.142321-.087082-.213532-.130574-19.31871-11.798762-42.130024-3.433282-49.763384,18.466105-4.981035,14.290119-2.913106,30.247062,7.286688,44.034161.186508.252104.37317.504624.559967.757555,22.647995,30.666291,39.231495,83.677211,37.810969,117.339351l-1.534045,36.352196c.012085.167883.024942.33543.038593.502934,1.886673,23.203806,43.364525,31.97091,61.181385,13.48401,19.114784-19.834369,16.076667-68.109477,14.3651-84.84321Z" fill="#ddaef0"/><path d="M122.801929,177.031181c-.474376-4.6379-.77918-9.290202-1.015876-13.946287-2.61192-51.379571-15.502209-99.438526-68.715864-132.016241-.071144-.043558-.142321-.087082-.213532-.130574-19.31871-11.798762-42.130024-3.433282-49.763384,18.466105-4.981035,14.290119-2.913106,30.247062,7.286688,44.034161.186508.252104.37317.504624.559967.757555,22.647995,30.666291,39.231495,83.677211,37.810969,117.339351l-1.534045,36.352196c.012085.167883.024942.33543.038593.502934,1.886673,23.203806,43.364525,31.97091,61.181385,13.48401,19.114784-19.834369,16.076667-68.109477,14.3651-84.84321Z" fill="none"/><path d="M122.461,226.95191c-.439941,3.069824-.98999,6.099854-1.669922,9.059814-1.360107,6-3.25,11.670166-5.810059,16.630127-1.809814,3.540039-3.97998,6.709961-6.539795,9.369873-6.280273,6.52002-15.52002,9.650146-24.930176,9.949951-.02002.010254-.040039.010254-.060059,0-2.669922.090088-5.359863-.059814-7.98999-.419922.48999-.069824.980225-.149902,1.469971-.23999,4.170166-.73999,8.170166-2.099854,11.75-4.130127,2.470215-1.389893,4.740234-3.109863,6.720215-5.159912,6.75-7.01001,10.73999-17.579834,13-29.050049.549805-2.77002.98999-5.589844,1.349854-8.429932,3.040039-24.070068-.139893-49.26001-.609863-52.77002-.040039-.280029-.060059-.550049-.070068-.829834-1.27002-39.380127-7.640137-77.190186-32.399902-108.040039-8.963997-11.169068-20.335966-21.427995-34.759355-30.512818-1.271235-.80071-2.602581-1.499034-3.97282-2.115168-3.127227-1.406171-8.658414-3.88023-8.672819-3.88023.030029-.01001,15.111746-1.067776,23.59108,5.12286.899099.656418,21.503855,14.645365,29.583933,23.095317,30.829834,32.22998,38.279785,73.350098,39.669922,116.330078,0,.279785.030029.549805.060059.829834.489746,3.630127,3.869873,30.409912.289795,55.190186Z" fill="#866991" opacity=".54"/><path d="M6.734856,72.622891c2.491395.919131,2.247402-8.178099,5.962988-18.249556,3.715587-10.071457,9.983735-17.303286,7.492341-18.222417-2.491395-.919131-9.279922,5.168592-12.995509,15.240049-3.715587,10.071457-2.951215,20.312792-.45982,21.231924Z" fill="#f8effc" opacity=".32"/><path d="M51.085839,242.024168c2.113635-1.607605,3.412792,5.67987,8.478326,12.339903,5.065535,6.660033,11.979233,10.170606,9.865597,11.778211-2.113635,1.607605-9.309599-.813491-14.375134-7.473525s-6.082425-15.036984-3.96879-16.644589Z" fill="#f8effc" opacity=".32"/><path d="M122.802564,177.463405c-.474376-4.6379-.77918-9.290202-1.015876-13.946287-2.61192-51.379571-15.502209-99.438526-68.715864-132.016241-.071144-.043558-.142321-.087082-.213532-.130574-19.31871-11.798762-42.130024-3.433282-49.763384,18.466105-4.981035,14.290119-2.913106,30.247062,7.286688,44.034161.186508.252104.37317.504624.559967.757555,22.647995,30.666291,39.231495,83.677211,37.810969,117.339351l-1.534045,36.352196c.012085.167883.024942.33543.038593.502934,1.886673,23.203806,43.364525,31.97091,61.181385,13.48401,19.114784-19.834369,16.076667-68.109477,14.3651-84.84321Z" fill="none" stroke="#3d184a" stroke-miterlimit="10"/><path d="M118.372619,292.126499c1.679172-2.057239-3.795268-2.165673-8.036495-5.627462-4.241227-3.461789-5.643176-8.966024-7.322348-6.908786-1.679172,2.057239-1.189255,7.958411,3.051972,11.420201,4.241227,3.461789,10.627699,3.173286,12.306871,1.116047Z" fill="#f8effc" opacity=".32"/></svg>