<?xml version="1.0" encoding="UTF-8"?><svg id="Layer_1" xmlns="http://www.w3.org/2000/svg" width="557.04925" height="334.09668" viewBox="0 0 557.04925 334.09668"><line x1="77.06291" y1="132.71198" x2="1.89458" y2="178.29927" fill="none" stroke="#231f20" stroke-linecap="round" stroke-miterlimit="10" stroke-width="3.78917"/><line x1="101.00633" y1="132.71198" x2="176.17466" y2="178.29927" fill="none" stroke="#231f20" stroke-linecap="round" stroke-miterlimit="10" stroke-width="3.78917"/><line x1="400.4021" y1="133.25437" x2="400.40208" y2="44.28419" fill="none" stroke="#231f20" stroke-linecap="round" stroke-miterlimit="10" stroke-width="3.78917"/><polygon points="321.62371 266.81909 326.11883 177.84888 329.90789 177.84888 334.40325 266.81909 321.62371 266.81909 321.62371 266.81909" fill="#231f20"/><line x1="407.64054" y1="133.25437" x2="407.64051" y2="44.28419" fill="none" stroke="#231f20" stroke-linecap="round" stroke-miterlimit="10" stroke-width="3.78917"/><polyline points="177.63427 178.29927 252.8026 132.71198 252.84511 132.71198 328.01344 178.29927 328.66082 178.29927 403.82915 132.71198 404.47654 132.71198 479.64487 178.29927" fill="none" stroke="#231f20" stroke-linecap="round" stroke-miterlimit="10" stroke-width="3.78917"/><text transform="translate(486.887 195.8353) scale(.98383 1)" fill="#231f20" font-family="TimesNewRomanPS-BoldMT, &apos;Times New Roman&apos;" font-size="45.84209" font-weight="700"><tspan x="0" y="0">OH</tspan></text><text transform="translate(390.2952 38.09799) scale(.98383 1)" fill="#231f20" font-family="TimesNewRomanPS-BoldMT, &apos;Times New Roman&apos;" font-size="45.84209" font-weight="700"><tspan x="0" y="0">O</tspan></text><text transform="translate(311.36844 303.81186) scale(.98383 1)" fill="#231f20" font-family="TimesNewRomanPS-BoldMT, &apos;Times New Roman&apos;" font-size="45.84209" font-weight="700"><tspan x="0" y="0">NH</tspan></text><text transform="translate(379.01981 319.07748) scale(.57357)" fill="#231f20" font-family="TimesNewRomanPS-BoldMT, &apos;Times New Roman&apos;" font-size="45.84209" font-weight="700"><tspan x="0" y="0">2</tspan></text><text transform="translate(74.71854 147.19174) scale(.98383 1)" fill="#231f20" font-family="TimesNewRomanPS-BoldMT, &apos;Times New Roman&apos;" font-size="45.84209" font-weight="700"><tspan x="0" y="0">S</tspan></text></svg>