<?xml version="1.0" encoding="UTF-8"?><svg id="Layer_1" xmlns="http://www.w3.org/2000/svg" width="514.67048" height="733.04834" viewBox="0 0 514.67048 733.04834"><line x1="26.65499" y1="4.43359" x2="5.0455" y2="2.82715" fill="none" stroke="#26a9e0" stroke-miterlimit="10" stroke-width="3.6"/><line x1="50.05831" y1="6.15967" x2="26.65499" y2="4.43359" fill="none" stroke="#515ba7" stroke-miterlimit="10" stroke-width="3.6"/><line x1="26.09579" y1="38.40869" x2="3.7087" y2="39.20557" fill="none" stroke="#26a9e0" stroke-miterlimit="10" stroke-width="3.6"/><line x1="38.31002" y1="37.96533" x2="26.09579" y2="38.40869" fill="none" stroke="#515ba7" stroke-miterlimit="10" stroke-width="3.6"/><line x1="26.58566" y1="47.0083" x2="3.43624" y2="48.71875" fill="none" stroke="#26a9e0" stroke-miterlimit="10" stroke-width="3.6"/><line x1="48.39291" y1="45.39648" x2="26.58566" y2="47.0083" fill="none" stroke="#515ba7" stroke-miterlimit="10" stroke-width="3.6"/><line x1="27.69259" y1="55.57422" x2="9.29147" y2="57.57373" fill="none" stroke="#26a9e0" stroke-miterlimit="10" stroke-width="3.6"/><line x1="49.80856" y1="53.17139" x2="27.69259" y2="55.57422" fill="none" stroke="#515ba7" stroke-miterlimit="10" stroke-width="3.6"/><line x1="33.08907" y1="80.83301" x2="20.53671" y2="83.80762" fill="none" stroke="#26a9e0" stroke-miterlimit="10" stroke-width="3.6"/><line x1="53.59042" y1="76.00342" x2="33.08907" y2="80.83301" fill="none" stroke="#515ba7" stroke-miterlimit="10" stroke-width="3.6"/><line x1="43.33956" y1="70.19092" x2="35.04598" y2="71.72754" fill="none" stroke="#515ba7" stroke-miterlimit="10" stroke-width="3.6"/><line x1="25.8486" y1="21.00732" x2="6.97604" y2="20.90479" fill="none" stroke="#26a9e0" stroke-miterlimit="10" stroke-width="3.6"/><line x1="30.59969" y1="21.0376" x2="25.8486" y2="21.00732" fill="none" stroke="#515ba7" stroke-miterlimit="10" stroke-width="3.6"/><line x1="19.96395" y1="29.81348" x2="12.03109" y2="29.89648" fill="none" stroke="#26a9e0" stroke-miterlimit="10" stroke-width="3.6"/><line x1="26.1882" y1="12.48145" x2="3.81161" y2="11.45947" fill="none" stroke="#26a9e0" stroke-miterlimit="10" stroke-width="3.6"/><line x1="44.72457" y1="13.32812" x2="26.1882" y2="12.48145" fill="none" stroke="#515ba7" stroke-miterlimit="10" stroke-width="3.6"/><line x1="29.38302" y1="64.28467" x2="24.97494" y2="65.05469" fill="none" stroke="#26a9e0" stroke-miterlimit="10" stroke-width="3.6"/><line x1="48.26974" y1="61.04053" x2="29.38302" y2="64.28467" fill="none" stroke="#515ba7" stroke-miterlimit="10" stroke-width="3.6"/><path d="M26.80331,30.80176c-5.90613-2.52881-11.53235-5.14795-15.69824-8.4082-4.21143-3.26172-6.79639-7.16504-6.59534-12.12939.20837-4.12012,2.36584-7.19971,5.5946-9.78564-.35205-.02734-4.46936-.34619-6.17664-.47852C1.69918,2.75537.22018,5.96338.0151,10.04297c-.12646,3.3208.54504,6.23291,1.87952,8.80371,1.37073,2.57959,3.34546,4.80615,5.71313,6.7666,2.34668,1.95898,5.17224,3.6626,8.16101,5.19824,2.98877,1.53613,6.15662,2.90771,9.29639,4.22266,5.85486,2.46191,11.71777,4.67725,16.04187,7.31006,1.08679.6582,2.0835,1.34277,2.97034,2.06494.91565.7168,1.72278,1.47021,2.40173,2.27344,1.35815,1.60645,2.20386,3.40723,2.38293,5.52344l4.47595-.46436c-.23096-2.74121-1.23889-5.04297-2.82471-7.06934-1.55798-2.03174-3.61145-3.80273-6.0979-5.40088-4.99304-3.19385-11.32031-5.76855-17.61206-8.46973Z" fill="#e2a78a"/><path d="M25.84847,20.85547l-.84741.36426c-6.23193,2.7002-12.69995,5.60596-17.3606,9.59375-2.34949,1.9917-4.31726,4.24756-5.65344,6.85596-1.27332,2.61523-1.92883,5.58594-1.75183,8.9541.51721,6.76562,4.17114,11.46436,9.4585,14.80469,2.62097,1.67432,5.5708,3.02246,8.72241,4.16992,3.18677,1.14453,6.52637,2.08887,9.82825,2.96826,3.08826.82275,6.12537,1.5835,8.96301,2.38477,2.83813.80225,5.57434,1.61914,7.91492,2.59131,2.35303.96973,4.36304,2.08203,5.88708,3.45557,1.54346,1.36816,2.71338,2.9541,3.21497,4.96582.00159.00635.04639.18408.04797.19043,1.75513-.46143,3.21753-.84619,4.35095-1.14404-.00854-.03467-.03711-.15137-.04565-.18604-1.41833-5.11865-5.21558-8.32422-10.64429-10.72949-5.2821-2.43799-11.94849-4.0957-18.57629-5.94531-6.12292-1.74219-12.04248-3.63916-16.63074-6.39551-2.31812-1.37842-4.16187-2.97168-5.55396-4.85449-1.37036-1.88135-2.28357-4.05762-2.44678-6.57031-.24463-5.02686,2.23792-9.01855,6.4364-12.32129,4.16406-3.31592,9.71545-5.98926,15.6084-8.57422,6.28931-2.77051,12.56116-5.39844,17.51624-8.70703,2.46094-1.65527,4.5188-3.47559,6.02295-5.58301,1.54492-2.11377,2.50879-4.51172,2.69031-7.34131l-4.48657-.34766c-.58545,8.43408-11.22522,12.48828-22.66479,17.40088" fill="#c7873a"/><path d="M16.74203,92.02246c1.54663-2.59717,3.75439-5.07373,6.32983-7.45166,2.61487-2.38525,5.65173-4.68701,8.72668-6.92627,2.76196-2.00781,5.56018-3.97266,8.16968-5.94287,2.62073-1.97314,5.14673-3.97852,7.21643-6.0376,2.10449-2.06934,3.70325-4.17285,4.84766-6.47168,1.13525-2.29834,1.63123-4.73633,1.30566-7.45068l-4.47595.46436c.24658,2.09912-.19409,4.02051-1.19336,5.86475-.99768,1.84326-2.54736,3.60449-4.36768,5.32227-3.67883,3.44482-8.91272,6.83105-14.14307,10.50391-7.77539,5.50781-15.83167,11.68555-18.36926,19.69092,1.77515-.46631,3.78162-.99414,5.95337-1.56543Z" fill="#e2a78a"/><line x1="33.90341" y1="90.271" x2="12.99606" y2="95.95801" fill="none" stroke="#26a9e0" stroke-miterlimit="10" stroke-width="3.6"/><line x1="56.53915" y1="84.09033" x2="33.90341" y2="90.271" fill="none" stroke="#515ba7" stroke-miterlimit="10" stroke-width="3.6"/><line x1="45.94845" y1="122.00684" x2="25.78756" y2="131.77002" fill="none" stroke="#26a9e0" stroke-miterlimit="10" stroke-width="3.6"/><line x1="56.94271" y1="116.66797" x2="45.94845" y2="122.00684" fill="none" stroke="#515ba7" stroke-miterlimit="10" stroke-width="3.6"/><line x1="49.93563" y1="129.63867" x2="29.65084" y2="140.92334" fill="none" stroke="#26a9e0" stroke-miterlimit="10" stroke-width="3.6"/><line x1="69.04452" y1="119.0083" x2="49.93563" y2="129.63867" fill="none" stroke="#515ba7" stroke-miterlimit="10" stroke-width="3.6"/><line x1="54.59237" y1="136.90723" x2="38.90414" y2="146.72949" fill="none" stroke="#26a9e0" stroke-miterlimit="10" stroke-width="3.6"/><line x1="73.44772" y1="125.10156" x2="54.59237" y2="136.90723" fill="none" stroke="#515ba7" stroke-miterlimit="10" stroke-width="3.6"/><line x1="70.93063" y1="156.83203" x2="61.33224" y2="165.44922" fill="none" stroke="#26a9e0" stroke-miterlimit="10" stroke-width="3.6"/><line x1="86.6285" y1="142.7915" x2="70.93063" y2="156.83203" fill="none" stroke="#515ba7" stroke-miterlimit="10" stroke-width="3.6"/><line x1="75.02364" y1="142.72266" x2="68.39095" y2="147.93311" fill="none" stroke="#515ba7" stroke-miterlimit="10" stroke-width="3.6"/><line x1="38.99569" y1="106.06006" x2="21.41134" y2="112.92383" fill="none" stroke="#26a9e0" stroke-miterlimit="10" stroke-width="3.6"/><line x1="43.42538" y1="104.33936" x2="38.99569" y2="106.06006" fill="none" stroke="#515ba7" stroke-miterlimit="10" stroke-width="3.6"/><line x1="36.89535" y1="116.48486" x2="29.61044" y2="119.62646" fill="none" stroke="#26a9e0" stroke-miterlimit="10" stroke-width="3.6"/><line x1="36.23946" y1="97.98633" x2="14.92294" y2="104.86865" fill="none" stroke="#26a9e0" stroke-miterlimit="10" stroke-width="3.6"/><line x1="53.89755" y1="92.28564" x2="36.23946" y2="97.98633" fill="none" stroke="#515ba7" stroke-miterlimit="10" stroke-width="3.6"/><line x1="59.94662" y1="143.9668" x2="56.36007" y2="146.64062" fill="none" stroke="#26a9e0" stroke-miterlimit="10" stroke-width="3.6"/><line x1="75.35092" y1="132.57959" x2="59.94662" y2="143.9668" fill="none" stroke="#515ba7" stroke-miterlimit="10" stroke-width="3.6"/><path d="M43.57418,114.75732c-3.18079-.02832-6.34375-.11572-9.36462-.38916-1.51038-.13721-2.98535-.32031-4.40906-.56543-1.4198-.24707-2.73218-.57471-4.00598-.96973-2.53308-.79395-4.79187-1.89941-6.64075-3.42529-.91797-.76416-1.7605-1.62695-2.43274-2.61719-.64954-.99512-1.17542-2.10693-1.55884-3.34326-.63794-2.05811-.74597-4.03076-.42969-5.93262.32629-1.90381,1.18152-3.75635,2.28442-5.55811-.34143.08984-4.33533,1.14014-5.99146,1.57568-.59753,1.73486-1.03137,3.53467-1.05432,5.40137-.01697,1.86523.26318,3.81592.90051,5.87061.53381,1.66455,1.15796,3.17139,2.04382,4.49023.87976,1.31982,1.88989,2.47852,3.00708,3.49121,1.11719,1.01221,2.34143,1.87891,3.65076,2.6167,1.30286.74023,2.69861,1.3501,4.22339,1.83203,6.04382,1.94336,12.97717,2.19629,19.81604,2.10791,6.44922-.10596,12.60474-.45508,17.56116.08398,2.48511.26709,4.79822.68213,6.64917,1.51123,1.8822.81152,3.30615,2.0376,4.36536,3.75635l3.83081-2.36084c-1.33472-2.21387-3.09082-3.78125-5.33997-4.84717-2.27856-1.04688-4.79468-1.74512-7.6626-2.1416-2.86316-.39893-6.0293-.52441-9.34851-.55225-3.24805-.01123-6.6853-.02295-10.09399-.03467Z" fill="#e2a78a"/><path d="M38.94186,105.91846l-.65881.65283c-2.40698,2.40918-4.91357,4.94189-6.99377,7.51807-2.11292,2.58789-3.98169,5.28711-5.36963,8.11182-.69409,1.41211-1.26794,2.85547-1.69287,4.3291-.43872,1.47852-.60718,2.94238-.65881,4.45752-.05029,3.00586.52979,6.17041,2.22314,9.28955,1.75232,3.09229,3.98901,5.37939,6.53284,6.99072,2.58105,1.59277,5.60474,2.43652,8.70093,2.84766,3.12463.39502,6.37048.33545,9.71741-.03662,3.39294-.40137,6.81628-1.07129,10.16211-1.80127,3.11365-.69971,6.18396-1.38916,9.0448-2.03174,1.43616-.30908,2.82959-.58984,4.17004-.82227,1.34326-.23438,2.69275-.4751,3.94775-.61914,2.52588-.30127,4.80176-.33447,6.7616.07861,1.96143.41406,3.57141,1.30957,5.0155,2.66016.00439.00439.12769.12842.13208.13281,1.30554-1.26074,2.39343-2.31104,3.23645-3.125-.02344-.02393-.10291-.10449-.12646-.12842-.44666-.44434-.91577-.83838-1.40698-1.18701-.48523-.35547-.94446-.7168-1.45337-1.00684-1.00513-.59424-2.1012-1.02002-3.28076-1.31055s-2.4425-.44629-3.77856-.49707c-1.34265-.04346-2.74939.00879-4.15344.0791-5.68884.35693-12.3822,2.00732-19.15186,3.3584-6.24329,1.20361-12.38928,2.08301-17.77808,1.54541-1.34277-.13672-2.64062-.35986-3.86353-.69678-1.18567-.35889-2.30505-.82568-3.34326-1.41748-2.07593-1.18213-3.8291-2.86572-5.12549-5.15088-1.27722-2.29395-1.62561-4.72363-1.47864-7.10205.18103-2.396.90527-4.76855,2.13708-7.15283,2.51721-4.79346,6.67688-9.48193,11.05603-14.05225,4.72668-4.90527,9.80762-9.68994,13.15881-14.34668,1.66052-2.32324,3.11047-4.71387,3.81653-7.08447.36536-1.19092.57068-2.38916.58484-3.60449.01648-1.21631-.05469-2.49463-.39917-3.78223l-4.35193,1.14453c.25122.97998.32898,1.9458.25513,2.90723-.06873.95898-.22168,1.88623-.54492,2.83252-.62854,1.88428-1.7843,3.78271-3.29663,5.729-.75513.97266-1.60425,1.9585-2.51318,2.95557-.88086.98535-1.83118,1.98633-2.82971,3.00439-1.99707,2.03613-4.18738,4.1416-6.4032,6.33105" fill="#c7873a"/><path d="M62.05843,174.62988c.00427-1.51953.16907-3.08496.47437-4.69141.34814-1.64355.82568-3.31885,1.39954-5.01123,1.14746-3.38574,2.67981-6.84033,4.32153-10.25488,1.50354-3.05273,3.01965-6.13184,4.45227-9.04102,1.46313-2.98438,2.77527-5.87061,3.7124-8.60156.46826-1.36572.84265-2.69287,1.09326-3.97607.24939-1.28271.36194-2.51025.41504-3.77197.05933-2.48633-.48389-4.79395-1.90759-6.94873l-3.83081,2.36084c1.11084,1.68506,1.5033,3.54199,1.38538,5.58496-.12256,2.04492-.76721,4.28125-1.61072,6.58496-1.75635,4.65918-4.83203,10.00928-7.8075,15.74756-1.14526,2.1792-2.15845,4.31445-3.11035,6.51074-.94446,2.19043-1.78674,4.40869-2.44568,6.63525-.65894,2.22607-1.13428,4.46143-1.34656,6.68213-.24414,2.24609-.10291,4.37744.37683,6.46631,1.32043-1.2749,2.81311-2.71631,4.42859-4.27588Z" fill="#e2a78a"/><line x1="76.2153" y1="164.67285" x2="60.82748" y2="179.92871" fill="none" stroke="#26a9e0" stroke-miterlimit="10" stroke-width="3.6"/><line x1="92.85738" y1="148.12891" x2="76.2153" y2="164.67285" fill="none" stroke="#515ba7" stroke-miterlimit="10" stroke-width="3.6"/><line x1="102.77035" y1="185.77588" x2="90.79318" y2="204.70166" fill="none" stroke="#26a9e0" stroke-miterlimit="10" stroke-width="3.6"/><line x1="109.29318" y1="175.44287" x2="102.77035" y2="185.77588" fill="none" stroke="#515ba7" stroke-miterlimit="10" stroke-width="3.6"/><line x1="110.2037" y1="190.12695" x2="98.92257" y2="210.41357" fill="none" stroke="#26a9e0" stroke-miterlimit="10" stroke-width="3.6"/><line x1="120.8309" y1="171.01611" x2="110.2037" y2="190.12695" fill="none" stroke="#515ba7" stroke-miterlimit="10" stroke-width="3.6"/><line x1="118.00277" y1="193.83301" x2="109.76876" y2="210.41016" fill="none" stroke="#26a9e0" stroke-miterlimit="10" stroke-width="3.6"/><line x1="127.89889" y1="173.90918" x2="118.00277" y2="193.83301" fill="none" stroke="#515ba7" stroke-miterlimit="10" stroke-width="3.6"/><line x1="142.2192" y1="202.84033" x2="137.89401" y2="214.99072" fill="none" stroke="#26a9e0" stroke-miterlimit="10" stroke-width="3.6"/><line x1="149.29928" y1="183.00781" x2="142.2192" y2="202.84033" fill="none" stroke="#515ba7" stroke-miterlimit="10" stroke-width="3.6"/><line x1="138.73605" y1="188.42969" x2="135.58798" y2="196.25488" fill="none" stroke="#515ba7" stroke-miterlimit="10" stroke-width="3.6"/><line x1="88.52438" y1="175.78662" x2="76.99728" y2="190.72607" fill="none" stroke="#26a9e0" stroke-miterlimit="10" stroke-width="3.6"/><line x1="91.43368" y1="172.03174" x2="88.52438" y2="175.78662" fill="none" stroke="#515ba7" stroke-miterlimit="10" stroke-width="3.6"/><line x1="92.14645" y1="185.83105" x2="87.58175" y2="192.31982" fill="none" stroke="#26a9e0" stroke-miterlimit="10" stroke-width="3.6"/><line x1="82.06088" y1="170.21875" x2="67.13119" y2="186.91797" fill="none" stroke="#26a9e0" stroke-miterlimit="10" stroke-width="3.6"/><line x1="94.42831" y1="156.38525" x2="82.06088" y2="170.21875" fill="none" stroke="#515ba7" stroke-miterlimit="10" stroke-width="3.6"/><line x1="126.26205" y1="197.06396" x2="124.55563" y2="201.20361" fill="none" stroke="#26a9e0" stroke-miterlimit="10" stroke-width="3.6"/><line x1="133.62069" y1="179.3584" x2="126.26205" y2="197.06396" fill="none" stroke="#515ba7" stroke-miterlimit="10" stroke-width="3.6"/><path d="M96.95248,180.83691c-2.76562,1.70312-5.47656,3.23291-8.18005,4.53027-2.70508,1.30078-5.39453,2.36035-8.02197,3.00586-5.30774,1.3833-10.13574.70361-14.1792-2.80908-1.70825-1.42627-2.74988-3.20996-3.42114-5.08936-.66785-1.88428-.92664-3.90625-.88391-6.03662-.25391.24512-3.22485,3.11377-4.45667,4.30322.37598,1.83643.99011,3.61475,1.90906,5.32812.92078,1.71094,2.11328,3.3916,3.82715,4.82568,2.72729,2.38965,5.63586,3.85205,8.60217,4.55029,3.05762.57568,6.15833.41895,9.23242-.25,6.10742-1.26318,12.30103-4.89746,18.05383-8.5376,2.67346-1.72021,5.30945-3.4165,7.76575-4.99707,2.51086-1.6123,4.92334-3.08496,7.19189-4.19922,2.27136-1.11719,4.40735-1.89014,6.40466-2.12988,2.01917-.26416,3.98877-.09521,5.81274.84961l2.02649-4.01758c-4.78882-2.30371-9.49231-1.52539-14.87964.93652-1.34924.62598-2.66956,1.28223-4.0249,2.01611-1.35583.73535-2.73816,1.54004-4.14185,2.38525-2.77917,1.7168-5.72034,3.53369-8.63684,5.33545Z" fill="#e2a78a"/><path d="M88.40243,175.69678l-.22119.89014c-.81104,3.29346-1.56055,6.66895-2.03418,10.02344-.23682,1.67725-.40466,3.34912-.47705,5.00244-.03613.82666-.04858,1.64844-.03381,2.46387.02527.79736.08411,1.57666.16992,2.35303.68945,6.15479,3.33362,11.98975,9.53162,15.42188,1.53564.87842,3.06311,1.55518,4.5918,1.95703,1.53772.36426,3.06226.52246,4.56653.50098,3.01196-.05371,5.93005-.77637,8.7644-2.07861,5.68921-2.67676,10.98938-7.24854,15.97766-11.83643,4.70898-4.39307,9.11926-8.73633,13.30103-11.59668,2.07556-1.40967,4.15918-2.53125,6.20886-3.08838,2.04944-.55713,4.07092-.56494,6.10413.16455.00635.00244.18579.06738.19214.06982.58594-1.71777,1.07422-3.14893,1.45264-4.25781-.03516-.01318-.15356-.05664-.18872-.06982-2.6438-.94922-5.20496-1.00879-7.74243-.4248-2.54785.59814-4.94934,1.7124-7.44067,3.31592-2.47314,1.58594-4.96008,3.58691-7.46875,5.77344-2.47986,2.14209-4.98096,4.45312-7.52148,6.72998-4.74146,4.22168-9.58289,8.39307-14.36157,10.61816-2.39844,1.14258-4.80457,1.87207-7.19397,2.01611-2.40063.18896-4.73792-.38135-7.00623-1.69873-2.26489-1.32227-3.93347-3.04639-5.05859-5.16602-1.10278-2.17676-1.6991-4.65625-1.92371-7.32861-.2251-2.67285-.07947-5.53857.28735-8.49902.40698-3.02295,1.04736-6.15332,1.75244-9.27148,1.53601-6.70166,3.24878-13.15674,3.98254-18.98877.33362-2.88135.34753-5.52148-.19153-7.83447-.48083-2.37988-1.40808-4.54102-3.20422-6.30469l-3.2373,3.12549c1.36694,1.3623,2.10474,3.03418,2.41003,4.99023.07617.48926.12512.99561.14954,1.51904.03284.51416.0614,1.02344.05627,1.56152-.00488,1.0708-.09912,2.20752-.26172,3.40332-.32556,2.39111-.92468,5.01807-1.64136,7.81201-.71912,2.7959-1.5647,5.77051-2.29041,8.73193" fill="#c7873a"/><path d="M142.51461,222.67139c-2.49695-5.45361-3.23914-12.83789-3.7019-20.41602-.38806-6.85986-.58667-13.7627-1.90991-19.42773-.62573-2.87988-1.49512-5.48096-2.83069-7.61084-.66675-1.06641-1.44739-2.01953-2.36926-2.8418-.88013-.86475-1.88586-1.61279-3.06714-2.21143l-2.02649,4.01758c3.60229,1.92822,5.43115,5.61768,6.32568,10.66602.88147,5.06641,1.04663,11.14746,1.32495,17.54932.10925,2.40479.2428,4.8335.46069,7.23096.21545,2.41016.52246,4.75928.97302,6.9834.89624,4.47461,2.35767,8.59082,4.8335,11.88672.59253-1.7373,1.26245-3.70068,1.98755-5.82617Z" fill="#e2a78a"/><line x1="150.55819" y1="207.36279" x2="143.61373" y2="227.88965" fill="none" stroke="#26a9e0" stroke-miterlimit="10" stroke-width="3.6"/><line x1="158.06747" y1="185.12939" x2="150.55819" y2="207.36279" fill="none" stroke="#515ba7" stroke-miterlimit="10" stroke-width="3.6"/><line x1="183.17025" y1="216.9541" x2="177.25411" y2="238.55859" fill="none" stroke="#26a9e0" stroke-miterlimit="10" stroke-width="3.6"/><line x1="186.39633" y1="205.16553" x2="183.17025" y2="216.9541" fill="none" stroke="#515ba7" stroke-miterlimit="10" stroke-width="3.6"/><line x1="191.49691" y1="219.16064" x2="185.61385" y2="241.61523" fill="none" stroke="#26a9e0" stroke-miterlimit="10" stroke-width="3.6"/><line x1="197.03878" y1="198.00781" x2="191.49691" y2="219.16064" fill="none" stroke="#515ba7" stroke-miterlimit="10" stroke-width="3.6"/><line x1="199.93868" y1="221.01758" x2="195.29257" y2="238.93408" fill="none" stroke="#26a9e0" stroke-miterlimit="10" stroke-width="3.6"/><line x1="205.52279" y1="199.4834" x2="199.93868" y2="221.01758" fill="none" stroke="#515ba7" stroke-miterlimit="10" stroke-width="3.6"/><line x1="225.32186" y1="226.48193" x2="222.03866" y2="238.95508" fill="none" stroke="#26a9e0" stroke-miterlimit="10" stroke-width="3.6"/><line x1="230.67696" y1="206.11426" x2="225.32186" y2="226.48193" fill="none" stroke="#515ba7" stroke-miterlimit="10" stroke-width="3.6"/><line x1="220.07333" y1="212.4375" x2="217.91293" y2="220.59082" fill="none" stroke="#515ba7" stroke-miterlimit="10" stroke-width="3.6"/><line x1="166.38473" y1="212.35205" x2="161.33016" y2="230.53857" fill="none" stroke="#26a9e0" stroke-miterlimit="10" stroke-width="3.6"/><line x1="167.65988" y1="207.77393" x2="166.38473" y2="212.35205" fill="none" stroke="#515ba7" stroke-miterlimit="10" stroke-width="3.6"/><line x1="173.23129" y1="220.37207" x2="171.10726" y2="228.01611" fill="none" stroke="#26a9e0" stroke-miterlimit="10" stroke-width="3.6"/><line x1="158.22762" y1="209.84863" x2="151.59017" y2="231.24268" fill="none" stroke="#26a9e0" stroke-miterlimit="10" stroke-width="3.6"/><line x1="163.72592" y1="192.12646" x2="158.22762" y2="209.84863" fill="none" stroke="#515ba7" stroke-miterlimit="10" stroke-width="3.6"/><line x1="208.67867" y1="222.68652" x2="207.66586" y2="227.04736" fill="none" stroke="#26a9e0" stroke-miterlimit="10" stroke-width="3.6"/><line x1="213.01522" y1="204.01025" x2="208.67867" y2="222.68652" fill="none" stroke="#515ba7" stroke-miterlimit="10" stroke-width="3.6"/><path d="M176.08041,214.08789c-4.07166,4.90918-8.09082,9.67139-12.26025,12.86719-4.17847,3.13281-8.5304,4.74219-13.1908,3.2959-3.89001-1.26514-6.33228-4.05127-8.01794-7.84521-.11401.33398-1.44727,4.24268-2.00012,5.86328,2.09534,2.86621,4.82642,5.02588,8.67224,6.27588,12.48022,3.83447,21.70911-7.06152,30.36084-17.59277,8.11658-9.88623,15.58765-19.28076,24.54224-16.96094l1.12988-4.35596c-5.89026-1.5376-11.05725.45752-15.76794,4.13135-4.73474,3.67334-9.12573,9.08447-13.46814,14.32129Z" fill="#e2a78a"/><path d="M166.2391,212.31055l.12744.91797c1.87427,13.50879,4.31042,27.58984,16.41785,30.78809,12.02881,3.14355,20.76636-7.92041,29.35632-18.54004,4.01038-4.96729,7.93506-9.79004,12.00024-13.06934,4.06873-3.26172,8.30847-4.94824,12.8877-3.69922.00708.00195.20911.05811.21631.06006.48755-1.74805.8938-3.20459,1.20862-4.3335-.04041-.01123-.17651-.0498-.21692-.06104-12.198-3.36084-21.13452,7.65332-29.69275,18.28174-8.0105,9.95996-15.52759,19.38037-24.61609,17.00928-4.55933-1.20801-7.36682-4.81445-9.24365-9.66943-1.89392-4.89209-2.85815-11.0498-3.78381-17.35693-1.00427-6.72559-1.90027-13.6416-3.92041-19.22314-2.06616-5.55957-5.04895-9.96631-10.47766-11.729l-1.45288,4.25879c4.05493,1.33008,6.37744,4.83838,7.94434,9.57666,1.59973,4.68994,2.3905,10.61865,3.24536,16.78906" fill="#c7873a"/><path d="M226.81991,246.14746c-2.55188-5.146-3.73486-12.43652-4.95129-19.97656-2.16882-13.46924-4.64978-27.45459-16.55212-30.53564l-1.12988,4.35596c9.00391,2.33154,11.0863,14.25293,13.15991,26.85889,1.57654,9.47217,3.06787,19.22461,7.8197,25.22705.49304-1.76807,1.05042-3.7666,1.65369-5.92969Z" fill="#e2a78a"/><line x1="233.97067" y1="230.44775" x2="227.99252" y2="251.2749" fill="none" stroke="#26a9e0" stroke-miterlimit="10" stroke-width="3.6"/><line x1="240.45052" y1="207.89404" x2="233.97067" y2="230.44775" fill="none" stroke="#515ba7" stroke-miterlimit="10" stroke-width="3.6"/><line x1="266.44113" y1="240.51123" x2="259.04501" y2="261.65332" fill="none" stroke="#26a9e0" stroke-miterlimit="10" stroke-width="3.6"/><line x1="270.48104" y1="228.97754" x2="266.44113" y2="240.51123" fill="none" stroke="#515ba7" stroke-miterlimit="10" stroke-width="3.6"/><line x1="274.55087" y1="243.41602" x2="266.58566" y2="265.21875" fill="none" stroke="#26a9e0" stroke-miterlimit="10" stroke-width="3.6"/><line x1="282.05428" y1="222.87695" x2="274.55087" y2="243.41602" fill="none" stroke="#515ba7" stroke-miterlimit="10" stroke-width="3.6"/><line x1="282.74996" y1="246.15967" x2="276.0527" y2="263.41504" fill="none" stroke="#26a9e0" stroke-miterlimit="10" stroke-width="3.6"/><line x1="290.79928" y1="225.4209" x2="282.74996" y2="246.15967" fill="none" stroke="#515ba7" stroke-miterlimit="10" stroke-width="3.6"/><line x1="307.11483" y1="255.25342" x2="301.75582" y2="266.98535" fill="none" stroke="#26a9e0" stroke-miterlimit="10" stroke-width="3.6"/><line x1="315.85043" y1="236.09033" x2="307.11483" y2="255.25342" fill="none" stroke="#515ba7" stroke-miterlimit="10" stroke-width="3.6"/><line x1="304.10323" y1="240.47607" x2="300.71493" y2="248.2002" fill="none" stroke="#515ba7" stroke-miterlimit="10" stroke-width="3.6"/><line x1="249.86556" y1="235.20947" x2="244.51986" y2="253.31055" fill="none" stroke="#26a9e0" stroke-miterlimit="10" stroke-width="3.6"/><line x1="251.20919" y1="230.65186" x2="249.86556" y2="235.20947" fill="none" stroke="#515ba7" stroke-miterlimit="10" stroke-width="3.6"/><line x1="256.38949" y1="243.40918" x2="253.93368" y2="250.95264" fill="none" stroke="#26a9e0" stroke-miterlimit="10" stroke-width="3.6"/><line x1="241.71908" y1="232.67529" x2="235.40255" y2="254.16602" fill="none" stroke="#26a9e0" stroke-miterlimit="10" stroke-width="3.6"/><line x1="246.9515" y1="214.87256" x2="241.71908" y2="232.67529" fill="none" stroke="#515ba7" stroke-miterlimit="10" stroke-width="3.6"/><line x1="291.22884" y1="248.90234" x2="289.62911" y2="253.08545" fill="none" stroke="#26a9e0" stroke-miterlimit="10" stroke-width="3.6"/><line x1="298.05172" y1="230.97656" x2="291.22884" y2="248.90234" fill="none" stroke="#515ba7" stroke-miterlimit="10" stroke-width="3.6"/><path d="M259.51254,237.2583c-4.30847,4.7124-8.39929,9.30957-12.51025,12.47607-4.11804,3.16211-8.14209,4.73486-12.48877,3.5-3.61304-1.03418-5.88831-3.68945-7.6123-7.35742-.09485.33984-1.20435,4.31787-1.66443,5.96729,2.01257,2.70068,4.50122,4.7041,8.01428,5.70947,5.68555,1.64648,10.69849-.11523,15.5802-3.63965,4.82397-3.44922,9.44531-8.58789,14.0907-13.6167,4.34998-4.72803,8.6344-9.19678,13.0155-12.09521,4.37219-2.88135,8.8667-4.28711,13.41797-2.45654l1.61646-4.19922c-1.52112-.59131-3.01196-.96582-4.47607-1.11914-1.46863-.12695-2.90674-.05664-4.31458.18359-2.81616.48047-5.51025,1.64014-8.09949,3.25098-5.17566,3.20947-9.96802,8.37988-14.56921,13.39648Z" fill="#e2a78a"/><path d="M249.7203,235.16699l.11365.9165c.41748,3.38574.81812,6.79346,1.3562,10.05371.53125,3.27588,1.18298,6.42871,2.12903,9.25342.94495,2.82764,2.177,5.33984,3.8606,7.37158,1.68628,2.0293,3.75684,3.67529,6.49011,4.63916,5.47913,1.89453,10.49268.51221,15.56189-2.66553,5.06628-3.1958,10.0094-7.92188,15.02161-12.55908,4.67834-4.31982,9.35938-8.53125,13.9801-11.05615,4.60266-2.49023,9.20105-3.37451,13.66211-1.27686.00696.00342.20349.09668.21045.09961.79712-1.62988,1.4613-2.98877,1.97595-4.0415-.03943-.01904-.17273-.08301-.21228-.10205-2.97815-1.40088-5.91345-1.88867-8.77515-1.68115-2.86304.20752-5.64587,1.09082-8.39246,2.54492-5.47559,2.85205-10.64465,7.53369-15.60205,12.18799-4.63391,4.34717-9.0929,8.75732-13.35645,11.5874-2.13611,1.42432-4.23132,2.47314-6.302,2.96631-2.07593.50146-4.16711.51709-6.24695-.23779-2.08447-.74609-3.69373-2.05371-4.96729-3.80029-1.28101-1.7334-2.24976-3.86084-2.98901-6.32764-1.48621-4.9165-2.11084-11.10498-2.85229-17.46143-.80188-6.76074-1.70068-13.66309-3.95715-19.35107-2.25391-5.69141-5.86304-10.03906-11.96936-11.79297l-1.20886,4.33496c4.48267,1.271,7.23206,4.7998,9.03418,9.51514,1.80688,4.729,2.6665,10.72998,3.43542,16.88281" fill="#c7873a"/><path d="M305.06136,274.80615c-1.48535-5.43408-1.34167-12.79248-1.30005-20.45215.05737-6.90625-.10669-13.77002-1.77051-19.70703-.83789-2.95068-2.05664-5.66553-3.83789-7.92236-1.79285-2.2085-4.13916-3.99121-7.18103-5.17822l-1.61646,4.19922c9.18054,3.49463,9.76208,15.86475,9.83923,28.54395.05005,4.75781-.02356,9.67871.34082,14.1582.36096,4.48975,1.1333,8.58887,2.82214,11.88818.80615-1.64844,1.71741-3.5127,2.70374-5.52979Z" fill="#e2a78a"/><line x1="314.93868" y1="260.68164" x2="305.19772" y2="280.03564" fill="none" stroke="#26a9e0" stroke-miterlimit="10" stroke-width="3.6"/><line x1="325.4996" y1="239.72754" x2="314.93868" y2="260.68164" fill="none" stroke="#515ba7" stroke-miterlimit="10" stroke-width="3.6"/><line x1="344.57089" y1="277.31836" x2="332.59017" y2="296.24561" fill="none" stroke="#26a9e0" stroke-miterlimit="10" stroke-width="3.6"/><line x1="351.11312" y1="266.99512" x2="344.57089" y2="277.31836" fill="none" stroke="#515ba7" stroke-miterlimit="10" stroke-width="3.6"/><line x1="351.82406" y1="281.9624" x2="339.02096" y2="301.32471" fill="none" stroke="#26a9e0" stroke-miterlimit="10" stroke-width="3.6"/><line x1="363.88485" y1="263.72217" x2="351.82406" y2="281.9624" fill="none" stroke="#515ba7" stroke-miterlimit="10" stroke-width="3.6"/><line x1="359.15817" y1="286.54492" x2="348.5693" y2="301.72607" fill="none" stroke="#26a9e0" stroke-miterlimit="10" stroke-width="3.6"/><line x1="371.88473" y1="268.29834" x2="359.15817" y2="286.54492" fill="none" stroke="#515ba7" stroke-miterlimit="10" stroke-width="3.6"/><line x1="380.60348" y1="301.2583" x2="372.55831" y2="311.33984" fill="none" stroke="#26a9e0" stroke-miterlimit="10" stroke-width="3.6"/><line x1="393.72701" y1="284.7876" x2="380.60348" y2="301.2583" fill="none" stroke="#515ba7" stroke-miterlimit="10" stroke-width="3.6"/><line x1="381.28817" y1="286.15186" x2="376.13119" y2="292.82617" fill="none" stroke="#515ba7" stroke-miterlimit="10" stroke-width="3.6"/><line x1="329.56686" y1="268.5083" x2="320.56149" y2="285.09668" fill="none" stroke="#26a9e0" stroke-miterlimit="10" stroke-width="3.6"/><line x1="331.83041" y1="264.32959" x2="329.56686" y2="268.5083" fill="none" stroke="#515ba7" stroke-miterlimit="10" stroke-width="3.6"/><line x1="334.19894" y1="277.84229" x2="330.15878" y2="284.66992" fill="none" stroke="#26a9e0" stroke-miterlimit="10" stroke-width="3.6"/><line x1="322.10629" y1="264.37305" x2="311.66549" y2="284.19092" fill="none" stroke="#26a9e0" stroke-miterlimit="10" stroke-width="3.6"/><line x1="330.75521" y1="247.95605" x2="322.10629" y2="264.37305" fill="none" stroke="#515ba7" stroke-miterlimit="10" stroke-width="3.6"/><line x1="366.70931" y1="291.27246" x2="364.15255" y2="294.94824" fill="none" stroke="#26a9e0" stroke-miterlimit="10" stroke-width="3.6"/><line x1="377.63168" y1="275.50977" x2="366.70931" y2="291.27246" fill="none" stroke="#515ba7" stroke-miterlimit="10" stroke-width="3.6"/><path d="M338.57931,272.53369c-5.22717,3.64111-10.26611,7.37012-14.87012,9.58008-4.62402,2.23291-8.7915,2.94727-12.69946,1.00879-3.23218-1.6499-4.85522-4.68066-5.81934-8.56836-.15515.31738-1.96899,4.02734-2.72119,5.56543,1.39783,2.97656,3.33606,5.39941,6.45593,6.99072,1.26465.65088,2.53967,1.07959,3.82849,1.31738,1.27393.26318,2.54309.36768,3.83997.29053,2.58801-.146,5.24377-.94238,7.95654-2.1543,2.7041-1.19824,5.49878-2.87012,8.26404-4.62549,2.77002-1.76318,5.57568-3.71924,8.38953-5.63916,5.26331-3.59131,10.49561-7.01318,15.48462-8.86719,4.95178-1.80811,9.59961-1.92139,13.69727.84766l2.56189-3.69971c-5.48059-3.70654-11.24756-3.83105-17.13745-1.76709-5.85254,1.99072-11.65552,5.84961-17.23071,9.7207Z" fill="#e2a78a"/><path d="M329.43405,268.43506l-.08142.92285c-.61475,6.82373-1.34338,13.63867-.77893,19.51221.51953,5.96631,2.37671,10.85156,7.1593,13.88965,4.6792,3.20166,9.95837,2.8501,15.60461.95898,5.57495-1.80273,11.54785-5.25781,17.53857-8.56592,11.24683-6.2832,22.11926-11.49756,29.81226-5.26318.00586.00488.17419.14258.18005.14746,1.16907-1.38818,2.14307-2.54443,2.89783-3.44092-.03369-.02783-.14758-.12256-.1814-.15039-5.11462-4.16016-10.90527-4.72559-16.84509-3.36816-6.03711,1.45898-12.2019,4.771-18.14404,8.11523-5.57422,3.1499-10.81543,6.18311-15.67847,8.0332-4.83667,1.80322-9.12781,2.21582-12.7251-.23535-3.66248-2.34814-5.04736-6.38379-5.34326-11.53906-.15405-2.56299-.02368-5.41553.19775-8.38086.21082-2.94727.54407-6.05859.85315-9.22998.66125-6.78174,1.20105-13.75537.09277-19.86523-1.1637-5.97705-4.00806-11.10254-9.9043-14.07275l-1.97656,4.04248c4.30786,2.15381,6.42212,6.23291,7.32227,11.22559.92029,4.96729.53931,11.06299,0,17.26416" fill="#c7873a"/><path d="M373.87228,319.7207c-.12512-5.62695,1.79724-12.72705,3.69312-20.14453.84851-3.3208,1.68201-6.69873,2.27661-10.01514.55933-3.27295.88562-6.49365.77051-9.55713-.11487-3.06299-.67188-5.96973-1.86902-8.60547-.59839-1.31738-1.35657-2.56738-2.297-3.7334-.97205-1.12402-2.13416-2.15479-3.49902-3.08496l-2.56189,3.69971c4.13318,2.72314,5.50708,7.31543,5.56726,12.57178.04858,5.28076-1.28479,11.34717-2.76575,17.5083-2.32593,9.41162-4.95227,18.86084-3.27991,26.06934,1.18225-1.40381,2.51868-2.99072,3.96509-4.7085Z" fill="#e2a78a"/><line x1="386.91378" y1="308.37891" x2="372.81429" y2="324.83301" fill="none" stroke="#26a9e0" stroke-miterlimit="10" stroke-width="3.6"/><line x1="402.18429" y1="290.56104" x2="386.91378" y2="308.37891" fill="none" stroke="#515ba7" stroke-miterlimit="10" stroke-width="3.6"/><line x1="412.30514" y1="330.98047" x2="396.7756" y2="347.12354" fill="none" stroke="#26a9e0" stroke-miterlimit="10" stroke-width="3.6"/><line x1="420.78219" y1="322.17627" x2="412.30514" y2="330.98047" fill="none" stroke="#515ba7" stroke-miterlimit="10" stroke-width="3.6"/><line x1="418.48422" y1="336.98193" x2="402.11739" y2="353.44238" fill="none" stroke="#26a9e0" stroke-miterlimit="10" stroke-width="3.6"/><line x1="433.90231" y1="321.47607" x2="418.48422" y2="336.98193" fill="none" stroke="#515ba7" stroke-miterlimit="10" stroke-width="3.6"/><line x1="424.77059" y1="342.91992" x2="411.41439" y2="355.73438" fill="none" stroke="#26a9e0" stroke-miterlimit="10" stroke-width="3.6"/><line x1="440.82321" y1="327.51855" x2="424.77059" y2="342.91992" fill="none" stroke="#515ba7" stroke-miterlimit="10" stroke-width="3.6"/><line x1="442.90463" y1="361.58008" x2="432.97079" y2="369.80615" fill="none" stroke="#26a9e0" stroke-miterlimit="10" stroke-width="3.6"/><line x1="459.11154" y1="348.1333" x2="442.90463" y2="361.58008" fill="none" stroke="#515ba7" stroke-miterlimit="10" stroke-width="3.6"/><line x1="446.54488" y1="346.93311" x2="440.16244" y2="352.44775" fill="none" stroke="#515ba7" stroke-miterlimit="10" stroke-width="3.6"/><line x1="399.4338" y1="319.26855" x2="387.10336" y2="333.55908" fill="none" stroke="#26a9e0" stroke-miterlimit="10" stroke-width="3.6"/><line x1="402.5361" y1="315.66895" x2="399.4338" y2="319.26855" fill="none" stroke="#515ba7" stroke-miterlimit="10" stroke-width="3.6"/><line x1="401.98715" y1="329.42578" x2="396.63033" y2="335.27734" fill="none" stroke="#26a9e0" stroke-miterlimit="10" stroke-width="3.6"/><line x1="393.0444" y1="313.61475" x2="378.43038" y2="330.59082" fill="none" stroke="#26a9e0" stroke-miterlimit="10" stroke-width="3.6"/><line x1="405.15035" y1="299.55225" x2="393.0444" y2="313.61475" fill="none" stroke="#515ba7" stroke-miterlimit="10" stroke-width="3.6"/><line x1="431.27816" y1="349.01123" x2="428.05026" y2="352.11182" fill="none" stroke="#26a9e0" stroke-miterlimit="10" stroke-width="3.6"/><line x1="445.07797" y1="335.70508" x2="431.27816" y2="349.01123" fill="none" stroke="#515ba7" stroke-miterlimit="10" stroke-width="3.6"/><path d="M407.37618,325.11719c-11.78333,5.01562-22.53979,10.12793-29.36621,4.25244-1.44031-1.23145-2.40161-2.68311-3.03552-4.35107-.63159-1.66211-.91614-3.55664-.91589-5.51074-.22742.27002-2.88745,3.42871-3.9906,4.73877.31519,1.55859.89844,3.15234,1.72253,4.58691.82764,1.44287,1.88635,2.75195,3.28882,3.95117,4.51501,3.86865,9.8186,4.28125,15.66931,3.10742,5.83228-1.17725,12.15955-3.95117,18.4657-6.59082,11.74231-4.92041,23.24976-9.21875,30.15332-2.10352l3.23682-3.12598c-4.5863-4.75195-10.32312-5.83789-16.39844-5.05811-6.08801.7832-12.5498,3.4209-18.82983,6.10352Z" fill="#e2a78a"/><path d="M399.31942,319.16943l-.27539.8833c-2.03198,6.51758-4.19006,13.09961-4.81042,19.00684-.63928,5.92822.27124,11.13916,4.33789,15.15674,4.07898,4.01123,9.26074,4.76807,15.14478,4.03809,5.85913-.72314,12.40857-2.9624,18.91077-5.00195,6.11255-1.9375,12.0697-3.63525,17.37903-3.91895,5.25842-.2417,9.86938.96094,12.93799,4.94043.00476.00586.1405.18066.14539.18701,1.43359-1.11279,2.62817-2.03955,3.55396-2.7583-.02722-.03564-.11926-.15527-.14661-.19092-1.03625-1.32227-2.15869-2.43799-3.36389-3.35254-1.22058-.89648-2.51367-1.60352-3.86426-2.14404-2.68884-1.09619-5.65698-1.46582-8.73865-1.39014-6.14514.12891-12.88159,2.19336-19.34888,4.28711-6.10364,2.00684-11.89282,4.02197-16.97864,4.83496-5.06189.7876-9.35181.33838-12.47534-2.73877-6.24512-6.10693-2.22437-17.31934,1.65759-29.52197,4.16931-12.97852,8.03113-26.8042-1.61243-34.88818l-2.89868,3.44238c7.10657,5.94238,4.11682,17.27051.4458,29.12891" fill="#c7873a"/><path d="M432.43307,378.25391c1.15845-5.53271,4.48303-12.05566,7.82886-18.93359,2.96716-6.13037,5.88525-12.52588,6.86316-18.59814.48706-3.03125.52991-6.03125-.1676-8.82031-.67859-2.81201-2.05725-5.46533-4.35303-7.83008l-3.23682,3.12598c6.86926,7.15918,2.25513,18.57227-3.20898,30.10107-2.0448,4.34619-4.17346,8.68604-5.82068,12.87207-.81665,2.08838-1.50037,4.12939-1.97375,6.10352-.49951,1.99023-.79114,3.91357-.79419,5.75342,1.44995-1.125,3.08899-2.39746,4.86304-3.77393Z" fill="#e2a78a"/><line x1="447.54501" y1="369.90527" x2="430.24801" y2="382.95508" fill="none" stroke="#26a9e0" stroke-miterlimit="10" stroke-width="3.6"/><line x1="466.28756" y1="355.78662" x2="447.54501" y2="369.90527" fill="none" stroke="#515ba7" stroke-miterlimit="10" stroke-width="3.6"/><line x1="466.23348" y1="398.27344" x2="446.62301" y2="409.09473" fill="none" stroke="#26a9e0" stroke-miterlimit="10" stroke-width="3.6"/><line x1="476.93844" y1="392.37891" x2="466.23348" y2="398.27344" fill="none" stroke="#515ba7" stroke-miterlimit="10" stroke-width="3.6"/><line x1="470.2579" y1="405.88916" x2="449.53646" y2="416.35059" fill="none" stroke="#26a9e0" stroke-miterlimit="10" stroke-width="3.6"/><line x1="489.77804" y1="396.03418" x2="470.2579" y2="405.88916" fill="none" stroke="#515ba7" stroke-miterlimit="10" stroke-width="3.6"/><line x1="474.27706" y1="413.54834" x2="457.40475" y2="421.15918" fill="none" stroke="#26a9e0" stroke-miterlimit="10" stroke-width="3.6"/><line x1="494.5555" y1="404.40088" x2="474.27706" y2="413.54834" fill="none" stroke="#515ba7" stroke-miterlimit="10" stroke-width="3.6"/><line x1="484.41964" y1="437.55811" x2="472.04757" y2="441.21094" fill="none" stroke="#26a9e0" stroke-miterlimit="10" stroke-width="3.6"/><line x1="504.61056" y1="431.55957" x2="484.41964" y2="437.55811" fill="none" stroke="#515ba7" stroke-miterlimit="10" stroke-width="3.6"/><line x1="493.33529" y1="425.27588" x2="485.35494" y2="428.00684" fill="none" stroke="#515ba7" stroke-miterlimit="10" stroke-width="3.6"/><line x1="457.09725" y1="383.46777" x2="441.48715" y2="394.07715" fill="none" stroke="#26a9e0" stroke-miterlimit="10" stroke-width="3.6"/><line x1="461.02389" y1="380.79199" x2="457.09725" y2="383.46777" fill="none" stroke="#515ba7" stroke-miterlimit="10" stroke-width="3.6"/><line x1="456.80648" y1="393.8833" x2="450.03524" y2="398.01709" fill="none" stroke="#26a9e0" stroke-miterlimit="10" stroke-width="3.6"/><line x1="452.31869" y1="376.40186" x2="434.08407" y2="389.41162" fill="none" stroke="#26a9e0" stroke-miterlimit="10" stroke-width="3.6"/><line x1="467.42379" y1="365.62451" x2="452.31869" y2="376.40186" fill="none" stroke="#515ba7" stroke-miterlimit="10" stroke-width="3.6"/><line x1="478.28695" y1="421.52197" x2="474.16903" y2="423.27588" fill="none" stroke="#26a9e0" stroke-miterlimit="10" stroke-width="3.6"/><line x1="495.89852" y1="413.94824" x2="478.28695" y2="421.52197" fill="none" stroke="#515ba7" stroke-miterlimit="10" stroke-width="3.6"/><path d="M463.19161,391.23682c-6.39722.78906-12.42676,1.68652-17.54602,1.60791-2.55481-.04395-4.84729-.35156-6.78809-1.08496-1.98389-.71289-3.62769-1.8457-4.84814-3.58447-2.10852-2.84961-2.18201-6.22705-1.34973-10.09082-.27893.2168-3.54138,2.74854-4.89417,3.79834-.04883,3.22461.56653,6.18701,2.59265,8.92236,3.19373,4.479,8.0686,6.00781,13.93237,6.32129,2.91174.15967,6.08337-.00391,9.38586-.2998,3.29248-.29199,6.66431-.68799,10.0675-1.04492,6.38074-.67871,12.58691-1.09473,17.84863-.17236,2.65161.44531,5.005,1.26367,6.98743,2.55469,1.97815,1.29199,3.65381,3.0127,4.6875,5.39209l4.0907-1.87549c-2.91602-6.35693-8.18933-9.43262-14.29102-10.63818-3.02563-.62988-6.33875-.75732-9.69861-.65674-3.36755.10596-6.78186.44238-10.17688.85107Z" fill="#e2a78a"/><path d="M457.01193,383.34277l-.49353.78125c-3.62048,5.74463-7.55396,11.479-9.84583,16.82861-1.15857,2.68359-1.98694,5.30566-2.14197,7.80908-.14807,2.50391.17737,4.95898,1.47375,7.31494,1.18787,2.3916,2.95032,4.09863,5.1051,5.37598,2.11218,1.28906,4.68396,2.12793,7.56641,2.70654,2.83154.59326,5.953.93359,9.24792,1.17432,3.25391.20117,6.69739.41406,10.1123.625,6.33093.43896,12.65735,1.07568,17.61328,2.98877,2.4895.95068,4.73755,2.18115,6.46545,3.84326,1.70361,1.66992,2.96765,3.74463,3.63684,6.2876.00208.00781.06042.23242.0625.24072,1.76318-.42969,3.23242-.78809,4.37085-1.06543-.0116-.0459-.05103-.20068-.06274-.24658-.92627-3.43164-2.43188-6.24268-4.57776-8.40723-2.14551-2.16797-4.73462-3.7749-7.62451-4.94824-2.94678-1.15039-6.16333-1.88623-9.48474-2.37695-1.66321-.24414-3.34204-.43164-5.04675-.57178-1.71973-.13428-3.44531-.22949-5.1571-.30811-6.40454-.29688-12.50659-.35693-17.54297-1.19238-4.95667-.87354-8.83521-2.49316-10.68848-6.19531-.98926-1.83301-1.25049-3.77393-.98218-5.84424.2395-2.05762.96863-4.2251,2.07471-6.5249,2.23706-4.6123,5.69446-9.61865,9.24219-14.9917,1.90137-2.87744,3.70251-5.76904,5.30347-8.73242,1.57886-2.9458,2.96082-5.97949,3.77148-8.93945.82166-2.96729,1.19189-5.97119.80371-8.87451-.41528-2.87207-1.47119-5.771-3.56458-8.39355l-3.55505,2.75928c1.52209,1.91016,2.28174,4.07422,2.51904,6.32861.24036,2.25293-.07568,4.6333-.81506,7.11572-.72766,2.47168-1.84167,5.01172-3.18054,7.58643-1.34631,2.58008-2.9541,5.2207-4.60522,7.84668" fill="#c7873a"/><path d="M468.11166,448.50732c3.24634-4.39014,9.06921-9.01904,14.71387-14.05811,2.55457-2.26172,5.1145-4.61816,7.4303-7.09814,2.26306-2.45947,4.28943-5.04395,5.84351-7.78076,1.58435-2.75146,2.57483-5.5957,2.87183-8.5957.13916-1.49414.14307-3.05029-.13452-4.59082-.27698-1.54102-.76135-3.11182-1.47852-4.70312l-4.0907,1.87549c1.04492,2.37061,1.41162,4.70508,1.04382,7.08789-.34692,2.37158-1.27979,4.70752-2.62463,6.99756-2.73352,4.60449-7.20911,9.06152-11.84192,13.36182-3.57349,3.26855-7.23828,6.43262-10.35608,9.55615-3.13147,3.12988-5.87488,6.24121-7.35767,9.40527,1.7832-.43457,3.79907-.92578,5.98071-1.45752Z" fill="#e2a78a"/><line x1="485.26425" y1="447.07471" x2="464.11324" y2="451.77881" fill="none" stroke="#26a9e0" stroke-miterlimit="10" stroke-width="3.6"/><line x1="508.17635" y1="442.00781" x2="485.26425" y2="447.07471" fill="none" stroke="#515ba7" stroke-miterlimit="10" stroke-width="3.6"/><line x1="489.1661" y1="480.77686" x2="466.76486" y2="480.82422" fill="none" stroke="#26a9e0" stroke-miterlimit="10" stroke-width="3.6"/><line x1="501.38851" y1="480.76514" x2="489.1661" y2="480.77686" fill="none" stroke="#515ba7" stroke-miterlimit="10" stroke-width="3.6"/><line x1="488.9902" y1="489.38672" x2="465.80441" y2="488.27246" fill="none" stroke="#26a9e0" stroke-miterlimit="10" stroke-width="3.6"/><line x1="510.83175" y1="490.43604" x2="488.9902" y2="489.38672" fill="none" stroke="#515ba7" stroke-miterlimit="10" stroke-width="3.6"/><line x1="488.67635" y1="498.03174" x2="470.26266" y2="496.15186" fill="none" stroke="#26a9e0" stroke-miterlimit="10" stroke-width="3.6"/><line x1="510.80746" y1="500.29102" x2="488.67635" y2="498.03174" fill="none" stroke="#515ba7" stroke-miterlimit="10" stroke-width="3.6"/><line x1="485.20712" y1="523.86377" x2="472.7004" y2="520.71729" fill="none" stroke="#26a9e0" stroke-miterlimit="10" stroke-width="3.6"/><line x1="505.63595" y1="528.96777" x2="485.20712" y2="523.86377" fill="none" stroke="#515ba7" stroke-miterlimit="10" stroke-width="3.6"/><line x1="499.14327" y1="517.84131" x2="490.88497" y2="516.12549" fill="none" stroke="#515ba7" stroke-miterlimit="10" stroke-width="3.6"/><line x1="488.01412" y1="463.42578" x2="469.29855" y2="465.86279" fill="none" stroke="#26a9e0" stroke-miterlimit="10" stroke-width="3.6"/><line x1="492.72494" y1="462.80322" x2="488.01412" y2="463.42578" fill="none" stroke="#515ba7" stroke-miterlimit="10" stroke-width="3.6"/><line x1="482.97091" y1="472.49121" x2="475.05294" y2="472.98486" fill="none" stroke="#26a9e0" stroke-miterlimit="10" stroke-width="3.6"/><line x1="486.84261" y1="454.97852" x2="464.77523" y2="458.82422" fill="none" stroke="#26a9e0" stroke-miterlimit="10" stroke-width="3.6"/><line x1="505.12277" y1="451.79297" x2="486.84261" y2="454.97852" fill="none" stroke="#515ba7" stroke-miterlimit="10" stroke-width="3.6"/><line x1="488.11422" y1="506.94287" x2="483.67672" y2="506.36572" fill="none" stroke="#26a9e0" stroke-miterlimit="10" stroke-width="3.6"/><line x1="507.12985" y1="509.34375" x2="488.11422" y2="506.94287" fill="none" stroke="#515ba7" stroke-miterlimit="10" stroke-width="3.6"/><path d="M489.85299,473.13379c-2.99817-1.12842-5.95459-2.24072-8.70935-3.27783-1.37585-.53076-2.70056-1.06104-3.95422-1.60303-1.26733-.54004-2.50134-1.08887-3.6261-1.66162-2.25891-1.146-4.16077-2.38135-5.55151-3.81836-1.42383-1.43506-2.44165-3.05859-2.76074-5.0376-.23938-1.65088-.13977-3.1875.41858-4.71484.54272-1.52393,1.50769-3.03467,2.71802-4.57568-.34302.08398-4.35535,1.06152-6.01904,1.4668-.72839,1.38818-1.28711,2.7749-1.54797,4.19434-.27502,1.42139-.22144,2.87256.00305,4.43359.40979,2.52832,1.64844,4.57861,3.21997,6.3877,1.60266,1.80322,3.88477,3.33105,6.35876,4.74365,4.96033,2.81836,11.5802,5.11719,17.79114,7.72852,2.93652,1.21924,5.83447,2.49512,8.53064,3.89795,2.72498,1.40332,5.14575,2.93164,7.18335,4.65088,2.04724,1.71924,3.72229,3.63184,4.8573,5.78467,1.12354,2.1499,1.54907,4.52393,1.33618,7.15479l4.47998.42432c.31177-3.55859-.18811-6.70898-1.55005-9.4917-1.31665-2.77783-3.19885-5.15869-5.58081-7.22461-2.42285-2.06885-5.23511-3.81934-8.22522-5.35889-2.99475-1.53955-6.13074-2.87158-9.37195-4.10303Z" fill="#e2a78a"/><path d="M487.99423,463.27588l-.79199.47461c-2.94165,1.72412-5.90808,3.4624-8.71106,5.10547-2.84912,1.68408-5.51709,3.3667-7.7843,5.12354-2.21875,1.75586-4.26465,3.5957-5.60974,5.61133-.68188,1.00879-1.21143,2.06396-1.56091,3.18408-.41211,1.12354-.66516,2.3125-.70728,3.59277-.04773,1.27979.12708,2.48291.45435,3.6333.27209,1.1499.72803,2.24609,1.33899,3.30615,1.2052,2.1167,3.11536,4.09717,5.20862,6.01367,4.25989,3.8291,10.2572,7.47168,15.79578,11.31299,2.62134,1.80029,5.19446,3.64111,7.54541,5.55908,1.17188.95801,2.30334,1.93896,3.32983,2.93652,1.00903.99219,1.9397,2.00781,2.77014,3.04883,1.66101,2.08252,2.92065,4.271,3.6051,6.58105.70508,2.31641.64709,4.68604-.06445,7.18945-.00232.00781-.06787.22803-.07019.23584,1.7384.521,3.18701.95508,4.30957,1.29102.01355-.04443.05933-.19531.07288-.24023.49597-1.68408.76343-3.31494.82898-4.88623.07361-1.56787-.16833-3.12109-.51624-4.58643-.74109-2.94873-2.10181-5.62695-4.03125-8.11914-1.94958-2.49951-4.34314-4.77588-6.95251-6.89111-2.61108-2.11572-5.41162-4.06787-8.3241-5.94775-2.69714-1.7334-5.35681-3.44287-7.83508-5.03564-2.48633-1.62207-4.69348-3.19873-6.70239-4.8042-3.98364-3.21631-6.31238-6.4458-6.26611-10.44141.23047-3.99707,2.77783-7.0249,6.96985-9.95703,2.11365-1.46191,4.427-2.87744,7.01611-4.32861,2.58032-1.42578,5.34937-2.95605,8.15759-4.50781,3.0166-1.68701,5.90771-3.45801,8.67163-5.41748,2.72681-1.9541,5.32642-4.10498,7.35327-6.48828,2.02283-2.38086,3.60583-5.01953,4.52185-7.95947.8396-2.91699.95984-6.12598.17212-9.60547l-4.37207,1.06543c1.12805,5.02881-.55566,9.46875-4.04736,13.40381-1.71423,1.96484-3.8103,3.79834-6.13147,5.53857-2.38184,1.75-4.98267,3.40527-7.64355,5.00879" fill="#c7873a"/><path d="M465.56881,525.04785c2.55286-1.0835,5.66406-1.88281,9.08447-2.59229,3.34851-.72559,7.02039-1.35889,10.77197-2.07715,3.34839-.64648,6.79675-1.35645,10.01147-2.31836,3.19946-.96631,6.2594-2.16357,8.99109-3.73682,1.36499-.78662,2.65112-1.66602,3.82483-2.65625,1.12622-1.00195,2.14282-2.11475,3.02429-3.35107,1.74731-2.4751,3.05115-5.43359,3.30408-9.00391l-4.47998-.42432c-.12256,1.3125-.38318,2.53613-.83997,3.66064-.47998,1.12012-1.10217,2.15088-1.84656,3.09863-1.48877,1.89551-3.46619,3.45703-5.77551,4.76221-4.75159,2.58398-10.83667,4.14844-17.01868,5.4873-4.70825.99756-9.51904,1.84619-13.79993,2.95166-4.24158,1.11475-8.18884,2.43311-11.14832,4.43311,1.75818.52686,3.74561,1.12207,5.89673,1.7666Z" fill="#e2a78a"/><line x1="481.15511" y1="532.50488" x2="460.51412" y2="525.90479" fill="none" stroke="#26a9e0" stroke-miterlimit="10" stroke-width="3.6"/><line x1="503.50094" y1="539.67676" x2="481.15511" y2="532.50488" fill="none" stroke="#515ba7" stroke-miterlimit="10" stroke-width="3.6"/><line x1="468.16122" y1="563.87793" x2="448.27462" y2="553.56592" fill="none" stroke="#26a9e0" stroke-miterlimit="10" stroke-width="3.6"/><line x1="479.00692" y1="569.51318" x2="468.16122" y2="563.87793" fill="none" stroke="#515ba7" stroke-miterlimit="10" stroke-width="3.6"/><line x1="464.08114" y1="571.46289" x2="443.84359" y2="560.09375" fill="none" stroke="#26a9e0" stroke-miterlimit="10" stroke-width="3.6"/><line x1="483.14535" y1="582.17334" x2="464.08114" y2="571.46289" fill="none" stroke="#515ba7" stroke-miterlimit="10" stroke-width="3.6"/><line x1="459.99142" y1="579.0835" x2="444.19772" y2="569.43164" fill="none" stroke="#26a9e0" stroke-miterlimit="10" stroke-width="3.6"/><line x1="478.9736" y1="590.68359" x2="459.99142" y2="579.0835" fill="none" stroke="#515ba7" stroke-miterlimit="10" stroke-width="3.6"/><line x1="446.27963" y1="601.2085" x2="435.94784" y2="593.48682" fill="none" stroke="#26a9e0" stroke-miterlimit="10" stroke-width="3.6"/><line x1="463.16207" y1="613.79932" x2="446.27963" y2="601.2085" fill="none" stroke="#515ba7" stroke-miterlimit="10" stroke-width="3.6"/><line x1="461.38656" y1="601.25439" x2="454.50875" y2="596.37207" fill="none" stroke="#515ba7" stroke-miterlimit="10" stroke-width="3.6"/><line x1="475.40939" y1="548.06396" x2="457.88314" y2="541.06885" fill="none" stroke="#26a9e0" stroke-miterlimit="10" stroke-width="3.6"/><line x1="479.82443" y1="549.81885" x2="475.40939" y2="548.06396" fill="none" stroke="#515ba7" stroke-miterlimit="10" stroke-width="3.6"/><line x1="466.59689" y1="553.61377" x2="459.39718" y2="550.28125" fill="none" stroke="#26a9e0" stroke-miterlimit="10" stroke-width="3.6"/><line x1="478.55489" y1="540.13574" x2="457.49764" y2="532.49707" fill="none" stroke="#26a9e0" stroke-miterlimit="10" stroke-width="3.6"/><line x1="495.99825" y1="546.46338" x2="478.55489" y2="540.13574" fill="none" stroke="#515ba7" stroke-miterlimit="10" stroke-width="3.6"/><line x1="455.70065" y1="586.90088" x2="451.90389" y2="584.5293" fill="none" stroke="#26a9e0" stroke-miterlimit="10" stroke-width="3.6"/><line x1="471.98812" y1="597.0166" x2="455.70065" y2="586.90088" fill="none" stroke="#515ba7" stroke-miterlimit="10" stroke-width="3.6"/><path d="M472.34933,557.45312c-4.19983-4.87646-8.37659-9.41504-11.09338-13.6377-1.42004-2.1333-2.47986-4.1875-2.99487-6.18164-.51709-1.99561-.45227-3.92041.17786-5.87793.55688-1.62012,1.50635-2.90283,2.78638-3.96436,1.30078-1.05664,2.77942-1.92627,4.61292-2.65771-.33826-.10107-4.29419-1.28662-5.93457-1.77783-1.34265.84912-2.40576,1.82178-3.41663,2.93604-.98596,1.11963-1.75781,2.41211-2.28748,3.95508-.21509.62646-.375,1.24902-.48401,1.87012-.11914.61865-.22351,1.22656-.25964,1.83936-.08179,1.22266.02771,2.44336.297,3.66992.26685,1.22559.70337,2.45947,1.25134,3.69727.51489,1.22754,1.16211,2.46387,1.91199,3.71143,1.5,2.49414,3.40991,5.03125,5.49963,7.60938,2.07568,2.50537,4.27222,5.15674,6.45056,7.78613,4.04114,4.89697,7.97168,9.91162,10.06079,14.73633,2.13318,4.83984,2.67712,9.68213-.0011,13.99463l3.8512,2.32764c.8811-1.45898,1.53015-2.92676,1.97217-4.39209.42883-1.47559.60291-2.98584.62695-4.46387.02893-2.9707-.62683-5.87793-1.81555-8.74707-2.45776-5.7915-6.77295-11.24463-11.21155-16.43311Z" fill="#e2a78a"/><path d="M475.46346,547.92285l-.9187.02979c-6.78406.20996-13.77991.10547-19.45081,1.15967-2.84436.52441-5.52588,1.27979-7.69727,2.53223-1.09497.62305-2.07849,1.36572-2.94128,2.25293-.91235.86865-1.70325,1.88281-2.35938,3.07227-.65613,1.18994-1.09106,2.3999-1.3385,3.63428-.26099,1.22852-.39258,2.45752-.33093,3.72705.10339,2.53027.86023,5.1792,1.98376,7.90479,2.15771,5.40088,5.95447,11.18604,9.54675,17.03223,3.29248,5.4209,6.39355,10.8374,7.91516,15.95312,1.49683,5.08496,1.30908,9.80566-1.76562,13.77637-.00488.00635-.14575.17627-.15076.18262,1.41785,1.13281,2.59924,2.07666,3.51477,2.80811.02856-.03418.12524-.1499.15393-.18457,4.13062-5.32373,4.60522-11.2002,2.95178-17.22168-.80127-2.99463-2.07971-5.99219-3.60425-8.95605-1.54858-2.98242-3.37646-5.95459-5.19812-8.84326-3.43103-5.41846-6.78955-10.49072-8.93689-15.16895-2.10681-4.66357-2.7655-8.77539-.79761-12.47607,2.09106-3.64941,5.85852-5.26855,10.94177-5.97705,1.26331-.17773,2.60718-.29688,3.99817-.38184,1.37061-.09375,2.80188-.14844,4.27942-.18213,2.95483-.06689,6.09424-.04834,9.30017-.08105,6.9054-.04395,13.80432-.4292,19.75806-2.45459,3.00195-.99756,5.62231-2.47314,7.80835-4.52686,2.19055-2.04883,3.98254-4.66016,4.92676-8.05176l-4.31067-1.2915c-.35852,1.2168-.85449,2.31689-1.46997,3.30713-.64905.97559-1.43225,1.83594-2.30652,2.60156-1.75293,1.52979-3.90674,2.66504-6.33374,3.50488-4.89502,1.66309-11.00647,2.09619-17.16785,2.31836" fill="#c7873a"/><path d="M427.6379,594.95752c5.61658-.19922,12.73083,1.51416,20.23792,3.1665,6.6499,1.42773,13.50928,2.69824,19.73352,2.19043,3.08252-.27588,5.95325-1.04248,8.55359-2.43408,1.29468-.69971,2.52539-1.55225,3.64587-2.60107,1.09094-1.07324,2.08728-2.33057,2.96851-3.79004l-3.8512-2.32764c-2.57654,4.38965-7.10217,6.11133-12.3623,6.47852-5.23914.39209-11.4856-.74707-17.71851-1.99756-9.36975-1.86719-18.92371-4.27148-26.0166-2.52734,1.43384,1.14551,3.05481,2.44043,4.8092,3.84229Z" fill="#e2a78a"/><line x1="439.26669" y1="607.66553" x2="422.51986" y2="593.91602" fill="none" stroke="#26a9e0" stroke-miterlimit="10" stroke-width="3.6"/><line x1="457.39266" y1="622.56885" x2="439.26669" y2="607.66553" fill="none" stroke="#515ba7" stroke-miterlimit="10" stroke-width="3.6"/><line x1="416.35348" y1="632.75732" x2="400.73116" y2="616.70312" fill="none" stroke="#26a9e0" stroke-miterlimit="10" stroke-width="3.6"/><line x1="424.87228" y1="641.52148" x2="416.35348" y2="632.75732" fill="none" stroke="#515ba7" stroke-miterlimit="10" stroke-width="3.6"/><line x1="410.12679" y1="638.7085" x2="394.2861" y2="621.74121" fill="none" stroke="#26a9e0" stroke-miterlimit="10" stroke-width="3.6"/><line x1="425.04916" y1="654.69189" x2="410.12679" y2="638.7085" fill="none" stroke="#515ba7" stroke-miterlimit="10" stroke-width="3.6"/><line x1="403.96078" y1="644.771" x2="391.67001" y2="630.93115" fill="none" stroke="#26a9e0" stroke-miterlimit="10" stroke-width="3.6"/><line x1="418.73275" y1="661.4043" x2="403.96078" y2="644.771" fill="none" stroke="#515ba7" stroke-miterlimit="10" stroke-width="3.6"/><line x1="384.69479" y1="662.24561" x2="376.74716" y2="652.08838" fill="none" stroke="#26a9e0" stroke-miterlimit="10" stroke-width="3.6"/><line x1="397.6838" y1="678.82031" x2="384.69479" y2="662.24561" fill="none" stroke="#515ba7" stroke-miterlimit="10" stroke-width="3.6"/><line x1="399.19747" y1="666.37891" x2="393.9028" y2="659.81299" fill="none" stroke="#515ba7" stroke-miterlimit="10" stroke-width="3.6"/><line x1="428.40634" y1="620.20703" x2="414.31149" y2="607.64844" fill="none" stroke="#26a9e0" stroke-miterlimit="10" stroke-width="3.6"/><line x1="431.95773" y1="623.36523" x2="428.40634" y2="620.20703" fill="none" stroke="#515ba7" stroke-miterlimit="10" stroke-width="3.6"/><line x1="418.20699" y1="622.5127" x2="412.49764" y2="617.00439" fill="none" stroke="#26a9e0" stroke-miterlimit="10" stroke-width="3.6"/><line x1="434.10018" y1="613.854" x2="417.1307" y2="599.23242" fill="none" stroke="#26a9e0" stroke-miterlimit="10" stroke-width="3.6"/><line x1="448.15731" y1="625.96631" x2="434.10018" y2="613.854" fill="none" stroke="#515ba7" stroke-miterlimit="10" stroke-width="3.6"/><line x1="397.62386" y1="651.0376" x2="394.64486" y2="647.69434" fill="none" stroke="#26a9e0" stroke-miterlimit="10" stroke-width="3.6"/><line x1="410.40731" y1="665.33398" x2="397.62386" y2="651.0376" fill="none" stroke="#515ba7" stroke-miterlimit="10" stroke-width="3.6"/><path d="M422.38375,628.02441c-2.37793-5.97314-4.79358-11.67432-5.8927-16.64404-1.07959-4.96338-1.03418-9.31201,1.83716-12.52246,2.29358-2.7417,5.50916-3.67627,9.52722-3.71973-.27576-.2207-3.5022-2.79834-4.83997-3.86719-3.21509.65527-5.901,2.0249-8.10754,4.6626-1.85571,2.09961-2.85461,4.45166-3.24707,7.021-.38232,2.57568-.27148,5.28125.29578,8.19287.55176,2.89941,1.49316,5.95459,2.60754,9.08936,1.08752,3.11133,2.33667,6.28906,3.55579,9.47559,4.59509,11.9126,8.37244,23.6084.99207,30.25293l2.99915,3.35498c2.495-2.15576,4.0238-4.75293,4.91125-7.49561.875-2.76074,1.11279-5.66895.82446-8.75537-.57422-6.17236-2.98108-12.71924-5.46313-19.04492Z" fill="#e2a78a"/><path d="M428.50875,620.09521l-.88232-.29248c-6.51343-2.16748-13.02319-4.49805-18.82776-5.29639-2.93359-.42432-5.72205-.48877-8.25317.06152-1.26733.27344-2.474.69873-3.61279,1.30469-1.14734.59863-2.26929,1.34277-3.29834,2.31592-2.0835,1.92383-3.27686,4.2417-4.00403,6.72217-.70996,2.49512-.82666,5.26514-.56836,8.22461.12927,1.47949.35266,3.00586.6438,4.56738.27856,1.54834.61902,3.125,1.00635,4.729.77271,3.20654,1.71729,6.50684,2.62671,9.80127.85046,3.08154,1.66516,6.14062,2.28711,9.0957.60193,2.9292,1.005,5.74512,1.06152,8.37695.11108,5.25195-1.16028,9.81299-5.13245,12.69629-.0061.00488-.18079.1333-.18689.1377,1.08191,1.45703,1.98352,2.6709,2.68213,3.61182.03528-.02588.1543-.1123.1897-.13818,1.31641-.97461,2.42517-2.04639,3.34802-3.19922.91235-1.16943,1.62305-2.44385,2.18176-3.76807,1.11328-2.6543,1.5802-5.56299,1.60242-8.61768.02136-6.146-1.78906-12.94141-3.64392-19.48242-1.71814-6.10303-3.59399-12.07764-4.18103-17.15381-.30042-2.54639-.276-4.86963.2052-6.93652.45508-2.09229,1.3855-3.90918,2.97314-5.39648,3.21375-2.93457,7.39478-3.37744,12.48035-2.46094,5.08691.92627,10.81897,3.01074,16.87964,5.09326,3.23376,1.10889,6.52356,2.19629,9.78625,3.04639,3.24182.83008,6.43066,1.39258,9.51709,1.51123,3.07251.10449,6.07288-.20361,8.77893-1.25977,2.69641-1.06494,5.17249-2.80371,7.30054-5.39502l-3.51562-2.80908c-1.54932,1.88574-3.43347,3.14404-5.56006,3.90137-2.12219.7627-4.4928,1.01855-7.078.86865-5.1427-.27002-10.92773-1.95166-16.80591-3.85986" fill="#c7873a"/><path d="M368.23177,651.38477c2.7771.60693,5.8042,1.81738,8.95862,3.2876,3.14246,1.45605,6.44446,3.21045,9.82227,4.97949,6.05066,3.1665,12.3363,6.33545,18.3291,7.51904,3.00671.60693,5.96301.74902,8.80432.20703,2.82068-.56787,5.4873-1.87939,7.96509-4.05762l-2.99915-3.35498c-3.70056,3.2749-8.3396,3.71436-13.5083,2.48633-5.15881-1.20459-10.71875-3.87744-16.42017-6.81201-4.29285-2.20801-8.58386-4.48486-12.72095-6.20947-2.07275-.86719-4.08948-1.57617-6.08191-2.10498-1.99841-.53564-3.94299-.85645-5.81897-.88232,1.09424,1.47314,2.33118,3.13916,3.67004,4.94189Z" fill="#e2a78a"/><line x1="376.25472" y1="666.66699" x2="363.52572" y2="649.13086" fill="none" stroke="#26a9e0" stroke-miterlimit="10" stroke-width="3.6"/><line x1="390.03048" y1="685.66504" x2="376.25472" y2="666.66699" fill="none" stroke="#515ba7" stroke-miterlimit="10" stroke-width="3.6"/><line x1="348.02425" y1="685.59375" x2="336.40243" y2="666.44385" fill="none" stroke="#26a9e0" stroke-miterlimit="10" stroke-width="3.6"/><line x1="354.36092" y1="696.04443" x2="348.02425" y2="685.59375" fill="none" stroke="#515ba7" stroke-miterlimit="10" stroke-width="3.6"/><line x1="340.63534" y1="690.02002" x2="328.88107" y2="670.00391" fill="none" stroke="#26a9e0" stroke-miterlimit="10" stroke-width="3.6"/><line x1="351.70809" y1="708.87598" x2="340.63534" y2="690.02002" fill="none" stroke="#515ba7" stroke-miterlimit="10" stroke-width="3.6"/><line x1="333.3132" y1="694.62012" x2="324.24874" y2="678.48193" fill="none" stroke="#26a9e0" stroke-miterlimit="10" stroke-width="3.6"/><line x1="344.20773" y1="714.01562" x2="333.3132" y2="694.62012" fill="none" stroke="#515ba7" stroke-miterlimit="10" stroke-width="3.6"/><line x1="310.86935" y1="707.74072" x2="305.09225" y2="696.20898" fill="none" stroke="#26a9e0" stroke-miterlimit="10" stroke-width="3.6"/><line x1="320.3132" y1="726.56445" x2="310.86935" y2="707.74072" fill="none" stroke="#515ba7" stroke-miterlimit="10" stroke-width="3.6"/><line x1="324.21237" y1="714.70312" x2="320.35836" y2="707.2002" fill="none" stroke="#515ba7" stroke-miterlimit="10" stroke-width="3.6"/><line x1="362.63827" y1="676.146" x2="351.93002" y2="660.60107" fill="none" stroke="#26a9e0" stroke-miterlimit="10" stroke-width="3.6"/><line x1="365.33688" y1="680.05762" x2="362.63827" y2="676.146" fill="none" stroke="#515ba7" stroke-miterlimit="10" stroke-width="3.6"/><line x1="352.18148" y1="676.03564" x2="347.89718" y2="669.35889" fill="none" stroke="#26a9e0" stroke-miterlimit="10" stroke-width="3.6"/><line x1="369.69991" y1="671.35986" x2="356.83151" y2="653.0249" fill="none" stroke="#26a9e0" stroke-miterlimit="10" stroke-width="3.6"/><line x1="380.35983" y1="686.54785" x2="369.69991" y2="671.35986" fill="none" stroke="#515ba7" stroke-miterlimit="10" stroke-width="3.6"/><line x1="325.81149" y1="699.42871" x2="323.59152" y2="695.5415" fill="none" stroke="#26a9e0" stroke-miterlimit="10" stroke-width="3.6"/><line x1="335.34078" y1="716.05957" x2="325.81149" y2="699.42871" fill="none" stroke="#515ba7" stroke-miterlimit="10" stroke-width="3.6"/><path d="M354.96456,682.34717c-.92212-6.32617-1.94458-12.46924-1.81226-17.58643.15576-5.0957,1.3407-9.30811,4.94409-11.82617,3.02637-2.06396,6.38538-2.25488,10.29956-1.31982-.21045-.2832-2.67249-3.59863-3.69348-4.97363-3.30627-.12695-6.27429.62256-9.20166,2.61719-2.35986,1.63965-3.92981,3.74463-4.97974,6.15723-1.07117,2.38379-1.58606,5.11816-1.74805,8.08643-.16528,2.96289.03833,6.18164.37451,9.47119.32971,3.27979.82251,6.67236,1.28564,10.05225.85706,6.30469,1.6405,12.56494,1.07422,17.76416-.56458,5.19092-2.38831,9.51514-6.63477,11.9126l2.21375,3.91797c2.84119-1.57422,4.85303-3.75098,6.29211-6.20117,1.42468-2.47998,2.27734-5.24121,2.65564-8.31445.77893-6.10938-.10181-13.02393-1.06958-19.75732Z" fill="#e2a78a"/><path d="M362.76363,676.06104l-.78613-.4917c-5.80627-3.63916-11.59375-7.39355-17.12012-9.49756-2.7854-1.08203-5.50403-1.74707-8.13318-1.76318-2.62891-.01416-5.15759.63428-7.66772,2.07129-2.49365,1.46094-4.24854,3.42578-5.47937,5.77441-1.26245,2.29785-1.99438,4.98682-2.38916,7.93457-.39441,2.94727-.45105,6.15332-.35352,9.48145.08777,3.31104.31604,6.71729.52661,10.12305.38831,6.35986.68628,12.60742-.22729,17.80078-.93323,5.14111-3.07959,9.25439-7.45044,11.38818-.00684.00342-.20007.09717-.20691.1001.77686,1.64014,1.42419,3.00684,1.92578,4.06592.03894-.01855.17029-.08105.20935-.1001,2.9115-1.4209,5.08972-3.38184,6.69153-5.72656,1.60742-2.33398,2.62891-5.07666,3.23132-8.10254,1.21985-6.02197.85925-12.96729.39673-19.76074-.91187-12.84082-2.13342-24.59766,5.42236-29.10889.95386-.55908,1.93994-.9375,2.95813-1.15869,1.00684-.23828,2.04028-.32715,3.10901-.27539,2.13574.10059,4.39929.7417,6.77246,1.74365,4.76135,2.02832,9.90112,5.41113,15.28748,8.83301,5.74707,3.64014,11.75891,7.37451,17.60425,9.07178,5.85535,1.72754,11.71924,1.64502,16.96191-2.30762l-2.68286-3.61279c-1.92407,1.42432-4.01746,2.1582-6.23059,2.35059-2.23962.15137-4.59607-.23193-7.03149-.99316-4.88416-1.53955-10.02991-4.51074-15.33813-7.83984" fill="#c7873a"/><path d="M296.86422,693.91211c5.21863,2.22363,10.88269,6.93701,16.80627,11.78027,5.31323,4.35645,10.74988,8.59912,16.37524,11.08057,5.63037,2.51074,11.34851,2.99121,17.04065-.15283l-2.21375-3.91797c-4.27112,2.34814-8.85364,1.78174-13.61572-.46094-4.77515-2.2583-9.69556-6.08447-14.66553-10.06641-7.47729-5.9751-15.0199-12.38818-22.3623-13.82617.78564,1.65918,1.67383,3.53418,2.63513,5.56348Z" fill="#e2a78a"/></svg>