<?xml version="1.0" encoding="UTF-8"?><svg id="Layer_1" xmlns="http://www.w3.org/2000/svg" width="522.19531" height="349.82324" viewBox="0 0 522.19531 349.82324"><line x1="198.43786" y1="138.95755" x2="278.43786" y2="186.69075" fill="none" stroke="#231f20" stroke-linecap="round" stroke-miterlimit="10" stroke-width="4"/><line x1="44.07315" y1="133.20267" x2="117.59584" y2="177.07108" fill="none" stroke="#231f20" stroke-linecap="round" stroke-miterlimit="10" stroke-width="4"/><line x1="37.05987" y1="138.95755" x2="117.05987" y2="186.69075" fill="none" stroke="#231f20" stroke-linecap="round" stroke-miterlimit="10" stroke-width="4"/><line x1="359.81585" y1="138.95755" x2="439.81585" y2="186.69075" fill="none" stroke="#231f20" stroke-linecap="round" stroke-miterlimit="10" stroke-width="4"/><line x1="355.47952" y1="139.52547" x2="355.47949" y2="46.36722" fill="none" stroke="#231f20" stroke-linecap="round" stroke-miterlimit="10" stroke-width="4"/><line x1="117.59585" y1="279.37737" x2="117.59583" y2="186.21912" fill="none" stroke="#231f20" stroke-linecap="round" stroke-miterlimit="10" stroke-width="4"/><polygon points="271.69238 279.37744 276.43774 186.21924 280.43774 186.21924 285.18311 279.37744 271.69238 279.37744 271.69238 279.37744" fill="#231f20"/><line x1="363.18323" y1="139.52547" x2="363.1832" y2="46.36722" fill="none" stroke="#231f20" stroke-linecap="round" stroke-miterlimit="10" stroke-width="4"/><line x1="359.12685" y1="138.95755" x2="279.12685" y2="186.69075" fill="none" stroke="#231f20" stroke-linecap="round" stroke-miterlimit="10" stroke-width="4"/><line x1="197.74886" y1="138.95755" x2="117.74886" y2="186.69075" fill="none" stroke="#231f20" stroke-linecap="round" stroke-miterlimit="10" stroke-width="4"/><text transform="translate(447.52374 205.05273)" fill="#231f20" font-family="TimesNewRomanPS-BoldMT, &apos;Times New Roman&apos;" font-size="48" font-weight="700"><tspan x="0" y="0">OH</tspan></text><text transform="translate(96.70892 317.64551)" fill="#231f20" font-family="TimesNewRomanPS-BoldMT, &apos;Times New Roman&apos;" font-size="48" font-weight="700"><tspan x="0" y="0">OH</tspan></text><text transform="translate(344.72345 39.89038)" fill="#231f20" font-family="TimesNewRomanPS-BoldMT, &apos;Times New Roman&apos;" font-size="48" font-weight="700"><tspan x="0" y="0">O</tspan></text><text transform="translate(.00046 142.59668)" fill="#231f20" font-family="TimesNewRomanPS-BoldMT, &apos;Times New Roman&apos;" font-size="48" font-weight="700"><tspan x="0" y="0">O</tspan></text><text transform="translate(260.72345 318.1123)" fill="#231f20" font-family="TimesNewRomanPS-BoldMT, &apos;Times New Roman&apos;" font-size="48" font-weight="700"><tspan x="0" y="0">NH</tspan></text><text transform="translate(332.72345 334.09619) scale(.583)" fill="#231f20" font-family="TimesNewRomanPS-BoldMT, &apos;Times New Roman&apos;" font-size="48" font-weight="700"><tspan x="0" y="0">2</tspan></text></svg>