<?xml version="1.0" encoding="UTF-8"?><svg id="Layer_1" xmlns="http://www.w3.org/2000/svg" width="425.038437" height="850.453694" xmlns:xlink="http://www.w3.org/1999/xlink" viewBox="0 0 425.038437 850.453694"><defs><radialGradient id="radial-gradient" cx="189.012987" cy="493.998556" fx="189.012987" fy="493.998556" r="15.463497" gradientUnits="userSpaceOnUse"><stop offset="0" stop-color="#e0ede7"/><stop offset=".144367" stop-color="#d8e8e0"/><stop offset=".368188" stop-color="#c2dbcf"/><stop offset=".643461" stop-color="#9ec5b3"/><stop offset=".956972" stop-color="#6da88c"/><stop offset="1" stop-color="#66a487"/></radialGradient></defs><polyline points="73.177489 4.597403 17.177489 31.762501 73.177489 58.928122 17.177489 86.096863 73.177489 113.269859 17.177489 140.438247 73.177489 167.609401 17.177489 194.781281 73.177489 221.944368 17.177489 249.114469 73.177489 276.294018 17.177489 303.464948 73.177489 330.654553 17.177489 357.844153" fill="none" stroke="#004e29" stroke-linecap="round" stroke-miterlimit="10" stroke-width="4"/><polyline points="190.060606 2 134.060606 29.165099 190.060606 56.33072 134.060606 83.49946 190.060606 110.672456 134.060606 137.840845 190.060606 165.011999 134.060606 192.183878 190.060606 219.346966 134.060606 246.517067 190.060606 273.696615 134.060606 300.867545 190.060606 328.05715 134.060606 355.246751" fill="none" stroke="#004e29" stroke-linecap="round" stroke-miterlimit="10" stroke-width="4"/><line x1="189.012987" y1="557.64502" x2="189.012987" y2="602.854573" fill="none" stroke="#65294d" stroke-linecap="round" stroke-miterlimit="10" stroke-width="4"/><polygon points="288.25633 603.709147 188.25633 603.709147 138.25633 690.311687 188.25633 776.914227 288.25633 776.914227 338.25633 690.311687 288.25633 603.709147" fill="#de79a3" stroke="#65294d" stroke-linecap="round" stroke-miterlimit="10" stroke-width="4"/><line x1="338.25633" y1="690.311687" x2="381.260659" y2="690.311687" fill="none" stroke="#65294d" stroke-linecap="round" stroke-miterlimit="10" stroke-width="4"/><line x1="288.25633" y1="776.914227" x2="318.457225" y2="807.115122" fill="none" stroke="#65294d" stroke-linecap="round" stroke-miterlimit="10" stroke-width="4"/><circle cx="402.149548" cy="686.311687" r="20.888889" fill="#e4ceab" stroke="#875f20" stroke-linecap="round" stroke-miterlimit="10" stroke-width="4"/><circle cx="334.849042" cy="823.506939" r="20.888889" fill="#e4ceab" stroke="#875f20" stroke-linecap="round" stroke-miterlimit="10" stroke-width="4"/><rect x="2" y="352.649349" width="187.012987" height="119.480519" fill="#6fd6a4" stroke="#004e29" stroke-miterlimit="10" stroke-width="4"/><line x1="189.012987" y1="472.129869" x2="189.012987" y2="515.867243" fill="url(#radial-gradient)" stroke="#004e29" stroke-linecap="round" stroke-miterlimit="10" stroke-width="4"/><circle cx="189.012987" cy="536.756132" r="20.888889" fill="#e4ceab" stroke="#875f20" stroke-linecap="round" stroke-miterlimit="10" stroke-width="4"/><text transform="translate(179.926764 550.498944)" font-family="TimesNewRomanPS-BoldMT, &apos;Times New Roman&apos;" font-size="40" font-weight="700" letter-spacing="-.055176em"><tspan x="0" y="0">P</tspan></text><text transform="translate(388.804375 698.053303) scale(1.255522 1)" font-family="TimesNewRomanPS-BoldMT, &apos;Times New Roman&apos;" font-size="40" font-weight="700" letter-spacing="-.055166em"><tspan x="0" y="0">P</tspan></text><text transform="translate(322.708502 837.348553)" font-family="TimesNewRomanPS-BoldMT, &apos;Times New Roman&apos;" font-size="40" font-weight="700" letter-spacing="-.055176em"><tspan x="0" y="0">P</tspan></text></svg>