<?xml version="1.0" encoding="UTF-8"?>
<svg id="Layer_1" xmlns="http://www.w3.org/2000/svg" width="563.3759765625" height="90.953776428021229" viewBox="0 0 563.3759765625 90.953776428021229">
  <g>
    <line x1="4.608032226559772" y1="47.275001992980833" x2="4.682373046870453" y2="83.389259805480833" fill="none" stroke="#26a9e0" stroke-miterlimit="10" stroke-width="6"/>
    <line x1="4.527587890620453" y1="8.164406289850376" x2="4.608032226559772" y2="47.275001992980833" fill="none" stroke="#515ba7" stroke-miterlimit="10" stroke-width="6"/>
    <line x1="59.876831054680224" y1="46.926125039850376" x2="59.920288085930224" y2="84.259376992980833" fill="none" stroke="#26a9e0" stroke-miterlimit="10" stroke-width="6"/>
    <line x1="59.853149414059772" y1="26.556740274230833" x2="59.876831054680224" y2="46.926125039850376" fill="none" stroke="#515ba7" stroke-miterlimit="10" stroke-width="6"/>
    <line x1="73.880126953120453" y1="46.837501992980833" x2="74.12451171875" y2="85.524269571100376" fill="none" stroke="#26a9e0" stroke-miterlimit="10" stroke-width="6"/>
    <line x1="73.64990234375" y1="10.393654336730833" x2="73.880126953120453" y2="46.837501992980833" fill="none" stroke="#515ba7" stroke-miterlimit="10" stroke-width="6"/>
    <line x1="87.918212890620453" y1="46.195900430480833" x2="88.113037109370453" y2="77.044289102350376" fill="none" stroke="#26a9e0" stroke-miterlimit="10" stroke-width="6"/>
    <line x1="87.683959960930224" y1="9.119728555480833" x2="87.918212890620453" y2="46.195900430480833" fill="none" stroke="#515ba7" stroke-miterlimit="10" stroke-width="6"/>
    <line x1="130.048950195309772" y1="43.950783242980833" x2="130.358276367180224" y2="65.445168008600376" fill="none" stroke="#26a9e0" stroke-miterlimit="10" stroke-width="6"/>
    <line x1="129.544067382809772" y1="8.855324258600376" x2="130.048950195309772" y2="43.950783242980833" fill="none" stroke="#515ba7" stroke-miterlimit="10" stroke-width="6"/>
    <line x1="115.841186523430224" y1="23.699806680480833" x2="115.929931640620453" y2="37.757423867980833" fill="none" stroke="#515ba7" stroke-miterlimit="10" stroke-width="6"/>
    <line x1="31.58447265625" y1="47.210548867980833" x2="32.168090820309772" y2="78.662209024230833" fill="none" stroke="#26a9e0" stroke-miterlimit="10" stroke-width="6"/>
    <line x1="31.4375" y1="39.292335977350376" x2="31.58447265625" y2="47.210548867980833" fill="none" stroke="#515ba7" stroke-miterlimit="10" stroke-width="6"/>
    <line x1="45.859497070309772" y1="56.866310586730833" x2="45.942993164059772" y2="70.088478555480833" fill="none" stroke="#26a9e0" stroke-miterlimit="10" stroke-width="6"/>
    <line x1="17.714111328120453" y1="47.192238321100376" x2="17.949951171870453" y2="84.524757852350376" fill="none" stroke="#26a9e0" stroke-miterlimit="10" stroke-width="6"/>
    <line x1="17.518798828120453" y1="16.266701211730833" x2="17.714111328120453" y2="47.192238321100376" fill="none" stroke="#515ba7" stroke-miterlimit="10" stroke-width="6"/>
    <line x1="102.344360351559772" y1="45.137306680480833" x2="102.586059570309772" y2="52.594826211730833" fill="none" stroke="#26a9e0" stroke-miterlimit="10" stroke-width="6"/>
    <line x1="101.309326171870453" y1="13.198341836730833" x2="102.344360351559772" y2="45.137306680480833" fill="none" stroke="#515ba7" stroke-miterlimit="10" stroke-width="6"/>
    <path d="M47.516967773430224,45.489601602350376c-8.395141601559772,19.473876953130457-16.324829101559772,37.8681640625-31.440795898430224,37.963623046880457-6.28857421875.039794921869543-11.207153320319776-3.1142578125-15.623168945319776-8.194580078130457.004028320319776.58837890625.047119140629547,7.47119140625.065185546879547,10.3251953125,4.468872070310681,3.396728515630457,9.455322265620453,5.408203125,15.605346679690228,5.369384765630457,19.972045898430224-.126220703130457,29.253784179680224-21.656494140630457,38.22998046875-42.47802734375,8.395141601559772-19.474365234380457,16.325073242180224-37.86865234375,31.441040039059772-37.964111328130457l-.04736328125-7.499755859369543c-19.972290039059772.12646484375-29.254028320309772,21.65673828125-38.230224609379547,42.478271484369543Z" fill="#e2a78a"/>
    <path d="M31.338256835930224,47.215187539850376c.208251953129547.46630859375.416625976569776.933349609380457.625366210940228,1.401123046880457,9.238037109379547,20.70654296875,18.790771484379547,42.1181640625,38.762084960939319,41.991943359369543,19.972412109370453-.126220703119543,29.254150390620453-21.656494140619543,38.230102539060681-42.47802734375,8.395385742189319-19.47412109375,16.325073242189319-37.8681640625,31.441040039059772-37.963623046869543.01171875-.000244140630457.345703125-.0009765625.357543945319776-.0009765625-.0078125-3.024658203130457-.026489257819776-5.544921875-.04736328125-7.497802734380457-.066528320319776-.000244140619543-.290893554690228-.001708984369543-.357543945319776-.001220703119543-19.972412109370453.126220703119543-29.254150390620453,21.656494140619543-38.22998046875,42.47802734375-8.3955078125,19.47412109375-16.3251953125,37.8681640625-31.441162109370453,37.963623046869543-15.115234375.095458984380457-23.276123046879547-18.197021484369543-31.91650390625-37.5634765625C29.523803710930224,24.838234414850376,19.971435546870453,3.427101602350376,0,3.553322305480833l.04736328125,7.499755859369543c14.749877929680224-.09326171875,22.877563476559772,17.32373046875,31.290893554680224,36.162109375" fill="#c7873a"/>
    <path d="M141.162963867180224,74.841164102350376c-6.393798828120453-7.113037109369543-11.496459960930224-18.28271484375-16.652099609370453-29.83837890625C115.272338867180224,24.296486367980833,105.719360351559772,2.885109414850376,85.747192382809772,3.011330117980833l.04736328125,7.499755859369543c15.115966796870453-.095458984369543,23.277465820310681,18.197021484380457,31.91796875,37.5634765625,6.505981445310681,14.581787109380457,13.168212890620453,29.5126953125,23.51513671875,37.02587890625-.019287109379547-3.05908203125-.0478515625-6.516845703119543-.064697265629547-10.25927734375Z" fill="#e2a78a"/>
  </g>
  <g>
    <line x1="145.324096679680224" y1="46.386085977350376" x2="145.3984375" y2="82.500587930480833" fill="none" stroke="#26a9e0" stroke-miterlimit="10" stroke-width="6"/>
    <line x1="145.24365234375" y1="7.275490274230833" x2="145.324096679680224" y2="46.386085977350376" fill="none" stroke="#515ba7" stroke-miterlimit="10" stroke-width="6"/>
    <line x1="200.593017578120453" y1="46.037209024230833" x2="200.636474609370453" y2="83.370460977350376" fill="none" stroke="#26a9e0" stroke-miterlimit="10" stroke-width="6"/>
    <line x1="200.569213867180224" y1="25.667824258600376" x2="200.593017578120453" y2="46.037209024230833" fill="none" stroke="#515ba7" stroke-miterlimit="10" stroke-width="6"/>
    <line x1="214.59619140625" y1="45.948585977350376" x2="214.840698242180224" y2="84.635353555480833" fill="none" stroke="#26a9e0" stroke-miterlimit="10" stroke-width="6"/>
    <line x1="214.365966796870453" y1="9.504738321100376" x2="214.59619140625" y2="45.948585977350376" fill="none" stroke="#515ba7" stroke-miterlimit="10" stroke-width="6"/>
    <line x1="228.63427734375" y1="45.306984414850376" x2="228.8291015625" y2="76.155373086730833" fill="none" stroke="#26a9e0" stroke-miterlimit="10" stroke-width="6"/>
    <line x1="228.400024414059772" y1="8.230812539850376" x2="228.63427734375" y2="45.306984414850376" fill="none" stroke="#515ba7" stroke-miterlimit="10" stroke-width="6"/>
    <line x1="270.765014648430224" y1="43.061867227350376" x2="271.074340820309772" y2="64.556251992980833" fill="none" stroke="#26a9e0" stroke-miterlimit="10" stroke-width="6"/>
    <line x1="270.260131835930224" y1="7.966408242980833" x2="270.765014648430224" y2="43.061867227350376" fill="none" stroke="#515ba7" stroke-miterlimit="10" stroke-width="6"/>
    <line x1="256.557250976559772" y1="22.810890664850376" x2="256.64599609375" y2="36.868507852350376" fill="none" stroke="#515ba7" stroke-miterlimit="10" stroke-width="6"/>
    <line x1="172.300537109370453" y1="46.321632852350376" x2="172.884155273430224" y2="77.773293008600376" fill="none" stroke="#26a9e0" stroke-miterlimit="10" stroke-width="6"/>
    <line x1="172.153564453120453" y1="38.403419961730833" x2="172.300537109370453" y2="46.321632852350376" fill="none" stroke="#515ba7" stroke-miterlimit="10" stroke-width="6"/>
    <line x1="186.575561523430224" y1="55.977638711730833" x2="186.6591796875" y2="69.199562539850376" fill="none" stroke="#26a9e0" stroke-miterlimit="10" stroke-width="6"/>
    <line x1="158.43017578125" y1="46.303322305480833" x2="158.666015625" y2="83.635841836730833" fill="none" stroke="#26a9e0" stroke-miterlimit="10" stroke-width="6"/>
    <line x1="158.23486328125" y1="15.377785196100376" x2="158.43017578125" y2="46.303322305480833" fill="none" stroke="#515ba7" stroke-miterlimit="10" stroke-width="6"/>
    <line x1="243.060424804680224" y1="44.248390664850376" x2="243.302124023430224" y2="51.705910196100376" fill="none" stroke="#26a9e0" stroke-miterlimit="10" stroke-width="6"/>
    <line x1="242.025390625" y1="12.309669961730833" x2="243.060424804680224" y2="44.248390664850376" fill="none" stroke="#515ba7" stroke-miterlimit="10" stroke-width="6"/>
    <path d="M188.233032226559772,44.600685586730833c-8.395141601559772,19.47412109375-16.324829101559772,37.8681640625-31.440795898439319,37.963623046869543-6.28857421875.039794921880457-11.20703125-3.1142578125-15.623168945310681-8.194580078119543.004028320310681.58837890625.047119140620453,7.47119140625.065185546870453,10.3251953125,4.468872070319776,3.396728515619543,9.455322265629547,5.408203125,15.605346679690228,5.369384765619543,19.97216796875-.126220703119543,29.253784179689319-21.656494140619543,38.22998046875-42.47802734375,8.395141601559772-19.474365234369543,16.325073242189319-37.868408203119543,31.441162109379547-37.964111328119543l-.047485351569776-7.499755859380457c-19.972290039059772.12646484375-29.254028320309772,21.65673828125-38.230224609370453,42.478271484380457Z" fill="#e2a78a"/>
    <path d="M172.054321289059772,46.326271524230833c.208251953120453.46630859375.416625976560681.933349609369543.625366210940228,1.401123046869543,9.238037109370453,20.70654296875,18.790771484370453,42.1181640625,38.762084960930224,41.991943359380457,19.972412109379547-.126220703130457,29.254150390629547-21.656494140630457,38.230102539069776-42.47802734375,8.395385742180224-19.47412109375,16.325073242180224-37.8681640625,31.441040039059772-37.963623046880457.01171875-.000244140619543.345703125-.0009765625.357543945310681-.0009765625-.007690429690228-3.024658203119543-.026489257810681-5.544921875-.04736328125-7.497802734369543-.066528320310681,0-.290893554690228-.00146484375-.357543945310681-.001220703130457-19.972412109379547.126220703130457-29.254028320309772,21.656494140630457-38.22998046875,42.47802734375-8.3955078125,19.47412109375-16.3251953125,37.8681640625-31.441162109379547,37.9638671875-15.115234375.095458984380457-23.276123046870453-18.197265625-31.91650390625-37.563720703119543-9.237915039059772-20.706298828130457-18.790405273430224-42.11767578125-38.761840820309772-41.991455078130457l.04736328125,7.499755859380457c14.749877929689319-.09326171875,22.877685546879547,17.323974609369543,31.290893554689319,36.162109375" fill="#c7873a"/>
    <path d="M281.879028320309772,73.952248086730833c-6.393798828129547-7.113037109380457-11.496459960939319-18.282470703130457-16.652099609379547-29.838134765630457-9.238525390620453-20.70654296875-18.79150390625-42.117919921869543-38.763671875-41.99169921875l.047485351569776,7.499755859380457c15.115966796870453-.095458984380457,23.27734375,18.197021484369543,31.917846679680224,37.5634765625,6.505981445319776,14.581787109369543,13.168334960940228,29.5126953125,23.515258789069776,37.02587890625-.019409179690228-3.05908203125-.047973632819776-6.516845703130457-.064819335940228-10.25927734375Z" fill="#e2a78a"/>
  </g>
  <g>
    <line x1="286.040283203120453" y1="45.497169961730833" x2="286.114501953120453" y2="81.611671914850376" fill="none" stroke="#26a9e0" stroke-miterlimit="10" stroke-width="6"/>
    <line x1="285.959716796870453" y1="6.386574258600376" x2="286.040283203120453" y2="45.497169961730833" fill="none" stroke="#515ba7" stroke-miterlimit="10" stroke-width="6"/>
    <line x1="341.30908203125" y1="45.148293008600376" x2="341.3525390625" y2="82.481544961730833" fill="none" stroke="#26a9e0" stroke-miterlimit="10" stroke-width="6"/>
    <line x1="341.285400390620453" y1="24.778908242980833" x2="341.30908203125" y2="45.148293008600376" fill="none" stroke="#515ba7" stroke-miterlimit="10" stroke-width="6"/>
    <line x1="355.312377929680224" y1="45.059669961730833" x2="355.556762695309772" y2="83.746437539850376" fill="none" stroke="#26a9e0" stroke-miterlimit="10" stroke-width="6"/>
    <line x1="355.082153320309772" y1="8.615822305480833" x2="355.312377929680224" y2="45.059669961730833" fill="none" stroke="#515ba7" stroke-miterlimit="10" stroke-width="6"/>
    <line x1="369.350341796870453" y1="44.418068399230833" x2="369.545166015620453" y2="75.266457071100376" fill="none" stroke="#26a9e0" stroke-miterlimit="10" stroke-width="6"/>
    <line x1="369.116088867180224" y1="7.341896524230833" x2="369.350341796870453" y2="44.418068399230833" fill="none" stroke="#515ba7" stroke-miterlimit="10" stroke-width="6"/>
    <line x1="411.481079101559772" y1="42.172951211730833" x2="411.790405273430224" y2="63.667580117980833" fill="none" stroke="#26a9e0" stroke-miterlimit="10" stroke-width="6"/>
    <line x1="410.976196289059772" y1="7.077492227350376" x2="411.481079101559772" y2="42.172951211730833" fill="none" stroke="#515ba7" stroke-miterlimit="10" stroke-width="6"/>
    <line x1="397.273315429680224" y1="21.921974649230833" x2="397.362060546870453" y2="35.979591836730833" fill="none" stroke="#515ba7" stroke-miterlimit="10" stroke-width="6"/>
    <line x1="313.0166015625" y1="45.432716836730833" x2="313.600219726559772" y2="76.884376992980833" fill="none" stroke="#26a9e0" stroke-miterlimit="10" stroke-width="6"/>
    <line x1="312.86962890625" y1="37.514503946100376" x2="313.0166015625" y2="45.432716836730833" fill="none" stroke="#515ba7" stroke-miterlimit="10" stroke-width="6"/>
    <line x1="327.291625976559772" y1="55.088722696100376" x2="327.375244140620453" y2="68.310646524230833" fill="none" stroke="#26a9e0" stroke-miterlimit="10" stroke-width="6"/>
    <line x1="299.146362304680224" y1="45.414406289850376" x2="299.382202148430224" y2="82.746925821100376" fill="none" stroke="#26a9e0" stroke-miterlimit="10" stroke-width="6"/>
    <line x1="298.950927734370453" y1="14.488869180480833" x2="299.146362304680224" y2="45.414406289850376" fill="none" stroke="#515ba7" stroke-miterlimit="10" stroke-width="6"/>
    <line x1="383.776489257809772" y1="43.359474649230833" x2="384.018188476559772" y2="50.816994180480833" fill="none" stroke="#26a9e0" stroke-miterlimit="10" stroke-width="6"/>
    <line x1="382.741455078120453" y1="11.420753946100376" x2="383.776489257809772" y2="43.359474649230833" fill="none" stroke="#515ba7" stroke-miterlimit="10" stroke-width="6"/>
    <path d="M328.949096679680224,43.711769571100376c-8.395141601559772,19.47412109375-16.324829101559772,37.8681640625-31.440795898430224,37.963623046880457-6.28857421875.039794921869543-11.20703125-3.1142578125-15.623168945319776-8.194580078130457.004028320319776.58837890625.047119140629547,7.47119140625.065185546879547,10.3251953125,4.468872070310681,3.396728515630457,9.455444335940228,5.408203125,15.605346679690228,5.369384765630457,19.97216796875-.126220703130457,29.253784179680224-21.656494140630457,38.22998046875-42.47802734375,8.395263671870453-19.474365234380457,16.3251953125-37.868408203130457,31.441162109370453-37.9638671875l-.04736328125-7.5c-19.972412109370453.12646484375-29.254150390620453,21.65673828125-38.230346679690228,42.478271484369543Z" fill="#e2a78a"/>
    <path d="M312.770385742180224,45.437355508600376c.208251953129547.46630859375.416625976569776.933349609380457.625366210940228,1.401123046880457,9.238037109379547,20.70654296875,18.790771484379547,42.1181640625,38.76220703125,41.991943359369543,19.972290039059772-.126220703119543,29.254028320309772-21.656494140619543,38.22998046875-42.47802734375,8.395385742189319-19.473876953119543,16.325073242189319-37.8681640625,31.441040039059772-37.963623046869543.011840820319776-.000244140630457.345703125-.0009765625.357543945319776-.0009765625-.007690429690228-3.024658203130457-.026489257819776-5.544921875-.04736328125-7.497802734380457-.06640625,0-.290771484379547-.00146484375-.357543945319776-.001220703119543-19.972412109370453.126220703119543-29.254028320309772,21.656494140619543-38.22998046875,42.47802734375-8.395385742180224,19.47412109375-16.3251953125,37.868408203119543-31.441162109370453,37.9638671875-15.115234375.095458984369543-23.276123046879547-18.197265625-31.91650390625-37.563720703130457-9.237915039059772-20.706298828119543-18.790405273439319-42.11767578125-38.761840820309772-41.991455078119543l.04736328125,7.499755859369543c14.749877929680224-.093017578119543,22.877685546870453,17.323974609380457,31.290893554680224,36.162109375" fill="#c7873a"/>
    <path d="M422.595092773430224,73.063332071100376c-6.393798828120453-7.11279296875-11.496459960930224-18.282470703119543-16.652099609370453-29.838134765619543-9.238525390629547-20.70654296875-18.79150390625-42.117919921880457-38.763549804689319-41.99169921875l.04736328125,7.5c15.115966796879547-.095703125,23.27734375,18.19677734375,31.917846679689319,37.563232421869543,6.505981445310681,14.581787109380457,13.168334960940228,29.5126953125,23.515258789060681,37.02587890625-.019409179690228-3.058837890619543-.047973632810681-6.516845703119543-.064819335940228-10.25927734375Z" fill="#e2a78a"/>
  </g>
  <g>
    <line x1="426.75634765625" y1="44.608253946100376" x2="426.83056640625" y2="80.722755899230833" fill="none" stroke="#26a9e0" stroke-miterlimit="10" stroke-width="6"/>
    <line x1="426.67578125" y1="5.497658242980833" x2="426.75634765625" y2="44.608253946100376" fill="none" stroke="#515ba7" stroke-miterlimit="10" stroke-width="6"/>
    <line x1="482.025146484370453" y1="44.259376992980833" x2="482.068603515620453" y2="81.592628946100376" fill="none" stroke="#26a9e0" stroke-miterlimit="10" stroke-width="6"/>
    <line x1="482.00146484375" y1="23.889992227350376" x2="482.025146484370453" y2="44.259376992980833" fill="none" stroke="#515ba7" stroke-miterlimit="10" stroke-width="6"/>
    <line x1="496.028442382809772" y1="44.170753946100376" x2="496.272827148430224" y2="82.857521524230833" fill="none" stroke="#26a9e0" stroke-miterlimit="10" stroke-width="6"/>
    <line x1="495.798217773430224" y1="7.726906289850376" x2="496.028442382809772" y2="44.170753946100376" fill="none" stroke="#515ba7" stroke-miterlimit="10" stroke-width="6"/>
    <line x1="510.06640625" y1="43.529152383600376" x2="510.26123046875" y2="74.377541055480833" fill="none" stroke="#26a9e0" stroke-miterlimit="10" stroke-width="6"/>
    <line x1="509.832153320309772" y1="6.452980508600376" x2="510.06640625" y2="43.529152383600376" fill="none" stroke="#515ba7" stroke-miterlimit="10" stroke-width="6"/>
    <line x1="552.197265625" y1="41.284035196100376" x2="552.506469726559772" y2="62.778664102350376" fill="none" stroke="#26a9e0" stroke-miterlimit="10" stroke-width="6"/>
    <line x1="551.692260742180224" y1="6.188576211730833" x2="552.197265625" y2="41.284035196100376" fill="none" stroke="#515ba7" stroke-miterlimit="10" stroke-width="6"/>
    <line x1="537.989379882809772" y1="21.033058633600376" x2="538.078125" y2="35.090675821100376" fill="none" stroke="#515ba7" stroke-miterlimit="10" stroke-width="6"/>
    <line x1="453.732666015620453" y1="44.543800821100376" x2="454.316284179680224" y2="75.995460977350376" fill="none" stroke="#26a9e0" stroke-miterlimit="10" stroke-width="6"/>
    <line x1="453.585815429680224" y1="36.625587930480833" x2="453.732666015620453" y2="44.543800821100376" fill="none" stroke="#515ba7" stroke-miterlimit="10" stroke-width="6"/>
    <line x1="468.007690429680224" y1="54.199806680480833" x2="468.09130859375" y2="67.421730508600376" fill="none" stroke="#26a9e0" stroke-miterlimit="10" stroke-width="6"/>
    <line x1="439.862426757809772" y1="44.525490274230833" x2="440.098266601559772" y2="81.858009805480833" fill="none" stroke="#26a9e0" stroke-miterlimit="10" stroke-width="6"/>
    <line x1="439.6669921875" y1="13.599953164850376" x2="439.862426757809772" y2="44.525490274230833" fill="none" stroke="#515ba7" stroke-miterlimit="10" stroke-width="6"/>
    <line x1="524.492553710930224" y1="42.470558633600376" x2="524.734252929680224" y2="49.928078164850376" fill="none" stroke="#26a9e0" stroke-miterlimit="10" stroke-width="6"/>
    <line x1="523.457641601559772" y1="10.531837930480833" x2="524.492553710930224" y2="42.470558633600376" fill="none" stroke="#515ba7" stroke-miterlimit="10" stroke-width="6"/>
    <path d="M469.665161132809772,42.822853555480833c-8.395141601559772,19.47412109375-16.324829101559772,37.8681640625-31.440795898439319,37.9638671875-6.28857421875.03955078125-11.20703125-3.114501953130457-15.623168945310681-8.194580078130457.004028320310681.58837890625.047119140620453,7.470947265630457.065185546870453,10.324951171880457,4.468872070319776,3.396728515619543,9.455444335940228,5.408203125,15.605346679690228,5.369384765619543,19.97216796875-.126220703119543,29.25390625-21.656494140619543,38.22998046875-42.47802734375,8.395263671879547-19.474365234369543,16.3251953125-37.868408203119543,31.441162109379547-37.9638671875l-.04736328125-7.5c-19.972412109379547.12646484375-29.254150390629547,21.65673828125-38.230346679690228,42.478271484380457Z" fill="#e2a78a"/>
    <path d="M453.486450195309772,44.548439492980833c.208251953120453.46630859375.416625976560681.933349609369543.625366210940228,1.4013671875,9.238037109370453,20.706298828119543,18.790771484370453,42.117919921869543,38.76220703125,41.99169921875,19.972290039059772-.126220703130457,29.254028320309772-21.656494140630457,38.22998046875-42.477783203130457,8.395385742180224-19.47412109375,16.325073242180224-37.868408203119543,31.441040039059772-37.9638671875.011840820310681,0,.345703125-.0009765625.357543945310681-.0009765625-.007690429690228-3.024658203119543-.0263671875-5.544921875-.04736328125-7.497802734369543-.06640625,0-.290771484370453-.00146484375-.357543945310681-.0009765625-19.972290039059772.1259765625-29.254028320309772,21.65625-38.22998046875,42.477783203119543-8.395385742189319,19.47412109375-16.325073242189319,37.868408203130457-31.441040039059772,37.9638671875-15.115356445319776.095458984380457-23.276245117190228-18.197265625-31.91650390625-37.563720703119543-9.238037109379547-20.706298828130457-18.79052734375-42.11767578125-38.761962890629547-41.991455078130457l.04736328125,7.499755859380457c14.749877929689319-.093017578130457,22.877685546879547,17.323974609369543,31.290893554689319,36.162109375" fill="#c7873a"/>
    <path d="M563.311157226559772,72.174416055480833c-6.393798828129547-7.11279296875-11.496459960939319-18.282470703130457-16.652099609379547-29.838134765630457C537.420532226559772,21.629738321100376,527.867553710930224.218605508600376,507.8955078125.344582071100376l.04736328125,7.5c15.115966796870453-.095458984369543,23.27734375,18.19677734375,31.91796875,37.563232421880457,6.505859375,14.58203125,13.168212890620453,29.5126953125,23.51513671875,37.02587890625-.019287109379547-3.058837890630457-.047973632819776-6.516845703130457-.064819335940228-10.25927734375Z" fill="#e2a78a"/>
  </g>
</svg>